mtllib Drawer_feba4efa.mtl
v -0.24 0.05 0.02
v -0.238 0.04801 0.022
v -0.238 -0.09799 0.022
v -0.24 0.05 0.02
v -0.238 -0.09799 0.022
v -0.24 -0.1 0.02
v -0.24 -0.1 0
v 0.24 -0.1 0
v 0.24 0.05 0
v -0.24 0.05 0
v -0.24 -0.1 0.02
v -0.24 -0.1 0
v -0.24 0.05 0
v -0.24 0.05 0.02
v -0.24 0.05 0.02
v -0.24 0.05 0
v 0.24 0.05 0
v 0.24 0.05 0.02
v 0.24 0.05 0.02
v 0.24 0.05 0
v 0.24 -0.1 0
v 0.24 -0.1 0.02
v 0.24 -0.1 0.02
v 0.24 -0.1 0
v -0.24 -0.1 0
v -0.24 -0.1 0.02
v -0.238 -0.09799 0.022
v -0.238 0.04801 0.022
v 0.23801 0.04801 0.022
v 0.23801 -0.09799 0.022
v -0.24 -0.1 0.02
v -0.238 -0.09799 0.022
v 0.23801 -0.09799 0.022
v 0.24 -0.1 0.02
v 0.24 -0.1 0.02
v 0.23801 -0.09799 0.022
v 0.23801 0.04801 0.022
v 0.24 0.05 0.02
v 0.24 0.05 0.02
v 0.23801 0.04801 0.022
v -0.238 0.04801 0.022
v -0.24 0.05 0.02
v -0.23899 -0.099 -0.36712
v 0.23901 -0.099 -0.36712
v 0.23901 0.0416 -0.36712
v -0.23899 0.0416 -0.36712
v -0.224 -0.0876 -0.00612
v -0.224 -0.0876 -0.35287
v 0.22401 -0.0876 -0.35287
v 0.22401 -0.0876 -0.00612
v 0.23901 0.0416 0.00813
v 0.23901 0.0416 -0.36712
v 0.23901 -0.099 -0.36712
v 0.23901 -0.099 0.00813
v -0.23899 -0.099 0.00813
v 0.23901 -0.099 0.00813
v 0.23901 -0.099 -0.36712
v -0.23899 -0.099 -0.36712
v -0.23899 -0.099 0.00813
v -0.23899 -0.099 -0.36712
v -0.23899 0.0416 -0.36712
v -0.23899 0.0416 0.00813
v 0.23901 0.0416 -0.36712
v 0.22401 0.0416 -0.35287
v -0.224 0.0416 -0.35287
v -0.23899 0.0416 -0.36712
v -0.23899 0.0416 -0.36712
v -0.224 0.0416 -0.35287
v -0.224 0.0416 -0.00612
v -0.23899 0.0416 0.00813
v -0.23899 0.0416 0.00813
v -0.224 0.0416 -0.00612
v 0.22401 0.0416 -0.00612
v 0.23901 0.0416 0.00813
v 0.23901 0.0416 0.00813
v 0.22401 0.0416 -0.00612
v 0.22401 0.0416 -0.35287
v 0.23901 0.0416 -0.36712
v -0.224 0.0416 -0.00612
v -0.224 -0.0876 -0.00612
v 0.22401 -0.0876 -0.00612
v 0.22401 0.0416 -0.00612
v 0.22401 0.0416 -0.00612
v 0.22401 -0.0876 -0.00612
v 0.22401 -0.0876 -0.35287
v 0.22401 0.0416 -0.35287
v 0.22401 0.0416 -0.35287
v 0.22401 -0.0876 -0.35287
v -0.224 -0.0876 -0.35287
v -0.224 0.0416 -0.35287
v -0.224 0.0416 -0.35287
v -0.224 -0.0876 -0.35287
v -0.224 -0.0876 -0.00612
v -0.224 0.0416 -0.00612
vt 0.04103647 3.262091
vt 0.04325578 3.259871
vt 0.04325578 3.073462
vt 0.04103647 3.262091
vt 0.04325578 3.073462
vt 0.04103647 3.071243
vt 2.385606 1.417786
vt 1.947727 1.417786
vt 1.947727 1.582214
vt 2.385606 1.582214
vt 4.511402 0.7675565
vt 4.488598 0.7675565
vt 4.488598 0.8991098
vt 4.511402 0.8991098
vt 2.35869 0.5124984
vt 2.35869 0.4875016
vt 1.974645 0.4875016
vt 1.974645 0.5124984
vt 4.821931 0.8991125
vt 4.844736 0.8991125
vt 4.844736 0.7675538
vt 4.821931 0.7675538
vt 2.358689 0.1791652
vt 2.358689 0.1541682
vt 1.974645 0.1541682
vt 1.974645 0.1791652
vt 1.949976 3.086488
vt 1.949976 3.246845
vt 2.383357 3.246845
vt 2.383357 3.086488
vt 0.0009161481 0.7854196
vt 0.003294587 0.7830411
vt 0.003294587 0.216959
vt 0.0009161481 0.2145804
vt 0.3160417 0.06907607
vt 0.3136633 0.07145463
vt 0.3136633 0.2450869
vt 0.3160417 0.2474653
vt 0.01433698 0.2145844
vt 0.01195857 0.2169627
vt 0.01195857 0.7830371
vt 0.01433698 0.7854155
vt 0.217994 0.7390001
vt 0.217994 0.261
vt 0.07739399 0.261
vt 0.07739399 0.7390001
vt 0.4946272 0.4954859
vt 0.8413768 0.4954859
vt 0.8413768 0.04748583
vt 0.4946272 0.04748583
vt 0.7275158 0.9580976
vt 0.7275158 0.5828477
vt 0.5869158 0.5828477
vt 0.5869158 0.9580976
vt 0.4152338 0.5285324
vt 0.4152338 0.05053245
vt 0.03998381 0.05053245
vt 0.03998353 0.5285324
vt 0.7856817 0.582848
vt 0.7856817 0.9580978
vt 0.9262816 0.9580978
vt 0.9262816 0.582848
vt 0.3219701 0.2609975
vt 0.3077197 0.2759976
vt 0.3077197 0.7240024
vt 0.3219704 0.7390025
vt 0.7490988 0.9580973
vt 0.7640986 0.9438468
vt 0.7640986 0.5970987
vt 0.7490988 0.5828484
vt 0.008354175 0.7389992
vt 0.02260426 0.7239994
vt 0.02260426 0.2760009
vt 0.008354175 0.2610009
vt 0.5653327 0.5828478
vt 0.5503327 0.597098
vt 0.5503327 0.9438474
vt 0.5653327 0.9580975
vt 0.1068852 0.6927445
vt 0.2360853 0.6927445
vt 0.2360853 0.2447443
vt 0.1068852 0.2447443
vt 0.5299072 0.6160464
vt 0.4007073 0.6160464
vt 0.4007073 0.9627959
vt 0.5299072 0.9627959
vt 0.5356216 0.2447443
vt 0.4064216 0.2447443
vt 0.4064216 0.6927447
vt 0.5356216 0.6927447
vt 0.368685 0.6160464
vt 0.2394851 0.6160464
vt 0.2394851 0.9627959
vt 0.368685 0.9627959
vn -0.7071736 0 0.7070401
vn -0.7071748 0 0.7070388
vn -0.7071127 0 0.7071008
vn -0.7071736 0 0.7070401
vn -0.7071127 0 0.7071008
vn -0.7071121 0 0.7071014
vn 0 0 -1
vn 0 0 -1
vn 0 0 -1
vn 0 0 -1
vn -1 0 0
vn -1 0 0
vn -1 0 0
vn -1 0 0
vn 0 1 0
vn 0 1 0
vn 0 1 0
vn 0 1 0
vn 1 0 0
vn 1 0 0
vn 1 0 0
vn 1 0 0
vn 0 -1 0
vn 0 -1 0
vn 0 -1 0
vn 0 -1 0
vn 0 0 1
vn 0 0 1
vn 0 0 1
vn 0 0 1
vn 0 -0.7071211 0.7070924
vn 0 -0.7071213 0.7070923
vn 0 -0.7071159 0.7070976
vn 0 -0.7071159 0.7070976
vn 0.7071303 0 0.7070832
vn 0.7071295 0 0.707084
vn 0.7071694 0 0.7070442
vn 0.7071698 0 0.7070439
vn 0 0.7071339 0.7070795
vn 0 0.7071339 0.7070796
vn 0 0.7071427 0.7070708
vn 0 0.7071427 0.7070708
vn 0 0 -1
vn 0 0 -1
vn 0 0 -1
vn 0 0 -1
vn 0 1 0
vn 0 1 0
vn 0 1 0
vn 0 1 0
vn 1 0 0
vn 1 0 0
vn 1 0 0
vn 1 0 0
vn 0 -1 0
vn 0 -1 0
vn 0 -1 0
vn 0 -1 0
vn -1 0 0
vn -1 0 0
vn -1 0 0
vn -1 0 0
vn 0 1 0
vn 0 1 -1.28392E-07
vn 0 1 2.024185E-06
vn 0 1 1.970964E-06
vn 0 1 1.970964E-06
vn 0 1 2.024185E-06
vn 0 1 6.419832E-07
vn 0 1 5.102324E-07
vn 0 1 5.102324E-07
vn 0 1 6.419832E-07
vn 0 1 -2.017623E-06
vn 0 1 -1.970929E-06
vn 0 1 -1.970929E-06
vn 0 1 -2.017623E-06
vn 0 1 -1.28392E-07
vn 0 1 0
vn 0 0 -1
vn 0 0 -1
vn 0 0 -1
vn 0 0 -1
vn -1 0 0
vn -1 0 0
vn -1 0 0
vn -1 0 0
vn 0 0 1
vn 0 0 1
vn 0 0 1
vn 0 0 1
vn 1 0 0
vn 1 0 0
vn 1 0 0
vn 1 0 0
usemtl WhiteWoodClean
f 3/3/3 2/2/2 1/1/1
f 6/6/6 5/5/5 4/4/4
f 9/9/9 8/8/8 7/7/7
f 10/10/10 9/9/9 7/7/7
f 13/13/13 12/12/12 11/11/11
f 14/14/14 13/13/13 11/11/11
f 17/17/17 16/16/16 15/15/15
f 18/18/18 17/17/17 15/15/15
f 21/21/21 20/20/20 19/19/19
f 22/22/22 21/21/21 19/19/19
f 25/25/25 24/24/24 23/23/23
f 26/26/26 25/25/25 23/23/23
f 29/29/29 28/28/28 27/27/27
f 30/30/30 29/29/29 27/27/27
f 33/33/33 32/32/32 31/31/31
f 34/34/34 33/33/33 31/31/31
f 37/37/37 36/36/36 35/35/35
f 38/38/38 37/37/37 35/35/35
f 41/41/41 40/40/40 39/39/39
f 42/42/42 41/41/41 39/39/39
f 45/45/45 44/44/44 43/43/43
f 46/46/46 45/45/45 43/43/43
f 49/49/49 48/48/48 47/47/47
f 50/50/50 49/49/49 47/47/47
f 53/53/53 52/52/52 51/51/51
f 54/54/54 53/53/53 51/51/51
f 57/57/57 56/56/56 55/55/55
f 58/58/58 57/57/57 55/55/55
f 61/61/61 60/60/60 59/59/59
f 62/62/62 61/61/61 59/59/59
f 65/65/65 64/64/64 63/63/63
f 66/66/66 65/65/65 63/63/63
f 69/69/69 68/68/68 67/67/67
f 70/70/70 69/69/69 67/67/67
f 73/73/73 72/72/72 71/71/71
f 74/74/74 73/73/73 71/71/71
f 77/77/77 76/76/76 75/75/75
f 78/78/78 77/77/77 75/75/75
f 81/81/81 80/80/80 79/79/79
f 82/82/82 81/81/81 79/79/79
f 85/85/85 84/84/84 83/83/83
f 86/86/86 85/85/85 83/83/83
f 89/89/89 88/88/88 87/87/87
f 90/90/90 89/89/89 87/87/87
f 93/93/93 92/92/92 91/91/91
f 94/94/94 93/93/93 91/91/91
