mtllib Cabinet_41c7fc3b.mtl
v -0.00364 -0.37363 0.027
v 0.085 -0.375 0.02541
v -0.005 -0.375 0.02541
v 0.085 -0.37368 0.027
v 0.37501 -0.375 0.02551
v 0.37501 -0.37368 0.0271
v 0.46501 -0.375 0.02551
v 0.46363 -0.37363 0.0271
v 0.37501 -0.375 0.00011
v 0.46501 -0.375 0.02551
v 0.46501 -0.375 0.00011
v 0.37501 -0.375 0.02551
v 0.085 -0.375 0.02541
v 0.085 -0.375 0
v -0.005 -0.375 0
v -0.005 -0.375 0.02541
v 0.46363 -0.37363 0.0271
v 0.46501 -0.285 0.02551
v 0.46501 -0.375 0.02551
v 0.46369 -0.285 0.0271
v 0.46501 0.285 0.02551
v 0.46369 0.285 0.0271
v 0.46501 0.37501 0.02551
v 0.46363 0.37368 0.0271
v 0.46501 0.285 0.00011
v 0.46501 0.37501 0.02551
v 0.46501 0.37501 0.00011
v 0.46501 0.285 0.02551
v 0.46501 -0.285 0.02551
v 0.46501 -0.285 0.00011
v 0.46501 -0.375 0.00011
v 0.46501 -0.375 0.02551
v 0.37501 0.37501 0.02551
v 0.46501 0.37501 0.02551
v 0.46363 0.37368 0.0271
v 0.37501 0.37365 0.0271
v 0.085 0.37501 0.02541
v 0.085 0.37365 0.027
v -0.005 0.37501 0.02541
v -0.00364 0.37368 0.027
v 0.085 0.37501 0
v -0.005 0.37501 0.02541
v -0.005 0.37501 0
v 0.085 0.37501 0.02541
v 0.37501 0.37501 0.02551
v 0.37501 0.37501 0.00011
v 0.46501 0.37501 0.00011
v 0.46501 0.37501 0.02551
v -0.005 0.28501 0.02541
v -0.005 0.37501 0.02541
v -0.00364 0.37368 0.027
v -0.00366 0.28501 0.027
v -0.005 -0.285 0.02541
v -0.00366 -0.28499 0.027
v -0.005 -0.375 0.02541
v -0.00364 -0.37363 0.027
v -0.005 0.37501 0
v -0.005 0.37501 0.02541
v -0.005 0.28501 0.02541
v -0.005 0.28501 0
v -0.005 -0.285 0
v -0.005 -0.285 0.02541
v -0.005 -0.375 0.02541
v -0.005 -0.375 0
v 0.05081 0.3192 0.02528
v 0.04916 0.285 0.027
v 0.04918 0.32083 0.027
v 0.05082 0.28501 0.02527
v 0.04916 -0.28499 0.027
v 0.05082 -0.285 0.02527
v 0.04918 -0.32081 0.027
v 0.05081 -0.31919 0.02528
v 0.0523 0.28501 0.01301
v 0.05081 0.3192 0.02528
v 0.0523 0.31771 0.01301
v 0.05082 0.28501 0.02527
v 0.05082 -0.285 0.02527
v 0.0523 -0.285 0.01301
v 0.0523 -0.3177 0.01301
v 0.05081 -0.31919 0.02528
v 0.085 0.31919 0.02527
v 0.05081 0.3192 0.02528
v 0.04918 0.32083 0.027
v 0.08501 0.32085 0.027
v 0.37501 0.31919 0.02537
v 0.375 0.32085 0.0271
v 0.4092 0.3192 0.02538
v 0.41089 0.32083 0.0271
v 0.0523 0.31771 0.01301
v 0.05081 0.3192 0.02528
v 0.085 0.31919 0.02527
v 0.085 0.31771 0.01301
v 0.37501 0.31771 0.01311
v 0.37501 0.31919 0.02537
v 0.4092 0.3192 0.02538
v 0.40771 0.31771 0.01311
v 0.40919 0.285 0.02537
v 0.4092 0.3192 0.02538
v 0.41089 0.32083 0.0271
v 0.4108 0.285 0.0271
v 0.40919 -0.285 0.02537
v 0.4108 -0.28499 0.0271
v 0.4092 -0.31919 0.02538
v 0.41089 -0.32081 0.0271
v 0.40771 0.31771 0.01311
v 0.4092 0.3192 0.02538
v 0.40919 0.285 0.02537
v 0.40771 0.285 0.01311
v 0.40771 -0.285 0.01311
v 0.40919 -0.285 0.02537
v 0.4092 -0.31919 0.02538
v 0.40771 -0.3177 0.01311
v 0.37501 -0.31918 0.02537
v 0.4092 -0.31919 0.02538
v 0.41089 -0.32081 0.0271
v 0.375 -0.32085 0.0271
v 0.085 -0.31918 0.02527
v 0.08501 -0.32085 0.027
v 0.05081 -0.31919 0.02528
v 0.04918 -0.32081 0.027
v 0.40771 -0.3177 0.01311
v 0.4092 -0.31919 0.02538
v 0.37501 -0.31918 0.02537
v 0.37501 -0.3177 0.01311
v 0.085 -0.3177 0.01301
v 0.085 -0.31918 0.02527
v 0.05081 -0.31919 0.02528
v 0.0523 -0.3177 0.01301
v 0.40771 0.285 0.01311
v 0.37501 0.31771 0.01311
v 0.40771 0.31771 0.01311
v 0.37501 0.285 0.01311
v 0.085 0.31771 0.01301
v 0.37501 -0.285 0.01311
v 0.40771 -0.285 0.01311
v 0.40771 -0.3177 0.01311
v 0.37501 -0.3177 0.01311
v 0.085 0.28501 0.01301
v 0.0523 0.31771 0.01301
v 0.0523 0.28501 0.01301
v 0.0523 -0.285 0.01301
v 0.085 -0.285 0.01301
v 0.085 -0.3177 0.01301
v 0.0523 -0.3177 0.01301
v 0.37501 0.37501 0.00011
v 0.46501 0.285 0.00011
v 0.46501 0.37501 0.00011
v 0.37501 0.285 0.00011
v 0.46501 -0.285 0.00011
v 0.085 0.28501 0
v 0.085 0.37501 0
v -0.005 0.37501 0
v -0.005 0.28501 0
v 0.37501 -0.285 0.00011
v 0.46501 -0.375 0.00011
v 0.37501 -0.375 0.00011
v 0.085 -0.375 0
v 0.085 -0.285 0
v -0.005 -0.285 0
v -0.005 -0.375 0
v 0.04918 0.32083 0.027
v 0.04916 0.285 0.027
v -0.00366 0.28501 0.027
v -0.00364 0.37368 0.027
v -0.00366 -0.28499 0.027
v 0.08501 0.32085 0.027
v 0.04916 -0.28499 0.027
v 0.085 0.37365 0.027
v -0.00364 -0.37363 0.027
v 0.375 0.32085 0.0271
v 0.04918 -0.32081 0.027
v 0.37501 0.37365 0.0271
v 0.085 -0.37368 0.027
v 0.41089 0.32083 0.0271
v 0.08501 -0.32085 0.027
v 0.46363 0.37368 0.0271
v 0.37501 -0.37368 0.0271
v 0.4108 0.285 0.0271
v 0.375 -0.32085 0.0271
v 0.46369 0.285 0.0271
v 0.46363 -0.37363 0.0271
v 0.4108 -0.28499 0.0271
v 0.41089 -0.32081 0.0271
v 0.46369 -0.285 0.0271
vt 1.909425 2.815524
vt 1.966109 2.812978
vt 1.908561 2.812978
vt 1.966109 2.815524
vt 2.151539 2.813137
vt 2.151539 2.815683
vt 2.209087 2.813137
vt 2.20821 2.815683
vt 2.151539 2.772712
vt 2.209087 2.813137
vt 2.209087 2.772712
vt 2.151539 2.813137
vt 1.966109 2.812978
vt 1.966109 2.772553
vt 1.908561 2.772553
vt 1.908561 2.812978
vt 2.183801 1.091096
vt 2.186419 1.146233
vt 2.186419 1.090245
vt 2.183801 1.146233
vt 2.186419 1.500825
vt 2.183801 1.500825
vt 2.186419 1.556813
vt 2.183801 1.555987
vt 2.227962 1.500825
vt 2.186419 1.556813
vt 2.227962 1.556813
vt 2.186419 1.500825
vt 2.186419 1.146233
vt 2.227962 1.146233
vt 2.227962 1.090245
vt 2.186419 1.090245
vt 3.730787 2.813143
vt 3.673223 2.813143
vt 3.674101 2.81569
vt 3.730787 2.81569
vt 3.916272 2.812983
vt 3.916272 2.815531
vt 3.973836 2.812983
vt 3.972972 2.815531
vt 3.916272 2.772546
vt 3.973836 2.812983
vt 3.973836 2.772546
vt 3.916272 2.812983
vt 3.730787 2.813143
vt 3.730787 2.772705
vt 3.673223 2.772705
vt 3.673223 2.813143
vt 1.931232 1.500858
vt 1.931232 1.556856
vt 1.93385 1.556029
vt 1.93385 1.500857
vt 1.931232 1.146201
vt 1.93385 1.146201
vt 1.931232 1.090202
vt 1.93385 1.091054
vt 1.88968 1.556856
vt 1.931232 1.556856
vt 1.931232 1.500858
vt 1.88968 1.500858
vt 1.88968 1.146201
vt 1.931232 1.146201
vt 1.931232 1.090202
vt 1.88968 1.090202
vt 4.252725 1.324615
vt 4.248807 1.308746
vt 4.248807 1.325374
vt 4.252747 1.308746
vt 4.248807 1.044192
vt 4.252747 1.044192
vt 4.248807 1.027567
vt 4.252725 1.028323
vt 4.280605 1.308746
vt 4.252725 1.324615
vt 4.280605 1.323923
vt 4.252747 1.308746
vt 4.252747 1.044192
vt 4.280605 1.044192
vt 4.280605 1.029015
vt 4.252725 1.028323
vt 1.701843 3.100921
vt 1.687022 3.100945
vt 1.686314 3.105139
vt 1.701844 3.105139
vt 1.827545 3.101165
vt 1.827545 3.105383
vt 1.842366 3.101188
vt 1.843098 3.105383
vt 1.687669 3.071087
vt 1.687022 3.100945
vt 1.701843 3.100921
vt 1.701843 3.071087
vt 1.827545 3.071331
vt 1.827545 3.101165
vt 1.842366 3.101188
vt 1.84172 3.071331
vt 4.57077 1.308593
vt 4.570793 1.324442
vt 4.574706 1.3252
vt 4.574706 1.308592
vt 4.57077 1.044346
vt 4.574706 1.044346
vt 4.570793 1.028496
vt 4.574706 1.027741
vt 4.542943 1.323752
vt 4.570793 1.324442
vt 4.57077 1.308593
vt 4.542943 1.308593
vt 4.542943 1.044346
vt 4.57077 1.044346
vt 4.570793 1.028496
vt 4.542943 1.029186
vt 2.878333 3.101165
vt 2.863512 3.101189
vt 2.86278 3.105384
vt 2.878334 3.105384
vt 3.004043 3.100922
vt 3.004042 3.105141
vt 3.018864 3.100945
vt 3.019573 3.105141
vt 2.864159 3.071329
vt 2.863512 3.101189
vt 2.878333 3.101165
vt 2.878333 3.071329
vt 3.004043 3.071086
vt 3.004043 3.100922
vt 3.018864 3.100945
vt 3.018218 3.071086
vt 0.7542339 4.12862
vt 0.7236872 4.163625
vt 0.7542339 4.163625
vt 0.7236872 4.12862
vt 0.4527831 4.163625
vt 0.7236872 3.518439
vt 0.7542339 3.518439
vt 0.7542339 3.483434
vt 0.7236872 3.483434
vt 0.4527831 4.12862
vt 0.4222363 4.163625
vt 0.4222363 4.12862
vt 0.4222364 3.518439
vt 0.4527833 3.518439
vt 0.4527833 3.483434
vt 0.4222364 3.483434
vt 0.7336031 1.689076
vt 0.6412754 1.601345
vt 0.6412754 1.689076
vt 0.7336031 1.601345
vt 0.6412754 1.045713
vt 1.031103 1.601345
vt 1.031103 1.689076
vt 1.12343 1.689076
vt 1.12343 1.601345
vt 0.7336031 1.045713
vt 0.6412754 0.9579822
vt 0.7336031 0.9579822
vt 1.031103 0.9579823
vt 1.031103 1.045714
vt 1.123431 1.045714
vt 1.123431 0.9579823
vt 3.049584 1.635945
vt 3.049561 1.601059
vt 2.995319 1.601059
vt 2.995339 1.687403
vt 2.995319 1.046013
vt 3.086376 1.635968
vt 3.049561 1.046013
vt 3.086376 1.687379
vt 2.995339 0.9597063
vt 3.384189 1.635968
vt 3.049584 1.011134
vt 3.38419 1.687379
vt 3.086376 0.959655
vt 3.421037 1.635945
vt 3.086376 1.011097
vt 3.475206 1.687403
vt 3.38419 0.9596549
vt 3.420949 1.601059
vt 3.384189 1.011096
vt 3.475268 1.601059
vt 3.475206 0.9597062
vt 3.420949 1.046013
vt 3.421037 1.011134
vt 3.475268 1.046012
vn -0.0004611237 -0.7723338 0.6352168
vn -0.0002756174 -0.7723216 0.6352317
vn 0 -0.7599123 0.6500256
vn -0.0002764527 -0.7723216 0.6352316
vn -0.0002197495 -0.7723179 0.6352361
vn -0.0002197622 -0.7722879 0.6352727
vn 0 -0.7722927 0.6352669
vn 0.0004530377 -0.7598236 0.6501292
vn 0 -1 0
vn 0 -1 0
vn 0 -1 0
vn 0 -1 0
vn 0 -1 0
vn 0 -1 0
vn 0 -1 0
vn 0 -1 0
vn 0.7733001 -0.000532239 0.63404
vn 0.7732782 -7.069317E-05 0.6340669
vn 0.7589392 0 0.6511616
vn 0.7732783 -7.178207E-05 0.6340668
vn 0.7732749 0 0.634071
vn 0.773342 0 0.6339892
vn 0.7733182 0 0.6340182
vn 0.7587844 0.0005218888 0.6513417
vn 1 0 0
vn 1 0 0
vn 1 0 0
vn 1 0 0
vn 1 0 0
vn 1 0 0
vn 1 0 0
vn 1 0 0
vn 0 0.7689551 0.6393028
vn 0 0.7689551 0.6393028
vn 0 0.7689552 0.6393028
vn -0.0002211026 0.7630641 0.6463227
vn -0.0002221579 0.7630653 0.6463214
vn -0.0002234241 0.7631743 0.6461927
vn 0 0.7630981 0.6462827
vn 0.0002235037 0.7692708 0.6389228
vn 0 1 0
vn 0 1 0
vn 0 1 0
vn 0 1 0
vn 0 1 0
vn 0 1 0
vn 0 1 0
vn 0 1 0
vn -0.7639672 0 0.6452551
vn -0.7639671 0 0.6452551
vn -0.7639671 0 0.6452551
vn -0.7683097 0.0001653559 0.6400783
vn -0.768381 1.607481E-07 0.6399927
vn -0.7683228 0 0.6400626
vn -0.7683228 0 0.6400626
vn -0.7638442 -0.0001643948 0.6454006
vn -1 0 0
vn -1 0 0
vn -1 0 0
vn -1 0 0
vn -1 2.107869E-07 0
vn -1 2.107841E-07 0
vn -1 0 0
vn -1 0 0
vn 0.7251737 -0.0004345674 0.6885658
vn 0.7226183 -0.000174008 0.6912473
vn 0.7252596 -0.0004433455 0.6884753
vn 0.7224911 -0.0001610729 0.6913802
vn 0.7224056 0.0004437817 0.6914695
vn 0.7253701 0.0001626708 0.6883591
vn 0.7253702 0.0001626708 0.688359
vn 0.7253702 0.0001626708 0.688359
vn 0.9927094 8.522859E-06 0.1205318
vn 0.992708 2.677571E-06 0.1205435
vn 0.9927074 0 0.1205488
vn 0.99271 1.083618E-05 0.1205273
vn 0.9927101 0 0.1205261
vn 0.9927087 2.166593E-07 0.1205382
vn 0.9927087 0 0.1205376
vn 0.9927083 -3.609257E-06 0.120542
vn 0.0001667492 -0.7255678 0.6881507
vn 0.0001667492 -0.7255678 0.6881508
vn 0.0001667492 -0.7255678 0.6881508
vn 0.0004878607 -0.7222888 0.6915913
vn -0.0002387678 -0.7223223 0.6915565
vn -0.0001834315 -0.7224929 0.6913784
vn -0.0004734004 -0.725418 0.6883085
vn -0.0004830895 -0.7255154 0.6882058
vn 1.804655E-06 -0.9927083 0.1205419
vn 1.804655E-06 -0.9927083 0.1205419
vn 1.804655E-06 -0.9927083 0.1205419
vn 0 -0.9927109 0.1205199
vn -4.215892E-05 -0.9927112 0.1205183
vn -4.197324E-05 -0.9927077 0.1205466
vn 0 -0.9927076 0.1205479
vn 0 -0.9927078 0.1205457
vn -0.7140571 -0.0001800625 0.7000874
vn -0.7140571 -0.0001800625 0.7000874
vn -0.7140571 -0.0001800625 0.7000874
vn -0.734003 0.001760531 0.6791438
vn -0.7339076 0 0.6792493
vn -0.7338242 0.0001745354 0.6793394
vn -0.7338242 0.0001745354 0.6793394
vn -0.7150698 -0.001716455 0.699051
vn -0.9927078 -5.413953E-06 0.1205453
vn -0.9927078 -5.413953E-06 0.1205453
vn -0.9927078 -5.413953E-06 0.1205453
vn -0.9927061 0 0.120559
vn -0.9927056 0 0.1205627
vn -0.9927061 0 0.1205594
vn -0.9927078 1.338746E-06 0.1205457
vn -0.9927085 0 0.1205404
vn -0.0001791336 0.7269573 0.6866826
vn -0.0001791336 0.7269573 0.6866826
vn -0.0001791336 0.7269574 0.6866826
vn -0.0007689558 0.7208551 0.6930855
vn -0.0002374305 0.7208126 0.6931301
vn 0.00016572 0.7208305 0.6931114
vn 0.00016572 0.7208306 0.6931114
vn 0.0007718326 0.726824 0.6868234
vn -3.609282E-06 0.9927113 0.1205166
vn -3.609282E-06 0.9927113 0.1205166
vn -3.609282E-06 0.9927113 0.1205166
vn 0 0.9927108 0.1205211
vn -4.10947E-05 0.9927077 0.1205467
vn -4.085452E-05 0.9927111 0.1205184
vn -8.925199E-07 0.9927083 0.1205417
vn 0 0.9927076 0.1205473
vn 0 0 1
vn 0 0 1
vn 0 0 1
vn 0 0 1
vn 0 0 1
vn 0 0 1
vn 0 0 1
vn 0 0 1
vn 0 0 1
vn 0 0 1
vn 0 0 1
vn 0 0 1
vn 0 0 1
vn -0.0003447602 0 1
vn -0.0003449874 0 1
vn 0 0 1
vn 0 0 -1
vn 0 0 -1
vn 0 0 -1
vn 0 0 -1
vn 0 0 -1
vn 0 0 -1
vn 0 0 -1
vn 0 0 -1
vn 0 0 -1
vn 0 0 -1
vn 0 0 -1
vn 0 0 -1
vn 0.0003460998 0 -1
vn 0.0003453988 0 -1
vn 0 0 -1
vn 0 0 -1
vn -1.99165E-06 0 1
vn 0 0 1
vn 1.372671E-07 0 1
vn -5.90709E-07 0 1
vn -5.28418E-06 0 1
vn -0.0002783233 0 1
vn -6.019562E-06 0 1
vn -0.000264807 0 1
vn 1.968769E-06 0 1
vn -0.0003080975 0 1
vn -3.489879E-06 0 1
vn -0.0002798673 0 1
vn -0.0002779948 0 1
vn 4.22562E-06 0 1
vn -0.000307684 0 1
vn 9.045681E-07 0 1
vn -0.0002643033 0 1
vn 6.010711E-06 0 1
vn -0.0002774775 0 1
vn 5.276077E-06 0 1
vn 1.701087E-07 0 1
vn 3.590763E-07 0 1
vn 8.387328E-07 0 1
vn 0 0 1
usemtl WhiteWoodClean
f 3/3/3 2/2/2 1/1/1
f 2/2/2 4/4/4 1/1/1
f 4/4/4 2/2/2 5/5/5
f 6/6/6 4/4/4 5/5/5
f 5/5/5 7/7/7 6/6/6
f 7/7/7 8/8/8 6/6/6
f 11/11/11 10/10/10 9/9/9
f 10/10/10 12/12/12 9/9/9
f 9/9/9 12/12/12 13/13/13
f 14/14/14 9/9/9 13/13/13
f 14/14/14 13/13/13 15/15/15
f 13/13/13 16/16/16 15/15/15
f 19/19/19 18/18/18 17/17/17
f 18/18/18 20/20/20 17/17/17
f 20/20/20 18/18/18 21/21/21
f 22/22/22 20/20/20 21/21/21
f 21/21/21 23/23/23 22/22/22
f 23/23/23 24/24/24 22/22/22
f 27/27/27 26/26/26 25/25/25
f 26/26/26 28/28/28 25/25/25
f 25/25/25 28/28/28 29/29/29
f 30/30/30 25/25/25 29/29/29
f 30/30/30 29/29/29 31/31/31
f 29/29/29 32/32/32 31/31/31
f 35/35/35 34/34/34 33/33/33
f 36/36/36 35/35/35 33/33/33
f 36/36/36 33/33/33 37/37/37
f 38/38/38 36/36/36 37/37/37
f 38/38/38 37/37/37 39/39/39
f 40/40/40 38/38/38 39/39/39
f 43/43/43 42/42/42 41/41/41
f 42/42/42 44/44/44 41/41/41
f 41/41/41 44/44/44 45/45/45
f 46/46/46 41/41/41 45/45/45
f 46/46/46 45/45/45 47/47/47
f 45/45/45 48/48/48 47/47/47
f 51/51/51 50/50/50 49/49/49
f 52/52/52 51/51/51 49/49/49
f 52/52/52 49/49/49 53/53/53
f 54/54/54 52/52/52 53/53/53
f 53/53/53 55/55/55 54/54/54
f 55/55/55 56/56/56 54/54/54
f 59/59/59 58/58/58 57/57/57
f 60/60/60 59/59/59 57/57/57
f 60/60/60 61/61/61 59/59/59
f 61/61/61 62/62/62 59/59/59
f 63/63/63 62/62/62 61/61/61
f 64/64/64 63/63/63 61/61/61
f 67/67/67 66/66/66 65/65/65
f 66/66/66 68/68/68 65/65/65
f 68/68/68 66/66/66 69/69/69
f 70/70/70 68/68/68 69/69/69
f 69/69/69 71/71/71 70/70/70
f 71/71/71 72/72/72 70/70/70
f 75/75/75 74/74/74 73/73/73
f 74/74/74 76/76/76 73/73/73
f 73/73/73 76/76/76 77/77/77
f 78/78/78 73/73/73 77/77/77
f 78/78/78 77/77/77 79/79/79
f 77/77/77 80/80/80 79/79/79
f 83/83/83 82/82/82 81/81/81
f 84/84/84 83/83/83 81/81/81
f 84/84/84 81/81/81 85/85/85
f 86/86/86 84/84/84 85/85/85
f 86/86/86 85/85/85 87/87/87
f 88/88/88 86/86/86 87/87/87
f 91/91/91 90/90/90 89/89/89
f 92/92/92 91/91/91 89/89/89
f 92/92/92 93/93/93 91/91/91
f 93/93/93 94/94/94 91/91/91
f 95/95/95 94/94/94 93/93/93
f 96/96/96 95/95/95 93/93/93
f 99/99/99 98/98/98 97/97/97
f 100/100/100 99/99/99 97/97/97
f 100/100/100 97/97/97 101/101/101
f 102/102/102 100/100/100 101/101/101
f 102/102/102 101/101/101 103/103/103
f 104/104/104 102/102/102 103/103/103
f 107/107/107 106/106/106 105/105/105
f 108/108/108 107/107/107 105/105/105
f 107/107/107 108/108/108 109/109/109
f 110/110/110 107/107/107 109/109/109
f 111/111/111 110/110/110 109/109/109
f 112/112/112 111/111/111 109/109/109
f 115/115/115 114/114/114 113/113/113
f 116/116/116 115/115/115 113/113/113
f 116/116/116 113/113/113 117/117/117
f 118/118/118 116/116/116 117/117/117
f 118/118/118 117/117/117 119/119/119
f 120/120/120 118/118/118 119/119/119
f 123/123/123 122/122/122 121/121/121
f 124/124/124 123/123/123 121/121/121
f 124/124/124 125/125/125 123/123/123
f 125/125/125 126/126/126 123/123/123
f 127/127/127 126/126/126 125/125/125
f 128/128/128 127/127/127 125/125/125
f 131/131/131 130/130/130 129/129/129
f 130/130/130 132/132/132 129/129/129
f 132/132/132 130/130/130 133/133/133
f 129/129/129 132/132/132 134/134/134
f 135/135/135 129/129/129 134/134/134
f 135/135/135 134/134/134 136/136/136
f 134/134/134 137/137/137 136/136/136
f 138/138/138 132/132/132 133/133/133
f 132/132/132 138/138/138 134/134/134
f 133/133/133 139/139/139 138/138/138
f 139/139/139 140/140/140 138/138/138
f 138/138/138 140/140/140 141/141/141
f 137/137/137 134/134/134 142/142/142
f 138/138/138 142/142/142 134/134/134
f 142/142/142 138/138/138 141/141/141
f 143/143/143 137/137/137 142/142/142
f 142/142/142 141/141/141 143/143/143
f 141/141/141 144/144/144 143/143/143
f 147/147/147 146/146/146 145/145/145
f 146/146/146 148/148/148 145/145/145
f 148/148/148 146/146/146 149/149/149
f 145/145/145 148/148/148 150/150/150
f 151/151/151 145/145/145 150/150/150
f 151/151/151 150/150/150 152/152/152
f 150/150/150 153/153/153 152/152/152
f 154/154/154 148/148/148 149/149/149
f 148/148/148 154/154/154 150/150/150
f 149/149/149 155/155/155 154/154/154
f 155/155/155 156/156/156 154/154/154
f 156/156/156 157/157/157 154/154/154
f 150/150/150 158/158/158 153/153/153
f 154/154/154 158/158/158 150/150/150
f 157/157/157 158/158/158 154/154/154
f 158/158/158 159/159/159 153/153/153
f 158/158/158 157/157/157 159/159/159
f 157/157/157 160/160/160 159/159/159
f 163/163/163 162/162/162 161/161/161
f 164/164/164 163/163/163 161/161/161
f 162/162/162 163/163/163 165/165/165
f 164/164/164 161/161/161 166/166/166
f 167/167/167 162/162/162 165/165/165
f 168/168/168 164/164/164 166/166/166
f 165/165/165 169/169/169 167/167/167
f 168/168/168 166/166/166 170/170/170
f 169/169/169 171/171/171 167/167/167
f 172/172/172 168/168/168 170/170/170
f 169/169/169 173/173/173 171/171/171
f 172/172/172 170/170/170 174/174/174
f 173/173/173 175/175/175 171/171/171
f 176/176/176 172/172/172 174/174/174
f 173/173/173 177/177/177 175/175/175
f 176/176/176 174/174/174 178/178/178
f 177/177/177 179/179/179 175/175/175
f 180/180/180 176/176/176 178/178/178
f 177/177/177 181/181/181 179/179/179
f 180/180/180 178/178/178 182/182/182
f 181/181/181 183/183/183 179/179/179
f 184/184/184 180/180/180 182/182/182
f 181/181/181 184/184/184 183/183/183
f 184/184/184 182/182/182 183/183/183
