mtllib material.mtl
usemtl material_0
v -0.00514000 0.01445000 -0.01469000
v -0.00230000 0.01445000 -0.02001000
v 0.00001000 0.01445000 -0.01996000
v 0.00515000 0.01445000 -0.01469000
v 0.00231000 0.01445000 -0.02001000
v -0.00514000 0.01445000 -0.00795000
v 0.00515000 0.01445000 -0.00795000
v -0.00514000 0.01445000 0.00000000
v 0.00515000 0.01445000 0.00000000
v -0.00514000 0.01445000 0.00796000
v 0.00515000 0.01445000 0.00796000
v -0.00514000 0.01445000 0.01470000
v 0.00515000 0.01445000 0.01470000
v -0.00230000 0.01445000 0.02002000
v 0.00001000 0.01445000 0.01998000
v 0.00231000 0.01445000 0.02002000
v 0.00001000 0.00226000 -0.01996000
v -0.00230000 0.01445000 -0.02001000
v -0.00230000 0.00226000 -0.02001000
v 0.00001000 0.01445000 -0.01996000
v 0.00231000 0.00226000 -0.02001000
v 0.00231000 0.01445000 -0.02001000
v -0.00230000 0.00226000 -0.02001000
v -0.00230000 0.01445000 -0.02001000
v -0.00514000 0.01445000 -0.01469000
v -0.00514000 0.00226000 -0.01469000
v -0.00514000 0.01445000 -0.00795000
v -0.00514000 0.00226000 -0.00795000
v -0.00514000 0.01445000 0.00000000
v -0.00514000 0.00226000 0.00000000
v -0.00514000 0.01445000 0.00796000
v -0.00514000 0.00226000 0.00796000
v -0.00514000 0.01445000 0.01470000
v -0.00514000 0.00226000 0.01470000
v -0.00230000 0.01445000 0.02002000
v -0.00230000 0.00226000 0.02002000
v -0.00230000 0.00226000 0.02002000
v -0.00230000 0.01445000 0.02002000
v 0.00001000 0.01445000 0.01998000
v 0.00001000 0.00226000 0.01998000
v 0.00231000 0.01445000 0.02002000
v 0.00231000 0.00226000 0.02002000
v 0.00231000 0.00226000 0.02002000
v 0.00231000 0.01445000 0.02002000
v 0.00515000 0.01445000 0.01470000
v 0.00515000 0.00226000 0.01470000
v 0.00515000 0.01445000 0.00796000
v 0.00515000 0.00226000 0.00796000
v 0.00515000 0.01445000 0.00000000
v 0.00515000 0.00226000 0.00000000
v 0.00515000 0.01445000 -0.00795000
v 0.00515000 0.00226000 -0.00795000
v 0.00515000 0.01445000 -0.01469000
v 0.00515000 0.00226000 -0.01469000
v 0.00231000 0.01445000 -0.02001000
v 0.00231000 0.00226000 -0.02001000
v 0.00001000 -0.00499000 -0.02967000
v 0.00001000 0.00238000 -0.02418000
v -0.00925000 0.00238000 -0.02234000
v -0.01135000 -0.00499000 -0.02741000
v 0.01136000 -0.00499000 -0.02741000
v -0.01710000 0.00238000 -0.01710000
v 0.00926000 0.00238000 -0.02234000
v -0.02098000 -0.00499000 -0.02098000
v 0.02099000 -0.00499000 -0.02098000
v -0.02234000 0.00238000 -0.00925000
v 0.01711000 0.00238000 -0.01710000
v -0.02741000 -0.00499000 -0.01135000
v 0.02742000 -0.00499000 -0.01135000
v -0.02418000 0.00238000 0.00000000
v 0.02235000 0.00238000 -0.00925000
v -0.02967000 -0.00499000 0.00000000
v 0.02968000 -0.00499000 0.00000000
v -0.02234000 0.00238000 0.00926000
v 0.02419000 0.00238000 0.00000000
v -0.02741000 -0.00499000 0.01136000
v 0.02742000 -0.00499000 0.01136000
v -0.01710000 0.00238000 0.01711000
v 0.02235000 0.00238000 0.00926000
v -0.02098000 -0.00499000 0.02098000
v 0.02099000 -0.00499000 0.02098000
v -0.00925000 0.00238000 0.02235000
v 0.01711000 0.00238000 0.01711000
v -0.01135000 -0.00499000 0.02742000
v 0.01136000 -0.00499000 0.02742000
v 0.00001000 0.00238000 0.02419000
v 0.00926000 0.00238000 0.02235000
v 0.00001000 -0.00499000 0.02968000
v 0.00001000 0.00238000 -0.02418000
v 0.00001000 0.00226000 -0.01996000
v -0.00230000 0.00226000 -0.02001000
v -0.00925000 0.00238000 -0.02234000
v 0.00926000 0.00238000 -0.02234000
v -0.00514000 0.00226000 -0.01469000
v 0.00231000 0.00226000 -0.02001000
v -0.01710000 0.00238000 -0.01710000
v 0.01711000 0.00238000 -0.01710000
v -0.00514000 0.00226000 -0.00795000
v 0.00515000 0.00226000 -0.01469000
v -0.02234000 0.00238000 -0.00925000
v 0.02235000 0.00238000 -0.00925000
v -0.00514000 0.00226000 0.00000000
v 0.00515000 0.00226000 -0.00795000
v -0.02418000 0.00238000 0.00000000
v 0.02419000 0.00238000 0.00000000
v -0.00514000 0.00226000 0.00796000
v 0.00515000 0.00226000 0.00000000
v -0.02234000 0.00238000 0.00926000
v 0.02235000 0.00238000 0.00926000
v -0.00514000 0.00226000 0.01470000
v 0.00515000 0.00226000 0.00796000
v -0.01710000 0.00238000 0.01711000
v 0.01711000 0.00238000 0.01711000
v -0.00230000 0.00226000 0.02002000
v 0.00515000 0.00226000 0.01470000
v -0.00925000 0.00238000 0.02235000
v 0.00926000 0.00238000 0.02235000
v 0.00001000 0.00226000 0.01998000
v 0.00231000 0.00226000 0.02002000
v 0.00001000 0.00238000 0.02419000
vn 0.00001821 1.00000000 -0.00000622
vn 0.00001821 1.00000000 -0.00000622
vn 0.00001821 1.00000000 -0.00000622
vn 0.00001821 1.00000000 -0.00000622
vn 0.00001821 1.00000000 -0.00000622
vn 0.00001821 1.00000000 -0.00000622
vn 0.00001821 1.00000000 -0.00000622
vn 0.00001821 1.00000000 -0.00000622
vn 0.00001821 1.00000000 -0.00000622
vn 0.00001821 1.00000000 -0.00000622
vn 0.00001821 1.00000000 -0.00000622
vn 0.00001821 1.00000000 -0.00000622
vn 0.00001821 1.00000000 -0.00000622
vn 0.00001821 1.00000000 -0.00000622
vn 0.00001821 1.00000000 -0.00000622
vn 0.00001821 1.00000000 -0.00000622
vn 0.00000000 -0.00001039 -1.00000000
vn 0.02060739 -0.00001039 -0.99978760
vn 0.02060739 -0.00001039 -0.99978760
vn 0.00000000 -0.00001039 -1.00000000
vn -0.02060739 -0.00001039 -0.99978760
vn -0.02060739 -0.00001039 -0.99978760
vn -0.88231960 -0.00000489 -0.47065060
vn -0.88231960 -0.00000489 -0.47065060
vn -0.97013390 -0.00000252 -0.24256990
vn -0.97013390 -0.00000252 -0.24256990
vn -1.00000000 0.00000000 0.00000000
vn -1.00000000 0.00000000 0.00000000
vn -1.00000000 0.00000000 0.00000000
vn -1.00000000 0.00000000 0.00000000
vn -1.00000000 0.00000000 0.00000000
vn -1.00000000 0.00000000 0.00000000
vn -0.97009400 -0.00000083 0.24272960
vn -0.97009400 -0.00000083 0.24272960
vn -0.88216470 -0.00000162 0.47094110
vn -0.88216470 -0.00000162 0.47094110
vn 0.01708192 -0.00000351 0.99985410
vn 0.01708192 -0.00000351 0.99985410
vn 0.00000000 -0.00001039 1.00000000
vn 0.00000000 -0.00001039 1.00000000
vn -0.01708192 -0.00001726 0.99985410
vn -0.01708192 -0.00001726 0.99985410
vn 0.88216470 -0.00000166 0.47094100
vn 0.88216470 -0.00000166 0.47094100
vn 0.97009410 -0.00000085 0.24272960
vn 0.97009410 -0.00000085 0.24272960
vn 1.00000000 0.00000000 0.00000000
vn 1.00000000 0.00000000 0.00000000
vn 1.00000000 0.00000000 0.00000000
vn 1.00000000 0.00000000 0.00000000
vn 1.00000000 0.00000000 0.00000000
vn 1.00000000 0.00000000 0.00000000
vn 0.97013400 -0.00000250 -0.24256990
vn 0.97013400 -0.00000250 -0.24256990
vn 0.88231970 -0.00000485 -0.47065060
vn 0.88231970 -0.00000485 -0.47065060
vn 0.00000078 0.59689550 -0.80231890
vn 0.00000078 0.59689550 -0.80231890
vn -0.30704250 0.59689250 -0.74124500
vn -0.30704250 0.59689250 -0.74124500
vn 0.30704240 0.59688920 -0.74124770
vn -0.56732690 0.59689040 -0.56732890
vn 0.30704240 0.59688920 -0.74124770
vn -0.56732690 0.59689040 -0.56732890
vn 0.56732480 0.59689460 -0.56732650
vn -0.74124810 0.59689370 -0.30703300
vn 0.56732480 0.59689460 -0.56732650
vn -0.74124810 0.59689370 -0.30703300
vn 0.74124680 0.59689560 -0.30703230
vn -0.80231850 0.59689610 -0.00000045
vn 0.74124680 0.59689560 -0.30703230
vn -0.80231850 0.59689610 -0.00000045
vn 0.80231910 0.59689530 -0.00000035
vn -0.74124430 0.59689760 0.30703420
vn 0.80231910 0.59689530 -0.00000035
vn -0.74124430 0.59689760 0.30703420
vn 0.74124630 0.59689460 0.30703540
vn -0.56732850 0.59689520 0.56732220
vn 0.74124630 0.59689460 0.30703540
vn -0.56732850 0.59689520 0.56732220
vn 0.56732860 0.59689610 0.56732120
vn -0.30704690 0.59689810 0.74123870
vn 0.56732860 0.59689610 0.56732120
vn -0.30704690 0.59689810 0.74123870
vn 0.30704580 0.59690020 0.74123750
vn 0.00000015 0.59690270 0.80231360
vn 0.30704580 0.59690020 0.74123750
vn 0.00000015 0.59690270 0.80231360
vn -0.00039075 0.99952720 0.03074379
vn -0.00039075 0.99952720 0.03074379
vn 0.00868944 0.99969540 0.02309945
vn 0.00868944 0.99969540 0.02309945
vn -0.00716188 0.99972800 0.02219320
vn 0.01029875 0.99987850 0.01170335
vn -0.00716188 0.99972800 0.02219320
vn 0.01029875 0.99987850 0.01170335
vn -0.00726669 0.99994090 0.00808800
vn 0.00795684 0.99996160 0.00369053
vn -0.00726669 0.99994090 0.00808800
vn 0.00795684 0.99996160 0.00369053
vn -0.00655234 0.99997440 0.00288867
vn 0.00666991 0.99997780 0.00005791
vn -0.00655234 0.99997440 0.00288867
vn 0.00666991 0.99997780 0.00005791
vn -0.00666990 0.99997780 -0.00005789
vn 0.00655293 0.99997440 -0.00288098
vn -0.00666990 0.99997780 -0.00005789
vn 0.00655293 0.99997440 -0.00288098
vn -0.00795675 0.99996160 -0.00368238
vn 0.00726472 0.99994100 -0.00808455
vn -0.00795675 0.99996160 -0.00368238
vn 0.00726472 0.99994100 -0.00808455
vn -0.01029547 0.99987850 -0.01169848
vn 0.00715116 0.99972790 -0.02220211
vn -0.01029547 0.99987850 -0.01169848
vn 0.00715116 0.99972790 -0.02220211
vn -0.00868586 0.99969430 -0.02314649
vn 0.00038298 0.99952570 -0.03079225
vn -0.00868586 0.99969430 -0.02314649
vn 0.00038298 0.99952570 -0.03079225
vt 1.24943500 0.73729530
vt 1.19026900 0.64896030
vt 1.14218500 0.64974960
vt 1.03493500 0.73729530
vt 1.09410000 0.64896030
vt 1.24943500 0.84924330
vt 1.03493500 0.84924330
vt 1.24943500 0.98129450
vt 1.03493500 0.98129450
vt 1.24943500 1.11334600
vt 1.03493500 1.11334600
vt 1.24943500 1.22529400
vt 1.03493500 1.22529400
vt 1.19026900 1.31355900
vt 1.14218500 1.31290700
vt 1.09410000 1.31355900
vt 1.31110400 0.87400950
vt 1.36229100 1.08850900
vt 1.36229100 0.87400950
vt 1.31110400 1.08850900
vt 1.25991600 0.87400950
vt 1.25991600 1.08850900
vt 0.02160042 1.66229900
vt 0.02159832 1.87679400
vt 0.10993330 1.87679500
vt 0.10993540 1.66230000
vt 0.22188140 1.87679600
vt 0.22188060 1.66229800
vt 0.35393250 1.87679600
vt 0.35393180 1.66229800
vt 0.48598360 1.87679600
vt 0.48598290 1.66229800
vt 0.59793160 1.87679700
vt 0.59793100 1.66229900
vt 0.68619670 1.87679500
vt 0.68619600 1.66229700
vt 1.25991600 0.64878520
vt 1.25991600 0.86328230
vt 1.31110400 0.86328450
vt 1.31110400 0.64878450
vt 1.36229100 0.86328230
vt 1.36229100 0.64878520
vt 0.69727400 1.66229700
vt 0.69727330 1.87679500
vt 0.78553830 1.87679700
vt 0.78553900 1.66229900
vt 0.89748640 1.87679600
vt 0.89748710 1.66229800
vt 1.02953800 1.87679600
vt 1.02953800 1.66229800
vt 1.16158900 1.87679600
vt 1.16158900 1.66229800
vt 1.27353700 1.87679500
vt 1.27353500 1.66230000
vt 1.36187200 1.87679400
vt 1.36187000 1.66229900
vt 0.52281620 0.64899080
vt 0.52281620 0.74162210
vt 0.67916350 0.77272370
vt 0.71461250 0.68714550
vt 0.33102000 0.68714550
vt 0.81170890 0.86128770
vt 0.36646890 0.77272370
vt 0.87720920 0.79578680
vt 0.16842330 0.79578680
vt 0.90027280 0.99383370
vt 0.23392350 0.86128770
vt 0.98585310 0.95838580
vt 0.05977941 0.95838580
vt 0.93137230 1.15017600
vt 0.14535970 0.99383370
vt 1.02400400 1.15017700
vt 0.02162875 1.15017700
vt 0.90027280 1.30652100
vt 0.11426010 1.15017600
vt 0.98585310 1.34197100
vt 0.05977941 1.34197100
vt 0.81170890 1.43906800
vt 0.14535970 1.30652100
vt 0.87720920 1.50456800
vt 0.16842330 1.50456800
vt 0.67916350 1.52763200
vt 0.23392350 1.43906800
vt 0.71461250 1.61321200
vt 0.33102000 1.61321200
vt 0.52281620 1.55873400
vt 0.36646890 1.52763200
vt 0.52281620 1.65136600
vt 0.52281620 0.74162210
vt 0.52281620 0.81286190
vt 0.56177840 0.81205880
vt 0.67916350 0.77272370
vt 0.36646890 0.77272370
vt 0.60971930 0.90193210
vt 0.48385410 0.81205880
vt 0.81170890 0.86128770
vt 0.23392350 0.86128770
vt 0.60971930 1.01582700
vt 0.43591320 0.90193210
vt 0.90027280 0.99383370
vt 0.14535970 0.99383370
vt 0.60971930 1.15017700
vt 0.43591320 1.01582700
vt 0.93137230 1.15017600
vt 0.11426010 1.15017600
vt 0.60971930 1.28452800
vt 0.43591320 1.15017700
vt 0.90027280 1.30652100
vt 0.14535970 1.30652100
vt 0.60971930 1.39842600
vt 0.43591320 1.28452800
vt 0.81170890 1.43906800
vt 0.23392350 1.43906800
vt 0.56177840 1.48822800
vt 0.43591320 1.39842600
vt 0.67916350 1.52763200
vt 0.36646890 1.52763200
vt 0.52281620 1.48756200
vt 0.48385410 1.48822800
vt 0.52281620 1.55873400
f 3/3/3 2/2/2 1/1/1
f 3/3/3 1/1/1 4/4/4
f 4/4/4 5/5/5 3/3/3
f 1/1/1 6/6/6 4/4/4
f 6/6/6 7/7/7 4/4/4
f 6/6/6 8/8/8 7/7/7
f 8/8/8 9/9/9 7/7/7
f 8/8/8 10/10/10 9/9/9
f 10/10/10 11/11/11 9/9/9
f 10/10/10 12/12/12 11/11/11
f 12/12/12 13/13/13 11/11/11
f 12/12/12 14/14/14 13/13/13
f 14/14/14 15/15/15 13/13/13
f 13/13/13 15/15/15 16/16/16
f 19/19/19 18/18/18 17/17/17
f 18/18/18 20/20/20 17/17/17
f 17/17/17 20/20/20 21/21/21
f 20/20/20 22/22/22 21/21/21
f 25/25/25 24/24/24 23/23/23
f 26/26/26 25/25/25 23/23/23
f 27/27/27 25/25/25 26/26/26
f 28/28/28 27/27/27 26/26/26
f 29/29/29 27/27/27 28/28/28
f 30/30/30 29/29/29 28/28/28
f 31/31/31 29/29/29 30/30/30
f 32/32/32 31/31/31 30/30/30
f 33/33/33 31/31/31 32/32/32
f 34/34/34 33/33/33 32/32/32
f 35/35/35 33/33/33 34/34/34
f 36/36/36 35/35/35 34/34/34
f 39/39/39 38/38/38 37/37/37
f 40/40/40 39/39/39 37/37/37
f 41/41/41 39/39/39 40/40/40
f 42/42/42 41/41/41 40/40/40
f 45/45/45 44/44/44 43/43/43
f 46/46/46 45/45/45 43/43/43
f 47/47/47 45/45/45 46/46/46
f 48/48/48 47/47/47 46/46/46
f 49/49/49 47/47/47 48/48/48
f 50/50/50 49/49/49 48/48/48
f 51/51/51 49/49/49 50/50/50
f 52/52/52 51/51/51 50/50/50
f 53/53/53 51/51/51 52/52/52
f 54/54/54 53/53/53 52/52/52
f 55/55/55 53/53/53 54/54/54
f 56/56/56 55/55/55 54/54/54
f 59/59/59 58/58/58 57/57/57
f 60/60/60 59/59/59 57/57/57
f 57/57/57 58/58/58 61/61/61
f 62/62/62 59/59/59 60/60/60
f 58/58/58 63/63/63 61/61/61
f 64/64/64 62/62/62 60/60/60
f 61/61/61 63/63/63 65/65/65
f 66/66/66 62/62/62 64/64/64
f 63/63/63 67/67/67 65/65/65
f 68/68/68 66/66/66 64/64/64
f 65/65/65 67/67/67 69/69/69
f 70/70/70 66/66/66 68/68/68
f 67/67/67 71/71/71 69/69/69
f 72/72/72 70/70/70 68/68/68
f 69/69/69 71/71/71 73/73/73
f 74/74/74 70/70/70 72/72/72
f 71/71/71 75/75/75 73/73/73
f 76/76/76 74/74/74 72/72/72
f 73/73/73 75/75/75 77/77/77
f 78/78/78 74/74/74 76/76/76
f 75/75/75 79/79/79 77/77/77
f 80/80/80 78/78/78 76/76/76
f 77/77/77 79/79/79 81/81/81
f 82/82/82 78/78/78 80/80/80
f 79/79/79 83/83/83 81/81/81
f 84/84/84 82/82/82 80/80/80
f 81/81/81 83/83/83 85/85/85
f 86/86/86 82/82/82 84/84/84
f 83/83/83 87/87/87 85/85/85
f 88/88/88 86/86/86 84/84/84
f 85/85/85 87/87/87 88/88/88
f 87/87/87 86/86/86 88/88/88
f 91/91/91 90/90/90 89/89/89
f 92/92/92 91/91/91 89/89/89
f 89/89/89 90/90/90 93/93/93
f 94/94/94 91/91/91 92/92/92
f 90/90/90 95/95/95 93/93/93
f 96/96/96 94/94/94 92/92/92
f 93/93/93 95/95/95 97/97/97
f 98/98/98 94/94/94 96/96/96
f 95/95/95 99/99/99 97/97/97
f 100/100/100 98/98/98 96/96/96
f 97/97/97 99/99/99 101/101/101
f 102/102/102 98/98/98 100/100/100
f 99/99/99 103/103/103 101/101/101
f 104/104/104 102/102/102 100/100/100
f 101/101/101 103/103/103 105/105/105
f 106/106/106 102/102/102 104/104/104
f 103/103/103 107/107/107 105/105/105
f 108/108/108 106/106/106 104/104/104
f 105/105/105 107/107/107 109/109/109
f 110/110/110 106/106/106 108/108/108
f 107/107/107 111/111/111 109/109/109
f 112/112/112 110/110/110 108/108/108
f 109/109/109 111/111/111 113/113/113
f 114/114/114 110/110/110 112/112/112
f 111/111/111 115/115/115 113/113/113
f 116/116/116 114/114/114 112/112/112
f 113/113/113 115/115/115 117/117/117
f 118/118/118 114/114/114 116/116/116
f 115/115/115 119/119/119 117/117/117
f 120/120/120 118/118/118 116/116/116
f 117/117/117 119/119/119 120/120/120
f 119/119/119 118/118/118 120/120/120

