mtllib Cabinet_64c8b7ce.mtl
v 0.08 0.31919 0.02527
v 0.04581 0.3192 0.02528
v 0.04418 0.32083 0.027
v 0.13501 0.31919 0.02537
v 0.08001 0.32085 0.027
v 0.135 0.32085 0.0271
v 0.1692 0.3192 0.02538
v 0.17089 0.32083 0.0271
v 0.08 0.31919 0.02527
v 0.04418 0.32083 0.027
v 0.08001 0.32085 0.027
v 0.13501 -0.31918 0.02537
v 0.1692 -0.31919 0.02538
v 0.17089 -0.32081 0.0271
v 0.08 -0.31918 0.02527
v 0.135 -0.32085 0.0271
v 0.08001 -0.32085 0.027
v 0.04581 -0.31919 0.02528
v 0.04418 -0.32081 0.027
v 0.13501 -0.31918 0.02537
v 0.17089 -0.32081 0.0271
v 0.135 -0.32085 0.0271
v -0.00864 -0.37363 0.027
v 0.08 -0.375 0.02541
v -0.01 -0.375 0.02541
v 0.08 -0.37368 0.027
v 0.13501 -0.375 0.02551
v 0.13501 -0.37368 0.0271
v 0.22501 -0.375 0.02551
v 0.22363 -0.37363 0.0271
v 0.13501 -0.375 0.00011
v 0.22501 -0.375 0.02551
v 0.22501 -0.375 0.00011
v 0.13501 -0.375 0.02551
v 0.08 -0.375 0.02541
v 0.08 -0.375 0
v -0.01 -0.375 0
v -0.01 -0.375 0.02541
v 0.22363 -0.37363 0.0271
v 0.22501 -0.285 0.02551
v 0.22501 -0.375 0.02551
v 0.22369 -0.285 0.0271
v 0.22501 0.285 0.02551
v 0.22369 0.285 0.0271
v 0.22501 0.37501 0.02551
v 0.22363 0.37368 0.0271
v 0.22501 0.285 0.00011
v 0.22501 0.37501 0.02551
v 0.22501 0.37501 0.00011
v 0.22501 0.285 0.02551
v 0.22501 -0.285 0.02551
v 0.22501 -0.285 0.00011
v 0.22501 -0.375 0.00011
v 0.22501 -0.375 0.02551
v 0.13501 0.37501 0.02551
v 0.22501 0.37501 0.02551
v 0.22363 0.37368 0.0271
v 0.13501 0.37365 0.0271
v 0.08 0.37501 0.02541
v 0.08 0.37365 0.027
v -0.01 0.37501 0.02541
v -0.00864 0.37368 0.027
v 0.08 0.37501 0
v -0.01 0.37501 0.02541
v -0.01 0.37501 0
v 0.08 0.37501 0.02541
v 0.13501 0.37501 0.02551
v 0.13501 0.37501 0.00011
v 0.22501 0.37501 0.00011
v 0.22501 0.37501 0.02551
v -0.01 0.28501 0.02541
v -0.01 0.37501 0.02541
v -0.00864 0.37368 0.027
v -0.00866 0.28501 0.027
v -0.01 -0.285 0.02541
v -0.00866 -0.28499 0.027
v -0.01 -0.375 0.02541
v -0.00864 -0.37363 0.027
v -0.01 0.37501 0
v -0.01 0.37501 0.02541
v -0.01 0.28501 0.02541
v -0.01 0.28501 0
v -0.01 -0.285 0
v -0.01 -0.285 0.02541
v -0.01 -0.375 0.02541
v -0.01 -0.375 0
v 0.04581 0.3192 0.02528
v 0.04416 0.285 0.027
v 0.04418 0.32083 0.027
v 0.04582 0.28501 0.02527
v 0.04416 -0.28499 0.027
v 0.04582 -0.285 0.02527
v 0.04418 -0.32081 0.027
v 0.04581 -0.31919 0.02528
v 0.0473 0.28501 0.01301
v 0.04581 0.3192 0.02528
v 0.0473 0.31771 0.01301
v 0.04582 0.28501 0.02527
v 0.04582 -0.285 0.02527
v 0.0473 -0.285 0.01301
v 0.0473 -0.3177 0.01301
v 0.04581 -0.31919 0.02528
v 0.0473 0.31771 0.01301
v 0.04581 0.3192 0.02528
v 0.08 0.31919 0.02527
v 0.08 0.31771 0.01301
v 0.13501 0.31771 0.01311
v 0.13501 0.31919 0.02537
v 0.1692 0.3192 0.02538
v 0.16771 0.31771 0.01311
v 0.16919 0.285 0.02537
v 0.1692 0.3192 0.02538
v 0.17089 0.32083 0.0271
v 0.1708 0.285 0.0271
v 0.16919 -0.285 0.02537
v 0.1708 -0.28499 0.0271
v 0.1692 -0.31919 0.02538
v 0.17089 -0.32081 0.0271
v 0.16771 0.31771 0.01311
v 0.1692 0.3192 0.02538
v 0.16919 0.285 0.02537
v 0.16771 0.285 0.01311
v 0.16771 -0.285 0.01311
v 0.16919 -0.285 0.02537
v 0.1692 -0.31919 0.02538
v 0.16771 -0.3177 0.01311
v 0.16771 -0.3177 0.01311
v 0.1692 -0.31919 0.02538
v 0.13501 -0.31918 0.02537
v 0.13501 -0.3177 0.01311
v 0.08 -0.3177 0.01301
v 0.08 -0.31918 0.02527
v 0.04581 -0.31919 0.02528
v 0.0473 -0.3177 0.01301
v 0.16771 0.285 0.01311
v 0.13501 0.31771 0.01311
v 0.16771 0.31771 0.01311
v 0.13501 0.285 0.01311
v 0.08 0.31771 0.01301
v 0.13501 -0.285 0.01311
v 0.16771 -0.285 0.01311
v 0.16771 -0.3177 0.01311
v 0.13501 -0.3177 0.01311
v 0.08 0.28501 0.01301
v 0.0473 0.31771 0.01301
v 0.0473 0.28501 0.01301
v 0.0473 -0.285 0.01301
v 0.08 -0.285 0.01301
v 0.08 -0.3177 0.01301
v 0.0473 -0.3177 0.01301
v 0.13501 0.37501 0.00011
v 0.22501 0.285 0.00011
v 0.22501 0.37501 0.00011
v 0.13501 0.285 0.00011
v 0.22501 -0.285 0.00011
v 0.08 0.28501 0
v 0.08 0.37501 0
v -0.01 0.37501 0
v -0.01 0.28501 0
v 0.13501 -0.285 0.00011
v 0.22501 -0.375 0.00011
v 0.13501 -0.375 0.00011
v 0.08 -0.375 0
v 0.08 -0.285 0
v -0.01 -0.285 0
v -0.01 -0.375 0
v 0.04418 0.32083 0.027
v 0.04416 0.285 0.027
v -0.00866 0.28501 0.027
v -0.00864 0.37368 0.027
v -0.00866 -0.28499 0.027
v 0.08001 0.32085 0.027
v 0.04416 -0.28499 0.027
v 0.08 0.37365 0.027
v -0.00864 -0.37363 0.027
v 0.135 0.32085 0.0271
v 0.04418 -0.32081 0.027
v 0.13501 0.37365 0.0271
v 0.08 -0.37368 0.027
v 0.17089 0.32083 0.0271
v 0.08001 -0.32085 0.027
v 0.22363 0.37368 0.0271
v 0.13501 -0.37368 0.0271
v 0.1708 0.285 0.0271
v 0.135 -0.32085 0.0271
v 0.22369 0.285 0.0271
v 0.22363 -0.37363 0.0271
v 0.1708 -0.28499 0.0271
v 0.17089 -0.32081 0.0271
v 0.22369 -0.285 0.0271
vt 4.242076 3.985244
vt 4.287335 3.985367
vt 4.287335 3.953953
vt 4.287335 3.985367
vt 4.242076 3.985244
vt 4.242076 3.953829
vt 4.529213 2.206831
vt 4.588434 1.647069
vt 4.623642 1.647069
vt 4.494005 2.206831
vt 4.494005 1.647069
vt 4.529214 1.647069
vt 0.707296 2.574212
vt 0.707296 2.485812
vt 0.7632928 2.574212
vt 0.707296 1.925952
vt 0.707296 1.837553
vt 0.4238517 4.567565
vt 0.4023333 4.567581
vt 0.4013036 4.570471
vt 0.4584673 4.567732
vt 0.4238523 4.570471
vt 0.458467 4.570639
vt 0.4799858 4.567749
vt 0.4810494 4.570639
vt 0.4238517 4.567565
vt 0.4013036 4.570471
vt 0.4238523 4.570471
vt 1.306237 4.567732
vt 1.284716 4.567749
vt 1.283652 4.57064
vt 1.340856 4.567565
vt 1.306237 4.57064
vt 1.340855 4.570472
vt 1.362376 4.567581
vt 1.363406 4.570472
vt 1.306237 4.567732
vt 1.283652 4.57064
vt 1.306237 4.57064
vt 4.169133 3.987223
vt 4.242076 3.985244
vt 4.168021 3.985244
vt 4.242077 3.987223
vt 4.287335 3.985367
vt 4.287335 3.987347
vt 4.361391 3.985367
vt 4.360262 3.987347
vt 4.287335 3.953953
vt 4.361391 3.985367
vt 4.361391 3.953953
vt 4.287335 3.985367
vt 4.242076 3.985244
vt 4.242076 3.953829
vt 4.168021 3.953829
vt 4.168021 3.985244
vt 1.600618 1.904498
vt 1.602637 1.975991
vt 1.602637 1.903394
vt 1.600618 1.975991
vt 1.602637 2.435773
vt 1.600618 2.435773
vt 1.602637 2.50837
vt 1.600618 2.507298
vt 1.634676 2.435773
vt 1.602637 2.50837
vt 1.634676 2.50837
vt 1.602637 2.435773
vt 1.602637 1.975991
vt 1.634676 1.975991
vt 1.634676 1.903394
vt 1.602637 1.903394
vt 4.242073 4.279489
vt 4.168001 4.279489
vt 4.16913 4.281468
vt 4.242073 4.281468
vt 4.28734 4.279365
vt 4.287339 4.281345
vt 4.361411 4.279365
vt 4.360299 4.281345
vt 4.28734 4.247944
vt 4.361411 4.279365
vt 4.361411 4.247944
vt 4.28734 4.279365
vt 4.242073 4.279489
vt 4.242073 4.248067
vt 4.168001 4.248067
vt 4.168001 4.279489
vt 1.926778 2.435816
vt 1.926778 2.508428
vt 1.928797 2.507355
vt 1.928797 2.435816
vt 1.926779 1.975948
vt 1.928797 1.975948
vt 1.926779 1.903338
vt 1.928797 1.904442
vt 1.894733 2.508428
vt 1.926778 2.508428
vt 1.926778 2.435816
vt 1.894733 2.435816
vt 1.894733 1.975948
vt 1.926779 1.975948
vt 1.926779 1.903338
vt 1.894733 1.903338
vt 3.961233 2.101505
vt 3.958174 2.08118
vt 3.958174 2.102477
vt 3.96125 2.08118
vt 3.958174 1.742344
vt 3.96125 1.742344
vt 3.958174 1.721052
vt 3.961233 1.722019
vt 3.983001 2.08118
vt 3.961233 2.101505
vt 3.983001 2.100619
vt 3.96125 2.08118
vt 3.96125 1.742344
vt 3.983001 1.742344
vt 3.983001 1.722906
vt 3.961233 1.722019
vt 0.4032713 4.547009
vt 0.4023333 4.567581
vt 0.4238517 4.567565
vt 0.4238517 4.547009
vt 0.4584673 4.547177
vt 0.4584673 4.567732
vt 0.4799858 4.567749
vt 0.4790477 4.547177
vt 3.685798 2.080986
vt 3.685815 2.101287
vt 3.68887 2.102258
vt 3.68887 2.080986
vt 3.685798 1.742538
vt 3.68887 1.742539
vt 3.685815 1.722238
vt 3.68887 1.721271
vt 3.664072 2.100402
vt 3.685815 2.101287
vt 3.685798 2.080986
vt 3.664072 2.080986
vt 3.664072 1.742538
vt 3.685798 1.742538
vt 3.685815 1.722238
vt 3.664072 1.723122
vt 1.285654 4.547176
vt 1.284716 4.567749
vt 1.306237 4.567732
vt 1.306237 4.547176
vt 1.340856 4.547008
vt 1.340856 4.567565
vt 1.362376 4.567581
vt 1.361438 4.547008
vt 4.623642 2.17646
vt 4.588434 2.20683
vt 4.623642 2.20683
vt 4.588434 2.17646
vt 4.529213 2.206831
vt 4.588434 1.647069
vt 4.623642 1.647069
vt 4.623642 1.616699
vt 4.588434 1.616699
vt 4.529213 2.17646
vt 4.494005 2.206831
vt 4.494005 2.17646
vt 4.494005 1.647069
vt 4.529214 1.647069
vt 4.529214 1.616699
vt 4.494005 1.616699
vt 0.707296 2.574212
vt 0.6156658 2.485812
vt 0.6156658 2.574212
vt 0.707296 2.485812
vt 0.6156658 1.925952
vt 0.7632928 2.485812
vt 0.7632928 2.574212
vt 0.8549225 2.574212
vt 0.8549225 2.485812
vt 0.707296 1.925952
vt 0.6156658 1.837553
vt 0.707296 1.837553
vt 0.7632927 1.837553
vt 0.7632927 1.925952
vt 0.8549227 1.925952
vt 0.8549227 1.837553
vt 2.729381 2.519787
vt 2.729358 2.484734
vt 2.675373 2.484734
vt 2.675393 2.57149
vt 2.675373 1.927043
vt 2.766 2.51981
vt 2.729358 1.927044
vt 2.765999 2.571465
vt 2.675393 1.840327
vt 2.822214 2.51981
vt 2.729381 1.891999
vt 2.822214 2.571465
vt 2.765999 1.840275
vt 2.858887 2.519787
vt 2.766 1.891961
vt 2.912799 2.57149
vt 2.822214 1.840275
vt 2.858799 2.484733
vt 2.822214 1.891961
vt 2.912862 2.484734
vt 2.912799 1.840326
vt 2.858799 1.927044
vt 2.858887 1.891999
vt 2.912862 1.927043
vn 0 -1 0
vn 0 -1 0
vn 0 -1 0
vn 0 -1 0
vn 0 -1 0
vn 0 -1 0
vn 1 0 0
vn 1 0 0
vn 1 0 0
vn 1 0 0
vn 1 0 0
vn 1 0 0
vn 1 0 0
vn 1 0 0
vn 0 1 0
vn 0 1 0
vn 0 1 0
vn 0 1 0
vn 0 1 0
vn 0 1 0
vn 0 1 0
vn 0 1 0
vn -1 0 0
vn -1 0 0
vn -1 0 0
vn -1 0 0
vn -1 0 0
vn -1 0 0
vn -1 0 0
vn 0.9927084 0 0.1205409
vn -0.9927046 0 0.1205719
vn 0 0 1
vn 0 0 1
vn 0 0 1
vn 0 0 1
vn 0 0 1
vn 0 0 1
vn 0 0 1
vn 0 0 1
vn 0 0 1
vn 0 0 1
vn 0 0 1
vn 0 0 1
vn 0 0 1
vn 0 0 -1
vn 0 0 -1
vn 0 0 -1
vn 0 0 -1
vn 0 0 -1
vn 0 0 -1
vn 0 0 -1
vn 0 0 -1
vn 0 0 -1
vn 0 0 -1
vn 0 0 -1
vn 0 0 -1
vn 0 0 -1
vn 0 0 -1
vn 0 0 1
vn 0 0 1
vn 0 0 1
vn 0.0001667319 -0.7254928 0.6882298
vn 0.000166732 -0.7254928 0.6882298
vn 0.0001667319 -0.7254928 0.6882298
vn -0.00125895 -0.7223251 0.6915526
vn -0.00125895 -0.722325 0.6915526
vn -0.0001690302 -0.7223479 0.6915298
vn -0.0001690302 -0.7223479 0.6915298
vn -0.0004740982 -0.7254419 0.6882833
vn 0.0004879078 -0.7223608 0.6915162
vn 0.0004879078 -0.7223608 0.6915162
vn 0.0004879078 -0.7223608 0.6915162
vn -0.0001791336 0.7269574 0.6866826
vn -0.0001791336 0.7269573 0.6866825
vn -0.0001791336 0.7269574 0.6866826
vn -0.001251929 0.720833 0.6931077
vn -0.001251929 0.720833 0.6931077
vn 0.0001657197 0.7208316 0.6931102
vn 0.0001657197 0.7208316 0.6931102
vn 0.0007718325 0.726824 0.6868233
vn -0.000769033 0.7209241 0.6930135
vn -0.0007690329 0.7209241 0.6930135
vn -0.000769033 0.7209241 0.6930135
vn -0.000461123 -0.7723346 0.6352158
vn -0.0007305567 -0.7723458 0.6352019
vn 0 -0.7599123 0.6500256
vn -0.0007243775 -0.7723455 0.6352022
vn -0.001158744 -0.7723635 0.6351796
vn -0.001158653 -0.7722287 0.6353436
vn 0 -0.7722938 0.6352656
vn 0.0004536381 -0.7597588 0.6502048
vn 0 -1 0
vn 0 -1 0
vn 0 -1 0
vn 0 -1 0
vn 0 -1 0
vn 0 -1 0
vn 0 -1 0
vn 0 -1 0
vn 0.7732871 -0.0005327504 0.6340559
vn 0.7732648 -7.076103E-05 0.6340833
vn 0.7589123 0 0.6511928
vn 0.7732648 -7.185101E-05 0.6340832
vn 0.7732613 0 0.6340874
vn 0.7733282 0 0.6340058
vn 0.7733051 0 0.6340342
vn 0.7587585 0.000522381 0.6513718
vn 1 0 0
vn 1 0 0
vn 1 0 0
vn 1 0 0
vn 1 0 0
vn 1 0 0
vn 1 0 0
vn 1 0 0
vn 0 0.7690843 0.6391474
vn 0 0.7690843 0.6391474
vn 0 0.7690843 0.6391474
vn -0.0005771478 0.7630205 0.6463739
vn -0.001171202 0.7629551 0.6464504
vn -0.001178237 0.7632989 0.6460444
vn 0 0.7630976 0.6462832
vn 0.0002234659 0.7691407 0.6390794
vn 0 1 0
vn 0 1 0
vn 0 1 0
vn 0 1 0
vn 0 1 0
vn 0 1 0
vn 0 1 0
vn 0 1 0
vn -0.7639512 0 0.6452739
vn -0.7639512 0 0.645274
vn -0.7639512 0 0.645274
vn -0.7682914 0.0001674189 0.6401003
vn -0.7683629 0 0.6400144
vn -0.7683228 0 0.6400626
vn -0.7683228 0 0.6400626
vn -0.7638442 -0.0001643948 0.6454006
vn -1 0 0
vn -1 0 0
vn -1 0 0
vn -1 0 0
vn -1 4.215738E-07 0
vn -1 0 0
vn -1 0 0
vn -1 0 0
vn 0.725161 -0.0004389707 0.6885793
vn 0.7226245 -0.0001764241 0.6912408
vn 0.7252462 -0.0004478155 0.6884894
vn 0.7224983 -0.0001633897 0.6913726
vn 0.7224077 0.000443783 0.6914672
vn 0.7253506 0.0001650042 0.6883796
vn 0.7253506 0.0001650042 0.6883796
vn 0.7253506 0.0001650042 0.6883796
vn 0.9927084 0 0.1205409
vn 0.992708 0 0.1205437
vn 0.9927079 0 0.120545
vn 0.9927085 0 0.1205397
vn 0.9927087 0 0.1205382
vn 0.9927065 8.666353E-07 0.1205564
vn 0.9927065 0 0.1205562
vn 0.9927074 0 0.1205482
vn 1.804651E-06 -0.9927095 0.1205308
vn 1.804651E-06 -0.9927095 0.1205308
vn 1.804651E-06 -0.9927095 0.1205308
vn 0 -0.9927073 0.1205497
vn -0.0002222896 -0.9927096 0.1205304
vn -0.0002213119 -0.9927094 0.1205321
vn 0 -0.9927055 0.120564
vn 0 -0.992704 0.1205766
vn -0.7141236 -0.0001823256 0.7000195
vn -0.7141236 -0.0001823256 0.7000195
vn -0.7141236 -0.0001823256 0.7000195
vn -0.7339545 0.001761887 0.6791963
vn -0.733928 0 0.6792274
vn -0.733844 0.0001768737 0.6793179
vn -0.733844 0.0001768737 0.6793179
vn -0.7150676 -0.001717554 0.6990532
vn -0.9927072 -1.44372E-05 0.1205506
vn -0.9927072 -1.44372E-05 0.1205506
vn -0.9927072 -1.44372E-05 0.1205506
vn -0.992705 0 0.1205683
vn -0.9927046 0 0.1205719
vn -0.992705 0 0.1205686
vn -0.992707 3.569991E-06 0.1205528
vn -0.9927077 0 0.1205469
vn -3.609254E-06 0.9927108 0.1205211
vn -3.609254E-06 0.9927108 0.1205211
vn -3.609254E-06 0.9927108 0.1205211
vn 0 0.9927106 0.1205227
vn -0.0002166801 0.9927093 0.1205325
vn -0.0002154131 0.9927095 0.1205311
vn -8.925221E-07 0.9927083 0.1205418
vn 0 0.9927076 0.1205478
vn 0 0 1
vn 0 0 1
vn 0 0 1
vn 0 0 1
vn 0 0 1
vn 0 0 1
vn 0 0 1
vn 0 0 1
vn 0 0 1
vn 0 0 1
vn 0 0 1
vn 0 0 1
vn 0 0 1
vn -0.001817814 0 0.9999983
vn -0.001818993 0 0.9999983
vn 0 0 1
vn 0 0 -1
vn 0 0 -1
vn 0 0 -1
vn 0 0 -1
vn 0 0 -1
vn 0 0 -1
vn 0 0 -1
vn 0 0 -1
vn 0 0 -1
vn 0 0 -1
vn 0 0 -1
vn 0 0 -1
vn 0.001824877 0 -0.9999983
vn 0.001821177 0 -0.9999983
vn 0 0 -1
vn 0 0 -1
vn -1.991665E-06 0 1
vn 0 0 1
vn 1.372668E-07 0 1
vn -5.907182E-07 0 1
vn -5.284199E-06 0 1
vn -0.0007990281 0 0.9999998
vn -6.019578E-06 0 1
vn -0.0006981791 0 0.9999998
vn 1.968777E-06 0 1
vn -0.001100136 0 0.9999994
vn -3.489858E-06 0 1
vn -0.0008129482 0 0.9999996
vn -0.0008065187 0 0.9999998
vn 3.11433E-06 0 1
vn -0.001104663 0 0.9999994
vn -1.972651E-06 0 1
vn -0.0006961456 0 0.9999998
vn 6.0107E-06 0 1
vn -0.0007965436 0 0.9999998
vn 5.27607E-06 0 1
vn 1.701092E-07 0 1
vn 3.590757E-07 0 1
vn 8.387311E-07 0 1
vn 0 0 1
usemtl WhiteWoodClean
f 3/20/64 2/19/63 1/18/62
f 5/22/66 1/18/62 4/21/65
f 6/23/67 5/22/66 4/21/65
f 6/23/67 4/21/65 7/24/68
f 8/25/69 6/23/67 7/24/68
f 11/28/72 10/27/71 9/26/70
f 14/31/75 13/30/74 12/29/73
f 16/33/77 12/29/73 15/32/76
f 17/34/78 16/33/77 15/32/76
f 17/34/78 15/32/76 18/35/79
f 19/36/80 17/34/78 18/35/79
f 22/39/83 21/38/82 20/37/81
f 25/42/86 24/41/85 23/40/84
f 24/41/85 26/43/87 23/40/84
f 26/43/87 24/41/85 27/44/88
f 28/45/89 26/43/87 27/44/88
f 27/44/88 29/46/90 28/45/89
f 29/46/90 30/47/91 28/45/89
f 33/50/94 32/49/93 31/48/92
f 32/49/93 34/51/95 31/48/92
f 31/48/92 34/51/95 35/52/96
f 36/53/97 31/48/92 35/52/96
f 36/53/97 35/52/96 37/54/98
f 35/52/96 38/55/99 37/54/98
f 41/58/102 40/57/101 39/56/100
f 40/57/101 42/59/103 39/56/100
f 42/59/103 40/57/101 43/60/104
f 44/61/105 42/59/103 43/60/104
f 43/60/104 45/62/106 44/61/105
f 45/62/106 46/63/107 44/61/105
f 49/66/110 48/65/109 47/64/108
f 48/65/109 50/67/111 47/64/108
f 47/64/108 50/67/111 51/68/112
f 52/69/113 47/64/108 51/68/112
f 52/69/113 51/68/112 53/70/114
f 51/68/112 54/71/115 53/70/114
f 57/74/118 56/73/117 55/72/116
f 58/75/119 57/74/118 55/72/116
f 58/75/119 55/72/116 59/76/120
f 60/77/121 58/75/119 59/76/120
f 60/77/121 59/76/120 61/78/122
f 62/79/123 60/77/121 61/78/122
f 65/82/126 64/81/125 63/80/124
f 64/81/125 66/83/127 63/80/124
f 63/80/124 66/83/127 67/84/128
f 68/85/129 63/80/124 67/84/128
f 68/85/129 67/84/128 69/86/130
f 67/84/128 70/87/131 69/86/130
f 73/90/134 72/89/133 71/88/132
f 74/91/135 73/90/134 71/88/132
f 74/91/135 71/88/132 75/92/136
f 76/93/137 74/91/135 75/92/136
f 75/92/136 77/94/138 76/93/137
f 77/94/138 78/95/139 76/93/137
f 81/98/142 80/97/141 79/96/140
f 82/99/143 81/98/142 79/96/140
f 82/99/143 83/100/144 81/98/142
f 83/100/144 84/101/145 81/98/142
f 85/102/146 84/101/145 83/100/144
f 86/103/147 85/102/146 83/100/144
f 89/106/150 88/105/149 87/104/148
f 88/105/149 90/107/151 87/104/148
f 90/107/151 88/105/149 91/108/152
f 92/109/153 90/107/151 91/108/152
f 91/108/152 93/110/154 92/109/153
f 93/110/154 94/111/155 92/109/153
f 97/114/158 96/113/157 95/112/156
f 96/113/157 98/115/159 95/112/156
f 95/112/156 98/115/159 99/116/160
f 100/117/161 95/112/156 99/116/160
f 100/117/161 99/116/160 101/118/162
f 99/116/160 102/119/163 101/118/162
f 105/122/166 104/121/165 103/120/164
f 106/123/167 105/122/166 103/120/164
f 106/123/167 107/124/168 105/122/166
f 107/124/168 108/125/169 105/122/166
f 109/126/170 108/125/169 107/124/168
f 110/127/171 109/126/170 107/124/168
f 113/130/174 112/129/173 111/128/172
f 114/131/175 113/130/174 111/128/172
f 114/131/175 111/128/172 115/132/176
f 116/133/177 114/131/175 115/132/176
f 116/133/177 115/132/176 117/134/178
f 118/135/179 116/133/177 117/134/178
f 121/138/182 120/137/181 119/136/180
f 122/139/183 121/138/182 119/136/180
f 121/138/182 122/139/183 123/140/184
f 124/141/185 121/138/182 123/140/184
f 125/142/186 124/141/185 123/140/184
f 126/143/187 125/142/186 123/140/184
f 129/146/190 128/145/189 127/144/188
f 130/147/191 129/146/190 127/144/188
f 130/147/191 131/148/192 129/146/190
f 131/148/192 132/149/193 129/146/190
f 133/150/194 132/149/193 131/148/192
f 134/151/195 133/150/194 131/148/192
f 137/154/198 136/153/197 135/152/196
f 136/153/197 138/155/199 135/152/196
f 138/155/199 136/153/197 139/156/200
f 135/152/196 138/155/199 140/157/201
f 141/158/202 135/152/196 140/157/201
f 141/158/202 140/157/201 142/159/203
f 140/157/201 143/160/204 142/159/203
f 144/161/205 138/155/199 139/156/200
f 138/155/199 144/161/205 140/157/201
f 139/156/200 145/162/206 144/161/205
f 145/162/206 146/163/207 144/161/205
f 144/161/205 146/163/207 147/164/208
f 143/160/204 140/157/201 148/165/209
f 144/161/205 148/165/209 140/157/201
f 148/165/209 144/161/205 147/164/208
f 149/166/210 143/160/204 148/165/209
f 148/165/209 147/164/208 149/166/210
f 147/164/208 150/167/211 149/166/210
f 153/170/214 152/169/213 151/168/212
f 152/169/213 154/171/215 151/168/212
f 154/171/215 152/169/213 155/172/216
f 151/168/212 154/171/215 156/173/217
f 157/174/218 151/168/212 156/173/217
f 157/174/218 156/173/217 158/175/219
f 156/173/217 159/176/220 158/175/219
f 160/177/221 154/171/215 155/172/216
f 154/171/215 160/177/221 156/173/217
f 155/172/216 161/178/222 160/177/221
f 161/178/222 162/179/223 160/177/221
f 162/179/223 163/180/224 160/177/221
f 156/173/217 164/181/225 159/176/220
f 160/177/221 164/181/225 156/173/217
f 163/180/224 164/181/225 160/177/221
f 164/181/225 165/182/226 159/176/220
f 164/181/225 163/180/224 165/182/226
f 163/180/224 166/183/227 165/182/226
f 169/186/230 168/185/229 167/184/228
f 170/187/231 169/186/230 167/184/228
f 168/185/229 169/186/230 171/188/232
f 170/187/231 167/184/228 172/189/233
f 173/190/234 168/185/229 171/188/232
f 174/191/235 170/187/231 172/189/233
f 171/188/232 175/192/236 173/190/234
f 174/191/235 172/189/233 176/193/237
f 175/192/236 177/194/238 173/190/234
f 178/195/239 174/191/235 176/193/237
f 175/192/236 179/196/240 177/194/238
f 178/195/239 176/193/237 180/197/241
f 179/196/240 181/198/242 177/194/238
f 182/199/243 178/195/239 180/197/241
f 179/196/240 183/200/244 181/198/242
f 182/199/243 180/197/241 184/201/245
f 183/200/244 185/202/246 181/198/242
f 186/203/247 182/199/243 184/201/245
f 183/200/244 187/204/248 185/202/246
f 186/203/247 184/201/245 188/205/249
f 187/204/248 189/206/250 185/202/246
f 190/207/251 186/203/247 188/205/249
f 187/204/248 190/207/251 189/206/250
f 190/207/251 188/205/249 189/206/250
