mtllib Cabinet_64c8b7ce.mtl
v -0.135 0.31919 0.02527
v -0.16919 0.3192 0.02528
v -0.17082 0.32083 0.027
v -0.07999 0.31919 0.02537
v -0.13499 0.32085 0.027
v -0.08 0.32085 0.0271
v -0.0458 0.3192 0.02538
v -0.04411 0.32083 0.0271
v -0.135 0.31919 0.02527
v -0.17082 0.32083 0.027
v -0.13499 0.32085 0.027
v -0.07999 -0.31918 0.02537
v -0.0458 -0.31919 0.02538
v -0.04411 -0.32081 0.0271
v -0.135 -0.31918 0.02527
v -0.08 -0.32085 0.0271
v -0.13499 -0.32085 0.027
v -0.16919 -0.31919 0.02528
v -0.17082 -0.32081 0.027
v -0.07999 -0.31918 0.02537
v -0.04411 -0.32081 0.0271
v -0.08 -0.32085 0.0271
v -0.22364 -0.37363 0.027
v -0.135 -0.375 0.02541
v -0.225 -0.375 0.02541
v -0.135 -0.37368 0.027
v -0.07999 -0.375 0.0255
v -0.07999 -0.37368 0.0271
v 0.01001 -0.375 0.0255
v 0.00863 -0.37363 0.0271
v -0.07999 -0.375 0.00011
v 0.01001 -0.375 0.0255
v 0.01001 -0.375 0.00011
v -0.07999 -0.375 0.0255
v -0.135 -0.375 0.02541
v -0.135 -0.375 0
v -0.225 -0.375 0
v -0.225 -0.375 0.02541
v 0.00863 -0.37363 0.0271
v 0.01001 -0.285 0.0255
v 0.01001 -0.375 0.0255
v 0.00869 -0.285 0.0271
v 0.01001 0.285 0.0255
v 0.00869 0.285 0.0271
v 0.01001 0.37501 0.0255
v 0.00863 0.37368 0.0271
v 0.01001 0.285 0.00011
v 0.01001 0.37501 0.0255
v 0.01001 0.37501 0.00011
v 0.01001 0.285 0.0255
v 0.01001 -0.285 0.0255
v 0.01001 -0.285 0.00011
v 0.01001 -0.375 0.00011
v 0.01001 -0.375 0.0255
v -0.07999 0.37501 0.0255
v 0.01001 0.37501 0.0255
v 0.00863 0.37368 0.0271
v -0.07999 0.37365 0.0271
v -0.135 0.37501 0.02541
v -0.135 0.37365 0.027
v -0.225 0.37501 0.02541
v -0.22364 0.37368 0.027
v -0.135 0.37501 0
v -0.225 0.37501 0.02541
v -0.225 0.37501 0
v -0.135 0.37501 0.02541
v -0.07999 0.37501 0.0255
v -0.07999 0.37501 0.00011
v 0.01001 0.37501 0.00011
v 0.01001 0.37501 0.0255
v -0.225 0.28501 0.02541
v -0.225 0.37501 0.02541
v -0.22364 0.37368 0.027
v -0.22366 0.285 0.027
v -0.225 -0.285 0.02541
v -0.22366 -0.285 0.027
v -0.225 -0.375 0.02541
v -0.22364 -0.37363 0.027
v -0.225 0.37501 0
v -0.225 0.37501 0.02541
v -0.225 0.28501 0.02541
v -0.225 0.28501 0
v -0.225 -0.285 0
v -0.225 -0.285 0.02541
v -0.225 -0.375 0.02541
v -0.225 -0.375 0
v -0.16919 0.3192 0.02528
v -0.17084 0.285 0.027
v -0.17082 0.32083 0.027
v -0.16918 0.28501 0.02527
v -0.17084 -0.28499 0.027
v -0.16918 -0.285 0.02527
v -0.17082 -0.32081 0.027
v -0.16919 -0.31919 0.02528
v -0.1677 0.28501 0.013
v -0.16919 0.3192 0.02528
v -0.1677 0.31771 0.013
v -0.16918 0.28501 0.02527
v -0.16918 -0.285 0.02527
v -0.1677 -0.285 0.013
v -0.1677 -0.3177 0.013
v -0.16919 -0.31919 0.02528
v -0.1677 0.31771 0.013
v -0.16919 0.3192 0.02528
v -0.135 0.31919 0.02527
v -0.135 0.31771 0.013
v -0.07999 0.3177 0.01311
v -0.07999 0.31919 0.02537
v -0.0458 0.3192 0.02538
v -0.04729 0.3177 0.01311
v -0.04581 0.285 0.02537
v -0.0458 0.3192 0.02538
v -0.04411 0.32083 0.0271
v -0.0442 0.285 0.0271
v -0.04581 -0.285 0.02537
v -0.0442 -0.28499 0.0271
v -0.0458 -0.31919 0.02538
v -0.04411 -0.32081 0.0271
v -0.04729 0.3177 0.01311
v -0.0458 0.3192 0.02538
v -0.04581 0.285 0.02537
v -0.04729 0.285 0.01311
v -0.04729 -0.285 0.01311
v -0.04581 -0.285 0.02537
v -0.0458 -0.31919 0.02538
v -0.04729 -0.3177 0.01311
v -0.04729 -0.3177 0.01311
v -0.0458 -0.31919 0.02538
v -0.07999 -0.31918 0.02537
v -0.07999 -0.3177 0.01311
v -0.135 -0.3177 0.013
v -0.135 -0.31918 0.02527
v -0.16919 -0.31919 0.02528
v -0.1677 -0.3177 0.013
v -0.04729 0.285 0.01311
v -0.07999 0.3177 0.01311
v -0.04729 0.3177 0.01311
v -0.07999 0.285 0.01311
v -0.135 0.31771 0.013
v -0.07999 -0.285 0.01311
v -0.04729 -0.285 0.01311
v -0.04729 -0.3177 0.01311
v -0.07999 -0.3177 0.01311
v -0.135 0.28501 0.013
v -0.1677 0.31771 0.013
v -0.1677 0.28501 0.013
v -0.1677 -0.285 0.013
v -0.135 -0.285 0.013
v -0.135 -0.3177 0.013
v -0.1677 -0.3177 0.013
v -0.07999 0.37501 0.00011
v 0.01001 0.285 0.00011
v 0.01001 0.37501 0.00011
v -0.07999 0.285 0.00011
v 0.01001 -0.285 0.00011
v -0.135 0.28501 0
v -0.135 0.37501 0
v -0.225 0.37501 0
v -0.225 0.28501 0
v -0.07999 -0.285 0.00011
v 0.01001 -0.375 0.00011
v -0.07999 -0.375 0.00011
v -0.135 -0.375 0
v -0.135 -0.285 0
v -0.225 -0.285 0
v -0.225 -0.375 0
v -0.17082 0.32083 0.027
v -0.17084 0.285 0.027
v -0.22366 0.285 0.027
v -0.22364 0.37368 0.027
v -0.22366 -0.285 0.027
v -0.13499 0.32085 0.027
v -0.17084 -0.28499 0.027
v -0.135 0.37365 0.027
v -0.22364 -0.37363 0.027
v -0.08 0.32085 0.0271
v -0.17082 -0.32081 0.027
v -0.07999 0.37365 0.0271
v -0.135 -0.37368 0.027
v -0.04411 0.32083 0.0271
v -0.13499 -0.32085 0.027
v 0.00863 0.37368 0.0271
v -0.07999 -0.37368 0.0271
v -0.0442 0.285 0.0271
v -0.08 -0.32085 0.0271
v 0.00869 0.285 0.0271
v 0.00863 -0.37363 0.0271
v -0.0442 -0.28499 0.0271
v -0.04411 -0.32081 0.0271
v 0.00869 -0.285 0.0271
vt 0.4238499 4.567565
vt 0.4023292 4.567581
vt 0.4012995 4.570471
vt 0.4584691 4.567733
vt 0.4238505 4.570471
vt 0.4584688 4.570639
vt 0.4799898 4.567749
vt 0.4810534 4.570639
vt 0.4238499 4.567565
vt 0.4012995 4.570471
vt 0.4238505 4.570471
vt 1.306236 4.567733
vt 1.284713 4.56775
vt 1.28365 4.57064
vt 1.340857 4.567565
vt 1.306236 4.57064
vt 1.340856 4.570472
vt 1.362379 4.567582
vt 1.363409 4.570472
vt 1.306236 4.567733
vt 1.28365 4.57064
vt 1.306236 4.57064
vt 4.169135 3.987222
vt 4.242076 3.985244
vt 4.168024 3.985244
vt 4.242076 3.987222
vt 4.287335 3.985367
vt 4.287335 3.987346
vt 4.361387 3.985367
vt 4.360259 3.987346
vt 4.287335 3.953953
vt 4.361387 3.985367
vt 4.361387 3.953953
vt 4.287335 3.985367
vt 4.242076 3.985244
vt 4.242076 3.953829
vt 4.168024 3.953829
vt 4.168024 3.985244
vt 1.600618 1.904494
vt 1.602636 1.975988
vt 1.602636 1.90339
vt 1.600618 1.975988
vt 1.602636 2.435776
vt 1.600618 2.435776
vt 1.602636 2.508374
vt 1.600618 2.507302
vt 1.634676 2.435776
vt 1.602636 2.508374
vt 1.634676 2.508374
vt 1.602636 2.435776
vt 1.602636 1.975988
vt 1.634676 1.975988
vt 1.634676 1.90339
vt 1.602636 1.90339
vt 4.242068 4.279492
vt 4.167974 4.279492
vt 4.169104 4.281473
vt 4.242068 4.281473
vt 4.287344 4.279368
vt 4.287344 4.281349
vt 4.361437 4.279368
vt 4.360325 4.281349
vt 4.287344 4.24794
vt 4.361437 4.279368
vt 4.361437 4.24794
vt 4.287344 4.279368
vt 4.242068 4.279492
vt 4.242068 4.248064
vt 4.167974 4.248064
vt 4.167974 4.279492
vt 1.926778 2.435818
vt 1.926778 2.50843
vt 1.928797 2.507357
vt 1.928797 2.435818
vt 1.926779 1.975947
vt 1.928797 1.975947
vt 1.926779 1.903335
vt 1.928797 1.904439
vt 1.894733 2.50843
vt 1.926778 2.50843
vt 1.926778 2.435818
vt 1.894733 2.435818
vt 1.894733 1.975947
vt 1.926779 1.975947
vt 1.926779 1.903335
vt 1.894733 1.903335
vt 3.961233 2.101499
vt 3.958175 2.081174
vt 3.958175 2.10247
vt 3.96125 2.081175
vt 3.958175 1.74235
vt 3.96125 1.742349
vt 3.958175 1.721058
vt 3.961233 1.722026
vt 3.983001 2.081175
vt 3.961233 2.101499
vt 3.983001 2.100613
vt 3.96125 2.081175
vt 3.96125 1.742349
vt 3.983001 1.742349
vt 3.983001 1.722911
vt 3.961233 1.722026
vt 0.4032674 4.547009
vt 0.4023292 4.567581
vt 0.4238499 4.567565
vt 0.4238499 4.547009
vt 0.4584691 4.547177
vt 0.4584691 4.567733
vt 0.4799898 4.567749
vt 0.4790517 4.547177
vt 3.685797 2.080982
vt 3.685815 2.101284
vt 3.68887 2.102254
vt 3.68887 2.080982
vt 3.685797 1.742542
vt 3.68887 1.742543
vt 3.685815 1.722242
vt 3.68887 1.721275
vt 3.664072 2.100398
vt 3.685815 2.101284
vt 3.685797 2.080982
vt 3.664072 2.080982
vt 3.664072 1.742542
vt 3.685797 1.742542
vt 3.685815 1.722242
vt 3.664072 1.723127
vt 1.285652 4.547176
vt 1.284713 4.56775
vt 1.306236 4.567733
vt 1.306236 4.547176
vt 1.340857 4.547008
vt 1.340857 4.567565
vt 1.362379 4.567582
vt 1.361441 4.547008
vt 4.623642 2.176461
vt 4.588434 2.206831
vt 4.623642 2.206831
vt 4.588434 2.176461
vt 4.529213 2.206831
vt 4.588434 1.647069
vt 4.623642 1.647069
vt 4.623642 1.616698
vt 4.588434 1.616698
vt 4.529213 2.176461
vt 4.494005 2.206831
vt 4.494005 2.176461
vt 4.494005 1.647069
vt 4.529214 1.647069
vt 4.529214 1.616698
vt 4.494005 1.616698
vt 0.707296 2.574212
vt 0.6156659 2.485812
vt 0.6156659 2.574212
vt 0.707296 2.485812
vt 0.6156659 1.925952
vt 0.7632928 2.485813
vt 0.7632928 2.574212
vt 0.8549224 2.574212
vt 0.8549224 2.485813
vt 0.707296 1.925952
vt 0.6156659 1.837553
vt 0.707296 1.837553
vt 0.7632926 1.837553
vt 0.7632926 1.925952
vt 0.8549226 1.925952
vt 0.8549226 1.837553
vt 2.729382 2.519782
vt 2.72936 2.48473
vt 2.675375 2.484731
vt 2.675394 2.571486
vt 2.675375 1.927047
vt 2.766 2.519806
vt 2.72936 1.927048
vt 2.766 2.571461
vt 2.675394 1.84033
vt 2.822213 2.519806
vt 2.729382 1.892003
vt 2.822214 2.571461
vt 2.766 1.840279
vt 2.858886 2.519782
vt 2.766 1.891966
vt 2.912798 2.571486
vt 2.822214 1.840279
vt 2.858799 2.48473
vt 2.822213 1.891965
vt 2.91286 2.484731
vt 2.912798 1.84033
vt 2.858799 1.927048
vt 2.858886 1.892003
vt 2.91286 1.927047
vt 4.242076 3.985244
vt 4.287335 3.985367
vt 4.287335 3.953953
vt 4.287335 3.985367
vt 4.242076 3.985244
vt 4.242076 3.953829
vt 4.529213 2.206831
vt 4.588434 1.647069
vt 4.623642 1.647069
vt 4.494005 2.206831
vt 4.494005 1.647069
vt 4.529214 1.647069
vt 0.707296 2.574212
vt 0.707296 2.485812
vt 0.7632928 2.574212
vt 0.707296 1.925952
vt 0.707296 1.837553
vn 0.0001729583 -0.7256734 0.6880393
vn 0.0001729583 -0.7256734 0.6880392
vn 0.0001729583 -0.7256734 0.6880393
vn -0.001253897 -0.7223271 0.6915505
vn -0.001253897 -0.7223271 0.6915505
vn -0.0001886931 -0.7224782 0.6913937
vn -0.0004822206 -0.7254194 0.6883069
vn -0.0004920341 -0.7255176 0.6882035
vn 0.0004789427 -0.722219 0.6916642
vn 0.0004789427 -0.7222191 0.6916642
vn 0.0004789427 -0.722219 0.6916643
vn -0.0001793002 0.7270286 0.6866072
vn -0.0001793002 0.7270286 0.6866072
vn -0.0001793002 0.7270287 0.6866071
vn -0.001249177 0.720984 0.6929507
vn -0.001249177 0.7209839 0.6929507
vn 0.0001708375 0.7208333 0.6931084
vn 0.0001708374 0.7208334 0.6931084
vn 0.0007628206 0.7268558 0.6867898
vn -0.0007601209 0.7209879 0.6929472
vn -0.0007601208 0.7209879 0.6929473
vn -0.0007601208 0.7209879 0.6929473
vn -0.0004565908 -0.7724292 0.6351007
vn -0.0007268341 -0.7724358 0.6350923
vn 0 -0.759881 0.6500621
vn -0.0007206032 -0.7724357 0.6350926
vn -0.001156252 -0.7724465 0.6350788
vn -0.001158323 -0.7723773 0.6351628
vn 0 -0.7724407 0.6350869
vn 0.0004523245 -0.7598479 0.6501006
vn 0 -1 0
vn 0 -1 0
vn 0 -1 0
vn 0 -1 0
vn -1.053086E-06 -1 0
vn -1.051571E-06 -1 0
vn 0 -1 0
vn 0 -1 0
vn 0.7735344 -0.0005325538 0.6337541
vn 0.7735601 -7.073078E-05 0.633723
vn 0.7591662 0 0.6508967
vn 0.7735601 -7.182057E-05 0.633723
vn 0.7735641 0 0.6337181
vn 0.7734311 0 0.6338805
vn 0.773553 0 0.6337316
vn 0.7587932 0.0005224049 0.6513314
vn 1 0 0
vn 1 0 0
vn 1 0 0
vn 1 0 0
vn 1 0 0
vn 1 0 0
vn 1 0 0
vn 1 0 0
vn 0 0.7692324 0.6389691
vn 0 0.7692324 0.6389691
vn 0 0.7692324 0.6389691
vn -0.0005770164 0.7632126 0.6461472
vn -0.001171035 0.7632122 0.6461469
vn -0.001177849 0.7631204 0.6462553
vn 0 0.7631281 0.6462473
vn 0.0002193151 0.7691711 0.6390428
vn 0 1 0
vn 0 1 0
vn 0 1 0
vn 0 1 0
vn 0 1 0
vn 0 1 0
vn 0 1 0
vn 0 1 0
vn -0.7639682 0 0.6452539
vn -0.7639682 0 0.6452539
vn -0.7639682 0 0.6452539
vn -0.768416 0.0001673884 0.6399506
vn -0.7683812 0 0.6399923
vn -0.7684295 0 0.6399344
vn -0.7684295 0 0.6399344
vn -0.7637358 -0.0001623728 0.645529
vn -1 0 0
vn -1 0 0
vn -1 0 0
vn -1 0 0
vn -1 4.215681E-07 0
vn -1 0 0
vn -1 0 0
vn -1 0 0
vn 0.7251609 -0.0004388125 0.6885794
vn 0.7226229 -0.0001715719 0.6912425
vn 0.7252462 -0.0004478155 0.6884895
vn 0.7224966 -0.000158305 0.6913744
vn 0.7225413 0.0004392537 0.6913276
vn 0.7253318 0.0001692354 0.6883993
vn 0.7253318 0.0001692354 0.6883993
vn 0.7253318 0.0001692354 0.6883993
vn 0.9927093 0 0.1205328
vn 0.9927077 0 0.1205462
vn 0.992707 0 0.1205524
vn 0.99271 0 0.1205275
vn 0.9927099 0 0.1205287
vn 0.9927084 0 0.1205409
vn 0.9927083 0 0.1205414
vn 0.9927092 7.218496E-06 0.1205345
vn -3.609272E-06 -0.9927159 0.1204793
vn -3.609272E-06 -0.9927159 0.1204793
vn -3.609272E-06 -0.9927159 0.1204793
vn 0 -0.9927113 0.1205173
vn -0.0002301422 -0.99271 0.1205272
vn -0.0002189297 -0.992709 0.1205348
vn 4.462445E-07 -0.9927055 0.1205635
vn 0 -0.9927043 0.1205748
vn -0.7141593 -0.0001843566 0.6999833
vn -0.7141592 -0.0001843566 0.6999834
vn -0.7141593 -0.0001843566 0.6999833
vn -0.7339545 0.001757381 0.6791963
vn -0.7339948 0 0.6791552
vn -0.7339825 0.0001836213 0.6791683
vn -0.7339825 0.0001836213 0.6791683
vn -0.7150984 -0.001717628 0.6990217
vn -0.9927071 7.218677E-06 0.1205519
vn -0.9927071 7.218677E-06 0.1205519
vn -0.9927071 7.218677E-06 0.1205519
vn -0.9927044 0 0.1205738
vn -0.9927046 0 0.1205718
vn -0.9927046 0 0.1205719
vn -0.9927067 -1.784959E-06 0.1205544
vn -0.9927076 0 0.1205478
vn -7.218515E-06 0.9927119 0.1205122
vn -7.218516E-06 0.9927119 0.1205122
vn -7.218514E-06 0.9927119 0.1205122
vn 5.665123E-06 0.9927032 0.120584
vn -0.0002178067 0.992709 0.1205347
vn -0.0002125858 0.9927099 0.1205284
vn -4.46256E-07 0.9927105 0.1205238
vn 0 0.9927115 0.1205153
vn 0 0 1
vn 0 0 1
vn 0 0 1
vn 0 0 1
vn 0 0 1
vn 0 0 1
vn 0 0 1
vn 0 0 1
vn 3.163687E-06 0 1
vn 0 0 1
vn 0 0 1
vn 0 0 1
vn 0 0 1
vn -0.001827641 0 0.9999983
vn -0.001825756 0 0.9999983
vn 0 0 1
vn 0 0 -1
vn 0 0 -1
vn 0 0 -1
vn 0 0 -1
vn 0 0 -1
vn 0 0 -1
vn 0 0 -1
vn 0 0 -1
vn 0 0 -1
vn 0 0 -1
vn 0 0 -1
vn 0 0 -1
vn 0.001824864 0 -0.9999983
vn 0.001829679 0 -0.9999983
vn 0 0 -1
vn 0 0 -1
vn -5.338908E-07 0 1
vn 3.816218E-07 0 1
vn 0 0 1
vn -1.468128E-06 0 1
vn 0 0 1
vn -0.0007952172 0 0.9999998
vn -1.235382E-07 0 1
vn -0.0006968205 0 0.9999998
vn -4.544161E-07 0 1
vn -0.001100627 0 0.9999994
vn -2.393861E-06 0 1
vn -0.0008113338 0 0.9999996
vn -0.0008077002 0 0.9999998
vn 3.155872E-07 0 1
vn -0.001099918 0 0.9999994
vn 0 0 1
vn -0.0006989058 0 0.9999998
vn -5.765295E-06 0 1
vn -0.0007980911 0 0.9999998
vn -5.276087E-06 0 1
vn -3.338999E-06 0 1
vn -3.590766E-07 0 1
vn -9.771841E-07 0 1
vn -2.241668E-07 0 1
vn 0 -1 0
vn 0 -1 0
vn 0 -1 0
vn 0 -1 0
vn 0 -1 0
vn 0 -1 0
vn 0 -1 0
vn 0 -1 0
vn 1 0 0
vn 1 0 0
vn 1 0 0
vn 1 0 0
vn 1 0 0
vn 1 0 0
vn 1 0 0
vn 1 0 0
vn 0 1 0
vn 0 1 0
vn 0 1 0
vn 0 1 0
vn 0 1 0
vn 0 1 0
vn 0 1 0
vn 0 1 0
vn -1 0 0
vn -1 0 0
vn -1 0 0
vn -1 0 0
vn -1 0 0
vn -1 0 0
vn -1 0 0
vn 0.9927084 0 0.1205409
vn -0.9927046 0 0.1205719
vn 0 0 1
vn 0 0 1
vn 0 0 1
vn 0 0 1
vn 0 0 1
vn 0 0 1
vn 0 0 1
vn 0 0 1
vn 0 0 1
vn 0 0 1
vn 0 0 1
vn 0 0 1
vn 0 0 1
vn 0 0 1
vn 0 0 -1
vn 0 0 -1
vn 0 0 -1
vn 0 0 -1
vn 0 0 -1
vn 0 0 -1
vn 0 0 -1
vn 0 0 -1
vn 0 0 -1
vn 0 0 -1
vn 0 0 -1
vn 0 0 -1
vn 0 0 -1
vn 0 0 -1
vn 0 0 1
vn 0 0 1
usemtl WhiteWoodClean
f 3/3/3 2/2/2 1/1/1
f 5/5/5 1/1/1 4/4/4
f 6/6/6 5/5/5 4/4/4
f 6/6/6 4/4/4 7/7/7
f 8/8/8 6/6/6 7/7/7
f 11/11/11 10/10/10 9/9/9
f 14/14/14 13/13/13 12/12/12
f 16/16/16 12/12/12 15/15/15
f 17/17/17 16/16/16 15/15/15
f 17/17/17 15/15/15 18/18/18
f 19/19/19 17/17/17 18/18/18
f 22/22/22 21/21/21 20/20/20
f 25/25/25 24/24/24 23/23/23
f 24/24/24 26/26/26 23/23/23
f 26/26/26 24/24/24 27/27/27
f 28/28/28 26/26/26 27/27/27
f 27/27/27 29/29/29 28/28/28
f 29/29/29 30/30/30 28/28/28
f 33/33/33 32/32/32 31/31/31
f 32/32/32 34/34/34 31/31/31
f 31/31/31 34/34/34 35/35/35
f 36/36/36 31/31/31 35/35/35
f 36/36/36 35/35/35 37/37/37
f 35/35/35 38/38/38 37/37/37
f 41/41/41 40/40/40 39/39/39
f 40/40/40 42/42/42 39/39/39
f 42/42/42 40/40/40 43/43/43
f 44/44/44 42/42/42 43/43/43
f 43/43/43 45/45/45 44/44/44
f 45/45/45 46/46/46 44/44/44
f 49/49/49 48/48/48 47/47/47
f 48/48/48 50/50/50 47/47/47
f 47/47/47 50/50/50 51/51/51
f 52/52/52 47/47/47 51/51/51
f 52/52/52 51/51/51 53/53/53
f 51/51/51 54/54/54 53/53/53
f 57/57/57 56/56/56 55/55/55
f 58/58/58 57/57/57 55/55/55
f 58/58/58 55/55/55 59/59/59
f 60/60/60 58/58/58 59/59/59
f 60/60/60 59/59/59 61/61/61
f 62/62/62 60/60/60 61/61/61
f 65/65/65 64/64/64 63/63/63
f 64/64/64 66/66/66 63/63/63
f 63/63/63 66/66/66 67/67/67
f 68/68/68 63/63/63 67/67/67
f 68/68/68 67/67/67 69/69/69
f 67/67/67 70/70/70 69/69/69
f 73/73/73 72/72/72 71/71/71
f 74/74/74 73/73/73 71/71/71
f 74/74/74 71/71/71 75/75/75
f 76/76/76 74/74/74 75/75/75
f 75/75/75 77/77/77 76/76/76
f 77/77/77 78/78/78 76/76/76
f 81/81/81 80/80/80 79/79/79
f 82/82/82 81/81/81 79/79/79
f 82/82/82 83/83/83 81/81/81
f 83/83/83 84/84/84 81/81/81
f 85/85/85 84/84/84 83/83/83
f 86/86/86 85/85/85 83/83/83
f 89/89/89 88/88/88 87/87/87
f 88/88/88 90/90/90 87/87/87
f 90/90/90 88/88/88 91/91/91
f 92/92/92 90/90/90 91/91/91
f 91/91/91 93/93/93 92/92/92
f 93/93/93 94/94/94 92/92/92
f 97/97/97 96/96/96 95/95/95
f 96/96/96 98/98/98 95/95/95
f 95/95/95 98/98/98 99/99/99
f 100/100/100 95/95/95 99/99/99
f 100/100/100 99/99/99 101/101/101
f 99/99/99 102/102/102 101/101/101
f 105/105/105 104/104/104 103/103/103
f 106/106/106 105/105/105 103/103/103
f 106/106/106 107/107/107 105/105/105
f 107/107/107 108/108/108 105/105/105
f 109/109/109 108/108/108 107/107/107
f 110/110/110 109/109/109 107/107/107
f 113/113/113 112/112/112 111/111/111
f 114/114/114 113/113/113 111/111/111
f 114/114/114 111/111/111 115/115/115
f 116/116/116 114/114/114 115/115/115
f 116/116/116 115/115/115 117/117/117
f 118/118/118 116/116/116 117/117/117
f 121/121/121 120/120/120 119/119/119
f 122/122/122 121/121/121 119/119/119
f 121/121/121 122/122/122 123/123/123
f 124/124/124 121/121/121 123/123/123
f 125/125/125 124/124/124 123/123/123
f 126/126/126 125/125/125 123/123/123
f 129/129/129 128/128/128 127/127/127
f 130/130/130 129/129/129 127/127/127
f 130/130/130 131/131/131 129/129/129
f 131/131/131 132/132/132 129/129/129
f 133/133/133 132/132/132 131/131/131
f 134/134/134 133/133/133 131/131/131
f 137/137/137 136/136/136 135/135/135
f 136/136/136 138/138/138 135/135/135
f 138/138/138 136/136/136 139/139/139
f 135/135/135 138/138/138 140/140/140
f 141/141/141 135/135/135 140/140/140
f 141/141/141 140/140/140 142/142/142
f 140/140/140 143/143/143 142/142/142
f 144/144/144 138/138/138 139/139/139
f 138/138/138 144/144/144 140/140/140
f 139/139/139 145/145/145 144/144/144
f 145/145/145 146/146/146 144/144/144
f 144/144/144 146/146/146 147/147/147
f 143/143/143 140/140/140 148/148/148
f 144/144/144 148/148/148 140/140/140
f 148/148/148 144/144/144 147/147/147
f 149/149/149 143/143/143 148/148/148
f 148/148/148 147/147/147 149/149/149
f 147/147/147 150/150/150 149/149/149
f 153/153/153 152/152/152 151/151/151
f 152/152/152 154/154/154 151/151/151
f 154/154/154 152/152/152 155/155/155
f 151/151/151 154/154/154 156/156/156
f 157/157/157 151/151/151 156/156/156
f 157/157/157 156/156/156 158/158/158
f 156/156/156 159/159/159 158/158/158
f 160/160/160 154/154/154 155/155/155
f 154/154/154 160/160/160 156/156/156
f 155/155/155 161/161/161 160/160/160
f 161/161/161 162/162/162 160/160/160
f 162/162/162 163/163/163 160/160/160
f 156/156/156 164/164/164 159/159/159
f 160/160/160 164/164/164 156/156/156
f 163/163/163 164/164/164 160/160/160
f 164/164/164 165/165/165 159/159/159
f 164/164/164 163/163/163 165/165/165
f 163/163/163 166/166/166 165/165/165
f 169/169/169 168/168/168 167/167/167
f 170/170/170 169/169/169 167/167/167
f 168/168/168 169/169/169 171/171/171
f 170/170/170 167/167/167 172/172/172
f 173/173/173 168/168/168 171/171/171
f 174/174/174 170/170/170 172/172/172
f 171/171/171 175/175/175 173/173/173
f 174/174/174 172/172/172 176/176/176
f 175/175/175 177/177/177 173/173/173
f 178/178/178 174/174/174 176/176/176
f 175/175/175 179/179/179 177/177/177
f 178/178/178 176/176/176 180/180/180
f 179/179/179 181/181/181 177/177/177
f 182/182/182 178/178/178 180/180/180
f 179/179/179 183/183/183 181/181/181
f 182/182/182 180/180/180 184/184/184
f 183/183/183 185/185/185 181/181/181
f 186/186/186 182/182/182 184/184/184
f 183/183/183 187/187/187 185/185/185
f 186/186/186 184/184/184 188/188/188
f 187/187/187 189/189/189 185/185/185
f 190/190/190 186/186/186 188/188/188
f 187/187/187 190/190/190 189/189/189
f 190/190/190 188/188/188 189/189/189
