mtllib material.mtl
usemtl material_0
v -0.14000000 0.31919000 0.02525000
v -0.17419000 0.31920000 0.02526000
v -0.17582000 0.32083000 0.02699000
v -0.08499000 0.31919000 0.02535000
v -0.13999000 0.32085000 0.02699000
v -0.08500000 0.32085000 0.02709000
v -0.05080000 0.31920000 0.02536000
v -0.04911000 0.32083000 0.02709000
v -0.14000000 0.31919000 0.02525000
v -0.17582000 0.32083000 0.02699000
v -0.08499000 -0.31918000 0.02535000
v -0.05080000 -0.31919000 0.02536000
v -0.04911000 -0.32081000 0.02709000
v -0.14000000 -0.31918000 0.02525000
v -0.08500000 -0.32085000 0.02709000
v -0.13999000 -0.32085000 0.02699000
v -0.17419000 -0.31919000 0.02526000
v -0.17582000 -0.32081000 0.02699000
v -0.08499000 -0.31918000 0.02535000
v -0.04911000 -0.32081000 0.02709000
v -0.22864000 -0.37363000 0.02699000
v -0.14000000 -0.37500000 0.02539000
v -0.23000000 -0.37500000 0.02539000
v -0.14000000 -0.37368000 0.02699000
v -0.08499000 -0.37500000 0.02549000
v -0.08499000 -0.37368000 0.02709000
v 0.00501000 -0.37500000 0.02549000
v 0.00363000 -0.37363000 0.02709000
v -0.08499000 -0.37500000 0.00009000
v 0.00501000 -0.37500000 0.02549000
v 0.00501000 -0.37500000 0.00009000
v -0.08499000 -0.37500000 0.02549000
v -0.14000000 -0.37500000 0.02539000
v -0.14000000 -0.37500000 -0.00001000
v -0.23000000 -0.37500000 -0.00001000
v -0.23000000 -0.37500000 0.02539000
v 0.00363000 -0.37363000 0.02709000
v 0.00501000 -0.28500000 0.02549000
v 0.00501000 -0.37500000 0.02549000
v 0.00369000 -0.28500000 0.02709000
v 0.00501000 0.28500000 0.02549000
v 0.00369000 0.28500000 0.02709000
v 0.00501000 0.37500000 0.02549000
v 0.00363000 0.37368000 0.02709000
v 0.00501000 0.28500000 0.00009000
v 0.00501000 0.37500000 0.02549000
v 0.00501000 0.37500000 0.00009000
v 0.00501000 0.28500000 0.02549000
v 0.00501000 -0.28500000 0.02549000
v 0.00501000 -0.28500000 0.00009000
v 0.00501000 -0.37500000 0.00009000
v 0.00501000 -0.37500000 0.02549000
v -0.08499000 0.37500000 0.02549000
v 0.00501000 0.37500000 0.02549000
v 0.00363000 0.37368000 0.02709000
v -0.08499000 0.37365000 0.02709000
v -0.14000000 0.37500000 0.02539000
v -0.14000000 0.37365000 0.02699000
v -0.23000000 0.37500000 0.02539000
v -0.22864000 0.37368000 0.02699000
v -0.14000000 0.37500000 -0.00001000
v -0.23000000 0.37500000 0.02539000
v -0.23000000 0.37500000 -0.00001000
v -0.14000000 0.37500000 0.02539000
v -0.08499000 0.37500000 0.02549000
v -0.08499000 0.37500000 0.00009000
v 0.00501000 0.37500000 0.00009000
v 0.00501000 0.37500000 0.02549000
v -0.23000000 0.28501000 0.02539000
v -0.23000000 0.37500000 0.02539000
v -0.22864000 0.37368000 0.02699000
v -0.22866000 0.28501000 0.02699000
v -0.23000000 -0.28500000 0.02539000
v -0.22866000 -0.28500000 0.02699000
v -0.23000000 -0.37500000 0.02539000
v -0.22864000 -0.37363000 0.02699000
v -0.23000000 0.37500000 -0.00001000
v -0.23000000 0.37500000 0.02539000
v -0.23000000 0.28501000 0.02539000
v -0.23000000 0.28501000 -0.00001000
v -0.23000000 -0.28500000 -0.00001000
v -0.23000000 -0.28500000 0.02539000
v -0.23000000 -0.37500000 0.02539000
v -0.23000000 -0.37500000 -0.00001000
v -0.17419000 0.31920000 0.02526000
v -0.17584000 0.28500000 0.02699000
v -0.17582000 0.32083000 0.02699000
v -0.17418000 0.28501000 0.02525000
v -0.17584000 -0.28499000 0.02699000
v -0.17418000 -0.28500000 0.02525000
v -0.17582000 -0.32081000 0.02699000
v -0.17419000 -0.31919000 0.02526000
v -0.17270000 0.28501000 0.01299000
v -0.17419000 0.31920000 0.02526000
v -0.17270000 0.31770000 0.01299000
v -0.17418000 0.28501000 0.02525000
v -0.17418000 -0.28500000 0.02525000
v -0.17270000 -0.28500000 0.01299000
v -0.17270000 -0.31770000 0.01299000
v -0.17419000 -0.31919000 0.02526000
v -0.17270000 0.31770000 0.01299000
v -0.17419000 0.31920000 0.02526000
v -0.14000000 0.31919000 0.02525000
v -0.14000000 0.31770000 0.01299000
v -0.08499000 0.31770000 0.01309000
v -0.08499000 0.31919000 0.02535000
v -0.05080000 0.31920000 0.02536000
v -0.05229000 0.31770000 0.01309000
v -0.05081000 0.28500000 0.02535000
v -0.05080000 0.31920000 0.02536000
v -0.04911000 0.32083000 0.02709000
v -0.04920000 0.28500000 0.02709000
v -0.05081000 -0.28500000 0.02535000
v -0.04920000 -0.28499000 0.02709000
v -0.05080000 -0.31919000 0.02536000
v -0.04911000 -0.32081000 0.02709000
v -0.05229000 0.31770000 0.01309000
v -0.05080000 0.31920000 0.02536000
v -0.05081000 0.28500000 0.02535000
v -0.05229000 0.28500000 0.01309000
v -0.05229000 -0.28500000 0.01309000
v -0.05081000 -0.28500000 0.02535000
v -0.05080000 -0.31919000 0.02536000
v -0.05229000 -0.31770000 0.01309000
v -0.05229000 -0.31770000 0.01309000
v -0.05080000 -0.31919000 0.02536000
v -0.08499000 -0.31918000 0.02535000
v -0.08499000 -0.31770000 0.01309000
v -0.14000000 -0.31770000 0.01299000
v -0.14000000 -0.31918000 0.02525000
v -0.17419000 -0.31919000 0.02526000
v -0.17270000 -0.31770000 0.01299000
v -0.05229000 0.28500000 0.01309000
v -0.08499000 0.31770000 0.01309000
v -0.05229000 0.31770000 0.01309000
v -0.08499000 0.28500000 0.01309000
v -0.14000000 0.31770000 0.01299000
v -0.08499000 -0.28500000 0.01309000
v -0.05229000 -0.28500000 0.01309000
v -0.05229000 -0.31770000 0.01309000
v -0.08499000 -0.31770000 0.01309000
v -0.14000000 0.28501000 0.01299000
v -0.17270000 0.31770000 0.01299000
v -0.17270000 0.28501000 0.01299000
v -0.17270000 -0.28500000 0.01299000
v -0.14000000 -0.28500000 0.01299000
v -0.14000000 -0.31770000 0.01299000
v -0.17270000 -0.31770000 0.01299000
v -0.08499000 0.37500000 0.00009000
v 0.00501000 0.28500000 0.00009000
v 0.00501000 0.37500000 0.00009000
v -0.08499000 0.28500000 0.00009000
v 0.00501000 -0.28500000 0.00009000
v -0.14000000 0.28501000 -0.00001000
v -0.14000000 0.37500000 -0.00001000
v -0.23000000 0.37500000 -0.00001000
v -0.23000000 0.28501000 -0.00001000
v -0.08499000 -0.28500000 0.00009000
v 0.00501000 -0.37500000 0.00009000
v -0.08499000 -0.37500000 0.00009000
v -0.14000000 -0.37500000 -0.00001000
v -0.14000000 -0.28500000 -0.00001000
v -0.23000000 -0.28500000 -0.00001000
v -0.23000000 -0.37500000 -0.00001000
v -0.17582000 0.32083000 0.02699000
v -0.17584000 0.28500000 0.02699000
v -0.22866000 0.28501000 0.02699000
v -0.22864000 0.37368000 0.02699000
v -0.22866000 -0.28500000 0.02699000
v -0.13999000 0.32085000 0.02699000
v -0.17584000 -0.28499000 0.02699000
v -0.14000000 0.37365000 0.02699000
v -0.22864000 -0.37363000 0.02699000
v -0.08500000 0.32085000 0.02709000
v -0.17582000 -0.32081000 0.02699000
v -0.08499000 0.37365000 0.02709000
v -0.14000000 -0.37368000 0.02699000
v -0.04911000 0.32083000 0.02709000
v -0.13999000 -0.32085000 0.02699000
v 0.00363000 0.37368000 0.02709000
v -0.08499000 -0.37368000 0.02709000
v -0.04920000 0.28500000 0.02709000
v -0.08500000 -0.32085000 0.02709000
v 0.00369000 0.28500000 0.02709000
v 0.00363000 -0.37363000 0.02709000
v -0.04920000 -0.28499000 0.02709000
v -0.04911000 -0.32081000 0.02709000
v 0.00369000 -0.28500000 0.02709000
vn 0.00015544 -0.72552290 0.68819800
vn 0.00015544 -0.72552290 0.68819800
vn 0.00015544 -0.72552290 0.68819800
vn -0.00125390 -0.72232430 0.69155340
vn -0.00125390 -0.72232430 0.69155340
vn -0.00018068 -0.72261630 0.69124930
vn -0.00047320 -0.72531230 0.68841980
vn -0.00048297 -0.72540220 0.68832500
vn 0.00047899 -0.72229100 0.69158920
vn 0.00047899 -0.72229100 0.69158920
vn -0.00016823 0.72713640 0.68649300
vn -0.00016823 0.72713640 0.68649290
vn -0.00016823 0.72713640 0.68649300
vn -0.00125658 0.72098610 0.69294830
vn -0.00125658 0.72098610 0.69294840
vn 0.00016284 0.72083180 0.69311000
vn 0.00016284 0.72083180 0.69311000
vn 0.00077180 0.72685270 0.68679300
vn -0.00076889 0.72091500 0.69302310
vn -0.00076889 0.72091510 0.69302300
vn -0.00045495 -0.77236970 0.63517320
vn -0.00072679 -0.77237700 0.63516400
vn 0.00000000 -0.75981850 0.65013530
vn -0.00072056 -0.77237680 0.63516410
vn -0.00115878 -0.77238860 0.63514920
vn -0.00115839 -0.77234690 0.63519990
vn 0.00000000 -0.77241190 0.63512190
vn 0.00045082 -0.75981690 0.65013700
vn 0.00000000 -1.00000000 0.00000000
vn 0.00000000 -1.00000000 0.00000000
vn 0.00000000 -1.00000000 0.00000000
vn 0.00000000 -1.00000000 0.00000000
vn -0.00000105 -1.00000000 0.00000000
vn -0.00000105 -1.00000000 0.00000000
vn 0.00000000 -1.00000000 0.00000000
vn 0.00000000 -1.00000000 0.00000000
vn 0.77341060 -0.00053265 0.63390520
vn 0.77347030 -0.00007074 0.63383250
vn 0.75903940 0.00000000 0.65104480
vn 0.77347020 -0.00007183 0.63383280
vn 0.77347950 0.00000000 0.63382140
vn 0.77341290 0.00000000 0.63390250
vn 0.77342850 0.00000000 0.63388350
vn 0.75877450 0.00052239 0.65135320
vn 1.00000000 0.00000000 0.00000000
vn 1.00000000 0.00000000 0.00000000
vn 1.00000000 0.00000000 0.00000000
vn 1.00000000 0.00000000 0.00000000
vn 1.00000000 0.00000000 0.00000000
vn 1.00000000 0.00000000 0.00000000
vn 1.00000000 0.00000000 0.00000000
vn 1.00000000 0.00000000 0.00000000
vn 0.00000000 0.76920370 0.63900360
vn 0.00000000 0.76920370 0.63900360
vn 0.00000000 0.76920370 0.63900360
vn -0.00057957 0.76322120 0.64613700
vn -0.00117788 0.76328680 0.64605870
vn -0.00117765 0.76321090 0.64614840
vn 0.00000000 0.76321930 0.64613960
vn 0.00021928 0.76926070 0.63893500
vn 0.00000000 1.00000000 0.00000000
vn 0.00000000 1.00000000 0.00000000
vn 0.00000000 1.00000000 0.00000000
vn 0.00000000 1.00000000 0.00000000
vn 0.00000000 1.00000000 0.00000000
vn 0.00000000 1.00000000 0.00000000
vn 0.00000000 1.00000000 0.00000000
vn 0.00000000 1.00000000 0.00000000
vn -0.76396820 0.00000000 0.64525390
vn -0.76396820 0.00000000 0.64525390
vn -0.76396820 0.00000000 0.64525390
vn -0.76852730 0.00016529 0.63981690
vn -0.76851580 0.00000117 0.63983080
vn -0.76830470 0.00000000 0.64008430
vn -0.76830470 0.00000000 0.64008430
vn -0.76371820 -0.00016340 0.64554970
vn -1.00000000 0.00000000 0.00000000
vn -1.00000000 0.00000000 0.00000000
vn -1.00000000 0.00000000 0.00000000
vn -1.00000000 0.00000000 0.00000000
vn -1.00000000 0.00000063 0.00000000
vn -1.00000000 0.00000027 0.00000000
vn -1.00000000 0.00000000 0.00000000
vn -1.00000000 0.00000000 0.00000000
vn 0.72530070 -0.00043652 0.68843210
vn 0.72261600 -0.00017018 0.69124970
vn 0.72539100 -0.00044549 0.68833700
vn 0.72248230 -0.00015696 0.69138940
vn 0.72247340 0.00044595 0.69139860
vn 0.72545220 0.00016083 0.68827250
vn 0.72545220 0.00016083 0.68827250
vn 0.72545220 0.00016083 0.68827250
vn 0.99270950 0.00000568 0.12053110
vn 0.99270840 0.00000179 0.12054060
vn 0.99270790 0.00000000 0.12054500
vn 0.99271000 0.00000722 0.12052730
vn 0.99271020 0.00000000 0.12052600
vn 0.99270840 0.00000022 0.12054100
vn 0.99270830 0.00000000 0.12054140
vn 0.99270730 -0.00000361 0.12054990
vn -0.00000361 -0.99270990 0.12052860
vn -0.00000361 -0.99270990 0.12052860
vn -0.00000361 -0.99270990 0.12052860
vn 0.00000000 -0.99270770 0.12054650
vn -0.00022228 -0.99271000 0.12052770
vn -0.00021780 -0.99270940 0.12053160
vn 0.00000000 -0.99270580 0.12056240
vn 0.00000000 -0.99270440 0.12057430
vn -0.71423060 -0.00018416 0.69991030
vn -0.71423060 -0.00018416 0.69991030
vn -0.71423050 -0.00018416 0.69991040
vn -0.73392300 0.00176181 0.67923030
vn -0.73396240 0.00000000 0.67919020
vn -0.73394900 0.00017399 0.67920450
vn -0.73394890 0.00017399 0.67920450
vn -0.71509400 -0.00171320 0.69902620
vn -0.99270770 -0.00000722 0.12054620
vn -0.99270770 -0.00000722 0.12054620
vn -0.99270770 -0.00000722 0.12054620
vn -0.99270520 0.00000000 0.12056640
vn -0.99270530 0.00000000 0.12056570
vn -0.99270560 0.00000000 0.12056250
vn -0.99270710 0.00000179 0.12055130
vn -0.99270770 0.00000000 0.12054690
vn 0.00000000 0.99270720 0.12055050
vn 0.00000000 0.99270720 0.12055050
vn 0.00000000 0.99270720 0.12055050
vn 0.00000000 0.99270710 0.12055150
vn -0.00021556 0.99270930 0.12053250
vn -0.00021339 0.99271000 0.12052760
vn -0.00000089 0.99270850 0.12053990
vn 0.00000000 0.99270780 0.12054590
vn 0.00000000 0.00000000 1.00000000
vn 0.00000000 0.00000000 1.00000000
vn 0.00000000 0.00000000 1.00000000
vn 0.00000000 0.00000000 1.00000000
vn 0.00000000 0.00000000 1.00000000
vn 0.00000000 0.00000000 1.00000000
vn 0.00000000 0.00000000 1.00000000
vn 0.00000000 0.00000000 1.00000000
vn 0.00000000 0.00000000 1.00000000
vn 0.00000000 0.00000000 1.00000000
vn 0.00000000 0.00000000 1.00000000
vn 0.00000000 0.00000000 1.00000000
vn 0.00000000 0.00000000 1.00000000
vn -0.00182622 0.00000000 0.99999830
vn -0.00181897 0.00000000 0.99999830
vn 0.00000000 0.00000000 1.00000000
vn 0.00000000 0.00000000 -1.00000000
vn 0.00000000 0.00000000 -1.00000000
vn 0.00000000 0.00000000 -1.00000000
vn 0.00000000 0.00000000 -1.00000000
vn 0.00000000 0.00000000 -1.00000000
vn 0.00000000 0.00000000 -1.00000000
vn 0.00000000 0.00000000 -1.00000000
vn 0.00000000 0.00000000 -1.00000000
vn 0.00000000 0.00000000 -1.00000000
vn 0.00000000 0.00000000 -1.00000000
vn 0.00000000 0.00000000 -1.00000000
vn 0.00000000 0.00000000 -1.00000000
vn 0.00182487 0.00000000 -0.99999830
vn 0.00181930 0.00000000 -0.99999830
vn 0.00000000 0.00000000 -1.00000000
vn 0.00000000 0.00000000 -1.00000000
vn -0.00000290 0.00000000 1.00000000
vn -0.00000038 0.00000000 1.00000000
vn -0.00000036 0.00000000 1.00000000
vn -0.00000157 0.00000000 1.00000000
vn -0.00000140 0.00000000 1.00000000
vn -0.00079535 0.00000000 0.99999980
vn -0.00000070 0.00000000 1.00000000
vn -0.00069681 0.00000000 0.99999980
vn -0.00000303 0.00000000 1.00000000
vn -0.00110380 0.00000000 0.99999940
vn 0.00000479 0.00000000 1.00000000
vn -0.00080990 0.00000000 0.99999960
vn -0.00081111 0.00000000 0.99999960
vn -0.00000272 0.00000000 1.00000000
vn -0.00110356 0.00000000 0.99999940
vn 0.00000591 0.00000000 1.00000000
vn -0.00069873 0.00000000 0.99999980
vn -0.00000506 0.00000000 1.00000000
vn -0.00079886 0.00000000 0.99999980
vn -0.00000388 0.00000000 1.00000000
vn -0.00000129 0.00000000 1.00000000
vn -0.00000036 0.00000000 1.00000000
vn -0.00000061 0.00000000 1.00000000
vn -0.00000022 0.00000000 1.00000000
vt 0.42384980 4.56756500
vt 0.40232900 4.56758100
vt 0.40129910 4.57047200
vt 0.45846920 4.56773200
vt 0.42385040 4.57047200
vt 0.45846890 4.57064000
vt 0.47999010 4.56774800
vt 0.48105380 4.57064000
vt 0.42384980 4.56756500
vt 0.40129910 4.57047200
vt 1.30623600 4.56773300
vt 1.28471400 4.56774900
vt 1.28365100 4.57064000
vt 1.34085600 4.56756500
vt 1.30623600 4.57064000
vt 1.34085600 4.57047200
vt 1.36237800 4.56758200
vt 1.36340800 4.57047200
vt 1.30623600 4.56773300
vt 1.28365100 4.57064000
vt 4.16914300 3.98722100
vt 4.24207800 3.98524300
vt 4.16803100 3.98524300
vt 4.24207800 3.98722100
vt 4.28733300 3.98536600
vt 4.28733300 3.98734500
vt 4.36138000 3.98536600
vt 4.36025100 3.98734500
vt 4.28733300 3.95395400
vt 4.36138000 3.98536600
vt 4.36138000 3.95395400
vt 4.28733300 3.98536600
vt 4.24207800 3.98524300
vt 4.24207800 3.95383000
vt 4.16803100 3.95383000
vt 4.16803100 3.98524300
vt 1.60061800 1.90450200
vt 1.60263700 1.97599400
vt 1.60263700 1.90339900
vt 1.60061800 1.97599400
vt 1.60263700 2.43577100
vt 1.60061800 2.43577100
vt 1.60263700 2.50836700
vt 1.60061800 2.50729500
vt 1.63467600 2.43577100
vt 1.60263700 2.50836700
vt 1.63467600 2.50836700
vt 1.60263700 2.43577100
vt 1.60263700 1.97599400
vt 1.63467600 1.97599400
vt 1.63467600 1.90339900
vt 1.60263700 1.90339900
vt 4.24207600 4.27948800
vt 4.16801100 4.27948800
vt 4.16914200 4.28146600
vt 4.24207600 4.28146600
vt 4.28733600 4.27936400
vt 4.28733500 4.28134300
vt 4.36140000 4.27936400
vt 4.36028700 4.28134300
vt 4.28733600 4.24794600
vt 4.36140000 4.27936400
vt 4.36140000 4.24794600
vt 4.28733600 4.27936400
vt 4.24207600 4.27948800
vt 4.24207600 4.24807000
vt 4.16801100 4.24807000
vt 4.16801100 4.27948800
vt 1.92677800 2.43581700
vt 1.92677800 2.50842800
vt 1.92879700 2.50735500
vt 1.92879700 2.43581700
vt 1.92677900 1.97594800
vt 1.92879700 1.97594800
vt 1.92677900 1.90333700
vt 1.92879700 1.90444100
vt 1.89473300 2.50842800
vt 1.92677800 2.50842800
vt 1.92677800 2.43581700
vt 1.89473300 2.43581700
vt 1.89473300 1.97594800
vt 1.92677900 1.97594800
vt 1.92677900 1.90333700
vt 1.89473300 1.90333700
vt 3.96123300 2.10150000
vt 3.95817400 2.08117500
vt 3.95817400 2.10247200
vt 3.96125000 2.08117500
vt 3.95817400 1.74234900
vt 3.96125000 1.74234900
vt 3.95817400 1.72105800
vt 3.96123300 1.72202600
vt 3.98300100 2.08117500
vt 3.96123300 2.10150000
vt 3.98300100 2.10061400
vt 3.96125000 2.08117500
vt 3.96125000 1.74234900
vt 3.98300100 1.74234900
vt 3.98300100 1.72291200
vt 3.96123300 1.72202600
vt 0.40326710 4.54700900
vt 0.40232900 4.56758100
vt 0.42384980 4.56756500
vt 0.42384980 4.54700900
vt 0.45846920 4.54717600
vt 0.45846920 4.56773200
vt 0.47999010 4.56774800
vt 0.47905180 4.54717600
vt 3.68579800 2.08098500
vt 3.68581500 2.10128800
vt 3.68887000 2.10225800
vt 3.68887000 2.08098500
vt 3.68579800 1.74253900
vt 3.68887000 1.74254000
vt 3.68581500 1.72223900
vt 3.68887000 1.72127200
vt 3.66407200 2.10040200
vt 3.68581500 2.10128800
vt 3.68579800 2.08098500
vt 3.66407200 2.08098500
vt 3.66407200 1.74253900
vt 3.68579800 1.74253900
vt 3.68581500 1.72223900
vt 3.66407200 1.72312400
vt 1.28565300 4.54717600
vt 1.28471400 4.56774900
vt 1.30623600 4.56773300
vt 1.30623600 4.54717600
vt 1.34085600 4.54700800
vt 1.34085600 4.56756500
vt 1.36237800 4.56758200
vt 1.36144000 4.54700800
vt 4.62364100 2.17646100
vt 4.58843400 2.20683100
vt 4.62364100 2.20683100
vt 4.58843400 2.17646100
vt 4.52921300 2.20683100
vt 4.58843400 1.64706800
vt 4.62364100 1.64706800
vt 4.62364100 1.61669800
vt 4.58843400 1.61669800
vt 4.52921300 2.17646100
vt 4.49400600 2.20683100
vt 4.49400600 2.17646100
vt 4.49400600 1.64706900
vt 4.52921400 1.64706900
vt 4.52921400 1.61669800
vt 4.49400600 1.61669800
vt 0.70729600 2.57421200
vt 0.61566590 2.48581300
vt 0.61566590 2.57421200
vt 0.70729600 2.48581300
vt 0.61566590 1.92595200
vt 0.76329280 2.48581300
vt 0.76329280 2.57421200
vt 0.85492240 2.57421200
vt 0.85492240 2.48581300
vt 0.70729600 1.92595200
vt 0.61566590 1.83755300
vt 0.70729600 1.83755300
vt 0.76329270 1.83755300
vt 0.76329270 1.92595200
vt 0.85492260 1.92595200
vt 0.85492260 1.83755300
vt 2.72938100 2.51978500
vt 2.72935900 2.48473300
vt 2.67537400 2.48473400
vt 2.67539300 2.57148900
vt 2.67537400 1.92704500
vt 2.76600000 2.51980800
vt 2.72935900 1.92704500
vt 2.76599900 2.57146400
vt 2.67539300 1.84032800
vt 2.82221400 2.51980800
vt 2.72938100 1.89200000
vt 2.82221400 2.57146400
vt 2.76599900 1.84027600
vt 2.85888600 2.51978500
vt 2.76600000 1.89196300
vt 2.91279900 2.57148900
vt 2.82221400 1.84027600
vt 2.85879900 2.48473300
vt 2.82221400 1.89196300
vt 2.91286100 2.48473300
vt 2.91279900 1.84032700
vt 2.85879900 1.92704500
vt 2.85888600 1.89200000
vt 2.91286100 1.92704500
f 3/3/3 2/2/2 1/1/1
f 5/5/5 1/1/1 4/4/4
f 6/6/6 5/5/5 4/4/4
f 6/6/6 4/4/4 7/7/7
f 8/8/8 6/6/6 7/7/7
f 5/5/5 10/10/10 9/9/9
f 13/13/13 12/12/12 11/11/11
f 15/15/15 11/11/11 14/14/14
f 16/16/16 15/15/15 14/14/14
f 16/16/16 14/14/14 17/17/17
f 18/18/18 16/16/16 17/17/17
f 15/15/15 20/20/20 19/19/19
f 23/23/23 22/22/22 21/21/21
f 22/22/22 24/24/24 21/21/21
f 24/24/24 22/22/22 25/25/25
f 26/26/26 24/24/24 25/25/25
f 25/25/25 27/27/27 26/26/26
f 27/27/27 28/28/28 26/26/26
f 31/31/31 30/30/30 29/29/29
f 30/30/30 32/32/32 29/29/29
f 29/29/29 32/32/32 33/33/33
f 34/34/34 29/29/29 33/33/33
f 34/34/34 33/33/33 35/35/35
f 33/33/33 36/36/36 35/35/35
f 39/39/39 38/38/38 37/37/37
f 38/38/38 40/40/40 37/37/37
f 40/40/40 38/38/38 41/41/41
f 42/42/42 40/40/40 41/41/41
f 41/41/41 43/43/43 42/42/42
f 43/43/43 44/44/44 42/42/42
f 47/47/47 46/46/46 45/45/45
f 46/46/46 48/48/48 45/45/45
f 45/45/45 48/48/48 49/49/49
f 50/50/50 45/45/45 49/49/49
f 50/50/50 49/49/49 51/51/51
f 49/49/49 52/52/52 51/51/51
f 55/55/55 54/54/54 53/53/53
f 56/56/56 55/55/55 53/53/53
f 56/56/56 53/53/53 57/57/57
f 58/58/58 56/56/56 57/57/57
f 58/58/58 57/57/57 59/59/59
f 60/60/60 58/58/58 59/59/59
f 63/63/63 62/62/62 61/61/61
f 62/62/62 64/64/64 61/61/61
f 61/61/61 64/64/64 65/65/65
f 66/66/66 61/61/61 65/65/65
f 66/66/66 65/65/65 67/67/67
f 65/65/65 68/68/68 67/67/67
f 71/71/71 70/70/70 69/69/69
f 72/72/72 71/71/71 69/69/69
f 72/72/72 69/69/69 73/73/73
f 74/74/74 72/72/72 73/73/73
f 73/73/73 75/75/75 74/74/74
f 75/75/75 76/76/76 74/74/74
f 79/79/79 78/78/78 77/77/77
f 80/80/80 79/79/79 77/77/77
f 80/80/80 81/81/81 79/79/79
f 81/81/81 82/82/82 79/79/79
f 83/83/83 82/82/82 81/81/81
f 84/84/84 83/83/83 81/81/81
f 87/87/87 86/86/86 85/85/85
f 86/86/86 88/88/88 85/85/85
f 88/88/88 86/86/86 89/89/89
f 90/90/90 88/88/88 89/89/89
f 89/89/89 91/91/91 90/90/90
f 91/91/91 92/92/92 90/90/90
f 95/95/95 94/94/94 93/93/93
f 94/94/94 96/96/96 93/93/93
f 93/93/93 96/96/96 97/97/97
f 98/98/98 93/93/93 97/97/97
f 98/98/98 97/97/97 99/99/99
f 97/97/97 100/100/100 99/99/99
f 103/103/103 102/102/102 101/101/101
f 104/104/104 103/103/103 101/101/101
f 104/104/104 105/105/105 103/103/103
f 105/105/105 106/106/106 103/103/103
f 107/107/107 106/106/106 105/105/105
f 108/108/108 107/107/107 105/105/105
f 111/111/111 110/110/110 109/109/109
f 112/112/112 111/111/111 109/109/109
f 112/112/112 109/109/109 113/113/113
f 114/114/114 112/112/112 113/113/113
f 114/114/114 113/113/113 115/115/115
f 116/116/116 114/114/114 115/115/115
f 119/119/119 118/118/118 117/117/117
f 120/120/120 119/119/119 117/117/117
f 119/119/119 120/120/120 121/121/121
f 122/122/122 119/119/119 121/121/121
f 123/123/123 122/122/122 121/121/121
f 124/124/124 123/123/123 121/121/121
f 127/127/127 126/126/126 125/125/125
f 128/128/128 127/127/127 125/125/125
f 128/128/128 129/129/129 127/127/127
f 129/129/129 130/130/130 127/127/127
f 131/131/131 130/130/130 129/129/129
f 132/132/132 131/131/131 129/129/129
f 135/135/135 134/134/134 133/133/133
f 134/134/134 136/136/136 133/133/133
f 136/136/136 134/134/134 137/137/137
f 133/133/133 136/136/136 138/138/138
f 139/139/139 133/133/133 138/138/138
f 139/139/139 138/138/138 140/140/140
f 138/138/138 141/141/141 140/140/140
f 142/142/142 136/136/136 137/137/137
f 136/136/136 142/142/142 138/138/138
f 137/137/137 143/143/143 142/142/142
f 143/143/143 144/144/144 142/142/142
f 142/142/142 144/144/144 145/145/145
f 141/141/141 138/138/138 146/146/146
f 142/142/142 146/146/146 138/138/138
f 146/146/146 142/142/142 145/145/145
f 147/147/147 141/141/141 146/146/146
f 146/146/146 145/145/145 147/147/147
f 145/145/145 148/148/148 147/147/147
f 151/151/151 150/150/150 149/149/149
f 150/150/150 152/152/152 149/149/149
f 152/152/152 150/150/150 153/153/153
f 149/149/149 152/152/152 154/154/154
f 155/155/155 149/149/149 154/154/154
f 155/155/155 154/154/154 156/156/156
f 154/154/154 157/157/157 156/156/156
f 158/158/158 152/152/152 153/153/153
f 152/152/152 158/158/158 154/154/154
f 153/153/153 159/159/159 158/158/158
f 159/159/159 160/160/160 158/158/158
f 160/160/160 161/161/161 158/158/158
f 154/154/154 162/162/162 157/157/157
f 158/158/158 162/162/162 154/154/154
f 161/161/161 162/162/162 158/158/158
f 162/162/162 163/163/163 157/157/157
f 162/162/162 161/161/161 163/163/163
f 161/161/161 164/164/164 163/163/163
f 167/167/167 166/166/166 165/165/165
f 168/168/168 167/167/167 165/165/165
f 166/166/166 167/167/167 169/169/169
f 168/168/168 165/165/165 170/170/170
f 171/171/171 166/166/166 169/169/169
f 172/172/172 168/168/168 170/170/170
f 169/169/169 173/173/173 171/171/171
f 172/172/172 170/170/170 174/174/174
f 173/173/173 175/175/175 171/171/171
f 176/176/176 172/172/172 174/174/174
f 173/173/173 177/177/177 175/175/175
f 176/176/176 174/174/174 178/178/178
f 177/177/177 179/179/179 175/175/175
f 180/180/180 176/176/176 178/178/178
f 177/177/177 181/181/181 179/179/179
f 180/180/180 178/178/178 182/182/182
f 181/181/181 183/183/183 179/179/179
f 184/184/184 180/180/180 182/182/182
f 181/181/181 185/185/185 183/183/183
f 184/184/184 182/182/182 186/186/186
f 185/185/185 187/187/187 183/183/183
f 188/188/188 184/184/184 186/186/186
f 185/185/185 188/188/188 187/187/187
f 188/188/188 186/186/186 187/187/187

