mtllib Cabinet_afbfa706.mtl
v -0.08856 -0.00341 0.03216
v -0.08886 -0.00328 0.00045
v -0.08887 -0.00327 0.03212
v -0.08855 -0.00341 0.00045
v -0.08855 -0.00328 0.00013
v -0.08881 -0.00322 0.00019
v 0.08856 -0.00328 0.00013
v 0.08858 -0.00341 0.03216
v -0.08856 -0.00328 0.03246
v 0.08857 -0.00328 0.03247
v 0.08856 -0.00341 0.00045
v 0.08888 -0.00327 0.03212
v 0.08887 -0.00328 0.00045
v 0.08882 -0.00322 0.00019
v -0.08856 -0.00297 0.03259
v 0.08857 -0.00328 0.03247
v -0.08856 -0.00328 0.03246
v 0.08857 -0.00297 0.03259
v 0.08856 0.01845 0.03259
v -0.08855 0.01845 0.03259
v -0.08887 -0.00264 0.03247
v -0.08886 0.01845 0.03246
v -0.08855 0.01876 0.03246
v -0.08881 0.01871 0.0324
v 0.08856 0.01876 0.03246
v 0.08887 0.01845 0.03246
v 0.08888 -0.00264 0.03247
v 0.08882 0.01871 0.0324
v -0.08855 0.00386 0.02898
v -0.08886 0.01845 0.02911
v -0.08887 0.00369 0.02912
v -0.08855 0.01845 0.02898
v -0.08855 0.01876 0.02911
v -0.08881 0.01871 0.02917
v 0.08856 0.01876 0.02911
v 0.08856 0.00386 0.02898
v -0.08856 0.00355 0.02885
v 0.08856 0.00355 0.02885
v 0.08856 0.01845 0.02898
v 0.08888 0.00369 0.02912
v 0.08887 0.01845 0.02911
v 0.08882 0.01871 0.02917
v -0.08856 -0.00328 0.03246
v -0.08887 -0.00264 0.03247
v -0.08856 -0.00297 0.03259
v -0.08887 -0.00309 0.03236
v -0.08887 -0.00327 0.03212
v -0.08856 -0.00341 0.03216
v -0.08899 -0.00263 0.03209
v -0.08899 -0.00187 0.03214
v -0.08886 0.01845 0.03246
v -0.08899 -0.00295 0.03198
v -0.08899 -0.00296 0.00045
v -0.08886 -0.00328 0.00045
v -0.08886 -0.00296 0.00013
v -0.08881 -0.00322 0.00019
v -0.08899 0.00297 0.00045
v -0.08886 0.00297 0.00013
v -0.08899 0.00295 0.02885
v -0.08886 0.00329 0.00045
v -0.08881 0.00323 0.00019
v -0.08887 0.00328 0.02865
v -0.08899 0.00304 0.02924
v -0.08887 0.00341 0.02898
v -0.08899 0.00326 0.0294
v -0.08887 0.00369 0.02912
v -0.08856 0.00355 0.02885
v -0.08855 0.00386 0.02898
v -0.08899 0.01845 0.02942
v -0.08886 0.01845 0.02911
v -0.08899 0.01845 0.03215
v -0.08886 0.01876 0.02942
v -0.08881 0.01871 0.02917
v -0.08886 0.01876 0.03215
v -0.08881 0.01871 0.0324
v 0.08888 -0.00264 0.03247
v 0.08857 -0.00328 0.03247
v 0.08857 -0.00297 0.03259
v 0.08888 -0.00309 0.03236
v 0.08888 -0.00327 0.03212
v 0.08858 -0.00341 0.03216
v 0.089 -0.00264 0.0321
v 0.089 -0.00296 0.03199
v 0.08887 -0.00328 0.00045
v 0.089 -0.00187 0.03214
v 0.089 0.01845 0.03215
v 0.08887 0.01845 0.03246
v 0.08887 0.01876 0.03215
v 0.08882 0.01871 0.0324
v 0.089 0.01845 0.02942
v 0.08887 0.01876 0.02942
v 0.089 0.00326 0.0294
v 0.08887 0.01845 0.02911
v 0.08882 0.01871 0.02917
v 0.08888 0.00369 0.02912
v 0.089 0.00304 0.02924
v 0.089 0.00295 0.02885
v 0.08888 0.00341 0.02898
v 0.08856 0.00355 0.02885
v 0.08856 0.00386 0.02898
v 0.08888 0.00328 0.02864
v 0.089 0.00297 0.00045
v 0.08887 0.00329 0.00045
v 0.089 -0.00296 0.00045
v 0.08887 0.00297 0.00013
v 0.08882 0.00323 0.00019
v 0.08887 -0.00296 0.00013
v 0.08882 -0.00322 0.00019
v -0.08856 0.00355 0.02885
v -0.08887 0.00341 0.02898
v -0.08887 0.00328 0.02865
v -0.08857 0.00342 0.02855
v 0.08856 0.00355 0.02885
v -0.08855 0.00342 0.00045
v -0.08886 0.00329 0.00045
v -0.08855 0.00329 0.00013
v -0.08881 0.00323 0.00019
v 0.08856 0.00342 0.00045
v 0.08856 0.00329 0.00013
v 0.08857 0.00342 0.02854
v 0.08887 0.00329 0.00045
v 0.08882 0.00323 0.00019
v 0.08888 0.00328 0.02864
v 0.08888 0.00341 0.02898
v -0.08855 0.00329 0.00013
v -0.08881 0.00323 0.00019
v -0.08886 0.00297 0.00013
v -0.08855 0.00297 0
v 0.08856 0.00329 0.00013
v -0.08886 -0.00296 0.00013
v 0.08856 0.00297 0
v 0.08887 0.00297 0.00013
v 0.08882 0.00323 0.00019
v 0.08887 -0.00296 0.00013
v 0.08856 -0.00296 0
v -0.08855 -0.00296 0
v -0.08855 -0.00328 0.00013
v -0.08881 -0.00322 0.00019
v 0.08856 -0.00328 0.00013
v 0.08882 -0.00322 0.00019
v -0.08886 0.01876 0.02942
v -0.08881 0.01871 0.02917
v -0.08855 0.01876 0.02911
v -0.08855 0.01889 0.02942
v -0.08886 0.01876 0.03215
v 0.08856 0.01889 0.02942
v 0.08856 0.01876 0.02911
v -0.08855 0.01889 0.03215
v 0.08887 0.01876 0.02942
v 0.08882 0.01871 0.02917
v 0.08856 0.01889 0.03215
v 0.08887 0.01876 0.03215
v 0.08856 0.01876 0.03246
v 0.08882 0.01871 0.0324
v -0.08855 0.01876 0.03246
v -0.08881 0.01871 0.0324
vt -9.831882 -0.01871353
vt -9.832475 -0.0807029
vt -9.83248 -0.01879346
vt -9.831864 -0.0807029
vt -9.831862 -0.0813145
vt -9.832364 -0.08120203
vt -9.485614 -0.08131449
vt -9.485579 -0.01869657
vt -9.83188 -0.01811397
vt -9.485586 -0.01810888
vt -9.485612 -0.08070283
vt -9.484991 -0.01877561
vt -9.485002 -0.08070282
vt -9.485112 -0.08120205
vt -9.831939 -0.2291762
vt -9.485529 -0.2297756
vt -9.831938 -0.2297755
vt -9.485539 -0.2291761
vt -9.485556 -0.1872829
vt -9.831921 -0.187283
vt -9.832542 -0.2285337
vt -9.832533 -0.187283
vt -9.831923 -0.1866711
vt -9.83242 -0.1867836
vt -9.485556 -0.186671
vt -9.484943 -0.187283
vt -9.484934 -0.2285335
vt -9.485056 -0.1867836
vt -9.831984 0.273658
vt -9.832599 0.2451113
vt -9.832603 0.2739904
vt -9.831988 0.2451113
vt -9.831986 0.2444991
vt -9.832488 0.2446118
vt -9.485442 0.244499
vt -9.485447 0.2736581
vt -9.831999 0.2742732
vt -9.485437 0.2742732
vt -9.485442 0.2451113
vt -9.484829 0.2739904
vt -9.484832 0.2451113
vt -9.484942 0.2446117
vt -9.220046 0.4201437
vt -9.220033 0.4213908
vt -9.219795 0.4207456
vt -9.220254 0.4205178
vt -9.220729 0.4201677
vt -9.220649 0.4198944
vt -9.220774 0.4214132
vt -9.220682 0.4229079
vt -9.22005 0.4628108
vt -9.220994 0.4207947
vt -9.282912 0.4207633
vt -9.282912 0.4201489
vt -9.283526 0.4207632
vt -9.283415 0.4202618
vt -9.282913 0.4324199
vt -9.283527 0.43242
vt -9.227134 0.4323735
vt -9.282913 0.4330342
vt -9.283414 0.4329214
vt -9.227539 0.4330293
vt -9.226373 0.4325491
vt -9.226883 0.4332685
vt -9.226054 0.4329749
vt -9.22662 0.4338281
vt -9.227135 0.4335442
vt -9.226887 0.4341615
vt -9.226016 0.4628108
vt -9.22663 0.4628108
vt -9.220664 0.4628108
vt -9.226018 0.4634252
vt -9.22652 0.4633122
vt -9.220666 0.4634252
vt -9.220164 0.4633123
vt -9.283292 0.5527388
vt -9.283283 0.5514919
vt -9.283526 0.5520937
vt -9.283076 0.5518625
vt -9.282614 0.5515107
vt -9.282692 0.5512425
vt -9.282555 0.5527498
vt -9.282351 0.5521264
vt -9.22041 0.5514969
vt -9.282641 0.5542561
vt -9.282659 0.5941591
vt -9.283273 0.5941591
vt -9.282659 0.5947735
vt -9.283159 0.5946606
vt -9.277305 0.5941591
vt -9.277307 0.5947735
vt -9.277267 0.5643231
vt -9.27669 0.5941591
vt -9.276804 0.5946606
vt -9.276704 0.5651762
vt -9.276954 0.5639005
vt -9.276191 0.5637259
vt -9.27644 0.5646187
vt -9.276186 0.5648926
vt -9.276436 0.5655097
vt -9.275777 0.5643803
vt -9.22041 0.563768
vt -9.22041 0.5643822
vt -9.220411 0.5521113
vt -9.219795 0.5637682
vt -9.219908 0.5642695
vt -9.219797 0.5521113
vt -9.219909 0.5516098
vt -9.831885 0.1012738
vt -9.832492 0.1010244
vt -9.832493 0.1016787
vt -9.8319 0.1018671
vt -9.485577 0.1012779
vt -9.831875 0.1568132
vt -9.832485 0.1568132
vt -9.831874 0.157425
vt -9.832374 0.1573126
vt -9.485582 0.1568132
vt -9.485581 0.157425
vt -9.485569 0.1018804
vt -9.48497 0.1568132
vt -9.485084 0.1573125
vt -9.484966 0.1016854
vt -9.484965 0.1010261
vt -9.832376 0.3212014
vt -9.832874 0.3213138
vt -9.832987 0.321815
vt -9.832373 0.321815
vt -9.485045 0.3212013
vt -9.832989 0.333456
vt -9.485044 0.321815
vt -9.48443 0.321815
vt -9.484543 0.3213138
vt -9.484432 0.3334559
vt -9.485044 0.3334559
vt -9.832375 0.333456
vt -9.832375 0.3340696
vt -9.832874 0.333957
vt -9.485044 0.3340695
vt -9.484543 0.333957
vt -9.833638 0.3657221
vt -9.833522 0.366225
vt -9.83302 0.3663383
vt -9.833021 0.3657223
vt -9.833636 0.3603572
vt -9.484398 0.3657222
vt -9.484399 0.3663382
vt -9.83302 0.3603572
vt -9.483783 0.365722
vt -9.483895 0.366225
vt -9.484397 0.3603571
vt -9.483783 0.3603571
vt -9.484399 0.3597415
vt -9.483895 0.3598547
vt -9.83302 0.3597416
vt -9.833522 0.3598547
vn -0.0007021021 -0.9999919 0.003969043
vn -0.7163775 -0.697708 -0.002616967
vn -0.6678517 -0.7442818 0.004299561
vn -0.0007538043 -0.9999915 -0.004042915
vn -0.0004883156 -0.7071066 -0.7071066
vn -0.5773041 -0.5774034 -0.5773431
vn 0.0004882949 -0.7071068 -0.7071066
vn 0.0006950022 -0.999992 0.00393699
vn -0.001029227 -0.7035523 0.7106427
vn 0.0009903782 -0.7060102 0.708201
vn 0.000746607 -0.9999915 -0.004042271
vn 0.6677933 -0.7443349 0.004207141
vn 0.71661 -0.6974687 -0.002755297
vn 0.577293 -0.577394 -0.5773639
vn -0.0003728289 -0.005795987 0.9999832
vn 0.0009903782 -0.7060102 0.708201
vn -0.001029227 -0.7035523 0.7106427
vn 0.0003722613 -0.005843923 0.9999828
vn 0.0006944452 0.005957412 0.999982
vn -0.0006944454 0.005957306 0.999982
vn -0.4975892 -0.002688965 0.8674086
vn -0.7100878 0.004328158 0.7040998
vn -0.0004883347 0.7071071 0.7071062
vn -0.5772987 0.577367 0.5773851
vn 0.0004883549 0.7071071 0.7071063
vn 0.7100878 0.004327828 0.7040998
vn 0.4974751 -0.002550245 0.8674746
vn 0.5773152 0.5773496 0.5773861
vn -0.0009689392 0.008607945 -0.9999626
vn -0.7014703 0.005802612 -0.712675
vn -0.802505 0.005665516 -0.5966185
vn -0.0007467563 0.008691107 -0.999962
vn -0.0004885463 0.7071071 -0.7071063
vn -0.5773876 0.5773783 -0.5772848
vn 0.0004885647 0.7071071 -0.7071062
vn 0.0009690663 0.008554357 -0.9999629
vn -0.00120957 0.7016538 -0.712517
vn 0.001198724 0.6997476 -0.7143893
vn 0.0007467566 0.008691262 -0.999962
vn 0.8024935 0.005696645 -0.5966337
vn 0.7014666 0.005802543 -0.7126787
vn 0.5774003 0.5773703 -0.5772802
vn -0.001029227 -0.7035523 0.7106427
vn -0.4975892 -0.002688965 0.8674086
vn -0.0003728289 -0.005795987 0.9999832
vn -0.7858914 -0.315754 0.531671
vn -0.6678517 -0.7442818 0.004299561
vn -0.0007021021 -0.9999919 0.003969043
vn -0.9994192 -0.007015332 0.03334612
vn -0.988553 -5.383187E-05 0.1508738
vn -0.7100878 0.004328158 0.7040998
vn -0.9993138 -0.03703666 0.0003501129
vn -0.9997597 -0.02151494 -0.00420047
vn -0.7163775 -0.697708 -0.002616967
vn -0.7070345 -0.01405316 -0.7070394
vn -0.5773041 -0.5774034 -0.5773431
vn -0.999805 0.01928828 -0.004221229
vn -0.7070345 0.01405586 -0.7070395
vn -0.9999479 0.01020453 -6.275815E-05
vn -0.7223241 0.6915481 -0.003018697
vn -0.577276 0.5774357 -0.5773391
vn -0.787554 0.61624 -0.002664056
vn -0.9999272 0.009862563 -0.006957809
vn -0.8614656 0.3864137 -0.329487
vn -0.9999547 0.0002771304 -0.009520489
vn -0.802505 0.005665516 -0.5966185
vn -0.00120957 0.7016538 -0.712517
vn -0.0009689392 0.008607945 -0.9999626
vn -0.9993175 0.007045622 -0.036259
vn -0.7014703 0.005802612 -0.712675
vn -0.9988563 0.006775465 0.04732935
vn -0.706805 0.7068016 -0.02929608
vn -0.5773876 0.5773783 -0.5772848
vn -0.7068036 0.7068021 0.02931751
vn -0.5772987 0.577367 0.5773851
vn 0.4974751 -0.002550245 0.8674746
vn 0.0009903782 -0.7060102 0.708201
vn 0.0003722613 -0.005843923 0.9999828
vn 0.7836391 -0.3064834 0.5403496
vn 0.6677933 -0.7443349 0.004207141
vn 0.0006950022 -0.999992 0.00393699
vn 0.9994175 -0.006521958 0.03349595
vn 0.999325 -0.03673469 0.0003426946
vn 0.71661 -0.6974687 -0.002755297
vn 0.9885543 -4.770245E-05 0.1508655
vn 0.9988563 0.006775814 0.04732933
vn 0.7100878 0.004327828 0.7040998
vn 0.706798 0.7068077 0.02931624
vn 0.5773152 0.5773496 0.5773861
vn 0.9993176 0.007046048 -0.03625763
vn 0.7067989 0.7068079 -0.02929474
vn 0.9999547 0.0002764242 -0.009521069
vn 0.7014666 0.005802543 -0.7126787
vn 0.5774003 0.5773703 -0.5772802
vn 0.8024935 0.005696645 -0.5966337
vn 0.9999253 0.009979266 -0.007065326
vn 0.9999481 0.01018739 -6.405021E-05
vn 0.8591703 0.3897705 -0.3315197
vn 0.001198724 0.6997476 -0.7143893
vn 0.0009690663 0.008554357 -0.9999629
vn 0.78561 0.6187161 -0.002695468
vn 0.9998028 0.01940597 -0.004216617
vn 0.7188439 0.6951652 -0.002987816
vn 0.9997645 -0.02129278 -0.004203298
vn 0.7070348 0.01405419 -0.7070391
vn 0.5773052 0.577408 -0.5773376
vn 0.7070343 -0.01405261 -0.7070395
vn 0.577293 -0.577394 -0.5773639
vn -0.00120957 0.7016538 -0.712517
vn -0.8614656 0.3864137 -0.329487
vn -0.787554 0.61624 -0.002664056
vn -0.0008736281 0.9999895 -0.004514546
vn 0.001198724 0.6997476 -0.7143893
vn -0.0007353268 0.9999894 -0.004556738
vn -0.7223241 0.6915481 -0.003018697
vn -0.0004882652 0.7071066 -0.7071066
vn -0.577276 0.5774357 -0.5773391
vn 0.0007314643 0.9999894 -0.004557539
vn 0.0004883259 0.7071066 -0.7071068
vn 0.000870871 0.9999894 -0.004542826
vn 0.7188439 0.6951652 -0.002987816
vn 0.5773052 0.577408 -0.5773376
vn 0.78561 0.6187161 -0.002695468
vn 0.8591703 0.3897705 -0.3315197
vn -0.0004882652 0.7071066 -0.7071066
vn -0.577276 0.5774357 -0.5773391
vn -0.7070345 0.01405586 -0.7070395
vn -0.0007177525 0.02072039 -0.9997851
vn 0.0004883259 0.7071066 -0.7071068
vn -0.7070345 -0.01405316 -0.7070394
vn 0.0007177389 0.02072144 -0.999785
vn 0.7070348 0.01405419 -0.7070391
vn 0.5773052 0.577408 -0.5773376
vn 0.7070343 -0.01405261 -0.7070395
vn 0.0007176878 -0.02072003 -0.9997851
vn -0.0007177153 -0.02072108 -0.999785
vn -0.0004883156 -0.7071066 -0.7071066
vn -0.5773041 -0.5774034 -0.5773431
vn 0.0004882949 -0.7071068 -0.7071066
vn 0.577293 -0.577394 -0.5773639
vn -0.706805 0.7068016 -0.02929608
vn -0.5773876 0.5773783 -0.5772848
vn -0.0004885463 0.7071071 -0.7071063
vn -0.0007036836 0.9990925 -0.04258818
vn -0.7068036 0.7068021 0.02931751
vn 0.0007036814 0.9990925 -0.04258886
vn 0.0004885647 0.7071071 -0.7071062
vn -0.0007038724 0.9990926 0.04258478
vn 0.7067989 0.7068079 -0.02929474
vn 0.5774003 0.5773703 -0.5772802
vn 0.0007038706 0.9990926 0.04258546
vn 0.706798 0.7068077 0.02931624
vn 0.0004883549 0.7071071 0.7071063
vn 0.5773152 0.5773496 0.5773861
vn -0.0004883347 0.7071071 0.7071062
vn -0.5772987 0.577367 0.5773851
usemtl HammeredMetal_AlbedoTransparency_2
f 3/3/3 2/2/2 1/1/1
f 2/2/2 4/4/4 1/1/1
f 4/4/4 2/2/2 5/5/5
f 2/2/2 6/6/6 5/5/5
f 5/5/5 7/7/7 4/4/4
f 8/8/8 1/1/1 4/4/4
f 1/1/1 8/8/8 9/9/9
f 8/8/8 10/10/10 9/9/9
f 11/11/11 8/8/8 4/4/4
f 7/7/7 11/11/11 4/4/4
f 8/8/8 11/11/11 12/12/12
f 11/11/11 13/13/13 12/12/12
f 11/11/11 7/7/7 13/13/13
f 7/7/7 14/14/14 13/13/13
f 17/17/17 16/16/16 15/15/15
f 16/16/16 18/18/18 15/15/15
f 18/18/18 19/19/19 15/15/15
f 19/19/19 20/20/20 15/15/15
f 15/15/15 20/20/20 21/21/21
f 20/20/20 22/22/22 21/21/21
f 20/20/20 23/23/23 22/22/22
f 20/20/20 19/19/19 23/23/23
f 23/23/23 24/24/24 22/22/22
f 19/19/19 25/25/25 23/23/23
f 26/26/26 19/19/19 18/18/18
f 19/19/19 26/26/26 25/25/25
f 27/27/27 26/26/26 18/18/18
f 26/26/26 28/28/28 25/25/25
f 31/31/31 30/30/30 29/29/29
f 30/30/30 32/32/32 29/29/29
f 32/32/32 30/30/30 33/33/33
f 30/30/30 34/34/34 33/33/33
f 33/33/33 35/35/35 32/32/32
f 29/29/29 32/32/32 36/36/36
f 29/29/29 36/36/36 37/37/37
f 36/36/36 38/38/38 37/37/37
f 32/32/32 39/39/39 36/36/36
f 35/35/35 39/39/39 32/32/32
f 36/36/36 39/39/39 40/40/40
f 39/39/39 41/41/41 40/40/40
f 39/39/39 35/35/35 41/41/41
f 35/35/35 42/42/42 41/41/41
f 45/45/45 44/44/44 43/43/43
f 44/44/44 46/46/46 43/43/43
f 43/43/43 46/46/46 47/47/47
f 48/48/48 43/43/43 47/47/47
f 49/49/49 46/46/46 44/44/44
f 47/47/47 46/46/46 49/49/49
f 50/50/50 49/49/49 44/44/44
f 44/44/44 51/51/51 50/50/50
f 52/52/52 47/47/47 49/49/49
f 52/52/52 53/53/53 47/47/47
f 53/53/53 54/54/54 47/47/47
f 53/53/53 55/55/55 54/54/54
f 55/55/55 56/56/56 54/54/54
f 55/55/55 53/53/53 57/57/57
f 58/58/58 55/55/55 57/57/57
f 53/53/53 52/52/52 59/59/59
f 57/57/57 53/53/53 59/59/59
f 57/57/57 60/60/60 58/58/58
f 60/60/60 57/57/57 59/59/59
f 60/60/60 61/61/61 58/58/58
f 62/62/62 60/60/60 59/59/59
f 59/59/59 52/52/52 63/63/63
f 59/59/59 63/63/63 62/62/62
f 52/52/52 49/49/49 63/63/63
f 63/63/63 64/64/64 62/62/62
f 63/63/63 49/49/49 65/65/65
f 49/49/49 50/50/50 65/65/65
f 66/66/66 64/64/64 63/63/63
f 65/65/65 66/66/66 63/63/63
f 67/67/67 64/64/64 66/66/66
f 68/68/68 67/67/67 66/66/66
f 65/65/65 69/69/69 66/66/66
f 65/65/65 50/50/50 69/69/69
f 69/69/69 70/70/70 66/66/66
f 50/50/50 71/71/71 69/69/69
f 51/51/51 71/71/71 50/50/50
f 69/69/69 72/72/72 70/70/70
f 69/69/69 71/71/71 72/72/72
f 72/72/72 73/73/73 70/70/70
f 71/71/71 74/74/74 72/72/72
f 71/71/71 51/51/51 74/74/74
f 51/51/51 75/75/75 74/74/74
f 78/78/78 77/77/77 76/76/76
f 77/77/77 79/79/79 76/76/76
f 80/80/80 79/79/79 77/77/77
f 81/81/81 80/80/80 77/77/77
f 82/82/82 79/79/79 80/80/80
f 76/76/76 79/79/79 82/82/82
f 83/83/83 82/82/82 80/80/80
f 80/80/80 84/84/84 83/83/83
f 85/85/85 76/76/76 82/82/82
f 85/85/85 86/86/86 76/76/76
f 86/86/86 87/87/87 76/76/76
f 86/86/86 88/88/88 87/87/87
f 88/88/88 89/89/89 87/87/87
f 88/88/88 86/86/86 90/90/90
f 91/91/91 88/88/88 90/90/90
f 86/86/86 85/85/85 92/92/92
f 90/90/90 86/86/86 92/92/92
f 90/90/90 93/93/93 91/91/91
f 93/93/93 90/90/90 92/92/92
f 93/93/93 94/94/94 91/91/91
f 95/95/95 93/93/93 92/92/92
f 92/92/92 85/85/85 96/96/96
f 85/85/85 82/82/82 96/96/96
f 92/92/92 96/96/96 95/95/95
f 96/96/96 82/82/82 97/97/97
f 82/82/82 83/83/83 97/97/97
f 96/96/96 98/98/98 95/95/95
f 95/95/95 98/98/98 99/99/99
f 100/100/100 95/95/95 99/99/99
f 101/101/101 98/98/98 96/96/96
f 97/97/97 101/101/101 96/96/96
f 97/97/97 102/102/102 101/101/101
f 97/97/97 83/83/83 102/102/102
f 102/102/102 103/103/103 101/101/101
f 83/83/83 104/104/104 102/102/102
f 84/84/84 104/104/104 83/83/83
f 102/102/102 105/105/105 103/103/103
f 102/102/102 104/104/104 105/105/105
f 105/105/105 106/106/106 103/103/103
f 104/104/104 107/107/107 105/105/105
f 104/104/104 84/84/84 107/107/107
f 84/84/84 108/108/108 107/107/107
f 111/111/111 110/110/110 109/109/109
f 112/112/112 111/111/111 109/109/109
f 109/109/109 113/113/113 112/112/112
f 112/112/112 114/114/114 111/111/111
f 114/114/114 115/115/115 111/111/111
f 114/114/114 116/116/116 115/115/115
f 116/116/116 117/117/117 115/115/115
f 114/114/114 118/118/118 116/116/116
f 118/118/118 114/114/114 112/112/112
f 118/118/118 119/119/119 116/116/116
f 113/113/113 120/120/120 112/112/112
f 120/120/120 118/118/118 112/112/112
f 118/118/118 121/121/121 119/119/119
f 121/121/121 118/118/118 120/120/120
f 121/121/121 122/122/122 119/119/119
f 123/123/123 121/121/121 120/120/120
f 120/120/120 113/113/113 123/123/123
f 113/113/113 124/124/124 123/123/123
f 127/127/127 126/126/126 125/125/125
f 128/128/128 127/127/127 125/125/125
f 125/125/125 129/129/129 128/128/128
f 127/127/127 128/128/128 130/130/130
f 129/129/129 131/131/131 128/128/128
f 131/131/131 129/129/129 132/132/132
f 129/129/129 133/133/133 132/132/132
f 132/132/132 134/134/134 131/131/131
f 131/131/131 135/135/135 128/128/128
f 134/134/134 135/135/135 131/131/131
f 128/128/128 136/136/136 130/130/130
f 135/135/135 136/136/136 128/128/128
f 136/136/136 137/137/137 130/130/130
f 136/136/136 135/135/135 137/137/137
f 137/137/137 138/138/138 130/130/130
f 135/135/135 139/139/139 137/137/137
f 135/135/135 134/134/134 139/139/139
f 134/134/134 140/140/140 139/139/139
f 143/143/143 142/142/142 141/141/141
f 144/144/144 143/143/143 141/141/141
f 141/141/141 145/145/145 144/144/144
f 144/144/144 146/146/146 143/143/143
f 146/146/146 147/147/147 143/143/143
f 145/145/145 148/148/148 144/144/144
f 144/144/144 148/148/148 146/146/146
f 146/146/146 149/149/149 147/147/147
f 149/149/149 150/150/150 147/147/147
f 146/146/146 151/151/151 149/149/149
f 148/148/148 151/151/151 146/146/146
f 151/151/151 152/152/152 149/149/149
f 151/151/151 153/153/153 152/152/152
f 153/153/153 151/151/151 148/148/148
f 153/153/153 154/154/154 152/152/152
f 155/155/155 153/153/153 148/148/148
f 148/148/148 145/145/145 155/155/155
f 145/145/145 156/156/156 155/155/155
