mtllib Cabinet_afbfa706.mtl
v -0.00364 -0.37363 0.027
v 0.085 -0.375 0.02541
v -0.005 -0.375 0.02541
v 0.085 -0.37368 0.027
v 0.375 -0.375 0.02551
v 0.375 -0.37368 0.0271
v 0.46501 -0.375 0.02551
v 0.46363 -0.37363 0.0271
v 0.375 -0.375 0.00011
v 0.46501 -0.375 0.02551
v 0.46501 -0.375 0.00011
v 0.375 -0.375 0.02551
v 0.085 -0.375 0.02541
v 0.085 -0.375 0
v -0.005 -0.375 0
v -0.005 -0.375 0.02541
v 0.46363 -0.37363 0.0271
v 0.46501 -0.285 0.02551
v 0.46501 -0.375 0.02551
v 0.46369 -0.285 0.0271
v 0.46501 0.285 0.02551
v 0.46369 0.285 0.0271
v 0.46501 0.37501 0.02551
v 0.46363 0.37368 0.0271
v 0.46501 0.285 0.00011
v 0.46501 0.37501 0.02551
v 0.46501 0.37501 0.00011
v 0.46501 0.285 0.02551
v 0.46501 -0.285 0.02551
v 0.46501 -0.285 0.00011
v 0.46501 -0.375 0.00011
v 0.46501 -0.375 0.02551
v 0.375 0.37501 0.02551
v 0.46501 0.37501 0.02551
v 0.46363 0.37368 0.0271
v 0.375 0.37365 0.0271
v 0.085 0.37501 0.02541
v 0.085 0.37365 0.027
v -0.005 0.37501 0.02541
v -0.00364 0.37368 0.027
v 0.085 0.37501 0
v -0.005 0.37501 0.02541
v -0.005 0.37501 0
v 0.085 0.37501 0.02541
v 0.375 0.37501 0.02551
v 0.375 0.37501 0.00011
v 0.46501 0.37501 0.00011
v 0.46501 0.37501 0.02551
v -0.005 0.28501 0.02541
v -0.005 0.37501 0.02541
v -0.00364 0.37368 0.027
v -0.00366 0.28501 0.027
v -0.005 -0.285 0.02541
v -0.00366 -0.28499 0.027
v -0.005 -0.375 0.02541
v -0.00364 -0.37363 0.027
v -0.005 0.37501 0
v -0.005 0.37501 0.02541
v -0.005 0.28501 0.02541
v -0.005 0.28501 0
v -0.005 -0.285 0
v -0.005 -0.285 0.02541
v -0.005 -0.375 0.02541
v -0.005 -0.375 0
v 0.05081 0.3192 0.02528
v 0.04916 0.285 0.027
v 0.04918 0.32083 0.027
v 0.05082 0.28501 0.02527
v 0.04916 -0.28499 0.027
v 0.05082 -0.285 0.02527
v 0.04918 -0.32081 0.027
v 0.05081 -0.31919 0.02528
v 0.0523 0.28501 0.01301
v 0.05081 0.3192 0.02528
v 0.0523 0.31771 0.01301
v 0.05082 0.28501 0.02527
v 0.05082 -0.285 0.02527
v 0.0523 -0.285 0.01301
v 0.0523 -0.3177 0.01301
v 0.05081 -0.31919 0.02528
v 0.085 0.31919 0.02527
v 0.05081 0.3192 0.02528
v 0.04918 0.32083 0.027
v 0.08501 0.32085 0.027
v 0.375 0.31919 0.02537
v 0.375 0.32085 0.0271
v 0.4092 0.3192 0.02538
v 0.41089 0.32083 0.0271
v 0.0523 0.31771 0.01301
v 0.05081 0.3192 0.02528
v 0.085 0.31919 0.02527
v 0.085 0.31771 0.01301
v 0.375 0.31771 0.01311
v 0.375 0.31919 0.02537
v 0.4092 0.3192 0.02538
v 0.40771 0.31771 0.01311
v 0.40919 0.285 0.02537
v 0.4092 0.3192 0.02538
v 0.41089 0.32083 0.0271
v 0.4108 0.285 0.0271
v 0.40919 -0.285 0.02537
v 0.4108 -0.28499 0.0271
v 0.4092 -0.31919 0.02538
v 0.41089 -0.32081 0.0271
v 0.40771 0.31771 0.01311
v 0.4092 0.3192 0.02538
v 0.40919 0.285 0.02537
v 0.40771 0.285 0.01311
v 0.40771 -0.285 0.01311
v 0.40919 -0.285 0.02537
v 0.4092 -0.31919 0.02538
v 0.40771 -0.3177 0.01311
v 0.375 -0.31918 0.02537
v 0.4092 -0.31919 0.02538
v 0.41089 -0.32081 0.0271
v 0.375 -0.32085 0.0271
v 0.085 -0.31918 0.02527
v 0.08501 -0.32085 0.027
v 0.05081 -0.31919 0.02528
v 0.04918 -0.32081 0.027
v 0.40771 -0.3177 0.01311
v 0.4092 -0.31919 0.02538
v 0.375 -0.31918 0.02537
v 0.375 -0.3177 0.01311
v 0.085 -0.3177 0.01301
v 0.085 -0.31918 0.02527
v 0.05081 -0.31919 0.02528
v 0.0523 -0.3177 0.01301
v 0.40771 0.285 0.01311
v 0.375 0.31771 0.01311
v 0.40771 0.31771 0.01311
v 0.375 0.285 0.01311
v 0.085 0.31771 0.01301
v 0.375 -0.285 0.01311
v 0.40771 -0.285 0.01311
v 0.40771 -0.3177 0.01311
v 0.375 -0.3177 0.01311
v 0.085 0.28501 0.01301
v 0.0523 0.31771 0.01301
v 0.0523 0.28501 0.01301
v 0.0523 -0.285 0.01301
v 0.085 -0.285 0.01301
v 0.085 -0.3177 0.01301
v 0.0523 -0.3177 0.01301
v 0.375 0.37501 0.00011
v 0.46501 0.285 0.00011
v 0.46501 0.37501 0.00011
v 0.375 0.285 0.00011
v 0.46501 -0.285 0.00011
v 0.085 0.28501 0
v 0.085 0.37501 0
v -0.005 0.37501 0
v -0.005 0.28501 0
v 0.375 -0.285 0.00011
v 0.46501 -0.375 0.00011
v 0.375 -0.375 0.00011
v 0.085 -0.375 0
v 0.085 -0.285 0
v -0.005 -0.285 0
v -0.005 -0.375 0
v 0.04918 0.32083 0.027
v 0.04916 0.285 0.027
v -0.00366 0.28501 0.027
v -0.00364 0.37368 0.027
v -0.00366 -0.28499 0.027
v 0.08501 0.32085 0.027
v 0.04916 -0.28499 0.027
v 0.085 0.37365 0.027
v -0.00364 -0.37363 0.027
v 0.375 0.32085 0.0271
v 0.04918 -0.32081 0.027
v 0.375 0.37365 0.0271
v 0.085 -0.37368 0.027
v 0.41089 0.32083 0.0271
v 0.08501 -0.32085 0.027
v 0.46363 0.37368 0.0271
v 0.375 -0.37368 0.0271
v 0.4108 0.285 0.0271
v 0.375 -0.32085 0.0271
v 0.46369 0.285 0.0271
v 0.46363 -0.37363 0.0271
v 0.4108 -0.28499 0.0271
v 0.41089 -0.32081 0.0271
v 0.46369 -0.285 0.0271
vt 1.909427 2.815524
vt 1.96611 2.812977
vt 1.908563 2.812977
vt 1.96611 2.815524
vt 2.151538 2.813136
vt 2.151538 2.815683
vt 2.209085 2.813136
vt 2.208208 2.815683
vt 2.151538 2.772712
vt 2.209085 2.813136
vt 2.209085 2.772712
vt 2.151538 2.813136
vt 1.96611 2.812977
vt 1.96611 2.772552
vt 1.908563 2.772552
vt 1.908563 2.812977
vt 2.183802 1.091096
vt 2.186418 1.146233
vt 2.186418 1.090244
vt 2.183802 1.146233
vt 2.186418 1.500825
vt 2.183802 1.500825
vt 2.186418 1.556814
vt 2.183802 1.555987
vt 2.227962 1.500825
vt 2.186418 1.556814
vt 2.227962 1.556814
vt 2.186418 1.500825
vt 2.186418 1.146233
vt 2.227962 1.146233
vt 2.227962 1.090244
vt 2.186418 1.090244
vt 3.730791 2.813142
vt 3.67323 2.813142
vt 3.674108 2.815689
vt 3.730791 2.815689
vt 3.916269 2.812982
vt 3.916268 2.815529
vt 3.97383 2.812982
vt 3.972965 2.815529
vt 3.916269 2.772547
vt 3.97383 2.812982
vt 3.97383 2.772547
vt 3.916269 2.812982
vt 3.730791 2.813142
vt 3.730791 2.772706
vt 3.67323 2.772706
vt 3.67323 2.813142
vt 1.931232 1.500857
vt 1.931232 1.556855
vt 1.93385 1.556028
vt 1.93385 1.500856
vt 1.931232 1.146202
vt 1.93385 1.146202
vt 1.931232 1.090204
vt 1.93385 1.091055
vt 1.88968 1.556855
vt 1.931232 1.556855
vt 1.931232 1.500857
vt 1.88968 1.500857
vt 1.88968 1.146202
vt 1.931232 1.146202
vt 1.931232 1.090204
vt 1.88968 1.090204
vt 4.252725 1.324613
vt 4.248807 1.308744
vt 4.248807 1.325372
vt 4.252747 1.308745
vt 4.248807 1.044194
vt 4.252747 1.044193
vt 4.248807 1.027569
vt 4.252725 1.028325
vt 4.280605 1.308745
vt 4.252725 1.324613
vt 4.280605 1.323921
vt 4.252747 1.308745
vt 4.252747 1.044193
vt 4.280605 1.044193
vt 4.280605 1.029017
vt 4.252725 1.028325
vt 1.701845 3.100921
vt 1.687025 3.100944
vt 1.686315 3.105139
vt 1.701845 3.105139
vt 1.827544 3.101164
vt 1.827544 3.105382
vt 1.842364 3.101188
vt 1.843097 3.105382
vt 1.687671 3.071087
vt 1.687025 3.100944
vt 1.701845 3.100921
vt 1.701845 3.071087
vt 1.827544 3.071331
vt 1.827544 3.101164
vt 1.842364 3.101188
vt 1.841718 3.071331
vt 4.570771 1.308603
vt 4.570793 1.324454
vt 4.574704 1.325212
vt 4.574704 1.308603
vt 4.570771 1.044335
vt 4.574704 1.044335
vt 4.570793 1.028484
vt 4.574704 1.027729
vt 4.542944 1.323763
vt 4.570793 1.324454
vt 4.570771 1.308603
vt 4.542944 1.308603
vt 4.542944 1.044335
vt 4.570771 1.044335
vt 4.570793 1.028484
vt 4.542944 1.029174
vt 2.878326 3.101167
vt 2.863503 3.101191
vt 2.86277 3.105386
vt 2.878326 3.105386
vt 3.00405 3.100924
vt 3.00405 3.105143
vt 3.018873 3.100947
vt 3.019583 3.105143
vt 2.86415 3.071328
vt 2.863503 3.101191
vt 2.878326 3.101167
vt 2.878326 3.071328
vt 3.00405 3.071084
vt 3.00405 3.100924
vt 3.018873 3.100947
vt 3.018226 3.071084
vt 0.754234 4.12862
vt 0.7236873 4.163625
vt 0.754234 4.163625
vt 0.7236873 4.12862
vt 0.452783 4.163625
vt 0.7236873 3.518439
vt 0.754234 3.518439
vt 0.754234 3.483434
vt 0.7236873 3.483434
vt 0.452783 4.12862
vt 0.4222361 4.163625
vt 0.4222361 4.12862
vt 0.4222363 3.518439
vt 0.4527832 3.518439
vt 0.4527832 3.483434
vt 0.4222363 3.483434
vt 0.7336031 1.689076
vt 0.6412754 1.601345
vt 0.6412754 1.689076
vt 0.7336031 1.601345
vt 0.6412754 1.045713
vt 1.031103 1.601345
vt 1.031103 1.689076
vt 1.12343 1.689076
vt 1.12343 1.601345
vt 0.7336031 1.045713
vt 0.6412754 0.9579822
vt 0.7336031 0.9579822
vt 1.031103 0.9579823
vt 1.031103 1.045714
vt 1.123431 1.045714
vt 1.123431 0.9579823
vt 3.049584 1.635946
vt 3.049561 1.601059
vt 2.995319 1.60106
vt 2.995338 1.687404
vt 2.995319 1.046012
vt 3.086377 1.635969
vt 3.049561 1.046013
vt 3.086376 1.68738
vt 2.995338 0.9597055
vt 3.384189 1.635969
vt 3.049584 1.011133
vt 3.38419 1.68738
vt 3.086376 0.9596542
vt 3.421038 1.635946
vt 3.086377 1.011096
vt 3.475207 1.687404
vt 3.38419 0.9596541
vt 3.42095 1.601059
vt 3.384189 1.011096
vt 3.475269 1.601059
vt 3.475207 0.9597054
vt 3.42095 1.046013
vt 3.421038 1.011133
vt 3.475269 1.046012
vn -0.0004611237 -0.7723337 0.6352168
vn -0.0002756167 -0.7723216 0.6352317
vn 0 -0.7599123 0.6500256
vn -0.0002764499 -0.7723216 0.6352316
vn -0.0002197495 -0.7723179 0.6352362
vn -0.000219785 -0.7723675 0.6351759
vn 0 -0.772293 0.6352665
vn 0.0004530378 -0.7598235 0.6501293
vn 0 -1 0
vn 0 -1 0
vn 0 -1 0
vn 0 -1 0
vn 0 -1 9.555574E-06
vn 0 -1 1.011714E-05
vn 0 -1 0
vn 0 -1 0
vn 0.7732691 -0.000532738 0.6340779
vn 0.7732466 -7.07594E-05 0.6341053
vn 0.7589123 0 0.6511928
vn 0.7732467 -7.184935E-05 0.6341052
vn 0.7732433 0 0.6341095
vn 0.7733102 0 0.634028
vn 0.7732869 0 0.6340563
vn 0.7587587 0.0005223812 0.6513716
vn 1 0 0
vn 1 0 0
vn 1 0 0
vn 1 0 0
vn 1 0 0
vn 1 0 0
vn 1 0 0
vn 1 0 0
vn 0 0.7690834 0.6391484
vn 0 0.7690834 0.6391484
vn 0 0.7690834 0.6391484
vn -0.0002210851 0.7630035 0.6463944
vn -0.0002221348 0.7629861 0.646415
vn -0.0002234242 0.7631741 0.646193
vn 0 0.7630985 0.6462823
vn 0.0002235037 0.7692708 0.6389228
vn 0 1 0
vn 0 1 0
vn 0 1 0
vn 0 1 0
vn 0 1 0
vn 0 1 0
vn 0 1 0
vn 0 1 0
vn -0.7639672 0 0.6452551
vn -0.7639671 0 0.6452551
vn -0.7639671 0 0.6452551
vn -0.7683097 0.0001653559 0.6400783
vn -0.768381 1.607481E-07 0.6399927
vn -0.7683228 0 0.6400626
vn -0.7683228 0 0.6400626
vn -0.7638442 -0.0001643948 0.6454006
vn -1 0 0
vn -1 0 0
vn -1 0 0
vn -1 0 0
vn -1 2.107869E-07 0
vn -1 2.107841E-07 0
vn -1 0 0
vn -1 0 0
vn 0.7251604 -0.0004367284 0.6885799
vn 0.7226075 -0.0001740995 0.6912585
vn 0.7252461 -0.0004455764 0.6884896
vn 0.7224805 -0.0001610615 0.6913913
vn 0.7224056 0.0004437817 0.6914695
vn 0.7253701 0.0001626616 0.6883591
vn 0.7253702 0.0001626616 0.688359
vn 0.7253702 0.0001626616 0.688359
vn 0.9927102 5.681912E-06 0.1205257
vn 0.992709 1.785048E-06 0.1205351
vn 0.9927085 0 0.1205395
vn 0.9927107 7.224128E-06 0.1205219
vn 0.9927109 -2.166598E-07 0.12052
vn 0.9927079 4.333183E-07 0.1205443
vn 0.992708 0 0.1205441
vn 0.9927074 0 0.1205482
vn 0.0001667497 -0.7255656 0.688153
vn 0.0001667497 -0.7255656 0.688153
vn 0.0001667497 -0.7255656 0.688153
vn 0.0004878599 -0.7222899 0.6915902
vn -0.0002387678 -0.7223223 0.6915565
vn -0.0001834303 -0.7224915 0.6913798
vn -0.000473398 -0.7254199 0.6883065
vn -0.000483088 -0.7255176 0.6882035
vn 1.804663E-06 -0.992709 0.1205352
vn 1.804663E-06 -0.992709 0.1205353
vn 1.804663E-06 -0.992709 0.1205352
vn 0 -0.9927073 0.1205497
vn -4.215879E-05 -0.9927079 0.1205452
vn -4.197339E-05 -0.9927109 0.1205198
vn 0 -0.9927056 0.1205626
vn 0 -0.9927043 0.1205748
vn -0.7140538 -0.0001777598 0.7000907
vn -0.7140538 -0.0001777598 0.7000907
vn -0.7140538 -0.0001777598 0.7000907
vn -0.7339851 0.001761615 0.6791633
vn -0.7338958 0 0.6792621
vn -0.7338115 0.0001721804 0.6793531
vn -0.7338115 0.0001721804 0.6793531
vn -0.7150676 -0.001717554 0.6990532
vn -0.99271 -7.21862E-06 0.1205275
vn -0.99271 -7.21862E-06 0.1205275
vn -0.99271 -7.21862E-06 0.1205275
vn -0.9927086 0 0.1205386
vn -0.9927083 0 0.1205414
vn -0.9927087 0 0.1205381
vn -0.9927101 1.784996E-06 0.1205269
vn -0.9927106 0 0.1205227
vn -0.0001791336 0.7269574 0.6866826
vn -0.0001791336 0.7269573 0.6866825
vn -0.0001791336 0.7269574 0.6866826
vn -0.0007690304 0.7209263 0.6930114
vn -0.0002374535 0.7208823 0.6930574
vn 0.0001657197 0.7208316 0.6931102
vn 0.0001657197 0.7208316 0.6931102
vn 0.0007718326 0.726824 0.6868233
vn -3.609277E-06 0.99271 0.1205273
vn -3.609277E-06 0.99271 0.1205273
vn -3.609276E-06 0.99271 0.1205273
vn 0 0.9927109 0.1205199
vn -4.109486E-05 0.9927109 0.1205199
vn -4.085438E-05 0.9927078 0.1205452
vn -8.925213E-07 0.9927083 0.1205417
vn 0 0.9927076 0.1205473
vn 0 0 1
vn 0 0 1
vn 0 0 1
vn 0 0 1
vn 0 0 1
vn 0 0 1
vn 0 0 1
vn 0 0 1
vn 0 0 1
vn 0 0 1
vn 0 0 1
vn 0 0 1
vn 0 0 1
vn -0.0003447602 0 1
vn -0.0003449839 0 1
vn 0 0 1
vn 0 0 -1
vn 0 0 -1
vn 0 0 -1
vn 0 0 -1
vn 0 0 -1
vn 0 0 -1
vn 0 0 -1
vn 0 0 -1
vn 0 0 -1
vn 0 0 -1
vn 0 0 -1
vn 0 0 -1
vn 0.0003460998 0 -1
vn 0.0003453988 0 -1
vn 0 0 -1
vn 0 0 -1
vn -1.991641E-06 0 1
vn 0 0 1
vn 1.372671E-07 0 1
vn -5.907108E-07 0 1
vn -5.28418E-06 0 1
vn -0.0002783238 0 1
vn -6.019562E-06 0 1
vn -0.0002648077 0 1
vn 1.968769E-06 0 1
vn -0.0003080989 0 1
vn -3.489873E-06 0 1
vn -0.0002798687 0 1
vn -0.0002779933 0 1
vn 4.225617E-06 0 1
vn -0.0003076823 0 1
vn 9.045677E-07 0 1
vn -0.0002643032 0 1
vn 6.010719E-06 0 1
vn -0.0002774775 0 1
vn 5.276086E-06 0 1
vn 1.70109E-07 0 1
vn 3.590767E-07 0 1
vn 8.387322E-07 0 1
vn 0 0 1
usemtl WhiteWoodClean
f 3/3/3 2/2/2 1/1/1
f 2/2/2 4/4/4 1/1/1
f 4/4/4 2/2/2 5/5/5
f 6/6/6 4/4/4 5/5/5
f 5/5/5 7/7/7 6/6/6
f 7/7/7 8/8/8 6/6/6
f 11/11/11 10/10/10 9/9/9
f 10/10/10 12/12/12 9/9/9
f 9/9/9 12/12/12 13/13/13
f 14/14/14 9/9/9 13/13/13
f 14/14/14 13/13/13 15/15/15
f 13/13/13 16/16/16 15/15/15
f 19/19/19 18/18/18 17/17/17
f 18/18/18 20/20/20 17/17/17
f 20/20/20 18/18/18 21/21/21
f 22/22/22 20/20/20 21/21/21
f 21/21/21 23/23/23 22/22/22
f 23/23/23 24/24/24 22/22/22
f 27/27/27 26/26/26 25/25/25
f 26/26/26 28/28/28 25/25/25
f 25/25/25 28/28/28 29/29/29
f 30/30/30 25/25/25 29/29/29
f 30/30/30 29/29/29 31/31/31
f 29/29/29 32/32/32 31/31/31
f 35/35/35 34/34/34 33/33/33
f 36/36/36 35/35/35 33/33/33
f 36/36/36 33/33/33 37/37/37
f 38/38/38 36/36/36 37/37/37
f 38/38/38 37/37/37 39/39/39
f 40/40/40 38/38/38 39/39/39
f 43/43/43 42/42/42 41/41/41
f 42/42/42 44/44/44 41/41/41
f 41/41/41 44/44/44 45/45/45
f 46/46/46 41/41/41 45/45/45
f 46/46/46 45/45/45 47/47/47
f 45/45/45 48/48/48 47/47/47
f 51/51/51 50/50/50 49/49/49
f 52/52/52 51/51/51 49/49/49
f 52/52/52 49/49/49 53/53/53
f 54/54/54 52/52/52 53/53/53
f 53/53/53 55/55/55 54/54/54
f 55/55/55 56/56/56 54/54/54
f 59/59/59 58/58/58 57/57/57
f 60/60/60 59/59/59 57/57/57
f 60/60/60 61/61/61 59/59/59
f 61/61/61 62/62/62 59/59/59
f 63/63/63 62/62/62 61/61/61
f 64/64/64 63/63/63 61/61/61
f 67/67/67 66/66/66 65/65/65
f 66/66/66 68/68/68 65/65/65
f 68/68/68 66/66/66 69/69/69
f 70/70/70 68/68/68 69/69/69
f 69/69/69 71/71/71 70/70/70
f 71/71/71 72/72/72 70/70/70
f 75/75/75 74/74/74 73/73/73
f 74/74/74 76/76/76 73/73/73
f 73/73/73 76/76/76 77/77/77
f 78/78/78 73/73/73 77/77/77
f 78/78/78 77/77/77 79/79/79
f 77/77/77 80/80/80 79/79/79
f 83/83/83 82/82/82 81/81/81
f 84/84/84 83/83/83 81/81/81
f 84/84/84 81/81/81 85/85/85
f 86/86/86 84/84/84 85/85/85
f 86/86/86 85/85/85 87/87/87
f 88/88/88 86/86/86 87/87/87
f 91/91/91 90/90/90 89/89/89
f 92/92/92 91/91/91 89/89/89
f 92/92/92 93/93/93 91/91/91
f 93/93/93 94/94/94 91/91/91
f 95/95/95 94/94/94 93/93/93
f 96/96/96 95/95/95 93/93/93
f 99/99/99 98/98/98 97/97/97
f 100/100/100 99/99/99 97/97/97
f 100/100/100 97/97/97 101/101/101
f 102/102/102 100/100/100 101/101/101
f 102/102/102 101/101/101 103/103/103
f 104/104/104 102/102/102 103/103/103
f 107/107/107 106/106/106 105/105/105
f 108/108/108 107/107/107 105/105/105
f 107/107/107 108/108/108 109/109/109
f 110/110/110 107/107/107 109/109/109
f 111/111/111 110/110/110 109/109/109
f 112/112/112 111/111/111 109/109/109
f 115/115/115 114/114/114 113/113/113
f 116/116/116 115/115/115 113/113/113
f 116/116/116 113/113/113 117/117/117
f 118/118/118 116/116/116 117/117/117
f 118/118/118 117/117/117 119/119/119
f 120/120/120 118/118/118 119/119/119
f 123/123/123 122/122/122 121/121/121
f 124/124/124 123/123/123 121/121/121
f 124/124/124 125/125/125 123/123/123
f 125/125/125 126/126/126 123/123/123
f 127/127/127 126/126/126 125/125/125
f 128/128/128 127/127/127 125/125/125
f 131/131/131 130/130/130 129/129/129
f 130/130/130 132/132/132 129/129/129
f 132/132/132 130/130/130 133/133/133
f 129/129/129 132/132/132 134/134/134
f 135/135/135 129/129/129 134/134/134
f 135/135/135 134/134/134 136/136/136
f 134/134/134 137/137/137 136/136/136
f 138/138/138 132/132/132 133/133/133
f 132/132/132 138/138/138 134/134/134
f 133/133/133 139/139/139 138/138/138
f 139/139/139 140/140/140 138/138/138
f 138/138/138 140/140/140 141/141/141
f 137/137/137 134/134/134 142/142/142
f 138/138/138 142/142/142 134/134/134
f 142/142/142 138/138/138 141/141/141
f 143/143/143 137/137/137 142/142/142
f 142/142/142 141/141/141 143/143/143
f 141/141/141 144/144/144 143/143/143
f 147/147/147 146/146/146 145/145/145
f 146/146/146 148/148/148 145/145/145
f 148/148/148 146/146/146 149/149/149
f 145/145/145 148/148/148 150/150/150
f 151/151/151 145/145/145 150/150/150
f 151/151/151 150/150/150 152/152/152
f 150/150/150 153/153/153 152/152/152
f 154/154/154 148/148/148 149/149/149
f 148/148/148 154/154/154 150/150/150
f 149/149/149 155/155/155 154/154/154
f 155/155/155 156/156/156 154/154/154
f 156/156/156 157/157/157 154/154/154
f 150/150/150 158/158/158 153/153/153
f 154/154/154 158/158/158 150/150/150
f 157/157/157 158/158/158 154/154/154
f 158/158/158 159/159/159 153/153/153
f 158/158/158 157/157/157 159/159/159
f 157/157/157 160/160/160 159/159/159
f 163/163/163 162/162/162 161/161/161
f 164/164/164 163/163/163 161/161/161
f 162/162/162 163/163/163 165/165/165
f 164/164/164 161/161/161 166/166/166
f 167/167/167 162/162/162 165/165/165
f 168/168/168 164/164/164 166/166/166
f 165/165/165 169/169/169 167/167/167
f 168/168/168 166/166/166 170/170/170
f 169/169/169 171/171/171 167/167/167
f 172/172/172 168/168/168 170/170/170
f 169/169/169 173/173/173 171/171/171
f 172/172/172 170/170/170 174/174/174
f 173/173/173 175/175/175 171/171/171
f 176/176/176 172/172/172 174/174/174
f 173/173/173 177/177/177 175/175/175
f 176/176/176 174/174/174 178/178/178
f 177/177/177 179/179/179 175/175/175
f 180/180/180 176/176/176 178/178/178
f 177/177/177 181/181/181 179/179/179
f 180/180/180 178/178/178 182/182/182
f 181/181/181 183/183/183 179/179/179
f 184/184/184 180/180/180 182/182/182
f 181/181/181 184/184/184 183/183/183
f 184/184/184 182/182/182 183/183/183
