mtllib material.mtl
usemtl material_0
v -0.00364000 -0.37363000 0.02700000
v 0.08500000 -0.37500000 0.02541000
v -0.00500000 -0.37500000 0.02541000
v 0.08500000 -0.37368000 0.02700000
v 0.37501000 -0.37500000 0.02551000
v 0.37501000 -0.37368000 0.02710000
v 0.46501000 -0.37500000 0.02551000
v 0.46363000 -0.37363000 0.02710000
v 0.37501000 -0.37500000 0.00011000
v 0.46501000 -0.37500000 0.02551000
v 0.46501000 -0.37500000 0.00011000
v 0.37501000 -0.37500000 0.02551000
v 0.08500000 -0.37500000 0.02541000
v 0.08500000 -0.37500000 0.00001000
v -0.00500000 -0.37500000 0.00001000
v -0.00500000 -0.37500000 0.02541000
v 0.46363000 -0.37363000 0.02710000
v 0.46501000 -0.28500000 0.02551000
v 0.46501000 -0.37500000 0.02551000
v 0.46369000 -0.28500000 0.02710000
v 0.46501000 0.28500000 0.02551000
v 0.46369000 0.28500000 0.02710000
v 0.46501000 0.37501000 0.02551000
v 0.46363000 0.37368000 0.02710000
v 0.46501000 0.28500000 0.00011000
v 0.46501000 0.37501000 0.02551000
v 0.46501000 0.37501000 0.00011000
v 0.46501000 0.28500000 0.02551000
v 0.46501000 -0.28500000 0.02551000
v 0.46501000 -0.28500000 0.00011000
v 0.46501000 -0.37500000 0.00011000
v 0.46501000 -0.37500000 0.02551000
v 0.37501000 0.37501000 0.02551000
v 0.46501000 0.37501000 0.02551000
v 0.46363000 0.37368000 0.02710000
v 0.37501000 0.37365000 0.02710000
v 0.08500000 0.37501000 0.02541000
v 0.08500000 0.37365000 0.02700000
v -0.00500000 0.37501000 0.02541000
v -0.00364000 0.37368000 0.02700000
v 0.08500000 0.37501000 0.00001000
v -0.00500000 0.37501000 0.02541000
v -0.00500000 0.37501000 0.00001000
v 0.08500000 0.37501000 0.02541000
v 0.37501000 0.37501000 0.02551000
v 0.37501000 0.37501000 0.00011000
v 0.46501000 0.37501000 0.00011000
v 0.46501000 0.37501000 0.02551000
v -0.00500000 0.28501000 0.02541000
v -0.00500000 0.37501000 0.02541000
v -0.00364000 0.37368000 0.02700000
v -0.00366000 0.28501000 0.02700000
v -0.00500000 -0.28500000 0.02541000
v -0.00366000 -0.28500000 0.02700000
v -0.00500000 -0.37500000 0.02541000
v -0.00364000 -0.37363000 0.02700000
v -0.00500000 0.37501000 0.00001000
v -0.00500000 0.37501000 0.02541000
v -0.00500000 0.28501000 0.02541000
v -0.00500000 0.28501000 0.00001000
v -0.00500000 -0.28500000 0.00001000
v -0.00500000 -0.28500000 0.02541000
v -0.00500000 -0.37500000 0.02541000
v -0.00500000 -0.37500000 0.00001000
v 0.05081000 0.31920000 0.02528000
v 0.04916000 0.28500000 0.02700000
v 0.04918000 0.32083000 0.02700000
v 0.05082000 0.28501000 0.02527000
v 0.04916000 -0.28499000 0.02700000
v 0.05082000 -0.28500000 0.02527000
v 0.04918000 -0.32081000 0.02700000
v 0.05081000 -0.31919000 0.02528000
v 0.05230000 0.28501000 0.01301000
v 0.05081000 0.31920000 0.02528000
v 0.05230000 0.31771000 0.01301000
v 0.05082000 0.28501000 0.02527000
v 0.05082000 -0.28500000 0.02527000
v 0.05230000 -0.28500000 0.01301000
v 0.05230000 -0.31770000 0.01301000
v 0.05081000 -0.31919000 0.02528000
v 0.08500000 0.31919000 0.02527000
v 0.05081000 0.31920000 0.02528000
v 0.04918000 0.32083000 0.02700000
v 0.08501000 0.32085000 0.02700000
v 0.37501000 0.31919000 0.02537000
v 0.37500000 0.32085000 0.02710000
v 0.40920000 0.31920000 0.02538000
v 0.41089000 0.32083000 0.02710000
v 0.05230000 0.31771000 0.01301000
v 0.05081000 0.31920000 0.02528000
v 0.08500000 0.31919000 0.02527000
v 0.08500000 0.31771000 0.01301000
v 0.37501000 0.31771000 0.01310000
v 0.37501000 0.31919000 0.02537000
v 0.40920000 0.31920000 0.02538000
v 0.40771000 0.31771000 0.01310000
v 0.40919000 0.28500000 0.02537000
v 0.40920000 0.31920000 0.02538000
v 0.41089000 0.32083000 0.02710000
v 0.41080000 0.28500000 0.02710000
v 0.40919000 -0.28500000 0.02537000
v 0.41080000 -0.28499000 0.02710000
v 0.40920000 -0.31919000 0.02538000
v 0.41089000 -0.32081000 0.02710000
v 0.40771000 0.31771000 0.01310000
v 0.40920000 0.31920000 0.02538000
v 0.40919000 0.28500000 0.02537000
v 0.40771000 0.28500000 0.01310000
v 0.40771000 -0.28500000 0.01310000
v 0.40919000 -0.28500000 0.02537000
v 0.40920000 -0.31919000 0.02538000
v 0.40771000 -0.31770000 0.01310000
v 0.37501000 -0.31918000 0.02537000
v 0.40920000 -0.31919000 0.02538000
v 0.41089000 -0.32081000 0.02710000
v 0.37500000 -0.32085000 0.02710000
v 0.08500000 -0.31918000 0.02527000
v 0.08501000 -0.32085000 0.02700000
v 0.05081000 -0.31919000 0.02528000
v 0.04918000 -0.32081000 0.02700000
v 0.40771000 -0.31770000 0.01310000
v 0.40920000 -0.31919000 0.02538000
v 0.37501000 -0.31918000 0.02537000
v 0.37501000 -0.31770000 0.01310000
v 0.08500000 -0.31770000 0.01301000
v 0.08500000 -0.31918000 0.02527000
v 0.05081000 -0.31919000 0.02528000
v 0.05230000 -0.31770000 0.01301000
v 0.40771000 0.28500000 0.01310000
v 0.37501000 0.31771000 0.01310000
v 0.40771000 0.31771000 0.01310000
v 0.37501000 0.28500000 0.01310000
v 0.08500000 0.31771000 0.01301000
v 0.37501000 -0.28500000 0.01310000
v 0.40771000 -0.28500000 0.01310000
v 0.40771000 -0.31770000 0.01310000
v 0.37501000 -0.31770000 0.01310000
v 0.08500000 0.28501000 0.01301000
v 0.05230000 0.31771000 0.01301000
v 0.05230000 0.28501000 0.01301000
v 0.05230000 -0.28500000 0.01301000
v 0.08500000 -0.28500000 0.01301000
v 0.08500000 -0.31770000 0.01301000
v 0.05230000 -0.31770000 0.01301000
v 0.37501000 0.37501000 0.00011000
v 0.46501000 0.28500000 0.00011000
v 0.46501000 0.37501000 0.00011000
v 0.37501000 0.28500000 0.00011000
v 0.46501000 -0.28500000 0.00011000
v 0.08500000 0.28501000 0.00001000
v 0.08500000 0.37501000 0.00001000
v -0.00500000 0.37501000 0.00001000
v -0.00500000 0.28501000 0.00001000
v 0.37501000 -0.28500000 0.00011000
v 0.46501000 -0.37500000 0.00011000
v 0.37501000 -0.37500000 0.00011000
v 0.08500000 -0.37500000 0.00001000
v 0.08500000 -0.28500000 0.00001000
v -0.00500000 -0.28500000 0.00001000
v -0.00500000 -0.37500000 0.00001000
v 0.04918000 0.32083000 0.02700000
v 0.04916000 0.28500000 0.02700000
v -0.00366000 0.28501000 0.02700000
v -0.00364000 0.37368000 0.02700000
v -0.00366000 -0.28500000 0.02700000
v 0.08501000 0.32085000 0.02700000
v 0.04916000 -0.28499000 0.02700000
v 0.08500000 0.37365000 0.02700000
v -0.00364000 -0.37363000 0.02700000
v 0.37500000 0.32085000 0.02710000
v 0.04918000 -0.32081000 0.02700000
v 0.37501000 0.37365000 0.02710000
v 0.08500000 -0.37368000 0.02700000
v 0.41089000 0.32083000 0.02710000
v 0.08501000 -0.32085000 0.02700000
v 0.46363000 0.37368000 0.02710000
v 0.37501000 -0.37368000 0.02710000
v 0.41080000 0.28500000 0.02710000
v 0.37500000 -0.32085000 0.02710000
v 0.46369000 0.28500000 0.02710000
v 0.46363000 -0.37363000 0.02710000
v 0.41080000 -0.28499000 0.02710000
v 0.41089000 -0.32081000 0.02710000
v 0.46369000 -0.28500000 0.02710000
vn -0.00045818 -0.77225420 0.63531340
vn -0.00027456 -0.77225360 0.63531430
vn 0.00000000 -0.75985100 0.65009730
vn -0.00027538 -0.77225360 0.63531420
vn -0.00021926 -0.77225350 0.63531460
vn -0.00022039 -0.77233760 0.63521230
vn 0.00000000 -0.77233450 0.63521590
vn 0.00045116 -0.75974520 0.65022070
vn 0.00000000 -1.00000000 0.00000000
vn 0.00000000 -1.00000000 0.00000000
vn 0.00000000 -1.00000000 0.00000000
vn 0.00000000 -1.00000000 0.00000000
vn -0.00000035 -1.00000000 0.00000000
vn -0.00000035 -1.00000000 0.00000000
vn 0.00000000 -1.00000000 0.00000000
vn 0.00000000 -1.00000000 0.00000000
vn 0.77335260 -0.00053218 0.63397590
vn 0.77334310 -0.00007069 0.63398770
vn 0.75899400 0.00000000 0.65109750
vn 0.77334310 -0.00007177 0.63398770
vn 0.77334170 0.00000000 0.63398950
vn 0.77334170 0.00000000 0.63398940
vn 0.77337220 0.00000000 0.63395210
vn 0.75872890 0.00052194 0.65140620
vn 1.00000000 0.00000000 0.00000000
vn 1.00000000 0.00000000 0.00000000
vn 1.00000000 0.00000000 0.00000000
vn 1.00000000 0.00000000 0.00000000
vn 1.00000000 0.00000000 0.00000000
vn 1.00000000 0.00000000 0.00000000
vn 1.00000000 0.00000000 0.00000000
vn 1.00000000 0.00000000 0.00000000
vn 0.00000000 0.76911320 0.63911250
vn 0.00000000 0.76911320 0.63911250
vn 0.00000000 0.76911330 0.63911250
vn -0.00022175 0.76312490 0.64625110
vn -0.00022238 0.76313540 0.64623870
vn -0.00022215 0.76309510 0.64628620
vn 0.00000000 0.76309810 0.64628270
vn 0.00021936 0.76923840 0.63896190
vn 0.00000000 1.00000000 0.00000000
vn 0.00000000 1.00000000 0.00000000
vn 0.00000000 1.00000000 0.00000000
vn 0.00000000 1.00000000 0.00000000
vn 0.00000040 1.00000000 0.00000000
vn 0.00000040 1.00000000 0.00000000
vn 0.00000000 1.00000000 0.00000000
vn 0.00000000 1.00000000 0.00000000
vn -0.76391420 0.00000000 0.64531770
vn -0.76391430 0.00000000 0.64531770
vn -0.76391420 0.00000000 0.64531770
vn -0.76836240 0.00016534 0.64001500
vn -0.76838110 0.00000064 0.63999250
vn -0.76826930 0.00000000 0.64012680
vn -0.76826940 0.00000000 0.64012680
vn -0.76378970 -0.00016441 0.64546510
vn -1.00000000 0.00000000 0.00000000
vn -1.00000000 0.00000000 0.00000000
vn -1.00000000 0.00000000 0.00000000
vn -1.00000000 0.00000000 0.00000000
vn -1.00000000 0.00000021 0.00000000
vn -1.00000000 0.00000021 0.00000000
vn -1.00000000 0.00000000 0.00000000
vn -1.00000000 0.00000000 0.00000000
vn 0.72517360 -0.00043457 0.68856600
vn 0.72261490 -0.00017401 0.69125080
vn 0.72525960 -0.00044335 0.68847530
vn 0.72248760 -0.00016107 0.69138380
vn 0.72247340 0.00044374 0.69139850
vn 0.72536550 0.00016267 0.68836400
vn 0.72536540 0.00016267 0.68836400
vn 0.72536550 0.00016267 0.68836400
vn 0.99270960 0.00000852 0.12053000
vn 0.99270790 0.00000268 0.12054450
vn 0.99270710 0.00000000 0.12055110
vn 0.99271040 0.00001084 0.12052420
vn 0.99271010 0.00000000 0.12052600
vn 0.99270870 0.00000022 0.12053810
vn 0.99270870 0.00000000 0.12053780
vn 0.99270800 -0.00000361 0.12054370
vn 0.00016779 -0.72568030 0.68803200
vn 0.00016779 -0.72568040 0.68803200
vn 0.00016779 -0.72568040 0.68803200
vn 0.00048791 -0.72235980 0.69151720
vn -0.00023877 -0.72232230 0.69155650
vn -0.00019124 -0.72252350 0.69134640
vn -0.00046493 -0.72531510 0.68841680
vn -0.00047407 -0.72540830 0.68831870
vn -0.00000361 -0.99270830 0.12054150
vn -0.00000361 -0.99270830 0.12054150
vn -0.00000361 -0.99270830 0.12054150
vn 0.00000000 -0.99270900 0.12053480
vn -0.00004216 -0.99270950 0.12053170
vn -0.00004219 -0.99270800 0.12054370
vn 0.00000000 -0.99270920 0.12053390
vn 0.00000000 -0.99270990 0.12052810
vn -0.71406060 -0.00018006 0.70008390
vn -0.71406060 -0.00018006 0.70008390
vn -0.71406060 -0.00018006 0.70008390
vn -0.73393430 0.00176071 0.67921820
vn -0.73384070 0.00000000 0.67932150
vn -0.73389280 0.00017452 0.67926530
vn -0.73389280 0.00017452 0.67926530
vn -0.71499960 -0.00171663 0.69912270
vn -0.99270840 -0.00000722 0.12054050
vn -0.99270840 -0.00000722 0.12054050
vn -0.99270840 -0.00000722 0.12054050
vn -0.99270650 0.00000000 0.12055630
vn -0.99270650 0.00000000 0.12055610
vn -0.99270610 0.00000000 0.12055940
vn -0.99270810 0.00000178 0.12054270
vn -0.99270870 0.00000000 0.12053770
vn -0.00016862 0.72705610 0.68657800
vn -0.00016862 0.72705610 0.68657800
vn -0.00016862 0.72705610 0.68657820
vn -0.00076899 0.72088590 0.69305320
vn -0.00023826 0.72088250 0.69305730
vn 0.00016817 0.72086300 0.69307770
vn 0.00016817 0.72086300 0.69307770
vn 0.00077184 0.72682850 0.68681860
vn 0.00000180 0.99270870 0.12053760
vn 0.00000180 0.99270870 0.12053760
vn 0.00000180 0.99270870 0.12053760
vn 0.00000000 0.99270930 0.12053300
vn -0.00004088 0.99270920 0.12053370
vn -0.00004112 0.99270830 0.12054190
vn -0.00000045 0.99270760 0.12054790
vn 0.00000000 0.99270730 0.12054910
vn 0.00000000 0.00000000 1.00000000
vn 0.00000000 0.00000000 1.00000000
vn 0.00000000 0.00000000 1.00000000
vn 0.00000000 0.00000000 1.00000000
vn 0.00000000 0.00000000 1.00000000
vn 0.00000000 0.00000000 1.00000000
vn 0.00000000 0.00000000 1.00000000
vn 0.00000000 0.00000000 1.00000000
vn 0.00000189 0.00000000 1.00000000
vn 0.00000000 0.00000000 1.00000000
vn 0.00000000 0.00000000 1.00000000
vn 0.00000000 0.00000000 1.00000000
vn 0.00000000 0.00000000 1.00000000
vn -0.00034368 0.00000000 1.00000000
vn -0.00034498 0.00000000 1.00000000
vn 0.00000000 0.00000000 1.00000000
vn 0.00000000 0.00000000 -1.00000000
vn 0.00000000 0.00000000 -1.00000000
vn 0.00000000 0.00000000 -1.00000000
vn 0.00000000 0.00000000 -1.00000000
vn 0.00000000 0.00000000 -1.00000000
vn 0.00000000 0.00000000 -1.00000000
vn 0.00000000 0.00000000 -1.00000000
vn 0.00000000 0.00000000 -1.00000000
vn 0.00000000 0.00000000 -1.00000000
vn 0.00000000 0.00000000 -1.00000000
vn 0.00000000 0.00000000 -1.00000000
vn 0.00000000 0.00000000 -1.00000000
vn 0.00034610 0.00000000 -1.00000000
vn 0.00034587 0.00000000 -1.00000000
vn 0.00000000 0.00000000 -1.00000000
vn 0.00000000 0.00000000 -1.00000000
vn 0.00000042 0.00000000 1.00000000
vn 0.00000000 0.00000000 1.00000000
vn 0.00000000 0.00000000 1.00000000
vn 0.00000000 0.00000000 1.00000000
vn 0.00000070 0.00000000 1.00000000
vn -0.00027661 0.00000000 1.00000000
vn 0.00000035 0.00000000 1.00000000
vn -0.00026364 0.00000000 1.00000000
vn 0.00000439 0.00000000 1.00000000
vn -0.00030733 0.00000000 1.00000000
vn -0.00000065 0.00000000 1.00000000
vn -0.00027966 0.00000000 1.00000000
vn -0.00027784 0.00000000 1.00000000
vn -0.00000177 0.00000000 1.00000000
vn -0.00030724 0.00000000 1.00000000
vn 0.00000152 0.00000000 1.00000000
vn -0.00026435 0.00000000 1.00000000
vn 0.00000035 0.00000000 1.00000000
vn -0.00027750 0.00000000 1.00000000
vn 0.00000070 0.00000000 1.00000000
vn -0.00000122 0.00000000 1.00000000
vn 0.00000000 0.00000000 1.00000000
vn -0.00000023 0.00000000 1.00000000
vn -0.00000022 0.00000000 1.00000000
vt 1.90942000 2.81552500
vt 1.96610500 2.81297900
vt 1.90855600 2.81297900
vt 1.96610600 2.81552500
vt 2.15154200 2.81313800
vt 2.15154200 2.81568400
vt 2.20909200 2.81313800
vt 2.20821400 2.81568400
vt 2.15154200 2.77271100
vt 2.20909200 2.81313800
vt 2.20909200 2.77271100
vt 2.15154200 2.81313800
vt 1.96610500 2.81297900
vt 1.96610500 2.77255200
vt 1.90855600 2.77255200
vt 1.90855600 2.81297900
vt 2.18380200 1.09109600
vt 2.18641900 1.14623300
vt 2.18641900 1.09024500
vt 2.18380200 1.14623300
vt 2.18641900 1.50082500
vt 2.18380200 1.50082500
vt 2.18641900 1.55681300
vt 2.18380200 1.55598700
vt 2.22796200 1.50082500
vt 2.18641900 1.55681300
vt 2.22796200 1.55681300
vt 2.18641900 1.50082500
vt 2.18641900 1.14623300
vt 2.22796200 1.14623300
vt 2.22796200 1.09024500
vt 2.18641900 1.09024500
vt 3.73079300 2.81314100
vt 3.67323300 2.81314100
vt 3.67411000 2.81568900
vt 3.73079300 2.81568900
vt 3.91626600 2.81298200
vt 3.91626600 2.81552900
vt 3.97382700 2.81298200
vt 3.97296300 2.81552900
vt 3.91626600 2.77254700
vt 3.97382700 2.81298200
vt 3.97382700 2.77254700
vt 3.91626600 2.81298200
vt 3.73079300 2.81314100
vt 3.73079300 2.77270700
vt 3.67323300 2.77270700
vt 3.67323300 2.81314100
vt 1.93123200 1.50085900
vt 1.93123200 1.55685800
vt 1.93385000 1.55603100
vt 1.93385000 1.50085900
vt 1.93123300 1.14619900
vt 1.93385000 1.14619900
vt 1.93123300 1.09020100
vt 1.93385000 1.09105200
vt 1.88968000 1.55685800
vt 1.93123200 1.55685800
vt 1.93123200 1.50085900
vt 1.88968000 1.50085900
vt 1.88968000 1.14619900
vt 1.93123300 1.14619900
vt 1.93123300 1.09020100
vt 1.88968000 1.09020100
vt 4.25272500 1.32461300
vt 4.24880700 1.30874400
vt 4.24880700 1.32537200
vt 4.25274700 1.30874500
vt 4.24880700 1.04419400
vt 4.25274700 1.04419400
vt 4.24880700 1.02756900
vt 4.25272500 1.02832500
vt 4.28060500 1.30874500
vt 4.25272500 1.32461300
vt 4.28060500 1.32392200
vt 4.25274700 1.30874500
vt 4.25274700 1.04419400
vt 4.28060500 1.04419400
vt 4.28060500 1.02901700
vt 4.25272500 1.02832500
vt 1.70184400 3.10092100
vt 1.68702400 3.10094400
vt 1.68631500 3.10513900
vt 1.70184400 3.10513900
vt 1.82754500 3.10116400
vt 1.82754500 3.10538200
vt 1.84236400 3.10118800
vt 1.84309700 3.10538200
vt 1.68767000 3.07108700
vt 1.68702400 3.10094400
vt 1.70184400 3.10092100
vt 1.70184400 3.07108700
vt 1.82754500 3.07133100
vt 1.82754500 3.10116400
vt 1.84236400 3.10118800
vt 1.84171800 3.07133100
vt 4.57077000 1.30859300
vt 4.57079200 1.32444300
vt 4.57470500 1.32520100
vt 4.57470500 1.30859300
vt 4.57077000 1.04434500
vt 4.57470500 1.04434500
vt 4.57079200 1.02849500
vt 4.57470500 1.02774000
vt 4.54294300 1.32375200
vt 4.57079200 1.32444300
vt 4.57077000 1.30859300
vt 4.54294300 1.30859300
vt 4.54294300 1.04434500
vt 4.57077000 1.04434500
vt 4.57079200 1.02849500
vt 4.54294300 1.02918600
vt 2.87832600 3.10116600
vt 2.86350400 3.10119000
vt 2.86277100 3.10538600
vt 2.87832700 3.10538600
vt 3.00405000 3.10092400
vt 3.00405000 3.10514300
vt 3.01887200 3.10094700
vt 3.01958200 3.10514300
vt 2.86415100 3.07132700
vt 2.86350400 3.10119000
vt 2.87832600 3.10116600
vt 2.87832600 3.07132700
vt 3.00405000 3.07108400
vt 3.00405000 3.10092400
vt 3.01887200 3.10094700
vt 3.01822600 3.07108400
vt 0.75423400 4.12862000
vt 0.72368730 4.16362500
vt 0.75423400 4.16362500
vt 0.72368730 4.12862000
vt 0.45278300 4.16362500
vt 0.72368730 3.51843900
vt 0.75423400 3.51843900
vt 0.75423400 3.48343400
vt 0.72368730 3.48343400
vt 0.45278300 4.12862000
vt 0.42223620 4.16362500
vt 0.42223620 4.12862000
vt 0.42223640 3.51843900
vt 0.45278310 3.51843900
vt 0.45278310 3.48343400
vt 0.42223640 3.48343400
vt 0.73360310 1.68907600
vt 0.64127540 1.60134500
vt 0.64127540 1.68907600
vt 0.73360310 1.60134500
vt 0.64127540 1.04571300
vt 1.03110300 1.60134500
vt 1.03110300 1.68907600
vt 1.12343000 1.68907600
vt 1.12343000 1.60134500
vt 0.73360310 1.04571300
vt 0.64127540 0.95798220
vt 0.73360310 0.95798220
vt 1.03110300 0.95798230
vt 1.03110300 1.04571400
vt 1.12343000 1.04571400
vt 1.12343000 0.95798230
vt 3.04958400 1.63594500
vt 3.04956200 1.60105800
vt 2.99531900 1.60105800
vt 2.99533900 1.68740300
vt 2.99531900 1.04601300
vt 3.08637700 1.63596800
vt 3.04956200 1.04601400
vt 3.08637700 1.68737800
vt 2.99533900 0.95970700
vt 3.38418900 1.63596800
vt 3.04958400 1.01113400
vt 3.38419000 1.68737800
vt 3.08637700 0.95965580
vt 3.42103700 1.63594500
vt 3.08637700 1.01109700
vt 3.47520600 1.68740300
vt 3.38419000 0.95965550
vt 3.42094900 1.60105800
vt 3.38418900 1.01109700
vt 3.47526800 1.60105800
vt 3.47520600 0.95970680
vt 3.42094900 1.04601400
vt 3.42103700 1.01113400
vt 3.47526800 1.04601300
f 3/3/3 2/2/2 1/1/1
f 2/2/2 4/4/4 1/1/1
f 4/4/4 2/2/2 5/5/5
f 6/6/6 4/4/4 5/5/5
f 5/5/5 7/7/7 6/6/6
f 7/7/7 8/8/8 6/6/6
f 11/11/11 10/10/10 9/9/9
f 10/10/10 12/12/12 9/9/9
f 9/9/9 12/12/12 13/13/13
f 14/14/14 9/9/9 13/13/13
f 14/14/14 13/13/13 15/15/15
f 13/13/13 16/16/16 15/15/15
f 19/19/19 18/18/18 17/17/17
f 18/18/18 20/20/20 17/17/17
f 20/20/20 18/18/18 21/21/21
f 22/22/22 20/20/20 21/21/21
f 21/21/21 23/23/23 22/22/22
f 23/23/23 24/24/24 22/22/22
f 27/27/27 26/26/26 25/25/25
f 26/26/26 28/28/28 25/25/25
f 25/25/25 28/28/28 29/29/29
f 30/30/30 25/25/25 29/29/29
f 30/30/30 29/29/29 31/31/31
f 29/29/29 32/32/32 31/31/31
f 35/35/35 34/34/34 33/33/33
f 36/36/36 35/35/35 33/33/33
f 36/36/36 33/33/33 37/37/37
f 38/38/38 36/36/36 37/37/37
f 38/38/38 37/37/37 39/39/39
f 40/40/40 38/38/38 39/39/39
f 43/43/43 42/42/42 41/41/41
f 42/42/42 44/44/44 41/41/41
f 41/41/41 44/44/44 45/45/45
f 46/46/46 41/41/41 45/45/45
f 46/46/46 45/45/45 47/47/47
f 45/45/45 48/48/48 47/47/47
f 51/51/51 50/50/50 49/49/49
f 52/52/52 51/51/51 49/49/49
f 52/52/52 49/49/49 53/53/53
f 54/54/54 52/52/52 53/53/53
f 53/53/53 55/55/55 54/54/54
f 55/55/55 56/56/56 54/54/54
f 59/59/59 58/58/58 57/57/57
f 60/60/60 59/59/59 57/57/57
f 60/60/60 61/61/61 59/59/59
f 61/61/61 62/62/62 59/59/59
f 63/63/63 62/62/62 61/61/61
f 64/64/64 63/63/63 61/61/61
f 67/67/67 66/66/66 65/65/65
f 66/66/66 68/68/68 65/65/65
f 68/68/68 66/66/66 69/69/69
f 70/70/70 68/68/68 69/69/69
f 69/69/69 71/71/71 70/70/70
f 71/71/71 72/72/72 70/70/70
f 75/75/75 74/74/74 73/73/73
f 74/74/74 76/76/76 73/73/73
f 73/73/73 76/76/76 77/77/77
f 78/78/78 73/73/73 77/77/77
f 78/78/78 77/77/77 79/79/79
f 77/77/77 80/80/80 79/79/79
f 83/83/83 82/82/82 81/81/81
f 84/84/84 83/83/83 81/81/81
f 84/84/84 81/81/81 85/85/85
f 86/86/86 84/84/84 85/85/85
f 86/86/86 85/85/85 87/87/87
f 88/88/88 86/86/86 87/87/87
f 91/91/91 90/90/90 89/89/89
f 92/92/92 91/91/91 89/89/89
f 92/92/92 93/93/93 91/91/91
f 93/93/93 94/94/94 91/91/91
f 95/95/95 94/94/94 93/93/93
f 96/96/96 95/95/95 93/93/93
f 99/99/99 98/98/98 97/97/97
f 100/100/100 99/99/99 97/97/97
f 100/100/100 97/97/97 101/101/101
f 102/102/102 100/100/100 101/101/101
f 102/102/102 101/101/101 103/103/103
f 104/104/104 102/102/102 103/103/103
f 107/107/107 106/106/106 105/105/105
f 108/108/108 107/107/107 105/105/105
f 107/107/107 108/108/108 109/109/109
f 110/110/110 107/107/107 109/109/109
f 111/111/111 110/110/110 109/109/109
f 112/112/112 111/111/111 109/109/109
f 115/115/115 114/114/114 113/113/113
f 116/116/116 115/115/115 113/113/113
f 116/116/116 113/113/113 117/117/117
f 118/118/118 116/116/116 117/117/117
f 118/118/118 117/117/117 119/119/119
f 120/120/120 118/118/118 119/119/119
f 123/123/123 122/122/122 121/121/121
f 124/124/124 123/123/123 121/121/121
f 124/124/124 125/125/125 123/123/123
f 125/125/125 126/126/126 123/123/123
f 127/127/127 126/126/126 125/125/125
f 128/128/128 127/127/127 125/125/125
f 131/131/131 130/130/130 129/129/129
f 130/130/130 132/132/132 129/129/129
f 132/132/132 130/130/130 133/133/133
f 129/129/129 132/132/132 134/134/134
f 135/135/135 129/129/129 134/134/134
f 135/135/135 134/134/134 136/136/136
f 134/134/134 137/137/137 136/136/136
f 138/138/138 132/132/132 133/133/133
f 132/132/132 138/138/138 134/134/134
f 133/133/133 139/139/139 138/138/138
f 139/139/139 140/140/140 138/138/138
f 138/138/138 140/140/140 141/141/141
f 137/137/137 134/134/134 142/142/142
f 138/138/138 142/142/142 134/134/134
f 142/142/142 138/138/138 141/141/141
f 143/143/143 137/137/137 142/142/142
f 142/142/142 141/141/141 143/143/143
f 141/141/141 144/144/144 143/143/143
f 147/147/147 146/146/146 145/145/145
f 146/146/146 148/148/148 145/145/145
f 148/148/148 146/146/146 149/149/149
f 145/145/145 148/148/148 150/150/150
f 151/151/151 145/145/145 150/150/150
f 151/151/151 150/150/150 152/152/152
f 150/150/150 153/153/153 152/152/152
f 154/154/154 148/148/148 149/149/149
f 148/148/148 154/154/154 150/150/150
f 149/149/149 155/155/155 154/154/154
f 155/155/155 156/156/156 154/154/154
f 156/156/156 157/157/157 154/154/154
f 150/150/150 158/158/158 153/153/153
f 154/154/154 158/158/158 150/150/150
f 157/157/157 158/158/158 154/154/154
f 158/158/158 159/159/159 153/153/153
f 158/158/158 157/157/157 159/159/159
f 157/157/157 160/160/160 159/159/159
f 163/163/163 162/162/162 161/161/161
f 164/164/164 163/163/163 161/161/161
f 162/162/162 163/163/163 165/165/165
f 164/164/164 161/161/161 166/166/166
f 167/167/167 162/162/162 165/165/165
f 168/168/168 164/164/164 166/166/166
f 165/165/165 169/169/169 167/167/167
f 168/168/168 166/166/166 170/170/170
f 169/169/169 171/171/171 167/167/167
f 172/172/172 168/168/168 170/170/170
f 169/169/169 173/173/173 171/171/171
f 172/172/172 170/170/170 174/174/174
f 173/173/173 175/175/175 171/171/171
f 176/176/176 172/172/172 174/174/174
f 173/173/173 177/177/177 175/175/175
f 176/176/176 174/174/174 178/178/178
f 177/177/177 179/179/179 175/175/175
f 180/180/180 176/176/176 178/178/178
f 177/177/177 181/181/181 179/179/179
f 180/180/180 178/178/178 182/182/182
f 181/181/181 183/183/183 179/179/179
f 184/184/184 180/180/180 182/182/182
f 181/181/181 184/184/184 183/183/183
f 184/184/184 182/182/182 183/183/183

