mtllib Drawer_14af4910.mtl
v -0.24 0.05001 0.02
v -0.238 0.04801 0.022
v -0.238 -0.09799 0.022
v -0.24 0.05001 0.02
v -0.238 -0.09799 0.022
v -0.24 -0.09999 0.02
v -0.24 -0.09999 0
v 0.24 -0.09999 0
v 0.24 0.05001 0
v -0.24 0.05001 0
v -0.24 -0.09999 0.02
v -0.24 -0.09999 0
v -0.24 0.05001 0
v -0.24 0.05001 0.02
v -0.24 0.05001 0.02
v -0.24 0.05001 0
v 0.24 0.05001 0
v 0.24 0.05001 0.02
v 0.24 0.05001 0.02
v 0.24 0.05001 0
v 0.24 -0.09999 0
v 0.24 -0.09999 0.02
v 0.24 -0.09999 0.02
v 0.24 -0.09999 0
v -0.24 -0.09999 0
v -0.24 -0.09999 0.02
v -0.238 -0.09799 0.022
v -0.238 0.04801 0.022
v 0.23801 0.04801 0.022
v 0.23801 -0.09799 0.022
v -0.24 -0.09999 0.02
v -0.238 -0.09799 0.022
v 0.23801 -0.09799 0.022
v 0.24 -0.09999 0.02
v 0.24 -0.09999 0.02
v 0.23801 -0.09799 0.022
v 0.23801 0.04801 0.022
v 0.24 0.05001 0.02
v 0.24 0.05001 0.02
v 0.23801 0.04801 0.022
v -0.238 0.04801 0.022
v -0.24 0.05001 0.02
v -0.23899 -0.09899 -0.36712
v 0.23901 -0.09899 -0.36712
v 0.23901 0.0416 -0.36712
v -0.23899 0.0416 -0.36712
v -0.224 -0.0895 -0.00612
v -0.224 -0.0895 -0.35287
v 0.22401 -0.0895 -0.35287
v 0.22401 -0.0895 -0.00612
v 0.23901 0.0416 0.00813
v 0.23901 0.0416 -0.36712
v 0.23901 -0.09899 -0.36712
v 0.23901 -0.09899 0.00813
v -0.23899 -0.09899 0.00813
v 0.23901 -0.09899 0.00813
v 0.23901 -0.09899 -0.36712
v -0.23899 -0.09899 -0.36712
v -0.23899 -0.09899 0.00813
v -0.23899 -0.09899 -0.36712
v -0.23899 0.0416 -0.36712
v -0.23899 0.0416 0.00813
v -0.224 0.0416 -0.00612
v -0.224 -0.0895 -0.00612
v 0.22401 -0.0895 -0.00612
v 0.22401 0.0416 -0.00612
v 0.22401 0.0416 -0.00612
v 0.22401 -0.0895 -0.00612
v 0.22401 -0.0895 -0.35287
v 0.22401 0.0416 -0.35287
v 0.22401 0.0416 -0.35287
v 0.22401 -0.0895 -0.35287
v -0.224 -0.0895 -0.35287
v -0.224 0.0416 -0.35287
v -0.224 0.0416 -0.35287
v -0.224 -0.0895 -0.35287
v -0.224 -0.0895 -0.00612
v -0.224 0.0416 -0.00612
v 0.23901 0.0416 -0.36712
v 0.22401 0.0416 -0.35287
v -0.224 0.0416 -0.35287
v -0.23899 0.0416 -0.36712
v 0.23901 0.0416 0.00813
v -0.224 0.0416 -0.00612
v 0.22401 0.0416 -0.00612
v -0.23899 0.0416 0.00813
vt 0.04103648 3.26209
vt 0.04325577 3.259871
vt 0.04325577 3.073463
vt 0.04103648 3.26209
vt 0.04325577 3.073463
vt 0.04103648 3.071244
vt 2.385606 1.417786
vt 1.947727 1.417786
vt 1.947727 1.582214
vt 2.385606 1.582214
vt 4.511402 0.7675587
vt 4.488598 0.7675587
vt 4.488598 0.8991076
vt 4.511402 0.8991076
vt 2.358689 0.5124985
vt 2.358689 0.4875017
vt 1.974645 0.4875017
vt 1.974645 0.5124985
vt 4.821931 0.8991098
vt 4.844736 0.8991098
vt 4.844736 0.7675564
vt 4.821931 0.7675564
vt 2.358689 0.1791652
vt 2.358689 0.1541682
vt 1.974645 0.1541682
vt 1.974645 0.1791652
vt 1.949977 3.086487
vt 1.949977 3.246846
vt 2.383356 3.246846
vt 2.383356 3.086487
vt 1.887787 2.373485
vt 1.890223 2.37592
vt 2.44311 2.37592
vt 2.445546 2.373485
vt 0.007855994 0.4108092
vt 0.005477538 0.4131876
vt 0.005477538 0.5868123
vt 0.007855994 0.5891907
vt 2.445538 3.959848
vt 2.443103 3.957414
vt 1.890231 3.957414
vt 1.887795 3.959848
vt 0.2174448 0.739
vt 0.2174448 0.261
vt 0.07684488 0.261
vt 0.07684488 0.739
vt 0.4949073 0.4954853
vt 0.8416569 0.4954853
vt 0.8416569 0.04748526
vt 0.4949073 0.04748526
vt 0.7280834 0.9580983
vt 0.7280834 0.5828482
vt 0.5874835 0.5828482
vt 0.5874835 0.9580983
vt 0.4152344 0.5285317
vt 0.4152344 0.05053169
vt 0.03998448 0.05053169
vt 0.0399842 0.5285317
vt 0.786256 0.5828483
vt 0.786256 0.9580984
vt 0.9268559 0.9580984
vt 0.9268559 0.5828483
vt 0.08076684 0.7240001
vt 0.2118668 0.7240001
vt 0.2118668 0.2759998
vt 0.08076684 0.2759998
vt 0.5302753 0.6160469
vt 0.3991753 0.6160469
vt 0.3991753 0.9627963
vt 0.5302753 0.9627963
vt 0.370317 0.56555
vt 0.370317 0.4344501
vt -0.07768331 0.4344501
vt -0.07768331 0.56555
vt 0.3667637 0.6160469
vt 0.2356637 0.6160469
vt 0.2356637 0.9627963
vt 0.3667637 0.9627963
vt 0.5801464 0.2609995
vt 0.5658964 0.2759995
vt 0.5658964 0.7240005
vt 0.5801468 0.7390004
vt 0.2048957 0.2609995
vt 0.2191459 0.7240005
vt 0.2191459 0.2759995
vt 0.2048957 0.7390004
vn -0.7071509 0 0.7070626
vn -0.7071517 0 0.7070619
vn -0.7071125 0 0.707101
vn -0.7071509 0 0.7070626
vn -0.7071125 0 0.707101
vn -0.7071121 0 0.7071014
vn 0 0 -1
vn 0 0 -1
vn 0 0 -1
vn 0 0 -1
vn -1 0 0
vn -1 0 0
vn -1 0 0
vn -1 0 0
vn 0 1 0
vn 0 1 0
vn 0 1 0
vn 0 1 0
vn 1 0 0
vn 1 0 0
vn 1 0 0
vn 1 0 0
vn 0 -1 0
vn 0 -1 0
vn 0 -1 1.237864E-06
vn 0 -1 1.271575E-06
vn 0 0 1
vn 0 0 1
vn 0 0 1
vn 0 0 1
vn 0 -0.7071292 0.7070843
vn 0 -0.7071292 0.7070844
vn 0 -0.7071339 0.7070796
vn 0 -0.7071339 0.7070796
vn 0.7071257 0 0.7070878
vn 0.7071248 0 0.7070887
vn 0.7071693 0 0.7070442
vn 0.7071698 0 0.7070439
vn 0 0.7071305 0.707083
vn 0 0.7071304 0.707083
vn 0 0.7071248 0.7070888
vn 0 0.7071248 0.7070888
vn 0 0 -1
vn 0 0 -1
vn 0 0 -1
vn 0 0 -1
vn 0 1 0
vn 0 1 0
vn 0 1 0
vn 0 1 0
vn 1 0 0
vn 1 0 0
vn 1 0 0
vn 1 0 0
vn 0 -1 0
vn 0 -1 0
vn 0 -1 0
vn 0 -1 0
vn -1 0 0
vn -1 0 0
vn -1 0 0
vn -1 0 0
vn 0 0 -1
vn 0 0 -1
vn 0 0 -1
vn 0 0 -1
vn -1 0 0
vn -1 0 0
vn -1 0 0
vn -1 0 0
vn 0 0 1
vn 0 0 1
vn 0 0 1
vn 0 0 1
vn 1 0 0
vn 1 0 0
vn 1 0 0
vn 1 0 0
vn 0 1 0
vn 0 1 0
vn 0 1 0
vn 0 1 0
vn 0 1 0
vn 0 1 1.027173E-06
vn 0 1 0
vn 0 1 9.438393E-07
usemtl WhiteWoodClean
f 3/3/3 2/2/2 1/1/1
f 6/6/6 5/5/5 4/4/4
f 9/9/9 8/8/8 7/7/7
f 10/10/10 9/9/9 7/7/7
f 13/13/13 12/12/12 11/11/11
f 14/14/14 13/13/13 11/11/11
f 17/17/17 16/16/16 15/15/15
f 18/18/18 17/17/17 15/15/15
f 21/21/21 20/20/20 19/19/19
f 22/22/22 21/21/21 19/19/19
f 25/25/25 24/24/24 23/23/23
f 26/26/26 25/25/25 23/23/23
f 29/29/29 28/28/28 27/27/27
f 30/30/30 29/29/29 27/27/27
f 33/33/33 32/32/32 31/31/31
f 34/34/34 33/33/33 31/31/31
f 37/37/37 36/36/36 35/35/35
f 38/38/38 37/37/37 35/35/35
f 41/41/41 40/40/40 39/39/39
f 42/42/42 41/41/41 39/39/39
f 45/45/45 44/44/44 43/43/43
f 46/46/46 45/45/45 43/43/43
f 49/49/49 48/48/48 47/47/47
f 50/50/50 49/49/49 47/47/47
f 53/53/53 52/52/52 51/51/51
f 54/54/54 53/53/53 51/51/51
f 57/57/57 56/56/56 55/55/55
f 58/58/58 57/57/57 55/55/55
f 61/61/61 60/60/60 59/59/59
f 62/62/62 61/61/61 59/59/59
f 65/65/65 64/64/64 63/63/63
f 66/66/66 65/65/65 63/63/63
f 69/69/69 68/68/68 67/67/67
f 70/70/70 69/69/69 67/67/67
f 73/73/73 72/72/72 71/71/71
f 74/74/74 73/73/73 71/71/71
f 77/77/77 76/76/76 75/75/75
f 78/78/78 77/77/77 75/75/75
f 81/81/81 80/80/80 79/79/79
f 82/82/82 81/81/81 79/79/79
f 79/79/79 80/80/80 83/83/83
f 84/84/84 81/81/81 82/82/82
f 80/80/80 85/85/85 83/83/83
f 86/86/86 84/84/84 82/82/82
f 83/83/83 85/85/85 86/86/86
f 85/85/85 84/84/84 86/86/86
