mtllib Drawer_454fdaaf.mtl
v -0.29999 0.21 0.02
v -0.29799 0.20801 0.022
v -0.29799 -0.09799 0.022
v -0.29999 0.21 0.02
v -0.29799 -0.09799 0.022
v -0.29999 -0.09999 0.02
v 0.08401 -0.09399 -0.00199
v -0.27999 -0.094 -0.00199
v -0.28399 -0.094 -0.00199
v -0.29999 -0.09999 0
v 0.1 -0.09999 0
v 0.1 0.21 0
v -0.29999 0.21 0
v -0.29999 -0.09999 0.02
v -0.29999 -0.09999 0
v -0.29999 0.21 0
v -0.29999 0.21 0.02
v -0.29999 0.21 0.02
v -0.29999 0.21 0
v 0.1 0.21 0
v 0.1 0.21 0.02
v 0.1 0.21 0.02
v 0.1 0.21 0
v 0.1 -0.09999 0
v 0.1 -0.09999 0.02
v 0.1 -0.09999 0.02
v 0.1 -0.09999 0
v -0.29999 -0.09999 0
v -0.29999 -0.09999 0.02
v -0.29799 -0.09799 0.022
v -0.29799 0.20801 0.022
v 0.098 0.20801 0.022
v 0.098 -0.09799 0.022
v -0.29999 -0.09999 0.02
v -0.29799 -0.09799 0.022
v 0.098 -0.09799 0.022
v 0.1 -0.09999 0.02
v 0.1 -0.09999 0.02
v 0.098 -0.09799 0.022
v 0.098 0.20801 0.022
v 0.1 0.21 0.02
v 0.1 0.21 0.02
v 0.098 0.20801 0.022
v -0.29799 0.20801 0.022
v -0.29999 0.21 0.02
v 0.099 0.20901 -0.39199
v -0.29899 0.20901 -0.39199
v -0.29899 -0.099 -0.39199
v 0.099 -0.09899 -0.39199
v -0.29899 -0.09899 0.01301
v -0.29899 -0.099 -0.39199
v -0.29899 0.20901 -0.39199
v -0.29899 0.2 0.01301
v -0.29899 0.20901 0.01301
v -0.28399 -0.094 -0.00199
v -0.28399 -0.094 -0.37699
v 0.084 -0.09399 -0.37699
v 0.08401 -0.09399 -0.00199
v 0.099 0.20901 -0.39199
v 0.099 -0.09899 -0.39199
v 0.09901 -0.09899 0.01301
v 0.09901 0.2 0.01301
v 0.09901 0.20901 0.01301
v 0.09901 -0.09899 0.01301
v 0.099 -0.09899 -0.39199
v -0.29899 -0.099 -0.39199
v -0.27999 -0.099 0.01301
v -0.29899 -0.09899 0.01301
v 0.084 0.20901 -0.37699
v 0.084 -0.09399 -0.37699
v -0.28399 -0.094 -0.37699
v -0.28399 0.20901 -0.37699
v -0.28399 0.20901 -0.37699
v -0.28399 -0.094 -0.37699
v -0.28399 -0.094 -0.00199
v -0.28399 0.20901 -0.00199
v -0.28399 0.20901 -0.00199
v -0.28399 -0.094 -0.00199
v -0.27999 -0.094 -0.00199
v -0.27999 0.20901 -0.00199
v 0.08401 -0.09399 -0.00199
v 0.08401 0.20901 -0.00199
v 0.08401 0.20901 -0.00199
v 0.08401 -0.09399 -0.00199
v 0.084 -0.09399 -0.37699
v 0.084 0.20901 -0.37699
v 0.099 0.20901 -0.39199
v 0.084 0.20901 -0.37699
v -0.28399 0.20901 -0.37699
v -0.29899 0.20901 -0.39199
v 0.09901 0.20901 0.01301
v -0.28399 0.20901 -0.00199
v 0.08401 0.20901 -0.00199
v -0.29899 0.20901 0.01301
v -0.27999 0.20901 0.01301
v -0.27999 0.20901 -0.00199
vt 2.370504 1.522543
vt 2.37282 1.520227
vt 2.37282 1.146439
vt 2.370504 1.522543
vt 2.37282 1.146439
vt 2.370504 1.144124
vt 0.7686442 0.6126876
vt 0.7686443 0.9766876
vt 0.7686443 0.9806874
vt 1.357282 1.170702
vt 0.9760517 1.170702
vt 0.9760517 1.495965
vt 1.357282 1.495965
vt 4.848248 0.8960723
vt 4.818419 0.8960723
vt 4.818419 1.103927
vt 4.848248 1.103927
vt 3.627802 0.1823159
vt 3.627802 0.1510175
vt 3.372198 0.1510175
vt 3.372198 0.1823159
vt 4.816944 2.927904
vt 4.849723 2.927904
vt 4.849723 2.738762
vt 4.816944 2.738762
vt 1.294469 0.1823159
vt 1.294469 0.1510175
vt 1.038865 0.1510175
vt 1.038865 0.1823159
vt 3.311397 1.17271
vt 3.311397 1.493956
vt 3.688603 1.493956
vt 3.688603 1.17271
vt 3.267194 0.3702973
vt 3.269625 0.3727278
vt 3.730375 0.3727278
vt 3.732806 0.3702974
vt 4.629496 1.144087
vt 4.62718 1.146403
vt 4.62718 1.520264
vt 4.629496 1.522579
vt 3.73276 2.29637
vt 3.73033 2.293938
vt 3.26967 2.293938
vt 3.26724 2.29637
vt 0.4009245 0.2849825
vt 0.4009246 0.6829823
vt 0.7089246 0.6829823
vt 0.7089246 0.2849825
vt -0.03010559 -0.04032552
vt -0.03010571 0.3646744
vt 0.2778944 0.3646744
vt 0.2688944 -0.04032552
vt 0.2778944 -0.04032552
vt 0.09723772 0.2873795
vt 0.09723772 0.6623794
vt 0.4652375 0.6623794
vt 0.4652375 0.2873795
vt 0.5295042 -0.04032552
vt 0.221504 -0.04032552
vt 0.221504 0.3646744
vt 0.520504 0.3646744
vt 0.5295042 0.3646744
vt 0.8615394 0.3646744
vt 0.8615394 -0.04032552
vt 0.4635397 -0.04032552
vt 0.4825395 0.3646744
vt 0.4635398 0.3646744
vt 1.016161 0.6126876
vt 0.7131612 0.6126876
vt 0.7131611 0.9806873
vt 1.016161 0.9806873
vt 0.2734154 0.5882109
vt -0.02958465 0.5882109
vt -0.02958465 0.9632108
vt 0.2734154 0.9632108
vt 0.4656442 0.9806874
vt 0.7686443 0.9806874
vt 0.7686443 0.9766876
vt 0.4656442 0.9766876
vt 0.7686442 0.6126876
vt 0.4656442 0.6126876
vt 0.5211273 0.6064169
vt 0.2181271 0.6064169
vt 0.2181271 0.9814167
vt 0.5211273 0.9814167
vt 1.039485 0.6892534
vt 1.024486 0.6742536
vt 0.6564847 0.6742536
vt 0.6414847 0.6892534
vt 1.039485 0.2842525
vt 0.6564847 0.2992526
vt 1.024486 0.2992526
vt 0.6414849 0.2842525
vt 0.6604845 0.2842525
vt 0.6604845 0.2992526
vn -0.7070929 0 0.7071207
vn -0.707092 0 0.7071216
vn -0.7071788 0 0.7070348
vn -0.7070929 0 0.7071207
vn -0.7071788 0 0.7070348
vn -0.7071791 0 0.7070345
vn 0 1 0
vn 0 0 -1
vn 0 1 0
vn 0 0 -1
vn 0 0 -1
vn 0 0 -1
vn 0 0 -1
vn -1 0 0
vn -1 0 0
vn -1 0 0
vn -1 0 0
vn 0 1 0
vn 0 1 0
vn 0 1 0
vn 0 1 0
vn 1 0 3.688038E-07
vn 1 0 3.688037E-07
vn 1 0 3.688036E-07
vn 1 0 3.688036E-07
vn 0 -1 8.034169E-07
vn 0 -1 8.29809E-07
vn 0 -1 0
vn 0 -1 0
vn 0 0 1
vn 0 0 1
vn 0 0 1
vn 0 0 1
vn 0 -0.7071077 0.7071059
vn 0 -0.7071077 0.7071058
vn 0 -0.7070904 0.7071232
vn 0 -0.7070903 0.7071232
vn 0.7070808 0 0.7071327
vn 0.7070799 0 0.7071336
vn 0.7071778 0 0.7070358
vn 0.7071781 0 0.7070354
vn 0 0.7071151 0.7070984
vn 0 0.7071152 0.7070984
vn 0 0.7071012 0.7071123
vn 0 0.7071012 0.7071124
vn 0 0 -1
vn 0 0 -1
vn 0 0 -1
vn 0 0 -1
vn -1 0 2.825702E-07
vn -1 0 2.825702E-07
vn -1 0 2.825702E-07
vn -1 0 2.825701E-07
vn -1 0 2.825743E-07
vn -1.036603E-07 1 0
vn -1.036603E-07 1 0
vn -1.036603E-07 1 0
vn -1.036603E-07 1 0
vn 1 0 0
vn 1 0 0
vn 1 0 0
vn 1 0 0
vn 1 0 0
vn 0 -1 0
vn 0 -1 0
vn 0 -1 0
vn 1.006516E-07 -1 0
vn -2.007775E-06 -1 0
vn 4.917474E-07 0 1
vn 8.758098E-07 0 1
vn 3.840622E-07 0 1
vn 0 0 1
vn 1 0 0
vn 1 0 0
vn 1 0 0
vn 1 0 0
vn 0 0 -1
vn 0 0 -1
vn 0 0 -1
vn 0 0 -1
vn 0 0 -1
vn 0 0 -1
vn -1 0 1.049042E-07
vn -1 0 1.049041E-07
vn -1 0 1.049042E-07
vn -1 0 1.049042E-07
vn 0 1 -2.870348E-06
vn 0 1 -3.028673E-06
vn 0 1 0
vn 0 1 0
vn -1.00989E-07 1 0
vn 0 1 0
vn -2.095988E-07 1 0
vn 0 1 0
vn 0 1 0
vn 0 1 0
usemtl WhiteWoodClean
f 3/3/3 2/2/2 1/1/1
f 6/6/6 5/5/5 4/4/4
f 9/9/9 8/8/8 7/7/7
f 12/12/12 11/11/11 10/10/10
f 13/13/13 12/12/12 10/10/10
f 16/16/16 15/15/15 14/14/14
f 17/17/17 16/16/16 14/14/14
f 20/20/20 19/19/19 18/18/18
f 21/21/21 20/20/20 18/18/18
f 24/24/24 23/23/23 22/22/22
f 25/25/25 24/24/24 22/22/22
f 28/28/28 27/27/27 26/26/26
f 29/29/29 28/28/28 26/26/26
f 32/32/32 31/31/31 30/30/30
f 33/33/33 32/32/32 30/30/30
f 36/36/36 35/35/35 34/34/34
f 37/37/37 36/36/36 34/34/34
f 40/40/40 39/39/39 38/38/38
f 41/41/41 40/40/40 38/38/38
f 44/44/44 43/43/43 42/42/42
f 45/45/45 44/44/44 42/42/42
f 48/48/48 47/47/47 46/46/46
f 49/49/49 48/48/48 46/46/46
f 52/52/52 51/51/51 50/50/50
f 50/50/50 53/53/53 52/52/52
f 53/53/53 54/54/54 52/52/52
f 57/57/57 56/56/56 55/55/55
f 55/55/55 58/58/58 57/57/57
f 61/61/61 60/60/60 59/59/59
f 59/59/59 62/62/62 61/61/61
f 59/59/59 63/63/63 62/62/62
f 66/66/66 65/65/65 64/64/64
f 64/64/64 67/67/67 66/66/66
f 67/67/67 68/68/68 66/66/66
f 71/71/71 70/70/70 69/69/69
f 72/72/72 71/71/71 69/69/69
f 75/75/75 74/74/74 73/73/73
f 76/76/76 75/75/75 73/73/73
f 79/79/79 78/78/78 77/77/77
f 80/80/80 79/79/79 77/77/77
f 81/81/81 79/79/79 80/80/80
f 82/82/82 81/81/81 80/80/80
f 85/85/85 84/84/84 83/83/83
f 86/86/86 85/85/85 83/83/83
f 89/89/89 88/88/88 87/87/87
f 90/90/90 89/89/89 87/87/87
f 87/87/87 88/88/88 91/91/91
f 92/92/92 89/89/89 90/90/90
f 88/88/88 93/93/93 91/91/91
f 94/94/94 92/92/92 90/90/90
f 91/91/91 93/93/93 95/95/95
f 96/96/96 92/92/92 94/94/94
f 95/95/95 96/96/96 94/94/94
f 93/93/93 96/96/96 95/95/95
