mtllib material.mtl
usemtl material_0
v -0.24000000 0.05000000 0.02000000
v -0.23800000 0.04801000 0.02200000
v -0.23800000 -0.09799000 0.02200000
v -0.24000000 -0.10000000 0.02000000
v -0.24000000 -0.10000000 0.00000000
v 0.24000000 -0.10000000 0.00000000
v 0.24000000 0.05000000 0.00000000
v -0.24000000 0.05000000 0.00000000
v -0.24000000 -0.10000000 0.02000000
v -0.24000000 -0.10000000 0.00000000
v -0.24000000 0.05000000 0.00000000
v -0.24000000 0.05000000 0.02000000
v -0.24000000 0.05000000 0.02000000
v -0.24000000 0.05000000 0.00000000
v 0.24000000 0.05000000 0.00000000
v 0.24000000 0.05000000 0.02000000
v 0.24000000 0.05000000 0.02000000
v 0.24000000 0.05000000 0.00000000
v 0.24000000 -0.10000000 0.00000000
v 0.24000000 -0.10000000 0.02000000
v 0.24000000 -0.10000000 0.02000000
v 0.24000000 -0.10000000 0.00000000
v -0.24000000 -0.10000000 0.00000000
v -0.24000000 -0.10000000 0.02000000
v -0.23800000 -0.09799000 0.02200000
v -0.23800000 0.04801000 0.02200000
v 0.23801000 0.04801000 0.02200000
v 0.23801000 -0.09799000 0.02200000
v -0.24000000 -0.10000000 0.02000000
v -0.23800000 -0.09799000 0.02200000
v 0.23801000 -0.09799000 0.02200000
v 0.24000000 -0.10000000 0.02000000
v 0.24000000 -0.10000000 0.02000000
v 0.23801000 -0.09799000 0.02200000
v 0.23801000 0.04801000 0.02200000
v 0.24000000 0.05000000 0.02000000
v 0.24000000 0.05000000 0.02000000
v 0.23801000 0.04801000 0.02200000
v -0.23800000 0.04801000 0.02200000
v -0.24000000 0.05000000 0.02000000
v -0.23899000 -0.09900000 -0.36712000
v 0.23901000 -0.09900000 -0.36712000
v 0.23901000 0.04160000 -0.36712000
v -0.23899000 0.04160000 -0.36712000
v -0.22400000 -0.08760000 -0.00612000
v -0.22400000 -0.08760000 -0.35287000
v 0.22401000 -0.08760000 -0.35287000
v 0.22401000 -0.08760000 -0.00612000
v 0.23901000 0.04160000 0.00813000
v 0.23901000 0.04160000 -0.36712000
v 0.23901000 -0.09900000 -0.36712000
v 0.23901000 -0.09900000 0.00813000
v -0.23899000 -0.09900000 0.00813000
v 0.23901000 -0.09900000 0.00813000
v 0.23901000 -0.09900000 -0.36712000
v -0.23899000 -0.09900000 -0.36712000
v -0.23899000 -0.09900000 0.00813000
v -0.23899000 -0.09900000 -0.36712000
v -0.23899000 0.04160000 -0.36712000
v -0.23899000 0.04160000 0.00813000
v 0.23901000 0.04160000 -0.36712000
v 0.22401000 0.04160000 -0.35287000
v -0.22400000 0.04160000 -0.35287000
v -0.23899000 0.04160000 -0.36712000
v -0.23899000 0.04160000 -0.36712000
v -0.22400000 0.04160000 -0.35287000
v -0.22400000 0.04160000 -0.00612000
v -0.23899000 0.04160000 0.00813000
v -0.23899000 0.04160000 0.00813000
v -0.22400000 0.04160000 -0.00612000
v 0.22401000 0.04160000 -0.00612000
v 0.23901000 0.04160000 0.00813000
v 0.23901000 0.04160000 0.00813000
v 0.22401000 0.04160000 -0.00612000
v 0.22401000 0.04160000 -0.35287000
v 0.23901000 0.04160000 -0.36712000
v -0.22400000 0.04160000 -0.00612000
v -0.22400000 -0.08760000 -0.00612000
v 0.22401000 -0.08760000 -0.00612000
v 0.22401000 0.04160000 -0.00612000
v 0.22401000 0.04160000 -0.00612000
v 0.22401000 -0.08760000 -0.00612000
v 0.22401000 -0.08760000 -0.35287000
v 0.22401000 0.04160000 -0.35287000
v 0.22401000 0.04160000 -0.35287000
v 0.22401000 -0.08760000 -0.35287000
v -0.22400000 -0.08760000 -0.35287000
v -0.22400000 0.04160000 -0.35287000
v -0.22400000 0.04160000 -0.35287000
v -0.22400000 -0.08760000 -0.35287000
v -0.22400000 -0.08760000 -0.00612000
v -0.22400000 0.04160000 -0.00612000
vn -0.70717360 0.00000000 0.70704010
vn -0.70717480 0.00000000 0.70703880
vn -0.70711270 0.00000000 0.70710080
vn -0.70711210 0.00000000 0.70710140
vn 0.00000000 0.00000000 -1.00000000
vn 0.00000000 0.00000000 -1.00000000
vn 0.00000000 0.00000000 -1.00000000
vn 0.00000000 0.00000000 -1.00000000
vn -1.00000000 0.00000000 0.00000000
vn -1.00000000 0.00000000 0.00000000
vn -1.00000000 0.00000000 0.00000000
vn -1.00000000 0.00000000 0.00000000
vn 0.00000000 1.00000000 0.00000000
vn 0.00000000 1.00000000 0.00000000
vn 0.00000000 1.00000000 0.00000000
vn 0.00000000 1.00000000 0.00000000
vn 1.00000000 0.00000000 0.00000000
vn 1.00000000 0.00000000 0.00000000
vn 1.00000000 0.00000000 0.00000000
vn 1.00000000 0.00000000 0.00000000
vn 0.00000000 -1.00000000 0.00000000
vn 0.00000000 -1.00000000 0.00000000
vn 0.00000000 -1.00000000 0.00000000
vn 0.00000000 -1.00000000 0.00000000
vn 0.00000000 0.00000000 1.00000000
vn 0.00000000 0.00000000 1.00000000
vn 0.00000000 0.00000000 1.00000000
vn 0.00000000 0.00000000 1.00000000
vn 0.00000000 -0.70712110 0.70709240
vn 0.00000000 -0.70712130 0.70709230
vn 0.00000000 -0.70711590 0.70709760
vn 0.00000000 -0.70711590 0.70709760
vn 0.70713030 0.00000000 0.70708320
vn 0.70712950 0.00000000 0.70708400
vn 0.70716940 0.00000000 0.70704420
vn 0.70716980 0.00000000 0.70704390
vn 0.00000000 0.70713390 0.70707950
vn 0.00000000 0.70713390 0.70707960
vn 0.00000000 0.70714270 0.70707080
vn 0.00000000 0.70714270 0.70707080
vn 0.00000000 0.00000000 -1.00000000
vn 0.00000000 0.00000000 -1.00000000
vn 0.00000000 0.00000000 -1.00000000
vn 0.00000000 0.00000000 -1.00000000
vn 0.00000000 1.00000000 0.00000000
vn 0.00000000 1.00000000 0.00000000
vn 0.00000000 1.00000000 0.00000000
vn 0.00000000 1.00000000 0.00000000
vn 1.00000000 0.00000000 0.00000000
vn 1.00000000 0.00000000 0.00000000
vn 1.00000000 0.00000000 0.00000000
vn 1.00000000 0.00000000 0.00000000
vn 0.00000000 -1.00000000 0.00000000
vn 0.00000000 -1.00000000 0.00000000
vn 0.00000000 -1.00000000 0.00000000
vn 0.00000000 -1.00000000 0.00000000
vn -1.00000000 0.00000000 0.00000000
vn -1.00000000 0.00000000 0.00000000
vn -1.00000000 0.00000000 0.00000000
vn -1.00000000 0.00000000 0.00000000
vn 0.00000000 1.00000000 0.00000000
vn 0.00000000 1.00000000 -0.00000013
vn 0.00000000 1.00000000 0.00000202
vn 0.00000000 1.00000000 0.00000197
vn 0.00000000 1.00000000 0.00000197
vn 0.00000000 1.00000000 0.00000202
vn 0.00000000 1.00000000 0.00000064
vn 0.00000000 1.00000000 0.00000051
vn 0.00000000 1.00000000 0.00000051
vn 0.00000000 1.00000000 0.00000064
vn 0.00000000 1.00000000 -0.00000202
vn 0.00000000 1.00000000 -0.00000197
vn 0.00000000 1.00000000 -0.00000197
vn 0.00000000 1.00000000 -0.00000202
vn 0.00000000 1.00000000 -0.00000013
vn 0.00000000 1.00000000 0.00000000
vn 0.00000000 0.00000000 -1.00000000
vn 0.00000000 0.00000000 -1.00000000
vn 0.00000000 0.00000000 -1.00000000
vn 0.00000000 0.00000000 -1.00000000
vn -1.00000000 0.00000000 0.00000000
vn -1.00000000 0.00000000 0.00000000
vn -1.00000000 0.00000000 0.00000000
vn -1.00000000 0.00000000 0.00000000
vn 0.00000000 0.00000000 1.00000000
vn 0.00000000 0.00000000 1.00000000
vn 0.00000000 0.00000000 1.00000000
vn 0.00000000 0.00000000 1.00000000
vn 1.00000000 0.00000000 0.00000000
vn 1.00000000 0.00000000 0.00000000
vn 1.00000000 0.00000000 0.00000000
vn 1.00000000 0.00000000 0.00000000
vt 0.04103647 3.26209100
vt 0.04325578 3.25987100
vt 0.04325578 3.07346200
vt 0.04103647 3.07124300
vt 2.38560600 1.41778600
vt 1.94772700 1.41778600
vt 1.94772700 1.58221400
vt 2.38560600 1.58221400
vt 4.51140200 0.76755650
vt 4.48859800 0.76755650
vt 4.48859800 0.89910980
vt 4.51140200 0.89910980
vt 2.35869000 0.51249840
vt 2.35869000 0.48750160
vt 1.97464500 0.48750160
vt 1.97464500 0.51249840
vt 4.82193100 0.89911250
vt 4.84473600 0.89911250
vt 4.84473600 0.76755380
vt 4.82193100 0.76755380
vt 2.35868900 0.17916520
vt 2.35868900 0.15416820
vt 1.97464500 0.15416820
vt 1.97464500 0.17916520
vt 1.94997600 3.08648800
vt 1.94997600 3.24684500
vt 2.38335700 3.24684500
vt 2.38335700 3.08648800
vt 0.00091615 0.78541960
vt 0.00329459 0.78304110
vt 0.00329459 0.21695900
vt 0.00091615 0.21458040
vt 0.31604170 0.06907607
vt 0.31366330 0.07145463
vt 0.31366330 0.24508690
vt 0.31604170 0.24746530
vt 0.01433698 0.21458440
vt 0.01195857 0.21696270
vt 0.01195857 0.78303710
vt 0.01433698 0.78541550
vt 0.21799400 0.73900010
vt 0.21799400 0.26100000
vt 0.07739399 0.26100000
vt 0.07739399 0.73900010
vt 0.49462720 0.49548590
vt 0.84137680 0.49548590
vt 0.84137680 0.04748583
vt 0.49462720 0.04748583
vt 0.72751580 0.95809760
vt 0.72751580 0.58284770
vt 0.58691580 0.58284770
vt 0.58691580 0.95809760
vt 0.41523380 0.52853240
vt 0.41523380 0.05053245
vt 0.03998381 0.05053245
vt 0.03998353 0.52853240
vt 0.78568170 0.58284800
vt 0.78568170 0.95809780
vt 0.92628160 0.95809780
vt 0.92628160 0.58284800
vt 0.32197010 0.26099750
vt 0.30771970 0.27599760
vt 0.30771970 0.72400240
vt 0.32197040 0.73900250
vt 0.74909880 0.95809730
vt 0.76409860 0.94384680
vt 0.76409860 0.59709870
vt 0.74909880 0.58284840
vt 0.00835418 0.73899920
vt 0.02260426 0.72399940
vt 0.02260426 0.27600090
vt 0.00835418 0.26100090
vt 0.56533270 0.58284780
vt 0.55033270 0.59709800
vt 0.55033270 0.94384740
vt 0.56533270 0.95809750
vt 0.10688520 0.69274450
vt 0.23608530 0.69274450
vt 0.23608530 0.24474430
vt 0.10688520 0.24474430
vt 0.52990720 0.61604640
vt 0.40070730 0.61604640
vt 0.40070730 0.96279590
vt 0.52990720 0.96279590
vt 0.53562160 0.24474430
vt 0.40642160 0.24474430
vt 0.40642160 0.69274470
vt 0.53562160 0.69274470
vt 0.36868500 0.61604640
vt 0.23948510 0.61604640
vt 0.23948510 0.96279590
vt 0.36868500 0.96279590
f 3/3/3 2/2/2 1/1/1
f 4/4/4 3/3/3 1/1/1
f 7/7/7 6/6/6 5/5/5
f 8/8/8 7/7/7 5/5/5
f 11/11/11 10/10/10 9/9/9
f 12/12/12 11/11/11 9/9/9
f 15/15/15 14/14/14 13/13/13
f 16/16/16 15/15/15 13/13/13
f 19/19/19 18/18/18 17/17/17
f 20/20/20 19/19/19 17/17/17
f 23/23/23 22/22/22 21/21/21
f 24/24/24 23/23/23 21/21/21
f 27/27/27 26/26/26 25/25/25
f 28/28/28 27/27/27 25/25/25
f 31/31/31 30/30/30 29/29/29
f 32/32/32 31/31/31 29/29/29
f 35/35/35 34/34/34 33/33/33
f 36/36/36 35/35/35 33/33/33
f 39/39/39 38/38/38 37/37/37
f 40/40/40 39/39/39 37/37/37
f 43/43/43 42/42/42 41/41/41
f 44/44/44 43/43/43 41/41/41
f 47/47/47 46/46/46 45/45/45
f 48/48/48 47/47/47 45/45/45
f 51/51/51 50/50/50 49/49/49
f 52/52/52 51/51/51 49/49/49
f 55/55/55 54/54/54 53/53/53
f 56/56/56 55/55/55 53/53/53
f 59/59/59 58/58/58 57/57/57
f 60/60/60 59/59/59 57/57/57
f 63/63/63 62/62/62 61/61/61
f 64/64/64 63/63/63 61/61/61
f 67/67/67 66/66/66 65/65/65
f 68/68/68 67/67/67 65/65/65
f 71/71/71 70/70/70 69/69/69
f 72/72/72 71/71/71 69/69/69
f 75/75/75 74/74/74 73/73/73
f 76/76/76 75/75/75 73/73/73
f 79/79/79 78/78/78 77/77/77
f 80/80/80 79/79/79 77/77/77
f 83/83/83 82/82/82 81/81/81
f 84/84/84 83/83/83 81/81/81
f 87/87/87 86/86/86 85/85/85
f 88/88/88 87/87/87 85/85/85
f 91/91/91 90/90/90 89/89/89
f 92/92/92 91/91/91 89/89/89

