mtllib material.mtl
usemtl material_0
v -0.15999000 0.05500000 0.02000000
v -0.15800000 0.05300000 0.02200000
v -0.15800000 -0.03300000 0.02200000
v -0.15999000 -0.03500000 0.02000000
v -0.15999000 -0.03500000 0.00000000
v 0.20001000 -0.03500000 0.00000000
v 0.20001000 0.05500000 0.00000000
v -0.15999000 0.05500000 0.00000000
v -0.15999000 -0.03500000 0.02000000
v -0.15999000 -0.03500000 0.00000000
v -0.15999000 0.05500000 0.00000000
v -0.15999000 0.05500000 0.02000000
v -0.15999000 0.05500000 0.02000000
v -0.15999000 0.05500000 0.00000000
v 0.20001000 0.05500000 0.00000000
v 0.20000000 0.05500000 0.02000000
v 0.20000000 0.05500000 0.02000000
v 0.20001000 0.05500000 0.00000000
v 0.20001000 -0.03500000 0.00000000
v 0.20000000 -0.03500000 0.02000000
v 0.20000000 -0.03500000 0.02000000
v 0.20001000 -0.03500000 0.00000000
v -0.15999000 -0.03500000 0.00000000
v -0.15999000 -0.03500000 0.02000000
v -0.15800000 -0.03300000 0.02200000
v -0.15800000 0.05300000 0.02200000
v 0.19801000 0.05301000 0.02200000
v 0.19801000 -0.03299000 0.02200000
v -0.15999000 -0.03500000 0.02000000
v -0.15800000 -0.03300000 0.02200000
v 0.19801000 -0.03299000 0.02200000
v 0.20000000 -0.03500000 0.02000000
v 0.20000000 -0.03500000 0.02000000
v 0.19801000 -0.03299000 0.02200000
v 0.19801000 0.05301000 0.02200000
v 0.20000000 0.05500000 0.02000000
v 0.20000000 0.05500000 0.02000000
v 0.19801000 0.05301000 0.02200000
v -0.15800000 0.05300000 0.02200000
v -0.15999000 0.05500000 0.02000000
v -0.15004000 -0.03180000 -0.39200000
v 0.19006000 -0.03179000 -0.39199000
v 0.19006000 0.05181000 -0.39199000
v -0.15004000 0.05181000 -0.39200000
v -0.13580000 -0.01470000 -0.00199000
v -0.13579000 -0.01470000 -0.37700000
v 0.17581000 -0.01470000 -0.37699000
v 0.17581000 -0.01470000 -0.00199000
v 0.19005000 -0.03179000 0.01301000
v 0.19005000 0.05181000 0.01301000
v 0.19006000 0.05181000 -0.39199000
v 0.19006000 -0.03179000 -0.39199000
v -0.15004000 -0.03180000 -0.39200000
v -0.15004000 -0.03180000 0.01301000
v 0.19005000 -0.03179000 0.01301000
v 0.19006000 -0.03179000 -0.39199000
v -0.15004000 -0.03180000 0.01301000
v -0.15004000 -0.03180000 -0.39200000
v -0.15004000 0.05181000 -0.39200000
v -0.15004000 0.05181000 0.01301000
v -0.13580000 0.05181000 -0.00199000
v -0.13580000 -0.01470000 -0.00199000
v 0.17581000 -0.01470000 -0.00199000
v 0.17581000 0.05181000 -0.00199000
v 0.17581000 0.05181000 -0.00199000
v 0.17581000 -0.01470000 -0.00199000
v 0.17581000 -0.01470000 -0.37699000
v 0.17581000 0.05181000 -0.37699000
v 0.17581000 0.05181000 -0.37699000
v 0.17581000 -0.01470000 -0.37699000
v -0.13579000 -0.01470000 -0.37700000
v -0.13579000 0.05181000 -0.37700000
v -0.13579000 0.05181000 -0.37700000
v -0.13579000 -0.01470000 -0.37700000
v -0.13580000 -0.01470000 -0.00199000
v -0.13580000 0.05181000 -0.00199000
v 0.19006000 0.05181000 -0.39199000
v 0.17581000 0.05181000 -0.37699000
v -0.13579000 0.05181000 -0.37700000
v -0.15004000 0.05181000 -0.39200000
v 0.19005000 0.05181000 0.01301000
v -0.13580000 0.05181000 -0.00199000
v 0.17581000 0.05181000 -0.00199000
v -0.15004000 0.05181000 0.01301000
vn -0.70706180 0.00000000 0.70715170
vn -0.70705970 0.00000000 0.70715390
vn -0.70711940 0.00000000 0.70709410
vn -0.70712020 0.00000000 0.70709320
vn 0.00000000 0.00000000 -1.00000000
vn 0.00000019 0.00000000 -1.00000000
vn 0.00000016 0.00000000 -1.00000000
vn 0.00000000 0.00000000 -1.00000000
vn -1.00000000 0.00000000 0.00000000
vn -1.00000000 0.00000000 0.00000000
vn -1.00000000 0.00000000 0.00000000
vn -1.00000000 0.00000000 0.00000000
vn -0.00000021 1.00000000 0.00000000
vn -0.00000021 1.00000000 0.00000000
vn -0.00000021 1.00000000 0.00000000
vn -0.00000021 1.00000000 0.00000000
vn 1.00000000 0.00000000 0.00000191
vn 1.00000000 0.00000000 0.00000191
vn 1.00000000 0.00000000 0.00000191
vn 1.00000000 0.00000000 0.00000191
vn 0.00000021 -1.00000000 0.00000143
vn 0.00000021 -1.00000000 0.00000148
vn 0.00000021 -1.00000000 0.00000000
vn 0.00000021 -1.00000000 0.00000000
vn -0.00000056 0.00000000 1.00000000
vn -0.00000080 0.00000000 1.00000000
vn 0.00000056 0.00000000 1.00000000
vn 0.00000080 0.00000000 1.00000000
vn 0.00000038 -0.70710120 0.70711230
vn 0.00000038 -0.70710120 0.70711230
vn 0.00000000 -0.70709180 0.70712170
vn 0.00000000 -0.70709170 0.70712170
vn 0.70708160 0.00000000 0.70713200
vn 0.70708010 0.00000000 0.70713340
vn 0.70712120 0.00000000 0.70709230
vn 0.70712180 0.00000000 0.70709170
vn 0.00000000 0.70712920 0.70708440
vn 0.00000000 0.70712950 0.70708410
vn -0.00000037 0.70709190 0.70712160
vn -0.00000037 0.70709180 0.70712170
vn 0.00000011 0.00000000 -1.00000000
vn 0.00000069 0.00000000 -1.00000000
vn 0.00000058 0.00000000 -1.00000000
vn 0.00000000 0.00000000 -1.00000000
vn -0.00000024 1.00000000 0.00000000
vn -0.00000024 1.00000000 0.00000000
vn -0.00000024 1.00000000 0.00000000
vn -0.00000024 1.00000000 0.00000000
vn 1.00000000 0.00000000 0.00000028
vn 1.00000000 0.00000000 0.00000028
vn 1.00000000 0.00000000 0.00000028
vn 1.00000000 0.00000000 0.00000028
vn 0.00000022 -1.00000000 0.00000012
vn 0.00000022 -1.00000000 0.00000028
vn 0.00000022 -1.00000000 0.00000016
vn 0.00000022 -1.00000000 0.00000000
vn -1.00000000 0.00000000 -0.00000025
vn -1.00000000 0.00000000 -0.00000025
vn -1.00000000 0.00000000 -0.00000025
vn -1.00000000 0.00000000 -0.00000025
vn 0.00000000 0.00000000 -1.00000000
vn 0.00000000 0.00000000 -1.00000000
vn 0.00000000 0.00000000 -1.00000000
vn 0.00000000 0.00000000 -1.00000000
vn -1.00000000 0.00000000 -0.00000031
vn -1.00000000 0.00000000 -0.00000031
vn -1.00000000 0.00000000 -0.00000031
vn -1.00000000 0.00000000 -0.00000031
vn 0.00000000 0.00000000 1.00000000
vn 0.00000000 0.00000000 1.00000000
vn 0.00000000 0.00000000 1.00000000
vn 0.00000000 0.00000000 1.00000000
vn 1.00000000 0.00000000 0.00000024
vn 1.00000000 0.00000000 0.00000024
vn 1.00000000 0.00000000 0.00000024
vn 1.00000000 0.00000000 0.00000024
vn -0.00000011 1.00000000 -0.00000114
vn -0.00000011 1.00000000 -0.00000116
vn -0.00000011 1.00000000 0.00000000
vn -0.00000011 1.00000000 0.00000000
vn -0.00000011 1.00000000 0.00000000
vn -0.00000011 1.00000000 -0.00000202
vn -0.00000011 1.00000000 0.00000000
vn -0.00000011 1.00000000 -0.00000199
vt 0.14143470 0.01884157
vt 0.14347120 0.02087802
vt 0.23104340 0.02087802
vt 0.23307990 0.01884157
vt 0.19656570 0.44853460
vt 0.55656580 0.44853450
vt 0.55656580 0.35853460
vt 0.19656570 0.35853460
vt 0.23307990 0.01884157
vt 0.23307990 -0.00152410
vt 0.14143470 -0.00152410
vt 0.14143470 0.01884157
vt 0.19322460 0.48848800
vt 0.19322460 0.50885930
vt 0.55990670 0.50885930
vt 0.55990650 0.48848810
vt 0.14143470 0.02994144
vt 0.14143470 0.05030710
vt 0.23307990 0.05030716
vt 0.23307990 0.02994150
vt 0.55990670 0.47760120
vt 0.55990680 0.45722990
vt 0.19322470 0.45722990
vt 0.19322470 0.47760120
vt 0.20066460 0.26205550
vt 0.20066460 0.34805550
vt 0.55666450 0.34805550
vt 0.55666450 0.26205550
vt 0.19322470 0.47760120
vt 0.19526190 0.47963820
vt 0.55786970 0.47963820
vt 0.55990670 0.47760120
vt 0.23307990 0.02994150
vt 0.23104340 0.02790504
vt 0.14347120 0.02790504
vt 0.14143470 0.02994144
vt 0.55990650 0.48848810
vt 0.55786950 0.48645110
vt 0.19526180 0.48645100
vt 0.19322460 0.48848800
vt 0.21695690 0.25173440
vt 0.55705690 0.25173430
vt 0.55705700 0.16813430
vt 0.21695690 0.16813440
vt 0.55619550 0.67485960
vt 0.18119540 0.67485960
vt 0.18119540 0.98645960
vt 0.55619550 0.98645940
vt 0.57943770 0.82479900
vt 0.57943790 0.90839890
vt 0.98443770 0.90839890
vt 0.98443770 0.82479890
vt 0.98443780 0.00652793
vt 0.57943760 0.00652780
vt 0.57943760 0.34662780
vt 0.98443740 0.34662800
vt 0.98443760 0.36484630
vt 0.57943760 0.36484630
vt 0.57943760 0.44844630
vt 0.98443770 0.44844630
vt 0.24616020 0.09179436
vt 0.24616020 0.15829440
vt 0.55776020 0.15829430
vt 0.55776020 0.09179427
vt 0.55619560 0.58347460
vt 0.55619560 0.51697460
vt 0.18119540 0.51697460
vt 0.18119540 0.58347450
vt 0.55776030 0.08237648
vt 0.55776040 0.01587641
vt 0.24616030 0.01587623
vt 0.24616030 0.08237636
vt 0.55619540 0.65939250
vt 0.55619530 0.59289250
vt 0.18119550 0.59289250
vt 0.18119560 0.65939250
vt 0.57943730 0.80677590
vt 0.59443740 0.79252590
vt 0.59443720 0.48092520
vt 0.57943710 0.46667510
vt 0.98443810 0.80677580
vt 0.96943830 0.48092510
vt 0.96943830 0.79252580
vt 0.98443810 0.46667500
f 3/3/3 2/2/2 1/1/1
f 4/4/4 3/3/3 1/1/1
f 7/7/7 6/6/6 5/5/5
f 8/8/8 7/7/7 5/5/5
f 11/11/11 10/10/10 9/9/9
f 12/12/12 11/11/11 9/9/9
f 15/15/15 14/14/14 13/13/13
f 16/16/16 15/15/15 13/13/13
f 19/19/19 18/18/18 17/17/17
f 20/20/20 19/19/19 17/17/17
f 23/23/23 22/22/22 21/21/21
f 24/24/24 23/23/23 21/21/21
f 27/27/27 26/26/26 25/25/25
f 28/28/28 27/27/27 25/25/25
f 31/31/31 30/30/30 29/29/29
f 32/32/32 31/31/31 29/29/29
f 35/35/35 34/34/34 33/33/33
f 36/36/36 35/35/35 33/33/33
f 39/39/39 38/38/38 37/37/37
f 40/40/40 39/39/39 37/37/37
f 43/43/43 42/42/42 41/41/41
f 44/44/44 43/43/43 41/41/41
f 47/47/47 46/46/46 45/45/45
f 48/48/48 47/47/47 45/45/45
f 51/51/51 50/50/50 49/49/49
f 52/52/52 51/51/51 49/49/49
f 55/55/55 54/54/54 53/53/53
f 56/56/56 55/55/55 53/53/53
f 59/59/59 58/58/58 57/57/57
f 60/60/60 59/59/59 57/57/57
f 63/63/63 62/62/62 61/61/61
f 64/64/64 63/63/63 61/61/61
f 67/67/67 66/66/66 65/65/65
f 68/68/68 67/67/67 65/65/65
f 71/71/71 70/70/70 69/69/69
f 72/72/72 71/71/71 69/69/69
f 75/75/75 74/74/74 73/73/73
f 76/76/76 75/75/75 73/73/73
f 79/79/79 78/78/78 77/77/77
f 80/80/80 79/79/79 77/77/77
f 77/77/77 78/78/78 81/81/81
f 82/82/82 79/79/79 80/80/80
f 78/78/78 83/83/83 81/81/81
f 84/84/84 82/82/82 80/80/80
f 81/81/81 83/83/83 84/84/84
f 83/83/83 82/82/82 84/84/84

