mtllib StandardWindow1(3)(2)_6f0f1d64.mtl
v 2.2475 0.9 -1.96249
v 2.2475 2.05 -1.96249
v 2.2475 2.05 -1.23525
v 2.2475 1.44842 -1.23525
v 2.2475 0.9 -1.23525
v 2.2475 0.9 -1.16544
v 2.2475 1.50106 -1.16544
v 2.2475 2.05 -1.16544
v 2.2475 0.9 -0.43749
v 2.2475 2.05 -0.43749
v 2.25251 0.9 -1.96249
v 2.2475 0.9 -1.96249
v 2.2475 0.9 -1.23525
v 2.25012 0.9 -1.23525
v 2.25251 0.9 -1.23525
v 2.25251 0.9 -1.16544
v 2.24989 0.9 -1.16544
v 2.2475 0.9 -1.16544
v 2.25251 0.9 -0.43749
v 2.2475 0.9 -0.43749
v 2.25251 0.9 -0.43749
v 2.2475 0.9 -0.43749
v 2.2475 2.05 -0.43749
v 2.25251 2.05 -0.43749
v 2.25251 2.05 -0.43749
v 2.2475 2.05 -0.43749
v 2.2475 2.05 -1.16544
v 2.25012 2.05 -1.16544
v 2.25251 2.05 -1.16544
v 2.25251 2.05 -1.23525
v 2.24989 2.05 -1.23525
v 2.2475 2.05 -1.23525
v 2.25251 2.05 -1.96249
v 2.2475 2.05 -1.96249
v 2.25251 2.05 -1.96249
v 2.2475 2.05 -1.96249
v 2.2475 0.9 -1.96249
v 2.25251 0.9 -1.96249
v 2.25251 0.9 -1.96249
v 2.25251 2.05 -1.23525
v 2.25251 2.05 -1.96249
v 2.25251 1.44842 -1.23525
v 2.25251 0.9 -1.23525
v 2.25251 2.05 -1.16544
v 2.25251 1.50106 -1.16544
v 2.25251 0.9 -1.16544
v 2.25251 2.05 -0.43749
v 2.25251 0.9 -0.43749
vt -1.016969 -1.011078
vt -1.016969 0.101987
vt -0.2655885 0.101987
vt -0.2655884 -0.4802751
vt -0.2655884 -1.011078
vt -0.1934673 -1.011078
vt -0.1934673 -0.4293261
vt -0.1934673 0.101987
vt 0.5586358 -1.011078
vt 0.5586358 0.101987
vt 1.240658 -0.2156838
vt 1.2101 -0.2156838
vt 1.2101 -0.09667763
vt 1.226085 -0.09667763
vt 1.240658 -0.09667763
vt 1.240658 -0.08525484
vt 1.224687 -0.08525484
vt 1.2101 -0.08525484
vt 1.240658 0.03386581
vt 1.2101 0.03386581
vt 1.968437 -0.5456147
vt 1.936866 -0.5456147
vt 1.936866 -0.3634759
vt 1.968437 -0.3634759
vt 1.573736 0.03386559
vt 1.604294 0.03386559
vt 1.604294 -0.08525486
vt 1.588323 -0.08525486
vt 1.573736 -0.08525486
vt 1.573736 -0.09667762
vt 1.589721 -0.09667762
vt 1.604294 -0.09667762
vt 1.573736 -0.2156836
vt 1.604294 -0.2156836
vt 2.300503 -0.3634753
vt 2.332073 -0.3634753
vt 2.332073 -0.5456153
vt 2.300503 -0.5456153
vt 0.5586358 0.807104
vt -0.1927446 1.920169
vt 0.5586358 1.920169
vt -0.1927446 1.337906
vt -0.1927446 0.807104
vt -0.2648657 1.920169
vt -0.2648657 1.388855
vt -0.2648657 0.807104
vt -1.016969 1.920169
vt -1.016969 0.807104
vn -0.5773508 0 4.768372E-07
vn -0.5773508 0 4.768372E-07
vn -0.5773508 0 4.768372E-07
vn -0.5773508 0 4.768372E-07
vn -0.5773508 0 4.768372E-07
vn -0.5773508 0 4.768372E-07
vn -0.5773508 0 4.768372E-07
vn -0.5773508 0 4.768372E-07
vn -0.5773508 0 4.768372E-07
vn -0.5773508 0 4.768372E-07
vn -4.768372E-07 -0.5773501 4.768372E-07
vn -4.768372E-07 -0.5773501 4.768372E-07
vn -4.768372E-07 -0.5773501 4.768372E-07
vn -4.768372E-07 -0.5773501 4.768372E-07
vn -4.768372E-07 -0.5773501 4.768372E-07
vn -4.768372E-07 -0.5773501 4.768372E-07
vn -4.768372E-07 -0.5773501 4.768372E-07
vn -4.768372E-07 -0.5773501 4.768372E-07
vn -4.768372E-07 -0.5773501 4.768372E-07
vn -4.768372E-07 -0.5773501 4.768372E-07
vn -4.768372E-07 0 0.5773508
vn -4.768372E-07 0 0.5773508
vn -4.768372E-07 0 0.5773508
vn -4.768372E-07 0 0.5773508
vn -4.768372E-07 0.5773501 4.768372E-07
vn -4.768372E-07 0.5773501 4.768372E-07
vn -4.768372E-07 0.5773501 4.768372E-07
vn -4.768372E-07 0.5773501 4.768372E-07
vn -4.768372E-07 0.5773501 4.768372E-07
vn -4.768372E-07 0.5773501 4.768372E-07
vn -4.768372E-07 0.5773501 4.768372E-07
vn -4.768372E-07 0.5773501 4.768372E-07
vn -4.768372E-07 0.5773501 4.768372E-07
vn -4.768372E-07 0.5773501 4.768372E-07
vn -4.768372E-07 0 -0.5773498
vn -4.768372E-07 0 -0.5773498
vn -4.768372E-07 0 -0.5773498
vn -4.768372E-07 0 -0.5773498
vn 0.5773498 0 4.768372E-07
vn 0.5773498 0 4.768372E-07
vn 0.5773498 0 4.768372E-07
vn 0.5773498 0 4.768372E-07
vn 0.5773498 0 4.768372E-07
vn 0.5773498 0 4.768372E-07
vn 0.5773498 0 4.768372E-07
vn 0.5773498 0 4.768372E-07
vn 0.5773498 0 4.768372E-07
vn 0.5773498 0 4.768372E-07
usemtl Glass_Detailed_Lit_Medium_Mat
f 3/3/3 2/2/2 1/1/1
f 4/4/4 3/3/3 1/1/1
f 5/5/5 4/4/4 1/1/1
f 5/5/5 6/6/6 4/4/4
f 4/4/4 7/7/7 3/3/3
f 6/6/6 7/7/7 4/4/4
f 7/7/7 8/8/8 3/3/3
f 6/6/6 9/9/9 7/7/7
f 7/7/7 10/10/10 8/8/8
f 9/9/9 10/10/10 7/7/7
f 13/13/13 12/12/12 11/11/11
f 14/14/14 13/13/13 11/11/11
f 15/15/15 14/14/14 11/11/11
f 15/15/15 16/16/16 14/14/14
f 14/14/14 17/17/17 13/13/13
f 16/16/16 17/17/17 14/14/14
f 17/17/17 18/18/18 13/13/13
f 16/16/16 19/19/19 17/17/17
f 17/17/17 20/20/20 18/18/18
f 19/19/19 20/20/20 17/17/17
f 23/23/23 22/22/22 21/21/21
f 24/24/24 23/23/23 21/21/21
f 27/27/27 26/26/26 25/25/25
f 28/28/28 27/27/27 25/25/25
f 29/29/29 28/28/28 25/25/25
f 29/29/29 30/30/30 28/28/28
f 28/28/28 31/31/31 27/27/27
f 30/30/30 31/31/31 28/28/28
f 31/31/31 32/32/32 27/27/27
f 30/30/30 33/33/33 31/31/31
f 31/31/31 34/34/34 32/32/32
f 33/33/33 34/34/34 31/31/31
f 37/37/37 36/36/36 35/35/35
f 38/38/38 37/37/37 35/35/35
f 41/41/41 40/40/40 39/39/39
f 40/40/40 42/42/42 39/39/39
f 42/42/42 43/43/43 39/39/39
f 40/40/40 44/44/44 42/42/42
f 42/42/42 45/45/45 43/43/43
f 44/44/44 45/45/45 42/42/42
f 45/45/45 46/46/46 43/43/43
f 44/44/44 47/47/47 45/45/45
f 45/45/45 47/47/47 46/46/46
f 47/47/47 48/48/48 46/46/46
