mtllib material.mtl
usemtl material_0
v -0.27955000 0.15091000 -0.00221000
v -0.27955000 0.15091000 -0.01425000
v -0.27955000 0.41457000 -0.01425000
v -0.27955000 0.41457000 -0.00221000
v 0.00000000 0.41457000 -0.00221000
v -0.27955000 0.41457000 -0.00221000
v -0.27955000 0.41457000 -0.01425000
v 0.00000000 0.41457000 -0.01425000
v 0.27878000 0.41457000 -0.01425000
v 0.27878000 0.41457000 -0.00221000
v 0.00000000 0.15091000 -0.01425000
v -0.27955000 0.41457000 -0.01425000
v -0.27955000 0.15091000 -0.01425000
v 0.00000000 0.41457000 -0.01425000
v 0.27878000 0.41457000 -0.01425000
v 0.27878000 0.15091000 -0.01425000
v 0.00000000 0.15091000 -0.00221000
v -0.27955000 0.15091000 -0.01425000
v -0.27955000 0.15091000 -0.00221000
v 0.00000000 0.15091000 -0.01425000
v 0.27878000 0.15091000 -0.01425000
v 0.27878000 0.15091000 -0.00221000
v 0.00000000 0.41457000 -0.00221000
v -0.27955000 0.15091000 -0.00221000
v -0.27955000 0.41457000 -0.00221000
v 0.00000000 0.15091000 -0.00221000
v 0.27878000 0.15091000 -0.00221000
v 0.27878000 0.41457000 -0.00221000
v 0.27878000 0.15091000 -0.00221000
v 0.27878000 0.41457000 -0.00221000
v 0.27878000 0.41457000 -0.01425000
v 0.27878000 0.15091000 -0.01425000
vn -1.00000000 0.00000000 0.00000000
vn -1.00000000 0.00000000 0.00000000
vn -1.00000000 0.00000000 0.00000000
vn -1.00000000 0.00000000 0.00000000
vn 0.00000000 1.00000000 0.00000000
vn 0.00000000 1.00000000 0.00000000
vn 0.00000000 1.00000000 0.00000000
vn 0.00000000 1.00000000 0.00000000
vn 0.00000000 1.00000000 0.00000000
vn 0.00000000 1.00000000 0.00000000
vn 0.00000000 0.00000000 -1.00000000
vn 0.00000000 0.00000000 -1.00000000
vn 0.00000000 0.00000000 -1.00000000
vn 0.00000000 0.00000000 -1.00000000
vn 0.00000000 0.00000000 -1.00000000
vn 0.00000000 0.00000000 -1.00000000
vn 0.00000000 -1.00000000 -0.00000726
vn 0.00000000 -1.00000000 -0.00000725
vn 0.00000000 -1.00000000 -0.00000725
vn 0.00000000 -1.00000000 -0.00000726
vn 0.00000000 -1.00000000 -0.00000727
vn 0.00000000 -1.00000000 -0.00000727
vn 0.00000000 0.00000000 1.00000000
vn 0.00000000 0.00000000 1.00000000
vn 0.00000000 0.00000000 1.00000000
vn 0.00000000 0.00000000 1.00000000
vn 0.00000000 0.00000000 1.00000000
vn 0.00000000 0.00000000 1.00000000
vn 1.00000000 0.00000000 0.00000000
vn 1.00000000 0.00000000 0.00000000
vn 1.00000000 0.00000000 0.00000000
vn 1.00000000 0.00000000 0.00000000
vt 30.96480000 0.11858170
vt 30.95539000 0.11858170
vt 30.95539000 0.32453760
vt 30.96480000 0.32453760
vt 30.00732000 0.46679020
vt 30.00732000 0.68519230
vt 30.01673000 0.68519230
vt 30.01673000 0.46679020
vt 30.01673000 0.24899660
vt 30.00732000 0.24899660
vt 30.35276000 0.46679030
vt 30.14677000 0.68519070
vt 30.35276000 0.68519070
vt 30.14677000 0.46679030
vt 30.14677000 0.24899830
vt 30.35276000 0.24899830
vt 30.49086000 0.46679030
vt 30.48146000 0.68514170
vt 30.49086000 0.68514170
vt 30.48146000 0.46679030
vt 30.48146000 0.24904730
vt 30.49086000 0.24904730
vt 30.82670000 0.46679020
vt 30.62071000 0.68519070
vt 30.82670000 0.68519070
vt 30.62071000 0.46679020
vt 30.62071000 0.24899820
vt 30.82670000 0.24899820
vt 30.98327000 0.11855920
vt 30.98327000 0.32456010
vt 30.99268000 0.32456010
vt 30.99268000 0.11855920
f 3/3/3 2/2/2 1/1/1
f 4/4/4 3/3/3 1/1/1
f 7/7/7 6/6/6 5/5/5
f 8/8/8 7/7/7 5/5/5
f 9/9/9 8/8/8 5/5/5
f 10/10/10 9/9/9 5/5/5
f 13/13/13 12/12/12 11/11/11
f 12/12/12 14/14/14 11/11/11
f 14/14/14 15/15/15 11/11/11
f 15/15/15 16/16/16 11/11/11
f 19/19/19 18/18/18 17/17/17
f 18/18/18 20/20/20 17/17/17
f 20/20/20 21/21/21 17/17/17
f 21/21/21 22/22/22 17/17/17
f 25/25/25 24/24/24 23/23/23
f 24/24/24 26/26/26 23/23/23
f 26/26/26 27/27/27 23/23/23
f 27/27/27 28/28/28 23/23/23
f 31/31/31 30/30/30 29/29/29
f 32/32/32 31/31/31 29/29/29

