mtllib material.mtl
usemtl material_0
v -0.27275000 0.39997000 0.00071000
v -0.27025000 0.40601000 0.00071000
v -0.27025000 0.40601000 -0.01622000
v -0.27275000 0.39997000 -0.01622000
v -0.27275000 0.16551000 0.00071000
v -0.27275000 0.16551000 -0.01622000
v -0.27025000 0.15947000 0.00071000
v -0.27025000 0.15947000 -0.01622000
v -0.27025000 0.40601000 0.00071000
v -0.26421000 0.40851000 -0.01622000
v -0.27025000 0.40601000 -0.01622000
v -0.26421000 0.40851000 0.00071000
v 0.00000000 0.40851000 0.00071000
v 0.00000000 0.40851000 -0.01622000
v 0.26344000 0.40851000 -0.01622000
v 0.26344000 0.40851000 0.00071000
v 0.26948000 0.40601000 0.00071000
v 0.26948000 0.40601000 -0.01622000
v -0.26421000 0.15697000 0.00071000
v -0.27025000 0.15947000 0.00071000
v -0.27025000 0.15947000 -0.01622000
v -0.26421000 0.15697000 -0.01622000
v 0.00000000 0.15697000 0.00071000
v 0.00000000 0.15697000 -0.01622000
v 0.26344000 0.15697000 -0.01622000
v 0.26344000 0.15697000 0.00071000
v 0.26948000 0.15947000 -0.01622000
v 0.26948000 0.15947000 0.00071000
v 0.27198000 0.39997000 0.00071000
v 0.26948000 0.40601000 -0.01622000
v 0.26948000 0.40601000 0.00071000
v 0.27198000 0.39997000 -0.01622000
v 0.27198000 0.16551000 0.00071000
v 0.27198000 0.16551000 -0.01622000
v 0.26948000 0.15947000 0.00071000
v 0.26948000 0.15947000 -0.01622000
v -0.38797000 0.00445000 -0.04980000
v -0.38797000 -0.00886000 -0.05906000
v -0.38797000 -0.00886000 -0.04980000
v -0.38797000 0.00418000 -0.05906000
v -0.38797000 0.01365000 -0.04798000
v -0.38797000 0.01744000 -0.05642000
v -0.38797000 0.02608000 -0.04283000
v -0.38797000 0.02936000 -0.05148000
v -0.38797000 0.03426000 -0.03727000
v -0.38797000 0.04021000 -0.04432000
v -0.38797000 -0.00886000 -0.04980000
v -0.39951000 -0.00886000 -0.04980000
v -0.39951000 0.00445000 -0.04980000
v -0.38797000 0.00445000 -0.04980000
v -0.39951000 0.01365000 -0.04798000
v -0.38797000 0.01365000 -0.04798000
v -0.39951000 0.02608000 -0.04283000
v -0.38797000 0.02608000 -0.04283000
v -0.39951000 0.03426000 -0.03727000
v -0.38797000 0.03426000 -0.03727000
v -0.39951000 -0.00886000 -0.04980000
v -0.39951000 -0.00886000 -0.05906000
v -0.39951000 0.00418000 -0.05906000
v -0.39951000 0.00445000 -0.04980000
v -0.39951000 0.01365000 -0.04798000
v -0.39951000 0.01744000 -0.05642000
v -0.39951000 0.02936000 -0.05148000
v -0.39951000 0.02608000 -0.04283000
v -0.39951000 0.03426000 -0.03727000
v -0.39951000 0.04021000 -0.04432000
v -0.38717000 0.04228000 -0.02720000
v -0.38717000 0.04110000 -0.04538000
v -0.38717000 0.03337000 -0.03621000
v -0.38717000 0.05080000 -0.03572000
v -0.38717000 0.06392000 -0.01593000
v -0.38717000 0.05280000 -0.01132000
v -0.38717000 0.03337000 -0.03621000
v -0.40031000 0.03337000 -0.03621000
v -0.40031000 0.04228000 -0.02720000
v -0.38717000 0.04228000 -0.02720000
v -0.40031000 0.05280000 -0.01132000
v -0.38717000 0.05280000 -0.01132000
v -0.40031000 0.03337000 -0.03621000
v -0.40031000 0.04110000 -0.04538000
v -0.40031000 0.05080000 -0.03572000
v -0.40031000 0.04228000 -0.02720000
v -0.40031000 0.05280000 -0.01132000
v -0.40031000 0.06392000 -0.01593000
v -0.38797000 0.00418000 -0.05906000
v -0.39951000 -0.00886000 -0.05906000
v -0.38797000 -0.00886000 -0.05906000
v -0.39951000 0.00418000 -0.05906000
v -0.38797000 0.01744000 -0.05642000
v -0.39951000 0.01744000 -0.05642000
v -0.38797000 0.02936000 -0.05148000
v -0.39951000 0.02936000 -0.05148000
v -0.38797000 0.04021000 -0.04432000
v -0.39951000 0.04021000 -0.04432000
v -0.38717000 0.05080000 -0.03572000
v -0.40031000 0.04110000 -0.04538000
v -0.38717000 0.04110000 -0.04538000
v -0.40031000 0.05080000 -0.03572000
v -0.38717000 0.06392000 -0.01593000
v -0.40031000 0.06392000 -0.01593000
v -0.38717000 -0.02978000 -0.04127000
v -0.38717000 -0.05914000 -0.03415000
v -0.38717000 -0.05063000 -0.02563000
v -0.38717000 -0.03441000 -0.05244000
v -0.38717000 -0.01774000 -0.04664000
v -0.38717000 -0.02236000 -0.05777000
v -0.38717000 -0.00886000 -0.04841000
v -0.38717000 -0.00886000 -0.06045000
v -0.40031000 -0.02978000 -0.04127000
v -0.38717000 -0.05063000 -0.02563000
v -0.40031000 -0.05063000 -0.02563000
v -0.38717000 -0.02978000 -0.04127000
v -0.40031000 -0.01774000 -0.04664000
v -0.38717000 -0.01774000 -0.04664000
v -0.40031000 -0.00886000 -0.04841000
v -0.38717000 -0.00886000 -0.04841000
v -0.40031000 -0.02978000 -0.04127000
v -0.40031000 -0.05063000 -0.02563000
v -0.40031000 -0.05914000 -0.03415000
v -0.40031000 -0.03441000 -0.05244000
v -0.40031000 -0.02236000 -0.05777000
v -0.40031000 -0.01774000 -0.04664000
v -0.40031000 -0.00886000 -0.04841000
v -0.40031000 -0.00886000 -0.06045000
v -0.38717000 -0.00886000 -0.06045000
v -0.40031000 -0.00886000 -0.06045000
v -0.40031000 -0.02236000 -0.05777000
v -0.38717000 -0.02236000 -0.05777000
v -0.40031000 -0.03441000 -0.05244000
v -0.38717000 -0.03441000 -0.05244000
v -0.40031000 -0.05914000 -0.03415000
v -0.38717000 -0.05914000 -0.03415000
v -0.38717000 0.04110000 -0.04538000
v -0.38797000 0.03426000 -0.03727000
v -0.38717000 0.03337000 -0.03621000
v -0.38797000 0.04021000 -0.04432000
v -0.40031000 0.04110000 -0.04538000
v -0.39951000 0.04021000 -0.04432000
v -0.40031000 0.03337000 -0.03621000
v -0.39951000 0.03426000 -0.03727000
v -0.38717000 0.03337000 -0.03621000
v -0.38797000 0.03426000 -0.03727000
v -0.39951000 0.03426000 -0.03727000
v -0.40031000 0.03337000 -0.03621000
v 0.38633000 0.00445000 -0.04980000
v 0.38633000 -0.00886000 -0.04980000
v 0.38633000 -0.00886000 -0.05906000
v 0.38633000 0.00418000 -0.05906000
v 0.38633000 0.01365000 -0.04798000
v 0.38633000 0.01744000 -0.05642000
v 0.38633000 0.02608000 -0.04283000
v 0.38633000 0.02936000 -0.05148000
v 0.38633000 0.03426000 -0.03727000
v 0.38633000 0.04021000 -0.04432000
v 0.38633000 -0.00886000 -0.04980000
v 0.39788000 0.00445000 -0.04980000
v 0.39788000 -0.00886000 -0.04980000
v 0.38633000 0.00445000 -0.04980000
v 0.39788000 0.01365000 -0.04798000
v 0.38633000 0.01365000 -0.04798000
v 0.39788000 0.02608000 -0.04283000
v 0.38633000 0.02608000 -0.04283000
v 0.39788000 0.03426000 -0.03727000
v 0.38633000 0.03426000 -0.03727000
v 0.39788000 -0.00886000 -0.04980000
v 0.39788000 0.00418000 -0.05906000
v 0.39788000 -0.00886000 -0.05906000
v 0.39788000 0.00445000 -0.04980000
v 0.39788000 0.01365000 -0.04798000
v 0.39788000 0.01744000 -0.05642000
v 0.39788000 0.02936000 -0.05148000
v 0.39788000 0.02608000 -0.04283000
v 0.39788000 0.03426000 -0.03727000
v 0.39788000 0.04021000 -0.04432000
v 0.38554000 0.04228000 -0.02720000
v 0.38554000 0.03337000 -0.03621000
v 0.38554000 0.04110000 -0.04538000
v 0.38554000 0.05080000 -0.03572000
v 0.38554000 0.06392000 -0.01593000
v 0.38554000 0.05280000 -0.01132000
v 0.38554000 0.03337000 -0.03621000
v 0.39867000 0.04228000 -0.02720000
v 0.39867000 0.03337000 -0.03621000
v 0.38554000 0.04228000 -0.02720000
v 0.39867000 0.05280000 -0.01132000
v 0.38554000 0.05280000 -0.01132000
v 0.39867000 0.03337000 -0.03621000
v 0.39867000 0.05080000 -0.03572000
v 0.39867000 0.04110000 -0.04538000
v 0.39867000 0.04228000 -0.02720000
v 0.39867000 0.05280000 -0.01132000
v 0.39867000 0.06392000 -0.01593000
v 0.38633000 0.00418000 -0.05906000
v 0.38633000 -0.00886000 -0.05906000
v 0.39788000 -0.00886000 -0.05906000
v 0.39788000 0.00418000 -0.05906000
v 0.38633000 0.01744000 -0.05642000
v 0.39788000 0.01744000 -0.05642000
v 0.38633000 0.02936000 -0.05148000
v 0.39788000 0.02936000 -0.05148000
v 0.38633000 0.04021000 -0.04432000
v 0.39788000 0.04021000 -0.04432000
v 0.38554000 0.05080000 -0.03572000
v 0.38554000 0.04110000 -0.04538000
v 0.39867000 0.04110000 -0.04538000
v 0.39867000 0.05080000 -0.03572000
v 0.38554000 0.06392000 -0.01593000
v 0.39867000 0.06392000 -0.01593000
v 0.38554000 -0.02978000 -0.04127000
v 0.38554000 -0.05063000 -0.02563000
v 0.38554000 -0.05914000 -0.03415000
v 0.38554000 -0.03441000 -0.05244000
v 0.38554000 -0.01774000 -0.04664000
v 0.38554000 -0.02236000 -0.05777000
v 0.38554000 -0.00886000 -0.04841000
v 0.38554000 -0.00886000 -0.06045000
v 0.39867000 -0.02978000 -0.04127000
v 0.39867000 -0.05063000 -0.02563000
v 0.38554000 -0.05063000 -0.02563000
v 0.38554000 -0.02978000 -0.04127000
v 0.39867000 -0.01774000 -0.04664000
v 0.38554000 -0.01774000 -0.04664000
v 0.39867000 -0.00886000 -0.04841000
v 0.38554000 -0.00886000 -0.04841000
v 0.39867000 -0.02978000 -0.04127000
v 0.39867000 -0.05914000 -0.03415000
v 0.39867000 -0.05063000 -0.02563000
v 0.39867000 -0.03441000 -0.05244000
v 0.39867000 -0.02236000 -0.05777000
v 0.39867000 -0.01774000 -0.04664000
v 0.39867000 -0.00886000 -0.04841000
v 0.39867000 -0.00886000 -0.06045000
v 0.38554000 -0.00886000 -0.06045000
v 0.39867000 -0.02236000 -0.05777000
v 0.39867000 -0.00886000 -0.06045000
v 0.38554000 -0.02236000 -0.05777000
v 0.39867000 -0.03441000 -0.05244000
v 0.38554000 -0.03441000 -0.05244000
v 0.39867000 -0.05914000 -0.03415000
v 0.38554000 -0.05914000 -0.03415000
v 0.38554000 0.04110000 -0.04538000
v 0.38554000 0.03337000 -0.03621000
v 0.38633000 0.03426000 -0.03727000
v 0.38633000 0.04021000 -0.04432000
v 0.39867000 0.04110000 -0.04538000
v 0.39788000 0.04021000 -0.04432000
v 0.39867000 0.03337000 -0.03621000
v 0.39788000 0.03426000 -0.03727000
v 0.38554000 0.03337000 -0.03621000
v 0.39867000 0.03337000 -0.03621000
v 0.39788000 0.03426000 -0.03727000
v 0.38633000 0.03426000 -0.03727000
v 0.35387000 0.46049000 -0.02238000
v 0.34814000 0.46340000 -0.01761000
v 0.35454000 0.46212000 -0.01761000
v 0.34844000 0.46157000 -0.02238000
v 0.35454000 0.46212000 -0.02715000
v 0.34814000 0.46340000 -0.02715000
v 0.00005000 0.46340000 -0.02715000
v 0.00005000 0.46157000 -0.02238000
v 0.00005000 0.46340000 -0.01761000
v -0.33077000 0.46340000 -0.01761000
v -0.33108000 0.46157000 -0.02238000
v -0.33077000 0.46340000 -0.02715000
v -0.33718000 0.46212000 -0.02715000
v -0.33651000 0.46049000 -0.02238000
v -0.33718000 0.46212000 -0.01761000
v 0.35387000 0.05217000 -0.02238000
v 0.36062000 0.05460000 -0.01761000
v 0.35454000 0.05054000 -0.01761000
v 0.35937000 0.05585000 -0.02238000
v 0.35454000 0.05054000 -0.02715000
v 0.36468000 0.06067000 -0.01761000
v 0.36062000 0.05460000 -0.02715000
v 0.36305000 0.06135000 -0.02238000
v 0.36468000 0.06067000 -0.02715000
v 0.36599000 0.06746000 -0.01765000
v 0.36424000 0.06738000 -0.02238000
v 0.36599000 0.06746000 -0.02711000
v 0.36599000 0.44520000 -0.02711000
v 0.36424000 0.44528000 -0.02238000
v 0.36599000 0.44520000 -0.01765000
v 0.36468000 0.45199000 -0.01761000
v 0.36305000 0.45131000 -0.02238000
v 0.36468000 0.45199000 -0.02715000
v 0.36062000 0.45806000 -0.01761000
v 0.35937000 0.45681000 -0.02238000
v 0.35454000 0.46212000 -0.01761000
v 0.36062000 0.45806000 -0.02715000
v 0.35387000 0.46049000 -0.02238000
v 0.35454000 0.46212000 -0.02715000
v 0.36646000 0.46391000 -0.01761000
v 0.35771000 0.46976000 -0.01761000
v 0.35838000 0.47139000 -0.02238000
v 0.36771000 0.46516000 -0.02238000
v 0.35771000 0.46976000 -0.02715000
v 0.37232000 0.45515000 -0.01761000
v 0.36646000 0.46391000 -0.02715000
v 0.37395000 0.45583000 -0.02238000
v 0.37232000 0.45515000 -0.02715000
v 0.37448000 0.44445000 -0.01765000
v 0.37623000 0.44437000 -0.02238000
v 0.37448000 0.44445000 -0.02711000
v 0.37448000 0.06822000 -0.02711000
v 0.37623000 0.06830000 -0.02238000
v 0.37448000 0.06822000 -0.01765000
v 0.37232000 0.05751000 -0.01761000
v 0.37395000 0.05683000 -0.02238000
v 0.37232000 0.05751000 -0.02715000
v 0.36646000 0.04875000 -0.01761000
v 0.36771000 0.04750000 -0.02238000
v 0.35771000 0.04290000 -0.01761000
v 0.36646000 0.04875000 -0.02715000
v 0.35838000 0.04127000 -0.02238000
v 0.35771000 0.04290000 -0.02715000
v 0.34663000 0.04070000 -0.01761000
v 0.35771000 0.04290000 -0.01761000
v 0.35838000 0.04127000 -0.02238000
v 0.34632000 0.03887000 -0.02238000
v 0.35771000 0.04290000 -0.02715000
v 0.34663000 0.04070000 -0.02715000
v 0.00005000 0.04070000 -0.02715000
v 0.00005000 0.03887000 -0.02238000
v 0.00005000 0.04070000 -0.01761000
v -0.32926000 0.04070000 -0.01761000
v -0.32896000 0.03887000 -0.02238000
v -0.32926000 0.04070000 -0.02715000
v -0.34035000 0.04290000 -0.02715000
v -0.34102000 0.04127000 -0.02238000
v -0.34035000 0.04290000 -0.01761000
v 0.35838000 0.47139000 -0.02238000
v 0.34663000 0.47196000 -0.02715000
v 0.35771000 0.46976000 -0.02715000
v 0.34632000 0.47379000 -0.02238000
v 0.35771000 0.46976000 -0.01761000
v 0.34663000 0.47196000 -0.01761000
v 0.00005000 0.47196000 -0.01761000
v 0.00005000 0.47379000 -0.02238000
v 0.00005000 0.47196000 -0.02715000
v -0.32926000 0.47196000 -0.02715000
v -0.32896000 0.47379000 -0.02238000
v -0.32926000 0.47196000 -0.01761000
v -0.34035000 0.46976000 -0.01761000
v -0.34102000 0.47139000 -0.02238000
v -0.34035000 0.46976000 -0.02715000
v 0.34814000 0.04927000 -0.02715000
v 0.35454000 0.05054000 -0.02715000
v 0.35387000 0.05217000 -0.02238000
v 0.34844000 0.05109000 -0.02238000
v 0.35454000 0.05054000 -0.01761000
v 0.34814000 0.04927000 -0.01761000
v 0.00005000 0.04927000 -0.01761000
v 0.00005000 0.05109000 -0.02238000
v 0.00005000 0.04927000 -0.02715000
v -0.33077000 0.04927000 -0.02715000
v -0.33108000 0.05109000 -0.02238000
v -0.33077000 0.04927000 -0.01761000
v -0.33718000 0.05054000 -0.01761000
v -0.33651000 0.05217000 -0.02238000
v -0.33718000 0.05054000 -0.02715000
v -0.33651000 0.05217000 -0.02238000
v -0.33718000 0.05054000 -0.01761000
v -0.34326000 0.05460000 -0.01761000
v -0.34201000 0.05585000 -0.02238000
v -0.33718000 0.05054000 -0.02715000
v -0.34732000 0.06067000 -0.01761000
v -0.34326000 0.05460000 -0.02715000
v -0.34568000 0.06135000 -0.02238000
v -0.34732000 0.06067000 -0.02715000
v -0.34863000 0.06746000 -0.01765000
v -0.34688000 0.06738000 -0.02238000
v -0.34863000 0.06746000 -0.02711000
v -0.34863000 0.44520000 -0.02711000
v -0.34688000 0.44528000 -0.02238000
v -0.34863000 0.44520000 -0.01765000
v -0.34732000 0.45199000 -0.01761000
v -0.34568000 0.45131000 -0.02238000
v -0.34732000 0.45199000 -0.02715000
v -0.34326000 0.45806000 -0.01761000
v -0.34201000 0.45681000 -0.02238000
v -0.33718000 0.46212000 -0.01761000
v -0.34326000 0.45806000 -0.02715000
v -0.33651000 0.46049000 -0.02238000
v -0.33718000 0.46212000 -0.02715000
v -0.34910000 0.46391000 -0.01761000
v -0.34102000 0.47139000 -0.02238000
v -0.34035000 0.46976000 -0.01761000
v -0.35035000 0.46516000 -0.02238000
v -0.34035000 0.46976000 -0.02715000
v -0.35495000 0.45515000 -0.01761000
v -0.34910000 0.46391000 -0.02715000
v -0.35659000 0.45583000 -0.02238000
v -0.35495000 0.45515000 -0.02715000
v -0.35712000 0.44445000 -0.01765000
v -0.35887000 0.44437000 -0.02238000
v -0.35712000 0.44445000 -0.02711000
v -0.35712000 0.06822000 -0.02711000
v -0.35887000 0.06830000 -0.02238000
v -0.35712000 0.06822000 -0.01765000
v -0.35495000 0.05751000 -0.01761000
v -0.35659000 0.05683000 -0.02238000
v -0.35495000 0.05751000 -0.02715000
v -0.34910000 0.04875000 -0.01761000
v -0.35035000 0.04750000 -0.02238000
v -0.34035000 0.04290000 -0.01761000
v -0.34910000 0.04875000 -0.02715000
v -0.34102000 0.04127000 -0.02238000
v -0.34035000 0.04290000 -0.02715000
v -0.29757000 0.12344000 -0.01623000
v 0.00000000 0.12344000 -0.01606000
v 0.00000000 0.15697000 -0.01622000
v 0.29681000 0.12344000 -0.01623000
v -0.26421000 0.15697000 -0.01622000
v 0.26344000 0.15697000 -0.01622000
v -0.30361000 0.12594000 -0.01623000
v 0.30284000 0.12594000 -0.01623000
v -0.27025000 0.15947000 -0.01622000
v 0.26948000 0.15947000 -0.01622000
v -0.30611000 0.13198000 -0.01623000
v 0.30534000 0.13198000 -0.01623000
v -0.27275000 0.16551000 -0.01622000
v 0.27198000 0.16551000 -0.01622000
v -0.30611000 0.43080000 -0.01623000
v 0.30534000 0.43080000 -0.01623000
v -0.27275000 0.39997000 -0.01622000
v 0.27198000 0.39997000 -0.01622000
v -0.30361000 0.43684000 -0.01623000
v 0.30284000 0.43684000 -0.01623000
v -0.27025000 0.40601000 -0.01622000
v 0.26948000 0.40601000 -0.01622000
v -0.29757000 0.43934000 -0.01623000
v -0.26421000 0.40851000 -0.01622000
v 0.29681000 0.43934000 -0.01623000
v 0.26344000 0.40851000 -0.01622000
v 0.00000000 0.40851000 -0.01622000
v 0.00000000 0.43934000 -0.01606000
v -0.26421000 0.15697000 0.00071000
v 0.00000000 0.15697000 0.00071000
v 0.00000000 0.12344000 0.00071000
v 0.26344000 0.15697000 0.00071000
v -0.29757000 0.12344000 0.00071000
v 0.29681000 0.12344000 0.00071000
v -0.27025000 0.15947000 0.00071000
v 0.26948000 0.15947000 0.00071000
v -0.30361000 0.12594000 0.00071000
v 0.30284000 0.12594000 0.00071000
v -0.27275000 0.16551000 0.00071000
v 0.27198000 0.16551000 0.00071000
v -0.30611000 0.13198000 0.00071000
v 0.30534000 0.13198000 0.00071000
v -0.27275000 0.39997000 0.00071000
v 0.27198000 0.39997000 0.00071000
v -0.30611000 0.43080000 0.00071000
v 0.30534000 0.43080000 0.00071000
v -0.27025000 0.40601000 0.00071000
v 0.26948000 0.40601000 0.00071000
v -0.30361000 0.43684000 0.00071000
v 0.30284000 0.43684000 0.00071000
v -0.26421000 0.40851000 0.00071000
v 0.26344000 0.40851000 0.00071000
v -0.29757000 0.43934000 0.00071000
v 0.29681000 0.43934000 0.00071000
v 0.00000000 0.40851000 0.00071000
v 0.00000000 0.43934000 0.00071000
v 0.34738000 0.46768000 -0.01569000
v 0.00005000 0.46340000 -0.01761000
v 0.00005000 0.46768000 -0.01569000
v -0.33002000 0.46768000 -0.01569000
v 0.34814000 0.46340000 -0.01761000
v -0.33077000 0.46340000 -0.01761000
v 0.35454000 0.46212000 -0.01761000
v -0.33718000 0.46212000 -0.01761000
v 0.35613000 0.46594000 -0.01569000
v -0.33877000 0.46594000 -0.01569000
v 0.36062000 0.45806000 -0.01761000
v -0.34326000 0.45806000 -0.01761000
v 0.36354000 0.46099000 -0.01569000
v -0.34618000 0.46099000 -0.01569000
v 0.36468000 0.45199000 -0.01761000
v -0.34732000 0.45199000 -0.01761000
v 0.36850000 0.45357000 -0.01569000
v -0.35114000 0.45357000 -0.01569000
v 0.36599000 0.44520000 -0.01765000
v 0.37024000 0.44482000 -0.01569000
v -0.34863000 0.44520000 -0.01765000
v -0.35288000 0.44482000 -0.01569000
v 0.37024000 0.06784000 -0.01569000
v 0.36599000 0.06746000 -0.01765000
v 0.36468000 0.06067000 -0.01761000
v 0.36850000 0.05909000 -0.01569000
v 0.36062000 0.05460000 -0.01761000
v 0.36354000 0.05168000 -0.01569000
v 0.35454000 0.05054000 -0.01761000
v 0.35613000 0.04672000 -0.01569000
v -0.35288000 0.06784000 -0.01569000
v -0.34863000 0.06746000 -0.01765000
v -0.34732000 0.06067000 -0.01761000
v -0.35114000 0.05909000 -0.01569000
v -0.34326000 0.05460000 -0.01761000
v -0.34618000 0.05168000 -0.01569000
v -0.33718000 0.05054000 -0.01761000
v -0.33877000 0.04672000 -0.01569000
v 0.34814000 0.04927000 -0.01761000
v 0.34738000 0.04498000 -0.01569000
v -0.33077000 0.04927000 -0.01761000
v -0.33002000 0.04498000 -0.01569000
v 0.00005000 0.04498000 -0.01569000
v 0.00005000 0.04927000 -0.01761000
v 0.34663000 0.47196000 -0.01761000
v 0.00005000 0.46768000 -0.01569000
v 0.00005000 0.47196000 -0.01761000
v -0.32926000 0.47196000 -0.01761000
v 0.34738000 0.46768000 -0.01569000
v -0.33002000 0.46768000 -0.01569000
v 0.35613000 0.46594000 -0.01569000
v -0.33877000 0.46594000 -0.01569000
v 0.35771000 0.46976000 -0.01761000
v -0.34035000 0.46976000 -0.01761000
v 0.36354000 0.46099000 -0.01569000
v -0.34618000 0.46099000 -0.01569000
v 0.36646000 0.46391000 -0.01761000
v -0.34910000 0.46391000 -0.01761000
v 0.36850000 0.45357000 -0.01569000
v -0.35114000 0.45357000 -0.01569000
v 0.37232000 0.45515000 -0.01761000
v -0.35495000 0.45515000 -0.01761000
v 0.37024000 0.44482000 -0.01569000
v 0.37448000 0.44445000 -0.01765000
v -0.35288000 0.44482000 -0.01569000
v -0.35712000 0.44445000 -0.01765000
v 0.37448000 0.06822000 -0.01765000
v 0.37024000 0.06784000 -0.01569000
v 0.36850000 0.05909000 -0.01569000
v 0.37232000 0.05751000 -0.01761000
v 0.36354000 0.05168000 -0.01569000
v 0.36646000 0.04875000 -0.01761000
v 0.35613000 0.04672000 -0.01569000
v 0.35771000 0.04290000 -0.01761000
v -0.35712000 0.06822000 -0.01765000
v -0.35288000 0.06784000 -0.01569000
v -0.35114000 0.05909000 -0.01569000
v -0.35495000 0.05751000 -0.01761000
v -0.34618000 0.05168000 -0.01569000
v -0.34910000 0.04875000 -0.01761000
v -0.33877000 0.04672000 -0.01569000
v -0.34035000 0.04290000 -0.01761000
v 0.34738000 0.04498000 -0.01569000
v 0.34663000 0.04070000 -0.01761000
v -0.33002000 0.04498000 -0.01569000
v -0.32926000 0.04070000 -0.01761000
v 0.00005000 0.04070000 -0.01761000
v 0.00005000 0.04498000 -0.01569000
v 0.34738000 0.46768000 -0.02907000
v 0.00005000 0.47196000 -0.02715000
v 0.00005000 0.46768000 -0.02907000
v -0.33002000 0.46768000 -0.02907000
v 0.34663000 0.47196000 -0.02715000
v -0.32926000 0.47196000 -0.02715000
v 0.35771000 0.46976000 -0.02715000
v -0.34035000 0.46976000 -0.02715000
v 0.35613000 0.46594000 -0.02907000
v -0.33877000 0.46594000 -0.02907000
v 0.36646000 0.46391000 -0.02715000
v -0.34910000 0.46391000 -0.02715000
v 0.36354000 0.46099000 -0.02907000
v -0.34618000 0.46099000 -0.02907000
v 0.37232000 0.45515000 -0.02715000
v -0.35495000 0.45515000 -0.02715000
v 0.36850000 0.45357000 -0.02907000
v -0.35114000 0.45357000 -0.02907000
v 0.37448000 0.44445000 -0.02711000
v 0.37024000 0.44482000 -0.02907000
v -0.35712000 0.44445000 -0.02711000
v -0.35288000 0.44482000 -0.02907000
v 0.37024000 0.06784000 -0.02907000
v 0.37448000 0.06822000 -0.02711000
v 0.37232000 0.05751000 -0.02715000
v 0.36850000 0.05909000 -0.02907000
v 0.36646000 0.04875000 -0.02715000
v 0.36354000 0.05168000 -0.02907000
v 0.35771000 0.04290000 -0.02715000
v 0.35613000 0.04672000 -0.02907000
v -0.35288000 0.06784000 -0.02907000
v -0.35712000 0.06822000 -0.02711000
v -0.35495000 0.05751000 -0.02715000
v -0.35114000 0.05909000 -0.02907000
v -0.34910000 0.04875000 -0.02715000
v -0.34618000 0.05168000 -0.02907000
v -0.34035000 0.04290000 -0.02715000
v -0.33877000 0.04672000 -0.02907000
v 0.34663000 0.04070000 -0.02715000
v 0.34738000 0.04498000 -0.02907000
v -0.32926000 0.04070000 -0.02715000
v -0.33002000 0.04498000 -0.02907000
v 0.00005000 0.04498000 -0.02907000
v 0.00005000 0.04070000 -0.02715000
v 0.34814000 0.46340000 -0.02715000
v 0.00005000 0.46768000 -0.02907000
v 0.00005000 0.46340000 -0.02715000
v -0.33077000 0.46340000 -0.02715000
v 0.34738000 0.46768000 -0.02907000
v -0.33002000 0.46768000 -0.02907000
v 0.35613000 0.46594000 -0.02907000
v -0.33877000 0.46594000 -0.02907000
v 0.35454000 0.46212000 -0.02715000
v -0.33718000 0.46212000 -0.02715000
v 0.36354000 0.46099000 -0.02907000
v -0.34618000 0.46099000 -0.02907000
v 0.36062000 0.45806000 -0.02715000
v -0.34326000 0.45806000 -0.02715000
v 0.36850000 0.45357000 -0.02907000
v -0.35114000 0.45357000 -0.02907000
v 0.36468000 0.45199000 -0.02715000
v -0.34732000 0.45199000 -0.02715000
v 0.37024000 0.44482000 -0.02907000
v 0.36599000 0.44520000 -0.02711000
v -0.35288000 0.44482000 -0.02907000
v -0.34863000 0.44520000 -0.02711000
v 0.36599000 0.06746000 -0.02711000
v 0.37024000 0.06784000 -0.02907000
v 0.36850000 0.05909000 -0.02907000
v 0.36468000 0.06067000 -0.02715000
v 0.36354000 0.05168000 -0.02907000
v 0.36062000 0.05460000 -0.02715000
v 0.35613000 0.04672000 -0.02907000
v 0.35454000 0.05054000 -0.02715000
v -0.34863000 0.06746000 -0.02711000
v -0.35288000 0.06784000 -0.02907000
v -0.35114000 0.05909000 -0.02907000
v -0.34732000 0.06067000 -0.02715000
v -0.34618000 0.05168000 -0.02907000
v -0.34326000 0.05460000 -0.02715000
v -0.33877000 0.04672000 -0.02907000
v -0.33718000 0.05054000 -0.02715000
v 0.34738000 0.04498000 -0.02907000
v 0.34814000 0.04927000 -0.02715000
v -0.33002000 0.04498000 -0.02907000
v -0.33077000 0.04927000 -0.02715000
v 0.00005000 0.04927000 -0.02715000
v 0.00005000 0.04498000 -0.02907000
v -0.38717000 -0.00886000 -0.04841000
v -0.38797000 -0.00886000 -0.04980000
v -0.38797000 -0.00886000 -0.05906000
v -0.38717000 -0.00886000 -0.06045000
v -0.40031000 -0.00886000 -0.04841000
v -0.39951000 -0.00886000 -0.05906000
v -0.39951000 -0.00886000 -0.04980000
v -0.40031000 -0.00886000 -0.06045000
v 0.38554000 -0.00886000 -0.04841000
v 0.38554000 -0.00886000 -0.06045000
v 0.38633000 -0.00886000 -0.05906000
v 0.38633000 -0.00886000 -0.04980000
v 0.39788000 -0.00886000 -0.05906000
v 0.39867000 -0.00886000 -0.04841000
v 0.39867000 -0.00886000 -0.06045000
v 0.39788000 -0.00886000 -0.04980000
vn 0.99994600 -0.01039862 0.00000105
vn 0.92387910 -0.38268450 -0.00000172
vn 0.92387910 -0.38268450 -0.00000172
vn 0.99994600 -0.01039873 0.00000105
vn 0.99994600 0.01039857 0.00000105
vn 0.99994600 0.01039858 0.00000105
vn 0.92387790 0.38268750 -0.00000172
vn 0.92387790 0.38268750 -0.00000172
vn 0.38268370 -0.92387940 -0.00000689
vn 0.00925361 -0.99995720 -0.00000620
vn 0.38268360 -0.92387940 -0.00000689
vn 0.00925370 -0.99995720 -0.00000620
vn 0.00000000 -1.00000000 -0.00000583
vn 0.00000000 -1.00000000 -0.00000583
vn -0.00928038 -0.99995700 -0.00000543
vn -0.00928042 -0.99995700 -0.00000543
vn -0.38268240 -0.92387990 -0.00000345
vn -0.38268240 -0.92387990 -0.00000345
vn 0.00925376 0.99995720 -0.00000013
vn 0.38268370 0.92387940 -0.00000517
vn 0.38268360 0.92387940 -0.00000517
vn 0.00925384 0.99995720 -0.00000013
vn 0.00000000 1.00000000 0.00000042
vn 0.00000000 1.00000000 0.00000042
vn -0.00928055 0.99995700 0.00000071
vn -0.00928053 0.99995700 0.00000071
vn -0.38268240 0.92387990 -0.00000435
vn -0.38268240 0.92387990 -0.00000435
vn -0.99994600 -0.01039853 0.00000105
vn -0.92388010 -0.38268190 -0.00000172
vn -0.92388010 -0.38268190 -0.00000172
vn -0.99994600 -0.01039864 0.00000105
vn -0.99994600 0.01039847 0.00000105
vn -0.99994600 0.01039848 0.00000105
vn -0.92387920 0.38268430 -0.00000172
vn -0.92387920 0.38268420 -0.00000172
vn 1.00000000 0.00000000 0.00000000
vn 1.00000000 0.00000000 0.00000000
vn 1.00000000 0.00000000 0.00000000
vn 1.00000000 0.00000000 0.00000000
vn 1.00000000 0.00000000 0.00000000
vn 1.00000000 0.00000000 0.00000000
vn 1.00000000 0.00000000 0.00000000
vn 1.00000000 0.00000000 0.00000000
vn 1.00000000 0.00000000 0.00000000
vn 1.00000000 0.00000000 0.00000000
vn 0.00000000 0.00000000 1.00000000
vn 0.00000000 0.00000000 1.00000000
vn 0.00000000 -0.08097451 0.99671630
vn 0.00000000 -0.08097451 0.99671630
vn 0.00000000 -0.30708160 0.95168320
vn 0.00000000 -0.30708160 0.95168320
vn 0.00000000 -0.46092910 0.88743700
vn 0.00000000 -0.46092910 0.88743700
vn 0.00000000 -0.56176120 0.82729950
vn 0.00000000 -0.56176120 0.82729950
vn -1.00000000 0.00000000 0.00000000
vn -1.00000000 0.00000000 0.00000000
vn -1.00000000 -0.00000058 0.00000000
vn -1.00000000 -0.00000069 0.00000000
vn -1.00000000 -0.00000069 0.00000000
vn -1.00000000 -0.00000058 0.00000000
vn -1.00000000 0.00000077 0.00000000
vn -1.00000000 0.00000092 0.00000000
vn -1.00000000 0.00000183 0.00000000
vn -1.00000000 0.00000183 0.00000000
vn 1.00000000 0.00000000 0.00000000
vn 1.00000000 0.00000000 0.00000000
vn 1.00000000 0.00000000 0.00000000
vn 1.00000000 0.00000000 0.00000000
vn 1.00000000 0.00000000 0.00000000
vn 1.00000000 0.00000000 0.00000000
vn -0.00000165 -0.71103330 0.70315820
vn -0.00000165 -0.71103350 0.70315810
vn -0.00000066 -0.78831070 0.61527750
vn -0.00000066 -0.78831070 0.61527750
vn 0.00000000 -0.83371970 0.55218770
vn 0.00000000 -0.83371970 0.55218770
vn -1.00000000 -0.00000241 0.00000000
vn -1.00000000 -0.00000241 0.00000000
vn -1.00000000 0.00000075 0.00000000
vn -1.00000000 0.00000108 0.00000000
vn -1.00000000 0.00000302 0.00000000
vn -1.00000000 0.00000302 0.00000000
vn 0.00000000 0.09979432 -0.99500810
vn 0.00000000 0.00000000 -1.00000000
vn 0.00000000 0.00000000 -1.00000000
vn 0.00000000 0.09979432 -0.99500810
vn 0.00000000 0.28807200 -0.95760880
vn 0.00000000 0.28807200 -0.95760880
vn 0.00000000 0.46918360 -0.88310060
vn 0.00000000 0.46918360 -0.88310060
vn 0.00000000 0.55083190 -0.83461620
vn 0.00000000 0.55083190 -0.83461620
vn -0.00000065 0.79051450 -0.61244320
vn 0.00000036 0.70601110 -0.70820080
vn 0.00000036 0.70601110 -0.70820080
vn -0.00000065 0.79051430 -0.61244340
vn -0.00000122 0.83337280 -0.55271120
vn -0.00000122 0.83337280 -0.55271120
vn 1.00000000 -0.00000106 -0.00000040
vn 1.00000000 -0.00000341 -0.00000092
vn 1.00000000 -0.00000341 -0.00000092
vn 1.00000000 -0.00000043 -0.00000026
vn 1.00000000 0.00000111 0.00000138
vn 1.00000000 0.00000152 0.00000133
vn 1.00000000 -0.00000283 0.00000191
vn 1.00000000 -0.00000283 0.00000191
vn 0.00000000 0.53846790 0.84264590
vn 0.00000000 0.60008250 0.79993810
vn 0.00000000 0.60008250 0.79993810
vn 0.00000000 0.53846810 0.84264590
vn 0.00000000 0.32309350 0.94636710
vn 0.00000000 0.32309350 0.94636710
vn 0.00000000 0.19509910 0.98078350
vn 0.00000000 0.19509910 0.98078350
vn -1.00000000 0.00000069 0.00000000
vn -1.00000000 0.00000000 0.00000000
vn -1.00000000 0.00000000 0.00000000
vn -1.00000000 0.00000087 0.00000000
vn -1.00000000 0.00000076 0.00000000
vn -1.00000000 0.00000055 0.00000000
vn -1.00000000 -0.00000142 0.00000000
vn -1.00000000 -0.00000142 0.00000000
vn 0.00000000 -0.19508600 -0.98078610
vn 0.00000000 -0.19508600 -0.98078610
vn 0.00000000 -0.29938850 -0.95413130
vn 0.00000000 -0.29938850 -0.95413130
vn 0.00000000 -0.54037050 -0.84142730
vn 0.00000000 -0.54037050 -0.84142730
vn 0.00000000 -0.59460260 -0.80401970
vn 0.00000000 -0.59460260 -0.80401970
vn -0.00000611 -0.76485340 -0.64420430
vn -0.00001058 -0.76487060 -0.64418390
vn -0.00000611 -0.76487430 -0.64417950
vn -0.00001058 -0.76485450 -0.64420310
vn -0.00000334 -0.76485270 -0.64420510
vn -0.00000518 -0.76485320 -0.64420460
vn -0.00000334 -0.76487370 -0.64418020
vn -0.00000518 -0.76486930 -0.64418550
vn -0.00000611 -0.76487430 -0.64417950
vn -0.00001058 -0.76487060 -0.64418390
vn -0.00000518 -0.76486930 -0.64418550
vn -0.00000334 -0.76487370 -0.64418020
vn -1.00000000 -0.00000069 0.00000000
vn -1.00000000 0.00000000 0.00000000
vn -1.00000000 0.00000000 0.00000000
vn -1.00000000 -0.00000058 0.00000000
vn -1.00000000 -0.00000226 0.00000000
vn -1.00000000 -0.00000240 0.00000000
vn -1.00000000 -0.00000248 0.00000000
vn -1.00000000 -0.00000259 0.00000000
vn -1.00000000 -0.00000183 0.00000000
vn -1.00000000 -0.00000183 0.00000000
vn 0.00000000 0.00000000 1.00000000
vn 0.00000000 -0.08097427 0.99671630
vn 0.00000000 0.00000000 1.00000000
vn 0.00000000 -0.08097427 0.99671630
vn 0.00000000 -0.30708040 0.95168360
vn 0.00000000 -0.30708040 0.95168360
vn 0.00000000 -0.46092840 0.88743730
vn 0.00000000 -0.46092840 0.88743730
vn 0.00000000 -0.56176230 0.82729870
vn 0.00000000 -0.56176230 0.82729870
vn 1.00000000 0.00000000 0.00000000
vn 1.00000000 0.00000154 0.00000000
vn 1.00000000 0.00000000 0.00000000
vn 1.00000000 0.00000184 0.00000000
vn 1.00000000 0.00000105 0.00000000
vn 1.00000000 0.00000062 0.00000000
vn 1.00000000 0.00000063 0.00000000
vn 1.00000000 0.00000105 0.00000000
vn 1.00000000 0.00000366 0.00000000
vn 1.00000000 0.00000366 0.00000000
vn -1.00000000 -0.00000011 0.00000000
vn -1.00000000 0.00000241 0.00000000
vn -1.00000000 0.00000241 0.00000000
vn -1.00000000 0.00000013 0.00000000
vn -1.00000000 -0.00000151 0.00000000
vn -1.00000000 -0.00000151 0.00000000
vn 0.00000115 -0.71103460 0.70315700
vn 0.00000046 -0.78831100 0.61527700
vn 0.00000115 -0.71103450 0.70315700
vn 0.00000046 -0.78831100 0.61527700
vn 0.00000000 -0.83371970 0.55218770
vn 0.00000000 -0.83371970 0.55218770
vn 1.00000000 0.00000000 0.00000000
vn 1.00000000 -0.00000088 0.00000000
vn 1.00000000 0.00000000 0.00000000
vn 1.00000000 -0.00000097 0.00000000
vn 1.00000000 -0.00000151 0.00000000
vn 1.00000000 -0.00000151 0.00000000
vn 0.00000000 0.09979425 -0.99500810
vn 0.00000000 0.00000000 -1.00000000
vn 0.00000000 0.00000000 -1.00000000
vn 0.00000000 0.09979425 -0.99500810
vn 0.00000000 0.28807220 -0.95760870
vn 0.00000000 0.28807220 -0.95760870
vn 0.00000000 0.46918400 -0.88310050
vn 0.00000000 0.46918400 -0.88310050
vn 0.00000000 0.55083140 -0.83461660
vn 0.00000000 0.55083140 -0.83461660
vn 0.00000078 0.79051450 -0.61244320
vn 0.00000000 0.70601110 -0.70820080
vn 0.00000000 0.70601110 -0.70820080
vn 0.00000078 0.79051430 -0.61244340
vn 0.00000122 0.83337280 -0.55271120
vn 0.00000122 0.83337280 -0.55271120
vn -1.00000000 0.00000115 0.00000000
vn -1.00000000 0.00000114 0.00000000
vn -1.00000000 0.00000114 0.00000000
vn -1.00000000 0.00000116 0.00000000
vn -1.00000000 0.00000130 0.00000000
vn -1.00000000 0.00000129 0.00000000
vn -1.00000000 0.00000142 0.00000000
vn -1.00000000 0.00000142 0.00000000
vn 0.00000000 0.53846790 0.84264590
vn 0.00000000 0.60008250 0.79993810
vn 0.00000000 0.60008250 0.79993810
vn 0.00000000 0.53846790 0.84264590
vn 0.00000000 0.32309380 0.94636700
vn 0.00000000 0.32309380 0.94636700
vn 0.00000000 0.19509950 0.98078350
vn 0.00000000 0.19509950 0.98078350
vn 1.00000000 0.00000069 0.00000000
vn 1.00000000 0.00000000 0.00000000
vn 1.00000000 0.00000000 0.00000000
vn 1.00000000 0.00000087 0.00000000
vn 1.00000000 0.00000015 0.00000000
vn 1.00000000 -0.00000013 0.00000000
vn 1.00000000 -0.00000283 0.00000000
vn 1.00000000 -0.00000283 0.00000000
vn 0.00000000 -0.19508600 -0.98078610
vn 0.00000000 -0.29938850 -0.95413130
vn 0.00000000 -0.19508600 -0.98078610
vn 0.00000000 -0.29938850 -0.95413130
vn 0.00000000 -0.54037200 -0.84142630
vn 0.00000000 -0.54037200 -0.84142630
vn 0.00000000 -0.59460460 -0.80401830
vn 0.00000000 -0.59460460 -0.80401830
vn 0.00000579 -0.76485620 -0.64420110
vn 0.00000609 -0.76487390 -0.64418010
vn 0.00000991 -0.76486690 -0.64418840
vn 0.00000968 -0.76485330 -0.64420460
vn 0.00000579 -0.76486100 -0.64419530
vn 0.00000968 -0.76486280 -0.64419320
vn 0.00000609 -0.76487870 -0.64417430
vn 0.00000991 -0.76487640 -0.64417710
vn 0.00000609 -0.76487390 -0.64418010
vn 0.00000609 -0.76487870 -0.64417430
vn 0.00000991 -0.76487640 -0.64417710
vn 0.00000991 -0.76486690 -0.64418840
vn -0.39570950 -0.91837570 -0.00001537
vn -0.00277168 -0.75636690 0.65414180
vn -0.27501660 -0.64424760 0.71366020
vn -0.00372902 -0.99999310 -0.00000047
vn -0.27501370 -0.64425770 -0.71365220
vn -0.00277150 -0.75638220 -0.65412400
vn 0.00000000 -0.73838060 -0.67438420
vn 0.00000000 -1.00000000 0.00000000
vn 0.00000000 -0.73836520 0.67440120
vn 0.00291332 -0.75629480 0.65422440
vn 0.00391973 -0.99999240 -0.00000037
vn 0.00291311 -0.75631090 -0.65420590
vn 0.27501470 -0.64425690 -0.71365260
vn 0.39571020 -0.91837550 -0.00001422
vn 0.27501870 -0.64424660 0.71366030
vn -0.39571330 0.91837410 0.00000012
vn -0.49987090 0.49987270 0.70728800
vn -0.27501430 0.64425150 0.71365750
vn -0.70710680 0.70710680 -0.00000433
vn -0.27501850 0.64425850 -0.71364970
vn -0.64890620 0.27239610 0.71043720
vn -0.49987640 0.49987870 -0.70727990
vn -0.92155220 0.38825460 -0.00000433
vn -0.64891110 0.27240160 -0.71043070
vn -0.75279400 0.00271736 0.65825060
vn -0.99999390 0.00351017 0.00000192
vn -0.75279560 0.00271751 -0.65824870
vn -0.75279280 -0.00271769 -0.65825200
vn -0.99999390 -0.00350994 0.00000020
vn -0.75279100 -0.00271749 0.65825400
vn -0.64891080 -0.27239800 0.71043240
vn -0.92155400 -0.38824990 -0.00000761
vn -0.64890880 -0.27240630 -0.71043100
vn -0.49986490 -0.49987230 0.70729260
vn -0.70710890 -0.70710460 -0.00001515
vn -0.27501660 -0.64424760 0.71366020
vn -0.49986660 -0.49987920 -0.70728640
vn -0.39570950 -0.91837570 -0.00001537
vn -0.27501370 -0.64425770 -0.71365220
vn 0.55531390 0.55531540 0.61907290
vn 0.29636370 0.73016350 0.61565390
vn 0.37518660 0.92694940 0.00000889
vn 0.70710210 0.70711150 -0.00000607
vn 0.29636510 0.73016360 -0.61565320
vn 0.72734480 0.29863900 0.61788700
vn 0.55531110 0.55531640 -0.61907450
vn 0.92504930 0.37984700 -0.00000489
vn 0.72734950 0.29862750 -0.61788700
vn 0.73824050 0.00401812 0.67452560
vn 0.99998550 0.00539332 -0.00000402
vn 0.73824220 0.00401785 -0.67452370
vn 0.73824210 -0.00401784 -0.67452380
vn 0.99998550 -0.00539331 -0.00000399
vn 0.73824040 -0.00401813 0.67452570
vn 0.72734420 -0.29863770 0.61788830
vn 0.92504760 -0.37985130 0.00000409
vn 0.72734960 -0.29863080 -0.61788510
vn 0.55531380 -0.55531200 0.61907600
vn 0.70711180 -0.70710170 -0.00000651
vn 0.29636620 -0.73015830 0.61565900
vn 0.55531130 -0.55531130 -0.61907890
vn 0.37517630 -0.92695360 -0.00000322
vn 0.29636210 -0.73016080 -0.61565800
vn 0.00446688 -0.72147820 0.69242270
vn 0.29636620 -0.73015830 0.61565900
vn 0.37517630 -0.92695360 -0.00000322
vn 0.00571298 -0.99998370 0.00000014
vn 0.29636210 -0.73016080 -0.61565800
vn 0.00446696 -0.72148950 -0.69241110
vn 0.00000000 -0.73794890 -0.67485670
vn 0.00000000 -1.00000000 0.00000000
vn 0.00000000 -0.73793720 0.67486940
vn -0.00469422 -0.72160110 0.69229320
vn -0.00600360 -0.99998200 0.00000016
vn -0.00469428 -0.72161250 -0.69228130
vn -0.29636220 -0.73016180 -0.61565670
vn -0.37517720 -0.92695300 -0.00000339
vn -0.29636640 -0.73015800 0.61565930
vn 0.37518660 0.92694940 0.00000889
vn 0.00446713 0.72148280 -0.69241800
vn 0.29636510 0.73016360 -0.61565320
vn 0.00571314 0.99998370 0.00000748
vn 0.29636370 0.73016350 0.61565390
vn 0.00446683 0.72148200 0.69241880
vn 0.00000000 0.73794200 0.67486410
vn 0.00000000 1.00000000 0.00000758
vn 0.00000000 0.73794190 -0.67486420
vn -0.00469449 0.72160690 -0.69228710
vn -0.00600375 0.99998200 0.00000775
vn -0.00469418 0.72160700 0.69228710
vn -0.29636320 0.73016270 0.61565520
vn -0.37518740 0.92694900 0.00000656
vn -0.29636510 0.73016270 -0.61565430
vn -0.00277153 0.75637030 -0.65413780
vn -0.27501850 0.64425850 -0.71364970
vn -0.39571330 0.91837410 0.00000012
vn -0.00372870 0.99999310 0.00001072
vn -0.27501430 0.64425150 0.71365750
vn -0.00277159 0.75636670 0.65414200
vn 0.00000000 0.73836510 0.67440130
vn 0.00000000 1.00000000 0.00000941
vn 0.00000000 0.73836880 -0.67439720
vn 0.00291304 0.75629850 -0.65422020
vn 0.00391944 0.99999240 0.00000756
vn 0.00291312 0.75629520 0.65422400
vn 0.27501380 0.64425060 0.71365860
vn 0.39571310 0.91837420 0.00000147
vn 0.27501800 0.64425780 -0.71365050
vn 0.39571310 0.91837420 0.00000147
vn 0.27501380 0.64425060 0.71365860
vn 0.49986990 0.49987290 0.70728860
vn 0.70710520 0.70710830 -0.00000351
vn 0.27501800 0.64425780 -0.71365050
vn 0.64890550 0.27239560 0.71043800
vn 0.49987530 0.49987960 -0.70728000
vn 0.92155240 0.38825400 -0.00000377
vn 0.64890990 0.27240140 -0.71043200
vn 0.75279380 0.00271736 0.65825080
vn 0.99999390 0.00351015 0.00000153
vn 0.75279530 0.00271748 -0.65824910
vn 0.75279250 -0.00271766 -0.65825240
vn 0.99999390 -0.00350991 -0.00000020
vn 0.75279090 -0.00271750 0.65825420
vn 0.64890890 -0.27239900 0.71043370
vn 0.92155310 -0.38825230 -0.00000471
vn 0.64890990 -0.27240790 -0.71042940
vn 0.49986330 -0.49987270 0.70729330
vn 0.70710890 -0.70710460 -0.00001144
vn 0.27501870 -0.64424660 0.71366030
vn 0.49986850 -0.49988010 -0.70728440
vn 0.39571020 -0.91837550 -0.00001422
vn 0.27501470 -0.64425690 -0.71365260
vn -0.55531280 0.55531330 0.61907580
vn -0.37518740 0.92694900 0.00000656
vn -0.29636320 0.73016270 0.61565520
vn -0.70710330 0.70711030 -0.00000588
vn -0.29636510 0.73016270 -0.61565430
vn -0.72734390 0.29863940 0.61788790
vn -0.55531310 0.55531600 -0.61907320
vn -0.92504960 0.37984610 -0.00000455
vn -0.72735050 0.29862710 -0.61788590
vn -0.73824280 0.00401814 0.67452310
vn -0.99998550 0.00539333 -0.00000379
vn -0.73824450 0.00401786 -0.67452120
vn -0.73824450 -0.00401785 -0.67452110
vn -0.99998550 -0.00539333 -0.00000376
vn -0.73824270 -0.00401813 0.67452320
vn -0.72734470 -0.29863700 0.61788810
vn -0.92504850 -0.37984900 0.00000326
vn -0.72735180 -0.29862870 -0.61788360
vn -0.55531350 -0.55531130 0.61907700
vn -0.70711360 -0.70709990 -0.00000729
vn -0.29636640 -0.73015800 0.61565930
vn -0.55531310 -0.55531000 -0.61907860
vn -0.37517720 -0.92695300 -0.00000339
vn -0.29636220 -0.73016180 -0.61565670
vn 0.00189297 0.18031850 -0.98360650
vn 0.00000000 -0.00253056 -0.99999680
vn 0.00000000 -0.00253056 -0.99999680
vn -0.00189787 0.18032520 -0.98360520
vn 0.00028501 -0.00249202 -0.99999690
vn -0.00028578 -0.00249231 -0.99999690
vn 0.08707194 0.09436218 -0.99172290
vn -0.08707166 0.09436238 -0.99172290
vn 0.00001704 0.00001824 -1.00000000
vn -0.00001737 0.00001824 -1.00000000
vn 0.17913970 0.00200625 -0.98382160
vn -0.17913940 0.00200626 -0.98382160
vn 0.00003621 0.00000017 -1.00000000
vn -0.00003612 0.00000017 -1.00000000
vn 0.17311770 -0.00193875 -0.98489920
vn -0.17311750 -0.00193876 -0.98489930
vn 0.00003620 -0.00000018 -1.00000000
vn -0.00003613 -0.00000018 -1.00000000
vn 0.09004243 -0.09757990 -0.99114600
vn -0.09004159 -0.09757987 -0.99114610
vn 0.00001916 -0.00001918 -1.00000000
vn -0.00001932 -0.00001918 -1.00000000
vn 0.00207268 -0.20060410 -0.97967020
vn 0.00028523 0.00271156 -0.99999630
vn -0.00207796 -0.20060870 -0.97966930
vn -0.00028601 0.00271187 -0.99999630
vn 0.00000000 0.00275230 -0.99999620
vn 0.00000000 0.00275230 -0.99999620
vn -0.00000015 -0.00003624 1.00000000
vn 0.00000000 -0.00003640 1.00000000
vn 0.00000000 -0.00003640 1.00000000
vn 0.00000012 -0.00003624 1.00000000
vn -0.00000065 -0.00003565 1.00000000
vn 0.00000056 -0.00003565 1.00000000
vn -0.00001721 -0.00001824 1.00000000
vn 0.00001871 -0.00001824 1.00000000
vn 0.09186315 0.09948777 0.99078920
vn -0.09186140 0.09948725 0.99078950
vn -0.00003686 -0.00000017 1.00000000
vn 0.00003726 -0.00000017 1.00000000
vn 0.18932120 0.00211161 0.98191300
vn -0.18932050 0.00211161 0.98191310
vn -0.00003688 0.00000018 1.00000000
vn 0.00003723 0.00000018 1.00000000
vn 0.18297660 -0.00204087 0.98311510
vn -0.18297630 -0.00204088 0.98311530
vn -0.00001916 0.00001918 1.00000000
vn 0.00001932 0.00001918 1.00000000
vn 0.09498972 -0.10287530 0.99014840
vn -0.09498964 -0.10287470 0.99014840
vn -0.00000017 0.00003941 1.00000000
vn 0.00000017 0.00003941 1.00000000
vn -0.00000090 0.00003864 1.00000000
vn 0.00000088 0.00003864 1.00000000
vn 0.00000000 0.00003959 1.00000000
vn 0.00000000 0.00003959 1.00000000
vn -0.00124219 -0.40841620 0.91279500
vn 0.00000000 -0.73836520 0.67440120
vn 0.00000000 -0.40823660 0.91287620
vn 0.00130616 -0.40843080 0.91278830
vn -0.00277168 -0.75636690 0.65414180
vn 0.00291332 -0.75629480 0.65422440
vn -0.27501660 -0.64424760 0.71366020
vn 0.27501870 -0.64424660 0.71366030
vn -0.16278890 -0.38770600 0.90729480
vn 0.16279150 -0.38770620 0.90729420
vn -0.49986490 -0.49987230 0.70729260
vn 0.49986330 -0.49987270 0.70729330
vn -0.29733500 -0.29733390 0.90729520
vn 0.29733440 -0.29733480 0.90729500
vn -0.64891080 -0.27239800 0.71043240
vn 0.64890890 -0.27239900 0.71043370
vn -0.38945390 -0.16224540 0.90664340
vn 0.38945330 -0.16224620 0.90664340
vn -0.75279100 -0.00271749 0.65825400
vn -0.41963490 -0.00133729 0.90769200
vn 0.75279090 -0.00271750 0.65825420
vn 0.41963420 -0.00133730 0.90769230
vn -0.41963480 0.00133727 0.90769210
vn -0.75279400 0.00271736 0.65825060
vn -0.64890620 0.27239610 0.71043720
vn -0.38945190 0.16224390 0.90664430
vn -0.49987090 0.49987270 0.70728800
vn -0.29733570 0.29733700 0.90729390
vn -0.27501430 0.64425150 0.71365750
vn -0.16279870 0.38771090 0.90729090
vn 0.41963410 0.00133727 0.90769240
vn 0.75279380 0.00271736 0.65825080
vn 0.64890550 0.27239560 0.71043800
vn 0.38945180 0.16224370 0.90664450
vn 0.49986990 0.49987290 0.70728860
vn 0.29733510 0.29733650 0.90729430
vn 0.27501380 0.64425060 0.71365860
vn 0.16279770 0.38771140 0.90729090
vn -0.00277159 0.75636670 0.65414200
vn -0.00124218 0.40843380 0.91278710
vn 0.00291312 0.75629520 0.65422400
vn 0.00130607 0.40844260 0.91278310
vn 0.00000000 0.40825130 0.91286950
vn 0.00000000 0.73836510 0.67440130
vn 0.00446683 0.72148200 0.69241880
vn 0.00000000 0.40826270 0.91286460
vn 0.00000000 0.73794200 0.67486410
vn -0.00469418 0.72160700 0.69228710
vn 0.00302545 0.40870790 0.91266020
vn -0.00317785 0.40872460 0.91265220
vn 0.15942430 0.38912240 0.90728590
vn -0.15942510 0.38912000 0.90728670
vn 0.29636370 0.73016350 0.61565390
vn -0.29636320 0.73016270 0.61565520
vn 0.29733590 0.29734240 0.90729200
vn -0.29733550 0.29734240 0.90729210
vn 0.55531390 0.55531540 0.61907290
vn -0.55531280 0.55531330 0.61907580
vn 0.39030050 0.15993220 0.90669030
vn -0.39029880 0.15993430 0.90669060
vn 0.72734480 0.29863900 0.61788700
vn -0.72734390 0.29863940 0.61788790
vn 0.41967720 0.00252210 0.90767000
vn 0.73824050 0.00401812 0.67452560
vn -0.41967760 0.00252212 0.90766970
vn -0.73824280 0.00401814 0.67452310
vn 0.73824040 -0.00401813 0.67452570
vn 0.41967730 -0.00252206 0.90766990
vn 0.39030340 -0.15993720 0.90668820
vn 0.72734420 -0.29863770 0.61788830
vn 0.29734370 -0.29733650 0.90729150
vn 0.55531380 -0.55531200 0.61907600
vn 0.15941590 -0.38911140 0.90729200
vn 0.29636620 -0.73015830 0.61565900
vn -0.73824270 -0.00401813 0.67452320
vn -0.41967780 -0.00252204 0.90766970
vn -0.39030320 -0.15993680 0.90668830
vn -0.72734470 -0.29863700 0.61788810
vn -0.29734260 -0.29733690 0.90729170
vn -0.55531350 -0.55531130 0.61907700
vn -0.15941560 -0.38911180 0.90729190
vn -0.29636640 -0.73015800 0.61565930
vn 0.00302548 -0.40869080 0.91266790
vn 0.00446688 -0.72147820 0.69242270
vn -0.00317792 -0.40870990 0.91265890
vn -0.00469422 -0.72160110 0.69229320
vn 0.00000000 -0.73793720 0.67486940
vn 0.00000000 -0.40824680 0.91287160
vn 0.00302548 0.40869560 -0.91266580
vn 0.00000000 0.73794190 -0.67486420
vn 0.00000000 0.40824940 -0.91287050
vn -0.00317787 0.40871060 -0.91265860
vn 0.00446713 0.72148280 -0.69241800
vn -0.00469449 0.72160690 -0.69228710
vn 0.29636510 0.73016360 -0.61565320
vn -0.29636510 0.73016270 -0.61565430
vn 0.15941980 0.38911750 -0.90728870
vn -0.15942200 0.38911810 -0.90728810
vn 0.55531110 0.55531640 -0.61907450
vn -0.55531310 0.55531600 -0.61907320
vn 0.29734090 0.29734050 -0.90729110
vn -0.29734610 0.29734290 -0.90728860
vn 0.72734950 0.29862750 -0.61788700
vn -0.72735050 0.29862710 -0.61788590
vn 0.39030540 0.15993010 -0.90668850
vn -0.39030780 0.15993120 -0.90668730
vn 0.73824220 0.00401785 -0.67452370
vn 0.41968030 0.00252158 -0.90766850
vn -0.73824450 0.00401786 -0.67452120
vn -0.41968080 0.00252158 -0.90766820
vn 0.41968020 -0.00252158 -0.90766850
vn 0.73824210 -0.00401784 -0.67452380
vn 0.72734960 -0.29863080 -0.61788510
vn 0.39030710 -0.15993330 -0.90668710
vn 0.55531130 -0.55531130 -0.61907890
vn 0.29734320 -0.29734240 -0.90728970
vn 0.29636210 -0.73016080 -0.61565800
vn 0.15941980 -0.38911630 -0.90728930
vn -0.41968090 -0.00252156 -0.90766820
vn -0.73824450 -0.00401785 -0.67452110
vn -0.72735180 -0.29862870 -0.61788360
vn -0.39031010 -0.15993300 -0.90668600
vn -0.55531310 -0.55531000 -0.61907860
vn -0.29734680 -0.29734250 -0.90728840
vn -0.29636220 -0.73016180 -0.61565670
vn -0.15942080 -0.38911710 -0.90728870
vn 0.00446696 -0.72148950 -0.69241110
vn 0.00302564 -0.40870000 -0.91266380
vn -0.00469428 -0.72161250 -0.69228130
vn -0.00317801 -0.40871920 -0.91265470
vn 0.00000000 -0.40825600 -0.91286740
vn 0.00000000 -0.73794890 -0.67485670
vn -0.00277150 -0.75638220 -0.65412400
vn 0.00000000 -0.40825090 -0.91286970
vn 0.00000000 -0.73838060 -0.67438420
vn 0.00291311 -0.75631090 -0.65420590
vn -0.00124211 -0.40842980 -0.91278890
vn 0.00130605 -0.40844600 -0.91278160
vn -0.16279680 -0.38771920 -0.90728770
vn 0.16279710 -0.38771570 -0.90728920
vn -0.27501370 -0.64425770 -0.71365220
vn 0.27501470 -0.64425690 -0.71365260
vn -0.29734460 -0.29734200 -0.90728930
vn 0.29734530 -0.29733960 -0.90728990
vn -0.49986660 -0.49987920 -0.70728640
vn 0.49986850 -0.49988010 -0.70728440
vn -0.38945340 -0.16225300 -0.90664220
vn 0.38945630 -0.16225380 -0.90664080
vn -0.64890880 -0.27240630 -0.71043100
vn 0.64890990 -0.27240790 -0.71042940
vn -0.41964050 -0.00133752 -0.90768950
vn -0.75279280 -0.00271769 -0.65825200
vn 0.41963970 -0.00133751 -0.90768980
vn 0.75279250 -0.00271766 -0.65825240
vn -0.75279560 0.00271751 -0.65824870
vn -0.41964050 0.00133754 -0.90768950
vn -0.38945530 0.16225210 -0.90664150
vn -0.64891110 0.27240160 -0.71043070
vn -0.29734100 0.29734410 -0.90728990
vn -0.49987640 0.49987870 -0.70727990
vn -0.16279890 0.38771640 -0.90728850
vn -0.27501850 0.64425850 -0.71364970
vn 0.75279530 0.00271748 -0.65824910
vn 0.41963960 0.00133753 -0.90768980
vn 0.38945300 0.16225240 -0.90664250
vn 0.64890990 0.27240140 -0.71043200
vn 0.29734060 0.29734420 -0.90728990
vn 0.49987530 0.49987960 -0.70728000
vn 0.16279720 0.38771570 -0.90728920
vn 0.27501800 0.64425780 -0.71365050
vn -0.00124218 0.40842340 -0.91279180
vn -0.00277153 0.75637030 -0.65413780
vn 0.00130604 0.40843440 -0.91278680
vn 0.00291304 0.75629850 -0.65422020
vn 0.00000000 0.73836880 -0.67439720
vn 0.00000000 0.40824190 -0.91287380
vn 0.00000000 1.00000000 -0.00001116
vn 0.00000000 1.00000000 -0.00000856
vn 0.00000000 1.00000000 0.00000856
vn 0.00000000 1.00000000 0.00001116
vn 0.00000000 1.00000000 -0.00001116
vn 0.00000000 1.00000000 0.00000856
vn 0.00000000 1.00000000 -0.00000856
vn 0.00000000 1.00000000 0.00001116
vn 0.00000000 1.00000000 0.00000000
vn 0.00000000 1.00000000 0.00000000
vn 0.00000000 1.00000000 0.00000000
vn 0.00000000 1.00000000 0.00000000
vn 0.00000000 1.00000000 0.00000000
vn 0.00000000 1.00000000 0.00000000
vn 0.00000000 1.00000000 0.00000000
vn 0.00000000 1.00000000 0.00000000
vt 20.63802000 0.76713470
vt 20.63802000 0.77186130
vt 20.65128000 0.77186130
vt 20.65128000 0.76713480
vt 20.63802000 0.58359540
vt 20.65128000 0.58359540
vt 20.63802000 0.57886890
vt 20.65128000 0.57886890
vt 20.74449000 0.96998700
vt 20.73124000 0.96526520
vt 20.73124000 0.96998700
vt 20.74449000 0.96526530
vt 20.74449000 0.75863860
vt 20.73124000 0.75863860
vt 20.73124000 0.55262120
vt 20.74449000 0.55262120
vt 20.74449000 0.54789940
vt 20.73124000 0.54789940
vt 20.71185000 0.97126160
vt 20.71185000 0.97598290
vt 20.72509000 0.97598290
vt 20.72509000 0.97126160
vt 20.71185000 0.76465270
vt 20.72509000 0.76465270
vt 20.72509000 0.55865280
vt 20.71185000 0.55865280
vt 20.72509000 0.55393140
vt 20.71185000 0.55393140
vt 20.63188000 0.76715220
vt 20.61863000 0.77187970
vt 20.63188000 0.77187970
vt 20.61863000 0.76715230
vt 20.63188000 0.58357790
vt 20.61863000 0.58357790
vt 20.63188000 0.57885060
vt 20.61863000 0.57885050
vt 20.40595000 0.58928600
vt 20.41317000 0.57888420
vt 20.40595000 0.57888420
vt 20.41317000 0.58907150
vt 20.40452000 0.59646790
vt 20.41111000 0.59943250
vt 20.40050000 0.60617710
vt 20.40726000 0.60874490
vt 20.39615000 0.61257390
vt 20.40166000 0.61721710
vt 20.32053000 0.57833880
vt 20.31123000 0.57833880
vt 20.31123000 0.58907400
vt 20.32053000 0.58907400
vt 20.31123000 0.59648610
vt 20.32053000 0.59648610
vt 20.31123000 0.60650650
vt 20.32053000 0.60650650
vt 20.31123000 0.61310830
vt 20.32053000 0.61310830
vt 20.38018000 0.57888380
vt 20.37295000 0.57888380
vt 20.37295000 0.58907130
vt 20.38018000 0.58928570
vt 20.38161000 0.59646780
vt 20.37501000 0.59943250
vt 20.37887000 0.60874520
vt 20.38563000 0.60617730
vt 20.38997000 0.61257420
vt 20.38446000 0.61721750
vt 20.24028000 0.59307400
vt 20.23936000 0.57888820
vt 20.23333000 0.58604820
vt 20.24693000 0.58642850
vt 20.25716000 0.60186920
vt 20.24848000 0.60546460
vt 20.13762000 0.57848070
vt 20.12603000 0.57848070
vt 20.12603000 0.58643110
vt 20.13762000 0.58643110
vt 20.12603000 0.60045180
vt 20.13762000 0.60045180
vt 20.20326000 0.59831050
vt 20.20930000 0.60547710
vt 20.21687000 0.59792980
vt 20.21021000 0.59127800
vt 20.21843000 0.57887580
vt 20.22712000 0.58247470
vt 20.61244000 0.62792660
vt 20.60226000 0.63942540
vt 20.61244000 0.63942540
vt 20.60226000 0.62792660
vt 20.61244000 0.61623180
vt 20.60226000 0.61623180
vt 20.61244000 0.60572050
vt 20.60226000 0.60572050
vt 20.61244000 0.59615760
vt 20.60226000 0.59615760
vt 20.61314000 0.58682110
vt 20.60156000 0.59537010
vt 20.61314000 0.59537010
vt 20.60156000 0.58682130
vt 20.61314000 0.57524660
vt 20.60156000 0.57524660
vt 20.56463000 0.60182380
vt 20.55906000 0.57887860
vt 20.55241000 0.58553340
vt 20.57336000 0.59820550
vt 20.56883000 0.61123040
vt 20.57753000 0.60762300
vt 20.57021000 0.61817220
vt 20.57962000 0.61817220
vt 20.27940000 0.59516010
vt 20.29041000 0.57767700
vt 20.27940000 0.57767700
vt 20.29041000 0.59516010
vt 20.27940000 0.60525550
vt 20.29041000 0.60525550
vt 20.27940000 0.61270530
vt 20.29041000 0.61270530
vt 20.53400000 0.60182580
vt 20.54623000 0.58552550
vt 20.53957000 0.57886660
vt 20.52527000 0.59820530
vt 20.52110000 0.60762850
vt 20.52979000 0.61123820
vt 20.52841000 0.61818410
vt 20.51900000 0.61818410
vt 20.51319000 0.57749190
vt 20.50221000 0.57749190
vt 20.50221000 0.58878560
vt 20.51319000 0.58878560
vt 20.50221000 0.59886780
vt 20.51319000 0.59886780
vt 20.50221000 0.61955880
vt 20.51319000 0.61955880
vt 20.61314000 0.59537010
vt 20.61244000 0.60139860
vt 20.61314000 0.60218630
vt 20.61244000 0.59615760
vt 20.60156000 0.59537010
vt 20.60226000 0.59615760
vt 20.60156000 0.60218630
vt 20.60226000 0.60139860
vt 20.13762000 0.57848070
vt 20.13692000 0.57754460
vt 20.12673000 0.57754460
vt 20.12603000 0.57848070
vt 20.35698000 0.58928590
vt 20.35698000 0.57888390
vt 20.34975000 0.57888390
vt 20.34975000 0.58907140
vt 20.35841000 0.59646790
vt 20.35181000 0.59943250
vt 20.36243000 0.60617720
vt 20.35567000 0.60874500
vt 20.36678000 0.61257400
vt 20.36126000 0.61721740
vt 20.29605000 0.57831160
vt 20.30536000 0.58906360
vt 20.30536000 0.57831160
vt 20.29605000 0.58906360
vt 20.30536000 0.59648730
vt 20.29605000 0.59648730
vt 20.30536000 0.60652340
vt 20.29605000 0.60652340
vt 20.30536000 0.61313550
vt 20.29605000 0.61313550
vt 20.33635000 0.57890090
vt 20.34357000 0.58907930
vt 20.34357000 0.57890090
vt 20.33635000 0.58929370
vt 20.33492000 0.59646930
vt 20.34151000 0.59943140
vt 20.33766000 0.60873580
vt 20.33090000 0.60617010
vt 20.32656000 0.61256140
vt 20.33207000 0.61720060
vt 20.18015000 0.59127710
vt 20.17319000 0.59831630
vt 20.17923000 0.60548990
vt 20.18681000 0.59793530
vt 20.19707000 0.58246540
vt 20.18837000 0.57886300
vt 20.10961000 0.57848070
vt 20.12121000 0.58643110
vt 20.12121000 0.57848070
vt 20.10961000 0.58643110
vt 20.12121000 0.60045180
vt 20.10961000 0.60045180
vt 20.14314000 0.58604250
vt 20.15675000 0.58642310
vt 20.14918000 0.57887580
vt 20.15009000 0.59307490
vt 20.15831000 0.60547710
vt 20.16700000 0.60187820
vt 20.58584000 0.62793380
vt 20.58584000 0.63943650
vt 20.59602000 0.63943650
vt 20.59602000 0.62793380
vt 20.58584000 0.61623490
vt 20.59602000 0.61623490
vt 20.58584000 0.60571990
vt 20.59602000 0.60571990
vt 20.58584000 0.59615370
vt 20.59602000 0.59615370
vt 20.58514000 0.58681400
vt 20.58514000 0.59536590
vt 20.59672000 0.59536590
vt 20.59672000 0.58681400
vt 20.58514000 0.57523540
vt 20.59672000 0.57523540
vt 20.48417000 0.60182370
vt 20.49640000 0.58553360
vt 20.48974000 0.57887880
vt 20.47545000 0.59820550
vt 20.47997000 0.61123040
vt 20.47128000 0.60762290
vt 20.47859000 0.61817200
vt 20.46918000 0.61817200
vt 20.27400000 0.59516000
vt 20.27400000 0.57765210
vt 20.26297000 0.57765210
vt 20.26297000 0.59516000
vt 20.27400000 0.60526980
vt 20.26297000 0.60526980
vt 20.27400000 0.61273030
vt 20.26297000 0.61273030
vt 20.44800000 0.60182380
vt 20.44243000 0.57887880
vt 20.43578000 0.58553360
vt 20.45672000 0.59820550
vt 20.46089000 0.60762290
vt 20.45220000 0.61123040
vt 20.45358000 0.61817200
vt 20.46299000 0.61817200
vt 20.41897000 0.57747020
vt 20.42997000 0.58877560
vt 20.42997000 0.57747020
vt 20.41897000 0.58877560
vt 20.42997000 0.59886810
vt 20.41897000 0.59886810
vt 20.42997000 0.61958050
vt 20.41897000 0.61958050
vt 20.58514000 0.59536590
vt 20.58514000 0.60218450
vt 20.58584000 0.60139660
vt 20.58584000 0.59615370
vt 20.59672000 0.59536590
vt 20.59602000 0.59615370
vt 20.59672000 0.60218450
vt 20.59602000 0.60139660
vt 20.10961000 0.57848070
vt 20.12121000 0.57848070
vt 20.12051000 0.57754460
vt 20.11031000 0.57754460
vt 20.72314000 -0.00628182
vt 20.72699000 -0.00164643
vt 20.72699000 -0.00682807
vt 20.72314000 -0.00189111
vt 20.71928000 -0.00682795
vt 20.71928000 -0.00164643
vt 20.71928000 0.27976820
vt 20.72314000 0.27976820
vt 20.72699000 0.27976820
vt 20.72699000 0.54722370
vt 20.72314000 0.54746840
vt 20.71928000 0.54722370
vt 20.71928000 0.55240520
vt 20.72314000 0.55185910
vt 20.72699000 0.55240540
vt 20.67476000 0.57355340
vt 20.67864000 0.57553210
vt 20.67864000 0.57222370
vt 20.67476000 0.57655000
vt 20.67087000 0.57222370
vt 20.67864000 0.58048340
vt 20.67087000 0.57553210
vt 20.67476000 0.58103420
vt 20.67087000 0.58048340
vt 20.67862000 0.58601470
vt 20.67476000 0.58595070
vt 20.67090000 0.58601470
vt 20.67090000 0.89396170
vt 20.67476000 0.89402530
vt 20.67862000 0.89396170
vt 20.67864000 0.89949270
vt 20.67476000 0.89894200
vt 20.67087000 0.89949290
vt 20.67864000 0.90444430
vt 20.67476000 0.90342630
vt 20.67864000 0.90775250
vt 20.67087000 0.90444430
vt 20.67476000 0.90642280
vt 20.67087000 0.90775260
vt 20.69806000 0.89212720
vt 20.69806000 0.89692120
vt 20.70197000 0.89825770
vt 20.70197000 0.89315020
vt 20.70588000 0.89692090
vt 20.69806000 0.88495300
vt 20.70588000 0.89212730
vt 20.70197000 0.88550650
vt 20.70588000 0.88495280
vt 20.69809000 0.87617910
vt 20.70197000 0.87611490
vt 20.70585000 0.87617910
vt 20.70585000 0.56790760
vt 20.70197000 0.56797180
vt 20.69809000 0.56790760
vt 20.69806000 0.55913390
vt 20.70197000 0.55858030
vt 20.70588000 0.55913390
vt 20.69806000 0.55195930
vt 20.70197000 0.55093650
vt 20.69806000 0.54716560
vt 20.70588000 0.55195940
vt 20.70197000 0.54582890
vt 20.70588000 0.54716560
vt 20.71335000 0.00255656
vt 20.71335000 -0.00640520
vt 20.70949000 -0.00695130
vt 20.70949000 0.00280121
vt 20.70564000 -0.00640500
vt 20.70564000 0.00255656
vt 20.70564000 0.28277580
vt 20.70949000 0.28277580
vt 20.71335000 0.28277580
vt 20.71335000 0.54903470
vt 20.70949000 0.54879000
vt 20.70564000 0.54903470
vt 20.70564000 0.55799620
vt 20.70949000 0.55854250
vt 20.71335000 0.55799650
vt 20.69585000 -0.00698215
vt 20.69971000 0.00252670
vt 20.69971000 -0.00643578
vt 20.69585000 0.00277141
vt 20.69199000 -0.00643563
vt 20.69199000 0.00252670
vt 20.69199000 0.28277650
vt 20.69585000 0.28277650
vt 20.69971000 0.28277650
vt 20.69971000 0.54906450
vt 20.69585000 0.54881970
vt 20.69199000 0.54906450
vt 20.69199000 0.55802670
vt 20.69585000 0.55857340
vt 20.69971000 0.55802700
vt 20.74063000 -0.00164190
vt 20.74063000 -0.00682330
vt 20.73678000 -0.00627723
vt 20.73678000 -0.00188649
vt 20.73292000 -0.00682330
vt 20.73292000 -0.00164190
vt 20.73292000 0.27976800
vt 20.73678000 0.27976800
vt 20.74063000 0.27976800
vt 20.74063000 0.54721900
vt 20.73678000 0.54746350
vt 20.73292000 0.54721900
vt 20.73292000 0.55240050
vt 20.73678000 0.55185430
vt 20.74063000 0.55240050
vt 20.66115000 0.57354710
vt 20.65726000 0.57221730
vt 20.65726000 0.57552580
vt 20.66115000 0.57654370
vt 20.66504000 0.57221730
vt 20.65726000 0.58047740
vt 20.66504000 0.57552580
vt 20.66115000 0.58102800
vt 20.66504000 0.58047740
vt 20.65730000 0.58600880
vt 20.66115000 0.58594490
vt 20.66501000 0.58600880
vt 20.66501000 0.89396760
vt 20.66115000 0.89403120
vt 20.65730000 0.89396760
vt 20.65726000 0.89949880
vt 20.66115000 0.89894810
vt 20.66504000 0.89949890
vt 20.65726000 0.90445060
vt 20.66115000 0.90343250
vt 20.65726000 0.90775890
vt 20.66504000 0.90445070
vt 20.66115000 0.90642920
vt 20.66504000 0.90775900
vt 20.69227000 0.91736100
vt 20.68836000 0.92349270
vt 20.69227000 0.92215590
vt 20.68836000 0.91838430
vt 20.68445000 0.92215560
vt 20.69227000 0.91018560
vt 20.68445000 0.91736130
vt 20.68836000 0.91073920
vt 20.68445000 0.91018550
vt 20.69224000 0.90141020
vt 20.68836000 0.90134590
vt 20.68448000 0.90141020
vt 20.68448000 0.59308480
vt 20.68836000 0.59314900
vt 20.69224000 0.59308480
vt 20.69227000 0.58430950
vt 20.68836000 0.58375570
vt 20.68445000 0.58430950
vt 20.69227000 0.57713350
vt 20.68836000 0.57611050
vt 20.69227000 0.57233910
vt 20.68445000 0.57713370
vt 20.68836000 0.57100220
vt 20.68445000 0.57233910
vt 20.99377000 0.47354060
vt 20.99377000 0.24105500
vt 20.96758000 0.24105500
vt 20.99377000 0.00917795
vt 20.96758000 0.44747260
vt 20.96758000 0.03524585
vt 20.99182000 0.47825750
vt 20.99182000 0.00446099
vt 20.96562000 0.45218960
vt 20.96562000 0.03052887
vt 20.98710000 0.48021140
vt 20.98710000 0.00250705
vt 20.96091000 0.45414350
vt 20.96091000 0.02857505
vt 20.75364000 0.48021140
vt 20.75364000 0.00250705
vt 20.77773000 0.45414350
vt 20.77773000 0.02857505
vt 20.74893000 0.47825750
vt 20.74893000 0.00446099
vt 20.77302000 0.45218960
vt 20.77302000 0.03052887
vt 20.74698000 0.47354060
vt 20.77106000 0.44747260
vt 20.74698000 0.00917791
vt 20.77106000 0.03524591
vt 20.77106000 0.24105500
vt 20.74698000 0.24105500
vt 20.77712000 0.93027990
vt 20.77712000 0.72386760
vt 20.75092000 0.72386760
vt 20.77712000 0.51806390
vt 20.75092000 0.95634700
vt 20.75092000 0.49199660
vt 20.77908000 0.93499670
vt 20.77908000 0.51334700
vt 20.75287000 0.96106400
vt 20.75287000 0.48727980
vt 20.78379000 0.93695060
vt 20.78379000 0.51139310
vt 20.75759000 0.96301770
vt 20.75759000 0.48532590
vt 20.96696000 0.93695060
vt 20.96696000 0.51139310
vt 20.99105000 0.96301770
vt 20.99105000 0.48532590
vt 20.97168000 0.93499670
vt 20.97168000 0.51334700
vt 20.99576000 0.96106400
vt 20.99576000 0.48727980
vt 20.97363000 0.93027990
vt 20.97363000 0.51806390
vt 20.99772000 0.95634700
vt 20.99772000 0.49199660
vt 20.97363000 0.72386760
vt 20.99772000 0.72386760
vt 20.34389000 0.01108226
vt 20.34039000 0.29546620
vt 20.34389000 0.29546620
vt 20.34389000 0.56571310
vt 20.34039000 0.01046404
vt 20.34039000 0.56633140
vt 20.33934000 0.00521636
vt 20.33934000 0.57157900
vt 20.34247000 0.00392106
vt 20.34247000 0.57287430
vt 20.33602000 0.00024346
vt 20.33602000 0.57655200
vt 20.33842000 -0.00215015
vt 20.33842000 0.57894550
vt 20.33105000 -0.00307936
vt 20.33105000 0.57987480
vt 20.33234000 -0.00620645
vt 20.33234000 0.58300190
vt 20.32549000 -0.00415817
vt 20.32518000 -0.00763100
vt 20.32549000 0.58095350
vt 20.32518000 0.58442640
vt 20.01652000 -0.00763100
vt 20.01621000 -0.00415817
vt 20.01065000 -0.00307936
vt 20.00936000 -0.00620651
vt 20.00568000 0.00024343
vt 20.00329000 -0.00215006
vt 20.00236000 0.00521639
vt 19.99923000 0.00392085
vt 20.01652000 0.58442640
vt 20.01621000 0.58095350
vt 20.01065000 0.57987480
vt 20.00936000 0.58300200
vt 20.00568000 0.57655200
vt 20.00329000 0.57894550
vt 20.00236000 0.57157900
vt 19.99923000 0.57287450
vt 20.00131000 0.01046401
vt 19.99780000 0.01108229
vt 20.00131000 0.56633140
vt 19.99780000 0.56571310
vt 19.99780000 0.29546620
vt 20.00131000 0.29546620
vt 20.34740000 0.01170051
vt 20.34389000 0.29546620
vt 20.34740000 0.29546620
vt 20.34740000 0.56509490
vt 20.34389000 0.01108226
vt 20.34389000 0.56571310
vt 20.34247000 0.00392106
vt 20.34247000 0.57287430
vt 20.34560000 0.00262576
vt 20.34560000 0.57416960
vt 20.33842000 -0.00215015
vt 20.33842000 0.57894550
vt 20.34081000 -0.00454369
vt 20.34081000 0.58133910
vt 20.33234000 -0.00620645
vt 20.33234000 0.58300190
vt 20.33364000 -0.00933367
vt 20.33364000 0.58612910
vt 20.32518000 -0.00763100
vt 20.32487000 -0.01110399
vt 20.32518000 0.58442640
vt 20.32487000 0.58789940
vt 20.01683000 -0.01110393
vt 20.01652000 -0.00763100
vt 20.00936000 -0.00620651
vt 20.00806000 -0.00933373
vt 20.00329000 -0.00215006
vt 20.00089000 -0.00454339
vt 19.99923000 0.00392085
vt 19.99610000 0.00262535
vt 20.01683000 0.58789930
vt 20.01652000 0.58442640
vt 20.00936000 0.58300200
vt 20.00806000 0.58612920
vt 20.00329000 0.57894550
vt 20.00089000 0.58133880
vt 19.99923000 0.57287450
vt 19.99610000 0.57417010
vt 19.99780000 0.01108229
vt 19.99430000 0.01170051
vt 19.99780000 0.56571310
vt 19.99430000 0.56509490
vt 19.99430000 0.29546620
vt 19.99780000 0.29546620
vt 20.34297000 0.01109392
vt 20.33946000 0.29546590
vt 20.34297000 0.29546590
vt 20.34297000 0.56570150
vt 20.33946000 0.01171213
vt 20.33946000 0.56508330
vt 20.34127000 0.00263757
vt 20.34127000 0.57415760
vt 20.34440000 0.00393292
vt 20.34440000 0.57286240
vt 20.34606000 -0.00453129
vt 20.34606000 0.58132670
vt 20.34845000 -0.00213799
vt 20.34845000 0.57893320
vt 20.35323000 -0.00932124
vt 20.35323000 0.58611660
vt 20.35452000 -0.00619417
vt 20.35452000 0.58298950
vt 20.36200000 -0.01109135
vt 20.36169000 -0.00761858
vt 20.36200000 0.58788660
vt 20.36169000 0.58441390
vt 20.67033000 -0.00761858
vt 20.67002000 -0.01109135
vt 20.67879000 -0.00932130
vt 20.67750000 -0.00619417
vt 20.68596000 -0.00453120
vt 20.68357000 -0.00213787
vt 20.69075000 0.00263757
vt 20.68762000 0.00393298
vt 20.67033000 0.58441390
vt 20.67002000 0.58788660
vt 20.67879000 0.58611660
vt 20.67750000 0.58298950
vt 20.68596000 0.58132650
vt 20.68357000 0.57893320
vt 20.69075000 0.57415760
vt 20.68762000 0.57286230
vt 20.69255000 0.01171213
vt 20.68905000 0.01109392
vt 20.69255000 0.56508330
vt 20.68905000 0.56570150
vt 20.68905000 0.29546590
vt 20.69255000 0.29546590
vt 20.34648000 0.01047570
vt 20.34297000 0.29546590
vt 20.34648000 0.29546590
vt 20.34648000 0.56631950
vt 20.34297000 0.01109392
vt 20.34297000 0.56570150
vt 20.34440000 0.00393292
vt 20.34440000 0.57286240
vt 20.34752000 0.00522831
vt 20.34752000 0.57156710
vt 20.34845000 -0.00213799
vt 20.34845000 0.57893320
vt 20.35085000 0.00025553
vt 20.35085000 0.57653980
vt 20.35452000 -0.00619417
vt 20.35452000 0.58298950
vt 20.35582000 -0.00306711
vt 20.35582000 0.57986250
vt 20.36169000 -0.00761858
vt 20.36137000 -0.00414589
vt 20.36169000 0.58441390
vt 20.36137000 0.58094120
vt 20.67064000 -0.00414589
vt 20.67033000 -0.00761858
vt 20.67750000 -0.00619417
vt 20.67620000 -0.00306719
vt 20.68357000 -0.00213787
vt 20.68117000 0.00025544
vt 20.68762000 0.00393298
vt 20.68450000 0.00522828
vt 20.67064000 0.58094120
vt 20.67033000 0.58441390
vt 20.67750000 0.58298950
vt 20.67620000 0.57986250
vt 20.68357000 0.57893320
vt 20.68117000 0.57653990
vt 20.68762000 0.57286230
vt 20.68450000 0.57156710
vt 20.68905000 0.01109392
vt 20.68554000 0.01047570
vt 20.68905000 0.56570150
vt 20.68554000 0.56631960
vt 20.68554000 0.29546590
vt 20.68905000 0.29546590
vt 20.09472000 0.57885990
vt 20.09581000 0.57947950
vt 20.10303000 0.57947950
vt 20.10411000 0.57885990
vt 20.09472000 0.58910070
vt 20.10303000 0.58848100
vt 20.09581000 0.58848100
vt 20.10411000 0.58910070
vt 20.07908000 0.58917990
vt 20.08862000 0.58917990
vt 20.08751000 0.58855080
vt 20.08019000 0.58855080
vt 20.08751000 0.57940980
vt 20.07908000 0.57878070
vt 20.08862000 0.57878070
vt 20.08019000 0.57940980
f 3/3/3 2/2/2 1/1/1
f 4/4/4 3/3/3 1/1/1
f 4/4/4 1/1/1 5/5/5
f 6/6/6 4/4/4 5/5/5
f 6/6/6 5/5/5 7/7/7
f 8/8/8 6/6/6 7/7/7
f 11/11/11 10/10/10 9/9/9
f 10/10/10 12/12/12 9/9/9
f 13/13/13 12/12/12 10/10/10
f 14/14/14 13/13/13 10/10/10
f 13/13/13 14/14/14 15/15/15
f 16/16/16 13/13/13 15/15/15
f 16/16/16 15/15/15 17/17/17
f 15/15/15 18/18/18 17/17/17
f 21/21/21 20/20/20 19/19/19
f 22/22/22 21/21/21 19/19/19
f 19/19/19 23/23/23 22/22/22
f 23/23/23 24/24/24 22/22/22
f 24/24/24 23/23/23 25/25/25
f 23/23/23 26/26/26 25/25/25
f 27/27/27 25/25/25 26/26/26
f 28/28/28 27/27/27 26/26/26
f 31/31/31 30/30/30 29/29/29
f 30/30/30 32/32/32 29/29/29
f 33/33/33 29/29/29 32/32/32
f 34/34/34 33/33/33 32/32/32
f 33/33/33 34/34/34 35/35/35
f 34/34/34 36/36/36 35/35/35
f 39/39/39 38/38/38 37/37/37
f 38/38/38 40/40/40 37/37/37
f 37/37/37 40/40/40 41/41/41
f 40/40/40 42/42/42 41/41/41
f 41/41/41 42/42/42 43/43/43
f 42/42/42 44/44/44 43/43/43
f 43/43/43 44/44/44 45/45/45
f 44/44/44 46/46/46 45/45/45
f 49/49/49 48/48/48 47/47/47
f 50/50/50 49/49/49 47/47/47
f 49/49/49 50/50/50 51/51/51
f 50/50/50 52/52/52 51/51/51
f 53/53/53 51/51/51 52/52/52
f 54/54/54 53/53/53 52/52/52
f 53/53/53 54/54/54 55/55/55
f 54/54/54 56/56/56 55/55/55
f 59/59/59 58/58/58 57/57/57
f 60/60/60 59/59/59 57/57/57
f 59/59/59 60/60/60 61/61/61
f 62/62/62 59/59/59 61/61/61
f 63/63/63 62/62/62 61/61/61
f 64/64/64 63/63/63 61/61/61
f 63/63/63 64/64/64 65/65/65
f 66/66/66 63/63/63 65/65/65
f 69/69/69 68/68/68 67/67/67
f 68/68/68 70/70/70 67/67/67
f 67/67/67 70/70/70 71/71/71
f 72/72/72 67/67/67 71/71/71
f 75/75/75 74/74/74 73/73/73
f 76/76/76 75/75/75 73/73/73
f 75/75/75 76/76/76 77/77/77
f 76/76/76 78/78/78 77/77/77
f 81/81/81 80/80/80 79/79/79
f 82/82/82 81/81/81 79/79/79
f 81/81/81 82/82/82 83/83/83
f 84/84/84 81/81/81 83/83/83
f 87/87/87 86/86/86 85/85/85
f 86/86/86 88/88/88 85/85/85
f 85/85/85 88/88/88 89/89/89
f 88/88/88 90/90/90 89/89/89
f 89/89/89 90/90/90 91/91/91
f 90/90/90 92/92/92 91/91/91
f 91/91/91 92/92/92 93/93/93
f 92/92/92 94/94/94 93/93/93
f 97/97/97 96/96/96 95/95/95
f 96/96/96 98/98/98 95/95/95
f 95/95/95 98/98/98 99/99/99
f 98/98/98 100/100/100 99/99/99
f 103/103/103 102/102/102 101/101/101
f 102/102/102 104/104/104 101/101/101
f 101/101/101 104/104/104 105/105/105
f 104/104/104 106/106/106 105/105/105
f 105/105/105 106/106/106 107/107/107
f 106/106/106 108/108/108 107/107/107
f 111/111/111 110/110/110 109/109/109
f 110/110/110 112/112/112 109/109/109
f 113/113/113 109/109/109 112/112/112
f 114/114/114 113/113/113 112/112/112
f 113/113/113 114/114/114 115/115/115
f 114/114/114 116/116/116 115/115/115
f 119/119/119 118/118/118 117/117/117
f 120/120/120 119/119/119 117/117/117
f 121/121/121 120/120/120 117/117/117
f 122/122/122 121/121/121 117/117/117
f 121/121/121 122/122/122 123/123/123
f 124/124/124 121/121/121 123/123/123
f 127/127/127 126/126/126 125/125/125
f 128/128/128 127/127/127 125/125/125
f 129/129/129 127/127/127 128/128/128
f 130/130/130 129/129/129 128/128/128
f 131/131/131 129/129/129 130/130/130
f 132/132/132 131/131/131 130/130/130
f 135/135/135 134/134/134 133/133/133
f 134/134/134 136/136/136 133/133/133
f 133/133/133 136/136/136 137/137/137
f 136/136/136 138/138/138 137/137/137
f 137/137/137 138/138/138 139/139/139
f 138/138/138 140/140/140 139/139/139
f 143/143/143 142/142/142 141/141/141
f 144/144/144 143/143/143 141/141/141
f 147/147/147 146/146/146 145/145/145
f 148/148/148 147/147/147 145/145/145
f 148/148/148 145/145/145 149/149/149
f 150/150/150 148/148/148 149/149/149
f 150/150/150 149/149/149 151/151/151
f 152/152/152 150/150/150 151/151/151
f 152/152/152 151/151/151 153/153/153
f 154/154/154 152/152/152 153/153/153
f 157/157/157 156/156/156 155/155/155
f 156/156/156 158/158/158 155/155/155
f 158/158/158 156/156/156 159/159/159
f 160/160/160 158/158/158 159/159/159
f 159/159/159 161/161/161 160/160/160
f 161/161/161 162/162/162 160/160/160
f 162/162/162 161/161/161 163/163/163
f 164/164/164 162/162/162 163/163/163
f 167/167/167 166/166/166 165/165/165
f 166/166/166 168/168/168 165/165/165
f 168/168/168 166/166/166 169/169/169
f 166/166/166 170/170/170 169/169/169
f 170/170/170 171/171/171 169/169/169
f 171/171/171 172/172/172 169/169/169
f 172/172/172 171/171/171 173/173/173
f 171/171/171 174/174/174 173/173/173
f 177/177/177 176/176/176 175/175/175
f 178/178/178 177/177/177 175/175/175
f 178/178/178 175/175/175 179/179/179
f 175/175/175 180/180/180 179/179/179
f 183/183/183 182/182/182 181/181/181
f 182/182/182 184/184/184 181/181/181
f 184/184/184 182/182/182 185/185/185
f 186/186/186 184/184/184 185/185/185
f 189/189/189 188/188/188 187/187/187
f 188/188/188 190/190/190 187/187/187
f 190/190/190 188/188/188 191/191/191
f 188/188/188 192/192/192 191/191/191
f 195/195/195 194/194/194 193/193/193
f 196/196/196 195/195/195 193/193/193
f 196/196/196 193/193/193 197/197/197
f 198/198/198 196/196/196 197/197/197
f 198/198/198 197/197/197 199/199/199
f 200/200/200 198/198/198 199/199/199
f 200/200/200 199/199/199 201/201/201
f 202/202/202 200/200/200 201/201/201
f 205/205/205 204/204/204 203/203/203
f 206/206/206 205/205/205 203/203/203
f 206/206/206 203/203/203 207/207/207
f 208/208/208 206/206/206 207/207/207
f 211/211/211 210/210/210 209/209/209
f 212/212/212 211/211/211 209/209/209
f 212/212/212 209/209/209 213/213/213
f 214/214/214 212/212/212 213/213/213
f 214/214/214 213/213/213 215/215/215
f 216/216/216 214/214/214 215/215/215
f 219/219/219 218/218/218 217/217/217
f 220/220/220 219/219/219 217/217/217
f 217/217/217 221/221/221 220/220/220
f 221/221/221 222/222/222 220/220/220
f 222/222/222 221/221/221 223/223/223
f 224/224/224 222/222/222 223/223/223
f 227/227/227 226/226/226 225/225/225
f 226/226/226 228/228/228 225/225/225
f 228/228/228 229/229/229 225/225/225
f 229/229/229 230/230/230 225/225/225
f 230/230/230 229/229/229 231/231/231
f 229/229/229 232/232/232 231/231/231
f 235/235/235 234/234/234 233/233/233
f 234/234/234 236/236/236 233/233/233
f 234/234/234 237/237/237 236/236/236
f 237/237/237 238/238/238 236/236/236
f 237/237/237 239/239/239 238/238/238
f 239/239/239 240/240/240 238/238/238
f 243/243/243 242/242/242 241/241/241
f 244/244/244 243/243/243 241/241/241
f 244/244/244 241/241/241 245/245/245
f 246/246/246 244/244/244 245/245/245
f 246/246/246 245/245/245 247/247/247
f 248/248/248 246/246/246 247/247/247
f 251/251/251 250/250/250 249/249/249
f 252/252/252 251/251/251 249/249/249
f 255/255/255 254/254/254 253/253/253
f 254/254/254 256/256/256 253/253/253
f 253/253/253 256/256/256 257/257/257
f 256/256/256 258/258/258 257/257/257
f 259/259/259 258/258/258 256/256/256
f 260/260/260 256/256/256 254/254/254
f 260/260/260 259/259/259 256/256/256
f 261/261/261 260/260/260 254/254/254
f 260/260/260 261/261/261 262/262/262
f 259/259/259 260/260/260 263/263/263
f 263/263/263 260/260/260 262/262/262
f 264/264/264 259/259/259 263/263/263
f 264/264/264 263/263/263 265/265/265
f 263/263/263 266/266/266 265/265/265
f 263/263/263 262/262/262 266/266/266
f 262/262/262 267/267/267 266/266/266
f 270/270/270 269/269/269 268/268/268
f 269/269/269 271/271/271 268/268/268
f 268/268/268 271/271/271 272/272/272
f 269/269/269 273/273/273 271/271/271
f 271/271/271 274/274/274 272/272/272
f 273/273/273 275/275/275 271/271/271
f 271/271/271 275/275/275 274/274/274
f 275/275/275 276/276/276 274/274/274
f 273/273/273 277/277/277 275/275/275
f 275/275/275 278/278/278 276/276/276
f 277/277/277 278/278/278 275/275/275
f 278/278/278 279/279/279 276/276/276
f 279/279/279 278/278/278 280/280/280
f 278/278/278 277/277/277 281/281/281
f 278/278/278 281/281/281 280/280/280
f 277/277/277 282/282/282 281/281/281
f 282/282/282 283/283/283 281/281/281
f 281/281/281 284/284/284 280/280/280
f 283/283/283 284/284/284 281/281/281
f 284/284/284 285/285/285 280/280/280
f 283/283/283 286/286/286 284/284/284
f 284/284/284 287/287/287 285/285/285
f 286/286/286 287/287/287 284/284/284
f 286/286/286 288/288/288 287/287/287
f 287/287/287 289/289/289 285/285/285
f 288/288/288 290/290/290 287/287/287
f 287/287/287 290/290/290 289/289/289
f 290/290/290 291/291/291 289/289/289
f 294/294/294 293/293/293 292/292/292
f 295/295/295 294/294/294 292/292/292
f 296/296/296 294/294/294 295/295/295
f 295/295/295 292/292/292 297/297/297
f 298/298/298 296/296/296 295/295/295
f 299/299/299 295/295/295 297/297/297
f 298/298/298 295/295/295 299/299/299
f 300/300/300 298/298/298 299/299/299
f 299/299/299 297/297/297 301/301/301
f 300/300/300 299/299/299 302/302/302
f 302/302/302 299/299/299 301/301/301
f 303/303/303 300/300/300 302/302/302
f 304/304/304 303/303/303 302/302/302
f 305/305/305 302/302/302 301/301/301
f 305/305/305 304/304/304 302/302/302
f 306/306/306 305/305/305 301/301/301
f 305/305/305 306/306/306 307/307/307
f 304/304/304 305/305/305 308/308/308
f 308/308/308 305/305/305 307/307/307
f 309/309/309 304/304/304 308/308/308
f 308/308/308 307/307/307 310/310/310
f 309/309/309 308/308/308 311/311/311
f 311/311/311 308/308/308 310/310/310
f 311/311/311 310/310/310 312/312/312
f 313/313/313 309/309/309 311/311/311
f 314/314/314 311/311/311 312/312/312
f 313/313/313 311/311/311 314/314/314
f 315/315/315 313/313/313 314/314/314
f 318/318/318 317/317/317 316/316/316
f 319/319/319 318/318/318 316/316/316
f 320/320/320 318/318/318 319/319/319
f 321/321/321 320/320/320 319/319/319
f 322/322/322 321/321/321 319/319/319
f 323/323/323 319/319/319 316/316/316
f 323/323/323 322/322/322 319/319/319
f 324/324/324 323/323/323 316/316/316
f 323/323/323 324/324/324 325/325/325
f 322/322/322 323/323/323 326/326/326
f 326/326/326 323/323/323 325/325/325
f 327/327/327 322/322/322 326/326/326
f 328/328/328 327/327/327 326/326/326
f 329/329/329 328/328/328 326/326/326
f 329/329/329 326/326/326 325/325/325
f 330/330/330 329/329/329 325/325/325
f 333/333/333 332/332/332 331/331/331
f 332/332/332 334/334/334 331/331/331
f 331/331/331 334/334/334 335/335/335
f 334/334/334 336/336/336 335/335/335
f 337/337/337 336/336/336 334/334/334
f 338/338/338 334/334/334 332/332/332
f 338/338/338 337/337/337 334/334/334
f 339/339/339 338/338/338 332/332/332
f 338/338/338 339/339/339 340/340/340
f 337/337/337 338/338/338 341/341/341
f 341/341/341 338/338/338 340/340/340
f 342/342/342 337/337/337 341/341/341
f 342/342/342 341/341/341 343/343/343
f 341/341/341 344/344/344 343/343/343
f 341/341/341 340/340/340 344/344/344
f 340/340/340 345/345/345 344/344/344
f 348/348/348 347/347/347 346/346/346
f 349/349/349 348/348/348 346/346/346
f 350/350/350 348/348/348 349/349/349
f 351/351/351 350/350/350 349/349/349
f 352/352/352 351/351/351 349/349/349
f 353/353/353 349/349/349 346/346/346
f 353/353/353 352/352/352 349/349/349
f 354/354/354 353/353/353 346/346/346
f 353/353/353 354/354/354 355/355/355
f 352/352/352 353/353/353 356/356/356
f 356/356/356 353/353/353 355/355/355
f 357/357/357 352/352/352 356/356/356
f 358/358/358 357/357/357 356/356/356
f 359/359/359 358/358/358 356/356/356
f 359/359/359 356/356/356 355/355/355
f 360/360/360 359/359/359 355/355/355
f 363/363/363 362/362/362 361/361/361
f 364/364/364 363/363/363 361/361/361
f 364/364/364 361/361/361 365/365/365
f 366/366/366 363/363/363 364/364/364
f 367/367/367 364/364/364 365/365/365
f 368/368/368 366/366/366 364/364/364
f 368/368/368 364/364/364 367/367/367
f 369/369/369 368/368/368 367/367/367
f 370/370/370 366/366/366 368/368/368
f 371/371/371 368/368/368 369/369/369
f 371/371/371 370/370/370 368/368/368
f 372/372/372 371/371/371 369/369/369
f 371/371/371 372/372/372 373/373/373
f 370/370/370 371/371/371 374/374/374
f 374/374/374 371/371/371 373/373/373
f 375/375/375 370/370/370 374/374/374
f 376/376/376 375/375/375 374/374/374
f 377/377/377 374/374/374 373/373/373
f 377/377/377 376/376/376 374/374/374
f 378/378/378 377/377/377 373/373/373
f 379/379/379 376/376/376 377/377/377
f 380/380/380 377/377/377 378/378/378
f 380/380/380 379/379/379 377/377/377
f 381/381/381 379/379/379 380/380/380
f 382/382/382 380/380/380 378/378/378
f 383/383/383 381/381/381 380/380/380
f 383/383/383 380/380/380 382/382/382
f 384/384/384 383/383/383 382/382/382
f 387/387/387 386/386/386 385/385/385
f 386/386/386 388/388/388 385/385/385
f 386/386/386 389/389/389 388/388/388
f 385/385/385 388/388/388 390/390/390
f 389/389/389 391/391/391 388/388/388
f 388/388/388 392/392/392 390/390/390
f 388/388/388 391/391/391 392/392/392
f 391/391/391 393/393/393 392/392/392
f 390/390/390 392/392/392 394/394/394
f 392/392/392 393/393/393 395/395/395
f 392/392/392 395/395/395 394/394/394
f 393/393/393 396/396/396 395/395/395
f 396/396/396 397/397/397 395/395/395
f 395/395/395 398/398/398 394/394/394
f 397/397/397 398/398/398 395/395/395
f 398/398/398 399/399/399 394/394/394
f 399/399/399 398/398/398 400/400/400
f 398/398/398 397/397/397 401/401/401
f 398/398/398 401/401/401 400/400/400
f 397/397/397 402/402/402 401/401/401
f 400/400/400 401/401/401 403/403/403
f 401/401/401 402/402/402 404/404/404
f 401/401/401 404/404/404 403/403/403
f 403/403/403 404/404/404 405/405/405
f 402/402/402 406/406/406 404/404/404
f 404/404/404 407/407/407 405/405/405
f 404/404/404 406/406/406 407/407/407
f 406/406/406 408/408/408 407/407/407
f 411/411/411 410/410/410 409/409/409
f 410/410/410 411/411/411 412/412/412
f 413/413/413 411/411/411 409/409/409
f 411/411/411 414/414/414 412/412/412
f 413/413/413 409/409/409 415/415/415
f 412/412/412 414/414/414 416/416/416
f 417/417/417 413/413/413 415/415/415
f 414/414/414 418/418/418 416/416/416
f 417/417/417 415/415/415 419/419/419
f 416/416/416 418/418/418 420/420/420
f 421/421/421 417/417/417 419/419/419
f 418/418/418 422/422/422 420/420/420
f 419/419/419 423/423/423 421/421/421
f 420/420/420 422/422/422 424/424/424
f 423/423/423 425/425/425 421/421/421
f 422/422/422 426/426/426 424/424/424
f 425/425/425 423/423/423 427/427/427
f 424/424/424 426/426/426 428/428/428
f 429/429/429 425/425/425 427/427/427
f 426/426/426 430/430/430 428/428/428
f 429/429/429 427/427/427 431/431/431
f 432/432/432 429/429/429 431/431/431
f 428/428/428 430/430/430 433/433/433
f 430/430/430 434/434/434 433/433/433
f 435/435/435 432/432/432 431/431/431
f 434/434/434 435/435/435 433/433/433
f 436/436/436 435/435/435 431/431/431
f 435/435/435 436/436/436 433/433/433
f 439/439/439 438/438/438 437/437/437
f 438/438/438 439/439/439 440/440/440
f 441/441/441 439/439/439 437/437/437
f 439/439/439 442/442/442 440/440/440
f 441/441/441 437/437/437 443/443/443
f 440/440/440 442/442/442 444/444/444
f 445/445/445 441/441/441 443/443/443
f 442/442/442 446/446/446 444/444/444
f 445/445/445 443/443/443 447/447/447
f 444/444/444 446/446/446 448/448/448
f 449/449/449 445/445/445 447/447/447
f 446/446/446 450/450/450 448/448/448
f 447/447/447 451/451/451 449/449/449
f 448/448/448 450/450/450 452/452/452
f 451/451/451 453/453/453 449/449/449
f 450/450/450 454/454/454 452/452/452
f 453/453/453 451/451/451 455/455/455
f 452/452/452 454/454/454 456/456/456
f 457/457/457 453/453/453 455/455/455
f 454/454/454 458/458/458 456/456/456
f 457/457/457 455/455/455 459/459/459
f 456/456/456 458/458/458 460/460/460
f 461/461/461 457/457/457 459/459/459
f 458/458/458 462/462/462 460/460/460
f 461/461/461 459/459/459 463/463/463
f 460/460/460 462/462/462 463/463/463
f 464/464/464 461/461/461 463/463/463
f 462/462/462 464/464/464 463/463/463
f 467/467/467 466/466/466 465/465/465
f 466/466/466 467/467/467 468/468/468
f 466/466/466 469/469/469 465/465/465
f 470/470/470 466/466/466 468/468/468
f 465/465/465 469/469/469 471/471/471
f 470/470/470 468/468/468 472/472/472
f 473/473/473 465/465/465 471/471/471
f 468/468/468 474/474/474 472/472/472
f 473/473/473 471/471/471 475/475/475
f 472/472/472 474/474/474 476/476/476
f 477/477/477 473/473/473 475/475/475
f 474/474/474 478/478/478 476/476/476
f 477/477/477 475/475/475 479/479/479
f 476/476/476 478/478/478 480/480/480
f 481/481/481 477/477/477 479/479/479
f 478/478/478 482/482/482 480/480/480
f 481/481/481 479/479/479 483/483/483
f 484/484/484 481/481/481 483/483/483
f 480/480/480 482/482/482 485/485/485
f 482/482/482 486/486/486 485/485/485
f 487/487/487 484/484/484 483/483/483
f 488/488/488 487/487/487 483/483/483
f 487/487/487 488/488/488 489/489/489
f 490/490/490 487/487/487 489/489/489
f 490/490/490 489/489/489 491/491/491
f 492/492/492 490/490/490 491/491/491
f 492/492/492 491/491/491 493/493/493
f 494/494/494 492/492/492 493/493/493
f 486/486/486 495/495/495 485/485/485
f 495/495/495 496/496/496 485/485/485
f 496/496/496 495/495/495 497/497/497
f 495/495/495 498/498/498 497/497/497
f 497/497/497 498/498/498 499/499/499
f 498/498/498 500/500/500 499/499/499
f 499/499/499 500/500/500 501/501/501
f 500/500/500 502/502/502 501/501/501
f 494/494/494 493/493/493 503/503/503
f 504/504/504 494/494/494 503/503/503
f 501/501/501 502/502/502 505/505/505
f 502/502/502 506/506/506 505/505/505
f 507/507/507 504/504/504 503/503/503
f 506/506/506 507/507/507 505/505/505
f 508/508/508 507/507/507 503/503/503
f 507/507/507 508/508/508 505/505/505
f 511/511/511 510/510/510 509/509/509
f 510/510/510 511/511/511 512/512/512
f 510/510/510 513/513/513 509/509/509
f 514/514/514 510/510/510 512/512/512
f 509/509/509 513/513/513 515/515/515
f 514/514/514 512/512/512 516/516/516
f 517/517/517 509/509/509 515/515/515
f 512/512/512 518/518/518 516/516/516
f 517/517/517 515/515/515 519/519/519
f 516/516/516 518/518/518 520/520/520
f 521/521/521 517/517/517 519/519/519
f 518/518/518 522/522/522 520/520/520
f 521/521/521 519/519/519 523/523/523
f 520/520/520 522/522/522 524/524/524
f 525/525/525 521/521/521 523/523/523
f 522/522/522 526/526/526 524/524/524
f 525/525/525 523/523/523 527/527/527
f 528/528/528 525/525/525 527/527/527
f 524/524/524 526/526/526 529/529/529
f 526/526/526 530/530/530 529/529/529
f 531/531/531 528/528/528 527/527/527
f 532/532/532 531/531/531 527/527/527
f 531/531/531 532/532/532 533/533/533
f 534/534/534 531/531/531 533/533/533
f 534/534/534 533/533/533 535/535/535
f 536/536/536 534/534/534 535/535/535
f 536/536/536 535/535/535 537/537/537
f 538/538/538 536/536/536 537/537/537
f 530/530/530 539/539/539 529/529/529
f 539/539/539 540/540/540 529/529/529
f 540/540/540 539/539/539 541/541/541
f 539/539/539 542/542/542 541/541/541
f 541/541/541 542/542/542 543/543/543
f 542/542/542 544/544/544 543/543/543
f 543/543/543 544/544/544 545/545/545
f 544/544/544 546/546/546 545/545/545
f 538/538/538 537/537/537 547/547/547
f 548/548/548 538/538/538 547/547/547
f 545/545/545 546/546/546 549/549/549
f 546/546/546 550/550/550 549/549/549
f 551/551/551 548/548/548 547/547/547
f 550/550/550 551/551/551 549/549/549
f 552/552/552 551/551/551 547/547/547
f 551/551/551 552/552/552 549/549/549
f 555/555/555 554/554/554 553/553/553
f 554/554/554 555/555/555 556/556/556
f 554/554/554 557/557/557 553/553/553
f 558/558/558 554/554/554 556/556/556
f 553/553/553 557/557/557 559/559/559
f 558/558/558 556/556/556 560/560/560
f 561/561/561 553/553/553 559/559/559
f 556/556/556 562/562/562 560/560/560
f 561/561/561 559/559/559 563/563/563
f 560/560/560 562/562/562 564/564/564
f 565/565/565 561/561/561 563/563/563
f 562/562/562 566/566/566 564/564/564
f 565/565/565 563/563/563 567/567/567
f 564/564/564 566/566/566 568/568/568
f 569/569/569 565/565/565 567/567/567
f 566/566/566 570/570/570 568/568/568
f 569/569/569 567/567/567 571/571/571
f 572/572/572 569/569/569 571/571/571
f 568/568/568 570/570/570 573/573/573
f 570/570/570 574/574/574 573/573/573
f 575/575/575 572/572/572 571/571/571
f 576/576/576 575/575/575 571/571/571
f 575/575/575 576/576/576 577/577/577
f 578/578/578 575/575/575 577/577/577
f 578/578/578 577/577/577 579/579/579
f 580/580/580 578/578/578 579/579/579
f 580/580/580 579/579/579 581/581/581
f 582/582/582 580/580/580 581/581/581
f 574/574/574 583/583/583 573/573/573
f 583/583/583 584/584/584 573/573/573
f 584/584/584 583/583/583 585/585/585
f 583/583/583 586/586/586 585/585/585
f 585/585/585 586/586/586 587/587/587
f 586/586/586 588/588/588 587/587/587
f 587/587/587 588/588/588 589/589/589
f 588/588/588 590/590/590 589/589/589
f 582/582/582 581/581/581 591/591/591
f 592/592/592 582/582/582 591/591/591
f 589/589/589 590/590/590 593/593/593
f 590/590/590 594/594/594 593/593/593
f 595/595/595 592/592/592 591/591/591
f 594/594/594 595/595/595 593/593/593
f 596/596/596 595/595/595 591/591/591
f 595/595/595 596/596/596 593/593/593
f 599/599/599 598/598/598 597/597/597
f 598/598/598 599/599/599 600/600/600
f 598/598/598 601/601/601 597/597/597
f 602/602/602 598/598/598 600/600/600
f 597/597/597 601/601/601 603/603/603
f 602/602/602 600/600/600 604/604/604
f 605/605/605 597/597/597 603/603/603
f 600/600/600 606/606/606 604/604/604
f 605/605/605 603/603/603 607/607/607
f 604/604/604 606/606/606 608/608/608
f 609/609/609 605/605/605 607/607/607
f 606/606/606 610/610/610 608/608/608
f 609/609/609 607/607/607 611/611/611
f 608/608/608 610/610/610 612/612/612
f 613/613/613 609/609/609 611/611/611
f 610/610/610 614/614/614 612/612/612
f 613/613/613 611/611/611 615/615/615
f 616/616/616 613/613/613 615/615/615
f 612/612/612 614/614/614 617/617/617
f 614/614/614 618/618/618 617/617/617
f 619/619/619 616/616/616 615/615/615
f 620/620/620 619/619/619 615/615/615
f 619/619/619 620/620/620 621/621/621
f 622/622/622 619/619/619 621/621/621
f 622/622/622 621/621/621 623/623/623
f 624/624/624 622/622/622 623/623/623
f 624/624/624 623/623/623 625/625/625
f 626/626/626 624/624/624 625/625/625
f 618/618/618 627/627/627 617/617/617
f 627/627/627 628/628/628 617/617/617
f 628/628/628 627/627/627 629/629/629
f 627/627/627 630/630/630 629/629/629
f 629/629/629 630/630/630 631/631/631
f 630/630/630 632/632/632 631/631/631
f 631/631/631 632/632/632 633/633/633
f 632/632/632 634/634/634 633/633/633
f 626/626/626 625/625/625 635/635/635
f 636/636/636 626/626/626 635/635/635
f 633/633/633 634/634/634 637/637/637
f 634/634/634 638/638/638 637/637/637
f 639/639/639 636/636/636 635/635/635
f 638/638/638 639/639/639 637/637/637
f 640/640/640 639/639/639 635/635/635
f 639/639/639 640/640/640 637/637/637
f 643/643/643 642/642/642 641/641/641
f 644/644/644 643/643/643 641/641/641
f 641/641/641 642/642/642 645/645/645
f 646/646/646 643/643/643 644/644/644
f 642/642/642 647/647/647 645/645/645
f 648/648/648 646/646/646 644/644/644
f 645/645/645 647/647/647 648/648/648
f 647/647/647 646/646/646 648/648/648
f 651/651/651 650/650/650 649/649/649
f 652/652/652 651/651/651 649/649/649
f 651/651/651 653/653/653 650/650/650
f 652/652/652 649/649/649 654/654/654
f 653/653/653 655/655/655 650/650/650
f 656/656/656 652/652/652 654/654/654
f 656/656/656 654/654/654 655/655/655
f 653/653/653 656/656/656 655/655/655

