mtllib material.mtl
usemtl material_0
v -0.29757000 0.12344000 -0.01623000
v -0.30361000 0.12594000 -0.01623000
v -0.30731000 0.12286000 -0.01987000
v -0.29733000 0.11969000 -0.01987000
v -0.42308000 0.01037000 -0.01987000
v -0.31059000 0.13198000 -0.01987000
v 0.00000000 0.01030000 -0.01987000
v 0.00000000 0.12109000 -0.01987000
v -0.42310000 0.51489000 -0.01987000
v 0.29656000 0.11969000 -0.01987000
v -0.31059000 0.43080000 -0.01987000
v 0.42145000 0.01037000 -0.01987000
v -0.30731000 0.43992000 -0.01987000
v 0.30654000 0.12286000 -0.01987000
v 0.29681000 0.12344000 -0.01623000
v 0.30284000 0.12594000 -0.01623000
v 0.30982000 0.13198000 -0.01987000
v 0.30982000 0.43080000 -0.01987000
v 0.42147000 0.51489000 -0.01987000
v 0.30654000 0.43992000 -0.01987000
v -0.29733000 0.44308000 -0.01987000
v -0.29757000 0.43934000 -0.01623000
v -0.30361000 0.43684000 -0.01623000
v 0.00000000 0.51489000 -0.01987000
v 0.00000000 0.44169000 -0.01987000
v 0.29656000 0.44308000 -0.01987000
v 0.29681000 0.43934000 -0.01623000
v 0.30284000 0.43684000 -0.01623000
v 0.00000000 0.51717000 -0.01795000
v -0.42296000 0.51717000 -0.01795000
v 0.42133000 0.51717000 -0.01795000
v 0.00000000 0.51953000 -0.01795000
v -0.42296000 0.51953000 -0.01795000
v 0.42133000 0.51953000 -0.01795000
v -0.30611000 0.13198000 -0.01623000
v 0.00000000 0.01030000 -0.01987000
v -0.42308000 0.01037000 -0.01987000
v -0.42474000 0.00697000 -0.01516000
v 0.00000000 0.00697000 -0.01516000
v 0.42310000 0.00697000 -0.01516000
v 0.42145000 0.01037000 -0.01987000
v 0.00000000 0.00697000 -0.00205000
v -0.42474000 0.00697000 -0.00205000
v 0.42310000 0.00697000 -0.00205000
v 0.00000000 0.01030000 0.00457000
v -0.42308000 0.01037000 0.00457000
v 0.42145000 0.01037000 0.00457000
v -0.30611000 0.43080000 -0.01623000
v -0.42474000 0.55506000 -0.01795000
v -0.42314000 0.52164000 -0.01989000
v -0.42308000 0.55461000 -0.01987000
v -0.42474000 0.52164000 -0.01795000
v -0.42474000 0.52164000 -0.00432000
v -0.42474000 0.55506000 -0.00432000
v -0.42389000 0.55711000 -0.01795000
v -0.42389000 0.55711000 -0.00432000
v -0.42308000 0.55461000 -0.01987000
v -0.42389000 0.55711000 -0.01795000
v -0.42474000 0.55506000 -0.01795000
v -0.42183000 0.55796000 -0.01795000
v 0.00000000 0.55796000 -0.01795000
v 0.00000000 0.55461000 -0.01987000
v 0.42145000 0.55461000 -0.01987000
v 0.42020000 0.55796000 -0.01795000
v 0.42225000 0.55711000 -0.01795000
v 0.42310000 0.55506000 -0.01795000
v 0.00000000 0.52487000 -0.01987000
v -0.42314000 0.52164000 -0.01989000
v 0.42151000 0.52164000 -0.01989000
v -0.29757000 0.12344000 0.00071000
v -0.30731000 0.12286000 0.00457000
v -0.30361000 0.12594000 0.00071000
v -0.29733000 0.11969000 0.00457000
v 0.00000000 0.12109000 0.00457000
v 0.00000000 0.12344000 0.00071000
v 0.29681000 0.12344000 0.00071000
v 0.29656000 0.11969000 0.00457000
v 0.30654000 0.12286000 0.00457000
v 0.30284000 0.12594000 0.00071000
v -0.42308000 0.01037000 0.00457000
v -0.31059000 0.13198000 0.00457000
v -0.31059000 0.43080000 0.00457000
v -0.29733000 0.11969000 0.00457000
v -0.42308000 0.51292000 0.00457000
v 0.00000000 0.01030000 0.00457000
v 0.00000000 0.12109000 0.00457000
v 0.29656000 0.11969000 0.00457000
v 0.42145000 0.01037000 0.00457000
v 0.30982000 0.13198000 0.00457000
v 0.30982000 0.43080000 0.00457000
v 0.42145000 0.51292000 0.00457000
v -0.30731000 0.43992000 0.00457000
v 0.30654000 0.43992000 0.00457000
v -0.29733000 0.44308000 0.00457000
v 0.00000000 0.51292000 0.00457000
v 0.00000000 0.44169000 0.00457000
v 0.29656000 0.44308000 0.00457000
v -0.29757000 0.43934000 0.00071000
v -0.30361000 0.43684000 0.00071000
v -0.29733000 0.44308000 0.00457000
v 0.00000000 0.44169000 0.00457000
v 0.00000000 0.43934000 0.00071000
v 0.29681000 0.43934000 0.00071000
v 0.30284000 0.43684000 0.00071000
v 0.29656000 0.44308000 0.00457000
v -0.30611000 0.13198000 0.00071000
v -0.42205000 0.55461000 -0.00205000
v 0.00000000 0.55264000 0.00457000
v -0.41960000 0.55264000 0.00457000
v 0.00000000 0.55461000 -0.00205000
v 0.00000000 0.55796000 -0.00432000
v -0.42183000 0.55796000 -0.00432000
v 0.42042000 0.55461000 -0.00205000
v 0.41797000 0.55264000 0.00457000
v 0.42020000 0.55796000 -0.00432000
v -0.42243000 0.52164000 -0.00205000
v -0.41960000 0.55264000 0.00457000
v -0.41960000 0.52489000 0.00457000
v -0.42205000 0.55461000 -0.00205000
v -0.42474000 0.55506000 -0.00432000
v -0.42474000 0.52164000 -0.00432000
v -0.31453000 0.53739000 0.00216000
v -0.41439000 0.53739000 0.00216000
v -0.41439000 0.54184000 0.00216000
v -0.31453000 0.54184000 0.00216000
v -0.31453000 0.53739000 0.00457000
v -0.41439000 0.53739000 0.00457000
v -0.41439000 0.53739000 0.00216000
v -0.31453000 0.53739000 0.00216000
v -0.41439000 0.53739000 0.00457000
v -0.41439000 0.54184000 0.00457000
v -0.41439000 0.54184000 0.00216000
v -0.41439000 0.53739000 0.00216000
v -0.41439000 0.54184000 0.00457000
v -0.31453000 0.54184000 0.00457000
v -0.31453000 0.54184000 0.00216000
v -0.41439000 0.54184000 0.00216000
v -0.31453000 0.54184000 0.00457000
v -0.31453000 0.53739000 0.00457000
v -0.31453000 0.53739000 0.00216000
v -0.31453000 0.54184000 0.00216000
v -0.30611000 0.43080000 0.00071000
v 0.00000000 0.51292000 0.00457000
v -0.42308000 0.51292000 0.00457000
v -0.42474000 0.51489000 -0.00205000
v 0.00000000 0.51489000 -0.00205000
v -0.42334000 0.51717000 -0.00345000
v 0.00000000 0.51717000 -0.00345000
v 0.42171000 0.51717000 -0.00345000
v 0.42310000 0.51489000 -0.00205000
v 0.42145000 0.51292000 0.00457000
v -0.42474000 0.00697000 -0.00205000
v -0.42308000 0.51292000 0.00457000
v -0.42308000 0.01037000 0.00457000
v -0.42474000 0.51489000 -0.00205000
v -0.42474000 0.00697000 -0.01516000
v -0.42474000 0.51489000 -0.01516000
v -0.42308000 0.01037000 -0.01987000
v -0.42310000 0.51489000 -0.01987000
v -0.42296000 0.51717000 -0.01795000
v -0.42334000 0.51717000 -0.01747000
v -0.42334000 0.51717000 -0.00345000
v -0.42334000 0.51953000 -0.01747000
v -0.42296000 0.51953000 -0.01795000
v -0.42334000 0.51953000 -0.00496000
v -0.42334000 0.52164000 -0.00496000
v -0.42180000 0.52164000 -0.00345000
v -0.42334000 0.52164000 -0.01747000
v -0.42296000 0.52164000 -0.01795000
v 0.00000000 0.51717000 -0.00345000
v -0.42334000 0.51717000 -0.00345000
v -0.42180000 0.52164000 -0.00345000
v 0.00000000 0.52164000 -0.00345000
v 0.42017000 0.52164000 -0.00345000
v 0.42171000 0.51717000 -0.00345000
v -0.42183000 0.55796000 -0.01795000
v -0.42389000 0.55711000 -0.00432000
v -0.42389000 0.55711000 -0.01795000
v -0.42183000 0.55796000 -0.00432000
v 0.00000000 0.55796000 -0.01795000
v 0.00000000 0.55796000 -0.00432000
v 0.42020000 0.55796000 -0.00432000
v 0.42020000 0.55796000 -0.01795000
v 0.42225000 0.55711000 -0.00432000
v 0.42225000 0.55711000 -0.01795000
v -0.42205000 0.55461000 -0.00205000
v -0.42474000 0.55506000 -0.00432000
v -0.42389000 0.55711000 -0.00432000
v -0.42183000 0.55796000 -0.00432000
v -0.42314000 0.52164000 -0.01989000
v -0.42474000 0.52164000 -0.01795000
v -0.42334000 0.52164000 -0.01747000
v -0.42296000 0.52164000 -0.01795000
v 0.00000000 0.52487000 -0.01987000
v 0.00000000 0.52487000 -0.01795000
v 0.42133000 0.52164000 -0.01795000
v 0.42151000 0.52164000 -0.01989000
v 0.42171000 0.52164000 -0.01747000
v 0.42310000 0.52164000 -0.01795000
v -0.42334000 0.52164000 -0.00496000
v -0.42474000 0.52164000 -0.00432000
v -0.42180000 0.52164000 -0.00345000
v -0.42243000 0.52164000 -0.00205000
v 0.00000000 0.52164000 -0.00345000
v 0.00000000 0.52164000 -0.00205000
v -0.41960000 0.52489000 0.00457000
v 0.00000000 0.52489000 0.00457000
v 0.41797000 0.52489000 0.00457000
v 0.42080000 0.52164000 -0.00205000
v 0.42017000 0.52164000 -0.00345000
v 0.42310000 0.52164000 -0.00432000
v 0.42171000 0.52164000 -0.00496000
v 0.00000000 0.43934000 -0.01606000
v 0.00000000 0.44169000 -0.01987000
v 0.00000000 0.12109000 -0.01987000
v 0.00000000 0.12344000 -0.01606000
v 0.00000000 0.52487000 -0.01795000
v -0.42296000 0.52164000 -0.01795000
v 0.42133000 0.52164000 -0.01795000
v 0.30534000 0.13198000 -0.01623000
v 0.30534000 0.43080000 -0.01623000
v 0.42310000 0.00697000 -0.01516000
v 0.42147000 0.51489000 -0.01987000
v 0.42145000 0.01037000 -0.01987000
v 0.42310000 0.51489000 -0.01516000
v 0.42133000 0.51717000 -0.01795000
v 0.42310000 0.51489000 -0.00205000
v 0.42310000 0.00697000 -0.00205000
v 0.42145000 0.51292000 0.00457000
v 0.42145000 0.01037000 0.00457000
v 0.42171000 0.51717000 -0.01747000
v 0.42171000 0.51717000 -0.00345000
v 0.42171000 0.51953000 -0.01747000
v 0.42133000 0.51953000 -0.01795000
v 0.42171000 0.51953000 -0.00496000
v 0.42171000 0.52164000 -0.00496000
v 0.42017000 0.52164000 -0.00345000
v 0.42171000 0.52164000 -0.01747000
v 0.42133000 0.52164000 -0.01795000
v 0.42310000 0.55506000 -0.01795000
v 0.42145000 0.55461000 -0.01987000
v 0.42151000 0.52164000 -0.01989000
v 0.42310000 0.52164000 -0.01795000
v 0.42310000 0.52164000 -0.00432000
v 0.42310000 0.55506000 -0.00432000
v 0.42225000 0.55711000 -0.01795000
v 0.42225000 0.55711000 -0.00432000
v 0.30534000 0.13198000 0.00071000
v 0.26602000 0.53739000 0.00216000
v 0.26602000 0.54184000 0.00216000
v 0.41276000 0.54184000 0.00216000
v 0.41276000 0.53739000 0.00216000
v 0.26602000 0.53739000 0.00457000
v 0.26602000 0.53739000 0.00216000
v 0.41276000 0.53739000 0.00216000
v 0.41276000 0.53739000 0.00457000
v 0.41276000 0.53739000 0.00457000
v 0.41276000 0.53739000 0.00216000
v 0.41276000 0.54184000 0.00216000
v 0.41276000 0.54184000 0.00457000
v 0.41276000 0.54184000 0.00457000
v 0.41276000 0.54184000 0.00216000
v 0.26602000 0.54184000 0.00216000
v 0.26602000 0.54184000 0.00457000
v 0.26602000 0.54184000 0.00457000
v 0.26602000 0.54184000 0.00216000
v 0.26602000 0.53739000 0.00216000
v 0.26602000 0.53739000 0.00457000
v 0.42080000 0.52164000 -0.00205000
v 0.41797000 0.52489000 0.00457000
v 0.41797000 0.55264000 0.00457000
v 0.42042000 0.55461000 -0.00205000
v 0.42310000 0.55506000 -0.00432000
v 0.42310000 0.52164000 -0.00432000
v 0.30534000 0.43080000 0.00071000
v 0.42042000 0.55461000 -0.00205000
v 0.42020000 0.55796000 -0.00432000
v 0.42225000 0.55711000 -0.00432000
v 0.42310000 0.55506000 -0.00432000
v -0.41960000 0.55264000 0.00457000
v -0.31453000 0.54184000 0.00457000
v -0.41439000 0.54184000 0.00457000
v -0.41960000 0.52489000 0.00457000
v -0.41439000 0.53739000 0.00457000
v 0.00000000 0.55264000 0.00457000
v 0.00000000 0.52489000 0.00457000
v -0.31453000 0.53739000 0.00457000
v 0.26602000 0.53739000 0.00457000
v 0.26602000 0.54184000 0.00457000
v 0.41276000 0.53739000 0.00457000
v 0.41797000 0.55264000 0.00457000
v 0.41797000 0.52489000 0.00457000
v 0.41276000 0.54184000 0.00457000
vn 0.00189297 0.18031850 -0.98360650
vn 0.08707194 0.09436218 -0.99172290
vn 0.01560894 0.01532997 -0.99976070
vn 0.00009834 0.01857108 -0.99982750
vn 0.00000000 0.00000000 -1.00000000
vn 0.01573324 0.00012392 -0.99987630
vn 0.00000000 0.00000000 -1.00000000
vn 0.00000000 0.00000000 -1.00000000
vn 0.00000000 0.02180364 -0.99976220
vn -0.00009884 0.01861019 -0.99982680
vn 0.01698493 -0.00013378 -0.99985580
vn 0.00000000 0.00000000 -1.00000000
vn 0.01888140 -0.01854536 -0.99964980
vn -0.01566552 0.01538475 -0.99975890
vn -0.00189787 0.18032520 -0.98360520
vn -0.08707166 0.09436238 -0.99172290
vn -0.01582802 0.00012466 -0.99987470
vn -0.01708598 -0.00013457 -0.99985400
vn 0.00000000 0.02189604 -0.99976020
vn -0.01895444 -0.01861840 -0.99964700
vn 0.00013750 -0.02595964 -0.99966300
vn 0.00207268 -0.20060410 -0.97967020
vn 0.09004243 -0.09757990 -0.99114600
vn 0.00000000 0.03014909 -0.99954540
vn 0.00000000 0.00000000 -1.00000000
vn -0.00013814 -0.02600717 -0.99966170
vn -0.00207796 -0.20060870 -0.97966930
vn -0.09004159 -0.09757987 -0.99114610
vn 0.00000000 0.38373400 -0.92344370
vn 0.00000000 0.38848800 -0.92145370
vn 0.00000000 0.38849160 -0.92145230
vn 0.00000000 -0.00036336 -1.00000000
vn 0.00000165 -0.00036336 -1.00000000
vn -0.00000164 -0.00036336 -1.00000000
vn 0.17913970 0.00200625 -0.98382160
vn 0.00000000 -0.81382230 -0.58111380
vn -0.00006781 -0.81382330 -0.58111230
vn -0.00001875 -0.98700350 -0.16069870
vn 0.00000000 -0.98269300 -0.18524210
vn 0.00001882 -0.98700360 -0.16069830
vn 0.00006806 -0.81382140 -0.58111520
vn 0.00000000 -0.98581380 0.16784250
vn -0.00002493 -0.98838750 0.15195430
vn 0.00002503 -0.98838750 0.15195410
vn 0.00000000 -0.89160080 0.45282210
vn -0.00007430 -0.89160150 0.45282090
vn 0.00007458 -0.89160020 0.45282340
vn 0.17311770 -0.00193875 -0.98489920
vn -0.99501280 0.02618233 -0.09624960
vn -0.76585140 0.00085119 -0.64301700
vn -0.00505650 0.04541711 -0.99895540
vn -0.99465130 0.00013673 -0.10329000
vn -1.00000000 0.00000000 0.00000000
vn -0.99971280 0.02396601 0.00000000
vn -0.92387740 0.38268880 0.00000000
vn -0.92387740 0.38268880 0.00000000
vn -0.00505650 0.04541711 -0.99895540
vn -0.45010940 0.45012470 -0.77122580
vn -0.99501280 0.02618233 -0.09624960
vn -0.00084237 0.49881880 -0.86670590
vn 0.00000000 0.49880930 -0.86671170
vn 0.00000000 0.05562955 -0.99845150
vn 0.00507606 0.04541712 -0.99895520
vn 0.00084565 0.49881740 -0.86670670
vn 0.45010410 0.45011950 -0.77123200
vn 0.99501260 0.02618209 -0.09625184
vn 0.00000000 0.00031629 -1.00000000
vn 0.00002220 0.00031629 -1.00000000
vn -0.00002234 0.00031629 -1.00000000
vn 0.00713471 0.78251100 0.62259590
vn 0.01662526 0.01636205 0.99972790
vn 0.09186315 0.09948777 0.99078920
vn 0.00414614 0.78355820 0.62130450
vn 0.00000000 0.78562960 0.61869720
vn 0.00000000 0.78562950 0.61869720
vn -0.00715266 0.78249850 0.62261140
vn -0.00415677 0.78354840 0.62131690
vn -0.01668445 0.01642033 0.99972600
vn -0.09186140 0.09948725 0.99078950
vn 0.00000000 0.00000000 1.00000000
vn 0.01670868 0.00013223 0.99986040
vn 0.01812706 -0.00014345 0.99983570
vn 0.00000000 0.00000000 1.00000000
vn 0.00000000 0.00000000 1.00000000
vn 0.00000000 0.00000000 1.00000000
vn 0.00000000 0.00000000 1.00000000
vn 0.00000000 0.00000000 1.00000000
vn 0.00000000 0.00000000 1.00000000
vn -0.01680928 0.00013303 0.99985870
vn -0.01823493 -0.00014431 0.99983370
vn 0.00000000 0.00000000 1.00000000
vn 0.02034733 -0.02002727 0.99959240
vn -0.02042845 -0.02010635 0.99958910
vn 0.00000000 0.00000000 1.00000000
vn 0.00000000 0.00000000 1.00000000
vn 0.00000000 0.00000000 1.00000000
vn 0.00000000 0.00000000 1.00000000
vn 0.00713466 -0.78250760 0.62260020
vn 0.09498972 -0.10287530 0.99014840
vn 0.00414601 -0.78355490 0.62130870
vn 0.00000000 -0.78562970 0.61869710
vn 0.00000000 -0.78562970 0.61869700
vn -0.00715268 -0.78250210 0.62260680
vn -0.09498964 -0.10287470 0.99014840
vn -0.00415654 -0.78355210 0.62131230
vn 0.18932120 0.00211161 0.98191300
vn -0.06573257 0.81787360 0.57163110
vn 0.00000000 0.95823590 0.28597900
vn 0.00000000 0.95823450 0.28598390
vn 0.00000000 0.85784750 0.51390430
vn 0.00000000 0.56151520 0.82746640
vn -0.00141731 0.56123330 0.82765630
vn 0.06598227 0.81778260 0.57173250
vn 0.00000000 0.95823730 0.28597410
vn 0.00142281 0.56122430 0.82766260
vn -0.84327550 0.00512410 0.53745700
vn -0.92893190 0.00581358 0.37020490
vn -0.92893190 0.00581358 0.37020490
vn -0.06573257 0.81787360 0.57163110
vn -0.66197030 0.03046134 0.74891080
vn -0.67313980 0.00385377 0.73950520
vn 0.00000000 0.00000000 1.00000000
vn 0.00000000 0.00000000 1.00000000
vn 0.00000000 0.00000000 1.00000000
vn 0.00000000 0.00000000 1.00000000
vn 0.00000000 1.00000000 0.00000000
vn 0.00000000 1.00000000 0.00000000
vn 0.00000000 1.00000000 0.00000000
vn 0.00000000 1.00000000 0.00000000
vn 1.00000000 0.00000000 0.00000000
vn 1.00000000 0.00000000 0.00000000
vn 1.00000000 0.00000000 0.00000000
vn 1.00000000 0.00000000 0.00000000
vn 0.00000000 -1.00000000 0.00000000
vn 0.00000000 -1.00000000 0.00000000
vn 0.00000000 -1.00000000 0.00000000
vn 0.00000000 -1.00000000 0.00000000
vn -1.00000000 0.00000000 0.00000000
vn -1.00000000 0.00000000 0.00000000
vn -1.00000000 0.00000000 0.00000000
vn -1.00000000 0.00000000 0.00000000
vn 0.18297660 -0.00204087 0.98311510
vn 0.00000000 0.95843270 0.28531870
vn -0.00000017 0.95843230 0.28531980
vn -0.00000014 0.89685730 0.44232000
vn 0.00000000 0.88366120 0.46812720
vn 0.00000000 0.27040700 0.96274610
vn 0.00000000 0.20287440 0.97920470
vn 0.00000000 0.27041020 0.96274520
vn 0.00000013 0.89686000 0.44231440
vn 0.00000016 0.95843300 0.28531760
vn -0.99786980 0.00000000 0.06523646
vn -0.97022380 0.00000000 0.24221010
vn -0.97022380 0.00000000 0.24221010
vn -0.99736280 0.00138827 0.07256408
vn -0.99799380 -0.00000275 -0.06331123
vn -0.99581120 0.00310007 -0.09138077
vn -0.94404970 -0.00001434 -0.32980360
vn -0.94403240 0.00040744 -0.32985230
vn -0.88935030 0.23612150 -0.39153880
vn -0.97308920 0.21821350 -0.07402901
vn -0.92693480 0.37462240 0.02121508
vn -0.99959820 -0.00000758 -0.02834376
vn -0.78338690 -0.00016633 -0.62153420
vn -0.99704280 0.02469476 0.07277118
vn -0.99332750 0.03707322 0.10920630
vn -0.80811460 0.18928900 0.55778180
vn -0.99957290 -0.00000265 -0.02922172
vn -0.78378180 -0.00035256 -0.62103620
vn 0.00000000 0.20287440 0.97920470
vn 0.00000000 0.27040700 0.96274610
vn 0.00000000 0.00000000 1.00000000
vn 0.00000000 0.00000000 1.00000000
vn 0.00000000 0.00000000 1.00000000
vn 0.00000000 0.27041020 0.96274520
vn -0.00200592 0.99999800 0.00000000
vn -0.38267530 0.92388290 0.00000000
vn -0.38267530 0.92388290 0.00000000
vn -0.00200592 0.99999800 0.00000000
vn 0.00000000 1.00000000 0.00000000
vn 0.00000000 1.00000000 0.00000000
vn 0.00201373 0.99999800 0.00000000
vn 0.00201373 0.99999800 0.00000000
vn 0.38267530 0.92388290 0.00000000
vn 0.38267530 0.92388290 0.00000000
vn -0.06573257 0.81787360 0.57163110
vn -0.66197030 0.03046134 0.74891080
vn -0.42124710 0.42125630 0.80317750
vn -0.00141731 0.56123330 0.82765630
vn 0.00763154 -0.99997090 -0.00032744
vn 0.00002912 -1.00000000 0.00000469
vn 0.00002915 -1.00000000 0.00000468
vn 0.00761352 -0.99997100 -0.00032666
vn 0.00000000 -1.00000000 -0.00034347
vn 0.00000000 -1.00000000 -0.00034347
vn -0.00764308 -0.99997080 -0.00035776
vn -0.00766125 -0.99997070 -0.00035860
vn -0.00002915 -1.00000000 0.00000409
vn -0.00002912 -1.00000000 0.00000411
vn 0.00002918 -1.00000000 0.00000434
vn 0.00002931 -1.00000000 0.00000427
vn 0.00000015 -1.00000000 -0.00008240
vn 0.00000000 -0.92605640 0.37738510
vn 0.00000000 -1.00000000 -0.00008592
vn 0.00000000 -0.92702440 0.37500130
vn 0.00000000 -0.89801370 0.43996750
vn 0.00000000 -0.89801310 0.43996880
vn 0.00000000 -0.89801250 0.43997020
vn 0.00000000 -0.92605620 0.37738560
vn -0.00000015 -1.00000000 -0.00008853
vn -0.00002931 -1.00000000 -0.00000026
vn -0.00002918 -1.00000000 0.00000015
vn 0.00000000 -0.77477420 -0.63223810
vn 0.00000000 -0.77477420 -0.63223810
vn 0.00000000 0.77477480 -0.63223740
vn 0.00000000 0.77477480 -0.63223740
vn 0.00000000 -0.00059407 -0.99999990
vn 0.00000271 -0.00059407 -0.99999990
vn -0.00000270 -0.00059407 -0.99999990
vn -0.17913940 0.00200626 -0.98382160
vn -0.17311750 -0.00193876 -0.98489930
vn 0.99799380 -0.00000278 -0.06331131
vn 0.94403240 0.00040730 -0.32985240
vn 0.94404950 -0.00001449 -0.32980360
vn 0.99581120 0.00310005 -0.09138078
vn 0.88935130 0.23612780 -0.39153270
vn 0.99736270 0.00138828 0.07256562
vn 0.99786970 0.00000000 0.06523785
vn 0.97022250 0.00000000 0.24221500
vn 0.97022250 0.00000000 0.24221510
vn 0.97309020 0.21820910 -0.07402794
vn 0.92693590 0.37461970 0.02121567
vn 0.99959830 -0.00001393 -0.02834300
vn 0.78339490 -0.00016592 -0.62152420
vn 0.99704300 0.02468812 0.07277298
vn 0.99332730 0.03707331 0.10920890
vn 0.80810910 0.18928770 0.55779010
vn 0.99957310 -0.00000261 -0.02922005
vn 0.78379760 -0.00035169 -0.62101630
vn 0.99501260 0.02618209 -0.09625184
vn 0.00507606 0.04541712 -0.99895520
vn 0.76584370 0.00085005 -0.64302620
vn 0.99465100 0.00013655 -0.10329240
vn 1.00000000 0.00000000 0.00000000
vn 0.99971280 0.02396601 0.00000000
vn 0.92387740 0.38268880 0.00000000
vn 0.92387740 0.38268880 0.00000000
vn -0.18932050 0.00211161 0.98191310
vn 0.00000000 0.00000000 1.00000000
vn 0.00000000 0.00000000 1.00000000
vn 0.00000000 0.00000000 1.00000000
vn 0.00000000 0.00000000 1.00000000
vn 0.00000000 1.00000000 0.00000000
vn 0.00000000 1.00000000 0.00000000
vn 0.00000000 1.00000000 0.00000000
vn 0.00000000 1.00000000 0.00000000
vn -1.00000000 0.00000000 0.00000000
vn -1.00000000 0.00000000 0.00000000
vn -1.00000000 0.00000000 0.00000000
vn -1.00000000 0.00000000 0.00000000
vn 0.00000000 -1.00000000 0.00000000
vn 0.00000000 -1.00000000 0.00000000
vn 0.00000000 -1.00000000 0.00000000
vn 0.00000000 -1.00000000 0.00000000
vn 1.00000000 0.00000000 0.00000000
vn 1.00000000 0.00000000 0.00000000
vn 1.00000000 0.00000000 0.00000000
vn 1.00000000 0.00000000 0.00000000
vn 0.84327570 0.00512374 0.53745680
vn 0.92893180 0.00581358 0.37020530
vn 0.92893180 0.00581358 0.37020530
vn 0.06598227 0.81778260 0.57173250
vn 0.66197100 0.03046061 0.74891020
vn 0.67314050 0.00385292 0.73950450
vn -0.18297630 -0.00204088 0.98311530
vn 0.06598227 0.81778260 0.57173250
vn 0.00142281 0.56122430 0.82766260
vn 0.42124460 0.42125690 0.80317850
vn 0.66197100 0.03046061 0.74891020
vn 0.00000011 0.00000000 1.00000000
vn 0.00000000 0.00000000 1.00000000
vn 0.00000035 0.00000000 1.00000000
vn 0.00000000 0.00000000 1.00000000
vn 0.00000032 0.00000000 1.00000000
vn 0.00000000 0.00000000 1.00000000
vn 0.00000000 0.00000000 1.00000000
vn 0.00000000 0.00000000 1.00000000
vn 0.00000000 0.00000000 1.00000000
vn 0.00000000 0.00000000 1.00000000
vn -0.00000015 0.00000000 1.00000000
vn 0.00000000 0.00000000 1.00000000
vn 0.00000000 0.00000000 1.00000000
vn -0.00000016 0.00000000 1.00000000
vt 10.42223000 0.53074780
vt 10.42026000 0.53549980
vt 10.42268000 0.53840620
vt 10.42518000 0.53055290
vt 10.51122000 0.62952830
vt 10.41551000 0.54099110
vt 10.51128000 0.29654140
vt 10.42408000 0.29654140
vt 10.11414000 0.62954060
vt 10.42518000 0.06314296
vt 10.18032000 0.54099110
vt 10.51122000 -0.03515249
vt 10.17315000 0.53840620
vt 10.42268000 0.05528973
vt 10.42223000 0.06294814
vt 10.42026000 0.05819619
vt 10.41551000 0.05270474
vt 10.18032000 0.05270474
vt 10.11414000 -0.03516474
vt 10.17315000 0.05528973
vt 10.17066000 0.53055290
vt 10.17360000 0.53074790
vt 10.17557000 0.53549980
vt 10.11414000 0.29654140
vt 10.17176000 0.29654140
vt 10.17066000 0.06314296
vt 10.17360000 0.06294803
vt 10.17557000 0.05819619
vt 10.11235000 0.29654140
vt 10.11235000 0.62943350
vt 10.11235000 -0.03505763
vt 10.11049000 0.29654140
vt 10.11049000 0.62943350
vt 10.11049000 -0.03505763
vt 10.41551000 0.53746800
vt 10.03396000 0.29766760
vt 10.03396000 0.64069310
vt 10.03778000 0.64203410
vt 10.03778000 0.29766760
vt 10.03778000 -0.04536685
vt 10.03396000 -0.04402584
vt 10.04841000 0.29766760
vt 10.04841000 0.64203410
vt 10.04841000 -0.04536685
vt 10.05378000 0.29766760
vt 10.05378000 0.64069310
vt 10.05378000 -0.04402584
vt 10.18032000 0.53746800
vt 10.79137000 0.62163600
vt 10.78978000 0.59438490
vt 10.78980000 0.62127400
vt 10.79137000 0.59438490
vt 10.80248000 0.59438490
vt 10.80248000 0.62163600
vt 10.79137000 0.62331010
vt 10.80248000 0.62331010
vt 10.00303000 0.63067790
vt 10.00107000 0.63131050
vt 10.00268000 0.63197970
vt 10.00040000 0.62969480
vt 10.00040000 0.29768710
vt 10.00303000 0.29768710
vt 10.00303000 -0.03401080
vt 10.00040000 -0.03302759
vt 10.00107000 -0.03464329
vt 10.00268000 -0.03531250
vt 10.02644000 0.29768710
vt 10.02898000 0.63072290
vt 10.02898000 -0.03405568
vt 10.56232000 0.53061290
vt 10.56186000 0.53826730
vt 10.56429000 0.53536240
vt 10.55937000 0.53041820
vt 10.56047000 0.29653080
vt 10.56232000 0.29653080
vt 10.56232000 0.06306148
vt 10.55937000 0.06325620
vt 10.56186000 0.05540720
vt 10.56429000 0.05831209
vt 10.47337000 0.62934100
vt 10.56903000 0.54085090
vt 10.80410000 0.54085090
vt 10.55937000 0.53041820
vt 10.86869000 0.62934100
vt 10.47332000 0.29653080
vt 10.56047000 0.29653080
vt 10.55937000 0.06325620
vt 10.47337000 -0.03498703
vt 10.56903000 0.05282356
vt 10.80410000 0.05282356
vt 10.86869000 -0.03498703
vt 10.81127000 0.53826730
vt 10.81127000 0.05540720
vt 10.81376000 0.53041820
vt 10.86869000 0.29653080
vt 10.81266000 0.29653080
vt 10.81376000 0.06325626
vt 10.81081000 0.53061290
vt 10.80885000 0.53536240
vt 10.81376000 0.53041820
vt 10.81266000 0.29653080
vt 10.81081000 0.29653080
vt 10.81081000 0.06306145
vt 10.80885000 0.05831209
vt 10.81376000 0.06325626
vt 10.56903000 0.53732960
vt 10.09983000 0.64157490
vt 10.09442000 0.29706850
vt 10.09442000 0.63957150
vt 10.09983000 0.29706850
vt 10.10168000 0.29706850
vt 10.10168000 0.64139600
vt 10.09983000 -0.04609692
vt 10.09442000 -0.04409355
vt 10.10168000 -0.04591799
vt 10.80433000 0.59438490
vt 10.80974000 0.61966150
vt 10.80974000 0.59703210
vt 10.80433000 0.62127400
vt 10.80248000 0.62163600
vt 10.80248000 0.59438490
vt 10.82992000 0.59231390
vt 10.82992000 0.67040660
vt 10.83340000 0.67040660
vt 10.83340000 0.59231390
vt 10.82218000 0.59237890
vt 10.82218000 0.67034170
vt 10.82407000 0.67034170
vt 10.82407000 0.59237890
vt 10.73035000 0.59627410
vt 10.73035000 0.59973220
vt 10.73223000 0.59973220
vt 10.73223000 0.59627410
vt 10.81624000 0.67040490
vt 10.81624000 0.59231560
vt 10.81435000 0.59231560
vt 10.81435000 0.67040490
vt 10.72441000 0.59973220
vt 10.72441000 0.59627410
vt 10.72253000 0.59627410
vt 10.72253000 0.59973220
vt 10.80410000 0.53732960
vt 10.08147000 0.29763220
vt 10.08147000 0.65893520
vt 10.08713000 0.66034760
vt 10.08713000 0.29763220
vt 10.08832000 0.65915640
vt 10.08832000 0.29763220
vt 10.08832000 -0.06248912
vt 10.08713000 -0.06368047
vt 10.08147000 -0.06226799
vt 10.90045000 0.43799430
vt 10.90568000 0.83724560
vt 10.90568000 0.44067730
vt 10.90045000 0.83880200
vt 10.89011000 0.43799430
vt 10.89011000 0.83880200
vt 10.88639000 0.44067730
vt 10.88639000 0.83880200
vt 10.88791000 0.84059790
vt 10.88829000 0.84059800
vt 10.89935000 0.84059800
vt 10.88829000 0.84246400
vt 10.88791000 0.84246390
vt 10.89815000 0.84246400
vt 10.89815000 0.84412730
vt 10.89935000 0.84412730
vt 10.88829000 0.84412720
vt 10.88791000 0.84412730
vt 10.11894000 0.29671630
vt 10.11894000 0.62749340
vt 10.12243000 0.62628910
vt 10.12243000 0.29671630
vt 10.12243000 -0.03157294
vt 10.11894000 -0.03277722
vt 10.11280000 0.64139600
vt 10.10168000 0.64307170
vt 10.11280000 0.64307170
vt 10.10168000 0.64139600
vt 10.11280000 0.29706850
vt 10.10168000 0.29706850
vt 10.10168000 -0.04591799
vt 10.11280000 -0.04591799
vt 10.10168000 -0.04759365
vt 10.11280000 -0.04759365
vt 10.70089000 0.59616240
vt 10.69856000 0.59654810
vt 10.69930000 0.59833180
vt 10.70108000 0.59907050
vt 10.05735000 0.64041240
vt 10.05893000 0.64170600
vt 10.05932000 0.64057590
vt 10.05893000 0.64026860
vt 10.05737000 0.29766820
vt 10.05893000 0.29766820
vt 10.05893000 -0.04360145
vt 10.05735000 -0.04374537
vt 10.05932000 -0.04390883
vt 10.05893000 -0.04503882
vt 10.06945000 0.64057590
vt 10.06997000 0.64170600
vt 10.07067000 0.63932760
vt 10.07181000 0.63983980
vt 10.07067000 0.29766820
vt 10.07181000 0.29766820
vt 10.07717000 0.63754400
vt 10.07717000 0.29766820
vt 10.07717000 -0.04087687
vt 10.07181000 -0.04317263
vt 10.07067000 -0.04266042
vt 10.06997000 -0.04503882
vt 10.06945000 -0.04390883
vt 10.17360000 0.29654140
vt 10.17176000 0.29654140
vt 10.42408000 0.29654140
vt 10.42223000 0.29654140
vt 10.10629000 0.29654140
vt 10.10883000 0.62943350
vt 10.10883000 -0.03505763
vt 10.41551000 0.05622783
vt 10.18032000 0.05622783
vt 10.87873000 0.56846520
vt 10.88245000 0.96925050
vt 10.88245000 0.57114800
vt 10.87873000 0.96925050
vt 10.88093000 0.97104630
vt 10.86838000 0.96925050
vt 10.86838000 0.56846520
vt 10.86316000 0.96769420
vt 10.86316000 0.57114800
vt 10.88055000 0.97104650
vt 10.86948000 0.97104650
vt 10.88055000 0.97291240
vt 10.88093000 0.97291220
vt 10.87068000 0.97291240
vt 10.87068000 0.97457550
vt 10.86948000 0.97457550
vt 10.88055000 0.97457540
vt 10.88093000 0.97457550
vt 10.78491000 0.62163900
vt 10.78648000 0.62127690
vt 10.78649000 0.59438150
vt 10.78491000 0.59438150
vt 10.77379000 0.59438150
vt 10.77379000 0.62163900
vt 10.78491000 0.62331350
vt 10.77379000 0.62331350
vt 10.56903000 0.05634479
vt 10.85482000 0.70018230
vt 10.85830000 0.70018230
vt 10.85830000 0.58557640
vt 10.85482000 0.58557640
vt 10.84708000 0.70509000
vt 10.84897000 0.70509000
vt 10.84897000 0.59041450
vt 10.84708000 0.59041450
vt 10.71658000 0.59627410
vt 10.71470000 0.59627410
vt 10.71470000 0.59973220
vt 10.71658000 0.59973220
vt 10.84114000 0.59035140
vt 10.83925000 0.59035140
vt 10.83925000 0.70515310
vt 10.84114000 0.70515310
vt 10.70688000 0.59973220
vt 10.70875000 0.59973220
vt 10.70875000 0.59627410
vt 10.70688000 0.59627410
vt 10.77194000 0.59438150
vt 10.76653000 0.59702920
vt 10.76653000 0.61966410
vt 10.77194000 0.62127690
vt 10.77379000 0.62163900
vt 10.77379000 0.59438150
vt 10.80410000 0.05634479
vt 10.69058000 0.59616240
vt 10.69039000 0.59907050
vt 10.69217000 0.59833180
vt 10.69291000 0.59654810
vt 10.87442000 0.62191440
vt 10.86599000 0.53983120
vt 10.86599000 0.61784580
vt 10.85274000 0.62191440
vt 10.86251000 0.61784580
vt 10.87442000 0.29409890
vt 10.85274000 0.29409890
vt 10.86251000 0.53983120
vt 10.86251000 0.08627746
vt 10.86599000 0.08627746
vt 10.86251000 -0.02836466
vt 10.87442000 -0.03243336
vt 10.85274000 -0.03243336
vt 10.86599000 -0.02836466
f 3/3/3 2/2/2 1/1/1
f 4/4/4 3/3/3 1/1/1
f 5/5/5 3/3/3 4/4/4
f 6/6/6 3/3/3 5/5/5
f 7/7/7 5/5/5 4/4/4
f 8/8/8 7/7/7 4/4/4
f 5/5/5 9/9/9 6/6/6
f 7/7/7 8/8/8 10/10/10
f 9/9/9 11/11/11 6/6/6
f 12/12/12 7/7/7 10/10/10
f 13/13/13 11/11/11 9/9/9
f 14/14/14 12/12/12 10/10/10
f 14/14/14 10/10/10 15/15/15
f 16/16/16 14/14/14 15/15/15
f 14/14/14 17/17/17 12/12/12
f 17/17/17 18/18/18 12/12/12
f 18/18/18 19/19/19 12/12/12
f 18/18/18 20/20/20 19/19/19
f 13/13/13 9/9/9 21/21/21
f 13/13/13 21/21/21 22/22/22
f 23/23/23 13/13/13 22/22/22
f 9/9/9 24/24/24 21/21/21
f 24/24/24 25/25/25 21/21/21
f 25/25/25 24/24/24 26/26/26
f 19/19/19 20/20/20 26/26/26
f 24/24/24 19/19/19 26/26/26
f 26/26/26 20/20/20 27/27/27
f 20/20/20 28/28/28 27/27/27
f 29/29/29 24/24/24 9/9/9
f 24/24/24 29/29/29 19/19/19
f 30/30/30 29/29/29 9/9/9
f 29/29/29 31/31/31 19/19/19
f 32/32/32 29/29/29 30/30/30
f 29/29/29 32/32/32 31/31/31
f 33/33/33 32/32/32 30/30/30
f 32/32/32 34/34/34 31/31/31
f 6/6/6 35/35/35 2/2/2
f 3/3/3 6/6/6 2/2/2
f 38/38/38 37/37/37 36/36/36
f 39/39/39 38/38/38 36/36/36
f 40/40/40 39/39/39 36/36/36
f 41/41/41 40/40/40 36/36/36
f 39/39/39 42/42/42 38/38/38
f 42/42/42 43/43/43 38/38/38
f 42/42/42 39/39/39 40/40/40
f 44/44/44 42/42/42 40/40/40
f 43/43/43 42/42/42 45/45/45
f 46/46/46 43/43/43 45/45/45
f 42/42/42 44/44/44 45/45/45
f 44/44/44 47/47/47 45/45/45
f 6/6/6 11/11/11 48/48/48
f 35/35/35 6/6/6 48/48/48
f 11/11/11 13/13/13 23/23/23
f 48/48/48 11/11/11 23/23/23
f 51/51/51 50/50/50 49/49/49
f 50/50/50 52/52/52 49/49/49
f 52/52/52 53/53/53 49/49/49
f 53/53/53 54/54/54 49/49/49
f 49/49/49 54/54/54 55/55/55
f 54/54/54 56/56/56 55/55/55
f 59/59/59 58/58/58 57/57/57
f 58/58/58 60/60/60 57/57/57
f 57/57/57 60/60/60 61/61/61
f 62/62/62 57/57/57 61/61/61
f 63/63/63 62/62/62 61/61/61
f 64/64/64 63/63/63 61/61/61
f 64/64/64 65/65/65 63/63/63
f 65/65/65 66/66/66 63/63/63
f 62/62/62 67/67/67 57/57/57
f 67/67/67 62/62/62 63/63/63
f 67/67/67 68/68/68 57/57/57
f 69/69/69 67/67/67 63/63/63
f 72/72/72 71/71/71 70/70/70
f 71/71/71 73/73/73 70/70/70
f 73/73/73 74/74/74 70/70/70
f 74/74/74 75/75/75 70/70/70
f 75/75/75 74/74/74 76/76/76
f 74/74/74 77/77/77 76/76/76
f 77/77/77 78/78/78 76/76/76
f 78/78/78 79/79/79 76/76/76
f 71/71/71 81/81/81 80/80/80
f 81/81/81 82/82/82 80/80/80
f 71/71/71 80/80/80 83/83/83
f 82/82/82 84/84/84 80/80/80
f 80/80/80 85/85/85 83/83/83
f 85/85/85 86/86/86 83/83/83
f 86/86/86 85/85/85 87/87/87
f 85/85/85 88/88/88 87/87/87
f 88/88/88 78/78/78 87/87/87
f 89/89/89 78/78/78 88/88/88
f 90/90/90 89/89/89 88/88/88
f 91/91/91 90/90/90 88/88/88
f 82/82/82 92/92/92 84/84/84
f 93/93/93 90/90/90 91/91/91
f 84/84/84 92/92/92 94/94/94
f 95/95/95 84/84/84 94/94/94
f 96/96/96 95/95/95 94/94/94
f 95/95/95 96/96/96 97/97/97
f 91/91/91 95/95/95 97/97/97
f 93/93/93 91/91/91 97/97/97
f 92/92/92 99/99/99 98/98/98
f 100/100/100 92/92/92 98/98/98
f 101/101/101 100/100/100 98/98/98
f 102/102/102 101/101/101 98/98/98
f 101/101/101 102/102/102 103/103/103
f 104/104/104 93/93/93 103/103/103
f 105/105/105 101/101/101 103/103/103
f 93/93/93 105/105/105 103/103/103
f 81/81/81 71/71/71 72/72/72
f 106/106/106 81/81/81 72/72/72
f 109/109/109 108/108/108 107/107/107
f 108/108/108 110/110/110 107/107/107
f 107/107/107 110/110/110 111/111/111
f 112/112/112 107/107/107 111/111/111
f 110/110/110 108/108/108 113/113/113
f 110/110/110 113/113/113 111/111/111
f 108/108/108 114/114/114 113/113/113
f 113/113/113 115/115/115 111/111/111
f 118/118/118 117/117/117 116/116/116
f 117/117/117 119/119/119 116/116/116
f 116/116/116 119/119/119 120/120/120
f 121/121/121 116/116/116 120/120/120
f 124/124/124 123/123/123 122/122/122
f 125/125/125 124/124/124 122/122/122
f 128/128/128 127/127/127 126/126/126
f 129/129/129 128/128/128 126/126/126
f 132/132/132 131/131/131 130/130/130
f 133/133/133 132/132/132 130/130/130
f 136/136/136 135/135/135 134/134/134
f 137/137/137 136/136/136 134/134/134
f 140/140/140 139/139/139 138/138/138
f 141/141/141 140/140/140 138/138/138
f 142/142/142 82/82/82 81/81/81
f 106/106/106 142/142/142 81/81/81
f 82/82/82 142/142/142 99/99/99
f 92/92/92 82/82/82 99/99/99
f 145/145/145 144/144/144 143/143/143
f 146/146/146 145/145/145 143/143/143
f 147/147/147 145/145/145 146/146/146
f 148/148/148 147/147/147 146/146/146
f 149/149/149 148/148/148 146/146/146
f 150/150/150 149/149/149 146/146/146
f 150/150/150 146/146/146 143/143/143
f 151/151/151 150/150/150 143/143/143
f 154/154/154 153/153/153 152/152/152
f 153/153/153 155/155/155 152/152/152
f 152/152/152 155/155/155 156/156/156
f 155/155/155 157/157/157 156/156/156
f 156/156/156 157/157/157 158/158/158
f 157/157/157 159/159/159 158/158/158
f 159/159/159 157/157/157 160/160/160
f 157/157/157 155/155/155 161/161/161
f 157/157/157 161/161/161 160/160/160
f 155/155/155 162/162/162 161/161/161
f 161/161/161 163/163/163 160/160/160
f 161/161/161 162/162/162 163/163/163
f 163/163/163 164/164/164 160/160/160
f 162/162/162 165/165/165 163/163/163
f 165/165/165 162/162/162 166/166/166
f 163/163/163 165/165/165 166/166/166
f 162/162/162 167/167/167 166/166/166
f 168/168/168 163/163/163 166/166/166
f 163/163/163 168/168/168 164/164/164
f 168/168/168 169/169/169 164/164/164
f 172/172/172 171/171/171 170/170/170
f 173/173/173 172/172/172 170/170/170
f 174/174/174 173/173/173 170/170/170
f 175/175/175 174/174/174 170/170/170
f 178/178/178 177/177/177 176/176/176
f 177/177/177 179/179/179 176/176/176
f 176/176/176 179/179/179 180/180/180
f 179/179/179 181/181/181 180/180/180
f 181/181/181 182/182/182 180/180/180
f 182/182/182 183/183/183 180/180/180
f 182/182/182 184/184/184 183/183/183
f 184/184/184 185/185/185 183/183/183
f 188/188/188 187/187/187 186/186/186
f 189/189/189 188/188/188 186/186/186
f 192/192/192 191/191/191 190/190/190
f 193/193/193 192/192/192 190/190/190
f 193/193/193 190/190/190 194/194/194
f 195/195/195 193/193/193 194/194/194
f 196/196/196 195/195/195 194/194/194
f 197/197/197 196/196/196 194/194/194
f 198/198/198 196/196/196 197/197/197
f 199/199/199 198/198/198 197/197/197
f 192/192/192 200/200/200 191/191/191
f 200/200/200 201/201/201 191/191/191
f 200/200/200 202/202/202 201/201/201
f 202/202/202 203/203/203 201/201/201
f 202/202/202 204/204/204 203/203/203
f 204/204/204 205/205/205 203/203/203
f 206/206/206 203/203/203 205/205/205
f 207/207/207 206/206/206 205/205/205
f 208/208/208 207/207/207 205/205/205
f 209/209/209 208/208/208 205/205/205
f 205/205/205 204/204/204 209/209/209
f 204/204/204 210/210/210 209/209/209
f 209/209/209 210/210/210 211/211/211
f 210/210/210 212/212/212 211/211/211
f 211/211/211 212/212/212 199/199/199
f 212/212/212 198/198/198 199/199/199
f 213/213/213 22/22/22 21/21/21
f 214/214/214 213/213/213 21/21/21
f 213/213/213 214/214/214 26/26/26
f 27/27/27 213/213/213 26/26/26
f 4/4/4 1/1/1 215/215/215
f 1/1/1 216/216/216 215/215/215
f 216/216/216 15/15/15 215/215/215
f 15/15/15 10/10/10 215/215/215
f 218/218/218 217/217/217 33/33/33
f 217/217/217 32/32/32 33/33/33
f 32/32/32 217/217/217 34/34/34
f 217/217/217 219/219/219 34/34/34
f 17/17/17 14/14/14 16/16/16
f 220/220/220 17/17/17 16/16/16
f 17/17/17 220/220/220 221/221/221
f 18/18/18 17/17/17 221/221/221
f 18/18/18 221/221/221 28/28/28
f 20/20/20 18/18/18 28/28/28
f 224/224/224 223/223/223 222/222/222
f 223/223/223 225/225/225 222/222/222
f 225/225/225 223/223/223 226/226/226
f 225/225/225 227/227/227 222/222/222
f 227/227/227 228/228/228 222/222/222
f 227/227/227 229/229/229 228/228/228
f 229/229/229 230/230/230 228/228/228
f 227/227/227 225/225/225 231/231/231
f 231/231/231 225/225/225 226/226/226
f 232/232/232 227/227/227 231/231/231
f 233/233/233 231/231/231 226/226/226
f 232/232/232 231/231/231 233/233/233
f 234/234/234 233/233/233 226/226/226
f 235/235/235 232/232/232 233/233/233
f 232/232/232 235/235/235 236/236/236
f 235/235/235 233/233/233 236/236/236
f 237/237/237 232/232/232 236/236/236
f 233/233/233 238/238/238 236/236/236
f 238/238/238 233/233/233 234/234/234
f 239/239/239 238/238/238 234/234/234
f 242/242/242 241/241/241 240/240/240
f 243/243/243 242/242/242 240/240/240
f 244/244/244 243/243/243 240/240/240
f 245/245/245 244/244/244 240/240/240
f 245/245/245 240/240/240 246/246/246
f 247/247/247 245/245/245 246/246/246
f 89/89/89 248/248/248 79/79/79
f 78/78/78 89/89/89 79/79/79
f 251/251/251 250/250/250 249/249/249
f 252/252/252 251/251/251 249/249/249
f 255/255/255 254/254/254 253/253/253
f 256/256/256 255/255/255 253/253/253
f 259/259/259 258/258/258 257/257/257
f 260/260/260 259/259/259 257/257/257
f 263/263/263 262/262/262 261/261/261
f 264/264/264 263/263/263 261/261/261
f 267/267/267 266/266/266 265/265/265
f 268/268/268 267/267/267 265/265/265
f 271/271/271 270/270/270 269/269/269
f 272/272/272 271/271/271 269/269/269
f 272/272/272 269/269/269 273/273/273
f 269/269/269 274/274/274 273/273/273
f 89/89/89 90/90/90 275/275/275
f 248/248/248 89/89/89 275/275/275
f 90/90/90 93/93/93 104/104/104
f 275/275/275 90/90/90 104/104/104
f 278/278/278 277/277/277 276/276/276
f 279/279/279 278/278/278 276/276/276
f 282/282/282 281/281/281 280/280/280
f 282/282/282 280/280/280 283/283/283
f 284/284/284 282/282/282 283/283/283
f 281/281/281 285/285/285 280/280/280
f 284/284/284 283/283/283 286/286/286
f 281/281/281 287/287/287 285/285/285
f 287/287/287 284/284/284 286/286/286
f 287/287/287 286/286/286 285/285/285
f 286/286/286 288/288/288 285/285/285
f 288/288/288 289/289/289 285/285/285
f 290/290/290 288/288/288 286/286/286
f 285/285/285 289/289/289 291/291/291
f 292/292/292 290/290/290 286/286/286
f 289/289/289 293/293/293 291/291/291
f 293/293/293 290/290/290 292/292/292
f 291/291/291 293/293/293 292/292/292

