mtllib material.mtl
usemtl material_0
v -0.00364000 -0.37363000 0.02700000
v 0.08500000 -0.37500000 0.02541000
v -0.00500000 -0.37500000 0.02541000
v 0.08500000 -0.37368000 0.02700000
v 0.20500000 -0.37500000 0.02551000
v 0.20500000 -0.37368000 0.02710000
v 0.29501000 -0.37500000 0.02551000
v 0.29363000 -0.37363000 0.02710000
v 0.20500000 -0.37500000 0.00011000
v 0.29501000 -0.37500000 0.02551000
v 0.29501000 -0.37500000 0.00011000
v 0.20500000 -0.37500000 0.02551000
v 0.08500000 -0.37500000 0.02541000
v 0.08500000 -0.37500000 0.00001000
v -0.00500000 -0.37500000 0.00001000
v -0.00500000 -0.37500000 0.02541000
v 0.29363000 -0.37363000 0.02710000
v 0.29501000 -0.28500000 0.02551000
v 0.29501000 -0.37500000 0.02551000
v 0.29369000 -0.28500000 0.02710000
v 0.29501000 0.28500000 0.02551000
v 0.29369000 0.28500000 0.02710000
v 0.29501000 0.37501000 0.02551000
v 0.29363000 0.37368000 0.02710000
v 0.29501000 0.28500000 0.00011000
v 0.29501000 0.37501000 0.02551000
v 0.29501000 0.37501000 0.00011000
v 0.29501000 0.28500000 0.02551000
v 0.29501000 -0.28500000 0.02551000
v 0.29501000 -0.28500000 0.00011000
v 0.29501000 -0.37500000 0.00011000
v 0.29501000 -0.37500000 0.02551000
v 0.20500000 0.37501000 0.02551000
v 0.29501000 0.37501000 0.02551000
v 0.29363000 0.37368000 0.02710000
v 0.20500000 0.37365000 0.02710000
v 0.08500000 0.37501000 0.02541000
v 0.08500000 0.37365000 0.02700000
v -0.00500000 0.37501000 0.02541000
v -0.00364000 0.37368000 0.02700000
v 0.08500000 0.37501000 0.00001000
v -0.00500000 0.37501000 0.02541000
v -0.00500000 0.37501000 0.00001000
v 0.08500000 0.37501000 0.02541000
v 0.20500000 0.37501000 0.02551000
v 0.20500000 0.37501000 0.00011000
v 0.29501000 0.37501000 0.00011000
v 0.29501000 0.37501000 0.02551000
v -0.00500000 0.28501000 0.02541000
v -0.00500000 0.37501000 0.02541000
v -0.00364000 0.37368000 0.02700000
v -0.00366000 0.28501000 0.02700000
v -0.00500000 -0.28500000 0.02541000
v -0.00366000 -0.28500000 0.02700000
v -0.00500000 -0.37500000 0.02541000
v -0.00364000 -0.37363000 0.02700000
v -0.00500000 0.37501000 0.00001000
v -0.00500000 0.37501000 0.02541000
v -0.00500000 0.28501000 0.02541000
v -0.00500000 0.28501000 0.00001000
v -0.00500000 -0.28500000 0.00001000
v -0.00500000 -0.28500000 0.02541000
v -0.00500000 -0.37500000 0.02541000
v -0.00500000 -0.37500000 0.00001000
v 0.05081000 0.31920000 0.02528000
v 0.04916000 0.28500000 0.02700000
v 0.04918000 0.32083000 0.02700000
v 0.05082000 0.28501000 0.02527000
v 0.04916000 -0.28499000 0.02700000
v 0.05082000 -0.28500000 0.02527000
v 0.04918000 -0.32081000 0.02700000
v 0.05081000 -0.31919000 0.02528000
v 0.05230000 0.28501000 0.01301000
v 0.05081000 0.31920000 0.02528000
v 0.05230000 0.31771000 0.01301000
v 0.05082000 0.28501000 0.02527000
v 0.05082000 -0.28500000 0.02527000
v 0.05230000 -0.28500000 0.01301000
v 0.05230000 -0.31770000 0.01301000
v 0.05081000 -0.31919000 0.02528000
v 0.08500000 0.31919000 0.02527000
v 0.05081000 0.31920000 0.02528000
v 0.04918000 0.32083000 0.02700000
v 0.08501000 0.32085000 0.02700000
v 0.20500000 0.31919000 0.02537000
v 0.20500000 0.32085000 0.02710000
v 0.23920000 0.31920000 0.02538000
v 0.24089000 0.32083000 0.02710000
v 0.05230000 0.31771000 0.01301000
v 0.05081000 0.31920000 0.02528000
v 0.08500000 0.31919000 0.02527000
v 0.08500000 0.31771000 0.01301000
v 0.20500000 0.31771000 0.01310000
v 0.20500000 0.31919000 0.02537000
v 0.23920000 0.31920000 0.02538000
v 0.23771000 0.31771000 0.01310000
v 0.23919000 0.28500000 0.02537000
v 0.23920000 0.31920000 0.02538000
v 0.24089000 0.32083000 0.02710000
v 0.24080000 0.28500000 0.02710000
v 0.23919000 -0.28500000 0.02537000
v 0.24080000 -0.28499000 0.02710000
v 0.23920000 -0.31919000 0.02538000
v 0.24089000 -0.32081000 0.02710000
v 0.23771000 0.31771000 0.01310000
v 0.23920000 0.31920000 0.02538000
v 0.23919000 0.28500000 0.02537000
v 0.23771000 0.28500000 0.01310000
v 0.23771000 -0.28500000 0.01310000
v 0.23919000 -0.28500000 0.02537000
v 0.23920000 -0.31919000 0.02538000
v 0.23771000 -0.31770000 0.01310000
v 0.20500000 -0.31918000 0.02537000
v 0.23920000 -0.31919000 0.02538000
v 0.24089000 -0.32081000 0.02710000
v 0.20500000 -0.32085000 0.02710000
v 0.08500000 -0.31918000 0.02527000
v 0.08501000 -0.32085000 0.02700000
v 0.05081000 -0.31919000 0.02528000
v 0.04918000 -0.32081000 0.02700000
v 0.23771000 -0.31770000 0.01310000
v 0.23920000 -0.31919000 0.02538000
v 0.20500000 -0.31918000 0.02537000
v 0.20500000 -0.31770000 0.01310000
v 0.08500000 -0.31770000 0.01301000
v 0.08500000 -0.31918000 0.02527000
v 0.05081000 -0.31919000 0.02528000
v 0.05230000 -0.31770000 0.01301000
v 0.23771000 0.28500000 0.01310000
v 0.20500000 0.31771000 0.01310000
v 0.23771000 0.31771000 0.01310000
v 0.20500000 0.28500000 0.01310000
v 0.08500000 0.31771000 0.01301000
v 0.20500000 -0.28500000 0.01310000
v 0.23771000 -0.28500000 0.01310000
v 0.23771000 -0.31770000 0.01310000
v 0.20500000 -0.31770000 0.01310000
v 0.08500000 0.28501000 0.01301000
v 0.05230000 0.31771000 0.01301000
v 0.05230000 0.28501000 0.01301000
v 0.05230000 -0.28500000 0.01301000
v 0.08500000 -0.28500000 0.01301000
v 0.08500000 -0.31770000 0.01301000
v 0.05230000 -0.31770000 0.01301000
v 0.20500000 0.37501000 0.00011000
v 0.29501000 0.28500000 0.00011000
v 0.29501000 0.37501000 0.00011000
v 0.20500000 0.28500000 0.00011000
v 0.29501000 -0.28500000 0.00011000
v 0.08500000 0.28501000 0.00001000
v 0.08500000 0.37501000 0.00001000
v -0.00500000 0.37501000 0.00001000
v -0.00500000 0.28501000 0.00001000
v 0.20500000 -0.28500000 0.00011000
v 0.29501000 -0.37500000 0.00011000
v 0.20500000 -0.37500000 0.00011000
v 0.08500000 -0.37500000 0.00001000
v 0.08500000 -0.28500000 0.00001000
v -0.00500000 -0.28500000 0.00001000
v -0.00500000 -0.37500000 0.00001000
v 0.04918000 0.32083000 0.02700000
v 0.04916000 0.28500000 0.02700000
v -0.00366000 0.28501000 0.02700000
v -0.00364000 0.37368000 0.02700000
v -0.00366000 -0.28500000 0.02700000
v 0.08501000 0.32085000 0.02700000
v 0.04916000 -0.28499000 0.02700000
v 0.08500000 0.37365000 0.02700000
v -0.00364000 -0.37363000 0.02700000
v 0.20500000 0.32085000 0.02710000
v 0.04918000 -0.32081000 0.02700000
v 0.20500000 0.37365000 0.02710000
v 0.08500000 -0.37368000 0.02700000
v 0.24089000 0.32083000 0.02710000
v 0.08501000 -0.32085000 0.02700000
v 0.29363000 0.37368000 0.02710000
v 0.20500000 -0.37368000 0.02710000
v 0.24080000 0.28500000 0.02710000
v 0.20500000 -0.32085000 0.02710000
v 0.29369000 0.28500000 0.02710000
v 0.29363000 -0.37363000 0.02710000
v 0.24080000 -0.28499000 0.02710000
v 0.24089000 -0.32081000 0.02710000
v 0.29369000 -0.28500000 0.02710000
vn -0.00045818 -0.77225710 0.63531000
vn -0.00049967 -0.77225880 0.63530790
vn 0.00000000 -0.75984790 0.65010080
vn -0.00049922 -0.77225880 0.63530800
vn -0.00052987 -0.77226010 0.63530630
vn -0.00053261 -0.77233580 0.63521430
vn 0.00000000 -0.77233480 0.63521580
vn 0.00045116 -0.75974550 0.65022040
vn 0.00000000 -1.00000000 0.00000000
vn 0.00000000 -1.00000000 0.00000000
vn 0.00000000 -1.00000000 0.00000000
vn 0.00000000 -1.00000000 0.00000000
vn -0.00000064 -1.00000000 0.00000000
vn -0.00000064 -1.00000000 0.00000000
vn 0.00000000 -1.00000000 0.00000000
vn 0.00000000 -1.00000000 0.00000000
vn 0.77333900 -0.00053269 0.63399260
vn 0.77332960 -0.00007075 0.63400420
vn 0.75896730 0.00000000 0.65112880
vn 0.77332960 -0.00007184 0.63400420
vn 0.77332810 0.00000000 0.63400610
vn 0.77332820 0.00000000 0.63400580
vn 0.77335880 0.00000000 0.63396860
vn 0.75870210 0.00052243 0.65143760
vn 1.00000000 0.00000000 0.00000000
vn 1.00000000 0.00000000 0.00000000
vn 1.00000000 0.00000000 0.00000000
vn 1.00000000 0.00000000 0.00000000
vn 1.00000000 0.00000000 0.00000000
vn 1.00000000 0.00000000 0.00000000
vn 1.00000000 0.00000000 0.00000000
vn 1.00000000 0.00000000 0.00000000
vn 0.00000000 0.76908130 0.63915100
vn 0.00000000 0.76908140 0.63915090
vn 0.00000000 0.76908140 0.63915090
vn -0.00040154 0.76308760 0.64629500
vn -0.00053739 0.76308510 0.64629780
vn -0.00053688 0.76313110 0.64624350
vn 0.00000000 0.76312960 0.64624550
vn 0.00021935 0.76920670 0.63900010
vn 0.00000000 1.00000000 0.00000000
vn 0.00000000 1.00000000 0.00000000
vn 0.00000000 1.00000000 0.00000000
vn 0.00000000 1.00000000 0.00000000
vn 0.00000073 1.00000000 0.00000000
vn 0.00000073 1.00000000 0.00000000
vn 0.00000000 1.00000000 0.00000000
vn 0.00000000 1.00000000 0.00000000
vn -0.76395020 0.00000000 0.64527530
vn -0.76395020 0.00000000 0.64527530
vn -0.76395020 0.00000000 0.64527530
vn -0.76838070 0.00016534 0.63999300
vn -0.76839910 0.00000064 0.63997100
vn -0.76825130 0.00000000 0.64014830
vn -0.76825130 0.00000000 0.64014830
vn -0.76379000 -0.00016441 0.64546480
vn -1.00000000 0.00000000 0.00000000
vn -1.00000000 0.00000000 0.00000000
vn -1.00000000 0.00000000 0.00000000
vn -1.00000000 0.00000000 0.00000000
vn -1.00000000 0.00000042 0.00000000
vn -1.00000000 0.00000063 0.00000000
vn -1.00000000 0.00000000 0.00000000
vn -1.00000000 0.00000000 0.00000000
vn 0.72512830 -0.00043476 0.68861370
vn 0.72261970 -0.00018065 0.69124590
vn 0.72521260 -0.00044332 0.68852480
vn 0.72249480 -0.00016804 0.69137630
vn 0.72247320 0.00044374 0.69139890
vn 0.72531600 0.00016501 0.68841610
vn 0.72531600 0.00016501 0.68841600
vn 0.72531600 0.00016501 0.68841610
vn 0.99271000 0.00000000 0.12052700
vn 0.99270930 0.00000000 0.12053300
vn 0.99270890 0.00000000 0.12053570
vn 0.99271040 0.00000000 0.12052470
vn 0.99271010 0.00000000 0.12052600
vn 0.99270940 0.00000043 0.12053200
vn 0.99270940 0.00000000 0.12053180
vn 0.99271020 0.00000000 0.12052590
vn 0.00016779 -0.72567810 0.68803440
vn 0.00016779 -0.72567800 0.68803450
vn 0.00016779 -0.72567800 0.68803440
vn 0.00048788 -0.72232750 0.69155100
vn -0.00057702 -0.72232320 0.69155540
vn -0.00019125 -0.72255890 0.69130930
vn -0.00046495 -0.72535090 0.68837910
vn -0.00047410 -0.72544400 0.68828110
vn -0.00000361 -0.99270850 0.12053970
vn -0.00000361 -0.99270850 0.12053970
vn -0.00000361 -0.99270850 0.12053970
vn 0.00000000 -0.99270900 0.12053480
vn -0.00010188 -0.99270950 0.12053130
vn -0.00010195 -0.99270770 0.12054640
vn 0.00000000 -0.99270930 0.12053320
vn 0.00000000 -0.99271000 0.12052750
vn -0.71408810 -0.00017315 0.70005580
vn -0.71408810 -0.00017315 0.70005580
vn -0.71408800 -0.00017315 0.70005580
vn -0.73392200 0.00174829 0.67923150
vn -0.73382870 0.00000000 0.67933460
vn -0.73388080 0.00018160 0.67927830
vn -0.73388080 0.00018160 0.67927830
vn -0.71502500 -0.00171779 0.69909670
vn -0.99270770 0.00000000 0.12054630
vn -0.99270770 0.00000000 0.12054630
vn -0.99270770 0.00000000 0.12054630
vn -0.99270530 0.00000000 0.12056560
vn -0.99270540 0.00000000 0.12056530
vn -0.99270500 0.00000000 0.12056860
vn -0.99270730 0.00000000 0.12054960
vn -0.99270800 0.00000000 0.12054370
vn -0.00016862 0.72705610 0.68657800
vn -0.00016862 0.72705610 0.68657800
vn -0.00016862 0.72705610 0.68657810
vn -0.00076899 0.72088440 0.69305490
vn -0.00057579 0.72088330 0.69305620
vn 0.00016817 0.72086180 0.69307880
vn 0.00016817 0.72086180 0.69307890
vn 0.00077183 0.72682610 0.68682110
vn 0.00000180 0.99270890 0.12053570
vn 0.00000180 0.99270890 0.12053570
vn 0.00000180 0.99270890 0.12053570
vn 0.00000000 0.99270940 0.12053210
vn -0.00009880 0.99270940 0.12053230
vn -0.00009938 0.99270830 0.12054200
vn -0.00000045 0.99270740 0.12054880
vn 0.00000000 0.99270720 0.12055060
vn 0.00000000 0.00000000 1.00000000
vn 0.00000000 0.00000000 1.00000000
vn 0.00000000 0.00000000 1.00000000
vn 0.00000000 0.00000000 1.00000000
vn 0.00000000 0.00000000 1.00000000
vn 0.00000000 0.00000000 1.00000000
vn 0.00000000 0.00000000 1.00000000
vn 0.00000000 0.00000000 1.00000000
vn 0.00000189 0.00000000 1.00000000
vn 0.00000000 0.00000000 1.00000000
vn 0.00000000 0.00000000 1.00000000
vn 0.00000000 0.00000000 1.00000000
vn 0.00000000 0.00000000 1.00000000
vn -0.00083057 0.00000000 0.99999960
vn -0.00083371 0.00000000 0.99999960
vn 0.00000000 0.00000000 1.00000000
vn 0.00000000 0.00000000 -1.00000000
vn 0.00000000 0.00000000 -1.00000000
vn 0.00000000 0.00000000 -1.00000000
vn 0.00000000 0.00000000 -1.00000000
vn 0.00000000 0.00000000 -1.00000000
vn 0.00000000 0.00000000 -1.00000000
vn 0.00000000 0.00000000 -1.00000000
vn 0.00000000 0.00000000 -1.00000000
vn 0.00000000 0.00000000 -1.00000000
vn 0.00000000 0.00000000 -1.00000000
vn 0.00000000 0.00000000 -1.00000000
vn 0.00000000 0.00000000 -1.00000000
vn 0.00083641 0.00000000 -0.99999960
vn 0.00083584 0.00000000 -0.99999960
vn 0.00000000 0.00000000 -1.00000000
vn 0.00000000 0.00000000 -1.00000000
vn 0.00000042 0.00000000 1.00000000
vn 0.00000000 0.00000000 1.00000000
vn 0.00000000 0.00000000 1.00000000
vn 0.00000000 0.00000000 1.00000000
vn 0.00000070 0.00000000 1.00000000
vn -0.00052331 0.00000000 0.99999990
vn 0.00000035 0.00000000 1.00000000
vn -0.00047884 0.00000000 0.99999990
vn 0.00000439 0.00000000 1.00000000
vn -0.00064191 0.00000000 0.99999990
vn -0.00000065 0.00000000 1.00000000
vn -0.00053169 0.00000000 0.99999990
vn -0.00052827 0.00000000 0.99999990
vn -0.00000177 0.00000000 1.00000000
vn -0.00064266 0.00000000 0.99999990
vn 0.00000152 0.00000000 1.00000000
vn -0.00047958 0.00000000 0.99999990
vn 0.00000035 0.00000000 1.00000000
vn -0.00052498 0.00000000 0.99999990
vn 0.00000070 0.00000000 1.00000000
vn -0.00000122 0.00000000 1.00000000
vn 0.00000000 0.00000000 1.00000000
vn -0.00000023 0.00000000 1.00000000
vn -0.00000022 0.00000000 1.00000000
vt 4.13103700 3.14210200
vt 4.20198000 3.14006800
vt 4.12995400 3.14006800
vt 4.20198000 3.14210200
vt 4.29802000 3.14019500
vt 4.29802000 3.14222900
vt 4.37004600 3.14019500
vt 4.36894700 3.14222900
vt 4.29802000 3.10789800
vt 4.37004600 3.14019500
vt 4.37004600 3.10789800
vt 4.29802000 3.14019500
vt 4.20198000 3.14006800
vt 4.20198000 3.10777100
vt 4.12995400 3.10777100
vt 4.12995400 3.14006800
vt 1.85736500 1.45897300
vt 1.85945500 1.52801000
vt 1.85945500 1.45790700
vt 1.85736500 1.52801000
vt 1.85945500 1.97199100
vt 1.85736500 1.97199000
vt 1.85945500 2.04209300
vt 1.85736500 2.04105700
vt 1.89263500 1.97199100
vt 1.85945500 2.04209300
vt 1.89263500 2.04209300
vt 1.85945500 1.97199100
vt 1.85945500 1.52801000
vt 1.89263500 1.52801000
vt 1.89263500 1.45790700
vt 1.85945500 1.45790700
vt 4.20196900 3.39019800
vt 4.12992000 3.39019800
vt 4.13101900 3.39223400
vt 4.20196900 3.39223400
vt 4.29803100 3.39007100
vt 4.29803100 3.39210600
vt 4.37008000 3.39007100
vt 4.36899800 3.39210600
vt 4.29803100 3.35776600
vt 4.37008000 3.39007100
vt 4.37008000 3.35776600
vt 4.29803100 3.39007100
vt 4.20196900 3.39019800
vt 4.20196900 3.35789400
vt 4.12992000 3.35789400
vt 4.12992000 3.39019800
vt 1.64054800 1.97203400
vt 1.64054800 2.04214900
vt 1.64263800 2.04111300
vt 1.64263800 1.97203400
vt 1.64054800 1.52796600
vt 1.64263800 1.52796600
vt 1.64054800 1.45785100
vt 1.64263800 1.45891700
vt 1.60736200 2.04214900
vt 1.64054800 2.04214900
vt 1.64054800 1.97203400
vt 1.60736200 1.97203400
vt 1.60736200 1.52796600
vt 1.64054800 1.52796600
vt 1.64054800 1.45785100
vt 1.60736200 1.45785100
vt 3.61525800 1.68217900
vt 3.61207200 1.66266500
vt 3.61207200 1.68311300
vt 3.61527600 1.66266500
vt 3.61207200 1.33733200
vt 3.61527600 1.33733100
vt 3.61207200 1.31688800
vt 3.61525800 1.31781700
vt 3.63792800 1.66266500
vt 3.61525800 1.68217900
vt 3.63792800 1.68132900
vt 3.61527600 1.66266500
vt 3.61527600 1.33733100
vt 3.63792800 1.33733100
vt 3.63792800 1.31866700
vt 3.61525800 1.31781700
vt 0.46425700 3.63423700
vt 0.44389830 3.63425400
vt 0.44292420 3.63730800
vt 0.46425760 3.63730800
vt 0.53571090 3.63441400
vt 0.53571060 3.63748500
vt 0.55606960 3.63443100
vt 0.55707590 3.63748500
vt 0.44478590 3.61251500
vt 0.44389830 3.63425400
vt 0.46425700 3.63423700
vt 0.46425700 3.61251500
vt 0.53571090 3.61269200
vt 0.53571090 3.63441400
vt 0.55606960 3.63443100
vt 0.55518230 3.61269200
vt 3.88471400 1.66248400
vt 3.88473200 1.68197700
vt 3.88791300 1.68290900
vt 3.88791300 1.66248400
vt 3.88471400 1.33751200
vt 3.88791300 1.33751200
vt 3.88473200 1.31801900
vt 3.88791300 1.31709100
vt 3.86208700 1.68112700
vt 3.88473200 1.68197700
vt 3.88471400 1.66248400
vt 3.86208700 1.66248400
vt 3.86208700 1.33751200
vt 3.88471400 1.33751200
vt 3.88473200 1.31801900
vt 3.86208700 1.31886900
vt 1.46428200 3.63441500
vt 1.44391900 3.63443300
vt 1.44291300 3.63748800
vt 1.46428200 3.63748800
vt 1.53575100 3.63423900
vt 1.53575000 3.63731000
vt 1.55611400 3.63425500
vt 1.55708800 3.63731000
vt 1.44480700 3.61269000
vt 1.44391900 3.63443300
vt 1.46428200 3.63441500
vt 1.46428200 3.61269000
vt 1.53575100 3.61251200
vt 1.53575100 3.63423900
vt 1.55611400 3.63425500
vt 1.55522500 3.61251200
vt 4.59749600 1.77098300
vt 4.56310300 1.80207600
vt 4.59749600 1.80207600
vt 4.56310300 1.77098300
vt 4.43689700 1.80207600
vt 4.56310300 1.22901700
vt 4.59749600 1.22901700
vt 4.59749600 1.19792500
vt 4.56310300 1.19792500
vt 4.43689700 1.77098400
vt 4.40250400 1.80207600
vt 4.40250400 1.77098400
vt 4.40250500 1.22901700
vt 4.43689700 1.22901700
vt 4.43689700 1.19792500
vt 4.40250500 1.19792500
vt 0.68846890 2.11567100
vt 0.59617250 2.02791000
vt 0.59617250 2.11567100
vt 0.68846890 2.02791000
vt 0.59617250 1.47209000
vt 0.81153110 2.02791000
vt 0.81153110 2.11567100
vt 0.90382710 2.11567100
vt 0.90382710 2.02791000
vt 0.68846890 1.47209000
vt 0.59617250 1.38432900
vt 0.68846890 1.38432900
vt 0.81153110 1.38432900
vt 0.81153110 1.47209000
vt 0.90382710 1.47209000
vt 0.90382710 1.38432900
vt 2.65145500 2.06202000
vt 2.65143300 2.02717800
vt 2.59712200 2.02717800
vt 2.59714200 2.11341300
vt 2.59712200 1.47283500
vt 2.68829500 2.06204300
vt 2.65143300 1.47283600
vt 2.68829400 2.11338800
vt 2.59714200 1.38663800
vt 2.81168300 2.06204300
vt 2.65145500 1.43800000
vt 2.81168400 2.11338800
vt 2.68829400 1.38658700
vt 2.84857800 2.06201900
vt 2.68829500 1.43796300
vt 2.90281500 2.11341300
vt 2.81168400 1.38658600
vt 2.84849000 2.02717800
vt 2.81168300 1.43796300
vt 2.90287800 2.02717800
vt 2.90281500 1.38663800
vt 2.84849000 1.47283600
vt 2.84857800 1.43800000
vt 2.90287800 1.47283500
f 3/3/3 2/2/2 1/1/1
f 2/2/2 4/4/4 1/1/1
f 4/4/4 2/2/2 5/5/5
f 6/6/6 4/4/4 5/5/5
f 5/5/5 7/7/7 6/6/6
f 7/7/7 8/8/8 6/6/6
f 11/11/11 10/10/10 9/9/9
f 10/10/10 12/12/12 9/9/9
f 9/9/9 12/12/12 13/13/13
f 14/14/14 9/9/9 13/13/13
f 14/14/14 13/13/13 15/15/15
f 13/13/13 16/16/16 15/15/15
f 19/19/19 18/18/18 17/17/17
f 18/18/18 20/20/20 17/17/17
f 20/20/20 18/18/18 21/21/21
f 22/22/22 20/20/20 21/21/21
f 21/21/21 23/23/23 22/22/22
f 23/23/23 24/24/24 22/22/22
f 27/27/27 26/26/26 25/25/25
f 26/26/26 28/28/28 25/25/25
f 25/25/25 28/28/28 29/29/29
f 30/30/30 25/25/25 29/29/29
f 30/30/30 29/29/29 31/31/31
f 29/29/29 32/32/32 31/31/31
f 35/35/35 34/34/34 33/33/33
f 36/36/36 35/35/35 33/33/33
f 36/36/36 33/33/33 37/37/37
f 38/38/38 36/36/36 37/37/37
f 38/38/38 37/37/37 39/39/39
f 40/40/40 38/38/38 39/39/39
f 43/43/43 42/42/42 41/41/41
f 42/42/42 44/44/44 41/41/41
f 41/41/41 44/44/44 45/45/45
f 46/46/46 41/41/41 45/45/45
f 46/46/46 45/45/45 47/47/47
f 45/45/45 48/48/48 47/47/47
f 51/51/51 50/50/50 49/49/49
f 52/52/52 51/51/51 49/49/49
f 52/52/52 49/49/49 53/53/53
f 54/54/54 52/52/52 53/53/53
f 53/53/53 55/55/55 54/54/54
f 55/55/55 56/56/56 54/54/54
f 59/59/59 58/58/58 57/57/57
f 60/60/60 59/59/59 57/57/57
f 60/60/60 61/61/61 59/59/59
f 61/61/61 62/62/62 59/59/59
f 63/63/63 62/62/62 61/61/61
f 64/64/64 63/63/63 61/61/61
f 67/67/67 66/66/66 65/65/65
f 66/66/66 68/68/68 65/65/65
f 68/68/68 66/66/66 69/69/69
f 70/70/70 68/68/68 69/69/69
f 69/69/69 71/71/71 70/70/70
f 71/71/71 72/72/72 70/70/70
f 75/75/75 74/74/74 73/73/73
f 74/74/74 76/76/76 73/73/73
f 73/73/73 76/76/76 77/77/77
f 78/78/78 73/73/73 77/77/77
f 78/78/78 77/77/77 79/79/79
f 77/77/77 80/80/80 79/79/79
f 83/83/83 82/82/82 81/81/81
f 84/84/84 83/83/83 81/81/81
f 84/84/84 81/81/81 85/85/85
f 86/86/86 84/84/84 85/85/85
f 86/86/86 85/85/85 87/87/87
f 88/88/88 86/86/86 87/87/87
f 91/91/91 90/90/90 89/89/89
f 92/92/92 91/91/91 89/89/89
f 92/92/92 93/93/93 91/91/91
f 93/93/93 94/94/94 91/91/91
f 95/95/95 94/94/94 93/93/93
f 96/96/96 95/95/95 93/93/93
f 99/99/99 98/98/98 97/97/97
f 100/100/100 99/99/99 97/97/97
f 100/100/100 97/97/97 101/101/101
f 102/102/102 100/100/100 101/101/101
f 102/102/102 101/101/101 103/103/103
f 104/104/104 102/102/102 103/103/103
f 107/107/107 106/106/106 105/105/105
f 108/108/108 107/107/107 105/105/105
f 107/107/107 108/108/108 109/109/109
f 110/110/110 107/107/107 109/109/109
f 111/111/111 110/110/110 109/109/109
f 112/112/112 111/111/111 109/109/109
f 115/115/115 114/114/114 113/113/113
f 116/116/116 115/115/115 113/113/113
f 116/116/116 113/113/113 117/117/117
f 118/118/118 116/116/116 117/117/117
f 118/118/118 117/117/117 119/119/119
f 120/120/120 118/118/118 119/119/119
f 123/123/123 122/122/122 121/121/121
f 124/124/124 123/123/123 121/121/121
f 124/124/124 125/125/125 123/123/123
f 125/125/125 126/126/126 123/123/123
f 127/127/127 126/126/126 125/125/125
f 128/128/128 127/127/127 125/125/125
f 131/131/131 130/130/130 129/129/129
f 130/130/130 132/132/132 129/129/129
f 132/132/132 130/130/130 133/133/133
f 129/129/129 132/132/132 134/134/134
f 135/135/135 129/129/129 134/134/134
f 135/135/135 134/134/134 136/136/136
f 134/134/134 137/137/137 136/136/136
f 138/138/138 132/132/132 133/133/133
f 132/132/132 138/138/138 134/134/134
f 133/133/133 139/139/139 138/138/138
f 139/139/139 140/140/140 138/138/138
f 138/138/138 140/140/140 141/141/141
f 137/137/137 134/134/134 142/142/142
f 138/138/138 142/142/142 134/134/134
f 142/142/142 138/138/138 141/141/141
f 143/143/143 137/137/137 142/142/142
f 142/142/142 141/141/141 143/143/143
f 141/141/141 144/144/144 143/143/143
f 147/147/147 146/146/146 145/145/145
f 146/146/146 148/148/148 145/145/145
f 148/148/148 146/146/146 149/149/149
f 145/145/145 148/148/148 150/150/150
f 151/151/151 145/145/145 150/150/150
f 151/151/151 150/150/150 152/152/152
f 150/150/150 153/153/153 152/152/152
f 154/154/154 148/148/148 149/149/149
f 148/148/148 154/154/154 150/150/150
f 149/149/149 155/155/155 154/154/154
f 155/155/155 156/156/156 154/154/154
f 156/156/156 157/157/157 154/154/154
f 150/150/150 158/158/158 153/153/153
f 154/154/154 158/158/158 150/150/150
f 157/157/157 158/158/158 154/154/154
f 158/158/158 159/159/159 153/153/153
f 158/158/158 157/157/157 159/159/159
f 157/157/157 160/160/160 159/159/159
f 163/163/163 162/162/162 161/161/161
f 164/164/164 163/163/163 161/161/161
f 162/162/162 163/163/163 165/165/165
f 164/164/164 161/161/161 166/166/166
f 167/167/167 162/162/162 165/165/165
f 168/168/168 164/164/164 166/166/166
f 165/165/165 169/169/169 167/167/167
f 168/168/168 166/166/166 170/170/170
f 169/169/169 171/171/171 167/167/167
f 172/172/172 168/168/168 170/170/170
f 169/169/169 173/173/173 171/171/171
f 172/172/172 170/170/170 174/174/174
f 173/173/173 175/175/175 171/171/171
f 176/176/176 172/172/172 174/174/174
f 173/173/173 177/177/177 175/175/175
f 176/176/176 174/174/174 178/178/178
f 177/177/177 179/179/179 175/175/175
f 180/180/180 176/176/176 178/178/178
f 177/177/177 181/181/181 179/179/179
f 180/180/180 178/178/178 182/182/182
f 181/181/181 183/183/183 179/179/179
f 184/184/184 180/180/180 182/182/182
f 181/181/181 184/184/184 183/183/183
f 184/184/184 182/182/182 183/183/183

