mtllib material.mtl
usemtl material_0
v 2.24750000 0.90000000 -1.96249000
v 2.24750000 2.05000000 -1.96249000
v 2.24750000 2.05000000 -1.23525000
v 2.24750000 1.44842000 -1.23525000
v 2.24750000 0.90000000 -1.23525000
v 2.24750000 0.90000000 -1.16544000
v 2.24750000 1.50106000 -1.16544000
v 2.24750000 2.05000000 -1.16544000
v 2.24750000 0.90000000 -0.43749000
v 2.24750000 2.05000000 -0.43749000
v 2.25251000 0.90000000 -1.96249000
v 2.24750000 0.90000000 -1.96249000
v 2.24750000 0.90000000 -1.23525000
v 2.25012000 0.90000000 -1.23525000
v 2.25251000 0.90000000 -1.23525000
v 2.25251000 0.90000000 -1.16544000
v 2.24989000 0.90000000 -1.16544000
v 2.24750000 0.90000000 -1.16544000
v 2.25251000 0.90000000 -0.43749000
v 2.24750000 0.90000000 -0.43749000
v 2.25251000 0.90000000 -0.43749000
v 2.24750000 0.90000000 -0.43749000
v 2.24750000 2.05000000 -0.43749000
v 2.25251000 2.05000000 -0.43749000
v 2.25251000 2.05000000 -0.43749000
v 2.24750000 2.05000000 -0.43749000
v 2.24750000 2.05000000 -1.16544000
v 2.25012000 2.05000000 -1.16544000
v 2.25251000 2.05000000 -1.16544000
v 2.25251000 2.05000000 -1.23525000
v 2.24989000 2.05000000 -1.23525000
v 2.24750000 2.05000000 -1.23525000
v 2.25251000 2.05000000 -1.96249000
v 2.24750000 2.05000000 -1.96249000
v 2.25251000 2.05000000 -1.96249000
v 2.24750000 2.05000000 -1.96249000
v 2.24750000 0.90000000 -1.96249000
v 2.25251000 0.90000000 -1.96249000
v 2.25251000 0.90000000 -1.96249000
v 2.25251000 2.05000000 -1.23525000
v 2.25251000 2.05000000 -1.96249000
v 2.25251000 1.44842000 -1.23525000
v 2.25251000 0.90000000 -1.23525000
v 2.25251000 2.05000000 -1.16544000
v 2.25251000 1.50106000 -1.16544000
v 2.25251000 0.90000000 -1.16544000
v 2.25251000 2.05000000 -0.43749000
v 2.25251000 0.90000000 -0.43749000
vn -0.57735080 0.00000000 0.00000048
vn -0.57735080 0.00000000 0.00000048
vn -0.57735080 0.00000000 0.00000048
vn -0.57735080 0.00000000 0.00000048
vn -0.57735080 0.00000000 0.00000048
vn -0.57735080 0.00000000 0.00000048
vn -0.57735080 0.00000000 0.00000048
vn -0.57735080 0.00000000 0.00000048
vn -0.57735080 0.00000000 0.00000048
vn -0.57735080 0.00000000 0.00000048
vn -0.00000048 -0.57735010 0.00000048
vn -0.00000048 -0.57735010 0.00000048
vn -0.00000048 -0.57735010 0.00000048
vn -0.00000048 -0.57735010 0.00000048
vn -0.00000048 -0.57735010 0.00000048
vn -0.00000048 -0.57735010 0.00000048
vn -0.00000048 -0.57735010 0.00000048
vn -0.00000048 -0.57735010 0.00000048
vn -0.00000048 -0.57735010 0.00000048
vn -0.00000048 -0.57735010 0.00000048
vn -0.00000048 0.00000000 0.57735080
vn -0.00000048 0.00000000 0.57735080
vn -0.00000048 0.00000000 0.57735080
vn -0.00000048 0.00000000 0.57735080
vn -0.00000048 0.57735010 0.00000048
vn -0.00000048 0.57735010 0.00000048
vn -0.00000048 0.57735010 0.00000048
vn -0.00000048 0.57735010 0.00000048
vn -0.00000048 0.57735010 0.00000048
vn -0.00000048 0.57735010 0.00000048
vn -0.00000048 0.57735010 0.00000048
vn -0.00000048 0.57735010 0.00000048
vn -0.00000048 0.57735010 0.00000048
vn -0.00000048 0.57735010 0.00000048
vn -0.00000048 0.00000000 -0.57734980
vn -0.00000048 0.00000000 -0.57734980
vn -0.00000048 0.00000000 -0.57734980
vn -0.00000048 0.00000000 -0.57734980
vn 0.57734980 0.00000000 0.00000048
vn 0.57734980 0.00000000 0.00000048
vn 0.57734980 0.00000000 0.00000048
vn 0.57734980 0.00000000 0.00000048
vn 0.57734980 0.00000000 0.00000048
vn 0.57734980 0.00000000 0.00000048
vn 0.57734980 0.00000000 0.00000048
vn 0.57734980 0.00000000 0.00000048
vn 0.57734980 0.00000000 0.00000048
vn 0.57734980 0.00000000 0.00000048
vt -1.01696900 -1.01107800
vt -1.01696900 0.10198700
vt -0.26558850 0.10198700
vt -0.26558840 -0.48027510
vt -0.26558840 -1.01107800
vt -0.19346730 -1.01107800
vt -0.19346730 -0.42932610
vt -0.19346730 0.10198700
vt 0.55863580 -1.01107800
vt 0.55863580 0.10198700
vt 1.24065800 -0.21568380
vt 1.21010000 -0.21568380
vt 1.21010000 -0.09667763
vt 1.22608500 -0.09667763
vt 1.24065800 -0.09667763
vt 1.24065800 -0.08525484
vt 1.22468700 -0.08525484
vt 1.21010000 -0.08525484
vt 1.24065800 0.03386581
vt 1.21010000 0.03386581
vt 1.96843700 -0.54561470
vt 1.93686600 -0.54561470
vt 1.93686600 -0.36347590
vt 1.96843700 -0.36347590
vt 1.57373600 0.03386559
vt 1.60429400 0.03386559
vt 1.60429400 -0.08525486
vt 1.58832300 -0.08525486
vt 1.57373600 -0.08525486
vt 1.57373600 -0.09667762
vt 1.58972100 -0.09667762
vt 1.60429400 -0.09667762
vt 1.57373600 -0.21568360
vt 1.60429400 -0.21568360
vt 2.30050300 -0.36347530
vt 2.33207300 -0.36347530
vt 2.33207300 -0.54561530
vt 2.30050300 -0.54561530
vt 0.55863580 0.80710400
vt -0.19274460 1.92016900
vt 0.55863580 1.92016900
vt -0.19274460 1.33790600
vt -0.19274460 0.80710400
vt -0.26486570 1.92016900
vt -0.26486570 1.38885500
vt -0.26486570 0.80710400
vt -1.01696900 1.92016900
vt -1.01696900 0.80710400
f 3/3/3 2/2/2 1/1/1
f 4/4/4 3/3/3 1/1/1
f 5/5/5 4/4/4 1/1/1
f 5/5/5 6/6/6 4/4/4
f 4/4/4 7/7/7 3/3/3
f 6/6/6 7/7/7 4/4/4
f 7/7/7 8/8/8 3/3/3
f 6/6/6 9/9/9 7/7/7
f 7/7/7 10/10/10 8/8/8
f 9/9/9 10/10/10 7/7/7
f 13/13/13 12/12/12 11/11/11
f 14/14/14 13/13/13 11/11/11
f 15/15/15 14/14/14 11/11/11
f 15/15/15 16/16/16 14/14/14
f 14/14/14 17/17/17 13/13/13
f 16/16/16 17/17/17 14/14/14
f 17/17/17 18/18/18 13/13/13
f 16/16/16 19/19/19 17/17/17
f 17/17/17 20/20/20 18/18/18
f 19/19/19 20/20/20 17/17/17
f 23/23/23 22/22/22 21/21/21
f 24/24/24 23/23/23 21/21/21
f 27/27/27 26/26/26 25/25/25
f 28/28/28 27/27/27 25/25/25
f 29/29/29 28/28/28 25/25/25
f 29/29/29 30/30/30 28/28/28
f 28/28/28 31/31/31 27/27/27
f 30/30/30 31/31/31 28/28/28
f 31/31/31 32/32/32 27/27/27
f 30/30/30 33/33/33 31/31/31
f 31/31/31 34/34/34 32/32/32
f 33/33/33 34/34/34 31/31/31
f 37/37/37 36/36/36 35/35/35
f 38/38/38 37/37/37 35/35/35
f 41/41/41 40/40/40 39/39/39
f 40/40/40 42/42/42 39/39/39
f 42/42/42 43/43/43 39/39/39
f 40/40/40 44/44/44 42/42/42
f 42/42/42 45/45/45 43/43/43
f 44/44/44 45/45/45 42/42/42
f 45/45/45 46/46/46 43/43/43
f 44/44/44 47/47/47 45/45/45
f 45/45/45 47/47/47 46/46/46
f 47/47/47 48/48/48 46/46/46

