#usda 1.0
(
    defaultPrim = "Root"
    upAxis = "Z"
)

def Xform "Root"
{
    def Xform "DoorObject"
    {
        token ui:displayGroup = "Material Graphs"
        token ui:displayName = "DoorObject"
        int ui:order = 1024
        float3 xformOp:rotateXYZ = (0, -0, 0)
        float3 xformOp:scale = (1, 1, 1)
        double3 xformOp:translate = (0, 0, 0)
        uniform token[] xformOpOrder = ["xformOp:translate", "xformOp:rotateXYZ", "xformOp:scale"]

        def Xform "Doorframe_001"
        {
            matrix4d xformOp:transform = ( (1, 0, 0, 0), (0, 1, 0, 0), (0, 0, 1, 0), (-1.1407638788223267, -2.826054096221924, 1.009699821472168, 1) )
            uniform token[] xformOpOrder = ["xformOp:transform"]

            def Mesh "doorframe_6b7d0c2abd4918ff0ab3f9feb60ddb89_1_1_0_visual_0_006" (
                apiSchemas = ["PhysicsCollisionAPI", "PhysxCollisionAPI", "PhysxTriangleMeshCollisionAPI", "PhysicsMeshCollisionAPI"]
            )
            {
                uniform bool doubleSided = 1
                int[] faceVertexCounts = [3, 3, 3, 3, 3, 3, 3, 3, 3, 3, 3, 3, 3, 3, 3, 3, 3, 3, 3, 3, 3, 3, 3, 3, 3, 3, 3, 3, 3, 3, 3, 3, 3, 3, 3, 3]
                int[] faceVertexIndices = [0, 7, 1, 6, 7, 0, 7, 6, 2, 2, 6, 5, 5, 3, 2, 8, 4, 3, 9, 4, 8, 2, 3, 4, 15, 17, 16, 14, 15, 16, 16, 10, 14, 10, 13, 14, 13, 10, 11, 18, 11, 12, 19, 18, 12, 10, 12, 11, 0, 17, 15, 0, 14, 6, 8, 19, 9, 2, 12, 10, 2, 16, 7, 7, 17, 1, 5, 11, 3, 6, 13, 5, 9, 12, 4, 3, 18, 8, 0, 1, 17, 0, 15, 14, 8, 18, 19, 2, 4, 12, 2, 10, 16, 7, 16, 17, 5, 13, 11, 6, 14, 13, 9, 19, 12, 3, 11, 18]
                rel material:binding = </_materials/material_White>
                normal3f[] normals = [(-1, 0, 0), (-1, 0, 0), (-1, 0, 0), (-0.99999994, -1.7741085e-7, 0), (-0.99999994, -1.7741085e-7, 0), (-0.99999994, -1.7741085e-7, 0), (-0.99999994, -5.823105e-7, -5.680347e-7), (-0.99999994, -5.823105e-7, -5.680347e-7), (-0.99999994, -5.823105e-7, -5.680347e-7), (-1, -4.6241993e-7, -1.7906068e-10), (-1, -4.6241993e-7, -1.7906068e-10), (-1, -4.6241993e-7, -1.7906068e-10), (-1, -7.450588e-7, -2.6858543e-10), (-1, -7.450588e-7, -2.6858543e-10), (-1, -7.450588e-7, -2.6858543e-10), (-1, -0.0000015023548, -5.18288e-10), (-1, -0.0000015023548, -5.18288e-10), (-1, -0.0000015023548, -5.18288e-10), (-1, -0.0000016597843, -5.166389e-10), (-1, -0.0000016597843, -5.166389e-10), (-1, -0.0000016597843, -5.166389e-10), (-1, -5.5454626e-7, -9.2297904e-7), (-1, -5.5454626e-7, -9.2297904e-7), (-1, -5.5454626e-7, -9.2297904e-7), (1, 0, 0), (1, 0, 0), (1, 0, 0), (0.99999994, -8.459609e-14, 0), (0.99999994, -8.459609e-14, 0), (0.99999994, -8.459609e-14, 0), (0.99999994, 5.676759e-7, 5.680347e-7), (0.99999994, 5.676759e-7, 5.680347e-7), (0.99999994, 5.676759e-7, 5.680347e-7), (1, 4.768471e-7, 1.7906068e-10), (1, 4.768471e-7, 1.7906068e-10), (1, 4.768471e-7, 1.7906068e-10), (1, 7.1525585e-7, 2.6858543e-10), (1, 7.1525585e-7, 2.6858543e-10), (1, 7.1525585e-7, 2.6858543e-10), (1, 0.0000014901586, 5.18288e-10), (1, 0.0000014901586, 5.18288e-10), (1, 0.0000014901586, 5.18288e-10), (1, 0.0000014901163, 5.166389e-10), (1, 0.0000014901163, 5.166389e-10), (1, 0.0000014901163, 5.166389e-10), (1, 5.6700253e-7, 9.229795e-7), (1, 5.6700253e-7, 9.229795e-7), (1, 5.6700253e-7, 9.229795e-7), (-0.0000023369846, -0.00037550958, 0.99999994), (-0.0000023369846, -0.00037550958, 0.99999994), (-0.0000023369846, -0.00037550958, 0.99999994), (-6.5435535e-7, 0.9999999, 0.00034309685), (-6.5435535e-7, 0.9999999, 0.00034309685), (-6.5435535e-7, 0.9999999, 0.00034309685), (1.8153825e-7, -0.0003740193, 0.9999999), (1.8153825e-7, -0.0003740193, 0.9999999), (1.8153825e-7, -0.0003740193, 0.9999999), (0, -0.0007146876, 0.99999976), (0, -0.0007146876, 0.99999976), (0, -0.0007146876, 0.99999976), (3.5778106e-7, 0.00002440953, 1), (3.5778106e-7, 0.00002440953, 1), (3.5778106e-7, 0.00002440953, 1), (6.6604e-7, -0.9999999, -0.00034665145), (6.6604e-7, -0.9999999, -0.00034665145), (6.6604e-7, -0.9999999, -0.00034665145), (-2.7017717e-7, 0.0006604193, -0.9999998), (-2.7017717e-7, 0.0006604193, -0.9999998), (-2.7017717e-7, 0.0006604193, -0.9999998), (-2.6919483e-7, 0.000040055118, -0.99999994), (-2.6919483e-7, 0.000040055118, -0.99999994), (-2.6919483e-7, 0.000040055118, -0.99999994), (-7.4783435e-7, 0.99999994, 0.00034661382), (-7.4783435e-7, 0.99999994, 0.00034661382), (-7.4783435e-7, 0.99999994, 0.00034661382), (7.4783003e-7, -0.9999999, -0.00034792107), (7.4783003e-7, -0.9999999, -0.00034792107), (7.4783003e-7, -0.9999999, -0.00034792107), (0.0000018783493, -0.00037550958, 0.99999994), (0.0000018783493, -0.00037550958, 0.99999994), (0.0000018783493, -0.00037550958, 0.99999994), (-6.543638e-7, 0.9999999, 0.00034309685), (-6.543638e-7, 0.9999999, 0.00034309685), (-6.543638e-7, 0.9999999, 0.00034309685), (0, -0.00037401926, 0.9999999), (0, -0.00037401926, 0.9999999), (0, -0.00037401926, 0.9999999), (3.664354e-8, -0.0007146878, 0.9999998), (3.664354e-8, -0.0007146878, 0.9999998), (3.664354e-8, -0.0007146878, 0.9999998), (0, 0.000024409532, 1), (0, 0.000024409532, 1), (0, 0.000024409532, 1), (6.6604e-7, -0.9999999, -0.00034665107), (6.6604e-7, -0.9999999, -0.00034665107), (6.6604e-7, -0.9999999, -0.00034665107), (0, 0.0006604194, -0.9999998), (0, 0.0006604194, -0.9999998), (0, 0.0006604194, -0.9999998), (0, 0.000040055125, -1), (0, 0.000040055125, -1), (0, 0.000040055125, -1), (-7.478346e-7, 0.9999999, 0.00034679894), (-7.478346e-7, 0.9999999, 0.00034679894), (-7.478346e-7, 0.9999999, 0.00034679894), (7.478475e-7, -0.9999999, -0.00034774301), (7.478475e-7, -0.9999999, -0.00034774301), (7.478475e-7, -0.9999999, -0.00034774301)] (
                    interpolation = "faceVarying"
                )
                uniform token physics:approximation = "none"
                bool physics:collisionEnabled = 1
                point3f[] points = [(0.07970297, -0.0847621, -1.0100302), (0.07970297, -0.0047621727, -1.0100001), (0.079702735, 0.41453743, 1.0099897), (0.07970238, 0.9145074, 1.0903199), (0.0797025, 0.8345375, 1.0102899), (0.079702735, 0.4145074, 1.0899897), (0.07970297, -0.0854826, 1.0899696), (0.07970297, -0.005462408, 1.01), (0.07970238, 0.9152378, -1.0096802), (0.0797025, 0.83523786, -1.0097101), (-2.6077032e-7, 0.41453737, 1.0099897), (-6.183982e-7, 0.9145073, 1.0903199), (-4.991889e-7, 0.83453745, 1.0102899), (-2.6077032e-7, 0.41450733, 1.0899897), (-2.2351742e-8, -0.08548265, 1.0899696), (-2.2351742e-8, -0.08476215, -1.0100302), (-2.2351742e-8, -0.005462461, 1.01), (-2.2351742e-8, -0.004762226, -1.0100001), (-6.183982e-7, 0.9152377, -1.0096802), (-4.991889e-7, 0.8352378, -1.0097101)]
                texCoord2f[] primvars:st = [(-0.643482, -0.398376), (-0.564177, 1.621659), (-0.563482, -0.39835), (-0.644209, 1.701631), (-0.564177, 1.621659), (-0.643482, -0.398376), (-0.564177, 1.621659), (-0.644209, 1.701631), (-0.144176, 1.621648), (-0.144176, 1.621648), (-0.644209, 1.701631), (-0.144203, 1.701648), (-0.144203, 1.701648), (0.355795, 1.701977), (-0.144176, 1.621648), (0.356522, -0.398032), (0.275824, 1.621949), (0.355795, 1.701977), (0.276524, -0.398058), (0.275824, 1.621949), (0.356522, -0.398032), (-0.144176, 1.621648), (0.355795, 1.701977), (0.275824, 1.621949), (-0.643482, -0.398376), (-0.563482, -0.39835), (-0.564177, 1.621659), (-0.644209, 1.701631), (-0.643482, -0.398376), (-0.564177, 1.621659), (-0.564177, 1.621659), (-0.144176, 1.621648), (-0.644209, 1.701631), (-0.144176, 1.621648), (-0.144203, 1.701648), (-0.644209, 1.701631), (-0.144203, 1.701648), (-0.144176, 1.621648), (0.355795, 1.701977), (0.356522, -0.398032), (0.355795, 1.701977), (0.275824, 1.621949), (0.276524, -0.398058), (0.356522, -0.398032), (0.275824, 1.621949), (-0.144176, 1.621648), (0.275824, 1.621949), (0.355795, 1.701977), (-0.643482, -0.398376), (-0.563482, -0.39835), (-0.643482, -0.398376), (-0.643482, -0.398376), (-0.644209, 1.701631), (-0.644209, 1.701631), (0.356522, -0.398032), (0.276524, -0.398058), (0.276524, -0.398058), (-0.144176, 1.621648), (0.275824, 1.621949), (-0.144176, 1.621648), (-0.144176, 1.621648), (-0.564177, 1.621659), (-0.564177, 1.621659), (-0.564177, 1.621659), (-0.563482, -0.39835), (-0.563482, -0.39835), (-0.144203, 1.701648), (0.355795, 1.701977), (0.355795, 1.701977), (-0.644209, 1.701631), (-0.144203, 1.701648), (-0.144203, 1.701648), (0.276524, -0.398058), (0.275824, 1.621949), (0.275824, 1.621949), (0.355795, 1.701977), (0.356522, -0.398032), (0.356522, -0.398032), (-0.643482, -0.398376), (-0.563482, -0.39835), (-0.563482, -0.39835), (-0.643482, -0.398376), (-0.643482, -0.398376), (-0.644209, 1.701631), (0.356522, -0.398032), (0.356522, -0.398032), (0.276524, -0.398058), (-0.144176, 1.621648), (0.275824, 1.621949), (0.275824, 1.621949), (-0.144176, 1.621648), (-0.144176, 1.621648), (-0.564177, 1.621659), (-0.564177, 1.621659), (-0.564177, 1.621659), (-0.563482, -0.39835), (-0.144203, 1.701648), (-0.144203, 1.701648), (0.355795, 1.701977), (-0.644209, 1.701631), (-0.644209, 1.701631), (-0.144203, 1.701648), (0.276524, -0.398058), (0.276524, -0.398058), (0.275824, 1.621949), (0.355795, 1.701977), (0.355795, 1.701977), (0.356522, -0.398032)] (
                    interpolation = "faceVarying"
                )
                uniform token subdivisionScheme = "none"
            }

            def PhysicsRevoluteJoint "RevoluteJoint" (
                apiSchemas = ["PhysxLimitAPI:angular"]
            )
            {
                uniform token physics:axis = "Z"
                rel physics:body0 = </Root/DoorObject/Door>
                rel physics:body1 = </Root/DoorObject/Doorframe_001>
                float physics:breakForce = 3.4028235e38
                float physics:breakTorque = 3.4028235e38
                bool physics:collisionEnabled = 0
                uniform bool physics:excludeFromArticulation = 0
                bool physics:jointEnabled = 1
                point3f physics:localPos0 = (-2.1857516e-16, -8.881784e-16, 0)
                point3f physics:localPos1 = (0, 0, 0)
                quatf physics:localRot0 = (1, 0, 1.6543612e-24, -1.3877788e-17)
                quatf physics:localRot1 = (1, 0, 0, 0)
                float physics:lowerLimit = -90
                float physics:upperLimit = 0
                float physxLimit:angular:bounceThreshold = 0
                float physxLimit:angular:damping = 0
                float physxLimit:angular:restitution = 0
                float physxLimit:angular:stiffness = 0
            }
        }

        def Xform "Door" (
            apiSchemas = ["PhysicsRigidBodyAPI", "PhysxRigidBodyAPI"]
        )
        {
            bool physics:kinematicEnabled = 0
            bool physics:rigidBodyEnabled = 1
            matrix4d xformOp:transform = ( (1, 0, 0, 0), (0, 1, 0, 0), (0, 0, 1, 0), (-1.1407638788223267, -2.826054096221924, 1.009699821472168, 1) )
            uniform token[] xformOpOrder = ["xformOp:transform"]

            def Mesh "Cylinder_001" (
                apiSchemas = ["PhysicsCollisionAPI", "PhysxCollisionAPI", "PhysxConvexHullCollisionAPI", "PhysicsMeshCollisionAPI"]
            )
            {
                int[] faceVertexCounts = [3, 3, 3, 3, 3, 3, 3, 3, 3, 3, 3, 3, 3, 3, 3, 3, 3, 3, 3, 3, 3, 3, 3, 3, 3, 3, 3, 3, 3, 3, 3, 3, 3, 3, 3, 3, 3, 3, 3, 3, 3, 3, 3, 3, 3, 3, 3, 3, 3, 3, 3, 3, 3, 3, 3, 3, 3, 3, 3, 3, 3, 3, 3, 3, 3, 3, 3, 3, 3, 3, 3, 3, 3, 3, 3, 3, 3, 3, 3, 3, 3, 3, 3, 3, 3, 3, 3, 3, 3, 3, 3, 3, 3, 3, 3, 3, 3, 3, 3, 3, 3, 3, 3, 3, 3, 3, 3, 3, 3, 3, 3, 3, 3, 3, 3, 3, 3, 3, 3, 3, 3, 3, 3, 3, 3, 3, 3, 3, 3, 3, 3, 3, 3, 3, 3, 3, 3, 3, 3, 3, 3, 3, 3, 3, 3, 3, 3, 3, 3, 3, 3, 3, 3, 3, 3, 3, 3, 3, 3, 3, 3, 3, 3, 3, 3, 3, 3, 3, 3, 3, 3, 3, 3, 3, 3, 3, 3, 3, 3, 3, 3, 3, 3, 3, 3, 3, 3, 3, 3, 3, 3, 3, 3, 3, 3, 3, 3, 3, 3, 3, 3, 3, 3, 3, 3, 3, 3, 3, 3, 3, 3, 3, 3, 3, 3, 3, 3, 3, 3, 3, 3, 3, 3, 3, 3, 3, 3, 3, 3, 3, 3, 3, 3, 3, 3, 3, 3, 3, 3, 3, 3, 3, 3, 3, 3, 3, 3, 3, 3, 3, 3, 3, 3, 3, 3, 3, 3, 3, 3, 3, 3, 3, 3, 3, 3, 3, 3, 3, 3, 3, 3, 3, 3, 3, 3, 3, 3, 3, 3, 3, 3, 3, 3, 3, 3, 3, 3, 3, 3, 3, 3, 3, 3, 3, 3, 3, 3, 3, 3, 3, 3, 3, 3, 3, 3, 3, 3, 3, 3, 3, 3, 3, 3, 3, 3, 3, 3, 3, 3, 3, 3, 3, 3, 3, 3, 3, 3, 3, 3, 3, 3, 3, 3, 3, 3, 3, 3, 3, 3, 3, 3, 3, 3, 3, 3, 3, 3, 3, 3, 3, 3, 3, 3, 3, 3, 3, 3, 3, 3, 3, 3, 3, 3, 3, 3, 3, 3, 3, 3, 3, 3, 3, 3, 3, 3, 3, 3, 3, 3, 3, 3, 3, 3, 3, 3, 3, 3, 3, 3, 3, 3, 3, 3, 3, 3, 3, 3, 3, 3, 3, 3, 3, 3, 3, 3, 3, 3, 3, 3, 3, 4, 4, 4, 4, 4, 4]
                int[] faceVertexIndices = [17, 1, 0, 25, 1, 21, 29, 2, 25, 33, 3, 29, 37, 4, 33, 41, 5, 37, 45, 6, 41, 49, 7, 45, 53, 8, 49, 57, 9, 53, 61, 10, 57, 65, 11, 61, 69, 12, 65, 73, 13, 69, 77, 14, 73, 76, 80, 16, 9, 11, 15, 79, 18, 19, 78, 16, 18, 17, 23, 21, 23, 18, 22, 22, 16, 20, 25, 23, 27, 27, 22, 26, 26, 20, 24, 25, 31, 29, 27, 30, 31, 30, 24, 28, 29, 35, 33, 31, 34, 35, 30, 32, 34, 33, 39, 37, 35, 38, 39, 34, 36, 38, 37, 43, 41, 39, 42, 43, 38, 40, 42, 45, 43, 47, 43, 46, 47, 42, 44, 46, 45, 51, 49, 47, 50, 51, 46, 48, 50, 49, 55, 53, 51, 54, 55, 54, 48, 52, 53, 59, 57, 59, 54, 58, 58, 52, 56, 61, 59, 63, 63, 58, 62, 62, 56, 60, 61, 67, 65, 63, 66, 67, 62, 64, 66, 69, 67, 71, 71, 66, 70, 66, 68, 70, 69, 75, 73, 71, 74, 75, 70, 72, 74, 73, 79, 77, 75, 78, 79, 74, 76, 78, 0, 77, 17, 86, 101, 85, 72, 81, 76, 83, 72, 68, 64, 83, 68, 85, 64, 60, 86, 60, 56, 87, 56, 52, 88, 52, 48, 89, 48, 44, 40, 89, 44, 91, 40, 36, 32, 91, 36, 93, 32, 28, 94, 28, 24, 95, 24, 20, 80, 20, 16, 93, 108, 92, 128, 127, 112, 87, 102, 86, 81, 96, 80, 94, 109, 93, 80, 111, 95, 88, 103, 87, 95, 110, 94, 82, 97, 81, 89, 104, 88, 83, 98, 82, 90, 105, 89, 84, 99, 83, 91, 106, 90, 85, 100, 84, 92, 107, 91, 97, 112, 96, 98, 113, 97, 98, 115, 114, 100, 115, 99, 101, 116, 100, 101, 118, 117, 103, 118, 102, 103, 120, 119, 105, 120, 104, 106, 121, 105, 106, 123, 122, 108, 123, 107, 109, 124, 108, 109, 126, 125, 111, 126, 110, 112, 111, 96, 114, 129, 113, 145, 165, 168, 121, 136, 120, 115, 130, 114, 122, 137, 121, 116, 131, 115, 123, 138, 122, 117, 132, 116, 124, 139, 123, 118, 133, 117, 125, 140, 124, 119, 134, 118, 113, 128, 112, 126, 141, 125, 120, 135, 119, 127, 142, 126, 148, 155, 157, 154, 145, 149, 159, 148, 157, 196, 194, 169, 160, 192, 159, 164, 151, 162, 153, 164, 167, 165, 143, 128, 136, 166, 135, 150, 189, 151, 146, 168, 171, 159, 174, 149, 147, 171, 155, 161, 197, 195, 132, 155, 131, 138, 172, 137, 131, 171, 130, 154, 167, 170, 137, 169, 136, 130, 168, 129, 143, 167, 142, 142, 164, 141, 165, 154, 170, 129, 165, 128, 135, 163, 134, 141, 164, 162, 134, 160, 133, 140, 158, 139, 133, 160, 159, 139, 156, 138, 190, 184, 206, 191, 185, 190, 193, 186, 191, 194, 174, 192, 195, 187, 193, 196, 173, 194, 197, 188, 195, 198, 175, 196, 199, 176, 198, 200, 177, 199, 201, 178, 200, 202, 179, 201, 203, 180, 202, 204, 181, 203, 205, 182, 204, 206, 183, 205, 151, 197, 162, 150, 179, 180, 77, 19, 17, 17, 21, 1, 25, 2, 1, 29, 3, 2, 33, 4, 3, 37, 5, 4, 41, 6, 5, 45, 7, 6, 49, 8, 7, 53, 9, 8, 57, 10, 9, 61, 11, 10, 65, 12, 11, 69, 13, 12, 73, 14, 13, 77, 15, 14, 76, 81, 80, 15, 0, 1, 1, 2, 3, 3, 4, 5, 5, 6, 3, 6, 7, 3, 7, 8, 9, 9, 10, 11, 11, 12, 13, 13, 14, 11, 14, 15, 11, 15, 1, 7, 1, 3, 7, 7, 9, 15, 79, 78, 18, 78, 76, 16, 17, 19, 23, 23, 19, 18, 22, 18, 16, 25, 21, 23, 27, 23, 22, 26, 22, 20, 25, 27, 31, 27, 26, 30, 30, 26, 24, 29, 31, 35, 31, 30, 34, 30, 28, 32, 33, 35, 39, 35, 34, 38, 34, 32, 36, 37, 39, 43, 39, 38, 42, 38, 36, 40, 45, 41, 43, 43, 42, 46, 42, 40, 44, 45, 47, 51, 47, 46, 50, 46, 44, 48, 49, 51, 55, 51, 50, 54, 54, 50, 48, 53, 55, 59, 59, 55, 54, 58, 54, 52, 61, 57, 59, 63, 59, 58, 62, 58, 56, 61, 63, 67, 63, 62, 66, 62, 60, 64, 69, 65, 67, 71, 67, 66, 66, 64, 68, 69, 71, 75, 71, 70, 74, 70, 68, 72, 73, 75, 79, 75, 74, 78, 74, 72, 76, 0, 15, 77, 86, 102, 101, 72, 82, 81, 83, 82, 72, 64, 84, 83, 85, 84, 64, 86, 85, 60, 87, 86, 56, 88, 87, 52, 89, 88, 48, 40, 90, 89, 91, 90, 40, 32, 92, 91, 93, 92, 32, 94, 93, 28, 95, 94, 24, 80, 95, 20, 93, 109, 108, 128, 143, 127, 87, 103, 102, 81, 97, 96, 94, 110, 109, 80, 96, 111, 88, 104, 103, 95, 111, 110, 82, 98, 97, 89, 105, 104, 83, 99, 98, 90, 106, 105, 84, 100, 99, 91, 107, 106, 85, 101, 100, 92, 108, 107, 97, 113, 112, 98, 114, 113, 98, 99, 115, 100, 116, 115, 101, 117, 116, 101, 102, 118, 103, 119, 118, 103, 104, 120, 105, 121, 120, 106, 122, 121, 106, 107, 123, 108, 124, 123, 109, 125, 124, 109, 110, 126, 111, 127, 126, 112, 127, 111, 114, 130, 129, 145, 144, 165, 121, 137, 136, 115, 131, 130, 122, 138, 137, 116, 132, 131, 123, 139, 138, 117, 133, 132, 124, 140, 139, 118, 134, 133, 125, 141, 140, 119, 135, 134, 113, 129, 128, 126, 142, 141, 120, 136, 135, 127, 143, 142, 148, 147, 155, 154, 144, 145, 145, 146, 149, 146, 147, 149, 147, 148, 149, 149, 150, 151, 151, 152, 149, 152, 153, 149, 153, 154, 149, 159, 149, 148, 158, 161, 195, 193, 191, 172, 191, 190, 172, 193, 172, 195, 158, 195, 156, 156, 195, 172, 190, 206, 172, 206, 205, 172, 205, 204, 172, 204, 203, 169, 169, 172, 204, 203, 202, 169, 202, 201, 169, 169, 201, 200, 166, 169, 194, 200, 199, 169, 169, 198, 196, 194, 160, 163, 163, 166, 194, 199, 198, 169, 160, 194, 192, 164, 152, 151, 153, 152, 164, 165, 170, 143, 136, 169, 166, 150, 188, 189, 146, 145, 168, 159, 192, 174, 147, 146, 171, 161, 162, 197, 132, 157, 155, 138, 156, 172, 131, 155, 171, 154, 153, 167, 137, 172, 169, 130, 171, 168, 143, 170, 167, 142, 167, 164, 165, 144, 154, 129, 168, 165, 135, 166, 163, 161, 140, 162, 140, 141, 162, 134, 163, 160, 140, 161, 158, 157, 132, 159, 132, 133, 159, 139, 158, 156, 190, 185, 184, 191, 186, 185, 193, 187, 186, 194, 173, 174, 195, 188, 187, 196, 175, 173, 197, 189, 188, 198, 176, 175, 199, 177, 176, 200, 178, 177, 201, 179, 178, 202, 180, 179, 203, 181, 180, 204, 182, 181, 205, 183, 182, 206, 184, 183, 151, 189, 197, 150, 149, 178, 149, 174, 173, 173, 175, 149, 175, 176, 149, 149, 176, 177, 187, 188, 150, 184, 185, 150, 185, 186, 150, 186, 187, 150, 177, 178, 149, 178, 179, 150, 181, 182, 150, 182, 183, 150, 183, 184, 150, 180, 181, 150, 77, 79, 19, 207, 208, 210, 209, 209, 210, 214, 213, 213, 214, 212, 211, 211, 212, 208, 207, 209, 213, 211, 207, 214, 210, 208, 212]
                normal3f[] normals = [(0, 0.92387986, -0.38268253), (0, 0.92387986, -0.38268253), (0, 0.92387986, -0.38268253), (0, 0.7071045, -0.70710915), (0, 0.7071045, -0.70710915), (0, 0.7071045, -0.70710915), (0, 0.38268003, -0.92388093), (0, 0.38268003, -0.92388093), (0, 0.38268003, -0.92388093), (0, 0, -1), (0, 0, -1), (0, 0, -1), (0, -0.38268003, -0.92388093), (0, -0.38268003, -0.92388093), (0, -0.38268003, -0.92388093), (0, -0.7071045, -0.70710915), (0, -0.7071045, -0.70710915), (0, -0.7071045, -0.70710915), (0, -0.92387986, -0.38268253), (0, -0.92387986, -0.38268253), (0, -0.92387986, -0.38268253), (0, -1, 0), (0, -1, 0), (0, -1, 0), (0, -0.9238775, 0.3826883), (0, -0.9238775, 0.3826883), (0, -0.9238775, 0.3826883), (0, -0.70710784, 0.7071057), (0, -0.70710784, 0.7071057), (0, -0.70710784, 0.7071057), (0, -0.38268238, 0.9238799), (0, -0.38268238, 0.9238799), (0, -0.38268238, 0.9238799), (0, 0, 1), (0, 0, 1), (0, 0, 1), (0, 0.38268003, 0.92388093), (0, 0.38268003, 0.92388093), (0, 0.38268003, 0.92388093), (0, 0.70710784, 0.7071057), (0, 0.70710784, 0.7071057), (0, 0.70710784, 0.7071057), (0, 0.92387986, 0.38268253), (0, 0.92387986, 0.38268253), (0, 0.92387986, 0.38268253), (1, -1.7184817e-7, 0), (1, -1.7184817e-7, 0), (1, -1.7184817e-7, 0), (-1, 0, 0), (-1, 0, 0), (-1, 0, 0), (0.7019176, 0.7122581, 0), (0.7019176, 0.7122581, 0), (0.7019176, 0.7122581, 0), (0.96497035, 0.26235884, 0), (0.96497035, 0.26235884, 0), (0.96497035, 0.26235884, 0), (0.25528005, 0.8932699, -0.37000138), (0.25528005, 0.8932699, -0.37000138), (0.25528005, 0.8932699, -0.37000138), (0.70194703, 0.65801895, -0.27254635), (0.70194703, 0.65801895, -0.27254635), (0.70194703, 0.65801895, -0.27254635), (0.9649761, 0.24236734, -0.10039498), (0.9649761, 0.24236734, -0.10039498), (0.9649761, 0.24236734, -0.10039498), (0.25534147, 0.6836574, -0.68367636), (0.25534147, 0.6836574, -0.68367636), (0.25534147, 0.6836574, -0.68367636), (0.7019342, 0.5036183, -0.5036437), (0.7019342, 0.5036183, -0.5036437), (0.7019342, 0.5036183, -0.5036437), (0.9649698, 0.18551648, -0.1855182), (0.9649698, 0.18551648, -0.1855182), (0.9649698, 0.18551648, -0.1855182), (0.25533968, 0.36999553, -0.8932553), (0.25533968, 0.36999553, -0.8932553), (0.25533968, 0.36999553, -0.8932553), (0.7019075, 0.272569, -0.65805167), (0.7019075, 0.272569, -0.65805167), (0.7019075, 0.272569, -0.65805167), (0.9649761, 0.100389, -0.24237001), (0.9649761, 0.100389, -0.24237001), (0.9649761, 0.100389, -0.24237001), (0.25533384, 0, -0.9668529), (0.25533384, 0, -0.9668529), (0.25533384, 0, -0.9668529), (0.7019083, 0, -0.7122674), (0.7019083, 0, -0.7122674), (0.7019083, 0, -0.7122674), (0.9649734, 0, -0.262348), (0.9649734, 0, -0.262348), (0.9649734, 0, -0.262348), (0.2553358, -0.36999592, -0.8932562), (0.2553358, -0.36999592, -0.8932562), (0.2553358, -0.36999592, -0.8932562), (0.7019345, -0.27256045, -0.6580264), (0.7019345, -0.27256045, -0.6580264), (0.7019345, -0.27256045, -0.6580264), (0.9649702, -0.10040331, -0.24238735), (0.9649702, -0.10040331, -0.24238735), (0.9649702, -0.10040331, -0.24238735), (0.2552787, -0.6836808, -0.6836765), (0.2552787, -0.6836808, -0.6836765), (0.2552787, -0.6836808, -0.6836765), (0.70193195, -0.5036221, -0.5036431), (0.70193195, -0.5036221, -0.5036431), (0.70193195, -0.5036221, -0.5036431), (0.9649741, -0.18550268, -0.18550944), (0.9649741, -0.18550268, -0.18550944), (0.9649741, -0.18550268, -0.18550944), (0.2553606, -0.8932577, -0.36997536), (0.2553606, -0.8932577, -0.36997536), (0.2553606, -0.8932577, -0.36997536), (0.70192665, -0.6580393, -0.27254978), (0.70192665, -0.6580393, -0.27254978), (0.70192665, -0.6580393, -0.27254978), (0.96497107, -0.2423865, -0.10039624), (0.96497107, -0.2423865, -0.10039624), (0.96497107, -0.2423865, -0.10039624), (0.25535545, -0.9668473, 0), (0.25535545, -0.9668473, 0), (0.25535545, -0.9668473, 0), (0.7019176, -0.7122581, 0), (0.7019176, -0.7122581, 0), (0.7019176, -0.7122581, 0), (0.96497035, -0.26235884, 0), (0.96497035, -0.26235884, 0), (0.96497035, -0.26235884, 0), (0.25527957, -0.8932681, 0.37000588), (0.25527957, -0.8932681, 0.37000588), (0.25527957, -0.8932681, 0.37000588), (0.7019457, -0.65802187, 0.27254257), (0.7019457, -0.65802187, 0.27254257), (0.7019457, -0.65802187, 0.27254257), (0.9649761, -0.24236757, 0.10039507), (0.9649761, -0.24236757, 0.10039507), (0.9649761, -0.24236757, 0.10039507), (0.25533837, -0.6836671, 0.6836678), (0.25533837, -0.6836671, 0.6836678), (0.25533837, -0.6836671, 0.6836678), (0.7019342, -0.5036183, 0.5036437), (0.7019342, -0.5036183, 0.5036437), (0.7019342, -0.5036183, 0.5036437), (0.96497023, -0.18551673, 0.185515), (0.96497023, -0.18551673, 0.185515), (0.96497023, -0.18551673, 0.185515), (0.25533855, -0.3699935, 0.89325637), (0.25533855, -0.3699935, 0.89325637), (0.25533855, -0.3699935, 0.89325637), (0.7019077, -0.27258053, 0.65804666), (0.7019077, -0.27258053, 0.65804666), (0.7019077, -0.27258053, 0.65804666), (0.9649761, -0.100389, 0.24237001), (0.9649761, -0.100389, 0.24237001), (0.9649761, -0.100389, 0.24237001), (0.2553342, 0, 0.9668529), (0.2553342, 0, 0.9668529), (0.2553342, 0, 0.9668529), (0.7019081, 0, 0.7122676), (0.7019081, 0, 0.7122676), (0.7019081, 0, 0.7122676), (0.9649734, 0, 0.26234752), (0.9649734, 0, 0.26234752), (0.9649734, 0, 0.26234752), (0.25533226, 0.3699923, 0.89325875), (0.25533226, 0.3699923, 0.89325875), (0.25533226, 0.3699923, 0.89325875), (0.7019378, 0.27257133, 0.65801847), (0.7019378, 0.27257133, 0.65801847), (0.7019378, 0.27257133, 0.65801847), (0.96497023, 0.1004034, 0.24238758), (0.96497023, 0.1004034, 0.24238758), (0.96497023, 0.1004034, 0.24238758), (0.25527743, 0.68367565, 0.6836819), (0.25527743, 0.68367565, 0.6836819), (0.25527743, 0.68367565, 0.6836819), (0.7019323, 0.50362176, 0.5036428), (0.7019323, 0.50362176, 0.5036428), (0.7019323, 0.50362176, 0.5036428), (0.9649741, 0.18550275, 0.18550952), (0.9649741, 0.18550275, 0.18550952), (0.9649741, 0.18550275, 0.18550952), (0.25535962, 0.8932505, 0.36999327), (0.25535962, 0.8932505, 0.36999327), (0.25535962, 0.8932505, 0.36999327), (0.7019265, 0.65803933, 0.2725498), (0.7019265, 0.65803933, 0.2725498), (0.7019265, 0.65803933, 0.2725498), (0.9649713, 0.24238656, 0.100394756), (0.9649713, 0.24238656, 0.100394756), (0.9649713, 0.24238656, 0.100394756), (0, 1, 0), (0, 1, 0), (0, 1, 0), (0, -0.3826584, 0.92388994), (0, -0.3826584, 0.92388994), (0, -0.3826584, 0.92388994), (0.99999994, -5.15465e-7, 0), (0.99999994, -5.15465e-7, 0), (0.99999994, -5.15465e-7, 0), (1, 0, 0), (1, 0, 0), (1, 0, 0), (1, -6.8732186e-7, 0), (1, -6.8732186e-7, 0), (1, -6.8732186e-7, 0), (1, 0, 0), (1, 0, 0), (1, 0, 0), (0.99999994, 3.436608e-7, 0), (0.99999994, 3.436608e-7, 0), (0.99999994, 3.436608e-7, 0), (1, 0, 0), (1, 0, 0), (1, 0, 0), (0.99999994, 6.872866e-7, 0), (0.99999994, 6.872866e-7, 0), (0.99999994, 6.872866e-7, 0), (1, 0, 0), (1, 0, 0), (1, 0, 0), (0.99999994, 5.15465e-7, 0), (0.99999994, 5.15465e-7, 0), (0.99999994, 5.15465e-7, 0), (1, 0, 0), (1, 0, 0), (1, 0, 0), (0.99999994, 6.873216e-7, 0), (0.99999994, 6.873216e-7, 0), (0.99999994, 6.873216e-7, 0), (1, 0, 0), (1, 0, 0), (1, 0, 0), (0.99999994, -3.436608e-7, 0), (0.99999994, -3.436608e-7, 0), (0.99999994, -3.436608e-7, 0), (1, 0, 0), (1, 0, 0), (1, 0, 0), (0.99999994, -6.872866e-7, 0), (0.99999994, -6.872866e-7, 0), (0.99999994, -6.872866e-7, 0), (0, 0, -0.99999994), (0, 0, -0.99999994), (0, 0, -0.99999994), (0, 0.92387223, -0.38270095), (0, 0.92387223, -0.38270095), (0, 0.92387223, -0.38270095), (0, -0.7070995, 0.70711404), (0, -0.7070995, 0.70711404), (0, -0.7070995, 0.70711404), (0, 1, 0), (0, 1, 0), (0, 1, 0), (0, 0.3826584, -0.92388994), (0, 0.3826584, -0.92388994), (0, 0.3826584, -0.92388994), (0, 0.92387, -0.38270646), (0, 0.92387, -0.38270646), (0, 0.92387, -0.38270646), (0, -0.92387, 0.38270646), (0, -0.92387, 0.38270646), (0, -0.92387, 0.38270646), (0, 0.70710963, -0.70710397), (0, 0.70710963, -0.70710397), (0, 0.70710963, -0.70710397), (0, 0.92387, 0.38270646), (0, 0.92387, 0.38270646), (0, 0.92387, 0.38270646), (0, -1, 0), (0, -1, 0), (0, -1, 0), (0, 0.70710963, 0.70710397), (0, 0.70710963, 0.70710397), (0, 0.70710963, 0.70710397), (0, -0.92387706, -0.38268915), (0, -0.92387706, -0.38268915), (0, -0.92387706, -0.38268915), (0, 0.3826584, 0.92388994), (0, 0.3826584, 0.92388994), (0, 0.3826584, 0.92388994), (0, -0.70710963, -0.70710397), (0, -0.70710963, -0.70710397), (0, -0.70710963, -0.70710397), (0, 0, 1), (0, 0, 1), (0, 0, 1), (0, -0.3826655, -0.92388684), (0, -0.3826655, -0.92388684), (0, -0.3826655, -0.92388684), (1, -4.4823832e-7, 0), (1, -4.4823832e-7, 0), (1, -4.4823832e-7, 0), (1, 4.4811782e-7, 0), (1, 4.4811782e-7, 0), (1, 4.4811782e-7, 0), (1, 0, 0), (1, 0, 0), (1, 0, 0), (1, 8.963272e-7, 0), (1, 8.963272e-7, 0), (1, 8.963272e-7, 0), (1, 0, 0), (1, 0, 0), (1, 0, 0), (0.99999994, 0.0000011211994, 0), (0.99999994, 0.0000011211994, 0), (0.99999994, 0.0000011211994, 0), (1, 0, 0), (1, 0, 0), (1, 0, 0), (1, 0, 0), (1, 0, 0), (1, 0, 0), (1, 4.4823832e-7, 0), (1, 4.4823832e-7, 0), (1, 4.4823832e-7, 0), (1, -4.4811782e-7, 0), (1, -4.4811782e-7, 0), (1, -4.4811782e-7, 0), (1, 0, 0), (1, 0, 0), (1, 0, 0), (1, -8.963276e-7, 0), (1, -8.963276e-7, 0), (1, -8.963276e-7, 0), (1, 0, 0), (1, 0, 0), (1, 0, 0), (0.99999994, -0.0000011211994, 0), (0.99999994, -0.0000011211994, 0), (0.99999994, -0.0000011211994, 0), (1, 0, 0), (1, 0, 0), (1, 0, 0), (1, 0, 0), (1, 0, 0), (1, 0, 0), (0, 0.92387223, 0.38270095), (0, 0.92387223, 0.38270095), (0, 0.92387223, 0.38270095), (0, 0.99999994, 0), (0, 0.99999994, 0), (0, 0.99999994, 0), (0, -1, 0), (0, -1, 0), (0, -1, 0), (0, 0.707113, 0.70710063), (0, 0.707113, 0.70710063), (0, 0.707113, 0.70710063), (0, -0.92386734, -0.3827131), (0, -0.92386734, -0.3827131), (0, -0.92386734, -0.3827131), (0, 0.38265178, 0.9238927), (0, 0.38265178, 0.9238927), (0, 0.38265178, 0.9238927), (0, -0.7071201, -0.7070935), (0, -0.7071201, -0.7070935), (0, -0.7071201, -0.7070935), (0, 0, 1), (0, 0, 1), (0, 0, 1), (0, -0.38265178, -0.9238927), (0, -0.38265178, -0.9238927), (0, -0.38265178, -0.9238927), (0, -0.38265678, 0.9238906), (0, -0.38265678, 0.9238906), (0, -0.38265678, 0.9238906), (0, 0, -1), (0, 0, -1), (0, 0, -1), (0, -0.707113, 0.70710063), (0, -0.707113, 0.70710063), (0, -0.707113, 0.70710063), (0, 1, 0), (0, 1, 0), (0, 1, 0), (0, 0.38265178, -0.9238927), (0, 0.38265178, -0.9238927), (0, 0.38265178, -0.9238927), (0, -0.92387223, 0.38270095), (0, -0.92387223, 0.38270095), (0, -0.92387223, 0.38270095), (0, 0.7071272, -0.7070864), (0, 0.7071272, -0.7070864), (0, 0.7071272, -0.7070864), (0, 0.38265738, 0.9238903), (0, 0.38265738, 0.9238903), (0, 0.38265738, 0.9238903), (0.99999994, 0.0000010059254, 0), (0.99999994, 0.0000010059254, 0), (0.99999994, 0.0000010059254, 0), (0, 0.0980064, 0.99518585), (0, 0.0980064, 0.99518585), (0, 0.0980064, 0.99518585), (-0.999777, -0.021116361, 0), (-0.999777, -0.021116361, 0), (-0.999777, -0.021116361, 0), (-0.9661602, -0.025278656, 0.2567013), (-0.9661602, -0.025278656, 0.2567013), (-0.9661602, -0.025278656, 0.2567013), (0, 0.09801028, -0.9951854), (0, 0.09801028, -0.9951854), (0, 0.09801028, -0.9951854), (0, 0.38265032, -0.9238933), (0, 0.38265032, -0.9238933), (0, 0.38265032, -0.9238933), (0, 0.92386997, -0.38270667), (0, 0.92386997, -0.38270667), (0, 0.92386997, -0.38270667), (0, -0.92386997, 0.38270667), (0, -0.92386997, 0.38270667), (0, -0.92386997, 0.38270667), (0.9153886, -0.039457005, -0.40063322), (0.9153886, -0.039457005, -0.40063322), (0.9153886, -0.039457005, -0.40063322), (0, 0.92386883, 0.3827093), (0, 0.92386883, 0.3827093), (0, 0.92386883, 0.3827093), (0, -0.028475994, 0.9995945), (0, -0.028475994, 0.9995945), (0, -0.028475994, 0.9995945), (0, 0.70711744, 0.70709616), (0, 0.70711744, 0.70709616), (0, 0.70711744, 0.70709616), (-0.9998186, -0.01904408, 0), (-0.9998186, -0.01904408, 0), (-0.9998186, -0.01904408, 0), (0, 0.382653, 0.9238922), (0, 0.382653, 0.9238922), (0, 0.382653, 0.9238922), (0, -0.92386997, -0.38270667), (0, -0.92386997, -0.38270667), (0, -0.92386997, -0.38270667), (0, 0.7071203, 0.70709336), (0, 0.7071203, 0.70709336), (0, 0.7071203, 0.70709336), (0, 0.70711744, -0.70709616), (0, 0.70711744, -0.70709616), (0, 0.70711744, -0.70709616), (0, -1, 0), (0, -1, 0), (0, -1, 0), (0, 0.92386997, 0.38270667), (0, 0.92386997, 0.38270667), (0, 0.92386997, 0.38270667), (0, 0.7071102, -0.7071033), (0, 0.7071102, -0.7071033), (0, 0.7071102, -0.7071033), (0, 0.382653, -0.9238922), (0, 0.382653, -0.9238922), (0, 0.382653, -0.9238922), (0, 0.92386883, -0.3827093), (0, 0.92386883, -0.3827093), (0, 0.92386883, -0.3827093), (0, 1, 0), (0, 1, 0), (0, 1, 0), (0, -0.7071203, 0.70709336), (0, -0.7071203, 0.70709336), (0, -0.7071203, 0.70709336), (0, 0.098011136, -0.9951854), (0, 0.098011136, -0.9951854), (0, 0.098011136, -0.9951854), (0, -0.382653, 0.9238922), (0, -0.382653, 0.9238922), (0, -0.382653, 0.9238922), (0, -0.382653, -0.9238922), (0, -0.382653, -0.9238922), (0, -0.382653, -0.9238922), (0, -0.09800723, 0.9951857), (0, -0.09800723, 0.9951857), (0, -0.09800723, 0.9951857), (0, -0.7071203, -0.70709336), (0, -0.7071203, -0.70709336), (0, -0.7071203, -0.70709336), (0, -1, 0), (0, -1, 0), (0, -1, 0), (0, -1, 0), (0, -1, 0), (0, -1, 0), (0, -1, 0), (0, -1, 0), (0, -1, 0), (0, -1, 0), (0, -1, 0), (0, -1, 0), (0, -1, 0), (0, -1, 0), (0, -1, 0), (0, -1, 0), (0, -1, 0), (0, -1, 0), (0, -1, 0), (0, -1, 0), (0, -1, 0), (0, -1, 0), (0, -1, 0), (0, -1, 0), (0, -1, 0), (0, -1, 0), (0, -1, 0), (0, -1, 0), (0, -1, 0), (0, -1, 0), (0, -1, 0), (0, -1, 0), (0, -1, 0), (0, -1, 0), (0, -1, 0), (0, -1, 0), (0, -1, 0), (0, -1, 0), (0, -1, 0), (0, -1, 0), (0, -1, 0), (0, -1, 0), (0, -1, 0), (0, -1, 0), (0, -1, 0), (0, -1, 0), (0, -1, 0), (0, -1, 0), (0, -0.055903215, -0.9984362), (0, -0.055903215, -0.9984362), (0, -0.055903215, -0.9984362), (0.9998186, -0.019047322, 0), (0.9998186, -0.019047322, 0), (0.9998186, -0.019047322, 0), (0.25535545, 0.9668473, 0), (0.25535545, 0.9668473, 0), (0.25535545, 0.9668473, 0), (0, 0.92387986, -0.38268253), (0, 0.92387986, -0.38268253), (0, 0.92387986, -0.38268253), (0, 0.7071081, -0.7071055), (0, 0.7071081, -0.7071055), (0, 0.7071081, -0.7071055), (0, 0.38268018, -0.9238808), (0, 0.38268018, -0.9238808), (0, 0.38268018, -0.9238808), (0, 0, -1), (0, 0, -1), (0, 0, -1), (0, -0.3826826, -0.9238799), (0, -0.3826826, -0.9238799), (0, -0.3826826, -0.9238799), (0, -0.7071081, -0.7071055), (0, -0.7071081, -0.7071055), (0, -0.7071081, -0.7071055), (0, -0.9238775, -0.3826883), (0, -0.9238775, -0.3826883), (0, -0.9238775, -0.3826883), (0, -1, 0), (0, -1, 0), (0, -1, 0), (0, -0.92387986, 0.38268253), (0, -0.92387986, 0.38268253), (0, -0.92387986, 0.38268253), (0, -0.7071047, 0.7071089), (0, -0.7071047, 0.7071089), (0, -0.7071047, 0.7071089), (0, -0.38268018, 0.9238808), (0, -0.38268018, 0.9238808), (0, -0.38268018, 0.9238808), (0, 0, 1), (0, 0, 1), (0, 0, 1), (0, 0.38268018, 0.9238808), (0, 0.38268018, 0.9238808), (0, 0.38268018, 0.9238808), (0, 0.7071047, 0.7071089), (0, 0.7071047, 0.7071089), (0, 0.7071047, 0.7071089), (0, 0.92387986, 0.38268253), (0, 0.92387986, 0.38268253), (0, 0.92387986, 0.38268253), (1, 0, 0), (1, 0, 0), (1, 0, 0), (-1, -0.0000010427934, 0), (-1, -0.0000010427934, 0), (-1, -0.0000010427934, 0), (-1, -7.8209405e-7, 0), (-1, -7.8209405e-7, 0), (-1, -7.8209405e-7, 0), (-1, 0, 0), (-1, 0, 0), (-1, 0, 0), (-1, 3.6618167e-7, 0), (-1, 3.6618167e-7, 0), (-1, 3.6618167e-7, 0), (-1, 0, 0), (-1, 0, 0), (-1, 0, 0), (-1, 0.0000010427931, 0), (-1, 0.0000010427931, 0), (-1, 0.0000010427931, 0), (-1, 7.8209405e-7, 0), (-1, 7.8209405e-7, 0), (-1, 7.8209405e-7, 0), (-1, 0, 0), (-1, 0, 0), (-1, 0, 0), (-0.99999994, -3.6618178e-7, 0), (-0.99999994, -3.6618178e-7, 0), (-0.99999994, -3.6618178e-7, 0), (-1, 0, 0), (-1, 0, 0), (-1, 0, 0), (-1, 4.2959165e-8, 0), (-1, 4.2959165e-8, 0), (-1, 4.2959165e-8, 0), (-1, 0, 0), (-1, 0, 0), (-1, 0, 0), (-1, -4.2959172e-8, 0), (-1, -4.2959172e-8, 0), (-1, -4.2959172e-8, 0), (0.7019178, 0.7122579, 0), (0.7019178, 0.7122579, 0), (0.7019178, 0.7122579, 0), (0.96497, 0.2623604, 0), (0.96497, 0.2623604, 0), (0.96497, 0.2623604, 0), (0.25536114, 0.89325947, -0.36997068), (0.25536114, 0.89325947, -0.36997068), (0.25536114, 0.89325947, -0.36997068), (0.70192665, 0.6580393, -0.27254978), (0.70192665, 0.6580393, -0.27254978), (0.70192665, 0.6580393, -0.27254978), (0.9649713, 0.24238656, -0.100394756), (0.9649713, 0.24238656, -0.100394756), (0.9649713, 0.24238656, -0.100394756), (0.25527686, 0.68367577, -0.683682), (0.25527686, 0.68367577, -0.683682), (0.25527686, 0.68367577, -0.683682), (0.70193195, 0.5036221, -0.5036431), (0.70193195, 0.5036221, -0.5036431), (0.70193195, 0.5036221, -0.5036431), (0.9649741, 0.18550268, -0.18550944), (0.9649741, 0.18550268, -0.18550944), (0.9649741, 0.18550268, -0.18550944), (0.25533423, 0.36999205, -0.8932583), (0.25533423, 0.36999205, -0.8932583), (0.25533423, 0.36999205, -0.8932583), (0.7019371, 0.27257156, -0.658019), (0.7019371, 0.27257156, -0.658019), (0.7019371, 0.27257156, -0.658019), (0.9649702, 0.10040331, -0.24238735), (0.9649702, 0.10040331, -0.24238735), (0.9649702, 0.10040331, -0.24238735), (0.25533506, 0, -0.9668526), (0.25533506, 0, -0.9668526), (0.25533506, 0, -0.9668526), (0.70190567, 0, -0.71226984), (0.70190567, 0, -0.71226984), (0.70190567, 0, -0.71226984), (0.9649733, 0, -0.26234818), (0.9649733, 0, -0.26234818), (0.9649733, 0, -0.26234818), (0.2553394, -0.36999342, -0.8932561), (0.2553394, -0.36999342, -0.8932561), (0.2553394, -0.36999342, -0.8932561), (0.7019075, -0.27258062, -0.6580469), (0.7019075, -0.27258062, -0.6580469), (0.7019075, -0.27258062, -0.6580469), (0.9649761, -0.100389, -0.24237001), (0.9649761, -0.100389, -0.24237001), (0.9649761, -0.100389, -0.24237001), (0.25533956, -0.6836523, -0.68368214), (0.25533956, -0.6836523, -0.68368214), (0.25533956, -0.6836523, -0.68368214), (0.7019342, -0.5036183, -0.5036437), (0.7019342, -0.5036183, -0.5036437), (0.7019342, -0.5036183, -0.5036437), (0.9649704, -0.1855166, -0.18551487), (0.9649704, -0.1855166, -0.18551487), (0.9649704, -0.1855166, -0.18551487), (0.25527954, -0.8932681, -0.37000588), (0.25527954, -0.8932681, -0.37000588), (0.25527954, -0.8932681, -0.37000588), (0.70194703, -0.65801895, -0.27254635), (0.70194703, -0.65801895, -0.27254635), (0.70194703, -0.65801895, -0.27254635), (0.9649761, -0.24236734, -0.10039498), (0.9649761, -0.24236734, -0.10039498), (0.9649761, -0.24236734, -0.10039498), (0.25535518, -0.9668473, 0), (0.25535518, -0.9668473, 0), (0.25535518, -0.9668473, 0), (0.7019178, -0.7122579, 0), (0.7019178, -0.7122579, 0), (0.7019178, -0.7122579, 0), (0.96497, -0.2623604, 0), (0.96497, -0.2623604, 0), (0.96497, -0.2623604, 0), (0.2553606, -0.8932577, 0.36997536), (0.2553606, -0.8932577, 0.36997536), (0.2553606, -0.8932577, 0.36997536), (0.7019262, -0.6580379, 0.2725542), (0.7019262, -0.6580379, 0.2725542), (0.7019262, -0.6580379, 0.2725542), (0.96497107, -0.2423865, 0.10039624), (0.96497107, -0.2423865, 0.10039624), (0.96497107, -0.2423865, 0.10039624), (0.25527808, -0.68366647, 0.6836909), (0.25527808, -0.68366647, 0.6836909), (0.25527808, -0.68366647, 0.6836909), (0.7019323, -0.50362176, 0.5036428), (0.7019323, -0.50362176, 0.5036428), (0.7019323, -0.50362176, 0.5036428), (0.9649741, -0.18550275, 0.18550952), (0.9649741, -0.18550275, 0.18550952), (0.9649741, -0.18550275, 0.18550952), (0.2553361, -0.3699959, 0.8932561), (0.2553361, -0.3699959, 0.8932561), (0.2553361, -0.3699959, 0.8932561), (0.70193446, -0.27256045, 0.65802646), (0.70193446, -0.27256045, 0.65802646), (0.70193446, -0.27256045, 0.65802646), (0.96497023, -0.1004034, 0.24238758), (0.96497023, -0.1004034, 0.24238758), (0.96497023, -0.1004034, 0.24238758), (0.25533393, 0, 0.96685284), (0.25533393, 0, 0.96685284), (0.25533393, 0, 0.96685284), (0.70190537, 0, 0.71227014), (0.70190537, 0, 0.71227014), (0.70190537, 0, 0.71227014), (0.9649732, 0, 0.26234856), (0.9649732, 0, 0.26234856), (0.9649732, 0, 0.26234856), (0.25534067, 0.36999545, 0.89325505), (0.25534067, 0.36999545, 0.89325505), (0.25534067, 0.36999545, 0.89325505), (0.70190793, 0.27256885, 0.6580514), (0.70190793, 0.27256885, 0.6580514), (0.70190793, 0.27256885, 0.6580514), (0.9649761, 0.100389, 0.24237001), (0.9649761, 0.100389, 0.24237001), (0.9649761, 0.100389, 0.24237001), (0.2553399, 0.68365765, 0.68367666), (0.2553399, 0.68365765, 0.68367666), (0.2553399, 0.68365765, 0.68367666), (0.7019342, 0.5036183, 0.5036437), (0.7019342, 0.5036183, 0.5036437), (0.7019342, 0.5036183, 0.5036437), (0.96496964, 0.18551661, 0.18551834), (0.96496964, 0.18551661, 0.18551834), (0.96496964, 0.18551661, 0.18551834), (0.25527936, 0.8932794, 0.3699789), (0.25527936, 0.8932794, 0.3699789), (0.25527936, 0.8932794, 0.3699789), (0.70194703, 0.65801895, 0.27254635), (0.70194703, 0.65801895, 0.27254635), (0.70194703, 0.65801895, 0.27254635), (0.9649761, 0.24236757, 0.10039507), (0.9649761, 0.24236757, 0.10039507), (0.9649761, 0.24236757, 0.10039507), (0, 1, 0), (0, 1, 0), (0, 1, 0), (0, -0.3826655, 0.92388684), (0, -0.3826655, 0.92388684), (0, -0.3826655, 0.92388684), (1, 5.630634e-7, 0), (1, 5.630634e-7, 0), (1, 5.630634e-7, 0), (1, 0, 0), (1, 0, 0), (1, 0, 0), (1, 8.446659e-7, 0), (1, 8.446659e-7, 0), (1, 8.446659e-7, 0), (1, 0, 0), (1, 0, 0), (1, 0, 0), (1, -0.0000011262216, 0), (1, -0.0000011262216, 0), (1, -0.0000011262216, 0), (0.99999994, 0, 0), (0.99999994, 0, 0), (0.99999994, 0, 0), (1, -5.6306305e-7, 0), (1, -5.6306305e-7, 0), (1, -5.6306305e-7, 0), (1, 2.8161335e-7, 0), (1, 2.8161335e-7, 0), (1, 2.8161335e-7, 0), (1, -5.630636e-7, 0), (1, -5.630636e-7, 0), (1, -5.630636e-7, 0), (1, 0, 0), (1, 0, 0), (1, 0, 0), (1, -8.446657e-7, 0), (1, -8.446657e-7, 0), (1, -8.446657e-7, 0), (1, 0, 0), (1, 0, 0), (1, 0, 0), (1, 0.0000011262209, 0), (1, 0.0000011262209, 0), (1, 0.0000011262209, 0), (1, 0, 0), (1, 0, 0), (1, 0, 0), (0.99999994, 5.630637e-7, 0), (0.99999994, 5.630637e-7, 0), (0.99999994, 5.630637e-7, 0), (0, 0, -1), (0, 0, -1), (0, 0, -1), (0, 0.92387223, -0.38270095), (0, 0.92387223, -0.38270095), (0, 0.92387223, -0.38270095), (0, -0.70711, 0.70710367), (0, -0.70711, 0.70710367), (0, -0.70711, 0.70710367), (0, 1, 0), (0, 1, 0), (0, 1, 0), (0, 0.3826584, -0.92388994), (0, 0.3826584, -0.92388994), (0, 0.3826584, -0.92388994), (0, 0.92387, -0.38270646), (0, 0.92387, -0.38270646), (0, 0.92387, -0.38270646), (0, -0.92387706, 0.38268915), (0, -0.92387706, 0.38268915), (0, -0.92387706, 0.38268915), (0, 0.70711, -0.70710367), (0, 0.70711, -0.70710367), (0, 0.70711, -0.70710367), (0, 0.92387, 0.38270646), (0, 0.92387, 0.38270646), (0, 0.92387, 0.38270646), (0, -1, 0), (0, -1, 0), (0, -1, 0), (0, 0.70711, 0.70710367), (0, 0.70711, 0.70710367), (0, 0.70711, 0.70710367), (0, -0.92387, -0.38270646), (0, -0.92387, -0.38270646), (0, -0.92387, -0.38270646), (0, 0.3826584, 0.92388994), (0, 0.3826584, 0.92388994), (0, 0.3826584, 0.92388994), (0, -0.70709985, -0.7071138), (0, -0.70709985, -0.7071138), (0, -0.70709985, -0.7071138), (0, 0, 0.99999994), (0, 0, 0.99999994), (0, 0, 0.99999994), (0, -0.3826584, -0.92388994), (0, -0.3826584, -0.92388994), (0, -0.3826584, -0.92388994), (1, 0, 0), (1, 0, 0), (1, 0, 0), (1, 0, 0), (1, 0, 0), (1, 0, 0), (1, 0, 0), (1, 0, 0), (1, 0, 0), (0.99999994, -0.0000011211994, 0), (0.99999994, -0.0000011211994, 0), (0.99999994, -0.0000011211994, 0), (1, 0, 0), (1, 0, 0), (1, 0, 0), (1, -8.963272e-7, 0), (1, -8.963272e-7, 0), (1, -8.963272e-7, 0), (1, 0, 0), (1, 0, 0), (1, 0, 0), (1, -4.4811782e-7, 0), (1, -4.4811782e-7, 0), (1, -4.4811782e-7, 0), (1, 0, 0), (1, 0, 0), (1, 0, 0), (1, 0, 0), (1, 0, 0), (1, 0, 0), (1, 0, 0), (1, 0, 0), (1, 0, 0), (0.99999994, 0.0000011211994, 0), (0.99999994, 0.0000011211994, 0), (0.99999994, 0.0000011211994, 0), (1, 0, 0), (1, 0, 0), (1, 0, 0), (1, 8.963276e-7, 0), (1, 8.963276e-7, 0), (1, 8.963276e-7, 0), (1, 0, 0), (1, 0, 0), (1, 0, 0), (0.99999994, 0, 0), (0.99999994, 0, 0), (0.99999994, 0, 0), (0, 0.92387223, 0.38270095), (0, 0.92387223, 0.38270095), (0, 0.92387223, 0.38270095), (0, 0.99999994, 0), (0, 0.99999994, 0), (0, 0.99999994, 0), (0, -1, 0), (0, -1, 0), (0, -1, 0), (0, 0.70712763, 0.7070859), (0, 0.70712763, 0.7070859), (0, 0.70712763, 0.7070859), (0, -0.92387223, -0.38270095), (0, -0.92387223, -0.38270095), (0, -0.92387223, -0.38270095), (0, 0.3826514, 0.9238928), (0, 0.3826514, 0.9238928), (0, 0.3826514, 0.9238928), (0, -0.7071134, -0.7071001), (0, -0.7071134, -0.7071001), (0, -0.7071134, -0.7071001), (0, 0, 1), (0, 0, 1), (0, 0, 1), (0, -0.3826564, -0.9238907), (0, -0.3826564, -0.9238907), (0, -0.3826564, -0.9238907), (0, -0.3826514, 0.9238928), (0, -0.3826514, 0.9238928), (0, -0.3826514, 0.9238928), (0, 0, -1), (0, 0, -1), (0, 0, -1), (0, -0.7071205, 0.707093), (0, -0.7071205, 0.707093), (0, -0.7071205, 0.707093), (0, 1, 0), (0, 1, 0), (0, 1, 0), (0, 0.3826514, -0.9238928), (0, 0.3826514, -0.9238928), (0, 0.3826514, -0.9238928), (0, -0.92386734, 0.3827131), (0, -0.92386734, 0.3827131), (0, -0.92386734, 0.3827131), (0, 0.7071134, -0.7071001), (0, 0.7071134, -0.7071001), (0, 0.7071134, -0.7071001), (0, 0.38265032, 0.9238933), (0, 0.38265032, 0.9238933), (0, 0.38265032, 0.9238933), (1, 0, 0), (1, 0, 0), (1, 0, 0), (1, -0.0000018456552, 0), (1, -0.0000018456552, 0), (1, -0.0000018456552, 0), (0.99999994, 0, 0), (0.99999994, 0, 0), (0.99999994, 0, 0), (1, 0.0000036382512, 0), (1, 0.0000036382512, 0), (1, 0.0000036382512, 0), (1, 0.0000025535894, 0), (1, 0.0000025535894, 0), (1, 0.0000025535894, 0), (1, -0.0000044170197, 0), (1, -0.0000044170197, 0), (1, -0.0000044170197, 0), (1, 0.000002318283, 0), (1, 0.000002318283, 0), (1, 0.000002318283, 0), (1, -0.000002616825, 0), (1, -0.000002616825, 0), (1, -0.000002616825, 0), (0, 0.098010354, 0.9951854), (0, 0.098010354, 0.9951854), (0, 0.098010354, 0.9951854), (-0.9983423, -0.022024117, -0.0531759), (-0.9983423, -0.022024117, -0.0531759), (-0.9983423, -0.022024117, -0.0531759), (-0.999777, -0.021116948, 0), (-0.999777, -0.021116948, 0), (-0.999777, -0.021116948, 0), (-0.99977696, -0.021116653, 0), (-0.99977696, -0.021116653, 0), (-0.99977696, -0.021116653, 0), (-0.999777, -0.021116361, 0), (-0.999777, -0.021116361, 0), (-0.999777, -0.021116361, 0), (-0.9995689, -0.02076271, -0.020762114), (-0.9995689, -0.02076271, -0.020762114), (-0.9995689, -0.02076271, -0.020762114), (-0.9997484, -0.020720692, -0.008583565), (-0.9997484, -0.020720692, -0.008583565), (-0.9997484, -0.020720692, -0.008583565), (-0.99977696, -0.0211166, 0), (-0.99977696, -0.0211166, 0), (-0.99977696, -0.0211166, 0), (-0.999777, -0.021116596, 0), (-0.999777, -0.021116596, 0), (-0.999777, -0.021116596, 0), (-0.99977696, -0.021116717, 0), (-0.99977696, -0.021116717, 0), (-0.99977696, -0.021116717, 0), (-0.9997771, -0.021116542, 0), (-0.9997771, -0.021116542, 0), (-0.9997771, -0.021116542, 0), (-0.9997771, -0.02111661, 0), (-0.9997771, -0.02111661, 0), (-0.9997771, -0.02111661, 0), (-0.99977696, -0.02111656, 0), (-0.99977696, -0.02111656, 0), (-0.99977696, -0.02111656, 0), (-0.999777, -0.021116514, 0), (-0.999777, -0.021116514, 0), (-0.999777, -0.021116514, 0), (-0.999777, -0.021116618, 0), (-0.999777, -0.021116618, 0), (-0.999777, -0.021116618, 0), (-0.9997547, -0.02046095, 0.008475999), (-0.9997547, -0.02046095, 0.008475999), (-0.9997547, -0.02046095, 0.008475999), (-0.99977696, -0.021116799, 0), (-0.99977696, -0.021116799, 0), (-0.99977696, -0.021116799, 0), (-0.999777, -0.021116823, 0), (-0.999777, -0.021116823, 0), (-0.999777, -0.021116823, 0), (-0.998575, -0.020420795, 0.04930431), (-0.998575, -0.020420795, 0.04930431), (-0.998575, -0.020420795, 0.04930431), (-0.9995941, -0.020144496, 0.02014388), (-0.9995941, -0.020144496, 0.02014388), (-0.9995941, -0.020144496, 0.02014388), (-0.99977696, -0.021117203, 0), (-0.99977696, -0.021117203, 0), (-0.99977696, -0.021117203, 0), (-0.99981856, -0.019046875, 0), (-0.99981856, -0.019046875, 0), (-0.99981856, -0.019046875, 0), (0, 0.098006465, -0.99518573), (0, 0.098006465, -0.99518573), (0, 0.098006465, -0.99518573), (0, 0.38265738, -0.9238903), (0, 0.38265738, -0.9238903), (0, 0.38265738, -0.9238903), (0, 0.92386985, -0.38270688), (0, 0.92386985, -0.38270688), (0, 0.92386985, -0.38270688), (0, -0.92386985, 0.38270688), (0, -0.92386985, 0.38270688), (0, -0.92386985, 0.38270688), (0.9998186, -0.019046491, 0), (0.9998186, -0.019046491, 0), (0.9998186, -0.019046491, 0), (0, 0.9238759, 0.3826922), (0, 0.9238759, 0.3826922), (0, 0.9238759, 0.3826922), (0, -0.028476018, 0.9995945), (0, -0.028476018, 0.9995945), (0, -0.028476018, 0.9995945), (0, 0.70711744, 0.70709616), (0, 0.70711744, 0.70709616), (0, 0.70711744, 0.70709616), (-0.9153928, -0.039457187, -0.40062347), (-0.9153928, -0.039457187, -0.40062347), (-0.9153928, -0.039457187, -0.40062347), (0, 0.382653, 0.9238922), (0, 0.382653, 0.9238922), (0, 0.382653, 0.9238922), (0, -0.92386985, -0.38270688), (0, -0.92386985, -0.38270688), (0, -0.92386985, -0.38270688), (0, 0.7071102, 0.7071033), (0, 0.7071102, 0.7071033), (0, 0.7071102, 0.7071033), (0, 0.70711744, -0.70709616), (0, 0.70711744, -0.70709616), (0, 0.70711744, -0.70709616), (0, -1, 0), (0, -1, 0), (0, -1, 0), (0, 0.92386985, 0.38270688), (0, 0.92386985, 0.38270688), (0, 0.92386985, 0.38270688), (0, 0.7071203, -0.70709336), (0, 0.7071203, -0.70709336), (0, 0.7071203, -0.70709336), (0, 0.382653, -0.9238922), (0, 0.382653, -0.9238922), (0, 0.382653, -0.9238922), (0, 0.9238759, -0.3826922), (0, 0.9238759, -0.3826922), (0, 0.9238759, -0.3826922), (0, 1, 0), (0, 1, 0), (0, 1, 0), (0, -0.7071203, 0.70709336), (0, -0.7071203, 0.70709336), (0, -0.7071203, 0.70709336), (0, -0.09800723, -0.9951857), (0, -0.09800723, -0.9951857), (0, -0.09800723, -0.9951857), (-0.021808868, 0, -0.9997622), (-0.021808868, 0, -0.9997622), (-0.021808868, 0, -0.9997622), (0, -0.382653, 0.9238922), (0, -0.382653, 0.9238922), (0, -0.382653, 0.9238922), (0, -0.382653, -0.9238922), (0, -0.382653, -0.9238922), (0, -0.382653, -0.9238922), (0, 0.098011136, 0.9951854), (0, 0.098011136, 0.9951854), (0, 0.098011136, 0.9951854), (-0.021808555, 0, 0.9997622), (-0.021808555, 0, 0.9997622), (-0.021808555, 0, 0.9997622), (0, -0.7071203, -0.70709336), (0, -0.7071203, -0.70709336), (0, -0.7071203, -0.70709336), (0, -1, 0), (0, -1, 0), (0, -1, 0), (0, -0.99999994, 0), (0, -0.99999994, 0), (0, -0.99999994, 0), (0, -1, 0), (0, -1, 0), (0, -1, 0), (0, -1, 0), (0, -1, 0), (0, -1, 0), (0, -1, 0), (0, -1, 0), (0, -1, 0), (0, -1, 0), (0, -1, 0), (0, -1, 0), (0, -1, 0), (0, -1, 0), (0, -1, 0), (0, -1, 0), (0, -1, 0), (0, -1, 0), (0, -0.99999994, 0), (0, -0.99999994, 0), (0, -0.99999994, 0), (0, -1, 0), (0, -1, 0), (0, -1, 0), (0, -1, 0), (0, -1, 0), (0, -1, 0), (0, -1, 0), (0, -1, 0), (0, -1, 0), (0, -1, 0), (0, -1, 0), (0, -1, 0), (0, -1, 0), (0, -1, 0), (0, -1, 0), (0, -1, 0), (0, -1, 0), (0, -1, 0), (0, -1, 0), (0, -1, 0), (0, -1, 0), (0, -0.05590338, -0.9984362), (0, -0.05590338, -0.9984362), (0, -0.05590338, -0.9984362), (0.9998232, -0.018712707, 0.0018426456), (0.9998232, -0.018712707, 0.0018426456), (0.9998232, -0.018712707, 0.0018426456), (0.99982715, -0.018594299, 0), (0.99982715, -0.018594299, 0), (0.99982715, -0.018594299, 0), (0.9998271, -0.018595127, 0), (0.9998271, -0.018595127, 0), (0.9998271, -0.018595127, 0), (0.99982715, -0.01859529, 0), (0.99982715, -0.01859529, 0), (0.99982715, -0.01859529, 0), (0.999827, -0.01859478, 0), (0.999827, -0.01859478, 0), (0.999827, -0.01859478, 0), (0.99981856, -0.019047922, 0), (0.99981856, -0.019047922, 0), (0.99981856, -0.019047922, 0), (0.9998185, -0.019046303, 0), (0.9998185, -0.019046303, 0), (0.9998185, -0.019046303, 0), (0.99981856, -0.01904783, 0), (0.99981856, -0.01904783, 0), (0.99981856, -0.01904783, 0), (0.9998186, -0.019046802, 0), (0.9998186, -0.019046802, 0), (0.9998186, -0.019046802, 0), (0.9998271, -0.018595492, 0), (0.9998271, -0.018595492, 0), (0.9998271, -0.018595492, 0), (0.9998186, -0.019047897, 0), (0.9998186, -0.019047897, 0), (0.9998186, -0.019047897, 0), (0.9998186, -0.019046815, 0), (0.9998186, -0.019046815, 0), (0.9998186, -0.019046815, 0), (0.9998185, -0.019048197, 0), (0.9998185, -0.019048197, 0), (0.9998185, -0.019048197, 0), (0.9998186, -0.019046945, 0), (0.9998186, -0.019046945, 0), (0.9998186, -0.019046945, 0), (0.99981856, -0.019047344, 0), (0.99981856, -0.019047344, 0), (0.99981856, -0.019047344, 0), (0.25535518, 0.9668473, 0), (0.25535518, 0.9668473, 0), (0.25535518, 0.9668473, 0), (-1, 0, 0), (-1, 0, 0), (-1, 0, 0), (-1, 0, 0), (0, 1, 0), (0, 1, 0), (0, 1, 0), (0, 1, 0), (1, 0, 0), (1, 0, 0), (1, 0, 0), (1, 0, 0), (0, -1, 0), (0, -1, 0), (0, -1, 0), (0, -1, 0), (0, 0, -1), (0, 0, -1), (0, 0, -1), (0, 0, -1), (0, 0, 1), (0, 0, 1), (0, 0, 1), (0, 0, 1)] (
                    interpolation = "faceVarying"
                )
                uniform token physics:approximation = "convexHull"
                bool physics:collisionEnabled = 1
                point3f[] points = [(0.03206265, 0.8040509, 0.033744216), (0.03206265, 0.7975147, 0.017964363), (0.03206265, 0.78543735, 0.0058870316), (0.03206265, 0.7696576, -0.0006490946), (0.03206265, 0.7525778, -0.0006490946), (0.03206265, 0.73679805, 0.0058870316), (0.03206265, 0.7247207, 0.017964363), (0.03206265, 0.7181845, 0.033744216), (0.03206265, 0.7181845, 0.050824046), (0.03206265, 0.7247207, 0.0666039), (0.03206265, 0.73679805, 0.07868123), (0.03206265, 0.7525778, 0.08521736), (0.03206265, 0.7696576, 0.08521736), (0.03206265, 0.78543735, 0.07868123), (0.03206265, 0.7975147, 0.0666039), (0.03206265, 0.8040509, 0.050824046), (0.050165772, 0.7941687, 0.035710335), (0.040138364, 0.8040509, 0.033744216), (0.048822403, 0.7991097, 0.034727335), (0.04515207, 0.80272675, 0.03400767), (0.050165772, 0.7891364, 0.023561716), (0.040138364, 0.7975147, 0.017964363), (0.048822403, 0.79332566, 0.02076292), (0.04515207, 0.79639244, 0.01871419), (0.050165772, 0.7798395, 0.014264822), (0.040138364, 0.78543735, 0.0058870316), (0.048822403, 0.7826383, 0.010076046), (0.04515207, 0.7846873, 0.007009506), (0.050165772, 0.7676914, 0.009233117), (0.040138364, 0.7696576, -0.0006490946), (0.048822403, 0.7686746, 0.004291892), (0.04515207, 0.76939416, 0.000674963), (0.050165772, 0.754544, 0.009233117), (0.040138364, 0.7525778, -0.0006490946), (0.048822403, 0.7535608, 0.004291892), (0.04515207, 0.75284123, 0.000674963), (0.050165772, 0.7423959, 0.014264822), (0.040138364, 0.73679805, 0.0058870316), (0.048822403, 0.7395971, 0.010076046), (0.04515207, 0.7375481, 0.007009506), (0.050165772, 0.733099, 0.023561716), (0.040138364, 0.7247207, 0.017964363), (0.048822403, 0.72890973, 0.02076292), (0.04515207, 0.72584295, 0.01871419), (0.050165772, 0.7280667, 0.035710335), (0.040138364, 0.7181845, 0.033744216), (0.048822403, 0.7231257, 0.034727335), (0.04515207, 0.71950865, 0.03400767), (0.050165772, 0.7280667, 0.048857927), (0.040138364, 0.7181845, 0.050824046), (0.048822403, 0.7231257, 0.049840927), (0.04515207, 0.71950865, 0.050560594), (0.050165772, 0.733099, 0.061006546), (0.040138364, 0.7247207, 0.0666039), (0.048822403, 0.72890973, 0.06380534), (0.04515207, 0.72584295, 0.06585407), (0.050165772, 0.7423959, 0.07030344), (0.040138364, 0.73679805, 0.07868123), (0.048822403, 0.7395971, 0.074492216), (0.04515207, 0.7375481, 0.077558756), (0.050165772, 0.754544, 0.075335145), (0.040138364, 0.7525778, 0.08521736), (0.048822403, 0.7535608, 0.08027637), (0.04515207, 0.75284123, 0.0838933), (0.050165772, 0.7676914, 0.075335145), (0.040138364, 0.7696576, 0.08521736), (0.048822403, 0.7686746, 0.08027637), (0.04515207, 0.76939416, 0.0838933), (0.050165772, 0.7798395, 0.07030344), (0.040138364, 0.78543735, 0.07868123), (0.048822403, 0.7826383, 0.074492216), (0.04515207, 0.7846873, 0.077558756), (0.050165772, 0.7891364, 0.061006546), (0.040138364, 0.7975147, 0.0666039), (0.048822403, 0.79332566, 0.06380534), (0.04515207, 0.79639244, 0.06585407), (0.050165772, 0.7941687, 0.048857927), (0.040138364, 0.8040509, 0.050824046), (0.048822403, 0.7991097, 0.049840927), (0.04515207, 0.80272675, 0.050560594), (0.050165772, 0.78128743, 0.03827262), (0.050165772, 0.78128743, 0.046295643), (0.050165772, 0.7782161, 0.053709984), (0.050165772, 0.77254295, 0.059383154), (0.050165772, 0.7651291, 0.062453866), (0.050165772, 0.7571063, 0.062453866), (0.050165772, 0.74969244, 0.059383154), (0.050165772, 0.74401927, 0.053709984), (0.050165772, 0.74094796, 0.046295643), (0.050165772, 0.74094796, 0.03827262), (0.050165772, 0.74401927, 0.030858278), (0.050165772, 0.74969244, 0.025185108), (0.050165772, 0.7571063, 0.022114396), (0.050165772, 0.7651291, 0.022114396), (0.050165772, 0.77254295, 0.025185108), (0.050165772, 0.7782161, 0.030858278), (0.061633945, 0.78128743, 0.03827262), (0.061633945, 0.78128743, 0.046295643), (0.061633945, 0.7782161, 0.053709984), (0.061633945, 0.77254295, 0.059383154), (0.061633945, 0.7651291, 0.062453866), (0.061633945, 0.7571063, 0.062453866), (0.061633945, 0.74969244, 0.059383154), (0.061633945, 0.74401927, 0.053709984), (0.061633945, 0.74094796, 0.046295643), (0.061633945, 0.74094796, 0.03827262), (0.061633945, 0.74401927, 0.030858278), (0.061633945, 0.74969244, 0.025185108), (0.061633945, 0.7571063, 0.022114396), (0.061633945, 0.7651291, 0.022114396), (0.061633945, 0.77254295, 0.025185108), (0.061633945, 0.7782161, 0.030858278), (0.061633945, 0.777241, 0.0390774), (0.061633945, 0.777241, 0.04549086), (0.061633945, 0.77478576, 0.051417947), (0.061633945, 0.77025104, 0.055952787), (0.061633945, 0.7643242, 0.058407545), (0.061633945, 0.7579112, 0.058407545), (0.061633945, 0.75198436, 0.055952787), (0.061633945, 0.74744964, 0.051417947), (0.061633945, 0.7449944, 0.04549086), (0.061633945, 0.7449944, 0.0390774), (0.061633945, 0.74744964, 0.033150315), (0.061633945, 0.75198436, 0.028615475), (0.061633945, 0.7579112, 0.026160717), (0.061633945, 0.7643242, 0.026160717), (0.061633945, 0.77025104, 0.028615475), (0.061633945, 0.77478576, 0.033150315), (0.07186282, 0.777241, 0.0390774), (0.07186282, 0.777241, 0.04549086), (0.07186282, 0.77478576, 0.051417947), (0.07186282, 0.77025104, 0.055952787), (0.07186282, 0.7643242, 0.058407545), (0.07186282, 0.7579112, 0.058407545), (0.07186282, 0.75198436, 0.055952787), (0.07186282, 0.74744964, 0.051417947), (0.07186282, 0.7449944, 0.04549086), (0.07186282, 0.7449944, 0.0390774), (0.07186282, 0.74744964, 0.033150315), (0.07186282, 0.75198436, 0.028615475), (0.07186282, 0.7579112, 0.026160717), (0.07186282, 0.7643242, 0.026160717), (0.07186282, 0.77025104, 0.028615475), (0.07186282, 0.77478576, 0.033150315), (0.100815296, 0.777241, 0.0390774), (0.100815296, 0.777241, 0.04549086), (0.100815296, 0.77478576, 0.051417947), (0.100815296, 0.77025104, 0.055952787), (0.100815296, 0.7643242, 0.058407545), (0.100815296, 0.7611177, 0.05872333), (0.100815296, 0.7579112, 0.026160717), (0.100815296, 0.7611177, 0.025844932), (0.100815296, 0.7643242, 0.026160717), (0.100815296, 0.77025104, 0.028615475), (0.100815296, 0.77478576, 0.033150315), (0.086339116, 0.77025104, 0.055952787), (0.086339116, 0.74744964, 0.033150315), (0.086339116, 0.7643242, 0.058407545), (0.086339116, 0.75198436, 0.028615475), (0.086339116, 0.7611177, 0.05872333), (0.086339116, 0.7579112, 0.058407545), (0.086339116, 0.7579112, 0.026160717), (0.086339116, 0.7611177, 0.025844932), (0.086339116, 0.75198436, 0.055952787), (0.086339116, 0.7643242, 0.026160717), (0.086339116, 0.777241, 0.0390774), (0.086339116, 0.74744964, 0.051417947), (0.086339116, 0.77025104, 0.028615475), (0.086339116, 0.777241, 0.04549086), (0.086339116, 0.7449944, 0.04549086), (0.086339116, 0.77478576, 0.033150315), (0.086339116, 0.77478576, 0.051417947), (0.086339116, 0.7449944, 0.0390774), (0.09830594, 0.6261933, 0.054673314), (0.09830594, 0.6261933, 0.054879665), (0.09830594, 0.6261933, 0.05406201), (0.09830594, 0.6261933, 0.05306959), (0.09830594, 0.6261933, 0.05173397), (0.09830594, 0.6261933, 0.050106883), (0.09830594, 0.6261933, 0.048249364), (0.09830594, 0.6261933, 0.046234608), (0.09830594, 0.6261933, 0.044139504), (0.09830594, 0.6261933, 0.04204452), (0.09830594, 0.6261933, 0.040029764), (0.09830594, 0.6261933, 0.038172245), (0.09830594, 0.6261933, 0.036545157), (0.09830594, 0.6261933, 0.035209537), (0.09830594, 0.6261933, 0.03421712), (0.09830594, 0.6261933, 0.033605814), (0.09830594, 0.6261933, 0.033399463), (0.08884835, 0.6261933, 0.036545157), (0.08884835, 0.6261933, 0.035209537), (0.08884835, 0.6261933, 0.054879665), (0.08884835, 0.6261933, 0.03421712), (0.08884835, 0.6261933, 0.054673314), (0.08884835, 0.6261933, 0.033605814), (0.08884835, 0.6261933, 0.05406201), (0.08884835, 0.6261933, 0.033399463), (0.08884835, 0.6261933, 0.05306959), (0.08884835, 0.6261933, 0.05173397), (0.08884835, 0.6261933, 0.050106883), (0.08884835, 0.6261933, 0.048249364), (0.08884835, 0.6261933, 0.046234608), (0.08884835, 0.6261933, 0.044139504), (0.08884835, 0.6261933, 0.04204452), (0.08884835, 0.6261933, 0.040029764), (0.08884835, 0.6261933, 0.038172245), (0, 0, -1.0000001), (0, 0, 1), (0, 0.829165, -1.0000001), (0, 0.829165, 1), (0.036142826, 0, -1.0000001), (0.036142826, 0, 1), (0.036142826, 0.829165, -1.0000001), (0.036142826, 0.829165, 1)]
                texCoord2f[] primvars:UVMap = [(0.96875, 0.72304755), (0.90625, 0.5), (0.96875, 0.5), (0.84375, 0.7230475), (0.90625, 0.5), (0.90625, 0.72304755), (0.78125, 0.7230475), (0.84375, 0.5), (0.84375, 0.72304755), (0.71875, 0.7230475), (0.78125, 0.5), (0.78125, 0.72304755), (0.65625, 0.7230475), (0.71875, 0.5), (0.71875, 0.72304755), (0.59375, 0.7230475), (0.65625, 0.5), (0.65625, 0.72304755), (0.53125, 0.7230475), (0.59375, 0.5), (0.59375, 0.72304755), (0.46875, 0.7230475), (0.53125, 0.5), (0.53125, 0.72304755), (0.40625, 0.7230475), (0.46875, 0.5), (0.46875, 0.72304755), (0.34375, 0.7230475), (0.40625, 0.5), (0.40625, 0.72304755), (0.28125, 0.7230475), (0.34375, 0.5), (0.34375, 0.72304755), (0.21875, 0.7230475), (0.28125, 0.5), (0.28125, 0.72304755), (0.15625, 0.7230475), (0.21875, 0.5), (0.21875, 0.72304755), (0.09375, 0.7230475), (0.15625, 0.5), (0.15625, 0.72304755), (0.03125, 0.7230475), (0.09375, 0.5), (0.09375, 0.72304755), (0.21395817, 0.43120766), (0.27199376, 0.36058387), (0.28604195, 0.43120763), (0.6166631, 0.050447315), (0.51461154, 0.20317832), (0.70317835, 0.48538846), (0.030768126, 0.86152375), (0.970549, 1), (0.9692321, 0.8615238), (0.20856856, 0.45829722), (0.28604195, 0.43120763), (0.29143134, 0.4582973), (0.96875, 0.72304755), (0.9067316, 0.86152375), (0.90625, 0.7230475), (0.9067316, 0.86152375), (0.96695256, 1), (0.9080471, 1), (0.36799335, 0.42658556), (0.28604195, 0.43120763), (0.35264853, 0.4036172), (0.84375, 0.7230475), (0.9057681, 0.86152375), (0.8442314, 0.86152375), (0.8442314, 0.86152375), (0.90445054, 1), (0.8455481, 1), (0.42658588, 0.3679904), (0.35264853, 0.4036172), (0.40362027, 0.3526455), (0.84375, 0.72304755), (0.7817314, 0.86152375), (0.78125, 0.7230475), (0.84326816, 0.8615238), (0.78304726, 1), (0.7817314, 0.86152375), (0.4582986, 0.29143208), (0.40362027, 0.3526455), (0.43120754, 0.2860413), (0.78125, 0.72304755), (0.71923274, 0.8615238), (0.71875, 0.7230475), (0.7807676, 0.8615238), (0.720549, 1), (0.71923274, 0.8615238), (0.4582986, 0.29143208), (0.43120754, 0.2139587), (0.45829862, 0.20856792), (0.71875, 0.72304755), (0.65673274, 0.8615238), (0.65625, 0.7230475), (0.718269, 0.8615237), (0.658049, 1), (0.65673274, 0.8615238), (0.45829862, 0.20856792), (0.40362027, 0.1473545), (0.42658582, 0.13200957), (0.65625, 0.72304755), (0.59423184, 0.86152375), (0.59375, 0.7230475), (0.65576905, 0.8615238), (0.5955499, 1), (0.59423184, 0.86152375), (0.42658582, 0.13200957), (0.35264853, 0.09638275), (0.36799332, 0.07341443), (0.53125, 0.7230475), (0.59326893, 0.8615237), (0.53173184, 0.8615238), (0.59326893, 0.8615237), (0.53304726, 1), (0.53173184, 0.8615238), (0.36799332, 0.07341443), (0.28604186, 0.068792395), (0.29143146, 0.04170264), (0.53125, 0.72304755), (0.4692321, 0.8615238), (0.46875, 0.7230475), (0.5307681, 0.86152375), (0.470549, 1), (0.4692321, 0.8615238), (0.29143146, 0.04170264), (0.21395816, 0.06879242), (0.20856859, 0.041702636), (0.46875, 0.72304755), (0.40673146, 0.8615238), (0.40625, 0.7230475), (0.4682683, 0.8615237), (0.4080468, 1), (0.40673146, 0.8615238), (0.13200666, 0.07341444), (0.21395816, 0.06879242), (0.14735146, 0.09638275), (0.40625, 0.72304755), (0.34423167, 0.86152375), (0.34375, 0.7230475), (0.34423167, 0.86152375), (0.40445077, 1), (0.3455481, 1), (0.07341413, 0.13200954), (0.14735146, 0.09638275), (0.09637973, 0.14735447), (0.28125, 0.7230475), (0.34326723, 0.8615238), (0.28173143, 0.86152375), (0.28173143, 0.86152375), (0.34195098, 1), (0.28304723, 1), (0.041701373, 0.20856795), (0.09637973, 0.14735447), (0.068792485, 0.21395871), (0.28125, 0.72304755), (0.21923274, 0.8615238), (0.21875, 0.7230475), (0.28076726, 0.8615238), (0.22054896, 1), (0.21923274, 0.8615238), (0.041701373, 0.20856795), (0.06879247, 0.28604126), (0.041701365, 0.29143214), (0.15625, 0.7230475), (0.21826898, 0.8615237), (0.15673187, 0.86152375), (0.15673187, 0.86152375), (0.21695273, 1), (0.15804815, 1), (0.041701365, 0.29143214), (0.0963797, 0.35264546), (0.0734141, 0.36799037), (0.15625, 0.72304755), (0.094231874, 0.86152375), (0.09375, 0.7230475), (0.15576813, 0.8615237), (0.09554901, 1), (0.094231874, 0.86152375), (0.0734141, 0.36799037), (0.14735146, 0.4036173), (0.13200665, 0.4265855), (0.09375, 0.72304755), (0.031731866, 0.8615238), (0.03125, 0.7230475), (0.09326812, 0.86152375), (0.03304766, 1), (0.031731866, 0.8615238), (0.13200665, 0.4265855), (0.21395817, 0.43120766), (0.20856856, 0.45829722), (0.96875, 0.5), (0.03125, 0.72304755), (0.96875, 0.7230475), (0.1562519, 0.18735912), (0.13941619, 0.22800685), (0.13941619, 0.22800685), (0.14735146, 0.4036173), (0.22800626, 0.36058384), (0.21395817, 0.43120766), (0.15625189, 0.31264088), (0.14735146, 0.4036173), (0.0963797, 0.35264546), (0.06879247, 0.28604126), (0.15625189, 0.31264088), (0.0963797, 0.35264546), (0.13941619, 0.22800685), (0.06879247, 0.28604126), (0.068792485, 0.21395871), (0.1562519, 0.18735912), (0.068792485, 0.21395871), (0.09637973, 0.14735447), (0.187356, 0.15625508), (0.09637973, 0.14735447), (0.14735146, 0.09638275), (0.22800627, 0.13941611), (0.14735146, 0.09638275), (0.21395816, 0.06879242), (0.27199376, 0.13941613), (0.21395816, 0.06879242), (0.28604186, 0.068792395), (0.35264853, 0.09638275), (0.27199376, 0.13941613), (0.28604186, 0.068792395), (0.3437481, 0.18735911), (0.35264853, 0.09638275), (0.40362027, 0.1473545), (0.43120754, 0.2139587), (0.3437481, 0.18735911), (0.40362027, 0.1473545), (0.36058384, 0.27199316), (0.43120754, 0.2139587), (0.43120754, 0.2860413), (0.34374812, 0.31264085), (0.43120754, 0.2860413), (0.40362027, 0.3526455), (0.31264406, 0.34374493), (0.40362027, 0.3526455), (0.35264853, 0.4036172), (0.27199376, 0.36058387), (0.35264853, 0.4036172), (0.28604195, 0.43120763), (0.36058384, 0.27199316), (0.36058384, 0.22800687), (0.36058384, 0.22800687), (0.2675814, 0.33839864), (0.30007762, 0.32493743), (0.2675814, 0.33839864), (0.187356, 0.15625508), (0.1562519, 0.18735912), (0.1562519, 0.18735912), (0.22800626, 0.36058384), (0.27199376, 0.36058387), (0.27199376, 0.36058387), (0.34374812, 0.31264085), (0.36058384, 0.27199316), (0.36058384, 0.27199316), (0.27199376, 0.36058387), (0.31264406, 0.34374493), (0.31264406, 0.34374493), (0.22800627, 0.13941611), (0.187356, 0.15625508), (0.187356, 0.15625508), (0.31264406, 0.34374493), (0.34374812, 0.31264085), (0.34374812, 0.31264085), (0.18735598, 0.34374496), (0.22800626, 0.36058384), (0.22800626, 0.36058384), (0.27199376, 0.13941613), (0.22800627, 0.13941611), (0.22800627, 0.13941611), (0.15625189, 0.31264088), (0.18735598, 0.34374496), (0.18735598, 0.34374496), (0.31264406, 0.15625507), (0.27199376, 0.13941613), (0.27199376, 0.13941613), (0.13941619, 0.27199313), (0.15625189, 0.31264088), (0.15625189, 0.31264088), (0.3437481, 0.18735911), (0.31264406, 0.15625507), (0.31264406, 0.15625507), (0.13941619, 0.22800685), (0.13941619, 0.27199313), (0.13941619, 0.27199313), (0.36058384, 0.22800687), (0.3437481, 0.18735911), (0.3437481, 0.18735911), (0.22800626, 0.36058384), (0.2675814, 0.33839864), (0.27199376, 0.36058387), (0.18735598, 0.34374496), (0.2324186, 0.33839864), (0.22800626, 0.36058384), (0.18735598, 0.34374496), (0.17505942, 0.300075), (0.19992241, 0.32493737), (0.13941619, 0.27199313), (0.17505942, 0.300075), (0.15625189, 0.31264088), (0.13941619, 0.22800685), (0.16160078, 0.2675801), (0.13941619, 0.27199313), (0.13941619, 0.22800685), (0.17505942, 0.19992498), (0.16160077, 0.23241985), (0.187356, 0.15625508), (0.17505942, 0.19992498), (0.1562519, 0.18735912), (0.187356, 0.15625508), (0.23241857, 0.16160136), (0.1999224, 0.17506261), (0.27199376, 0.13941613), (0.23241857, 0.16160136), (0.22800627, 0.13941611), (0.31264406, 0.15625507), (0.26758143, 0.16160138), (0.27199376, 0.13941613), (0.31264406, 0.15625507), (0.32494053, 0.19992493), (0.30007762, 0.17506261), (0.36058384, 0.22800687), (0.32494053, 0.19992493), (0.3437481, 0.18735911), (0.36058384, 0.27199316), (0.33839917, 0.2324199), (0.36058384, 0.22800687), (0.36058384, 0.27199316), (0.32494056, 0.30007505), (0.3383992, 0.26758012), (0.31264406, 0.34374493), (0.32494056, 0.30007505), (0.34374812, 0.31264085), (0.2675814, 0.33839864), (0.31264406, 0.34374493), (0.27199376, 0.36058387), (0.19992241, 0.32493737), (0.2324186, 0.33839864), (0.2324186, 0.33839864), (0.2324186, 0.33839864), (0.2675814, 0.33839864), (0.2324186, 0.33839864), (0.26758143, 0.16160138), (0.23241857, 0.16160136), (0.23241857, 0.16160136), (0.17505942, 0.300075), (0.19992241, 0.32493737), (0.19992241, 0.32493737), (0.30007762, 0.17506261), (0.26758143, 0.16160138), (0.26758143, 0.16160138), (0.16160078, 0.2675801), (0.17505942, 0.300075), (0.17505942, 0.300075), (0.32494053, 0.19992493), (0.30007762, 0.17506261), (0.30007762, 0.17506261), (0.16160077, 0.23241985), (0.16160078, 0.2675801), (0.16160078, 0.2675801), (0.33839917, 0.2324199), (0.32494053, 0.19992493), (0.32494053, 0.19992493), (0.17505942, 0.19992498), (0.16160077, 0.23241985), (0.16160077, 0.23241985), (0.3383992, 0.26758012), (0.33839917, 0.2324199), (0.33839917, 0.2324199), (0.1999224, 0.17506261), (0.17505942, 0.19992498), (0.17505942, 0.19992498), (0.2324186, 0.33839864), (0.2675814, 0.33839864), (0.2675814, 0.33839864), (0.32494056, 0.30007505), (0.3383992, 0.26758012), (0.3383992, 0.26758012), (0.23241857, 0.16160136), (0.1999224, 0.17506261), (0.1999224, 0.17506261), (0.30007762, 0.32493743), (0.32494056, 0.30007505), (0.32494056, 0.30007505), (0.16160078, 0.2675801), (0.17505942, 0.300075), (0.16160078, 0.2675801), (0.30007762, 0.32493743), (0.2324186, 0.33839864), (0.15986942, 0.24999994), (0.15986942, 0.24999994), (0.16160078, 0.2675801), (0.16160078, 0.2675801), (0.16673143, 0.21550642), (0.16160077, 0.23241985), (0.23241857, 0.16160136), (0.16160077, 0.23241985), (0.15986942, 0.24999994), (0.15986942, 0.24999994), (0.3383992, 0.26758012), (0.34013057, 0.25000003), (0.34013057, 0.25000003), (0.32494056, 0.30007505), (0.3383992, 0.26758012), (0.32494056, 0.30007505), (0.2675814, 0.33839864), (0.30007762, 0.32493743), (0.2675814, 0.33839864), (0.23241857, 0.16160136), (0.1999224, 0.17506261), (0.1999224, 0.17506261), (0.33839917, 0.2324199), (0.34013057, 0.25000003), (0.34013057, 0.25000003), (0.19992241, 0.32493737), (0.2324186, 0.33839864), (0.19992241, 0.32493737), (0.15986942, 0.24999994), (0.15986942, 0.24999994), (0.15986942, 0.24999994), (0.17505942, 0.300075), (0.19992241, 0.32493737), (0.17505942, 0.300075), (0.33839917, 0.2324199), (0.34013057, 0.25000003), (0.33839917, 0.2324199), (0.16160078, 0.2675801), (0.17505942, 0.300075), (0.17505942, 0.300075), (0.30007762, 0.17506261), (0.26758143, 0.16160138), (0.26758143, 0.16160138), (0.17505942, 0.300075), (0.19992241, 0.32493737), (0.19992241, 0.32493737), (0.30007762, 0.32493743), (0.32494056, 0.30007505), (0.30007762, 0.32493743), (0.26758143, 0.16160138), (0.23241857, 0.16160136), (0.23241857, 0.16160136), (0.19992241, 0.32493737), (0.2324186, 0.33839864), (0.2324186, 0.33839864), (0.30007762, 0.32493743), (0.32494056, 0.30007505), (0.32494056, 0.30007505), (0.32494056, 0.30007505), (0.3383992, 0.26758012), (0.3383992, 0.26758012), (0.2675814, 0.33839864), (0.30007762, 0.32493743), (0.30007762, 0.32493743), (0.2324186, 0.33839864), (0.2675814, 0.33839864), (0.2675814, 0.33839864), (0.1999224, 0.17506261), (0.17505942, 0.19992498), (0.17505942, 0.19992498), (0.3383992, 0.26758012), (0.3383992, 0.26758012), (0.34013057, 0.25000003), (0.17505942, 0.19992498), (0.16160077, 0.23241985), (0.16160077, 0.23241985), (0.33839917, 0.2324199), (0.32494053, 0.19992493), (0.32494053, 0.19992493), (0.16160077, 0.23241985), (0.16160077, 0.23241985), (0.15986942, 0.24999994), (0.32494053, 0.19992493), (0.30007762, 0.17506261), (0.30007762, 0.17506261), (0.3137323, 0.18626769), (0.30007762, 0.17506261), (0.30007762, 0.17506261), (0.32494053, 0.19992493), (0.3137323, 0.18626769), (0.3137323, 0.18626769), (0.33326858, 0.21550642), (0.32494053, 0.19992493), (0.32494053, 0.19992493), (0.16160077, 0.23241985), (0.15986942, 0.24999994), (0.15986942, 0.24999994), (0.33839917, 0.2324199), (0.33326858, 0.21550642), (0.33326858, 0.21550642), (0.16673143, 0.21550642), (0.16160077, 0.23241985), (0.16160077, 0.23241985), (0.34013057, 0.25000003), (0.33839917, 0.2324199), (0.33839917, 0.2324199), (0.17505942, 0.19992498), (0.16673143, 0.21550642), (0.16673143, 0.21550642), (0.18626776, 0.18626766), (0.17505942, 0.19992498), (0.17505942, 0.19992498), (0.1999224, 0.17506261), (0.18626776, 0.18626766), (0.18626776, 0.18626766), (0.2155104, 0.16672944), (0.1999224, 0.17506261), (0.1999224, 0.17506261), (0.23241857, 0.16160136), (0.2155104, 0.16672944), (0.2155104, 0.16672944), (0.24999999, 0.15986936), (0.23241857, 0.16160136), (0.23241857, 0.16160136), (0.26758143, 0.16160138), (0.24999999, 0.15986936), (0.24999999, 0.15986936), (0.28448957, 0.1667294), (0.26758143, 0.16160138), (0.26758143, 0.16160138), (0.30007762, 0.17506261), (0.28448957, 0.1667294), (0.28448957, 0.1667294), (0.34013057, 0.25000003), (0.34013057, 0.25000003), (0.34013057, 0.25000003), (0.33839917, 0.2324199), (0.2155104, 0.16672944), (0.23241857, 0.16160136), (0.03125, 0.72304755), (0.9692321, 0.8615238), (0.96875, 0.7230475), (0.96875, 0.72304755), (0.90625, 0.7230475), (0.90625, 0.5), (0.84375, 0.7230475), (0.84375, 0.5), (0.90625, 0.5), (0.78125, 0.7230475), (0.78125, 0.5), (0.84375, 0.5), (0.71875, 0.7230475), (0.71875, 0.5), (0.78125, 0.5), (0.65625, 0.7230475), (0.65625, 0.5), (0.71875, 0.5), (0.59375, 0.7230475), (0.59375, 0.5), (0.65625, 0.5), (0.53125, 0.7230475), (0.53125, 0.5), (0.59375, 0.5), (0.46875, 0.7230475), (0.46875, 0.5), (0.53125, 0.5), (0.40625, 0.7230475), (0.40625, 0.5), (0.46875, 0.5), (0.34375, 0.7230475), (0.34375, 0.5), (0.40625, 0.5), (0.28125, 0.7230475), (0.28125, 0.5), (0.34375, 0.5), (0.21875, 0.7230475), (0.21875, 0.5), (0.28125, 0.5), (0.15625, 0.7230475), (0.15625, 0.5), (0.21875, 0.5), (0.09375, 0.7230475), (0.09375, 0.5), (0.15625, 0.5), (0.03125, 0.7230475), (0.03125, 0.5), (0.09375, 0.5), (0.21395817, 0.43120766), (0.22800626, 0.36058384), (0.27199376, 0.36058387), (0.70317835, 0.48538846), (0.79682165, 0.48538846), (0.88333684, 0.4495527), (0.88333684, 0.4495527), (0.9495527, 0.38333684), (0.98538846, 0.29682168), (0.98538846, 0.29682168), (0.98538846, 0.20317832), (0.9495527, 0.11666316), (0.9495527, 0.11666316), (0.88333684, 0.050447285), (0.98538846, 0.29682168), (0.88333684, 0.050447285), (0.79682165, 0.014611527), (0.98538846, 0.29682168), (0.79682165, 0.014611527), (0.70317835, 0.014611527), (0.6166631, 0.050447315), (0.6166631, 0.050447315), (0.55044734, 0.1166631), (0.51461154, 0.20317832), (0.51461154, 0.20317832), (0.51461154, 0.2968217), (0.5504473, 0.3833368), (0.5504473, 0.3833368), (0.6166631, 0.4495527), (0.51461154, 0.20317832), (0.6166631, 0.4495527), (0.70317835, 0.48538846), (0.51461154, 0.20317832), (0.70317835, 0.48538846), (0.88333684, 0.4495527), (0.79682165, 0.014611527), (0.88333684, 0.4495527), (0.98538846, 0.29682168), (0.79682165, 0.014611527), (0.79682165, 0.014611527), (0.6166631, 0.050447315), (0.70317835, 0.48538846), (0.030768126, 0.86152375), (0.029451014, 1), (0.970549, 1), (0.20856856, 0.45829722), (0.21395817, 0.43120766), (0.28604195, 0.43120763), (0.96875, 0.72304755), (0.96826804, 0.8615237), (0.9067316, 0.86152375), (0.9067316, 0.86152375), (0.96826804, 0.8615237), (0.96695256, 1), (0.36799335, 0.42658556), (0.29143134, 0.4582973), (0.28604195, 0.43120763), (0.84375, 0.7230475), (0.90625, 0.72304755), (0.9057681, 0.86152375), (0.8442314, 0.86152375), (0.9057681, 0.86152375), (0.90445054, 1), (0.42658588, 0.3679904), (0.36799335, 0.42658556), (0.35264853, 0.4036172), (0.84375, 0.72304755), (0.84326816, 0.8615238), (0.7817314, 0.86152375), (0.84326816, 0.8615238), (0.8419518, 1), (0.78304726, 1), (0.4582986, 0.29143208), (0.42658588, 0.3679904), (0.40362027, 0.3526455), (0.78125, 0.72304755), (0.7807676, 0.8615238), (0.71923274, 0.8615238), (0.7807676, 0.8615238), (0.779451, 1), (0.720549, 1), (0.4582986, 0.29143208), (0.43120754, 0.2860413), (0.43120754, 0.2139587), (0.71875, 0.72304755), (0.718269, 0.8615237), (0.65673274, 0.8615238), (0.718269, 0.8615237), (0.71695274, 1), (0.658049, 1), (0.45829862, 0.20856792), (0.43120754, 0.2139587), (0.40362027, 0.1473545), (0.65625, 0.72304755), (0.65576905, 0.8615238), (0.59423184, 0.86152375), (0.65576905, 0.8615238), (0.6544519, 1), (0.5955499, 1), (0.42658582, 0.13200957), (0.40362027, 0.1473545), (0.35264853, 0.09638275), (0.53125, 0.7230475), (0.59375, 0.72304755), (0.59326893, 0.8615237), (0.59326893, 0.8615237), (0.59195364, 1), (0.53304726, 1), (0.36799332, 0.07341443), (0.35264853, 0.09638275), (0.28604186, 0.068792395), (0.53125, 0.72304755), (0.5307681, 0.86152375), (0.4692321, 0.8615238), (0.5307681, 0.86152375), (0.5294511, 1), (0.470549, 1), (0.29143146, 0.04170264), (0.28604186, 0.068792395), (0.21395816, 0.06879242), (0.46875, 0.72304755), (0.4682683, 0.8615237), (0.40673146, 0.8615238), (0.4682683, 0.8615237), (0.46695235, 1), (0.4080468, 1), (0.13200666, 0.07341444), (0.20856859, 0.041702636), (0.21395816, 0.06879242), (0.40625, 0.72304755), (0.40576833, 0.86152387), (0.34423167, 0.86152375), (0.34423167, 0.86152375), (0.40576833, 0.86152387), (0.40445077, 1), (0.07341413, 0.13200954), (0.13200666, 0.07341444), (0.14735146, 0.09638275), (0.28125, 0.7230475), (0.34375, 0.72304755), (0.34326723, 0.8615238), (0.28173143, 0.86152375), (0.34326723, 0.8615238), (0.34195098, 1), (0.041701373, 0.20856795), (0.07341413, 0.13200954), (0.09637973, 0.14735447), (0.28125, 0.72304755), (0.28076726, 0.8615238), (0.21923274, 0.8615238), (0.28076726, 0.8615238), (0.27945098, 1), (0.22054896, 1), (0.041701373, 0.20856795), (0.068792485, 0.21395871), (0.06879247, 0.28604126), (0.15625, 0.7230475), (0.21875, 0.72304755), (0.21826898, 0.8615237), (0.15673187, 0.86152375), (0.21826898, 0.8615237), (0.21695273, 1), (0.041701365, 0.29143214), (0.06879247, 0.28604126), (0.0963797, 0.35264546), (0.15625, 0.72304755), (0.15576813, 0.8615237), (0.094231874, 0.86152375), (0.15576813, 0.8615237), (0.1544519, 1), (0.09554901, 1), (0.0734141, 0.36799037), (0.0963797, 0.35264546), (0.14735146, 0.4036173), (0.09375, 0.72304755), (0.09326812, 0.86152375), (0.031731866, 0.8615238), (0.09326812, 0.86152375), (0.09195275, 1), (0.03304766, 1), (0.13200665, 0.4265855), (0.14735146, 0.4036173), (0.21395817, 0.43120766), (0.96875, 0.5), (0.03125, 0.5), (0.03125, 0.72304755), (0.1562519, 0.18735912), (0.1562519, 0.18735912), (0.13941619, 0.22800685), (0.14735146, 0.4036173), (0.18735598, 0.34374496), (0.22800626, 0.36058384), (0.15625189, 0.31264088), (0.18735598, 0.34374496), (0.14735146, 0.4036173), (0.06879247, 0.28604126), (0.13941619, 0.27199313), (0.15625189, 0.31264088), (0.13941619, 0.22800685), (0.13941619, 0.27199313), (0.06879247, 0.28604126), (0.1562519, 0.18735912), (0.13941619, 0.22800685), (0.068792485, 0.21395871), (0.187356, 0.15625508), (0.1562519, 0.18735912), (0.09637973, 0.14735447), (0.22800627, 0.13941611), (0.187356, 0.15625508), (0.14735146, 0.09638275), (0.27199376, 0.13941613), (0.22800627, 0.13941611), (0.21395816, 0.06879242), (0.35264853, 0.09638275), (0.31264406, 0.15625507), (0.27199376, 0.13941613), (0.3437481, 0.18735911), (0.31264406, 0.15625507), (0.35264853, 0.09638275), (0.43120754, 0.2139587), (0.36058384, 0.22800687), (0.3437481, 0.18735911), (0.36058384, 0.27199316), (0.36058384, 0.22800687), (0.43120754, 0.2139587), (0.34374812, 0.31264085), (0.36058384, 0.27199316), (0.43120754, 0.2860413), (0.31264406, 0.34374493), (0.34374812, 0.31264085), (0.40362027, 0.3526455), (0.27199376, 0.36058387), (0.31264406, 0.34374493), (0.35264853, 0.4036172), (0.36058384, 0.27199316), (0.36058384, 0.27199316), (0.36058384, 0.22800687), (0.2675814, 0.33839864), (0.30007762, 0.32493743), (0.30007762, 0.32493743), (0.187356, 0.15625508), (0.187356, 0.15625508), (0.1562519, 0.18735912), (0.22800626, 0.36058384), (0.22800626, 0.36058384), (0.27199376, 0.36058387), (0.34374812, 0.31264085), (0.34374812, 0.31264085), (0.36058384, 0.27199316), (0.27199376, 0.36058387), (0.27199376, 0.36058387), (0.31264406, 0.34374493), (0.22800627, 0.13941611), (0.22800627, 0.13941611), (0.187356, 0.15625508), (0.31264406, 0.34374493), (0.31264406, 0.34374493), (0.34374812, 0.31264085), (0.18735598, 0.34374496), (0.18735598, 0.34374496), (0.22800626, 0.36058384), (0.27199376, 0.13941613), (0.27199376, 0.13941613), (0.22800627, 0.13941611), (0.15625189, 0.31264088), (0.15625189, 0.31264088), (0.18735598, 0.34374496), (0.31264406, 0.15625507), (0.31264406, 0.15625507), (0.27199376, 0.13941613), (0.13941619, 0.27199313), (0.13941619, 0.27199313), (0.15625189, 0.31264088), (0.3437481, 0.18735911), (0.3437481, 0.18735911), (0.31264406, 0.15625507), (0.13941619, 0.22800685), (0.13941619, 0.22800685), (0.13941619, 0.27199313), (0.36058384, 0.22800687), (0.36058384, 0.22800687), (0.3437481, 0.18735911), (0.22800626, 0.36058384), (0.2324186, 0.33839864), (0.2675814, 0.33839864), (0.18735598, 0.34374496), (0.19992241, 0.32493737), (0.2324186, 0.33839864), (0.18735598, 0.34374496), (0.15625189, 0.31264088), (0.17505942, 0.300075), (0.13941619, 0.27199313), (0.16160078, 0.2675801), (0.17505942, 0.300075), (0.13941619, 0.22800685), (0.16160077, 0.23241985), (0.16160078, 0.2675801), (0.13941619, 0.22800685), (0.1562519, 0.18735912), (0.17505942, 0.19992498), (0.187356, 0.15625508), (0.1999224, 0.17506261), (0.17505942, 0.19992498), (0.187356, 0.15625508), (0.22800627, 0.13941611), (0.23241857, 0.16160136), (0.27199376, 0.13941613), (0.26758143, 0.16160138), (0.23241857, 0.16160136), (0.31264406, 0.15625507), (0.30007762, 0.17506261), (0.26758143, 0.16160138), (0.31264406, 0.15625507), (0.3437481, 0.18735911), (0.32494053, 0.19992493), (0.36058384, 0.22800687), (0.33839917, 0.2324199), (0.32494053, 0.19992493), (0.36058384, 0.27199316), (0.3383992, 0.26758012), (0.33839917, 0.2324199), (0.36058384, 0.27199316), (0.34374812, 0.31264085), (0.32494056, 0.30007505), (0.31264406, 0.34374493), (0.30007762, 0.32493743), (0.32494056, 0.30007505), (0.2675814, 0.33839864), (0.30007762, 0.32493743), (0.31264406, 0.34374493), (0.19992241, 0.32493737), (0.19992241, 0.32493737), (0.2324186, 0.33839864), (0.2324186, 0.33839864), (0.2675814, 0.33839864), (0.2675814, 0.33839864), (0.26758143, 0.16160138), (0.26758143, 0.16160138), (0.23241857, 0.16160136), (0.17505942, 0.300075), (0.17505942, 0.300075), (0.19992241, 0.32493737), (0.30007762, 0.17506261), (0.30007762, 0.17506261), (0.26758143, 0.16160138), (0.16160078, 0.2675801), (0.16160078, 0.2675801), (0.17505942, 0.300075), (0.32494053, 0.19992493), (0.32494053, 0.19992493), (0.30007762, 0.17506261), (0.16160077, 0.23241985), (0.16160077, 0.23241985), (0.16160078, 0.2675801), (0.33839917, 0.2324199), (0.33839917, 0.2324199), (0.32494053, 0.19992493), (0.17505942, 0.19992498), (0.17505942, 0.19992498), (0.16160077, 0.23241985), (0.3383992, 0.26758012), (0.3383992, 0.26758012), (0.33839917, 0.2324199), (0.1999224, 0.17506261), (0.1999224, 0.17506261), (0.17505942, 0.19992498), (0.2324186, 0.33839864), (0.2324186, 0.33839864), (0.2675814, 0.33839864), (0.32494056, 0.30007505), (0.32494056, 0.30007505), (0.3383992, 0.26758012), (0.23241857, 0.16160136), (0.23241857, 0.16160136), (0.1999224, 0.17506261), (0.30007762, 0.32493743), (0.30007762, 0.32493743), (0.32494056, 0.30007505), (0.16160078, 0.2675801), (0.17505942, 0.300075), (0.17505942, 0.300075), (0.30007762, 0.32493743), (0.2675814, 0.33839864), (0.2324186, 0.33839864), (0.2324186, 0.33839864), (0.19992241, 0.32493737), (0.15986942, 0.24999994), (0.19992241, 0.32493737), (0.17505942, 0.300075), (0.15986942, 0.24999994), (0.17505942, 0.300075), (0.16160078, 0.2675801), (0.15986942, 0.24999994), (0.15986942, 0.24999994), (0.33839917, 0.2324199), (0.34013057, 0.25000003), (0.34013057, 0.25000003), (0.3383992, 0.26758012), (0.15986942, 0.24999994), (0.3383992, 0.26758012), (0.32494056, 0.30007505), (0.15986942, 0.24999994), (0.32494056, 0.30007505), (0.30007762, 0.32493743), (0.15986942, 0.24999994), (0.15986942, 0.24999994), (0.15986942, 0.24999994), (0.16160078, 0.2675801), (0.32494053, 0.19992493), (0.33839917, 0.2324199), (0.33839917, 0.2324199), (0.33326858, 0.21550642), (0.32494053, 0.19992493), (0.26758143, 0.16160138), (0.32494053, 0.19992493), (0.3137323, 0.18626769), (0.26758143, 0.16160138), (0.33326858, 0.21550642), (0.26758143, 0.16160138), (0.33839917, 0.2324199), (0.32494053, 0.19992493), (0.33839917, 0.2324199), (0.30007762, 0.17506261), (0.30007762, 0.17506261), (0.33839917, 0.2324199), (0.26758143, 0.16160138), (0.3137323, 0.18626769), (0.30007762, 0.17506261), (0.26758143, 0.16160138), (0.30007762, 0.17506261), (0.28448957, 0.1667294), (0.26758143, 0.16160138), (0.28448957, 0.1667294), (0.26758143, 0.16160138), (0.26758143, 0.16160138), (0.26758143, 0.16160138), (0.24999999, 0.15986936), (0.23241857, 0.16160136), (0.23241857, 0.16160136), (0.26758143, 0.16160138), (0.26758143, 0.16160138), (0.24999999, 0.15986936), (0.23241857, 0.16160136), (0.23241857, 0.16160136), (0.23241857, 0.16160136), (0.2155104, 0.16672944), (0.23241857, 0.16160136), (0.23241857, 0.16160136), (0.2155104, 0.16672944), (0.1999224, 0.17506261), (0.1999224, 0.17506261), (0.23241857, 0.16160136), (0.16160077, 0.23241985), (0.1999224, 0.17506261), (0.18626776, 0.18626766), (0.23241857, 0.16160136), (0.23241857, 0.16160136), (0.17505942, 0.19992498), (0.16673143, 0.21550642), (0.16160077, 0.23241985), (0.16160077, 0.23241985), (0.17505942, 0.19992498), (0.17505942, 0.19992498), (0.1999224, 0.17506261), (0.16160077, 0.23241985), (0.18626776, 0.18626766), (0.17505942, 0.19992498), (0.23241857, 0.16160136), (0.16160077, 0.23241985), (0.16160077, 0.23241985), (0.15986942, 0.24999994), (0.3383992, 0.26758012), (0.3383992, 0.26758012), (0.34013057, 0.25000003), (0.32494056, 0.30007505), (0.3383992, 0.26758012), (0.3383992, 0.26758012), (0.2675814, 0.33839864), (0.30007762, 0.32493743), (0.30007762, 0.32493743), (0.23241857, 0.16160136), (0.23241857, 0.16160136), (0.1999224, 0.17506261), (0.33839917, 0.2324199), (0.33839917, 0.2324199), (0.34013057, 0.25000003), (0.19992241, 0.32493737), (0.2324186, 0.33839864), (0.2324186, 0.33839864), (0.15986942, 0.24999994), (0.15986942, 0.24999994), (0.15986942, 0.24999994), (0.17505942, 0.300075), (0.19992241, 0.32493737), (0.19992241, 0.32493737), (0.33839917, 0.2324199), (0.34013057, 0.25000003), (0.34013057, 0.25000003), (0.16160078, 0.2675801), (0.16160078, 0.2675801), (0.17505942, 0.300075), (0.30007762, 0.17506261), (0.30007762, 0.17506261), (0.26758143, 0.16160138), (0.17505942, 0.300075), (0.17505942, 0.300075), (0.19992241, 0.32493737), (0.30007762, 0.32493743), (0.32494056, 0.30007505), (0.32494056, 0.30007505), (0.26758143, 0.16160138), (0.26758143, 0.16160138), (0.23241857, 0.16160136), (0.19992241, 0.32493737), (0.19992241, 0.32493737), (0.2324186, 0.33839864), (0.30007762, 0.32493743), (0.30007762, 0.32493743), (0.32494056, 0.30007505), (0.32494056, 0.30007505), (0.32494056, 0.30007505), (0.3383992, 0.26758012), (0.2675814, 0.33839864), (0.2675814, 0.33839864), (0.30007762, 0.32493743), (0.2324186, 0.33839864), (0.2324186, 0.33839864), (0.2675814, 0.33839864), (0.1999224, 0.17506261), (0.1999224, 0.17506261), (0.17505942, 0.19992498), (0.33839917, 0.2324199), (0.33839917, 0.2324199), (0.34013057, 0.25000003), (0.33839917, 0.2324199), (0.3383992, 0.26758012), (0.34013057, 0.25000003), (0.17505942, 0.19992498), (0.17505942, 0.19992498), (0.16160077, 0.23241985), (0.33839917, 0.2324199), (0.33839917, 0.2324199), (0.32494053, 0.19992493), (0.16160078, 0.2675801), (0.16160078, 0.2675801), (0.15986942, 0.24999994), (0.16160078, 0.2675801), (0.16160077, 0.23241985), (0.15986942, 0.24999994), (0.32494053, 0.19992493), (0.32494053, 0.19992493), (0.30007762, 0.17506261), (0.3137323, 0.18626769), (0.3137323, 0.18626769), (0.30007762, 0.17506261), (0.32494053, 0.19992493), (0.32494053, 0.19992493), (0.3137323, 0.18626769), (0.33326858, 0.21550642), (0.33326858, 0.21550642), (0.32494053, 0.19992493), (0.16160077, 0.23241985), (0.16160077, 0.23241985), (0.15986942, 0.24999994), (0.33839917, 0.2324199), (0.33839917, 0.2324199), (0.33326858, 0.21550642), (0.16673143, 0.21550642), (0.16673143, 0.21550642), (0.16160077, 0.23241985), (0.34013057, 0.25000003), (0.34013057, 0.25000003), (0.33839917, 0.2324199), (0.17505942, 0.19992498), (0.17505942, 0.19992498), (0.16673143, 0.21550642), (0.18626776, 0.18626766), (0.18626776, 0.18626766), (0.17505942, 0.19992498), (0.1999224, 0.17506261), (0.1999224, 0.17506261), (0.18626776, 0.18626766), (0.2155104, 0.16672944), (0.2155104, 0.16672944), (0.1999224, 0.17506261), (0.23241857, 0.16160136), (0.23241857, 0.16160136), (0.2155104, 0.16672944), (0.24999999, 0.15986936), (0.24999999, 0.15986936), (0.23241857, 0.16160136), (0.26758143, 0.16160138), (0.26758143, 0.16160138), (0.24999999, 0.15986936), (0.28448957, 0.1667294), (0.28448957, 0.1667294), (0.26758143, 0.16160138), (0.30007762, 0.17506261), (0.30007762, 0.17506261), (0.28448957, 0.1667294), (0.34013057, 0.25000003), (0.34013057, 0.25000003), (0.34013057, 0.25000003), (0.33839917, 0.2324199), (0.15986942, 0.24999994), (0.1999224, 0.17506261), (0.15986942, 0.24999994), (0.15986942, 0.24999994), (0.16160077, 0.23241985), (0.16160077, 0.23241985), (0.16673143, 0.21550642), (0.15986942, 0.24999994), (0.16673143, 0.21550642), (0.17505942, 0.19992498), (0.15986942, 0.24999994), (0.15986942, 0.24999994), (0.17505942, 0.19992498), (0.18626776, 0.18626766), (0.33326858, 0.21550642), (0.33839917, 0.2324199), (0.33839917, 0.2324199), (0.30007762, 0.17506261), (0.3137323, 0.18626769), (0.33839917, 0.2324199), (0.3137323, 0.18626769), (0.32494053, 0.19992493), (0.33839917, 0.2324199), (0.32494053, 0.19992493), (0.33326858, 0.21550642), (0.33839917, 0.2324199), (0.18626776, 0.18626766), (0.1999224, 0.17506261), (0.15986942, 0.24999994), (0.1999224, 0.17506261), (0.2155104, 0.16672944), (0.33839917, 0.2324199), (0.24999999, 0.15986936), (0.26758143, 0.16160138), (0.33839917, 0.2324199), (0.26758143, 0.16160138), (0.28448957, 0.1667294), (0.33839917, 0.2324199), (0.28448957, 0.1667294), (0.30007762, 0.17506261), (0.33839917, 0.2324199), (0.23241857, 0.16160136), (0.24999999, 0.15986936), (0.33839917, 0.2324199), (0.03125, 0.72304755), (0.030768126, 0.86152375), (0.9692321, 0.8615238), (0.375, 0), (0.625, 0), (0.625, 0.25), (0.375, 0.25), (0.375, 0.25), (0.625, 0.25), (0.625, 0.5), (0.375, 0.5), (0.375, 0.5), (0.625, 0.5), (0.625, 0.75), (0.375, 0.75), (0.375, 0.75), (0.625, 0.75), (0.625, 1), (0.375, 1), (0.125, 0.5), (0.375, 0.5), (0.375, 0.75), (0.125, 0.75), (0.625, 0.5), (0.875, 0.5), (0.875, 0.75), (0.625, 0.75)] (
                    interpolation = "faceVarying"
                )
                uniform token subdivisionScheme = "none"
            }
        }
    }
}

