mtllib Cabinet_67e9cbea.mtl
v -0.35364 -0.37363 0.027
v -0.265 -0.375 0.02541
v -0.355 -0.375 0.02541
v -0.265 -0.37368 0.027
v -0.08499 -0.375 0.02551
v -0.08499 -0.37368 0.02711
v 0.00501 -0.375 0.02551
v 0.00363 -0.37363 0.02711
v -0.08499 -0.375 0.00011
v 0.00501 -0.375 0.02551
v 0.00501 -0.375 0.00011
v -0.08499 -0.375 0.02551
v -0.265 -0.375 0.02541
v -0.265 -0.375 1E-05
v -0.355 -0.375 1E-05
v -0.355 -0.375 0.02541
v 0.00363 -0.37363 0.02711
v 0.00501 -0.285 0.02551
v 0.00501 -0.375 0.02551
v 0.00369 -0.285 0.02711
v 0.00501 0.17501 0.02551
v 0.00369 0.17501 0.02711
v 0.00501 0.26501 0.02551
v 0.00363 0.26368 0.02711
v 0.00501 0.17501 0.00011
v 0.00501 0.26501 0.02551
v 0.00501 0.26501 0.00011
v 0.00501 0.17501 0.02551
v 0.00501 -0.285 0.02551
v 0.00501 -0.285 0.00011
v 0.00501 -0.375 0.00011
v 0.00501 -0.375 0.02551
v -0.08499 0.26501 0.02551
v 0.00501 0.26501 0.02551
v 0.00363 0.26368 0.02711
v -0.08499 0.26365 0.02711
v -0.265 0.26501 0.0254
v -0.265 0.26365 0.027
v -0.355 0.26501 0.0254
v -0.35364 0.26368 0.027
v -0.265 0.26501 1E-05
v -0.355 0.26501 0.0254
v -0.355 0.26501 1E-05
v -0.265 0.26501 0.0254
v -0.08499 0.26501 0.02551
v -0.08499 0.26501 0.00011
v 0.00501 0.26501 0.00011
v 0.00501 0.26501 0.02551
v -0.355 0.17501 0.0254
v -0.355 0.26501 0.0254
v -0.35364 0.26368 0.027
v -0.35366 0.17501 0.027
v -0.355 -0.285 0.02541
v -0.35366 -0.285 0.027
v -0.355 -0.375 0.02541
v -0.35364 -0.37363 0.027
v -0.355 0.26501 1E-05
v -0.355 0.26501 0.0254
v -0.355 0.17501 0.0254
v -0.355 0.17501 1E-05
v -0.355 -0.285 1E-05
v -0.355 -0.285 0.02541
v -0.355 -0.375 0.02541
v -0.355 -0.375 1E-05
v -0.29919 0.2092 0.02528
v -0.30084 0.175 0.027
v -0.30082 0.21083 0.027
v -0.29918 0.17501 0.02527
v -0.30084 -0.28499 0.027
v -0.29918 -0.285 0.02527
v -0.30082 -0.32081 0.027
v -0.29919 -0.31919 0.02528
v -0.2977 0.17501 0.01301
v -0.29919 0.2092 0.02528
v -0.2977 0.20771 0.01301
v -0.29918 0.17501 0.02527
v -0.29918 -0.285 0.02527
v -0.2977 -0.285 0.01301
v -0.2977 -0.3177 0.01301
v -0.29919 -0.31919 0.02528
v -0.265 0.20919 0.02527
v -0.29919 0.2092 0.02528
v -0.30082 0.21083 0.027
v -0.26499 0.21086 0.027
v -0.08499 0.20919 0.02537
v -0.085 0.21085 0.02711
v -0.0508 0.2092 0.02538
v -0.04911 0.21083 0.02711
v -0.2977 0.20771 0.01301
v -0.29919 0.2092 0.02528
v -0.265 0.20919 0.02527
v -0.265 0.20771 0.01301
v -0.08499 0.20771 0.01311
v -0.08499 0.20919 0.02537
v -0.0508 0.2092 0.02538
v -0.05229 0.20771 0.01311
v -0.05081 0.17501 0.02537
v -0.0508 0.2092 0.02538
v -0.04911 0.21083 0.02711
v -0.0492 0.175 0.02711
v -0.05081 -0.285 0.02537
v -0.0492 -0.28499 0.02711
v -0.0508 -0.31919 0.02538
v -0.04911 -0.32081 0.02711
v -0.05229 0.20771 0.01311
v -0.0508 0.2092 0.02538
v -0.05081 0.17501 0.02537
v -0.05229 0.17501 0.01311
v -0.05229 -0.285 0.01311
v -0.05081 -0.285 0.02537
v -0.0508 -0.31919 0.02538
v -0.05229 -0.3177 0.01311
v -0.08499 -0.31918 0.02537
v -0.0508 -0.31919 0.02538
v -0.04911 -0.32081 0.02711
v -0.085 -0.32085 0.02711
v -0.265 -0.31918 0.02527
v -0.26499 -0.32085 0.027
v -0.29919 -0.31919 0.02528
v -0.30082 -0.32081 0.027
v -0.05229 -0.3177 0.01311
v -0.0508 -0.31919 0.02538
v -0.08499 -0.31918 0.02537
v -0.08499 -0.3177 0.01311
v -0.265 -0.3177 0.01301
v -0.265 -0.31918 0.02527
v -0.29919 -0.31919 0.02528
v -0.2977 -0.3177 0.01301
v -0.05229 0.17501 0.01311
v -0.08499 0.20771 0.01311
v -0.05229 0.20771 0.01311
v -0.08499 0.17501 0.01311
v -0.265 0.20771 0.01301
v -0.08499 -0.285 0.01311
v -0.05229 -0.285 0.01311
v -0.05229 -0.3177 0.01311
v -0.08499 -0.3177 0.01311
v -0.265 0.17501 0.01301
v -0.2977 0.20771 0.01301
v -0.2977 0.17501 0.01301
v -0.2977 -0.285 0.01301
v -0.265 -0.285 0.01301
v -0.265 -0.3177 0.01301
v -0.2977 -0.3177 0.01301
v -0.08499 0.26501 0.00011
v 0.00501 0.17501 0.00011
v 0.00501 0.26501 0.00011
v -0.08499 0.17501 0.00011
v 0.00501 -0.285 0.00011
v -0.265 0.17501 1E-05
v -0.265 0.26501 1E-05
v -0.355 0.26501 1E-05
v -0.355 0.17501 1E-05
v -0.08499 -0.285 0.00011
v 0.00501 -0.375 0.00011
v -0.08499 -0.375 0.00011
v -0.265 -0.375 1E-05
v -0.265 -0.285 1E-05
v -0.355 -0.285 1E-05
v -0.355 -0.375 1E-05
v -0.30082 0.21083 0.027
v -0.30084 0.175 0.027
v -0.35366 0.17501 0.027
v -0.35364 0.26368 0.027
v -0.35366 -0.285 0.027
v -0.26499 0.21086 0.027
v -0.30084 -0.28499 0.027
v -0.265 0.26365 0.027
v -0.35364 -0.37363 0.027
v -0.085 0.21085 0.02711
v -0.30082 -0.32081 0.027
v -0.08499 0.26365 0.02711
v -0.265 -0.37368 0.027
v -0.04911 0.21083 0.02711
v -0.26499 -0.32085 0.027
v 0.00363 0.26368 0.02711
v -0.08499 -0.37368 0.02711
v -0.0492 0.175 0.02711
v -0.085 -0.32085 0.02711
v 0.00369 0.17501 0.02711
v 0.00363 -0.37363 0.02711
v -0.0492 -0.28499 0.02711
v -0.04911 -0.32081 0.02711
v 0.00369 -0.285 0.02711
vt 0.7028081 3.213179
vt 0.7675769 3.210951
vt 0.7018207 3.210951
vt 0.7675771 3.213179
vt 0.8990898 3.21109
vt 0.8990898 3.213319
vt 0.964846 3.21109
vt 0.9638433 3.213319
vt 0.8990898 3.17571
vt 0.964846 3.21109
vt 0.964846 3.17571
vt 0.8990898 3.21109
vt 0.7675769 3.210951
vt 0.7675769 3.17557
vt 0.7018207 3.17557
vt 0.7018207 3.210951
vt 2.064919 1.29008
vt 2.067102 1.356198
vt 2.067102 1.289059
vt 2.064919 1.356199
vt 2.067102 1.699357
vt 2.064919 1.699357
vt 2.067102 1.766497
vt 2.064919 1.765505
vt 2.101747 1.699357
vt 2.067102 1.766497
vt 2.101747 1.766497
vt 2.067102 1.699357
vt 2.067102 1.356198
vt 2.101747 1.356198
vt 2.101747 1.289059
vt 2.067102 1.289059
vt 2.434229 3.211094
vt 2.368457 3.211094
vt 2.36946 3.213323
vt 2.434229 3.213323
vt 2.565772 3.210955
vt 2.565772 3.213184
vt 2.631543 3.210955
vt 2.630555 3.213184
vt 2.565772 3.175566
vt 2.631543 3.210955
vt 2.631543 3.175566
vt 2.565772 3.210955
vt 2.434229 3.211094
vt 2.434229 3.175705
vt 2.368457 3.175705
vt 2.368457 3.211094
vt 1.82179 1.699389
vt 1.82179 1.766541
vt 1.823972 1.765549
vt 1.823972 1.699389
vt 1.82179 1.356167
vt 1.823972 1.356167
vt 1.82179 1.289015
vt 1.823972 1.290036
vt 1.787139 1.766541
vt 1.82179 1.766541
vt 1.82179 1.699389
vt 1.787139 1.699389
vt 1.787139 1.356167
vt 1.82179 1.356167
vt 1.82179 1.289015
vt 1.787139 1.289015
vt 4.017509 1.393078
vt 4.014152 1.37456
vt 4.014152 1.393963
vt 4.017528 1.374561
vt 4.014152 1.125436
vt 4.017528 1.125435
vt 4.014152 1.106037
vt 4.017509 1.106918
vt 4.041403 1.374561
vt 4.017509 1.393078
vt 4.041403 1.392271
vt 4.017528 1.374561
vt 4.017528 1.125435
vt 4.041403 1.125435
vt 4.041403 1.107726
vt 4.017509 1.106918
vt 0.5087746 3.482806
vt 0.4910082 3.482826
vt 0.4901581 3.486325
vt 0.5087752 3.486325
vt 0.6023084 3.483009
vt 0.6023082 3.486528
vt 0.6200749 3.483028
vt 0.620953 3.486528
vt 0.4917828 3.457917
vt 0.4910082 3.482826
vt 0.5087746 3.482806
vt 0.5087746 3.457917
vt 0.6023084 3.45812
vt 0.6023084 3.483009
vt 0.6200749 3.483028
vt 0.6193002 3.45812
vt 4.315794 1.374418
vt 4.315814 1.392914
vt 4.319167 1.393798
vt 4.319167 1.374418
vt 4.315794 1.125578
vt 4.319167 1.125578
vt 4.315814 1.107082
vt 4.319167 1.106202
vt 4.291945 1.392107
vt 4.315814 1.392914
vt 4.315794 1.374418
vt 4.291945 1.374418
vt 4.291945 1.125578
vt 4.315794 1.125578
vt 4.315814 1.107082
vt 4.291945 1.107889
vt 1.619908 3.48301
vt 1.602139 3.48303
vt 1.601261 3.48653
vt 1.619908 3.48653
vt 1.713453 3.482807
vt 1.713452 3.486327
vt 1.731222 3.482826
vt 1.732072 3.486327
vt 1.602914 3.458118
vt 1.602139 3.48303
vt 1.619908 3.48301
vt 1.619908 3.458118
vt 1.713453 3.457915
vt 1.713453 3.482807
vt 1.731222 3.482826
vt 1.730447 3.457915
vt 4.562543 3.988965
vt 4.531069 4.022941
vt 4.562543 4.022941
vt 4.531069 3.988965
vt 4.357821 4.022941
vt 4.531069 3.511035
vt 4.562543 3.511035
vt 4.562543 3.47706
vt 4.531069 3.47706
vt 4.357821 3.988965
vt 4.326346 4.022941
vt 4.326346 3.988965
vt 4.326346 3.511035
vt 4.357821 3.511035
vt 4.357821 3.477061
vt 4.326346 3.477061
vt 0.7453595 1.855149
vt 0.6573856 1.763076
vt 0.6573856 1.855149
vt 0.7453595 1.763076
vt 0.6573856 1.29248
vt 0.9213076 1.763076
vt 0.9213076 1.855149
vt 1.009281 1.855149
vt 1.009281 1.763076
vt 0.7453595 1.29248
vt 0.6573856 1.200407
vt 0.7453595 1.200407
vt 0.9213074 1.200407
vt 0.9213074 1.29248
vt 1.009281 1.29248
vt 1.009281 1.200407
vt 2.932352 1.799295
vt 2.93233 1.762703
vt 2.880618 1.762703
vt 2.880636 1.85327
vt 2.880618 1.292867
vt 2.96743 1.799319
vt 2.93233 1.292867
vt 2.967429 1.853244
vt 2.880636 1.20234
vt 3.143661 1.799319
vt 2.932352 1.256282
vt 3.143661 1.853244
vt 2.967429 1.202286
vt 3.178791 1.799295
vt 2.96743 1.256243
vt 3.230434 1.85327
vt 3.143661 1.202286
vt 3.178706 1.762702
vt 3.143661 1.256243
vt 3.230493 1.762703
vt 3.230434 1.20234
vt 3.178706 1.292867
vt 3.178791 1.256282
vt 3.230493 1.292867
vn -0.000458231 -0.7723473 0.6352003
vn -0.0003875046 -0.7723427 0.635206
vn 0 -0.7599431 0.6499896
vn -0.0003880122 -0.7723427 0.6352059
vn -0.000353183 -0.7723404 0.6352087
vn -0.0003550111 -0.7724235 0.6351077
vn 0 -0.7724238 0.6351076
vn 0.0004512785 -0.7598409 0.6501089
vn 0 -1 0
vn 0 -1 0
vn 0 -1 0
vn 0 -1 0
vn -4.945543E-07 -1 0
vn -4.944375E-07 -1 0
vn 0 -1 0
vn 0 -1 0
vn 0.7734461 -0.0005325846 0.633862
vn 0.7734398 -8.495382E-05 0.6338697
vn 0.7590218 0 0.6510652
vn 0.7734398 -8.625507E-05 0.6338697
vn 0.7734386 0 0.6338712
vn 0.7734389 0 0.633871
vn 0.7734641 0 0.6338401
vn 0.7588688 0.0005222773 0.6512433
vn 1 0 0
vn 1 0 0
vn 1 0 0
vn 1 0 0
vn 1 0 0
vn 1 0 0
vn 1 0 0
vn 1 0 0
vn 0 0.7692032 0.6390042
vn 0 0.7692033 0.6390042
vn 0 0.7692034 0.6390041
vn -0.0003117207 0.7632206 0.6461379
vn -0.000358389 0.7631919 0.6461717
vn -0.0003579236 0.7632881 0.6460581
vn 0 0.7631906 0.6461734
vn 0.0002172431 0.7692333 0.638968
vn 0 1 0
vn 0 1 0
vn 0 1 0
vn 0 1 0
vn 8.476035E-07 1 0
vn 8.478024E-07 1 0
vn 0 1 0
vn 0 1 0
vn -0.7639741 0 0.6452469
vn -0.7639741 0 0.6452469
vn -0.7639741 0 0.6452469
vn -0.7684079 0.0001647712 0.6399603
vn -0.7684423 5.664555E-07 0.6399191
vn -0.7684069 1.908437E-07 0.6399615
vn -0.7684069 1.908437E-07 0.6399615
vn -0.7638301 -0.000163846 0.6454173
vn -1 0 0
vn -1 0 0
vn -1 0 0
vn -1 0 0
vn -1 4.57089E-07 0
vn -1 4.570697E-07 0
vn -1 2.920274E-07 0
vn -1 2.92028E-07 0
vn 0.7252969 -0.0004361217 0.6884361
vn 0.7225634 -0.0001746606 0.6913047
vn 0.7253887 -0.0004449283 0.6883394
vn 0.7224274 -0.0001616764 0.6914467
vn 0.7224734 0.0004437362 0.6913986
vn 0.7254332 0.0001647116 0.6882925
vn 0.7254332 0.0001647115 0.6882925
vn 0.7254332 0.0001647116 0.6882926
vn 0.9927096 6.036921E-06 0.1205301
vn 0.9927081 1.896611E-06 0.1205425
vn 0.9927074 0 0.1205482
vn 0.9927102 7.675409E-06 0.1205251
vn 0.9927101 0 0.1205268
vn 0.992708 4.027034E-07 0.1205435
vn 0.9927081 0 0.1205432
vn 0.9927076 -9.023335E-07 0.1205476
vn 0.0001620508 -0.7256154 0.6881005
vn 0.0001620509 -0.7256154 0.6881005
vn 0.0001620508 -0.7256154 0.6881005
vn 0.0004878495 -0.7223381 0.6915399
vn -0.0003836842 -0.7223815 0.6914946
vn -0.0001822576 -0.7224383 0.6914354
vn -0.0001822576 -0.7224383 0.6914354
vn -0.0004874459 -0.725468 0.6882557
vn 1.80466E-06 -0.9927093 0.1205333
vn 1.80466E-06 -0.9927093 0.1205333
vn 1.80466E-06 -0.9927093 0.1205333
vn 0 -0.9927073 0.1205498
vn -6.740763E-05 -0.9927055 0.1205639
vn -6.816057E-05 -0.9927092 0.1205344
vn -2.231258E-07 -0.9927087 0.1205376
vn 0 -0.9927086 0.1205385
vn -0.7142357 -0.0001830114 0.6999052
vn -0.7142357 -0.0001830114 0.6999053
vn -0.7142357 -0.0001830114 0.6999052
vn -0.7339298 0.001759575 0.679223
vn -0.7340016 0 0.6791478
vn -0.7340282 0.0001763386 0.6791189
vn -0.7340283 0.0001763386 0.6791189
vn -0.7150952 -0.001714309 0.699025
vn -0.9927074 -7.218529E-06 0.120549
vn -0.9927074 -7.218529E-06 0.120549
vn -0.9927074 -7.218528E-06 0.120549
vn -0.9927053 0 0.1205659
vn -0.9927054 0 0.1205646
vn -0.9927052 0 0.1205667
vn -0.9927067 1.785013E-06 0.1205544
vn -0.9927071 0 0.120551
vn -0.0001780112 0.7271153 0.6865155
vn -0.0001780112 0.7271153 0.6865155
vn -0.0001780112 0.7271153 0.6865155
vn -0.0007644611 0.7209718 0.692964
vn -0.0003838067 0.7209781 0.6929578
vn 0.0001588894 0.7208941 0.6930452
vn 0.0001588894 0.7208941 0.6930451
vn 0.0007718024 0.7268578 0.6867875
vn 0 0.9927086 0.1205392
vn 0 0.9927086 0.1205392
vn 0 0.9927086 0.1205392
vn 9.441815E-07 0.9927087 0.120538
vn -6.569434E-05 0.9927088 0.1205373
vn -6.608356E-05 0.9927081 0.1205424
vn -6.693925E-07 0.9927074 0.1205481
vn 0 0.9927073 0.1205494
vn 0 0 1
vn 0 0 1
vn 0 0 1
vn 0 0 1
vn 0 0 1
vn 0 0 1
vn 0 0 1
vn 0 0 1
vn 2.251095E-06 0 1
vn 0 0 1
vn 0 0 1
vn 0 0 1
vn 0 0 1
vn -0.0005565617 0 0.9999999
vn -0.0005568419 0 0.9999999
vn 0 0 1
vn 0 0 -1
vn 0 0 -1
vn 0 0 -1
vn 0 0 -1
vn 0 0 -1
vn 0 0 -1
vn 0 0 -1
vn 0 0 -1
vn 0 0 -1
vn 0 0 -1
vn 0 0 -1
vn 0 0 -1
vn 0.0005560968 0 -0.9999999
vn 0.0005560034 0 -0.9999999
vn 0 0 -1
vn 0 0 -1
vn -1.655916E-06 0 1
vn -3.186053E-06 0 1
vn -3.768824E-06 0 1
vn -1.506761E-06 0 1
vn 2.879527E-06 0 1
vn -0.0003996304 0 1
vn 3.484611E-06 0 1
vn -0.0003728722 0 1
vn 0 0 1
vn -0.0004650631 0 0.9999999
vn 4.400295E-07 0 1
vn -0.0004037207 0 1
vn -0.0004022964 0 1
vn -3.897121E-07 0 1
vn -0.000463308 0 0.9999999
vn 0 0 1
vn -0.0003735266 0 1
vn 0 0 1
vn -0.0004006432 0 1
vn 0 0 1
vn 1.305148E-06 0 1
vn 0 0 1
vn 6.610107E-07 0 1
vn 2.708295E-07 0 1
usemtl WhiteWoodClean
f 3/3/3 2/2/2 1/1/1
f 2/2/2 4/4/4 1/1/1
f 4/4/4 2/2/2 5/5/5
f 6/6/6 4/4/4 5/5/5
f 5/5/5 7/7/7 6/6/6
f 7/7/7 8/8/8 6/6/6
f 11/11/11 10/10/10 9/9/9
f 10/10/10 12/12/12 9/9/9
f 9/9/9 12/12/12 13/13/13
f 14/14/14 9/9/9 13/13/13
f 14/14/14 13/13/13 15/15/15
f 13/13/13 16/16/16 15/15/15
f 19/19/19 18/18/18 17/17/17
f 18/18/18 20/20/20 17/17/17
f 20/20/20 18/18/18 21/21/21
f 22/22/22 20/20/20 21/21/21
f 21/21/21 23/23/23 22/22/22
f 23/23/23 24/24/24 22/22/22
f 27/27/27 26/26/26 25/25/25
f 26/26/26 28/28/28 25/25/25
f 25/25/25 28/28/28 29/29/29
f 30/30/30 25/25/25 29/29/29
f 30/30/30 29/29/29 31/31/31
f 29/29/29 32/32/32 31/31/31
f 35/35/35 34/34/34 33/33/33
f 36/36/36 35/35/35 33/33/33
f 36/36/36 33/33/33 37/37/37
f 38/38/38 36/36/36 37/37/37
f 38/38/38 37/37/37 39/39/39
f 40/40/40 38/38/38 39/39/39
f 43/43/43 42/42/42 41/41/41
f 42/42/42 44/44/44 41/41/41
f 41/41/41 44/44/44 45/45/45
f 46/46/46 41/41/41 45/45/45
f 46/46/46 45/45/45 47/47/47
f 45/45/45 48/48/48 47/47/47
f 51/51/51 50/50/50 49/49/49
f 52/52/52 51/51/51 49/49/49
f 52/52/52 49/49/49 53/53/53
f 54/54/54 52/52/52 53/53/53
f 53/53/53 55/55/55 54/54/54
f 55/55/55 56/56/56 54/54/54
f 59/59/59 58/58/58 57/57/57
f 60/60/60 59/59/59 57/57/57
f 60/60/60 61/61/61 59/59/59
f 61/61/61 62/62/62 59/59/59
f 63/63/63 62/62/62 61/61/61
f 64/64/64 63/63/63 61/61/61
f 67/67/67 66/66/66 65/65/65
f 66/66/66 68/68/68 65/65/65
f 68/68/68 66/66/66 69/69/69
f 70/70/70 68/68/68 69/69/69
f 69/69/69 71/71/71 70/70/70
f 71/71/71 72/72/72 70/70/70
f 75/75/75 74/74/74 73/73/73
f 74/74/74 76/76/76 73/73/73
f 73/73/73 76/76/76 77/77/77
f 78/78/78 73/73/73 77/77/77
f 78/78/78 77/77/77 79/79/79
f 77/77/77 80/80/80 79/79/79
f 83/83/83 82/82/82 81/81/81
f 84/84/84 83/83/83 81/81/81
f 84/84/84 81/81/81 85/85/85
f 86/86/86 84/84/84 85/85/85
f 86/86/86 85/85/85 87/87/87
f 88/88/88 86/86/86 87/87/87
f 91/91/91 90/90/90 89/89/89
f 92/92/92 91/91/91 89/89/89
f 92/92/92 93/93/93 91/91/91
f 93/93/93 94/94/94 91/91/91
f 95/95/95 94/94/94 93/93/93
f 96/96/96 95/95/95 93/93/93
f 99/99/99 98/98/98 97/97/97
f 100/100/100 99/99/99 97/97/97
f 100/100/100 97/97/97 101/101/101
f 102/102/102 100/100/100 101/101/101
f 102/102/102 101/101/101 103/103/103
f 104/104/104 102/102/102 103/103/103
f 107/107/107 106/106/106 105/105/105
f 108/108/108 107/107/107 105/105/105
f 107/107/107 108/108/108 109/109/109
f 110/110/110 107/107/107 109/109/109
f 111/111/111 110/110/110 109/109/109
f 112/112/112 111/111/111 109/109/109
f 115/115/115 114/114/114 113/113/113
f 116/116/116 115/115/115 113/113/113
f 116/116/116 113/113/113 117/117/117
f 118/118/118 116/116/116 117/117/117
f 118/118/118 117/117/117 119/119/119
f 120/120/120 118/118/118 119/119/119
f 123/123/123 122/122/122 121/121/121
f 124/124/124 123/123/123 121/121/121
f 124/124/124 125/125/125 123/123/123
f 125/125/125 126/126/126 123/123/123
f 127/127/127 126/126/126 125/125/125
f 128/128/128 127/127/127 125/125/125
f 131/131/131 130/130/130 129/129/129
f 130/130/130 132/132/132 129/129/129
f 132/132/132 130/130/130 133/133/133
f 129/129/129 132/132/132 134/134/134
f 135/135/135 129/129/129 134/134/134
f 135/135/135 134/134/134 136/136/136
f 134/134/134 137/137/137 136/136/136
f 138/138/138 132/132/132 133/133/133
f 132/132/132 138/138/138 134/134/134
f 133/133/133 139/139/139 138/138/138
f 139/139/139 140/140/140 138/138/138
f 138/138/138 140/140/140 141/141/141
f 137/137/137 134/134/134 142/142/142
f 138/138/138 142/142/142 134/134/134
f 142/142/142 138/138/138 141/141/141
f 143/143/143 137/137/137 142/142/142
f 142/142/142 141/141/141 143/143/143
f 141/141/141 144/144/144 143/143/143
f 147/147/147 146/146/146 145/145/145
f 146/146/146 148/148/148 145/145/145
f 148/148/148 146/146/146 149/149/149
f 145/145/145 148/148/148 150/150/150
f 151/151/151 145/145/145 150/150/150
f 151/151/151 150/150/150 152/152/152
f 150/150/150 153/153/153 152/152/152
f 154/154/154 148/148/148 149/149/149
f 148/148/148 154/154/154 150/150/150
f 149/149/149 155/155/155 154/154/154
f 155/155/155 156/156/156 154/154/154
f 156/156/156 157/157/157 154/154/154
f 150/150/150 158/158/158 153/153/153
f 154/154/154 158/158/158 150/150/150
f 157/157/157 158/158/158 154/154/154
f 158/158/158 159/159/159 153/153/153
f 158/158/158 157/157/157 159/159/159
f 157/157/157 160/160/160 159/159/159
f 163/163/163 162/162/162 161/161/161
f 164/164/164 163/163/163 161/161/161
f 162/162/162 163/163/163 165/165/165
f 164/164/164 161/161/161 166/166/166
f 167/167/167 162/162/162 165/165/165
f 168/168/168 164/164/164 166/166/166
f 165/165/165 169/169/169 167/167/167
f 168/168/168 166/166/166 170/170/170
f 169/169/169 171/171/171 167/167/167
f 172/172/172 168/168/168 170/170/170
f 169/169/169 173/173/173 171/171/171
f 172/172/172 170/170/170 174/174/174
f 173/173/173 175/175/175 171/171/171
f 176/176/176 172/172/172 174/174/174
f 173/173/173 177/177/177 175/175/175
f 176/176/176 174/174/174 178/178/178
f 177/177/177 179/179/179 175/175/175
f 180/180/180 176/176/176 178/178/178
f 177/177/177 181/181/181 179/179/179
f 180/180/180 178/178/178 182/182/182
f 181/181/181 183/183/183 179/179/179
f 184/184/184 180/180/180 182/182/182
f 181/181/181 184/184/184 183/183/183
f 184/184/184 182/182/182 183/183/183
