# Blender 3.6.0
# www.blender.org
o LightFixture2_24118f26_LightFixture2_24118f26_1
v 0.086480 1.902770 0.013530
v 0.086480 1.900940 0.013530
v 0.082330 1.900940 0.007330
v 0.082330 1.902770 0.007330
v 0.080870 1.900940 -0.000000
v 0.080870 1.902770 -0.000000
v 0.082330 1.900940 -0.007320
v 0.082330 1.902770 -0.007320
v 0.086480 1.900940 -0.013520
v 0.086480 1.902770 -0.013520
v 0.086480 1.902770 -0.013520
v 0.086480 1.900940 -0.013520
v 0.092680 1.900940 -0.017670
v 0.092680 1.902770 -0.017670
v 0.100000 1.900940 -0.019130
v 0.100000 1.902770 -0.019130
v 0.107330 1.900940 -0.017670
v 0.107330 1.902770 -0.017670
v 0.113530 1.900940 -0.013520
v 0.113530 1.902770 -0.013520
v 0.113530 1.902770 -0.013520
v 0.113530 1.900940 -0.013520
v 0.117680 1.900940 -0.007320
v 0.117680 1.902770 -0.007320
v 0.119140 1.900940 -0.000000
v 0.119140 1.902770 -0.000000
v 0.117680 1.900940 0.007330
v 0.117680 1.902770 0.007330
v 0.113530 1.900940 0.013530
v 0.113530 1.902770 0.013530
v 0.113530 1.902770 0.013530
v 0.113530 1.900940 0.013530
v 0.107330 1.900940 0.017680
v 0.107330 1.902770 0.017680
v 0.100000 1.900940 0.019140
v 0.100000 1.902770 0.019140
v 0.092680 1.900940 0.017680
v 0.092680 1.902770 0.017680
v 0.086480 1.900940 0.013530
v 0.086480 1.902770 0.013530
v 0.107720 1.900970 -0.018620
v 0.114260 1.899110 -0.014250
v 0.114260 1.900970 -0.014250
v 0.107720 1.899110 -0.018620
v 0.100000 1.900970 -0.020150
v 0.100000 1.899110 -0.020150
v 0.092290 1.900970 -0.018620
v 0.092290 1.899110 -0.018620
v 0.085750 1.900970 -0.014250
v 0.085750 1.899110 -0.014250
v 0.114260 1.900970 -0.014250
v 0.114260 1.899110 -0.014250
v 0.118630 1.899110 -0.007710
v 0.118630 1.900970 -0.007710
v 0.120160 1.899110 -0.000000
v 0.120160 1.900970 -0.000000
v 0.118630 1.899110 0.007720
v 0.118630 1.900970 0.007720
v 0.114260 1.899110 0.014260
v 0.114260 1.900970 0.014260
v 0.114260 1.900970 0.014260
v 0.114260 1.899110 0.014260
v 0.107720 1.899110 0.018630
v 0.107720 1.900970 0.018630
v 0.100000 1.899110 0.020160
v 0.100000 1.900970 0.020160
v 0.092290 1.899110 0.018630
v 0.092290 1.900970 0.018630
v 0.085750 1.899110 0.014260
v 0.085750 1.900970 0.014260
v 0.085750 1.900970 0.014260
v 0.085750 1.899110 0.014260
v 0.081380 1.899110 0.007720
v 0.081380 1.900970 0.007720
v 0.079850 1.899110 -0.000000
v 0.079850 1.900970 -0.000000
v 0.081380 1.899110 -0.007710
v 0.081380 1.900970 -0.007710
v 0.085750 1.899110 -0.014250
v 0.085750 1.900970 -0.014250
v 0.106490 1.899120 -0.015650
v 0.111970 1.888730 -0.011960
v 0.111980 1.899120 -0.011970
v 0.106480 1.888730 -0.015630
v 0.100000 1.899120 -0.016930
v 0.100000 1.888730 -0.016920
v 0.093520 1.899120 -0.015650
v 0.093530 1.888730 -0.015630
v 0.088030 1.899120 -0.011970
v 0.088040 1.888730 -0.011960
v 0.111980 1.899120 -0.011970
v 0.111970 1.888730 -0.011960
v 0.115640 1.888730 -0.006470
v 0.115660 1.899120 -0.006480
v 0.116930 1.888730 -0.000000
v 0.116950 1.899120 -0.000000
v 0.115640 1.888730 0.006480
v 0.115660 1.899120 0.006490
v 0.111970 1.888730 0.011970
v 0.111980 1.899120 0.011980
v 0.111980 1.899120 0.011980
v 0.111970 1.888730 0.011970
v 0.106480 1.888730 0.015640
v 0.106490 1.899120 0.015660
v 0.100000 1.888730 0.016930
v 0.100000 1.899120 0.016940
v 0.093530 1.888730 0.015640
v 0.093520 1.899120 0.015660
v 0.088040 1.888730 0.011970
v 0.088030 1.899120 0.011980
v 0.088030 1.899120 0.011980
v 0.088040 1.888730 0.011970
v 0.084370 1.888730 0.006480
v 0.084350 1.899120 0.006490
v 0.083080 1.888730 -0.000000
v 0.083060 1.899120 -0.000000
v 0.084370 1.888730 -0.006470
v 0.084350 1.899120 -0.006480
v 0.088040 1.888730 -0.011960
v 0.088030 1.899120 -0.011970
v 0.078780 1.883430 0.021230
v 0.078780 1.877930 0.021230
v 0.072270 1.877930 0.011490
v 0.072270 1.883430 0.011490
v 0.069990 1.877930 -0.000000
v 0.069990 1.883430 -0.000000
v 0.072270 1.877930 -0.011480
v 0.072270 1.883430 -0.011480
v 0.078780 1.877930 -0.021220
v 0.078780 1.883430 -0.021220
v 0.078780 1.883430 -0.021220
v 0.078780 1.877930 -0.021220
v 0.088520 1.877930 -0.027730
v 0.088520 1.883430 -0.027730
v 0.100000 1.877930 -0.030010
v 0.100000 1.883430 -0.030010
v 0.111490 1.877930 -0.027730
v 0.111490 1.883430 -0.027730
v 0.121230 1.877930 -0.021220
v 0.121230 1.883430 -0.021220
v 0.121230 1.883430 -0.021220
v 0.121230 1.877930 -0.021220
v 0.127740 1.877930 -0.011480
v 0.127740 1.883430 -0.011480
v 0.130020 1.877930 -0.000000
v 0.130020 1.883430 -0.000000
v 0.127740 1.877930 0.011490
v 0.127740 1.883430 0.011490
v 0.121230 1.877930 0.021230
v 0.121230 1.883430 0.021230
v 0.121230 1.883430 0.021230
v 0.121230 1.877930 0.021230
v 0.111490 1.877930 0.027740
v 0.111490 1.883430 0.027740
v 0.100000 1.877930 0.030020
v 0.100000 1.883430 0.030020
v 0.088520 1.877930 0.027740
v 0.088520 1.883430 0.027740
v 0.078780 1.877930 0.021230
v 0.078780 1.883430 0.021230
v 0.097650 1.910750 -0.005680
v 0.092680 1.902770 -0.017670
v 0.100000 1.902770 -0.019130
v 0.095650 1.910750 -0.004350
v 0.100000 1.910750 -0.006150
v 0.086480 1.902770 -0.013520
v 0.107330 1.902770 -0.017670
v 0.094320 1.910750 -0.002350
v 0.102360 1.910750 -0.005680
v 0.082330 1.902770 -0.007320
v 0.113530 1.902770 -0.013520
v 0.093850 1.910750 -0.000000
v 0.104360 1.910750 -0.004350
v 0.080870 1.902770 -0.000000
v 0.117680 1.902770 -0.007320
v 0.094320 1.910750 0.002360
v 0.105690 1.910750 -0.002350
v 0.082330 1.902770 0.007330
v 0.119140 1.902770 -0.000000
v 0.095650 1.910750 0.004360
v 0.106160 1.910750 -0.000000
v 0.086480 1.902770 0.013530
v 0.117680 1.902770 0.007330
v 0.097650 1.910750 0.005690
v 0.105690 1.910750 0.002360
v 0.092680 1.902770 0.017680
v 0.113530 1.902770 0.013530
v 0.100000 1.910750 0.006160
v 0.104360 1.910750 0.004360
v 0.100000 1.902770 0.019140
v 0.107330 1.902770 0.017680
v 0.102360 1.910750 0.005690
v 0.092680 1.900940 -0.017670
v 0.092290 1.900970 -0.018620
v 0.100000 1.900970 -0.020150
v 0.086480 1.900940 -0.013520
v 0.100000 1.900940 -0.019130
v 0.085750 1.900970 -0.014250
v 0.107720 1.900970 -0.018620
v 0.082330 1.900940 -0.007320
v 0.107330 1.900940 -0.017670
v 0.081380 1.900970 -0.007710
v 0.114260 1.900970 -0.014250
v 0.080870 1.900940 -0.000000
v 0.113530 1.900940 -0.013520
v 0.079850 1.900970 -0.000000
v 0.118630 1.900970 -0.007710
v 0.082330 1.900940 0.007330
v 0.117680 1.900940 -0.007320
v 0.081380 1.900970 0.007720
v 0.120160 1.900970 -0.000000
v 0.086480 1.900940 0.013530
v 0.119140 1.900940 -0.000000
v 0.085750 1.900970 0.014260
v 0.118630 1.900970 0.007720
v 0.092680 1.900940 0.017680
v 0.117680 1.900940 0.007330
v 0.092290 1.900970 0.018630
v 0.114260 1.900970 0.014260
v 0.100000 1.900940 0.019140
v 0.113530 1.900940 0.013530
v 0.100000 1.900970 0.020160
v 0.107720 1.900970 0.018630
v 0.107330 1.900940 0.017680
v 0.092290 1.899110 -0.018620
v 0.093520 1.899120 -0.015650
v 0.100000 1.899120 -0.016930
v 0.085750 1.899110 -0.014250
v 0.100000 1.899110 -0.020150
v 0.088030 1.899120 -0.011970
v 0.106490 1.899120 -0.015650
v 0.081380 1.899110 -0.007710
v 0.107720 1.899110 -0.018620
v 0.084350 1.899120 -0.006480
v 0.111980 1.899120 -0.011970
v 0.079850 1.899110 -0.000000
v 0.114260 1.899110 -0.014250
v 0.083060 1.899120 -0.000000
v 0.115660 1.899120 -0.006480
v 0.081380 1.899110 0.007720
v 0.118630 1.899110 -0.007710
v 0.084350 1.899120 0.006490
v 0.116950 1.899120 -0.000000
v 0.085750 1.899110 0.014260
v 0.120160 1.899110 -0.000000
v 0.088030 1.899120 0.011980
v 0.115660 1.899120 0.006490
v 0.092290 1.899110 0.018630
v 0.118630 1.899110 0.007720
v 0.093520 1.899120 0.015660
v 0.111980 1.899120 0.011980
v 0.100000 1.899110 0.020160
v 0.114260 1.899110 0.014260
v 0.100000 1.899120 0.016940
v 0.106490 1.899120 0.015660
v 0.107720 1.899110 0.018630
v 0.093530 1.888730 -0.015630
v 0.088520 1.883430 -0.027730
v 0.100000 1.883430 -0.030010
v 0.088040 1.888730 -0.011960
v 0.100000 1.888730 -0.016920
v 0.078780 1.883430 -0.021220
v 0.111490 1.883430 -0.027730
v 0.084370 1.888730 -0.006470
v 0.106480 1.888730 -0.015630
v 0.072270 1.883430 -0.011480
v 0.121230 1.883430 -0.021220
v 0.083080 1.888730 -0.000000
v 0.111970 1.888730 -0.011960
v 0.069990 1.883430 -0.000000
v 0.127740 1.883430 -0.011480
v 0.084370 1.888730 0.006480
v 0.115640 1.888730 -0.006470
v 0.072270 1.883430 0.011490
v 0.130020 1.883430 -0.000000
v 0.088040 1.888730 0.011970
v 0.116930 1.888730 -0.000000
v 0.078780 1.883430 0.021230
v 0.127740 1.883430 0.011490
v 0.093530 1.888730 0.015640
v 0.115640 1.888730 0.006480
v 0.088520 1.883430 0.027740
v 0.121230 1.883430 0.021230
v 0.100000 1.888730 0.016930
v 0.111970 1.888730 0.011970
v 0.100000 1.883430 0.030020
v 0.111490 1.883430 0.027740
v 0.106480 1.888730 0.015640
v 0.088520 1.877930 -0.027730
v 0.094400 1.878030 -0.013520
v 0.100000 1.878030 -0.014640
v 0.078780 1.877930 -0.021220
v 0.100000 1.877930 -0.030010
v 0.089650 1.878030 -0.010350
v 0.105610 1.878030 -0.013520
v 0.072270 1.877930 -0.011480
v 0.111490 1.877930 -0.027730
v 0.086480 1.878030 -0.005600
v 0.110360 1.878030 -0.010350
v 0.069990 1.877930 -0.000000
v 0.121230 1.877930 -0.021220
v 0.085360 1.878030 -0.000000
v 0.113530 1.878030 -0.005600
v 0.072270 1.877930 0.011490
v 0.127740 1.877930 -0.011480
v 0.086480 1.878030 0.005610
v 0.114650 1.878030 -0.000000
v 0.078780 1.877930 0.021230
v 0.130020 1.877930 -0.000000
v 0.089650 1.878030 0.010360
v 0.113530 1.878030 0.005610
v 0.088520 1.877930 0.027740
v 0.127740 1.877930 0.011490
v 0.094400 1.878030 0.013530
v 0.110360 1.878030 0.010360
v 0.100000 1.877930 0.030020
v 0.121230 1.877930 0.021230
v 0.100000 1.878030 0.014650
v 0.105610 1.878030 0.013530
v 0.111490 1.877930 0.027740
vn -0.9237 -0.0000 0.3832
vn -0.8310 -0.0000 0.5562
vn -1.0000 -0.0000 -0.0001
vn -0.9236 -0.0000 -0.3833
vn -0.8310 -0.0000 -0.5563
vn -0.3833 -0.0000 -0.9236
vn -0.5562 -0.0000 -0.8310
vn -0.0001 -0.0000 -1.0000
vn 0.3832 -0.0000 -0.9237
vn 0.5562 -0.0000 -0.8310
vn 0.9236 -0.0000 -0.3833
vn 0.8310 -0.0000 -0.5562
vn 1.0000 -0.0000 -0.0001
vn 0.9237 -0.0000 0.3832
vn 0.8310 -0.0000 0.5563
vn 0.3832 -0.0000 0.9237
vn 0.5562 -0.0000 0.8310
vn -0.0001 -0.0000 1.0000
vn -0.3833 -0.0000 0.9236
vn -0.5562 -0.0000 0.8310
vn 0.5556 -0.0000 -0.8315
vn 0.3824 -0.0000 -0.9240
vn -0.3825 -0.0000 -0.9240
vn -0.5556 -0.0000 -0.8314
vn 0.9239 -0.0000 -0.3825
vn 0.8315 -0.0000 -0.5555
vn 0.9240 -0.0000 0.3823
vn 0.8314 -0.0000 0.5557
vn 0.3824 -0.0000 0.9240
vn 0.5556 -0.0000 0.8314
vn -0.3825 -0.0000 0.9240
vn -0.5556 -0.0000 0.8315
vn -0.9240 -0.0000 0.3824
vn -0.8315 -0.0000 0.5555
vn -0.9240 -0.0000 -0.3824
vn -0.8314 -0.0000 -0.5557
vn 0.5568 -0.0013 -0.8307
vn 0.5561 -0.0018 -0.8311
vn 0.3824 -0.0019 -0.9240
vn 0.3825 -0.0018 -0.9239
vn 0.0002 -0.0013 -1.0000
vn -0.3831 -0.0018 -0.9237
vn -0.3832 -0.0019 -0.9237
vn -0.5564 -0.0018 -0.8309
vn -0.5557 -0.0013 -0.8314
vn 0.9237 -0.0019 -0.3832
vn 0.8314 -0.0013 -0.5557
vn 0.8309 -0.0018 -0.5564
vn 0.9235 -0.0021 -0.3835
vn 1.0000 -0.0020 -0.0001
vn 0.9238 -0.0021 0.3828
vn 0.9237 -0.0019 0.3831
vn 0.8311 -0.0018 0.5561
vn 0.8306 -0.0013 0.5568
vn 0.3830 -0.0019 0.9237
vn 0.5557 -0.0013 0.8314
vn 0.5564 -0.0018 0.8309
vn 0.3829 -0.0018 0.9238
vn -0.0005 -0.0013 1.0000
vn -0.3827 -0.0018 0.9239
vn -0.3826 -0.0019 0.9239
vn -0.5561 -0.0018 0.8311
vn -0.5568 -0.0013 0.8307
vn -0.9237 -0.0019 0.3830
vn -0.8314 -0.0013 0.5557
vn -0.8309 -0.0018 0.5564
vn -0.9236 -0.0021 0.3834
vn -1.0000 -0.0020 -0.0002
vn -0.9238 -0.0021 -0.3829
vn -0.9236 -0.0019 -0.3832
vn -0.8311 -0.0018 -0.5561
vn -0.8307 -0.0013 -0.5568
vn -0.9239 -0.0000 0.3825
vn -0.8314 -0.0000 0.5557
vn -0.9239 -0.0000 -0.3826
vn -0.3826 -0.0000 -0.9239
vn -0.5557 -0.0000 -0.8314
vn 0.3825 -0.0000 -0.9239
vn 0.5557 -0.0000 -0.8314
vn 0.9239 -0.0000 -0.3826
vn 0.8314 -0.0000 -0.5557
vn 0.9239 -0.0000 0.3825
vn 0.3825 -0.0000 0.9239
vn 0.5557 -0.0000 0.8314
vn -0.3826 -0.0000 0.9239
vn -0.5557 -0.0000 0.8314
vn -0.0001 0.8519 -0.5237
vn -0.2007 0.8518 -0.4839
vn -0.2001 0.8518 -0.4841
vn -0.3706 0.8518 -0.3702
vn -0.0002 0.8519 -0.5237
vn -0.3706 0.8517 -0.3705
vn 0.2007 0.8519 -0.4838
vn -0.4841 0.8517 -0.2005
vn 0.2002 0.8517 -0.4842
vn -0.4838 0.8519 -0.2008
vn 0.3705 0.8517 -0.3705
vn -0.5237 0.8519 -0.0002
vn 0.3702 0.8518 -0.3706
vn -0.5237 0.8519 -0.0001
vn 0.4839 0.8518 -0.2007
vn -0.4841 0.8519 0.1999
vn 0.4841 0.8518 -0.2001
vn -0.4839 0.8518 0.2006
vn 0.5237 0.8519 -0.0001
vn -0.3702 0.8518 0.3706
vn 0.5237 0.8519 -0.0002
vn -0.3705 0.8517 0.3705
vn 0.4838 0.8519 0.2007
vn -0.2004 0.8517 0.4841
vn 0.4842 0.8517 0.2003
vn -0.2008 0.8519 0.4838
vn 0.3706 0.8517 0.3705
vn -0.0002 0.8519 0.5237
vn 0.3706 0.8518 0.3702
vn -0.0001 0.8519 0.5237
vn 0.2007 0.8518 0.4839
vn 0.1999 0.8519 0.4841
vn -0.0000 0.9996 0.0295
vn 0.0112 0.9996 0.0270
vn 0.0206 0.9996 0.0206
vn -0.0112 0.9996 0.0269
vn 0.0270 0.9996 0.0113
vn -0.0206 0.9996 0.0208
vn 0.0294 0.9996 -0.0001
vn -0.0270 0.9996 0.0112
vn 0.0270 0.9996 -0.0112
vn -0.0294 0.9996 0.0001
vn 0.0206 0.9996 -0.0208
vn -0.0270 0.9996 -0.0113
vn 0.0112 0.9996 -0.0269
vn -0.0206 0.9996 -0.0206
vn -0.0000 0.9996 -0.0294
vn -0.0112 0.9996 -0.0271
vn -0.0000 -1.0000 0.0031
vn 0.0012 -1.0000 0.0029
vn 0.0022 -1.0000 0.0022
vn -0.0012 -1.0000 0.0029
vn 0.0029 -1.0000 0.0012
vn -0.0022 -1.0000 0.0022
vn 0.0031 -1.0000 -0.0000
vn -0.0029 -1.0000 0.0012
vn 0.0029 -1.0000 -0.0012
vn -0.0031 -1.0000 -0.0000
vn 0.0022 -1.0000 -0.0022
vn -0.0029 -1.0000 -0.0012
vn 0.0012 -1.0000 -0.0028
vn 0.0012 -1.0000 -0.0029
vn -0.0022 -1.0000 -0.0022
vn -0.0000 -1.0000 -0.0031
vn -0.0012 -1.0000 -0.0029
vn -0.0001 0.9269 -0.3753
vn -0.1435 0.9270 -0.3466
vn -0.1437 0.9269 -0.3466
vn -0.2653 0.9270 -0.2653
vn 0.1435 0.9269 -0.3466
vn -0.3465 0.9270 -0.1437
vn 0.1436 0.9270 -0.3466
vn -0.3466 0.9269 -0.1436
vn 0.2653 0.9270 -0.2653
vn -0.3752 0.9269 -0.0000
vn -0.3753 0.9269 -0.0000
vn 0.3466 0.9270 -0.1435
vn -0.3466 0.9269 0.1436
vn 0.3466 0.9269 -0.1436
vn -0.3466 0.9270 0.1435
vn 0.3753 0.9269 -0.0001
vn -0.2653 0.9270 0.2653
vn 0.3752 0.9269 -0.0001
vn 0.3466 0.9270 0.1435
vn -0.1437 0.9270 0.3465
vn 0.3466 0.9270 0.1436
vn -0.1436 0.9269 0.3466
vn 0.2653 0.9270 0.2653
vn -0.0000 0.9269 0.3752
vn -0.0000 0.9269 0.3753
vn 0.1435 0.9270 0.3466
vn 0.1436 0.9269 0.3466
vn -0.0000 -1.0000 0.0065
vn 0.0025 -1.0000 0.0060
vn 0.0046 -1.0000 0.0046
vn -0.0025 -1.0000 0.0060
vn 0.0060 -1.0000 0.0025
vn -0.0046 -1.0000 0.0046
vn 0.0065 -1.0000 -0.0000
vn -0.0060 -1.0000 0.0025
vn 0.0060 -1.0000 -0.0025
vn -0.0065 -1.0000 -0.0000
vn 0.0046 -1.0000 -0.0046
vn -0.0060 -1.0000 -0.0025
vn 0.0025 -1.0000 -0.0060
vn -0.0046 -1.0000 -0.0046
vn -0.0000 -1.0000 -0.0065
vn -0.0025 -1.0000 -0.0060
vt 2.060294 -7.564523
vt 2.125286 -7.564523
vt 2.125286 -7.480582
vt 2.060294 -7.480582
vt 1.983635 -7.564523
vt 1.983635 -7.480582
vt 1.906976 -7.564523
vt 1.906976 -7.480582
vt 1.841985 -7.564523
vt 1.841985 -7.480582
vt 1.758109 -7.463793
vt 1.823098 -7.463793
vt 1.823098 -7.379852
vt 1.758109 -7.379852
vt 1.681448 -7.463793
vt 1.681448 -7.379852
vt 1.604787 -7.463793
vt 1.604787 -7.379852
vt 1.539798 -7.463793
vt 1.539798 -7.379852
vt 2.362482 -7.564523
vt 2.427473 -7.564523
vt 2.427473 -7.480582
vt 2.362482 -7.480582
vt 2.285823 -7.564523
vt 2.285823 -7.480582
vt 2.209164 -7.564523
vt 2.209164 -7.480582
vt 2.144172 -7.564523
vt 2.144172 -7.480582
vt 4.377067 -7.564523
vt 4.442057 -7.564523
vt 4.442057 -7.480582
vt 4.377067 -7.480582
vt 4.300406 -7.564523
vt 4.300406 -7.480582
vt 4.223745 -7.564523
vt 4.223745 -7.480582
vt 4.158756 -7.564523
vt 4.158756 -7.480582
vt 4.158756 -7.581311
vt 4.158756 -7.665252
vt 4.223745 -7.581311
vt 4.223745 -7.665252
vt 4.300406 -7.581311
vt 4.300406 -7.665252
vt 4.377067 -7.581311
vt 4.377067 -7.665252
vt 4.442057 -7.581311
vt 4.442057 -7.665252
vt 4.377066 -9.579106
vt 4.442057 -9.579106
vt 4.442057 -9.495165
vt 4.377066 -9.495165
vt 4.300406 -9.579106
vt 4.300406 -9.495165
vt 4.223746 -9.579106
vt 4.223746 -9.495165
vt 4.158756 -9.579106
vt 4.158756 -9.495165
vt 1.758109 -7.564523
vt 1.823098 -7.564523
vt 1.823098 -7.480582
vt 1.758109 -7.480582
vt 1.681448 -7.564523
vt 1.681448 -7.480582
vt 1.604787 -7.564523
vt 1.604787 -7.480582
vt 1.539798 -7.564523
vt 1.539798 -7.480582
vt 4.377066 -9.478376
vt 4.442057 -9.478376
vt 4.442057 -9.394436
vt 4.377066 -9.394436
vt 4.300406 -9.478376
vt 4.300406 -9.394436
vt 4.223746 -9.478376
vt 4.223746 -9.394436
vt 4.158756 -9.478376
vt 4.158756 -9.394436
vt 2.647532 -7.984228
vt 2.647600 -8.068169
vt 2.689545 -7.984228
vt 2.689582 -8.068169
vt 2.739104 -7.984228
vt 2.739104 -8.068169
vt 2.788663 -7.984228
vt 2.788626 -8.068169
vt 2.830676 -7.984228
vt 2.830608 -8.068169
vt 2.788625 -8.269627
vt 2.830608 -8.269627
vt 2.830676 -8.185686
vt 2.788662 -8.185686
vt 2.739104 -8.269627
vt 2.739104 -8.185686
vt 2.689584 -8.269627
vt 2.689547 -8.185686
vt 2.647600 -8.269627
vt 2.647532 -8.185686
vt 2.788626 -7.967439
vt 2.830608 -7.967439
vt 2.830676 -7.883498
vt 2.788663 -7.883498
vt 2.739104 -7.967439
vt 2.739104 -7.883498
vt 2.689582 -7.967439
vt 2.689545 -7.883498
vt 2.647600 -7.967439
vt 2.647532 -7.883498
vt 2.788625 -8.168898
vt 2.830608 -8.168898
vt 2.830676 -8.084956
vt 2.788662 -8.084956
vt 2.739104 -8.168898
vt 2.739104 -8.084956
vt 2.689584 -8.168898
vt 2.689547 -8.084956
vt 2.647600 -8.168898
vt 2.647532 -8.084956
vt 3.346585 -7.765981
vt 3.434615 -7.765981
vt 3.434615 -7.682040
vt 3.346585 -7.682040
vt 3.242750 -7.765981
vt 3.242750 -7.682040
vt 3.138915 -7.765981
vt 3.138915 -7.682040
vt 3.050885 -7.765981
vt 3.050885 -7.682040
vt 4.152419 -7.765981
vt 4.240448 -7.765981
vt 4.240448 -7.682040
vt 4.152419 -7.682040
vt 4.048584 -7.765981
vt 4.048584 -7.682040
vt 3.944747 -7.765981
vt 3.944747 -7.682040
vt 3.856718 -7.765981
vt 3.856718 -7.682040
vt 2.943669 -7.765981
vt 3.031698 -7.765981
vt 3.031698 -7.682040
vt 2.943669 -7.682040
vt 2.839833 -7.765981
vt 2.839833 -7.682040
vt 2.735998 -7.765981
vt 2.735998 -7.682040
vt 2.647968 -7.765981
vt 2.647968 -7.682040
vt 3.749503 -7.765981
vt 3.837532 -7.765981
vt 3.837532 -7.682040
vt 3.749503 -7.682040
vt 3.645667 -7.765981
vt 3.645667 -7.682040
vt 3.541831 -7.765981
vt 3.541831 -7.682040
vt 3.453802 -7.765981
vt 3.453802 -7.682040
vt 3.645667 -7.664052
vt 3.719090 -7.649449
vt 3.669295 -7.529231
vt 3.689325 -7.515847
vt 3.645667 -7.533931
vt 3.781335 -7.607857
vt 3.572243 -7.649449
vt 3.702710 -7.495816
vt 3.622039 -7.529231
vt 3.822927 -7.545609
vt 3.509998 -7.607857
vt 3.707410 -7.472188
vt 3.602008 -7.515847
vt 3.837532 -7.472188
vt 3.468407 -7.545609
vt 3.702710 -7.448559
vt 3.588624 -7.495816
vt 3.822927 -7.398765
vt 3.453802 -7.472188
vt 3.689325 -7.428528
vt 3.583923 -7.472188
vt 3.781335 -7.336518
vt 3.468407 -7.398765
vt 3.669295 -7.415144
vt 3.588624 -7.448559
vt 3.719090 -7.294926
vt 3.509998 -7.336518
vt 3.645667 -7.410444
vt 3.602008 -7.428528
vt 3.645667 -7.280323
vt 3.572243 -7.294926
vt 3.622039 -7.415144
vt 3.242750 -7.664052
vt 3.316174 -7.649448
vt 3.312438 -7.640430
vt 3.371516 -7.600954
vt 3.242750 -7.654290
vt 3.378419 -7.607857
vt 3.169326 -7.649448
vt 3.410990 -7.541874
vt 3.173062 -7.640430
vt 3.420010 -7.545611
vt 3.107081 -7.607857
vt 3.424853 -7.472188
vt 3.113985 -7.600954
vt 3.434615 -7.472188
vt 3.065490 -7.545611
vt 3.410990 -7.402501
vt 3.074510 -7.541874
vt 3.420010 -7.398764
vt 3.050885 -7.472188
vt 3.371516 -7.343421
vt 3.060647 -7.472188
vt 3.378419 -7.336518
vt 3.065490 -7.398764
vt 3.312438 -7.303945
vt 3.074510 -7.402501
vt 3.316174 -7.294927
vt 3.107081 -7.336518
vt 3.242750 -7.290085
vt 3.113985 -7.343421
vt 3.242750 -7.280323
vt 3.169326 -7.294927
vt 3.173062 -7.303945
vt 2.839833 -7.633425
vt 2.778131 -7.621152
vt 2.766410 -7.649448
vt 2.704165 -7.607857
vt 2.839833 -7.664052
vt 2.725822 -7.586201
vt 2.901537 -7.621152
vt 2.662573 -7.545611
vt 2.913257 -7.649448
vt 2.690869 -7.533890
vt 2.953845 -7.586201
vt 2.647968 -7.472188
vt 2.975502 -7.607857
vt 2.678596 -7.472188
vt 2.988797 -7.533890
vt 2.662573 -7.398764
vt 3.017093 -7.545611
vt 2.690869 -7.410485
vt 3.001071 -7.472188
vt 2.704165 -7.336518
vt 3.031698 -7.472188
vt 2.725822 -7.358174
vt 2.988797 -7.410485
vt 2.766410 -7.294927
vt 3.017093 -7.398764
vt 2.778131 -7.323223
vt 2.953845 -7.358174
vt 2.839833 -7.280323
vt 2.975502 -7.336518
vt 2.839833 -7.310950
vt 2.901537 -7.323223
vt 2.913257 -7.294927
vt 0.623792 -7.865356
vt 0.735702 -7.843097
vt 0.686898 -7.725269
vt 0.740396 -7.689523
vt 0.623792 -7.737821
vt 0.830577 -7.779705
vt 0.511881 -7.843097
vt 0.776143 -7.636023
vt 0.560685 -7.725269
vt 0.893970 -7.684828
vt 0.417006 -7.779705
vt 0.788696 -7.572917
vt 0.507187 -7.689523
vt 0.916231 -7.572917
vt 0.353613 -7.684828
vt 0.776143 -7.509810
vt 0.471440 -7.636023
vt 0.893970 -7.461005
vt 0.331352 -7.572917
vt 0.740396 -7.456310
vt 0.458888 -7.572917
vt 0.830577 -7.366128
vt 0.353613 -7.461005
vt 0.686898 -7.420565
vt 0.471440 -7.509810
vt 0.735702 -7.302737
vt 0.417006 -7.366128
vt 0.623792 -7.408012
vt 0.507187 -7.456310
vt 0.623792 -7.280477
vt 0.511881 -7.302737
vt 0.560685 -7.420565
vt 1.228167 -7.715571
vt 1.173575 -7.704713
vt 1.116256 -7.843097
vt 1.021381 -7.779705
vt 1.228167 -7.865356
vt 1.127295 -7.673790
vt 1.282759 -7.704713
vt 0.957988 -7.684828
vt 1.340078 -7.843097
vt 1.096371 -7.627508
vt 1.329038 -7.673790
vt 0.935727 -7.572917
vt 1.434952 -7.779705
vt 1.085512 -7.572917
vt 1.359962 -7.627508
vt 0.957988 -7.461005
vt 1.498345 -7.684828
vt 1.096371 -7.518325
vt 1.370822 -7.572917
vt 1.021381 -7.366128
vt 1.520606 -7.572917
vt 1.127295 -7.472043
vt 1.359962 -7.518325
vt 1.116256 -7.302737
vt 1.498345 -7.461005
vt 1.173575 -7.441121
vt 1.329038 -7.472043
vt 1.228167 -7.280477
vt 1.434952 -7.366128
vt 1.228167 -7.430262
vt 1.282759 -7.441121
vt 1.340078 -7.302737
s 1
f 3/1/1 2/2/2 1/3/2
f 4/4/1 3/1/1 1/3/2
f 5/5/3 3/1/1 4/4/1
f 6/6/3 5/5/3 4/4/1
f 7/7/4 5/5/3 6/6/3
f 8/8/4 7/7/4 6/6/3
f 9/9/5 7/7/4 8/8/4
f 10/10/5 9/9/5 8/8/4
f 13/11/6 12/12/7 11/13/7
f 14/14/6 13/11/6 11/13/7
f 15/15/8 13/11/6 14/14/6
f 16/16/8 15/15/8 14/14/6
f 17/17/9 15/15/8 16/16/8
f 18/18/9 17/17/9 16/16/8
f 19/19/10 17/17/9 18/18/9
f 20/20/10 19/19/10 18/18/9
f 23/21/11 22/22/12 21/23/12
f 24/24/11 23/21/11 21/23/12
f 25/25/13 23/21/11 24/24/11
f 26/26/13 25/25/13 24/24/11
f 27/27/14 25/25/13 26/26/13
f 28/28/14 27/27/14 26/26/13
f 29/29/15 27/27/14 28/28/14
f 30/30/15 29/29/15 28/28/14
f 33/31/16 32/32/17 31/33/17
f 34/34/16 33/31/16 31/33/17
f 35/35/18 33/31/16 34/34/16
f 36/36/18 35/35/18 34/34/16
f 37/37/19 35/35/18 36/36/18
f 38/38/19 37/37/19 36/36/18
f 39/39/20 37/37/19 38/38/19
f 40/40/20 39/39/20 38/38/19
f 43/41/21 42/42/21 41/43/22
f 42/42/21 44/44/22 41/43/22
f 41/43/22 44/44/22 45/45/8
f 44/44/22 46/46/8 45/45/8
f 45/45/8 46/46/8 47/47/23
f 46/46/8 48/48/23 47/47/23
f 47/47/23 48/48/23 49/49/24
f 48/48/23 50/50/24 49/49/24
f 53/51/25 52/52/26 51/53/26
f 54/54/25 53/51/25 51/53/26
f 55/55/13 53/51/25 54/54/25
f 56/56/13 55/55/13 54/54/25
f 57/57/27 55/55/13 56/56/13
f 58/58/27 57/57/27 56/56/13
f 59/59/28 57/57/27 58/58/27
f 60/60/28 59/59/28 58/58/27
f 63/61/29 62/62/30 61/63/30
f 64/64/29 63/61/29 61/63/30
f 65/65/18 63/61/29 64/64/29
f 66/66/18 65/65/18 64/64/29
f 67/67/31 65/65/18 66/66/18
f 68/68/31 67/67/31 66/66/18
f 69/69/32 67/67/31 68/68/31
f 70/70/32 69/69/32 68/68/31
f 73/71/33 72/72/34 71/73/34
f 74/74/33 73/71/33 71/73/34
f 75/75/3 73/71/33 74/74/33
f 76/76/3 75/75/3 74/74/33
f 77/77/35 75/75/3 76/76/3
f 78/78/35 77/77/35 76/76/3
f 79/79/36 77/77/35 78/78/35
f 80/80/36 79/79/36 78/78/35
f 83/81/37 82/82/38 81/83/39
f 82/82/38 84/84/40 81/83/39
f 81/83/39 84/84/40 85/85/41
f 84/84/40 86/86/41 85/85/41
f 85/85/41 86/86/41 87/87/42
f 86/86/41 88/88/43 87/87/42
f 87/87/42 88/88/43 89/89/44
f 88/88/43 90/90/45 89/89/44
f 93/91/46 92/92/47 91/93/48
f 94/94/49 93/91/46 91/93/48
f 95/95/50 93/91/46 94/94/49
f 96/96/50 95/95/50 94/94/49
f 97/97/51 95/95/50 96/96/50
f 98/98/52 97/97/51 96/96/50
f 99/99/53 97/97/51 98/98/52
f 100/100/54 99/99/53 98/98/52
f 103/101/55 102/102/56 101/103/57
f 104/104/58 103/101/55 101/103/57
f 105/105/59 103/101/55 104/104/58
f 106/106/59 105/105/59 104/104/58
f 107/107/60 105/105/59 106/106/59
f 108/108/61 107/107/60 106/106/59
f 109/109/62 107/107/60 108/108/61
f 110/110/63 109/109/62 108/108/61
f 113/111/64 112/112/65 111/113/66
f 114/114/67 113/111/64 111/113/66
f 115/115/68 113/111/64 114/114/67
f 116/116/68 115/115/68 114/114/67
f 117/117/69 115/115/68 116/116/68
f 118/118/70 117/117/69 116/116/68
f 119/119/71 117/117/69 118/118/70
f 120/120/72 119/119/71 118/118/70
f 123/121/73 122/122/74 121/123/74
f 124/124/73 123/121/73 121/123/74
f 125/125/3 123/121/73 124/124/73
f 126/126/3 125/125/3 124/124/73
f 127/127/75 125/125/3 126/126/3
f 128/128/75 127/127/75 126/126/3
f 129/129/36 127/127/75 128/128/75
f 130/130/36 129/129/36 128/128/75
f 133/131/76 132/132/77 131/133/77
f 134/134/76 133/131/76 131/133/77
f 135/135/8 133/131/76 134/134/76
f 136/136/8 135/135/8 134/134/76
f 137/137/78 135/135/8 136/136/8
f 138/138/78 137/137/78 136/136/8
f 139/139/79 137/137/78 138/138/78
f 140/140/79 139/139/79 138/138/78
f 143/141/80 142/142/81 141/143/81
f 144/144/80 143/141/80 141/143/81
f 145/145/13 143/141/80 144/144/80
f 146/146/13 145/145/13 144/144/80
f 147/147/82 145/145/13 146/146/13
f 148/148/82 147/147/82 146/146/13
f 149/149/28 147/147/82 148/148/82
f 150/150/28 149/149/28 148/148/82
f 153/151/83 152/152/84 151/153/84
f 154/154/83 153/151/83 151/153/84
f 155/155/18 153/151/83 154/154/83
f 156/156/18 155/155/18 154/154/83
f 157/157/85 155/155/18 156/156/18
f 158/158/85 157/157/85 156/156/18
f 159/159/86 157/157/85 158/158/85
f 160/160/86 159/159/86 158/158/85
f 163/161/87 162/162/88 161/163/89
f 161/163/89 162/162/88 164/164/90
f 165/165/91 163/161/87 161/163/89
f 162/162/88 166/166/92 164/164/90
f 167/167/93 163/161/87 165/165/91
f 164/164/90 166/166/92 168/168/94
f 169/169/95 167/167/93 165/165/91
f 166/166/92 170/170/96 168/168/94
f 171/171/97 167/167/93 169/169/95
f 168/168/94 170/170/96 172/172/98
f 173/173/99 171/171/97 169/169/95
f 170/170/96 174/174/100 172/172/98
f 175/175/101 171/171/97 173/173/99
f 172/172/98 174/174/100 176/176/102
f 177/177/103 175/175/101 173/173/99
f 174/174/100 178/178/104 176/176/102
f 179/179/105 175/175/101 177/177/103
f 176/176/102 178/178/104 180/180/106
f 181/181/107 179/179/105 177/177/103
f 178/178/104 182/182/108 180/180/106
f 183/183/109 179/179/105 181/181/107
f 180/180/106 182/182/108 184/184/110
f 185/185/111 183/183/109 181/181/107
f 182/182/108 186/186/112 184/184/110
f 187/187/113 183/183/109 185/185/111
f 184/184/110 186/186/112 188/188/114
f 189/189/115 187/187/113 185/185/111
f 186/186/112 190/190/116 188/188/114
f 191/191/117 187/187/113 189/189/115
f 188/188/114 190/190/116 192/192/118
f 192/192/118 191/191/117 189/189/115
f 190/190/116 191/191/117 192/192/118
f 195/193/119 194/194/120 193/195/120
f 193/195/120 194/194/120 196/196/121
f 197/197/119 195/193/119 193/195/120
f 194/194/120 198/198/121 196/196/121
f 199/199/122 195/193/119 197/197/119
f 196/196/121 198/198/121 200/200/123
f 201/201/122 199/199/122 197/197/119
f 198/198/121 202/202/123 200/200/123
f 203/203/124 199/199/122 201/201/122
f 200/200/123 202/202/123 204/204/125
f 205/205/124 203/203/124 201/201/122
f 202/202/123 206/206/125 204/204/125
f 207/207/126 203/203/124 205/205/124
f 204/204/125 206/206/125 208/208/127
f 209/209/126 207/207/126 205/205/124
f 206/206/125 210/210/127 208/208/127
f 211/211/128 207/207/126 209/209/126
f 208/208/127 210/210/127 212/212/129
f 213/213/128 211/211/128 209/209/126
f 210/210/127 214/214/129 212/212/129
f 215/215/130 211/211/128 213/213/128
f 212/212/129 214/214/129 216/216/131
f 217/217/130 215/215/130 213/213/128
f 214/214/129 218/218/131 216/216/131
f 219/219/132 215/215/130 217/217/130
f 216/216/131 218/218/131 220/220/133
f 221/221/132 219/219/132 217/217/130
f 218/218/131 222/222/133 220/220/133
f 223/223/134 219/219/132 221/221/132
f 220/220/133 222/222/133 224/224/134
f 224/224/134 223/223/134 221/221/132
f 222/222/133 223/223/134 224/224/134
f 227/225/135 226/226/136 225/227/136
f 225/227/136 226/226/136 228/228/137
f 229/229/135 227/225/135 225/227/136
f 226/226/136 230/230/137 228/228/137
f 231/231/138 227/225/135 229/229/135
f 228/228/137 230/230/137 232/232/139
f 233/233/138 231/231/138 229/229/135
f 230/230/137 234/234/139 232/232/139
f 235/235/140 231/231/138 233/233/138
f 232/232/139 234/234/139 236/236/141
f 237/237/140 235/235/140 233/233/138
f 234/234/139 238/238/141 236/236/141
f 239/239/142 235/235/140 237/237/140
f 236/236/141 238/238/141 240/240/143
f 241/241/142 239/239/142 237/237/140
f 238/238/141 242/242/143 240/240/143
f 243/243/144 239/239/142 241/241/142
f 240/240/143 242/242/143 244/244/145
f 245/245/144 243/243/144 241/241/142
f 242/242/143 246/246/145 244/244/145
f 247/247/146 243/243/144 245/245/144
f 244/244/145 246/246/145 248/248/147
f 249/249/146 247/247/146 245/245/144
f 246/246/145 250/250/148 248/248/147
f 251/251/149 247/247/146 249/249/146
f 248/248/147 250/250/148 252/252/150
f 253/253/149 251/251/149 249/249/146
f 250/250/148 254/254/150 252/252/150
f 255/255/151 251/251/149 253/253/149
f 252/252/150 254/254/150 256/256/151
f 256/256/151 255/255/151 253/253/149
f 254/254/150 255/255/151 256/256/151
f 259/257/152 258/258/153 257/259/154
f 257/259/154 258/258/153 260/260/155
f 261/261/152 259/257/152 257/259/154
f 258/258/153 262/262/155 260/260/155
f 263/263/156 259/257/152 261/261/152
f 260/260/155 262/262/155 264/264/157
f 265/265/158 263/263/156 261/261/152
f 262/262/155 266/266/159 264/264/157
f 267/267/160 263/263/156 265/265/158
f 264/264/157 266/266/159 268/268/161
f 269/269/160 267/267/160 265/265/158
f 266/266/159 270/270/162 268/268/161
f 271/271/163 267/267/160 269/269/160
f 268/268/161 270/270/162 272/272/164
f 273/273/165 271/271/163 269/269/160
f 270/270/162 274/274/166 272/272/164
f 275/275/167 271/271/163 273/273/165
f 272/272/164 274/274/166 276/276/168
f 277/277/169 275/275/167 273/273/165
f 274/274/166 278/278/168 276/276/168
f 279/279/170 275/275/167 277/277/169
f 276/276/168 278/278/168 280/280/171
f 281/281/172 279/279/170 277/277/169
f 278/278/168 282/282/173 280/280/171
f 283/283/174 279/279/170 281/281/172
f 280/280/171 282/282/173 284/284/175
f 285/285/174 283/283/174 281/281/172
f 282/282/173 286/286/176 284/284/175
f 287/287/177 283/283/174 285/285/174
f 284/284/175 286/286/176 288/288/178
f 288/288/178 287/287/177 285/285/174
f 286/286/176 287/287/177 288/288/178
f 291/289/179 290/290/180 289/291/180
f 289/291/180 290/290/180 292/292/181
f 293/293/179 291/289/179 289/291/180
f 290/290/180 294/294/181 292/292/181
f 295/295/182 291/289/179 293/293/179
f 292/292/181 294/294/181 296/296/183
f 297/297/182 295/295/182 293/293/179
f 294/294/181 298/298/183 296/296/183
f 299/299/184 295/295/182 297/297/182
f 296/296/183 298/298/183 300/300/185
f 301/301/184 299/299/184 297/297/182
f 298/298/183 302/302/185 300/300/185
f 303/303/186 299/299/184 301/301/184
f 300/300/185 302/302/185 304/304/187
f 305/305/186 303/303/186 301/301/184
f 302/302/185 306/306/187 304/304/187
f 307/307/188 303/303/186 305/305/186
f 304/304/187 306/306/187 308/308/189
f 309/309/188 307/307/188 305/305/186
f 306/306/187 310/310/189 308/308/189
f 311/311/190 307/307/188 309/309/188
f 308/308/189 310/310/189 312/312/191
f 313/313/190 311/311/190 309/309/188
f 310/310/189 314/314/191 312/312/191
f 315/315/192 311/311/190 313/313/190
f 312/312/191 314/314/191 316/316/193
f 317/317/192 315/315/192 313/313/190
f 314/314/191 318/318/193 316/316/193
f 319/319/194 315/315/192 317/317/192
f 316/316/193 318/318/193 320/320/194
f 320/320/194 319/319/194 317/317/192
f 318/318/193 319/319/194 320/320/194
f 3/1/1 2/2/2 1/3/2
f 4/4/1 3/1/1 1/3/2
f 5/5/3 3/1/1 4/4/1
f 6/6/3 5/5/3 4/4/1
f 7/7/4 5/5/3 6/6/3
f 8/8/4 7/7/4 6/6/3
f 9/9/5 7/7/4 8/8/4
f 10/10/5 9/9/5 8/8/4
f 13/11/6 12/12/7 11/13/7
f 14/14/6 13/11/6 11/13/7
f 15/15/8 13/11/6 14/14/6
f 16/16/8 15/15/8 14/14/6
f 17/17/9 15/15/8 16/16/8
f 18/18/9 17/17/9 16/16/8
f 19/19/10 17/17/9 18/18/9
f 20/20/10 19/19/10 18/18/9
f 23/21/11 22/22/12 21/23/12
f 24/24/11 23/21/11 21/23/12
f 25/25/13 23/21/11 24/24/11
f 26/26/13 25/25/13 24/24/11
f 27/27/14 25/25/13 26/26/13
f 28/28/14 27/27/14 26/26/13
f 29/29/15 27/27/14 28/28/14
f 30/30/15 29/29/15 28/28/14
f 33/31/16 32/32/17 31/33/17
f 34/34/16 33/31/16 31/33/17
f 35/35/18 33/31/16 34/34/16
f 36/36/18 35/35/18 34/34/16
f 37/37/19 35/35/18 36/36/18
f 38/38/19 37/37/19 36/36/18
f 39/39/20 37/37/19 38/38/19
f 40/40/20 39/39/20 38/38/19
f 43/41/21 42/42/21 41/43/22
f 42/42/21 44/44/22 41/43/22
f 41/43/22 44/44/22 45/45/8
f 44/44/22 46/46/8 45/45/8
f 45/45/8 46/46/8 47/47/23
f 46/46/8 48/48/23 47/47/23
f 47/47/23 48/48/23 49/49/24
f 48/48/23 50/50/24 49/49/24
f 53/51/25 52/52/26 51/53/26
f 54/54/25 53/51/25 51/53/26
f 55/55/13 53/51/25 54/54/25
f 56/56/13 55/55/13 54/54/25
f 57/57/27 55/55/13 56/56/13
f 58/58/27 57/57/27 56/56/13
f 59/59/28 57/57/27 58/58/27
f 60/60/28 59/59/28 58/58/27
f 63/61/29 62/62/30 61/63/30
f 64/64/29 63/61/29 61/63/30
f 65/65/18 63/61/29 64/64/29
f 66/66/18 65/65/18 64/64/29
f 67/67/31 65/65/18 66/66/18
f 68/68/31 67/67/31 66/66/18
f 69/69/32 67/67/31 68/68/31
f 70/70/32 69/69/32 68/68/31
f 73/71/33 72/72/34 71/73/34
f 74/74/33 73/71/33 71/73/34
f 75/75/3 73/71/33 74/74/33
f 76/76/3 75/75/3 74/74/33
f 77/77/35 75/75/3 76/76/3
f 78/78/35 77/77/35 76/76/3
f 79/79/36 77/77/35 78/78/35
f 80/80/36 79/79/36 78/78/35
f 83/81/37 82/82/38 81/83/39
f 82/82/38 84/84/40 81/83/39
f 81/83/39 84/84/40 85/85/41
f 84/84/40 86/86/41 85/85/41
f 85/85/41 86/86/41 87/87/42
f 86/86/41 88/88/43 87/87/42
f 87/87/42 88/88/43 89/89/44
f 88/88/43 90/90/45 89/89/44
f 93/91/46 92/92/47 91/93/48
f 94/94/49 93/91/46 91/93/48
f 95/95/50 93/91/46 94/94/49
f 96/96/50 95/95/50 94/94/49
f 97/97/51 95/95/50 96/96/50
f 98/98/52 97/97/51 96/96/50
f 99/99/53 97/97/51 98/98/52
f 100/100/54 99/99/53 98/98/52
f 103/101/55 102/102/56 101/103/57
f 104/104/58 103/101/55 101/103/57
f 105/105/59 103/101/55 104/104/58
f 106/106/59 105/105/59 104/104/58
f 107/107/60 105/105/59 106/106/59
f 108/108/61 107/107/60 106/106/59
f 109/109/62 107/107/60 108/108/61
f 110/110/63 109/109/62 108/108/61
f 113/111/64 112/112/65 111/113/66
f 114/114/67 113/111/64 111/113/66
f 115/115/68 113/111/64 114/114/67
f 116/116/68 115/115/68 114/114/67
f 117/117/69 115/115/68 116/116/68
f 118/118/70 117/117/69 116/116/68
f 119/119/71 117/117/69 118/118/70
f 120/120/72 119/119/71 118/118/70
f 123/121/73 122/122/74 121/123/74
f 124/124/73 123/121/73 121/123/74
f 125/125/3 123/121/73 124/124/73
f 126/126/3 125/125/3 124/124/73
f 127/127/75 125/125/3 126/126/3
f 128/128/75 127/127/75 126/126/3
f 129/129/36 127/127/75 128/128/75
f 130/130/36 129/129/36 128/128/75
f 133/131/76 132/132/77 131/133/77
f 134/134/76 133/131/76 131/133/77
f 135/135/8 133/131/76 134/134/76
f 136/136/8 135/135/8 134/134/76
f 137/137/78 135/135/8 136/136/8
f 138/138/78 137/137/78 136/136/8
f 139/139/79 137/137/78 138/138/78
f 140/140/79 139/139/79 138/138/78
f 143/141/80 142/142/81 141/143/81
f 144/144/80 143/141/80 141/143/81
f 145/145/13 143/141/80 144/144/80
f 146/146/13 145/145/13 144/144/80
f 147/147/82 145/145/13 146/146/13
f 148/148/82 147/147/82 146/146/13
f 149/149/28 147/147/82 148/148/82
f 150/150/28 149/149/28 148/148/82
f 153/151/83 152/152/84 151/153/84
f 154/154/83 153/151/83 151/153/84
f 155/155/18 153/151/83 154/154/83
f 156/156/18 155/155/18 154/154/83
f 157/157/85 155/155/18 156/156/18
f 158/158/85 157/157/85 156/156/18
f 159/159/86 157/157/85 158/158/85
f 160/160/86 159/159/86 158/158/85
f 163/161/87 162/162/88 161/163/89
f 161/163/89 162/162/88 164/164/90
f 165/165/91 163/161/87 161/163/89
f 162/162/88 166/166/92 164/164/90
f 167/167/93 163/161/87 165/165/91
f 164/164/90 166/166/92 168/168/94
f 169/169/95 167/167/93 165/165/91
f 166/166/92 170/170/96 168/168/94
f 171/171/97 167/167/93 169/169/95
f 168/168/94 170/170/96 172/172/98
f 173/173/99 171/171/97 169/169/95
f 170/170/96 174/174/100 172/172/98
f 175/175/101 171/171/97 173/173/99
f 172/172/98 174/174/100 176/176/102
f 177/177/103 175/175/101 173/173/99
f 174/174/100 178/178/104 176/176/102
f 179/179/105 175/175/101 177/177/103
f 176/176/102 178/178/104 180/180/106
f 181/181/107 179/179/105 177/177/103
f 178/178/104 182/182/108 180/180/106
f 183/183/109 179/179/105 181/181/107
f 180/180/106 182/182/108 184/184/110
f 185/185/111 183/183/109 181/181/107
f 182/182/108 186/186/112 184/184/110
f 187/187/113 183/183/109 185/185/111
f 184/184/110 186/186/112 188/188/114
f 189/189/115 187/187/113 185/185/111
f 186/186/112 190/190/116 188/188/114
f 191/191/117 187/187/113 189/189/115
f 188/188/114 190/190/116 192/192/118
f 192/192/118 191/191/117 189/189/115
f 190/190/116 191/191/117 192/192/118
f 195/193/119 194/194/120 193/195/120
f 193/195/120 194/194/120 196/196/121
f 197/197/119 195/193/119 193/195/120
f 194/194/120 198/198/121 196/196/121
f 199/199/122 195/193/119 197/197/119
f 196/196/121 198/198/121 200/200/123
f 201/201/122 199/199/122 197/197/119
f 198/198/121 202/202/123 200/200/123
f 203/203/124 199/199/122 201/201/122
f 200/200/123 202/202/123 204/204/125
f 205/205/124 203/203/124 201/201/122
f 202/202/123 206/206/125 204/204/125
f 207/207/126 203/203/124 205/205/124
f 204/204/125 206/206/125 208/208/127
f 209/209/126 207/207/126 205/205/124
f 206/206/125 210/210/127 208/208/127
f 211/211/128 207/207/126 209/209/126
f 208/208/127 210/210/127 212/212/129
f 213/213/128 211/211/128 209/209/126
f 210/210/127 214/214/129 212/212/129
f 215/215/130 211/211/128 213/213/128
f 212/212/129 214/214/129 216/216/131
f 217/217/130 215/215/130 213/213/128
f 214/214/129 218/218/131 216/216/131
f 219/219/132 215/215/130 217/217/130
f 216/216/131 218/218/131 220/220/133
f 221/221/132 219/219/132 217/217/130
f 218/218/131 222/222/133 220/220/133
f 223/223/134 219/219/132 221/221/132
f 220/220/133 222/222/133 224/224/134
f 224/224/134 223/223/134 221/221/132
f 222/222/133 223/223/134 224/224/134
f 227/225/135 226/226/136 225/227/136
f 225/227/136 226/226/136 228/228/137
f 229/229/135 227/225/135 225/227/136
f 226/226/136 230/230/137 228/228/137
f 231/231/138 227/225/135 229/229/135
f 228/228/137 230/230/137 232/232/139
f 233/233/138 231/231/138 229/229/135
f 230/230/137 234/234/139 232/232/139
f 235/235/140 231/231/138 233/233/138
f 232/232/139 234/234/139 236/236/141
f 237/237/140 235/235/140 233/233/138
f 234/234/139 238/238/141 236/236/141
f 239/239/142 235/235/140 237/237/140
f 236/236/141 238/238/141 240/240/143
f 241/241/142 239/239/142 237/237/140
f 238/238/141 242/242/143 240/240/143
f 243/243/144 239/239/142 241/241/142
f 240/240/143 242/242/143 244/244/145
f 245/245/144 243/243/144 241/241/142
f 242/242/143 246/246/145 244/244/145
f 247/247/146 243/243/144 245/245/144
f 244/244/145 246/246/145 248/248/147
f 249/249/146 247/247/146 245/245/144
f 246/246/145 250/250/148 248/248/147
f 251/251/149 247/247/146 249/249/146
f 248/248/147 250/250/148 252/252/150
f 253/253/149 251/251/149 249/249/146
f 250/250/148 254/254/150 252/252/150
f 255/255/151 251/251/149 253/253/149
f 252/252/150 254/254/150 256/256/151
f 256/256/151 255/255/151 253/253/149
f 254/254/150 255/255/151 256/256/151
f 259/257/152 258/258/153 257/259/154
f 257/259/154 258/258/153 260/260/155
f 261/261/152 259/257/152 257/259/154
f 258/258/153 262/262/155 260/260/155
f 263/263/156 259/257/152 261/261/152
f 260/260/155 262/262/155 264/264/157
f 265/265/158 263/263/156 261/261/152
f 262/262/155 266/266/159 264/264/157
f 267/267/160 263/263/156 265/265/158
f 264/264/157 266/266/159 268/268/161
f 269/269/160 267/267/160 265/265/158
f 266/266/159 270/270/162 268/268/161
f 271/271/163 267/267/160 269/269/160
f 268/268/161 270/270/162 272/272/164
f 273/273/165 271/271/163 269/269/160
f 270/270/162 274/274/166 272/272/164
f 275/275/167 271/271/163 273/273/165
f 272/272/164 274/274/166 276/276/168
f 277/277/169 275/275/167 273/273/165
f 274/274/166 278/278/168 276/276/168
f 279/279/170 275/275/167 277/277/169
f 276/276/168 278/278/168 280/280/171
f 281/281/172 279/279/170 277/277/169
f 278/278/168 282/282/173 280/280/171
f 283/283/174 279/279/170 281/281/172
f 280/280/171 282/282/173 284/284/175
f 285/285/174 283/283/174 281/281/172
f 282/282/173 286/286/176 284/284/175
f 287/287/177 283/283/174 285/285/174
f 284/284/175 286/286/176 288/288/178
f 288/288/178 287/287/177 285/285/174
f 286/286/176 287/287/177 288/288/178
f 291/289/179 290/290/180 289/291/180
f 289/291/180 290/290/180 292/292/181
f 293/293/179 291/289/179 289/291/180
f 290/290/180 294/294/181 292/292/181
f 295/295/182 291/289/179 293/293/179
f 292/292/181 294/294/181 296/296/183
f 297/297/182 295/295/182 293/293/179
f 294/294/181 298/298/183 296/296/183
f 299/299/184 295/295/182 297/297/182
f 296/296/183 298/298/183 300/300/185
f 301/301/184 299/299/184 297/297/182
f 298/298/183 302/302/185 300/300/185
f 303/303/186 299/299/184 301/301/184
f 300/300/185 302/302/185 304/304/187
f 305/305/186 303/303/186 301/301/184
f 302/302/185 306/306/187 304/304/187
f 307/307/188 303/303/186 305/305/186
f 304/304/187 306/306/187 308/308/189
f 309/309/188 307/307/188 305/305/186
f 306/306/187 310/310/189 308/308/189
f 311/311/190 307/307/188 309/309/188
f 308/308/189 310/310/189 312/312/191
f 313/313/190 311/311/190 309/309/188
f 310/310/189 314/314/191 312/312/191
f 315/315/192 311/311/190 313/313/190
f 312/312/191 314/314/191 316/316/193
f 317/317/192 315/315/192 313/313/190
f 314/314/191 318/318/193 316/316/193
f 319/319/194 315/315/192 317/317/192
f 316/316/193 318/318/193 320/320/194
f 320/320/194 319/319/194 317/317/192
f 318/318/193 319/319/194 320/320/194
