# Blender 3.6.0
# www.blender.org
o LightFixture2_24118f26_LightFixture2_24118f26_0
v 0.072670 1.877700 0.011330
v 0.079080 1.877700 0.020930
v 0.055960 1.790650 0.044050
v 0.042460 1.790650 0.023840
v 0.070420 1.877700 -0.000000
v 0.037720 1.790650 -0.000000
v 0.072670 1.877700 -0.011320
v 0.042460 1.790650 -0.023830
v 0.079080 1.877700 -0.020920
v 0.055960 1.790650 -0.044040
v 0.088680 1.877700 -0.027330
v 0.079080 1.877700 -0.020920
v 0.055960 1.790650 -0.044040
v 0.076170 1.790650 -0.057540
v 0.100000 1.877700 -0.029580
v 0.100000 1.790650 -0.062280
v 0.111330 1.877700 -0.027330
v 0.123840 1.790650 -0.057540
v 0.120930 1.877700 -0.020920
v 0.144050 1.790650 -0.044040
v 0.127340 1.877700 -0.011320
v 0.120930 1.877700 -0.020920
v 0.144050 1.790650 -0.044040
v 0.157550 1.790650 -0.023830
v 0.129590 1.877700 -0.000000
v 0.162290 1.790650 -0.000000
v 0.127340 1.877700 0.011330
v 0.157550 1.790650 0.023840
v 0.120930 1.877700 0.020930
v 0.144050 1.790650 0.044050
v 0.111330 1.877700 0.027340
v 0.120930 1.877700 0.020930
v 0.144050 1.790650 0.044050
v 0.123840 1.790650 0.057550
v 0.100000 1.877700 0.029590
v 0.100000 1.790650 0.062290
v 0.088680 1.877700 0.027340
v 0.076170 1.790650 0.057550
v 0.079080 1.877700 0.020930
v 0.055960 1.790650 0.044050
v 0.100000 1.789260 -0.060890
v 0.076700 1.789260 -0.056250
v 0.077320 1.789340 -0.054770
v 0.056950 1.789260 -0.043050
v 0.100000 1.789340 -0.059280
v 0.058080 1.789340 -0.041920
v 0.122690 1.789340 -0.054770
v 0.123310 1.789260 -0.056250
v 0.043750 1.789260 -0.023300
v 0.045230 1.789340 -0.022680
v 0.143060 1.789260 -0.043050
v 0.141930 1.789340 -0.041920
v 0.154780 1.789340 -0.022680
v 0.156260 1.789260 -0.023300
v 0.040720 1.789340 -0.000000
v 0.039110 1.789260 -0.000000
v 0.159290 1.789340 -0.000000
v 0.160900 1.789260 -0.000000
v 0.156260 1.789260 0.023310
v 0.154780 1.789340 0.022690
v 0.043750 1.789260 0.023310
v 0.045230 1.789340 0.022690
v 0.058080 1.789340 0.041930
v 0.056950 1.789260 0.043060
v 0.143060 1.789260 0.043060
v 0.141930 1.789340 0.041930
v 0.077320 1.789340 0.054780
v 0.076700 1.789260 0.056260
v 0.122690 1.789340 0.054780
v 0.123310 1.789260 0.056260
v 0.100000 1.789260 0.060900
v 0.100000 1.789340 0.059290
v 0.081780 1.877800 0.018230
v 0.076190 1.877800 0.009870
v 0.046390 1.790850 0.022210
v 0.058970 1.790850 0.041040
v 0.090140 1.877800 0.023820
v 0.041970 1.790850 -0.000000
v 0.074230 1.877800 -0.000000
v 0.077800 1.790850 0.053620
v 0.100000 1.877800 0.025780
v 0.046390 1.790850 -0.022200
v 0.076190 1.877800 -0.009860
v 0.100000 1.790850 0.058040
v 0.109870 1.877800 0.023820
v 0.058970 1.790850 -0.041030
v 0.081780 1.877800 -0.018220
v 0.122210 1.790850 0.053620
v 0.118230 1.877800 0.018230
v 0.077800 1.790850 -0.053610
v 0.090140 1.877800 -0.023810
v 0.141040 1.790850 0.041040
v 0.123820 1.877800 0.009870
v 0.100000 1.790850 -0.058030
v 0.100000 1.877800 -0.025770
v 0.153620 1.790850 0.022210
v 0.125780 1.877800 -0.000000
v 0.122210 1.790850 -0.053610
v 0.109870 1.877800 -0.023810
v 0.158040 1.790850 -0.000000
v 0.123820 1.877800 -0.009860
v 0.141040 1.790850 -0.041030
v 0.118230 1.877800 -0.018220
v 0.153620 1.790850 -0.022200
v 0.077320 1.789340 -0.054770
v 0.100000 1.789340 -0.059280
v 0.058080 1.789340 -0.041920
v 0.122690 1.789340 -0.054770
v 0.141930 1.789340 -0.041920
v 0.045230 1.789340 -0.022680
v 0.154780 1.789340 -0.022680
v 0.159290 1.789340 -0.000000
v 0.040720 1.789340 -0.000000
v 0.154780 1.789340 0.022690
v 0.045230 1.789340 0.022690
v 0.141930 1.789340 0.041930
v 0.058080 1.789340 0.041930
v 0.122690 1.789340 0.054780
v 0.077320 1.789340 0.054780
v 0.100000 1.789340 0.059290
v 0.055960 1.790650 0.044050
v 0.056950 1.789260 0.043060
v 0.043750 1.789260 0.023310
v 0.042460 1.790650 0.023840
v 0.076170 1.790650 0.057550
v 0.039110 1.789260 -0.000000
v 0.076700 1.789260 0.056260
v 0.037720 1.790650 -0.000000
v 0.100000 1.790650 0.062290
v 0.043750 1.789260 -0.023300
v 0.100000 1.789260 0.060900
v 0.042460 1.790650 -0.023830
v 0.123840 1.790650 0.057550
v 0.056950 1.789260 -0.043050
v 0.123310 1.789260 0.056260
v 0.055960 1.790650 -0.044040
v 0.144050 1.790650 0.044050
v 0.076700 1.789260 -0.056250
v 0.143060 1.789260 0.043060
v 0.076170 1.790650 -0.057540
v 0.157550 1.790650 0.023840
v 0.100000 1.789260 -0.060890
v 0.156260 1.789260 0.023310
v 0.100000 1.790650 -0.062280
v 0.162290 1.790650 -0.000000
v 0.123310 1.789260 -0.056250
v 0.160900 1.789260 -0.000000
v 0.123840 1.790650 -0.057540
v 0.157550 1.790650 -0.023830
v 0.143060 1.789260 -0.043050
v 0.156260 1.789260 -0.023300
v 0.144050 1.790650 -0.044040
vn -0.7803 0.3457 0.5212
vn -0.7804 0.3457 0.5211
vn -0.8650 0.3516 0.3580
vn -0.8649 0.3516 0.3581
vn -0.9361 0.3516 -0.0001
vn -0.9361 0.3516 -0.0000
vn -0.8650 0.3516 -0.3580
vn -0.8649 0.3516 -0.3582
vn -0.7804 0.3457 -0.5211
vn -0.7803 0.3457 -0.5212
vn -0.5212 0.3457 -0.7803
vn -0.5211 0.3457 -0.7804
vn -0.3581 0.3516 -0.8650
vn -0.3582 0.3516 -0.8649
vn -0.0001 0.3516 -0.9361
vn -0.0000 0.3516 -0.9361
vn 0.3580 0.3517 -0.8650
vn 0.3581 0.3516 -0.8649
vn 0.5211 0.3457 -0.7804
vn 0.5212 0.3457 -0.7803
vn 0.7803 0.3457 -0.5212
vn 0.7804 0.3457 -0.5211
vn 0.8650 0.3516 -0.3581
vn 0.8649 0.3516 -0.3582
vn 0.9361 0.3516 -0.0001
vn 0.9361 0.3516 -0.0000
vn 0.8650 0.3517 0.3580
vn 0.8649 0.3516 0.3581
vn 0.7804 0.3457 0.5211
vn 0.7803 0.3457 0.5212
vn 0.5212 0.3457 0.7803
vn 0.5211 0.3457 0.7804
vn 0.3580 0.3516 0.8650
vn 0.3581 0.3516 0.8649
vn -0.0001 0.3516 0.9361
vn -0.0000 0.3516 0.9361
vn -0.3580 0.3516 0.8650
vn -0.3582 0.3516 0.8649
vn -0.5211 0.3457 0.7804
vn -0.5212 0.3457 0.7803
vn 0.0190 -0.9988 0.0460
vn 0.0191 -0.9988 0.0460
vn -0.0000 -0.9988 0.0497
vn 0.0353 -0.9987 0.0354
vn -0.0190 -0.9988 0.0459
vn -0.0191 -0.9988 0.0459
vn 0.0460 -0.9988 0.0191
vn 0.0460 -0.9988 0.0190
vn -0.0353 -0.9987 0.0354
vn -0.0353 -0.9987 0.0355
vn -0.0460 -0.9988 0.0190
vn 0.0496 -0.9988 -0.0000
vn -0.0496 -0.9988 -0.0000
vn -0.0460 -0.9988 -0.0190
vn 0.0460 -0.9988 -0.0191
vn 0.0460 -0.9988 -0.0190
vn 0.0353 -0.9987 -0.0354
vn -0.0353 -0.9987 -0.0354
vn 0.0190 -0.9988 -0.0460
vn 0.0191 -0.9988 -0.0460
vn -0.0190 -0.9988 -0.0459
vn -0.0191 -0.9988 -0.0459
vn -0.0000 -0.9988 -0.0497
vn 0.7947 -0.5100 -0.3292
vn 0.8662 -0.3478 -0.3588
vn 0.6630 -0.3478 -0.6629
vn 0.6080 -0.5106 -0.6080
vn 0.3589 -0.3478 -0.8662
vn 0.8607 -0.5091 0.0001
vn 0.9376 -0.3478 0.0001
vn 0.3292 -0.5100 -0.7947
vn 0.0001 -0.3478 -0.9376
vn 0.7947 -0.5100 0.3292
vn 0.8662 -0.3478 0.3589
vn 0.0001 -0.5091 -0.8607
vn -0.3588 -0.3478 -0.8662
vn 0.6080 -0.5106 0.6080
vn 0.6629 -0.3478 0.6630
vn -0.3292 -0.5100 -0.7947
vn -0.6629 -0.3478 -0.6630
vn 0.3292 -0.5100 0.7946
vn 0.3589 -0.3478 0.8661
vn -0.6080 -0.5106 -0.6080
vn -0.8662 -0.3478 -0.3588
vn -0.0000 -0.5091 0.8607
vn 0.0001 -0.3478 0.9376
vn -0.7947 -0.5100 -0.3291
vn -0.9376 -0.3478 0.0001
vn -0.3291 -0.5099 0.7948
vn -0.3588 -0.3478 0.8662
vn -0.8607 -0.5091 -0.0000
vn -0.8661 -0.3478 0.3589
vn -0.6080 -0.5106 0.6080
vn -0.6630 -0.3478 0.6629
vn -0.7947 -0.5100 0.3292
vn 0.2943 -0.6393 0.7104
vn -0.0001 -0.6377 0.7703
vn 0.5432 -0.6402 0.5431
vn -0.2942 -0.6393 0.7105
vn -0.5432 -0.6403 0.5432
vn 0.7104 -0.6393 0.2942
vn -0.7105 -0.6392 0.2943
vn -0.7703 -0.6377 -0.0001
vn 0.7703 -0.6377 0.0001
vn -0.7105 -0.6393 -0.2942
vn 0.7105 -0.6392 -0.2943
vn -0.5432 -0.6403 -0.5431
vn 0.5432 -0.6403 -0.5432
vn -0.2942 -0.6392 -0.7105
vn 0.2942 -0.6393 -0.7104
vn 0.0001 -0.6377 -0.7703
vn -0.6521 -0.7083 0.2703
vn -0.4981 -0.7096 0.4983
vn -0.4982 -0.7096 0.4983
vn -0.6523 -0.7082 0.2700
vn -0.2700 -0.7083 0.6522
vn -0.7071 -0.7071 -0.0001
vn -0.2704 -0.7082 0.6521
vn -0.7071 -0.7072 -0.0001
vn -0.0001 -0.7071 0.7071
vn -0.6521 -0.7083 -0.2704
vn -0.6522 -0.7083 -0.2700
vn 0.2700 -0.7083 0.6522
vn -0.4983 -0.7096 -0.4982
vn 0.2703 -0.7084 0.6520
vn 0.4983 -0.7096 0.4982
vn -0.2704 -0.7083 -0.6520
vn -0.2700 -0.7083 -0.6522
vn 0.6522 -0.7083 0.2700
vn 0.0001 -0.7072 -0.7070
vn 0.6521 -0.7083 0.2704
vn -0.0000 -0.7072 -0.7070
vn 0.7071 -0.7072 -0.0000
vn 0.2704 -0.7082 -0.6522
vn 0.7071 -0.7071 -0.0000
vn 0.2700 -0.7083 -0.6522
vn 0.6523 -0.7082 -0.2700
vn 0.4982 -0.7096 -0.4983
vn 0.6521 -0.7083 -0.2703
vt 4.441673 -9.376214
vt 4.235301 -8.590035
vt 4.149633 -8.590035
vt 4.261319 -9.376214
vt 4.048584 -8.590035
vt 4.048584 -9.376214
vt 3.947534 -8.590035
vt 3.835848 -9.376214
vt 3.861866 -8.590035
vt 3.655494 -9.376214
vt 4.441673 -8.570381
vt 4.235301 -7.784202
vt 4.149633 -7.784202
vt 4.261320 -8.570381
vt 4.048584 -7.784202
vt 4.048584 -8.570381
vt 3.947533 -7.784202
vt 3.835846 -8.570381
vt 3.861866 -7.784202
vt 3.655494 -8.570381
vt 3.635839 -9.376214
vt 3.429468 -8.590035
vt 3.343800 -8.590035
vt 3.455486 -9.376214
vt 3.242750 -8.590035
vt 3.242750 -9.376214
vt 3.141701 -8.590035
vt 3.030015 -9.376214
vt 3.056032 -8.590035
vt 2.849661 -9.376214
vt 3.635839 -8.570381
vt 3.429467 -7.784202
vt 3.343800 -7.784202
vt 3.455487 -8.570381
vt 3.242750 -7.784202
vt 3.242750 -8.570381
vt 3.141700 -7.784202
vt 3.030014 -8.570381
vt 3.056032 -7.784202
vt 2.849661 -8.570381
vt 2.087627 -9.310519
vt 2.082262 -9.323479
vt 2.285823 -9.363968
vt 1.909688 -9.208172
vt 2.285823 -9.349941
vt 1.919606 -9.198255
vt 2.484021 -9.310519
vt 2.489385 -9.323479
vt 1.794377 -9.035595
vt 1.807336 -9.030227
vt 2.661958 -9.208172
vt 2.652040 -9.198255
vt 2.764310 -9.030227
vt 2.777268 -9.035595
vt 1.767912 -8.832031
vt 1.753886 -8.832031
vt 2.803734 -8.832031
vt 2.817760 -8.832031
vt 2.777268 -8.628468
vt 2.764310 -8.633836
vt 1.794377 -8.628468
vt 1.807336 -8.633836
vt 1.919606 -8.465808
vt 1.909688 -8.455891
vt 2.661958 -8.455891
vt 2.652040 -8.465808
vt 2.087627 -8.353543
vt 2.082262 -8.340584
vt 2.484021 -8.353543
vt 2.489385 -8.340584
vt 2.285823 -8.300095
vt 2.285823 -8.314121
vt 1.817450 -8.638024
vt 2.077807 -8.745868
vt 2.126615 -8.672820
vt 1.927347 -8.473549
vt 2.199660 -8.624015
vt 1.778860 -8.832031
vt 2.060668 -8.832031
vt 2.091816 -8.363658
vt 2.285823 -8.606876
vt 1.817450 -9.026037
vt 2.077807 -8.918195
vt 2.285823 -8.325069
vt 2.371987 -8.624015
vt 1.927347 -9.190514
vt 2.126615 -8.991242
vt 2.479831 -8.363658
vt 2.445031 -8.672820
vt 2.091816 -9.300405
vt 2.199660 -9.040048
vt 2.644298 -8.473549
vt 2.493839 -8.745868
vt 2.285823 -9.338993
vt 2.285823 -9.057186
vt 2.754196 -8.638024
vt 2.510978 -8.832031
vt 2.479831 -9.300405
vt 2.371987 -9.040048
vt 2.792786 -8.832031
vt 2.493839 -8.918195
vt 2.644298 -9.190514
vt 2.445031 -8.991242
vt 2.754196 -9.026037
vt 1.901075 -8.447278
vt 1.783124 -8.623807
vt 2.077601 -8.329330
vt 1.741706 -8.832031
vt 2.285823 -8.287914
vt 1.783124 -9.040256
vt 2.494046 -8.329330
vt 1.901075 -9.216784
vt 2.670571 -8.447278
vt 2.077601 -9.334732
vt 2.788522 -8.623807
vt 2.285823 -9.376148
vt 2.829940 -8.832031
vt 2.494046 -9.334732
vt 2.788522 -9.040256
vt 2.670571 -9.216784
s 1
f 3/1/1 2/2/2 1/3/3
f 4/4/4 3/1/1 1/3/3
f 4/4/4 1/3/3 5/5/5
f 6/6/6 4/4/4 5/5/5
f 6/6/6 5/5/5 7/7/7
f 8/8/8 6/6/6 7/7/7
f 8/8/8 7/7/7 9/9/9
f 10/10/10 8/8/8 9/9/9
f 13/11/11 12/12/12 11/13/13
f 14/14/14 13/11/11 11/13/13
f 14/14/14 11/13/13 15/15/15
f 16/16/16 14/14/14 15/15/15
f 16/16/16 15/15/15 17/17/17
f 18/18/18 16/16/16 17/17/17
f 18/18/18 17/17/17 19/19/19
f 20/20/20 18/18/18 19/19/19
f 23/21/21 22/22/22 21/23/23
f 24/24/24 23/21/21 21/23/23
f 24/24/24 21/23/23 25/25/25
f 26/26/26 24/24/24 25/25/25
f 26/26/26 25/25/25 27/27/27
f 28/28/28 26/26/26 27/27/27
f 28/28/28 27/27/27 29/29/29
f 30/30/30 28/28/28 29/29/29
f 33/31/31 32/32/32 31/33/33
f 34/34/34 33/31/31 31/33/33
f 34/34/34 31/33/33 35/35/35
f 36/36/36 34/34/34 35/35/35
f 36/36/36 35/35/35 37/37/37
f 38/38/38 36/36/36 37/37/37
f 38/38/38 37/37/37 39/39/39
f 40/40/40 38/38/38 39/39/39
f 43/41/41 42/42/42 41/43/43
f 42/42/42 43/41/41 44/44/44
f 45/45/43 43/41/41 41/43/43
f 43/41/41 46/46/44 44/44/44
f 47/47/45 45/45/43 41/43/43
f 48/48/46 47/47/45 41/43/43
f 44/44/44 46/46/44 49/49/47
f 46/46/44 50/50/48 49/49/47
f 47/47/45 48/48/46 51/51/49
f 52/52/50 47/47/45 51/51/49
f 53/53/51 52/52/50 51/51/49
f 54/54/51 53/53/51 51/51/49
f 50/50/48 55/55/52 49/49/47
f 55/55/52 56/56/52 49/49/47
f 57/57/53 53/53/51 54/54/51
f 58/58/53 57/57/53 54/54/51
f 57/57/53 58/58/53 59/59/54
f 60/60/54 57/57/53 59/59/54
f 56/56/52 55/55/52 61/61/55
f 55/55/52 62/62/56 61/61/55
f 62/62/56 63/63/57 61/61/55
f 63/63/57 64/64/57 61/61/55
f 60/60/54 59/59/54 65/65/58
f 66/66/58 60/60/54 65/65/58
f 63/63/57 67/67/59 64/64/57
f 67/67/59 68/68/60 64/64/57
f 69/69/61 66/66/58 65/65/58
f 70/70/62 69/69/61 65/65/58
f 68/68/60 67/67/59 71/71/63
f 69/69/61 70/70/62 71/71/63
f 67/67/59 72/72/63 71/71/63
f 72/72/63 69/69/61 71/71/63
f 75/73/64 74/74/65 73/75/66
f 76/76/67 75/73/64 73/75/66
f 76/76/67 73/75/66 77/77/68
f 75/73/64 78/78/69 74/74/65
f 78/78/69 79/79/70 74/74/65
f 80/80/71 76/76/67 77/77/68
f 80/80/71 77/77/68 81/81/72
f 78/78/69 82/82/73 79/79/70
f 82/82/73 83/83/74 79/79/70
f 84/84/75 80/80/71 81/81/72
f 84/84/75 81/81/72 85/85/76
f 82/82/73 86/86/77 83/83/74
f 86/86/77 87/87/78 83/83/74
f 88/88/79 84/84/75 85/85/76
f 88/88/79 85/85/76 89/89/80
f 86/86/77 90/90/81 87/87/78
f 90/90/81 91/91/82 87/87/78
f 92/92/83 88/88/79 89/89/80
f 92/92/83 89/89/80 93/93/84
f 90/90/81 94/94/85 91/91/82
f 94/94/85 95/95/86 91/91/82
f 96/96/87 92/92/83 93/93/84
f 96/96/87 93/93/84 97/97/88
f 94/94/85 98/98/89 95/95/86
f 98/98/89 99/99/90 95/95/86
f 100/100/91 96/96/87 97/97/88
f 100/100/91 97/97/88 101/101/92
f 98/98/89 102/102/93 99/99/90
f 102/102/93 103/103/94 99/99/90
f 104/104/95 101/101/92 103/103/94
f 104/104/95 100/100/91 101/101/92
f 102/102/93 104/104/95 103/103/94
f 90/90/81 105/41/96 94/94/85
f 105/41/96 106/45/97 94/94/85
f 94/94/85 106/45/97 98/98/89
f 107/46/98 105/41/96 90/90/81
f 106/45/97 108/47/99 98/98/89
f 98/98/89 108/47/99 102/102/93
f 86/86/77 107/46/98 90/90/81
f 108/47/99 109/52/100 102/102/93
f 102/102/93 109/52/100 104/104/95
f 110/50/101 107/46/98 86/86/77
f 109/52/100 111/53/102 104/104/95
f 104/104/95 111/53/102 100/100/91
f 82/82/73 110/50/101 86/86/77
f 111/53/102 112/57/103 100/100/91
f 113/55/104 110/50/101 82/82/73
f 100/100/91 112/57/103 96/96/87
f 78/78/69 113/55/104 82/82/73
f 112/57/103 114/60/105 96/96/87
f 115/62/106 113/55/104 78/78/69
f 96/96/87 114/60/105 92/92/83
f 75/73/64 115/62/106 78/78/69
f 114/60/105 116/66/107 92/92/83
f 117/63/108 115/62/106 75/73/64
f 92/92/83 116/66/107 88/88/79
f 76/76/67 117/63/108 75/73/64
f 116/66/107 118/69/109 88/88/79
f 119/67/110 117/63/108 76/76/67
f 88/88/79 118/69/109 84/84/75
f 80/80/71 119/67/110 76/76/67
f 118/69/109 120/72/111 84/84/75
f 120/72/111 119/67/110 80/80/71
f 84/84/75 120/72/111 80/80/71
f 123/61/112 122/64/113 121/105/114
f 124/106/115 123/61/112 121/105/114
f 121/105/114 122/64/113 125/107/116
f 126/56/117 123/61/112 124/106/115
f 122/64/113 127/68/118 125/107/116
f 128/108/119 126/56/117 124/106/115
f 125/107/116 127/68/118 129/109/120
f 130/49/121 126/56/117 128/108/119
f 127/68/118 131/71/120 129/109/120
f 132/110/122 130/49/121 128/108/119
f 129/109/120 131/71/120 133/111/123
f 134/44/124 130/49/121 132/110/122
f 131/71/120 135/70/125 133/111/123
f 136/112/124 134/44/124 132/110/122
f 133/111/123 135/70/125 137/113/126
f 138/42/127 134/44/124 136/112/124
f 135/70/125 139/65/126 137/113/126
f 140/114/128 138/42/127 136/112/124
f 137/113/126 139/65/126 141/115/129
f 142/43/130 138/42/127 140/114/128
f 139/65/126 143/59/131 141/115/129
f 144/116/132 142/43/130 140/114/128
f 141/115/129 143/59/131 145/117/133
f 146/48/134 142/43/130 144/116/132
f 143/59/131 147/58/135 145/117/133
f 148/118/136 146/48/134 144/116/132
f 145/117/133 147/58/135 149/119/137
f 150/51/138 146/48/134 148/118/136
f 147/58/135 151/54/139 149/119/137
f 152/120/138 150/51/138 148/118/136
f 149/119/137 151/54/139 152/120/138
f 151/54/139 150/51/138 152/120/138
f 3/1/1 2/2/2 1/3/3
f 4/4/4 3/1/1 1/3/3
f 4/4/4 1/3/3 5/5/5
f 6/6/6 4/4/4 5/5/5
f 6/6/6 5/5/5 7/7/7
f 8/8/8 6/6/6 7/7/7
f 8/8/8 7/7/7 9/9/9
f 10/10/10 8/8/8 9/9/9
f 13/11/11 12/12/12 11/13/13
f 14/14/14 13/11/11 11/13/13
f 14/14/14 11/13/13 15/15/15
f 16/16/16 14/14/14 15/15/15
f 16/16/16 15/15/15 17/17/17
f 18/18/18 16/16/16 17/17/17
f 18/18/18 17/17/17 19/19/19
f 20/20/20 18/18/18 19/19/19
f 23/21/21 22/22/22 21/23/23
f 24/24/24 23/21/21 21/23/23
f 24/24/24 21/23/23 25/25/25
f 26/26/26 24/24/24 25/25/25
f 26/26/26 25/25/25 27/27/27
f 28/28/28 26/26/26 27/27/27
f 28/28/28 27/27/27 29/29/29
f 30/30/30 28/28/28 29/29/29
f 33/31/31 32/32/32 31/33/33
f 34/34/34 33/31/31 31/33/33
f 34/34/34 31/33/33 35/35/35
f 36/36/36 34/34/34 35/35/35
f 36/36/36 35/35/35 37/37/37
f 38/38/38 36/36/36 37/37/37
f 38/38/38 37/37/37 39/39/39
f 40/40/40 38/38/38 39/39/39
f 43/41/41 42/42/42 41/43/43
f 42/42/42 43/41/41 44/44/44
f 45/45/43 43/41/41 41/43/43
f 43/41/41 46/46/44 44/44/44
f 47/47/45 45/45/43 41/43/43
f 48/48/46 47/47/45 41/43/43
f 44/44/44 46/46/44 49/49/47
f 46/46/44 50/50/48 49/49/47
f 47/47/45 48/48/46 51/51/49
f 52/52/50 47/47/45 51/51/49
f 53/53/51 52/52/50 51/51/49
f 54/54/51 53/53/51 51/51/49
f 50/50/48 55/55/52 49/49/47
f 55/55/52 56/56/52 49/49/47
f 57/57/53 53/53/51 54/54/51
f 58/58/53 57/57/53 54/54/51
f 57/57/53 58/58/53 59/59/54
f 60/60/54 57/57/53 59/59/54
f 56/56/52 55/55/52 61/61/55
f 55/55/52 62/62/56 61/61/55
f 62/62/56 63/63/57 61/61/55
f 63/63/57 64/64/57 61/61/55
f 60/60/54 59/59/54 65/65/58
f 66/66/58 60/60/54 65/65/58
f 63/63/57 67/67/59 64/64/57
f 67/67/59 68/68/60 64/64/57
f 69/69/61 66/66/58 65/65/58
f 70/70/62 69/69/61 65/65/58
f 68/68/60 67/67/59 71/71/63
f 69/69/61 70/70/62 71/71/63
f 67/67/59 72/72/63 71/71/63
f 72/72/63 69/69/61 71/71/63
f 75/73/64 74/74/65 73/75/66
f 76/76/67 75/73/64 73/75/66
f 76/76/67 73/75/66 77/77/68
f 75/73/64 78/78/69 74/74/65
f 78/78/69 79/79/70 74/74/65
f 80/80/71 76/76/67 77/77/68
f 80/80/71 77/77/68 81/81/72
f 78/78/69 82/82/73 79/79/70
f 82/82/73 83/83/74 79/79/70
f 84/84/75 80/80/71 81/81/72
f 84/84/75 81/81/72 85/85/76
f 82/82/73 86/86/77 83/83/74
f 86/86/77 87/87/78 83/83/74
f 88/88/79 84/84/75 85/85/76
f 88/88/79 85/85/76 89/89/80
f 86/86/77 90/90/81 87/87/78
f 90/90/81 91/91/82 87/87/78
f 92/92/83 88/88/79 89/89/80
f 92/92/83 89/89/80 93/93/84
f 90/90/81 94/94/85 91/91/82
f 94/94/85 95/95/86 91/91/82
f 96/96/87 92/92/83 93/93/84
f 96/96/87 93/93/84 97/97/88
f 94/94/85 98/98/89 95/95/86
f 98/98/89 99/99/90 95/95/86
f 100/100/91 96/96/87 97/97/88
f 100/100/91 97/97/88 101/101/92
f 98/98/89 102/102/93 99/99/90
f 102/102/93 103/103/94 99/99/90
f 104/104/95 101/101/92 103/103/94
f 104/104/95 100/100/91 101/101/92
f 102/102/93 104/104/95 103/103/94
f 90/90/81 105/41/96 94/94/85
f 105/41/96 106/45/97 94/94/85
f 94/94/85 106/45/97 98/98/89
f 107/46/98 105/41/96 90/90/81
f 106/45/97 108/47/99 98/98/89
f 98/98/89 108/47/99 102/102/93
f 86/86/77 107/46/98 90/90/81
f 108/47/99 109/52/100 102/102/93
f 102/102/93 109/52/100 104/104/95
f 110/50/101 107/46/98 86/86/77
f 109/52/100 111/53/102 104/104/95
f 104/104/95 111/53/102 100/100/91
f 82/82/73 110/50/101 86/86/77
f 111/53/102 112/57/103 100/100/91
f 113/55/104 110/50/101 82/82/73
f 100/100/91 112/57/103 96/96/87
f 78/78/69 113/55/104 82/82/73
f 112/57/103 114/60/105 96/96/87
f 115/62/106 113/55/104 78/78/69
f 96/96/87 114/60/105 92/92/83
f 75/73/64 115/62/106 78/78/69
f 114/60/105 116/66/107 92/92/83
f 117/63/108 115/62/106 75/73/64
f 92/92/83 116/66/107 88/88/79
f 76/76/67 117/63/108 75/73/64
f 116/66/107 118/69/109 88/88/79
f 119/67/110 117/63/108 76/76/67
f 88/88/79 118/69/109 84/84/75
f 80/80/71 119/67/110 76/76/67
f 118/69/109 120/72/111 84/84/75
f 120/72/111 119/67/110 80/80/71
f 84/84/75 120/72/111 80/80/71
f 123/61/112 122/64/113 121/105/114
f 124/106/115 123/61/112 121/105/114
f 121/105/114 122/64/113 125/107/116
f 126/56/117 123/61/112 124/106/115
f 122/64/113 127/68/118 125/107/116
f 128/108/119 126/56/117 124/106/115
f 125/107/116 127/68/118 129/109/120
f 130/49/121 126/56/117 128/108/119
f 127/68/118 131/71/120 129/109/120
f 132/110/122 130/49/121 128/108/119
f 129/109/120 131/71/120 133/111/123
f 134/44/124 130/49/121 132/110/122
f 131/71/120 135/70/125 133/111/123
f 136/112/124 134/44/124 132/110/122
f 133/111/123 135/70/125 137/113/126
f 138/42/127 134/44/124 136/112/124
f 135/70/125 139/65/126 137/113/126
f 140/114/128 138/42/127 136/112/124
f 137/113/126 139/65/126 141/115/129
f 142/43/130 138/42/127 140/114/128
f 139/65/126 143/59/131 141/115/129
f 144/116/132 142/43/130 140/114/128
f 141/115/129 143/59/131 145/117/133
f 146/48/134 142/43/130 144/116/132
f 143/59/131 147/58/135 145/117/133
f 148/118/136 146/48/134 144/116/132
f 145/117/133 147/58/135 149/119/137
f 150/51/138 146/48/134 148/118/136
f 147/58/135 151/54/139 149/119/137
f 152/120/138 150/51/138 148/118/136
f 149/119/137 151/54/139 152/120/138
f 151/54/139 150/51/138 152/120/138
