# Blender 3.6.0
# www.blender.org
o LightFixture2_24118f26_LightFixture2_24118f26_2
v 0.061740 2.500000 -0.092380
v 0.029290 2.500000 -0.070710
v 0.029290 2.495000 -0.070710
v 0.061740 2.495000 -0.092380
v 0.100000 2.500000 -0.100000
v 0.100000 2.495000 -0.100000
v 0.138270 2.500000 -0.092380
v 0.138270 2.495000 -0.092380
v 0.170720 2.500000 -0.070710
v 0.170720 2.495000 -0.070710
v 0.029290 2.500000 -0.070710
v 0.007620 2.495000 -0.038260
v 0.029290 2.495000 -0.070710
v 0.007620 2.500000 -0.038260
v 0.000000 2.495000 -0.000000
v 0.000000 2.500000 -0.000000
v 0.007620 2.495000 0.038270
v 0.007620 2.500000 0.038270
v 0.029290 2.495000 0.070720
v 0.029290 2.500000 0.070720
v 0.029290 2.500000 0.070720
v 0.061740 2.495000 0.092390
v 0.029290 2.495000 0.070720
v 0.061740 2.500000 0.092390
v 0.100000 2.495000 0.100010
v 0.100000 2.500000 0.100010
v 0.138270 2.495000 0.092390
v 0.138270 2.500000 0.092390
v 0.170720 2.495000 0.070720
v 0.170720 2.500000 0.070720
v 0.170720 2.500000 0.070720
v 0.192390 2.495000 0.038270
v 0.170720 2.495000 0.070720
v 0.192390 2.500000 0.038270
v 0.200000 2.495000 -0.000000
v 0.200000 2.500000 -0.000000
v 0.192390 2.495000 -0.038260
v 0.192390 2.500000 -0.038260
v 0.170720 2.495000 -0.070710
v 0.170720 2.500000 -0.070710
v 0.102360 2.482340 -0.005680
v 0.104360 1.910750 -0.004350
v 0.104360 2.482340 -0.004350
v 0.102360 1.910750 -0.005680
v 0.100000 2.482340 -0.006150
v 0.100000 1.910750 -0.006150
v 0.097650 2.482340 -0.005680
v 0.097650 1.910750 -0.005680
v 0.095650 2.482340 -0.004350
v 0.095650 1.910750 -0.004350
v 0.104360 2.482340 -0.004350
v 0.104360 1.910750 -0.004350
v 0.105690 1.910750 -0.002350
v 0.105690 2.482340 -0.002350
v 0.106160 1.910750 -0.000000
v 0.106160 2.482340 -0.000000
v 0.105690 1.910750 0.002360
v 0.105690 2.482340 0.002360
v 0.104360 1.910750 0.004360
v 0.104360 2.482340 0.004360
v 0.104360 2.482340 0.004360
v 0.104360 1.910750 0.004360
v 0.102360 1.910750 0.005690
v 0.102360 2.482340 0.005690
v 0.100000 1.910750 0.006160
v 0.100000 2.482340 0.006160
v 0.097650 1.910750 0.005690
v 0.097650 2.482340 0.005690
v 0.095650 1.910750 0.004360
v 0.095650 2.482340 0.004360
v 0.095650 2.482340 0.004360
v 0.095650 1.910750 0.004360
v 0.094320 1.910750 0.002360
v 0.094320 2.482340 0.002360
v 0.093850 1.910750 -0.000000
v 0.093850 2.482340 -0.000000
v 0.094320 1.910750 -0.002350
v 0.094320 2.482340 -0.002350
v 0.095650 1.910750 -0.004350
v 0.095650 2.482340 -0.004350
v 0.083070 2.482340 -0.040880
v 0.097650 2.482340 -0.005680
v 0.100000 2.482340 -0.006150
v 0.068720 2.482340 -0.031280
v 0.095650 2.482340 -0.004350
v 0.100000 2.482340 -0.044240
v 0.102360 2.482340 -0.005680
v 0.059120 2.482340 -0.016930
v 0.094320 2.482340 -0.002350
v 0.116940 2.482340 -0.040880
v 0.104360 2.482340 -0.004350
v 0.055760 2.482340 -0.000000
v 0.093850 2.482340 -0.000000
v 0.131290 2.482340 -0.031280
v 0.105690 2.482340 -0.002350
v 0.059120 2.482340 0.016940
v 0.094320 2.482340 0.002360
v 0.140890 2.482340 -0.016930
v 0.106160 2.482340 -0.000000
v 0.068720 2.482340 0.031290
v 0.095650 2.482340 0.004360
v 0.144250 2.482340 -0.000000
v 0.105690 2.482340 0.002360
v 0.083070 2.482340 0.040890
v 0.097650 2.482340 0.005690
v 0.140890 2.482340 0.016940
v 0.104360 2.482340 0.004360
v 0.100000 2.482340 0.044250
v 0.100000 2.482340 0.006160
v 0.131290 2.482340 0.031290
v 0.102360 2.482340 0.005690
v 0.116940 2.482340 0.040890
v 0.192390 2.495000 -0.038260
v 0.170720 2.495000 -0.070710
v 0.200000 2.495000 -0.000000
v 0.192390 2.495000 0.038270
v 0.138270 2.495000 -0.092380
v 0.170720 2.495000 0.070720
v 0.138270 2.495000 0.092390
v 0.100000 2.495000 -0.100000
v 0.100000 2.495000 0.100010
v 0.061740 2.495000 -0.092380
v 0.061740 2.495000 0.092390
v 0.029290 2.495000 -0.070710
v 0.029290 2.495000 0.070720
v 0.007620 2.495000 -0.038260
v 0.007620 2.495000 0.038270
v 0.000000 2.495000 -0.000000
vn -0.5554 -0.0000 -0.8316
vn -0.3827 -0.0000 -0.9239
vn -0.0000 -0.0000 -1.0000
vn 0.3826 -0.0000 -0.9239
vn 0.5554 -0.0000 -0.8316
vn -0.8316 -0.0000 -0.5553
vn -0.9239 -0.0000 -0.3827
vn -1.0000 -0.0000 -0.0000
vn -0.9239 -0.0000 0.3826
vn -0.8316 -0.0000 0.5554
vn -0.5553 -0.0000 0.8316
vn -0.3827 -0.0000 0.9239
vn -0.0000 -0.0000 1.0000
vn 0.3827 -0.0000 0.9239
vn 0.5553 -0.0000 0.8316
vn 0.8316 -0.0000 0.5554
vn 0.9239 -0.0000 0.3825
vn 1.0000 -0.0000 -0.0000
vn 0.9239 -0.0000 -0.3826
vn 0.8316 -0.0000 -0.5554
vn 0.5537 -0.0000 -0.8327
vn 0.3818 -0.0000 -0.9243
vn -0.0004 -0.0000 -1.0000
vn -0.3822 -0.0000 -0.9241
vn -0.3821 -0.0000 -0.9241
vn -0.5537 -0.0000 -0.8327
vn 0.9241 -0.0000 -0.3821
vn 0.8327 -0.0000 -0.5537
vn 0.9241 -0.0000 -0.3822
vn 1.0000 -0.0000 -0.0004
vn 0.9243 -0.0000 0.3818
vn 0.8327 -0.0000 0.5537
vn 0.3818 -0.0000 0.9243
vn 0.5537 -0.0000 0.8327
vn -0.0004 -0.0000 1.0000
vn -0.3822 -0.0000 0.9241
vn -0.3821 -0.0000 0.9241
vn -0.5537 -0.0000 0.8327
vn -0.9243 -0.0000 0.3818
vn -0.8327 -0.0000 0.5537
vn -1.0000 -0.0000 -0.0004
vn -0.9241 -0.0000 -0.3822
vn -0.9241 -0.0000 -0.3821
vn -0.8327 -0.0000 -0.5537
vn -0.0000 -1.0000 -0.0000
vn -0.0479 -0.9921 -0.1156
vn -0.0885 -0.9921 -0.0884
vn -0.0000 -0.9921 -0.1251
vn -0.1156 -0.9921 -0.0479
vn 0.0479 -0.9921 -0.1156
vn -0.1251 -0.9921 -0.0000
vn 0.0884 -0.9921 -0.0885
vn -0.1156 -0.9921 0.0479
vn 0.1156 -0.9921 -0.0479
vn -0.0884 -0.9921 0.0885
vn 0.1251 -0.9921 -0.0000
vn -0.0479 -0.9921 0.1156
vn 0.1156 -0.9921 0.0479
vn -0.0000 -0.9921 0.1251
vn 0.0885 -0.9921 0.0884
vn 0.0479 -0.9921 0.1156
vn 0.2046 -0.9752 -0.0847
vn 0.1566 -0.9752 -0.1566
vn 0.2215 -0.9752 -0.0000
vn 0.2046 -0.9752 0.0847
vn 0.0848 -0.9752 -0.2046
vn 0.1566 -0.9752 0.1566
vn 0.0847 -0.9752 0.2046
vn -0.0000 -0.9752 -0.2214
vn -0.0000 -0.9752 0.2214
vn -0.0847 -0.9752 -0.2046
vn -0.0848 -0.9752 0.2046
vn -0.1566 -0.9752 -0.1566
vn -0.1566 -0.9752 0.1566
vn -0.2046 -0.9752 -0.0848
vn -0.2046 -0.9752 0.0847
vn -0.2214 -0.9752 -0.0000
vt 4.139405 -9.579106
vt 4.139405 -9.495165
vt 3.866661 -9.495165
vt 3.866661 -9.579106
vt 3.544938 -9.495165
vt 3.544938 -9.579106
vt 3.223214 -9.495165
vt 3.223214 -9.579106
vt 2.950470 -9.495165
vt 2.950470 -9.579106
vt 2.950470 -9.478376
vt 3.223214 -9.478376
vt 2.950470 -9.394436
vt 3.223214 -9.394436
vt 3.544938 -9.478376
vt 3.544938 -9.394436
vt 3.866661 -9.478376
vt 3.866661 -9.394436
vt 4.139405 -9.478376
vt 4.139405 -9.394436
vt 1.741720 -9.579106
vt 2.014464 -9.579106
vt 1.741720 -9.495165
vt 2.014464 -9.495165
vt 2.336188 -9.579106
vt 2.336188 -9.495165
vt 2.657911 -9.579106
vt 2.657911 -9.495165
vt 2.930655 -9.579106
vt 2.930655 -9.495165
vt 1.741720 -9.478376
vt 2.014464 -9.478376
vt 1.741720 -9.394436
vt 2.014464 -9.394436
vt 2.336188 -9.478376
vt 2.336188 -9.394436
vt 2.657911 -9.478376
vt 2.657911 -9.394436
vt 2.930655 -9.478376
vt 2.930655 -9.394436
vt -0.072918 -4.762531
vt -0.072918 -9.577469
vt -0.053662 -4.762531
vt -0.053662 -9.577469
vt -0.030948 -4.762531
vt -0.030948 -9.577469
vt -0.008234 -4.762531
vt -0.008234 -9.577469
vt 0.011023 -4.762531
vt 0.011023 -9.577469
vt -0.310421 -9.577469
vt -0.291165 -9.577469
vt -0.291165 -4.762531
vt -0.310421 -4.762531
vt -0.333135 -9.577469
vt -0.333135 -4.762531
vt -0.355849 -9.577469
vt -0.355849 -4.762531
vt -0.375106 -9.577469
vt -0.375106 -4.762531
vt -0.108963 -9.577469
vt -0.089707 -9.577469
vt -0.089707 -4.762531
vt -0.108963 -4.762531
vt -0.131677 -9.577469
vt -0.131677 -4.762531
vt -0.154391 -9.577469
vt -0.154391 -4.762531
vt -0.173648 -9.577469
vt -0.173648 -4.762531
vt -0.209692 -9.577469
vt -0.190436 -9.577469
vt -0.190436 -4.762531
vt -0.209692 -4.762531
vt -0.232406 -9.577469
vt -0.232406 -4.762531
vt -0.255120 -9.577469
vt -0.255120 -4.762531
vt -0.274377 -9.577469
vt -0.274377 -4.762531
vt 0.875615 -8.783404
vt 0.855676 -8.779438
vt 0.732318 -9.077250
vt 0.610837 -8.996079
vt 0.838773 -8.768144
vt 0.875615 -9.105754
vt 0.895553 -8.779438
vt 0.529666 -8.874599
vt 0.827479 -8.751241
vt 1.018911 -9.077250
vt 0.912456 -8.768144
vt 0.501163 -8.731302
vt 0.823513 -8.731302
vt 1.140392 -8.996079
vt 0.923750 -8.751241
vt 0.529666 -8.588006
vt 0.827479 -8.711364
vt 1.221563 -8.874599
vt 0.927716 -8.731302
vt 0.610837 -8.466525
vt 0.838773 -8.694460
vt 1.250066 -8.731302
vt 0.923750 -8.711364
vt 0.732318 -8.385354
vt 0.855676 -8.683167
vt 1.221563 -8.588006
vt 0.912456 -8.694460
vt 0.875615 -8.356851
vt 0.875615 -8.679200
vt 1.140392 -8.466525
vt 0.895553 -8.683167
vt 1.018911 -8.385354
vt 1.657440 -9.055144
vt 1.473998 -9.329685
vt 1.721857 -8.731302
vt 1.657440 -8.407459
vt 1.199458 -9.513128
vt 1.473998 -8.132919
vt 1.199458 -7.949476
vt 0.875615 -9.577544
vt 0.875615 -7.885060
vt 0.551772 -9.513128
vt 0.551772 -7.949476
vt 0.277231 -9.329685
vt 0.277231 -8.132919
vt 0.093789 -9.055144
vt 0.093789 -8.407459
vt 0.029372 -8.731302
s 1
f 3/1/1 2/2/1 1/3/2
f 4/4/2 3/1/1 1/3/2
f 4/4/2 1/3/2 5/5/3
f 6/6/3 4/4/2 5/5/3
f 6/6/3 5/5/3 7/7/4
f 8/8/4 6/6/3 7/7/4
f 8/8/4 7/7/4 9/9/5
f 10/10/5 8/8/4 9/9/5
f 13/11/6 12/12/7 11/13/6
f 12/12/7 14/14/7 11/13/6
f 12/12/7 15/15/8 14/14/7
f 15/15/8 16/16/8 14/14/7
f 15/15/8 17/17/9 16/16/8
f 17/17/9 18/18/9 16/16/8
f 17/17/9 19/19/10 18/18/9
f 19/19/10 20/20/10 18/18/9
f 23/21/11 22/22/12 21/23/11
f 22/22/12 24/24/12 21/23/11
f 22/22/12 25/25/13 24/24/12
f 25/25/13 26/26/13 24/24/12
f 25/25/13 27/27/14 26/26/13
f 27/27/14 28/28/14 26/26/13
f 27/27/14 29/29/15 28/28/14
f 29/29/15 30/30/15 28/28/14
f 33/31/16 32/32/17 31/33/16
f 32/32/17 34/34/17 31/33/16
f 32/32/17 35/35/18 34/34/17
f 35/35/18 36/36/18 34/34/17
f 35/35/18 37/37/19 36/36/18
f 37/37/19 38/38/19 36/36/18
f 37/37/19 39/39/20 38/38/19
f 39/39/20 40/40/20 38/38/19
f 43/41/21 42/42/21 41/43/22
f 42/42/21 44/44/22 41/43/22
f 41/43/22 44/44/22 45/45/23
f 44/44/22 46/46/23 45/45/23
f 45/45/23 46/46/23 47/47/24
f 46/46/23 48/48/25 47/47/24
f 47/47/24 48/48/25 49/49/26
f 48/48/25 50/50/26 49/49/26
f 53/51/27 52/52/28 51/53/28
f 54/54/29 53/51/27 51/53/28
f 55/55/30 53/51/27 54/54/29
f 56/56/30 55/55/30 54/54/29
f 57/57/31 55/55/30 56/56/30
f 58/58/31 57/57/31 56/56/30
f 59/59/32 57/57/31 58/58/31
f 60/60/32 59/59/32 58/58/31
f 63/61/33 62/62/34 61/63/34
f 64/64/33 63/61/33 61/63/34
f 65/65/35 63/61/33 64/64/33
f 66/66/35 65/65/35 64/64/33
f 67/67/36 65/65/35 66/66/35
f 68/68/37 67/67/36 66/66/35
f 69/69/38 67/67/36 68/68/37
f 70/70/38 69/69/38 68/68/37
f 73/71/39 72/72/40 71/73/40
f 74/74/39 73/71/39 71/73/40
f 75/75/41 73/71/39 74/74/39
f 76/76/41 75/75/41 74/74/39
f 77/77/42 75/75/41 76/76/41
f 78/78/43 77/77/42 76/76/41
f 79/79/44 77/77/42 78/78/43
f 80/80/44 79/79/44 78/78/43
f 83/81/45 82/82/45 81/83/46
f 81/83/46 82/82/45 84/84/47
f 82/82/45 85/85/45 84/84/47
f 86/86/48 83/81/45 81/83/46
f 87/87/45 83/81/45 86/86/48
f 84/84/47 85/85/45 88/88/49
f 85/85/45 89/89/45 88/88/49
f 90/90/50 87/87/45 86/86/48
f 91/91/45 87/87/45 90/90/50
f 88/88/49 89/89/45 92/92/51
f 89/89/45 93/93/45 92/92/51
f 94/94/52 91/91/45 90/90/50
f 95/95/45 91/91/45 94/94/52
f 92/92/51 93/93/45 96/96/53
f 93/93/45 97/97/45 96/96/53
f 98/98/54 95/95/45 94/94/52
f 99/99/45 95/95/45 98/98/54
f 96/96/53 97/97/45 100/100/55
f 97/97/45 101/101/45 100/100/55
f 102/102/56 99/99/45 98/98/54
f 103/103/45 99/99/45 102/102/56
f 100/100/55 101/101/45 104/104/57
f 101/101/45 105/105/45 104/104/57
f 106/106/58 103/103/45 102/102/56
f 107/107/45 103/103/45 106/106/58
f 104/104/57 105/105/45 108/108/59
f 105/105/45 109/109/45 108/108/59
f 110/110/60 107/107/45 106/106/58
f 111/111/45 107/107/45 110/110/60
f 109/109/45 111/111/45 112/112/61
f 108/108/59 109/109/45 112/112/61
f 112/112/61 111/111/45 110/110/60
f 102/102/56 98/98/54 113/113/62
f 113/113/62 98/98/54 114/114/63
f 115/115/64 102/102/56 113/113/62
f 106/106/58 102/102/56 115/115/64
f 98/98/54 94/94/52 114/114/63
f 116/116/65 106/106/58 115/115/64
f 110/110/60 106/106/58 116/116/65
f 114/114/63 94/94/52 117/117/66
f 118/118/67 110/110/60 116/116/65
f 112/112/61 110/110/60 118/118/67
f 94/94/52 90/90/50 117/117/66
f 119/119/68 112/112/61 118/118/67
f 108/108/59 112/112/61 119/119/68
f 117/117/66 90/90/50 120/120/69
f 121/121/70 108/108/59 119/119/68
f 90/90/50 86/86/48 120/120/69
f 104/104/57 108/108/59 121/121/70
f 120/120/69 86/86/48 122/122/71
f 123/123/72 104/104/57 121/121/70
f 86/86/48 81/83/46 122/122/71
f 100/100/55 104/104/57 123/123/72
f 122/122/71 81/83/46 124/124/73
f 125/125/74 100/100/55 123/123/72
f 81/83/46 84/84/47 124/124/73
f 96/96/53 100/100/55 125/125/74
f 124/124/73 84/84/47 126/126/75
f 127/127/76 96/96/53 125/125/74
f 84/84/47 88/88/49 126/126/75
f 92/92/51 96/96/53 127/127/76
f 126/126/75 88/88/49 128/128/77
f 128/128/77 92/92/51 127/127/76
f 88/88/49 92/92/51 128/128/77
f 3/1/1 2/2/1 1/3/2
f 4/4/2 3/1/1 1/3/2
f 4/4/2 1/3/2 5/5/3
f 6/6/3 4/4/2 5/5/3
f 6/6/3 5/5/3 7/7/4
f 8/8/4 6/6/3 7/7/4
f 8/8/4 7/7/4 9/9/5
f 10/10/5 8/8/4 9/9/5
f 13/11/6 12/12/7 11/13/6
f 12/12/7 14/14/7 11/13/6
f 12/12/7 15/15/8 14/14/7
f 15/15/8 16/16/8 14/14/7
f 15/15/8 17/17/9 16/16/8
f 17/17/9 18/18/9 16/16/8
f 17/17/9 19/19/10 18/18/9
f 19/19/10 20/20/10 18/18/9
f 23/21/11 22/22/12 21/23/11
f 22/22/12 24/24/12 21/23/11
f 22/22/12 25/25/13 24/24/12
f 25/25/13 26/26/13 24/24/12
f 25/25/13 27/27/14 26/26/13
f 27/27/14 28/28/14 26/26/13
f 27/27/14 29/29/15 28/28/14
f 29/29/15 30/30/15 28/28/14
f 33/31/16 32/32/17 31/33/16
f 32/32/17 34/34/17 31/33/16
f 32/32/17 35/35/18 34/34/17
f 35/35/18 36/36/18 34/34/17
f 35/35/18 37/37/19 36/36/18
f 37/37/19 38/38/19 36/36/18
f 37/37/19 39/39/20 38/38/19
f 39/39/20 40/40/20 38/38/19
f 43/41/21 42/42/21 41/43/22
f 42/42/21 44/44/22 41/43/22
f 41/43/22 44/44/22 45/45/23
f 44/44/22 46/46/23 45/45/23
f 45/45/23 46/46/23 47/47/24
f 46/46/23 48/48/25 47/47/24
f 47/47/24 48/48/25 49/49/26
f 48/48/25 50/50/26 49/49/26
f 53/51/27 52/52/28 51/53/28
f 54/54/29 53/51/27 51/53/28
f 55/55/30 53/51/27 54/54/29
f 56/56/30 55/55/30 54/54/29
f 57/57/31 55/55/30 56/56/30
f 58/58/31 57/57/31 56/56/30
f 59/59/32 57/57/31 58/58/31
f 60/60/32 59/59/32 58/58/31
f 63/61/33 62/62/34 61/63/34
f 64/64/33 63/61/33 61/63/34
f 65/65/35 63/61/33 64/64/33
f 66/66/35 65/65/35 64/64/33
f 67/67/36 65/65/35 66/66/35
f 68/68/37 67/67/36 66/66/35
f 69/69/38 67/67/36 68/68/37
f 70/70/38 69/69/38 68/68/37
f 73/71/39 72/72/40 71/73/40
f 74/74/39 73/71/39 71/73/40
f 75/75/41 73/71/39 74/74/39
f 76/76/41 75/75/41 74/74/39
f 77/77/42 75/75/41 76/76/41
f 78/78/43 77/77/42 76/76/41
f 79/79/44 77/77/42 78/78/43
f 80/80/44 79/79/44 78/78/43
f 83/81/45 82/82/45 81/83/46
f 81/83/46 82/82/45 84/84/47
f 82/82/45 85/85/45 84/84/47
f 86/86/48 83/81/45 81/83/46
f 87/87/45 83/81/45 86/86/48
f 84/84/47 85/85/45 88/88/49
f 85/85/45 89/89/45 88/88/49
f 90/90/50 87/87/45 86/86/48
f 91/91/45 87/87/45 90/90/50
f 88/88/49 89/89/45 92/92/51
f 89/89/45 93/93/45 92/92/51
f 94/94/52 91/91/45 90/90/50
f 95/95/45 91/91/45 94/94/52
f 92/92/51 93/93/45 96/96/53
f 93/93/45 97/97/45 96/96/53
f 98/98/54 95/95/45 94/94/52
f 99/99/45 95/95/45 98/98/54
f 96/96/53 97/97/45 100/100/55
f 97/97/45 101/101/45 100/100/55
f 102/102/56 99/99/45 98/98/54
f 103/103/45 99/99/45 102/102/56
f 100/100/55 101/101/45 104/104/57
f 101/101/45 105/105/45 104/104/57
f 106/106/58 103/103/45 102/102/56
f 107/107/45 103/103/45 106/106/58
f 104/104/57 105/105/45 108/108/59
f 105/105/45 109/109/45 108/108/59
f 110/110/60 107/107/45 106/106/58
f 111/111/45 107/107/45 110/110/60
f 109/109/45 111/111/45 112/112/61
f 108/108/59 109/109/45 112/112/61
f 112/112/61 111/111/45 110/110/60
f 102/102/56 98/98/54 113/113/62
f 113/113/62 98/98/54 114/114/63
f 115/115/64 102/102/56 113/113/62
f 106/106/58 102/102/56 115/115/64
f 98/98/54 94/94/52 114/114/63
f 116/116/65 106/106/58 115/115/64
f 110/110/60 106/106/58 116/116/65
f 114/114/63 94/94/52 117/117/66
f 118/118/67 110/110/60 116/116/65
f 112/112/61 110/110/60 118/118/67
f 94/94/52 90/90/50 117/117/66
f 119/119/68 112/112/61 118/118/67
f 108/108/59 112/112/61 119/119/68
f 117/117/66 90/90/50 120/120/69
f 121/121/70 108/108/59 119/119/68
f 90/90/50 86/86/48 120/120/69
f 104/104/57 108/108/59 121/121/70
f 120/120/69 86/86/48 122/122/71
f 123/123/72 104/104/57 121/121/70
f 86/86/48 81/83/46 122/122/71
f 100/100/55 104/104/57 123/123/72
f 122/122/71 81/83/46 124/124/73
f 125/125/74 100/100/55 123/123/72
f 81/83/46 84/84/47 124/124/73
f 96/96/53 100/100/55 125/125/74
f 124/124/73 84/84/47 126/126/75
f 127/127/76 96/96/53 125/125/74
f 84/84/47 88/88/49 126/126/75
f 92/92/51 96/96/53 127/127/76
f 126/126/75 88/88/49 128/128/77
f 128/128/77 92/92/51 127/127/76
f 88/88/49 92/92/51 128/128/77
