mtllib Drawer_f0dcbe39.mtl
v -0.29999 0.21 0.02
v -0.29799 0.208 0.022
v -0.29799 -0.09799 0.022
v -0.29999 0.21 0.02
v -0.29799 -0.09799 0.022
v -0.29999 -0.09999 0.02
v -0.29999 -0.09999 0
v 0.1 -0.09999 0
v 0.1 0.21 0
v -0.29999 0.21 0
v -0.29999 -0.09999 0.02
v -0.29999 -0.09999 0
v -0.29999 0.21 0
v -0.29999 0.21 0.02
v -0.29999 0.21 0.02
v -0.29999 0.21 0
v 0.1 0.21 0
v 0.1 0.21 0.02
v 0.1 0.21 0.02
v 0.1 0.21 0
v 0.1 -0.09999 0
v 0.1 -0.09999 0.02
v 0.1 -0.09999 0.02
v 0.1 -0.09999 0
v -0.29999 -0.09999 0
v -0.29999 -0.09999 0.02
v -0.29799 -0.09799 0.022
v -0.29799 0.208 0.022
v 0.098 0.208 0.022
v 0.098 -0.09799 0.022
v -0.29999 -0.09999 0.02
v -0.29799 -0.09799 0.022
v 0.098 -0.09799 0.022
v 0.1 -0.09999 0.02
v 0.1 -0.09999 0.02
v 0.098 -0.09799 0.022
v 0.098 0.208 0.022
v 0.1 0.21 0.02
v 0.1 0.21 0.02
v 0.098 0.208 0.022
v -0.29799 0.208 0.022
v -0.29999 0.21 0.02
v -0.28904 -0.0913 -0.39199
v 0.08905 -0.0913 -0.39199
v 0.08905 0.20131 -0.39199
v -0.28904 0.20131 -0.39199
v 0.08906 0.20131 0.01301
v 0.08905 0.20131 -0.39199
v 0.08905 -0.0913 -0.39199
v 0.08906 -0.0913 0.01301
v -0.27479 -0.06089 -0.00199
v -0.27479 -0.06089 -0.37699
v 0.0748 -0.06089 -0.37699
v 0.0748 -0.06089 -0.00199
v -0.28904 -0.0913 0.01301
v -0.28904 -0.0913 -0.39199
v -0.28904 0.20131 -0.39199
v -0.28904 0.20131 0.01301
v 0.08906 -0.0913 0.01301
v 0.08905 -0.0913 -0.39199
v -0.28904 -0.0913 -0.39199
v -0.28904 -0.0913 0.01301
v 0.0748 0.20131 -0.37699
v 0.0748 -0.06089 -0.37699
v -0.27479 -0.06089 -0.37699
v -0.27479 0.20131 -0.37699
v -0.27479 0.20131 -0.37699
v -0.27479 -0.06089 -0.37699
v -0.27479 -0.06089 -0.00199
v -0.27479 0.20131 -0.00199
v -0.27479 0.20131 -0.00199
v -0.27479 -0.06089 -0.00199
v 0.0748 -0.06089 -0.00199
v 0.0748 0.20131 -0.00199
v 0.0748 0.20131 -0.00199
v 0.0748 -0.06089 -0.00199
v 0.0748 -0.06089 -0.37699
v 0.0748 0.20131 -0.37699
v 0.08905 0.20131 -0.39199
v 0.0748 0.20131 -0.37699
v -0.27479 0.20131 -0.37699
v -0.28904 0.20131 -0.39199
v 0.08906 0.20131 0.01301
v -0.27479 0.20131 -0.00199
v 0.0748 0.20131 -0.00199
v -0.28904 0.20131 0.01301
vt -0.02883914 0.7509353
vt -0.02680209 0.7529724
vt 0.2848722 0.7529725
vt -0.02883914 0.7509353
vt 0.2848722 0.7529725
vt 0.2869093 0.7509353
vt 0.404844 0.8645967
vt 0.8048438 0.8645968
vt 0.8048438 0.5545967
vt 0.404844 0.5545967
vt 0.2869093 0.7509353
vt 0.2869093 0.7305644
vt -0.02883914 0.7305644
vt -0.02883914 0.7509353
vt 0.4011302 0.8319453
vt 0.4011302 0.8523166
vt 0.8085577 0.8523167
vt 0.8085577 0.8319454
vt -0.0288396 0.7130807
vt -0.0288396 0.7334516
vt 0.2869097 0.7334516
vt 0.2869097 0.7130807
vt 0.808558 0.8307588
vt 0.808558 0.8103874
vt 0.4011299 0.8103873
vt 0.4011299 0.8307587
vt 0.4081285 0.3534121
vt 0.4081285 0.6594121
vt 0.8041282 0.6594122
vt 0.8041282 0.3534122
vt 0.4011299 0.8307587
vt 0.403167 0.8327959
vt 0.8065208 0.8327959
vt 0.808558 0.8307588
vt 0.2869097 0.7130807
vt 0.2848726 0.7110437
vt -0.02680239 0.7110437
vt -0.0288396 0.7130807
vt 0.8085577 0.8319454
vt 0.8065206 0.8299082
vt 0.4031673 0.8299081
vt 0.4011302 0.8319453
vt 0.6139088 0.7011992
vt 0.6139088 0.3230994
vt 0.3213088 0.3230994
vt 0.3213088 0.7011992
vt 0.2728699 0.3771399
vt 0.2728699 -0.02786005
vt -0.01973017 -0.02786005
vt -0.01973017 0.3771399
vt 0.01338696 0.3233279
vt 0.01338696 0.6983278
vt 0.3629867 0.6983278
vt 0.3629867 0.3233279
vt 0.235669 -0.02786005
vt 0.235669 0.3771399
vt 0.5282691 0.3771399
vt 0.5282691 -0.02786005
vt 0.8626859 0.3771399
vt 0.8626859 -0.02786005
vt 0.4845861 -0.02786005
vt 0.4845861 0.3771399
vt 0.705004 0.6741768
vt 0.442804 0.6741768
vt 0.442804 1.023777
vt 0.705004 1.023777
vt 0.2447105 0.646727
vt -0.01748949 0.646727
vt -0.01748949 1.021727
vt 0.2447105 1.021727
vt 0.6728609 1.023777
vt 0.9350609 1.023777
vt 0.9350609 0.6741768
vt 0.6728609 0.6741768
vt 0.4749472 0.64937
vt 0.2127472 0.64937
vt 0.2127472 1.02437
vt 0.4749472 1.02437
vt 0.9482303 0.726117
vt 0.9339802 0.7111169
vt 0.5843801 0.7111169
vt 0.5701301 0.726117
vt 0.9482303 0.3211164
vt 0.5843801 0.3361164
vt 0.9339802 0.3361164
vt 0.5701301 0.3211164
vn -0.707081 0 0.7071325
vn -0.7070805 0 0.707133
vn -0.7071231 0 0.7070904
vn -0.707081 0 0.7071325
vn -0.7071231 0 0.7070904
vn -0.7071233 0 0.7070903
vn 0 0 -1
vn 0 0 -1
vn 0 0 -1
vn 0 0 -1
vn -1 0 0
vn -1 0 0
vn -1 0 0
vn -1 0 0
vn 0 1 0
vn 0 1 0
vn 0 1 0
vn 0 1 0
vn 1 0 3.688038E-07
vn 1 0 3.688037E-07
vn 1 0 3.688037E-07
vn 1 0 3.688037E-07
vn 0 -1 9.771844E-07
vn 0 -1 9.842223E-07
vn 0 -1 7.699779E-07
vn 0 -1 7.6294E-07
vn 3.37533E-07 0 1
vn 0 0 1
vn 4.683716E-07 0 1
vn 8.059047E-07 0 1
vn 0 -0.7071091 0.7071044
vn 0 -0.7071092 0.7071043
vn 0 -0.7070957 0.7071178
vn 0 -0.7070957 0.7071178
vn 0.7070965 0 0.7071171
vn 0.7070967 0 0.7071168
vn 0.7070668 0 0.7071466
vn 0.7070667 0 0.7071468
vn 0 0.7070988 0.7071147
vn 0 0.7070988 0.7071147
vn 0 0.7071012 0.7071123
vn 0 0.7071012 0.7071124
vn 0 0 -1
vn 0 0 -1
vn 0 0 -1
vn 0 0 -1
vn 1 0 0
vn 1 0 0
vn 1 0 0
vn 1 0 0
vn 0 0.8195398 -0.5730222
vn 0 1 0
vn 0 1 0
vn 0 0.8195398 -0.5730223
vn -1 0 0
vn -1 0 0
vn -1 0 0
vn -1 0 0
vn 0 -1 0
vn 0 -1 0
vn 0 -1 0
vn 0 -1 0
vn 0 0 1
vn 0 0 1
vn 0 0 1
vn 0 0 1
vn 1 0 0
vn 1 0 0
vn 1 0 0
vn 1 0 0
vn 0 0 -1
vn 0 0.8195398 -0.5730222
vn 0 0.8195398 -0.5730223
vn 0 0 -1
vn -1 0 0
vn -1 0 0
vn -1 0 0
vn -1 0 0
vn 0 1 -7.464294E-07
vn 0 1 -7.536553E-07
vn 0 1 0
vn 0 1 0
vn 0 1 2.282392E-06
vn 0 1 -3.425695E-07
vn 0 1 -7.274408E-07
vn 0 1 -3.486984E-07
usemtl WhiteWoodClean
f 3/3/3 2/2/2 1/1/1
f 6/6/6 5/5/5 4/4/4
f 9/9/9 8/8/8 7/7/7
f 10/10/10 9/9/9 7/7/7
f 13/13/13 12/12/12 11/11/11
f 14/14/14 13/13/13 11/11/11
f 17/17/17 16/16/16 15/15/15
f 18/18/18 17/17/17 15/15/15
f 21/21/21 20/20/20 19/19/19
f 22/22/22 21/21/21 19/19/19
f 25/25/25 24/24/24 23/23/23
f 26/26/26 25/25/25 23/23/23
f 29/29/29 28/28/28 27/27/27
f 30/30/30 29/29/29 27/27/27
f 33/33/33 32/32/32 31/31/31
f 34/34/34 33/33/33 31/31/31
f 37/37/37 36/36/36 35/35/35
f 38/38/38 37/37/37 35/35/35
f 41/41/41 40/40/40 39/39/39
f 42/42/42 41/41/41 39/39/39
f 45/45/45 44/44/44 43/43/43
f 46/46/46 45/45/45 43/43/43
f 49/49/49 48/48/48 47/47/47
f 50/50/50 49/49/49 47/47/47
f 53/53/53 52/52/52 51/51/51
f 51/51/51 54/54/54 53/53/53
f 57/57/57 56/56/56 55/55/55
f 58/58/58 57/57/57 55/55/55
f 61/61/61 60/60/60 59/59/59
f 59/59/59 62/62/62 61/61/61
f 65/65/65 64/64/64 63/63/63
f 66/66/66 65/65/65 63/63/63
f 69/69/69 68/68/68 67/67/67
f 70/70/70 69/69/69 67/67/67
f 73/73/73 72/72/72 71/71/71
f 74/74/74 73/73/73 71/71/71
f 77/77/77 76/76/76 75/75/75
f 78/78/78 77/77/77 75/75/75
f 81/81/81 80/80/80 79/79/79
f 82/82/82 81/81/81 79/79/79
f 79/79/79 80/80/80 83/83/83
f 84/84/84 81/81/81 82/82/82
f 80/80/80 85/85/85 83/83/83
f 86/86/86 84/84/84 82/82/82
f 83/83/83 85/85/85 86/86/86
f 85/85/85 84/84/84 86/86/86
