# Blender 3.6.0
# www.blender.org
o mesh_72f6a7fa_mesh_72f6a7fa
v -2.430000 -0.099990 -2.900000
v -2.430000 -0.099990 2.500000
v 2.400010 -0.099990 2.500000
v 2.400010 -0.099990 -2.900000
v -2.430000 -0.000000 -2.900000
v -2.430000 -0.099990 -2.900000
v 2.400010 -0.099990 -2.900000
v 2.400010 -0.000000 -2.900000
v 2.400010 -0.000000 -2.900000
v 2.400010 -0.099990 -2.900000
v 2.400010 -0.099990 2.500000
v 2.400010 0.000000 2.500000
v 2.400010 0.000000 2.500000
v 2.400010 -0.099990 2.500000
v -2.430000 -0.099990 2.500000
v -2.430000 0.000000 2.500000
v -2.430000 0.000000 2.500000
v -2.430000 -0.099990 2.500000
v -2.430000 -0.099990 -2.900000
v -2.430000 -0.000000 -2.900000
v -2.430000 -0.000000 -2.900000
v 2.400010 -0.000000 -2.900000
v 2.400010 0.000000 2.500000
v -2.430000 0.000000 2.500000
vn -0.0000 -1.0000 -0.0000
vn -0.0000 -0.0000 -1.0000
vn 1.0000 -0.0000 -0.0000
vn -0.0000 -0.0000 1.0000
vn -1.0000 -0.0000 -0.0000
vn -0.0000 1.0000 -0.0000
vt 5.744012 4.317621
vt 1.096898 4.317621
vt 1.096898 -1.294894
vt 5.744012 -1.294894
vt 2.278991 2.440555
vt 3.948282 2.440555
vt 3.948282 2.729899
vt 2.278991 2.729899
vt 0.763085 0.911942
vt 2.702824 0.911942
vt 2.702824 1.190330
vt 0.763085 1.190330
vt 2.278990 2.747374
vt 3.948283 2.747374
vt 3.948283 3.036717
vt 2.278990 3.036717
vt 0.763086 0.605124
vt 2.702823 0.605124
vt 2.702823 0.883512
vt 0.763086 0.883512
vt -0.744012 4.931257
vt -0.744012 -0.681256
vt 3.903103 -0.681256
vt 3.903103 4.931257
s 1
f 3/1/1 2/2/1 1/3/1
f 4/4/1 3/1/1 1/3/1
f 7/5/2 6/6/2 5/7/2
f 8/8/2 7/5/2 5/7/2
f 11/9/3 10/10/3 9/11/3
f 12/12/3 11/9/3 9/11/3
f 15/13/4 14/14/4 13/15/4
f 16/16/4 15/13/4 13/15/4
f 19/17/5 18/18/5 17/19/5
f 20/20/5 19/17/5 17/19/5
f 23/21/6 22/22/6 21/23/6
f 24/24/6 23/21/6 21/23/6
f 3/1/1 2/2/1 1/3/1
f 4/4/1 3/1/1 1/3/1
f 7/5/2 6/6/2 5/7/2
f 8/8/2 7/5/2 5/7/2
f 11/9/3 10/10/3 9/11/3
f 12/12/3 11/9/3 9/11/3
f 15/13/4 14/14/4 13/15/4
f 16/16/4 15/13/4 13/15/4
f 19/17/5 18/18/5 17/19/5
f 20/20/5 19/17/5 17/19/5
f 23/21/6 22/22/6 21/23/6
f 24/24/6 23/21/6 21/23/6
