mtllib material.mtl
usemtl material_0
v -0.24000000 0.05500000 0.02000000
v -0.23800000 0.05300000 0.02200000
v -0.23800000 -0.05300000 0.02200000
v -0.24000000 -0.05499000 0.02000000
v -0.24000000 -0.05499000 0.00000000
v 0.24000000 -0.05499000 0.00000000
v 0.24000000 0.05500000 0.00000000
v -0.24000000 0.05500000 0.00000000
v -0.24000000 -0.05499000 0.02000000
v -0.24000000 -0.05499000 0.00000000
v -0.24000000 0.05500000 0.00000000
v -0.24000000 0.05500000 0.02000000
v -0.24000000 0.05500000 0.02000000
v -0.24000000 0.05500000 0.00000000
v 0.24000000 0.05500000 0.00000000
v 0.24000000 0.05500000 0.02000000
v 0.24000000 0.05500000 0.02000000
v 0.24000000 0.05500000 0.00000000
v 0.24000000 -0.05499000 0.00000000
v 0.24000000 -0.05499000 0.02000000
v 0.24000000 -0.05499000 0.02000000
v 0.24000000 -0.05499000 0.00000000
v -0.24000000 -0.05499000 0.00000000
v -0.24000000 -0.05499000 0.02000000
v -0.23800000 -0.05300000 0.02200000
v -0.23800000 0.05300000 0.02200000
v 0.23801000 0.05301000 0.02200000
v 0.23801000 -0.05299000 0.02200000
v -0.24000000 -0.05499000 0.02000000
v -0.23800000 -0.05300000 0.02200000
v 0.23801000 -0.05299000 0.02200000
v 0.24000000 -0.05499000 0.02000000
v 0.24000000 -0.05499000 0.02000000
v 0.23801000 -0.05299000 0.02200000
v 0.23801000 0.05301000 0.02200000
v 0.24000000 0.05500000 0.02000000
v 0.24000000 0.05500000 0.02000000
v 0.23801000 0.05301000 0.02200000
v -0.23800000 0.05300000 0.02200000
v -0.24000000 0.05500000 0.02000000
v -0.23899000 -0.05400000 -0.36712000
v 0.23901000 -0.05399000 -0.36712000
v 0.23901000 0.04861000 -0.36712000
v -0.23899000 0.04860000 -0.36712000
v -0.22400000 -0.04070000 -0.00612000
v -0.22400000 -0.04070000 -0.35287000
v 0.22401000 -0.04069000 -0.35287000
v 0.22401000 -0.04069000 -0.00612000
v 0.23901000 -0.05399000 0.00813000
v 0.23901000 0.04861000 0.00813000
v 0.23901000 0.04861000 -0.36712000
v 0.23901000 -0.05399000 -0.36712000
v -0.23899000 -0.05400000 0.00813000
v 0.23901000 -0.05399000 0.00813000
v 0.23901000 -0.05399000 -0.36712000
v -0.23899000 -0.05400000 -0.36712000
v -0.23899000 0.04860000 0.00813000
v -0.23899000 -0.05400000 0.00813000
v -0.23899000 -0.05400000 -0.36712000
v -0.23899000 0.04860000 -0.36712000
v -0.22400000 0.04860000 -0.00612000
v -0.22400000 -0.04070000 -0.00612000
v 0.22401000 -0.04069000 -0.00612000
v 0.22401000 0.04861000 -0.00612000
v 0.22401000 0.04861000 -0.00612000
v 0.22401000 -0.04069000 -0.00612000
v 0.22401000 -0.04069000 -0.35287000
v 0.22401000 0.04861000 -0.35287000
v 0.22401000 0.04861000 -0.35287000
v 0.22401000 -0.04069000 -0.35287000
v -0.22400000 -0.04070000 -0.35287000
v -0.22400000 0.04860000 -0.35287000
v -0.22400000 0.04860000 -0.35287000
v -0.22400000 -0.04070000 -0.35287000
v -0.22400000 -0.04070000 -0.00612000
v -0.22400000 0.04860000 -0.00612000
v 0.23901000 0.04861000 -0.36712000
v 0.22401000 0.04861000 -0.35287000
v -0.22400000 0.04860000 -0.35287000
v -0.23899000 0.04860000 -0.36712000
v 0.23901000 0.04861000 0.00813000
v -0.22400000 0.04860000 -0.00612000
v 0.22401000 0.04861000 -0.00612000
v -0.23899000 0.04860000 0.00813000
vn -0.70714920 0.00000000 0.70706430
vn -0.70714940 0.00000000 0.70706410
vn -0.70714400 0.00000000 0.70706960
vn -0.70714380 0.00000000 0.70706970
vn 0.00000000 0.00000000 -1.00000000
vn 0.00000014 0.00000000 -1.00000000
vn 0.00000012 0.00000000 -1.00000000
vn 0.00000000 0.00000000 -1.00000000
vn -1.00000000 0.00000000 0.00000000
vn -1.00000000 0.00000000 0.00000000
vn -1.00000000 0.00000000 0.00000000
vn -1.00000000 0.00000000 0.00000000
vn -0.00000016 1.00000000 0.00000000
vn -0.00000016 1.00000000 0.00000000
vn -0.00000016 1.00000000 0.00000000
vn -0.00000016 1.00000000 0.00000000
vn 1.00000000 0.00000000 0.00000000
vn 1.00000000 0.00000000 0.00000000
vn 1.00000000 0.00000000 0.00000000
vn 1.00000000 0.00000000 0.00000000
vn 0.00000016 -1.00000000 0.00000000
vn 0.00000016 -1.00000000 0.00000000
vn 0.00000016 -1.00000000 0.00000000
vn 0.00000016 -1.00000000 0.00000000
vn 0.00000000 0.00000000 1.00000000
vn 0.00000000 0.00000000 1.00000000
vn 0.00000000 0.00000000 1.00000000
vn 0.00000000 0.00000000 1.00000000
vn -0.00000056 -0.70716070 0.70705290
vn -0.00000057 -0.70716090 0.70705260
vn 0.00000056 -0.70710700 0.70710650
vn 0.00000056 -0.70710680 0.70710660
vn 0.70714920 0.00000000 0.70706440
vn 0.70714940 0.00000000 0.70706410
vn 0.70714350 0.00000000 0.70706990
vn 0.70714350 0.00000000 0.70707000
vn 0.00000056 0.70713520 0.70707830
vn 0.00000057 0.70713510 0.70707840
vn -0.00000056 0.70714270 0.70707080
vn -0.00000056 0.70714270 0.70707080
vn 0.00000000 0.00000000 -1.00000000
vn 0.00000000 0.00000000 -1.00000000
vn 0.00000000 0.00000000 -1.00000000
vn 0.00000000 0.00000000 -1.00000000
vn -0.00000017 1.00000000 0.00000000
vn -0.00000017 1.00000000 0.00000000
vn -0.00000017 1.00000000 0.00000000
vn -0.00000017 1.00000000 0.00000000
vn 1.00000000 0.00000000 0.00000000
vn 1.00000000 0.00000000 0.00000000
vn 1.00000000 0.00000000 0.00000000
vn 1.00000000 0.00000000 0.00000000
vn 0.00000016 -1.00000000 0.00000000
vn 0.00000016 -1.00000000 0.00000000
vn 0.00000016 -1.00000000 0.00000000
vn 0.00000016 -1.00000000 0.00000000
vn -1.00000000 0.00000000 0.00000000
vn -1.00000000 0.00000000 0.00000000
vn -1.00000000 0.00000000 0.00000000
vn -1.00000000 0.00000000 0.00000000
vn 0.00000000 0.00000000 -1.00000000
vn 0.00000000 0.00000000 -1.00000000
vn 0.00000000 0.00000000 -1.00000000
vn 0.00000000 0.00000000 -1.00000000
vn -1.00000000 0.00000000 0.00000000
vn -1.00000000 0.00000000 0.00000000
vn -1.00000000 0.00000000 0.00000000
vn -1.00000000 0.00000000 0.00000000
vn 0.00000091 0.00000000 1.00000000
vn 0.00000122 0.00000000 1.00000000
vn -0.00000091 0.00000000 1.00000000
vn -0.00000122 0.00000000 1.00000000
vn 1.00000000 0.00000000 0.00000000
vn 1.00000000 0.00000000 0.00000000
vn 1.00000000 0.00000000 0.00000000
vn 1.00000000 0.00000000 0.00000000
vn 0.00000000 1.00000000 0.00000063
vn 0.00000000 1.00000000 0.00000051
vn 0.00000000 1.00000000 0.00000406
vn 0.00000000 1.00000000 0.00000394
vn 0.00000000 1.00000000 -0.00000394
vn 0.00000000 1.00000000 0.00000000
vn 0.00000000 1.00000000 -0.00000405
vn 0.00000000 1.00000000 -0.00000016
vt -0.69109530 2.67988600
vt -0.68888970 2.67768000
vt -0.68888970 2.54135800
vt -0.69109530 2.53915200
vt 1.67606200 1.29916100
vt 1.23867600 1.29916100
vt 1.23867600 1.41987800
vt 1.67606200 1.41987800
vt 3.81208700 0.68437980
vt 3.79015100 0.68437980
vt 3.79015100 0.78465930
vt 3.81208700 0.78465930
vt 1.65674800 0.59030690
vt 1.65674800 0.56623230
vt 1.25799000 0.56623230
vt 1.25799000 0.59030690
vt 4.10265100 0.78466460
vt 4.12458800 0.78466460
vt 4.12458800 0.68437450
vt 4.10265100 0.68437450
vt 1.65674800 0.27780690
vt 1.65674800 0.25373230
vt 1.25799000 0.25373230
vt 1.25799000 0.27780690
vt 1.24109500 2.55119500
vt 1.24109500 2.66784400
vt 1.67364300 2.66784400
vt 1.67364300 2.55119500
vt 1.17720900 2.02239900
vt 1.17963300 2.02482200
vt 1.73510600 2.02482200
vt 1.73752900 2.02239900
vt 3.60583400 2.53914000
vt 3.60362700 2.54134600
vt 3.60362700 2.67769400
vt 3.60583400 2.67990000
vt 1.73752000 3.19664000
vt 1.73509700 3.19421700
vt 1.17964100 3.19421700
vt 1.17721800 3.19664000
vt 0.47580340 0.47406930
vt 0.47580340 -0.00393105
vt 0.37320350 -0.00393105
vt 0.37320350 0.47406930
vt 0.56213860 0.91492850
vt 0.90888820 0.91492850
vt 0.90888820 0.46692840
vt 0.56213860 0.46692840
vt 0.45880540 0.84305320
vt 0.56140540 0.84305320
vt 0.56140540 0.46780320
vt 0.45880540 0.46780320
vt 0.85236820 0.47406910
vt 0.85236820 -0.00393088
vt 0.47711810 -0.00393088
vt 0.47711810 0.47406910
vt 0.45513720 0.46780320
vt 0.35253730 0.46780320
vt 0.35253730 0.84305350
vt 0.45513720 0.84305350
vt 0.90978150 0.88565030
vt 0.99908170 0.88565030
vt 0.99908140 0.43764980
vt 0.90978150 0.43764980
vt 0.34870910 0.46814600
vt 0.25940910 0.46814600
vt 0.25940910 0.81489530
vt 0.34870910 0.81489530
vt 0.94405470 -0.00357029
vt 0.85475470 -0.00357029
vt 0.85475460 0.44443010
vt 0.94405460 0.44443010
vt 0.25542080 0.46814600
vt 0.16612070 0.46814600
vt 0.16612070 0.81489540
vt 0.25542080 0.81489540
vt 0.37273120 -0.00393118
vt 0.35848090 0.01106882
vt 0.35848090 0.45906970
vt 0.37273120 0.47406960
vt -0.00251931 -0.00393118
vt 0.01173081 0.45906970
vt 0.01173081 0.01106882
vt -0.00251931 0.47406960
f 3/3/3 2/2/2 1/1/1
f 4/4/4 3/3/3 1/1/1
f 7/7/7 6/6/6 5/5/5
f 8/8/8 7/7/7 5/5/5
f 11/11/11 10/10/10 9/9/9
f 12/12/12 11/11/11 9/9/9
f 15/15/15 14/14/14 13/13/13
f 16/16/16 15/15/15 13/13/13
f 19/19/19 18/18/18 17/17/17
f 20/20/20 19/19/19 17/17/17
f 23/23/23 22/22/22 21/21/21
f 24/24/24 23/23/23 21/21/21
f 27/27/27 26/26/26 25/25/25
f 28/28/28 27/27/27 25/25/25
f 31/31/31 30/30/30 29/29/29
f 32/32/32 31/31/31 29/29/29
f 35/35/35 34/34/34 33/33/33
f 36/36/36 35/35/35 33/33/33
f 39/39/39 38/38/38 37/37/37
f 40/40/40 39/39/39 37/37/37
f 43/43/43 42/42/42 41/41/41
f 44/44/44 43/43/43 41/41/41
f 47/47/47 46/46/46 45/45/45
f 48/48/48 47/47/47 45/45/45
f 51/51/51 50/50/50 49/49/49
f 52/52/52 51/51/51 49/49/49
f 55/55/55 54/54/54 53/53/53
f 56/56/56 55/55/55 53/53/53
f 59/59/59 58/58/58 57/57/57
f 60/60/60 59/59/59 57/57/57
f 63/63/63 62/62/62 61/61/61
f 64/64/64 63/63/63 61/61/61
f 67/67/67 66/66/66 65/65/65
f 68/68/68 67/67/67 65/65/65
f 71/71/71 70/70/70 69/69/69
f 72/72/72 71/71/71 69/69/69
f 75/75/75 74/74/74 73/73/73
f 76/76/76 75/75/75 73/73/73
f 79/79/79 78/78/78 77/77/77
f 80/80/80 79/79/79 77/77/77
f 77/77/77 78/78/78 81/81/81
f 82/82/82 79/79/79 80/80/80
f 78/78/78 83/83/83 81/81/81
f 84/84/84 82/82/82 80/80/80
f 81/81/81 83/83/83 84/84/84
f 83/83/83 82/82/82 84/84/84

