# Blender 3.6.0
# www.blender.org
o StandardIslandHeight_c3ccfdb2_StandardIslandHeight_c3ccfdb2_1
v -0.319990 1.060000 1.010000
v -0.319990 1.062010 1.012000
v 0.622000 1.062010 1.012000
v 0.620000 1.060000 1.010000
v 0.620000 1.060000 1.010000
v 0.622000 1.062010 1.012000
v 0.622000 1.062010 -1.021990
v 0.620000 1.060000 -1.019990
v -0.499990 1.060000 -1.019990
v -0.501990 1.062010 -1.021990
v -0.501990 1.062010 1.012000
v -0.499990 1.060000 1.010000
v -0.319990 1.100010 -1.019990
v -0.319990 1.098010 -1.021990
v 0.622000 1.098010 -1.021990
v 0.620000 1.100010 -1.019990
v -0.499990 1.100010 -1.019990
v -0.501990 1.098010 -1.021990
v -0.499990 1.100010 1.010000
v -0.499990 1.100010 -1.019990
v -0.319990 1.100010 -1.019990
v -0.319990 1.100010 1.010000
v -0.300000 1.100010 0.990000
v -0.300000 1.100010 -0.999990
v 0.620000 1.100010 -1.019990
v 0.600010 1.100010 0.990000
v 0.620000 1.100010 1.010000
v 0.600010 1.100010 -0.999990
v -0.501990 1.062010 -1.021990
v -0.501990 1.098010 -1.021990
v -0.501990 1.098010 1.012000
v -0.501990 1.062010 1.012000
v -0.501990 1.062010 1.012000
v -0.501990 1.098010 1.012000
v -0.319990 1.098010 1.012000
v -0.319990 1.062010 1.012000
v 0.622000 1.098010 1.012000
v 0.622000 1.062010 1.012000
v -0.501990 1.098010 -1.021990
v -0.501990 1.062010 -1.021990
v -0.319990 1.062010 -1.021990
v -0.319990 1.098010 -1.021990
v 0.622000 1.062010 -1.021990
v 0.622000 1.098010 -1.021990
v 0.602130 1.060000 0.992130
v 0.597010 1.060000 0.990000
v -0.297000 1.060000 0.990000
v -0.302120 1.060000 0.992130
v 0.620000 1.060000 1.010000
v 0.600010 1.060000 0.987000
v 0.600010 1.060000 -0.997000
v 0.602130 1.060000 -1.002120
v -0.319990 1.060000 1.010000
v 0.620000 1.060000 -1.019990
v -0.300000 1.060000 0.987000
v -0.300000 1.060000 -0.997000
v -0.319990 1.060000 -1.019990
v -0.302120 1.060000 -1.002120
v 0.597010 1.060000 -0.999990
v -0.297000 1.060000 -0.999990
v -0.499990 1.060000 -1.019990
v -0.499990 1.060000 1.010000
v 0.622000 1.062010 1.012000
v 0.622000 1.098010 1.012000
v 0.622000 1.098010 -1.021990
v 0.622000 1.062010 -1.021990
v -0.499990 1.060000 1.010000
v -0.501990 1.062010 1.012000
v 0.620000 1.060000 -1.019990
v 0.622000 1.062010 -1.021990
v -0.319990 1.062010 -1.021990
v -0.319990 1.060000 -1.019990
v -0.501990 1.062010 -1.021990
v -0.499990 1.060000 -1.019990
v 0.620000 1.100010 1.010000
v 0.622000 1.098010 1.012000
v -0.319990 1.098010 1.012000
v -0.319990 1.100010 1.010000
v -0.501990 1.098010 1.012000
v -0.499990 1.100010 1.010000
v -0.499990 1.100010 1.010000
v -0.501990 1.098010 1.012000
v -0.501990 1.098010 -1.021990
v -0.499990 1.100010 -1.019990
v 0.620000 1.100010 -1.019990
v 0.622000 1.098010 -1.021990
v 0.622000 1.098010 1.012000
v 0.620000 1.100010 1.010000
vn -0.0000 -0.7053 0.7089
vn 0.7089 -0.7053 -0.0000
vn -0.7088 -0.7054 -0.0000
vn -0.7089 -0.7053 -0.0000
vn -0.0000 0.7071 -0.7071
vn -0.0000 1.0000 -0.0000
vn -1.0000 -0.0000 -0.0000
vn -0.0000 -0.0000 1.0000
vn -0.0000 -0.0000 -1.0000
vn -0.0000 -1.0000 -0.0000
vn -0.0000 -1.0000 -0.0001
vn 1.0000 -0.0000 -0.0000
vn -0.0000 -0.7053 -0.7089
vn -0.0000 0.7071 0.7071
vn -0.7071 0.7071 -0.0000
vn -0.7072 0.7071 -0.0000
vn 0.7071 0.7071 -0.0000
vt -0.284126 0.936002
vt -0.284126 -0.007794
vt -0.282122 -0.007794
vt -0.282122 0.933998
vt 1.772644 0.493069
vt -0.303019 0.493069
vt -0.300978 0.491028
vt 1.770602 0.491028
vt 1.772644 0.216318
vt -0.303019 0.216318
vt -0.300978 0.214277
vt 1.770603 0.214277
vt -0.282602 0.658214
vt -0.282602 -0.284170
vt -0.280602 -0.284171
vt -0.280602 0.656213
vt -0.280602 -0.464244
vt -0.282603 -0.466244
vt 1.750226 -0.464245
vt 1.750226 -0.284171
vt 1.730218 -0.264163
vt -0.260594 -0.264162
vt 1.730218 0.636205
vt 1.750227 0.656213
vt -0.260593 0.636205
vt 1.772644 0.253055
vt -0.303019 0.253056
vt -0.006499 0.292799
vt -0.188499 0.292799
vt -0.188499 0.256799
vt -0.006499 0.256799
vt 0.935501 0.292799
vt 0.935501 0.256799
vt -0.006498 0.278518
vt -0.188498 0.278518
vt -0.188498 0.242517
vt -0.006498 0.242517
vt 0.935500 0.278517
vt 0.935500 0.242518
vt -0.262084 0.015250
vt -0.262084 0.910954
vt -0.264210 0.916085
vt -0.264210 0.010119
vt -0.259078 0.913960
vt 1.728703 0.913960
vt 1.733833 0.916085
vt 1.751747 0.933998
vt -0.259079 0.012244
vt 1.728703 0.012244
vt 1.751747 -0.007794
vt 1.733834 0.010119
vt 1.731709 0.910954
vt 1.731709 0.015250
vt 1.751747 -0.188137
vt -0.282122 -0.188137
vt 1.772644 0.529807
vt -0.303019 0.529807
vt -0.284126 -0.190141
vt 1.753751 -0.007794
vt 1.753751 0.936001
vt 1.753751 -0.190141
vt 1.752227 -0.284171
vt 1.752228 0.658213
vt 1.752227 -0.466245
vt 1.770603 0.255097
vt -0.300978 0.255097
vt 1.770602 0.531848
vt -0.300978 0.531848
s 1
f 3/1/1 2/2/1 1/3/1
f 4/4/1 3/1/1 1/3/1
f 7/5/2 6/6/2 5/7/2
f 8/8/2 7/5/2 5/7/2
f 11/9/3 10/10/4 9/11/4
f 12/12/3 11/9/3 9/11/4
f 15/13/5 14/14/5 13/15/5
f 16/16/5 15/13/5 13/15/5
f 13/15/5 14/14/5 17/17/5
f 14/14/5 18/18/5 17/17/5
f 21/15/6 20/17/6 19/19/6
f 22/20/6 21/15/6 19/19/6
f 21/15/6 22/20/6 23/21/6
f 24/22/6 21/15/6 23/21/6
f 25/16/6 21/15/6 24/22/6
f 23/21/6 22/20/6 26/23/6
f 23/21/6 26/23/6 24/22/6
f 22/20/6 27/24/6 26/23/6
f 28/25/6 25/16/6 24/22/6
f 26/23/6 28/25/6 24/22/6
f 27/24/6 25/16/6 28/25/6
f 26/23/6 27/24/6 28/25/6
f 31/26/7 30/27/7 29/10/7
f 32/9/7 31/26/7 29/10/7
f 35/28/8 34/29/8 33/30/8
f 36/31/8 35/28/8 33/30/8
f 37/32/8 35/28/8 36/31/8
f 38/33/8 37/32/8 36/31/8
f 41/34/9 40/35/9 39/36/9
f 42/37/9 41/34/9 39/36/9
f 41/34/9 42/37/9 43/38/9
f 42/37/9 44/39/9 43/38/9
f 47/40/10 46/41/10 45/42/10
f 45/42/10 48/43/10 47/40/10
f 45/42/10 49/4/10 48/43/10
f 49/4/10 45/42/10 50/44/10
f 49/4/10 50/44/10 51/45/10
f 49/4/10 51/45/10 52/46/10
f 49/4/10 53/3/10 48/43/10
f 52/46/10 54/47/10 49/4/10
f 55/48/10 48/43/10 53/3/10
f 56/49/10 55/48/10 53/3/10
f 57/50/10 54/47/10 52/46/10
f 58/51/10 56/49/10 53/3/10
f 52/46/10 58/51/10 57/50/10
f 53/3/10 57/50/10 58/51/10
f 52/46/10 59/52/11 58/51/10
f 59/52/11 60/53/10 58/51/10
f 57/50/10 53/3/10 61/54/10
f 53/3/10 62/55/10 61/54/10
f 65/56/12 64/57/12 63/6/12
f 66/5/12 65/56/12 63/6/12
f 1/3/1 2/2/1 67/55/1
f 2/2/1 68/58/1 67/55/1
f 71/59/13 70/60/13 69/47/13
f 72/50/13 71/59/13 69/47/13
f 73/61/13 71/59/13 72/50/13
f 74/54/13 73/61/13 72/50/13
f 77/62/14 76/63/14 75/24/14
f 78/20/14 77/62/14 75/24/14
f 79/64/14 77/62/14 78/20/14
f 80/19/14 79/64/14 78/20/14
f 83/27/15 82/26/16 81/65/16
f 84/66/15 83/27/15 81/65/16
f 87/57/17 86/56/17 85/67/17
f 88/68/17 87/57/17 85/67/17
f 3/1/1 2/2/1 1/3/1
f 4/4/1 3/1/1 1/3/1
f 7/5/2 6/6/2 5/7/2
f 8/8/2 7/5/2 5/7/2
f 11/9/3 10/10/4 9/11/4
f 12/12/3 11/9/3 9/11/4
f 15/13/5 14/14/5 13/15/5
f 16/16/5 15/13/5 13/15/5
f 13/15/5 14/14/5 17/17/5
f 14/14/5 18/18/5 17/17/5
f 21/15/6 20/17/6 19/19/6
f 22/20/6 21/15/6 19/19/6
f 21/15/6 22/20/6 23/21/6
f 24/22/6 21/15/6 23/21/6
f 25/16/6 21/15/6 24/22/6
f 23/21/6 22/20/6 26/23/6
f 23/21/6 26/23/6 24/22/6
f 22/20/6 27/24/6 26/23/6
f 28/25/6 25/16/6 24/22/6
f 26/23/6 28/25/6 24/22/6
f 27/24/6 25/16/6 28/25/6
f 26/23/6 27/24/6 28/25/6
f 31/26/7 30/27/7 29/10/7
f 32/9/7 31/26/7 29/10/7
f 35/28/8 34/29/8 33/30/8
f 36/31/8 35/28/8 33/30/8
f 37/32/8 35/28/8 36/31/8
f 38/33/8 37/32/8 36/31/8
f 41/34/9 40/35/9 39/36/9
f 42/37/9 41/34/9 39/36/9
f 41/34/9 42/37/9 43/38/9
f 42/37/9 44/39/9 43/38/9
f 47/40/10 46/41/10 45/42/10
f 45/42/10 48/43/10 47/40/10
f 45/42/10 49/4/10 48/43/10
f 49/4/10 45/42/10 50/44/10
f 49/4/10 50/44/10 51/45/10
f 49/4/10 51/45/10 52/46/10
f 49/4/10 53/3/10 48/43/10
f 52/46/10 54/47/10 49/4/10
f 55/48/10 48/43/10 53/3/10
f 56/49/10 55/48/10 53/3/10
f 57/50/10 54/47/10 52/46/10
f 58/51/10 56/49/10 53/3/10
f 52/46/10 58/51/10 57/50/10
f 53/3/10 57/50/10 58/51/10
f 52/46/10 59/52/11 58/51/10
f 59/52/11 60/53/10 58/51/10
f 57/50/10 53/3/10 61/54/10
f 53/3/10 62/55/10 61/54/10
f 65/56/12 64/57/12 63/6/12
f 66/5/12 65/56/12 63/6/12
f 1/3/1 2/2/1 67/55/1
f 2/2/1 68/58/1 67/55/1
f 71/59/13 70/60/13 69/47/13
f 72/50/13 71/59/13 69/47/13
f 73/61/13 71/59/13 72/50/13
f 74/54/13 73/61/13 72/50/13
f 77/62/14 76/63/14 75/24/14
f 78/20/14 77/62/14 75/24/14
f 79/64/14 77/62/14 78/20/14
f 80/19/14 79/64/14 78/20/14
f 83/27/15 82/26/16 81/65/16
f 84/66/15 83/27/15 81/65/16
f 87/57/17 86/56/17 85/67/17
f 88/68/17 87/57/17 85/67/17
