# Blender 3.6.0
# www.blender.org
o StandardIslandHeight_c3ccfdb2_StandardIslandHeight_c3ccfdb2_0
v 0.602130 1.060000 0.992130
v 0.597010 1.060000 0.990000
v -0.297000 1.060000 0.990000
v -0.302120 1.060000 0.992130
v 0.600010 1.060000 0.987000
v 0.600010 1.060000 -0.997000
v 0.602130 1.060000 -1.002120
v -0.300000 1.060000 0.987000
v -0.300000 1.060000 -0.997000
v -0.302120 1.060000 -1.002120
v 0.597010 1.060000 -0.999990
v -0.297000 1.060000 -0.999990
v 0.597010 0.040010 -0.999990
v 0.602020 0.039060 -1.002010
v 0.600010 0.040010 -0.997000
v -0.297000 0.040000 -0.999990
v -0.300000 0.040000 -0.997000
v -0.302010 0.039060 -1.002010
v 0.600010 0.040000 0.987000
v 0.602020 0.039060 0.992020
v 0.597010 0.040000 0.990000
v -0.300000 0.040000 0.987000
v -0.297000 0.040000 0.990000
v -0.302010 0.039060 0.992020
v -0.300000 1.060000 0.987000
v -0.300000 0.040000 0.987000
v -0.300000 0.040000 -0.997000
v -0.300000 1.060000 -0.997000
v 0.597010 1.060000 0.990000
v 0.597010 0.040000 0.990000
v -0.297000 0.040000 0.990000
v -0.297000 1.060000 0.990000
v 0.600010 1.060000 -0.997000
v 0.600010 0.040010 -0.997000
v 0.600010 0.040000 0.987000
v 0.600010 1.060000 0.987000
v -0.297000 1.060000 -0.999990
v -0.297000 0.040000 -0.999990
v 0.597010 0.040010 -0.999990
v 0.597010 1.060000 -0.999990
v -0.300000 0.040000 -0.997000
v -0.297000 0.040000 -0.999990
v -0.297000 1.060000 -0.999990
v -0.300000 1.060000 -0.997000
v 0.600010 1.060000 -0.997000
v 0.597010 1.060000 -0.999990
v 0.597010 0.040010 -0.999990
v 0.600010 0.040010 -0.997000
v 0.597010 1.060000 0.990000
v 0.600010 1.060000 0.987000
v 0.600010 0.040000 0.987000
v 0.597010 0.040000 0.990000
v -0.300000 1.060000 0.987000
v -0.297000 1.060000 0.990000
v -0.297000 0.040000 0.990000
v -0.300000 0.040000 0.987000
vn -0.0000 -1.0000 -0.0000
vn 0.1326 0.9822 -0.1330
vn -0.1313 0.9826 -0.1317
vn 0.1314 0.9826 0.1314
vn -0.1314 0.9826 0.1314
vn -1.0000 -0.0000 -0.0000
vn -0.0000 -0.0000 1.0000
vn 1.0000 -0.0000 -0.0000
vn -0.0000 -0.0000 -1.0000
vn -0.7059 -0.0000 -0.7083
vn 0.7059 -0.0000 -0.7083
vn 0.7071 -0.0000 0.7071
vn -0.7071 -0.0000 0.7071
vt 1.733834 0.010119
vt 1.731709 0.015250
vt 1.728703 0.012244
vt 1.733833 0.916085
vt 1.728703 0.913960
vt 1.731709 0.910954
vt -0.264210 0.916085
vt -0.262084 0.910954
vt -0.259078 0.913960
vt -0.264210 0.010119
vt -0.259079 0.012244
vt -0.262084 0.015250
vt -0.763145 1.334831
vt -0.768414 1.336946
vt -0.766299 1.331678
vt -0.768415 0.386797
vt -0.763146 0.388913
vt -0.766299 0.392066
vt 1.325231 1.331678
vt 1.327348 1.336946
vt 1.322078 1.334831
vt 1.327347 0.386796
vt 1.325231 0.392066
vt 1.322078 0.388912
vt -0.712035 0.127056
vt 1.273203 0.127056
vt 1.273203 1.147693
vt -0.712035 1.147693
vt -0.061732 -0.360845
vt 0.832268 -0.360845
vt 0.832268 0.659155
vt -0.061732 0.659155
vt -0.717104 -0.109900
vt 1.268134 -0.109900
vt 1.268135 0.910737
vt -0.717104 0.910737
vt -0.296544 -0.440039
vt 0.597456 -0.440040
vt 0.597456 0.579961
vt -0.296544 0.579961
vt -0.715037 1.147694
vt -0.715037 0.127056
vt 1.271136 -0.109900
vt 1.271136 0.910737
vt -0.720106 0.910737
vt -0.720106 -0.109900
vt 1.276206 0.127056
vt 1.276206 1.147693
s 1
f 10/1/1 12/2/1 9/3/1
f 7/4/1 6/5/1 11/6/1
f 1/7/1 2/8/1 5/9/1
f 4/10/1 8/11/1 3/12/1
f 15/13/2 14/14/2 13/15/2
f 18/16/3 17/17/3 16/18/3
f 21/19/4 20/20/4 19/21/4
f 24/22/5 23/23/5 22/24/5
f 27/25/6 26/26/6 25/27/6
f 28/28/6 27/25/6 25/27/6
f 31/29/7 30/30/7 29/31/7
f 32/32/7 31/29/7 29/31/7
f 35/33/8 34/34/8 33/35/8
f 36/36/8 35/33/8 33/35/8
f 39/37/9 38/38/9 37/39/9
f 40/40/9 39/37/9 37/39/9
f 43/41/10 42/42/10 41/25/10
f 44/28/10 43/41/10 41/25/10
f 47/43/11 46/44/11 45/35/11
f 48/34/11 47/43/11 45/35/11
f 51/33/12 50/36/12 49/45/12
f 52/46/12 51/33/12 49/45/12
f 55/47/13 54/48/13 53/27/13
f 56/26/13 55/47/13 53/27/13
f 10/1/1 12/2/1 9/3/1
f 7/4/1 6/5/1 11/6/1
f 1/7/1 2/8/1 5/9/1
f 4/10/1 8/11/1 3/12/1
f 15/13/2 14/14/2 13/15/2
f 18/16/3 17/17/3 16/18/3
f 21/19/4 20/20/4 19/21/4
f 24/22/5 23/23/5 22/24/5
f 27/25/6 26/26/6 25/27/6
f 28/28/6 27/25/6 25/27/6
f 31/29/7 30/30/7 29/31/7
f 32/32/7 31/29/7 29/31/7
f 35/33/8 34/34/8 33/35/8
f 36/36/8 35/33/8 33/35/8
f 39/37/9 38/38/9 37/39/9
f 40/40/9 39/37/9 37/39/9
f 43/41/10 42/42/10 41/25/10
f 44/28/10 43/41/10 41/25/10
f 47/43/11 46/44/11 45/35/11
f 48/34/11 47/43/11 45/35/11
f 51/33/12 50/36/12 49/45/12
f 52/46/12 51/33/12 49/45/12
f 55/47/13 54/48/13 53/27/13
f 56/26/13 55/47/13 53/27/13
