# Blender 3.6.0
# www.blender.org
o StandardIslandHeight_c3ccfdb2_StandardIslandHeight_c3ccfdb2_2
v -0.302010 0.039060 -1.002010
v -0.304940 0.037690 -1.004940
v 0.604950 0.037690 -1.004940
v 0.602020 0.039060 -1.002010
v -0.297000 0.040000 -0.999990
v 0.597010 0.040010 -0.999990
v 0.602020 0.039060 -1.002010
v 0.604950 0.037690 -1.004940
v 0.604950 0.037690 0.994950
v 0.600010 0.040010 -0.997000
v 0.600010 0.040000 0.987000
v 0.602020 0.039060 0.992020
v 0.602020 0.039060 0.992020
v 0.604950 0.037690 0.994950
v -0.304940 0.037690 0.994950
v -0.302010 0.039060 0.992020
v 0.597010 0.040000 0.990000
v -0.297000 0.040000 0.990000
v -0.304940 0.037690 0.994950
v -0.304940 0.037690 -1.004940
v -0.302010 0.039060 -1.002010
v -0.300000 0.040000 -0.997000
v -0.300000 0.040000 0.987000
v -0.302010 0.039060 0.992020
v 0.610810 0.012000 -1.010790
v -0.310790 0.012000 -1.010790
v -0.310800 -0.000000 -1.010790
v 0.610810 -0.000000 -1.010790
v 0.610810 0.012000 -1.010790
v -0.304940 0.037690 -1.004940
v -0.310790 0.012000 -1.010790
v 0.604950 0.037690 -1.004940
v 0.610810 0.012000 1.000810
v 0.610810 0.012000 -1.010790
v 0.610810 -0.000000 -1.010790
v 0.610810 0.000000 1.000810
v 0.610810 0.012000 1.000810
v 0.604950 0.037690 -1.004940
v 0.610810 0.012000 -1.010790
v 0.604950 0.037690 0.994950
v -0.310790 0.012000 1.000810
v 0.610810 0.012000 1.000810
v 0.610810 0.000000 1.000810
v -0.310800 0.000000 1.000810
v -0.310790 0.012000 1.000810
v 0.604950 0.037690 0.994950
v 0.610810 0.012000 1.000810
v -0.304940 0.037690 0.994950
v -0.310790 0.012000 -1.010790
v -0.310790 0.012000 1.000810
v -0.310800 0.000000 1.000810
v -0.310800 -0.000000 -1.010790
v -0.310790 0.012000 -1.010790
v -0.304940 0.037690 0.994950
v -0.310790 0.012000 1.000810
v -0.304940 0.037690 -1.004940
v 0.600010 -0.000000 -0.999990
v -0.310800 -0.000000 -1.010790
v -0.300000 -0.000000 -0.999990
v 0.610810 -0.000000 -1.010790
v -0.310800 0.000000 1.000810
v 0.600010 0.000000 0.990000
v 0.610810 0.000000 1.000810
v -0.300000 0.000000 0.990000
vn -0.0000 0.9059 -0.4236
vn -0.0000 0.9060 -0.4233
vn -0.0000 0.9057 -0.4239
vn -0.0000 0.9066 -0.4219
vn -0.0000 0.9049 -0.4256
vn 0.4236 0.9059 -0.0000
vn 0.4241 0.9056 -0.0000
vn 0.4273 0.9041 -0.0000
vn 0.4235 0.9059 -0.0000
vn -0.0000 0.9059 0.4236
vn -0.0000 0.9060 0.4233
vn -0.0000 0.9066 0.4219
vn -0.4236 0.9059 -0.0000
vn -0.4236 0.9058 -0.0000
vn -0.4235 0.9059 -0.0000
vn -0.0000 -0.0000 -1.0000
vn -0.0000 0.2220 -0.9750
vn 1.0000 -0.0000 -0.0000
vn 0.9750 0.2224 -0.0000
vn -0.0000 -0.0000 1.0000
vn -0.0000 0.2224 0.9750
vn -1.0000 0.0008 -0.0000
vn -0.9750 0.2220 -0.0000
vn -0.0000 -1.0000 -0.0000
vt -0.771491 1.340023
vt -0.771492 0.383719
vt -0.768415 0.386797
vt -0.768414 1.336946
vt -0.766299 0.392066
vt -0.766299 1.331678
vt 1.330424 1.340023
vt -0.763145 1.334831
vt 1.322078 1.334831
vt 1.327348 1.336946
vt 1.330424 0.383719
vt 1.327347 0.386796
vt 1.325231 1.331678
vt 1.325231 0.392066
vt -0.763146 0.388913
vt 1.322078 0.388912
vt -0.303220 0.200807
vt -0.303219 0.188702
vt 0.626399 0.188702
vt 0.626399 0.200806
vt -0.297310 0.162799
vt 0.620489 0.162798
vt 1.751909 0.724097
vt 1.751910 0.736201
vt -0.277216 0.736202
vt -0.277216 0.724097
vt 1.746000 0.762105
vt -0.271306 0.762105
vt 0.626400 0.178390
vt 0.626400 0.190494
vt -0.303221 0.190495
vt -0.303221 0.178391
vt 0.620490 0.216398
vt -0.297311 0.216399
vt 1.751908 0.739688
vt 1.751907 0.751793
vt -0.277214 0.751793
vt -0.277214 0.739689
vt 1.745998 0.777696
vt -0.271304 0.777697
vt 1.732347 0.176781
vt 1.743147 0.165981
vt 1.732347 1.076780
vt 1.743147 1.087580
vt -0.268453 0.165981
vt -0.257653 1.076781
vt -0.268453 1.087581
vt -0.257653 0.176781
s 1
f 3/1/1 2/2/1 1/3/2
f 1/3/2 4/4/3 3/1/1
f 1/3/2 5/5/4 4/4/3
f 5/5/4 6/6/5 4/4/3
f 9/7/6 8/1/6 7/4/7
f 7/4/7 10/8/8 9/7/6
f 10/8/8 11/9/6 9/7/6
f 11/9/6 12/10/9 9/7/6
f 15/11/10 14/7/10 13/10/11
f 16/12/11 15/11/10 13/10/11
f 16/12/11 13/10/11 17/13/12
f 17/13/12 18/14/12 16/12/11
f 21/3/13 20/2/13 19/11/13
f 19/11/13 22/15/14 21/3/13
f 19/11/13 23/16/13 22/15/14
f 19/11/13 24/12/15 23/16/13
f 27/17/16 26/18/16 25/19/16
f 28/20/16 27/17/16 25/19/16
f 31/18/17 30/21/17 29/19/17
f 30/21/17 32/22/17 29/19/17
f 35/23/18 34/24/18 33/25/18
f 36/26/18 35/23/18 33/25/18
f 39/24/19 38/27/19 37/25/19
f 38/27/19 40/28/19 37/25/19
f 43/29/20 42/30/20 41/31/20
f 44/32/20 43/29/20 41/31/20
f 47/30/21 46/33/21 45/31/21
f 46/33/21 48/34/21 45/31/21
f 51/35/22 50/36/22 49/37/22
f 52/38/22 51/35/22 49/37/22
f 55/36/23 54/39/23 53/37/23
f 54/39/23 56/40/23 53/37/23
f 59/41/24 58/42/24 57/43/24
f 58/42/24 60/44/24 57/43/24
f 61/45/24 58/42/24 59/41/24
f 57/43/24 60/44/24 62/46/24
f 57/43/24 62/46/24 59/41/24
f 60/44/24 63/47/24 62/46/24
f 64/48/24 61/45/24 59/41/24
f 62/46/24 64/48/24 59/41/24
f 63/47/24 61/45/24 64/48/24
f 62/46/24 63/47/24 64/48/24
f 3/1/1 2/2/1 1/3/2
f 1/3/2 4/4/3 3/1/1
f 1/3/2 5/5/4 4/4/3
f 5/5/4 6/6/5 4/4/3
f 9/7/6 8/1/6 7/4/7
f 7/4/7 10/8/8 9/7/6
f 10/8/8 11/9/6 9/7/6
f 11/9/6 12/10/9 9/7/6
f 15/11/10 14/7/10 13/10/11
f 16/12/11 15/11/10 13/10/11
f 16/12/11 13/10/11 17/13/12
f 17/13/12 18/14/12 16/12/11
f 21/3/13 20/2/13 19/11/13
f 19/11/13 22/15/14 21/3/13
f 19/11/13 23/16/13 22/15/14
f 19/11/13 24/12/15 23/16/13
f 27/17/16 26/18/16 25/19/16
f 28/20/16 27/17/16 25/19/16
f 31/18/17 30/21/17 29/19/17
f 30/21/17 32/22/17 29/19/17
f 35/23/18 34/24/18 33/25/18
f 36/26/18 35/23/18 33/25/18
f 39/24/19 38/27/19 37/25/19
f 38/27/19 40/28/19 37/25/19
f 43/29/20 42/30/20 41/31/20
f 44/32/20 43/29/20 41/31/20
f 47/30/21 46/33/21 45/31/21
f 46/33/21 48/34/21 45/31/21
f 51/35/22 50/36/22 49/37/22
f 52/38/22 51/35/22 49/37/22
f 55/36/23 54/39/23 53/37/23
f 54/39/23 56/40/23 53/37/23
f 59/41/24 58/42/24 57/43/24
f 58/42/24 60/44/24 57/43/24
f 61/45/24 58/42/24 59/41/24
f 57/43/24 60/44/24 62/46/24
f 57/43/24 62/46/24 59/41/24
f 60/44/24 63/47/24 62/46/24
f 64/48/24 61/45/24 59/41/24
f 62/46/24 64/48/24 59/41/24
f 63/47/24 61/45/24 64/48/24
f 62/46/24 63/47/24 64/48/24
