mtllib Drawer_814ccbab.mtl
v -0.24 0.055 0.02
v -0.238 0.053 0.022
v -0.238 -0.053 0.022
v -0.24 0.055 0.02
v -0.238 -0.053 0.022
v -0.24 -0.05499 0.02
v -0.24 -0.05499 0
v 0.24 -0.05499 0
v 0.24 0.055 0
v -0.24 0.055 0
v -0.24 -0.05499 0.02
v -0.24 -0.05499 0
v -0.24 0.055 0
v -0.24 0.055 0.02
v -0.24 0.055 0.02
v -0.24 0.055 0
v 0.24 0.055 0
v 0.24 0.055 0.02
v 0.24 0.055 0.02
v 0.24 0.055 0
v 0.24 -0.05499 0
v 0.24 -0.05499 0.02
v 0.24 -0.05499 0.02
v 0.24 -0.05499 0
v -0.24 -0.05499 0
v -0.24 -0.05499 0.02
v -0.238 -0.053 0.022
v -0.238 0.053 0.022
v 0.23801 0.05301 0.022
v 0.23801 -0.05299 0.022
v -0.24 -0.05499 0.02
v -0.238 -0.053 0.022
v 0.23801 -0.05299 0.022
v 0.24 -0.05499 0.02
v 0.24 -0.05499 0.02
v 0.23801 -0.05299 0.022
v 0.23801 0.05301 0.022
v 0.24 0.055 0.02
v 0.24 0.055 0.02
v 0.23801 0.05301 0.022
v -0.238 0.053 0.022
v -0.24 0.055 0.02
v -0.23899 -0.054 -0.36712
v 0.23901 -0.05399 -0.36712
v 0.23901 0.04861 -0.36712
v -0.23899 0.0486 -0.36712
v -0.224 -0.0407 -0.00612
v -0.224 -0.0407 -0.35287
v 0.22401 -0.04069 -0.35287
v 0.22401 -0.04069 -0.00612
v 0.23901 -0.05399 0.00813
v 0.23901 0.04861 0.00813
v 0.23901 0.04861 -0.36712
v 0.23901 -0.05399 -0.36712
v -0.23899 -0.054 0.00813
v 0.23901 -0.05399 0.00813
v 0.23901 -0.05399 -0.36712
v -0.23899 -0.054 -0.36712
v -0.23899 0.0486 0.00813
v -0.23899 -0.054 0.00813
v -0.23899 -0.054 -0.36712
v -0.23899 0.0486 -0.36712
v -0.224 0.0486 -0.00612
v -0.224 -0.0407 -0.00612
v 0.22401 -0.04069 -0.00612
v 0.22401 0.04861 -0.00612
v 0.22401 0.04861 -0.00612
v 0.22401 -0.04069 -0.00612
v 0.22401 -0.04069 -0.35287
v 0.22401 0.04861 -0.35287
v 0.22401 0.04861 -0.35287
v 0.22401 -0.04069 -0.35287
v -0.224 -0.0407 -0.35287
v -0.224 0.0486 -0.35287
v -0.224 0.0486 -0.35287
v -0.224 -0.0407 -0.35287
v -0.224 -0.0407 -0.00612
v -0.224 0.0486 -0.00612
v 0.23901 0.04861 -0.36712
v 0.22401 0.04861 -0.35287
v -0.224 0.0486 -0.35287
v -0.23899 0.0486 -0.36712
v 0.23901 0.04861 0.00813
v -0.224 0.0486 -0.00612
v 0.22401 0.04861 -0.00612
v -0.23899 0.0486 0.00813
vt -0.6910953 2.679886
vt -0.6888897 2.67768
vt -0.6888897 2.541358
vt -0.6910953 2.679886
vt -0.6888897 2.541358
vt -0.6910953 2.539152
vt 1.676062 1.299161
vt 1.238676 1.299161
vt 1.238676 1.419878
vt 1.676062 1.419878
vt 3.812087 0.6843798
vt 3.790151 0.6843798
vt 3.790151 0.7846593
vt 3.812087 0.7846593
vt 1.656748 0.5903069
vt 1.656748 0.5662323
vt 1.25799 0.5662323
vt 1.25799 0.5903069
vt 4.102651 0.7846646
vt 4.124588 0.7846646
vt 4.124588 0.6843745
vt 4.102651 0.6843745
vt 1.656748 0.2778069
vt 1.656748 0.2537323
vt 1.25799 0.2537323
vt 1.25799 0.2778069
vt 1.241095 2.551195
vt 1.241095 2.667844
vt 1.673643 2.667844
vt 1.673643 2.551195
vt 1.177209 2.022399
vt 1.179633 2.024822
vt 1.735106 2.024822
vt 1.737529 2.022399
vt 3.605834 2.53914
vt 3.603627 2.541346
vt 3.603627 2.677694
vt 3.605834 2.6799
vt 1.73752 3.19664
vt 1.735097 3.194217
vt 1.179641 3.194217
vt 1.177218 3.19664
vt 0.4758034 0.4740693
vt 0.4758034 -0.003931046
vt 0.3732035 -0.003931046
vt 0.3732035 0.4740693
vt 0.5621386 0.9149285
vt 0.9088882 0.9149285
vt 0.9088882 0.4669284
vt 0.5621386 0.4669284
vt 0.4588054 0.8430532
vt 0.5614054 0.8430532
vt 0.5614054 0.4678032
vt 0.4588054 0.4678032
vt 0.8523682 0.4740691
vt 0.8523682 -0.003930882
vt 0.4771181 -0.003930882
vt 0.4771181 0.4740691
vt 0.4551372 0.4678032
vt 0.3525373 0.4678032
vt 0.3525373 0.8430535
vt 0.4551372 0.8430535
vt 0.9097815 0.8856503
vt 0.9990817 0.8856503
vt 0.9990814 0.4376498
vt 0.9097815 0.4376498
vt 0.3487091 0.468146
vt 0.2594091 0.468146
vt 0.2594091 0.8148953
vt 0.3487091 0.8148953
vt 0.9440547 -0.003570288
vt 0.8547547 -0.003570288
vt 0.8547546 0.4444301
vt 0.9440546 0.4444301
vt 0.2554208 0.468146
vt 0.1661207 0.468146
vt 0.1661207 0.8148954
vt 0.2554208 0.8148954
vt 0.3727312 -0.00393118
vt 0.3584809 0.01106882
vt 0.3584809 0.4590697
vt 0.3727312 0.4740696
vt -0.00251931 -0.00393118
vt 0.01173081 0.4590697
vt 0.01173081 0.01106882
vt -0.00251931 0.4740696
vn -0.7071492 0 0.7070643
vn -0.7071494 0 0.7070641
vn -0.707144 0 0.7070696
vn -0.7071492 0 0.7070643
vn -0.707144 0 0.7070696
vn -0.7071438 0 0.7070697
vn 0 0 -1
vn 1.44496E-07 0 -1
vn 1.23773E-07 0 -1
vn 0 0 -1
vn -1 0 0
vn -1 0 0
vn -1 0 0
vn -1 0 0
vn -1.589468E-07 1 0
vn -1.589469E-07 1 0
vn -1.589446E-07 1 0
vn -1.589445E-07 1 0
vn 1 0 0
vn 1 0 0
vn 1 0 0
vn 1 0 0
vn 1.589469E-07 -1 0
vn 1.589469E-07 -1 0
vn 1.589445E-07 -1 0
vn 1.589445E-07 -1 0
vn 0 0 1
vn 0 0 1
vn 0 0 1
vn 0 0 1
vn -5.596243E-07 -0.7071607 0.7070529
vn -5.666889E-07 -0.7071609 0.7070526
vn 5.588982E-07 -0.707107 0.7071065
vn 5.619235E-07 -0.7071068 0.7071066
vn 0.7071492 0 0.7070644
vn 0.7071494 0 0.7070641
vn 0.7071435 0 0.7070699
vn 0.7071435 0 0.70707
vn 5.596037E-07 0.7071352 0.7070783
vn 5.66668E-07 0.7071351 0.7070784
vn -5.589267E-07 0.7071427 0.7070708
vn -5.619523E-07 0.7071427 0.7070708
vn 0 0 -1
vn 0 0 -1
vn 0 0 -1
vn 0 0 -1
vn -1.702988E-07 1 0
vn -1.702987E-07 1 0
vn -1.702989E-07 1 0
vn -1.70299E-07 1 0
vn 1 0 0
vn 1 0 0
vn 1 0 0
vn 1 0 0
vn 1.596108E-07 -1 0
vn 1.596109E-07 -1 0
vn 1.596108E-07 -1 0
vn 1.596107E-07 -1 0
vn -1 0 0
vn -1 0 0
vn -1 0 0
vn -1 0 0
vn 0 0 -1
vn 0 0 -1
vn 0 0 -1
vn 0 0 -1
vn -1 0 0
vn -1 0 0
vn -1 0 0
vn -1 0 0
vn 9.147555E-07 0 1
vn 1.220507E-06 0 1
vn -9.147555E-07 0 1
vn -1.220507E-06 0 1
vn 1 0 0
vn 1 0 0
vn 1 0 0
vn 1 0 0
vn 0 1 6.312405E-07
vn 0 1 5.135682E-07
vn 0 1 4.058312E-06
vn 0 1 3.941928E-06
vn 0 1 -3.941858E-06
vn 0 1 0
vn 0 1 -4.051817E-06
vn 0 1 -1.593343E-07
usemtl WhiteWoodClean
f 3/3/3 2/2/2 1/1/1
f 6/6/6 5/5/5 4/4/4
f 9/9/9 8/8/8 7/7/7
f 10/10/10 9/9/9 7/7/7
f 13/13/13 12/12/12 11/11/11
f 14/14/14 13/13/13 11/11/11
f 17/17/17 16/16/16 15/15/15
f 18/18/18 17/17/17 15/15/15
f 21/21/21 20/20/20 19/19/19
f 22/22/22 21/21/21 19/19/19
f 25/25/25 24/24/24 23/23/23
f 26/26/26 25/25/25 23/23/23
f 29/29/29 28/28/28 27/27/27
f 30/30/30 29/29/29 27/27/27
f 33/33/33 32/32/32 31/31/31
f 34/34/34 33/33/33 31/31/31
f 37/37/37 36/36/36 35/35/35
f 38/38/38 37/37/37 35/35/35
f 41/41/41 40/40/40 39/39/39
f 42/42/42 41/41/41 39/39/39
f 45/45/45 44/44/44 43/43/43
f 46/46/46 45/45/45 43/43/43
f 49/49/49 48/48/48 47/47/47
f 50/50/50 49/49/49 47/47/47
f 53/53/53 52/52/52 51/51/51
f 54/54/54 53/53/53 51/51/51
f 57/57/57 56/56/56 55/55/55
f 58/58/58 57/57/57 55/55/55
f 61/61/61 60/60/60 59/59/59
f 62/62/62 61/61/61 59/59/59
f 65/65/65 64/64/64 63/63/63
f 66/66/66 65/65/65 63/63/63
f 69/69/69 68/68/68 67/67/67
f 70/70/70 69/69/69 67/67/67
f 73/73/73 72/72/72 71/71/71
f 74/74/74 73/73/73 71/71/71
f 77/77/77 76/76/76 75/75/75
f 78/78/78 77/77/77 75/75/75
f 81/81/81 80/80/80 79/79/79
f 82/82/82 81/81/81 79/79/79
f 79/79/79 80/80/80 83/83/83
f 84/84/84 81/81/81 82/82/82
f 80/80/80 85/85/85 83/83/83
f 86/86/86 84/84/84 82/82/82
f 83/83/83 85/85/85 86/86/86
f 85/85/85 84/84/84 86/86/86
