mtllib material.mtl
usemtl material_0
v 0.08000000 0.31919000 0.02527000
v 0.04581000 0.31920000 0.02528000
v 0.04418000 0.32083000 0.02700000
v 0.13501000 0.31919000 0.02537000
v 0.08001000 0.32085000 0.02700000
v 0.13500000 0.32085000 0.02710000
v 0.16920000 0.31920000 0.02538000
v 0.17089000 0.32083000 0.02710000
v 0.08000000 0.31919000 0.02527000
v 0.04418000 0.32083000 0.02700000
v 0.13501000 -0.31918000 0.02537000
v 0.16920000 -0.31919000 0.02538000
v 0.17089000 -0.32081000 0.02710000
v 0.08000000 -0.31918000 0.02527000
v 0.13500000 -0.32085000 0.02710000
v 0.08001000 -0.32085000 0.02700000
v 0.04581000 -0.31919000 0.02528000
v 0.04418000 -0.32081000 0.02700000
v 0.13501000 -0.31918000 0.02537000
v 0.17089000 -0.32081000 0.02710000
v -0.00864000 -0.37363000 0.02700000
v 0.08000000 -0.37500000 0.02541000
v -0.01000000 -0.37500000 0.02541000
v 0.08000000 -0.37368000 0.02700000
v 0.13501000 -0.37500000 0.02551000
v 0.13501000 -0.37368000 0.02710000
v 0.22501000 -0.37500000 0.02551000
v 0.22363000 -0.37363000 0.02710000
v 0.13501000 -0.37500000 0.00011000
v 0.22501000 -0.37500000 0.02551000
v 0.22501000 -0.37500000 0.00011000
v 0.13501000 -0.37500000 0.02551000
v 0.08000000 -0.37500000 0.02541000
v 0.08000000 -0.37500000 0.00000000
v -0.01000000 -0.37500000 0.00000000
v -0.01000000 -0.37500000 0.02541000
v 0.22363000 -0.37363000 0.02710000
v 0.22501000 -0.28500000 0.02551000
v 0.22501000 -0.37500000 0.02551000
v 0.22369000 -0.28500000 0.02710000
v 0.22501000 0.28500000 0.02551000
v 0.22369000 0.28500000 0.02710000
v 0.22501000 0.37501000 0.02551000
v 0.22363000 0.37368000 0.02710000
v 0.22501000 0.28500000 0.00011000
v 0.22501000 0.37501000 0.02551000
v 0.22501000 0.37501000 0.00011000
v 0.22501000 0.28500000 0.02551000
v 0.22501000 -0.28500000 0.02551000
v 0.22501000 -0.28500000 0.00011000
v 0.22501000 -0.37500000 0.00011000
v 0.22501000 -0.37500000 0.02551000
v 0.13501000 0.37501000 0.02551000
v 0.22501000 0.37501000 0.02551000
v 0.22363000 0.37368000 0.02710000
v 0.13501000 0.37365000 0.02710000
v 0.08000000 0.37501000 0.02541000
v 0.08000000 0.37365000 0.02700000
v -0.01000000 0.37501000 0.02541000
v -0.00864000 0.37368000 0.02700000
v 0.08000000 0.37501000 0.00000000
v -0.01000000 0.37501000 0.02541000
v -0.01000000 0.37501000 0.00000000
v 0.08000000 0.37501000 0.02541000
v 0.13501000 0.37501000 0.02551000
v 0.13501000 0.37501000 0.00011000
v 0.22501000 0.37501000 0.00011000
v 0.22501000 0.37501000 0.02551000
v -0.01000000 0.28501000 0.02541000
v -0.01000000 0.37501000 0.02541000
v -0.00864000 0.37368000 0.02700000
v -0.00866000 0.28501000 0.02700000
v -0.01000000 -0.28500000 0.02541000
v -0.00866000 -0.28499000 0.02700000
v -0.01000000 -0.37500000 0.02541000
v -0.00864000 -0.37363000 0.02700000
v -0.01000000 0.37501000 0.00000000
v -0.01000000 0.37501000 0.02541000
v -0.01000000 0.28501000 0.02541000
v -0.01000000 0.28501000 0.00000000
v -0.01000000 -0.28500000 0.00000000
v -0.01000000 -0.28500000 0.02541000
v -0.01000000 -0.37500000 0.02541000
v -0.01000000 -0.37500000 0.00000000
v 0.04581000 0.31920000 0.02528000
v 0.04416000 0.28500000 0.02700000
v 0.04418000 0.32083000 0.02700000
v 0.04582000 0.28501000 0.02527000
v 0.04416000 -0.28499000 0.02700000
v 0.04582000 -0.28500000 0.02527000
v 0.04418000 -0.32081000 0.02700000
v 0.04581000 -0.31919000 0.02528000
v 0.04730000 0.28501000 0.01301000
v 0.04581000 0.31920000 0.02528000
v 0.04730000 0.31771000 0.01301000
v 0.04582000 0.28501000 0.02527000
v 0.04582000 -0.28500000 0.02527000
v 0.04730000 -0.28500000 0.01301000
v 0.04730000 -0.31770000 0.01301000
v 0.04581000 -0.31919000 0.02528000
v 0.04730000 0.31771000 0.01301000
v 0.04581000 0.31920000 0.02528000
v 0.08000000 0.31919000 0.02527000
v 0.08000000 0.31771000 0.01301000
v 0.13501000 0.31771000 0.01311000
v 0.13501000 0.31919000 0.02537000
v 0.16920000 0.31920000 0.02538000
v 0.16771000 0.31771000 0.01311000
v 0.16919000 0.28500000 0.02537000
v 0.16920000 0.31920000 0.02538000
v 0.17089000 0.32083000 0.02710000
v 0.17080000 0.28500000 0.02710000
v 0.16919000 -0.28500000 0.02537000
v 0.17080000 -0.28499000 0.02710000
v 0.16920000 -0.31919000 0.02538000
v 0.17089000 -0.32081000 0.02710000
v 0.16771000 0.31771000 0.01311000
v 0.16920000 0.31920000 0.02538000
v 0.16919000 0.28500000 0.02537000
v 0.16771000 0.28500000 0.01311000
v 0.16771000 -0.28500000 0.01311000
v 0.16919000 -0.28500000 0.02537000
v 0.16920000 -0.31919000 0.02538000
v 0.16771000 -0.31770000 0.01311000
v 0.16771000 -0.31770000 0.01311000
v 0.16920000 -0.31919000 0.02538000
v 0.13501000 -0.31918000 0.02537000
v 0.13501000 -0.31770000 0.01311000
v 0.08000000 -0.31770000 0.01301000
v 0.08000000 -0.31918000 0.02527000
v 0.04581000 -0.31919000 0.02528000
v 0.04730000 -0.31770000 0.01301000
v 0.16771000 0.28500000 0.01311000
v 0.13501000 0.31771000 0.01311000
v 0.16771000 0.31771000 0.01311000
v 0.13501000 0.28500000 0.01311000
v 0.08000000 0.31771000 0.01301000
v 0.13501000 -0.28500000 0.01311000
v 0.16771000 -0.28500000 0.01311000
v 0.16771000 -0.31770000 0.01311000
v 0.13501000 -0.31770000 0.01311000
v 0.08000000 0.28501000 0.01301000
v 0.04730000 0.31771000 0.01301000
v 0.04730000 0.28501000 0.01301000
v 0.04730000 -0.28500000 0.01301000
v 0.08000000 -0.28500000 0.01301000
v 0.08000000 -0.31770000 0.01301000
v 0.04730000 -0.31770000 0.01301000
v 0.13501000 0.37501000 0.00011000
v 0.22501000 0.28500000 0.00011000
v 0.22501000 0.37501000 0.00011000
v 0.13501000 0.28500000 0.00011000
v 0.22501000 -0.28500000 0.00011000
v 0.08000000 0.28501000 0.00000000
v 0.08000000 0.37501000 0.00000000
v -0.01000000 0.37501000 0.00000000
v -0.01000000 0.28501000 0.00000000
v 0.13501000 -0.28500000 0.00011000
v 0.22501000 -0.37500000 0.00011000
v 0.13501000 -0.37500000 0.00011000
v 0.08000000 -0.37500000 0.00000000
v 0.08000000 -0.28500000 0.00000000
v -0.01000000 -0.28500000 0.00000000
v -0.01000000 -0.37500000 0.00000000
v 0.04418000 0.32083000 0.02700000
v 0.04416000 0.28500000 0.02700000
v -0.00866000 0.28501000 0.02700000
v -0.00864000 0.37368000 0.02700000
v -0.00866000 -0.28499000 0.02700000
v 0.08001000 0.32085000 0.02700000
v 0.04416000 -0.28499000 0.02700000
v 0.08000000 0.37365000 0.02700000
v -0.00864000 -0.37363000 0.02700000
v 0.13500000 0.32085000 0.02710000
v 0.04418000 -0.32081000 0.02700000
v 0.13501000 0.37365000 0.02710000
v 0.08000000 -0.37368000 0.02700000
v 0.17089000 0.32083000 0.02710000
v 0.08001000 -0.32085000 0.02700000
v 0.22363000 0.37368000 0.02710000
v 0.13501000 -0.37368000 0.02710000
v 0.17080000 0.28500000 0.02710000
v 0.13500000 -0.32085000 0.02710000
v 0.22369000 0.28500000 0.02710000
v 0.22363000 -0.37363000 0.02710000
v 0.17080000 -0.28499000 0.02710000
v 0.17089000 -0.32081000 0.02710000
v 0.22369000 -0.28500000 0.02710000
vn 0.00016673 -0.72549280 0.68822980
vn 0.00016673 -0.72549280 0.68822980
vn 0.00016673 -0.72549280 0.68822980
vn -0.00125895 -0.72232510 0.69155260
vn -0.00125895 -0.72232500 0.69155260
vn -0.00016903 -0.72234790 0.69152980
vn -0.00016903 -0.72234790 0.69152980
vn -0.00047410 -0.72544190 0.68828330
vn 0.00048791 -0.72236080 0.69151620
vn 0.00048791 -0.72236080 0.69151620
vn -0.00017913 0.72695740 0.68668260
vn -0.00017913 0.72695730 0.68668250
vn -0.00017913 0.72695740 0.68668260
vn -0.00125193 0.72083300 0.69310770
vn -0.00125193 0.72083300 0.69310770
vn 0.00016572 0.72083160 0.69311020
vn 0.00016572 0.72083160 0.69311020
vn 0.00077183 0.72682400 0.68682330
vn -0.00076903 0.72092410 0.69301350
vn -0.00076903 0.72092410 0.69301350
vn -0.00046112 -0.77233460 0.63521580
vn -0.00073056 -0.77234580 0.63520190
vn 0.00000000 -0.75991230 0.65002560
vn -0.00072438 -0.77234550 0.63520220
vn -0.00115874 -0.77236350 0.63517960
vn -0.00115865 -0.77222870 0.63534360
vn 0.00000000 -0.77229380 0.63526560
vn 0.00045364 -0.75975880 0.65020480
vn 0.00000000 -1.00000000 0.00000000
vn 0.00000000 -1.00000000 0.00000000
vn 0.00000000 -1.00000000 0.00000000
vn 0.00000000 -1.00000000 0.00000000
vn 0.00000000 -1.00000000 0.00000000
vn 0.00000000 -1.00000000 0.00000000
vn 0.00000000 -1.00000000 0.00000000
vn 0.00000000 -1.00000000 0.00000000
vn 0.77328710 -0.00053275 0.63405590
vn 0.77326480 -0.00007076 0.63408330
vn 0.75891230 0.00000000 0.65119280
vn 0.77326480 -0.00007185 0.63408320
vn 0.77326130 0.00000000 0.63408740
vn 0.77332820 0.00000000 0.63400580
vn 0.77330510 0.00000000 0.63403420
vn 0.75875850 0.00052238 0.65137180
vn 1.00000000 0.00000000 0.00000000
vn 1.00000000 0.00000000 0.00000000
vn 1.00000000 0.00000000 0.00000000
vn 1.00000000 0.00000000 0.00000000
vn 1.00000000 0.00000000 0.00000000
vn 1.00000000 0.00000000 0.00000000
vn 1.00000000 0.00000000 0.00000000
vn 1.00000000 0.00000000 0.00000000
vn 0.00000000 0.76908430 0.63914740
vn 0.00000000 0.76908430 0.63914740
vn 0.00000000 0.76908430 0.63914740
vn -0.00057715 0.76302050 0.64637390
vn -0.00117120 0.76295510 0.64645040
vn -0.00117824 0.76329890 0.64604440
vn 0.00000000 0.76309760 0.64628320
vn 0.00022347 0.76914070 0.63907940
vn 0.00000000 1.00000000 0.00000000
vn 0.00000000 1.00000000 0.00000000
vn 0.00000000 1.00000000 0.00000000
vn 0.00000000 1.00000000 0.00000000
vn 0.00000000 1.00000000 0.00000000
vn 0.00000000 1.00000000 0.00000000
vn 0.00000000 1.00000000 0.00000000
vn 0.00000000 1.00000000 0.00000000
vn -0.76395120 0.00000000 0.64527390
vn -0.76395120 0.00000000 0.64527400
vn -0.76395120 0.00000000 0.64527400
vn -0.76829140 0.00016742 0.64010030
vn -0.76836290 0.00000000 0.64001440
vn -0.76832280 0.00000000 0.64006260
vn -0.76832280 0.00000000 0.64006260
vn -0.76384420 -0.00016439 0.64540060
vn -1.00000000 0.00000000 0.00000000
vn -1.00000000 0.00000000 0.00000000
vn -1.00000000 0.00000000 0.00000000
vn -1.00000000 0.00000000 0.00000000
vn -1.00000000 0.00000042 0.00000000
vn -1.00000000 0.00000000 0.00000000
vn -1.00000000 0.00000000 0.00000000
vn -1.00000000 0.00000000 0.00000000
vn 0.72516100 -0.00043897 0.68857930
vn 0.72262450 -0.00017642 0.69124080
vn 0.72524620 -0.00044782 0.68848940
vn 0.72249830 -0.00016339 0.69137260
vn 0.72240770 0.00044378 0.69146720
vn 0.72535060 0.00016500 0.68837960
vn 0.72535060 0.00016500 0.68837960
vn 0.72535060 0.00016500 0.68837960
vn 0.99270840 0.00000000 0.12054090
vn 0.99270800 0.00000000 0.12054370
vn 0.99270790 0.00000000 0.12054500
vn 0.99270850 0.00000000 0.12053970
vn 0.99270870 0.00000000 0.12053820
vn 0.99270650 0.00000087 0.12055640
vn 0.99270650 0.00000000 0.12055620
vn 0.99270740 0.00000000 0.12054820
vn 0.00000180 -0.99270950 0.12053080
vn 0.00000180 -0.99270950 0.12053080
vn 0.00000180 -0.99270950 0.12053080
vn 0.00000000 -0.99270730 0.12054970
vn -0.00022229 -0.99270960 0.12053040
vn -0.00022131 -0.99270940 0.12053210
vn 0.00000000 -0.99270550 0.12056400
vn 0.00000000 -0.99270400 0.12057660
vn -0.71412360 -0.00018233 0.70001950
vn -0.71412360 -0.00018233 0.70001950
vn -0.71412360 -0.00018233 0.70001950
vn -0.73395450 0.00176189 0.67919630
vn -0.73392800 0.00000000 0.67922740
vn -0.73384400 0.00017687 0.67931790
vn -0.73384400 0.00017687 0.67931790
vn -0.71506760 -0.00171755 0.69905320
vn -0.99270720 -0.00001444 0.12055060
vn -0.99270720 -0.00001444 0.12055060
vn -0.99270720 -0.00001444 0.12055060
vn -0.99270500 0.00000000 0.12056830
vn -0.99270460 0.00000000 0.12057190
vn -0.99270500 0.00000000 0.12056860
vn -0.99270700 0.00000357 0.12055280
vn -0.99270770 0.00000000 0.12054690
vn -0.00000361 0.99271080 0.12052110
vn -0.00000361 0.99271080 0.12052110
vn -0.00000361 0.99271080 0.12052110
vn 0.00000000 0.99271060 0.12052270
vn -0.00021668 0.99270930 0.12053250
vn -0.00021541 0.99270950 0.12053110
vn -0.00000089 0.99270830 0.12054180
vn 0.00000000 0.99270760 0.12054780
vn 0.00000000 0.00000000 1.00000000
vn 0.00000000 0.00000000 1.00000000
vn 0.00000000 0.00000000 1.00000000
vn 0.00000000 0.00000000 1.00000000
vn 0.00000000 0.00000000 1.00000000
vn 0.00000000 0.00000000 1.00000000
vn 0.00000000 0.00000000 1.00000000
vn 0.00000000 0.00000000 1.00000000
vn 0.00000000 0.00000000 1.00000000
vn 0.00000000 0.00000000 1.00000000
vn 0.00000000 0.00000000 1.00000000
vn 0.00000000 0.00000000 1.00000000
vn 0.00000000 0.00000000 1.00000000
vn -0.00181781 0.00000000 0.99999830
vn -0.00181899 0.00000000 0.99999830
vn 0.00000000 0.00000000 1.00000000
vn 0.00000000 0.00000000 -1.00000000
vn 0.00000000 0.00000000 -1.00000000
vn 0.00000000 0.00000000 -1.00000000
vn 0.00000000 0.00000000 -1.00000000
vn 0.00000000 0.00000000 -1.00000000
vn 0.00000000 0.00000000 -1.00000000
vn 0.00000000 0.00000000 -1.00000000
vn 0.00000000 0.00000000 -1.00000000
vn 0.00000000 0.00000000 -1.00000000
vn 0.00000000 0.00000000 -1.00000000
vn 0.00000000 0.00000000 -1.00000000
vn 0.00000000 0.00000000 -1.00000000
vn 0.00182488 0.00000000 -0.99999830
vn 0.00182118 0.00000000 -0.99999830
vn 0.00000000 0.00000000 -1.00000000
vn 0.00000000 0.00000000 -1.00000000
vn -0.00000199 0.00000000 1.00000000
vn 0.00000000 0.00000000 1.00000000
vn 0.00000014 0.00000000 1.00000000
vn -0.00000059 0.00000000 1.00000000
vn -0.00000528 0.00000000 1.00000000
vn -0.00079903 0.00000000 0.99999980
vn -0.00000602 0.00000000 1.00000000
vn -0.00069818 0.00000000 0.99999980
vn 0.00000197 0.00000000 1.00000000
vn -0.00110014 0.00000000 0.99999940
vn -0.00000349 0.00000000 1.00000000
vn -0.00081295 0.00000000 0.99999960
vn -0.00080652 0.00000000 0.99999980
vn 0.00000311 0.00000000 1.00000000
vn -0.00110466 0.00000000 0.99999940
vn -0.00000197 0.00000000 1.00000000
vn -0.00069615 0.00000000 0.99999980
vn 0.00000601 0.00000000 1.00000000
vn -0.00079654 0.00000000 0.99999980
vn 0.00000528 0.00000000 1.00000000
vn 0.00000017 0.00000000 1.00000000
vn 0.00000036 0.00000000 1.00000000
vn 0.00000084 0.00000000 1.00000000
vn 0.00000000 0.00000000 1.00000000
vt 0.42385170 4.56756500
vt 0.40233330 4.56758100
vt 0.40130360 4.57047100
vt 0.45846730 4.56773200
vt 0.42385230 4.57047100
vt 0.45846700 4.57063900
vt 0.47998580 4.56774900
vt 0.48104940 4.57063900
vt 0.42385170 4.56756500
vt 0.40130360 4.57047100
vt 1.30623700 4.56773200
vt 1.28471600 4.56774900
vt 1.28365200 4.57064000
vt 1.34085600 4.56756500
vt 1.30623700 4.57064000
vt 1.34085500 4.57047200
vt 1.36237600 4.56758100
vt 1.36340600 4.57047200
vt 1.30623700 4.56773200
vt 1.28365200 4.57064000
vt 4.16913300 3.98722300
vt 4.24207600 3.98524400
vt 4.16802100 3.98524400
vt 4.24207700 3.98722300
vt 4.28733500 3.98536700
vt 4.28733500 3.98734700
vt 4.36139100 3.98536700
vt 4.36026200 3.98734700
vt 4.28733500 3.95395300
vt 4.36139100 3.98536700
vt 4.36139100 3.95395300
vt 4.28733500 3.98536700
vt 4.24207600 3.98524400
vt 4.24207600 3.95382900
vt 4.16802100 3.95382900
vt 4.16802100 3.98524400
vt 1.60061800 1.90449800
vt 1.60263700 1.97599100
vt 1.60263700 1.90339400
vt 1.60061800 1.97599100
vt 1.60263700 2.43577300
vt 1.60061800 2.43577300
vt 1.60263700 2.50837000
vt 1.60061800 2.50729800
vt 1.63467600 2.43577300
vt 1.60263700 2.50837000
vt 1.63467600 2.50837000
vt 1.60263700 2.43577300
vt 1.60263700 1.97599100
vt 1.63467600 1.97599100
vt 1.63467600 1.90339400
vt 1.60263700 1.90339400
vt 4.24207300 4.27948900
vt 4.16800100 4.27948900
vt 4.16913000 4.28146800
vt 4.24207300 4.28146800
vt 4.28734000 4.27936500
vt 4.28733900 4.28134500
vt 4.36141100 4.27936500
vt 4.36029900 4.28134500
vt 4.28734000 4.24794400
vt 4.36141100 4.27936500
vt 4.36141100 4.24794400
vt 4.28734000 4.27936500
vt 4.24207300 4.27948900
vt 4.24207300 4.24806700
vt 4.16800100 4.24806700
vt 4.16800100 4.27948900
vt 1.92677800 2.43581600
vt 1.92677800 2.50842800
vt 1.92879700 2.50735500
vt 1.92879700 2.43581600
vt 1.92677900 1.97594800
vt 1.92879700 1.97594800
vt 1.92677900 1.90333800
vt 1.92879700 1.90444200
vt 1.89473300 2.50842800
vt 1.92677800 2.50842800
vt 1.92677800 2.43581600
vt 1.89473300 2.43581600
vt 1.89473300 1.97594800
vt 1.92677900 1.97594800
vt 1.92677900 1.90333800
vt 1.89473300 1.90333800
vt 3.96123300 2.10150500
vt 3.95817400 2.08118000
vt 3.95817400 2.10247700
vt 3.96125000 2.08118000
vt 3.95817400 1.74234400
vt 3.96125000 1.74234400
vt 3.95817400 1.72105200
vt 3.96123300 1.72201900
vt 3.98300100 2.08118000
vt 3.96123300 2.10150500
vt 3.98300100 2.10061900
vt 3.96125000 2.08118000
vt 3.96125000 1.74234400
vt 3.98300100 1.74234400
vt 3.98300100 1.72290600
vt 3.96123300 1.72201900
vt 0.40327130 4.54700900
vt 0.40233330 4.56758100
vt 0.42385170 4.56756500
vt 0.42385170 4.54700900
vt 0.45846730 4.54717700
vt 0.45846730 4.56773200
vt 0.47998580 4.56774900
vt 0.47904770 4.54717700
vt 3.68579800 2.08098600
vt 3.68581500 2.10128700
vt 3.68887000 2.10225800
vt 3.68887000 2.08098600
vt 3.68579800 1.74253800
vt 3.68887000 1.74253900
vt 3.68581500 1.72223800
vt 3.68887000 1.72127100
vt 3.66407200 2.10040200
vt 3.68581500 2.10128700
vt 3.68579800 2.08098600
vt 3.66407200 2.08098600
vt 3.66407200 1.74253800
vt 3.68579800 1.74253800
vt 3.68581500 1.72223800
vt 3.66407200 1.72312200
vt 1.28565400 4.54717600
vt 1.28471600 4.56774900
vt 1.30623700 4.56773200
vt 1.30623700 4.54717600
vt 1.34085600 4.54700800
vt 1.34085600 4.56756500
vt 1.36237600 4.56758100
vt 1.36143800 4.54700800
vt 4.62364200 2.17646000
vt 4.58843400 2.20683000
vt 4.62364200 2.20683000
vt 4.58843400 2.17646000
vt 4.52921300 2.20683100
vt 4.58843400 1.64706900
vt 4.62364200 1.64706900
vt 4.62364200 1.61669900
vt 4.58843400 1.61669900
vt 4.52921300 2.17646000
vt 4.49400500 2.20683100
vt 4.49400500 2.17646000
vt 4.49400500 1.64706900
vt 4.52921400 1.64706900
vt 4.52921400 1.61669900
vt 4.49400500 1.61669900
vt 0.70729600 2.57421200
vt 0.61566580 2.48581200
vt 0.61566580 2.57421200
vt 0.70729600 2.48581200
vt 0.61566580 1.92595200
vt 0.76329280 2.48581200
vt 0.76329280 2.57421200
vt 0.85492250 2.57421200
vt 0.85492250 2.48581200
vt 0.70729600 1.92595200
vt 0.61566580 1.83755300
vt 0.70729600 1.83755300
vt 0.76329270 1.83755300
vt 0.76329270 1.92595200
vt 0.85492270 1.92595200
vt 0.85492270 1.83755300
vt 2.72938100 2.51978700
vt 2.72935800 2.48473400
vt 2.67537300 2.48473400
vt 2.67539300 2.57149000
vt 2.67537300 1.92704300
vt 2.76600000 2.51981000
vt 2.72935800 1.92704400
vt 2.76599900 2.57146500
vt 2.67539300 1.84032700
vt 2.82221400 2.51981000
vt 2.72938100 1.89199900
vt 2.82221400 2.57146500
vt 2.76599900 1.84027500
vt 2.85888700 2.51978700
vt 2.76600000 1.89196100
vt 2.91279900 2.57149000
vt 2.82221400 1.84027500
vt 2.85879900 2.48473300
vt 2.82221400 1.89196100
vt 2.91286200 2.48473400
vt 2.91279900 1.84032600
vt 2.85879900 1.92704400
vt 2.85888700 1.89199900
vt 2.91286200 1.92704300
f 3/3/3 2/2/2 1/1/1
f 5/5/5 1/1/1 4/4/4
f 6/6/6 5/5/5 4/4/4
f 6/6/6 4/4/4 7/7/7
f 8/8/8 6/6/6 7/7/7
f 5/5/5 10/10/10 9/9/9
f 13/13/13 12/12/12 11/11/11
f 15/15/15 11/11/11 14/14/14
f 16/16/16 15/15/15 14/14/14
f 16/16/16 14/14/14 17/17/17
f 18/18/18 16/16/16 17/17/17
f 15/15/15 20/20/20 19/19/19
f 23/23/23 22/22/22 21/21/21
f 22/22/22 24/24/24 21/21/21
f 24/24/24 22/22/22 25/25/25
f 26/26/26 24/24/24 25/25/25
f 25/25/25 27/27/27 26/26/26
f 27/27/27 28/28/28 26/26/26
f 31/31/31 30/30/30 29/29/29
f 30/30/30 32/32/32 29/29/29
f 29/29/29 32/32/32 33/33/33
f 34/34/34 29/29/29 33/33/33
f 34/34/34 33/33/33 35/35/35
f 33/33/33 36/36/36 35/35/35
f 39/39/39 38/38/38 37/37/37
f 38/38/38 40/40/40 37/37/37
f 40/40/40 38/38/38 41/41/41
f 42/42/42 40/40/40 41/41/41
f 41/41/41 43/43/43 42/42/42
f 43/43/43 44/44/44 42/42/42
f 47/47/47 46/46/46 45/45/45
f 46/46/46 48/48/48 45/45/45
f 45/45/45 48/48/48 49/49/49
f 50/50/50 45/45/45 49/49/49
f 50/50/50 49/49/49 51/51/51
f 49/49/49 52/52/52 51/51/51
f 55/55/55 54/54/54 53/53/53
f 56/56/56 55/55/55 53/53/53
f 56/56/56 53/53/53 57/57/57
f 58/58/58 56/56/56 57/57/57
f 58/58/58 57/57/57 59/59/59
f 60/60/60 58/58/58 59/59/59
f 63/63/63 62/62/62 61/61/61
f 62/62/62 64/64/64 61/61/61
f 61/61/61 64/64/64 65/65/65
f 66/66/66 61/61/61 65/65/65
f 66/66/66 65/65/65 67/67/67
f 65/65/65 68/68/68 67/67/67
f 71/71/71 70/70/70 69/69/69
f 72/72/72 71/71/71 69/69/69
f 72/72/72 69/69/69 73/73/73
f 74/74/74 72/72/72 73/73/73
f 73/73/73 75/75/75 74/74/74
f 75/75/75 76/76/76 74/74/74
f 79/79/79 78/78/78 77/77/77
f 80/80/80 79/79/79 77/77/77
f 80/80/80 81/81/81 79/79/79
f 81/81/81 82/82/82 79/79/79
f 83/83/83 82/82/82 81/81/81
f 84/84/84 83/83/83 81/81/81
f 87/87/87 86/86/86 85/85/85
f 86/86/86 88/88/88 85/85/85
f 88/88/88 86/86/86 89/89/89
f 90/90/90 88/88/88 89/89/89
f 89/89/89 91/91/91 90/90/90
f 91/91/91 92/92/92 90/90/90
f 95/95/95 94/94/94 93/93/93
f 94/94/94 96/96/96 93/93/93
f 93/93/93 96/96/96 97/97/97
f 98/98/98 93/93/93 97/97/97
f 98/98/98 97/97/97 99/99/99
f 97/97/97 100/100/100 99/99/99
f 103/103/103 102/102/102 101/101/101
f 104/104/104 103/103/103 101/101/101
f 104/104/104 105/105/105 103/103/103
f 105/105/105 106/106/106 103/103/103
f 107/107/107 106/106/106 105/105/105
f 108/108/108 107/107/107 105/105/105
f 111/111/111 110/110/110 109/109/109
f 112/112/112 111/111/111 109/109/109
f 112/112/112 109/109/109 113/113/113
f 114/114/114 112/112/112 113/113/113
f 114/114/114 113/113/113 115/115/115
f 116/116/116 114/114/114 115/115/115
f 119/119/119 118/118/118 117/117/117
f 120/120/120 119/119/119 117/117/117
f 119/119/119 120/120/120 121/121/121
f 122/122/122 119/119/119 121/121/121
f 123/123/123 122/122/122 121/121/121
f 124/124/124 123/123/123 121/121/121
f 127/127/127 126/126/126 125/125/125
f 128/128/128 127/127/127 125/125/125
f 128/128/128 129/129/129 127/127/127
f 129/129/129 130/130/130 127/127/127
f 131/131/131 130/130/130 129/129/129
f 132/132/132 131/131/131 129/129/129
f 135/135/135 134/134/134 133/133/133
f 134/134/134 136/136/136 133/133/133
f 136/136/136 134/134/134 137/137/137
f 133/133/133 136/136/136 138/138/138
f 139/139/139 133/133/133 138/138/138
f 139/139/139 138/138/138 140/140/140
f 138/138/138 141/141/141 140/140/140
f 142/142/142 136/136/136 137/137/137
f 136/136/136 142/142/142 138/138/138
f 137/137/137 143/143/143 142/142/142
f 143/143/143 144/144/144 142/142/142
f 142/142/142 144/144/144 145/145/145
f 141/141/141 138/138/138 146/146/146
f 142/142/142 146/146/146 138/138/138
f 146/146/146 142/142/142 145/145/145
f 147/147/147 141/141/141 146/146/146
f 146/146/146 145/145/145 147/147/147
f 145/145/145 148/148/148 147/147/147
f 151/151/151 150/150/150 149/149/149
f 150/150/150 152/152/152 149/149/149
f 152/152/152 150/150/150 153/153/153
f 149/149/149 152/152/152 154/154/154
f 155/155/155 149/149/149 154/154/154
f 155/155/155 154/154/154 156/156/156
f 154/154/154 157/157/157 156/156/156
f 158/158/158 152/152/152 153/153/153
f 152/152/152 158/158/158 154/154/154
f 153/153/153 159/159/159 158/158/158
f 159/159/159 160/160/160 158/158/158
f 160/160/160 161/161/161 158/158/158
f 154/154/154 162/162/162 157/157/157
f 158/158/158 162/162/162 154/154/154
f 161/161/161 162/162/162 158/158/158
f 162/162/162 163/163/163 157/157/157
f 162/162/162 161/161/161 163/163/163
f 161/161/161 164/164/164 163/163/163
f 167/167/167 166/166/166 165/165/165
f 168/168/168 167/167/167 165/165/165
f 166/166/166 167/167/167 169/169/169
f 168/168/168 165/165/165 170/170/170
f 171/171/171 166/166/166 169/169/169
f 172/172/172 168/168/168 170/170/170
f 169/169/169 173/173/173 171/171/171
f 172/172/172 170/170/170 174/174/174
f 173/173/173 175/175/175 171/171/171
f 176/176/176 172/172/172 174/174/174
f 173/173/173 177/177/177 175/175/175
f 176/176/176 174/174/174 178/178/178
f 177/177/177 179/179/179 175/175/175
f 180/180/180 176/176/176 178/178/178
f 177/177/177 181/181/181 179/179/179
f 180/180/180 178/178/178 182/182/182
f 181/181/181 183/183/183 179/179/179
f 184/184/184 180/180/180 182/182/182
f 181/181/181 185/185/185 183/183/183
f 184/184/184 182/182/182 186/186/186
f 185/185/185 187/187/187 183/183/183
f 188/188/188 184/184/184 186/186/186
f 185/185/185 188/188/188 187/187/187
f 188/188/188 186/186/186 187/187/187

