#usda 1.0
(
    customLayerData = {
        string creator = "Ai2-THOR MJCF-USD converter"
    }
    defaultPrim = "Sofa_216_1"
    doc = """Generated from Composed Stage of root layer /home/gregor/workspace/ai2/isaac-thor-worktree/dev-wilbert/assets/usd/objects/thor/Sofa_216_1_prim/Sofa_216_1_prim.usda
"""
    kilogramsPerUnit = 1
    metersPerUnit = 1
    upAxis = "Z"
)

def Xform "Sofa_216_1" (
    apiSchemas = ["GeomModelAPI"]
    assetInfo = {
        string name = "Sofa_216_1"
    }
    kind = "component"
)
{
    float3[] extentsHint = [(-1.174603, -0.54320633, -0.5485259), (1.1787829, 0.484097, 0.5526435), (3.4028235e38, 3.4028235e38, 3.4028235e38), (-3.4028235e38, -3.4028235e38, -3.4028235e38), (3.4028235e38, 3.4028235e38, 3.4028235e38), (-3.4028235e38, -3.4028235e38, -3.4028235e38), (-1.1971047, -0.531219, -0.53953093), (1.2054709, 0.53121656, 0.53952897)]

    def Scope "Geometry"
    {
        def Xform "Sofa_216_1" (
            apiSchemas = ["PhysicsRigidBodyAPI"]
            kind = "subcomponent"
        )
        {
            def Mesh "Sofa_216_1_sofa_216" (
                apiSchemas = ["MaterialBindingAPI"]
            )
            {
                float3[] extent = [(-1.176693, -0.00958636, -0.5505859), (1.176693, 1.017717, 0.5505835)]
                int[] faceVertexCounts = [3, 3, 3, 3, 3, 3, 3, 3, 3, 3, 3, 3, 3, 3, 3, 3, 3, 3, 3, 3, 3, 3, 3, 3, 3, 3, 3, 3, 3, 3, 3, 3, 3, 3, 3, 3, 3, 3, 3, 3, 3, 3, 3, 3, 3, 3, 3, 3, 3, 3, 3, 3, 3, 3, 3, 3, 3, 3, 3, 3, 3, 3, 3, 3, 3, 3, 3, 3, 3, 3, 3, 3, 3, 3, 3, 3, 3, 3, 3, 3, 3, 3, 3, 3, 3, 3, 3, 3, 3, 3, 3, 3, 3, 3, 3, 3, 3, 3, 3, 3, 3, 3, 3, 3, 3, 3, 3, 3, 3, 3, 3, 3, 3, 3, 3, 3, 3, 3, 3, 3, 3, 3, 3, 3, 3, 3, 3, 3, 3, 3, 3, 3, 3, 3, 3, 3, 3, 3, 3, 3, 3, 3, 3, 3, 3, 3, 3, 3, 3, 3, 3, 3, 3, 3, 3, 3, 3, 3, 3, 3, 3, 3, 3, 3, 3, 3, 3, 3, 3, 3, 3, 3, 3, 3, 3, 3, 3, 3, 3, 3, 3, 3, 3, 3, 3, 3, 3, 3, 3, 3, 3, 3, 3, 3, 3, 3, 3, 3, 3, 3, 3, 3, 3, 3, 3, 3, 3, 3, 3, 3, 3, 3, 3, 3, 3, 3, 3, 3, 3, 3, 3, 3, 3, 3, 3, 3, 3, 3, 3, 3, 3, 3, 3, 3, 3, 3, 3, 3, 3, 3, 3, 3, 3, 3, 3, 3, 3, 3, 3, 3, 3, 3, 3, 3, 3, 3, 3, 3, 3, 3, 3, 3, 3, 3, 3, 3, 3, 3, 3, 3, 3, 3, 3, 3, 3, 3, 3, 3, 3, 3, 3, 3, 3, 3, 3, 3, 3, 3, 3, 3, 3, 3, 3, 3, 3, 3, 3, 3, 3, 3, 3, 3, 3, 3, 3, 3, 3, 3, 3, 3, 3, 3, 3, 3, 3, 3, 3, 3, 3, 3, 3, 3, 3, 3, 3, 3, 3, 3, 3, 3, 3, 3, 3, 3, 3, 3, 3, 3, 3, 3, 3, 3, 3, 3, 3, 3, 3, 3, 3, 3, 3, 3, 3, 3, 3, 3, 3, 3, 3, 3, 3, 3, 3, 3, 3, 3, 3, 3, 3, 3, 3, 3, 3, 3, 3, 3, 3, 3, 3, 3, 3, 3, 3, 3, 3, 3, 3, 3, 3, 3, 3, 3, 3, 3, 3, 3, 3, 3, 3, 3, 3, 3, 3, 3, 3, 3, 3, 3, 3, 3, 3, 3, 3, 3, 3, 3, 3, 3, 3, 3, 3, 3, 3, 3, 3, 3, 3, 3, 3, 3, 3, 3, 3, 3, 3, 3, 3, 3, 3, 3, 3, 3, 3, 3, 3, 3, 3, 3, 3, 3, 3, 3, 3, 3, 3, 3, 3, 3, 3, 3, 3, 3, 3, 3, 3, 3, 3, 3, 3, 3, 3, 3, 3, 3, 3, 3, 3, 3, 3, 3, 3, 3, 3, 3, 3, 3, 3, 3, 3, 3, 3, 3, 3, 3, 3, 3, 3, 3, 3, 3, 3, 3, 3, 3, 3, 3, 3, 3, 3, 3, 3, 3, 3, 3, 3, 3, 3, 3, 3, 3, 3, 3, 3, 3, 3, 3, 3, 3, 3, 3, 3, 3, 3, 3, 3, 3, 3, 3, 3, 3, 3, 3]
                int[] faceVertexIndices = [2, 1, 0, 5, 4, 3, 8, 7, 6, 9, 8, 6, 8, 9, 10, 11, 8, 10, 11, 10, 12, 9, 6, 13, 13, 6, 14, 10, 15, 12, 15, 16, 12, 15, 17, 16, 10, 17, 15, 1, 16, 17, 18, 1, 17, 10, 18, 17, 1, 18, 0, 18, 10, 19, 19, 0, 18, 19, 10, 9, 19, 20, 0, 20, 21, 0, 22, 19, 9, 20, 19, 22, 23, 13, 14, 24, 23, 14, 25, 9, 13, 25, 22, 9, 23, 26, 13, 24, 26, 23, 26, 25, 13, 27, 26, 24, 28, 27, 24, 25, 26, 29, 29, 26, 27, 25, 29, 22, 30, 29, 27, 30, 31, 29, 22, 29, 32, 31, 32, 29, 33, 20, 22, 33, 22, 32, 34, 32, 31, 35, 34, 31, 36, 34, 35, 37, 36, 35, 36, 38, 34, 34, 38, 32, 38, 33, 32, 39, 33, 38, 39, 40, 33, 40, 20, 33, 41, 20, 40, 42, 41, 40, 41, 21, 20, 41, 42, 43, 41, 44, 21, 44, 41, 43, 47, 46, 45, 48, 45, 46, 49, 48, 46, 48, 49, 50, 49, 51, 50, 51, 49, 52, 46, 53, 49, 52, 49, 54, 53, 54, 49, 54, 55, 52, 54, 56, 55, 54, 53, 56, 53, 57, 56, 56, 57, 58, 59, 56, 58, 60, 59, 58, 61, 60, 58, 58, 57, 62, 58, 62, 61, 57, 63, 62, 62, 64, 61, 64, 62, 65, 66, 64, 65, 62, 67, 65, 70, 69, 68, 71, 70, 68, 71, 68, 72, 72, 73, 71, 70, 71, 74, 73, 74, 71, 75, 74, 73, 74, 75, 76, 77, 70, 74, 74, 76, 77, 73, 78, 75, 76, 79, 77, 78, 80, 75, 79, 76, 81, 80, 82, 75, 76, 83, 81, 84, 81, 83, 85, 84, 83, 83, 86, 85, 83, 87, 86, 83, 76, 87, 88, 86, 87, 88, 87, 89, 76, 90, 87, 75, 90, 76, 87, 91, 89, 87, 90, 91, 92, 89, 91, 93, 92, 91, 90, 75, 94, 90, 94, 91, 95, 93, 91, 95, 91, 94, 93, 95, 96, 97, 95, 94, 75, 98, 94, 97, 94, 98, 82, 98, 75, 99, 97, 98, 100, 98, 82, 99, 98, 100, 100, 82, 101, 100, 102, 99, 101, 103, 100, 102, 100, 104, 100, 103, 104, 107, 106, 105, 108, 107, 105, 108, 105, 109, 109, 110, 108, 110, 109, 111, 112, 110, 111, 112, 111, 113, 114, 112, 113, 114, 113, 115, 113, 116, 115, 115, 116, 117, 116, 118, 117, 118, 119, 117, 122, 121, 120, 123, 122, 120, 124, 123, 120, 125, 124, 120, 124, 125, 126, 125, 127, 126, 128, 126, 127, 127, 129, 128, 129, 130, 128, 130, 131, 128, 130, 132, 131, 135, 134, 133, 134, 136, 133, 133, 136, 137, 136, 138, 137, 137, 138, 139, 138, 140, 139, 139, 140, 141, 140, 142, 141, 145, 144, 143, 144, 146, 143, 143, 146, 147, 144, 148, 146, 146, 149, 147, 148, 150, 146, 146, 150, 149, 148, 151, 150, 150, 152, 149, 151, 153, 150, 150, 153, 152, 151, 154, 153, 153, 155, 152, 154, 156, 153, 153, 156, 155, 156, 157, 155, 160, 159, 158, 159, 161, 158, 158, 161, 162, 161, 163, 162, 162, 163, 164, 163, 165, 164, 164, 165, 166, 165, 167, 166, 170, 169, 168, 171, 170, 168, 171, 168, 172, 173, 170, 171, 174, 171, 172, 174, 172, 175, 176, 173, 171, 176, 171, 174, 177, 173, 176, 178, 174, 175, 178, 175, 179, 180, 178, 179, 181, 177, 176, 182, 177, 181, 183, 182, 181, 184, 176, 174, 184, 174, 178, 181, 176, 184, 185, 178, 180, 185, 184, 178, 186, 185, 180, 183, 181, 187, 187, 181, 184, 187, 184, 185, 188, 183, 187, 189, 185, 186, 189, 187, 185, 188, 187, 189, 190, 189, 186, 191, 188, 189, 191, 189, 190, 192, 191, 190, 195, 194, 193, 194, 196, 193, 193, 196, 197, 196, 198, 197, 197, 198, 199, 198, 200, 199, 199, 200, 201, 200, 202, 201, 205, 204, 203, 204, 206, 203, 204, 207, 206, 207, 208, 206, 207, 209, 208, 209, 210, 208, 209, 211, 210, 211, 212, 210, 215, 214, 213, 216, 215, 213, 216, 213, 217, 218, 216, 217, 218, 217, 219, 220, 218, 219, 220, 219, 221, 222, 220, 221, 225, 224, 223, 226, 224, 225, 227, 226, 225, 224, 226, 228, 229, 224, 228, 230, 229, 228, 231, 230, 228, 226, 227, 232, 226, 232, 228, 227, 233, 232, 228, 234, 231, 232, 234, 228, 234, 235, 231, 236, 235, 234, 237, 236, 234, 238, 236, 237, 232, 239, 234, 239, 237, 234, 232, 233, 240, 239, 232, 240, 241, 238, 237, 242, 238, 241, 243, 242, 241, 244, 243, 241, 241, 237, 245, 245, 244, 241, 237, 239, 245, 246, 244, 245, 247, 245, 239, 247, 246, 245, 240, 247, 239, 247, 248, 246, 248, 247, 240, 248, 249, 246, 250, 240, 233, 250, 248, 240, 250, 233, 251, 248, 250, 251, 254, 253, 252, 255, 254, 252, 252, 256, 255, 254, 255, 257, 258, 254, 257, 256, 259, 255, 255, 259, 257, 259, 260, 257, 261, 260, 259, 256, 262, 259, 263, 261, 259, 262, 263, 259, 264, 261, 263, 265, 263, 262, 265, 264, 263, 266, 264, 265, 267, 265, 262, 267, 266, 265, 268, 264, 266, 269, 268, 266, 266, 267, 270, 271, 269, 266, 272, 266, 270, 266, 272, 271, 272, 273, 271, 272, 270, 274, 272, 275, 273, 275, 272, 274, 275, 276, 273, 276, 275, 277, 278, 275, 274, 275, 278, 277, 279, 278, 274, 280, 278, 279, 277, 278, 281, 278, 280, 281, 282, 281, 280, 283, 282, 280, 284, 280, 279, 285, 283, 280, 280, 284, 286, 285, 280, 286, 286, 284, 287, 285, 286, 288, 288, 286, 287, 289, 285, 288, 288, 287, 290, 289, 288, 290, 291, 289, 290, 287, 292, 290, 291, 290, 293, 290, 292, 294, 290, 294, 293, 292, 295, 294, 294, 296, 293, 296, 294, 295, 296, 297, 293, 298, 296, 295, 301, 300, 299, 302, 301, 299, 299, 303, 302, 304, 301, 302, 303, 305, 302, 305, 303, 306, 307, 304, 302, 302, 305, 307, 308, 305, 306, 306, 309, 308, 309, 310, 308, 307, 311, 304, 311, 312, 304, 313, 311, 307, 305, 314, 307, 314, 313, 307, 314, 305, 308, 315, 313, 314, 308, 310, 316, 316, 314, 308, 316, 315, 314, 310, 317, 316, 318, 315, 316, 317, 318, 316, 321, 320, 319, 320, 322, 319, 322, 320, 323, 324, 322, 323, 324, 323, 325, 325, 326, 324, 326, 327, 324, 330, 329, 328, 331, 330, 328, 331, 332, 330, 333, 332, 331, 333, 334, 332, 335, 334, 333, 336, 335, 333, 337, 335, 336, 338, 335, 337, 339, 338, 337, 340, 335, 338, 341, 340, 338, 342, 340, 341, 343, 342, 341, 342, 343, 344, 345, 342, 344, 345, 344, 346, 347, 345, 346, 347, 346, 348, 346, 349, 348, 347, 348, 350, 347, 350, 351, 352, 347, 351, 352, 351, 353, 353, 351, 354, 353, 354, 355, 355, 354, 356, 357, 355, 356, 360, 359, 358, 360, 361, 359, 361, 362, 359, 361, 360, 363, 360, 364, 363, 364, 365, 363, 365, 366, 363, 362, 361, 367, 367, 361, 363, 368, 362, 367, 369, 363, 366, 369, 367, 363, 370, 369, 366, 370, 371, 369, 371, 372, 369, 371, 373, 372, 374, 367, 369, 372, 374, 369, 368, 367, 375, 367, 374, 375, 373, 376, 372, 373, 377, 376, 377, 378, 376, 378, 379, 376, 372, 376, 380, 379, 380, 376, 374, 372, 380, 379, 381, 380, 380, 382, 374, 381, 382, 380, 382, 375, 374, 383, 382, 381, 382, 383, 375, 384, 383, 381, 375, 385, 368, 383, 385, 375, 368, 385, 386, 385, 383, 386, 389, 388, 387, 388, 390, 387, 391, 387, 390, 388, 392, 390, 393, 391, 390, 391, 393, 394, 392, 395, 390, 393, 390, 395, 393, 396, 394, 397, 394, 396, 398, 397, 396, 399, 395, 392, 400, 399, 392, 399, 401, 395, 402, 393, 395, 401, 402, 395, 393, 402, 396, 401, 403, 402, 398, 396, 404, 402, 404, 396, 403, 404, 402, 405, 398, 404, 403, 406, 404, 406, 405, 404, 409, 408, 407, 410, 409, 407, 409, 410, 411, 410, 412, 411, 413, 411, 412, 412, 414, 413, 413, 415, 411, 418, 417, 416, 418, 416, 419, 420, 418, 419, 416, 417, 421, 422, 420, 419, 423, 416, 421, 419, 416, 423, 424, 422, 419, 425, 422, 424, 425, 424, 426, 424, 419, 427, 424, 427, 426, 423, 421, 428, 423, 428, 429, 421, 430, 428, 430, 431, 428, 431, 432, 428, 428, 432, 429, 432, 433, 429, 433, 434, 429, 435, 419, 423, 419, 435, 427, 435, 423, 429, 427, 435, 429, 426, 427, 436, 436, 427, 429, 434, 436, 429, 437, 426, 436, 434, 438, 436, 438, 437, 436, 441, 440, 439, 442, 441, 439, 443, 440, 441, 441, 442, 444, 442, 445, 444, 446, 443, 441, 441, 444, 446, 447, 443, 446, 444, 445, 448, 445, 449, 448, 448, 449, 450, 451, 448, 450, 448, 451, 452, 444, 448, 452, 451, 453, 452, 452, 453, 454, 453, 455, 454, 455, 456, 454, 457, 444, 452, 444, 457, 446, 457, 452, 454, 458, 447, 446, 446, 457, 458, 456, 459, 454, 456, 460, 459, 461, 457, 454, 457, 461, 458, 462, 461, 454, 461, 462, 458, 459, 462, 454, 447, 458, 463, 462, 463, 458, 464, 447, 463, 460, 465, 459, 465, 460, 466, 467, 465, 466, 467, 468, 465, 469, 462, 459, 465, 469, 459, 468, 469, 465, 462, 469, 463, 468, 470, 469, 464, 463, 471, 469, 471, 463, 470, 471, 469, 472, 464, 471, 471, 470, 473, 472, 471, 473]
                rel material:binding = </Sofa_216_1/Materials/tn__material_Sofa_velvet001_AlbedoTransparencyVar2_hc1>
                uniform token orientation = "rightHanded"
                point3f[] points = [(0.8895343, 0.5549071, -0.2909595), (0.8321149, 0.3432112, -0.2823144), (0.8492309, 0.4110529, -0.2829443), (-0.8398404, 0.3251179, -0.2754492), (-0.8848565, 0.3490734, -0.1194043), (-0.8262292, 0.316944, -0.2733618), (-0.7215798, 0.3148339, -0.2738892), (-0.5893661, 0.3032645, -0.2720459), (0.04382233, 0.3148103, -0.2740381), (-0.5895761, 0.3430014, -0.2822559), (0.7193075, 0.3430032, -0.282251), (0.7186273, 0.3148339, -0.2738769), (0.7802277, 0.3151352, -0.2727441), (-0.7222601, 0.3430032, -0.2822583), (-0.7831805, 0.3151349, -0.2727563), (0.7832001, 0.3251959, -0.2772852), (0.823276, 0.3169443, -0.2733496), (0.8159967, 0.3431311, -0.28229), (0.8220493, 0.4110467, -0.2831299), (0.7211404, 0.5548443, -0.2908203), (0.723121, 0.7803186, -0.3913525), (1.008008, 0.7801923, -0.3848901), (-0.5909362, 0.5529603, -0.2867041), (-0.7861523, 0.3251959, -0.2772949), (-0.8262292, 0.316944, -0.2733618), (-0.7227539, 0.4110445, -0.2831348), (-0.818949, 0.3431311, -0.2822998), (-0.8388953, 0.3431263, -0.2821167), (-0.8398404, 0.3251179, -0.2754492), (-0.8473605, 0.5549071, -0.2909692), (-0.8983032, 0.554937, -0.2907886), (-1.019678, 0.7802432, -0.3846606), (-0.9072607, 0.7805923, -0.3869385), (-0.5915042, 0.7802465, -0.3939258), (-0.9102865, 0.9090745, -0.461289), (-0.9684683, 0.9679413, -0.4744458), (-0.9178372, 0.9845076, -0.4456738), (-0.9704727, 0.9811303, -0.4640991), (-0.7261822, 0.8977042, -0.4618359), (-0.5939114, 0.9942573, -0.4357397), (0.7305219, 0.9939517, -0.4358667), (0.9073367, 0.9090745, -0.4612769), (0.9148871, 0.9845076, -0.4456616), (0.964964, 0.9770783, -0.4709009), (0.9951639, 0.8927099, -0.4551513), (0.9792953, 0.9998025, -0.4301733), (0.9148871, 0.9845076, -0.4456616), (0.964964, 0.9770783, -0.4709009), (0.9669668, 1.017717, -0.31552), (0.9137661, 1.014482, -0.3388672), (0.9654437, 1.011055, -0.2988965), (0.9068624, 1.006075, -0.2983105), (0.8193842, 0.9994917, -0.2975854), (0.7305219, 0.9939517, -0.4358667), (0.7306155, 1.015232, -0.3489087), (0.7231253, 0.9400918, -0.2302368), (0.04834076, 1.015254, -0.3491406), (-0.5939114, 0.9942573, -0.4357397), (-0.7335669, 1.015232, -0.348916), (-0.5916125, 0.9400999, -0.2284961), (-0.7260782, 0.9400918, -0.230249), (-0.8223364, 0.9994917, -0.2975976), (-0.9178372, 0.9845076, -0.4456738), (-0.7261822, 0.8977042, -0.4618359), (-0.9167181, 1.014482, -0.3388794), (-0.9820779, 1.017626, -0.3581763), (-0.9675067, 1.017412, -0.3074219), (-0.9704727, 0.9811303, -0.4640991), (0.9068624, 1.006075, -0.2983105), (0.9654437, 1.011055, -0.2988965), (0.9851882, 0.9344828, -0.2613745), (0.8920316, 0.9365308, -0.2512744), (0.8193842, 0.9994917, -0.2975854), (0.7231253, 0.9400918, -0.2302368), (0.9068719, 0.82354, -0.1954736), (0.04799408, 0.823654, -0.1367798), (0.8731647, 0.5982353, -0.1299414), (1.021251, 0.8234968, -0.2129883), (0.04834076, 1.015254, -0.3491406), (0.9233087, 0.5981821, -0.1568799), (-0.5916125, 0.9400999, -0.2284961), (0.8863779, 0.3862326, -0.1563867), (-0.7260782, 0.9400918, -0.230249), (0.8644714, 0.3863138, -0.154624), (0.8818017, 0.3580998, -0.1181665), (0.8660962, 0.358077, -0.1180713), (0.7716266, 0.3579924, -0.1177661), (0.06865051, 0.3863138, -0.1486206), (0.0700238, 0.3580031, -0.1177515), (-0.6155981, 0.3580031, -0.1177563), (0.05865173, 0.5982353, -0.05303955), (-0.7709778, 0.3863138, -0.1492651), (-0.7745807, 0.3579924, -0.1177783), (-0.8690506, 0.358077, -0.1180835), (-0.7529321, 0.5982353, -0.0738086), (-0.885018, 0.3863138, -0.157749), (-0.8848565, 0.3490734, -0.1194043), (-0.9197461, 0.5982353, -0.1568164), (-0.730629, 0.8236505, -0.147456), (-1.013565, 0.8234758, -0.2163037), (-0.8949838, 0.9365308, -0.2512866), (-0.8223364, 0.9994917, -0.2975976), (-0.9981604, 0.9359171, -0.2602222), (-0.9167181, 1.014482, -0.3388794), (-0.9675067, 1.017412, -0.3074219), (0.9654437, 1.011055, -0.2988965), (0.9669668, 1.017717, -0.31552), (0.9792953, 0.9998025, -0.4301733), (0.964964, 0.9770783, -0.4709009), (0.9851882, 0.9344828, -0.2613745), (0.9951639, 0.8927099, -0.4551513), (1.021251, 0.8234968, -0.2129883), (1.008008, 0.7801923, -0.3848901), (0.9233087, 0.5981821, -0.1568799), (0.8895343, 0.5549071, -0.2909595), (0.8492309, 0.4110529, -0.2829443), (0.8863779, 0.3862326, -0.1563867), (0.8321149, 0.3432112, -0.2823144), (0.8818017, 0.3580998, -0.1181665), (0.823276, 0.3169443, -0.2733496), (-0.885018, 0.3863138, -0.157749), (-0.8848565, 0.3490734, -0.1194043), (-0.8398404, 0.3251179, -0.2754492), (-0.8388953, 0.3431263, -0.2821167), (-0.8983032, 0.554937, -0.2907886), (-0.9197461, 0.5982353, -0.1568164), (-1.019678, 0.7802432, -0.3846606), (-1.013565, 0.8234758, -0.2163037), (-0.9684683, 0.9679413, -0.4744458), (-0.9981604, 0.9359171, -0.2602222), (-0.9675067, 1.017412, -0.3074219), (-0.9704727, 0.9811303, -0.4640991), (-0.9820779, 1.017626, -0.3581763), (0.9091519, 0.4308524, 0.4669018), (0.8828458, 0.5106391, 0.4861816), (0.9091519, 0.5106391, 0.4669018), (0.8902954, 0.4308524, 0.495227), (0.9091519, 0.3590444, 0.4669018), (0.8960739, 0.3553742, 0.496792), (0.9091519, 0.3510658, 0.4669018), (0.8960739, 0.3510658, 0.5047998), (0.9091519, -0.00958636, 0.4669018), (0.8960739, -0.00958636, 0.5047998), (0.8902954, 0.4308524, 0.495227), (0.8720688, 0.5106391, 0.4918921), (0.8828458, 0.5106391, 0.4861816), (0.8720685, 0.4308524, 0.5047998), (0.8960739, 0.3553742, 0.496792), (-0.00272858, 0.5106391, 0.4918872), (0.8720688, 0.3553742, 0.496792), (-0.00272888, 0.4308524, 0.5047949), (-0.865379, 0.5106391, 0.4918823), (-0.00272888, 0.3553742, 0.4967847), (-0.865379, 0.4308524, 0.5047876), (-0.8824429, 0.5106391, 0.4861719), (-0.865379, 0.3553742, 0.4967822), (-0.8898929, 0.4308524, 0.4952148), (-0.8956708, 0.3553742, 0.4967822), (0.8842739, -0.00958636, 0.4669018), (0.8960739, -0.00958636, 0.5047998), (0.9091519, -0.00958636, 0.4669018), (0.8720685, -0.00958636, 0.5047998), (-0.00261414, -0.00958636, 0.466897), (-0.00272888, -0.00958636, 0.5047949), (-0.8773547, -0.00958636, 0.4668896), (-0.865379, -0.00958636, 0.5047876), (-0.9087493, -0.00958636, 0.4668896), (-0.8956708, -0.00958636, 0.5047876), (0.9091519, 0.5106391, 0.4669018), (0.8828458, 0.5106391, 0.4861816), (0.8720688, 0.5106391, 0.4918921), (0.8720688, 0.5106391, 0.4669018), (0.9091537, 0.510639, 0.2365356), (-0.00272858, 0.5106391, 0.4918872), (0.8720703, 0.5195165, 0.2365356), (0.909155, 0.510639, 0.00616943), (-0.00272858, 0.5262558, 0.466897), (-0.865379, 0.5106391, 0.4918823), (0.8720721, 0.5121629, 0.00616943), (0.9091565, 0.4343127, -0.1751416), (0.795799, 0.4505931, -0.1751416), (-0.8653787, 0.5106391, 0.4668896), (-0.8824429, 0.5106391, 0.4861719), (-0.9087493, 0.5106391, 0.4668896), (-0.00272675, 0.5432922, 0.2365308), (-0.00272522, 0.5298892, 0.00616455), (-0.002724, 0.4638667, -0.1751465), (-0.8653775, 0.5195165, 0.2365234), (-0.9087476, 0.510639, 0.2365234), (-0.8653759, 0.5121629, 0.00615723), (-0.7891003, 0.4505931, -0.1751514), (-0.908746, 0.510639, 0.00615723), (-0.9087448, 0.4343127, -0.1751538), (-0.8898929, 0.4308524, 0.4952148), (-0.9087493, 0.5106391, 0.4668896), (-0.8824429, 0.5106391, 0.4861719), (-0.9087493, 0.4308524, 0.4668896), (-0.8956708, 0.3553742, 0.4967822), (-0.9087493, 0.3590444, 0.4668896), (-0.8956708, 0.3510658, 0.5047876), (-0.9087493, 0.3510658, 0.4668896), (-0.8956708, -0.00958636, 0.5047876), (-0.9087493, -0.00958636, 0.4668896), (0.8960739, -0.00958636, 0.5047998), (0.8720685, 0.3510658, 0.5047998), (0.8960739, 0.3510658, 0.5047998), (0.8720685, -0.00958636, 0.5047998), (-0.00272888, 0.3510658, 0.5047949), (-0.00272888, -0.00958636, 0.5047949), (-0.865379, 0.3510658, 0.5047876), (-0.865379, -0.00958636, 0.5047876), (-0.8956708, 0.3510658, 0.5047876), (-0.8956708, -0.00958636, 0.5047876), (-0.865379, 0.3510658, 0.5047876), (-0.8956708, 0.3510658, 0.5047876), (-0.8956708, 0.3553742, 0.4967822), (-0.865379, 0.3553742, 0.4967822), (-0.00272888, 0.3510658, 0.5047949), (-0.00272888, 0.3553742, 0.4967847), (0.8720685, 0.3510658, 0.5047998), (0.8720688, 0.3553742, 0.496792), (0.8960739, 0.3510658, 0.5047998), (0.8960739, 0.3553742, 0.496792), (-1.155923, 0.7848389, 0.5425415), (-1.12736, 0.5663444, 0.5157983), (-1.170931, 0.7738568, 0.4786694), (-1.12745, 0.5663415, 0.3225098), (-1.176693, 0.7780972, 0.1159424), (-1.114883, 0.357687, 0.3225098), (-1.114789, 0.357687, 0.5302368), (-1.112393, 2e-8, 0.5302271), (-1.112485, -0.00001639, 0.3225195), (-1.127447, 0.5663415, -0.08758789), (-1.161616, 0.7670066, -0.2331836), (-1.114881, 0.357687, -0.08737793), (-1.112482, -0.00001639, -0.08731689), (-1.112481, -0.00001639, -0.2680054), (-1.114879, 0.357687, -0.273252), (-1.112386, 2e-8, -0.3518701), (-1.127445, 0.5663415, -0.2928882), (-1.152038, 0.7221127, -0.3366235), (-1.114783, 0.357687, -0.3610278), (-1.104347, -0.00001639, -0.4044189), (-1.10666, 0.357687, -0.416936), (-1.119664, 0.5666091, -0.4574463), (-1.127354, 0.5663444, -0.3946802), (-1.14597, 0.7269212, -0.5256274), (-1.152794, 0.7278737, -0.4511523), (-1.157028, 0.7635635, -0.4650854), (-1.13751, 0.7721564, -0.5442456), (-1.16216, 0.7615708, -0.3384277), (-1.142516, 0.7838694, -0.3388476), (-1.011957, 0.7624779, 0.4761621), (-1.039419, 0.7625418, 0.5386719), (-1.107284, 0.7981951, 0.5505688), (-1.115506, 0.8138494, 0.514895), (-1.01, 0.766192, 0.1142602), (-1.170931, 0.7738568, 0.4786694), (-1.155923, 0.7848389, 0.5425415), (-1.118703, 0.8199401, 0.1402856), (-1.176693, 0.7780972, 0.1159424), (-1.161616, 0.7670066, -0.2331836), (-1.014521, 0.7564793, -0.2303418), (-1.110235, 0.8040092, -0.227959), (-1.142516, 0.7838694, -0.3388476), (-1.104746, 0.8015659, -0.3486157), (-1.095334, 0.7999344, -0.4595166), (-1.015341, 0.7542959, -0.3728931), (-1.157028, 0.7635635, -0.4650854), (-1.13751, 0.7721564, -0.5442456), (-0.8999188, 0.7778413, -0.3863769), (-1.104559, 0.7919479, -0.5497265), (-0.9399154, 0.8002229, -0.4693555), (-0.9445276, 0.7934219, -0.5501562), (-0.00606995, 0.801387, -0.3998535), (-0.00606934, 0.8005113, -0.4791846), (-0.00606873, 0.7948959, -0.5505859), (0.944537, 0.7934219, -0.5501465), (0.9399237, 0.8002229, -0.4693408), (0.8999258, 0.7778413, -0.3863623), (1.095341, 0.7999344, -0.459502), (1.104568, 0.7919479, -0.5497094), (1.137519, 0.7721564, -0.5442285), (1.157037, 0.7635635, -0.4650708), (1.015348, 0.7542959, -0.3728784), (1.142523, 0.7838694, -0.3388306), (1.104753, 0.8015659, -0.3486011), (1.014524, 0.7564793, -0.2303296), (1.11024, 0.8040092, -0.2279419), (1.161621, 0.7670066, -0.2331689), (1.118703, 0.8199401, 0.1403003), (1.176693, 0.7780972, 0.1159595), (1.01, 0.766192, 0.1142725), (1.170927, 0.7738568, 0.4786841), (1.1155, 0.8138494, 0.5149097), (1.011951, 0.7624779, 0.4761767), (1.107278, 0.7981951, 0.5505835), (1.155918, 0.7848389, 0.5425562), (1.039414, 0.7625418, 0.5386841), (-1.014521, 0.7564793, -0.2303418), (-1.015341, 0.7542959, -0.3728931), (-0.9240042, 0.5722874, -0.3287817), (-0.920083, 0.5689594, -0.2188867), (-1.01, 0.766192, 0.1142602), (-0.8974267, 0.3509805, -0.3024829), (-0.8834805, 0.5541543, 0.1138623), (-1.011957, 0.7624779, 0.4761621), (-0.8927886, 0.34131, -0.2118018), (-0.9099191, 0.5598158, 0.4755713), (-1.039419, 0.7625418, 0.5386719), (-0.9338223, 0.5741276, 0.526897), (-0.8927886, 0.00002782, -0.2118018), (-0.8974267, 0.0000278, -0.3024829), (-0.8546906, 0.00002786, 0.1144971), (-0.8546906, 0.3001477, 0.1144971), (-0.8805331, 0.00002792, 0.4756274), (-0.8805331, 0.3157542, 0.4756274), (-0.90764, 0.357687, 0.541001), (-0.90764, 0.00002792, 0.541001), (-1.112393, 2e-8, 0.5302271), (-0.90764, 0.357687, 0.541001), (-0.90764, 0.00002792, 0.541001), (-1.114789, 0.357687, 0.5302368), (-0.9338223, 0.5741276, 0.526897), (-1.12736, 0.5663444, 0.5157983), (-1.039419, 0.7625418, 0.5386719), (-1.107284, 0.7981951, 0.5505688), (-1.155923, 0.7848389, 0.5425415), (-1.112393, 2e-8, 0.5302271), (-0.90764, 0.00002792, 0.541001), (-0.8805331, 0.00002792, 0.4756274), (-1.112485, -0.00001639, 0.3225195), (-0.8546906, 0.00002786, 0.1144971), (-1.112482, -0.00001639, -0.08731689), (-0.8927886, 0.00002782, -0.2118018), (-0.8974267, 0.0000278, -0.3024829), (-1.112481, -0.00001639, -0.2680054), (-1.112386, 2e-8, -0.3518701), (-1.034971, -0.00001639, -0.4044116), (-1.104347, -0.00001639, -0.4044189), (-0.8409625, 0.00002778, -0.3035474), (-0.9097339, -0.00001637, -0.4042895), (-0.00607056, 0.00002778, -0.3046118), (-0.00606995, -0.00001637, -0.4042505), (0.9097409, -0.00001637, -0.4042773), (0.840968, 0.00002778, -0.3035376), (1.034978, -0.0000164, -0.404397), (0.8974329, 0.00002782, -0.3024707), (1.112393, 0, -0.3518555), (1.104354, -0.0000164, -0.4044043), (1.112486, -0.0000164, -0.2679907), (1.112485, -0.0000164, -0.08730225), (0.8927935, 0.00002782, -0.211792), (0.8546906, 0.00002788, 0.1145093), (1.112482, -0.0000164, 0.3225342), (0.8805282, 0.00002794, 0.4756396), (1.112387, 0, 0.5302417), (0.9076349, 0.00002794, 0.5410132), (1.155918, 0.7848389, 0.5425562), (1.170927, 0.7738568, 0.4786841), (1.127354, 0.5663444, 0.515813), (1.127447, 0.5663415, 0.3225244), (1.176693, 0.7780972, 0.1159595), (1.114881, 0.357687, 0.322522), (1.114783, 0.357687, 0.5302514), (1.112387, 0, 0.5302417), (1.112482, -0.0000164, 0.3225342), (1.127449, 0.5663415, -0.0875708), (1.161621, 0.7670066, -0.2331689), (1.114884, 0.357687, -0.08736328), (1.112485, -0.0000164, -0.08730225), (1.112486, -0.0000164, -0.2679907), (1.114885, 0.357687, -0.2732397), (1.112393, 0, -0.3518555), (1.127451, 0.5663415, -0.2928735), (1.152044, 0.7221127, -0.3366064), (1.114789, 0.357687, -0.3610132), (1.104354, -0.0000164, -0.4044043), (1.106667, 0.357687, -0.4169214), (1.119672, 0.5666091, -0.4574292), (1.127361, 0.5663444, -0.3946655), (1.14598, 0.7269212, -0.5256128), (1.152801, 0.7278737, -0.4511377), (1.157037, 0.7635635, -0.4650708), (1.137519, 0.7721564, -0.5442285), (1.162166, 0.7615708, -0.3384106), (1.142523, 0.7838694, -0.3388306), (1.014524, 0.7564793, -0.2303296), (0.9240103, 0.5722874, -0.3287695), (1.015348, 0.7542959, -0.3728784), (0.9200876, 0.5689594, -0.2188721), (1.01, 0.766192, 0.1142725), (0.8974329, 0.3509805, -0.3024707), (0.8834808, 0.5541543, 0.1138745), (1.011951, 0.7624779, 0.4761767), (0.8927935, 0.34131, -0.211792), (0.9099142, 0.5598158, 0.4755835), (1.039414, 0.7625418, 0.5386841), (0.9338171, 0.5741276, 0.5269092), (0.8927935, 0.00002782, -0.211792), (0.8974329, 0.00002782, -0.3024707), (0.8546906, 0.00002788, 0.1145093), (0.8546906, 0.3001477, 0.1145093), (0.8805282, 0.00002794, 0.4756396), (0.8805282, 0.3157542, 0.4756372), (0.9076346, 0.357687, 0.5410132), (0.9076349, 0.00002794, 0.5410132), (1.112387, 0, 0.5302417), (0.9076349, 0.00002794, 0.5410132), (0.9076346, 0.357687, 0.5410132), (1.114783, 0.357687, 0.5302514), (0.9338171, 0.5741276, 0.5269092), (1.127354, 0.5663444, 0.515813), (1.107278, 0.7981951, 0.5505835), (1.155918, 0.7848389, 0.5425562), (1.039414, 0.7625418, 0.5386841), (-0.8999188, 0.7542704, -0.3745947), (-1.015341, 0.7542959, -0.3728931), (-0.8999188, 0.7778413, -0.3863769), (-0.00606995, 0.7542456, -0.3762744), (-0.00606995, 0.801387, -0.3998535), (-0.9240042, 0.5722874, -0.3287817), (0.8999258, 0.7778413, -0.3863623), (-0.8542508, 0.5723258, -0.3300855), (0.8999255, 0.7542704, -0.3745849), (1.015348, 0.7542959, -0.3728784), (0.9240103, 0.5722874, -0.3287695), (0.8542572, 0.5723258, -0.3300732), (-0.8409625, 0.3510925, -0.3035474), (-0.00607056, 0.3512047, -0.3046118), (-0.8974267, 0.3509805, -0.3024829), (-0.8974267, 0.0000278, -0.3024829), (-0.8409625, 0.00002778, -0.3035474), (-0.00607056, 0.00002778, -0.3046118), (0.840968, 0.00002778, -0.3035376), (-0.00607056, 0.5723638, -0.3313696), (0.840968, 0.3510925, -0.3035376), (0.8974329, 0.3509805, -0.3024707), (0.8974329, 0.00002782, -0.3024707), (-1.104347, -0.00001639, -0.4044189), (-1.034971, -0.00001639, -0.4044116), (-1.037581, 0.357687, -0.4169336), (-1.10666, 0.357687, -0.416936), (-0.9097339, -0.00001637, -0.4042895), (-1.054488, 0.5689903, -0.4574463), (-1.119664, 0.5666091, -0.4574463), (-0.9110388, 0.357687, -0.4169336), (-0.00606995, -0.00001637, -0.4042505), (-1.102358, 0.7505614, -0.5325683), (-1.14597, 0.7269212, -0.5256274), (-1.13751, 0.7721564, -0.5442456), (-1.104559, 0.7919479, -0.5497265), (-0.9434274, 0.7551141, -0.5315015), (-0.9445276, 0.7934219, -0.5501562), (-0.00606903, 0.7583573, -0.5305371), (-0.00606873, 0.7948959, -0.5505859), (0.944537, 0.7934219, -0.5501465), (-0.9194922, 0.5717539, -0.4574438), (-0.00606995, 0.357687, -0.4169287), (0.943436, 0.7551141, -0.5314893), (1.104568, 0.7919479, -0.5497094), (-0.00606934, 0.5738092, -0.4574389), (0.9194998, 0.5717539, -0.4574316), (0.9110461, 0.357687, -0.4169214), (0.9097409, -0.00001637, -0.4042773), (1.102367, 0.7505614, -0.5325512), (1.137519, 0.7721564, -0.5442285), (1.14598, 0.7269212, -0.5256128), (1.119672, 0.5666091, -0.4574292), (1.054496, 0.5689903, -0.4574292), (1.106667, 0.357687, -0.4169214), (1.037588, 0.357687, -0.4169214), (1.034978, -0.0000164, -0.404397), (1.104354, -0.0000164, -0.4044043)]
                normal3f[] primvars:normals = [(0.9441721, -0.2073182, -0.256043), (0.8306269, -0.2929822, -0.4735193), (0.4791704, -0.4570949, -0.7493063), (-0.4133044, -0.811708, -0.4126857), (-0.9810884, -0.1537378, -0.1176022), (-0.8316852, -0.4987536, -0.2440175), (0.00000595, -0.2796801, -0.9600932), (-0.00019912, -0.1594166, -0.9872113), (-0.00391696, -0.2776028, -0.9606879), (-0.00253233, -0.0558718, -0.9984347), (0.00086663, -0.05714286, -0.9983657), (0.00176721, -0.2849137, -0.9585515), (-0.01004172, -0.3662302, -0.9304702), (-0.00089841, -0.08522687, -0.9963612), (0.01005469, -0.3662213, -0.9304734), (-0.0034863, -0.3132468, -0.9496654), (0.8247613, -0.4096888, -0.3897743), (0.00207437, -0.06702691, -0.997749), (-0.0058028, -0.03914836, -0.9992166), (-0.00108254, -0.2465762, -0.9691228), (-0.00567986, -0.3220592, -0.9467025), (0.5858909, -0.4535511, -0.6715825), (-0.00110913, -0.2541374, -0.9671674), (0.0035003, -0.3132459, -0.9496656), (0.00958961, -0.03168327, -0.9994519), (0.00935737, -0.05770068, -0.99829), (-0.8489211, -0.2422086, -0.4697531), (0.00957483, -0.2840879, -0.9587504), (-0.8453192, -0.3965847, -0.3579888), (-0.9199182, -0.2227442, -0.3227002), (-0.01455719, -0.4417195, -0.8970351), (0.00494717, -0.3348703, -0.9422513), (-0.04655093, -0.3021683, -0.9521173), (-0.868161, 0.09297612, -0.4874956), (0.05751136, 0.7487083, -0.6604001), (-0.4044834, 0.831336, -0.3811477), (0.06374625, -0.2072128, -0.9762167), (0.01761919, 0.2027874, -0.9790643), (-0.01898625, 0.06016563, -0.9980078), (-0.07634962, -0.3038394, -0.9496592), (-0.06410217, 0.7720557, -0.632314), (0.8262226, 0.3471108, -0.4437009), (0.8901925, 0.02276559, -0.4550155), (0.3673651, 0.9022321, -0.2258766), (0.1910731, 0.9768634, -0.09606826), (0.02003007, 0.9865698, -0.1621072), (0.8822215, 0.402557, 0.2441993), (-0.01517076, 0.7223482, 0.6913631), (-0.01178367, 0.8175446, 0.5757449), (-0.00683192, 0.9760013, 0.2176574), (0.02949113, 0.6017847, 0.7981138), (0.00051547, 0.938255, 0.345944), (-0.01057599, 0.9870007, 0.1603676), (0.00643232, 0.7956863, 0.6056747), (-0.0236555, 0.6335043, 0.7733775), (-0.06765655, 0.9144797, 0.3989356), (0.1864258, 0.9782408, 0.09105063), (-0.3600034, 0.9095214, -0.2077699), (-0.711897, 0.6426808, 0.2831326), (0.8302712, 0.4331699, 0.3507329), (0.1004257, 0.5073725, 0.8558551), (0.0795145, 0.3010673, 0.950282), (0.01785589, 0.5351011, 0.8445994), (0.07213385, 0.08374623, 0.9938729), (0.9170929, -0.04229539, 0.3964238), (0.9171446, -0.32162, 0.2353856), (0.9671149, -0.2303442, -0.1078435), (0.00945048, -0.04842988, 0.9987819), (0.9590444, -0.2690738, -0.08850438), (0.00144459, 0.7914019, 0.6112944), (0.00450134, 0.7864675, 0.6176153), (0.03527837, -0.2594784, 0.9651043), (0.00001171, 0.7369926, 0.6759009), (-0.00049796, 0.7425007, 0.6698452), (0.03895389, -0.02379365, 0.9989576), (-0.0259758, -0.2770649, 0.9604999), (-0.00067924, 0.7435174, 0.6687162), (-0.08674155, 0.7845428, 0.6139776), (-0.08782071, 0.00354222, 0.99613), (-0.8679286, -0.2315579, 0.4394099), (-0.7046773, -0.06423216, 0.7066146), (-0.0659157, 0.395239, 0.9162102), (-0.7554542, 0.08392666, 0.649804), (-0.1480833, 0.5394778, 0.8288757), (-0.8921123, 0.3213764, 0.3175733), (0.1659977, 0.9597635, 0.2264927), (0.6098749, 0.09702566, 0.7865359), (0.8064929, 0.05698645, 0.588491), (0.7184445, 0.09169415, 0.689514), (0.8947684, 0.05317174, 0.4433533), (0.6596204, 0.1029619, 0.744513), (0.9448723, 0.00069645, 0.3274386), (0.7130077, 0.01201661, 0.7010533), (0.9440501, -0.05134549, 0.3257806), (0.7135313, -0.05823671, 0.6981989), (0.00670832, 0.4318374, 0.9019266), (0.00938841, 0.03272042, 0.9994204), (0.00215023, 0.3698735, 0.9290797), (-0.00000683, 4.2e-7, 1), (-0.00000675, 0.03154046, 0.9995025), (-0.01094575, 0.427252, 0.9040663), (-0.00000679, 0.00000129, 1), (-0.01016628, 0.03129885, 0.9994584), (-0.4540291, 0.4013952, 0.7954493), (-0.00218885, 0.00334841, 0.999992), (-0.6163284, 0.04730401, 0.7860672), (-0.5340638, 0.1256997, 0.8360476), (0, -1, 0), (-0.0000066, -0.1254662, 0.992098), (-0.00000672, -0.1052054, 0.9944506), (-0.00000676, -0.1232655, 0.9923738), (-0.9433702, -0.06379133, 0.3255509), (-0.656536, -0.06680875, 0.7513303), (0.01638391, 0.9992629, 0.03471539), (0.221567, 0.9749986, 0.01690793), (0.03160178, 0.9994783, 0.00667796), (0.0515066, 0.9788646, -0.1979174), (0.00436822, 0.992341, 0.1234513), (0.02683831, 0.9870619, -0.1580772), (0.1280851, 0.9205377, -0.369059), (0.02771001, 0.9423822, -0.3333888), (-0.02402674, 0.9989163, 0.03986096), (-0.1802443, 0.9610456, 0.2095316), (0.00050159, 0.9999717, 0.00750026), (-0.00258119, 0.982797, -0.1846708), (-0.00218178, 0.9399875, -0.3412019), (-0.03262778, 0.9994676, 0.00041929), (-0.1910445, 0.9814841, -0.01382423), (-0.02082417, 0.9890617, -0.1460251), (-0.02455051, 0.9428732, -0.3322459), (-0.06767549, 0.9738974, -0.2166649), (-0.1244365, 0.9144985, -0.384978), (-0.8431477, 0.02750218, 0.5369782), (-0.9191971, 0.0027588, 0.393788), (-0.6559473, 0.01295578, 0.7546955), (-0.9452955, 0, 0.3262154), (-0.00000676, 0.02193605, 0.9997594), (-0.00000675, 0.02193618, 0.9997594), (-0.00000681, 0.02193603, 0.9997594), (-0.9918677, 0.1177396, 0.04833102), (-0.7622741, -0.09904126, 0.6396319), (-0.6893589, 0.01172713, 0.7243251), (-0.9897351, -0.1428706, 0.00350115), (-0.9993855, 0.03347814, -0.01039096), (-0.9996548, -0.02627688, 0.00014694), (-0.7178051, -0.00156929, 0.6962424), (-0.6725602, -0.3791479, 0.6355389), (-0.8059676, -0.5919597, 0.00012887), (-0.9913357, -0.1310153, -0.00939593), (-0.9949117, 0.0954025, -0.03238781), (-0.9996449, -0.02664947, -0.00000677), (-0.8285338, -0.5599391, -0.00001058), (-0.8482689, -0.5295656, -0.0003285), (-0.999637, -0.0269413, -0.00034549), (-0.8853983, -0.4619654, -0.05155494), (-0.9945398, -0.1043577, -0.00031828), (-0.9849422, -0.172772, -0.0062233), (-0.9979799, -0.03177072, -0.05501491), (-0.5636436, -0.1481627, -0.8126214), (-0.5895581, -0.09306168, -0.8023471), (-0.6069399, -0.2904221, -0.7397831), (-0.9922149, -0.1162346, -0.04471232), (-0.6744288, -0.324295, -0.6633087), (-0.9858112, -0.1624209, -0.04237491), (-0.7929606, 0.604183, -0.0785893), (-0.7023318, 0.5702696, -0.4260546), (-0.9898808, 0.1401915, -0.02196567), (-0.5718964, 0.8195639, -0.03534979), (0.06277641, 0.1588812, 0.9852999), (0.2875691, 0.118784, 0.9503654), (0.763704, 0.6414958, 0.07238321), (0.0921607, 0.9935979, 0.06534281), (0.7488289, 0.6625021, -0.01860892), (0.07082712, 0.9974591, -0.00768083), (0.7732619, 0.6336671, -0.0230665), (0.08032798, 0.9962871, -0.03097361), (0.2343222, 0.9720994, -0.01076812), (-0.09933138, 0.9943, 0.03874034), (0.4949077, 0.7700164, 0.4026674), (-0.01872473, 0.9040611, 0.426993), (-0.1128757, 0.8274669, -0.5500524), (-0.00669035, 0.9977711, 0.06639363), (-0.00134074, 0.8024593, -0.5967054), (-0.00000874, 0.9163778, 0.4003144), (3.1e-7, 0.9990489, -0.04360343), (0.00000423, 0.7732447, -0.6341078), (0.0013336, 0.8024642, -0.5966988), (0.00662405, 0.9977737, 0.06636039), (0.01849819, 0.9041881, 0.4267338), (0.09933097, 0.9942999, 0.03874238), (0.1128838, 0.8274662, -0.5500516), (0.7023341, 0.5702732, -0.4260463), (0.7929615, 0.6041831, -0.07857963), (-0.494913, 0.7700171, 0.4026595), (0.5718958, 0.8195647, -0.03534177), (-0.2343212, 0.9720996, -0.01077216), (-0.7732627, 0.6336657, -0.02307698), (-0.08032712, 0.9962871, -0.03097471), (0.9949122, 0.09540242, -0.03237412), (-0.07082769, 0.997459, -0.00768128), (0.9993856, 0.03347766, -0.01037755), (-0.7488292, 0.6625014, -0.01861912), (0.9918672, 0.1177374, 0.04834394), (-0.09216037, 0.993598, 0.06534117), (-0.7637044, 0.6414964, 0.07237337), (0.0084234, 0.07566032, 0.9970981), (0.6893466, 0.01172677, 0.7243368), (-0.5720211, 0.3939883, 0.7194199), (0.7805333, 0.3556667, 0.5140709), (0.9502555, 0.3051417, -0.06247434), (0.8671601, 0.07242703, 0.4927349), (0.9523772, 0.3045063, -0.01592085), (0.9940425, 0.05165581, -0.09597583), (0.9550713, 0.2779886, 0.1027672), (0.2370083, 0.1026314, 0.9660713), (0.8601467, -0.5024102, -0.08792928), (0.559248, -0.7664015, 0.3160232), (0.7735707, -0.6335013, -0.01625916), (0.9986919, 0.04881857, -0.01521132), (0.8154828, -0.5697129, 0.1020545), (0.9911959, 0.05002004, 0.1225909), (0.2210483, 0.03959957, 0.9744586), (0.2011573, -0.1949316, 0.9599674), (0.00063612, -0.3567758, -0.9341899), (0.00222503, -0.3632587, 0.9316857), (0.00012958, -0.2194229, -0.9756299), (-0.00000634, -0.2923805, 0.956302), (0.00000642, -0.29933, -0.9541497), (-0.00011489, -0.2192369, -0.9756716), (-0.00220777, -0.3633283, 0.9316586), (-0.00062354, -0.356775, -0.9341902), (-0.5592533, -0.7663996, 0.316018), (0.8853983, -0.4619663, -0.05154672), (0.5636579, -0.1481617, -0.8126118), (0.8482689, -0.5295656, -0.00031831), (0.8285333, -0.5599397, 6.9e-7), (-0.8601454, -0.5024104, -0.08794133), (-0.7735706, -0.6335012, -0.01627011), (0.805967, -0.5919604, 0.00014009), (-0.8154842, -0.5697126, 0.1020447), (0.6725525, -0.3791486, 0.6355466), (-0.201169, -0.1949319, 0.9599649), (0.7172152, -0.1166585, 0.6870177), (0.9897352, -0.1428702, 0.00351463), (0.9996548, -0.02627612, 0.0001614), (0.7177957, -0.00156886, 0.6962522), (0.991336, -0.1310145, -0.00938263), (0.9996449, -0.02664875, 0.00000674), (0.999637, -0.02694094, -0.0003344), (0.9945399, -0.1043568, -0.00030365), (0.9849417, -0.1727752, -0.0062113), (0.9979804, -0.03177168, -0.05500686), (0.5895713, -0.09306264, -0.8023373), (0.6069505, -0.2904214, -0.7397746), (0.9922158, -0.1162323, -0.04469667), (0.6744423, -0.3242919, -0.6632966), (0.9858117, -0.1624216, -0.04236053), (0.9898812, 0.1401897, -0.02195222), (-0.7805414, 0.3556658, 0.5140594), (-0.950255, 0.3051405, -0.06248696), (-0.8671639, 0.07242741, 0.4927281), (-0.9523772, 0.3045059, -0.01593438), (-0.994041, 0.05165593, -0.09598961), (-0.9550728, 0.2779881, 0.1027549), (-0.2338822, 0.08243159, 0.9687642), (-0.9986916, 0.04881864, -0.01522537), (-0.9911975, 0.05002053, 0.1225785), (-0.2210617, 0.0395997, 0.9744555), (0.0035625, 0.2683786, 0.963307), (-0.00000612, 0.28764, 0.9577386), (0.0026962, 0.180338, 0.983601), (-0.00353409, 0.2683769, 0.9633075), (-0.0026747, 0.1803229, 0.9836038), (0.00236184, 0.04738035, 0.9988741), (-0.00000678, 0.04702895, 0.9988936), (-0.00000655, 0.1750685, 0.9845563), (-0.00234321, 0.04738044, 0.9988741), (0.00009439, -0.09352214, -0.9956172), (0.00814535, -0.2855652, -0.9583247), (0.00008832, -0.0934661, -0.9956225), (0.02450503, -0.3799344, -0.9246888), (0.00380062, -0.3864586, -0.9222988), (0.00000728, -0.3891644, -0.9211683), (0.00164418, -0.2811532, -0.9596614), (0.00000653, -0.09262243, -0.9957013), (-0.00374674, -0.3864631, -0.9222972), (0.00000655, -0.272918, -0.9620374), (-0.00161352, -0.2811616, -0.959659), (-0.00007391, -0.09346689, -0.9956225), (-0.02448867, -0.3799345, -0.9246892), (-0.00813329, -0.285565, -0.9583249), (-0.00008036, -0.09352238, -0.9956172)] (
                    interpolation = "faceVarying"
                )
                int[] primvars:normals:indices = [0, 1, 2, 3, 4, 5, 6, 7, 8, 9, 6, 8, 6, 9, 10, 11, 6, 10, 11, 10, 12, 9, 8, 13, 13, 8, 14, 10, 15, 12, 15, 16, 12, 15, 17, 16, 10, 17, 15, 1, 16, 17, 18, 1, 17, 10, 18, 17, 1, 18, 2, 18, 10, 19, 19, 2, 18, 19, 10, 9, 19, 20, 2, 20, 21, 2, 22, 19, 9, 20, 19, 22, 23, 13, 14, 3, 23, 14, 24, 9, 13, 24, 22, 9, 23, 25, 13, 3, 25, 23, 25, 24, 13, 26, 25, 3, 5, 26, 3, 24, 25, 27, 27, 25, 26, 24, 27, 22, 28, 27, 26, 28, 29, 27, 22, 27, 30, 29, 30, 27, 31, 20, 22, 31, 22, 30, 32, 30, 29, 33, 32, 29, 34, 32, 33, 35, 34, 33, 34, 36, 32, 32, 36, 30, 36, 31, 30, 37, 31, 36, 37, 38, 31, 38, 20, 31, 39, 20, 38, 40, 39, 38, 39, 21, 20, 39, 40, 41, 39, 42, 21, 42, 39, 41, 41, 40, 43, 44, 43, 40, 45, 44, 40, 44, 45, 46, 45, 47, 46, 47, 45, 48, 40, 38, 45, 48, 45, 49, 38, 49, 45, 49, 50, 48, 49, 51, 50, 49, 38, 51, 38, 37, 51, 51, 37, 52, 53, 51, 52, 54, 53, 52, 55, 54, 52, 52, 37, 34, 52, 34, 55, 37, 36, 34, 34, 56, 55, 56, 34, 57, 58, 56, 57, 34, 35, 57, 59, 46, 47, 60, 59, 47, 60, 47, 48, 48, 50, 60, 59, 60, 61, 50, 61, 60, 62, 61, 50, 61, 62, 63, 64, 59, 61, 61, 63, 64, 50, 51, 62, 63, 65, 64, 51, 53, 62, 65, 63, 66, 53, 54, 62, 63, 67, 66, 68, 66, 67, 69, 68, 67, 67, 70, 69, 67, 71, 70, 67, 63, 71, 72, 70, 71, 72, 71, 73, 63, 74, 71, 62, 74, 63, 71, 75, 73, 71, 74, 75, 76, 73, 75, 77, 76, 75, 74, 62, 78, 74, 78, 75, 79, 77, 75, 79, 75, 78, 77, 79, 4, 80, 79, 78, 62, 81, 78, 80, 78, 81, 54, 81, 62, 82, 80, 81, 83, 81, 54, 82, 81, 83, 83, 54, 55, 83, 84, 82, 55, 56, 83, 84, 83, 58, 83, 56, 58, 43, 44, 46, 41, 43, 46, 41, 46, 59, 59, 42, 41, 42, 59, 64, 21, 42, 64, 21, 64, 65, 2, 21, 65, 2, 65, 0, 65, 66, 0, 0, 66, 1, 66, 68, 1, 68, 16, 1, 5, 4, 79, 26, 5, 79, 28, 26, 79, 80, 28, 79, 28, 80, 29, 80, 82, 29, 33, 29, 82, 82, 84, 33, 84, 58, 33, 58, 35, 33, 58, 57, 35, 85, 86, 87, 86, 88, 87, 87, 88, 89, 88, 90, 89, 89, 90, 91, 90, 92, 91, 91, 92, 93, 92, 94, 93, 86, 95, 88, 95, 96, 88, 88, 96, 90, 95, 97, 96, 96, 98, 90, 97, 99, 96, 96, 99, 98, 97, 100, 99, 99, 101, 98, 100, 102, 99, 99, 102, 101, 100, 103, 102, 102, 104, 101, 103, 105, 102, 102, 105, 104, 105, 106, 104, 93, 94, 107, 94, 108, 107, 107, 108, 107, 108, 109, 107, 107, 109, 107, 109, 110, 107, 107, 110, 111, 110, 112, 111, 95, 86, 85, 113, 95, 85, 113, 85, 114, 97, 95, 113, 115, 113, 114, 115, 114, 116, 117, 97, 113, 117, 113, 115, 100, 97, 117, 118, 115, 116, 118, 116, 119, 120, 118, 119, 121, 100, 117, 103, 100, 121, 122, 103, 121, 123, 117, 115, 123, 115, 118, 121, 117, 123, 124, 118, 120, 124, 123, 118, 125, 124, 120, 122, 121, 126, 126, 121, 123, 126, 123, 124, 127, 122, 126, 128, 124, 125, 128, 126, 124, 127, 126, 128, 129, 128, 125, 130, 127, 128, 130, 128, 129, 131, 130, 129, 103, 122, 105, 122, 132, 105, 105, 132, 106, 132, 133, 106, 106, 133, 134, 133, 135, 134, 134, 135, 112, 135, 111, 112, 92, 136, 94, 136, 108, 94, 136, 137, 108, 137, 109, 108, 137, 138, 109, 138, 110, 109, 138, 134, 110, 134, 112, 110, 106, 134, 138, 104, 106, 138, 104, 138, 137, 101, 104, 137, 101, 137, 136, 98, 101, 136, 98, 136, 92, 90, 98, 92, 139, 140, 141, 142, 140, 139, 143, 142, 139, 140, 142, 144, 145, 140, 144, 146, 145, 144, 147, 146, 144, 142, 143, 148, 142, 148, 144, 143, 149, 148, 144, 150, 147, 148, 150, 144, 150, 151, 147, 152, 151, 150, 153, 152, 150, 154, 152, 153, 148, 155, 150, 155, 153, 150, 148, 149, 156, 155, 148, 156, 157, 154, 153, 158, 154, 157, 159, 158, 157, 160, 159, 157, 157, 153, 161, 161, 160, 157, 153, 155, 161, 162, 160, 161, 163, 161, 155, 163, 162, 161, 156, 163, 155, 163, 164, 162, 164, 163, 156, 164, 165, 162, 166, 156, 149, 166, 164, 156, 166, 149, 167, 164, 166, 167, 168, 169, 170, 171, 168, 170, 170, 172, 171, 168, 171, 139, 141, 168, 139, 172, 173, 171, 171, 173, 139, 173, 143, 139, 149, 143, 173, 172, 174, 173, 175, 149, 173, 174, 175, 173, 167, 149, 175, 176, 175, 174, 176, 167, 175, 177, 167, 176, 178, 176, 174, 178, 177, 176, 164, 167, 177, 165, 164, 177, 177, 178, 179, 180, 165, 177, 181, 177, 179, 177, 181, 180, 181, 182, 180, 181, 179, 183, 181, 184, 182, 184, 181, 183, 184, 185, 182, 185, 184, 186, 187, 184, 183, 184, 187, 186, 188, 187, 183, 189, 187, 188, 186, 187, 190, 187, 189, 190, 191, 190, 189, 192, 191, 189, 193, 189, 188, 194, 192, 189, 189, 193, 195, 194, 189, 195, 195, 193, 196, 194, 195, 197, 197, 195, 196, 198, 194, 197, 197, 196, 199, 198, 197, 199, 200, 198, 199, 196, 201, 199, 200, 199, 202, 199, 201, 203, 199, 203, 202, 201, 204, 203, 203, 205, 202, 205, 203, 204, 205, 206, 202, 207, 205, 204, 208, 178, 174, 209, 208, 174, 174, 172, 209, 210, 208, 209, 172, 211, 209, 211, 172, 170, 212, 210, 209, 209, 211, 212, 213, 211, 170, 170, 169, 213, 169, 214, 213, 212, 215, 210, 215, 216, 210, 217, 215, 212, 211, 218, 212, 218, 217, 212, 218, 211, 213, 219, 217, 218, 213, 214, 220, 220, 218, 213, 220, 219, 218, 214, 221, 220, 222, 219, 220, 221, 222, 220, 222, 221, 146, 221, 145, 146, 145, 221, 214, 140, 145, 214, 140, 214, 169, 169, 168, 140, 168, 141, 140, 219, 222, 146, 147, 219, 146, 147, 217, 219, 151, 217, 147, 151, 215, 217, 216, 215, 151, 152, 216, 151, 154, 216, 152, 223, 216, 154, 158, 223, 154, 224, 216, 223, 225, 224, 223, 226, 224, 225, 227, 226, 225, 226, 227, 228, 229, 226, 228, 229, 228, 230, 231, 229, 230, 231, 230, 232, 230, 233, 232, 231, 232, 234, 231, 234, 235, 236, 231, 235, 236, 235, 237, 237, 235, 238, 237, 238, 239, 239, 238, 240, 241, 239, 240, 242, 202, 206, 242, 243, 202, 243, 200, 202, 243, 242, 244, 242, 245, 244, 245, 240, 244, 240, 238, 244, 200, 243, 246, 246, 243, 244, 198, 200, 246, 247, 244, 238, 247, 246, 244, 235, 247, 238, 235, 234, 247, 234, 248, 247, 234, 232, 248, 249, 246, 247, 248, 249, 247, 198, 246, 250, 246, 249, 250, 232, 251, 248, 232, 233, 251, 233, 252, 251, 252, 253, 251, 248, 251, 254, 253, 254, 251, 249, 248, 254, 253, 255, 254, 254, 256, 249, 255, 256, 254, 256, 250, 249, 192, 256, 255, 256, 192, 250, 191, 192, 255, 250, 257, 198, 192, 257, 250, 198, 257, 194, 257, 192, 194, 193, 258, 196, 258, 259, 196, 201, 196, 259, 258, 260, 259, 261, 201, 259, 201, 261, 204, 260, 262, 259, 261, 259, 262, 261, 263, 204, 207, 204, 263, 264, 207, 263, 236, 262, 260, 231, 236, 260, 236, 237, 262, 265, 261, 262, 237, 265, 262, 261, 265, 263, 237, 239, 265, 264, 263, 266, 265, 266, 263, 239, 266, 265, 267, 264, 266, 239, 241, 266, 241, 267, 266, 267, 241, 240, 245, 267, 240, 267, 245, 264, 245, 242, 264, 205, 264, 242, 242, 206, 205, 205, 207, 264, 179, 178, 268, 179, 268, 269, 183, 179, 269, 268, 178, 208, 188, 183, 269, 270, 268, 208, 269, 268, 270, 271, 188, 269, 193, 188, 271, 193, 271, 258, 271, 269, 272, 271, 272, 258, 270, 208, 273, 270, 273, 274, 208, 210, 273, 210, 216, 273, 216, 224, 273, 273, 224, 274, 224, 226, 274, 226, 229, 274, 275, 269, 270, 269, 275, 272, 275, 270, 274, 272, 275, 274, 258, 272, 276, 276, 272, 274, 229, 276, 274, 260, 258, 276, 229, 231, 276, 231, 260, 276, 277, 223, 158, 159, 277, 158, 225, 223, 277, 277, 159, 278, 159, 160, 278, 279, 225, 277, 277, 278, 279, 227, 225, 279, 278, 160, 280, 160, 162, 280, 280, 162, 165, 180, 280, 165, 280, 180, 281, 278, 280, 281, 180, 182, 281, 281, 182, 282, 182, 185, 282, 185, 186, 282, 283, 278, 281, 278, 283, 279, 283, 281, 282, 284, 227, 279, 279, 283, 284, 186, 285, 282, 186, 190, 285, 286, 283, 282, 283, 286, 284, 287, 286, 282, 286, 287, 284, 285, 287, 282, 227, 284, 288, 287, 288, 284, 228, 227, 288, 190, 289, 285, 289, 190, 191, 255, 289, 191, 255, 253, 289, 290, 287, 285, 289, 290, 285, 253, 290, 289, 287, 290, 288, 253, 252, 290, 228, 288, 291, 290, 291, 288, 252, 291, 290, 230, 228, 291, 291, 252, 233, 230, 291, 233]
                texCoord2f[] primvars:st = [(0.7382966, 0.4944739), (0.7828078, 0.5078166), (0.7686488, 0.5038288), (0.6222871, 0.5268202), (0.6252117, 0.5632346), (0.6252117, 0.5261443), (0.7863044, 0.8571557), (0.7890543, 0.8274562), (0.787706, 0.685087), (0.7802462, 0.8274251), (0.7826475, 0.5331771), (0.7889471, 0.5333852), (0.7890543, 0.5195358), (0.7800023, 0.8572536), (0.7861856, 0.871003), (0.7867314, 0.5188485), (0.7887253, 0.5098546), (0.7827961, 0.5114403), (0.768591, 0.5099397), (0.7380077, 0.5323304), (0.6858878, 0.5314569), (0.6867624, 0.4674099), (0.7362013, 0.8272985), (0.7838517, 0.8716521), (0.7856985, 0.8806772), (0.765757, 0.8572243), (0.7797961, 0.8789898), (0.7797698, 0.8834738), (0.7838624, 0.8837211), (0.7351095, 0.8849425), (0.735019, 0.8963946), (0.6830432, 0.9232504), (0.6830619, 0.8979781), (0.6833612, 0.8269967), (0.6524944, 0.8984208), (0.6394392, 0.9113838), (0.637525, 0.8999564), (0.6372045, 0.9118032), (0.6551776, 0.8570563), (0.6365851, 0.8271112), (0.6390723, 0.5293682), (0.6558297, 0.4898039), (0.6408879, 0.4879447), (0.6412579, 0.4767118), (0.6597149, 0.4700911), (0.2209378, 0.5399462), (0.2244824, 0.5543931), (0.2299552, 0.5431103), (0.1961483, 0.5428053), (0.2012227, 0.5547481), (0.1926671, 0.5431451), (0.1926362, 0.5563071), (0.1926121, 0.5759627), (0.2223723, 0.5958609), (0.2034703, 0.5959188), (0.1789607, 0.5975397), (0.2039109, 0.749302), (0.223099, 0.8936094), (0.2043101, 0.9250839), (0.1793397, 0.8931088), (0.1797919, 0.9233373), (0.1935537, 0.9450405), (0.2255336, 0.9664108), (0.2299552, 0.9231741), (0.2022725, 0.9662623), (0.2064077, 0.9809513), (0.1955225, 0.9777008), (0.2295545, 0.9782289), (0.3912919, 0.5365036), (0.3923117, 0.52333), (0.3743154, 0.5189669), (0.3742401, 0.5399159), (0.3899546, 0.5561748), (0.3739181, 0.5779015), (0.3476706, 0.5366912), (0.3450353, 0.7298228), (0.2973243, 0.5444598), (0.3485638, 0.5109647), (0.3967248, 0.7294708), (0.2987975, 0.5331672), (0.3748296, 0.8734769), (0.254896, 0.5416052), (0.3750298, 0.9037056), (0.2548301, 0.5465315), (0.2469121, 0.5426794), (0.2469141, 0.5462103), (0.2469518, 0.5674489), (0.255101, 0.725449), (0.2474911, 0.7251803), (0.2480171, 0.8793193), (0.2936025, 0.7276303), (0.2557811, 0.9142105), (0.248138, 0.915061), (0.2482452, 0.9362991), (0.2953985, 0.9100724), (0.2563481, 0.9398425), (0.2464669, 0.9398573), (0.3002181, 0.9475155), (0.346235, 0.9048621), (0.3503071, 0.9684215), (0.375611, 0.9416655), (0.391214, 0.92526), (0.3760681, 0.9648553), (0.3967249, 0.9464394), (0.3955925, 0.9578781), (0.9567198, 0.1560694), (0.9596883, 0.1586404), (0.9843506, 0.1627034), (0.9941062, 0.1605849), (0.9541475, 0.1371668), (0.9965377, 0.1415384), (0.9516749, 0.1102031), (0.9895993, 0.112674), (0.9545652, 0.05780951), (0.9846709, 0.05762884), (0.9922925, 0.02615442), (0.9681985, 0.01228256), (0.9965377, 0.01153275), (0.9622101, 0.00362529), (0.9963902, 0.00526688), (0.9669682, 0.3348713), (0.9615207, 0.3454454), (0.9946795, 0.3401496), (0.9948753, 0.3358402), (0.9834177, 0.2897036), (0.9533601, 0.2894137), (0.9889734, 0.2347855), (0.951684, 0.2368915), (0.9948753, 0.1885897), (0.9533101, 0.2098498), (0.9574937, 0.1892566), (0.9919213, 0.1864553), (0.9679725, 0.1857528), (0.967225, 0.8608462), (0.9714906, 0.8429534), (0.9672251, 0.8429093), (0.9733959, 0.8608773), (0.967225, 0.8769895), (0.9737042, 0.8778358), (0.967225, 0.8787832), (0.975423, 0.8788041), (0.967225, 0.959862), (0.975423, 0.9598828), (0.4206872, 0.9124715), (0.4039722, 0.9083645), (0.4036494, 0.9107902), (0.4212283, 0.9083689), (0.4364098, 0.9137802), (0.4039722, 0.7116947), (0.4364098, 0.9083834), (0.4212283, 0.7116992), (0.4039722, 0.5177559), (0.4364098, 0.7117137), (0.4212283, 0.5177603), (0.4036494, 0.5139225), (0.4364098, 0.5177748), (0.4206872, 0.5122541), (0.4364098, 0.5109647), (0.6072256, 0.5317361), (0.6153625, 0.5290839), (0.6072256, 0.5261443), (0.6153625, 0.5344793), (0.6072256, 0.7310743), (0.6153625, 0.7311001), (0.6072256, 0.9276824), (0.6153625, 0.9249908), (0.6072256, 0.9347386), (0.6153625, 0.9317992), (0.5949442, 0.9348734), (0.599077, 0.9289612), (0.6003011, 0.9265389), (0.5949442, 0.9265366), (0.5455639, 0.9348522), (0.600301, 0.7298736), (0.545673, 0.9265012), (0.4961835, 0.934831), (0.5951362, 0.7298462), (0.6003011, 0.5359391), (0.4962022, 0.9264918), (0.4563803, 0.9349367), (0.4565804, 0.9094265), (0.5949442, 0.5359368), (0.599077, 0.5321024), (0.5949442, 0.5261866), (0.5459653, 0.7297978), (0.4964202, 0.7297981), (0.4567436, 0.7298872), (0.545673, 0.5359014), (0.5455639, 0.5261654), (0.4962023, 0.535892), (0.4565804, 0.5531214), (0.4961835, 0.5261443), (0.4563803, 0.5262499), (0.9734442, 0.81772), (0.967225, 0.8356547), (0.9715595, 0.8356587), (0.967225, 0.8177172), (0.9737369, 0.8007502), (0.9672251, 0.8015735), (0.9754552, 0.7997816), (0.9672251, 0.7997797), (0.9754552, 0.7187005), (0.9672251, 0.7186986), (0.8150026, 0.00362529), (0.889706, 0.00907174), (0.889706, 0.00367502), (0.8150026, 0.00902204), (0.889706, 0.2057415), (0.8150026, 0.2056917), (0.889706, 0.3996804), (0.8150026, 0.3996306), (0.889706, 0.4064905), (0.8150026, 0.4064408), (0.4449979, 0.5177823), (0.4449979, 0.5109723), (0.4433343, 0.5109647), (0.4433343, 0.5177746), (0.4449979, 0.7117168), (0.4433343, 0.7117091), (0.4449979, 0.9083821), (0.4433343, 0.9083744), (0.4449979, 0.9137787), (0.4433343, 0.913771), (0.9644808, 0.4674099), (0.9175786, 0.4732462), (0.9621357, 0.4818811), (0.9176232, 0.5166758), (0.9631302, 0.5634227), (0.8728253, 0.5166271), (0.8727766, 0.4699538), (0.7959788, 0.4700227), (0.7960239, 0.5166914), (0.9177191, 0.6088163), (0.9608328, 0.6417492), (0.8729212, 0.6087205), (0.7961198, 0.608774), (0.7961621, 0.6493707), (0.8729646, 0.650483), (0.7961853, 0.6682131), (0.9177672, 0.6549432), (0.9512193, 0.6649254), (0.8729852, 0.6702039), (0.7961951, 0.6799568), (0.8729994, 0.6827013), (0.9178643, 0.691855), (0.9177917, 0.6778136), (0.9522968, 0.7073423), (0.9524829, 0.6906627), (0.9601485, 0.6938177), (0.9620146, 0.7114481), (0.9596902, 0.6654009), (0.9644808, 0.6653357), (0.2231539, 0.04071879), (0.2365539, 0.03455065), (0.2395424, 0.01923782), (0.2320882, 0.01736094), (0.1456237, 0.04111892), (0.2238315, 0.00496127), (0.2376576, 0.00832364), (0.1518637, 0.01659738), (0.1461314, 0.00362529), (0.07115756, 0.00699992), (0.07163713, 0.040086), (0.0727325, 0.01849212), (0.04871532, 0.01125685), (0.04683894, 0.01971877), (0.02304672, 0.02182703), (0.04105366, 0.03989185), (0.02140593, 0.00801513), (0.00454319, 0.01238187), (0.03845296, 0.06580104), (0.00361164, 0.01975756), (0.02094142, 0.05676567), (0.00353695, 0.05573215), (0.03585226, 0.2667103), (0.0188361, 0.2667044), (0.00346226, 0.2667069), (0.00353695, 0.4804172), (0.02094139, 0.4793767), (0.03845296, 0.4704283), (0.02304671, 0.5143181), (0.00361163, 0.5163966), (0.00454318, 0.5238367), (0.02140593, 0.5282456), (0.04105365, 0.4964156), (0.04871531, 0.5249619), (0.04683892, 0.5164415), (0.07163711, 0.4962406), (0.07273248, 0.5176825), (0.07115756, 0.5292925), (0.1518637, 0.5195938), (0.1461313, 0.5326957), (0.1456237, 0.4952399), (0.2238314, 0.5314401), (0.2320882, 0.5189188), (0.2231538, 0.4957185), (0.2395424, 0.5170987), (0.2376576, 0.5280542), (0.2365539, 0.5018979), (0.7980784, 0.8916689), (0.7985513, 0.9237048), (0.8374792, 0.9142554), (0.8381852, 0.8895748), (0.7959788, 0.8142387), (0.8849504, 0.9084827), (0.8412977, 0.8149714), (0.7967724, 0.7328872), (0.8870173, 0.8881249), (0.8401182, 0.7335398), (0.7968021, 0.7186986), (0.8370833, 0.7218826), (0.9602911, 0.888131), (0.9603005, 0.9084889), (0.9602227, 0.8149841), (0.8957865, 0.8149788), (0.9602576, 0.7336855), (0.8924707, 0.73368), (0.8835105, 0.7188488), (0.9603005, 0.7188551), (0.9447504, 0.1751878), (0.8966305, 0.1010595), (0.9009037, 0.1785022), (0.9409906, 0.09770807), (0.8996032, 0.05301812), (0.9411375, 0.05151077), (0.9200304, 0.01153238), (0.9341955, 0.00362529), (0.9447504, 0.00540555), (0.2487797, 0.00364559), (0.2464669, 0.0496659), (0.2605031, 0.05575861), (0.2933762, 0.00362529), (0.3380404, 0.06156763), (0.3813715, 0.00362656), (0.4080995, 0.05300509), (0.4275693, 0.05196276), (0.4201662, 0.00362711), (0.438173, 0.00364831), (0.4494542, 0.02104852), (0.4494558, 0.0054555), (0.4277984, 0.0646538), (0.4494281, 0.04919697), (0.4280277, 0.2523054), (0.4494206, 0.2523059), (0.4494281, 0.458145), (0.4277984, 0.4426871), (0.4494542, 0.4862935), (0.4275693, 0.4553782), (0.438173, 0.5036932), (0.4494557, 0.5018865), (0.4201662, 0.5037141), (0.3813715, 0.5037135), (0.4080995, 0.4543352), (0.3380404, 0.4457708), (0.2933762, 0.5037122), (0.2605031, 0.4515775), (0.2487797, 0.5036904), (0.2464669, 0.4576698), (0.1720362, 0.7841242), (0.1697195, 0.7696891), (0.1250854, 0.7781901), (0.1251354, 0.7347452), (0.170734, 0.6881348), (0.08031645, 0.7347437), (0.08026208, 0.7814333), (0.00346226, 0.781332), (0.0035131, 0.7346469), (0.1252424, 0.6425718), (0.1684194, 0.6097372), (0.08042342, 0.6426173), (0.00362006, 0.6425313), (0.00366721, 0.6019202), (0.08047193, 0.6008399), (0.00369246, 0.5830708), (0.125296, 0.5964283), (0.1587919, 0.5865227), (0.08049469, 0.5811116), (0.00368952, 0.5713003), (0.08049601, 0.568587), (0.1253837, 0.5594816), (0.125323, 0.5735494), (0.1598637, 0.5440739), (0.1600599, 0.5607787), (0.1677332, 0.557637), (0.1695668, 0.5399462), (0.1672806, 0.5860782), (0.1720362, 0.58609), (0.00555226, 0.8233968), (0.04511464, 0.800572), (0.0060231, 0.7913748), (0.04582812, 0.8252329), (0.00346226, 0.9007863), (0.0926345, 0.8062769), (0.04900723, 0.8997077), (0.00425392, 0.9821144), (0.09471014, 0.8266147), (0.04778225, 0.9811841), (0.00423516, 0.9963747), (0.04470506, 0.9929035), (0.1679861, 0.8266221), (0.1679868, 0.8062844), (0.1679868, 0.899636), (0.1035487, 0.8996296), (0.1679774, 0.9809779), (0.1001885, 0.9809712), (0.0911802, 0.9958714), (0.1679724, 0.995879), (0.9447595, 0.1890061), (0.9008982, 0.1857528), (0.8966305, 0.2631959), (0.9410052, 0.2664854), (0.8996217, 0.3112305), (0.9411706, 0.31268), (0.9341958, 0.3605696), (0.9447595, 0.3587751), (0.9200413, 0.3526837), (0.6477724, 0.02957491), (0.6478636, 0.00362529), (0.6422243, 0.02957761), (0.6476825, 0.2305286), (0.6365851, 0.230534), (0.6880569, 0.02416212), (0.6422243, 0.4342141), (0.6879753, 0.03984452), (0.6477725, 0.4342114), (0.6478636, 0.4601593), (0.688057, 0.439628), (0.6879753, 0.4239469), (0.7353002, 0.04284914), (0.7352166, 0.230548), (0.7353837, 0.03015441), (0.8080781, 0.03020282), (0.8080177, 0.04289757), (0.8079574, 0.2305964), (0.8080177, 0.421025), (0.6878946, 0.230531), (0.7353002, 0.4209766), (0.7353837, 0.4336703), (0.8080781, 0.4337187), (0.6296502, 0.5095822), (0.6296508, 0.4939853), (0.5543639, 0.4945103), (0.5543637, 0.5100404), (0.6296571, 0.4658299), (0.5082214, 0.4983022), (0.5087183, 0.5129555), (0.5543641, 0.4660616), (0.6296607, 0.2626712), (0.4665396, 0.5090899), (0.4718232, 0.5188937), (0.4614439, 0.5169979), (0.4570371, 0.5095904), (0.4656434, 0.4733578), (0.4567079, 0.4736128), (0.4650166, 0.2626226), (0.4563803, 0.2626318), (0.4567116, 0.04891992), (0.5076449, 0.4679524), (0.5543659, 0.2626095), (0.465647, 0.04915954), (0.4570414, 0.01294212), (0.5072176, 0.2625995), (0.5076484, 0.0545165), (0.5543677, 0.05642666), (0.6296607, 0.05678166), (0.4665439, 0.01343099), (0.4614483, 0.00553355), (0.4718277, 0.00362529), (0.5087226, 0.00951552), (0.5082255, 0.02416781), (0.554368, 0.0124479), (0.5543679, 0.02797795), (0.6296548, 0.02862647), (0.6296545, 0.01302962)] (
                    interpolation = "faceVarying"
                )
                int[] primvars:st:indices = [2, 1, 0, 5, 4, 3, 8, 7, 6, 9, 8, 6, 8, 9, 10, 11, 8, 10, 11, 10, 12, 9, 6, 13, 13, 6, 14, 10, 15, 12, 15, 16, 12, 15, 17, 16, 10, 17, 15, 1, 16, 17, 18, 1, 17, 10, 18, 17, 1, 18, 0, 18, 10, 19, 19, 0, 18, 19, 10, 9, 19, 20, 0, 20, 21, 0, 22, 19, 9, 20, 19, 22, 23, 13, 14, 24, 23, 14, 25, 9, 13, 25, 22, 9, 23, 26, 13, 24, 26, 23, 26, 25, 13, 27, 26, 24, 28, 27, 24, 25, 26, 29, 29, 26, 27, 25, 29, 22, 30, 29, 27, 30, 31, 29, 22, 29, 32, 31, 32, 29, 33, 20, 22, 33, 22, 32, 34, 32, 31, 35, 34, 31, 36, 34, 35, 37, 36, 35, 36, 38, 34, 34, 38, 32, 38, 33, 32, 39, 33, 38, 39, 40, 33, 40, 20, 33, 41, 20, 40, 42, 41, 40, 41, 21, 20, 41, 42, 43, 41, 44, 21, 44, 41, 43, 47, 46, 45, 48, 45, 46, 49, 48, 46, 48, 49, 50, 49, 51, 50, 51, 49, 52, 46, 53, 49, 52, 49, 54, 53, 54, 49, 54, 55, 52, 54, 56, 55, 54, 53, 56, 53, 57, 56, 56, 57, 58, 59, 56, 58, 60, 59, 58, 61, 60, 58, 58, 57, 62, 58, 62, 61, 57, 63, 62, 62, 64, 61, 64, 62, 65, 66, 64, 65, 62, 67, 65, 70, 69, 68, 71, 70, 68, 71, 68, 72, 72, 73, 71, 70, 71, 74, 73, 74, 71, 75, 74, 73, 74, 75, 76, 77, 70, 74, 74, 76, 77, 73, 78, 75, 76, 79, 77, 78, 80, 75, 79, 76, 81, 80, 82, 75, 76, 83, 81, 84, 81, 83, 85, 84, 83, 83, 86, 85, 83, 87, 86, 83, 76, 87, 88, 86, 87, 88, 87, 89, 76, 90, 87, 75, 90, 76, 87, 91, 89, 87, 90, 91, 92, 89, 91, 93, 92, 91, 90, 75, 94, 90, 94, 91, 95, 93, 91, 95, 91, 94, 93, 95, 96, 97, 95, 94, 75, 98, 94, 97, 94, 98, 82, 98, 75, 99, 97, 98, 100, 98, 82, 99, 98, 100, 100, 82, 101, 100, 102, 99, 101, 103, 100, 102, 100, 104, 100, 103, 104, 107, 106, 105, 108, 107, 105, 108, 105, 109, 109, 110, 108, 110, 109, 111, 112, 110, 111, 112, 111, 113, 114, 112, 113, 114, 113, 115, 113, 116, 115, 115, 116, 117, 116, 118, 117, 118, 119, 117, 122, 121, 120, 123, 122, 120, 124, 123, 120, 125, 124, 120, 124, 125, 126, 125, 127, 126, 128, 126, 127, 127, 129, 128, 129, 130, 128, 130, 131, 128, 130, 132, 131, 135, 134, 133, 134, 136, 133, 133, 136, 137, 136, 138, 137, 137, 138, 139, 138, 140, 139, 139, 140, 141, 140, 142, 141, 145, 144, 143, 144, 146, 143, 143, 146, 147, 144, 148, 146, 146, 149, 147, 148, 150, 146, 146, 150, 149, 148, 151, 150, 150, 152, 149, 151, 153, 150, 150, 153, 152, 151, 154, 153, 153, 155, 152, 154, 156, 153, 153, 156, 155, 156, 157, 155, 160, 159, 158, 159, 161, 158, 158, 161, 162, 161, 163, 162, 162, 163, 164, 163, 165, 164, 164, 165, 166, 165, 167, 166, 170, 169, 168, 171, 170, 168, 171, 168, 172, 173, 170, 171, 174, 171, 172, 174, 172, 175, 176, 173, 171, 176, 171, 174, 177, 173, 176, 178, 174, 175, 178, 175, 179, 180, 178, 179, 181, 177, 176, 182, 177, 181, 183, 182, 181, 184, 176, 174, 184, 174, 178, 181, 176, 184, 185, 178, 180, 185, 184, 178, 186, 185, 180, 183, 181, 187, 187, 181, 184, 187, 184, 185, 188, 183, 187, 189, 185, 186, 189, 187, 185, 188, 187, 189, 190, 189, 186, 191, 188, 189, 191, 189, 190, 192, 191, 190, 195, 194, 193, 194, 196, 193, 193, 196, 197, 196, 198, 197, 197, 198, 199, 198, 200, 199, 199, 200, 201, 200, 202, 201, 205, 204, 203, 204, 206, 203, 204, 207, 206, 207, 208, 206, 207, 209, 208, 209, 210, 208, 209, 211, 210, 211, 212, 210, 215, 214, 213, 216, 215, 213, 216, 213, 217, 218, 216, 217, 218, 217, 219, 220, 218, 219, 220, 219, 221, 222, 220, 221, 225, 224, 223, 226, 224, 225, 227, 226, 225, 224, 226, 228, 229, 224, 228, 230, 229, 228, 231, 230, 228, 226, 227, 232, 226, 232, 228, 227, 233, 232, 228, 234, 231, 232, 234, 228, 234, 235, 231, 236, 235, 234, 237, 236, 234, 238, 236, 237, 232, 239, 234, 239, 237, 234, 232, 233, 240, 239, 232, 240, 241, 238, 237, 242, 238, 241, 243, 242, 241, 244, 243, 241, 241, 237, 245, 245, 244, 241, 237, 239, 245, 246, 244, 245, 247, 245, 239, 247, 246, 245, 240, 247, 239, 247, 248, 246, 248, 247, 240, 248, 249, 246, 250, 240, 233, 250, 248, 240, 250, 233, 251, 248, 250, 251, 254, 253, 252, 255, 254, 252, 252, 256, 255, 254, 255, 257, 258, 254, 257, 256, 259, 255, 255, 259, 257, 259, 260, 257, 261, 260, 259, 256, 262, 259, 263, 261, 259, 262, 263, 259, 264, 261, 263, 265, 263, 262, 265, 264, 263, 266, 264, 265, 267, 265, 262, 267, 266, 265, 268, 264, 266, 269, 268, 266, 266, 267, 270, 271, 269, 266, 272, 266, 270, 266, 272, 271, 272, 273, 271, 272, 270, 274, 272, 275, 273, 275, 272, 274, 275, 276, 273, 276, 275, 277, 278, 275, 274, 275, 278, 277, 279, 278, 274, 280, 278, 279, 277, 278, 281, 278, 280, 281, 282, 281, 280, 283, 282, 280, 284, 280, 279, 285, 283, 280, 280, 284, 286, 285, 280, 286, 286, 284, 287, 285, 286, 288, 288, 286, 287, 289, 285, 288, 288, 287, 290, 289, 288, 290, 291, 289, 290, 287, 292, 290, 291, 290, 293, 290, 292, 294, 290, 294, 293, 292, 295, 294, 294, 296, 293, 296, 294, 295, 296, 297, 293, 298, 296, 295, 301, 300, 299, 302, 301, 299, 299, 303, 302, 304, 301, 302, 303, 305, 302, 305, 303, 306, 307, 304, 302, 302, 305, 307, 308, 305, 306, 306, 309, 308, 309, 310, 308, 307, 311, 304, 311, 312, 304, 313, 311, 307, 305, 314, 307, 314, 313, 307, 314, 305, 308, 315, 313, 314, 308, 310, 316, 316, 314, 308, 316, 315, 314, 310, 317, 316, 318, 315, 316, 317, 318, 316, 321, 320, 319, 320, 322, 319, 322, 320, 323, 324, 322, 323, 324, 323, 325, 325, 326, 324, 326, 327, 324, 330, 329, 328, 331, 330, 328, 331, 332, 330, 333, 332, 331, 333, 334, 332, 335, 334, 333, 336, 335, 333, 337, 335, 336, 338, 335, 337, 339, 338, 337, 340, 335, 338, 341, 340, 338, 342, 340, 341, 343, 342, 341, 342, 343, 344, 345, 342, 344, 345, 344, 346, 347, 345, 346, 347, 346, 348, 346, 349, 348, 347, 348, 350, 347, 350, 351, 352, 347, 351, 352, 351, 353, 353, 351, 354, 353, 354, 355, 355, 354, 356, 357, 355, 356, 360, 359, 358, 360, 361, 359, 361, 362, 359, 361, 360, 363, 360, 364, 363, 364, 365, 363, 365, 366, 363, 362, 361, 367, 367, 361, 363, 368, 362, 367, 369, 363, 366, 369, 367, 363, 370, 369, 366, 370, 371, 369, 371, 372, 369, 371, 373, 372, 374, 367, 369, 372, 374, 369, 368, 367, 375, 367, 374, 375, 373, 376, 372, 373, 377, 376, 377, 378, 376, 378, 379, 376, 372, 376, 380, 379, 380, 376, 374, 372, 380, 379, 381, 380, 380, 382, 374, 381, 382, 380, 382, 375, 374, 383, 382, 381, 382, 383, 375, 384, 383, 381, 375, 385, 368, 383, 385, 375, 368, 385, 386, 385, 383, 386, 389, 388, 387, 388, 390, 387, 391, 387, 390, 388, 392, 390, 393, 391, 390, 391, 393, 394, 392, 395, 390, 393, 390, 395, 393, 396, 394, 397, 394, 396, 398, 397, 396, 399, 395, 392, 400, 399, 392, 399, 401, 395, 402, 393, 395, 401, 402, 395, 393, 402, 396, 401, 403, 402, 398, 396, 404, 402, 404, 396, 403, 404, 402, 405, 398, 404, 403, 406, 404, 406, 405, 404, 409, 408, 407, 410, 409, 407, 409, 410, 411, 410, 412, 411, 413, 411, 412, 412, 414, 413, 413, 415, 411, 418, 417, 416, 418, 416, 419, 420, 418, 419, 416, 417, 421, 422, 420, 419, 423, 416, 421, 419, 416, 423, 424, 422, 419, 425, 422, 424, 425, 424, 426, 424, 419, 427, 424, 427, 426, 423, 421, 428, 423, 428, 429, 421, 430, 428, 430, 431, 428, 431, 432, 428, 428, 432, 429, 432, 433, 429, 433, 434, 429, 435, 419, 423, 419, 435, 427, 435, 423, 429, 427, 435, 429, 426, 427, 436, 436, 427, 429, 434, 436, 429, 437, 426, 436, 434, 438, 436, 438, 437, 436, 441, 440, 439, 442, 441, 439, 443, 440, 441, 441, 442, 444, 442, 445, 444, 446, 443, 441, 441, 444, 446, 447, 443, 446, 444, 445, 448, 445, 449, 448, 448, 449, 450, 451, 448, 450, 448, 451, 452, 444, 448, 452, 451, 453, 452, 452, 453, 454, 453, 455, 454, 455, 456, 454, 457, 444, 452, 444, 457, 446, 457, 452, 454, 458, 447, 446, 446, 457, 458, 456, 459, 454, 456, 460, 459, 461, 457, 454, 457, 461, 458, 462, 461, 454, 461, 462, 458, 459, 462, 454, 447, 458, 463, 462, 463, 458, 464, 447, 463, 460, 465, 459, 465, 460, 466, 467, 465, 466, 467, 468, 465, 469, 462, 459, 465, 469, 459, 468, 469, 465, 462, 469, 463, 468, 470, 469, 464, 463, 471, 469, 471, 463, 470, 471, 469, 472, 464, 471, 471, 470, 473, 472, 471, 473]
                uniform token subdivisionScheme = "none"
                quatf xformOp:orient = (1, 0, 0, 0)
                float3 xformOp:scale = (1, 1, 1)
                double3 xformOp:translate = (0.00209, -0.53362, 0.00206)
                uniform token[] xformOpOrder = ["xformOp:translate", "xformOp:orient", "xformOp:scale"]
            }

            def Cube "Sofa_216_1_sofa_216_PrimitiveCollider_0" (
                apiSchemas = ["PhysicsCollisionAPI", "PhysicsMassAPI"]
            )
            {
                float3[] extent = [(-0.5, -0.5, -0.5), (0.5, 0.5, 0.5)]
                float physics:density = 34.407
                uniform token purpose = "guide"
                double size = 1
                quatf xformOp:orient = (6.123234e-17, 1, 0, 0)
                float3 xformOp:scale = (2.25, 0.527198, 0.960938)
                double3 xformOp:translate = (0.00209, -0.26761999999999997, 0.05906)
                uniform token[] xformOpOrder = ["xformOp:translate", "xformOp:orient", "xformOp:scale"]
            }

            def Cube "Sofa_216_1_sofa_216_PrimitiveCollider_1" (
                apiSchemas = ["PhysicsCollisionAPI", "PhysicsMassAPI"]
            )
            {
                float3[] extent = [(-0.5, -0.5, -0.5), (0.5, 0.5, 0.5)]
                float physics:density = 34.407
                uniform token purpose = "guide"
                double size = 1
                quatf xformOp:orient = (0.201002, 0.97959083, 0, 0)
                float3 xformOp:scale = (2.0039, 0.542594, 0.263476)
                double3 xformOp:translate = (-0.00283454, 0.22996300000000003, -0.26112399999999997)
                uniform token[] xformOpOrder = ["xformOp:translate", "xformOp:orient", "xformOp:scale"]
            }

            def Cube "Sofa_216_1_sofa_216_PrimitiveCollider_2" (
                apiSchemas = ["PhysicsCollisionAPI", "PhysicsMassAPI"]
            )
            {
                float3[] extent = [(-0.5, -0.5, -0.5), (0.5, 0.5, 0.5)]
                float physics:density = 34.407
                uniform token purpose = "guide"
                double size = 1
                quatf xformOp:orient = (0.139315, 0.99024814, 0, 0)
                float3 xformOp:scale = (2.27586, 0.381426, 0.1675286)
                double3 xformOp:translate = (0.0345743, 0.10302900000000004, -0.406398)
                uniform token[] xformOpOrder = ["xformOp:translate", "xformOp:orient", "xformOp:scale"]
            }

            def Cube "Sofa_216_1_sofa_216_PrimitiveCollider_3" (
                apiSchemas = ["PhysicsCollisionAPI", "PhysicsMassAPI"]
            )
            {
                float3[] extent = [(-0.5, -0.5, -0.5), (0.5, 0.5, 0.5)]
                float physics:density = 34.407
                uniform token purpose = "guide"
                double size = 1
                quatf xformOp:orient = (6.123234e-17, 0.98588055, -0.16744994, 0)
                float3 xformOp:scale = (0.207506, 0.433752, 0.960936)
                double3 xformOp:translate = (1.03593, 0.07130800000000004, 0.05906)
                uniform token[] xformOpOrder = ["xformOp:translate", "xformOp:orient", "xformOp:scale"]
            }

            def Cube "Sofa_216_1_sofa_216_PrimitiveCollider_4" (
                apiSchemas = ["PhysicsCollisionAPI", "PhysicsMassAPI"]
            )
            {
                float3[] extent = [(-0.5, -0.5, -0.5), (0.5, 0.5, 0.5)]
                float physics:density = 34.407
                uniform token purpose = "guide"
                double size = 1
                quatf xformOp:orient = (6.123234e-17, 0.9858809, 0.16744798, 0)
                float3 xformOp:scale = (0.205312, 0.433752, 0.960936)
                double3 xformOp:translate = (-1.0286000000000002, 0.07625800000000005, 0.05906)
                uniform token[] xformOpOrder = ["xformOp:translate", "xformOp:orient", "xformOp:scale"]
            }
        }
    }

    def Scope "Materials"
    {
        def Material "tn__material_Sofa_velvet001_AlbedoTransparencyVar2_hc1"
        {
            token outputs:displacement.connect = </Sofa_216_1/Materials/tn__material_Sofa_velvet001_AlbedoTransparencyVar2_hc1/PreviewSurface.outputs:displacement>
            token outputs:surface.connect = </Sofa_216_1/Materials/tn__material_Sofa_velvet001_AlbedoTransparencyVar2_hc1/PreviewSurface.outputs:surface>

            def Shader "PreviewSurface"
            {
                uniform token info:id = "UsdPreviewSurface"
                color3f inputs:diffuseColor.connect = </Sofa_216_1/Materials/tn__material_Sofa_velvet001_AlbedoTransparencyVar2_hc1/DiffuseTexture.outputs:rgb>
                float inputs:metallic = 0
                float inputs:opacity = 1
                float inputs:roughness = 0.5
                token outputs:displacement
                token outputs:surface
            }

            def Shader "DiffuseTexture"
            {
                uniform token info:id = "UsdUVTexture"
                float4 inputs:fallback = (0.419118, 0.322542, 0.200314, 1)
                asset inputs:file = @./Textures/Sofa_velvet.001_AlbedoTransparency.png@
                float4 inputs:scale = (0.419118, 0.322542, 0.200314, 1)
                token inputs:sourceColorSpace = "auto"
                float2 inputs:st.connect = </Sofa_216_1/Materials/tn__material_Sofa_velvet001_AlbedoTransparencyVar2_hc1/Primvar_st_float2.outputs:result>
                token inputs:wrapS = "repeat"
                token inputs:wrapT = "repeat"
                float3 outputs:rgb
            }

            def Shader "Primvar_st_float2"
            {
                uniform token info:id = "UsdPrimvarReader_float2"
                string inputs:varname = "st"
                float2 outputs:result
            }
        }
    }

    def Scope "Physics"
    {
    }
}

def PhysicsScene "PhysicsScene"
{
    vector3f physics:gravityDirection = (0, 0, -1)
    float physics:gravityMagnitude = 9.81
}

