# Blender 3.6.0
# www.blender.org
o Faucet_1000141d_Vent_b27695c4
v 2.161740 0.906100 -1.613400
v 2.162520 0.942170 -1.617310
v 2.162520 0.906100 -1.617310
v 2.161740 0.942170 -1.613400
v 2.159530 0.906100 -1.610090
v 2.162520 0.943120 -1.617310
v 2.159530 0.942170 -1.610090
v 2.156220 0.906100 -1.607870
v 2.161740 0.943120 -1.613400
v 2.161620 0.944230 -1.617310
v 2.156220 0.942170 -1.607870
v 2.152310 0.906100 -1.607100
v 2.159530 0.943120 -1.610090
v 2.160910 0.944230 -1.613750
v 2.160660 0.944230 -1.617310
v 2.160030 0.944230 -1.614110
v 2.158890 0.944230 -1.610720
v 2.158220 0.944230 -1.611400
v 2.152310 0.942170 -1.607100
v 2.148400 0.906100 -1.607870
v 2.156220 0.943120 -1.607870
v 2.155870 0.944230 -1.608710
v 2.155500 0.944230 -1.609590
v 2.148400 0.942170 -1.607870
v 2.145090 0.906100 -1.610090
v 2.152310 0.943120 -1.607100
v 2.152310 0.944230 -1.608000
v 2.152310 0.944230 -1.608950
v 2.145090 0.942170 -1.610090
v 2.142870 0.906100 -1.613400
v 2.148400 0.943120 -1.607870
v 2.148740 0.944230 -1.608710
v 2.149110 0.944230 -1.609590
v 2.145090 0.943120 -1.610090
v 2.145720 0.944230 -1.610720
v 2.146400 0.944230 -1.611400
v 2.142870 0.942170 -1.613400
v 2.142870 0.943120 -1.613400
v 2.143700 0.944230 -1.613750
v 2.144590 0.944230 -1.614110
v 2.143000 0.944230 -1.617310
v 2.143950 0.944230 -1.617310
v 2.142100 0.942170 -1.617310
v 2.142100 0.906100 -1.617310
v 2.142870 0.906100 -1.621220
v 2.142100 0.943120 -1.617310
v 2.142870 0.942170 -1.621220
v 2.145090 0.906100 -1.624530
v 2.143700 0.944230 -1.620870
v 2.144590 0.944230 -1.620510
v 2.142870 0.943120 -1.621220
v 2.145090 0.942170 -1.624530
v 2.148400 0.906100 -1.626740
v 2.145720 0.944230 -1.623890
v 2.146400 0.944230 -1.623220
v 2.145090 0.943120 -1.624530
v 2.148400 0.942170 -1.626740
v 2.152310 0.906100 -1.627520
v 2.148740 0.944230 -1.625910
v 2.149110 0.944230 -1.625030
v 2.148400 0.943120 -1.626740
v 2.152310 0.942170 -1.627520
v 2.156220 0.906100 -1.626740
v 2.152310 0.944230 -1.626620
v 2.152310 0.944230 -1.625660
v 2.152310 0.943120 -1.627520
v 2.156220 0.942170 -1.626740
v 2.159530 0.906100 -1.624530
v 2.155870 0.944230 -1.625910
v 2.155500 0.944230 -1.625030
v 2.156220 0.943120 -1.626740
v 2.159530 0.942170 -1.624530
v 2.161740 0.906100 -1.621220
v 2.158890 0.944230 -1.623890
v 2.158220 0.944230 -1.623220
v 2.159530 0.943120 -1.624530
v 2.161740 0.942170 -1.621220
v 2.162520 0.906100 -1.617310
v 2.162520 0.942170 -1.617310
v 2.161740 0.943120 -1.621220
v 2.162520 0.943120 -1.617310
v 2.160910 0.944230 -1.620870
v 2.160030 0.944230 -1.620510
v 2.161620 0.944230 -1.617310
v 2.160660 0.944230 -1.617310
v 2.160030 0.944230 -1.620510
v 2.160660 0.944230 -1.617310
v 2.160030 0.944230 -1.614110
v 2.158220 0.944230 -1.623220
v 2.158220 0.944230 -1.611400
v 2.155500 0.944230 -1.609590
v 2.155500 0.944230 -1.625030
v 2.152310 0.944230 -1.608950
v 2.152310 0.944230 -1.625660
v 2.149110 0.944230 -1.625030
v 2.149110 0.944230 -1.609590
v 2.146400 0.944230 -1.611400
v 2.146400 0.944230 -1.623220
v 2.144590 0.944230 -1.620510
v 2.144590 0.944230 -1.614110
v 2.143950 0.944230 -1.617310
vn 0.9807 -0.0000 0.1956
vn 0.9238 -0.0000 0.3828
vn 0.7078 -0.0000 0.7064
vn 0.9304 0.3161 0.1856
vn 0.3826 -0.0000 0.9239
vn 0.8746 0.3220 0.3626
vn 0.4701 0.8776 0.0938
vn -0.0000 -0.0000 1.0000
vn 0.6705 0.3213 0.6687
vn 0.4359 0.8818 0.1803
vn -0.0000 1.0000 -0.0000
vn 0.3342 0.8814 0.3339
vn -0.3826 -0.0000 0.9239
vn 0.3616 0.3236 0.8744
vn 0.1788 0.8830 0.4341
vn -0.0000 1.0000 0.0001
vn -0.7071 -0.0000 0.7071
vn 0.0003 0.3221 0.9467
vn 0.0005 0.8817 0.4718
vn -0.9239 -0.0000 0.3826
vn -0.3621 0.3228 0.8744
vn -0.1807 0.8823 0.4346
vn -0.6696 0.3200 0.6703
vn -0.3348 0.8804 0.3359
vn -0.8749 0.3215 0.3621
vn -0.4363 0.8817 0.1795
vn -0.4718 0.8817 -0.0000
vn -1.0000 -0.0000 -0.0000
vn -0.9239 -0.0000 -0.3826
vn -0.9469 0.3216 -0.0000
vn -0.7063 -0.0000 -0.7079
vn -0.4364 0.8815 -0.1803
vn -0.8747 0.3218 -0.3624
vn -0.7064 -0.0000 -0.7078
vn -0.3828 -0.0000 -0.9238
vn -0.3342 0.8813 -0.3340
vn -0.6689 0.3214 -0.6703
vn -0.0000 -0.0000 -1.0000
vn -0.1813 0.8812 -0.4366
vn -0.3625 0.3211 -0.8749
vn 0.3828 -0.0000 -0.9238
vn 0.0001 0.8815 -0.4721
vn 0.0001 0.3216 -0.9469
vn 0.7071 -0.0000 -0.7071
vn 0.1804 0.8817 -0.4359
vn -0.0000 1.0000 -0.0001
vn 0.3626 0.3219 -0.8746
vn 0.9238 -0.0000 -0.3828
vn 0.3330 0.8823 -0.3327
vn 0.6693 0.3228 -0.6692
vn 0.9807 -0.0000 -0.1956
vn 0.8745 0.3220 -0.3626
vn 0.9304 0.3161 -0.1856
vn 0.4359 0.8817 -0.1805
vn 0.4700 0.8777 -0.0937
vt 0.749947 0.231092
vt 0.733955 0.514043
vt 0.718777 0.229397
vt 0.703385 0.506672
vt 0.687663 0.227843
vt 0.731975 0.521780
vt 0.674398 0.502249
vt 0.656575 0.226474
vt 0.701970 0.513758
vt 0.727160 0.532806
vt 0.645654 0.499548
vt 0.625489 0.225314
vt 0.673569 0.509169
vt 0.699698 0.524279
vt 0.723376 0.539675
vt 0.697919 0.531600
vt 0.672262 0.519827
vt 0.671230 0.527408
vt 0.616867 0.497854
vt 0.594387 0.224374
vt 0.645161 0.506471
vt 0.644375 0.517258
vt 0.643717 0.525007
vt 0.587971 0.496790
vt 0.563264 0.223662
vt 0.616575 0.504811
vt 0.616093 0.515711
vt 0.615646 0.523581
vt 0.558957 0.496153
vt 0.532115 0.223190
vt 0.587805 0.503785
vt 0.587513 0.514775
vt 0.587197 0.522729
vt 0.558869 0.503171
vt 0.558712 0.514238
vt 0.558488 0.522252
vt 0.529856 0.495813
vt 0.529835 0.502719
vt 0.529781 0.514026
vt 0.529601 0.522054
vt 0.500855 0.513870
vt 0.500741 0.521894
vt 0.500790 0.495874
vt 0.500917 0.222846
vt 0.469699 0.222845
vt 0.500831 0.503028
vt 0.471758 0.496058
vt 0.438457 0.223075
vt 0.472005 0.514129
vt 0.471989 0.522144
vt 0.471868 0.503089
vt 0.442649 0.496551
vt 0.407187 0.223534
vt 0.443108 0.514674
vt 0.443180 0.522705
vt 0.442846 0.503595
vt 0.413449 0.497390
vt 0.375885 0.224218
vt 0.414151 0.515552
vt 0.414326 0.523591
vt 0.413741 0.504453
vt 0.384140 0.498652
vt 0.344546 0.225116
vt 0.385171 0.516848
vt 0.385490 0.524879
vt 0.384559 0.505739
vt 0.354660 0.500515
vt 0.313155 0.226204
vt 0.356207 0.518759
vt 0.356756 0.526763
vt 0.355275 0.507643
vt 0.324850 0.503350
vt 0.281681 0.227447
vt 0.327284 0.521693
vt 0.328243 0.529649
vt 0.325795 0.510560
vt 0.294374 0.507888
vt 0.250053 0.228776
vt 0.262089 0.515091
vt 0.295845 0.515216
vt 0.263853 0.523079
vt 0.298342 0.526440
vt 0.300120 0.534361
vt 0.268522 0.535220
vt 0.272535 0.542851
vt 0.375421 0.593172
vt 0.375421 0.618109
vt 0.365878 0.641148
vt 0.348244 0.658782
vt 0.365878 0.570133
vt 0.348244 0.552500
vt 0.325205 0.668325
vt 0.325205 0.542956
vt 0.300268 0.668325
vt 0.277229 0.658782
vt 0.300268 0.542956
vt 0.277229 0.552499
vt 0.259596 0.641148
vt 0.250053 0.618109
vt 0.259596 0.570133
vt 0.250053 0.593172
s 1
f 3/1/1 2/2/1 1/3/2
f 2/2/1 4/4/2 1/3/2
f 1/3/2 4/4/2 5/5/3
f 2/2/1 6/6/4 4/4/2
f 4/4/2 7/7/3 5/5/3
f 5/5/3 7/7/3 8/8/5
f 6/6/4 9/9/6 4/4/2
f 4/4/2 9/9/6 7/7/3
f 6/6/4 10/10/7 9/9/6
f 7/7/3 11/11/5 8/8/5
f 8/8/5 11/11/5 12/12/8
f 9/9/6 13/13/9 7/7/3
f 7/7/3 13/13/9 11/11/5
f 10/10/7 14/14/10 9/9/6
f 9/9/6 14/14/10 13/13/9
f 10/10/7 15/15/11 14/14/10
f 15/15/11 16/16/11 14/14/10
f 14/14/10 16/16/11 17/17/12
f 14/14/10 17/17/12 13/13/9
f 16/16/11 18/18/11 17/17/12
f 11/11/5 19/19/8 12/12/8
f 12/12/8 19/19/8 20/20/13
f 13/13/9 21/21/14 11/11/5
f 13/13/9 17/17/12 21/21/14
f 11/11/5 21/21/14 19/19/8
f 17/17/12 18/18/11 22/22/15
f 17/17/12 22/22/15 21/21/14
f 18/18/11 23/23/16 22/22/15
f 19/19/8 24/24/13 20/20/13
f 20/20/13 24/24/13 25/25/17
f 21/21/14 26/26/18 19/19/8
f 21/21/14 22/22/15 26/26/18
f 19/19/8 26/26/18 24/24/13
f 22/22/15 23/23/16 27/27/19
f 22/22/15 27/27/19 26/26/18
f 23/23/16 28/28/11 27/27/19
f 24/24/13 29/29/17 25/25/17
f 25/25/17 29/29/17 30/30/20
f 26/26/18 31/31/21 24/24/13
f 26/26/18 27/27/19 31/31/21
f 24/24/13 31/31/21 29/29/17
f 27/27/19 28/28/11 32/32/22
f 27/27/19 32/32/22 31/31/21
f 28/28/11 33/33/11 32/32/22
f 31/31/21 34/34/23 29/29/17
f 31/31/21 32/32/22 34/34/23
f 32/32/22 33/33/11 35/35/24
f 32/32/22 35/35/24 34/34/23
f 33/33/11 36/36/11 35/35/24
f 29/29/17 37/37/20 30/30/20
f 29/29/17 34/34/23 37/37/20
f 34/34/23 35/35/24 38/38/25
f 34/34/23 38/38/25 37/37/20
f 35/35/24 36/36/11 39/39/26
f 35/35/24 39/39/26 38/38/25
f 36/36/11 40/40/11 39/39/26
f 39/39/26 40/40/11 41/41/27
f 39/39/26 41/41/27 38/38/25
f 40/40/11 42/42/11 41/41/27
f 37/37/20 43/43/28 30/30/20
f 43/43/28 44/44/28 30/30/20
f 44/44/28 43/43/28 45/45/29
f 38/38/25 46/46/30 37/37/20
f 46/46/30 43/43/28 37/37/20
f 41/41/27 46/46/30 38/38/25
f 43/43/28 47/47/29 45/45/29
f 43/43/28 46/46/30 47/47/29
f 45/45/29 47/47/29 48/48/31
f 41/41/27 42/42/11 49/49/32
f 42/42/11 50/50/11 49/49/32
f 46/46/30 41/41/27 51/51/33
f 46/46/30 51/51/33 47/47/29
f 41/41/27 49/49/32 51/51/33
f 47/47/29 52/52/34 48/48/31
f 47/47/29 51/51/33 52/52/34
f 48/48/31 52/52/34 53/53/35
f 49/49/32 50/50/11 54/54/36
f 50/50/11 55/55/11 54/54/36
f 51/51/33 49/49/32 56/56/37
f 51/51/33 56/56/37 52/52/34
f 49/49/32 54/54/36 56/56/37
f 52/52/34 57/57/35 53/53/35
f 52/52/34 56/56/37 57/57/35
f 53/53/35 57/57/35 58/58/38
f 54/54/36 55/55/11 59/59/39
f 55/55/11 60/60/11 59/59/39
f 56/56/37 54/54/36 61/61/40
f 56/56/37 61/61/40 57/57/35
f 54/54/36 59/59/39 61/61/40
f 57/57/35 62/62/38 58/58/38
f 57/57/35 61/61/40 62/62/38
f 58/58/38 62/62/38 63/63/41
f 59/59/39 60/60/11 64/64/42
f 60/60/11 65/65/11 64/64/42
f 61/61/40 59/59/39 66/66/43
f 61/61/40 66/66/43 62/62/38
f 59/59/39 64/64/42 66/66/43
f 62/62/38 67/67/41 63/63/41
f 62/62/38 66/66/43 67/67/41
f 63/63/41 67/67/41 68/68/44
f 64/64/42 65/65/11 69/69/45
f 65/65/11 70/70/46 69/69/45
f 66/66/43 64/64/42 71/71/47
f 66/66/43 71/71/47 67/67/41
f 64/64/42 69/69/45 71/71/47
f 67/67/41 72/72/44 68/68/44
f 67/67/41 71/71/47 72/72/44
f 68/68/44 72/72/44 73/73/48
f 69/69/45 70/70/46 74/74/49
f 70/70/46 75/75/11 74/74/49
f 71/71/47 69/69/45 76/76/50
f 71/71/47 76/76/50 72/72/44
f 69/69/45 74/74/49 76/76/50
f 72/72/44 77/77/48 73/73/48
f 72/72/44 76/76/50 77/77/48
f 73/73/48 77/77/48 78/78/51
f 77/77/48 79/79/51 78/78/51
f 76/76/50 80/80/52 77/77/48
f 77/77/48 80/80/52 79/79/51
f 76/76/50 74/74/49 80/80/52
f 80/80/52 81/81/53 79/79/51
f 74/74/49 75/75/11 82/82/54
f 74/74/49 82/82/54 80/80/52
f 80/80/52 82/82/54 81/81/53
f 75/75/11 83/83/11 82/82/54
f 82/82/54 84/84/55 81/81/53
f 82/82/54 83/83/11 84/84/55
f 83/83/11 85/85/11 84/84/55
f 88/86/11 87/87/11 86/88/11
f 86/88/11 89/89/11 88/86/11
f 89/89/11 90/90/11 88/86/11
f 89/89/11 91/91/11 90/90/11
f 89/89/11 92/92/11 91/91/11
f 92/92/11 93/93/11 91/91/11
f 92/92/11 94/94/11 93/93/11
f 94/94/11 95/95/11 93/93/11
f 95/95/11 96/96/11 93/93/11
f 95/95/11 97/97/11 96/96/11
f 95/95/11 98/98/11 97/97/11
f 98/98/11 99/99/11 97/97/11
f 99/99/11 100/100/11 97/97/11
f 99/99/11 101/101/11 100/100/11
