mtllib material.mtl
usemtl material_0
v 1.28501000 2.50000000 -2.00000000
v 1.28220000 2.50360000 -1.99720000
v 1.28220000 2.50360000 -1.10280000
v 1.28501000 2.50000000 -1.10000000
v 1.28501000 2.60000000 -1.10000000
v 1.28220000 2.59640000 -1.10279000
v 1.28220000 2.59640000 -1.99720000
v 1.28501000 2.60000000 -2.00000000
v -0.21499000 2.50000000 -1.10000000
v -0.21220000 2.50360000 -1.10280000
v -0.21220000 2.50360000 -1.99720000
v -0.21499000 2.50000000 -2.00000000
v -0.21499000 2.60000000 -2.00000000
v -0.21220000 2.59640000 -1.99720000
v -0.21220000 2.59640000 -1.10279000
v -0.21499000 2.60000000 -1.10000000
v -0.21499000 2.50000000 -2.89999000
v -2.43000000 2.60000000 -2.90000000
v -2.43000000 2.50000000 -2.90000000
v -0.21499000 2.60000000 -2.89999000
v 1.28500000 2.60000000 -2.89999000
v 1.28500000 2.50000000 -2.89999000
v 2.40001000 2.50000000 -2.90000000
v 2.40001000 2.60000000 -2.90000000
v -0.21499000 2.50000000 2.50000000
v -2.43000000 2.50000000 2.50000000
v -2.43000000 2.60000000 2.50000000
v -0.21499000 2.60000000 2.50000000
v 1.28500000 2.60000000 2.50000000
v 1.28500000 2.50000000 2.50000000
v 2.40001000 2.50000000 2.50000000
v 2.40001000 2.60000000 2.50000000
v 2.40001000 2.50000000 -1.10000000
v 2.40001000 2.50000000 2.50000000
v 2.40001000 2.60000000 2.50000000
v 2.40001000 2.60000000 -1.10000000
v 2.40001000 2.60000000 -2.00000000
v 2.40001000 2.50000000 -2.00000000
v 2.40001000 2.50000000 -2.90000000
v 2.40001000 2.60000000 -2.90000000
v -2.43000000 2.50000000 -1.10000000
v -2.43000000 2.60000000 2.50000000
v -2.43000000 2.50000000 2.50000000
v -2.43000000 2.60000000 -1.10000000
v -2.43000000 2.60000000 -2.00000000
v -2.43000000 2.50000000 -2.00000000
v -2.43000000 2.50000000 -2.90000000
v -2.43000000 2.60000000 -2.90000000
v -2.43000000 2.50000000 -1.10000000
v -2.43000000 2.50000000 2.50000000
v -0.21499000 2.50000000 2.50000000
v -0.21499000 2.50000000 -1.10000000
v 1.28500000 2.50000000 2.50000000
v -0.21499000 2.50000000 -2.00000000
v -2.43000000 2.50000000 -2.00000000
v -2.43000000 2.50000000 -2.90000000
v -0.21499000 2.50000000 -2.89999000
v 1.28501000 2.50000000 -2.00000000
v 1.28500000 2.50000000 -2.89999000
v 2.40001000 2.50000000 -2.90000000
v 2.40001000 2.50000000 -2.00000000
v 2.40001000 2.50000000 -1.10000000
v 1.28501000 2.50000000 -1.10000000
v 2.40001000 2.50000000 2.50000000
v -2.43000000 2.60000000 -1.10000000
v -0.21499000 2.60000000 2.50000000
v -2.43000000 2.60000000 2.50000000
v -0.21499000 2.60000000 -1.10000000
v 1.28500000 2.60000000 2.50000000
v -0.21499000 2.60000000 -2.00000000
v -2.43000000 2.60000000 -2.00000000
v -2.43000000 2.60000000 -2.90000000
v -0.21499000 2.60000000 -2.89999000
v 1.28501000 2.60000000 -2.00000000
v 1.28500000 2.60000000 -2.89999000
v 2.40001000 2.60000000 -2.90000000
v 2.40001000 2.60000000 -2.00000000
v 2.40001000 2.60000000 -1.10000000
v 1.28501000 2.60000000 -1.10000000
v 2.40001000 2.60000000 2.50000000
v -0.21220000 2.50360000 -1.99720000
v -0.21220000 2.59640000 -1.99720000
v 1.28220000 2.59640000 -1.99720000
v 1.28220000 2.50360000 -1.99720000
v 1.28220000 2.50360000 -1.99720000
v 1.28220000 2.59640000 -1.99720000
v 1.28220000 2.59640000 -1.10279000
v 1.28220000 2.50360000 -1.10280000
v 1.28220000 2.50360000 -1.10280000
v 1.28220000 2.59640000 -1.10279000
v -0.21220000 2.59640000 -1.10279000
v -0.21220000 2.50360000 -1.10280000
v 1.28501000 2.50000000 -1.10000000
v 1.28220000 2.50360000 -1.10280000
v -0.21220000 2.50360000 -1.10280000
v -0.21499000 2.50000000 -1.10000000
v -0.21499000 2.60000000 -1.10000000
v -0.21220000 2.59640000 -1.10279000
v 1.28220000 2.59640000 -1.10279000
v 1.28501000 2.60000000 -1.10000000
v -0.21220000 2.50360000 -1.10280000
v -0.21220000 2.59640000 -1.10279000
v -0.21220000 2.59640000 -1.99720000
v -0.21220000 2.50360000 -1.99720000
v -0.21499000 2.50000000 -2.00000000
v -0.21220000 2.50360000 -1.99720000
v 1.28220000 2.50360000 -1.99720000
v 1.28501000 2.50000000 -2.00000000
v 1.28501000 2.60000000 -2.00000000
v 1.28220000 2.59640000 -1.99720000
v -0.21220000 2.59640000 -1.99720000
v -0.21499000 2.60000000 -2.00000000
vn -0.45571810 -0.35447760 0.00000000
vn -0.45571800 -0.35447760 0.00000000
vn -0.45571810 -0.35447760 0.00000000
vn -0.45574550 -0.35444230 0.00000000
vn -0.45571790 0.35447780 0.00000000
vn -0.45571790 0.35447780 0.00000000
vn -0.45571800 0.35447770 0.00000000
vn -0.45574550 0.35444230 0.00000000
vn 0.45574100 -0.35444810 0.00000000
vn 0.45574100 -0.35444810 0.00000000
vn 0.45574100 -0.35444810 0.00000000
vn 0.45574060 -0.35444870 0.00000000
vn 0.45574110 0.35444800 0.00000000
vn 0.45574100 0.35444800 0.00000000
vn 0.45574100 0.35444800 0.00000000
vn 0.45574060 0.35444860 0.00000000
vn 0.00000000 0.00000000 -0.57735030
vn 0.00000000 0.00000000 -0.57735030
vn 0.00000025 0.00000000 -0.57735030
vn 0.00000000 0.00000000 -0.57735030
vn 0.00000000 0.00000000 -0.57735030
vn 0.00000000 0.00000000 -0.57735030
vn 0.00000000 0.00000000 -0.57735030
vn -0.00000051 0.00000000 -0.57735030
vn 0.00000000 0.00000000 0.57735030
vn 0.00000000 0.00000000 0.57735030
vn 0.00000000 0.00000000 0.57735030
vn 0.00000000 0.00000000 0.57735030
vn 0.00000000 0.00000000 0.57735030
vn 0.00000000 0.00000000 0.57735030
vn 0.00000000 0.00000000 0.57735030
vn 0.00000000 0.00000000 0.57735030
vn 0.57735030 0.00000000 0.00000000
vn 0.57735030 0.00000000 0.00000000
vn 0.57735030 0.00000000 0.00000000
vn 0.57735030 0.00000000 0.00000000
vn 0.57735030 0.00000000 0.00000000
vn 0.57735030 0.00000000 0.00000000
vn 0.57735030 0.00000000 0.00000000
vn 0.57735030 0.00000000 0.00000000
vn -0.57735030 0.00000000 0.00000000
vn -0.57735030 0.00000000 0.00000000
vn -0.57735030 0.00000000 0.00000000
vn -0.57735030 0.00000000 0.00000000
vn -0.57735030 0.00000000 0.00000000
vn -0.57735030 0.00000000 0.00000000
vn -0.57735030 0.00000000 0.00000000
vn -0.57735030 0.00000000 0.00000000
vn 0.00000000 -0.57735030 0.00000000
vn 0.00000000 -0.57735030 0.00000000
vn 0.00000000 -0.57735030 0.00000000
vn 0.00000000 -0.57735030 0.00000000
vn 0.00000000 -0.57735030 0.00000000
vn 0.00000000 -0.57735030 0.00000000
vn 0.00000000 -0.57735030 0.00000000
vn 0.00000000 -0.57735030 0.00000000
vn 0.00000000 -0.57735030 0.00000000
vn 0.00000000 -0.57735030 0.00000000
vn 0.00000000 -0.57735030 0.00000000
vn 0.00000000 -0.57735030 0.00000000
vn 0.00000000 -0.57735030 0.00000000
vn 0.00000000 -0.57735030 0.00000000
vn 0.00000000 -0.57735030 0.00000000
vn 0.00000000 -0.57735030 0.00000000
vn 0.00000000 0.57735030 0.00000000
vn 0.00000000 0.57735030 0.00000000
vn 0.00000000 0.57735030 0.00000000
vn 0.00000000 0.57735030 0.00000000
vn 0.00000000 0.57735030 0.00000000
vn 0.00000000 0.57735030 0.00000000
vn 0.00000000 0.57735030 0.00000000
vn 0.00000000 0.57735030 0.00000000
vn 0.00000000 0.57735030 0.00000000
vn 0.00000000 0.57735030 0.00000000
vn 0.00000000 0.57735030 0.00000000
vn 0.00000000 0.57735030 0.00000000
vn 0.00000000 0.57735030 0.00000000
vn 0.00000000 0.57735030 0.00000000
vn 0.00000000 0.57735030 0.00000000
vn 0.00000000 0.57735030 0.00000000
vn 0.00000000 0.00000000 0.57735030
vn 0.00000000 0.00000000 0.57735030
vn 0.00000000 0.00000000 0.57735030
vn 0.00000000 0.00000000 0.57735030
vn -0.57735030 0.00000000 0.00000000
vn -0.57735030 0.00000000 0.00000000
vn -0.57735030 0.00000000 0.00000000
vn -0.57735030 0.00000000 0.00000000
vn 0.00000000 0.00000190 -0.57735030
vn 0.00000000 0.00000190 -0.57735030
vn 0.00000000 0.00000190 -0.57735030
vn 0.00000000 0.00000190 -0.57735030
vn 0.00000000 -0.35443840 -0.45574860
vn 0.00000000 -0.35443840 -0.45574860
vn 0.00000000 -0.35443840 -0.45574860
vn 0.00000000 -0.35445780 -0.45573340
vn 0.00000000 0.35443420 -0.45575190
vn 0.00000000 0.35443410 -0.45575190
vn 0.00000000 0.35443410 -0.45575190
vn 0.00000000 0.35443380 -0.45575210
vn 0.57735030 0.00000000 0.00000000
vn 0.57735030 0.00000000 0.00000000
vn 0.57735030 0.00000000 0.00000000
vn 0.57735030 0.00000000 0.00000000
vn 0.00000000 -0.35443770 0.45574910
vn 0.00000000 -0.35443770 0.45574910
vn 0.00000000 -0.35443770 0.45574910
vn 0.00000000 -0.35445790 0.45573340
vn 0.00000000 0.35445870 0.45573280
vn 0.00000000 0.35445870 0.45573280
vn 0.00000000 0.35445870 0.45573280
vn 0.00000000 0.35445780 0.45573340
vt 44.48310000 6.79603400
vt 44.47444000 6.80470700
vt 44.47444000 7.27154100
vt 44.48310000 7.28021300
vt 5.51691100 16.37022000
vt 5.52555200 16.36158000
vt 5.52555200 15.89649000
vt 5.51691100 15.88785000
vt 37.76655000 7.27972900
vt 37.77518000 7.27107400
vt 37.77518000 6.80517400
vt 37.76655000 6.79651800
vt 12.23346000 15.88764000
vt 12.22481000 15.89629000
vt 12.22481000 16.36178000
vt 12.23346000 16.37043000
vt 34.16003000 29.40080000
vt 34.92551000 29.69012000
vt 34.92551000 29.40080000
vt 34.16003000 29.69012000
vt 33.64165000 29.69012000
vt 33.64165000 29.40080000
vt 33.25632000 29.40080000
vt 33.25632000 29.69012000
vt 34.02179000 33.94622000
vt 33.25621000 33.94622000
vt 33.25621000 34.23560000
vt 34.02179000 34.23560000
vt 34.54023000 34.23560000
vt 34.54023000 33.94622000
vt 34.92562000 33.94622000
vt 34.92562000 34.23560000
vt 13.95965000 6.67898800
vt 12.66650000 6.67898800
vt 12.66650000 6.95737500
vt 13.95965000 6.95737500
vt 14.28294000 6.95737500
vt 14.28294000 6.67898800
vt 14.60624000 6.67898800
vt 14.60624000 6.95737500
vt 13.31308000 2.13353300
vt 14.60624000 2.41192200
vt 14.60624000 2.13353300
vt 13.31308000 2.41192200
vt 12.98979000 2.41192200
vt 12.98979000 2.13353300
vt 12.66649000 2.13353300
vt 12.66649000 2.41192200
vt 36.31281000 12.70095000
vt 36.31281000 16.44263000
vt 38.44393000 16.44263000
vt 38.44393000 12.70095000
vt 39.88714000 16.44263000
vt 38.44393000 11.76553000
vt 36.31281000 11.76553000
vt 36.31281000 10.83011000
vt 38.44393000 10.83011000
vt 39.88714000 11.76553000
vt 39.88714000 10.83011000
vt 40.95992000 10.83011000
vt 40.95992000 11.76553000
vt 40.95992000 12.70095000
vt 39.88714000 12.70095000
vt 40.95992000 16.44263000
vt 13.68719000 21.79185000
vt 11.55606000 25.53353000
vt 13.68719000 25.53353000
vt 11.55606000 21.79185000
vt 10.11286000 25.53353000
vt 11.55606000 20.85643000
vt 13.68719000 20.85643000
vt 13.68719000 19.92101000
vt 11.55606000 19.92101000
vt 10.11286000 20.85643000
vt 10.11286000 19.92101000
vt 9.04007900 19.92101000
vt 9.04007900 20.85643000
vt 9.04007900 21.79185000
vt 10.11286000 21.79185000
vt 9.04007900 25.53353000
vt 24.34895000 12.85926000
vt 24.34895000 12.95206000
vt 25.84331000 12.95206000
vt 25.84331000 12.85926000
vt 24.84892000 12.92790000
vt 24.84892000 13.02070000
vt 25.74323000 13.02070000
vt 25.74323000 12.92790000
vt 25.84330000 12.88323000
vt 25.84330000 12.79043000
vt 24.34896000 12.79043000
vt 24.34896000 12.88323000
vt 41.51143000 9.20263000
vt 41.50244000 9.19365600
vt 40.74719000 9.19365600
vt 40.73821000 9.20263000
vt 9.26082500 18.29353000
vt 9.25187200 18.28458000
vt 8.49849400 18.28458000
vt 8.48954100 18.29353000
vt 24.84892000 12.99654000
vt 24.84892000 13.08934000
vt 25.74323000 13.08934000
vt 25.74323000 12.99654000
vt 40.73929000 4.87363000
vt 40.74825000 4.88258100
vt 41.50138000 4.88258100
vt 41.51034000 4.87363000
vt 8.48970400 13.96454000
vt 8.49865300 13.97349000
vt 9.25171300 13.97349000
vt 9.26066200 13.96454000
f 3/3/3 2/2/2 1/1/1
f 4/4/4 3/3/3 1/1/1
f 7/7/7 6/6/6 5/5/5
f 8/8/8 7/7/7 5/5/5
f 11/11/11 10/10/10 9/9/9
f 12/12/12 11/11/11 9/9/9
f 15/15/15 14/14/14 13/13/13
f 16/16/16 15/15/15 13/13/13
f 19/19/19 18/18/18 17/17/17
f 18/18/18 20/20/20 17/17/17
f 17/17/17 20/20/20 21/21/21
f 22/22/22 17/17/17 21/21/21
f 23/23/23 22/22/22 21/21/21
f 24/24/24 23/23/23 21/21/21
f 27/27/27 26/26/26 25/25/25
f 28/28/28 27/27/27 25/25/25
f 28/28/28 25/25/25 29/29/29
f 25/25/25 30/30/30 29/29/29
f 30/30/30 31/31/31 29/29/29
f 31/31/31 32/32/32 29/29/29
f 35/35/35 34/34/34 33/33/33
f 36/36/36 35/35/35 33/33/33
f 36/36/36 33/33/33 37/37/37
f 33/33/33 38/38/38 37/37/37
f 38/38/38 39/39/39 37/37/37
f 39/39/39 40/40/40 37/37/37
f 43/43/43 42/42/42 41/41/41
f 42/42/42 44/44/44 41/41/41
f 41/41/41 44/44/44 45/45/45
f 46/46/46 41/41/41 45/45/45
f 47/47/47 46/46/46 45/45/45
f 48/48/48 47/47/47 45/45/45
f 51/51/51 50/50/50 49/49/49
f 52/52/52 51/51/51 49/49/49
f 53/53/53 51/51/51 52/52/52
f 52/52/52 49/49/49 54/54/54
f 49/49/49 55/55/55 54/54/54
f 55/55/55 56/56/56 54/54/54
f 56/56/56 57/57/57 54/54/54
f 54/54/54 57/57/57 58/58/58
f 57/57/57 59/59/59 58/58/58
f 59/59/59 60/60/60 58/58/58
f 60/60/60 61/61/61 58/58/58
f 61/61/61 62/62/62 58/58/58
f 63/63/63 53/53/53 52/52/52
f 62/62/62 63/63/63 58/58/58
f 53/53/53 63/63/63 62/62/62
f 64/64/64 53/53/53 62/62/62
f 67/67/67 66/66/66 65/65/65
f 66/66/66 68/68/68 65/65/65
f 66/66/66 69/69/69 68/68/68
f 65/65/65 68/68/68 70/70/70
f 71/71/71 65/65/65 70/70/70
f 72/72/72 71/71/71 70/70/70
f 73/73/73 72/72/72 70/70/70
f 73/73/73 70/70/70 74/74/74
f 75/75/75 73/73/73 74/74/74
f 76/76/76 75/75/75 74/74/74
f 77/77/77 76/76/76 74/74/74
f 78/78/78 77/77/77 74/74/74
f 69/69/69 79/79/79 68/68/68
f 79/79/79 78/78/78 74/74/74
f 79/79/79 69/69/69 78/78/78
f 69/69/69 80/80/80 78/78/78
f 83/83/83 82/82/82 81/81/81
f 84/84/84 83/83/83 81/81/81
f 87/87/87 86/86/86 85/85/85
f 88/88/88 87/87/87 85/85/85
f 91/91/91 90/90/90 89/89/89
f 92/92/92 91/91/91 89/89/89
f 95/95/95 94/94/94 93/93/93
f 96/96/96 95/95/95 93/93/93
f 99/99/99 98/98/98 97/97/97
f 100/100/100 99/99/99 97/97/97
f 103/103/103 102/102/102 101/101/101
f 104/104/104 103/103/103 101/101/101
f 107/107/107 106/106/106 105/105/105
f 108/108/108 107/107/107 105/105/105
f 111/111/111 110/110/110 109/109/109
f 112/112/112 111/111/111 109/109/109
f 3/3/3 2/2/2 1/1/1
f 4/4/4 3/3/3 1/1/1
f 7/7/7 6/6/6 5/5/5
f 8/8/8 7/7/7 5/5/5
f 11/11/11 10/10/10 9/9/9
f 12/12/12 11/11/11 9/9/9
f 15/15/15 14/14/14 13/13/13
f 16/16/16 15/15/15 13/13/13
f 19/19/19 18/18/18 17/17/17
f 18/18/18 20/20/20 17/17/17
f 17/17/17 20/20/20 21/21/21
f 22/22/22 17/17/17 21/21/21
f 23/23/23 22/22/22 21/21/21
f 24/24/24 23/23/23 21/21/21
f 27/27/27 26/26/26 25/25/25
f 28/28/28 27/27/27 25/25/25
f 28/28/28 25/25/25 29/29/29
f 25/25/25 30/30/30 29/29/29
f 30/30/30 31/31/31 29/29/29
f 31/31/31 32/32/32 29/29/29
f 35/35/35 34/34/34 33/33/33
f 36/36/36 35/35/35 33/33/33
f 36/36/36 33/33/33 37/37/37
f 33/33/33 38/38/38 37/37/37
f 38/38/38 39/39/39 37/37/37
f 39/39/39 40/40/40 37/37/37
f 43/43/43 42/42/42 41/41/41
f 42/42/42 44/44/44 41/41/41
f 41/41/41 44/44/44 45/45/45
f 46/46/46 41/41/41 45/45/45
f 47/47/47 46/46/46 45/45/45
f 48/48/48 47/47/47 45/45/45
f 51/51/51 50/50/50 49/49/49
f 52/52/52 51/51/51 49/49/49
f 53/53/53 51/51/51 52/52/52
f 52/52/52 49/49/49 54/54/54
f 49/49/49 55/55/55 54/54/54
f 55/55/55 56/56/56 54/54/54
f 56/56/56 57/57/57 54/54/54
f 54/54/54 57/57/57 58/58/58
f 57/57/57 59/59/59 58/58/58
f 59/59/59 60/60/60 58/58/58
f 60/60/60 61/61/61 58/58/58
f 61/61/61 62/62/62 58/58/58
f 63/63/63 53/53/53 52/52/52
f 62/62/62 63/63/63 58/58/58
f 53/53/53 63/63/63 62/62/62
f 64/64/64 53/53/53 62/62/62
f 67/67/67 66/66/66 65/65/65
f 66/66/66 68/68/68 65/65/65
f 66/66/66 69/69/69 68/68/68
f 65/65/65 68/68/68 70/70/70
f 71/71/71 65/65/65 70/70/70
f 72/72/72 71/71/71 70/70/70
f 73/73/73 72/72/72 70/70/70
f 73/73/73 70/70/70 74/74/74
f 75/75/75 73/73/73 74/74/74
f 76/76/76 75/75/75 74/74/74
f 77/77/77 76/76/76 74/74/74
f 78/78/78 77/77/77 74/74/74
f 69/69/69 79/79/79 68/68/68
f 79/79/79 78/78/78 74/74/74
f 79/79/79 69/69/69 78/78/78
f 69/69/69 80/80/80 78/78/78
f 83/83/83 82/82/82 81/81/81
f 84/84/84 83/83/83 81/81/81
f 87/87/87 86/86/86 85/85/85
f 88/88/88 87/87/87 85/85/85
f 91/91/91 90/90/90 89/89/89
f 92/92/92 91/91/91 89/89/89
f 95/95/95 94/94/94 93/93/93
f 96/96/96 95/95/95 93/93/93
f 99/99/99 98/98/98 97/97/97
f 100/100/100 99/99/99 97/97/97
f 103/103/103 102/102/102 101/101/101
f 104/104/104 103/103/103 101/101/101
f 107/107/107 106/106/106 105/105/105
f 108/108/108 107/107/107 105/105/105
f 111/111/111 110/110/110 109/109/109
f 112/112/112 111/111/111 109/109/109

