mtllib material.mtl
usemtl material_0
v -0.00499000 -0.00999000 0.00001000
v 0.00001000 0.00000000 0.00001000
v 0.00501000 -0.00999000 0.00001000
v 0.29120000 -0.13104000 0.01680000
v 0.28397000 -0.13812000 0.01681000
v 0.28908000 -0.13604000 0.01681000
v 0.28397000 -0.13104000 0.01680000
v 0.29120000 0.51188000 0.01631000
v 0.08746000 -0.13104000 0.01680000
v 0.08746000 -0.13812000 0.01681000
v 0.28397000 0.51188000 0.01631000
v 0.29120000 0.69615000 0.01611000
v 0.28397000 0.69615000 0.01611000
v 0.28397000 0.70322000 0.01611000
v 0.28908000 0.70115000 0.01611000
v 0.08746000 0.70322000 0.01611000
v 0.00001000 -0.13104000 0.01680000
v 0.00001000 -0.13812000 0.01681000
v -0.08745000 -0.13812000 0.01681000
v -0.08745000 -0.13104000 0.01680000
v -0.28396000 -0.13812000 0.01681000
v -0.28396000 -0.13104000 0.01680000
v 0.00001000 0.03813000 0.01681000
v 0.08746000 0.03813000 0.01681000
v -0.08745000 0.03813000 0.01681000
v 0.27190000 0.03813000 0.01681000
v -0.27189000 0.03813000 0.01681000
v 0.27190000 0.51188000 0.01631000
v 0.27190000 0.66780000 0.01614000
v 0.08746000 0.66780000 0.01614000
v -0.27189000 0.51188000 0.01631000
v 0.08746000 0.69615000 0.01611000
v 0.00001000 0.66780000 0.01614000
v 0.00001000 0.70322000 0.01611000
v 0.00001000 0.69615000 0.01611000
v -0.08745000 0.69615000 0.01611000
v -0.08745000 0.66780000 0.01614000
v -0.28396000 0.69615000 0.01611000
v -0.08745000 0.70322000 0.01611000
v -0.27189000 0.66780000 0.01614000
v -0.28396000 0.70322000 0.01611000
v -0.28396000 0.51188000 0.01631000
v -0.29119000 0.69615000 0.01611000
v -0.28907000 0.70115000 0.01611000
v -0.29119000 0.51188000 0.01631000
v -0.29119000 -0.13104000 0.01680000
v -0.28907000 -0.13604000 0.01681000
v 0.28908000 -0.13101000 0.05088000
v 0.28908000 -0.13602000 0.04589000
v 0.28814000 -0.13509000 0.04997000
v 0.29120000 -0.13101000 0.04588000
v 0.28908000 0.51191000 0.05039000
v 0.29120000 -0.13102000 0.03874000
v 0.28908000 -0.13602000 0.03874000
v 0.29120000 0.51191000 0.04539000
v 0.28908000 0.69618000 0.05019000
v 0.28813000 -0.13043000 0.03596000
v 0.28673000 -0.13373000 0.03596000
v 0.28673000 -0.13373000 0.03177000
v 0.29120000 0.51190000 0.03825000
v 0.29120000 0.69618000 0.04519000
v 0.28813000 0.51190000 0.03547000
v 0.28813000 -0.13043000 0.03177000
v 0.28908000 0.70118000 0.04519000
v 0.28814000 0.70026000 0.04927000
v 0.28908000 0.70117000 0.03804000
v 0.29120000 0.69617000 0.03805000
v 0.28673000 0.69887000 0.03527000
v 0.28813000 0.69557000 0.03527000
v 0.28813000 0.51189000 0.03128000
v 0.28813000 0.69557000 0.03108000
v 0.28673000 0.69887000 0.03108000
v 0.28908000 0.70116000 0.02830000
v 0.29120000 0.69616000 0.02831000
v 0.28908000 0.70115000 0.01611000
v 0.29120000 0.69615000 0.01611000
v 0.29120000 0.51188000 0.01631000
v 0.29120000 0.51189000 0.02851000
v 0.29120000 -0.13104000 0.01680000
v 0.29120000 -0.13103000 0.02900000
v 0.28908000 -0.13603000 0.02900000
v 0.28908000 -0.13604000 0.01681000
v 0.28908000 -0.13602000 0.04589000
v 0.28397000 -0.13601000 0.05089000
v 0.28814000 -0.13509000 0.04997000
v 0.28397000 -0.13809000 0.04589000
v 0.28908000 -0.13602000 0.03874000
v 0.08746000 -0.13809000 0.04589000
v 0.08746000 -0.13601000 0.05089000
v 0.28397000 -0.13810000 0.03874000
v 0.28673000 -0.13373000 0.03596000
v 0.08746000 -0.13810000 0.03874000
v 0.00001000 -0.13809000 0.04589000
v 0.00001000 -0.13601000 0.05089000
v -0.08745000 -0.13601000 0.05089000
v 0.00001000 -0.13810000 0.03874000
v -0.08745000 -0.13809000 0.04589000
v -0.28396000 -0.13601000 0.05089000
v 0.28336000 -0.13510000 0.03597000
v 0.08746000 -0.13510000 0.03597000
v 0.00001000 -0.13510000 0.03597000
v -0.08745000 -0.13810000 0.03874000
v -0.28396000 -0.13809000 0.04589000
v 0.28336000 -0.13510000 0.03178000
v 0.28673000 -0.13373000 0.03177000
v 0.28908000 -0.13603000 0.02900000
v 0.08746000 -0.13510000 0.03178000
v 0.00001000 -0.13510000 0.03178000
v -0.28907000 -0.13602000 0.04589000
v -0.28813000 -0.13509000 0.04997000
v -0.28907000 -0.13602000 0.03874000
v -0.28396000 -0.13810000 0.03874000
v -0.28672000 -0.13373000 0.03596000
v -0.08745000 -0.13510000 0.03597000
v -0.28335000 -0.13510000 0.03597000
v -0.08745000 -0.13510000 0.03178000
v -0.28335000 -0.13510000 0.03178000
v -0.28672000 -0.13373000 0.03177000
v -0.28907000 -0.13603000 0.02900000
v 0.00001000 -0.13810000 0.02900000
v -0.28396000 -0.13810000 0.02900000
v -0.28907000 -0.13604000 0.01681000
v -0.28396000 -0.13812000 0.01681000
v -0.08745000 -0.13812000 0.01681000
v -0.08745000 -0.13810000 0.02900000
v 0.00001000 -0.13812000 0.01681000
v 0.08746000 -0.13810000 0.02900000
v 0.08746000 -0.13812000 0.01681000
v 0.28397000 -0.13810000 0.02900000
v 0.28397000 -0.13812000 0.01681000
v 0.28908000 -0.13604000 0.01681000
v 0.28397000 -0.13601000 0.05089000
v 0.28908000 -0.13101000 0.05088000
v 0.28814000 -0.13509000 0.04997000
v 0.28397000 -0.13101000 0.05296000
v 0.08746000 -0.13601000 0.05089000
v 0.28397000 0.51191000 0.05246000
v 0.28908000 0.51191000 0.05039000
v 0.08746000 -0.13101000 0.05296000
v 0.00001000 -0.13601000 0.05089000
v 0.28397000 0.69618000 0.05227000
v 0.28908000 0.69618000 0.05019000
v 0.08746000 0.51191000 0.05246000
v 0.00001000 -0.13101000 0.05296000
v 0.28397000 0.70118000 0.05019000
v 0.28814000 0.70026000 0.04927000
v 0.08746000 0.69618000 0.05227000
v 0.08746000 0.70118000 0.05019000
v 0.00001000 0.51191000 0.05246000
v 0.00001000 0.69618000 0.05227000
v 0.00001000 0.70118000 0.05019000
v -0.08745000 0.70118000 0.05019000
v -0.08745000 0.69618000 0.05227000
v -0.28396000 0.70118000 0.05019000
v -0.08745000 -0.13101000 0.05296000
v -0.08745000 -0.13601000 0.05089000
v -0.08745000 0.51191000 0.05246000
v -0.28396000 0.69618000 0.05227000
v -0.28396000 -0.13101000 0.05296000
v -0.28396000 -0.13601000 0.05089000
v -0.28396000 0.51191000 0.05246000
v -0.28907000 -0.13101000 0.05088000
v -0.28813000 -0.13509000 0.04997000
v -0.28907000 0.51191000 0.05039000
v -0.28907000 0.69618000 0.05019000
v -0.28813000 0.70026000 0.04927000
v 0.28397000 0.70118000 0.05019000
v 0.28908000 0.70118000 0.04519000
v 0.28814000 0.70026000 0.04927000
v 0.28397000 0.70325000 0.04519000
v 0.08746000 0.70118000 0.05019000
v 0.28397000 0.70324000 0.03804000
v 0.28908000 0.70117000 0.03804000
v 0.08746000 0.70325000 0.04519000
v 0.00001000 0.70118000 0.05019000
v 0.28336000 0.70024000 0.03527000
v 0.28673000 0.69887000 0.03527000
v 0.28673000 0.69887000 0.03108000
v 0.08746000 0.70324000 0.03804000
v 0.00001000 0.70325000 0.04519000
v -0.08745000 0.70325000 0.04519000
v -0.08745000 0.70118000 0.05019000
v -0.28396000 0.70325000 0.04519000
v -0.28396000 0.70118000 0.05019000
v -0.28907000 0.70118000 0.04519000
v -0.28813000 0.70026000 0.04927000
v -0.28396000 0.70324000 0.03804000
v -0.28907000 0.70117000 0.03804000
v -0.08745000 0.70324000 0.03804000
v -0.28335000 0.70024000 0.03527000
v -0.28672000 0.69887000 0.03527000
v -0.28672000 0.69887000 0.03108000
v 0.00001000 0.70324000 0.03804000
v -0.08745000 0.70024000 0.03527000
v -0.28335000 0.70024000 0.03108000
v 0.08746000 0.70024000 0.03527000
v -0.28396000 0.70323000 0.02830000
v -0.28907000 0.70116000 0.02830000
v -0.08745000 0.70024000 0.03108000
v 0.00001000 0.70024000 0.03527000
v 0.28336000 0.70024000 0.03108000
v -0.28396000 0.70322000 0.01611000
v -0.28907000 0.70115000 0.01611000
v -0.08745000 0.70323000 0.02830000
v -0.08745000 0.70322000 0.01611000
v 0.08746000 0.70024000 0.03108000
v 0.28397000 0.70323000 0.02830000
v 0.28908000 0.70116000 0.02830000
v 0.00001000 0.70024000 0.03108000
v 0.00001000 0.70323000 0.02830000
v 0.00001000 0.70322000 0.01611000
v 0.08746000 0.70322000 0.01611000
v 0.08746000 0.70323000 0.02830000
v 0.28397000 0.70322000 0.01611000
v 0.28908000 0.70115000 0.01611000
v 0.08746000 0.03813000 0.01681000
v 0.27190000 0.03813000 0.01681000
v 0.27190000 0.03812000 0.00673000
v 0.08746000 0.03812000 0.00673000
v 0.00001000 0.03813000 0.01681000
v 0.08746000 0.04008000 0.00198000
v 0.26993000 0.04008000 0.00198000
v 0.00001000 0.04008000 0.00198000
v 0.00001000 0.03812000 0.00673000
v -0.08745000 0.03812000 0.00673000
v -0.08745000 0.03813000 0.01681000
v -0.08745000 0.04008000 0.00198000
v -0.27189000 0.03812000 0.00673000
v -0.27189000 0.03813000 0.01681000
v -0.26992000 0.04008000 0.00198000
v 0.27190000 0.51188000 0.01631000
v 0.27190000 0.66780000 0.01614000
v 0.27190000 0.66779000 0.00606000
v 0.27190000 0.51187000 0.00623000
v 0.27190000 0.03813000 0.01681000
v 0.27190000 0.03812000 0.00673000
v 0.26993000 0.04008000 0.00198000
v 0.26993000 0.51186000 0.00148000
v 0.26993000 0.66581000 0.00131000
v 0.08746000 0.52117000 0.02037000
v 0.08746000 0.51175000 0.02475000
v 0.08976000 0.63788000 -0.00025000
v 0.08746000 0.63042000 0.00168000
v 0.08976000 0.64244000 -0.00064000
v 0.08495000 0.63044000 -0.00061000
v 0.24049000 0.63788000 -0.00025000
v 0.21398000 0.51189000 0.02475000
v 0.08746000 0.51175000 0.02475000
v 0.08517000 0.64244000 -0.00064000
v 0.08746000 0.66106000 -0.00065000
v 0.00001000 0.64244000 -0.00063000
v 0.08419000 0.53382000 -0.00051000
v 0.24049000 0.64244000 -0.00064000
v 0.00001000 0.53379000 -0.00051000
v 0.08419000 0.52974000 0.00168000
v 0.24555000 0.61980000 -0.00061000
v 0.24143000 0.61980000 0.00108000
v 0.24552000 0.64244000 -0.00064000
v 0.24569000 0.51186000 -0.00049000
v 0.24144000 0.51186000 0.00120000
v 0.21826000 0.51158000 0.02304000
v 0.26518000 0.66106000 -0.00065000
v 0.21407000 0.10692000 0.02519000
v 0.24144000 0.07192000 0.00167000
v 0.21831000 0.10555000 0.02344000
v 0.21508000 0.10254000 0.02389000
v 0.08746000 0.10692000 0.02519000
v 0.23881000 0.06789000 0.00137000
v 0.08746000 0.10254000 0.02389000
v 0.08746000 0.66581000 0.00131000
v 0.26993000 0.66581000 0.00131000
v 0.00001000 0.66581000 0.00131000
v 0.26518000 0.51186000 -0.00049000
v 0.26993000 0.51186000 0.00148000
v 0.00001000 0.66106000 -0.00065000
v -0.08745000 0.66106000 -0.00065000
v -0.08745000 0.66581000 0.00131000
v -0.26517000 0.66106000 -0.00065000
v -0.08975000 0.64244000 -0.00064000
v -0.26992000 0.66581000 0.00131000
v 0.26518000 0.04483000 0.00001000
v 0.26993000 0.04008000 0.00198000
v 0.24569000 0.06329000 -0.00001000
v 0.08746000 0.04483000 0.00001000
v 0.08746000 0.04008000 0.00198000
v 0.00001000 0.04483000 0.00001000
v 0.00001000 0.04008000 0.00198000
v -0.08745000 0.04008000 0.00198000
v 0.24569000 0.07192000 -0.00002000
v 0.23881000 0.06329000 -0.00001000
v 0.08746000 0.06336000 -0.00001000
v -0.08745000 0.04483000 0.00001000
v -0.26992000 0.04008000 0.00198000
v -0.26517000 0.04483000 0.00001000
v -0.26992000 0.51186000 0.00148000
v 0.08746000 0.06775000 0.00128000
v -0.26517000 0.51186000 -0.00049000
v -0.24568000 0.51186000 -0.00049000
v 0.00001000 0.06336000 -0.00001000
v -0.08745000 0.06336000 -0.00001000
v 0.00001000 0.06775000 0.00128000
v 0.00001000 0.10254000 0.02389000
v -0.23880000 0.06329000 -0.00001000
v -0.08745000 0.06775000 0.00128000
v 0.00001000 0.10692000 0.02519000
v -0.23880000 0.06789000 0.00137000
v -0.08745000 0.10254000 0.02389000
v 0.00001000 0.51183000 0.02475000
v 0.00001000 0.51586000 0.02259000
v -0.08745000 0.51175000 0.02475000
v -0.08745000 0.10692000 0.02519000
v 0.08429000 0.51583000 0.02263000
v -0.21507000 0.10254000 0.02389000
v -0.21406000 0.10692000 0.02519000
v -0.21830000 0.10555000 0.02344000
v -0.24143000 0.07192000 0.00167000
v -0.21825000 0.51158000 0.02304000
v 0.00001000 0.52976000 0.00165000
v -0.08418000 0.52974000 0.00168000
v -0.08428000 0.51583000 0.02263000
v -0.08418000 0.53382000 -0.00051000
v -0.08745000 0.52117000 0.02037000
v -0.08494000 0.63044000 -0.00061000
v -0.21397000 0.51189000 0.02475000
v -0.08975000 0.63788000 -0.00025000
v -0.08745000 0.63042000 0.00168000
v -0.08516000 0.64244000 -0.00064000
v -0.24048000 0.63788000 -0.00025000
v -0.24142000 0.61980000 0.00108000
v -0.24048000 0.64244000 -0.00064000
v -0.24143000 0.51186000 0.00120000
v -0.24554000 0.61980000 -0.00061000
v -0.24551000 0.64244000 -0.00064000
v -0.24568000 0.07192000 -0.00002000
v -0.24568000 0.06329000 -0.00001000
v 0.08746000 0.63042000 0.00168000
v 0.08495000 0.63044000 -0.00061000
v 0.08419000 0.53382000 -0.00051000
v 0.08746000 0.53287000 0.00260000
v 0.08746000 0.52117000 0.02037000
v 0.08419000 0.52974000 0.00168000
v 0.08429000 0.51583000 0.02263000
v -0.28907000 -0.13101000 0.05088000
v -0.28813000 -0.13509000 0.04997000
v -0.28907000 -0.13602000 0.04589000
v -0.29119000 -0.13101000 0.04588000
v -0.28907000 0.51191000 0.05039000
v -0.29119000 -0.13102000 0.03874000
v -0.28907000 -0.13602000 0.03874000
v -0.29119000 0.51191000 0.04539000
v -0.28907000 0.69618000 0.05019000
v -0.28812000 -0.13043000 0.03596000
v -0.28672000 -0.13373000 0.03596000
v -0.28672000 -0.13373000 0.03177000
v -0.29119000 0.51190000 0.03825000
v -0.29119000 0.69618000 0.04519000
v -0.28812000 0.51190000 0.03547000
v -0.28812000 -0.13043000 0.03177000
v -0.28907000 0.70118000 0.04519000
v -0.28813000 0.70026000 0.04927000
v -0.28907000 0.70117000 0.03804000
v -0.29119000 0.69617000 0.03805000
v -0.28672000 0.69887000 0.03527000
v -0.28812000 0.69557000 0.03527000
v -0.28812000 0.51189000 0.03128000
v -0.28812000 0.69557000 0.03108000
v -0.28672000 0.69887000 0.03108000
v -0.28907000 0.70116000 0.02830000
v -0.29119000 0.69616000 0.02831000
v -0.28907000 0.70115000 0.01611000
v -0.29119000 0.69615000 0.01611000
v -0.29119000 0.51188000 0.01631000
v -0.29119000 0.51189000 0.02851000
v -0.29119000 -0.13104000 0.01680000
v -0.29119000 -0.13103000 0.02900000
v -0.28907000 -0.13603000 0.02900000
v -0.28907000 -0.13604000 0.01681000
v -0.27189000 0.51188000 0.01631000
v -0.27189000 0.66779000 0.00606000
v -0.27189000 0.66780000 0.01614000
v -0.27189000 0.51187000 0.00623000
v -0.27189000 0.03813000 0.01681000
v -0.27189000 0.03812000 0.00673000
v -0.26992000 0.04008000 0.00198000
v -0.26992000 0.51186000 0.00148000
v -0.26992000 0.66581000 0.00131000
v -0.08745000 0.63042000 0.00168000
v -0.08418000 0.53382000 -0.00051000
v -0.08494000 0.63044000 -0.00061000
v -0.08745000 0.53287000 0.00260000
v -0.08745000 0.52117000 0.02037000
v -0.08418000 0.52974000 0.00168000
v -0.08428000 0.51583000 0.02263000
v 0.00001000 0.66779000 0.00606000
v 0.00001000 0.66581000 0.00131000
v 0.08746000 0.66581000 0.00131000
v -0.08745000 0.66581000 0.00131000
v 0.08746000 0.66779000 0.00606000
v 0.26993000 0.66581000 0.00131000
v 0.27190000 0.66779000 0.00606000
v 0.27190000 0.66780000 0.01614000
v 0.08746000 0.66780000 0.01614000
v 0.00001000 0.66780000 0.01614000
v -0.08745000 0.66780000 0.01614000
v -0.08745000 0.66779000 0.00606000
v -0.26992000 0.66581000 0.00131000
v -0.27189000 0.66780000 0.01614000
v -0.27189000 0.66779000 0.00606000
v 0.25199000 0.01939000 -0.07234000
v 0.25199000 0.00314000 -0.07489000
v 0.25092000 0.00314000 -0.07597000
v 0.25092000 0.01967000 -0.07338000
v 0.25199000 0.03745000 -0.06486000
v 0.25092000 0.02371000 -0.08847000
v 0.25092000 0.00314000 -0.09159000
v 0.25199000 0.00314000 -0.09266000
v 0.25199000 0.02399000 -0.08951000
v 0.25092000 0.04580000 -0.07932000
v 0.25199000 0.04634000 -0.08025000
v 0.25092000 0.03799000 -0.06579000
v 0.25199000 0.05296000 -0.05295000
v 0.25092000 0.06477000 -0.06476000
v 0.25199000 0.06553000 -0.06552000
v 0.25092000 0.05373000 -0.05372000
v 0.25199000 0.06487000 -0.03744000
v 0.25092000 0.07933000 -0.04579000
v 0.25199000 0.08026000 -0.04633000
v 0.25092000 0.06580000 -0.03798000
v 0.25199000 0.07235000 -0.01938000
v 0.25092000 0.08848000 -0.02370000
v 0.25199000 0.08952000 -0.02398000
v 0.25092000 0.07339000 -0.01966000
v 0.25199000 0.07490000 0.00001000
v 0.25092000 0.07598000 0.00001000
v 0.25092000 0.09160000 0.00001000
v 0.25199000 0.09267000 0.00001000
v 0.26411000 0.02399000 -0.08951000
v 0.26411000 0.00314000 -0.09266000
v 0.26518000 0.00314000 -0.09159000
v 0.26518000 0.02371000 -0.08847000
v 0.26411000 0.04634000 -0.08025000
v 0.26518000 0.01967000 -0.07338000
v 0.26518000 0.00314000 -0.07597000
v 0.26411000 0.00314000 -0.07489000
v 0.26411000 0.01939000 -0.07234000
v 0.26518000 0.03799000 -0.06579000
v 0.26411000 0.03745000 -0.06486000
v 0.26518000 0.04580000 -0.07932000
v 0.26411000 0.06553000 -0.06552000
v 0.26518000 0.05373000 -0.05372000
v 0.26411000 0.05296000 -0.05295000
v 0.26518000 0.06477000 -0.06476000
v 0.26411000 0.08026000 -0.04633000
v 0.26518000 0.06580000 -0.03798000
v 0.26411000 0.06487000 -0.03744000
v 0.26518000 0.07933000 -0.04579000
v 0.26411000 0.08952000 -0.02398000
v 0.26518000 0.07339000 -0.01966000
v 0.26411000 0.07235000 -0.01938000
v 0.26518000 0.08848000 -0.02370000
v 0.26411000 0.09267000 0.00001000
v 0.26518000 0.09160000 0.00001000
v 0.26518000 0.07598000 0.00001000
v 0.26411000 0.07490000 0.00001000
v 0.25199000 0.08952000 -0.02398000
v 0.26411000 0.09267000 0.00001000
v 0.25199000 0.09267000 0.00001000
v 0.26411000 0.08952000 -0.02398000
v 0.25199000 0.08026000 -0.04633000
v 0.26411000 0.08026000 -0.04633000
v 0.25199000 0.06553000 -0.06552000
v 0.26411000 0.06553000 -0.06552000
v 0.25199000 0.04634000 -0.08025000
v 0.26411000 0.04634000 -0.08025000
v 0.25199000 0.02399000 -0.08951000
v 0.26411000 0.04634000 -0.08025000
v 0.25199000 0.04634000 -0.08025000
v 0.26411000 0.02399000 -0.08951000
v 0.25199000 0.00314000 -0.09266000
v 0.26411000 0.00314000 -0.09266000
v 0.26411000 0.07235000 -0.01938000
v 0.25199000 0.07490000 0.00001000
v 0.26411000 0.07490000 0.00001000
v 0.25199000 0.07235000 -0.01938000
v 0.26411000 0.06487000 -0.03744000
v 0.25199000 0.06487000 -0.03744000
v 0.26411000 0.05296000 -0.05295000
v 0.25199000 0.05296000 -0.05295000
v 0.26411000 0.03745000 -0.06486000
v 0.25199000 0.03745000 -0.06486000
v 0.26411000 0.01939000 -0.07234000
v 0.25199000 0.03745000 -0.06486000
v 0.26411000 0.03745000 -0.06486000
v 0.25199000 0.01939000 -0.07234000
v 0.26411000 0.00314000 -0.07489000
v 0.25199000 0.00314000 -0.07489000
v -0.26410000 0.01939000 -0.07234000
v -0.26410000 0.00314000 -0.07489000
v -0.26517000 0.00314000 -0.07597000
v -0.26517000 0.01967000 -0.07338000
v -0.26410000 0.03745000 -0.06486000
v -0.26517000 0.02371000 -0.08847000
v -0.26517000 0.00314000 -0.09159000
v -0.26410000 0.00314000 -0.09266000
v -0.26410000 0.02399000 -0.08951000
v -0.26517000 0.04580000 -0.07932000
v -0.26410000 0.04634000 -0.08025000
v -0.26517000 0.03799000 -0.06579000
v -0.26410000 0.05296000 -0.05295000
v -0.26517000 0.06477000 -0.06476000
v -0.26410000 0.06553000 -0.06552000
v -0.26517000 0.05373000 -0.05372000
v -0.26410000 0.06487000 -0.03744000
v -0.26517000 0.07933000 -0.04579000
v -0.26410000 0.08026000 -0.04633000
v -0.26517000 0.06580000 -0.03798000
v -0.26410000 0.07235000 -0.01938000
v -0.26517000 0.08848000 -0.02370000
v -0.26410000 0.08952000 -0.02398000
v -0.26517000 0.07339000 -0.01966000
v -0.26410000 0.07490000 0.00001000
v -0.26517000 0.07598000 0.00001000
v -0.26517000 0.09160000 0.00001000
v -0.26410000 0.09267000 0.00001000
v -0.25198000 0.02399000 -0.08951000
v -0.25198000 0.00314000 -0.09266000
v -0.25091000 0.00314000 -0.09159000
v -0.25091000 0.02371000 -0.08847000
v -0.25198000 0.04634000 -0.08025000
v -0.25091000 0.01967000 -0.07338000
v -0.25091000 0.00314000 -0.07597000
v -0.25198000 0.00314000 -0.07489000
v -0.25198000 0.01939000 -0.07234000
v -0.25091000 0.03799000 -0.06579000
v -0.25198000 0.03745000 -0.06486000
v -0.25091000 0.04580000 -0.07932000
v -0.25198000 0.06553000 -0.06552000
v -0.25091000 0.05373000 -0.05372000
v -0.25198000 0.05296000 -0.05295000
v -0.25091000 0.06477000 -0.06476000
v -0.25198000 0.08026000 -0.04633000
v -0.25091000 0.06580000 -0.03798000
v -0.25198000 0.06487000 -0.03744000
v -0.25091000 0.07933000 -0.04579000
v -0.25198000 0.08952000 -0.02398000
v -0.25091000 0.07339000 -0.01966000
v -0.25198000 0.07235000 -0.01938000
v -0.25091000 0.08848000 -0.02370000
v -0.25198000 0.09267000 0.00001000
v -0.25091000 0.09160000 0.00001000
v -0.25091000 0.07598000 0.00001000
v -0.25198000 0.07490000 0.00001000
v -0.26410000 0.08952000 -0.02398000
v -0.25198000 0.09267000 0.00001000
v -0.26410000 0.09267000 0.00001000
v -0.25198000 0.08952000 -0.02398000
v -0.26410000 0.08026000 -0.04633000
v -0.25198000 0.08026000 -0.04633000
v -0.26410000 0.06553000 -0.06552000
v -0.25198000 0.06553000 -0.06552000
v -0.26410000 0.04634000 -0.08025000
v -0.25198000 0.04634000 -0.08025000
v -0.26410000 0.02399000 -0.08951000
v -0.25198000 0.04634000 -0.08025000
v -0.26410000 0.04634000 -0.08025000
v -0.25198000 0.02399000 -0.08951000
v -0.26410000 0.00314000 -0.09266000
v -0.25198000 0.00314000 -0.09266000
v -0.25198000 0.07235000 -0.01938000
v -0.26410000 0.07490000 0.00001000
v -0.25198000 0.07490000 0.00001000
v -0.26410000 0.07235000 -0.01938000
v -0.25198000 0.06487000 -0.03744000
v -0.26410000 0.06487000 -0.03744000
v -0.25198000 0.05296000 -0.05295000
v -0.26410000 0.05296000 -0.05295000
v -0.25198000 0.03745000 -0.06486000
v -0.26410000 0.03745000 -0.06486000
v -0.25198000 0.01939000 -0.07234000
v -0.26410000 0.03745000 -0.06486000
v -0.25198000 0.03745000 -0.06486000
v -0.26410000 0.01939000 -0.07234000
v -0.25198000 0.00314000 -0.07489000
v -0.26410000 0.00314000 -0.07489000
vn 0.00000000 0.00000000 1.00000000
vn 0.00000000 0.00000000 1.00000000
vn 0.00000000 0.00000000 1.00000000
vn -0.00000257 -0.00076447 -0.99999980
vn 0.00000000 -0.00097064 -0.99999950
vn 0.00000741 -0.00097575 -0.99999950
vn -0.00005540 -0.00008626 -1.00000000
vn -0.00000204 -0.00083194 -0.99999960
vn 0.00000000 0.00002255 -1.00000000
vn 0.00000000 -0.00097054 -0.99999950
vn -0.00302995 -0.00089241 -0.99999500
vn 0.00000000 -0.00106911 -0.99999940
vn 0.00000996 -0.00098892 -0.99999950
vn 0.00000000 -0.00094891 -0.99999950
vn 0.00000264 -0.00094482 -0.99999960
vn 0.00000000 -0.00094899 -0.99999950
vn 0.00000000 0.00002338 -1.00000000
vn 0.00000000 -0.00097055 -0.99999950
vn 0.00000000 -0.00097054 -0.99999950
vn 0.00000000 0.00002251 -1.00000000
vn 0.00000000 -0.00097059 -0.99999950
vn 0.00005537 -0.00008630 -1.00000000
vn 0.00000000 0.00006494 -1.00000000
vn 0.00000000 0.00006498 -1.00000000
vn 0.00000000 0.00006494 -1.00000000
vn -0.00187847 -0.00020316 -0.99999820
vn 0.00187845 -0.00020321 -0.99999820
vn -0.00508825 -0.00093352 -0.99998660
vn 0.00004775 -0.00100410 -0.99999950
vn 0.00000000 -0.00096359 -0.99999950
vn 0.00508829 -0.00093352 -0.99998660
vn 0.00000000 -0.00096063 -0.99999950
vn 0.00000000 -0.00096337 -0.99999950
vn 0.00000000 -0.00094900 -0.99999950
vn 0.00000000 -0.00096050 -0.99999950
vn 0.00000000 -0.00096045 -0.99999950
vn 0.00000000 -0.00096337 -0.99999950
vn -0.00000997 -0.00098873 -0.99999950
vn 0.00000000 -0.00094900 -0.99999950
vn -0.00004775 -0.00100385 -0.99999950
vn 0.00000000 -0.00094897 -0.99999950
vn 0.00303000 -0.00089241 -0.99999500
vn 0.00000000 -0.00106906 -0.99999940
vn -0.00000132 -0.00094729 -0.99999950
vn 0.00000204 -0.00083194 -0.99999960
vn 0.00000260 -0.00076448 -0.99999980
vn -0.00000264 -0.00097329 -0.99999950
vn 0.69955240 -0.00161668 0.71457930
vn 0.69412530 -0.70816710 0.12918770
vn 0.56880520 -0.58101330 0.58213760
vn 0.98520610 -0.00262831 0.17135340
vn 0.69950100 0.00059458 0.71463140
vn 0.96094880 -0.00320789 -0.27670770
vn 0.68002300 -0.69365470 -0.23751170
vn 0.98514840 0.00014283 0.17170490
vn 0.69953630 0.00820593 0.71454980
vn 0.90710000 -0.00250294 -0.42090760
vn 0.60201100 -0.61733350 -0.50644050
vn 0.60200800 -0.61635360 0.50763630
vn 0.95548520 -0.00024547 -0.29503880
vn 0.98529410 0.00964813 0.17059430
vn 0.91522480 -0.00033521 -0.40294350
vn 0.90706160 -0.00185932 0.42099390
vn 0.69412520 0.70841440 0.12782530
vn 0.56879990 0.58212790 0.58102820
vn 0.68002740 0.69319060 -0.23885020
vn 0.96105590 0.00997453 -0.27617380
vn 0.60201450 0.61635740 -0.50762400
vn 0.90644260 0.00706054 -0.42227000
vn 0.91525800 0.00033513 0.40286790
vn 0.90642180 0.00796342 0.42229870
vn 0.60201750 0.61732210 0.50644670
vn 0.69145940 0.70568800 0.15455860
vn 0.98262520 0.01086550 0.18528190
vn 0.69953040 0.71460250 -0.00068658
vn 0.99993750 0.01118343 -0.00001074
vn 1.00000000 0.00000000 0.00000000
vn 0.97970060 0.00016679 0.20046630
vn 0.99999460 -0.00326724 0.00000314
vn 0.98259790 -0.00297165 0.18572180
vn 0.69145450 -0.70539520 0.15591150
vn 0.69952570 -0.71460710 0.00068678
vn 0.69412530 -0.70816710 0.12918770
vn 0.00692702 -0.70641140 0.70776760
vn 0.56880520 -0.58101330 0.58213760
vn 0.00871849 -0.98572760 0.16812240
vn 0.68002300 -0.69365470 -0.23751170
vn 0.00000000 -0.98559610 0.16911650
vn 0.00000023 -0.70642850 0.70778440
vn 0.00948871 -0.96301040 -0.26929720
vn 0.60201100 -0.61733350 -0.50644050
vn 0.00000000 -0.95751450 -0.28838540
vn 0.00000000 -0.98559620 0.16911590
vn 0.00000000 -0.70642920 0.70778370
vn 0.00000000 -0.70642920 0.70778370
vn 0.00000000 -0.95745230 -0.28859150
vn 0.00000000 -0.98559620 0.16911580
vn -0.00692686 -0.70641410 0.70776490
vn 0.00688168 -0.91004440 -0.41445370
vn 0.00000000 -0.91871230 -0.39492770
vn 0.00000000 -0.91880480 -0.39471220
vn 0.00000000 -0.95751430 -0.28838550
vn -0.00871866 -0.98572780 0.16812100
vn 0.00688180 -0.90924620 0.41620190
vn 0.60200800 -0.61635360 0.50763630
vn 0.69145450 -0.70539520 0.15591150
vn 0.00000000 -0.91795140 0.39669290
vn 0.00000000 -0.91804410 0.39647820
vn -0.69413380 -0.70815970 0.12918240
vn -0.56882350 -0.58100670 0.58212630
vn -0.68002780 -0.69365170 -0.23750690
vn -0.00948841 -0.96300920 -0.26930140
vn -0.60202640 -0.61732590 -0.50643150
vn 0.00000000 -0.91871230 -0.39492730
vn -0.00688201 -0.91004720 -0.41444750
vn 0.00000000 -0.91795130 0.39669310
vn -0.00688204 -0.90924850 0.41619690
vn -0.60203050 -0.61634730 0.50761720
vn -0.69145880 -0.70539160 0.15590780
vn 0.00000000 -0.98031870 0.19742140
vn -0.00983483 -0.98323700 0.18206690
vn -0.69953360 -0.71459930 0.00069007
vn -0.01027689 -0.99994670 0.00096092
vn 0.00000000 -0.99999950 0.00096093
vn 0.00000000 -0.98035200 0.19725580
vn 0.00000000 -0.99999950 0.00096096
vn 0.00000000 -0.98035200 0.19725570
vn 0.00000000 -0.99999950 0.00096093
vn 0.00983494 -0.98323770 0.18206240
vn 0.01027684 -0.99994670 0.00096087
vn 0.69952570 -0.71460710 0.00068678
vn 0.00692702 -0.70641140 0.70776760
vn 0.69955240 -0.00161668 0.71457930
vn 0.56880520 -0.58101330 0.58213760
vn 0.01025086 -0.00240523 0.99994460
vn 0.00000023 -0.70642850 0.70778440
vn 0.01027681 0.00083199 0.99994680
vn 0.69950100 0.00059458 0.71463140
vn 0.00000000 -0.00243307 0.99999700
vn 0.00000000 -0.70642920 0.70778370
vn 0.01018505 0.01192123 0.99987710
vn 0.69953630 0.00820593 0.71454980
vn 0.00000000 0.00083200 0.99999960
vn 0.00000000 -0.00243297 0.99999700
vn 0.00692674 0.70776420 0.70641480
vn 0.56879990 0.58212790 0.58102820
vn 0.00000029 0.01201550 0.99992790
vn 0.00000018 0.70778230 0.70643060
vn 0.00000000 0.00083194 0.99999960
vn 0.00000000 0.01201543 0.99992790
vn 0.00000000 0.70778520 0.70642770
vn 0.00000000 0.70778480 0.70642810
vn 0.00000000 0.01201542 0.99992790
vn -0.00692665 0.70776750 0.70641140
vn 0.00000000 -0.00243297 0.99999700
vn 0.00000000 -0.70642920 0.70778370
vn 0.00000000 0.00083194 0.99999960
vn -0.01018458 0.01192114 0.99987710
vn -0.01025040 -0.00240509 0.99994460
vn -0.00692686 -0.70641410 0.70776490
vn -0.01027635 0.00083190 0.99994680
vn -0.69956060 -0.00161666 0.71457140
vn -0.56882350 -0.58100670 0.58212630
vn -0.69951020 0.00059453 0.71462230
vn -0.69954910 0.00820613 0.71453730
vn -0.56881470 0.58212140 0.58102030
vn 0.00692674 0.70776420 0.70641480
vn 0.69412520 0.70841440 0.12782530
vn 0.56879990 0.58212790 0.58102820
vn 0.00871852 0.98604800 0.16623310
vn 0.00000018 0.70778230 0.70643060
vn 0.00948872 0.96249200 -0.27114410
vn 0.68002740 0.69319060 -0.23885020
vn 0.00000000 0.98591830 0.16722800
vn 0.00000000 0.70778520 0.70642770
vn 0.00688172 0.90924490 -0.41620470
vn 0.60201450 0.61635740 -0.50762400
vn 0.60201750 0.61732210 0.50644670
vn 0.00000000 0.95695910 -0.29022270
vn 0.00000000 0.98591830 0.16722810
vn 0.00000000 0.98591830 0.16722790
vn 0.00000000 0.70778480 0.70642810
vn -0.00871850 0.98604800 0.16623300
vn -0.00692665 0.70776750 0.70641140
vn -0.69412980 0.70840990 0.12782490
vn -0.56881470 0.58212140 0.58102030
vn -0.00948868 0.96249010 -0.27115050
vn -0.68003370 0.69318870 -0.23883810
vn 0.00000000 0.95695950 -0.29022140
vn -0.00688189 0.90924940 -0.41619510
vn -0.60203590 0.61635080 -0.50760650
vn -0.60204460 0.61731160 0.50642740
vn 0.00000000 0.95689710 -0.29042710
vn 0.00000000 0.91795250 -0.39669030
vn -0.00688202 0.91005550 0.41442910
vn 0.00000000 0.91795090 -0.39669420
vn -0.00983471 0.98358550 0.18017500
vn -0.69146190 0.70568680 0.15455290
vn 0.00000000 0.91872080 0.39490780
vn 0.00000000 0.91804530 -0.39647560
vn 0.00688191 0.91005520 0.41442970
vn -0.01027674 0.99994670 -0.00095247
vn -0.69953690 0.71459620 -0.00068077
vn 0.00000000 0.98072980 0.19536870
vn 0.00000000 0.99999950 -0.00095168
vn 0.00000011 0.91872090 0.39490760
vn 0.00983490 0.98358550 0.18017460
vn 0.69145940 0.70568800 0.15455860
vn 0.00000000 0.91881230 0.39469490
vn 0.00000000 0.98069640 0.19553690
vn 0.00000000 0.99999950 -0.00094988
vn 0.00000000 0.99999950 -0.00094816
vn 0.00000000 0.98072900 0.19537280
vn 0.01027665 0.99994670 -0.00094769
vn 0.69953040 0.71460250 -0.00068658
vn 0.00000053 -0.99999950 0.00096142
vn 0.00000047 -0.99999950 0.00096184
vn 0.00000047 -0.99415360 -0.10797590
vn 0.00000052 -0.99147930 -0.13026460
vn 0.00000000 -0.99999950 0.00096138
vn 0.00000037 -0.70961230 -0.70459230
vn 0.68602470 -0.26645710 -0.67703090
vn 0.00000000 -0.70778890 -0.70642400
vn 0.00000000 -0.99143730 -0.13058370
vn -0.00000052 -0.99147930 -0.13026450
vn -0.00000053 -0.99999950 0.00096197
vn -0.00000037 -0.70961200 -0.70459260
vn -0.00000047 -0.99415330 -0.10797820
vn -0.00000047 -0.99999950 0.00096184
vn -0.68602760 -0.26644990 -0.67703080
vn 1.00000000 0.00000000 0.00000000
vn 1.00000000 0.00000000 0.00000000
vn 0.99405650 -0.00011891 -0.10886500
vn 0.99134740 -0.00014010 -0.13126500
vn 1.00000000 0.00000000 0.00000000
vn 0.99402210 -0.00011564 -0.10917960
vn 0.68602470 -0.26645710 -0.67703090
vn 0.70867190 -0.00075365 -0.70553780
vn 0.45627850 0.53980060 -0.70740750
vn 0.91405720 -0.16926420 -0.36857720
vn 0.66444220 -0.14263510 -0.73360190
vn 0.00226999 -0.19071050 -0.98164370
vn 0.72691820 -0.07020984 -0.68312550
vn 0.00038096 -0.00939651 -0.99995580
vn 0.01460682 -0.00154367 -0.99989210
vn -0.00488869 -0.18883560 -0.98199650
vn -0.01199522 -0.05496183 -0.99841640
vn 0.00001351 -0.03484464 -0.99939270
vn 0.00004621 -0.00110602 -0.99999940
vn -0.00000285 0.08438678 -0.99643300
vn 0.00000000 -0.00114166 -0.99999940
vn 0.03027346 -0.02009221 -0.99933960
vn -0.00041670 -0.00924091 -0.99995720
vn 0.00000000 -0.02034068 -0.99979310
vn 0.03375874 -0.79033300 -0.61174670
vn -0.03321914 -0.00177560 -0.99944650
vn -0.44642360 -0.05693570 -0.89300850
vn 0.00006925 -0.00103030 -0.99999950
vn -0.06600298 -0.00108014 -0.99781880
vn -0.64668640 -0.00083059 -0.76275560
vn -0.64642790 -0.00445901 -0.76296210
vn 0.08299918 0.09753212 -0.99176540
vn -0.01542593 0.00244158 -0.99987800
vn -0.61238660 0.00934507 -0.79050320
vn -0.66534200 0.00197593 -0.74653610
vn -0.01038864 0.52528280 -0.85086430
vn -0.00000585 0.00211774 -0.99999770
vn -0.01615733 0.50038050 -0.86565480
vn 0.00000000 0.52203010 -0.85292700
vn 0.00000039 0.70825060 -0.70596110
vn 0.45627850 0.53980060 -0.70740750
vn 0.00000000 0.70642550 -0.70778730
vn 0.08334339 -0.00106817 -0.99652030
vn 0.70867190 -0.00075365 -0.70553780
vn 0.00000000 0.08378599 -0.99648380
vn 0.00000285 0.08438678 -0.99643300
vn -0.00000039 0.70825150 -0.70596020
vn -0.08299741 0.09753263 -0.99176560
vn -0.00038096 -0.00939650 -0.99995580
vn -0.45628630 0.53979460 -0.70740710
vn 0.12652990 -0.04958407 -0.99072270
vn 0.68602470 -0.26645710 -0.67703090
vn -0.00005076 -0.00103578 -0.99999950
vn 0.00000023 -0.08841295 -0.99608390
vn 0.00000037 -0.70961230 -0.70459230
vn 0.00000000 -0.08519056 -0.99636470
vn 0.00000000 -0.70778890 -0.70642400
vn -0.00000037 -0.70961200 -0.70459260
vn -0.03794243 -0.00082767 -0.99927960
vn -0.00060371 0.02897644 -0.99958000
vn 0.00002729 0.05382592 -0.99855040
vn -0.00000024 -0.08841310 -0.99608390
vn -0.68602760 -0.26644990 -0.67703080
vn -0.12652730 -0.04958452 -0.99072310
vn -0.70866550 -0.00075367 -0.70554420
vn 0.00001494 0.51946630 -0.85449100
vn -0.08334292 -0.00106817 -0.99652040
vn 0.06600273 -0.00108014 -0.99781880
vn 0.00000000 0.05574474 -0.99844510
vn -0.00002730 0.05382599 -0.99855040
vn 0.00000000 0.52085420 -0.85364570
vn 0.00000000 0.52085450 -0.85364540
vn 0.00060376 0.02897594 -0.99958000
vn -0.00001489 0.51946630 -0.85449100
vn 0.00000389 0.00211078 -0.99999790
vn 0.01615714 0.50038020 -0.86565510
vn 0.00000013 0.52203020 -0.85292700
vn 0.00000393 -0.00621021 -0.99998070
vn 0.00000055 -0.78845370 -0.61509410
vn -0.00019546 -0.03487679 -0.99939160
vn 0.00000585 0.00211604 -0.99999770
vn 0.01368865 -0.77200410 -0.63547020
vn 0.01038884 0.52528320 -0.85086410
vn 0.01542076 0.00243999 -0.99987820
vn 0.66534470 0.00197581 -0.74653370
vn 0.61238080 0.00934486 -0.79050770
vn 0.64643130 -0.00445877 -0.76295920
vn 0.00000000 -0.78964720 -0.61356120
vn -0.03375912 -0.79033310 -0.61174660
vn -0.01368556 -0.77199040 -0.63548680
vn -0.03027354 -0.02009223 -0.99933960
vn -0.91402940 -0.16928310 -0.36863730
vn -0.01460672 -0.00154366 -0.99989210
vn 0.01199010 -0.05496168 -0.99841650
vn -0.00227389 -0.19070610 -0.98164450
vn -0.72684590 -0.07021546 -0.68320180
vn -0.00004619 -0.00110602 -0.99999940
vn 0.00488408 -0.18883130 -0.98199740
vn 0.44642980 -0.05693282 -0.89300560
vn 0.00041669 -0.00924090 -0.99995720
vn 0.64668410 -0.00083053 -0.76275760
vn 0.03321948 -0.00177557 -0.99944650
vn -0.00006916 -0.00103031 -0.99999950
vn 0.03794242 -0.00082767 -0.99927960
vn 0.00005070 -0.00103578 -0.99999950
vn 0.72691820 -0.07020984 -0.68312550
vn 0.01460682 -0.00154367 -0.99989210
vn 0.03027346 -0.02009221 -0.99933960
vn 0.98141680 -0.03900498 -0.18788190
vn 0.91405720 -0.16926420 -0.36857720
vn 0.03375874 -0.79033300 -0.61174670
vn 0.01368865 -0.77200410 -0.63547020
vn -0.69956060 -0.00161666 0.71457140
vn -0.56882350 -0.58100670 0.58212630
vn -0.69413380 -0.70815970 0.12918240
vn -0.98520580 -0.00262823 0.17135520
vn -0.69951020 0.00059453 0.71462230
vn -0.96095260 -0.00320787 -0.27669440
vn -0.68002780 -0.69365170 -0.23750690
vn -0.98514810 0.00014286 0.17170670
vn -0.69954910 0.00820613 0.71453730
vn -0.90710790 -0.00250283 -0.42089050
vn -0.60202640 -0.61732590 -0.50643150
vn -0.60203050 -0.61634730 0.50761720
vn -0.95548930 -0.00024543 -0.29502530
vn -0.98529390 0.00964836 0.17059560
vn -0.91523220 -0.00033521 -0.40292660
vn -0.90706950 -0.00185918 0.42097680
vn -0.69412980 0.70840990 0.12782490
vn -0.56881470 0.58212140 0.58102030
vn -0.68003370 0.69318870 -0.23883810
vn -0.96105970 0.00997489 -0.27616080
vn -0.60203590 0.61635080 -0.50760650
vn -0.90645060 0.00706008 -0.42225300
vn -0.91526540 0.00033513 0.40285100
vn -0.90642940 0.00796294 0.42228230
vn -0.60204460 0.61731160 0.50642740
vn -0.69146190 0.70568680 0.15455290
vn -0.98262710 0.01086542 0.18527260
vn -0.69953690 0.71459620 -0.00068077
vn -0.99993750 0.01118335 -0.00001138
vn -1.00000000 0.00000000 -0.00000017
vn -0.97970250 0.00016674 0.20045650
vn -0.99999460 -0.00326726 0.00000318
vn -0.98259970 -0.00297166 0.18571220
vn -0.69145880 -0.70539160 0.15590780
vn -0.69953360 -0.71459930 0.00069007
vn -1.00000000 0.00000000 0.00000000
vn -0.99405720 -0.00011893 -0.10885890
vn -1.00000000 0.00000000 0.00000000
vn -0.99134820 -0.00014012 -0.13125830
vn -1.00000000 0.00000000 0.00000000
vn -0.99402270 -0.00011565 -0.10917350
vn -0.68602760 -0.26644990 -0.67703080
vn -0.70866550 -0.00075367 -0.70554420
vn -0.45628630 0.53979460 -0.70740710
vn -0.72684590 -0.07021546 -0.68320180
vn -0.03027354 -0.02009223 -0.99933960
vn -0.01460672 -0.00154366 -0.99989210
vn -0.98141870 -0.03900389 -0.18787220
vn -0.91402940 -0.16928310 -0.36863730
vn -0.03375912 -0.79033310 -0.61174660
vn -0.01368556 -0.77199040 -0.63548680
vn 0.00000000 0.99118410 -0.13249210
vn 0.00000000 0.70642550 -0.70778730
vn 0.00000039 0.70825060 -0.70596110
vn -0.00000039 0.70825150 -0.70596020
vn 0.00000055 0.99122630 -0.13217600
vn 0.45627850 0.53980060 -0.70740750
vn 0.00000000 0.99394380 -0.10988970
vn 0.00000000 0.99999950 -0.00095198
vn 0.00000056 0.99999950 -0.00095305
vn 0.00000000 0.99999950 -0.00095531
vn -0.00000056 0.99999950 -0.00095419
vn -0.00000055 0.99122650 -0.13217430
vn -0.45628630 0.53979460 -0.70740710
vn 0.00000000 0.99999950 -0.00095366
vn 0.00000000 0.99394350 -0.10989170
vn -0.08595673 -0.27967460 0.95623930
vn -0.08660042 -0.15454150 0.98418350
vn -0.99879570 -0.00760112 0.04846939
vn -0.99869970 -0.01426661 0.04894345
vn -0.08644053 -0.49813130 0.86278220
vn -0.99682900 0.02202706 -0.07646389
vn -0.99653630 0.01246308 -0.08222023
vn -0.07528331 0.14932690 -0.98591790
vn -0.07683342 0.27536470 -0.95826460
vn -0.99681850 0.03985210 -0.06902558
vn -0.07666606 0.49852610 -0.86347790
vn -0.99871270 -0.02536185 0.04392828
vn -0.08643743 -0.70445920 0.70446140
vn -0.99681850 0.05635913 -0.05635913
vn -0.07666846 0.70502570 -0.70502520
vn -0.99871270 -0.03586742 0.03586768
vn -0.08643525 -0.86278400 0.49812920
vn -0.99681850 0.06902581 -0.03985169
vn -0.07666756 0.86347700 -0.49852750
vn -0.99871270 -0.04392831 0.02536235
vn -0.08643549 -0.96231130 0.25784880
vn -0.99681850 0.07698814 -0.02062951
vn -0.07666818 0.96308300 -0.25805620
vn -0.99871270 -0.04899552 0.01312869
vn -0.08570060 -0.98779740 0.13004460
vn -0.99869040 -0.05072329 0.00667770
vn -0.99676370 0.07969887 -0.01049246
vn -0.07601754 0.98857620 -0.13014730
vn 0.07683881 0.27536410 -0.95826430
vn 0.07528903 0.14932730 -0.98591730
vn 0.99653630 0.01246368 -0.08222070
vn 0.99682900 0.02202730 -0.07646358
vn 0.07666884 0.49852600 -0.86347780
vn 0.99869970 -0.01426605 0.04894371
vn 0.99879570 -0.00760155 0.04846960
vn 0.08660039 -0.15454220 0.98418340
vn 0.08595672 -0.27967450 0.95623940
vn 0.99871270 -0.02536139 0.04392842
vn 0.08644050 -0.49813130 0.86278230
vn 0.99681850 0.03985271 -0.06902580
vn 0.07666852 0.70502600 -0.70502500
vn 0.99871270 -0.03586668 0.03586770
vn 0.08643676 -0.70445900 0.70446160
vn 0.99681850 0.05636033 -0.05635919
vn 0.07666785 0.86347680 -0.49852770
vn 0.99871270 -0.04392765 0.02536227
vn 0.08643417 -0.86278400 0.49812940
vn 0.99681850 0.06902596 -0.03985183
vn 0.07666838 0.96308300 -0.25805640
vn 0.99871270 -0.04899590 0.01312865
vn 0.08643529 -0.96231130 0.25784850
vn 0.99681850 0.07698782 -0.02062956
vn 0.07601761 0.98857620 -0.13014730
vn 0.99676370 0.07969920 -0.01049247
vn 0.99869040 -0.05072345 0.00667776
vn 0.08570111 -0.98779740 0.13004460
vn -0.07666818 0.96308300 -0.25805620
vn 0.07601761 0.98857620 -0.13014730
vn -0.07601754 0.98857620 -0.13014730
vn 0.07666838 0.96308300 -0.25805640
vn -0.07666756 0.86347700 -0.49852750
vn 0.07666785 0.86347680 -0.49852770
vn -0.07666846 0.70502570 -0.70502520
vn 0.07666852 0.70502600 -0.70502500
vn -0.07666606 0.49852610 -0.86347790
vn 0.07666884 0.49852600 -0.86347780
vn -0.07683342 0.27536470 -0.95826460
vn 0.07666884 0.49852600 -0.86347780
vn -0.07666606 0.49852610 -0.86347790
vn 0.07683881 0.27536410 -0.95826430
vn -0.07528331 0.14932690 -0.98591790
vn 0.07528903 0.14932730 -0.98591730
vn 0.08643529 -0.96231130 0.25784850
vn -0.08570060 -0.98779740 0.13004460
vn 0.08570111 -0.98779740 0.13004460
vn -0.08643549 -0.96231130 0.25784880
vn 0.08643417 -0.86278400 0.49812940
vn -0.08643525 -0.86278400 0.49812920
vn 0.08643676 -0.70445900 0.70446160
vn -0.08643743 -0.70445920 0.70446140
vn 0.08644050 -0.49813130 0.86278230
vn -0.08644053 -0.49813130 0.86278220
vn 0.08595672 -0.27967450 0.95623940
vn -0.08644053 -0.49813130 0.86278220
vn 0.08644050 -0.49813130 0.86278230
vn -0.08595673 -0.27967460 0.95623930
vn 0.08660039 -0.15454220 0.98418340
vn -0.08660042 -0.15454150 0.98418350
vn -0.08595272 -0.27967050 0.95624080
vn -0.08660045 -0.15454330 0.98418330
vn -0.99879500 -0.00760369 0.04848406
vn -0.99869880 -0.01427068 0.04895828
vn -0.08643374 -0.49813050 0.86278340
vn -0.99682730 0.02203252 -0.07648441
vn -0.99653450 0.01246633 -0.08224144
vn -0.07528396 0.14932730 -0.98591770
vn -0.07683351 0.27536440 -0.95826460
vn -0.99681680 0.03986274 -0.06904466
vn -0.07666589 0.49852580 -0.86347810
vn -0.99871190 -0.02536983 0.04394157
vn -0.08643396 -0.70446140 0.70445950
vn -0.99681680 0.05637541 -0.05637474
vn -0.07666839 0.70502600 -0.70502490
vn -0.99871190 -0.03587823 0.03587831
vn -0.08643422 -0.86278430 0.49812900
vn -0.99681680 0.06904500 -0.03986284
vn -0.07666738 0.86347700 -0.49852750
vn -0.99871190 -0.04394152 0.02536982
vn -0.08643385 -0.96231130 0.25784910
vn -0.99681680 0.07700901 -0.02063525
vn -0.07666788 0.96308300 -0.25805640
vn -0.99871190 -0.04901033 0.01313250
vn -0.08569959 -0.98779740 0.13004550
vn -0.99868970 -0.05073796 0.00667972
vn -0.99676190 0.07972085 -0.01049535
vn -0.07601748 0.98857640 -0.13014710
vn 0.07683404 0.27536450 -0.95826460
vn 0.07528422 0.14932740 -0.98591760
vn 0.99653530 0.01246375 -0.08223145
vn 0.99682810 0.02202973 -0.07647445
vn 0.07666631 0.49852580 -0.86347810
vn 0.99869930 -0.01426860 0.04895020
vn 0.99879540 -0.00760384 0.04847603
vn 0.08660182 -0.15454350 0.98418310
vn 0.08595444 -0.27967090 0.95624060
vn 0.99871230 -0.02536500 0.04393479
vn 0.08643520 -0.49813070 0.86278320
vn 0.99681770 0.03985825 -0.06903508
vn 0.07666871 0.70502610 -0.70502480
vn 0.99871230 -0.03587324 0.03587307
vn 0.08643422 -0.70446140 0.70445950
vn 0.99681770 0.05636753 -0.05636687
vn 0.07666787 0.86347700 -0.49852740
vn 0.99871230 -0.04393565 0.02536604
vn 0.08643436 -0.86278410 0.49812920
vn 0.99681770 0.06903503 -0.03985734
vn 0.07666849 0.96308300 -0.25805630
vn 0.99871230 -0.04900310 0.01313060
vn 0.08643527 -0.96231110 0.25784930
vn 0.99681770 0.07699847 -0.02063240
vn 0.07601798 0.98857640 -0.13014700
vn 0.99676290 0.07970997 -0.01049384
vn 0.99869010 -0.05073098 0.00667878
vn 0.08570091 -0.98779730 0.13004560
vn -0.07666788 0.96308300 -0.25805640
vn 0.07601798 0.98857640 -0.13014700
vn -0.07601748 0.98857640 -0.13014710
vn 0.07666849 0.96308300 -0.25805630
vn -0.07666738 0.86347700 -0.49852750
vn 0.07666787 0.86347700 -0.49852740
vn -0.07666839 0.70502600 -0.70502490
vn 0.07666871 0.70502610 -0.70502480
vn -0.07666589 0.49852580 -0.86347810
vn 0.07666631 0.49852580 -0.86347810
vn -0.07683351 0.27536440 -0.95826460
vn 0.07666631 0.49852580 -0.86347810
vn -0.07666589 0.49852580 -0.86347810
vn 0.07683404 0.27536450 -0.95826460
vn -0.07528396 0.14932730 -0.98591770
vn 0.07528422 0.14932740 -0.98591760
vn 0.08643527 -0.96231110 0.25784930
vn -0.08569959 -0.98779740 0.13004550
vn 0.08570091 -0.98779730 0.13004560
vn -0.08643385 -0.96231130 0.25784910
vn 0.08643436 -0.86278410 0.49812920
vn -0.08643422 -0.86278430 0.49812900
vn 0.08643422 -0.70446140 0.70445950
vn -0.08643396 -0.70446140 0.70445950
vn 0.08643520 -0.49813070 0.86278320
vn -0.08643374 -0.49813050 0.86278340
vn 0.08595444 -0.27967090 0.95624060
vn -0.08643374 -0.49813050 0.86278340
vn 0.08643520 -0.49813070 0.86278320
vn -0.08595272 -0.27967050 0.95624080
vn 0.08660182 -0.15454350 0.98418310
vn -0.08660045 -0.15454330 0.98418330
vt 10.51901000 0.96505700
vt 10.52682000 0.98069050
vt 10.53464000 0.96505700
vt 10.65437000 0.93356540
vt 10.64307000 0.94461960
vt 10.65106000 0.94138200
vt 10.64307000 0.93356500
vt 10.65437000 -0.07099843
vt 10.33603000 0.93356510
vt 10.33603000 0.94461960
vt 10.64307000 -0.07099843
vt 10.65437000 -0.35891950
vt 10.64307000 -0.35891950
vt 10.64307000 -0.36997370
vt 10.65106000 -0.36673610
vt 10.33603000 -0.36997370
vt 10.19938000 0.93356510
vt 10.19938000 0.94461960
vt 10.06272000 0.94461960
vt 10.06272000 0.93356510
vt 9.75568400 0.94461960
vt 9.75568400 0.93356500
vt 10.19938000 0.66923370
vt 10.33603000 0.66923360
vt 10.06272000 0.66923360
vt 10.62421000 0.66923340
vt 9.77454800 0.66923340
vt 10.62421000 -0.07099843
vt 10.62421000 -0.31461980
vt 10.33603000 -0.31461980
vt 9.77454800 -0.07099843
vt 10.33603000 -0.35891950
vt 10.19938000 -0.31462000
vt 10.19938000 -0.36997370
vt 10.19938000 -0.35891950
vt 10.06272000 -0.35891950
vt 10.06272000 -0.31461980
vt 9.75568400 -0.35891950
vt 10.06272000 -0.36997370
vt 9.77454800 -0.31461980
vt 9.75568400 -0.36997370
vt 9.75568400 -0.07099843
vt 9.74439100 -0.35891950
vt 9.74769900 -0.36673610
vt 9.74439100 -0.07099843
vt 9.74439100 0.93356540
vt 9.74769900 0.94138200
vt 10.38608000 -0.38972580
vt 10.39424000 -0.39790620
vt 10.38758000 -0.39639770
vt 10.39425000 -0.38973360
vt 10.38688000 0.66060300
vt 10.40592000 -0.38974480
vt 10.40591000 -0.39791740
vt 10.39505000 0.66059520
vt 10.38720000 0.96164100
vt 10.41046000 -0.38877430
vt 10.41045000 -0.39417070
vt 10.41730000 -0.39417720
vt 10.40672000 0.66058400
vt 10.39538000 0.96163320
vt 10.41126000 0.66057950
vt 10.41730000 -0.38878090
vt 10.39538000 0.96980570
vt 10.38871000 0.96831000
vt 10.40705000 0.96979440
vt 10.40705000 0.96162190
vt 10.41158000 0.96603910
vt 10.41158000 0.96064250
vt 10.41810000 0.66057300
vt 10.41842000 0.96063590
vt 10.41843000 0.96603240
vt 10.42297000 0.96977910
vt 10.42296000 0.96160650
vt 10.44289000 0.96976010
vt 10.44288000 0.96158740
vt 10.44256000 0.66054950
vt 10.42264000 0.66056860
vt 10.44176000 -0.38977930
vt 10.42183000 -0.38976020
vt 10.42183000 -0.39793260
vt 10.44175000 -0.39795180
vt 10.57295000 0.29804380
vt 10.58111000 0.30638150
vt 10.57961000 0.29957670
vt 10.57295000 0.30638150
vt 10.56129000 0.29804380
vt 10.57295000 0.62697620
vt 10.58111000 0.62697620
vt 10.56129000 0.30638150
vt 10.55676000 0.30187100
vt 10.56129000 0.62697620
vt 10.57295000 0.76966270
vt 10.58111000 0.76966270
vt 10.58111000 0.91234950
vt 10.56129000 0.76966270
vt 10.57295000 0.91234950
vt 10.58111000 1.23294400
vt 10.55676000 0.30737650
vt 10.55676000 0.62697620
vt 10.55676000 0.76966270
vt 10.56129000 0.91234950
vt 10.57295000 1.23294400
vt 10.54993000 0.30737650
vt 10.54992000 0.30187100
vt 10.54540000 0.29804380
vt 10.54993000 0.62697620
vt 10.54993000 0.76966270
vt 10.57295000 1.24128100
vt 10.57961000 1.23974900
vt 10.56129000 1.24128100
vt 10.56129000 1.23294400
vt 10.55676000 1.23745500
vt 10.55676000 0.91234950
vt 10.55676000 1.23194900
vt 10.54993000 0.91234950
vt 10.54993000 1.23194900
vt 10.54992000 1.23745500
vt 10.54540000 1.24128100
vt 10.54540000 0.76966270
vt 10.54540000 1.23294400
vt 10.52550000 1.24128100
vt 10.52551000 1.23294400
vt 10.52551000 0.91234950
vt 10.54540000 0.91234950
vt 10.52551000 0.76966270
vt 10.54540000 0.62697620
vt 10.52551000 0.62697620
vt 10.54540000 0.30638150
vt 10.52551000 0.30638150
vt 10.52550000 0.29804380
vt 11.10518000 -0.36891560
vt 11.11318000 -0.36108990
vt 11.11171000 -0.36747870
vt 11.10518000 -0.36108670
vt 10.79778000 -0.36891560
vt 11.10518000 0.64466620
vt 11.11318000 0.64466300
vt 10.79778000 -0.36108670
vt 10.66096000 -0.36891560
vt 11.10518000 0.93292790
vt 11.11318000 0.93292470
vt 10.79778000 0.64466620
vt 10.66096000 -0.36108670
vt 11.10518000 0.94075050
vt 11.11171000 0.93931070
vt 10.79778000 0.93292790
vt 10.79778000 0.94075050
vt 10.66096000 0.64466620
vt 10.66096000 0.93292790
vt 10.66096000 0.94075050
vt 10.52415000 0.94075050
vt 10.52415000 0.93292790
vt 10.21674000 0.94075050
vt 10.52415000 -0.36108670
vt 10.52415000 -0.36891560
vt 10.52415000 0.64466620
vt 10.21674000 0.93292790
vt 10.21674000 -0.36108670
vt 10.21674000 -0.36891560
vt 10.21674000 0.64466620
vt 10.20875000 -0.36108990
vt 10.21022000 -0.36747870
vt 10.20875000 0.64466300
vt 10.20875000 0.93292470
vt 10.21022000 0.93931070
vt 10.49663000 0.30641010
vt 10.50479000 0.29807300
vt 10.49812000 0.29960570
vt 10.50479000 0.30641010
vt 10.49663000 0.62698500
vt 10.51644000 0.30641010
vt 10.51644000 0.29807300
vt 10.50479000 0.62698500
vt 10.49663000 0.76966270
vt 10.52097000 0.30740510
vt 10.52096000 0.30190000
vt 10.52780000 0.30190000
vt 10.51644000 0.62698500
vt 10.50479000 0.76966270
vt 10.50479000 0.91234060
vt 10.49663000 0.91234060
vt 10.50479000 1.23291500
vt 10.49663000 1.23291500
vt 10.50479000 1.24125200
vt 10.49812000 1.23972000
vt 10.51644000 1.23291500
vt 10.51644000 1.24125200
vt 10.51644000 0.91234060
vt 10.52097000 1.23192100
vt 10.52096000 1.23742600
vt 10.52780000 1.23742600
vt 10.51644000 0.76966270
vt 10.52097000 0.91234060
vt 10.52780000 1.23192100
vt 10.52097000 0.62698500
vt 10.53233000 1.23291500
vt 10.53233000 1.24125200
vt 10.52780000 0.91234060
vt 10.52097000 0.76966270
vt 10.52780000 0.30740510
vt 10.55223000 1.23291500
vt 10.55223000 1.24125200
vt 10.53233000 0.91234060
vt 10.55223000 0.91234060
vt 10.52780000 0.62698500
vt 10.53233000 0.30641010
vt 10.53233000 0.29807300
vt 10.52780000 0.76966270
vt 10.53233000 0.76966270
vt 10.55223000 0.76966270
vt 10.55223000 0.62698500
vt 10.53233000 0.62698500
vt 10.55223000 0.30641010
vt 10.55223000 0.29807300
vt 10.31571000 0.62238610
vt 10.31571000 0.33045910
vt 10.29975000 0.33045910
vt 10.29975000 0.62238610
vt 10.31571000 0.76081850
vt 10.29222000 0.62238610
vt 10.29222000 0.33357430
vt 10.29222000 0.76081850
vt 10.29975000 0.76081850
vt 10.29975000 0.89925110
vt 10.31571000 0.89925110
vt 10.29222000 0.89925110
vt 10.29975000 1.19117800
vt 10.31571000 1.19117800
vt 10.29222000 1.18806300
vt 10.85748000 0.46710050
vt 10.85775000 0.71390870
vt 10.87371000 0.71389340
vt 10.87344000 0.46708510
vt 10.85669000 -0.28281440
vt 10.87265000 -0.28282970
vt 10.88017000 -0.27972150
vt 10.88096000 0.46707790
vt 10.88123000 0.71077060
vt 10.89358000 0.51677300
vt 10.89358000 0.53183520
vt 10.89725000 0.33011280
vt 10.89358000 0.34204650
vt 10.89725000 0.32282520
vt 10.88956000 0.34202050
vt 11.13831000 0.33011270
vt 11.09591000 0.53161420
vt 10.89358000 0.53183520
vt 10.88991000 0.32282520
vt 10.89358000 0.29304470
vt 10.75371000 0.32282520
vt 10.88834000 0.49653450
vt 11.13831000 0.32282510
vt 10.75371000 0.49658410
vt 10.88834000 0.50305510
vt 11.14640000 0.35902810
vt 11.13982000 0.35903240
vt 11.14636000 0.32282510
vt 11.14662000 0.53165300
vt 11.13983000 0.53165030
vt 11.10276000 0.53209890
vt 11.17779000 0.29304440
vt 11.09605000 1.17926200
vt 11.13983000 1.23524600
vt 11.10283000 1.18145300
vt 11.09767000 1.18627600
vt 10.89358000 1.17926200
vt 11.13562000 1.24169000
vt 10.89358000 1.18627600
vt 10.89358000 0.28544270
vt 11.18539000 0.28544270
vt 10.75371000 0.28544240
vt 11.17779000 0.53165290
vt 11.18539000 0.53164980
vt 10.75371000 0.29304410
vt 10.61384000 0.29304470
vt 10.61384000 0.28544270
vt 10.32962000 0.29304440
vt 10.61017000 0.32282520
vt 10.32202000 0.28544270
vt 11.17779000 1.27855900
vt 11.18539000 1.28615500
vt 11.14662000 1.24904300
vt 10.89358000 1.27855900
vt 10.89358000 1.28615500
vt 10.75371000 1.27855900
vt 10.75371000 1.28615500
vt 10.61384000 1.28615500
vt 11.14662000 1.23524900
vt 11.13562000 1.24903900
vt 10.89358000 1.24892300
vt 10.61384000 1.27855900
vt 10.32202000 1.28615500
vt 10.32962000 1.27855900
vt 10.32202000 0.53164980
vt 10.89358000 1.24191000
vt 10.32962000 0.53165290
vt 10.36079000 0.53165300
vt 10.75371000 1.24892300
vt 10.61384000 1.24892300
vt 10.75371000 1.24191000
vt 10.75371000 1.18627600
vt 10.37179000 1.24903900
vt 10.61384000 1.24191000
vt 10.75371000 1.17926300
vt 10.37179000 1.24169000
vt 10.61384000 1.18627600
vt 10.75371000 0.53170970
vt 10.75371000 0.52526590
vt 10.61384000 0.53183520
vt 10.61384000 1.17926200
vt 10.88850000 0.52530930
vt 10.40974000 1.18627600
vt 10.41136000 1.17926200
vt 10.40458000 1.18145300
vt 10.36759000 1.23524600
vt 10.40465000 0.53209890
vt 10.75371000 0.50302770
vt 10.61907000 0.50305510
vt 10.61891000 0.52530930
vt 10.61907000 0.49653450
vt 10.61384000 0.51677300
vt 10.61785000 0.34202050
vt 10.41150000 0.53161420
vt 10.61017000 0.33011280
vt 10.61384000 0.34204650
vt 10.61751000 0.32282520
vt 10.36910000 0.33011270
vt 10.36759000 0.35903240
vt 10.36910000 0.32282510
vt 10.36759000 0.53165030
vt 10.36101000 0.35902810
vt 10.36105000 0.32282510
vt 10.36079000 1.23524900
vt 10.36079000 1.24904300
vt 10.28499000 0.71047540
vt 10.28879000 0.71050240
vt 10.28862000 0.54993620
vt 10.28345000 0.54834910
vt 10.25393000 0.52890490
vt 10.28498000 0.54316020
vt 10.25017000 0.52003430
vt 10.47399000 -0.38972330
vt 10.47250000 -0.39639520
vt 10.46583000 -0.39790370
vt 10.46582000 -0.38973120
vt 10.47319000 0.66060170
vt 10.45415000 -0.38974240
vt 10.45416000 -0.39791490
vt 10.46502000 0.66059390
vt 10.47287000 0.96163850
vt 10.44961000 -0.38877180
vt 10.44962000 -0.39416820
vt 10.44277000 -0.39417470
vt 10.45335000 0.66058250
vt 10.46469000 0.96163070
vt 10.44881000 0.66057810
vt 10.44277000 -0.38877840
vt 10.46469000 0.96980320
vt 10.47136000 0.96830750
vt 10.45302000 0.96979190
vt 10.45302000 0.96161940
vt 10.44849000 0.96603660
vt 10.44849000 0.96064000
vt 10.44197000 0.66057160
vt 10.44165000 0.96063340
vt 10.44164000 0.96602990
vt 10.43710000 0.96977660
vt 10.43711000 0.96160400
vt 10.41718000 0.96975760
vt 10.41719000 0.96158490
vt 10.41751000 0.66054810
vt 10.43743000 0.66056720
vt 10.41831000 -0.38977690
vt 10.43824000 -0.38975770
vt 10.43824000 -0.39793010
vt 10.41832000 -0.39794930
vt 10.89690000 0.46710110
vt 10.88067000 0.71389470
vt 10.89663000 0.71391000
vt 10.88094000 0.46708570
vt 10.89769000 -0.28281560
vt 10.88173000 -0.28283100
vt 10.87421000 -0.27972280
vt 10.87342000 0.46707850
vt 10.87315000 0.71077180
vt 10.23245000 0.71047560
vt 10.22881000 0.54993610
vt 10.22865000 0.71050260
vt 10.23398000 0.54834900
vt 10.26350000 0.52890480
vt 10.23245000 0.54316010
vt 10.26727000 0.52003410
vt 10.29237000 0.76081850
vt 10.29988000 0.76081850
vt 10.29988000 0.62236770
vt 10.29988000 0.89926950
vt 10.29237000 0.62236770
vt 10.29988000 0.33351770
vt 10.29237000 0.33040210
vt 10.27641000 0.33040210
vt 10.27641000 0.62236770
vt 10.27641000 0.76081850
vt 10.27641000 0.89926950
vt 10.29237000 0.89926950
vt 10.29988000 1.18812000
vt 10.27641000 1.19123500
vt 10.29237000 1.19123500
vt 30.15829000 0.64947720
vt 30.13227000 0.65356360
vt 30.13227000 0.65529050
vt 30.15873000 0.65114510
vt 30.18721000 0.63749610
vt 30.16521000 0.67529890
vt 30.13227000 0.68029640
vt 30.13227000 0.68202320
vt 30.16565000 0.67696690
vt 30.20058000 0.66064740
vt 30.20144000 0.66214280
vt 30.18808000 0.63899160
vt 30.21205000 0.61843690
vt 30.23095000 0.63733990
vt 30.23217000 0.63856100
vt 30.21327000 0.61965800
vt 30.23111000 0.59359860
vt 30.25426000 0.60696490
vt 30.25576000 0.60782840
vt 30.23260000 0.59446200
vt 30.24309000 0.56467360
vt 30.26891000 0.57159260
vt 30.27058000 0.57203930
vt 30.24476000 0.56512070
vt 30.24718000 0.53363340
vt 30.24890000 0.53363340
vt 30.27391000 0.53363340
vt 30.27564000 0.53363340
vt 30.09916000 0.53868900
vt 30.06578000 0.53363280
vt 30.06578000 0.53535960
vt 30.09872000 0.54035710
vt 30.13495000 0.55351320
vt 30.09225000 0.56451100
vt 30.06578000 0.56036570
vt 30.06578000 0.56209250
vt 30.09180000 0.56617890
vt 30.12159000 0.57666460
vt 30.12072000 0.57816030
vt 30.13409000 0.55500880
vt 30.16569000 0.57709530
vt 30.14678000 0.59599840
vt 30.14556000 0.59721970
vt 30.16446000 0.57831650
vt 30.18927000 0.60782840
vt 30.16612000 0.62119450
vt 30.16462000 0.62205800
vt 30.18777000 0.60869170
vt 30.20409000 0.64361750
vt 30.17827000 0.65053630
vt 30.17660000 0.65098340
vt 30.20243000 0.64406420
vt 30.20915000 0.68202390
vt 30.20742000 0.68202390
vt 30.18242000 0.68202390
vt 30.18069000 0.68202390
vt 30.06345000 0.64252420
vt 30.08425000 0.60137310
vt 30.06345000 0.60137310
vt 30.08425000 0.64252420
vt 30.06345000 0.68087100
vt 30.08425000 0.68087100
vt 30.06345000 0.71380000
vt 30.08425000 0.71380000
vt 30.06345000 0.73906730
vt 30.08425000 0.73906730
vt 30.12270000 0.65885390
vt 30.14209000 0.62310120
vt 30.12270000 0.62310120
vt 30.14209000 0.65885390
vt 30.12270000 0.69220580
vt 30.14209000 0.69220580
vt 30.11352000 0.68738450
vt 30.09272000 0.72064330
vt 30.11352000 0.72064330
vt 30.09272000 0.68738450
vt 30.11352000 0.65639200
vt 30.09272000 0.65639200
vt 30.11352000 0.62977870
vt 30.09272000 0.62977870
vt 30.11352000 0.60935730
vt 30.09272000 0.60935730
vt 30.17136000 0.65318800
vt 30.15196000 0.68209790
vt 30.17136000 0.68209790
vt 30.15196000 0.65318800
vt 30.17136000 0.62718160
vt 30.15196000 0.62718160
vt 30.02531000 0.64947780
vt 29.99929000 0.65356420
vt 29.99929000 0.65529120
vt 30.02576000 0.65114570
vt 30.05424000 0.63749650
vt 30.03223000 0.67529980
vt 29.99929000 0.68029740
vt 29.99929000 0.68202420
vt 30.03268000 0.67696790
vt 30.06760000 0.66064820
vt 30.06847000 0.66214350
vt 30.05510000 0.63899200
vt 30.07907000 0.61843700
vt 30.09798000 0.63734030
vt 30.09920000 0.63856140
vt 30.08029000 0.61965810
vt 30.09813000 0.59359840
vt 30.12128000 0.60696490
vt 30.12278000 0.60782840
vt 30.09963000 0.59446190
vt 30.11012000 0.56467300
vt 30.13594000 0.57159200
vt 30.13761000 0.57203880
vt 30.11178000 0.56512010
vt 30.11420000 0.53363240
vt 30.11593000 0.53363240
vt 30.14093000 0.53363240
vt 30.14266000 0.53363240
vt 29.99394000 0.60529150
vt 29.96055000 0.60023520
vt 29.96055000 0.60196200
vt 29.99349000 0.60695960
vt 30.02973000 0.62011590
vt 29.98701000 0.63111360
vt 29.96055000 0.62696810
vt 29.96055000 0.62869520
vt 29.98657000 0.63278160
vt 30.01636000 0.64326720
vt 30.01549000 0.64476290
vt 30.02886000 0.62161130
vt 30.06046000 0.64369790
vt 30.04155000 0.66260090
vt 30.04033000 0.66382210
vt 30.05924000 0.64491900
vt 30.08404000 0.67443080
vt 30.06089000 0.68779720
vt 30.05939000 0.68866070
vt 30.08254000 0.67529420
vt 30.09886000 0.71022000
vt 30.07304000 0.71713890
vt 30.07137000 0.71758570
vt 30.09720000 0.71066690
vt 30.10392000 0.74862640
vt 30.10219000 0.74862640
vt 30.07719000 0.74862640
vt 30.07546000 0.74862640
vt 30.07809000 0.64252430
vt 30.09888000 0.60137330
vt 30.07809000 0.60137330
vt 30.09888000 0.64252430
vt 30.07809000 0.68087100
vt 30.09888000 0.68087100
vt 30.07809000 0.71379980
vt 30.09888000 0.71379980
vt 30.07809000 0.73906710
vt 30.09888000 0.73906710
vt 30.13733000 0.65885390
vt 30.15672000 0.62310090
vt 30.13733000 0.62310090
vt 30.15672000 0.65885390
vt 30.13733000 0.69220610
vt 30.15672000 0.69220610
vt 30.12815000 0.68738460
vt 30.10736000 0.72064340
vt 30.12815000 0.72064340
vt 30.10736000 0.68738460
vt 30.12815000 0.65639200
vt 30.10736000 0.65639200
vt 30.12815000 0.62977860
vt 30.10736000 0.62977860
vt 30.12815000 0.60935710
vt 30.10736000 0.60935710
vt 30.18600000 0.65318800
vt 30.16660000 0.68209770
vt 30.18600000 0.68209770
vt 30.16660000 0.65318800
vt 30.18600000 0.62718180
vt 30.16660000 0.62718180
f 3/3/3 2/2/2 1/1/1
f 6/6/6 5/5/5 4/4/4
f 5/5/5 7/7/7 4/4/4
f 4/4/4 7/7/7 8/8/8
f 9/9/9 7/7/7 5/5/5
f 10/10/10 9/9/9 5/5/5
f 7/7/7 11/11/11 8/8/8
f 8/8/8 11/11/11 12/12/12
f 11/11/11 13/13/13 12/12/12
f 12/12/12 13/13/13 14/14/14
f 15/15/15 12/12/12 14/14/14
f 16/16/16 14/14/14 13/13/13
f 17/17/17 9/9/9 10/10/10
f 18/18/18 17/17/17 10/10/10
f 17/17/17 18/18/18 19/19/19
f 20/20/20 17/17/17 19/19/19
f 20/20/20 19/19/19 21/21/21
f 22/22/22 20/20/20 21/21/21
f 9/9/9 17/17/17 23/23/23
f 17/17/17 20/20/20 23/23/23
f 24/24/24 9/9/9 23/23/23
f 20/20/20 25/25/25 23/23/23
f 20/20/20 22/22/22 25/25/25
f 7/7/7 9/9/9 24/24/24
f 26/26/26 7/7/7 24/24/24
f 22/22/22 27/27/27 25/25/25
f 26/26/26 28/28/28 7/7/7
f 28/28/28 11/11/11 7/7/7
f 13/13/13 11/11/11 28/28/28
f 29/29/29 13/13/13 28/28/28
f 29/29/29 30/30/30 13/13/13
f 31/31/31 27/27/27 22/22/22
f 30/30/30 32/32/32 13/13/13
f 32/32/32 16/16/16 13/13/13
f 30/30/30 33/33/33 32/32/32
f 34/34/34 16/16/16 32/32/32
f 33/33/33 35/35/35 32/32/32
f 35/35/35 34/34/34 32/32/32
f 35/35/35 33/33/33 36/36/36
f 34/34/34 35/35/35 36/36/36
f 33/33/33 37/37/37 36/36/36
f 36/36/36 37/37/37 38/38/38
f 39/39/39 34/34/34 36/36/36
f 39/39/39 36/36/36 38/38/38
f 37/37/37 40/40/40 38/38/38
f 38/38/38 40/40/40 31/31/31
f 41/41/41 39/39/39 38/38/38
f 42/42/42 38/38/38 31/31/31
f 42/42/42 31/31/31 22/22/22
f 38/38/38 43/43/43 41/41/41
f 38/38/38 42/42/42 43/43/43
f 43/43/43 44/44/44 41/41/41
f 42/42/42 45/45/45 43/43/43
f 42/42/42 22/22/22 45/45/45
f 22/22/22 46/46/46 45/45/45
f 22/22/22 21/21/21 46/46/46
f 21/21/21 47/47/47 46/46/46
f 50/50/50 49/49/49 48/48/48
f 49/49/49 51/51/51 48/48/48
f 52/52/52 48/48/48 51/51/51
f 53/53/53 51/51/51 49/49/49
f 54/54/54 53/53/53 49/49/49
f 55/55/55 52/52/52 51/51/51
f 55/55/55 51/51/51 53/53/53
f 56/56/56 52/52/52 55/55/55
f 57/57/57 53/53/53 54/54/54
f 58/58/58 57/57/57 54/54/54
f 58/58/58 59/59/59 57/57/57
f 60/60/60 55/55/55 53/53/53
f 61/61/61 56/56/56 55/55/55
f 61/61/61 55/55/55 60/60/60
f 57/57/57 62/62/62 53/53/53
f 62/62/62 60/60/60 53/53/53
f 59/59/59 63/63/63 57/57/57
f 57/57/57 63/63/63 62/62/62
f 56/56/56 61/61/61 64/64/64
f 65/65/65 56/56/56 64/64/64
f 66/66/66 64/64/64 61/61/61
f 67/67/67 61/61/61 60/60/60
f 67/67/67 66/66/66 61/61/61
f 67/67/67 60/60/60 62/62/62
f 68/68/68 66/66/66 67/67/67
f 69/69/69 67/67/67 62/62/62
f 69/69/69 68/68/68 67/67/67
f 62/62/62 70/70/70 69/69/69
f 63/63/63 70/70/70 62/62/62
f 69/69/69 71/71/71 68/68/68
f 70/70/70 71/71/71 69/69/69
f 71/71/71 72/72/72 68/68/68
f 72/72/72 71/71/71 73/73/73
f 71/71/71 74/74/74 73/73/73
f 71/71/71 70/70/70 74/74/74
f 75/75/75 73/73/73 74/74/74
f 76/76/76 75/75/75 74/74/74
f 76/76/76 74/74/74 77/77/77
f 70/70/70 78/78/78 74/74/74
f 74/74/74 78/78/78 77/77/77
f 70/70/70 63/63/63 78/78/78
f 77/77/77 78/78/78 79/79/79
f 63/63/63 80/80/80 78/78/78
f 78/78/78 80/80/80 79/79/79
f 63/63/63 59/59/59 80/80/80
f 59/59/59 81/81/81 80/80/80
f 79/79/79 80/80/80 81/81/81
f 82/82/82 79/79/79 81/81/81
f 85/85/85 84/84/84 83/83/83
f 84/84/84 86/86/86 83/83/83
f 87/87/87 83/83/83 86/86/86
f 88/88/88 86/86/86 84/84/84
f 89/89/89 88/88/88 84/84/84
f 90/90/90 87/87/87 86/86/86
f 91/91/91 87/87/87 90/90/90
f 88/88/88 92/92/92 86/86/86
f 92/92/92 90/90/90 86/86/86
f 93/93/93 88/88/88 89/89/89
f 94/94/94 93/93/93 89/89/89
f 93/93/93 94/94/94 95/95/95
f 93/93/93 96/96/96 88/88/88
f 96/96/96 92/92/92 88/88/88
f 97/97/97 93/93/93 95/95/95
f 96/96/96 93/93/93 97/97/97
f 97/97/97 95/95/95 98/98/98
f 99/99/99 91/91/91 90/90/90
f 92/92/92 100/100/100 90/90/90
f 100/100/100 99/99/99 90/90/90
f 96/96/96 101/101/101 92/92/92
f 101/101/101 100/100/100 92/92/92
f 102/102/102 96/96/96 97/97/97
f 101/101/101 96/96/96 102/102/102
f 103/103/103 97/97/97 98/98/98
f 102/102/102 97/97/97 103/103/103
f 99/99/99 104/104/104 91/91/91
f 104/104/104 105/105/105 91/91/91
f 105/105/105 104/104/104 106/106/106
f 100/100/100 107/107/107 99/99/99
f 107/107/107 104/104/104 99/99/99
f 101/101/101 108/108/108 100/100/100
f 108/108/108 107/107/107 100/100/100
f 103/103/103 98/98/98 109/109/109
f 98/98/98 110/110/110 109/109/109
f 109/109/109 111/111/111 103/103/103
f 111/111/111 112/112/112 103/103/103
f 112/112/112 102/102/102 103/103/103
f 111/111/111 113/113/113 112/112/112
f 114/114/114 101/101/101 102/102/102
f 114/114/114 102/102/102 112/112/112
f 108/108/108 101/101/101 114/114/114
f 113/113/113 115/115/115 112/112/112
f 115/115/115 114/114/114 112/112/112
f 116/116/116 108/108/108 114/114/114
f 116/116/116 114/114/114 115/115/115
f 117/117/117 115/115/115 113/113/113
f 117/117/117 116/116/116 115/115/115
f 118/118/118 117/117/117 113/113/113
f 117/117/117 118/118/118 119/119/119
f 120/120/120 108/108/108 116/116/116
f 108/108/108 120/120/120 107/107/107
f 121/121/121 117/117/117 119/119/119
f 119/119/119 122/122/122 121/121/121
f 122/122/122 123/123/123 121/121/121
f 123/123/123 124/124/124 121/121/121
f 125/125/125 116/116/116 117/117/117
f 121/121/121 125/125/125 117/117/117
f 124/124/124 125/125/125 121/121/121
f 125/125/125 120/120/120 116/116/116
f 124/124/124 126/126/126 125/125/125
f 126/126/126 120/120/120 125/125/125
f 120/120/120 127/127/127 107/107/107
f 120/120/120 126/126/126 127/127/127
f 107/107/107 127/127/127 104/104/104
f 126/126/126 128/128/128 127/127/127
f 127/127/127 129/129/129 104/104/104
f 127/127/127 128/128/128 129/129/129
f 104/104/104 129/129/129 106/106/106
f 128/128/128 130/130/130 129/129/129
f 131/131/131 106/106/106 129/129/129
f 130/130/130 131/131/131 129/129/129
f 134/134/134 133/133/133 132/132/132
f 133/133/133 135/135/135 132/132/132
f 136/136/136 132/132/132 135/135/135
f 137/137/137 135/135/135 133/133/133
f 138/138/138 137/137/137 133/133/133
f 139/139/139 136/136/136 135/135/135
f 139/139/139 135/135/135 137/137/137
f 140/140/140 136/136/136 139/139/139
f 141/141/141 137/137/137 138/138/138
f 142/142/142 141/141/141 138/138/138
f 143/143/143 139/139/139 137/137/137
f 143/143/143 137/137/137 141/141/141
f 144/144/144 140/140/140 139/139/139
f 144/144/144 139/139/139 143/143/143
f 145/145/145 141/141/141 142/142/142
f 146/146/146 145/145/145 142/142/142
f 141/141/141 145/145/145 147/147/147
f 147/147/147 143/143/143 141/141/141
f 145/145/145 148/148/148 147/147/147
f 149/149/149 143/143/143 147/147/147
f 149/149/149 144/144/144 143/143/143
f 147/147/147 148/148/148 150/150/150
f 150/150/150 149/149/149 147/147/147
f 148/148/148 151/151/151 150/150/150
f 151/151/151 152/152/152 150/150/150
f 152/152/152 153/153/153 150/150/150
f 149/149/149 150/150/150 153/153/153
f 152/152/152 154/154/154 153/153/153
f 140/140/140 144/144/144 155/155/155
f 156/156/156 140/140/140 155/155/155
f 144/144/144 149/149/149 157/157/157
f 157/157/157 149/149/149 153/153/153
f 155/155/155 144/144/144 157/157/157
f 154/154/154 158/158/158 153/153/153
f 157/157/157 153/153/153 158/158/158
f 156/156/156 155/155/155 159/159/159
f 160/160/160 156/156/156 159/159/159
f 155/155/155 157/157/157 161/161/161
f 159/159/159 155/155/155 161/161/161
f 161/161/161 157/157/157 158/158/158
f 159/159/159 162/162/162 160/160/160
f 159/159/159 161/161/161 162/162/162
f 162/162/162 163/163/163 160/160/160
f 161/161/161 164/164/164 162/162/162
f 161/161/161 158/158/158 164/164/164
f 158/158/158 165/165/165 164/164/164
f 158/158/158 154/154/154 165/165/165
f 154/154/154 166/166/166 165/165/165
f 169/169/169 168/168/168 167/167/167
f 168/168/168 170/170/170 167/167/167
f 171/171/171 167/167/167 170/170/170
f 172/172/172 170/170/170 168/168/168
f 173/173/173 172/172/172 168/168/168
f 174/174/174 171/171/171 170/170/170
f 174/174/174 170/170/170 172/172/172
f 175/175/175 171/171/171 174/174/174
f 176/176/176 172/172/172 173/173/173
f 177/177/177 176/176/176 173/173/173
f 176/176/176 177/177/177 178/178/178
f 179/179/179 174/174/174 172/172/172
f 179/179/179 172/172/172 176/176/176
f 180/180/180 175/175/175 174/174/174
f 180/180/180 174/174/174 179/179/179
f 175/175/175 180/180/180 181/181/181
f 182/182/182 175/175/175 181/181/181
f 182/182/182 181/181/181 183/183/183
f 184/184/184 182/182/182 183/183/183
f 183/183/183 185/185/185 184/184/184
f 185/185/185 186/186/186 184/184/184
f 183/183/183 187/187/187 185/185/185
f 183/183/183 181/181/181 187/187/187
f 187/187/187 188/188/188 185/185/185
f 181/181/181 180/180/180 189/189/189
f 181/181/181 189/189/189 187/187/187
f 187/187/187 190/190/190 188/188/188
f 187/187/187 189/189/189 190/190/190
f 190/190/190 191/191/191 188/188/188
f 191/191/191 190/190/190 192/192/192
f 193/193/193 180/180/180 179/179/179
f 180/180/180 193/193/193 189/189/189
f 189/189/189 194/194/194 190/190/190
f 189/189/189 193/193/193 194/194/194
f 190/190/190 195/195/195 192/192/192
f 190/190/190 194/194/194 195/195/195
f 193/193/193 179/179/179 196/196/196
f 196/196/196 179/179/179 176/176/176
f 192/192/192 195/195/195 197/197/197
f 198/198/198 192/192/192 197/197/197
f 194/194/194 199/199/199 195/195/195
f 195/195/195 199/199/199 197/197/197
f 193/193/193 200/200/200 194/194/194
f 200/200/200 193/193/193 196/196/196
f 194/194/194 200/200/200 199/199/199
f 196/196/196 176/176/176 201/201/201
f 201/201/201 176/176/176 178/178/178
f 197/197/197 202/202/202 198/198/198
f 202/202/202 203/203/203 198/198/198
f 197/197/197 204/204/204 202/202/202
f 199/199/199 204/204/204 197/197/197
f 204/204/204 205/205/205 202/202/202
f 200/200/200 196/196/196 206/206/206
f 206/206/206 196/196/196 201/201/201
f 201/201/201 178/178/178 207/207/207
f 206/206/206 201/201/201 207/207/207
f 178/178/178 208/208/208 207/207/207
f 200/200/200 209/209/209 199/199/199
f 199/199/199 209/209/209 204/204/204
f 209/209/209 200/200/200 206/206/206
f 204/204/204 210/210/210 205/205/205
f 209/209/209 210/210/210 204/204/204
f 210/210/210 211/211/211 205/205/205
f 211/211/211 210/210/210 212/212/212
f 209/209/209 206/206/206 213/213/213
f 210/210/210 209/209/209 213/213/213
f 210/210/210 213/213/213 212/212/212
f 213/213/213 206/206/206 207/207/207
f 212/212/212 213/213/213 214/214/214
f 213/213/213 207/207/207 214/214/214
f 214/214/214 207/207/207 208/208/208
f 215/215/215 214/214/214 208/208/208
f 218/218/218 217/217/217 216/216/216
f 219/219/219 218/218/218 216/216/216
f 219/219/219 216/216/216 220/220/220
f 219/219/219 221/221/221 218/218/218
f 221/221/221 222/222/222 218/218/218
f 223/223/223 221/221/221 219/219/219
f 224/224/224 219/219/219 220/220/220
f 224/224/224 223/223/223 219/219/219
f 225/225/225 224/224/224 220/220/220
f 223/223/223 224/224/224 225/225/225
f 226/226/226 225/225/225 220/220/220
f 227/227/227 223/223/223 225/225/225
f 228/228/228 225/225/225 226/226/226
f 227/227/227 225/225/225 228/228/228
f 229/229/229 228/228/228 226/226/226
f 230/230/230 227/227/227 228/228/228
f 233/233/233 232/232/232 231/231/231
f 234/234/234 233/233/233 231/231/231
f 234/234/234 231/231/231 235/235/235
f 236/236/236 234/234/234 235/235/235
f 236/236/236 237/237/237 234/234/234
f 237/237/237 238/238/238 234/234/234
f 233/233/233 234/234/234 238/238/238
f 239/239/239 233/233/233 238/238/238
f 242/242/242 241/241/241 240/240/240
f 243/243/243 242/242/242 240/240/240
f 244/244/244 242/242/242 243/243/243
f 245/245/245 244/244/244 243/243/243
f 242/242/242 244/244/244 246/246/246
f 246/246/246 247/247/247 242/242/242
f 247/247/247 248/248/248 242/242/242
f 244/244/244 245/245/245 249/249/249
f 244/244/244 249/249/249 250/250/250
f 249/249/249 251/251/251 250/250/250
f 251/251/251 249/249/249 245/245/245
f 245/245/245 252/252/252 251/251/251
f 244/244/244 253/253/253 246/246/246
f 253/253/253 244/244/244 250/250/250
f 252/252/252 254/254/254 251/251/251
f 252/252/252 255/255/255 254/254/254
f 253/253/253 256/256/256 246/246/246
f 246/246/246 257/257/257 247/247/247
f 256/256/256 257/257/257 246/246/246
f 258/258/258 253/253/253 250/250/250
f 256/256/256 253/253/253 258/258/258
f 259/259/259 256/256/256 258/258/258
f 257/257/257 256/256/256 260/260/260
f 256/256/256 259/259/259 260/260/260
f 257/257/257 261/261/261 247/247/247
f 257/257/257 260/260/260 261/261/261
f 250/250/250 262/262/262 258/258/258
f 259/259/259 258/258/258 262/262/262
f 263/263/263 247/247/247 261/261/261
f 248/248/248 247/247/247 263/263/263
f 261/261/261 260/260/260 264/264/264
f 264/264/264 260/260/260 259/259/259
f 265/265/265 263/263/263 261/261/261
f 265/265/265 261/261/261 264/264/264
f 263/263/263 265/265/265 266/266/266
f 267/267/267 248/248/248 263/263/263
f 267/267/267 263/263/263 266/266/266
f 266/266/266 265/265/265 268/268/268
f 265/265/265 264/264/264 268/268/268
f 269/269/269 267/267/267 266/266/266
f 266/266/266 268/268/268 269/269/269
f 250/250/250 270/270/270 262/262/262
f 270/270/270 271/271/271 262/262/262
f 270/270/270 250/250/250 272/272/272
f 262/262/262 271/271/271 273/273/273
f 271/271/271 274/274/274 273/273/273
f 262/262/262 273/273/273 259/259/259
f 250/250/250 275/275/275 272/272/272
f 251/251/251 275/275/275 250/250/250
f 275/275/275 276/276/276 272/272/272
f 275/275/275 251/251/251 276/276/276
f 276/276/276 277/277/277 272/272/272
f 277/277/277 276/276/276 278/278/278
f 279/279/279 278/278/278 276/276/276
f 280/280/280 277/277/277 278/278/278
f 281/281/281 273/273/273 274/274/274
f 282/282/282 281/281/281 274/274/274
f 283/283/283 259/259/259 273/273/273
f 273/273/273 281/281/281 283/283/283
f 284/284/284 281/281/281 282/282/282
f 283/283/283 281/281/281 284/284/284
f 285/285/285 284/284/284 282/282/282
f 286/286/286 284/284/284 285/285/285
f 287/287/287 286/286/286 285/285/285
f 286/286/286 287/287/287 288/288/288
f 283/283/283 289/289/289 259/259/259
f 289/289/289 264/264/264 259/259/259
f 290/290/290 289/289/289 283/283/283
f 289/289/289 290/290/290 264/264/264
f 284/284/284 290/290/290 283/283/283
f 290/290/290 268/268/268 264/264/264
f 284/284/284 291/291/291 290/290/290
f 290/290/290 291/291/291 268/268/268
f 291/291/291 284/284/284 286/286/286
f 292/292/292 286/286/286 288/288/288
f 292/292/292 288/288/288 293/293/293
f 294/294/294 292/292/292 293/293/293
f 294/294/294 293/293/293 295/295/295
f 291/291/291 296/296/296 268/268/268
f 268/268/268 296/296/296 269/269/269
f 297/297/297 294/294/294 295/295/295
f 295/295/295 280/280/280 297/297/297
f 280/280/280 278/278/278 297/297/297
f 294/294/294 297/297/297 298/298/298
f 298/298/298 297/297/297 278/278/278
f 299/299/299 291/291/291 286/286/286
f 292/292/292 300/300/300 286/286/286
f 300/300/300 299/299/299 286/286/286
f 299/299/299 301/301/301 291/291/291
f 301/301/301 296/296/296 291/291/291
f 301/301/301 299/299/299 300/300/300
f 269/269/269 296/296/296 302/302/302
f 296/296/296 301/301/301 302/302/302
f 292/292/292 294/294/294 303/303/303
f 303/303/303 300/300/300 292/292/292
f 304/304/304 301/301/301 300/300/300
f 301/301/301 304/304/304 302/302/302
f 302/302/302 305/305/305 269/269/269
f 305/305/305 267/267/267 269/269/269
f 304/304/304 300/300/300 306/306/306
f 300/300/300 303/303/303 306/306/306
f 304/304/304 307/307/307 302/302/302
f 305/305/305 302/302/302 307/307/307
f 304/304/304 306/306/306 307/307/307
f 305/305/305 308/308/308 267/267/267
f 308/308/308 248/248/248 267/267/267
f 248/248/248 308/308/308 309/309/309
f 308/308/308 310/310/310 309/309/309
f 308/308/308 305/305/305 311/311/311
f 311/311/311 305/305/305 307/307/307
f 310/310/310 308/308/308 311/311/311
f 312/312/312 248/248/248 309/309/309
f 248/248/248 312/312/312 240/240/240
f 255/255/255 312/312/312 309/309/309
f 311/311/311 307/307/307 313/313/313
f 306/306/306 313/313/313 307/307/307
f 314/314/314 311/311/311 313/313/313
f 310/310/310 311/311/311 314/314/314
f 315/315/315 313/313/313 306/306/306
f 315/315/315 314/314/314 313/313/313
f 316/316/316 315/315/315 306/306/306
f 306/306/306 303/303/303 316/316/316
f 314/314/314 315/315/315 317/317/317
f 317/317/317 315/315/315 316/316/316
f 318/318/318 255/255/255 309/309/309
f 255/255/255 318/318/318 254/254/254
f 319/319/319 318/318/318 309/309/309
f 318/318/318 319/319/319 254/254/254
f 320/320/320 319/319/319 309/309/309
f 310/310/310 320/320/320 309/309/309
f 319/319/319 321/321/321 254/254/254
f 251/251/251 254/254/254 321/321/321
f 320/320/320 310/310/310 322/322/322
f 321/321/321 323/323/323 251/251/251
f 324/324/324 310/310/310 314/314/314
f 324/324/324 314/314/314 317/317/317
f 310/310/310 325/325/325 322/322/322
f 310/310/310 324/324/324 325/325/325
f 325/325/325 326/326/326 322/322/322
f 323/323/323 327/327/327 251/251/251
f 251/251/251 327/327/327 276/276/276
f 276/276/276 327/327/327 279/279/279
f 323/323/323 279/279/279 327/327/327
f 279/279/279 323/323/323 326/326/326
f 325/325/325 279/279/279 326/326/326
f 324/324/324 328/328/328 325/325/325
f 279/279/279 325/325/325 328/328/328
f 317/317/317 329/329/329 324/324/324
f 329/329/329 328/328/328 324/324/324
f 330/330/330 279/279/279 328/328/328
f 279/279/279 330/330/330 278/278/278
f 331/331/331 329/329/329 317/317/317
f 331/331/331 317/317/317 316/316/316
f 329/329/329 332/332/332 328/328/328
f 332/332/332 330/330/330 328/328/328
f 332/332/332 329/329/329 331/331/331
f 330/330/330 333/333/333 278/278/278
f 330/330/330 332/332/332 333/333/333
f 278/278/278 333/333/333 332/332/332
f 332/332/332 298/298/298 278/278/278
f 298/298/298 332/332/332 331/331/331
f 331/331/331 316/316/316 298/298/298
f 316/316/316 334/334/334 298/298/298
f 294/294/294 298/298/298 334/334/334
f 303/303/303 334/334/334 316/316/316
f 334/334/334 335/335/335 294/294/294
f 294/294/294 335/335/335 303/303/303
f 334/334/334 303/303/303 335/335/335
f 338/338/338 337/337/337 336/336/336
f 339/339/339 338/338/338 336/336/336
f 336/336/336 340/340/340 339/339/339
f 341/341/341 338/338/338 339/339/339
f 339/339/339 340/340/340 342/342/342
f 341/341/341 339/339/339 342/342/342
f 345/345/345 344/344/344 343/343/343
f 346/346/346 345/345/345 343/343/343
f 343/343/343 347/347/347 346/346/346
f 346/346/346 348/348/348 345/345/345
f 348/348/348 349/349/349 345/345/345
f 347/347/347 350/350/350 346/346/346
f 346/346/346 350/350/350 348/348/348
f 347/347/347 351/351/351 350/350/350
f 348/348/348 352/352/352 349/349/349
f 352/352/352 353/353/353 349/349/349
f 354/354/354 353/353/353 352/352/352
f 350/350/350 355/355/355 348/348/348
f 351/351/351 356/356/356 350/350/350
f 350/350/350 356/356/356 355/355/355
f 357/357/357 352/352/352 348/348/348
f 355/355/355 357/357/357 348/348/348
f 358/358/358 354/354/354 352/352/352
f 358/358/358 352/352/352 357/357/357
f 356/356/356 351/351/351 359/359/359
f 351/351/351 360/360/360 359/359/359
f 359/359/359 361/361/361 356/356/356
f 356/356/356 362/362/362 355/355/355
f 361/361/361 362/362/362 356/356/356
f 355/355/355 362/362/362 357/357/357
f 361/361/361 363/363/363 362/362/362
f 362/362/362 364/364/364 357/357/357
f 363/363/363 364/364/364 362/362/362
f 365/365/365 357/357/357 364/364/364
f 365/365/365 358/358/358 357/357/357
f 366/366/366 364/364/364 363/363/363
f 366/366/366 365/365/365 364/364/364
f 367/367/367 366/366/366 363/363/363
f 366/366/366 367/367/367 368/368/368
f 369/369/369 366/366/366 368/368/368
f 365/365/365 366/366/366 369/369/369
f 368/368/368 370/370/370 369/369/369
f 370/370/370 371/371/371 369/369/369
f 369/369/369 371/371/371 372/372/372
f 373/373/373 365/365/365 369/369/369
f 373/373/373 369/369/369 372/372/372
f 358/358/358 365/365/365 373/373/373
f 373/373/373 372/372/372 374/374/374
f 375/375/375 358/358/358 373/373/373
f 375/375/375 373/373/373 374/374/374
f 354/354/354 358/358/358 375/375/375
f 376/376/376 354/354/354 375/375/375
f 375/375/375 374/374/374 376/376/376
f 374/374/374 377/377/377 376/376/376
f 380/380/380 379/379/379 378/378/378
f 379/379/379 381/381/381 378/378/378
f 378/378/378 381/381/381 382/382/382
f 381/381/381 383/383/383 382/382/382
f 384/384/384 383/383/383 381/381/381
f 385/385/385 384/384/384 381/381/381
f 381/381/381 379/379/379 385/385/385
f 379/379/379 386/386/386 385/385/385
f 389/389/389 388/388/388 387/387/387
f 388/388/388 390/390/390 387/387/387
f 391/391/391 387/387/387 390/390/390
f 388/388/388 392/392/392 390/390/390
f 391/391/391 390/390/390 393/393/393
f 390/390/390 392/392/392 393/393/393
f 396/396/396 395/395/395 394/394/394
f 395/395/395 397/397/397 394/394/394
f 398/398/398 396/396/396 394/394/394
f 396/396/396 398/398/398 399/399/399
f 398/398/398 400/400/400 399/399/399
f 400/400/400 398/398/398 401/401/401
f 398/398/398 402/402/402 401/401/401
f 398/398/398 394/394/394 402/402/402
f 394/394/394 403/403/403 402/402/402
f 403/403/403 394/394/394 404/404/404
f 397/397/397 405/405/405 394/394/394
f 394/394/394 405/405/405 404/404/404
f 405/405/405 397/397/397 406/406/406
f 404/404/404 405/405/405 407/407/407
f 408/408/408 405/405/405 406/406/406
f 405/405/405 408/408/408 407/407/407
f 411/411/411 410/410/410 409/409/409
f 412/412/412 411/411/411 409/409/409
f 412/412/412 409/409/409 413/413/413
f 412/412/412 414/414/414 411/411/411
f 414/414/414 415/415/415 411/411/411
f 416/416/416 415/415/415 414/414/414
f 417/417/417 416/416/416 414/414/414
f 417/417/417 414/414/414 418/418/418
f 418/418/418 414/414/414 412/412/412
f 419/419/419 417/417/417 418/418/418
f 420/420/420 412/412/412 413/413/413
f 420/420/420 418/418/418 412/412/412
f 420/420/420 413/413/413 421/421/421
f 419/419/419 418/418/418 422/422/422
f 422/422/422 418/418/418 420/420/420
f 423/423/423 419/419/419 422/422/422
f 424/424/424 420/420/420 421/421/421
f 424/424/424 422/422/422 420/420/420
f 424/424/424 421/421/421 425/425/425
f 423/423/423 422/422/422 426/426/426
f 426/426/426 422/422/422 424/424/424
f 427/427/427 423/423/423 426/426/426
f 428/428/428 424/424/424 425/425/425
f 428/428/428 426/426/426 424/424/424
f 428/428/428 425/425/425 429/429/429
f 427/427/427 426/426/426 430/430/430
f 430/430/430 426/426/426 428/428/428
f 431/431/431 427/427/427 430/430/430
f 432/432/432 428/428/428 429/429/429
f 432/432/432 430/430/430 428/428/428
f 432/432/432 429/429/429 433/433/433
f 434/434/434 432/432/432 433/433/433
f 434/434/434 435/435/435 432/432/432
f 435/435/435 430/430/430 432/432/432
f 431/431/431 430/430/430 435/435/435
f 436/436/436 431/431/431 435/435/435
f 439/439/439 438/438/438 437/437/437
f 440/440/440 439/439/439 437/437/437
f 440/440/440 437/437/437 441/441/441
f 440/440/440 442/442/442 439/439/439
f 442/442/442 443/443/443 439/439/439
f 444/444/444 443/443/443 442/442/442
f 445/445/445 444/444/444 442/442/442
f 445/445/445 442/442/442 446/446/446
f 446/446/446 442/442/442 440/440/440
f 447/447/447 445/445/445 446/446/446
f 448/448/448 440/440/440 441/441/441
f 448/448/448 446/446/446 440/440/440
f 448/448/448 441/441/441 449/449/449
f 447/447/447 446/446/446 450/450/450
f 450/450/450 446/446/446 448/448/448
f 451/451/451 447/447/447 450/450/450
f 452/452/452 448/448/448 449/449/449
f 452/452/452 450/450/450 448/448/448
f 452/452/452 449/449/449 453/453/453
f 451/451/451 450/450/450 454/454/454
f 454/454/454 450/450/450 452/452/452
f 455/455/455 451/451/451 454/454/454
f 456/456/456 452/452/452 453/453/453
f 456/456/456 454/454/454 452/452/452
f 456/456/456 453/453/453 457/457/457
f 455/455/455 454/454/454 458/458/458
f 458/458/458 454/454/454 456/456/456
f 459/459/459 455/455/455 458/458/458
f 460/460/460 456/456/456 457/457/457
f 460/460/460 458/458/458 456/456/456
f 460/460/460 457/457/457 461/461/461
f 462/462/462 460/460/460 461/461/461
f 462/462/462 463/463/463 460/460/460
f 463/463/463 458/458/458 460/460/460
f 459/459/459 458/458/458 463/463/463
f 464/464/464 459/459/459 463/463/463
f 467/467/467 466/466/466 465/465/465
f 466/466/466 468/468/468 465/465/465
f 465/465/465 468/468/468 469/469/469
f 468/468/468 470/470/470 469/469/469
f 469/469/469 470/470/470 471/471/471
f 470/470/470 472/472/472 471/471/471
f 471/471/471 472/472/472 473/473/473
f 472/472/472 474/474/474 473/473/473
f 477/477/477 476/476/476 475/475/475
f 476/476/476 478/478/478 475/475/475
f 475/475/475 478/478/478 479/479/479
f 478/478/478 480/480/480 479/479/479
f 483/483/483 482/482/482 481/481/481
f 482/482/482 484/484/484 481/481/481
f 481/481/481 484/484/484 485/485/485
f 484/484/484 486/486/486 485/485/485
f 485/485/485 486/486/486 487/487/487
f 486/486/486 488/488/488 487/487/487
f 487/487/487 488/488/488 489/489/489
f 488/488/488 490/490/490 489/489/489
f 493/493/493 492/492/492 491/491/491
f 492/492/492 494/494/494 491/491/491
f 491/491/491 494/494/494 495/495/495
f 494/494/494 496/496/496 495/495/495
f 499/499/499 498/498/498 497/497/497
f 500/500/500 499/499/499 497/497/497
f 500/500/500 497/497/497 501/501/501
f 500/500/500 502/502/502 499/499/499
f 502/502/502 503/503/503 499/499/499
f 504/504/504 503/503/503 502/502/502
f 505/505/505 504/504/504 502/502/502
f 505/505/505 502/502/502 506/506/506
f 506/506/506 502/502/502 500/500/500
f 507/507/507 505/505/505 506/506/506
f 508/508/508 500/500/500 501/501/501
f 508/508/508 506/506/506 500/500/500
f 508/508/508 501/501/501 509/509/509
f 507/507/507 506/506/506 510/510/510
f 510/510/510 506/506/506 508/508/508
f 511/511/511 507/507/507 510/510/510
f 512/512/512 508/508/508 509/509/509
f 512/512/512 510/510/510 508/508/508
f 512/512/512 509/509/509 513/513/513
f 511/511/511 510/510/510 514/514/514
f 514/514/514 510/510/510 512/512/512
f 515/515/515 511/511/511 514/514/514
f 516/516/516 512/512/512 513/513/513
f 516/516/516 514/514/514 512/512/512
f 516/516/516 513/513/513 517/517/517
f 515/515/515 514/514/514 518/518/518
f 518/518/518 514/514/514 516/516/516
f 519/519/519 515/515/515 518/518/518
f 520/520/520 516/516/516 517/517/517
f 520/520/520 518/518/518 516/516/516
f 520/520/520 517/517/517 521/521/521
f 522/522/522 520/520/520 521/521/521
f 522/522/522 523/523/523 520/520/520
f 523/523/523 518/518/518 520/520/520
f 519/519/519 518/518/518 523/523/523
f 524/524/524 519/519/519 523/523/523
f 527/527/527 526/526/526 525/525/525
f 528/528/528 527/527/527 525/525/525
f 528/528/528 525/525/525 529/529/529
f 528/528/528 530/530/530 527/527/527
f 530/530/530 531/531/531 527/527/527
f 532/532/532 531/531/531 530/530/530
f 533/533/533 532/532/532 530/530/530
f 533/533/533 530/530/530 534/534/534
f 534/534/534 530/530/530 528/528/528
f 535/535/535 533/533/533 534/534/534
f 536/536/536 528/528/528 529/529/529
f 536/536/536 534/534/534 528/528/528
f 536/536/536 529/529/529 537/537/537
f 535/535/535 534/534/534 538/538/538
f 538/538/538 534/534/534 536/536/536
f 539/539/539 535/535/535 538/538/538
f 540/540/540 536/536/536 537/537/537
f 540/540/540 538/538/538 536/536/536
f 540/540/540 537/537/537 541/541/541
f 539/539/539 538/538/538 542/542/542
f 542/542/542 538/538/538 540/540/540
f 543/543/543 539/539/539 542/542/542
f 544/544/544 540/540/540 541/541/541
f 544/544/544 542/542/542 540/540/540
f 544/544/544 541/541/541 545/545/545
f 543/543/543 542/542/542 546/546/546
f 546/546/546 542/542/542 544/544/544
f 547/547/547 543/543/543 546/546/546
f 548/548/548 544/544/544 545/545/545
f 548/548/548 546/546/546 544/544/544
f 548/548/548 545/545/545 549/549/549
f 550/550/550 548/548/548 549/549/549
f 550/550/550 551/551/551 548/548/548
f 551/551/551 546/546/546 548/548/548
f 547/547/547 546/546/546 551/551/551
f 552/552/552 547/547/547 551/551/551
f 555/555/555 554/554/554 553/553/553
f 554/554/554 556/556/556 553/553/553
f 553/553/553 556/556/556 557/557/557
f 556/556/556 558/558/558 557/557/557
f 557/557/557 558/558/558 559/559/559
f 558/558/558 560/560/560 559/559/559
f 559/559/559 560/560/560 561/561/561
f 560/560/560 562/562/562 561/561/561
f 565/565/565 564/564/564 563/563/563
f 564/564/564 566/566/566 563/563/563
f 563/563/563 566/566/566 567/567/567
f 566/566/566 568/568/568 567/567/567
f 571/571/571 570/570/570 569/569/569
f 570/570/570 572/572/572 569/569/569
f 569/569/569 572/572/572 573/573/573
f 572/572/572 574/574/574 573/573/573
f 573/573/573 574/574/574 575/575/575
f 574/574/574 576/576/576 575/575/575
f 575/575/575 576/576/576 577/577/577
f 576/576/576 578/578/578 577/577/577
f 581/581/581 580/580/580 579/579/579
f 580/580/580 582/582/582 579/579/579
f 579/579/579 582/582/582 583/583/583
f 582/582/582 584/584/584 583/583/583

