mtllib material.mtl
usemtl material_0
v -0.27620000 0.65266000 0.05599000
v -0.27686000 0.65269000 0.05227000
v -0.27686000 0.65341000 0.05227000
v -0.27620000 0.65201000 0.05599000
v -0.27686000 0.63921000 0.05227000
v -0.27620000 0.63987000 0.05599000
v -0.27686000 0.63832000 0.05227000
v -0.27620000 0.63908000 0.05599000
v -0.20994000 0.65266000 0.05599000
v -0.21060000 0.65269000 0.05227000
v -0.21060000 0.65341000 0.05227000
v -0.20994000 0.65201000 0.05599000
v -0.21060000 0.63921000 0.05227000
v -0.20994000 0.63987000 0.05599000
v -0.21060000 0.63832000 0.05227000
v -0.20994000 0.63908000 0.05599000
v -0.21126000 0.63908000 0.05599000
v -0.21060000 0.63921000 0.05227000
v -0.21060000 0.63832000 0.05227000
v -0.21126000 0.63987000 0.05599000
v -0.21060000 0.65269000 0.05227000
v -0.21126000 0.65201000 0.05599000
v -0.21060000 0.65341000 0.05227000
v -0.21126000 0.65266000 0.05599000
v -0.22451000 0.65266000 0.05599000
v -0.22482000 0.65341000 0.05227000
v -0.22385000 0.65341000 0.05227000
v -0.22538000 0.65266000 0.05599000
v -0.23616000 0.65341000 0.05227000
v -0.23559000 0.65266000 0.05599000
v -0.23710000 0.65341000 0.05227000
v -0.23644000 0.65266000 0.05599000
v -0.24969000 0.63908000 0.05599000
v -0.24957000 0.63832000 0.05227000
v -0.25036000 0.63832000 0.05227000
v -0.24899000 0.63908000 0.05599000
v -0.23766000 0.63832000 0.05227000
v -0.23827000 0.63908000 0.05599000
v -0.23710000 0.63832000 0.05227000
v -0.23777000 0.63908000 0.05599000
v -0.25102000 0.65266000 0.05599000
v -0.25099000 0.65341000 0.05227000
v -0.25036000 0.65341000 0.05227000
v -0.25159000 0.65266000 0.05599000
v -0.26284000 0.65341000 0.05227000
v -0.26225000 0.65266000 0.05599000
v -0.26361000 0.65341000 0.05227000
v -0.26295000 0.65266000 0.05599000
v -0.27620000 0.63908000 0.05599000
v -0.27615000 0.63832000 0.05227000
v -0.27686000 0.63832000 0.05227000
v -0.27556000 0.63908000 0.05599000
v -0.26413000 0.63832000 0.05227000
v -0.26474000 0.63908000 0.05599000
v -0.26361000 0.63832000 0.05227000
v -0.26427000 0.63908000 0.05599000
v -0.26427000 0.65266000 0.05599000
v -0.26413000 0.65341000 0.05227000
v -0.26361000 0.65341000 0.05227000
v -0.26474000 0.65266000 0.05599000
v -0.27615000 0.65341000 0.05227000
v -0.27556000 0.65266000 0.05599000
v -0.27686000 0.65341000 0.05227000
v -0.27620000 0.65266000 0.05599000
v -0.26427000 0.63908000 0.05599000
v -0.26361000 0.63921000 0.05227000
v -0.26361000 0.63832000 0.05227000
v -0.26427000 0.63987000 0.05599000
v -0.26361000 0.65269000 0.05227000
v -0.26427000 0.65201000 0.05599000
v -0.26361000 0.65341000 0.05227000
v -0.26427000 0.65266000 0.05599000
v -0.25102000 0.63908000 0.05599000
v -0.25036000 0.63921000 0.05227000
v -0.25036000 0.63832000 0.05227000
v -0.25102000 0.63987000 0.05599000
v -0.25036000 0.65269000 0.05227000
v -0.25102000 0.65201000 0.05599000
v -0.25036000 0.65341000 0.05227000
v -0.25102000 0.65266000 0.05599000
v -0.26295000 0.65266000 0.05599000
v -0.26361000 0.65269000 0.05227000
v -0.26361000 0.65341000 0.05227000
v -0.26295000 0.65201000 0.05599000
v -0.26361000 0.63921000 0.05227000
v -0.26295000 0.63987000 0.05599000
v -0.26361000 0.63832000 0.05227000
v -0.26295000 0.63908000 0.05599000
v -0.26295000 0.63908000 0.05599000
v -0.26284000 0.63832000 0.05227000
v -0.26361000 0.63832000 0.05227000
v -0.26225000 0.63908000 0.05599000
v -0.25099000 0.63832000 0.05227000
v -0.25159000 0.63908000 0.05599000
v -0.25036000 0.63832000 0.05227000
v -0.25102000 0.63908000 0.05599000
v -0.24969000 0.65266000 0.05599000
v -0.25036000 0.65269000 0.05227000
v -0.25036000 0.65341000 0.05227000
v -0.24969000 0.65201000 0.05599000
v -0.25036000 0.63921000 0.05227000
v -0.24969000 0.63987000 0.05599000
v -0.25036000 0.63832000 0.05227000
v -0.24969000 0.63908000 0.05599000
v -0.23777000 0.65266000 0.05599000
v -0.23766000 0.65341000 0.05227000
v -0.23710000 0.65341000 0.05227000
v -0.23827000 0.65266000 0.05599000
v -0.24957000 0.65341000 0.05227000
v -0.24899000 0.65266000 0.05599000
v -0.25036000 0.65341000 0.05227000
v -0.24969000 0.65266000 0.05599000
v -0.23777000 0.63908000 0.05599000
v -0.23710000 0.63921000 0.05227000
v -0.23710000 0.63832000 0.05227000
v -0.23777000 0.63987000 0.05599000
v -0.23710000 0.65269000 0.05227000
v -0.23777000 0.65201000 0.05599000
v -0.23710000 0.65341000 0.05227000
v -0.23777000 0.65266000 0.05599000
v -0.22451000 0.63908000 0.05599000
v -0.22385000 0.63921000 0.05227000
v -0.22385000 0.63832000 0.05227000
v -0.22451000 0.63987000 0.05599000
v -0.22385000 0.65269000 0.05227000
v -0.22451000 0.65201000 0.05599000
v -0.22385000 0.65341000 0.05227000
v -0.22451000 0.65266000 0.05599000
v -0.23644000 0.63908000 0.05599000
v -0.23616000 0.63832000 0.05227000
v -0.23710000 0.63832000 0.05227000
v -0.23559000 0.63908000 0.05599000
v -0.22482000 0.63832000 0.05227000
v -0.22538000 0.63908000 0.05599000
v -0.22385000 0.63832000 0.05227000
v -0.22451000 0.63908000 0.05599000
v -0.23644000 0.65266000 0.05599000
v -0.23710000 0.65269000 0.05227000
v -0.23710000 0.65341000 0.05227000
v -0.23644000 0.65201000 0.05599000
v -0.23710000 0.63921000 0.05227000
v -0.23644000 0.63987000 0.05599000
v -0.23710000 0.63832000 0.05227000
v -0.23644000 0.63908000 0.05599000
v -0.22319000 0.63908000 0.05599000
v -0.22319000 0.63832000 0.05227000
v -0.22385000 0.63832000 0.05227000
v -0.22259000 0.63908000 0.05599000
v -0.21115000 0.63832000 0.05227000
v -0.21176000 0.63908000 0.05599000
v -0.21060000 0.63832000 0.05227000
v -0.21126000 0.63908000 0.05599000
v -0.22319000 0.65266000 0.05599000
v -0.22385000 0.65269000 0.05227000
v -0.22385000 0.65341000 0.05227000
v -0.22319000 0.65201000 0.05599000
v -0.22385000 0.63921000 0.05227000
v -0.22319000 0.63987000 0.05599000
v -0.22385000 0.63832000 0.05227000
v -0.22319000 0.63908000 0.05599000
v -0.21126000 0.65266000 0.05599000
v -0.21115000 0.65341000 0.05227000
v -0.21060000 0.65341000 0.05227000
v -0.21176000 0.65266000 0.05599000
v -0.22319000 0.65341000 0.05227000
v -0.22259000 0.65266000 0.05599000
v -0.22385000 0.65341000 0.05227000
v -0.22319000 0.65266000 0.05599000
v -0.19801000 0.65266000 0.05599000
v -0.19771000 0.65341000 0.05227000
v -0.19735000 0.65341000 0.05227000
v -0.19834000 0.65266000 0.05599000
v -0.21000000 0.65341000 0.05227000
v -0.20940000 0.65266000 0.05599000
v -0.21060000 0.65341000 0.05227000
v -0.20994000 0.65266000 0.05599000
v -0.19801000 0.63908000 0.05599000
v -0.19735000 0.63921000 0.05227000
v -0.19735000 0.63832000 0.05227000
v -0.19801000 0.63987000 0.05599000
v -0.19735000 0.65269000 0.05227000
v -0.19801000 0.65201000 0.05599000
v -0.19735000 0.65341000 0.05227000
v -0.19801000 0.65266000 0.05599000
v -0.20994000 0.63908000 0.05599000
v -0.21000000 0.63832000 0.05227000
v -0.21060000 0.63832000 0.05227000
v -0.20940000 0.63908000 0.05599000
v -0.19771000 0.63832000 0.05227000
v -0.19834000 0.63908000 0.05599000
v -0.19735000 0.63832000 0.05227000
v -0.19801000 0.63908000 0.05599000
v -0.20940000 0.63908000 0.05599000
v -0.20994000 0.63908000 0.05599000
v -0.20994000 0.63987000 0.05599000
v -0.20912000 0.64018000 0.05638000
v -0.19834000 0.63908000 0.05599000
v -0.20994000 0.65201000 0.05599000
v -0.19861000 0.64018000 0.05638000
v -0.19801000 0.63908000 0.05599000
v -0.20912000 0.65171000 0.05638000
v -0.20994000 0.65266000 0.05599000
v -0.20940000 0.65266000 0.05599000
v -0.19861000 0.65171000 0.05638000
v -0.19834000 0.65266000 0.05599000
v -0.19801000 0.65201000 0.05599000
v -0.19801000 0.65266000 0.05599000
v -0.19861000 0.64018000 0.05638000
v -0.19861000 0.65171000 0.05638000
v -0.22259000 0.63908000 0.05599000
v -0.22319000 0.63908000 0.05599000
v -0.22319000 0.63987000 0.05599000
v -0.22232000 0.64018000 0.05638000
v -0.21176000 0.63908000 0.05599000
v -0.22319000 0.65201000 0.05599000
v -0.21203000 0.64018000 0.05638000
v -0.21126000 0.63908000 0.05599000
v -0.21126000 0.63987000 0.05599000
v -0.22232000 0.65171000 0.05638000
v -0.22319000 0.65266000 0.05599000
v -0.22259000 0.65266000 0.05599000
v -0.21203000 0.65171000 0.05638000
v -0.21126000 0.65201000 0.05599000
v -0.21176000 0.65266000 0.05599000
v -0.21126000 0.65266000 0.05599000
v -0.23559000 0.63908000 0.05599000
v -0.23644000 0.63908000 0.05599000
v -0.23644000 0.63987000 0.05599000
v -0.23534000 0.64018000 0.05638000
v -0.22538000 0.63908000 0.05599000
v -0.23644000 0.65201000 0.05599000
v -0.22564000 0.64018000 0.05638000
v -0.22451000 0.63908000 0.05599000
v -0.22451000 0.63987000 0.05599000
v -0.23534000 0.65171000 0.05638000
v -0.23644000 0.65266000 0.05599000
v -0.23559000 0.65266000 0.05599000
v -0.22564000 0.65171000 0.05638000
v -0.22451000 0.65201000 0.05599000
v -0.22538000 0.65266000 0.05599000
v -0.22451000 0.65266000 0.05599000
v -0.24899000 0.63908000 0.05599000
v -0.24969000 0.63908000 0.05599000
v -0.24969000 0.63987000 0.05599000
v -0.24872000 0.64018000 0.05638000
v -0.23827000 0.63908000 0.05599000
v -0.24969000 0.65201000 0.05599000
v -0.23854000 0.64018000 0.05638000
v -0.23777000 0.63908000 0.05599000
v -0.23777000 0.63987000 0.05599000
v -0.24872000 0.65171000 0.05638000
v -0.24969000 0.65266000 0.05599000
v -0.24899000 0.65266000 0.05599000
v -0.23854000 0.65171000 0.05638000
v -0.23777000 0.65201000 0.05599000
v -0.23827000 0.65266000 0.05599000
v -0.23777000 0.65266000 0.05599000
v -0.26225000 0.63908000 0.05599000
v -0.26295000 0.63908000 0.05599000
v -0.26295000 0.63987000 0.05599000
v -0.26199000 0.64018000 0.05638000
v -0.25159000 0.63908000 0.05599000
v -0.26295000 0.65201000 0.05599000
v -0.25185000 0.64018000 0.05638000
v -0.25102000 0.63908000 0.05599000
v -0.25102000 0.63987000 0.05599000
v -0.26199000 0.65171000 0.05638000
v -0.26295000 0.65266000 0.05599000
v -0.26225000 0.65266000 0.05599000
v -0.25185000 0.65171000 0.05638000
v -0.25102000 0.65201000 0.05599000
v -0.25159000 0.65266000 0.05599000
v -0.25102000 0.65266000 0.05599000
v -0.27556000 0.63908000 0.05599000
v -0.27620000 0.63908000 0.05599000
v -0.27620000 0.63987000 0.05599000
v -0.27529000 0.64018000 0.05638000
v -0.26474000 0.63908000 0.05599000
v -0.27620000 0.65201000 0.05599000
v -0.26501000 0.64018000 0.05638000
v -0.26427000 0.63908000 0.05599000
v -0.26427000 0.63987000 0.05599000
v -0.27529000 0.65171000 0.05638000
v -0.27620000 0.65266000 0.05599000
v -0.27556000 0.65266000 0.05599000
v -0.26501000 0.65171000 0.05638000
v -0.26427000 0.65201000 0.05599000
v -0.26474000 0.65266000 0.05599000
v -0.26427000 0.65266000 0.05599000
vn -0.67720400 0.66180560 0.32157130
vn -0.98455270 0.00000000 0.17508790
vn -0.98455250 0.00000000 0.17508970
vn -0.95248530 0.00000000 0.30458490
vn -0.98455260 0.00000000 0.17508840
vn -0.95213620 -0.00154882 0.30567040
vn -0.98455140 0.00000000 0.17509610
vn -0.98455140 0.00000000 0.17509610
vn -0.73327010 0.60241730 0.31529080
vn -0.98454570 0.00000000 0.17512770
vn -0.98454610 0.00000000 0.17512550
vn -0.95755710 0.00000000 0.28824370
vn -0.98454570 0.00000000 0.17512760
vn -0.95724860 -0.00142637 0.28926290
vn -0.98454620 0.00000000 0.17512510
vn -0.98454620 0.00000000 0.17512500
vn 0.81020500 -0.49902850 0.30747080
vn 0.98455260 0.00000000 0.17508840
vn 0.98455150 0.00000000 0.17509550
vn 0.95991050 0.00000000 0.28030650
vn 0.98455270 0.00000000 0.17508790
vn 0.95975100 0.00129389 0.28084960
vn 0.98455260 0.00000000 0.17508900
vn 0.98455260 0.00000000 0.17508900
vn 0.00000000 0.98009290 0.19853930
vn 0.00000000 0.98009630 0.19852260
vn 0.00000000 0.98009290 0.19853930
vn 0.00179843 0.94157730 0.33679220
vn 0.00000000 0.98009630 0.19852290
vn 0.00000000 0.94184550 0.33604640
vn 0.00000000 0.98009220 0.19854280
vn -0.01768221 0.95698630 0.28959400
vn 0.00000000 -0.98009390 0.19853470
vn 0.00000000 -0.98009820 0.19851260
vn 0.00000000 -0.98009390 0.19853470
vn -0.00173629 -0.93270390 0.36063890
vn 0.00000000 -0.98009870 0.19851060
vn 0.00000000 -0.93303130 0.35979530
vn 0.00000000 -0.98009970 0.19850600
vn 0.80521390 -0.50630680 0.30868090
vn 0.00000000 0.98009120 0.19854810
vn 0.00000000 0.98009100 0.19854880
vn 0.00000000 0.98009120 0.19854810
vn 0.00149617 0.94194970 0.33575090
vn 0.00000000 0.98009130 0.19854740
vn 0.00000000 0.94215520 0.33517680
vn 0.00000000 0.98009490 0.19852950
vn -0.65013330 0.68744390 0.32364730
vn 0.00000000 -0.98010050 0.19850250
vn 0.00000000 -0.98009950 0.19850670
vn 0.00000000 -0.98010050 0.19850250
vn -0.00165275 -0.93279360 0.36040740
vn 0.00000000 -0.98009950 0.19850710
vn 0.00000000 -0.93311240 0.35958460
vn 0.00000000 -0.98009900 0.19850980
vn 0.82184150 -0.48169160 0.30422020
vn 0.00000000 0.98008910 0.19855840
vn 0.00000000 0.98009240 0.19854160
vn 0.00000000 0.98008910 0.19855840
vn 0.00136895 0.94209330 0.33534790
vn 0.00000000 0.98009260 0.19854060
vn 0.00000000 0.94226960 0.33485510
vn 0.00000000 0.98009310 0.19853820
vn -0.67720400 0.66180560 0.32157130
vn 0.82184150 -0.48169160 0.30422020
vn 0.98455260 0.00000000 0.17508840
vn 0.98455150 0.00000000 0.17509550
vn 0.96111380 0.00000000 0.27615240
vn 0.98455270 0.00000000 0.17508790
vn 0.96096150 0.00126334 0.27667910
vn 0.98455260 0.00000000 0.17508900
vn 0.98455260 0.00000000 0.17508900
vn 0.77443210 -0.54817430 0.31584770
vn 0.98455260 0.00000000 0.17508840
vn 0.98455150 0.00000000 0.17509550
vn 0.95635370 0.00000000 0.29221160
vn 0.98455270 0.00000000 0.17508790
vn 0.95616890 0.00137907 0.29281210
vn 0.98455260 0.00000000 0.17508900
vn 0.98455260 0.00000000 0.17508900
vn -0.65013330 0.68744390 0.32364730
vn -0.98454570 0.00000000 0.17512770
vn -0.98454610 0.00000000 0.17512550
vn -0.94978110 0.00000000 0.31291520
vn -0.98454570 0.00000000 0.17512760
vn -0.94941140 -0.00160108 0.31403090
vn -0.98454620 0.00000000 0.17512510
vn -0.98454620 0.00000000 0.17512500
vn 0.00000000 -0.98009490 0.19852950
vn 0.00000000 -0.98009780 0.19851570
vn 0.00000000 -0.98009490 0.19852950
vn -0.00172795 -0.93266930 0.36072830
vn 0.00000000 -0.98009780 0.19851540
vn 0.00000000 -0.93298230 0.35992230
vn 0.00000000 -0.98009510 0.19852800
vn 0.77443210 -0.54817430 0.31584770
vn -0.64344970 0.69346740 0.32415320
vn -0.98454570 0.00000000 0.17512770
vn -0.98454610 0.00000000 0.17512550
vn -0.94895410 0.00000000 0.31541420
vn -0.98454570 0.00000000 0.17512760
vn -0.94858130 -0.00161199 0.31652940
vn -0.98454620 0.00000000 0.17512510
vn -0.98454620 0.00000000 0.17512500
vn 0.00000000 0.98009970 0.19850600
vn 0.00000000 0.98009550 0.19852680
vn 0.00000000 0.98009970 0.19850600
vn 0.00141951 0.94201820 0.33555900
vn 0.00000000 0.98009490 0.19852970
vn 0.00000000 0.94219760 0.33505800
vn 0.00000000 0.98009060 0.19855080
vn -0.64344970 0.69346740 0.32415320
vn 0.80521390 -0.50630680 0.30868090
vn 0.98454570 0.00000000 0.17512760
vn 0.98454630 0.00000000 0.17512440
vn 0.95954010 0.00000000 0.28157220
vn 0.98454570 0.00000000 0.17512770
vn 0.95937520 0.00130816 0.28213020
vn 0.98454630 0.00000000 0.17512470
vn 0.98454630 0.00000000 0.17512470
vn 0.98454630 0.00000000 0.17512440
vn 0.98454570 0.00000000 0.17512760
vn 0.98454630 0.00000000 0.17512440
vn 0.98454570 0.00000000 0.17512770
vn 0.98454570 0.00000000 0.17512770
vn 0.98454570 0.00000000 0.17512770
vn 0.98454630 0.00000000 0.17512470
vn 0.98454630 0.00000000 0.17512470
vn 0.00000000 -0.98009770 0.19851600
vn 0.00000000 -0.98009340 0.19853660
vn 0.00000000 -0.98009770 0.19851600
vn -0.00193708 -0.93231230 0.36164890
vn 0.00000000 -0.98009350 0.19853640
vn 0.00000000 -0.93262010 0.36085980
vn 0.00000000 -0.98009820 0.19851300
vn 0.01964392 -0.95169520 0.30641530
vn -0.98455250 0.00000000 0.17508970
vn -0.98455270 0.00000000 0.17508790
vn -0.98455250 0.00000000 0.17508970
vn -0.98455270 0.00000000 0.17508790
vn -0.98455260 0.00000000 0.17508840
vn -0.98455270 0.00000000 0.17508820
vn -0.98455140 0.00000000 0.17509610
vn -0.98455140 0.00000000 0.17509610
vn 0.00000000 -0.98009700 0.19851930
vn 0.00000000 -0.98009900 0.19850890
vn 0.00000000 -0.98009700 0.19851930
vn -0.00160068 -0.93281900 0.36034160
vn 0.00000000 -0.98009880 0.19850990
vn 0.00000000 -0.93311540 0.35957720
vn 0.00000000 -0.98009280 0.19854010
vn 0.81020500 -0.49902850 0.30747080
vn -0.70016280 0.63859870 0.31931780
vn -0.98454570 0.00000000 0.17512770
vn -0.98454610 0.00000000 0.17512550
vn -0.95475240 0.00000000 0.29740200
vn -0.98454570 0.00000000 0.17512760
vn -0.95441890 -0.00150240 0.29846670
vn -0.98454620 0.00000000 0.17512510
vn -0.98454620 0.00000000 0.17512500
vn 0.00000000 0.98009040 0.19855170
vn 0.00000000 0.98009230 0.19854250
vn 0.00000000 0.98009040 0.19855170
vn 0.00139620 0.94209580 0.33534110
vn 0.00000000 0.98009190 0.19854410
vn 0.00000000 0.94229470 0.33478470
vn 0.00000000 0.98008530 0.19857660
vn -0.70016280 0.63859870 0.31931780
vn 0.00000000 0.98009880 0.19851000
vn 0.00000000 0.98009500 0.19852890
vn 0.00000000 0.98009880 0.19851000
vn 0.00115914 0.94233250 0.33467620
vn 0.00000000 0.98009510 0.19852810
vn 0.00000000 0.94246410 0.33430750
vn 0.00000000 0.98010020 0.19850330
vn -0.73327010 0.60241730 0.31529080
vn 0.88804200 -0.36457860 0.28011390
vn 0.98454570 0.00000000 0.17512760
vn 0.98454630 0.00000000 0.17512440
vn 0.96735110 0.00000000 0.25343990
vn 0.98454570 0.00000000 0.17512770
vn 0.96724780 0.00102793 0.25383170
vn 0.98454630 0.00000000 0.17512470
vn 0.98454630 0.00000000 0.17512470
vn 0.00000000 -0.98009600 0.19852450
vn 0.00000000 -0.98009490 0.19852930
vn 0.00000000 -0.98009600 0.19852450
vn -0.00150455 -0.93300270 0.35986650
vn 0.00000000 -0.98009490 0.19852950
vn 0.00000000 -0.93332830 0.35902420
vn 0.00000000 -0.98009530 0.19852740
vn 0.88804200 -0.36457860 0.28011390
vn -0.00150455 -0.93300270 0.35986650
vn 0.00000000 0.00000000 1.00000000
vn -0.95724860 -0.00142637 0.28926290
vn -0.03782348 -0.03266940 0.99875030
vn 0.00000000 -0.93332830 0.35902420
vn -0.95755710 0.00000000 0.28824370
vn 0.03984937 -0.03295276 0.99866220
vn 0.88804200 -0.36457860 0.28011390
vn -0.03794257 0.03340093 0.99872150
vn -0.73327010 0.60241730 0.31529080
vn 0.00000000 0.94246410 0.33430750
vn 0.04032807 0.03405074 0.99860610
vn 0.00115914 0.94233250 0.33467620
vn 0.96724780 0.00102793 0.25383170
vn 0.00000000 0.00000000 1.00000000
vn 0.03984937 -0.03295276 0.99866220
vn 0.04032807 0.03405074 0.99860610
vn -0.00160068 -0.93281900 0.36034160
vn 0.00000000 0.00000000 1.00000000
vn -0.95441890 -0.00150240 0.29846670
vn -0.03807195 -0.03244844 0.99874810
vn 0.00000000 -0.93311540 0.35957720
vn -0.95475240 0.00000000 0.29740200
vn 0.03881760 -0.03243336 0.99871980
vn 0.81020500 -0.49902850 0.30747080
vn 0.95991050 0.00000000 0.28030650
vn -0.03816543 0.03314378 0.99872150
vn -0.70016280 0.63859870 0.31931780
vn 0.00000000 0.94229470 0.33478470
vn 0.03934151 0.03356724 0.99866190
vn 0.95975100 0.00129389 0.28084960
vn 0.00139620 0.94209580 0.33534110
vn 0.00000000 0.00000000 1.00000000
vn -0.00193708 -0.93231230 0.36164890
vn 0.00000000 0.00000000 1.00000000
vn -0.32017840 -0.00896019 0.94731490
vn -0.03826897 -0.03167663 0.99876520
vn 0.00000000 -0.93262010 0.36085980
vn -0.32687950 0.00000000 0.94506600
vn 0.03779521 -0.03130777 0.99879490
vn 0.01964392 -0.95169520 0.30641530
vn 0.32215380 0.00000000 0.94668730
vn -0.03826045 0.03223657 0.99874770
vn -0.01768221 0.95698630 0.28959400
vn 0.00000000 0.94184550 0.33604640
vn 0.03842214 0.03248536 0.99873350
vn 0.31603220 0.00812374 0.94871370
vn 0.00179843 0.94157730 0.33679220
vn 0.00000000 0.00000000 1.00000000
vn -0.00173629 -0.93270390 0.36063890
vn 0.00000000 0.00000000 1.00000000
vn -0.94858130 -0.00161199 0.31652940
vn -0.03757908 -0.03218840 0.99877510
vn 0.00000000 -0.93303130 0.35979530
vn -0.94895410 0.00000000 0.31541420
vn 0.03915020 -0.03235126 0.99870960
vn 0.80521390 -0.50630680 0.30868090
vn 0.95954010 0.00000000 0.28157220
vn -0.03762634 0.03283487 0.99875240
vn -0.64344970 0.69346740 0.32415320
vn 0.00000000 0.94219760 0.33505800
vn 0.03968181 0.03348178 0.99865130
vn 0.95937520 0.00130816 0.28213020
vn 0.00141951 0.94201820 0.33555900
vn 0.00000000 0.00000000 1.00000000
vn -0.00172795 -0.93266930 0.36072830
vn 0.00000000 0.00000000 1.00000000
vn -0.94941140 -0.00160108 0.31403090
vn -0.03786272 -0.03218748 0.99876440
vn 0.00000000 -0.93298230 0.35992230
vn -0.94978110 0.00000000 0.31291520
vn 0.03869446 -0.03217827 0.99873290
vn 0.77443210 -0.54817430 0.31584770
vn 0.95635370 0.00000000 0.29221160
vn -0.03791511 0.03283346 0.99874140
vn -0.65013330 0.68744390 0.32364730
vn 0.00000000 0.94215520 0.33517680
vn 0.03924158 0.03332042 0.99867400
vn 0.95616890 0.00137907 0.29281210
vn 0.00149617 0.94194970 0.33575090
vn 0.00000000 0.00000000 1.00000000
vn -0.00165275 -0.93279360 0.36040740
vn 0.00000000 0.00000000 1.00000000
vn -0.95213620 -0.00154882 0.30567040
vn -0.03776975 -0.03235868 0.99876240
vn 0.00000000 -0.93311240 0.35958460
vn -0.95248530 0.00000000 0.30458490
vn 0.03913822 -0.03248250 0.99870570
vn 0.82184150 -0.48169160 0.30422020
vn 0.96111380 0.00000000 0.27615240
vn -0.03784420 0.03303436 0.99873750
vn -0.67720400 0.66180560 0.32157130
vn 0.00000000 0.94226960 0.33485510
vn 0.03965769 0.03360749 0.99864800
vn 0.96096150 0.00126334 0.27667910
vn 0.00136895 0.94209330 0.33534790
vn 0.00000000 0.00000000 1.00000000
vt 20.22029000 0.65881540
vt 20.21442000 0.65887120
vt 20.21442000 0.66000390
vt 20.22029000 0.65779630
vt 20.21442000 0.63763680
vt 20.22029000 0.63868530
vt 20.21442000 0.63623890
vt 20.22029000 0.63742720
vt 20.22944000 0.65881550
vt 20.22357000 0.65887130
vt 20.22357000 0.66000400
vt 20.22944000 0.65779630
vt 20.22357000 0.63763680
vt 20.22944000 0.63868520
vt 20.22357000 0.63623890
vt 20.22944000 0.63742720
vt 20.23272000 0.65230720
vt 20.23858000 0.65251680
vt 20.23858000 0.65111900
vt 20.23272000 0.65356530
vt 20.23858000 0.67375130
vt 20.23272000 0.67267630
vt 20.23858000 0.67488380
vt 20.23272000 0.67369560
vt 20.44858000 0.94742830
vt 20.45446000 0.94790720
vt 20.45446000 0.94638250
vt 20.44858000 0.94880040
vt 20.45446000 0.96580580
vt 20.44858000 0.96490960
vt 20.45446000 0.96729870
vt 20.44858000 0.96625310
vt 20.41787000 0.96625610
vt 20.41199000 0.96606100
vt 20.41199000 0.96730260
vt 20.41787000 0.96513890
vt 20.41199000 0.94726440
vt 20.41787000 0.94822170
vt 20.41199000 0.94637880
vt 20.41787000 0.94742490
vt 20.45773000 0.94742480
vt 20.46361000 0.94737750
vt 20.46361000 0.94637900
vt 20.45773000 0.94832420
vt 20.46361000 0.96608500
vt 20.45773000 0.96516040
vt 20.46361000 0.96730230
vt 20.45773000 0.96625570
vt 20.47276000 0.96625960
vt 20.46687000 0.96618200
vt 20.46687000 0.96730600
vt 20.47276000 0.96524790
vt 20.46687000 0.94720020
vt 20.47276000 0.94816420
vt 20.46687000 0.94637530
vt 20.47276000 0.94742160
vt 20.47602000 0.94742470
vt 20.48190000 0.94720340
vt 20.48190000 0.94637880
vt 20.47602000 0.94816710
vt 20.48190000 0.96617890
vt 20.47602000 0.96524510
vt 20.48190000 0.96730250
vt 20.47602000 0.96625640
vt 20.24187000 0.65230880
vt 20.24773000 0.65251840
vt 20.24773000 0.65112080
vt 20.24187000 0.65356680
vt 20.24773000 0.67374970
vt 20.24187000 0.67267480
vt 20.24773000 0.67488210
vt 20.24187000 0.67369390
vt 20.25101000 0.65230390
vt 20.25688000 0.65251360
vt 20.25688000 0.65111540
vt 20.25101000 0.65356250
vt 20.25688000 0.67375460
vt 20.25101000 0.67267920
vt 20.25688000 0.67488750
vt 20.25101000 0.67369880
vt 20.26603000 0.67369560
vt 20.26016000 0.67375140
vt 20.26016000 0.67488390
vt 20.26603000 0.67267640
vt 20.26016000 0.65251670
vt 20.26603000 0.65356530
vt 20.26016000 0.65111890
vt 20.26603000 0.65230710
vt 20.49105000 0.96683040
vt 20.48517000 0.96665950
vt 20.48517000 0.96787690
vt 20.49105000 0.96573500
vt 20.48517000 0.94795210
vt 20.49105000 0.94889870
vt 20.48517000 0.94695350
vt 20.49105000 0.94799940
vt 20.27517000 0.67369560
vt 20.26931000 0.67375140
vt 20.26931000 0.67488390
vt 20.27517000 0.67267630
vt 20.26931000 0.65251680
vt 20.27517000 0.65356530
vt 20.26931000 0.65111890
vt 20.27517000 0.65230720
vt 20.42114000 0.94742480
vt 20.42702000 0.94726430
vt 20.42702000 0.94637870
vt 20.42114000 0.94822170
vt 20.42702000 0.96606110
vt 20.42114000 0.96513890
vt 20.42702000 0.96730270
vt 20.42114000 0.96625610
vt 20.27845000 0.94340910
vt 20.28432000 0.94361880
vt 20.28432000 0.94222110
vt 20.27845000 0.94466700
vt 20.28432000 0.96485010
vt 20.27845000 0.96377530
vt 20.28432000 0.96598250
vt 20.27845000 0.96479450
vt 20.28760000 0.94340910
vt 20.29346000 0.94361880
vt 20.29346000 0.94222110
vt 20.28760000 0.94466700
vt 20.29346000 0.96485010
vt 20.28760000 0.96377530
vt 20.29346000 0.96598250
vt 20.28760000 0.96479450
vt 20.50019000 0.96682770
vt 20.49431000 0.96638040
vt 20.49431000 0.96787330
vt 20.50019000 0.96548410
vt 20.49431000 0.94848180
vt 20.50019000 0.94937500
vt 20.49431000 0.94695710
vt 20.50019000 0.94800290
vt 20.30261000 0.96479770
vt 20.29675000 0.96485330
vt 20.29675000 0.96598600
vt 20.30261000 0.96377810
vt 20.29675000 0.94361570
vt 20.30261000 0.94466420
vt 20.29675000 0.94221760
vt 20.30261000 0.94340590
vt 20.50934000 0.96682750
vt 20.50346000 0.96682620
vt 20.50346000 0.96787340
vt 20.50934000 0.96588500
vt 20.50346000 0.94782410
vt 20.50934000 0.94878290
vt 20.50346000 0.94695710
vt 20.50934000 0.94800260
vt 20.31176000 0.96479450
vt 20.30589000 0.96485010
vt 20.30589000 0.96598250
vt 20.31176000 0.96377530
vt 20.30589000 0.94361880
vt 20.31176000 0.94466700
vt 20.30589000 0.94222110
vt 20.31176000 0.94340910
vt 20.51261000 0.96456110
vt 20.51849000 0.96438220
vt 20.51849000 0.96351490
vt 20.51261000 0.96534140
vt 20.51849000 0.98339100
vt 20.51261000 0.98244950
vt 20.51849000 0.98443850
vt 20.51261000 0.98339240
vt 20.43028000 0.94742510
vt 20.43617000 0.94695430
vt 20.43617000 0.94637870
vt 20.43028000 0.94794260
vt 20.43617000 0.96636040
vt 20.43028000 0.96540860
vt 20.43617000 0.96730240
vt 20.43028000 0.96625610
vt 20.31538000 0.94579730
vt 20.32144000 0.94601390
vt 20.32144000 0.94457030
vt 20.31538000 0.94709660
vt 20.32144000 0.96794380
vt 20.31538000 0.96683360
vt 20.32144000 0.96911330
vt 20.31538000 0.96788630
vt 20.44531000 0.96624980
vt 20.43943000 0.96635390
vt 20.43943000 0.96729530
vt 20.44531000 0.96540250
vt 20.43943000 0.94696100
vt 20.44531000 0.94794880
vt 20.43943000 0.94638600
vt 20.44531000 0.94743170
vt 20.32135000 0.94562800
vt 20.32050000 0.94562800
vt 20.32050000 0.94688700
vt 20.32179000 0.94736510
vt 20.33878000 0.94562800
vt 20.32050000 0.96601190
vt 20.33834000 0.94736510
vt 20.33930000 0.94562800
vt 20.32179000 0.96553350
vt 20.32050000 0.96703180
vt 20.32135000 0.96703180
vt 20.33834000 0.96553350
vt 20.33878000 0.96703180
vt 20.33930000 0.96601190
vt 20.33930000 0.96703180
vt 20.31476000 0.94759040
vt 20.31476000 0.96634010
vt 20.33606000 0.94901140
vt 20.33511000 0.94901140
vt 20.33511000 0.95027420
vt 20.33648000 0.95075370
vt 20.35318000 0.94901140
vt 20.33511000 0.96945520
vt 20.35275000 0.95075370
vt 20.35396000 0.94901140
vt 20.35396000 0.95027420
vt 20.33648000 0.96897600
vt 20.33511000 0.97047840
vt 20.33606000 0.97047840
vt 20.35275000 0.96897600
vt 20.35396000 0.96945520
vt 20.35318000 0.97047840
vt 20.35396000 0.97047840
vt 20.35111000 0.94903460
vt 20.34977000 0.94903460
vt 20.34977000 0.95029470
vt 20.35151000 0.95077320
vt 20.36720000 0.94903460
vt 20.34977000 0.96943420
vt 20.36680000 0.95077320
vt 20.36858000 0.94903460
vt 20.36858000 0.95029470
vt 20.35151000 0.96895600
vt 20.34977000 0.97045510
vt 20.35111000 0.97045510
vt 20.36680000 0.96895600
vt 20.36858000 0.96943420
vt 20.36720000 0.97045510
vt 20.36858000 0.97045510
vt 20.36551000 0.94901750
vt 20.36439000 0.94901750
vt 20.36439000 0.95027960
vt 20.36593000 0.95075890
vt 20.38243000 0.94901750
vt 20.36439000 0.96944970
vt 20.38201000 0.95075890
vt 20.38323000 0.94901750
vt 20.38323000 0.95027960
vt 20.36593000 0.96897070
vt 20.36439000 0.97047220
vt 20.36551000 0.97047220
vt 20.38201000 0.96897070
vt 20.38323000 0.96944970
vt 20.38243000 0.97047220
vt 20.38323000 0.97047220
vt 20.38012000 0.94902180
vt 20.37903000 0.94902180
vt 20.37903000 0.95028340
vt 20.38054000 0.95076250
vt 20.39696000 0.94902180
vt 20.37903000 0.96944580
vt 20.39654000 0.95076250
vt 20.39786000 0.94902180
vt 20.39786000 0.95028340
vt 20.38054000 0.96896700
vt 20.37903000 0.97046790
vt 20.38012000 0.97046790
vt 20.39654000 0.96896700
vt 20.39786000 0.96944580
vt 20.39696000 0.97046790
vt 20.39786000 0.97046790
vt 20.39466000 0.94901170
vt 20.39365000 0.94901170
vt 20.39365000 0.95027450
vt 20.39509000 0.95075400
vt 20.41176000 0.94901170
vt 20.39365000 0.96945490
vt 20.41133000 0.95075400
vt 20.41250000 0.94901170
vt 20.41250000 0.95027450
vt 20.39509000 0.96897570
vt 20.39365000 0.97047800
vt 20.39466000 0.97047800
vt 20.41133000 0.96897570
vt 20.41250000 0.96945490
vt 20.41176000 0.97047800
vt 20.41250000 0.97047800
f 3/3/3 2/2/2 1/1/1
f 2/2/2 4/4/4 1/1/1
f 2/2/2 5/5/5 4/4/4
f 5/5/5 6/6/6 4/4/4
f 5/5/5 7/7/7 6/6/6
f 7/7/7 8/8/8 6/6/6
f 11/11/11 10/10/10 9/9/9
f 10/10/10 12/12/12 9/9/9
f 10/10/10 13/13/13 12/12/12
f 13/13/13 14/14/14 12/12/12
f 13/13/13 15/15/15 14/14/14
f 15/15/15 16/16/16 14/14/14
f 19/19/19 18/18/18 17/17/17
f 18/18/18 20/20/20 17/17/17
f 18/18/18 21/21/21 20/20/20
f 21/21/21 22/22/22 20/20/20
f 21/21/21 23/23/23 22/22/22
f 23/23/23 24/24/24 22/22/22
f 27/27/27 26/26/26 25/25/25
f 26/26/26 28/28/28 25/25/25
f 26/26/26 29/29/29 28/28/28
f 29/29/29 30/30/30 28/28/28
f 29/29/29 31/31/31 30/30/30
f 31/31/31 32/32/32 30/30/30
f 35/35/35 34/34/34 33/33/33
f 34/34/34 36/36/36 33/33/33
f 34/34/34 37/37/37 36/36/36
f 37/37/37 38/38/38 36/36/36
f 37/37/37 39/39/39 38/38/38
f 39/39/39 40/40/40 38/38/38
f 43/43/43 42/42/42 41/41/41
f 42/42/42 44/44/44 41/41/41
f 42/42/42 45/45/45 44/44/44
f 45/45/45 46/46/46 44/44/44
f 45/45/45 47/47/47 46/46/46
f 47/47/47 48/48/48 46/46/46
f 51/51/51 50/50/50 49/49/49
f 50/50/50 52/52/52 49/49/49
f 50/50/50 53/53/53 52/52/52
f 53/53/53 54/54/54 52/52/52
f 53/53/53 55/55/55 54/54/54
f 55/55/55 56/56/56 54/54/54
f 59/59/59 58/58/58 57/57/57
f 58/58/58 60/60/60 57/57/57
f 58/58/58 61/61/61 60/60/60
f 61/61/61 62/62/62 60/60/60
f 61/61/61 63/63/63 62/62/62
f 63/63/63 64/64/64 62/62/62
f 67/67/67 66/66/66 65/65/65
f 66/66/66 68/68/68 65/65/65
f 66/66/66 69/69/69 68/68/68
f 69/69/69 70/70/70 68/68/68
f 69/69/69 71/71/71 70/70/70
f 71/71/71 72/72/72 70/70/70
f 75/75/75 74/74/74 73/73/73
f 74/74/74 76/76/76 73/73/73
f 74/74/74 77/77/77 76/76/76
f 77/77/77 78/78/78 76/76/76
f 77/77/77 79/79/79 78/78/78
f 79/79/79 80/80/80 78/78/78
f 83/83/83 82/82/82 81/81/81
f 82/82/82 84/84/84 81/81/81
f 82/82/82 85/85/85 84/84/84
f 85/85/85 86/86/86 84/84/84
f 85/85/85 87/87/87 86/86/86
f 87/87/87 88/88/88 86/86/86
f 91/91/91 90/90/90 89/89/89
f 90/90/90 92/92/92 89/89/89
f 90/90/90 93/93/93 92/92/92
f 93/93/93 94/94/94 92/92/92
f 93/93/93 95/95/95 94/94/94
f 95/95/95 96/96/96 94/94/94
f 99/99/99 98/98/98 97/97/97
f 98/98/98 100/100/100 97/97/97
f 98/98/98 101/101/101 100/100/100
f 101/101/101 102/102/102 100/100/100
f 101/101/101 103/103/103 102/102/102
f 103/103/103 104/104/104 102/102/102
f 107/107/107 106/106/106 105/105/105
f 106/106/106 108/108/108 105/105/105
f 106/106/106 109/109/109 108/108/108
f 109/109/109 110/110/110 108/108/108
f 109/109/109 111/111/111 110/110/110
f 111/111/111 112/112/112 110/110/110
f 115/115/115 114/114/114 113/113/113
f 114/114/114 116/116/116 113/113/113
f 114/114/114 117/117/117 116/116/116
f 117/117/117 118/118/118 116/116/116
f 117/117/117 119/119/119 118/118/118
f 119/119/119 120/120/120 118/118/118
f 123/123/123 122/122/122 121/121/121
f 122/122/122 124/124/124 121/121/121
f 122/122/122 125/125/125 124/124/124
f 125/125/125 126/126/126 124/124/124
f 125/125/125 127/127/127 126/126/126
f 127/127/127 128/128/128 126/126/126
f 131/131/131 130/130/130 129/129/129
f 130/130/130 132/132/132 129/129/129
f 130/130/130 133/133/133 132/132/132
f 133/133/133 134/134/134 132/132/132
f 133/133/133 135/135/135 134/134/134
f 135/135/135 136/136/136 134/134/134
f 139/139/139 138/138/138 137/137/137
f 138/138/138 140/140/140 137/137/137
f 138/138/138 141/141/141 140/140/140
f 141/141/141 142/142/142 140/140/140
f 141/141/141 143/143/143 142/142/142
f 143/143/143 144/144/144 142/142/142
f 147/147/147 146/146/146 145/145/145
f 146/146/146 148/148/148 145/145/145
f 146/146/146 149/149/149 148/148/148
f 149/149/149 150/150/150 148/148/148
f 149/149/149 151/151/151 150/150/150
f 151/151/151 152/152/152 150/150/150
f 155/155/155 154/154/154 153/153/153
f 154/154/154 156/156/156 153/153/153
f 154/154/154 157/157/157 156/156/156
f 157/157/157 158/158/158 156/156/156
f 157/157/157 159/159/159 158/158/158
f 159/159/159 160/160/160 158/158/158
f 163/163/163 162/162/162 161/161/161
f 162/162/162 164/164/164 161/161/161
f 162/162/162 165/165/165 164/164/164
f 165/165/165 166/166/166 164/164/164
f 165/165/165 167/167/167 166/166/166
f 167/167/167 168/168/168 166/166/166
f 171/171/171 170/170/170 169/169/169
f 170/170/170 172/172/172 169/169/169
f 170/170/170 173/173/173 172/172/172
f 173/173/173 174/174/174 172/172/172
f 173/173/173 175/175/175 174/174/174
f 175/175/175 176/176/176 174/174/174
f 179/179/179 178/178/178 177/177/177
f 178/178/178 180/180/180 177/177/177
f 178/178/178 181/181/181 180/180/180
f 181/181/181 182/182/182 180/180/180
f 181/181/181 183/183/183 182/182/182
f 183/183/183 184/184/184 182/182/182
f 187/187/187 186/186/186 185/185/185
f 186/186/186 188/188/188 185/185/185
f 186/186/186 189/189/189 188/188/188
f 189/189/189 190/190/190 188/188/188
f 189/189/189 191/191/191 190/190/190
f 191/191/191 192/192/192 190/190/190
f 195/195/195 194/194/194 193/193/193
f 196/196/196 195/195/195 193/193/193
f 193/193/193 197/197/197 196/196/196
f 195/195/195 196/196/196 198/198/198
f 197/197/197 199/199/199 196/196/196
f 199/199/199 197/197/197 200/200/200
f 196/196/196 201/201/201 198/198/198
f 196/196/196 199/199/199 201/201/201
f 202/202/202 198/198/198 201/201/201
f 203/203/203 202/202/202 201/201/201
f 199/199/199 204/204/204 201/201/201
f 201/201/201 204/204/204 203/203/203
f 204/204/204 205/205/205 203/203/203
f 205/205/205 204/204/204 206/206/206
f 207/207/207 205/205/205 206/206/206
f 180/180/180 208/208/208 177/177/177
f 208/208/208 180/180/180 209/209/209
f 180/180/180 182/182/182 209/209/209
f 212/212/212 211/211/211 210/210/210
f 213/213/213 212/212/212 210/210/210
f 210/210/210 214/214/214 213/213/213
f 212/212/212 213/213/213 215/215/215
f 214/214/214 216/216/216 213/213/213
f 216/216/216 214/214/214 217/217/217
f 218/218/218 216/216/216 217/217/217
f 213/213/213 219/219/219 215/215/215
f 213/213/213 216/216/216 219/219/219
f 220/220/220 215/215/215 219/219/219
f 221/221/221 220/220/220 219/219/219
f 216/216/216 218/218/218 222/222/222
f 216/216/216 222/222/222 219/219/219
f 219/219/219 222/222/222 221/221/221
f 218/218/218 223/223/223 222/222/222
f 222/222/222 224/224/224 221/221/221
f 224/224/224 222/222/222 223/223/223
f 225/225/225 224/224/224 223/223/223
f 228/228/228 227/227/227 226/226/226
f 229/229/229 228/228/228 226/226/226
f 226/226/226 230/230/230 229/229/229
f 228/228/228 229/229/229 231/231/231
f 230/230/230 232/232/232 229/229/229
f 232/232/232 230/230/230 233/233/233
f 234/234/234 232/232/232 233/233/233
f 229/229/229 235/235/235 231/231/231
f 229/229/229 232/232/232 235/235/235
f 236/236/236 231/231/231 235/235/235
f 237/237/237 236/236/236 235/235/235
f 232/232/232 234/234/234 238/238/238
f 232/232/232 238/238/238 235/235/235
f 235/235/235 238/238/238 237/237/237
f 234/234/234 239/239/239 238/238/238
f 238/238/238 240/240/240 237/237/237
f 240/240/240 238/238/238 239/239/239
f 241/241/241 240/240/240 239/239/239
f 244/244/244 243/243/243 242/242/242
f 245/245/245 244/244/244 242/242/242
f 242/242/242 246/246/246 245/245/245
f 244/244/244 245/245/245 247/247/247
f 246/246/246 248/248/248 245/245/245
f 248/248/248 246/246/246 249/249/249
f 250/250/250 248/248/248 249/249/249
f 245/245/245 251/251/251 247/247/247
f 245/245/245 248/248/248 251/251/251
f 252/252/252 247/247/247 251/251/251
f 253/253/253 252/252/252 251/251/251
f 248/248/248 250/250/250 254/254/254
f 248/248/248 254/254/254 251/251/251
f 251/251/251 254/254/254 253/253/253
f 250/250/250 255/255/255 254/254/254
f 254/254/254 256/256/256 253/253/253
f 256/256/256 254/254/254 255/255/255
f 257/257/257 256/256/256 255/255/255
f 260/260/260 259/259/259 258/258/258
f 261/261/261 260/260/260 258/258/258
f 258/258/258 262/262/262 261/261/261
f 260/260/260 261/261/261 263/263/263
f 262/262/262 264/264/264 261/261/261
f 264/264/264 262/262/262 265/265/265
f 266/266/266 264/264/264 265/265/265
f 261/261/261 267/267/267 263/263/263
f 261/261/261 264/264/264 267/267/267
f 268/268/268 263/263/263 267/267/267
f 269/269/269 268/268/268 267/267/267
f 264/264/264 266/266/266 270/270/270
f 264/264/264 270/270/270 267/267/267
f 267/267/267 270/270/270 269/269/269
f 266/266/266 271/271/271 270/270/270
f 270/270/270 272/272/272 269/269/269
f 272/272/272 270/270/270 271/271/271
f 273/273/273 272/272/272 271/271/271
f 276/276/276 275/275/275 274/274/274
f 277/277/277 276/276/276 274/274/274
f 274/274/274 278/278/278 277/277/277
f 276/276/276 277/277/277 279/279/279
f 278/278/278 280/280/280 277/277/277
f 280/280/280 278/278/278 281/281/281
f 282/282/282 280/280/280 281/281/281
f 277/277/277 283/283/283 279/279/279
f 277/277/277 280/280/280 283/283/283
f 284/284/284 279/279/279 283/283/283
f 285/285/285 284/284/284 283/283/283
f 280/280/280 282/282/282 286/286/286
f 280/280/280 286/286/286 283/283/283
f 283/283/283 286/286/286 285/285/285
f 282/282/282 287/287/287 286/286/286
f 286/286/286 288/288/288 285/285/285
f 288/288/288 286/286/286 287/287/287
f 289/289/289 288/288/288 287/287/287

