mtllib dishwasher_FP1.mtl
v -0.27391 0.0122 0.01141
v -0.27642 0.01606 0.00704
v -0.27391 0.01606 0.0105
v -0.27686 0.0122 0.0075
v -0.27642 0.01606 0.00092
v -0.27391 -0.01348 0.01141
v -0.27686 0.0122 1E-05
v -0.27686 -0.01348 0.0075
v -0.27391 -0.01605 0.0105
v -0.27686 -0.01348 1E-05
v -0.27642 -0.01605 0.00704
v -0.27642 -0.01605 0.00092
v -0.27391 -0.01605 0.00092
v -0.27642 -0.01605 0.00092
v -0.27642 -0.01605 0.00704
v -0.27391 -0.01605 0.0105
v -0.25827 -0.01605 0.001
v -0.25836 -0.01605 0.01042
v -0.22954 -0.01605 0.01871
v -0.22942 -0.01605 0.00902
v -0.20051 -0.01605 0.02595
v -0.20443 -0.01605 0.03436
v -0.17146 -0.01605 0.05051
v -0.1754 -0.01605 0.05894
v -0.1754 -0.01605 0.05894
v -0.14963 -0.01605 0.07292
v -0.14573 -0.01605 0.06457
v -0.12148 -0.01605 0.07201
v -0.12148 -0.01605 0.08134
v -0.09069 -0.01605 0.07821
v -0.09069 -0.01605 0.08758
v -0.06064 -0.01605 0.09277
v -0.06064 -0.01605 0.08337
v -0.03038 -0.01605 0.09621
v -0.03038 -0.01605 0.08678
v 0 -0.01605 0.08841
v 0 -0.01605 0.09788
v 0.03039 -0.01605 0.09621
v 0.03039 -0.01605 0.08678
v 0.06064 -0.01605 0.09277
v 0.06065 -0.01605 0.08337
v 0.09069 -0.01605 0.08758
v 0.0907 -0.01605 0.07821
v 0.12149 -0.01605 0.08134
v 0.12149 -0.01605 0.07201
v 0.14964 -0.01605 0.07292
v 0.14574 -0.01605 0.06457
v 0.17541 -0.01605 0.05894
v 0.17147 -0.01605 0.05051
v 0.17541 -0.01605 0.05894
v 0.20444 -0.01605 0.03436
v 0.20052 -0.01605 0.02595
v 0.22954 -0.01605 0.01871
v 0.22943 -0.01605 0.00902
v 0.25837 -0.01605 0.01042
v 0.25828 -0.01605 0.001
v 0.27392 -0.01605 0.0105
v 0.27392 -0.01605 0.00092
v 0.27643 -0.01605 0.00704
v 0.27643 -0.01605 0.00092
v -0.27391 0.01606 0.0105
v -0.27642 0.01606 0.00704
v -0.27642 0.01606 0.00092
v -0.27391 0.01606 0.00092
v -0.25844 0.01606 0.01042
v -0.25834 0.01606 0.001
v -0.22953 0.01606 0.00895
v -0.22966 0.01606 0.01863
v -0.20443 0.01606 0.03436
v -0.20051 0.01606 0.02595
v -0.17539 0.01606 0.05895
v -0.17145 0.01606 0.05052
v -0.17539 0.01606 0.05895
v -0.14572 0.01606 0.06458
v -0.14961 0.01606 0.07292
v -0.12148 0.01606 0.08134
v -0.12148 0.01606 0.07201
v -0.09065 0.01606 0.08758
v -0.09065 0.01606 0.07822
v -0.06063 0.01606 0.08337
v -0.06062 0.01606 0.09277
v -0.03037 0.01606 0.08678
v -0.03037 0.01606 0.09621
v 0 0.01606 0.09788
v 0 0.01606 0.08841
v 0.03038 0.01606 0.08678
v 0.03038 0.01606 0.09621
v 0.06063 0.01606 0.08337
v 0.06063 0.01606 0.09277
v 0.09066 0.01606 0.07822
v 0.09066 0.01606 0.08758
v 0.12149 0.01606 0.08134
v 0.12149 0.01606 0.07201
v 0.14573 0.01606 0.06458
v 0.14962 0.01606 0.07292
v 0.17146 0.01606 0.05052
v 0.1754 0.01606 0.05895
v 0.20444 0.01606 0.03436
v 0.1754 0.01606 0.05895
v 0.20052 0.01606 0.02595
v 0.22967 0.01606 0.01863
v 0.22954 0.01606 0.00895
v 0.25835 0.01606 0.001
v 0.25845 0.01606 0.01042
v 0.27392 0.01606 0.00092
v 0.27392 0.01606 0.0105
v 0.27643 0.01606 0.00092
v 0.27643 0.01606 0.00704
v -0.27391 0.01606 0.00092
v -0.27642 0.01606 0.00092
v -0.27686 0.0122 1E-05
v -0.27391 0.0122 1E-05
v -0.27686 -0.01348 1E-05
v -0.25834 0.01606 0.001
v -0.27391 -0.01348 1E-05
v -0.27642 -0.01605 0.00092
v -0.27391 -0.01605 0.00092
v -0.25814 0.0122 1E-05
v -0.25814 -0.01348 1E-05
v -0.25827 -0.01605 0.001
v -0.22942 -0.01605 0.00902
v -0.22982 0.0122 0.00766
v -0.22953 0.01606 0.00895
v -0.20051 0.01606 0.02595
v -0.22977 -0.01348 0.00769
v -0.20006 0.0122 0.02499
v -0.17145 0.01606 0.05052
v -0.17098 0.0122 0.0496
v -0.20006 -0.01348 0.02499
v -0.20051 -0.01605 0.02595
v -0.17098 -0.01348 0.0496
v -0.17146 -0.01605 0.05051
v -0.14528 -0.01348 0.06365
v -0.14528 0.0122 0.06365
v -0.17145 0.01606 0.05052
v -0.14572 0.01606 0.06458
v -0.12148 0.01606 0.07201
v -0.12148 0.0122 0.07097
v -0.09065 0.01606 0.07822
v -0.14573 -0.01605 0.06457
v -0.17146 -0.01605 0.05051
v -0.12148 -0.01348 0.07097
v -0.12148 -0.01605 0.07201
v -0.09047 0.0122 0.07723
v -0.0905 -0.01348 0.07723
v -0.09069 -0.01605 0.07821
v -0.06064 -0.01605 0.08337
v -0.06062 -0.01348 0.08237
v -0.03038 -0.01605 0.08678
v -0.06062 0.0122 0.08237
v -0.06063 0.01606 0.08337
v -0.03049 -0.01348 0.08578
v -0.03052 0.0122 0.08578
v -0.03037 0.01606 0.08678
v 0 0.01606 0.08841
v 0 -0.01348 0.08744
v 0 -0.01605 0.08841
v 0.03039 -0.01605 0.08678
v 0 0.0122 0.08744
v 0.0305 -0.01348 0.08578
v 0.06065 -0.01605 0.08337
v 0.0305 0.0122 0.08578
v 0.03038 0.01606 0.08678
v 0.06062 -0.01348 0.08237
v 0.0907 -0.01605 0.07821
v 0.06062 0.0122 0.08237
v 0.06063 0.01606 0.08337
v 0.0905 -0.01348 0.07723
v 0.12149 -0.01605 0.07201
v 0.0905 0.0122 0.07723
v 0.09066 0.01606 0.07822
v 0.12149 -0.01348 0.07097
v 0.14574 -0.01605 0.06457
v 0.12149 0.0122 0.07097
v 0.12149 0.01606 0.07201
v 0.14528 -0.01348 0.06365
v 0.17147 -0.01605 0.05051
v 0.17099 -0.01348 0.04959
v 0.14529 0.0122 0.06365
v 0.14573 0.01606 0.06458
v 0.17099 0.0122 0.04959
v 0.17146 0.01606 0.05052
v 0.20007 -0.01348 0.02499
v 0.20052 -0.01605 0.02595
v 0.17147 -0.01605 0.05051
v 0.22943 -0.01605 0.00902
v 0.20007 0.0122 0.02499
v 0.17146 0.01606 0.05052
v 0.20052 0.01606 0.02595
v 0.22978 -0.01348 0.00769
v 0.25828 -0.01605 0.001
v 0.22983 0.0122 0.00766
v 0.22954 0.01606 0.00895
v 0.25815 -0.01348 1E-05
v 0.27392 -0.01605 0.00092
v 0.25815 0.0122 1E-05
v 0.25835 0.01606 0.001
v 0.27392 -0.01348 1E-05
v 0.27643 -0.01605 0.00092
v 0.27687 -0.01348 1E-05
v 0.27392 0.0122 1E-05
v 0.27392 0.01606 0.00092
v 0.27687 0.0122 1E-05
v 0.27643 0.01606 0.00092
v 0.27392 0.0122 0.01141
v 0.27392 0.01606 0.0105
v 0.27643 0.01606 0.00704
v 0.27687 0.0122 0.0075
v 0.27643 0.01606 0.00092
v 0.27392 -0.01348 0.01141
v 0.27687 0.0122 1E-05
v 0.27687 -0.01348 0.0075
v 0.27392 -0.01605 0.0105
v 0.27687 -0.01348 1E-05
v 0.27643 -0.01605 0.00704
v 0.27643 -0.01605 0.00092
v -0.25836 -0.01605 0.01042
v -0.27391 -0.01605 0.0105
v -0.27391 -0.01348 0.01141
v -0.25821 -0.01348 0.01141
v -0.27391 0.0122 0.01141
v -0.22997 -0.01348 0.01957
v -0.22954 -0.01605 0.01871
v -0.20443 -0.01605 0.03436
v -0.25821 0.0122 0.01141
v -0.27391 0.01606 0.0105
v -0.25844 0.01606 0.01042
v -0.22966 0.01606 0.01863
v -0.23002 0.0122 0.01954
v -0.20488 -0.01348 0.03533
v -0.1754 -0.01605 0.05894
v -0.20488 0.0122 0.03533
v -0.20443 0.01606 0.03436
v -0.17581 -0.01348 0.05992
v -0.17581 0.0122 0.05992
v -0.17539 0.01606 0.05895
v -0.14961 0.01606 0.07292
v -0.15005 -0.01348 0.07386
v -0.14963 -0.01605 0.07292
v -0.12148 -0.01605 0.08134
v -0.15005 0.0122 0.07386
v -0.12148 -0.01348 0.08238
v -0.09069 -0.01605 0.08758
v -0.12148 0.0122 0.08238
v -0.12148 0.01606 0.08134
v -0.0905 -0.01348 0.08863
v -0.09047 0.0122 0.08864
v -0.09065 0.01606 0.08758
v -0.06062 0.01606 0.09277
v -0.06062 0.0122 0.09378
v -0.03037 0.01606 0.09621
v -0.06062 -0.01348 0.09377
v -0.06064 -0.01605 0.09277
v -0.03052 0.0122 0.09719
v -0.03049 -0.01348 0.09719
v -0.03038 -0.01605 0.09621
v 0 -0.01605 0.09788
v 0 0.0122 0.09885
v 0 0.01606 0.09788
v 0.03038 0.01606 0.09621
v 0 -0.01348 0.09885
v 0.03052 0.0122 0.09719
v 0.06063 0.01606 0.09277
v 0.0305 -0.01348 0.09719
v 0.03039 -0.01605 0.09621
v 0.06062 0.0122 0.09378
v 0.09066 0.01606 0.08758
v 0.06062 -0.01348 0.09377
v 0.06064 -0.01605 0.09277
v 0.09048 0.0122 0.08864
v 0.12149 0.01606 0.08134
v 0.0905 -0.01348 0.08863
v 0.09069 -0.01605 0.08758
v 0.12149 0.0122 0.08238
v 0.14962 0.01606 0.07292
v 0.12149 -0.01348 0.08238
v 0.12149 -0.01605 0.08134
v 0.15006 0.0122 0.07386
v 0.1754 0.01606 0.05895
v 0.15005 -0.01348 0.07386
v 0.14964 -0.01605 0.07292
v 0.17582 0.0122 0.05992
v 0.20444 0.01606 0.03436
v 0.17582 -0.01348 0.05992
v 0.17541 -0.01605 0.05894
v 0.20489 0.0122 0.03533
v 0.22967 0.01606 0.01863
v 0.20489 -0.01348 0.03533
v 0.20444 -0.01605 0.03436
v 0.23002 0.0122 0.01954
v 0.25845 0.01606 0.01042
v 0.22998 -0.01348 0.01957
v 0.22954 -0.01605 0.01871
v 0.25822 0.0122 0.01141
v 0.27392 0.01606 0.0105
v 0.27392 0.0122 0.01141
v 0.25822 -0.01348 0.01141
v 0.25837 -0.01605 0.01042
v 0.27392 -0.01348 0.01141
v 0.27392 -0.01605 0.0105
vt 20.19999 0.6737835
vt 20.19286 0.6800655
vt 20.1985 0.6800655
vt 20.19361 0.6737835
vt 20.18288 0.6800655
vt 20.19999 0.6319021
vt 20.18139 0.6737835
vt 20.19361 0.6319021
vt 20.1985 0.627714
vt 20.18139 0.6319021
vt 20.19286 0.627714
vt 20.18288 0.627714
vt 20.37094 1.189089
vt 20.37094 1.193023
vt 20.3805 1.193023
vt 20.38591 1.18909
vt 20.37107 1.16466
vt 20.38578 1.164794
vt 20.39875 1.119759
vt 20.3836 1.119578
vt 20.41006 1.074409
vt 20.4232 1.080538
vt 20.44843 1.029025
vt 20.4616 1.035174
vt 20.4616 1.035174
vt 20.48345 0.9949072
vt 20.47041 0.9888206
vt 20.48203 0.950926
vt 20.49661 0.950926
vt 20.49171 0.9028138
vt 20.50635 0.9028083
vt 20.51446 0.8558542
vt 20.49977 0.8558556
vt 20.51984 0.8085786
vt 20.5051 0.8085781
vt 20.50766 0.7611049
vt 20.52244 0.7611049
vt 20.51984 0.7136312
vt 20.5051 0.7136316
vt 20.51446 0.6663553
vt 20.49977 0.6663541
vt 20.50635 0.6194013
vt 20.49171 0.619396
vt 20.49661 0.5712832
vt 20.48203 0.5712832
vt 20.48345 0.5273018
vt 20.47041 0.5333884
vt 20.4616 0.4870345
vt 20.44843 0.4931839
vt 20.4616 0.4870345
vt 20.4232 0.4416704
vt 20.41006 0.4478001
vt 20.39875 0.4024493
vt 20.3836 0.4026304
vt 20.38578 0.3574143
vt 20.37107 0.357548
vt 20.38591 0.3331187
vt 20.37094 0.3331191
vt 20.3805 0.3291853
vt 20.37094 0.3291853
vt 20.43596 1.191882
vt 20.44136 1.195816
vt 20.45092 1.195816
vt 20.45092 1.191882
vt 20.43608 1.167709
vt 20.45079 1.167562
vt 20.43837 1.122549
vt 20.42324 1.122745
vt 20.39866 1.083331
vt 20.41181 1.077201
vt 20.36024 1.037945
vt 20.37341 1.031794
vt 20.36024 1.037945
vt 20.35145 0.9915887
vt 20.33841 0.997676
vt 20.32525 0.9537184
vt 20.33984 0.9537184
vt 20.31551 0.9055461
vt 20.33014 0.9055519
vt 20.32209 0.8586308
vt 20.30741 0.8586296
vt 20.31676 0.8113569
vt 20.30202 0.8113577
vt 20.29942 0.7638969
vt 20.31421 0.7638969
vt 20.31676 0.7164364
vt 20.30202 0.7164359
vt 20.32209 0.6691626
vt 20.30741 0.6691639
vt 20.33014 0.6222416
vt 20.31551 0.6222475
vt 20.32525 0.5740748
vt 20.33984 0.5740748
vt 20.35145 0.5362042
vt 20.33841 0.5301169
vt 20.37341 0.4959984
vt 20.36024 0.489848
vt 20.39866 0.4444617
vt 20.36024 0.489848
vt 20.41181 0.4505917
vt 20.42324 0.4050471
vt 20.43837 0.4052437
vt 20.45079 0.3602298
vt 20.43608 0.3600835
vt 20.45092 0.3359102
vt 20.43596 0.3359096
vt 20.45092 0.3319764
vt 20.44136 0.3319764
vt 20.47009 1.207296
vt 20.47009 1.211395
vt 20.47636 1.212107
vt 20.47636 1.207296
vt 20.51817 1.212107
vt 20.47009 1.181958
vt 20.51817 1.207296
vt 20.52235 1.211395
vt 20.52235 1.207296
vt 20.47636 1.181624
vt 20.51817 1.181627
vt 20.52235 1.181844
vt 20.52235 1.134873
vt 20.47636 1.135522
vt 20.47009 1.135059
vt 20.47009 1.087811
vt 20.51817 1.135451
vt 20.47636 1.087081
vt 20.47009 1.040503
vt 20.47636 1.039734
vt 20.51817 1.087081
vt 20.52235 1.087812
vt 20.51817 1.03973
vt 20.52235 1.040527
vt 20.51817 0.9978966
vt 20.47636 0.9979014
vt 20.47009 1.040503
vt 20.47009 0.9986126
vt 20.47009 0.9591559
vt 20.47636 0.9591562
vt 20.47009 0.9089717
vt 20.52235 0.9986381
vt 20.52235 1.040527
vt 20.51817 0.9591562
vt 20.52235 0.9591559
vt 20.47636 0.9086698
vt 20.51817 0.9087119
vt 20.52235 0.9090282
vt 20.52235 0.8601029
vt 20.51817 0.8600687
vt 20.52235 0.8108448
vt 20.47636 0.8600689
vt 20.47009 0.8600852
vt 20.51817 0.8110245
vt 20.47636 0.8110675
vt 20.47009 0.8108311
vt 20.47009 0.7613831
vt 20.51817 0.7613831
vt 20.52235 0.7613831
vt 20.52235 0.7119209
vt 20.47636 0.7613831
vt 20.51817 0.7117411
vt 20.52235 0.662663
vt 20.47636 0.7117406
vt 20.47009 0.7119345
vt 20.51817 0.6626969
vt 20.52235 0.6137377
vt 20.47636 0.6626969
vt 20.47009 0.6626803
vt 20.51817 0.6140537
vt 20.52235 0.5636095
vt 20.47636 0.6140544
vt 20.47009 0.6137937
vt 20.51817 0.5636092
vt 20.52235 0.5241269
vt 20.47636 0.5636092
vt 20.47009 0.5636095
vt 20.51817 0.5248774
vt 20.52235 0.4822384
vt 20.51817 0.483028
vt 20.47636 0.5248679
vt 20.47009 0.5241524
vt 20.47636 0.4830275
vt 20.47009 0.4822626
vt 20.51817 0.4356835
vt 20.52235 0.4349533
vt 20.52235 0.4822384
vt 20.52235 0.3878915
vt 20.47636 0.4356835
vt 20.47009 0.4822626
vt 20.47009 0.4349536
vt 20.51817 0.3873132
vt 20.52235 0.3409203
vt 20.47636 0.3872428
vt 20.47009 0.3877062
vt 20.51817 0.3411376
vt 20.52235 0.3154682
vt 20.47636 0.3411405
vt 20.47009 0.3408065
vt 20.51817 0.3154682
vt 20.52235 0.3113696
vt 20.51817 0.310657
vt 20.47636 0.3154682
vt 20.47009 0.3154682
vt 20.47636 0.310657
vt 20.47009 0.3113696
vt 20.19603 0.6737835
vt 20.19752 0.6800655
vt 20.20316 0.6800655
vt 20.2024 0.6737835
vt 20.21313 0.6800655
vt 20.19603 0.6319022
vt 20.21462 0.6737835
vt 20.2024 0.6319022
vt 20.19752 0.6277141
vt 20.21462 0.6319022
vt 20.20316 0.6277141
vt 20.21313 0.6277141
vt 20.2995 1.182946
vt 20.2995 1.208268
vt 20.30368 1.208268
vt 20.30368 1.182706
vt 20.34551 1.208268
vt 20.30368 1.136711
vt 20.2995 1.136007
vt 20.2995 1.095128
vt 20.34551 1.182703
vt 20.35178 1.208268
vt 20.35178 1.183073
vt 20.35178 1.136208
vt 20.34551 1.136789
vt 20.30368 1.095858
vt 20.2995 1.047846
vt 20.34551 1.095858
vt 20.35178 1.095128
vt 20.30368 1.048505
vt 20.34551 1.04851
vt 20.35178 1.047823
vt 20.35178 1.005852
vt 20.30368 1.006555
vt 20.2995 1.005876
vt 20.2995 0.9600357
vt 20.34551 1.006561
vt 20.30368 0.9600357
vt 20.2995 0.9098835
vt 20.34551 0.9600357
vt 20.35178 0.9600357
vt 20.30368 0.9095725
vt 20.34551 0.9095308
vt 20.35178 0.9098268
vt 20.35178 0.860927
vt 20.34551 0.8609118
vt 20.35178 0.8116566
vt 20.30368 0.8609115
vt 20.2995 0.8609443
vt 20.34551 0.8118919
vt 20.30368 0.8118492
vt 20.2995 0.81167
vt 20.2995 0.7621893
vt 20.34551 0.7621893
vt 20.35178 0.7621893
vt 20.35178 0.7127218
vt 20.30368 0.7621893
vt 20.34551 0.7124863
vt 20.35178 0.6634517
vt 20.30368 0.7125292
vt 20.2995 0.7127087
vt 20.34551 0.6634667
vt 20.35178 0.6145516
vt 20.30368 0.6634667
vt 20.2995 0.6634338
vt 20.34551 0.6148477
vt 20.35178 0.5643425
vt 20.30368 0.6148056
vt 20.2995 0.6144948
vt 20.34551 0.5643425
vt 20.35178 0.518526
vt 20.30368 0.5643425
vt 20.2995 0.5643425
vt 20.34551 0.5178206
vt 20.35178 0.4765548
vt 20.30368 0.5178307
vt 20.2995 0.5185014
vt 20.34551 0.475865
vt 20.35178 0.4292497
vt 20.30368 0.4758666
vt 20.2995 0.4765318
vt 20.34551 0.4285196
vt 20.35178 0.388169
vt 20.30368 0.4285196
vt 20.2995 0.4292497
vt 20.34551 0.3875881
vt 20.35178 0.3413045
vt 20.30368 0.3876664
vt 20.2995 0.3883705
vt 20.34551 0.3416743
vt 20.35178 0.3161089
vt 20.34551 0.3161092
vt 20.30368 0.3416715
vt 20.2995 0.3414315
vt 20.30368 0.3161092
vt 20.2995 0.3161089
vn 0 1 0
vn 0 1 0
vn 0 1 0
vn 0 1 0
vn 0 1 0
vn 0 1 0
vn 0 1 0
vn 0 1 0
vn 0 1 0
vn 0 1 0
vn 0 1 0
vn 0 1 0
vn 0 1 0
vn 0 1 0
vn 0 -1 0
vn 0 -1 0
vn 0 -1 0
vn 0 -1 0
vn 0 -1 0
vn 0 -1 0
vn 0 -1 0
vn 0 1 0
vn 0 -1 0
vn 0 -1 0
vn 0 -1 0
vn 0 -1 0
vn 0 -1 0
vn 0 -1 0
vn 0 1 0
vn 0 1 0
vn 0 -1 0
vn 0 -1 0
vn 0 -1 0
vn 0 -1 0
vn 0 -1 0
vn 0 -1 0
vn 0 -1 0
vn 0 -1 0
vn 0 1 0
vn 0 1 0
vn 0 1 0
vn 0 1 0
vn 0 1 0
vn 0 1 0
vn 0 1 0
vn 0 1 0
vn 0 1 0
vn 0 1 0
vn 0 1 0
vn 0 1 0
vn 0 1 0
vn 0 1 0
vn 0 1 0
vn 0 1 0
vn 0 1 0
vn 0 1 0
vn 0 1 0
vn 0 1 0
vn 0 1 0
vn 0 1 0
vn 0 1 0
vn 0 1 0
vn 0 1 0
vn 0 1 0
vn 0 1 0
vn 0 1 0
vn 0 1 0
vn 0 1 0
vn 0 1 0
vn 0 1 0
vn 0 1 0
vn 0 1 0
vn 0 1 0
vn 0 1 0
vn 0 1 0
vn 0 1 0
vn 0 1 0
vn 0 1 0
vn 0 1 0
vn 0 1 0
vn 0 1 0
vn 0 1 0
vn 0 1 0
vn 0 1 0
vn 0 1 0
vn 0 1 0
vn 0 1 0
vn 0 1 0
vn 0 1 0
vn 0 1 0
vn 0 -1 0
vn 0 -1 0
vn 0 -1 0
vn 0 -1 0
vn 0 -1 0
vn 0 -1 0
vn 0 1 0
vn 0 1 0
vn 0 1 0
vn 0 1 0
vn 0 1 0
vn 0 1 0
vn 0 1 0
vn 0 1 0
vn 0 1 0
vn 0 1 0
vn 0 1 0
vn 0 1 0
vn -0.2012855 0.03078487 0.9790487
vn -0.9625052 0.1334513 0.2361663
vn -0.2077516 0.2362751 0.9492171
vn -0.9674098 0.01601263 0.2527089
vn -0.9936184 0.1127948 2.166664E-06
vn -0.201588 -0.03195168 0.9789491
vn -0.9999303 0.01181117 4.785996E-06
vn -0.9674057 -0.01642759 0.2526981
vn -0.208342 -0.3421987 0.9162389
vn -0.9999359 -0.01133272 5.022254E-06
vn -0.9536135 -0.1973077 0.2273565
vn -0.9858105 -0.1678625 4.033605E-06
vn 0 -1 0
vn 0 -1 0
vn 0 -1 0
vn 0 -1 0
vn 0 -1 9.197565E-07
vn 0 -1 1.033265E-06
vn 0 -1 5.737815E-07
vn 0 -1 9.569342E-07
vn 0 -1 0
vn 0 -1 0
vn 0 -1 -8.339483E-07
vn 0 -1 -1.052226E-06
vn 0 -1 -1.052226E-06
vn 0 -1 -1.135499E-06
vn 0 -1 -1.080898E-06
vn 0 -1 2.443833E-06
vn 0 -1 3.270222E-06
vn 0 -1 4.057095E-06
vn 0 -1 3.721849E-06
vn 0 -1 8.1706E-07
vn 0 -1 1.086552E-06
vn 0 -1 -2.497291E-07
vn 0 -1 -2.779472E-07
vn 0 -1 0
vn 0 -1 0
vn 0 -1 -6.284377E-07
vn 0 -1 -6.994472E-07
vn 0 -1 0
vn 0 -1 2.778455E-07
vn 0 -1 1.941531E-07
vn 0 -1 -1.891184E-07
vn 0 -1 -3.357004E-06
vn 0 -1 -4.069361E-06
vn 0 -1 -2.069823E-07
vn 0 -1 -4.940673E-07
vn 0 -1 4.901382E-07
vn 0 -1 -4.236302E-07
vn 0 -1 4.901382E-07
vn 0 -1 -1.040363E-06
vn 0 -1 -1.712633E-07
vn 0 -1 8.0315E-07
vn 0 -1 -9.561326E-07
vn 0 -1 -3.585266E-06
vn 0 -1 -3.607103E-06
vn 0 -1 -3.39366E-06
vn 0 -1 -2.878418E-06
vn 0 -1 3.886621E-06
vn 0 -1 3.886621E-06
vn 0 1 -4.935342E-07
vn 0 1 -9.654141E-06
vn 0 1 -9.654141E-06
vn 0 1 -1.144549E-06
vn 0 1 -2.218727E-07
vn 0 1 -1.978695E-07
vn 0 1 -2.047939E-07
vn 0 1 -1.22938E-07
vn 0 1 0
vn 0 1 0
vn 0 1 0
vn 0 1 0
vn 0 1 0
vn 0 1 0
vn 0 1 0
vn 0 1 0
vn 0 1 0
vn 0 1 1.056877E-06
vn 0 1 8.319691E-07
vn 0 1 1.520136E-06
vn 0 1 1.443879E-06
vn 0 1 5.569084E-07
vn 0 1 5.003994E-07
vn 0 1 0
vn 0 1 0
vn 0 1 7.841834E-07
vn 0 1 7.045979E-07
vn 0 1 1.160887E-06
vn 0 1 1.216791E-06
vn 0 1 3.823951E-07
vn 0 1 4.857789E-07
vn 0 1 2.363092E-06
vn 0 1 3.326764E-06
vn 0 1 4.098624E-06
vn 0 1 3.993068E-06
vn 0 1 -1.873144E-06
vn 0 1 -1.193758E-06
vn 0 1 -2.719657E-06
vn 0 1 -1.193758E-06
vn 0 1 -2.190894E-06
vn 0 1 2.163682E-06
vn 0 1 3.60433E-06
vn 0 1 3.356467E-06
vn 0 1 3.802885E-06
vn 0 1 -1.160941E-06
vn 0 1 -6.846469E-07
vn 0 1 -7.386702E-06
vn 0 1 -7.386703E-06
vn 0.002125553 0.2390225 -0.9710117
vn 0 0.2307916 -0.9730032
vn 0 0.02712336 -0.9996321
vn 0.0002810768 0.03161151 -0.9995002
vn 0 -0.02732392 -0.9996266
vn 0.1672748 0.2630965 -0.9501576
vn 0.0001965172 -0.03308313 -0.9994525
vn 0 -0.3352026 -0.9421461
vn 0.00205793 -0.3463993 -0.938085
vn 0.1718136 0.03499162 -0.9845078
vn 0.1715522 -0.03650563 -0.9844984
vn 0.1623357 -0.379054 -0.9110242
vn 0.3860689 -0.3785208 -0.8412329
vn 0.393023 0.03480904 -0.9188696
vn 0.3950544 0.2635213 -0.8800503
vn 0.5638706 0.2558734 -0.7852253
vn 0.3931094 -0.03616877 -0.91878
vn 0.5798869 0.03385116 -0.8139935
vn 0.5550453 0.2586009 -0.7906011
vn 0.5764138 0.03547024 -0.8163878
vn 0.579838 -0.03507884 -0.8139763
vn 0.5430226 -0.3690597 -0.7542687
vn 0.5763348 -0.03735719 -0.8163594
vn 0.5328802 -0.3726268 -0.7597288
vn 0.3960619 -0.037181 -0.9174707
vn 0.3961045 0.03532699 -0.9175256
vn 0.5550453 0.2586009 -0.7906011
vn 0.3830202 0.257342 -0.88717
vn 0.2308158 0.2527667 -0.9395919
vn 0.2407144 0.03422876 -0.9699922
vn 0.177883 0.2509187 -0.9515238
vn 0.3687675 -0.3709803 -0.8522817
vn 0.5328802 -0.3726268 -0.7597288
vn 0.2407095 -0.03582634 -0.9699358
vn 0.2213397 -0.364886 -0.90436
vn 0.1838845 0.03386899 -0.9823642
vn 0.1838987 -0.03540961 -0.9823072
vn 0.1712884 -0.3624417 -0.9161311
vn 0.1307712 -0.3589523 -0.9241495
vn 0.1410801 -0.03521775 -0.9893717
vn 0.07647401 -0.3569647 -0.9309822
vn 0.1410823 0.03364008 -0.9894261
vn 0.1358895 0.2482431 -0.9591191
vn 0.08341144 -0.03492865 -0.9959028
vn 0.08345965 0.03335376 -0.9959528
vn 0.07955059 0.2468532 -0.9657822
vn 1.678307E-05 0.246554 -0.969129
vn 1.591891E-05 -0.03498724 -0.9993877
vn -1.692963E-07 -0.3564576 -0.9343114
vn -0.07647265 -0.3569604 -0.930984
vn 1.752908E-05 0.03334553 -0.9994438
vn -0.08343547 -0.03493748 -0.9959006
vn -0.1307699 -0.358944 -0.9241528
vn -0.08343491 0.03335508 -0.9959549
vn -0.07967442 0.2469103 -0.9657574
vn -0.141079 -0.03523237 -0.9893713
vn -0.1712893 -0.3624379 -0.9161325
vn -0.1410811 0.03364052 -0.9894264
vn -0.135881 0.248439 -0.9590695
vn -0.1838832 -0.03542202 -0.9823096
vn -0.221336 -0.3648844 -0.9043614
vn -0.1838921 0.03387194 -0.9823627
vn -0.1778156 0.2509969 -0.9515157
vn -0.240714 -0.0358335 -0.9699345
vn -0.368863 -0.371171 -0.8521574
vn -0.2407204 0.03423073 -0.9699907
vn -0.2308255 0.2527625 -0.9395908
vn -0.3960629 -0.03718755 -0.91747
vn -0.5327363 -0.3727728 -0.7597582
vn -0.5763326 -0.03736992 -0.8163604
vn -0.3961224 0.03534474 -0.9175172
vn -0.3830553 0.2574177 -0.8871329
vn -0.5763975 0.03548595 -0.8163986
vn -0.5549955 0.2586626 -0.790616
vn -0.5798318 -0.03507917 -0.8139806
vn -0.5430229 -0.3690454 -0.7542756
vn -0.5327363 -0.3727728 -0.7597582
vn -0.3860652 -0.3785072 -0.8412408
vn -0.5798815 0.03385125 -0.8139973
vn -0.5549955 0.2586626 -0.790616
vn -0.5638715 0.2558785 -0.785223
vn -0.3931084 -0.03616805 -0.9187806
vn -0.1623382 -0.3790418 -0.9110289
vn -0.3930212 0.03480932 -0.9188702
vn -0.3950529 0.2635301 -0.8800483
vn -0.1715505 -0.03650497 -0.9844988
vn -0.002058891 -0.3464018 -0.9380839
vn -0.1718137 0.03499207 -0.9845078
vn -0.1672699 0.2631029 -0.9501566
vn -0.0001966002 -0.03308286 -0.9994525
vn 0 -0.3352039 -0.9421456
vn 0 -0.02732077 -0.9996268
vn -0.000281075 0.03161148 -0.9995002
vn -0.002125507 0.2390241 -0.9710113
vn 0 0.02712092 -0.9996321
vn 0 0.2307946 -0.9730026
vn 0.201281 0.03078558 0.9790496
vn 0.2077559 0.2362797 0.9492151
vn 0.96249 0.1335166 0.236191
vn 0.9674008 0.01601979 0.2527431
vn 0.9936087 0.1128795 0
vn 0.2015833 -0.03195258 0.97895
vn 0.9999301 0.01182018 0
vn 0.9673967 -0.01643471 0.2527322
vn 0.2083493 -0.3422018 0.916236
vn 0.9999357 -0.01134141 0
vn 0.9535896 -0.1974042 0.2273729
vn 0.9857892 -0.1679866 0
vn -0.1629616 -0.3464926 0.9237891
vn -0.208342 -0.3421987 0.9162389
vn -0.201588 -0.03195168 0.9789491
vn -0.1830646 -0.03504752 0.9824759
vn -0.2012855 0.03078487 0.9790487
vn -0.4088433 -0.03556607 0.9119112
vn -0.3821094 -0.3559923 0.8527965
vn -0.5525945 -0.3677469 0.7479315
vn -0.1831649 0.03343193 0.9825136
vn -0.2077516 0.2362751 0.9492171
vn -0.169004 0.2392136 0.9561456
vn -0.3938995 0.2461628 0.8855772
vn -0.4086888 0.03404837 0.9120385
vn -0.5972088 -0.03664951 0.8012481
vn -0.5373362 -0.3735384 0.756134
vn -0.5972158 0.03486632 0.8013225
vn -0.5753235 0.2549301 0.7771832
vn -0.5742403 -0.03558163 0.8179132
vn -0.5743224 0.03438005 0.8179069
vn -0.5579753 0.259305 0.7883049
vn -0.369222 0.2582676 0.8927333
vn -0.3818848 -0.03552191 0.923527
vn -0.3548825 -0.3722403 0.8576104
vn -0.2267521 -0.365119 0.902924
vn -0.3819845 0.03423888 0.9235342
vn -0.2404115 -0.03517887 0.9700333
vn -0.1727604 -0.3639771 0.9152457
vn -0.2404319 0.03376274 0.9700786
vn -0.2348777 0.2529645 0.9385315
vn -0.1838336 -0.03533591 0.982322
vn -0.1838395 0.03383394 0.9823738
vn -0.1791178 0.2521076 0.9509777
vn -0.1375514 0.2505426 0.9582838
vn -0.1409798 0.03363462 0.989441
vn -0.08079787 0.247427 0.9655318
vn -0.1409559 -0.03515986 0.9893913
vn -0.1328242 -0.361817 0.9227385
vn -0.08342823 0.03315863 0.995962
vn -0.08335924 -0.03461311 0.9959182
vn -0.0779855 -0.3577679 0.9305484
vn 0 -0.3554268 0.9347041
vn 0 0.03274079 0.9994639
vn 0 0.2455743 0.9693777
vn 0.08079661 0.2474275 0.9655317
vn 0 -0.03407838 0.9994192
vn 0.08342806 0.03315875 0.995962
vn 0.1375514 0.2505431 0.9582837
vn 0.08335878 -0.03461321 0.9959183
vn 0.0779848 -0.3577665 0.930549
vn 0.1409796 0.03363516 0.989441
vn 0.1791178 0.2521089 0.9509773
vn 0.1409559 -0.03515946 0.9893913
vn 0.1328241 -0.3618176 0.9227383
vn 0.1838388 0.03383468 0.982374
vn 0.2348773 0.2529734 0.9385293
vn 0.1838331 -0.03533526 0.9823222
vn 0.1727611 -0.3639793 0.9152445
vn 0.2404274 0.03376449 0.9700797
vn 0.3692671 0.2582338 0.8927246
vn 0.2404066 -0.03518155 0.9700345
vn 0.2267488 -0.3651333 0.902919
vn 0.3820008 0.03421985 0.9235282
vn 0.5579442 0.2592801 0.788335
vn 0.3818851 -0.03551833 0.9235271
vn 0.3550158 -0.3721071 0.857613
vn 0.5743077 0.03436407 0.8179178
vn 0.575318 0.2549407 0.7771837
vn 0.5742392 -0.0355824 0.8179139
vn 0.5372689 -0.3734058 0.7562475
vn 0.5972118 0.03486542 0.8013254
vn 0.3939047 0.2461589 0.885576
vn 0.5972043 -0.03665235 0.8012514
vn 0.552591 -0.3677323 0.7479412
vn 0.4086871 0.0340439 0.9120394
vn 0.1690077 0.2392085 0.9561463
vn 0.4088423 -0.03556734 0.9119117
vn 0.3821152 -0.3559736 0.8528017
vn 0.1831636 0.03342856 0.982514
vn 0.2077559 0.2362797 0.9492151
vn 0.201281 0.03078558 0.9790496
vn 0.1830631 -0.03504772 0.9824762
vn 0.1629615 -0.3464729 0.9237965
vn 0.2015833 -0.03195258 0.97895
vn 0.2083493 -0.3422018 0.916236
usemtl HammeredMetal_AlbedoTransparency
f 3/3/111 2/2/110 1/1/109
f 2/2/110 4/4/112 1/1/109
f 2/2/110 5/5/113 4/4/112
f 1/1/109 4/4/112 6/6/114
f 5/5/113 7/7/115 4/4/112
f 4/4/112 8/8/116 6/6/114
f 4/4/112 7/7/115 8/8/116
f 6/6/114 8/8/116 9/9/117
f 7/7/115 10/10/118 8/8/116
f 8/8/116 11/11/119 9/9/117
f 8/8/116 10/10/118 11/11/119
f 10/10/118 12/12/120 11/11/119
f 15/15/123 14/14/122 13/13/121
f 16/16/124 15/15/123 13/13/121
f 16/16/124 13/13/121 17/17/125
f 18/18/126 16/16/124 17/17/125
f 18/18/126 17/17/125 19/19/127
f 17/17/125 20/20/128 19/19/127
f 19/19/127 20/20/128 21/21/129
f 22/22/130 19/19/127 21/21/129
f 22/22/130 21/21/129 23/23/131
f 24/24/132 22/22/130 23/23/131
f 26/26/134 25/25/133 23/23/131
f 27/27/135 26/26/134 23/23/131
f 26/26/134 27/27/135 28/28/136
f 29/29/137 26/26/134 28/28/136
f 29/29/137 28/28/136 30/30/138
f 31/31/139 29/29/137 30/30/138
f 32/32/140 31/31/139 30/30/138
f 33/33/141 32/32/140 30/30/138
f 34/34/142 32/32/140 33/33/141
f 35/35/143 34/34/142 33/33/141
f 34/34/142 35/35/143 36/36/144
f 37/37/145 34/34/142 36/36/144
f 38/38/146 37/37/145 36/36/144
f 39/39/147 38/38/146 36/36/144
f 38/38/146 39/39/147 40/40/148
f 39/39/147 41/41/149 40/40/148
f 40/40/148 41/41/149 42/42/150
f 41/41/149 43/43/151 42/42/150
f 44/44/152 42/42/150 43/43/151
f 45/45/153 44/44/152 43/43/151
f 46/46/154 44/44/152 45/45/153
f 47/47/155 46/46/154 45/45/153
f 46/46/154 47/47/155 48/48/156
f 47/47/155 49/49/157 48/48/156
f 51/51/159 50/50/158 49/49/157
f 52/52/160 51/51/159 49/49/157
f 53/53/161 51/51/159 52/52/160
f 54/54/162 53/53/161 52/52/160
f 53/53/161 54/54/162 55/55/163
f 54/54/162 56/56/164 55/55/163
f 57/57/165 55/55/163 56/56/164
f 58/58/166 57/57/165 56/56/164
f 59/59/167 57/57/165 58/58/166
f 60/60/168 59/59/167 58/58/166
f 63/63/171 62/62/170 61/61/169
f 64/64/172 63/63/171 61/61/169
f 64/64/172 61/61/169 65/65/173
f 66/66/174 64/64/172 65/65/173
f 66/66/174 65/65/173 67/67/175
f 65/65/173 68/68/176 67/67/175
f 67/67/175 68/68/176 69/69/177
f 70/70/178 67/67/175 69/69/177
f 70/70/178 69/69/177 71/71/179
f 72/72/180 70/70/178 71/71/179
f 74/74/182 72/72/180 73/73/181
f 75/75/183 74/74/182 73/73/181
f 74/74/182 75/75/183 76/76/184
f 77/77/185 74/74/182 76/76/184
f 77/77/185 76/76/184 78/78/186
f 79/79/187 77/77/185 78/78/186
f 80/80/188 79/79/187 78/78/186
f 81/81/189 80/80/188 78/78/186
f 82/82/190 80/80/188 81/81/189
f 83/83/191 82/82/190 81/81/189
f 82/82/190 83/83/191 84/84/192
f 85/85/193 82/82/190 84/84/192
f 86/86/194 85/85/193 84/84/192
f 87/87/195 86/86/194 84/84/192
f 88/88/196 86/86/194 87/87/195
f 89/89/197 88/88/196 87/87/195
f 90/90/198 88/88/196 89/89/197
f 91/91/199 90/90/198 89/89/197
f 91/91/199 92/92/200 90/90/198
f 92/92/200 93/93/201 90/90/198
f 94/94/202 93/93/201 92/92/200
f 95/95/203 94/94/202 92/92/200
f 96/96/204 94/94/202 95/95/203
f 97/97/205 96/96/204 95/95/203
f 99/99/207 98/98/206 96/96/204
f 98/98/206 100/100/208 96/96/204
f 98/98/206 101/101/209 100/100/208
f 101/101/209 102/102/210 100/100/208
f 102/102/210 101/101/209 103/103/211
f 101/101/209 104/104/212 103/103/211
f 105/105/213 103/103/211 104/104/212
f 106/106/214 105/105/213 104/104/212
f 107/107/215 105/105/213 106/106/214
f 108/108/216 107/107/215 106/106/214
f 111/111/219 110/110/218 109/109/217
f 112/112/220 111/111/219 109/109/217
f 113/113/221 111/111/219 112/112/220
f 112/112/220 109/109/217 114/114/222
f 115/115/223 113/113/221 112/112/220
f 116/116/224 113/113/221 115/115/223
f 117/117/225 116/116/224 115/115/223
f 118/118/226 112/112/220 114/114/222
f 115/115/223 112/112/220 118/118/226
f 117/117/225 115/115/223 119/119/227
f 119/119/227 115/115/223 118/118/226
f 120/120/228 117/117/225 119/119/227
f 120/120/228 119/119/227 121/121/229
f 122/122/230 118/118/226 114/114/222
f 123/123/231 122/122/230 114/114/222
f 122/122/230 123/123/231 124/124/232
f 119/119/227 118/118/226 125/125/233
f 119/119/227 125/125/233 121/121/229
f 118/118/226 122/122/230 125/125/233
f 126/126/234 122/122/230 124/124/232
f 125/125/233 122/122/230 126/126/234
f 126/126/234 124/124/232 127/127/235
f 128/128/236 126/126/234 127/127/235
f 121/121/229 125/125/233 129/129/237
f 129/129/237 125/125/233 126/126/234
f 129/129/237 126/126/234 128/128/236
f 130/130/238 121/121/229 129/129/237
f 130/130/238 129/129/237 131/131/239
f 131/131/239 129/129/237 128/128/236
f 132/132/240 130/130/238 131/131/239
f 133/133/241 131/131/239 128/128/236
f 134/134/242 133/133/241 128/128/236
f 134/134/242 128/128/236 135/135/243
f 136/136/244 134/134/242 135/135/243
f 134/134/242 136/136/244 137/137/245
f 138/138/246 134/134/242 137/137/245
f 133/133/241 134/134/242 138/138/246
f 138/138/246 137/137/245 139/139/247
f 133/133/241 140/140/248 131/131/239
f 140/140/248 141/141/249 131/131/239
f 140/140/248 133/133/241 142/142/250
f 142/142/250 133/133/241 138/138/246
f 143/143/251 140/140/248 142/142/250
f 144/144/252 138/138/246 139/139/247
f 142/142/250 138/138/246 144/144/252
f 143/143/251 142/142/250 145/145/253
f 145/145/253 142/142/250 144/144/252
f 146/146/254 143/143/251 145/145/253
f 147/147/255 146/146/254 145/145/253
f 148/148/256 147/147/255 145/145/253
f 148/148/256 145/145/253 144/144/252
f 149/149/257 147/147/255 148/148/256
f 150/150/258 144/144/252 139/139/247
f 150/150/258 148/148/256 144/144/252
f 151/151/259 150/150/258 139/139/247
f 152/152/260 149/149/257 148/148/256
f 152/152/260 148/148/256 150/150/258
f 153/153/261 150/150/258 151/151/259
f 153/153/261 152/152/260 150/150/258
f 154/154/262 153/153/261 151/151/259
f 153/153/261 154/154/262 155/155/263
f 149/149/257 152/152/260 156/156/264
f 157/157/265 149/149/257 156/156/264
f 158/158/266 157/157/265 156/156/264
f 152/152/260 153/153/261 159/159/267
f 159/159/267 153/153/261 155/155/263
f 156/156/264 152/152/260 159/159/267
f 160/160/268 158/158/266 156/156/264
f 160/160/268 156/156/264 159/159/267
f 158/158/266 160/160/268 161/161/269
f 162/162/270 159/159/267 155/155/263
f 162/162/270 160/160/268 159/159/267
f 163/163/271 162/162/270 155/155/263
f 160/160/268 164/164/272 161/161/269
f 160/160/268 162/162/270 164/164/272
f 161/161/269 164/164/272 165/165/273
f 162/162/270 163/163/271 166/166/274
f 162/162/270 166/166/274 164/164/272
f 163/163/271 167/167/275 166/166/274
f 164/164/272 168/168/276 165/165/273
f 164/164/272 166/166/274 168/168/276
f 169/169/277 165/165/273 168/168/276
f 166/166/274 167/167/275 170/170/278
f 166/166/274 170/170/278 168/168/276
f 167/167/275 171/171/279 170/170/278
f 172/172/280 169/169/277 168/168/276
f 172/172/280 168/168/276 170/170/278
f 173/173/281 169/169/277 172/172/280
f 174/174/282 170/170/278 171/171/279
f 174/174/282 172/172/280 170/170/278
f 175/175/283 174/174/282 171/171/279
f 176/176/284 173/173/281 172/172/280
f 176/176/284 172/172/280 174/174/282
f 173/173/281 176/176/284 177/177/285
f 176/176/284 178/178/286 177/177/285
f 179/179/287 174/174/282 175/175/283
f 179/179/287 176/176/284 174/174/282
f 176/176/284 179/179/287 178/178/286
f 180/180/288 179/179/287 175/175/283
f 179/179/287 180/180/288 181/181/289
f 179/179/287 181/181/289 178/178/286
f 180/180/288 182/182/290 181/181/289
f 183/183/291 178/178/286 181/181/289
f 183/183/291 184/184/292 178/178/286
f 184/184/292 185/185/293 178/178/286
f 186/186/294 184/184/292 183/183/291
f 187/187/295 183/183/291 181/181/289
f 187/187/295 181/181/289 188/188/296
f 189/189/297 187/187/295 188/188/296
f 190/190/298 186/186/294 183/183/291
f 190/190/298 183/183/291 187/187/295
f 186/186/294 190/190/298 191/191/299
f 192/192/300 187/187/295 189/189/297
f 192/192/300 190/190/298 187/187/295
f 193/193/301 192/192/300 189/189/297
f 190/190/298 194/194/302 191/191/299
f 190/190/298 192/192/300 194/194/302
f 195/195/303 191/191/299 194/194/302
f 196/196/304 192/192/300 193/193/301
f 192/192/300 196/196/304 194/194/302
f 197/197/305 196/196/304 193/193/301
f 198/198/306 195/195/303 194/194/302
f 198/198/306 194/194/302 196/196/304
f 199/199/307 195/195/303 198/198/306
f 200/200/308 199/199/307 198/198/306
f 201/201/309 196/196/304 197/197/305
f 201/201/309 198/198/306 196/196/304
f 200/200/308 198/198/306 201/201/309
f 202/202/310 201/201/309 197/197/305
f 203/203/311 200/200/308 201/201/309
f 203/203/311 201/201/309 202/202/310
f 204/204/312 203/203/311 202/202/310
f 207/207/315 206/206/314 205/205/313
f 208/208/316 207/207/315 205/205/313
f 209/209/317 207/207/315 208/208/316
f 208/208/316 205/205/313 210/210/318
f 211/211/319 209/209/317 208/208/316
f 212/212/320 208/208/316 210/210/318
f 211/211/319 208/208/316 212/212/320
f 212/212/320 210/210/318 213/213/321
f 214/214/322 211/211/319 212/212/320
f 215/215/323 212/212/320 213/213/321
f 214/214/322 212/212/320 215/215/323
f 216/216/324 214/214/322 215/215/323
f 219/219/327 218/218/326 217/217/325
f 220/220/328 219/219/327 217/217/325
f 221/221/329 219/219/327 220/220/328
f 222/222/330 220/220/328 217/217/325
f 223/223/331 222/222/330 217/217/325
f 222/222/330 223/223/331 224/224/332
f 225/225/333 221/221/329 220/220/328
f 226/226/334 221/221/329 225/225/333
f 227/227/335 226/226/334 225/225/333
f 227/227/335 225/225/333 228/228/336
f 225/225/333 220/220/328 229/229/337
f 220/220/328 222/222/330 229/229/337
f 225/225/333 229/229/337 228/228/336
f 230/230/338 222/222/330 224/224/332
f 229/229/337 222/222/330 230/230/338
f 230/230/338 224/224/332 231/231/339
f 228/228/336 229/229/337 232/232/340
f 232/232/340 229/229/337 230/230/338
f 233/233/341 228/228/336 232/232/340
f 234/234/342 230/230/338 231/231/339
f 232/232/340 230/230/338 234/234/342
f 233/233/341 232/232/340 235/235/343
f 235/235/343 232/232/340 234/234/342
f 236/236/344 233/233/341 235/235/343
f 236/236/344 235/235/343 237/237/345
f 238/238/346 234/234/342 231/231/339
f 239/239/347 238/238/346 231/231/339
f 238/238/346 239/239/347 240/240/348
f 241/241/349 235/235/343 234/234/342
f 235/235/343 241/241/349 237/237/345
f 238/238/346 241/241/349 234/234/342
f 242/242/350 238/238/346 240/240/348
f 241/241/349 238/238/346 242/242/350
f 242/242/350 240/240/348 243/243/351
f 237/237/345 241/241/349 244/244/352
f 244/244/352 241/241/349 242/242/350
f 245/245/353 237/237/345 244/244/352
f 246/246/354 242/242/350 243/243/351
f 244/244/352 242/242/350 246/246/354
f 245/245/353 244/244/352 247/247/355
f 247/247/355 244/244/352 246/246/354
f 248/248/356 245/245/353 247/247/355
f 249/249/357 248/248/356 247/247/355
f 250/250/358 249/249/357 247/247/355
f 247/247/355 246/246/354 250/250/358
f 251/251/359 249/249/357 250/250/358
f 252/252/360 246/246/354 243/243/351
f 246/246/354 252/252/360 250/250/358
f 253/253/361 252/252/360 243/243/351
f 254/254/362 251/251/359 250/250/358
f 250/250/358 252/252/360 254/254/362
f 255/255/363 252/252/360 253/253/361
f 252/252/360 255/255/363 254/254/362
f 256/256/364 255/255/363 253/253/361
f 255/255/363 256/256/364 257/257/365
f 251/251/359 254/254/362 258/258/366
f 259/259/367 251/251/359 258/258/366
f 260/260/368 259/259/367 258/258/366
f 254/254/362 255/255/363 261/261/369
f 261/261/369 255/255/363 257/257/365
f 258/258/366 254/254/362 261/261/369
f 262/262/370 260/260/368 258/258/366
f 262/262/370 258/258/366 261/261/369
f 260/260/368 262/262/370 263/263/371
f 264/264/372 261/261/369 257/257/365
f 264/264/372 262/262/370 261/261/369
f 265/265/373 264/264/372 257/257/365
f 262/262/370 266/266/374 263/263/371
f 262/262/370 264/264/372 266/266/374
f 263/263/371 266/266/374 267/267/375
f 264/264/372 265/265/373 268/268/376
f 264/264/372 268/268/376 266/266/374
f 265/265/373 269/269/377 268/268/376
f 266/266/374 270/270/378 267/267/375
f 266/266/374 268/268/376 270/270/378
f 271/271/379 267/267/375 270/270/378
f 268/268/376 269/269/377 272/272/380
f 268/268/376 272/272/380 270/270/378
f 269/269/377 273/273/381 272/272/380
f 274/274/382 271/271/379 270/270/378
f 274/274/382 270/270/378 272/272/380
f 275/275/383 271/271/379 274/274/382
f 276/276/384 272/272/380 273/273/381
f 276/276/384 274/274/382 272/272/380
f 277/277/385 276/276/384 273/273/381
f 278/278/386 275/275/383 274/274/382
f 278/278/386 274/274/382 276/276/384
f 275/275/383 278/278/386 279/279/387
f 280/280/388 276/276/384 277/277/385
f 280/280/388 278/278/386 276/276/384
f 281/281/389 280/280/388 277/277/385
f 278/278/386 282/282/390 279/279/387
f 278/278/386 280/280/388 282/282/390
f 283/283/391 279/279/387 282/282/390
f 280/280/388 281/281/389 284/284/392
f 280/280/388 284/284/392 282/282/390
f 281/281/389 285/285/393 284/284/392
f 286/286/394 283/283/391 282/282/390
f 286/286/394 282/282/390 284/284/392
f 287/287/395 283/283/391 286/286/394
f 288/288/396 284/284/392 285/285/393
f 288/288/396 286/286/394 284/284/392
f 289/289/397 288/288/396 285/285/393
f 290/290/398 287/287/395 286/286/394
f 290/290/398 286/286/394 288/288/396
f 287/287/395 290/290/398 291/291/399
f 292/292/400 288/288/396 289/289/397
f 292/292/400 290/290/398 288/288/396
f 293/293/401 292/292/400 289/289/397
f 290/290/398 294/294/402 291/291/399
f 290/290/398 292/292/400 294/294/402
f 295/295/403 291/291/399 294/294/402
f 296/296/404 295/295/403 294/294/402
f 297/297/405 292/292/400 293/293/401
f 292/292/400 297/297/405 294/294/402
f 296/296/404 294/294/402 297/297/405
f 298/298/406 297/297/405 293/293/401
f 299/299/407 296/296/404 297/297/405
f 299/299/407 297/297/405 298/298/406
f 300/300/408 299/299/407 298/298/406
