mtllib material.mtl
usemtl material_0
v 0.08500000 0.31919000 0.02527000
v 0.05081000 0.31920000 0.02528000
v 0.04918000 0.32083000 0.02700000
v 0.14001000 0.31919000 0.02537000
v 0.08501000 0.32085000 0.02700000
v 0.14000000 0.32085000 0.02710000
v 0.17420000 0.31920000 0.02538000
v 0.17589000 0.32083000 0.02710000
v 0.08500000 0.31919000 0.02527000
v 0.04918000 0.32083000 0.02700000
v 0.14001000 -0.31918000 0.02537000
v 0.17420000 -0.31919000 0.02538000
v 0.17589000 -0.32081000 0.02710000
v 0.08500000 -0.31918000 0.02527000
v 0.14000000 -0.32085000 0.02710000
v 0.08501000 -0.32085000 0.02700000
v 0.05081000 -0.31919000 0.02528000
v 0.04918000 -0.32081000 0.02700000
v 0.14001000 -0.31918000 0.02537000
v 0.17589000 -0.32081000 0.02710000
v -0.00364000 -0.37363000 0.02700000
v 0.08500000 -0.37500000 0.02541000
v -0.00500000 -0.37500000 0.02541000
v 0.08500000 -0.37368000 0.02700000
v 0.14001000 -0.37500000 0.02551000
v 0.14001000 -0.37368000 0.02710000
v 0.23001000 -0.37500000 0.02551000
v 0.22863000 -0.37363000 0.02710000
v 0.14001000 -0.37500000 0.00011000
v 0.23001000 -0.37500000 0.02551000
v 0.23001000 -0.37500000 0.00011000
v 0.14001000 -0.37500000 0.02551000
v 0.08500000 -0.37500000 0.02541000
v 0.08500000 -0.37500000 0.00000000
v -0.00500000 -0.37500000 0.00000000
v -0.00500000 -0.37500000 0.02541000
v 0.22863000 -0.37363000 0.02710000
v 0.23001000 -0.28500000 0.02551000
v 0.23001000 -0.37500000 0.02551000
v 0.22869000 -0.28500000 0.02710000
v 0.23001000 0.28500000 0.02551000
v 0.22869000 0.28500000 0.02710000
v 0.23001000 0.37501000 0.02551000
v 0.22863000 0.37368000 0.02710000
v 0.23001000 0.28500000 0.00011000
v 0.23001000 0.37501000 0.02551000
v 0.23001000 0.37501000 0.00011000
v 0.23001000 0.28500000 0.02551000
v 0.23001000 -0.28500000 0.02551000
v 0.23001000 -0.28500000 0.00011000
v 0.23001000 -0.37500000 0.00011000
v 0.23001000 -0.37500000 0.02551000
v 0.14001000 0.37501000 0.02551000
v 0.23001000 0.37501000 0.02551000
v 0.22863000 0.37368000 0.02710000
v 0.14001000 0.37365000 0.02710000
v 0.08500000 0.37501000 0.02541000
v 0.08500000 0.37365000 0.02700000
v -0.00500000 0.37501000 0.02541000
v -0.00364000 0.37368000 0.02700000
v 0.08500000 0.37501000 0.00000000
v -0.00500000 0.37501000 0.02541000
v -0.00500000 0.37501000 0.00000000
v 0.08500000 0.37501000 0.02541000
v 0.14001000 0.37501000 0.02551000
v 0.14001000 0.37501000 0.00011000
v 0.23001000 0.37501000 0.00011000
v 0.23001000 0.37501000 0.02551000
v -0.00500000 0.28501000 0.02541000
v -0.00500000 0.37501000 0.02541000
v -0.00364000 0.37368000 0.02700000
v -0.00366000 0.28501000 0.02700000
v -0.00500000 -0.28500000 0.02541000
v -0.00366000 -0.28499000 0.02700000
v -0.00500000 -0.37500000 0.02541000
v -0.00364000 -0.37363000 0.02700000
v -0.00500000 0.37501000 0.00000000
v -0.00500000 0.37501000 0.02541000
v -0.00500000 0.28501000 0.02541000
v -0.00500000 0.28501000 0.00000000
v -0.00500000 -0.28500000 0.00000000
v -0.00500000 -0.28500000 0.02541000
v -0.00500000 -0.37500000 0.02541000
v -0.00500000 -0.37500000 0.00000000
v 0.05081000 0.31920000 0.02528000
v 0.04916000 0.28500000 0.02700000
v 0.04918000 0.32083000 0.02700000
v 0.05082000 0.28501000 0.02527000
v 0.04916000 -0.28499000 0.02700000
v 0.05082000 -0.28500000 0.02527000
v 0.04918000 -0.32081000 0.02700000
v 0.05081000 -0.31919000 0.02528000
v 0.05230000 0.28501000 0.01301000
v 0.05081000 0.31920000 0.02528000
v 0.05230000 0.31771000 0.01301000
v 0.05082000 0.28501000 0.02527000
v 0.05082000 -0.28500000 0.02527000
v 0.05230000 -0.28500000 0.01301000
v 0.05230000 -0.31770000 0.01301000
v 0.05081000 -0.31919000 0.02528000
v 0.05230000 0.31771000 0.01301000
v 0.05081000 0.31920000 0.02528000
v 0.08500000 0.31919000 0.02527000
v 0.08500000 0.31771000 0.01301000
v 0.14001000 0.31771000 0.01311000
v 0.14001000 0.31919000 0.02537000
v 0.17420000 0.31920000 0.02538000
v 0.17271000 0.31771000 0.01311000
v 0.17419000 0.28500000 0.02537000
v 0.17420000 0.31920000 0.02538000
v 0.17589000 0.32083000 0.02710000
v 0.17580000 0.28500000 0.02710000
v 0.17419000 -0.28500000 0.02537000
v 0.17580000 -0.28499000 0.02710000
v 0.17420000 -0.31919000 0.02538000
v 0.17589000 -0.32081000 0.02710000
v 0.17271000 0.31771000 0.01311000
v 0.17420000 0.31920000 0.02538000
v 0.17419000 0.28500000 0.02537000
v 0.17271000 0.28500000 0.01311000
v 0.17271000 -0.28500000 0.01311000
v 0.17419000 -0.28500000 0.02537000
v 0.17420000 -0.31919000 0.02538000
v 0.17271000 -0.31770000 0.01311000
v 0.17271000 -0.31770000 0.01311000
v 0.17420000 -0.31919000 0.02538000
v 0.14001000 -0.31918000 0.02537000
v 0.14001000 -0.31770000 0.01311000
v 0.08500000 -0.31770000 0.01301000
v 0.08500000 -0.31918000 0.02527000
v 0.05081000 -0.31919000 0.02528000
v 0.05230000 -0.31770000 0.01301000
v 0.17271000 0.28500000 0.01311000
v 0.14001000 0.31771000 0.01311000
v 0.17271000 0.31771000 0.01311000
v 0.14001000 0.28500000 0.01311000
v 0.08500000 0.31771000 0.01301000
v 0.14001000 -0.28500000 0.01311000
v 0.17271000 -0.28500000 0.01311000
v 0.17271000 -0.31770000 0.01311000
v 0.14001000 -0.31770000 0.01311000
v 0.08500000 0.28501000 0.01301000
v 0.05230000 0.31771000 0.01301000
v 0.05230000 0.28501000 0.01301000
v 0.05230000 -0.28500000 0.01301000
v 0.08500000 -0.28500000 0.01301000
v 0.08500000 -0.31770000 0.01301000
v 0.05230000 -0.31770000 0.01301000
v 0.14001000 0.37501000 0.00011000
v 0.23001000 0.28500000 0.00011000
v 0.23001000 0.37501000 0.00011000
v 0.14001000 0.28500000 0.00011000
v 0.23001000 -0.28500000 0.00011000
v 0.08500000 0.28501000 0.00000000
v 0.08500000 0.37501000 0.00000000
v -0.00500000 0.37501000 0.00000000
v -0.00500000 0.28501000 0.00000000
v 0.14001000 -0.28500000 0.00011000
v 0.23001000 -0.37500000 0.00011000
v 0.14001000 -0.37500000 0.00011000
v 0.08500000 -0.37500000 0.00000000
v 0.08500000 -0.28500000 0.00000000
v -0.00500000 -0.28500000 0.00000000
v -0.00500000 -0.37500000 0.00000000
v 0.04918000 0.32083000 0.02700000
v 0.04916000 0.28500000 0.02700000
v -0.00366000 0.28501000 0.02700000
v -0.00364000 0.37368000 0.02700000
v -0.00366000 -0.28499000 0.02700000
v 0.08501000 0.32085000 0.02700000
v 0.04916000 -0.28499000 0.02700000
v 0.08500000 0.37365000 0.02700000
v -0.00364000 -0.37363000 0.02700000
v 0.14000000 0.32085000 0.02710000
v 0.04918000 -0.32081000 0.02700000
v 0.14001000 0.37365000 0.02710000
v 0.08500000 -0.37368000 0.02700000
v 0.17589000 0.32083000 0.02710000
v 0.08501000 -0.32085000 0.02700000
v 0.22863000 0.37368000 0.02710000
v 0.14001000 -0.37368000 0.02710000
v 0.17580000 0.28500000 0.02710000
v 0.14000000 -0.32085000 0.02710000
v 0.22869000 0.28500000 0.02710000
v 0.22863000 -0.37363000 0.02710000
v 0.17580000 -0.28499000 0.02710000
v 0.17589000 -0.32081000 0.02710000
v 0.22869000 -0.28500000 0.02710000
vn 0.00016675 -0.72556780 0.68815070
vn 0.00016675 -0.72556780 0.68815070
vn 0.00016675 -0.72556780 0.68815070
vn -0.00125879 -0.72223260 0.69164900
vn -0.00125879 -0.72223260 0.69164910
vn -0.00016903 -0.72235010 0.69152750
vn -0.00016903 -0.72235010 0.69152750
vn -0.00047405 -0.72537030 0.68835850
vn 0.00048786 -0.72228780 0.69159250
vn 0.00048786 -0.72228780 0.69159240
vn -0.00017913 0.72695730 0.68668250
vn -0.00017913 0.72695740 0.68668260
vn -0.00017913 0.72695730 0.68668250
vn -0.00125193 0.72083150 0.69310920
vn -0.00125193 0.72083150 0.69310920
vn 0.00016570 0.72075740 0.69318740
vn 0.00016570 0.72075740 0.69318730
vn 0.00077184 0.72681970 0.68682780
vn -0.00076903 0.72092630 0.69301130
vn -0.00076903 0.72092620 0.69301140
vn -0.00046112 -0.77233290 0.63521780
vn -0.00073054 -0.77232550 0.63522660
vn 0.00000000 -0.75991230 0.65002560
vn -0.00072434 -0.77232560 0.63522630
vn -0.00115866 -0.77231360 0.63524030
vn -0.00115865 -0.77222870 0.63534360
vn 0.00000000 -0.77229340 0.63526610
vn 0.00045364 -0.75975840 0.65020540
vn 0.00000000 -1.00000000 0.00000000
vn 0.00000000 -1.00000000 0.00000000
vn 0.00000000 -1.00000000 0.00000000
vn 0.00000000 -1.00000000 0.00000000
vn 0.00000000 -1.00000000 0.00000547
vn 0.00000000 -1.00000000 0.00000663
vn 0.00000000 -1.00000000 0.00000187
vn 0.00000000 -1.00000000 0.00000000
vn 0.77328710 -0.00053275 0.63405590
vn 0.77326480 -0.00007076 0.63408330
vn 0.75891230 0.00000000 0.65119280
vn 0.77326480 -0.00007185 0.63408320
vn 0.77326130 0.00000000 0.63408740
vn 0.77332820 0.00000000 0.63400580
vn 0.77330510 0.00000000 0.63403420
vn 0.75875850 0.00052238 0.65137180
vn 1.00000000 0.00000000 0.00000000
vn 1.00000000 0.00000000 0.00000000
vn 1.00000000 0.00000000 0.00000000
vn 1.00000000 0.00000000 0.00000000
vn 1.00000000 0.00000000 0.00000000
vn 1.00000000 0.00000000 0.00000000
vn 1.00000000 0.00000000 0.00000000
vn 1.00000000 0.00000000 0.00000000
vn 0.00000000 0.76895480 0.63930320
vn 0.00000000 0.76895480 0.63930310
vn 0.00000000 0.76895480 0.63930310
vn -0.00057715 0.76302080 0.64637360
vn -0.00117120 0.76295510 0.64645040
vn -0.00117807 0.76319440 0.64616780
vn 0.00000000 0.76309760 0.64628310
vn 0.00022350 0.76927080 0.63892280
vn 0.00000000 1.00000000 0.00000000
vn 0.00000000 1.00000000 0.00000000
vn 0.00000000 1.00000000 0.00000000
vn 0.00000000 1.00000000 0.00000000
vn 0.00000000 1.00000000 0.00000000
vn 0.00000000 1.00000000 0.00000000
vn 0.00000000 1.00000000 0.00000000
vn 0.00000000 1.00000000 0.00000000
vn -0.76396720 0.00000000 0.64525510
vn -0.76396710 0.00000000 0.64525510
vn -0.76396710 0.00000000 0.64525510
vn -0.76832700 0.00016743 0.64005750
vn -0.76839890 0.00000000 0.63997110
vn -0.76834080 0.00000000 0.64004090
vn -0.76834070 0.00000000 0.64004100
vn -0.76384400 -0.00016439 0.64540100
vn -1.00000000 0.00000000 0.00000000
vn -1.00000000 0.00000000 0.00000000
vn -1.00000000 0.00000000 0.00000000
vn -1.00000000 0.00000000 0.00000000
vn -1.00000000 0.00000000 0.00000000
vn -1.00000000 0.00000042 0.00000000
vn -1.00000000 0.00000000 0.00000000
vn -1.00000000 0.00000000 0.00000000
vn 0.72516100 -0.00043478 0.68857930
vn 0.72262450 -0.00018065 0.69124080
vn 0.72524620 -0.00044334 0.68848940
vn 0.72249830 -0.00016804 0.69137260
vn 0.72240770 0.00044378 0.69146720
vn 0.72535060 0.00017441 0.68837960
vn 0.72535060 0.00017441 0.68837960
vn 0.72535060 0.00017441 0.68837960
vn 0.99270900 0.00000568 0.12053550
vn 0.99270870 0.00000179 0.12053820
vn 0.99270850 0.00000000 0.12053950
vn 0.99270920 0.00000722 0.12053440
vn 0.99270940 0.00000000 0.12053210
vn 0.99270790 0.00000043 0.12054430
vn 0.99270800 0.00000000 0.12054410
vn 0.99270890 0.00000000 0.12053570
vn 0.00000180 -0.99270920 0.12053440
vn 0.00000180 -0.99270920 0.12053440
vn 0.00000180 -0.99270920 0.12053440
vn 0.00000000 -0.99270730 0.12054970
vn -0.00022229 -0.99270960 0.12053040
vn -0.00022131 -0.99270940 0.12053240
vn 0.00000000 -0.99270560 0.12056310
vn 0.00000000 -0.99270430 0.12057520
vn -0.71417520 -0.00017310 0.69996700
vn -0.71417520 -0.00017310 0.69996700
vn -0.71417520 -0.00017310 0.69996700
vn -0.73391860 0.00175279 0.67923520
vn -0.73389580 0.00000000 0.67926210
vn -0.73381190 0.00017214 0.67935270
vn -0.73381190 0.00017214 0.67935270
vn -0.71511170 -0.00171324 0.69900810
vn -0.99270650 -0.00000361 0.12055590
vn -0.99270650 -0.00000361 0.12055590
vn -0.99270650 -0.00000361 0.12055590
vn -0.99270560 0.00000000 0.12056270
vn -0.99270530 0.00000000 0.12056580
vn -0.99270580 0.00000000 0.12056250
vn -0.99270660 0.00000089 0.12055550
vn -0.99270700 0.00000000 0.12055250
vn -0.00000361 0.99271000 0.12052780
vn -0.00000361 0.99271000 0.12052780
vn -0.00000361 0.99271000 0.12052780
vn 0.00000000 0.99271070 0.12052130
vn -0.00021668 0.99270720 0.12055020
vn -0.00021541 0.99270950 0.12053080
vn -0.00000089 0.99270830 0.12054200
vn 0.00000000 0.99270760 0.12054770
vn 0.00000000 0.00000000 1.00000000
vn 0.00000000 0.00000000 1.00000000
vn 0.00000000 0.00000000 1.00000000
vn 0.00000000 0.00000000 1.00000000
vn 0.00000000 0.00000000 1.00000000
vn 0.00000000 0.00000000 1.00000000
vn 0.00000000 0.00000000 1.00000000
vn 0.00000000 0.00000000 1.00000000
vn 0.00000000 0.00000000 1.00000000
vn 0.00000000 0.00000000 1.00000000
vn 0.00000000 0.00000000 1.00000000
vn 0.00000000 0.00000000 1.00000000
vn 0.00000000 0.00000000 1.00000000
vn -0.00181781 0.00000000 0.99999830
vn -0.00181899 0.00000000 0.99999830
vn 0.00000000 0.00000000 1.00000000
vn 0.00000000 0.00000000 -1.00000000
vn 0.00000000 0.00000000 -1.00000000
vn 0.00000000 0.00000000 -1.00000000
vn 0.00000000 0.00000000 -1.00000000
vn 0.00000000 0.00000000 -1.00000000
vn 0.00000000 0.00000000 -1.00000000
vn 0.00000000 0.00000000 -1.00000000
vn 0.00000000 0.00000000 -1.00000000
vn 0.00000000 0.00000000 -1.00000000
vn 0.00000000 0.00000000 -1.00000000
vn 0.00000000 0.00000000 -1.00000000
vn 0.00000000 0.00000000 -1.00000000
vn 0.00182487 0.00000000 -0.99999830
vn 0.00182117 0.00000000 -0.99999830
vn 0.00000000 0.00000000 -1.00000000
vn 0.00000000 0.00000000 -1.00000000
vn -0.00000199 0.00000000 1.00000000
vn 0.00000000 0.00000000 1.00000000
vn 0.00000014 0.00000000 1.00000000
vn -0.00000059 0.00000000 1.00000000
vn -0.00000528 0.00000000 1.00000000
vn -0.00079903 0.00000000 0.99999980
vn -0.00000602 0.00000000 1.00000000
vn -0.00069818 0.00000000 0.99999980
vn 0.00000197 0.00000000 1.00000000
vn -0.00110014 0.00000000 0.99999940
vn -0.00000349 0.00000000 1.00000000
vn -0.00081295 0.00000000 0.99999960
vn -0.00080652 0.00000000 0.99999980
vn 0.00000311 0.00000000 1.00000000
vn -0.00110466 0.00000000 0.99999940
vn -0.00000197 0.00000000 1.00000000
vn -0.00069614 0.00000000 0.99999980
vn 0.00000601 0.00000000 1.00000000
vn -0.00079654 0.00000000 0.99999980
vn 0.00000528 0.00000000 1.00000000
vn 0.00000017 0.00000000 1.00000000
vn 0.00000036 0.00000000 1.00000000
vn 0.00000084 0.00000000 1.00000000
vn 0.00000000 0.00000000 1.00000000
vt 0.42384990 4.56756500
vt 0.40232910 4.56758100
vt 0.40129930 4.57047100
vt 0.45846920 4.56773300
vt 0.42385040 4.57047100
vt 0.45846890 4.57063900
vt 0.47998990 4.56774900
vt 0.48105370 4.57063900
vt 0.42384990 4.56756500
vt 0.40129930 4.57047100
vt 1.30623500 4.56773300
vt 1.28471300 4.56775000
vt 1.28364800 4.57064100
vt 1.34085700 4.56756600
vt 1.30623600 4.57064100
vt 1.34085600 4.57047300
vt 1.36238000 4.56758300
vt 1.36341000 4.57047300
vt 1.30623500 4.56773300
vt 1.28364800 4.57064100
vt 4.16912500 3.98722400
vt 4.24207400 3.98524500
vt 4.16801400 3.98524500
vt 4.24207500 3.98722400
vt 4.28733700 3.98536800
vt 4.28733700 3.98734800
vt 4.36139800 3.98536800
vt 4.36027000 3.98734800
vt 4.28733700 3.95395200
vt 4.36139800 3.98536800
vt 4.36139800 3.95395200
vt 4.28733700 3.98536800
vt 4.24207400 3.98524500
vt 4.24207400 3.95382800
vt 4.16801400 3.95382800
vt 4.16801400 3.98524500
vt 1.60061800 1.90449800
vt 1.60263700 1.97599100
vt 1.60263700 1.90339400
vt 1.60061800 1.97599100
vt 1.60263700 2.43577300
vt 1.60061800 2.43577300
vt 1.60263700 2.50837000
vt 1.60061800 2.50729800
vt 1.63467600 2.43577300
vt 1.60263700 2.50837000
vt 1.63467600 2.50837000
vt 1.60263700 2.43577300
vt 1.60263700 1.97599100
vt 1.63467600 1.97599100
vt 1.63467600 1.90339400
vt 1.60263700 1.90339400
vt 4.24207600 4.27948700
vt 4.16801400 4.27948700
vt 4.16914300 4.28146600
vt 4.24207600 4.28146600
vt 4.28733600 4.27936300
vt 4.28733500 4.28134200
vt 4.36139700 4.27936300
vt 4.36028600 4.28134200
vt 4.28733600 4.24794600
vt 4.36139700 4.27936300
vt 4.36139700 4.24794600
vt 4.28733600 4.27936300
vt 4.24207600 4.27948700
vt 4.24207600 4.24807000
vt 4.16801400 4.24807000
vt 4.16801400 4.27948700
vt 1.92677800 2.43581600
vt 1.92677800 2.50842600
vt 1.92879700 2.50735400
vt 1.92879700 2.43581600
vt 1.92677900 1.97594900
vt 1.92879700 1.97594900
vt 1.92677900 1.90333800
vt 1.92879700 1.90444200
vt 1.89473300 2.50842600
vt 1.92677800 2.50842600
vt 1.92677800 2.43581600
vt 1.89473300 2.43581600
vt 1.89473300 1.97594900
vt 1.92677900 1.97594900
vt 1.92677900 1.90333800
vt 1.89473300 1.90333800
vt 3.96123300 2.10150500
vt 3.95817400 2.08118000
vt 3.95817400 2.10247700
vt 3.96125000 2.08118000
vt 3.95817400 1.74234500
vt 3.96125000 1.74234500
vt 3.95817400 1.72105300
vt 3.96123300 1.72202000
vt 3.98300100 2.08118000
vt 3.96123300 2.10150500
vt 3.98300100 2.10061900
vt 3.96125000 2.08118000
vt 3.96125000 1.74234500
vt 3.98300100 1.74234500
vt 3.98300100 1.72290600
vt 3.96123300 1.72202000
vt 0.40326730 4.54700900
vt 0.40232910 4.56758100
vt 0.42384990 4.56756500
vt 0.42384990 4.54700900
vt 0.45846920 4.54717700
vt 0.45846920 4.56773300
vt 0.47998990 4.56774900
vt 0.47905180 4.54717700
vt 3.68579700 2.08098300
vt 3.68581400 2.10128400
vt 3.68887000 2.10225400
vt 3.68887000 2.08098300
vt 3.68579700 1.74254100
vt 3.68887000 1.74254200
vt 3.68581400 1.72224100
vt 3.68887000 1.72127400
vt 3.66407200 2.10039800
vt 3.68581400 2.10128400
vt 3.68579700 2.08098300
vt 3.66407200 2.08098300
vt 3.66407200 1.74254100
vt 3.68579700 1.74254100
vt 3.68581400 1.72224100
vt 3.66407200 1.72312600
vt 1.28565100 4.54717500
vt 1.28471300 4.56775000
vt 1.30623500 4.56773300
vt 1.30623500 4.54717500
vt 1.34085700 4.54700700
vt 1.34085700 4.56756600
vt 1.36238000 4.56758300
vt 1.36144200 4.54700700
vt 4.62364200 2.17646200
vt 4.58843400 2.20683200
vt 4.62364200 2.20683200
vt 4.58843400 2.17646200
vt 4.52921300 2.20683200
vt 4.58843400 1.64706800
vt 4.62364200 1.64706800
vt 4.62364200 1.61669700
vt 4.58843400 1.61669700
vt 4.52921300 2.17646200
vt 4.49400500 2.20683200
vt 4.49400500 2.17646200
vt 4.49400500 1.64706800
vt 4.52921400 1.64706800
vt 4.52921400 1.61669700
vt 4.49400500 1.61669700
vt 0.70729600 2.57421200
vt 0.61566580 2.48581300
vt 0.61566580 2.57421200
vt 0.70729600 2.48581300
vt 0.61566580 1.92595200
vt 0.76329280 2.48581300
vt 0.76329280 2.57421200
vt 0.85492250 2.57421200
vt 0.85492250 2.48581300
vt 0.70729600 1.92595200
vt 0.61566580 1.83755300
vt 0.70729600 1.83755300
vt 0.76329270 1.83755300
vt 0.76329270 1.92595200
vt 0.85492270 1.92595200
vt 0.85492270 1.83755300
vt 2.72938200 2.51978400
vt 2.72935900 2.48473200
vt 2.67537400 2.48473200
vt 2.67539400 2.57148800
vt 2.67537400 1.92704600
vt 2.76600000 2.51980700
vt 2.72935900 1.92704600
vt 2.76599900 2.57146300
vt 2.67539400 1.84032900
vt 2.82221400 2.51980700
vt 2.72938200 1.89200100
vt 2.82221400 2.57146300
vt 2.76599900 1.84027700
vt 2.85888600 2.51978400
vt 2.76600000 1.89196400
vt 2.91279900 2.57148800
vt 2.82221400 1.84027700
vt 2.85879900 2.48473100
vt 2.82221400 1.89196400
vt 2.91286100 2.48473200
vt 2.91279900 1.84032800
vt 2.85879900 1.92704600
vt 2.85888600 1.89200100
vt 2.91286100 1.92704600
f 3/3/3 2/2/2 1/1/1
f 5/5/5 1/1/1 4/4/4
f 6/6/6 5/5/5 4/4/4
f 6/6/6 4/4/4 7/7/7
f 8/8/8 6/6/6 7/7/7
f 5/5/5 10/10/10 9/9/9
f 13/13/13 12/12/12 11/11/11
f 15/15/15 11/11/11 14/14/14
f 16/16/16 15/15/15 14/14/14
f 16/16/16 14/14/14 17/17/17
f 18/18/18 16/16/16 17/17/17
f 15/15/15 20/20/20 19/19/19
f 23/23/23 22/22/22 21/21/21
f 22/22/22 24/24/24 21/21/21
f 24/24/24 22/22/22 25/25/25
f 26/26/26 24/24/24 25/25/25
f 25/25/25 27/27/27 26/26/26
f 27/27/27 28/28/28 26/26/26
f 31/31/31 30/30/30 29/29/29
f 30/30/30 32/32/32 29/29/29
f 29/29/29 32/32/32 33/33/33
f 34/34/34 29/29/29 33/33/33
f 34/34/34 33/33/33 35/35/35
f 33/33/33 36/36/36 35/35/35
f 39/39/39 38/38/38 37/37/37
f 38/38/38 40/40/40 37/37/37
f 40/40/40 38/38/38 41/41/41
f 42/42/42 40/40/40 41/41/41
f 41/41/41 43/43/43 42/42/42
f 43/43/43 44/44/44 42/42/42
f 47/47/47 46/46/46 45/45/45
f 46/46/46 48/48/48 45/45/45
f 45/45/45 48/48/48 49/49/49
f 50/50/50 45/45/45 49/49/49
f 50/50/50 49/49/49 51/51/51
f 49/49/49 52/52/52 51/51/51
f 55/55/55 54/54/54 53/53/53
f 56/56/56 55/55/55 53/53/53
f 56/56/56 53/53/53 57/57/57
f 58/58/58 56/56/56 57/57/57
f 58/58/58 57/57/57 59/59/59
f 60/60/60 58/58/58 59/59/59
f 63/63/63 62/62/62 61/61/61
f 62/62/62 64/64/64 61/61/61
f 61/61/61 64/64/64 65/65/65
f 66/66/66 61/61/61 65/65/65
f 66/66/66 65/65/65 67/67/67
f 65/65/65 68/68/68 67/67/67
f 71/71/71 70/70/70 69/69/69
f 72/72/72 71/71/71 69/69/69
f 72/72/72 69/69/69 73/73/73
f 74/74/74 72/72/72 73/73/73
f 73/73/73 75/75/75 74/74/74
f 75/75/75 76/76/76 74/74/74
f 79/79/79 78/78/78 77/77/77
f 80/80/80 79/79/79 77/77/77
f 80/80/80 81/81/81 79/79/79
f 81/81/81 82/82/82 79/79/79
f 83/83/83 82/82/82 81/81/81
f 84/84/84 83/83/83 81/81/81
f 87/87/87 86/86/86 85/85/85
f 86/86/86 88/88/88 85/85/85
f 88/88/88 86/86/86 89/89/89
f 90/90/90 88/88/88 89/89/89
f 89/89/89 91/91/91 90/90/90
f 91/91/91 92/92/92 90/90/90
f 95/95/95 94/94/94 93/93/93
f 94/94/94 96/96/96 93/93/93
f 93/93/93 96/96/96 97/97/97
f 98/98/98 93/93/93 97/97/97
f 98/98/98 97/97/97 99/99/99
f 97/97/97 100/100/100 99/99/99
f 103/103/103 102/102/102 101/101/101
f 104/104/104 103/103/103 101/101/101
f 104/104/104 105/105/105 103/103/103
f 105/105/105 106/106/106 103/103/103
f 107/107/107 106/106/106 105/105/105
f 108/108/108 107/107/107 105/105/105
f 111/111/111 110/110/110 109/109/109
f 112/112/112 111/111/111 109/109/109
f 112/112/112 109/109/109 113/113/113
f 114/114/114 112/112/112 113/113/113
f 114/114/114 113/113/113 115/115/115
f 116/116/116 114/114/114 115/115/115
f 119/119/119 118/118/118 117/117/117
f 120/120/120 119/119/119 117/117/117
f 119/119/119 120/120/120 121/121/121
f 122/122/122 119/119/119 121/121/121
f 123/123/123 122/122/122 121/121/121
f 124/124/124 123/123/123 121/121/121
f 127/127/127 126/126/126 125/125/125
f 128/128/128 127/127/127 125/125/125
f 128/128/128 129/129/129 127/127/127
f 129/129/129 130/130/130 127/127/127
f 131/131/131 130/130/130 129/129/129
f 132/132/132 131/131/131 129/129/129
f 135/135/135 134/134/134 133/133/133
f 134/134/134 136/136/136 133/133/133
f 136/136/136 134/134/134 137/137/137
f 133/133/133 136/136/136 138/138/138
f 139/139/139 133/133/133 138/138/138
f 139/139/139 138/138/138 140/140/140
f 138/138/138 141/141/141 140/140/140
f 142/142/142 136/136/136 137/137/137
f 136/136/136 142/142/142 138/138/138
f 137/137/137 143/143/143 142/142/142
f 143/143/143 144/144/144 142/142/142
f 142/142/142 144/144/144 145/145/145
f 141/141/141 138/138/138 146/146/146
f 142/142/142 146/146/146 138/138/138
f 146/146/146 142/142/142 145/145/145
f 147/147/147 141/141/141 146/146/146
f 146/146/146 145/145/145 147/147/147
f 145/145/145 148/148/148 147/147/147
f 151/151/151 150/150/150 149/149/149
f 150/150/150 152/152/152 149/149/149
f 152/152/152 150/150/150 153/153/153
f 149/149/149 152/152/152 154/154/154
f 155/155/155 149/149/149 154/154/154
f 155/155/155 154/154/154 156/156/156
f 154/154/154 157/157/157 156/156/156
f 158/158/158 152/152/152 153/153/153
f 152/152/152 158/158/158 154/154/154
f 153/153/153 159/159/159 158/158/158
f 159/159/159 160/160/160 158/158/158
f 160/160/160 161/161/161 158/158/158
f 154/154/154 162/162/162 157/157/157
f 158/158/158 162/162/162 154/154/154
f 161/161/161 162/162/162 158/158/158
f 162/162/162 163/163/163 157/157/157
f 162/162/162 161/161/161 163/163/163
f 161/161/161 164/164/164 163/163/163
f 167/167/167 166/166/166 165/165/165
f 168/168/168 167/167/167 165/165/165
f 166/166/166 167/167/167 169/169/169
f 168/168/168 165/165/165 170/170/170
f 171/171/171 166/166/166 169/169/169
f 172/172/172 168/168/168 170/170/170
f 169/169/169 173/173/173 171/171/171
f 172/172/172 170/170/170 174/174/174
f 173/173/173 175/175/175 171/171/171
f 176/176/176 172/172/172 174/174/174
f 173/173/173 177/177/177 175/175/175
f 176/176/176 174/174/174 178/178/178
f 177/177/177 179/179/179 175/175/175
f 180/180/180 176/176/176 178/178/178
f 177/177/177 181/181/181 179/179/179
f 180/180/180 178/178/178 182/182/182
f 181/181/181 183/183/183 179/179/179
f 184/184/184 180/180/180 182/182/182
f 181/181/181 185/185/185 183/183/183
f 184/184/184 182/182/182 186/186/186
f 185/185/185 187/187/187 183/183/183
f 188/188/188 184/184/184 186/186/186
f 185/185/185 188/188/188 187/187/187
f 188/188/188 186/186/186 187/187/187

