mtllib material.mtl
usemtl material_0
v -0.24000000 0.05001000 0.02000000
v -0.23800000 0.04801000 0.02200000
v -0.23800000 -0.09799000 0.02200000
v -0.24000000 -0.09999000 0.02000000
v -0.24000000 -0.09999000 0.00000000
v 0.24000000 -0.09999000 0.00000000
v 0.24000000 0.05001000 0.00000000
v -0.24000000 0.05001000 0.00000000
v -0.24000000 -0.09999000 0.02000000
v -0.24000000 -0.09999000 0.00000000
v -0.24000000 0.05001000 0.00000000
v -0.24000000 0.05001000 0.02000000
v -0.24000000 0.05001000 0.02000000
v -0.24000000 0.05001000 0.00000000
v 0.24000000 0.05001000 0.00000000
v 0.24000000 0.05001000 0.02000000
v 0.24000000 0.05001000 0.02000000
v 0.24000000 0.05001000 0.00000000
v 0.24000000 -0.09999000 0.00000000
v 0.24000000 -0.09999000 0.02000000
v 0.24000000 -0.09999000 0.02000000
v 0.24000000 -0.09999000 0.00000000
v -0.24000000 -0.09999000 0.00000000
v -0.24000000 -0.09999000 0.02000000
v -0.23800000 -0.09799000 0.02200000
v -0.23800000 0.04801000 0.02200000
v 0.23801000 0.04801000 0.02200000
v 0.23801000 -0.09799000 0.02200000
v -0.24000000 -0.09999000 0.02000000
v -0.23800000 -0.09799000 0.02200000
v 0.23801000 -0.09799000 0.02200000
v 0.24000000 -0.09999000 0.02000000
v 0.24000000 -0.09999000 0.02000000
v 0.23801000 -0.09799000 0.02200000
v 0.23801000 0.04801000 0.02200000
v 0.24000000 0.05001000 0.02000000
v 0.24000000 0.05001000 0.02000000
v 0.23801000 0.04801000 0.02200000
v -0.23800000 0.04801000 0.02200000
v -0.24000000 0.05001000 0.02000000
v -0.23899000 -0.09899000 -0.36712000
v 0.23901000 -0.09899000 -0.36712000
v 0.23901000 0.04160000 -0.36712000
v -0.23899000 0.04160000 -0.36712000
v -0.22400000 -0.08950000 -0.00612000
v -0.22400000 -0.08950000 -0.35287000
v 0.22401000 -0.08950000 -0.35287000
v 0.22401000 -0.08950000 -0.00612000
v 0.23901000 0.04160000 0.00813000
v 0.23901000 0.04160000 -0.36712000
v 0.23901000 -0.09899000 -0.36712000
v 0.23901000 -0.09899000 0.00813000
v -0.23899000 -0.09899000 0.00813000
v 0.23901000 -0.09899000 0.00813000
v 0.23901000 -0.09899000 -0.36712000
v -0.23899000 -0.09899000 -0.36712000
v -0.23899000 -0.09899000 0.00813000
v -0.23899000 -0.09899000 -0.36712000
v -0.23899000 0.04160000 -0.36712000
v -0.23899000 0.04160000 0.00813000
v -0.22400000 0.04160000 -0.00612000
v -0.22400000 -0.08950000 -0.00612000
v 0.22401000 -0.08950000 -0.00612000
v 0.22401000 0.04160000 -0.00612000
v 0.22401000 0.04160000 -0.00612000
v 0.22401000 -0.08950000 -0.00612000
v 0.22401000 -0.08950000 -0.35287000
v 0.22401000 0.04160000 -0.35287000
v 0.22401000 0.04160000 -0.35287000
v 0.22401000 -0.08950000 -0.35287000
v -0.22400000 -0.08950000 -0.35287000
v -0.22400000 0.04160000 -0.35287000
v -0.22400000 0.04160000 -0.35287000
v -0.22400000 -0.08950000 -0.35287000
v -0.22400000 -0.08950000 -0.00612000
v -0.22400000 0.04160000 -0.00612000
v 0.23901000 0.04160000 -0.36712000
v 0.22401000 0.04160000 -0.35287000
v -0.22400000 0.04160000 -0.35287000
v -0.23899000 0.04160000 -0.36712000
v 0.23901000 0.04160000 0.00813000
v -0.22400000 0.04160000 -0.00612000
v 0.22401000 0.04160000 -0.00612000
v -0.23899000 0.04160000 0.00813000
vn -0.70715090 0.00000000 0.70706260
vn -0.70715170 0.00000000 0.70706190
vn -0.70711250 0.00000000 0.70710100
vn -0.70711210 0.00000000 0.70710140
vn 0.00000000 0.00000000 -1.00000000
vn 0.00000000 0.00000000 -1.00000000
vn 0.00000000 0.00000000 -1.00000000
vn 0.00000000 0.00000000 -1.00000000
vn -1.00000000 0.00000000 0.00000000
vn -1.00000000 0.00000000 0.00000000
vn -1.00000000 0.00000000 0.00000000
vn -1.00000000 0.00000000 0.00000000
vn 0.00000000 1.00000000 0.00000000
vn 0.00000000 1.00000000 0.00000000
vn 0.00000000 1.00000000 0.00000000
vn 0.00000000 1.00000000 0.00000000
vn 1.00000000 0.00000000 0.00000000
vn 1.00000000 0.00000000 0.00000000
vn 1.00000000 0.00000000 0.00000000
vn 1.00000000 0.00000000 0.00000000
vn 0.00000000 -1.00000000 0.00000000
vn 0.00000000 -1.00000000 0.00000000
vn 0.00000000 -1.00000000 0.00000124
vn 0.00000000 -1.00000000 0.00000127
vn 0.00000000 0.00000000 1.00000000
vn 0.00000000 0.00000000 1.00000000
vn 0.00000000 0.00000000 1.00000000
vn 0.00000000 0.00000000 1.00000000
vn 0.00000000 -0.70712920 0.70708430
vn 0.00000000 -0.70712920 0.70708440
vn 0.00000000 -0.70713390 0.70707960
vn 0.00000000 -0.70713390 0.70707960
vn 0.70712570 0.00000000 0.70708780
vn 0.70712480 0.00000000 0.70708870
vn 0.70716930 0.00000000 0.70704420
vn 0.70716980 0.00000000 0.70704390
vn 0.00000000 0.70713050 0.70708300
vn 0.00000000 0.70713040 0.70708300
vn 0.00000000 0.70712480 0.70708880
vn 0.00000000 0.70712480 0.70708880
vn 0.00000000 0.00000000 -1.00000000
vn 0.00000000 0.00000000 -1.00000000
vn 0.00000000 0.00000000 -1.00000000
vn 0.00000000 0.00000000 -1.00000000
vn 0.00000000 1.00000000 0.00000000
vn 0.00000000 1.00000000 0.00000000
vn 0.00000000 1.00000000 0.00000000
vn 0.00000000 1.00000000 0.00000000
vn 1.00000000 0.00000000 0.00000000
vn 1.00000000 0.00000000 0.00000000
vn 1.00000000 0.00000000 0.00000000
vn 1.00000000 0.00000000 0.00000000
vn 0.00000000 -1.00000000 0.00000000
vn 0.00000000 -1.00000000 0.00000000
vn 0.00000000 -1.00000000 0.00000000
vn 0.00000000 -1.00000000 0.00000000
vn -1.00000000 0.00000000 0.00000000
vn -1.00000000 0.00000000 0.00000000
vn -1.00000000 0.00000000 0.00000000
vn -1.00000000 0.00000000 0.00000000
vn 0.00000000 0.00000000 -1.00000000
vn 0.00000000 0.00000000 -1.00000000
vn 0.00000000 0.00000000 -1.00000000
vn 0.00000000 0.00000000 -1.00000000
vn -1.00000000 0.00000000 0.00000000
vn -1.00000000 0.00000000 0.00000000
vn -1.00000000 0.00000000 0.00000000
vn -1.00000000 0.00000000 0.00000000
vn 0.00000000 0.00000000 1.00000000
vn 0.00000000 0.00000000 1.00000000
vn 0.00000000 0.00000000 1.00000000
vn 0.00000000 0.00000000 1.00000000
vn 1.00000000 0.00000000 0.00000000
vn 1.00000000 0.00000000 0.00000000
vn 1.00000000 0.00000000 0.00000000
vn 1.00000000 0.00000000 0.00000000
vn 0.00000000 1.00000000 0.00000000
vn 0.00000000 1.00000000 0.00000000
vn 0.00000000 1.00000000 0.00000000
vn 0.00000000 1.00000000 0.00000000
vn 0.00000000 1.00000000 0.00000000
vn 0.00000000 1.00000000 0.00000103
vn 0.00000000 1.00000000 0.00000000
vn 0.00000000 1.00000000 0.00000094
vt 0.04103648 3.26209000
vt 0.04325577 3.25987100
vt 0.04325577 3.07346300
vt 0.04103648 3.07124400
vt 2.38560600 1.41778600
vt 1.94772700 1.41778600
vt 1.94772700 1.58221400
vt 2.38560600 1.58221400
vt 4.51140200 0.76755870
vt 4.48859800 0.76755870
vt 4.48859800 0.89910760
vt 4.51140200 0.89910760
vt 2.35868900 0.51249850
vt 2.35868900 0.48750170
vt 1.97464500 0.48750170
vt 1.97464500 0.51249850
vt 4.82193100 0.89910980
vt 4.84473600 0.89910980
vt 4.84473600 0.76755640
vt 4.82193100 0.76755640
vt 2.35868900 0.17916520
vt 2.35868900 0.15416820
vt 1.97464500 0.15416820
vt 1.97464500 0.17916520
vt 1.94997700 3.08648700
vt 1.94997700 3.24684600
vt 2.38335600 3.24684600
vt 2.38335600 3.08648700
vt 1.88778700 2.37348500
vt 1.89022300 2.37592000
vt 2.44311000 2.37592000
vt 2.44554600 2.37348500
vt 0.00785599 0.41080920
vt 0.00547754 0.41318760
vt 0.00547754 0.58681230
vt 0.00785599 0.58919070
vt 2.44553800 3.95984800
vt 2.44310300 3.95741400
vt 1.89023100 3.95741400
vt 1.88779500 3.95984800
vt 0.21744480 0.73900000
vt 0.21744480 0.26100000
vt 0.07684488 0.26100000
vt 0.07684488 0.73900000
vt 0.49490730 0.49548530
vt 0.84165690 0.49548530
vt 0.84165690 0.04748526
vt 0.49490730 0.04748526
vt 0.72808340 0.95809830
vt 0.72808340 0.58284820
vt 0.58748350 0.58284820
vt 0.58748350 0.95809830
vt 0.41523440 0.52853170
vt 0.41523440 0.05053169
vt 0.03998448 0.05053169
vt 0.03998420 0.52853170
vt 0.78625600 0.58284830
vt 0.78625600 0.95809840
vt 0.92685590 0.95809840
vt 0.92685590 0.58284830
vt 0.08076684 0.72400010
vt 0.21186680 0.72400010
vt 0.21186680 0.27599980
vt 0.08076684 0.27599980
vt 0.53027530 0.61604690
vt 0.39917530 0.61604690
vt 0.39917530 0.96279630
vt 0.53027530 0.96279630
vt 0.37031700 0.56555000
vt 0.37031700 0.43445010
vt -0.07768331 0.43445010
vt -0.07768331 0.56555000
vt 0.36676370 0.61604690
vt 0.23566370 0.61604690
vt 0.23566370 0.96279630
vt 0.36676370 0.96279630
vt 0.58014640 0.26099950
vt 0.56589640 0.27599950
vt 0.56589640 0.72400050
vt 0.58014680 0.73900040
vt 0.20489570 0.26099950
vt 0.21914590 0.72400050
vt 0.21914590 0.27599950
vt 0.20489570 0.73900040
f 3/3/3 2/2/2 1/1/1
f 4/4/4 3/3/3 1/1/1
f 7/7/7 6/6/6 5/5/5
f 8/8/8 7/7/7 5/5/5
f 11/11/11 10/10/10 9/9/9
f 12/12/12 11/11/11 9/9/9
f 15/15/15 14/14/14 13/13/13
f 16/16/16 15/15/15 13/13/13
f 19/19/19 18/18/18 17/17/17
f 20/20/20 19/19/19 17/17/17
f 23/23/23 22/22/22 21/21/21
f 24/24/24 23/23/23 21/21/21
f 27/27/27 26/26/26 25/25/25
f 28/28/28 27/27/27 25/25/25
f 31/31/31 30/30/30 29/29/29
f 32/32/32 31/31/31 29/29/29
f 35/35/35 34/34/34 33/33/33
f 36/36/36 35/35/35 33/33/33
f 39/39/39 38/38/38 37/37/37
f 40/40/40 39/39/39 37/37/37
f 43/43/43 42/42/42 41/41/41
f 44/44/44 43/43/43 41/41/41
f 47/47/47 46/46/46 45/45/45
f 48/48/48 47/47/47 45/45/45
f 51/51/51 50/50/50 49/49/49
f 52/52/52 51/51/51 49/49/49
f 55/55/55 54/54/54 53/53/53
f 56/56/56 55/55/55 53/53/53
f 59/59/59 58/58/58 57/57/57
f 60/60/60 59/59/59 57/57/57
f 63/63/63 62/62/62 61/61/61
f 64/64/64 63/63/63 61/61/61
f 67/67/67 66/66/66 65/65/65
f 68/68/68 67/67/67 65/65/65
f 71/71/71 70/70/70 69/69/69
f 72/72/72 71/71/71 69/69/69
f 75/75/75 74/74/74 73/73/73
f 76/76/76 75/75/75 73/73/73
f 79/79/79 78/78/78 77/77/77
f 80/80/80 79/79/79 77/77/77
f 77/77/77 78/78/78 81/81/81
f 82/82/82 79/79/79 80/80/80
f 78/78/78 83/83/83 81/81/81
f 84/84/84 82/82/82 80/80/80
f 81/81/81 83/83/83 84/84/84
f 83/83/83 82/82/82 84/84/84

