# Blender 3.6.0
# www.blender.org
o LightFixture_a671818b_LightFixture_a671818b_1
v 0.086480 1.902770 -0.486470
v 0.086480 1.900940 -0.486470
v 0.082330 1.900940 -0.492670
v 0.082330 1.902770 -0.492670
v 0.080870 1.900940 -0.500000
v 0.080870 1.902770 -0.500000
v 0.082330 1.900940 -0.507320
v 0.082330 1.902770 -0.507320
v 0.086480 1.900940 -0.513520
v 0.086480 1.902770 -0.513520
v 0.086480 1.902770 -0.513520
v 0.086480 1.900940 -0.513520
v 0.092680 1.900940 -0.517670
v 0.092680 1.902770 -0.517670
v 0.100000 1.900940 -0.519130
v 0.100000 1.902770 -0.519130
v 0.107330 1.900940 -0.517670
v 0.107330 1.902770 -0.517670
v 0.113530 1.900940 -0.513520
v 0.113530 1.902770 -0.513520
v 0.113530 1.902770 -0.513520
v 0.113530 1.900940 -0.513520
v 0.117680 1.900940 -0.507320
v 0.117680 1.902770 -0.507320
v 0.119140 1.900940 -0.500000
v 0.119140 1.902770 -0.500000
v 0.117680 1.900940 -0.492670
v 0.117680 1.902770 -0.492670
v 0.113530 1.900940 -0.486470
v 0.113530 1.902770 -0.486470
v 0.113530 1.902770 -0.486470
v 0.113530 1.900940 -0.486470
v 0.107330 1.900940 -0.482320
v 0.107330 1.902770 -0.482320
v 0.100000 1.900940 -0.480860
v 0.100000 1.902770 -0.480860
v 0.092680 1.900940 -0.482320
v 0.092680 1.902770 -0.482320
v 0.086480 1.900940 -0.486470
v 0.086480 1.902770 -0.486470
v 0.107720 1.900970 -0.518620
v 0.114260 1.899110 -0.514250
v 0.114260 1.900970 -0.514250
v 0.107720 1.899110 -0.518620
v 0.100000 1.900970 -0.520150
v 0.100000 1.899110 -0.520150
v 0.092290 1.900970 -0.518620
v 0.092290 1.899110 -0.518620
v 0.085750 1.900970 -0.514250
v 0.085750 1.899110 -0.514250
v 0.114260 1.900970 -0.514250
v 0.114260 1.899110 -0.514250
v 0.118630 1.899110 -0.507710
v 0.118630 1.900970 -0.507710
v 0.120160 1.899110 -0.500000
v 0.120160 1.900970 -0.500000
v 0.118630 1.899110 -0.492280
v 0.118630 1.900970 -0.492280
v 0.114260 1.899110 -0.485740
v 0.114260 1.900970 -0.485740
v 0.114260 1.900970 -0.485740
v 0.114260 1.899110 -0.485740
v 0.107720 1.899110 -0.481370
v 0.107720 1.900970 -0.481370
v 0.100000 1.899110 -0.479840
v 0.100000 1.900970 -0.479840
v 0.092290 1.899110 -0.481370
v 0.092290 1.900970 -0.481370
v 0.085750 1.899110 -0.485740
v 0.085750 1.900970 -0.485740
v 0.085750 1.900970 -0.485740
v 0.085750 1.899110 -0.485740
v 0.081380 1.899110 -0.492280
v 0.081380 1.900970 -0.492280
v 0.079850 1.899110 -0.500000
v 0.079850 1.900970 -0.500000
v 0.081380 1.899110 -0.507710
v 0.081380 1.900970 -0.507710
v 0.085750 1.899110 -0.514250
v 0.085750 1.900970 -0.514250
v 0.106490 1.899120 -0.515650
v 0.111970 1.888730 -0.511960
v 0.111980 1.899120 -0.511970
v 0.106480 1.888730 -0.515630
v 0.100000 1.899120 -0.516930
v 0.100000 1.888730 -0.516920
v 0.093520 1.899120 -0.515650
v 0.093530 1.888730 -0.515630
v 0.088030 1.899120 -0.511970
v 0.088040 1.888730 -0.511960
v 0.111980 1.899120 -0.511970
v 0.111970 1.888730 -0.511960
v 0.115640 1.888730 -0.506470
v 0.115660 1.899120 -0.506480
v 0.116930 1.888730 -0.500000
v 0.116950 1.899120 -0.500000
v 0.115640 1.888730 -0.493520
v 0.115660 1.899120 -0.493510
v 0.111970 1.888730 -0.488030
v 0.111980 1.899120 -0.488020
v 0.111980 1.899120 -0.488020
v 0.111970 1.888730 -0.488030
v 0.106480 1.888730 -0.484360
v 0.106490 1.899120 -0.484340
v 0.100000 1.888730 -0.483070
v 0.100000 1.899120 -0.483060
v 0.093530 1.888730 -0.484360
v 0.093520 1.899120 -0.484340
v 0.088040 1.888730 -0.488030
v 0.088030 1.899120 -0.488020
v 0.088030 1.899120 -0.488020
v 0.088040 1.888730 -0.488030
v 0.084370 1.888730 -0.493520
v 0.084350 1.899120 -0.493510
v 0.083080 1.888730 -0.500000
v 0.083060 1.899120 -0.500000
v 0.084370 1.888730 -0.506470
v 0.084350 1.899120 -0.506480
v 0.088040 1.888730 -0.511960
v 0.088030 1.899120 -0.511970
v 0.078780 1.883430 -0.478770
v 0.078780 1.877930 -0.478770
v 0.072270 1.877930 -0.488510
v 0.072270 1.883430 -0.488510
v 0.069990 1.877930 -0.500000
v 0.069990 1.883430 -0.500000
v 0.072270 1.877930 -0.511480
v 0.072270 1.883430 -0.511480
v 0.078780 1.877930 -0.521220
v 0.078780 1.883430 -0.521220
v 0.078780 1.883430 -0.521220
v 0.078780 1.877930 -0.521220
v 0.088520 1.877930 -0.527730
v 0.088520 1.883430 -0.527730
v 0.100000 1.877930 -0.530010
v 0.100000 1.883430 -0.530010
v 0.111490 1.877930 -0.527730
v 0.111490 1.883430 -0.527730
v 0.121230 1.877930 -0.521220
v 0.121230 1.883430 -0.521220
v 0.121230 1.883430 -0.521220
v 0.121230 1.877930 -0.521220
v 0.127740 1.877930 -0.511480
v 0.127740 1.883430 -0.511480
v 0.130020 1.877930 -0.500000
v 0.130020 1.883430 -0.500000
v 0.127740 1.877930 -0.488510
v 0.127740 1.883430 -0.488510
v 0.121230 1.877930 -0.478770
v 0.121230 1.883430 -0.478770
v 0.121230 1.883430 -0.478770
v 0.121230 1.877930 -0.478770
v 0.111490 1.877930 -0.472260
v 0.111490 1.883430 -0.472260
v 0.100000 1.877930 -0.469980
v 0.100000 1.883430 -0.469980
v 0.088520 1.877930 -0.472260
v 0.088520 1.883430 -0.472260
v 0.078780 1.877930 -0.478770
v 0.078780 1.883430 -0.478770
v 0.097650 1.910750 -0.505680
v 0.092680 1.902770 -0.517670
v 0.100000 1.902770 -0.519130
v 0.095650 1.910750 -0.504350
v 0.100000 1.910750 -0.506150
v 0.086480 1.902770 -0.513520
v 0.107330 1.902770 -0.517670
v 0.094320 1.910750 -0.502350
v 0.102360 1.910750 -0.505680
v 0.082330 1.902770 -0.507320
v 0.113530 1.902770 -0.513520
v 0.093850 1.910750 -0.500000
v 0.104360 1.910750 -0.504350
v 0.080870 1.902770 -0.500000
v 0.117680 1.902770 -0.507320
v 0.094320 1.910750 -0.497640
v 0.105690 1.910750 -0.502350
v 0.082330 1.902770 -0.492670
v 0.119140 1.902770 -0.500000
v 0.095650 1.910750 -0.495640
v 0.106160 1.910750 -0.500000
v 0.086480 1.902770 -0.486470
v 0.117680 1.902770 -0.492670
v 0.097650 1.910750 -0.494310
v 0.105690 1.910750 -0.497640
v 0.092680 1.902770 -0.482320
v 0.113530 1.902770 -0.486470
v 0.100000 1.910750 -0.493840
v 0.104360 1.910750 -0.495640
v 0.100000 1.902770 -0.480860
v 0.107330 1.902770 -0.482320
v 0.102360 1.910750 -0.494310
v 0.092680 1.900940 -0.517670
v 0.092290 1.900970 -0.518620
v 0.100000 1.900970 -0.520150
v 0.086480 1.900940 -0.513520
v 0.100000 1.900940 -0.519130
v 0.085750 1.900970 -0.514250
v 0.107720 1.900970 -0.518620
v 0.082330 1.900940 -0.507320
v 0.107330 1.900940 -0.517670
v 0.081380 1.900970 -0.507710
v 0.114260 1.900970 -0.514250
v 0.080870 1.900940 -0.500000
v 0.113530 1.900940 -0.513520
v 0.079850 1.900970 -0.500000
v 0.118630 1.900970 -0.507710
v 0.082330 1.900940 -0.492670
v 0.117680 1.900940 -0.507320
v 0.081380 1.900970 -0.492280
v 0.120160 1.900970 -0.500000
v 0.086480 1.900940 -0.486470
v 0.119140 1.900940 -0.500000
v 0.085750 1.900970 -0.485740
v 0.118630 1.900970 -0.492280
v 0.092680 1.900940 -0.482320
v 0.117680 1.900940 -0.492670
v 0.092290 1.900970 -0.481370
v 0.114260 1.900970 -0.485740
v 0.100000 1.900940 -0.480860
v 0.113530 1.900940 -0.486470
v 0.100000 1.900970 -0.479840
v 0.107720 1.900970 -0.481370
v 0.107330 1.900940 -0.482320
v 0.092290 1.899110 -0.518620
v 0.093520 1.899120 -0.515650
v 0.100000 1.899120 -0.516930
v 0.085750 1.899110 -0.514250
v 0.100000 1.899110 -0.520150
v 0.088030 1.899120 -0.511970
v 0.106490 1.899120 -0.515650
v 0.081380 1.899110 -0.507710
v 0.107720 1.899110 -0.518620
v 0.084350 1.899120 -0.506480
v 0.111980 1.899120 -0.511970
v 0.079850 1.899110 -0.500000
v 0.114260 1.899110 -0.514250
v 0.083060 1.899120 -0.500000
v 0.115660 1.899120 -0.506480
v 0.081380 1.899110 -0.492280
v 0.118630 1.899110 -0.507710
v 0.084350 1.899120 -0.493510
v 0.116950 1.899120 -0.500000
v 0.085750 1.899110 -0.485740
v 0.120160 1.899110 -0.500000
v 0.088030 1.899120 -0.488020
v 0.115660 1.899120 -0.493510
v 0.092290 1.899110 -0.481370
v 0.118630 1.899110 -0.492280
v 0.093520 1.899120 -0.484340
v 0.111980 1.899120 -0.488020
v 0.100000 1.899110 -0.479840
v 0.114260 1.899110 -0.485740
v 0.100000 1.899120 -0.483060
v 0.106490 1.899120 -0.484340
v 0.107720 1.899110 -0.481370
v 0.093530 1.888730 -0.515630
v 0.088520 1.883430 -0.527730
v 0.100000 1.883430 -0.530010
v 0.088040 1.888730 -0.511960
v 0.100000 1.888730 -0.516920
v 0.078780 1.883430 -0.521220
v 0.111490 1.883430 -0.527730
v 0.084370 1.888730 -0.506470
v 0.106480 1.888730 -0.515630
v 0.072270 1.883430 -0.511480
v 0.121230 1.883430 -0.521220
v 0.083080 1.888730 -0.500000
v 0.111970 1.888730 -0.511960
v 0.069990 1.883430 -0.500000
v 0.127740 1.883430 -0.511480
v 0.084370 1.888730 -0.493520
v 0.115640 1.888730 -0.506470
v 0.072270 1.883430 -0.488510
v 0.130020 1.883430 -0.500000
v 0.088040 1.888730 -0.488030
v 0.116930 1.888730 -0.500000
v 0.078780 1.883430 -0.478770
v 0.127740 1.883430 -0.488510
v 0.093530 1.888730 -0.484360
v 0.115640 1.888730 -0.493520
v 0.088520 1.883430 -0.472260
v 0.121230 1.883430 -0.478770
v 0.100000 1.888730 -0.483070
v 0.111970 1.888730 -0.488030
v 0.100000 1.883430 -0.469980
v 0.111490 1.883430 -0.472260
v 0.106480 1.888730 -0.484360
v 0.088520 1.877930 -0.527730
v 0.094400 1.878030 -0.513520
v 0.100000 1.878030 -0.514640
v 0.078780 1.877930 -0.521220
v 0.100000 1.877930 -0.530010
v 0.089650 1.878030 -0.510350
v 0.105610 1.878030 -0.513520
v 0.072270 1.877930 -0.511480
v 0.111490 1.877930 -0.527730
v 0.086480 1.878030 -0.505600
v 0.110360 1.878030 -0.510350
v 0.069990 1.877930 -0.500000
v 0.121230 1.877930 -0.521220
v 0.085360 1.878030 -0.500000
v 0.113530 1.878030 -0.505600
v 0.072270 1.877930 -0.488510
v 0.127740 1.877930 -0.511480
v 0.086480 1.878030 -0.494390
v 0.114650 1.878030 -0.500000
v 0.078780 1.877930 -0.478770
v 0.130020 1.877930 -0.500000
v 0.089650 1.878030 -0.489640
v 0.113530 1.878030 -0.494390
v 0.088520 1.877930 -0.472260
v 0.127740 1.877930 -0.488510
v 0.094400 1.878030 -0.486470
v 0.110360 1.878030 -0.489640
v 0.100000 1.877930 -0.469980
v 0.121230 1.877930 -0.478770
v 0.100000 1.878030 -0.485350
v 0.105610 1.878030 -0.486470
v 0.111490 1.877930 -0.472260
vn -0.9237 -0.0000 0.3832
vn -0.8310 -0.0000 0.5562
vn -1.0000 -0.0000 -0.0001
vn -0.9236 -0.0000 -0.3833
vn -0.8310 -0.0000 -0.5563
vn -0.3833 -0.0000 -0.9236
vn -0.5562 -0.0000 -0.8310
vn -0.0001 -0.0000 -1.0000
vn 0.3832 -0.0000 -0.9237
vn 0.5562 -0.0000 -0.8310
vn 0.9236 -0.0000 -0.3833
vn 0.8311 -0.0000 -0.5562
vn 0.8310 -0.0000 -0.5562
vn 1.0000 -0.0000 -0.0001
vn 0.9237 -0.0000 0.3832
vn 0.8310 -0.0000 0.5563
vn 0.3832 -0.0000 0.9237
vn 0.5562 -0.0000 0.8310
vn -0.0001 -0.0000 1.0000
vn -0.3833 -0.0000 0.9236
vn -0.5562 -0.0000 0.8310
vn 0.5556 -0.0000 -0.8315
vn 0.3824 -0.0000 -0.9240
vn -0.3825 -0.0000 -0.9240
vn -0.5556 -0.0000 -0.8314
vn 0.9239 -0.0000 -0.3825
vn 0.8315 -0.0000 -0.5555
vn 0.9240 -0.0000 0.3823
vn 0.8314 -0.0000 0.5557
vn 0.3824 -0.0000 0.9240
vn 0.5556 -0.0000 0.8314
vn -0.3825 -0.0000 0.9240
vn -0.5556 -0.0000 0.8315
vn -0.9240 -0.0000 0.3824
vn -0.8315 -0.0000 0.5555
vn -0.9240 -0.0000 -0.3824
vn -0.8314 -0.0000 -0.5557
vn 0.5568 -0.0013 -0.8307
vn 0.5561 -0.0018 -0.8311
vn 0.3824 -0.0019 -0.9240
vn 0.3825 -0.0018 -0.9239
vn 0.0002 -0.0013 -1.0000
vn -0.3831 -0.0018 -0.9237
vn -0.3832 -0.0019 -0.9237
vn -0.5564 -0.0018 -0.8309
vn -0.5557 -0.0013 -0.8314
vn 0.9237 -0.0019 -0.3832
vn 0.8314 -0.0013 -0.5557
vn 0.8309 -0.0018 -0.5564
vn 0.9235 -0.0021 -0.3835
vn 1.0000 -0.0020 -0.0001
vn 0.9238 -0.0021 0.3828
vn 0.9237 -0.0019 0.3831
vn 0.8311 -0.0018 0.5561
vn 0.8306 -0.0013 0.5568
vn 0.3831 -0.0019 0.9237
vn 0.5557 -0.0013 0.8314
vn 0.5564 -0.0018 0.8309
vn 0.3829 -0.0018 0.9238
vn -0.0005 -0.0013 1.0000
vn -0.3827 -0.0018 0.9239
vn -0.3826 -0.0019 0.9239
vn -0.5561 -0.0018 0.8311
vn -0.5568 -0.0013 0.8307
vn -0.9237 -0.0019 0.3830
vn -0.8313 -0.0013 0.5557
vn -0.8309 -0.0018 0.5564
vn -0.9236 -0.0021 0.3834
vn -1.0000 -0.0020 -0.0002
vn -0.9238 -0.0021 -0.3829
vn -0.9236 -0.0019 -0.3832
vn -0.8311 -0.0018 -0.5561
vn -0.8307 -0.0013 -0.5568
vn -0.9239 -0.0000 0.3825
vn -0.8314 -0.0000 0.5557
vn -0.9239 -0.0000 -0.3826
vn -0.3826 -0.0000 -0.9239
vn -0.5557 -0.0000 -0.8314
vn 0.3825 -0.0000 -0.9239
vn 0.5557 -0.0000 -0.8314
vn 0.9239 -0.0000 -0.3826
vn 0.8314 -0.0000 -0.5557
vn 0.9239 -0.0000 0.3825
vn 0.3825 -0.0000 0.9239
vn 0.5557 -0.0000 0.8314
vn -0.3826 -0.0000 0.9239
vn -0.5557 -0.0000 0.8314
vn -0.0001 0.8519 -0.5237
vn -0.2007 0.8518 -0.4839
vn -0.2001 0.8518 -0.4841
vn -0.3706 0.8518 -0.3702
vn -0.0002 0.8519 -0.5237
vn -0.3706 0.8517 -0.3705
vn 0.2007 0.8519 -0.4838
vn -0.4841 0.8517 -0.2005
vn 0.2002 0.8517 -0.4842
vn -0.4838 0.8519 -0.2008
vn 0.3705 0.8517 -0.3705
vn -0.5237 0.8519 -0.0002
vn 0.3702 0.8518 -0.3706
vn -0.5237 0.8519 -0.0001
vn 0.4839 0.8518 -0.2007
vn -0.4841 0.8519 0.1999
vn 0.4841 0.8518 -0.2001
vn -0.4839 0.8518 0.2006
vn 0.5237 0.8519 -0.0001
vn -0.3702 0.8518 0.3706
vn 0.5237 0.8519 -0.0002
vn -0.3705 0.8517 0.3705
vn 0.4838 0.8519 0.2007
vn -0.2004 0.8517 0.4841
vn 0.4842 0.8517 0.2003
vn -0.2008 0.8519 0.4838
vn 0.3706 0.8517 0.3705
vn -0.0002 0.8519 0.5237
vn 0.3706 0.8518 0.3702
vn -0.0001 0.8519 0.5237
vn 0.2007 0.8518 0.4839
vn 0.1999 0.8519 0.4841
vn -0.0000 0.9996 0.0295
vn 0.0112 0.9996 0.0270
vn 0.0206 0.9996 0.0206
vn -0.0112 0.9996 0.0269
vn 0.0270 0.9996 0.0113
vn -0.0206 0.9996 0.0208
vn 0.0294 0.9996 -0.0001
vn -0.0270 0.9996 0.0112
vn 0.0270 0.9996 -0.0112
vn -0.0294 0.9996 0.0001
vn 0.0206 0.9996 -0.0208
vn -0.0270 0.9996 -0.0113
vn 0.0112 0.9996 -0.0269
vn -0.0206 0.9996 -0.0206
vn -0.0000 0.9996 -0.0294
vn -0.0112 0.9996 -0.0271
vn -0.0000 -1.0000 0.0031
vn 0.0012 -1.0000 0.0029
vn 0.0022 -1.0000 0.0022
vn -0.0012 -1.0000 0.0029
vn 0.0029 -1.0000 0.0012
vn -0.0022 -1.0000 0.0022
vn 0.0031 -1.0000 -0.0000
vn -0.0029 -1.0000 0.0012
vn 0.0029 -1.0000 -0.0012
vn -0.0031 -1.0000 -0.0000
vn 0.0022 -1.0000 -0.0022
vn -0.0029 -1.0000 -0.0012
vn 0.0012 -1.0000 -0.0028
vn 0.0012 -1.0000 -0.0029
vn -0.0022 -1.0000 -0.0022
vn -0.0000 -1.0000 -0.0031
vn -0.0012 -1.0000 -0.0029
vn -0.0001 0.9269 -0.3753
vn -0.1435 0.9270 -0.3466
vn -0.1437 0.9269 -0.3466
vn -0.2653 0.9270 -0.2653
vn 0.1435 0.9269 -0.3466
vn -0.3465 0.9270 -0.1437
vn 0.1436 0.9270 -0.3466
vn -0.3466 0.9269 -0.1436
vn 0.2653 0.9270 -0.2653
vn -0.3752 0.9269 -0.0000
vn -0.3753 0.9269 -0.0000
vn 0.3466 0.9270 -0.1435
vn -0.3466 0.9269 0.1436
vn 0.3466 0.9269 -0.1436
vn -0.3466 0.9270 0.1435
vn 0.3753 0.9269 -0.0001
vn -0.2653 0.9270 0.2653
vn 0.3752 0.9269 -0.0001
vn 0.3466 0.9270 0.1435
vn -0.1437 0.9270 0.3465
vn 0.3466 0.9270 0.1436
vn -0.1436 0.9269 0.3466
vn 0.2653 0.9270 0.2653
vn -0.0000 0.9269 0.3752
vn -0.0000 0.9269 0.3753
vn 0.1435 0.9270 0.3466
vn 0.1436 0.9269 0.3466
vn -0.0000 -1.0000 0.0065
vn 0.0025 -1.0000 0.0060
vn 0.0046 -1.0000 0.0046
vn -0.0025 -1.0000 0.0060
vn 0.0060 -1.0000 0.0025
vn -0.0046 -1.0000 0.0046
vn 0.0065 -1.0000 -0.0000
vn -0.0060 -1.0000 0.0025
vn 0.0060 -1.0000 -0.0025
vn -0.0065 -1.0000 -0.0000
vn 0.0046 -1.0000 -0.0046
vn -0.0060 -1.0000 -0.0025
vn 0.0025 -1.0000 -0.0060
vn -0.0046 -1.0000 -0.0046
vn -0.0000 -1.0000 -0.0065
vn -0.0025 -1.0000 -0.0060
vt 2.060294 -7.564523
vt 2.125286 -7.564523
vt 2.125286 -7.480582
vt 2.060294 -7.480582
vt 1.983635 -7.564523
vt 1.983635 -7.480582
vt 1.906976 -7.564523
vt 1.906976 -7.480582
vt 1.841985 -7.564523
vt 1.841985 -7.480582
vt 1.758109 -7.463793
vt 1.823098 -7.463793
vt 1.823098 -7.379852
vt 1.758109 -7.379852
vt 1.681448 -7.463793
vt 1.681448 -7.379852
vt 1.604787 -7.463793
vt 1.604787 -7.379852
vt 1.539798 -7.463793
vt 1.539798 -7.379852
vt 2.362482 -7.564523
vt 2.427473 -7.564523
vt 2.427473 -7.480582
vt 2.362482 -7.480582
vt 2.285823 -7.564523
vt 2.285823 -7.480582
vt 2.209164 -7.564523
vt 2.209164 -7.480582
vt 2.144172 -7.564523
vt 2.144172 -7.480582
vt 4.377067 -7.564523
vt 4.442057 -7.564523
vt 4.442057 -7.480582
vt 4.377067 -7.480582
vt 4.300406 -7.564523
vt 4.300406 -7.480582
vt 4.223745 -7.564523
vt 4.223745 -7.480582
vt 4.158756 -7.564523
vt 4.158756 -7.480582
vt 4.158756 -7.581311
vt 4.158756 -7.665252
vt 4.223745 -7.581311
vt 4.223745 -7.665252
vt 4.300406 -7.581311
vt 4.300406 -7.665252
vt 4.377067 -7.581311
vt 4.377067 -7.665252
vt 4.442057 -7.581311
vt 4.442057 -7.665252
vt 4.377066 -9.579106
vt 4.442057 -9.579106
vt 4.442057 -9.495165
vt 4.377066 -9.495165
vt 4.300406 -9.579106
vt 4.300406 -9.495165
vt 4.223746 -9.579106
vt 4.223746 -9.495165
vt 4.158756 -9.579106
vt 4.158756 -9.495165
vt 1.758109 -7.564523
vt 1.823098 -7.564523
vt 1.823098 -7.480582
vt 1.758109 -7.480582
vt 1.681448 -7.564523
vt 1.681448 -7.480582
vt 1.604787 -7.564523
vt 1.604787 -7.480582
vt 1.539798 -7.564523
vt 1.539798 -7.480582
vt 4.377066 -9.478376
vt 4.442057 -9.478376
vt 4.442057 -9.394436
vt 4.377066 -9.394436
vt 4.300406 -9.478376
vt 4.300406 -9.394436
vt 4.223746 -9.478376
vt 4.223746 -9.394436
vt 4.158756 -9.478376
vt 4.158756 -9.394436
vt 2.647532 -7.984228
vt 2.647600 -8.068169
vt 2.689545 -7.984228
vt 2.689582 -8.068169
vt 2.739104 -7.984228
vt 2.739104 -8.068169
vt 2.788663 -7.984228
vt 2.788626 -8.068169
vt 2.830676 -7.984228
vt 2.830608 -8.068169
vt 2.788625 -8.269627
vt 2.830608 -8.269627
vt 2.830676 -8.185686
vt 2.788662 -8.185686
vt 2.739104 -8.269627
vt 2.739104 -8.185686
vt 2.689584 -8.269627
vt 2.689547 -8.185686
vt 2.647600 -8.269627
vt 2.647532 -8.185686
vt 2.788626 -7.967439
vt 2.830608 -7.967439
vt 2.830676 -7.883498
vt 2.788663 -7.883498
vt 2.739104 -7.967439
vt 2.739104 -7.883498
vt 2.689582 -7.967439
vt 2.689545 -7.883498
vt 2.647600 -7.967439
vt 2.647532 -7.883498
vt 2.788625 -8.168898
vt 2.830608 -8.168898
vt 2.830676 -8.084956
vt 2.788662 -8.084956
vt 2.739104 -8.168898
vt 2.739104 -8.084956
vt 2.689584 -8.168898
vt 2.689547 -8.084956
vt 2.647600 -8.168898
vt 2.647532 -8.084956
vt 3.346585 -7.765981
vt 3.434615 -7.765981
vt 3.434615 -7.682040
vt 3.346585 -7.682040
vt 3.242750 -7.765981
vt 3.242750 -7.682040
vt 3.138915 -7.765981
vt 3.138915 -7.682040
vt 3.050885 -7.765981
vt 3.050885 -7.682040
vt 4.152419 -7.765981
vt 4.240448 -7.765981
vt 4.240448 -7.682040
vt 4.152419 -7.682040
vt 4.048584 -7.765981
vt 4.048584 -7.682040
vt 3.944747 -7.765981
vt 3.944747 -7.682040
vt 3.856718 -7.765981
vt 3.856718 -7.682040
vt 2.943669 -7.765981
vt 3.031698 -7.765981
vt 3.031698 -7.682040
vt 2.943669 -7.682040
vt 2.839833 -7.765981
vt 2.839833 -7.682040
vt 2.735998 -7.765981
vt 2.735998 -7.682040
vt 2.647968 -7.765981
vt 2.647968 -7.682040
vt 3.749503 -7.765981
vt 3.837532 -7.765981
vt 3.837532 -7.682040
vt 3.749503 -7.682040
vt 3.645667 -7.765981
vt 3.645667 -7.682040
vt 3.541831 -7.765981
vt 3.541831 -7.682040
vt 3.453802 -7.765981
vt 3.453802 -7.682040
vt 3.645667 -7.664052
vt 3.719090 -7.649449
vt 3.669295 -7.529231
vt 3.689325 -7.515847
vt 3.645667 -7.533931
vt 3.781335 -7.607857
vt 3.572243 -7.649449
vt 3.702710 -7.495816
vt 3.622039 -7.529231
vt 3.822927 -7.545609
vt 3.509998 -7.607857
vt 3.707410 -7.472188
vt 3.602008 -7.515847
vt 3.837532 -7.472188
vt 3.468407 -7.545609
vt 3.702710 -7.448559
vt 3.588624 -7.495816
vt 3.822927 -7.398765
vt 3.453802 -7.472188
vt 3.689325 -7.428528
vt 3.583923 -7.472188
vt 3.781335 -7.336518
vt 3.468407 -7.398765
vt 3.669295 -7.415144
vt 3.588624 -7.448559
vt 3.719090 -7.294926
vt 3.509998 -7.336518
vt 3.645667 -7.410444
vt 3.602008 -7.428528
vt 3.645667 -7.280323
vt 3.572243 -7.294926
vt 3.622039 -7.415144
vt 3.242750 -7.664052
vt 3.316174 -7.649448
vt 3.312438 -7.640430
vt 3.371516 -7.600954
vt 3.242750 -7.654290
vt 3.378419 -7.607857
vt 3.169326 -7.649448
vt 3.410990 -7.541874
vt 3.173062 -7.640430
vt 3.420010 -7.545611
vt 3.107081 -7.607857
vt 3.424853 -7.472188
vt 3.113985 -7.600954
vt 3.434615 -7.472188
vt 3.065490 -7.545611
vt 3.410990 -7.402501
vt 3.074510 -7.541874
vt 3.420010 -7.398764
vt 3.050885 -7.472188
vt 3.371516 -7.343421
vt 3.060647 -7.472188
vt 3.378419 -7.336518
vt 3.065490 -7.398764
vt 3.312438 -7.303945
vt 3.074510 -7.402501
vt 3.316174 -7.294927
vt 3.107081 -7.336518
vt 3.242750 -7.290085
vt 3.113985 -7.343421
vt 3.242750 -7.280323
vt 3.169326 -7.294927
vt 3.173062 -7.303945
vt 2.839833 -7.633425
vt 2.778131 -7.621152
vt 2.766410 -7.649448
vt 2.704165 -7.607857
vt 2.839833 -7.664052
vt 2.725822 -7.586201
vt 2.901537 -7.621152
vt 2.662573 -7.545611
vt 2.913257 -7.649448
vt 2.690869 -7.533890
vt 2.953845 -7.586201
vt 2.647968 -7.472188
vt 2.975502 -7.607857
vt 2.678596 -7.472188
vt 2.988797 -7.533890
vt 2.662573 -7.398764
vt 3.017093 -7.545611
vt 2.690869 -7.410485
vt 3.001071 -7.472188
vt 2.704165 -7.336518
vt 3.031698 -7.472188
vt 2.725822 -7.358174
vt 2.988797 -7.410485
vt 2.766410 -7.294927
vt 3.017093 -7.398764
vt 2.778131 -7.323223
vt 2.953845 -7.358174
vt 2.839833 -7.280323
vt 2.975502 -7.336518
vt 2.839833 -7.310950
vt 2.901537 -7.323223
vt 2.913257 -7.294927
vt 0.623792 -7.865356
vt 0.735702 -7.843097
vt 0.686898 -7.725269
vt 0.740396 -7.689523
vt 0.623792 -7.737821
vt 0.830577 -7.779705
vt 0.511881 -7.843097
vt 0.776143 -7.636023
vt 0.560685 -7.725269
vt 0.893970 -7.684828
vt 0.417006 -7.779705
vt 0.788696 -7.572917
vt 0.507187 -7.689523
vt 0.916231 -7.572917
vt 0.353613 -7.684828
vt 0.776143 -7.509810
vt 0.471440 -7.636023
vt 0.893970 -7.461005
vt 0.331352 -7.572917
vt 0.740396 -7.456310
vt 0.458888 -7.572917
vt 0.830577 -7.366128
vt 0.353613 -7.461005
vt 0.686898 -7.420565
vt 0.471440 -7.509810
vt 0.735702 -7.302737
vt 0.417006 -7.366128
vt 0.623792 -7.408012
vt 0.507187 -7.456310
vt 0.623792 -7.280477
vt 0.511881 -7.302737
vt 0.560685 -7.420565
vt 1.228167 -7.715571
vt 1.173575 -7.704713
vt 1.116256 -7.843097
vt 1.021381 -7.779705
vt 1.228167 -7.865356
vt 1.127295 -7.673790
vt 1.282759 -7.704713
vt 0.957988 -7.684828
vt 1.340078 -7.843097
vt 1.096371 -7.627508
vt 1.329038 -7.673790
vt 0.935727 -7.572917
vt 1.434952 -7.779705
vt 1.085512 -7.572917
vt 1.359962 -7.627508
vt 0.957988 -7.461005
vt 1.498345 -7.684828
vt 1.096371 -7.518325
vt 1.370822 -7.572917
vt 1.021381 -7.366128
vt 1.520606 -7.572917
vt 1.127295 -7.472043
vt 1.359962 -7.518325
vt 1.116256 -7.302737
vt 1.498345 -7.461005
vt 1.173575 -7.441121
vt 1.329038 -7.472043
vt 1.228167 -7.280477
vt 1.434952 -7.366128
vt 1.228167 -7.430262
vt 1.282759 -7.441121
vt 1.340078 -7.302737
s 1
f 3/1/1 2/2/2 1/3/2
f 4/4/1 3/1/1 1/3/2
f 5/5/3 3/1/1 4/4/1
f 6/6/3 5/5/3 4/4/1
f 7/7/4 5/5/3 6/6/3
f 8/8/4 7/7/4 6/6/3
f 9/9/5 7/7/4 8/8/4
f 10/10/5 9/9/5 8/8/4
f 13/11/6 12/12/7 11/13/7
f 14/14/6 13/11/6 11/13/7
f 15/15/8 13/11/6 14/14/6
f 16/16/8 15/15/8 14/14/6
f 17/17/9 15/15/8 16/16/8
f 18/18/9 17/17/9 16/16/8
f 19/19/10 17/17/9 18/18/9
f 20/20/10 19/19/10 18/18/9
f 23/21/11 22/22/12 21/23/13
f 24/24/11 23/21/11 21/23/13
f 25/25/14 23/21/11 24/24/11
f 26/26/14 25/25/14 24/24/11
f 27/27/15 25/25/14 26/26/14
f 28/28/15 27/27/15 26/26/14
f 29/29/16 27/27/15 28/28/15
f 30/30/16 29/29/16 28/28/15
f 33/31/17 32/32/18 31/33/18
f 34/34/17 33/31/17 31/33/18
f 35/35/19 33/31/17 34/34/17
f 36/36/19 35/35/19 34/34/17
f 37/37/20 35/35/19 36/36/19
f 38/38/20 37/37/20 36/36/19
f 39/39/21 37/37/20 38/38/20
f 40/40/21 39/39/21 38/38/20
f 43/41/22 42/42/22 41/43/23
f 42/42/22 44/44/23 41/43/23
f 41/43/23 44/44/23 45/45/8
f 44/44/23 46/46/8 45/45/8
f 45/45/8 46/46/8 47/47/24
f 46/46/8 48/48/24 47/47/24
f 47/47/24 48/48/24 49/49/25
f 48/48/24 50/50/25 49/49/25
f 53/51/26 52/52/27 51/53/27
f 54/54/26 53/51/26 51/53/27
f 55/55/14 53/51/26 54/54/26
f 56/56/14 55/55/14 54/54/26
f 57/57/28 55/55/14 56/56/14
f 58/58/28 57/57/28 56/56/14
f 59/59/29 57/57/28 58/58/28
f 60/60/29 59/59/29 58/58/28
f 63/61/30 62/62/31 61/63/31
f 64/64/30 63/61/30 61/63/31
f 65/65/19 63/61/30 64/64/30
f 66/66/19 65/65/19 64/64/30
f 67/67/32 65/65/19 66/66/19
f 68/68/32 67/67/32 66/66/19
f 69/69/33 67/67/32 68/68/32
f 70/70/33 69/69/33 68/68/32
f 73/71/34 72/72/35 71/73/35
f 74/74/34 73/71/34 71/73/35
f 75/75/3 73/71/34 74/74/34
f 76/76/3 75/75/3 74/74/34
f 77/77/36 75/75/3 76/76/3
f 78/78/36 77/77/36 76/76/3
f 79/79/37 77/77/36 78/78/36
f 80/80/37 79/79/37 78/78/36
f 83/81/38 82/82/39 81/83/40
f 82/82/39 84/84/41 81/83/40
f 81/83/40 84/84/41 85/85/42
f 84/84/41 86/86/42 85/85/42
f 85/85/42 86/86/42 87/87/43
f 86/86/42 88/88/44 87/87/43
f 87/87/43 88/88/44 89/89/45
f 88/88/44 90/90/46 89/89/45
f 93/91/47 92/92/48 91/93/49
f 94/94/50 93/91/47 91/93/49
f 95/95/51 93/91/47 94/94/50
f 96/96/51 95/95/51 94/94/50
f 97/97/52 95/95/51 96/96/51
f 98/98/53 97/97/52 96/96/51
f 99/99/54 97/97/52 98/98/53
f 100/100/55 99/99/54 98/98/53
f 103/101/56 102/102/57 101/103/58
f 104/104/59 103/101/56 101/103/58
f 105/105/60 103/101/56 104/104/59
f 106/106/60 105/105/60 104/104/59
f 107/107/61 105/105/60 106/106/60
f 108/108/62 107/107/61 106/106/60
f 109/109/63 107/107/61 108/108/62
f 110/110/64 109/109/63 108/108/62
f 113/111/65 112/112/66 111/113/67
f 114/114/68 113/111/65 111/113/67
f 115/115/69 113/111/65 114/114/68
f 116/116/69 115/115/69 114/114/68
f 117/117/70 115/115/69 116/116/69
f 118/118/71 117/117/70 116/116/69
f 119/119/72 117/117/70 118/118/71
f 120/120/73 119/119/72 118/118/71
f 123/121/74 122/122/75 121/123/75
f 124/124/74 123/121/74 121/123/75
f 125/125/3 123/121/74 124/124/74
f 126/126/3 125/125/3 124/124/74
f 127/127/76 125/125/3 126/126/3
f 128/128/76 127/127/76 126/126/3
f 129/129/37 127/127/76 128/128/76
f 130/130/37 129/129/37 128/128/76
f 133/131/77 132/132/78 131/133/78
f 134/134/77 133/131/77 131/133/78
f 135/135/8 133/131/77 134/134/77
f 136/136/8 135/135/8 134/134/77
f 137/137/79 135/135/8 136/136/8
f 138/138/79 137/137/79 136/136/8
f 139/139/80 137/137/79 138/138/79
f 140/140/80 139/139/80 138/138/79
f 143/141/81 142/142/82 141/143/82
f 144/144/81 143/141/81 141/143/82
f 145/145/14 143/141/81 144/144/81
f 146/146/14 145/145/14 144/144/81
f 147/147/83 145/145/14 146/146/14
f 148/148/83 147/147/83 146/146/14
f 149/149/29 147/147/83 148/148/83
f 150/150/29 149/149/29 148/148/83
f 153/151/84 152/152/85 151/153/85
f 154/154/84 153/151/84 151/153/85
f 155/155/19 153/151/84 154/154/84
f 156/156/19 155/155/19 154/154/84
f 157/157/86 155/155/19 156/156/19
f 158/158/86 157/157/86 156/156/19
f 159/159/87 157/157/86 158/158/86
f 160/160/87 159/159/87 158/158/86
f 163/161/88 162/162/89 161/163/90
f 161/163/90 162/162/89 164/164/91
f 165/165/92 163/161/88 161/163/90
f 162/162/89 166/166/93 164/164/91
f 167/167/94 163/161/88 165/165/92
f 164/164/91 166/166/93 168/168/95
f 169/169/96 167/167/94 165/165/92
f 166/166/93 170/170/97 168/168/95
f 171/171/98 167/167/94 169/169/96
f 168/168/95 170/170/97 172/172/99
f 173/173/100 171/171/98 169/169/96
f 170/170/97 174/174/101 172/172/99
f 175/175/102 171/171/98 173/173/100
f 172/172/99 174/174/101 176/176/103
f 177/177/104 175/175/102 173/173/100
f 174/174/101 178/178/105 176/176/103
f 179/179/106 175/175/102 177/177/104
f 176/176/103 178/178/105 180/180/107
f 181/181/108 179/179/106 177/177/104
f 178/178/105 182/182/109 180/180/107
f 183/183/110 179/179/106 181/181/108
f 180/180/107 182/182/109 184/184/111
f 185/185/112 183/183/110 181/181/108
f 182/182/109 186/186/113 184/184/111
f 187/187/114 183/183/110 185/185/112
f 184/184/111 186/186/113 188/188/115
f 189/189/116 187/187/114 185/185/112
f 186/186/113 190/190/117 188/188/115
f 191/191/118 187/187/114 189/189/116
f 188/188/115 190/190/117 192/192/119
f 192/192/119 191/191/118 189/189/116
f 190/190/117 191/191/118 192/192/119
f 195/193/120 194/194/121 193/195/121
f 193/195/121 194/194/121 196/196/122
f 197/197/120 195/193/120 193/195/121
f 194/194/121 198/198/122 196/196/122
f 199/199/123 195/193/120 197/197/120
f 196/196/122 198/198/122 200/200/124
f 201/201/123 199/199/123 197/197/120
f 198/198/122 202/202/124 200/200/124
f 203/203/125 199/199/123 201/201/123
f 200/200/124 202/202/124 204/204/126
f 205/205/125 203/203/125 201/201/123
f 202/202/124 206/206/126 204/204/126
f 207/207/127 203/203/125 205/205/125
f 204/204/126 206/206/126 208/208/128
f 209/209/127 207/207/127 205/205/125
f 206/206/126 210/210/128 208/208/128
f 211/211/129 207/207/127 209/209/127
f 208/208/128 210/210/128 212/212/130
f 213/213/129 211/211/129 209/209/127
f 210/210/128 214/214/130 212/212/130
f 215/215/131 211/211/129 213/213/129
f 212/212/130 214/214/130 216/216/132
f 217/217/131 215/215/131 213/213/129
f 214/214/130 218/218/132 216/216/132
f 219/219/133 215/215/131 217/217/131
f 216/216/132 218/218/132 220/220/134
f 221/221/133 219/219/133 217/217/131
f 218/218/132 222/222/134 220/220/134
f 223/223/135 219/219/133 221/221/133
f 220/220/134 222/222/134 224/224/135
f 224/224/135 223/223/135 221/221/133
f 222/222/134 223/223/135 224/224/135
f 227/225/136 226/226/137 225/227/137
f 225/227/137 226/226/137 228/228/138
f 229/229/136 227/225/136 225/227/137
f 226/226/137 230/230/138 228/228/138
f 231/231/139 227/225/136 229/229/136
f 228/228/138 230/230/138 232/232/140
f 233/233/139 231/231/139 229/229/136
f 230/230/138 234/234/140 232/232/140
f 235/235/141 231/231/139 233/233/139
f 232/232/140 234/234/140 236/236/142
f 237/237/141 235/235/141 233/233/139
f 234/234/140 238/238/142 236/236/142
f 239/239/143 235/235/141 237/237/141
f 236/236/142 238/238/142 240/240/144
f 241/241/143 239/239/143 237/237/141
f 238/238/142 242/242/144 240/240/144
f 243/243/145 239/239/143 241/241/143
f 240/240/144 242/242/144 244/244/146
f 245/245/145 243/243/145 241/241/143
f 242/242/144 246/246/146 244/244/146
f 247/247/147 243/243/145 245/245/145
f 244/244/146 246/246/146 248/248/148
f 249/249/147 247/247/147 245/245/145
f 246/246/146 250/250/149 248/248/148
f 251/251/150 247/247/147 249/249/147
f 248/248/148 250/250/149 252/252/151
f 253/253/150 251/251/150 249/249/147
f 250/250/149 254/254/151 252/252/151
f 255/255/152 251/251/150 253/253/150
f 252/252/151 254/254/151 256/256/152
f 256/256/152 255/255/152 253/253/150
f 254/254/151 255/255/152 256/256/152
f 259/257/153 258/258/154 257/259/155
f 257/259/155 258/258/154 260/260/156
f 261/261/153 259/257/153 257/259/155
f 258/258/154 262/262/156 260/260/156
f 263/263/157 259/257/153 261/261/153
f 260/260/156 262/262/156 264/264/158
f 265/265/159 263/263/157 261/261/153
f 262/262/156 266/266/160 264/264/158
f 267/267/161 263/263/157 265/265/159
f 264/264/158 266/266/160 268/268/162
f 269/269/161 267/267/161 265/265/159
f 266/266/160 270/270/163 268/268/162
f 271/271/164 267/267/161 269/269/161
f 268/268/162 270/270/163 272/272/165
f 273/273/166 271/271/164 269/269/161
f 270/270/163 274/274/167 272/272/165
f 275/275/168 271/271/164 273/273/166
f 272/272/165 274/274/167 276/276/169
f 277/277/170 275/275/168 273/273/166
f 274/274/167 278/278/169 276/276/169
f 279/279/171 275/275/168 277/277/170
f 276/276/169 278/278/169 280/280/172
f 281/281/173 279/279/171 277/277/170
f 278/278/169 282/282/174 280/280/172
f 283/283/175 279/279/171 281/281/173
f 280/280/172 282/282/174 284/284/176
f 285/285/175 283/283/175 281/281/173
f 282/282/174 286/286/177 284/284/176
f 287/287/178 283/283/175 285/285/175
f 284/284/176 286/286/177 288/288/179
f 288/288/179 287/287/178 285/285/175
f 286/286/177 287/287/178 288/288/179
f 291/289/180 290/290/181 289/291/181
f 289/291/181 290/290/181 292/292/182
f 293/293/180 291/289/180 289/291/181
f 290/290/181 294/294/182 292/292/182
f 295/295/183 291/289/180 293/293/180
f 292/292/182 294/294/182 296/296/184
f 297/297/183 295/295/183 293/293/180
f 294/294/182 298/298/184 296/296/184
f 299/299/185 295/295/183 297/297/183
f 296/296/184 298/298/184 300/300/186
f 301/301/185 299/299/185 297/297/183
f 298/298/184 302/302/186 300/300/186
f 303/303/187 299/299/185 301/301/185
f 300/300/186 302/302/186 304/304/188
f 305/305/187 303/303/187 301/301/185
f 302/302/186 306/306/188 304/304/188
f 307/307/189 303/303/187 305/305/187
f 304/304/188 306/306/188 308/308/190
f 309/309/189 307/307/189 305/305/187
f 306/306/188 310/310/190 308/308/190
f 311/311/191 307/307/189 309/309/189
f 308/308/190 310/310/190 312/312/192
f 313/313/191 311/311/191 309/309/189
f 310/310/190 314/314/192 312/312/192
f 315/315/193 311/311/191 313/313/191
f 312/312/192 314/314/192 316/316/194
f 317/317/193 315/315/193 313/313/191
f 314/314/192 318/318/194 316/316/194
f 319/319/195 315/315/193 317/317/193
f 316/316/194 318/318/194 320/320/195
f 320/320/195 319/319/195 317/317/193
f 318/318/194 319/319/195 320/320/195
f 3/1/1 2/2/2 1/3/2
f 4/4/1 3/1/1 1/3/2
f 5/5/3 3/1/1 4/4/1
f 6/6/3 5/5/3 4/4/1
f 7/7/4 5/5/3 6/6/3
f 8/8/4 7/7/4 6/6/3
f 9/9/5 7/7/4 8/8/4
f 10/10/5 9/9/5 8/8/4
f 13/11/6 12/12/7 11/13/7
f 14/14/6 13/11/6 11/13/7
f 15/15/8 13/11/6 14/14/6
f 16/16/8 15/15/8 14/14/6
f 17/17/9 15/15/8 16/16/8
f 18/18/9 17/17/9 16/16/8
f 19/19/10 17/17/9 18/18/9
f 20/20/10 19/19/10 18/18/9
f 23/21/11 22/22/12 21/23/13
f 24/24/11 23/21/11 21/23/13
f 25/25/14 23/21/11 24/24/11
f 26/26/14 25/25/14 24/24/11
f 27/27/15 25/25/14 26/26/14
f 28/28/15 27/27/15 26/26/14
f 29/29/16 27/27/15 28/28/15
f 30/30/16 29/29/16 28/28/15
f 33/31/17 32/32/18 31/33/18
f 34/34/17 33/31/17 31/33/18
f 35/35/19 33/31/17 34/34/17
f 36/36/19 35/35/19 34/34/17
f 37/37/20 35/35/19 36/36/19
f 38/38/20 37/37/20 36/36/19
f 39/39/21 37/37/20 38/38/20
f 40/40/21 39/39/21 38/38/20
f 43/41/22 42/42/22 41/43/23
f 42/42/22 44/44/23 41/43/23
f 41/43/23 44/44/23 45/45/8
f 44/44/23 46/46/8 45/45/8
f 45/45/8 46/46/8 47/47/24
f 46/46/8 48/48/24 47/47/24
f 47/47/24 48/48/24 49/49/25
f 48/48/24 50/50/25 49/49/25
f 53/51/26 52/52/27 51/53/27
f 54/54/26 53/51/26 51/53/27
f 55/55/14 53/51/26 54/54/26
f 56/56/14 55/55/14 54/54/26
f 57/57/28 55/55/14 56/56/14
f 58/58/28 57/57/28 56/56/14
f 59/59/29 57/57/28 58/58/28
f 60/60/29 59/59/29 58/58/28
f 63/61/30 62/62/31 61/63/31
f 64/64/30 63/61/30 61/63/31
f 65/65/19 63/61/30 64/64/30
f 66/66/19 65/65/19 64/64/30
f 67/67/32 65/65/19 66/66/19
f 68/68/32 67/67/32 66/66/19
f 69/69/33 67/67/32 68/68/32
f 70/70/33 69/69/33 68/68/32
f 73/71/34 72/72/35 71/73/35
f 74/74/34 73/71/34 71/73/35
f 75/75/3 73/71/34 74/74/34
f 76/76/3 75/75/3 74/74/34
f 77/77/36 75/75/3 76/76/3
f 78/78/36 77/77/36 76/76/3
f 79/79/37 77/77/36 78/78/36
f 80/80/37 79/79/37 78/78/36
f 83/81/38 82/82/39 81/83/40
f 82/82/39 84/84/41 81/83/40
f 81/83/40 84/84/41 85/85/42
f 84/84/41 86/86/42 85/85/42
f 85/85/42 86/86/42 87/87/43
f 86/86/42 88/88/44 87/87/43
f 87/87/43 88/88/44 89/89/45
f 88/88/44 90/90/46 89/89/45
f 93/91/47 92/92/48 91/93/49
f 94/94/50 93/91/47 91/93/49
f 95/95/51 93/91/47 94/94/50
f 96/96/51 95/95/51 94/94/50
f 97/97/52 95/95/51 96/96/51
f 98/98/53 97/97/52 96/96/51
f 99/99/54 97/97/52 98/98/53
f 100/100/55 99/99/54 98/98/53
f 103/101/56 102/102/57 101/103/58
f 104/104/59 103/101/56 101/103/58
f 105/105/60 103/101/56 104/104/59
f 106/106/60 105/105/60 104/104/59
f 107/107/61 105/105/60 106/106/60
f 108/108/62 107/107/61 106/106/60
f 109/109/63 107/107/61 108/108/62
f 110/110/64 109/109/63 108/108/62
f 113/111/65 112/112/66 111/113/67
f 114/114/68 113/111/65 111/113/67
f 115/115/69 113/111/65 114/114/68
f 116/116/69 115/115/69 114/114/68
f 117/117/70 115/115/69 116/116/69
f 118/118/71 117/117/70 116/116/69
f 119/119/72 117/117/70 118/118/71
f 120/120/73 119/119/72 118/118/71
f 123/121/74 122/122/75 121/123/75
f 124/124/74 123/121/74 121/123/75
f 125/125/3 123/121/74 124/124/74
f 126/126/3 125/125/3 124/124/74
f 127/127/76 125/125/3 126/126/3
f 128/128/76 127/127/76 126/126/3
f 129/129/37 127/127/76 128/128/76
f 130/130/37 129/129/37 128/128/76
f 133/131/77 132/132/78 131/133/78
f 134/134/77 133/131/77 131/133/78
f 135/135/8 133/131/77 134/134/77
f 136/136/8 135/135/8 134/134/77
f 137/137/79 135/135/8 136/136/8
f 138/138/79 137/137/79 136/136/8
f 139/139/80 137/137/79 138/138/79
f 140/140/80 139/139/80 138/138/79
f 143/141/81 142/142/82 141/143/82
f 144/144/81 143/141/81 141/143/82
f 145/145/14 143/141/81 144/144/81
f 146/146/14 145/145/14 144/144/81
f 147/147/83 145/145/14 146/146/14
f 148/148/83 147/147/83 146/146/14
f 149/149/29 147/147/83 148/148/83
f 150/150/29 149/149/29 148/148/83
f 153/151/84 152/152/85 151/153/85
f 154/154/84 153/151/84 151/153/85
f 155/155/19 153/151/84 154/154/84
f 156/156/19 155/155/19 154/154/84
f 157/157/86 155/155/19 156/156/19
f 158/158/86 157/157/86 156/156/19
f 159/159/87 157/157/86 158/158/86
f 160/160/87 159/159/87 158/158/86
f 163/161/88 162/162/89 161/163/90
f 161/163/90 162/162/89 164/164/91
f 165/165/92 163/161/88 161/163/90
f 162/162/89 166/166/93 164/164/91
f 167/167/94 163/161/88 165/165/92
f 164/164/91 166/166/93 168/168/95
f 169/169/96 167/167/94 165/165/92
f 166/166/93 170/170/97 168/168/95
f 171/171/98 167/167/94 169/169/96
f 168/168/95 170/170/97 172/172/99
f 173/173/100 171/171/98 169/169/96
f 170/170/97 174/174/101 172/172/99
f 175/175/102 171/171/98 173/173/100
f 172/172/99 174/174/101 176/176/103
f 177/177/104 175/175/102 173/173/100
f 174/174/101 178/178/105 176/176/103
f 179/179/106 175/175/102 177/177/104
f 176/176/103 178/178/105 180/180/107
f 181/181/108 179/179/106 177/177/104
f 178/178/105 182/182/109 180/180/107
f 183/183/110 179/179/106 181/181/108
f 180/180/107 182/182/109 184/184/111
f 185/185/112 183/183/110 181/181/108
f 182/182/109 186/186/113 184/184/111
f 187/187/114 183/183/110 185/185/112
f 184/184/111 186/186/113 188/188/115
f 189/189/116 187/187/114 185/185/112
f 186/186/113 190/190/117 188/188/115
f 191/191/118 187/187/114 189/189/116
f 188/188/115 190/190/117 192/192/119
f 192/192/119 191/191/118 189/189/116
f 190/190/117 191/191/118 192/192/119
f 195/193/120 194/194/121 193/195/121
f 193/195/121 194/194/121 196/196/122
f 197/197/120 195/193/120 193/195/121
f 194/194/121 198/198/122 196/196/122
f 199/199/123 195/193/120 197/197/120
f 196/196/122 198/198/122 200/200/124
f 201/201/123 199/199/123 197/197/120
f 198/198/122 202/202/124 200/200/124
f 203/203/125 199/199/123 201/201/123
f 200/200/124 202/202/124 204/204/126
f 205/205/125 203/203/125 201/201/123
f 202/202/124 206/206/126 204/204/126
f 207/207/127 203/203/125 205/205/125
f 204/204/126 206/206/126 208/208/128
f 209/209/127 207/207/127 205/205/125
f 206/206/126 210/210/128 208/208/128
f 211/211/129 207/207/127 209/209/127
f 208/208/128 210/210/128 212/212/130
f 213/213/129 211/211/129 209/209/127
f 210/210/128 214/214/130 212/212/130
f 215/215/131 211/211/129 213/213/129
f 212/212/130 214/214/130 216/216/132
f 217/217/131 215/215/131 213/213/129
f 214/214/130 218/218/132 216/216/132
f 219/219/133 215/215/131 217/217/131
f 216/216/132 218/218/132 220/220/134
f 221/221/133 219/219/133 217/217/131
f 218/218/132 222/222/134 220/220/134
f 223/223/135 219/219/133 221/221/133
f 220/220/134 222/222/134 224/224/135
f 224/224/135 223/223/135 221/221/133
f 222/222/134 223/223/135 224/224/135
f 227/225/136 226/226/137 225/227/137
f 225/227/137 226/226/137 228/228/138
f 229/229/136 227/225/136 225/227/137
f 226/226/137 230/230/138 228/228/138
f 231/231/139 227/225/136 229/229/136
f 228/228/138 230/230/138 232/232/140
f 233/233/139 231/231/139 229/229/136
f 230/230/138 234/234/140 232/232/140
f 235/235/141 231/231/139 233/233/139
f 232/232/140 234/234/140 236/236/142
f 237/237/141 235/235/141 233/233/139
f 234/234/140 238/238/142 236/236/142
f 239/239/143 235/235/141 237/237/141
f 236/236/142 238/238/142 240/240/144
f 241/241/143 239/239/143 237/237/141
f 238/238/142 242/242/144 240/240/144
f 243/243/145 239/239/143 241/241/143
f 240/240/144 242/242/144 244/244/146
f 245/245/145 243/243/145 241/241/143
f 242/242/144 246/246/146 244/244/146
f 247/247/147 243/243/145 245/245/145
f 244/244/146 246/246/146 248/248/148
f 249/249/147 247/247/147 245/245/145
f 246/246/146 250/250/149 248/248/148
f 251/251/150 247/247/147 249/249/147
f 248/248/148 250/250/149 252/252/151
f 253/253/150 251/251/150 249/249/147
f 250/250/149 254/254/151 252/252/151
f 255/255/152 251/251/150 253/253/150
f 252/252/151 254/254/151 256/256/152
f 256/256/152 255/255/152 253/253/150
f 254/254/151 255/255/152 256/256/152
f 259/257/153 258/258/154 257/259/155
f 257/259/155 258/258/154 260/260/156
f 261/261/153 259/257/153 257/259/155
f 258/258/154 262/262/156 260/260/156
f 263/263/157 259/257/153 261/261/153
f 260/260/156 262/262/156 264/264/158
f 265/265/159 263/263/157 261/261/153
f 262/262/156 266/266/160 264/264/158
f 267/267/161 263/263/157 265/265/159
f 264/264/158 266/266/160 268/268/162
f 269/269/161 267/267/161 265/265/159
f 266/266/160 270/270/163 268/268/162
f 271/271/164 267/267/161 269/269/161
f 268/268/162 270/270/163 272/272/165
f 273/273/166 271/271/164 269/269/161
f 270/270/163 274/274/167 272/272/165
f 275/275/168 271/271/164 273/273/166
f 272/272/165 274/274/167 276/276/169
f 277/277/170 275/275/168 273/273/166
f 274/274/167 278/278/169 276/276/169
f 279/279/171 275/275/168 277/277/170
f 276/276/169 278/278/169 280/280/172
f 281/281/173 279/279/171 277/277/170
f 278/278/169 282/282/174 280/280/172
f 283/283/175 279/279/171 281/281/173
f 280/280/172 282/282/174 284/284/176
f 285/285/175 283/283/175 281/281/173
f 282/282/174 286/286/177 284/284/176
f 287/287/178 283/283/175 285/285/175
f 284/284/176 286/286/177 288/288/179
f 288/288/179 287/287/178 285/285/175
f 286/286/177 287/287/178 288/288/179
f 291/289/180 290/290/181 289/291/181
f 289/291/181 290/290/181 292/292/182
f 293/293/180 291/289/180 289/291/181
f 290/290/181 294/294/182 292/292/182
f 295/295/183 291/289/180 293/293/180
f 292/292/182 294/294/182 296/296/184
f 297/297/183 295/295/183 293/293/180
f 294/294/182 298/298/184 296/296/184
f 299/299/185 295/295/183 297/297/183
f 296/296/184 298/298/184 300/300/186
f 301/301/185 299/299/185 297/297/183
f 298/298/184 302/302/186 300/300/186
f 303/303/187 299/299/185 301/301/185
f 300/300/186 302/302/186 304/304/188
f 305/305/187 303/303/187 301/301/185
f 302/302/186 306/306/188 304/304/188
f 307/307/189 303/303/187 305/305/187
f 304/304/188 306/306/188 308/308/190
f 309/309/189 307/307/189 305/305/187
f 306/306/188 310/310/190 308/308/190
f 311/311/191 307/307/189 309/309/189
f 308/308/190 310/310/190 312/312/192
f 313/313/191 311/311/191 309/309/189
f 310/310/190 314/314/192 312/312/192
f 315/315/193 311/311/191 313/313/191
f 312/312/192 314/314/192 316/316/194
f 317/317/193 315/315/193 313/313/191
f 314/314/192 318/318/194 316/316/194
f 319/319/195 315/315/193 317/317/193
f 316/316/194 318/318/194 320/320/195
f 320/320/195 319/319/195 317/317/193
f 318/318/194 319/319/195 320/320/195
