# Blender 3.6.0
# www.blender.org
o LightFixture_a671818b_LightFixture_a671818b_2
v 0.061740 2.500000 -0.592380
v 0.029290 2.500000 -0.570710
v 0.029290 2.495000 -0.570710
v 0.061740 2.495000 -0.592380
v 0.100000 2.500000 -0.600000
v 0.100000 2.495000 -0.600000
v 0.138270 2.500000 -0.592380
v 0.138270 2.495000 -0.592380
v 0.170720 2.500000 -0.570710
v 0.170720 2.495000 -0.570710
v 0.029290 2.500000 -0.570710
v 0.007620 2.495000 -0.538260
v 0.029290 2.495000 -0.570710
v 0.007620 2.500000 -0.538260
v 0.000000 2.495000 -0.500000
v 0.000000 2.500000 -0.500000
v 0.007620 2.495000 -0.461730
v 0.007620 2.500000 -0.461730
v 0.029290 2.495000 -0.429280
v 0.029290 2.500000 -0.429280
v 0.029290 2.500000 -0.429280
v 0.061740 2.495000 -0.407610
v 0.029290 2.495000 -0.429280
v 0.061740 2.500000 -0.407610
v 0.100000 2.495000 -0.399990
v 0.100000 2.500000 -0.399990
v 0.138270 2.495000 -0.407610
v 0.138270 2.500000 -0.407610
v 0.170720 2.495000 -0.429280
v 0.170720 2.500000 -0.429280
v 0.170720 2.500000 -0.429280
v 0.192390 2.495000 -0.461730
v 0.170720 2.495000 -0.429280
v 0.192390 2.500000 -0.461730
v 0.200000 2.495000 -0.500000
v 0.200000 2.500000 -0.500000
v 0.192390 2.495000 -0.538260
v 0.192390 2.500000 -0.538260
v 0.170720 2.495000 -0.570710
v 0.170720 2.500000 -0.570710
v 0.102360 2.482340 -0.505680
v 0.104360 1.910750 -0.504350
v 0.104360 2.482340 -0.504350
v 0.102360 1.910750 -0.505680
v 0.100000 2.482340 -0.506150
v 0.100000 1.910750 -0.506150
v 0.097650 2.482340 -0.505680
v 0.097650 1.910750 -0.505680
v 0.095650 2.482340 -0.504350
v 0.095650 1.910750 -0.504350
v 0.104360 2.482340 -0.504350
v 0.104360 1.910750 -0.504350
v 0.105690 1.910750 -0.502350
v 0.105690 2.482340 -0.502350
v 0.106160 1.910750 -0.500000
v 0.106160 2.482340 -0.500000
v 0.105690 1.910750 -0.497640
v 0.105690 2.482340 -0.497640
v 0.104360 1.910750 -0.495640
v 0.104360 2.482340 -0.495640
v 0.104360 2.482340 -0.495640
v 0.104360 1.910750 -0.495640
v 0.102360 1.910750 -0.494310
v 0.102360 2.482340 -0.494310
v 0.100000 1.910750 -0.493840
v 0.100000 2.482340 -0.493840
v 0.097650 1.910750 -0.494310
v 0.097650 2.482340 -0.494310
v 0.095650 1.910750 -0.495640
v 0.095650 2.482340 -0.495640
v 0.095650 2.482340 -0.495640
v 0.095650 1.910750 -0.495640
v 0.094320 1.910750 -0.497640
v 0.094320 2.482340 -0.497640
v 0.093850 1.910750 -0.500000
v 0.093850 2.482340 -0.500000
v 0.094320 1.910750 -0.502350
v 0.094320 2.482340 -0.502350
v 0.095650 1.910750 -0.504350
v 0.095650 2.482340 -0.504350
v 0.083070 2.482340 -0.540880
v 0.097650 2.482340 -0.505680
v 0.100000 2.482340 -0.506150
v 0.068720 2.482340 -0.531280
v 0.095650 2.482340 -0.504350
v 0.100000 2.482340 -0.544240
v 0.102360 2.482340 -0.505680
v 0.059120 2.482340 -0.516930
v 0.094320 2.482340 -0.502350
v 0.116940 2.482340 -0.540880
v 0.104360 2.482340 -0.504350
v 0.055760 2.482340 -0.500000
v 0.093850 2.482340 -0.500000
v 0.131290 2.482340 -0.531280
v 0.105690 2.482340 -0.502350
v 0.059120 2.482340 -0.483060
v 0.094320 2.482340 -0.497640
v 0.140890 2.482340 -0.516930
v 0.106160 2.482340 -0.500000
v 0.068720 2.482340 -0.468710
v 0.095650 2.482340 -0.495640
v 0.144250 2.482340 -0.500000
v 0.105690 2.482340 -0.497640
v 0.083070 2.482340 -0.459110
v 0.097650 2.482340 -0.494310
v 0.140890 2.482340 -0.483060
v 0.104360 2.482340 -0.495640
v 0.100000 2.482340 -0.455750
v 0.100000 2.482340 -0.493840
v 0.131290 2.482340 -0.468710
v 0.102360 2.482340 -0.494310
v 0.116940 2.482340 -0.459110
v 0.192390 2.495000 -0.538260
v 0.170720 2.495000 -0.570710
v 0.200000 2.495000 -0.500000
v 0.192390 2.495000 -0.461730
v 0.138270 2.495000 -0.592380
v 0.170720 2.495000 -0.429280
v 0.138270 2.495000 -0.407610
v 0.100000 2.495000 -0.600000
v 0.100000 2.495000 -0.399990
v 0.061740 2.495000 -0.592380
v 0.061740 2.495000 -0.407610
v 0.029290 2.495000 -0.570710
v 0.029290 2.495000 -0.429280
v 0.007620 2.495000 -0.538260
v 0.007620 2.495000 -0.461730
v 0.000000 2.495000 -0.500000
vn -0.5554 -0.0000 -0.8316
vn -0.3827 -0.0000 -0.9239
vn -0.0000 -0.0000 -1.0000
vn 0.3826 -0.0000 -0.9239
vn 0.5554 -0.0000 -0.8316
vn -0.8316 -0.0000 -0.5553
vn -0.9239 -0.0000 -0.3827
vn -1.0000 -0.0000 -0.0000
vn -0.9239 -0.0000 0.3826
vn -0.8316 -0.0000 0.5554
vn -0.5553 -0.0000 0.8316
vn -0.3827 -0.0000 0.9239
vn -0.0000 -0.0000 1.0000
vn 0.3827 -0.0000 0.9239
vn 0.5553 -0.0000 0.8316
vn 0.8316 -0.0000 0.5554
vn 0.9239 -0.0000 0.3825
vn 1.0000 -0.0000 -0.0000
vn 0.9239 -0.0000 -0.3826
vn 0.8316 -0.0000 -0.5554
vn 0.5538 -0.0000 -0.8327
vn 0.5537 -0.0000 -0.8327
vn 0.3818 -0.0000 -0.9242
vn 0.3817 -0.0000 -0.9243
vn -0.0004 -0.0000 -1.0000
vn -0.3821 -0.0000 -0.9241
vn -0.3822 -0.0000 -0.9241
vn -0.5537 -0.0000 -0.8327
vn -0.5538 -0.0000 -0.8327
vn 0.9241 -0.0000 -0.3822
vn 0.8327 -0.0000 -0.5537
vn 0.9241 -0.0000 -0.3821
vn 1.0000 -0.0000 -0.0004
vn 0.9243 -0.0000 0.3818
vn 0.8327 -0.0000 0.5537
vn 0.3818 -0.0000 0.9243
vn 0.5537 -0.0000 0.8327
vn 0.5538 -0.0000 0.8327
vn -0.0004 -0.0000 1.0000
vn -0.3822 -0.0000 0.9241
vn -0.3821 -0.0000 0.9241
vn -0.5538 -0.0000 0.8327
vn -0.5537 -0.0000 0.8327
vn -0.9243 -0.0000 0.3818
vn -0.8327 -0.0000 0.5537
vn -1.0000 -0.0000 -0.0004
vn -0.9241 -0.0000 -0.3821
vn -0.9241 -0.0000 -0.3822
vn -0.8327 -0.0000 -0.5537
vn -0.0000 -1.0000 -0.0000
vn -0.0479 -0.9921 -0.1156
vn -0.0885 -0.9921 -0.0884
vn -0.0000 -0.9921 -0.1251
vn -0.1156 -0.9921 -0.0479
vn 0.0479 -0.9921 -0.1156
vn -0.1251 -0.9921 -0.0000
vn 0.0884 -0.9921 -0.0885
vn -0.1156 -0.9921 0.0479
vn 0.1156 -0.9921 -0.0479
vn -0.0884 -0.9921 0.0885
vn 0.1251 -0.9921 -0.0000
vn -0.0479 -0.9921 0.1156
vn 0.1156 -0.9921 0.0479
vn -0.0000 -0.9921 0.1251
vn 0.0885 -0.9921 0.0884
vn 0.0479 -0.9921 0.1156
vn 0.2046 -0.9752 -0.0847
vn 0.1566 -0.9752 -0.1566
vn 0.2215 -0.9752 -0.0000
vn 0.2046 -0.9752 0.0847
vn 0.0848 -0.9752 -0.2046
vn 0.1566 -0.9752 0.1566
vn 0.0847 -0.9752 0.2046
vn -0.0000 -0.9752 -0.2214
vn -0.0000 -0.9752 0.2214
vn -0.0847 -0.9752 -0.2046
vn -0.0848 -0.9752 0.2046
vn -0.1566 -0.9752 -0.1566
vn -0.1566 -0.9752 0.1566
vn -0.2046 -0.9752 -0.0848
vn -0.2046 -0.9752 0.0847
vn -0.2214 -0.9752 -0.0000
vt 4.139405 -9.579106
vt 4.139405 -9.495165
vt 3.866661 -9.495165
vt 3.866661 -9.579106
vt 3.544938 -9.495165
vt 3.544938 -9.579106
vt 3.223214 -9.495165
vt 3.223214 -9.579106
vt 2.950470 -9.495165
vt 2.950470 -9.579106
vt 2.950470 -9.478376
vt 3.223214 -9.478376
vt 2.950470 -9.394436
vt 3.223214 -9.394436
vt 3.544938 -9.478376
vt 3.544938 -9.394436
vt 3.866661 -9.478376
vt 3.866661 -9.394436
vt 4.139405 -9.478376
vt 4.139405 -9.394436
vt 1.741720 -9.579106
vt 2.014464 -9.579106
vt 1.741720 -9.495165
vt 2.014464 -9.495165
vt 2.336188 -9.579106
vt 2.336188 -9.495165
vt 2.657911 -9.579106
vt 2.657911 -9.495165
vt 2.930655 -9.579106
vt 2.930655 -9.495165
vt 1.741720 -9.478376
vt 2.014464 -9.478376
vt 1.741720 -9.394436
vt 2.014464 -9.394436
vt 2.336188 -9.478376
vt 2.336188 -9.394436
vt 2.657911 -9.478376
vt 2.657911 -9.394436
vt 2.930655 -9.478376
vt 2.930655 -9.394436
vt -0.072918 -4.762531
vt -0.072918 -9.577469
vt -0.053662 -4.762531
vt -0.053662 -9.577469
vt -0.030948 -4.762531
vt -0.030948 -9.577469
vt -0.008234 -4.762531
vt -0.008234 -9.577469
vt 0.011023 -4.762531
vt 0.011023 -9.577469
vt -0.310421 -9.577469
vt -0.291165 -9.577469
vt -0.291165 -4.762531
vt -0.310421 -4.762531
vt -0.333135 -9.577469
vt -0.333135 -4.762531
vt -0.355849 -9.577469
vt -0.355849 -4.762531
vt -0.375106 -9.577469
vt -0.375106 -4.762531
vt -0.108963 -9.577469
vt -0.089707 -9.577469
vt -0.089707 -4.762531
vt -0.108963 -4.762531
vt -0.131677 -9.577469
vt -0.131677 -4.762531
vt -0.154391 -9.577469
vt -0.154391 -4.762531
vt -0.173648 -9.577469
vt -0.173648 -4.762531
vt -0.209692 -9.577469
vt -0.190436 -9.577469
vt -0.190436 -4.762531
vt -0.209692 -4.762531
vt -0.232406 -9.577469
vt -0.232406 -4.762531
vt -0.255120 -9.577469
vt -0.255120 -4.762531
vt -0.274377 -9.577469
vt -0.274377 -4.762531
vt 0.875615 -8.783404
vt 0.855676 -8.779438
vt 0.732318 -9.077250
vt 0.610837 -8.996079
vt 0.838773 -8.768144
vt 0.875615 -9.105754
vt 0.895553 -8.779438
vt 0.529666 -8.874599
vt 0.827479 -8.751241
vt 1.018911 -9.077250
vt 0.912456 -8.768144
vt 0.501163 -8.731302
vt 0.823513 -8.731302
vt 1.140392 -8.996079
vt 0.923750 -8.751241
vt 0.529666 -8.588006
vt 0.827479 -8.711364
vt 1.221563 -8.874599
vt 0.927716 -8.731302
vt 0.610837 -8.466525
vt 0.838773 -8.694460
vt 1.250066 -8.731302
vt 0.923750 -8.711364
vt 0.732318 -8.385354
vt 0.855676 -8.683167
vt 1.221563 -8.588006
vt 0.912456 -8.694460
vt 0.875615 -8.356851
vt 0.875615 -8.679200
vt 1.140392 -8.466525
vt 0.895553 -8.683167
vt 1.018911 -8.385354
vt 1.657440 -9.055144
vt 1.473998 -9.329685
vt 1.721857 -8.731302
vt 1.657440 -8.407459
vt 1.199458 -9.513128
vt 1.473998 -8.132919
vt 1.199458 -7.949476
vt 0.875615 -9.577544
vt 0.875615 -7.885060
vt 0.551772 -9.513128
vt 0.551772 -7.949476
vt 0.277231 -9.329685
vt 0.277231 -8.132919
vt 0.093789 -9.055144
vt 0.093789 -8.407459
vt 0.029372 -8.731302
s 1
f 3/1/1 2/2/1 1/3/2
f 4/4/2 3/1/1 1/3/2
f 4/4/2 1/3/2 5/5/3
f 6/6/3 4/4/2 5/5/3
f 6/6/3 5/5/3 7/7/4
f 8/8/4 6/6/3 7/7/4
f 8/8/4 7/7/4 9/9/5
f 10/10/5 8/8/4 9/9/5
f 13/11/6 12/12/7 11/13/6
f 12/12/7 14/14/7 11/13/6
f 12/12/7 15/15/8 14/14/7
f 15/15/8 16/16/8 14/14/7
f 15/15/8 17/17/9 16/16/8
f 17/17/9 18/18/9 16/16/8
f 17/17/9 19/19/10 18/18/9
f 19/19/10 20/20/10 18/18/9
f 23/21/11 22/22/12 21/23/11
f 22/22/12 24/24/12 21/23/11
f 22/22/12 25/25/13 24/24/12
f 25/25/13 26/26/13 24/24/12
f 25/25/13 27/27/14 26/26/13
f 27/27/14 28/28/14 26/26/13
f 27/27/14 29/29/15 28/28/14
f 29/29/15 30/30/15 28/28/14
f 33/31/16 32/32/17 31/33/16
f 32/32/17 34/34/17 31/33/16
f 32/32/17 35/35/18 34/34/17
f 35/35/18 36/36/18 34/34/17
f 35/35/18 37/37/19 36/36/18
f 37/37/19 38/38/19 36/36/18
f 37/37/19 39/39/20 38/38/19
f 39/39/20 40/40/20 38/38/19
f 43/41/21 42/42/22 41/43/23
f 42/42/22 44/44/24 41/43/23
f 41/43/23 44/44/24 45/45/25
f 44/44/24 46/46/25 45/45/25
f 45/45/25 46/46/25 47/47/26
f 46/46/25 48/48/27 47/47/26
f 47/47/26 48/48/27 49/49/28
f 48/48/27 50/50/29 49/49/28
f 53/51/30 52/52/31 51/53/31
f 54/54/32 53/51/30 51/53/31
f 55/55/33 53/51/30 54/54/32
f 56/56/33 55/55/33 54/54/32
f 57/57/34 55/55/33 56/56/33
f 58/58/34 57/57/34 56/56/33
f 59/59/35 57/57/34 58/58/34
f 60/60/35 59/59/35 58/58/34
f 63/61/36 62/62/37 61/63/38
f 64/64/36 63/61/36 61/63/38
f 65/65/39 63/61/36 64/64/36
f 66/66/39 65/65/39 64/64/36
f 67/67/40 65/65/39 66/66/39
f 68/68/41 67/67/40 66/66/39
f 69/69/42 67/67/40 68/68/41
f 70/70/43 69/69/42 68/68/41
f 73/71/44 72/72/45 71/73/45
f 74/74/44 73/71/44 71/73/45
f 75/75/46 73/71/44 74/74/44
f 76/76/46 75/75/46 74/74/44
f 77/77/47 75/75/46 76/76/46
f 78/78/48 77/77/47 76/76/46
f 79/79/49 77/77/47 78/78/48
f 80/80/49 79/79/49 78/78/48
f 83/81/50 82/82/50 81/83/51
f 81/83/51 82/82/50 84/84/52
f 82/82/50 85/85/50 84/84/52
f 86/86/53 83/81/50 81/83/51
f 87/87/50 83/81/50 86/86/53
f 84/84/52 85/85/50 88/88/54
f 85/85/50 89/89/50 88/88/54
f 90/90/55 87/87/50 86/86/53
f 91/91/50 87/87/50 90/90/55
f 88/88/54 89/89/50 92/92/56
f 89/89/50 93/93/50 92/92/56
f 94/94/57 91/91/50 90/90/55
f 95/95/50 91/91/50 94/94/57
f 92/92/56 93/93/50 96/96/58
f 93/93/50 97/97/50 96/96/58
f 98/98/59 95/95/50 94/94/57
f 99/99/50 95/95/50 98/98/59
f 96/96/58 97/97/50 100/100/60
f 97/97/50 101/101/50 100/100/60
f 102/102/61 99/99/50 98/98/59
f 103/103/50 99/99/50 102/102/61
f 100/100/60 101/101/50 104/104/62
f 101/101/50 105/105/50 104/104/62
f 106/106/63 103/103/50 102/102/61
f 107/107/50 103/103/50 106/106/63
f 104/104/62 105/105/50 108/108/64
f 105/105/50 109/109/50 108/108/64
f 110/110/65 107/107/50 106/106/63
f 111/111/50 107/107/50 110/110/65
f 109/109/50 111/111/50 112/112/66
f 108/108/64 109/109/50 112/112/66
f 112/112/66 111/111/50 110/110/65
f 102/102/61 98/98/59 113/113/67
f 113/113/67 98/98/59 114/114/68
f 115/115/69 102/102/61 113/113/67
f 106/106/63 102/102/61 115/115/69
f 98/98/59 94/94/57 114/114/68
f 116/116/70 106/106/63 115/115/69
f 110/110/65 106/106/63 116/116/70
f 114/114/68 94/94/57 117/117/71
f 118/118/72 110/110/65 116/116/70
f 112/112/66 110/110/65 118/118/72
f 94/94/57 90/90/55 117/117/71
f 119/119/73 112/112/66 118/118/72
f 108/108/64 112/112/66 119/119/73
f 117/117/71 90/90/55 120/120/74
f 121/121/75 108/108/64 119/119/73
f 90/90/55 86/86/53 120/120/74
f 104/104/62 108/108/64 121/121/75
f 120/120/74 86/86/53 122/122/76
f 123/123/77 104/104/62 121/121/75
f 86/86/53 81/83/51 122/122/76
f 100/100/60 104/104/62 123/123/77
f 122/122/76 81/83/51 124/124/78
f 125/125/79 100/100/60 123/123/77
f 81/83/51 84/84/52 124/124/78
f 96/96/58 100/100/60 125/125/79
f 124/124/78 84/84/52 126/126/80
f 127/127/81 96/96/58 125/125/79
f 84/84/52 88/88/54 126/126/80
f 92/92/56 96/96/58 127/127/81
f 126/126/80 88/88/54 128/128/82
f 128/128/82 92/92/56 127/127/81
f 88/88/54 92/92/56 128/128/82
f 3/1/1 2/2/1 1/3/2
f 4/4/2 3/1/1 1/3/2
f 4/4/2 1/3/2 5/5/3
f 6/6/3 4/4/2 5/5/3
f 6/6/3 5/5/3 7/7/4
f 8/8/4 6/6/3 7/7/4
f 8/8/4 7/7/4 9/9/5
f 10/10/5 8/8/4 9/9/5
f 13/11/6 12/12/7 11/13/6
f 12/12/7 14/14/7 11/13/6
f 12/12/7 15/15/8 14/14/7
f 15/15/8 16/16/8 14/14/7
f 15/15/8 17/17/9 16/16/8
f 17/17/9 18/18/9 16/16/8
f 17/17/9 19/19/10 18/18/9
f 19/19/10 20/20/10 18/18/9
f 23/21/11 22/22/12 21/23/11
f 22/22/12 24/24/12 21/23/11
f 22/22/12 25/25/13 24/24/12
f 25/25/13 26/26/13 24/24/12
f 25/25/13 27/27/14 26/26/13
f 27/27/14 28/28/14 26/26/13
f 27/27/14 29/29/15 28/28/14
f 29/29/15 30/30/15 28/28/14
f 33/31/16 32/32/17 31/33/16
f 32/32/17 34/34/17 31/33/16
f 32/32/17 35/35/18 34/34/17
f 35/35/18 36/36/18 34/34/17
f 35/35/18 37/37/19 36/36/18
f 37/37/19 38/38/19 36/36/18
f 37/37/19 39/39/20 38/38/19
f 39/39/20 40/40/20 38/38/19
f 43/41/21 42/42/22 41/43/23
f 42/42/22 44/44/24 41/43/23
f 41/43/23 44/44/24 45/45/25
f 44/44/24 46/46/25 45/45/25
f 45/45/25 46/46/25 47/47/26
f 46/46/25 48/48/27 47/47/26
f 47/47/26 48/48/27 49/49/28
f 48/48/27 50/50/29 49/49/28
f 53/51/30 52/52/31 51/53/31
f 54/54/32 53/51/30 51/53/31
f 55/55/33 53/51/30 54/54/32
f 56/56/33 55/55/33 54/54/32
f 57/57/34 55/55/33 56/56/33
f 58/58/34 57/57/34 56/56/33
f 59/59/35 57/57/34 58/58/34
f 60/60/35 59/59/35 58/58/34
f 63/61/36 62/62/37 61/63/38
f 64/64/36 63/61/36 61/63/38
f 65/65/39 63/61/36 64/64/36
f 66/66/39 65/65/39 64/64/36
f 67/67/40 65/65/39 66/66/39
f 68/68/41 67/67/40 66/66/39
f 69/69/42 67/67/40 68/68/41
f 70/70/43 69/69/42 68/68/41
f 73/71/44 72/72/45 71/73/45
f 74/74/44 73/71/44 71/73/45
f 75/75/46 73/71/44 74/74/44
f 76/76/46 75/75/46 74/74/44
f 77/77/47 75/75/46 76/76/46
f 78/78/48 77/77/47 76/76/46
f 79/79/49 77/77/47 78/78/48
f 80/80/49 79/79/49 78/78/48
f 83/81/50 82/82/50 81/83/51
f 81/83/51 82/82/50 84/84/52
f 82/82/50 85/85/50 84/84/52
f 86/86/53 83/81/50 81/83/51
f 87/87/50 83/81/50 86/86/53
f 84/84/52 85/85/50 88/88/54
f 85/85/50 89/89/50 88/88/54
f 90/90/55 87/87/50 86/86/53
f 91/91/50 87/87/50 90/90/55
f 88/88/54 89/89/50 92/92/56
f 89/89/50 93/93/50 92/92/56
f 94/94/57 91/91/50 90/90/55
f 95/95/50 91/91/50 94/94/57
f 92/92/56 93/93/50 96/96/58
f 93/93/50 97/97/50 96/96/58
f 98/98/59 95/95/50 94/94/57
f 99/99/50 95/95/50 98/98/59
f 96/96/58 97/97/50 100/100/60
f 97/97/50 101/101/50 100/100/60
f 102/102/61 99/99/50 98/98/59
f 103/103/50 99/99/50 102/102/61
f 100/100/60 101/101/50 104/104/62
f 101/101/50 105/105/50 104/104/62
f 106/106/63 103/103/50 102/102/61
f 107/107/50 103/103/50 106/106/63
f 104/104/62 105/105/50 108/108/64
f 105/105/50 109/109/50 108/108/64
f 110/110/65 107/107/50 106/106/63
f 111/111/50 107/107/50 110/110/65
f 109/109/50 111/111/50 112/112/66
f 108/108/64 109/109/50 112/112/66
f 112/112/66 111/111/50 110/110/65
f 102/102/61 98/98/59 113/113/67
f 113/113/67 98/98/59 114/114/68
f 115/115/69 102/102/61 113/113/67
f 106/106/63 102/102/61 115/115/69
f 98/98/59 94/94/57 114/114/68
f 116/116/70 106/106/63 115/115/69
f 110/110/65 106/106/63 116/116/70
f 114/114/68 94/94/57 117/117/71
f 118/118/72 110/110/65 116/116/70
f 112/112/66 110/110/65 118/118/72
f 94/94/57 90/90/55 117/117/71
f 119/119/73 112/112/66 118/118/72
f 108/108/64 112/112/66 119/119/73
f 117/117/71 90/90/55 120/120/74
f 121/121/75 108/108/64 119/119/73
f 90/90/55 86/86/53 120/120/74
f 104/104/62 108/108/64 121/121/75
f 120/120/74 86/86/53 122/122/76
f 123/123/77 104/104/62 121/121/75
f 86/86/53 81/83/51 122/122/76
f 100/100/60 104/104/62 123/123/77
f 122/122/76 81/83/51 124/124/78
f 125/125/79 100/100/60 123/123/77
f 81/83/51 84/84/52 124/124/78
f 96/96/58 100/100/60 125/125/79
f 124/124/78 84/84/52 126/126/80
f 127/127/81 96/96/58 125/125/79
f 84/84/52 88/88/54 126/126/80
f 92/92/56 96/96/58 127/127/81
f 126/126/80 88/88/54 128/128/82
f 128/128/82 92/92/56 127/127/81
f 88/88/54 92/92/56 128/128/82
