# Blender 3.6.0
# www.blender.org
o LightFixture_a671818b_LightFixture_a671818b_3
v 0.084900 1.802790 -0.493740
v 0.084680 1.815460 -0.484670
v 0.088450 1.802790 -0.488440
v 0.079980 1.815460 -0.491700
v 0.083660 1.802790 -0.500000
v 0.083350 1.834470 -0.483340
v 0.078330 1.815460 -0.500000
v 0.084900 1.802790 -0.506250
v 0.078250 1.834470 -0.490980
v 0.079980 1.815460 -0.508290
v 0.088450 1.802790 -0.511550
v 0.084680 1.815460 -0.515320
v 0.086480 1.878030 -0.494390
v 0.089650 1.878030 -0.489640
v 0.085360 1.878030 -0.500000
v 0.076460 1.834470 -0.500000
v 0.086480 1.878030 -0.505600
v 0.078250 1.834470 -0.509010
v 0.083350 1.834470 -0.516650
v 0.089650 1.878030 -0.510350
v 0.093750 1.802790 -0.515100
v 0.084680 1.815460 -0.515320
v 0.088450 1.802790 -0.511550
v 0.091710 1.815460 -0.520020
v 0.100000 1.802790 -0.516340
v 0.083350 1.834470 -0.516650
v 0.100000 1.815460 -0.521670
v 0.106260 1.802790 -0.515100
v 0.090990 1.834470 -0.521750
v 0.108300 1.815460 -0.520020
v 0.111560 1.802790 -0.511550
v 0.115330 1.815460 -0.515320
v 0.094400 1.878030 -0.513520
v 0.089650 1.878030 -0.510350
v 0.100000 1.878030 -0.514640
v 0.100000 1.834470 -0.523540
v 0.105610 1.878030 -0.513520
v 0.109020 1.834470 -0.521750
v 0.116660 1.834470 -0.516650
v 0.110360 1.878030 -0.510350
v 0.115110 1.802790 -0.506250
v 0.115330 1.815460 -0.515320
v 0.111560 1.802790 -0.511550
v 0.120030 1.815460 -0.508290
v 0.116350 1.802790 -0.500000
v 0.116660 1.834470 -0.516650
v 0.121680 1.815460 -0.500000
v 0.115110 1.802790 -0.493740
v 0.121760 1.834470 -0.509010
v 0.120030 1.815460 -0.491700
v 0.111560 1.802790 -0.488440
v 0.115330 1.815460 -0.484670
v 0.113530 1.878030 -0.505600
v 0.110360 1.878030 -0.510350
v 0.114650 1.878030 -0.500000
v 0.123550 1.834470 -0.500000
v 0.113530 1.878030 -0.494390
v 0.121760 1.834470 -0.490980
v 0.116660 1.834470 -0.483340
v 0.110360 1.878030 -0.489640
v 0.106260 1.802790 -0.484890
v 0.115330 1.815460 -0.484670
v 0.111560 1.802790 -0.488440
v 0.108300 1.815460 -0.479970
v 0.100000 1.802790 -0.483650
v 0.116660 1.834470 -0.483340
v 0.100000 1.815460 -0.478320
v 0.093750 1.802790 -0.484890
v 0.109020 1.834470 -0.478240
v 0.091710 1.815460 -0.479970
v 0.088450 1.802790 -0.488440
v 0.084680 1.815460 -0.484670
v 0.105610 1.878030 -0.486470
v 0.110360 1.878030 -0.489640
v 0.100000 1.878030 -0.485350
v 0.100000 1.834470 -0.476450
v 0.094400 1.878030 -0.486470
v 0.090990 1.834470 -0.478240
v 0.083350 1.834470 -0.483340
v 0.089650 1.878030 -0.489640
v 0.091310 1.798180 -0.496390
v 0.084900 1.802790 -0.493740
v 0.088450 1.802790 -0.488440
v 0.093350 1.798180 -0.493340
v 0.093750 1.802790 -0.484890
v 0.096400 1.798180 -0.491300
v 0.100000 1.802790 -0.483650
v 0.090600 1.798180 -0.500000
v 0.083660 1.802790 -0.500000
v 0.106660 1.798180 -0.493340
v 0.100010 1.798180 -0.490590
v 0.106260 1.802790 -0.484890
v 0.103610 1.798180 -0.491300
v 0.111560 1.802790 -0.488440
v 0.115110 1.802790 -0.493740
v 0.108700 1.798180 -0.496390
v 0.116350 1.802790 -0.500000
v 0.109410 1.798180 -0.500000
v 0.115110 1.802790 -0.506250
v 0.091310 1.798180 -0.503600
v 0.084900 1.802790 -0.506250
v 0.108700 1.798180 -0.503600
v 0.111560 1.802790 -0.511550
v 0.093350 1.798180 -0.506650
v 0.088450 1.802790 -0.511550
v 0.106660 1.798180 -0.506650
v 0.106260 1.802790 -0.515100
v 0.096400 1.798180 -0.508690
v 0.093750 1.802790 -0.515100
v 0.103610 1.798180 -0.508690
v 0.100000 1.802790 -0.516340
v 0.100010 1.798180 -0.509400
vn -0.7680 -0.3816 0.5144
vn -0.8075 -0.2371 0.5400
vn -0.8516 -0.3877 0.3527
vn -0.8966 -0.2414 0.3713
vn -0.9218 -0.3876 -0.0000
vn -0.8306 0.0498 0.5546
vn -0.9705 -0.2413 -0.0001
vn -0.8515 -0.3876 -0.3531
vn -0.9228 0.0508 0.3818
vn -0.8965 -0.2413 -0.3716
vn -0.7682 -0.3813 -0.5142
vn -0.8077 -0.2371 -0.5399
vn -0.9051 0.2004 0.3750
vn -0.8155 0.1967 0.5443
vn -0.9797 0.2003 -0.0002
vn -0.9987 0.0508 -0.0002
vn -0.9051 0.2003 -0.3751
vn -0.9228 0.0507 -0.3819
vn -0.8307 0.0496 -0.5545
vn -0.8155 0.1967 -0.5443
vn -0.5144 -0.3816 -0.7680
vn -0.5400 -0.2371 -0.8076
vn -0.3529 -0.3877 -0.8516
vn -0.3714 -0.2414 -0.8965
vn -0.0003 -0.3877 -0.9218
vn -0.5546 0.0498 -0.8306
vn -0.0001 -0.2413 -0.9705
vn 0.3530 -0.3876 -0.8515
vn -0.3819 0.0508 -0.9228
vn 0.3715 -0.2413 -0.8965
vn 0.5142 -0.3813 -0.7682
vn 0.5398 -0.2371 -0.8077
vn -0.3752 0.2004 -0.9051
vn -0.5443 0.1967 -0.8155
vn -0.0001 0.2003 -0.9797
vn -0.0001 0.0508 -0.9987
vn 0.3749 0.2003 -0.9052
vn 0.3818 0.0507 -0.9228
vn 0.5545 0.0496 -0.8307
vn 0.5443 0.1967 -0.8155
vn 0.7680 -0.3816 -0.5144
vn 0.8075 -0.2371 -0.5400
vn 0.8516 -0.3877 -0.3529
vn 0.8965 -0.2414 -0.3715
vn 0.9218 -0.3877 -0.0003
vn 0.8306 0.0498 -0.5546
vn 0.9705 -0.2413 -0.0001
vn 0.8515 -0.3876 0.3530
vn 0.9228 0.0508 -0.3819
vn 0.8965 -0.2413 0.3715
vn 0.7682 -0.3813 0.5142
vn 0.8077 -0.2371 0.5399
vn 0.9051 0.2004 -0.3752
vn 0.8155 0.1967 -0.5443
vn 0.9797 0.2003 -0.0001
vn 0.9987 0.0508 -0.0001
vn 0.9052 0.2003 0.3749
vn 0.9228 0.0507 0.3818
vn 0.8307 0.0496 0.5545
vn 0.8155 0.1967 0.5443
vn 0.5144 -0.3816 0.7680
vn 0.5400 -0.2371 0.8076
vn 0.3528 -0.3877 0.8516
vn 0.3713 -0.2414 0.8966
vn -0.0000 -0.3876 0.9218
vn 0.5546 0.0498 0.8306
vn -0.0001 -0.2413 0.9705
vn -0.3531 -0.3876 0.8515
vn 0.3818 0.0508 0.9228
vn -0.3716 -0.2413 0.8965
vn -0.5142 -0.3813 0.7682
vn -0.5399 -0.2371 0.8077
vn 0.3750 0.2004 0.9051
vn 0.5443 0.1967 0.8155
vn -0.0003 0.2003 0.9797
vn -0.0001 0.0508 0.9987
vn -0.3751 0.2002 0.9051
vn -0.3819 0.0507 0.9228
vn -0.5545 0.0496 0.8307
vn -0.5443 0.1967 0.8155
vn -0.3917 -0.8326 0.3916
vn -0.5113 -0.8329 0.2117
vn -0.2974 -0.9468 0.1229
vn -0.2275 -0.9469 0.2274
vn -0.2119 -0.8328 0.5114
vn -0.1229 -0.9469 0.2972
vn -0.0000 -0.8329 0.5534
vn -0.3212 -0.9470 -0.0000
vn -0.5534 -0.8329 -0.0000
vn 0.2274 -0.9469 0.2275
vn 0.0002 -0.9470 0.3211
vn 0.2118 -0.8329 0.5113
vn 0.1230 -0.9469 0.2972
vn 0.3916 -0.8326 0.3917
vn 0.5114 -0.8328 0.2119
vn 0.2972 -0.9469 0.1229
vn 0.5534 -0.8329 -0.0002
vn 0.3211 -0.9470 -0.0002
vn 0.5113 -0.8329 -0.2118
vn -0.2972 -0.9469 -0.1230
vn -0.5114 -0.8328 -0.2120
vn 0.2973 -0.9468 -0.1230
vn 0.3917 -0.8326 -0.3916
vn -0.2274 -0.9469 -0.2275
vn -0.3916 -0.8326 -0.3917
vn 0.2275 -0.9469 -0.2274
vn 0.2119 -0.8328 -0.5114
vn -0.1229 -0.9468 -0.2974
vn -0.2118 -0.8329 -0.5113
vn 0.1230 -0.9469 -0.2972
vn -0.0002 -0.8329 -0.5534
vn -0.0000 -0.9470 -0.3212
vt 1.981233 -8.268228
vt 2.013290 -8.152764
vt 1.936120 -8.268228
vt 1.953469 -8.152764
vt 1.882906 -8.268228
vt 2.024557 -7.979517
vt 1.882906 -8.152764
vt 1.829692 -8.268228
vt 1.959566 -7.979517
vt 1.812344 -8.152764
vt 1.784580 -8.268228
vt 1.752523 -8.152764
vt 1.930575 -7.582710
vt 1.970987 -7.582710
vt 1.882906 -7.582710
vt 1.882906 -7.979517
vt 1.835238 -7.582710
vt 1.806247 -7.979517
vt 1.741256 -7.979517
vt 1.794825 -7.582710
vt 2.283420 -8.268228
vt 2.315477 -8.152764
vt 2.238308 -8.268228
vt 2.255657 -8.152764
vt 2.185094 -8.268228
vt 2.326744 -7.979517
vt 2.185094 -8.152765
vt 2.131879 -8.268228
vt 2.261755 -7.979517
vt 2.114530 -8.152764
vt 2.086767 -8.268228
vt 2.054710 -8.152764
vt 2.232763 -7.582710
vt 2.273175 -7.582710
vt 2.185094 -7.582710
vt 2.185094 -7.979517
vt 2.137424 -7.582710
vt 2.108432 -7.979517
vt 2.043443 -7.979517
vt 2.097013 -7.582710
vt 2.585608 -8.268228
vt 2.617665 -8.152764
vt 2.540495 -8.268228
vt 2.557844 -8.152764
vt 2.487281 -8.268228
vt 2.628932 -7.979517
vt 2.487281 -8.152764
vt 2.434067 -8.268228
vt 2.563941 -7.979517
vt 2.416719 -8.152764
vt 2.388954 -8.268228
vt 2.356898 -8.152764
vt 2.534950 -7.582710
vt 2.575362 -7.582710
vt 2.487281 -7.582710
vt 2.487281 -7.979517
vt 2.439613 -7.582710
vt 2.410622 -7.979517
vt 2.345631 -7.979517
vt 2.399200 -7.582710
vt 0.268837 -7.865311
vt 0.300894 -7.749847
vt 0.223725 -7.865311
vt 0.241075 -7.749847
vt 0.170510 -7.865311
vt 0.312161 -7.576601
vt 0.170510 -7.749849
vt 0.117296 -7.865311
vt 0.247172 -7.576601
vt 0.099947 -7.749847
vt 0.072184 -7.865311
vt 0.040127 -7.749847
vt 0.218180 -7.179793
vt 0.258591 -7.179793
vt 0.170510 -7.179793
vt 0.170510 -7.576601
vt 0.122841 -7.179793
vt 0.093849 -7.576601
vt 0.028860 -7.576601
vt 0.082430 -7.179793
vt 3.898057 -7.422389
vt 3.867351 -7.468344
vt 3.922896 -7.491353
vt 3.940570 -7.464902
vt 3.944011 -7.391684
vt 3.967019 -7.447229
vt 3.998219 -7.380902
vt 3.916690 -7.522552
vt 3.856568 -7.522552
vt 4.055868 -7.464901
vt 3.998219 -7.441024
vt 4.052427 -7.391684
vt 4.029419 -7.447229
vt 4.098380 -7.422389
vt 4.129086 -7.468344
vt 4.073541 -7.491353
vt 4.139869 -7.522552
vt 4.079747 -7.522552
vt 4.129086 -7.576760
vt 3.922896 -7.553752
vt 3.867351 -7.576760
vt 4.073541 -7.553752
vt 4.098380 -7.622716
vt 3.940570 -7.580203
vt 3.898057 -7.622716
vt 4.055868 -7.580203
vt 4.052427 -7.653421
vt 3.967019 -7.597875
vt 3.944011 -7.653421
vt 4.029419 -7.597875
vt 3.998219 -7.664202
vt 3.998219 -7.604080
s 1
f 3/1/1 2/2/2 1/3/3
f 2/2/2 4/4/4 1/3/3
f 1/3/3 4/4/4 5/5/5
f 2/2/2 6/6/6 4/4/4
f 4/4/4 7/7/7 5/5/5
f 5/5/5 7/7/7 8/8/8
f 6/6/6 9/9/9 4/4/4
f 4/4/4 9/9/9 7/7/7
f 7/7/7 10/10/10 8/8/8
f 8/8/8 10/10/10 11/11/11
f 10/10/10 12/12/12 11/11/11
f 9/9/9 6/6/6 13/13/13
f 6/6/6 14/14/14 13/13/13
f 9/9/9 13/13/13 15/15/15
f 9/9/9 16/16/16 7/7/7
f 16/16/16 9/9/9 15/15/15
f 7/7/7 16/16/16 10/10/10
f 16/16/16 15/15/15 17/17/17
f 10/10/10 18/18/18 12/12/12
f 16/16/16 18/18/18 10/10/10
f 18/18/18 16/16/16 17/17/17
f 18/18/18 19/19/19 12/12/12
f 18/18/18 17/17/17 20/20/20
f 19/19/19 18/18/18 20/20/20
f 23/21/21 22/22/22 21/23/23
f 22/22/22 24/24/24 21/23/23
f 21/23/23 24/24/24 25/25/25
f 22/22/22 26/26/26 24/24/24
f 24/24/24 27/27/27 25/25/25
f 25/25/25 27/27/27 28/28/28
f 26/26/26 29/29/29 24/24/24
f 24/24/24 29/29/29 27/27/27
f 27/27/27 30/30/30 28/28/28
f 28/28/28 30/30/30 31/31/31
f 30/30/30 32/32/32 31/31/31
f 29/29/29 26/26/26 33/33/33
f 26/26/26 34/34/34 33/33/33
f 29/29/29 33/33/33 35/35/35
f 29/29/29 36/36/36 27/27/27
f 36/36/36 29/29/29 35/35/35
f 27/27/27 36/36/36 30/30/30
f 36/36/36 35/35/35 37/37/37
f 30/30/30 38/38/38 32/32/32
f 36/36/36 38/38/38 30/30/30
f 38/38/38 36/36/36 37/37/37
f 38/38/38 39/39/39 32/32/32
f 38/38/38 37/37/37 40/40/40
f 39/39/39 38/38/38 40/40/40
f 43/41/41 42/42/42 41/43/43
f 42/42/42 44/44/44 41/43/43
f 41/43/43 44/44/44 45/45/45
f 42/42/42 46/46/46 44/44/44
f 44/44/44 47/47/47 45/45/45
f 45/45/45 47/47/47 48/48/48
f 46/46/46 49/49/49 44/44/44
f 44/44/44 49/49/49 47/47/47
f 47/47/47 50/50/50 48/48/48
f 48/48/48 50/50/50 51/51/51
f 50/50/50 52/52/52 51/51/51
f 49/49/49 46/46/46 53/53/53
f 46/46/46 54/54/54 53/53/53
f 49/49/49 53/53/53 55/55/55
f 49/49/49 56/56/56 47/47/47
f 56/56/56 49/49/49 55/55/55
f 47/47/47 56/56/56 50/50/50
f 56/56/56 55/55/55 57/57/57
f 50/50/50 58/58/58 52/52/52
f 56/56/56 58/58/58 50/50/50
f 58/58/58 56/56/56 57/57/57
f 58/58/58 59/59/59 52/52/52
f 58/58/58 57/57/57 60/60/60
f 59/59/59 58/58/58 60/60/60
f 63/61/61 62/62/62 61/63/63
f 62/62/62 64/64/64 61/63/63
f 61/63/63 64/64/64 65/65/65
f 62/62/62 66/66/66 64/64/64
f 64/64/64 67/67/67 65/65/65
f 65/65/65 67/67/67 68/68/68
f 66/66/66 69/69/69 64/64/64
f 64/64/64 69/69/69 67/67/67
f 67/67/67 70/70/70 68/68/68
f 68/68/68 70/70/70 71/71/71
f 70/70/70 72/72/72 71/71/71
f 69/69/69 66/66/66 73/73/73
f 66/66/66 74/74/74 73/73/73
f 69/69/69 73/73/73 75/75/75
f 69/69/69 76/76/76 67/67/67
f 76/76/76 69/69/69 75/75/75
f 67/67/67 76/76/76 70/70/70
f 76/76/76 75/75/75 77/77/77
f 70/70/70 78/78/78 72/72/72
f 76/76/76 78/78/78 70/70/70
f 78/78/78 76/76/76 77/77/77
f 78/78/78 79/79/79 72/72/72
f 78/78/78 77/77/77 80/80/80
f 79/79/79 78/78/78 80/80/80
f 83/81/81 82/82/82 81/83/83
f 84/84/84 83/81/81 81/83/83
f 85/85/85 83/81/81 84/84/84
f 86/86/86 85/85/85 84/84/84
f 87/87/87 85/85/85 86/86/86
f 81/83/83 82/82/82 88/88/88
f 82/82/82 89/89/89 88/88/88
f 90/90/90 84/84/84 81/83/83
f 90/90/90 86/86/86 84/84/84
f 91/91/91 87/87/87 86/86/86
f 92/92/92 87/87/87 91/91/91
f 93/93/93 91/91/91 86/86/86
f 93/93/93 92/92/92 91/91/91
f 90/90/90 93/93/93 86/86/86
f 94/94/94 92/92/92 93/93/93
f 90/90/90 94/94/94 93/93/93
f 95/95/95 94/94/94 90/90/90
f 96/96/96 90/90/90 81/83/83
f 96/96/96 95/95/95 90/90/90
f 96/96/96 81/83/83 88/88/88
f 97/97/97 95/95/95 96/96/96
f 98/98/98 97/97/97 96/96/96
f 98/98/98 96/96/96 88/88/88
f 99/99/99 97/97/97 98/98/98
f 98/98/98 88/88/88 100/100/100
f 88/88/88 89/89/89 100/100/100
f 89/89/89 101/101/101 100/100/100
f 102/102/102 99/99/99 98/98/98
f 102/102/102 98/98/98 100/100/100
f 103/103/103 99/99/99 102/102/102
f 100/100/100 101/101/101 104/104/104
f 102/102/102 100/100/100 104/104/104
f 101/101/101 105/105/105 104/104/104
f 106/106/106 103/103/103 102/102/102
f 106/106/106 102/102/102 104/104/104
f 107/107/107 103/103/103 106/106/106
f 104/104/104 105/105/105 108/108/108
f 106/106/106 104/104/104 108/108/108
f 105/105/105 109/109/109 108/108/108
f 110/110/110 107/107/107 106/106/106
f 110/110/110 106/106/106 108/108/108
f 111/111/111 107/107/107 110/110/110
f 109/109/109 111/111/111 112/112/112
f 108/108/108 109/109/109 112/112/112
f 108/108/108 112/112/112 110/110/110
f 112/112/112 111/111/111 110/110/110
f 3/1/1 2/2/2 1/3/3
f 2/2/2 4/4/4 1/3/3
f 1/3/3 4/4/4 5/5/5
f 2/2/2 6/6/6 4/4/4
f 4/4/4 7/7/7 5/5/5
f 5/5/5 7/7/7 8/8/8
f 6/6/6 9/9/9 4/4/4
f 4/4/4 9/9/9 7/7/7
f 7/7/7 10/10/10 8/8/8
f 8/8/8 10/10/10 11/11/11
f 10/10/10 12/12/12 11/11/11
f 9/9/9 6/6/6 13/13/13
f 6/6/6 14/14/14 13/13/13
f 9/9/9 13/13/13 15/15/15
f 9/9/9 16/16/16 7/7/7
f 16/16/16 9/9/9 15/15/15
f 7/7/7 16/16/16 10/10/10
f 16/16/16 15/15/15 17/17/17
f 10/10/10 18/18/18 12/12/12
f 16/16/16 18/18/18 10/10/10
f 18/18/18 16/16/16 17/17/17
f 18/18/18 19/19/19 12/12/12
f 18/18/18 17/17/17 20/20/20
f 19/19/19 18/18/18 20/20/20
f 23/21/21 22/22/22 21/23/23
f 22/22/22 24/24/24 21/23/23
f 21/23/23 24/24/24 25/25/25
f 22/22/22 26/26/26 24/24/24
f 24/24/24 27/27/27 25/25/25
f 25/25/25 27/27/27 28/28/28
f 26/26/26 29/29/29 24/24/24
f 24/24/24 29/29/29 27/27/27
f 27/27/27 30/30/30 28/28/28
f 28/28/28 30/30/30 31/31/31
f 30/30/30 32/32/32 31/31/31
f 29/29/29 26/26/26 33/33/33
f 26/26/26 34/34/34 33/33/33
f 29/29/29 33/33/33 35/35/35
f 29/29/29 36/36/36 27/27/27
f 36/36/36 29/29/29 35/35/35
f 27/27/27 36/36/36 30/30/30
f 36/36/36 35/35/35 37/37/37
f 30/30/30 38/38/38 32/32/32
f 36/36/36 38/38/38 30/30/30
f 38/38/38 36/36/36 37/37/37
f 38/38/38 39/39/39 32/32/32
f 38/38/38 37/37/37 40/40/40
f 39/39/39 38/38/38 40/40/40
f 43/41/41 42/42/42 41/43/43
f 42/42/42 44/44/44 41/43/43
f 41/43/43 44/44/44 45/45/45
f 42/42/42 46/46/46 44/44/44
f 44/44/44 47/47/47 45/45/45
f 45/45/45 47/47/47 48/48/48
f 46/46/46 49/49/49 44/44/44
f 44/44/44 49/49/49 47/47/47
f 47/47/47 50/50/50 48/48/48
f 48/48/48 50/50/50 51/51/51
f 50/50/50 52/52/52 51/51/51
f 49/49/49 46/46/46 53/53/53
f 46/46/46 54/54/54 53/53/53
f 49/49/49 53/53/53 55/55/55
f 49/49/49 56/56/56 47/47/47
f 56/56/56 49/49/49 55/55/55
f 47/47/47 56/56/56 50/50/50
f 56/56/56 55/55/55 57/57/57
f 50/50/50 58/58/58 52/52/52
f 56/56/56 58/58/58 50/50/50
f 58/58/58 56/56/56 57/57/57
f 58/58/58 59/59/59 52/52/52
f 58/58/58 57/57/57 60/60/60
f 59/59/59 58/58/58 60/60/60
f 63/61/61 62/62/62 61/63/63
f 62/62/62 64/64/64 61/63/63
f 61/63/63 64/64/64 65/65/65
f 62/62/62 66/66/66 64/64/64
f 64/64/64 67/67/67 65/65/65
f 65/65/65 67/67/67 68/68/68
f 66/66/66 69/69/69 64/64/64
f 64/64/64 69/69/69 67/67/67
f 67/67/67 70/70/70 68/68/68
f 68/68/68 70/70/70 71/71/71
f 70/70/70 72/72/72 71/71/71
f 69/69/69 66/66/66 73/73/73
f 66/66/66 74/74/74 73/73/73
f 69/69/69 73/73/73 75/75/75
f 69/69/69 76/76/76 67/67/67
f 76/76/76 69/69/69 75/75/75
f 67/67/67 76/76/76 70/70/70
f 76/76/76 75/75/75 77/77/77
f 70/70/70 78/78/78 72/72/72
f 76/76/76 78/78/78 70/70/70
f 78/78/78 76/76/76 77/77/77
f 78/78/78 79/79/79 72/72/72
f 78/78/78 77/77/77 80/80/80
f 79/79/79 78/78/78 80/80/80
f 83/81/81 82/82/82 81/83/83
f 84/84/84 83/81/81 81/83/83
f 85/85/85 83/81/81 84/84/84
f 86/86/86 85/85/85 84/84/84
f 87/87/87 85/85/85 86/86/86
f 81/83/83 82/82/82 88/88/88
f 82/82/82 89/89/89 88/88/88
f 90/90/90 84/84/84 81/83/83
f 90/90/90 86/86/86 84/84/84
f 91/91/91 87/87/87 86/86/86
f 92/92/92 87/87/87 91/91/91
f 93/93/93 91/91/91 86/86/86
f 93/93/93 92/92/92 91/91/91
f 90/90/90 93/93/93 86/86/86
f 94/94/94 92/92/92 93/93/93
f 90/90/90 94/94/94 93/93/93
f 95/95/95 94/94/94 90/90/90
f 96/96/96 90/90/90 81/83/83
f 96/96/96 95/95/95 90/90/90
f 96/96/96 81/83/83 88/88/88
f 97/97/97 95/95/95 96/96/96
f 98/98/98 97/97/97 96/96/96
f 98/98/98 96/96/96 88/88/88
f 99/99/99 97/97/97 98/98/98
f 98/98/98 88/88/88 100/100/100
f 88/88/88 89/89/89 100/100/100
f 89/89/89 101/101/101 100/100/100
f 102/102/102 99/99/99 98/98/98
f 102/102/102 98/98/98 100/100/100
f 103/103/103 99/99/99 102/102/102
f 100/100/100 101/101/101 104/104/104
f 102/102/102 100/100/100 104/104/104
f 101/101/101 105/105/105 104/104/104
f 106/106/106 103/103/103 102/102/102
f 106/106/106 102/102/102 104/104/104
f 107/107/107 103/103/103 106/106/106
f 104/104/104 105/105/105 108/108/108
f 106/106/106 104/104/104 108/108/108
f 105/105/105 109/109/109 108/108/108
f 110/110/110 107/107/107 106/106/106
f 110/110/110 106/106/106 108/108/108
f 111/111/111 107/107/107 110/110/110
f 109/109/109 111/111/111 112/112/112
f 108/108/108 109/109/109 112/112/112
f 108/108/108 112/112/112 110/110/110
f 112/112/112 111/111/111 110/110/110
