# Blender 3.6.0
# www.blender.org
o BackSplash_17623cb1_BackSplash_17623cb1
v -1.220000 1.620010 -2.788000
v -1.220000 1.620010 -2.799990
v -0.196860 1.620010 -2.799990
v -0.196860 1.620010 -2.788000
v 0.696870 1.620010 -2.788000
v 0.696870 1.620010 -2.799990
v 2.188000 1.620010 -2.799990
v 2.188000 1.620010 -2.788000
v -0.196860 0.900000 -2.788000
v -0.196860 0.900000 -2.799990
v -1.220000 0.900000 -2.799990
v -1.220000 0.900000 -2.788000
v 2.188000 0.900000 -2.788000
v 0.696870 0.900000 -2.799990
v 0.696870 0.900000 -2.788000
v 2.188000 0.900000 -2.799990
v 0.696870 0.880000 -2.799990
v -0.196860 0.880000 -2.799990
v -0.196860 0.880000 -2.788000
v 0.696870 0.880000 -2.788000
v 0.696870 0.900000 -2.799990
v 0.696870 0.880000 -2.799990
v 0.696870 0.880000 -2.788000
v 0.696870 0.900000 -2.788000
v -0.196860 0.900000 -2.788000
v -0.196860 0.880000 -2.788000
v -0.196860 0.880000 -2.799990
v -0.196860 0.900000 -2.799990
v 2.188000 0.900000 -2.799990
v 2.200000 0.900000 -2.799990
v 2.200000 1.110010 -2.799990
v 2.190010 1.110010 -2.799990
v 2.200000 1.620010 -2.799990
v 2.188000 1.620010 -2.799990
v 0.696870 1.620010 -2.799990
v 0.696870 1.110010 -2.799990
v 0.696870 0.900000 -2.799990
v -0.196860 1.110010 -2.799990
v -0.196860 1.620010 -2.799990
v -1.220000 1.620010 -2.799990
v -1.220000 1.110010 -2.799990
v -1.220000 0.900000 -2.799990
v -0.196860 0.900000 -2.799990
v 0.696870 0.880000 -2.799990
v -0.196860 0.880000 -2.799990
v -1.220000 1.110010 -2.799990
v -1.220000 0.900000 -2.788000
v -1.220000 0.900000 -2.799990
v -1.220000 1.110010 -2.788000
v -1.220000 1.620010 -2.788000
v -1.220000 1.620010 -2.799990
v 2.190010 1.110010 -2.788000
v 2.188000 0.900000 -2.788000
v 0.696870 0.900000 -2.788000
v 0.696870 1.110010 -2.788000
v 2.188000 1.620010 -2.788000
v 0.696870 1.620010 -2.788000
v -0.196860 1.620010 -2.788000
v -0.196860 1.110010 -2.788000
v -1.220000 1.620010 -2.788000
v -1.220000 1.110010 -2.788000
v -1.220000 0.900000 -2.788000
v -0.196860 0.900000 -2.788000
v -0.196860 0.880000 -2.788000
v 0.696870 0.880000 -2.788000
v 2.200000 1.110010 -2.799990
v 2.200000 0.900000 -2.799990
v 2.200000 0.900000 -2.788000
v 2.200000 1.110010 -2.788000
v 2.200000 0.900000 -2.099990
v 2.200000 1.110010 -2.099990
v 2.200000 1.620010 -2.788000
v 2.200000 1.620010 -2.799990
v 2.200000 1.620010 -2.099990
v 2.188000 1.620010 -2.799990
v 2.200000 1.620010 -2.799990
v 2.200000 1.620010 -2.788000
v 2.188000 1.620010 -2.788000
v 2.200000 1.620010 -2.099990
v 2.188000 1.620010 -2.099990
v 2.188000 0.900000 -2.788000
v 2.200000 0.900000 -2.799990
v 2.188000 0.900000 -2.799990
v 2.200000 0.900000 -2.788000
v 2.188000 0.900000 -2.099990
v 2.200000 0.900000 -2.099990
v 2.188000 1.620010 -2.099990
v 2.190010 1.110010 -2.788000
v 2.188000 1.620010 -2.788000
v 2.190010 1.110010 -2.099990
v 2.188000 0.900000 -2.788000
v 2.188000 0.900000 -2.099990
v 2.200000 1.620010 0.400010
v 2.188000 1.620010 0.400010
v 2.188000 1.620010 -0.299990
v 2.200000 1.620010 -0.299990
v 2.188000 1.620010 0.400010
v 2.190010 1.110010 -0.299990
v 2.188000 1.620010 -0.299990
v 2.190010 1.110010 0.400010
v 2.188000 0.900000 -0.299990
v 2.188000 0.900000 0.400010
v 2.200000 1.110010 0.400010
v 2.200000 1.620010 0.400010
v 2.200000 1.620010 -0.299990
v 2.200000 1.110010 -0.299990
v 2.200000 0.900000 0.400010
v 2.200000 0.900000 -0.299990
v 2.188000 0.900000 0.400010
v 2.200000 0.900000 0.400010
v 2.200000 0.900000 -0.299990
v 2.188000 0.900000 -0.299990
v 2.188000 1.620010 0.400010
v 2.200000 1.620010 0.400010
v 2.200000 1.110010 0.400010
v 2.190010 1.110010 0.400010
v 2.200000 0.900000 0.400010
v 2.188000 0.900000 0.400010
vn -0.0000 1.0000 -0.0000
vn -0.0000 -1.0000 -0.0000
vn 1.0000 -0.0000 -0.0000
vn -1.0000 -0.0000 -0.0000
vn -0.0000 -0.0000 -1.0000
vn -0.0000 -0.0000 1.0000
vn -1.0000 -0.0039 -0.0000
vn -1.0000 0.0028 -0.0000
vn -1.0000 0.0096 -0.0000
vt 3.251346 1.032280
vt 2.944723 1.032281
vt 2.944723 0.990796
vt 3.251344 0.990797
vt 3.488513 0.990798
vt 3.488514 1.032279
vt 3.930507 1.032281
vt 3.930507 0.990796
vt 3.930509 0.720743
vt 3.623887 0.720742
vt 3.623885 0.679259
vt 3.930509 0.679257
vt 3.386716 0.679260
vt 3.386716 0.720741
vt 2.944721 0.679258
vt 2.944721 0.720743
vt -0.606771 3.635907
vt -0.606771 3.410390
vt -0.595596 3.410390
vt -0.597458 3.635907
vt -0.606771 4.183592
vt -0.595596 4.183592
vt 0.817520 4.183595
vt 0.817522 3.635905
vt 0.818076 3.410391
vt 1.627660 3.635903
vt 1.627657 4.183593
vt 2.577907 4.183592
vt 2.577907 3.635907
vt 2.577907 3.410390
vt 1.627098 3.410388
vt 0.818306 3.388920
vt 1.626863 3.388917
vt 6.573134 3.685368
vt 6.611831 3.685368
vt 6.573134 3.750481
vt 6.611831 3.750481
vt 6.611831 3.908614
vt 6.573134 3.908614
vt 1.158056 3.416973
vt 2.573710 3.416974
vt 2.575576 3.642161
vt 1.158581 3.642159
vt 2.573710 4.189045
vt 1.158582 4.189056
vt 0.347258 4.189050
vt 0.347257 3.642159
vt -0.604439 4.189045
vt -0.604439 3.642161
vt -0.604439 3.416974
vt 0.347782 3.416980
vt 0.347741 3.395880
vt 1.157964 3.395864
vt 7.422835 3.448045
vt 7.435005 3.448045
vt 7.435005 3.655108
vt 7.422835 3.655108
vt 6.725077 3.448045
vt 6.725077 3.655108
vt 7.422835 4.157974
vt 7.435005 4.157974
vt 6.725077 4.157974
vt 8.523631 3.696699
vt 8.523631 3.692925
vt 8.561795 3.692925
vt 8.561795 3.696699
vt 8.523631 3.913094
vt 8.561795 3.913094
vt -1.060614 0.498532
vt -1.098771 0.498532
vt -1.060614 0.494758
vt -1.098771 0.494758
vt -1.060614 0.278391
vt -1.098771 0.278391
vt 7.498120 4.192328
vt 7.498120 3.632267
vt 8.124635 4.192328
vt 8.124635 3.632267
vt 7.498120 3.401654
vt 8.124635 3.401654
vt -1.412665 0.642210
vt -1.412665 0.446251
vt -1.369799 0.446251
vt -1.369799 0.642210
vt 6.520284 4.201779
vt 6.520284 3.636856
vt 7.152239 4.201780
vt 7.152239 3.636856
vt 6.520284 3.404241
vt 7.152239 3.404241
vt -2.598918 4.201776
vt -3.230868 4.201776
vt -3.230868 3.636857
vt -2.598918 3.636857
vt -3.230868 3.404243
vt -2.598918 3.404243
vt 5.129643 0.019134
vt 5.129643 -0.176827
vt 5.172509 -0.176827
vt 5.172509 0.019134
vt 6.124273 3.750480
vt 6.124273 3.908618
vt 6.085576 3.908618
vt 6.092025 3.750480
vt 6.124273 3.685364
vt 6.085576 3.685364
s 1
f 3/1/1 2/2/1 1/3/1
f 4/4/1 3/1/1 1/3/1
f 3/1/1 4/4/1 5/5/1
f 6/6/1 3/1/1 5/5/1
f 6/6/1 5/5/1 7/7/1
f 5/5/1 8/8/1 7/7/1
f 11/9/2 10/10/2 9/11/2
f 12/12/2 11/9/2 9/11/2
f 15/13/2 14/14/2 13/15/2
f 14/14/2 16/16/2 13/15/2
f 19/11/2 18/10/2 17/14/2
f 20/13/2 19/11/2 17/14/2
f 23/13/3 22/14/3 21/14/3
f 24/13/3 23/13/3 21/14/3
f 27/10/4 26/11/4 25/11/4
f 28/10/4 27/10/4 25/11/4
f 31/17/5 30/18/5 29/19/5
f 32/20/5 31/17/5 29/19/5
f 33/21/5 31/17/5 32/20/5
f 34/22/5 33/21/5 32/20/5
f 35/23/5 34/22/5 32/20/5
f 36/24/5 32/20/5 29/19/5
f 36/24/5 35/23/5 32/20/5
f 37/25/5 36/24/5 29/19/5
f 36/24/5 38/26/5 35/23/5
f 38/26/5 39/27/5 35/23/5
f 40/28/5 39/27/5 38/26/5
f 41/29/5 40/28/5 38/26/5
f 42/30/5 41/29/5 38/26/5
f 43/31/5 42/30/5 38/26/5
f 43/31/5 38/26/5 36/24/5
f 37/25/5 43/31/5 36/24/5
f 37/25/5 44/32/5 43/31/5
f 44/32/5 45/33/5 43/31/5
f 48/34/4 47/35/4 46/36/4
f 47/35/4 49/37/4 46/36/4
f 49/37/4 50/38/4 46/36/4
f 50/38/4 51/39/4 46/36/4
f 54/40/6 53/41/6 52/42/6
f 55/43/6 54/40/6 52/42/6
f 55/43/6 52/42/6 56/44/6
f 57/45/6 55/43/6 56/44/6
f 57/45/6 58/46/6 55/43/6
f 58/46/6 59/47/6 55/43/6
f 58/46/6 60/48/6 59/47/6
f 60/48/6 61/49/6 59/47/6
f 61/49/6 62/50/6 59/47/6
f 62/50/6 63/51/6 59/47/6
f 59/47/6 63/51/6 55/43/6
f 55/43/6 63/51/6 54/40/6
f 63/51/6 64/52/6 54/40/6
f 64/52/6 65/53/6 54/40/6
f 68/54/3 67/55/3 66/56/3
f 69/57/3 68/54/3 66/56/3
f 68/54/3 69/57/3 70/58/3
f 69/57/3 71/59/3 70/58/3
f 72/60/3 69/57/3 66/56/3
f 69/57/3 72/60/3 71/59/3
f 73/61/3 72/60/3 66/56/3
f 72/60/3 74/62/3 71/59/3
f 77/63/1 76/64/1 75/65/1
f 78/66/1 77/63/1 75/65/1
f 77/63/1 78/66/1 79/67/1
f 78/66/1 80/68/1 79/67/1
f 83/69/2 82/70/2 81/71/2
f 82/70/2 84/72/2 81/71/2
f 81/71/2 84/72/2 85/73/2
f 84/72/2 86/74/2 85/73/2
f 89/75/7 88/76/8 87/77/7
f 88/76/8 90/78/8 87/77/7
f 88/76/8 91/79/9 90/78/8
f 91/79/9 92/80/9 90/78/8
f 95/81/1 94/82/1 93/83/1
f 96/84/1 95/81/1 93/83/1
f 99/85/7 98/86/8 97/87/7
f 98/86/8 100/88/8 97/87/7
f 98/86/8 101/89/9 100/88/8
f 101/89/9 102/90/9 100/88/8
f 105/91/3 104/92/3 103/93/3
f 106/94/3 105/91/3 103/93/3
f 106/94/3 103/93/3 107/95/3
f 108/96/3 106/94/3 107/95/3
f 111/97/2 110/98/2 109/99/2
f 112/100/2 111/97/2 109/99/2
f 115/101/6 114/102/6 113/103/6
f 116/104/6 115/101/6 113/103/6
f 117/105/6 115/101/6 116/104/6
f 118/106/6 117/105/6 116/104/6
f 3/1/1 2/2/1 1/3/1
f 4/4/1 3/1/1 1/3/1
f 3/1/1 4/4/1 5/5/1
f 6/6/1 3/1/1 5/5/1
f 6/6/1 5/5/1 7/7/1
f 5/5/1 8/8/1 7/7/1
f 11/9/2 10/10/2 9/11/2
f 12/12/2 11/9/2 9/11/2
f 15/13/2 14/14/2 13/15/2
f 14/14/2 16/16/2 13/15/2
f 19/11/2 18/10/2 17/14/2
f 20/13/2 19/11/2 17/14/2
f 23/13/3 22/14/3 21/14/3
f 24/13/3 23/13/3 21/14/3
f 27/10/4 26/11/4 25/11/4
f 28/10/4 27/10/4 25/11/4
f 31/17/5 30/18/5 29/19/5
f 32/20/5 31/17/5 29/19/5
f 33/21/5 31/17/5 32/20/5
f 34/22/5 33/21/5 32/20/5
f 35/23/5 34/22/5 32/20/5
f 36/24/5 32/20/5 29/19/5
f 36/24/5 35/23/5 32/20/5
f 37/25/5 36/24/5 29/19/5
f 36/24/5 38/26/5 35/23/5
f 38/26/5 39/27/5 35/23/5
f 40/28/5 39/27/5 38/26/5
f 41/29/5 40/28/5 38/26/5
f 42/30/5 41/29/5 38/26/5
f 43/31/5 42/30/5 38/26/5
f 43/31/5 38/26/5 36/24/5
f 37/25/5 43/31/5 36/24/5
f 37/25/5 44/32/5 43/31/5
f 44/32/5 45/33/5 43/31/5
f 48/34/4 47/35/4 46/36/4
f 47/35/4 49/37/4 46/36/4
f 49/37/4 50/38/4 46/36/4
f 50/38/4 51/39/4 46/36/4
f 54/40/6 53/41/6 52/42/6
f 55/43/6 54/40/6 52/42/6
f 55/43/6 52/42/6 56/44/6
f 57/45/6 55/43/6 56/44/6
f 57/45/6 58/46/6 55/43/6
f 58/46/6 59/47/6 55/43/6
f 58/46/6 60/48/6 59/47/6
f 60/48/6 61/49/6 59/47/6
f 61/49/6 62/50/6 59/47/6
f 62/50/6 63/51/6 59/47/6
f 59/47/6 63/51/6 55/43/6
f 55/43/6 63/51/6 54/40/6
f 63/51/6 64/52/6 54/40/6
f 64/52/6 65/53/6 54/40/6
f 68/54/3 67/55/3 66/56/3
f 69/57/3 68/54/3 66/56/3
f 68/54/3 69/57/3 70/58/3
f 69/57/3 71/59/3 70/58/3
f 72/60/3 69/57/3 66/56/3
f 69/57/3 72/60/3 71/59/3
f 73/61/3 72/60/3 66/56/3
f 72/60/3 74/62/3 71/59/3
f 77/63/1 76/64/1 75/65/1
f 78/66/1 77/63/1 75/65/1
f 77/63/1 78/66/1 79/67/1
f 78/66/1 80/68/1 79/67/1
f 83/69/2 82/70/2 81/71/2
f 82/70/2 84/72/2 81/71/2
f 81/71/2 84/72/2 85/73/2
f 84/72/2 86/74/2 85/73/2
f 89/75/7 88/76/8 87/77/7
f 88/76/8 90/78/8 87/77/7
f 88/76/8 91/79/9 90/78/8
f 91/79/9 92/80/9 90/78/8
f 95/81/1 94/82/1 93/83/1
f 96/84/1 95/81/1 93/83/1
f 99/85/7 98/86/8 97/87/7
f 98/86/8 100/88/8 97/87/7
f 98/86/8 101/89/9 100/88/8
f 101/89/9 102/90/9 100/88/8
f 105/91/3 104/92/3 103/93/3
f 106/94/3 105/91/3 103/93/3
f 106/94/3 103/93/3 107/95/3
f 108/96/3 106/94/3 107/95/3
f 111/97/2 110/98/2 109/99/2
f 112/100/2 111/97/2 109/99/2
f 115/101/6 114/102/6 113/103/6
f 116/104/6 115/101/6 113/103/6
f 117/105/6 115/101/6 116/104/6
f 118/106/6 117/105/6 116/104/6
