# Blender 3.6.0
# www.blender.org
o DoorFrame_f612f8d3_DoorFrame_f612f8d3
v -2.474290 0.002690 -0.023520
v -2.474290 0.002690 -0.057570
v -2.474290 1.923900 -0.026280
v -2.472490 0.000010 0.820760
v -2.472490 1.918740 0.820760
v -2.474300 1.921430 0.823530
v -2.474300 0.002690 0.823530
v -2.472490 1.921430 0.817980
v -2.472490 1.921430 -0.017970
v -2.474290 1.924120 -0.020750
v -2.474300 1.924120 0.820760
v -2.472490 1.959860 0.820760
v -2.322490 1.959860 0.857580
v -2.472490 1.959860 0.857580
v -2.322490 1.959860 0.820760
v -2.472490 1.959860 -0.020750
v -2.322490 1.959860 -0.020750
v -2.472490 1.959860 -0.057570
v -2.322490 1.959860 -0.057570
v -2.472490 1.918740 -0.020750
v -2.472490 0.000010 -0.020750
v -2.474290 0.002690 -0.023520
v -2.474290 1.921430 -0.023520
v -2.472490 1.921430 -0.060350
v -2.472490 1.957170 -0.060350
v -2.474290 1.954480 -0.057570
v -2.474290 1.921430 -0.057570
v -2.474290 0.002690 -0.057570
v -2.472490 0.000010 -0.060350
v -2.472490 1.959860 -0.057570
v -2.474290 1.957170 -0.020750
v -2.474290 1.957170 -0.054800
v -2.472490 1.959860 -0.020750
v -2.472490 1.959860 0.820760
v -2.474300 1.957170 0.820760
v -2.474300 1.957170 0.854810
v -2.472490 1.959860 0.857580
v -2.472490 1.957170 0.860360
v -2.474300 1.921430 0.857580
v -2.474300 1.954480 0.857580
v -2.472490 1.921430 0.860360
v -2.472490 0.000010 0.860360
v -2.474300 0.002690 0.857580
v -2.322490 1.959860 -0.020750
v -2.322490 1.959860 -0.057570
v -2.320690 1.957170 -0.054800
v -2.320690 1.957170 -0.020750
v -2.320690 1.957170 0.820760
v -2.322490 1.959860 0.820760
v -2.322490 1.959860 0.857580
v -2.320690 1.957170 0.854810
v -2.322490 1.957170 -0.060350
v -2.320690 1.921430 -0.057570
v -2.320690 1.954480 -0.057570
v -2.322490 1.921430 -0.060350
v -2.322490 -0.000000 -0.060350
v -2.320690 0.002690 -0.057570
v -2.322490 -0.000000 -0.020750
v -2.322490 1.918740 -0.020750
v -2.320690 1.921430 -0.023520
v -2.320690 0.002690 -0.023520
v -2.322490 1.921430 -0.017970
v -2.322490 1.921430 0.817980
v -2.320690 1.924120 0.820760
v -2.320690 1.924120 -0.020750
v -2.322490 1.918740 0.820760
v -2.322490 0.000000 0.820760
v -2.320690 0.002690 0.823530
v -2.320690 1.921430 0.823530
v -2.322490 1.921430 0.860360
v -2.322490 1.957170 0.860360
v -2.320690 1.954480 0.857580
v -2.320690 1.921430 0.857580
v -2.320690 0.002690 0.857580
v -2.322490 0.000000 0.860360
v -2.472490 0.000010 -0.060350
v -2.322490 -0.000000 -0.060350
v -2.322490 1.921430 -0.060350
v -2.472490 1.921430 -0.060350
v -2.472490 1.957170 -0.060350
v -2.322490 1.957170 -0.060350
v -2.320690 1.957170 -0.054800
v -2.320690 1.954480 -0.057570
v -2.320690 1.921430 -0.057570
v -2.320690 1.923900 -0.026280
v -2.320690 0.002690 -0.057570
v -2.320690 1.921430 -0.023520
v -2.320690 0.002690 -0.023520
v -2.320690 1.924120 -0.020750
v -2.320690 1.926800 -0.023290
v -2.320690 1.957170 -0.020750
v -2.320690 1.957170 0.820760
v -2.320690 1.924120 0.820760
v -2.320690 1.926800 0.823300
v -2.320690 1.921430 0.823530
v -2.320690 1.923900 0.826290
v -2.320690 1.957170 0.854810
v -2.320690 1.954480 0.857580
v -2.320690 0.002690 0.823530
v -2.320690 1.921430 0.857580
v -2.320690 0.002690 0.857580
v -2.472490 1.918740 0.820760
v -2.472490 0.000010 0.820760
v -2.322490 0.000000 0.820760
v -2.322490 1.918740 0.820760
v -2.474290 1.921430 -0.057570
v -2.474290 1.954480 -0.057570
v -2.474290 1.957170 -0.054800
v -2.474290 1.926800 -0.023290
v -2.474290 1.957170 -0.020750
v -2.474290 1.921430 -0.023520
v -2.474290 1.924120 -0.020750
v -2.474300 1.924120 0.820760
v -2.474300 1.957170 0.820760
v -2.474300 1.926800 0.823300
v -2.474300 1.923900 0.826290
v -2.474300 1.921430 0.823530
v -2.474300 0.002690 0.823530
v -2.474300 0.002690 0.857580
v -2.474300 1.957170 0.854810
v -2.474300 1.921430 0.857580
v -2.474300 1.954480 0.857580
v -2.322490 0.000000 0.860360
v -2.472490 0.000010 0.860360
v -2.472490 1.921430 0.860360
v -2.322490 1.921430 0.860360
v -2.322490 1.957170 0.860360
v -2.472490 1.957170 0.860360
v -2.322490 -0.000000 -0.020750
v -2.322490 -0.000000 -0.060350
v -2.472490 0.000010 -0.060350
v -2.472490 0.000010 -0.020750
v -2.472490 0.000010 0.820760
v -2.472490 0.000010 0.860360
v -2.322490 0.000000 0.860360
v -2.322490 0.000000 0.820760
v -2.322490 1.918740 -0.020750
v -2.322490 -0.000000 -0.020750
v -2.472490 0.000010 -0.020750
v -2.472490 1.918740 -0.020750
v -2.322490 0.000000 0.860360
v -2.320690 0.002690 0.857580
v -2.320690 0.002690 0.823530
v -2.322490 0.000000 0.820760
v -2.322490 -0.000000 -0.020750
v -2.320690 0.002690 -0.023520
v -2.320690 0.002690 -0.057570
v -2.322490 -0.000000 -0.060350
v -2.472490 1.921430 -0.017970
v -2.472490 1.921430 0.817980
v -2.322490 1.921430 0.817980
v -2.322490 1.921430 -0.017970
v -2.472490 0.000010 -0.060350
v -2.474290 0.002690 -0.057570
v -2.474290 0.002690 -0.023520
v -2.472490 0.000010 -0.020750
v -2.472490 0.000010 0.820760
v -2.474300 0.002690 0.823530
v -2.474300 0.002690 0.857580
v -2.472490 0.000010 0.860360
v -2.472490 1.957170 0.860360
v -2.472490 1.959860 0.857580
v -2.322490 1.959860 0.857580
v -2.322490 1.957170 0.860360
v -2.322490 1.957170 -0.060350
v -2.322490 1.959860 -0.057570
v -2.472490 1.959860 -0.057570
v -2.472490 1.957170 -0.060350
v -2.322490 1.921430 -0.017970
v -2.322490 1.918740 -0.020750
v -2.472490 1.918740 -0.020750
v -2.472490 1.921430 -0.017970
v -2.472490 1.921430 0.817980
v -2.472490 1.918740 0.820760
v -2.322490 1.918740 0.820760
v -2.322490 1.921430 0.817980
v -2.320690 1.957170 0.854810
v -2.320690 1.954480 0.857580
v -2.322490 1.957170 0.860360
v -2.322490 1.959860 0.857580
v -2.320690 1.921430 0.823530
v -2.320690 1.924120 0.820760
v -2.322490 1.921430 0.817980
v -2.322490 1.918740 0.820760
v -2.320690 1.924120 -0.020750
v -2.320690 1.921430 -0.023520
v -2.322490 1.918740 -0.020750
v -2.322490 1.921430 -0.017970
v -2.320690 1.954480 -0.057570
v -2.320690 1.957170 -0.054800
v -2.322490 1.959860 -0.057570
v -2.322490 1.957170 -0.060350
v -2.474300 1.954480 0.857580
v -2.474300 1.957170 0.854810
v -2.472490 1.959860 0.857580
v -2.472490 1.957170 0.860360
v -2.474290 1.957170 -0.054800
v -2.474290 1.954480 -0.057570
v -2.472490 1.957170 -0.060350
v -2.472490 1.959860 -0.057570
v -2.474290 1.921430 -0.023520
v -2.474290 1.924120 -0.020750
v -2.472490 1.921430 -0.017970
v -2.472490 1.918740 -0.020750
v -2.474300 1.924120 0.820760
v -2.474300 1.921430 0.823530
v -2.472490 1.918740 0.820760
v -2.472490 1.921430 0.817980
vn -1.0000 -0.0000 -0.0000
vn -0.8371 -0.0000 -0.5470
vn -0.8372 -0.0000 -0.5470
vn -0.8311 -0.5562 -0.0000
vn -0.8298 -0.5581 -0.0000
vn -0.0000 1.0000 -0.0000
vn -0.8385 -0.0000 0.5448
vn -0.8394 -0.0000 -0.5435
vn -0.8312 0.5560 -0.0000
vn -0.8311 0.5562 -0.0000
vn -0.8297 0.5582 -0.0000
vn -0.8381 -0.0000 0.5456
vn -0.8380 -0.0000 0.5456
vn 0.8311 0.5561 -0.0000
vn 0.8311 0.5562 -0.0000
vn 0.8310 0.5562 -0.0000
vn 0.8394 -0.0000 -0.5435
vn 0.8385 -0.0000 0.5449
vn 0.8311 -0.5562 -0.0000
vn 0.8385 -0.0000 -0.5449
vn 0.8394 -0.0000 0.5435
vn -0.0000 -0.0000 -1.0000
vn 1.0000 -0.0000 -0.0000
vn -0.0000 -0.0000 1.0000
vn -0.0001 -1.0000 -0.0000
vn 0.8311 -0.5561 -0.0000
vn -0.0000 -1.0000 -0.0000
vn -0.8301 -0.5576 -0.0000
vn -0.8301 -0.5575 -0.0000
vn -0.8288 -0.5596 -0.0000
vn -0.8287 -0.5597 -0.0000
vn -0.0000 0.7186 0.6954
vn -0.0000 0.7187 0.6953
vn -0.0000 0.7186 -0.6954
vn -0.0000 0.7187 -0.6953
vn -0.0000 -0.7186 0.6954
vn -0.0000 -0.7187 0.6953
vn -0.0000 -0.7186 -0.6954
vn -0.0000 -0.7187 -0.6953
vn 0.9064 0.3033 0.2940
vn 0.9066 0.3028 0.2940
vn 0.9064 0.3032 0.2940
vn 0.9063 0.3037 0.2939
vn 0.9064 -0.3033 -0.2940
vn 0.9066 -0.3028 -0.2940
vn 0.9063 -0.3037 -0.2940
vn 0.9064 -0.3033 0.2940
vn 0.9063 -0.3032 0.2945
vn 0.9066 -0.3033 0.2935
vn 0.9064 0.3033 -0.2939
vn 0.9063 0.3032 -0.2945
vn 0.9064 0.3033 -0.2940
vn 0.9066 0.3033 -0.2935
vn -0.9055 0.3046 0.2953
vn -0.9054 0.3046 0.2957
vn -0.9057 0.3047 0.2948
vn -0.9064 0.3033 -0.2939
vn -0.9066 0.3028 -0.2940
vn -0.9064 0.3032 -0.2939
vn -0.9063 0.3037 -0.2939
vn -0.9064 -0.3033 0.2939
vn -0.9066 -0.3028 0.2940
vn -0.9064 -0.3032 0.2940
vn -0.9063 -0.3037 0.2939
vn -0.9055 -0.3046 -0.2953
vn -0.9054 -0.3046 -0.2958
vn -0.9057 -0.3047 -0.2948
vt 2.707932 2.634498
vt 2.677556 0.593331
vt 2.710614 0.593331
vt 3.833215 2.507446
vt 3.829608 2.503839
vt 3.829608 0.692183
vt 3.833215 0.695790
vt 2.764220 3.181250
vt 2.767803 3.177660
vt 3.536545 3.177660
vt 3.540128 3.181250
vt 0.403544 3.574303
vt 0.403544 3.382218
vt 0.432303 3.574303
vt 0.432303 3.382218
vt 1.089437 3.574303
vt 1.089437 3.382218
vt 1.118196 3.574303
vt 1.118196 3.382218
vt 2.471133 0.695777
vt 2.474740 0.692170
vt 2.474740 2.503852
vt 2.471133 2.507459
vt 2.417381 2.548915
vt 2.413772 2.552443
vt 2.413772 2.518689
vt 2.417381 2.518689
vt 2.417381 0.707619
vt 2.413772 0.704011
vt 2.734469 3.234483
vt 2.764856 3.234483
vt 2.730954 3.238077
vt 2.764856 3.238077
vt 3.539492 3.238077
vt 3.539492 3.234483
vt 3.569879 3.234483
vt 3.573394 3.238077
vt 3.886967 2.548933
vt 3.886967 2.518707
vt 3.890576 2.552461
vt 3.890576 2.518707
vt 3.890576 0.703992
vt 3.886967 0.707600
vt 1.613424 3.234483
vt 1.616940 3.238077
vt 1.583032 3.238077
vt 1.583032 3.234483
vt 0.808272 3.234483
vt 0.808272 3.238077
vt 0.774365 3.238077
vt 0.777880 3.234483
vt 1.930446 2.548920
vt 1.930446 2.518694
vt 1.934055 2.552447
vt 1.934055 2.518694
vt 1.934055 0.704006
vt 1.930446 0.707614
vt 1.876693 2.507422
vt 1.873086 2.503815
vt 1.873086 0.692207
vt 1.876693 0.695814
vt 0.807750 3.181250
vt 0.811332 3.177660
vt 1.579972 3.177660
vt 1.583555 3.181250
vt 0.514611 0.695820
vt 0.518218 0.692213
vt 0.518218 2.503809
vt 0.514611 2.507416
vt 0.460859 2.548924
vt 0.457250 2.552451
vt 0.457250 2.518698
vt 0.460859 2.518698
vt 0.460859 0.707610
vt 0.457250 0.704002
vt 0.120942 2.383745
vt 0.120942 0.844070
vt 0.313840 0.844070
vt 0.313840 2.383745
vt 0.313840 2.412383
vt 0.120942 2.412383
vt 1.670271 2.630766
vt 1.670271 2.664770
vt 1.667476 2.667537
vt 1.639894 2.634496
vt 1.670271 0.593333
vt 1.637212 2.631968
vt 1.637212 0.593333
vt 1.634322 2.634825
vt 1.636883 2.637479
vt 1.633153 2.667537
vt 0.758152 2.667537
vt 0.756982 2.634825
vt 0.754422 2.637479
vt 0.754092 2.631968
vt 0.751410 2.634496
vt 0.723828 2.667537
vt 0.721035 2.664770
vt 0.754092 0.593333
vt 0.721035 2.630766
vt 0.721035 0.593333
vt 4.034936 0.851773
vt 4.225933 0.851773
vt 4.225933 2.404591
vt 4.034936 2.404591
vt 2.680349 2.667539
vt 2.677556 2.664772
vt 2.677556 2.630768
vt 2.710943 2.637481
vt 2.714673 2.667539
vt 2.710614 2.631969
vt 2.713504 2.634827
vt 3.590844 2.634827
vt 3.589675 2.667539
vt 3.593405 2.637481
vt 3.596416 2.634498
vt 3.593734 2.631969
vt 3.593734 0.593331
vt 3.626792 0.593331
vt 3.623999 2.667539
vt 3.626792 2.630768
vt 3.626792 2.664772
vt 2.077465 2.383745
vt 2.077465 0.844070
vt 2.270362 0.844070
vt 2.270362 2.383745
vt 2.270362 2.412383
vt 2.077465 2.412383
vt 4.865216 0.709096
vt 4.865216 0.595252
vt 4.917393 0.595252
vt 4.917393 0.709096
vt 4.917393 0.160471
vt 4.917393 0.274312
vt 4.865216 0.274312
vt 4.865216 0.160471
vt 4.469719 0.851773
vt 4.660716 0.851773
vt 4.660716 2.404590
vt 4.469719 2.404590
vt 0.502591 0.026414
vt 0.472878 0.026414
vt 0.469230 0.022765
vt 0.506239 0.022765
vt 1.918427 0.026414
vt 1.888713 0.026414
vt 1.885065 0.022765
vt 1.922075 0.022765
vt 2.489274 3.378856
vt 2.489274 3.577665
vt 1.858552 3.577665
vt 1.858552 3.378856
vt 2.459113 0.026414
vt 2.429400 0.026414
vt 2.425751 0.022765
vt 2.462762 0.022765
vt 3.874948 0.026414
vt 3.845235 0.026414
vt 3.841586 0.022765
vt 3.878597 0.022765
vt 0.021622 3.176076
vt 0.021622 3.780445
vt 0.020649 3.780445
vt 0.020649 3.176076
vt 1.500118 3.780521
vt 1.500118 3.176000
vt 1.501090 3.176000
vt 1.501090 3.780521
vt 4.264625 3.238927
vt 4.865810 3.238927
vt 4.865810 3.239905
vt 4.264625 3.239905
vt 3.829912 3.238927
vt 4.430956 3.238927
vt 4.430956 3.239905
vt 3.829912 3.239905
vt 0.458259 3.234621
vt 0.461759 3.231200
vt 0.464167 3.233585
vt 0.460744 3.237085
vt 0.521598 3.176735
vt 0.518147 3.180193
vt 0.515685 3.177759
vt 0.519143 3.174301
vt 1.872168 3.174344
vt 1.875576 3.177752
vt 1.873150 3.180151
vt 1.869748 3.176743
vt 1.930564 3.237108
vt 1.927114 3.233581
vt 1.929542 3.231176
vt 1.933069 3.234624
vt 3.887086 3.237106
vt 3.883638 3.233581
vt 3.886063 3.231178
vt 3.889588 3.234624
vt 2.414759 3.234624
vt 2.418285 3.231177
vt 2.420712 3.233581
vt 2.417262 3.237107
vt 2.478071 3.176744
vt 2.474677 3.180145
vt 2.472256 3.177751
vt 2.475656 3.174350
vt 3.828683 3.174303
vt 3.832139 3.177759
vt 3.829679 3.180192
vt 3.826230 3.176736
s 1
f 3/1/1 2/2/1 1/3/1
f 6/4/2 5/5/2 4/6/3
f 7/7/3 6/4/2 4/6/3
f 10/8/4 9/9/4 8/10/5
f 11/11/5 10/8/4 8/10/5
f 14/12/6 13/13/6 12/14/6
f 13/13/6 15/15/6 12/14/6
f 12/14/6 15/15/6 16/16/6
f 15/15/6 17/17/6 16/16/6
f 18/18/6 16/16/6 17/17/6
f 19/19/6 18/18/6 17/17/6
f 22/20/7 21/21/7 20/22/7
f 23/23/7 22/20/7 20/22/7
f 26/24/8 25/25/8 24/26/8
f 27/27/8 26/24/8 24/26/8
f 28/28/8 27/27/8 24/26/8
f 29/29/8 28/28/8 24/26/8
f 32/30/9 31/31/10 30/32/9
f 31/31/10 33/33/10 30/32/9
f 33/33/10 31/31/10 34/34/11
f 31/31/10 35/35/11 34/34/11
f 35/35/11 36/36/11 34/34/11
f 36/36/11 37/37/11 34/34/11
f 40/38/12 39/39/13 38/40/12
f 39/39/13 41/41/13 38/40/12
f 41/41/13 39/39/13 42/42/12
f 39/39/13 43/43/12 42/42/12
f 46/44/14 45/45/14 44/46/15
f 47/47/16 46/44/14 44/46/15
f 48/48/14 47/47/16 44/46/15
f 49/49/14 48/48/14 44/46/15
f 48/48/14 49/49/14 50/50/14
f 51/51/14 48/48/14 50/50/14
f 54/52/17 53/53/17 52/54/17
f 53/53/17 55/55/17 52/54/17
f 55/55/17 53/53/17 56/56/17
f 53/53/17 57/57/17 56/56/17
f 60/58/18 59/59/18 58/60/18
f 61/61/18 60/58/18 58/60/18
f 64/62/19 63/63/19 62/64/19
f 65/65/19 64/62/19 62/64/19
f 68/66/20 67/67/20 66/68/20
f 69/69/20 68/66/20 66/68/20
f 72/70/21 71/71/21 70/72/21
f 73/73/21 72/70/21 70/72/21
f 74/74/21 73/73/21 70/72/21
f 75/75/21 74/74/21 70/72/21
f 78/76/22 77/77/22 76/78/22
f 79/79/22 78/76/22 76/78/22
f 78/76/22 79/79/22 80/80/22
f 81/81/22 78/76/22 80/80/22
f 84/82/23 83/83/23 82/84/23
f 85/85/23 84/82/23 82/84/23
f 86/86/23 84/82/23 85/85/23
f 86/86/23 85/85/23 87/87/23
f 87/87/23 88/88/23 86/86/23
f 89/89/23 87/87/23 85/85/23
f 90/90/23 85/85/23 82/84/23
f 90/90/23 89/89/23 85/85/23
f 82/84/23 91/91/23 90/90/23
f 89/89/23 90/90/23 91/91/23
f 89/89/23 91/91/23 92/92/23
f 93/93/23 89/89/23 92/92/23
f 92/92/23 94/94/23 93/93/23
f 93/93/23 94/94/23 95/95/23
f 96/96/23 94/94/23 92/92/23
f 94/94/23 96/96/23 95/95/23
f 96/96/23 92/92/23 97/97/23
f 96/96/23 97/97/23 98/98/23
f 99/99/23 95/95/23 96/96/23
f 98/98/23 100/100/23 96/96/23
f 99/99/23 96/96/23 100/100/23
f 100/100/23 101/101/23 99/99/23
f 104/102/22 103/103/22 102/104/22
f 105/105/22 104/102/22 102/104/22
f 108/106/1 107/107/1 106/108/1
f 108/106/1 106/108/1 3/1/1
f 3/1/1 106/108/1 2/2/1
f 108/106/1 3/1/1 109/109/1
f 109/109/1 110/110/1 108/106/1
f 109/109/1 3/1/1 111/111/1
f 1/3/1 111/111/1 3/1/1
f 112/112/1 109/109/1 111/111/1
f 110/110/1 109/109/1 112/112/1
f 110/110/1 112/112/1 113/113/1
f 114/114/1 110/110/1 113/113/1
f 113/113/1 115/115/1 114/114/1
f 114/114/1 115/115/1 116/116/1
f 115/115/1 113/113/1 116/116/1
f 113/113/1 117/117/1 116/116/1
f 116/116/1 117/117/1 118/118/1
f 116/116/1 118/118/1 119/119/1
f 120/120/1 114/114/1 116/116/1
f 119/119/1 121/121/1 116/116/1
f 120/120/1 116/116/1 121/121/1
f 121/121/1 122/122/1 120/120/1
f 125/123/24 124/124/24 123/125/24
f 126/126/24 125/123/24 123/125/24
f 126/126/24 127/127/24 125/123/24
f 127/127/24 128/128/24 125/123/24
f 131/129/25 130/130/25 129/131/25
f 132/132/25 131/129/25 129/131/25
f 135/133/25 134/134/25 133/135/25
f 136/136/25 135/133/25 133/135/25
f 139/137/24 138/138/24 137/139/24
f 140/140/24 139/137/24 137/139/24
f 143/141/19 142/142/26 141/143/26
f 144/144/19 143/141/19 141/143/26
f 147/145/26 146/146/19 145/147/19
f 148/148/26 147/145/26 145/147/19
f 151/149/27 150/150/27 149/151/27
f 152/152/27 151/149/27 149/151/27
f 155/153/28 154/154/29 153/155/29
f 156/156/28 155/153/28 153/155/29
f 159/157/30 158/158/31 157/159/31
f 160/160/30 159/157/30 157/159/31
f 163/161/32 162/162/33 161/163/33
f 164/164/32 163/161/32 161/163/33
f 167/165/34 166/166/35 165/167/35
f 168/168/34 167/165/34 165/167/35
f 171/169/36 170/170/37 169/171/37
f 172/172/36 171/169/36 169/171/37
f 175/173/38 174/174/39 173/175/39
f 176/176/38 175/173/38 173/175/39
f 179/177/40 178/178/41 177/179/42
f 180/180/43 179/177/40 177/179/42
f 183/181/44 182/182/45 181/183/44
f 184/184/46 183/181/44 181/183/44
f 187/185/47 186/186/48 185/187/47
f 188/188/49 187/185/47 185/187/47
f 191/189/50 190/190/51 189/191/52
f 192/192/53 191/189/50 189/191/52
f 195/193/54 194/194/55 193/195/54
f 196/196/56 195/193/54 193/195/54
f 199/197/57 198/198/58 197/199/59
f 200/200/60 199/197/57 197/199/59
f 203/201/61 202/202/62 201/203/63
f 204/204/64 203/201/61 201/203/63
f 207/205/65 206/206/66 205/207/65
f 208/208/67 207/205/65 205/207/65
f 3/1/1 2/2/1 1/3/1
f 6/4/2 5/5/2 4/6/3
f 7/7/3 6/4/2 4/6/3
f 10/8/4 9/9/4 8/10/5
f 11/11/5 10/8/4 8/10/5
f 14/12/6 13/13/6 12/14/6
f 13/13/6 15/15/6 12/14/6
f 12/14/6 15/15/6 16/16/6
f 15/15/6 17/17/6 16/16/6
f 18/18/6 16/16/6 17/17/6
f 19/19/6 18/18/6 17/17/6
f 22/20/7 21/21/7 20/22/7
f 23/23/7 22/20/7 20/22/7
f 26/24/8 25/25/8 24/26/8
f 27/27/8 26/24/8 24/26/8
f 28/28/8 27/27/8 24/26/8
f 29/29/8 28/28/8 24/26/8
f 32/30/9 31/31/10 30/32/9
f 31/31/10 33/33/10 30/32/9
f 33/33/10 31/31/10 34/34/11
f 31/31/10 35/35/11 34/34/11
f 35/35/11 36/36/11 34/34/11
f 36/36/11 37/37/11 34/34/11
f 40/38/12 39/39/13 38/40/12
f 39/39/13 41/41/13 38/40/12
f 41/41/13 39/39/13 42/42/12
f 39/39/13 43/43/12 42/42/12
f 46/44/14 45/45/14 44/46/15
f 47/47/16 46/44/14 44/46/15
f 48/48/14 47/47/16 44/46/15
f 49/49/14 48/48/14 44/46/15
f 48/48/14 49/49/14 50/50/14
f 51/51/14 48/48/14 50/50/14
f 54/52/17 53/53/17 52/54/17
f 53/53/17 55/55/17 52/54/17
f 55/55/17 53/53/17 56/56/17
f 53/53/17 57/57/17 56/56/17
f 60/58/18 59/59/18 58/60/18
f 61/61/18 60/58/18 58/60/18
f 64/62/19 63/63/19 62/64/19
f 65/65/19 64/62/19 62/64/19
f 68/66/20 67/67/20 66/68/20
f 69/69/20 68/66/20 66/68/20
f 72/70/21 71/71/21 70/72/21
f 73/73/21 72/70/21 70/72/21
f 74/74/21 73/73/21 70/72/21
f 75/75/21 74/74/21 70/72/21
f 78/76/22 77/77/22 76/78/22
f 79/79/22 78/76/22 76/78/22
f 78/76/22 79/79/22 80/80/22
f 81/81/22 78/76/22 80/80/22
f 84/82/23 83/83/23 82/84/23
f 85/85/23 84/82/23 82/84/23
f 86/86/23 84/82/23 85/85/23
f 86/86/23 85/85/23 87/87/23
f 87/87/23 88/88/23 86/86/23
f 89/89/23 87/87/23 85/85/23
f 90/90/23 85/85/23 82/84/23
f 90/90/23 89/89/23 85/85/23
f 82/84/23 91/91/23 90/90/23
f 89/89/23 90/90/23 91/91/23
f 89/89/23 91/91/23 92/92/23
f 93/93/23 89/89/23 92/92/23
f 92/92/23 94/94/23 93/93/23
f 93/93/23 94/94/23 95/95/23
f 96/96/23 94/94/23 92/92/23
f 94/94/23 96/96/23 95/95/23
f 96/96/23 92/92/23 97/97/23
f 96/96/23 97/97/23 98/98/23
f 99/99/23 95/95/23 96/96/23
f 98/98/23 100/100/23 96/96/23
f 99/99/23 96/96/23 100/100/23
f 100/100/23 101/101/23 99/99/23
f 104/102/22 103/103/22 102/104/22
f 105/105/22 104/102/22 102/104/22
f 108/106/1 107/107/1 106/108/1
f 108/106/1 106/108/1 3/1/1
f 3/1/1 106/108/1 2/2/1
f 108/106/1 3/1/1 109/109/1
f 109/109/1 110/110/1 108/106/1
f 109/109/1 3/1/1 111/111/1
f 1/3/1 111/111/1 3/1/1
f 112/112/1 109/109/1 111/111/1
f 110/110/1 109/109/1 112/112/1
f 110/110/1 112/112/1 113/113/1
f 114/114/1 110/110/1 113/113/1
f 113/113/1 115/115/1 114/114/1
f 114/114/1 115/115/1 116/116/1
f 115/115/1 113/113/1 116/116/1
f 113/113/1 117/117/1 116/116/1
f 116/116/1 117/117/1 118/118/1
f 116/116/1 118/118/1 119/119/1
f 120/120/1 114/114/1 116/116/1
f 119/119/1 121/121/1 116/116/1
f 120/120/1 116/116/1 121/121/1
f 121/121/1 122/122/1 120/120/1
f 125/123/24 124/124/24 123/125/24
f 126/126/24 125/123/24 123/125/24
f 126/126/24 127/127/24 125/123/24
f 127/127/24 128/128/24 125/123/24
f 131/129/25 130/130/25 129/131/25
f 132/132/25 131/129/25 129/131/25
f 135/133/25 134/134/25 133/135/25
f 136/136/25 135/133/25 133/135/25
f 139/137/24 138/138/24 137/139/24
f 140/140/24 139/137/24 137/139/24
f 143/141/19 142/142/26 141/143/26
f 144/144/19 143/141/19 141/143/26
f 147/145/26 146/146/19 145/147/19
f 148/148/26 147/145/26 145/147/19
f 151/149/27 150/150/27 149/151/27
f 152/152/27 151/149/27 149/151/27
f 155/153/28 154/154/29 153/155/29
f 156/156/28 155/153/28 153/155/29
f 159/157/30 158/158/31 157/159/31
f 160/160/30 159/157/30 157/159/31
f 163/161/32 162/162/33 161/163/33
f 164/164/32 163/161/32 161/163/33
f 167/165/34 166/166/35 165/167/35
f 168/168/34 167/165/34 165/167/35
f 171/169/36 170/170/37 169/171/37
f 172/172/36 171/169/36 169/171/37
f 175/173/38 174/174/39 173/175/39
f 176/176/38 175/173/38 173/175/39
f 179/177/40 178/178/41 177/179/42
f 180/180/43 179/177/40 177/179/42
f 183/181/44 182/182/45 181/183/44
f 184/184/46 183/181/44 181/183/44
f 187/185/47 186/186/48 185/187/47
f 188/188/49 187/185/47 185/187/47
f 191/189/50 190/190/51 189/191/52
f 192/192/53 191/189/50 189/191/52
f 195/193/54 194/194/55 193/195/54
f 196/196/56 195/193/54 193/195/54
f 199/197/57 198/198/58 197/199/59
f 200/200/60 199/197/57 197/199/59
f 203/201/61 202/202/62 201/203/63
f 204/204/64 203/201/61 201/203/63
f 207/205/65 206/206/66 205/207/65
f 208/208/67 207/205/65 205/207/65
