mtllib material.mtl
usemtl material_0
v -0.27391000 0.01220000 0.01141000
v -0.27642000 0.01606000 0.00704000
v -0.27391000 0.01606000 0.01050000
v -0.27686000 0.01220000 0.00750000
v -0.27642000 0.01606000 0.00092000
v -0.27391000 -0.01348000 0.01141000
v -0.27686000 0.01220000 0.00001000
v -0.27686000 -0.01348000 0.00750000
v -0.27391000 -0.01605000 0.01050000
v -0.27686000 -0.01348000 0.00001000
v -0.27642000 -0.01605000 0.00704000
v -0.27642000 -0.01605000 0.00092000
v -0.27391000 -0.01605000 0.00092000
v -0.27642000 -0.01605000 0.00092000
v -0.27642000 -0.01605000 0.00704000
v -0.27391000 -0.01605000 0.01050000
v -0.25827000 -0.01605000 0.00100000
v -0.25836000 -0.01605000 0.01042000
v -0.22954000 -0.01605000 0.01871000
v -0.22942000 -0.01605000 0.00902000
v -0.20051000 -0.01605000 0.02595000
v -0.20443000 -0.01605000 0.03436000
v -0.17146000 -0.01605000 0.05051000
v -0.17540000 -0.01605000 0.05894000
v -0.14963000 -0.01605000 0.07292000
v -0.14573000 -0.01605000 0.06457000
v -0.12148000 -0.01605000 0.07201000
v -0.12148000 -0.01605000 0.08134000
v -0.09069000 -0.01605000 0.07821000
v -0.09069000 -0.01605000 0.08758000
v -0.06064000 -0.01605000 0.09277000
v -0.06064000 -0.01605000 0.08337000
v -0.03038000 -0.01605000 0.09621000
v -0.03038000 -0.01605000 0.08678000
v 0.00000000 -0.01605000 0.08841000
v 0.00000000 -0.01605000 0.09788000
v 0.03039000 -0.01605000 0.09621000
v 0.03039000 -0.01605000 0.08678000
v 0.06064000 -0.01605000 0.09277000
v 0.06065000 -0.01605000 0.08337000
v 0.09069000 -0.01605000 0.08758000
v 0.09070000 -0.01605000 0.07821000
v 0.12149000 -0.01605000 0.08134000
v 0.12149000 -0.01605000 0.07201000
v 0.14964000 -0.01605000 0.07292000
v 0.14574000 -0.01605000 0.06457000
v 0.17541000 -0.01605000 0.05894000
v 0.17147000 -0.01605000 0.05051000
v 0.20444000 -0.01605000 0.03436000
v 0.20052000 -0.01605000 0.02595000
v 0.22954000 -0.01605000 0.01871000
v 0.22943000 -0.01605000 0.00902000
v 0.25837000 -0.01605000 0.01042000
v 0.25828000 -0.01605000 0.00100000
v 0.27392000 -0.01605000 0.01050000
v 0.27392000 -0.01605000 0.00092000
v 0.27643000 -0.01605000 0.00704000
v 0.27643000 -0.01605000 0.00092000
v -0.27391000 0.01606000 0.01050000
v -0.27642000 0.01606000 0.00704000
v -0.27642000 0.01606000 0.00092000
v -0.27391000 0.01606000 0.00092000
v -0.25844000 0.01606000 0.01042000
v -0.25834000 0.01606000 0.00100000
v -0.22953000 0.01606000 0.00895000
v -0.22966000 0.01606000 0.01863000
v -0.20443000 0.01606000 0.03436000
v -0.20051000 0.01606000 0.02595000
v -0.17539000 0.01606000 0.05895000
v -0.17145000 0.01606000 0.05052000
v -0.14572000 0.01606000 0.06458000
v -0.14961000 0.01606000 0.07292000
v -0.12148000 0.01606000 0.08134000
v -0.12148000 0.01606000 0.07201000
v -0.09065000 0.01606000 0.08758000
v -0.09065000 0.01606000 0.07822000
v -0.06063000 0.01606000 0.08337000
v -0.06062000 0.01606000 0.09277000
v -0.03037000 0.01606000 0.08678000
v -0.03037000 0.01606000 0.09621000
v 0.00000000 0.01606000 0.09788000
v 0.00000000 0.01606000 0.08841000
v 0.03038000 0.01606000 0.08678000
v 0.03038000 0.01606000 0.09621000
v 0.06063000 0.01606000 0.08337000
v 0.06063000 0.01606000 0.09277000
v 0.09066000 0.01606000 0.07822000
v 0.09066000 0.01606000 0.08758000
v 0.12149000 0.01606000 0.08134000
v 0.12149000 0.01606000 0.07201000
v 0.14573000 0.01606000 0.06458000
v 0.14962000 0.01606000 0.07292000
v 0.17146000 0.01606000 0.05052000
v 0.17540000 0.01606000 0.05895000
v 0.20444000 0.01606000 0.03436000
v 0.20052000 0.01606000 0.02595000
v 0.22967000 0.01606000 0.01863000
v 0.22954000 0.01606000 0.00895000
v 0.25835000 0.01606000 0.00100000
v 0.25845000 0.01606000 0.01042000
v 0.27392000 0.01606000 0.00092000
v 0.27392000 0.01606000 0.01050000
v 0.27643000 0.01606000 0.00092000
v 0.27643000 0.01606000 0.00704000
v -0.27391000 0.01606000 0.00092000
v -0.27642000 0.01606000 0.00092000
v -0.27686000 0.01220000 0.00001000
v -0.27391000 0.01220000 0.00001000
v -0.27686000 -0.01348000 0.00001000
v -0.25834000 0.01606000 0.00100000
v -0.27391000 -0.01348000 0.00001000
v -0.27642000 -0.01605000 0.00092000
v -0.27391000 -0.01605000 0.00092000
v -0.25814000 0.01220000 0.00001000
v -0.25814000 -0.01348000 0.00001000
v -0.25827000 -0.01605000 0.00100000
v -0.22942000 -0.01605000 0.00902000
v -0.22982000 0.01220000 0.00766000
v -0.22953000 0.01606000 0.00895000
v -0.20051000 0.01606000 0.02595000
v -0.22977000 -0.01348000 0.00769000
v -0.20006000 0.01220000 0.02499000
v -0.17145000 0.01606000 0.05052000
v -0.17098000 0.01220000 0.04960000
v -0.20006000 -0.01348000 0.02499000
v -0.20051000 -0.01605000 0.02595000
v -0.17098000 -0.01348000 0.04960000
v -0.17146000 -0.01605000 0.05051000
v -0.14528000 -0.01348000 0.06365000
v -0.14528000 0.01220000 0.06365000
v -0.14572000 0.01606000 0.06458000
v -0.12148000 0.01606000 0.07201000
v -0.12148000 0.01220000 0.07097000
v -0.09065000 0.01606000 0.07822000
v -0.14573000 -0.01605000 0.06457000
v -0.12148000 -0.01348000 0.07097000
v -0.12148000 -0.01605000 0.07201000
v -0.09047000 0.01220000 0.07723000
v -0.09050000 -0.01348000 0.07723000
v -0.09069000 -0.01605000 0.07821000
v -0.06064000 -0.01605000 0.08337000
v -0.06062000 -0.01348000 0.08237000
v -0.03038000 -0.01605000 0.08678000
v -0.06062000 0.01220000 0.08237000
v -0.06063000 0.01606000 0.08337000
v -0.03049000 -0.01348000 0.08578000
v -0.03052000 0.01220000 0.08578000
v -0.03037000 0.01606000 0.08678000
v 0.00000000 0.01606000 0.08841000
v 0.00000000 -0.01348000 0.08744000
v 0.00000000 -0.01605000 0.08841000
v 0.03039000 -0.01605000 0.08678000
v 0.00000000 0.01220000 0.08744000
v 0.03050000 -0.01348000 0.08578000
v 0.06065000 -0.01605000 0.08337000
v 0.03050000 0.01220000 0.08578000
v 0.03038000 0.01606000 0.08678000
v 0.06062000 -0.01348000 0.08237000
v 0.09070000 -0.01605000 0.07821000
v 0.06062000 0.01220000 0.08237000
v 0.06063000 0.01606000 0.08337000
v 0.09050000 -0.01348000 0.07723000
v 0.12149000 -0.01605000 0.07201000
v 0.09050000 0.01220000 0.07723000
v 0.09066000 0.01606000 0.07822000
v 0.12149000 -0.01348000 0.07097000
v 0.14574000 -0.01605000 0.06457000
v 0.12149000 0.01220000 0.07097000
v 0.12149000 0.01606000 0.07201000
v 0.14528000 -0.01348000 0.06365000
v 0.17147000 -0.01605000 0.05051000
v 0.17099000 -0.01348000 0.04959000
v 0.14529000 0.01220000 0.06365000
v 0.14573000 0.01606000 0.06458000
v 0.17099000 0.01220000 0.04959000
v 0.17146000 0.01606000 0.05052000
v 0.20007000 -0.01348000 0.02499000
v 0.20052000 -0.01605000 0.02595000
v 0.22943000 -0.01605000 0.00902000
v 0.20007000 0.01220000 0.02499000
v 0.20052000 0.01606000 0.02595000
v 0.22978000 -0.01348000 0.00769000
v 0.25828000 -0.01605000 0.00100000
v 0.22983000 0.01220000 0.00766000
v 0.22954000 0.01606000 0.00895000
v 0.25815000 -0.01348000 0.00001000
v 0.27392000 -0.01605000 0.00092000
v 0.25815000 0.01220000 0.00001000
v 0.25835000 0.01606000 0.00100000
v 0.27392000 -0.01348000 0.00001000
v 0.27643000 -0.01605000 0.00092000
v 0.27687000 -0.01348000 0.00001000
v 0.27392000 0.01220000 0.00001000
v 0.27392000 0.01606000 0.00092000
v 0.27687000 0.01220000 0.00001000
v 0.27643000 0.01606000 0.00092000
v 0.27392000 0.01220000 0.01141000
v 0.27392000 0.01606000 0.01050000
v 0.27643000 0.01606000 0.00704000
v 0.27687000 0.01220000 0.00750000
v 0.27643000 0.01606000 0.00092000
v 0.27392000 -0.01348000 0.01141000
v 0.27687000 0.01220000 0.00001000
v 0.27687000 -0.01348000 0.00750000
v 0.27392000 -0.01605000 0.01050000
v 0.27687000 -0.01348000 0.00001000
v 0.27643000 -0.01605000 0.00704000
v 0.27643000 -0.01605000 0.00092000
v -0.25836000 -0.01605000 0.01042000
v -0.27391000 -0.01605000 0.01050000
v -0.27391000 -0.01348000 0.01141000
v -0.25821000 -0.01348000 0.01141000
v -0.27391000 0.01220000 0.01141000
v -0.22997000 -0.01348000 0.01957000
v -0.22954000 -0.01605000 0.01871000
v -0.20443000 -0.01605000 0.03436000
v -0.25821000 0.01220000 0.01141000
v -0.27391000 0.01606000 0.01050000
v -0.25844000 0.01606000 0.01042000
v -0.22966000 0.01606000 0.01863000
v -0.23002000 0.01220000 0.01954000
v -0.20488000 -0.01348000 0.03533000
v -0.17540000 -0.01605000 0.05894000
v -0.20488000 0.01220000 0.03533000
v -0.20443000 0.01606000 0.03436000
v -0.17581000 -0.01348000 0.05992000
v -0.17581000 0.01220000 0.05992000
v -0.17539000 0.01606000 0.05895000
v -0.14961000 0.01606000 0.07292000
v -0.15005000 -0.01348000 0.07386000
v -0.14963000 -0.01605000 0.07292000
v -0.12148000 -0.01605000 0.08134000
v -0.15005000 0.01220000 0.07386000
v -0.12148000 -0.01348000 0.08238000
v -0.09069000 -0.01605000 0.08758000
v -0.12148000 0.01220000 0.08238000
v -0.12148000 0.01606000 0.08134000
v -0.09050000 -0.01348000 0.08863000
v -0.09047000 0.01220000 0.08864000
v -0.09065000 0.01606000 0.08758000
v -0.06062000 0.01606000 0.09277000
v -0.06062000 0.01220000 0.09378000
v -0.03037000 0.01606000 0.09621000
v -0.06062000 -0.01348000 0.09377000
v -0.06064000 -0.01605000 0.09277000
v -0.03052000 0.01220000 0.09719000
v -0.03049000 -0.01348000 0.09719000
v -0.03038000 -0.01605000 0.09621000
v 0.00000000 -0.01605000 0.09788000
v 0.00000000 0.01220000 0.09885000
v 0.00000000 0.01606000 0.09788000
v 0.03038000 0.01606000 0.09621000
v 0.00000000 -0.01348000 0.09885000
v 0.03052000 0.01220000 0.09719000
v 0.06063000 0.01606000 0.09277000
v 0.03050000 -0.01348000 0.09719000
v 0.03039000 -0.01605000 0.09621000
v 0.06062000 0.01220000 0.09378000
v 0.09066000 0.01606000 0.08758000
v 0.06062000 -0.01348000 0.09377000
v 0.06064000 -0.01605000 0.09277000
v 0.09048000 0.01220000 0.08864000
v 0.12149000 0.01606000 0.08134000
v 0.09050000 -0.01348000 0.08863000
v 0.09069000 -0.01605000 0.08758000
v 0.12149000 0.01220000 0.08238000
v 0.14962000 0.01606000 0.07292000
v 0.12149000 -0.01348000 0.08238000
v 0.12149000 -0.01605000 0.08134000
v 0.15006000 0.01220000 0.07386000
v 0.17540000 0.01606000 0.05895000
v 0.15005000 -0.01348000 0.07386000
v 0.14964000 -0.01605000 0.07292000
v 0.17582000 0.01220000 0.05992000
v 0.20444000 0.01606000 0.03436000
v 0.17582000 -0.01348000 0.05992000
v 0.17541000 -0.01605000 0.05894000
v 0.20489000 0.01220000 0.03533000
v 0.22967000 0.01606000 0.01863000
v 0.20489000 -0.01348000 0.03533000
v 0.20444000 -0.01605000 0.03436000
v 0.23002000 0.01220000 0.01954000
v 0.25845000 0.01606000 0.01042000
v 0.22998000 -0.01348000 0.01957000
v 0.22954000 -0.01605000 0.01871000
v 0.25822000 0.01220000 0.01141000
v 0.27392000 0.01606000 0.01050000
v 0.27392000 0.01220000 0.01141000
v 0.25822000 -0.01348000 0.01141000
v 0.25837000 -0.01605000 0.01042000
v 0.27392000 -0.01348000 0.01141000
v 0.27392000 -0.01605000 0.01050000
vn -0.20128550 0.03078487 0.97904870
vn -0.96250520 0.13345130 0.23616630
vn -0.20775160 0.23627510 0.94921710
vn -0.96740980 0.01601263 0.25270890
vn -0.99361840 0.11279480 0.00000217
vn -0.20158800 -0.03195168 0.97894910
vn -0.99993030 0.01181117 0.00000479
vn -0.96740570 -0.01642759 0.25269810
vn -0.20834200 -0.34219870 0.91623890
vn -0.99993590 -0.01133272 0.00000502
vn -0.95361350 -0.19730770 0.22735650
vn -0.98581050 -0.16786250 0.00000403
vn 0.00000000 -1.00000000 0.00000000
vn 0.00000000 -1.00000000 0.00000000
vn 0.00000000 -1.00000000 0.00000000
vn 0.00000000 -1.00000000 0.00000000
vn 0.00000000 -1.00000000 0.00000092
vn 0.00000000 -1.00000000 0.00000103
vn 0.00000000 -1.00000000 0.00000057
vn 0.00000000 -1.00000000 0.00000096
vn 0.00000000 -1.00000000 0.00000000
vn 0.00000000 -1.00000000 0.00000000
vn 0.00000000 -1.00000000 -0.00000083
vn 0.00000000 -1.00000000 -0.00000105
vn 0.00000000 -1.00000000 -0.00000114
vn 0.00000000 -1.00000000 -0.00000108
vn 0.00000000 -1.00000000 0.00000244
vn 0.00000000 -1.00000000 0.00000327
vn 0.00000000 -1.00000000 0.00000406
vn 0.00000000 -1.00000000 0.00000372
vn 0.00000000 -1.00000000 0.00000082
vn 0.00000000 -1.00000000 0.00000109
vn 0.00000000 -1.00000000 -0.00000025
vn 0.00000000 -1.00000000 -0.00000028
vn 0.00000000 -1.00000000 0.00000000
vn 0.00000000 -1.00000000 0.00000000
vn 0.00000000 -1.00000000 -0.00000063
vn 0.00000000 -1.00000000 -0.00000070
vn 0.00000000 -1.00000000 0.00000000
vn 0.00000000 -1.00000000 0.00000028
vn 0.00000000 -1.00000000 0.00000019
vn 0.00000000 -1.00000000 -0.00000019
vn 0.00000000 -1.00000000 -0.00000336
vn 0.00000000 -1.00000000 -0.00000407
vn 0.00000000 -1.00000000 -0.00000021
vn 0.00000000 -1.00000000 -0.00000049
vn 0.00000000 -1.00000000 0.00000049
vn 0.00000000 -1.00000000 -0.00000042
vn 0.00000000 -1.00000000 -0.00000104
vn 0.00000000 -1.00000000 -0.00000017
vn 0.00000000 -1.00000000 0.00000080
vn 0.00000000 -1.00000000 -0.00000096
vn 0.00000000 -1.00000000 -0.00000359
vn 0.00000000 -1.00000000 -0.00000361
vn 0.00000000 -1.00000000 -0.00000339
vn 0.00000000 -1.00000000 -0.00000288
vn 0.00000000 -1.00000000 0.00000389
vn 0.00000000 -1.00000000 0.00000389
vn 0.00000000 1.00000000 -0.00000049
vn 0.00000000 1.00000000 -0.00000965
vn 0.00000000 1.00000000 -0.00000965
vn 0.00000000 1.00000000 -0.00000114
vn 0.00000000 1.00000000 -0.00000022
vn 0.00000000 1.00000000 -0.00000020
vn 0.00000000 1.00000000 -0.00000020
vn 0.00000000 1.00000000 -0.00000012
vn 0.00000000 1.00000000 0.00000000
vn 0.00000000 1.00000000 0.00000000
vn 0.00000000 1.00000000 0.00000000
vn 0.00000000 1.00000000 0.00000000
vn 0.00000000 1.00000000 0.00000000
vn 0.00000000 1.00000000 0.00000000
vn 0.00000000 1.00000000 0.00000000
vn 0.00000000 1.00000000 0.00000000
vn 0.00000000 1.00000000 0.00000106
vn 0.00000000 1.00000000 0.00000083
vn 0.00000000 1.00000000 0.00000152
vn 0.00000000 1.00000000 0.00000144
vn 0.00000000 1.00000000 0.00000056
vn 0.00000000 1.00000000 0.00000050
vn 0.00000000 1.00000000 0.00000000
vn 0.00000000 1.00000000 0.00000000
vn 0.00000000 1.00000000 0.00000078
vn 0.00000000 1.00000000 0.00000070
vn 0.00000000 1.00000000 0.00000116
vn 0.00000000 1.00000000 0.00000122
vn 0.00000000 1.00000000 0.00000038
vn 0.00000000 1.00000000 0.00000049
vn 0.00000000 1.00000000 0.00000236
vn 0.00000000 1.00000000 0.00000333
vn 0.00000000 1.00000000 0.00000410
vn 0.00000000 1.00000000 0.00000399
vn 0.00000000 1.00000000 -0.00000187
vn 0.00000000 1.00000000 -0.00000119
vn 0.00000000 1.00000000 -0.00000272
vn 0.00000000 1.00000000 -0.00000219
vn 0.00000000 1.00000000 0.00000216
vn 0.00000000 1.00000000 0.00000360
vn 0.00000000 1.00000000 0.00000336
vn 0.00000000 1.00000000 0.00000380
vn 0.00000000 1.00000000 -0.00000116
vn 0.00000000 1.00000000 -0.00000068
vn 0.00000000 1.00000000 -0.00000739
vn 0.00000000 1.00000000 -0.00000739
vn 0.00212555 0.23902250 -0.97101170
vn 0.00000000 0.23079160 -0.97300320
vn 0.00000000 0.02712336 -0.99963210
vn 0.00028108 0.03161151 -0.99950020
vn 0.00000000 -0.02732392 -0.99962660
vn 0.16727480 0.26309650 -0.95015760
vn 0.00019652 -0.03308313 -0.99945250
vn 0.00000000 -0.33520260 -0.94214610
vn 0.00205793 -0.34639930 -0.93808500
vn 0.17181360 0.03499162 -0.98450780
vn 0.17155220 -0.03650563 -0.98449840
vn 0.16233570 -0.37905400 -0.91102420
vn 0.38606890 -0.37852080 -0.84123290
vn 0.39302300 0.03480904 -0.91886960
vn 0.39505440 0.26352130 -0.88005030
vn 0.56387060 0.25587340 -0.78522530
vn 0.39310940 -0.03616877 -0.91878000
vn 0.57988690 0.03385116 -0.81399350
vn 0.55504530 0.25860090 -0.79060110
vn 0.57641380 0.03547024 -0.81638780
vn 0.57983800 -0.03507884 -0.81397630
vn 0.54302260 -0.36905970 -0.75426870
vn 0.57633480 -0.03735719 -0.81635940
vn 0.53288020 -0.37262680 -0.75972880
vn 0.39606190 -0.03718100 -0.91747070
vn 0.39610450 0.03532699 -0.91752560
vn 0.38302020 0.25734200 -0.88717000
vn 0.23081580 0.25276670 -0.93959190
vn 0.24071440 0.03422876 -0.96999220
vn 0.17788300 0.25091870 -0.95152380
vn 0.36876750 -0.37098030 -0.85228170
vn 0.24070950 -0.03582634 -0.96993580
vn 0.22133970 -0.36488600 -0.90436000
vn 0.18388450 0.03386899 -0.98236420
vn 0.18389870 -0.03540961 -0.98230720
vn 0.17128840 -0.36244170 -0.91613110
vn 0.13077120 -0.35895230 -0.92414950
vn 0.14108010 -0.03521775 -0.98937170
vn 0.07647401 -0.35696470 -0.93098220
vn 0.14108230 0.03364008 -0.98942610
vn 0.13588950 0.24824310 -0.95911910
vn 0.08341144 -0.03492865 -0.99590280
vn 0.08345965 0.03335376 -0.99595280
vn 0.07955059 0.24685320 -0.96578220
vn 0.00001678 0.24655400 -0.96912900
vn 0.00001592 -0.03498724 -0.99938770
vn -0.00000017 -0.35645760 -0.93431140
vn -0.07647265 -0.35696040 -0.93098400
vn 0.00001753 0.03334553 -0.99944380
vn -0.08343547 -0.03493748 -0.99590060
vn -0.13076990 -0.35894400 -0.92415280
vn -0.08343491 0.03335508 -0.99595490
vn -0.07967442 0.24691030 -0.96575740
vn -0.14107900 -0.03523237 -0.98937130
vn -0.17128930 -0.36243790 -0.91613250
vn -0.14108110 0.03364052 -0.98942640
vn -0.13588100 0.24843900 -0.95906950
vn -0.18388320 -0.03542202 -0.98230960
vn -0.22133600 -0.36488440 -0.90436140
vn -0.18389210 0.03387194 -0.98236270
vn -0.17781560 0.25099690 -0.95151570
vn -0.24071400 -0.03583350 -0.96993450
vn -0.36886300 -0.37117100 -0.85215740
vn -0.24072040 0.03423073 -0.96999070
vn -0.23082550 0.25276250 -0.93959080
vn -0.39606290 -0.03718755 -0.91747000
vn -0.53273630 -0.37277280 -0.75975820
vn -0.57633260 -0.03736992 -0.81636040
vn -0.39612240 0.03534474 -0.91751720
vn -0.38305530 0.25741770 -0.88713290
vn -0.57639750 0.03548595 -0.81639860
vn -0.55499550 0.25866260 -0.79061600
vn -0.57983180 -0.03507917 -0.81398060
vn -0.54302290 -0.36904540 -0.75427560
vn -0.38606520 -0.37850720 -0.84124080
vn -0.57988150 0.03385125 -0.81399730
vn -0.56387150 0.25587850 -0.78522300
vn -0.39310840 -0.03616805 -0.91878060
vn -0.16233820 -0.37904180 -0.91102890
vn -0.39302120 0.03480932 -0.91887020
vn -0.39505290 0.26353010 -0.88004830
vn -0.17155050 -0.03650497 -0.98449880
vn -0.00205889 -0.34640180 -0.93808390
vn -0.17181370 0.03499207 -0.98450780
vn -0.16726990 0.26310290 -0.95015660
vn -0.00019660 -0.03308286 -0.99945250
vn 0.00000000 -0.33520390 -0.94214560
vn 0.00000000 -0.02732077 -0.99962680
vn -0.00028107 0.03161148 -0.99950020
vn -0.00212551 0.23902410 -0.97101130
vn 0.00000000 0.02712092 -0.99963210
vn 0.00000000 0.23079460 -0.97300260
vn 0.20128100 0.03078558 0.97904960
vn 0.20775590 0.23627970 0.94921510
vn 0.96249000 0.13351660 0.23619100
vn 0.96740080 0.01601979 0.25274310
vn 0.99360870 0.11287950 0.00000000
vn 0.20158330 -0.03195258 0.97895000
vn 0.99993010 0.01182018 0.00000000
vn 0.96739670 -0.01643471 0.25273220
vn 0.20834930 -0.34220180 0.91623600
vn 0.99993570 -0.01134141 0.00000000
vn 0.95358960 -0.19740420 0.22737290
vn 0.98578920 -0.16798660 0.00000000
vn -0.16296160 -0.34649260 0.92378910
vn -0.20834200 -0.34219870 0.91623890
vn -0.20158800 -0.03195168 0.97894910
vn -0.18306460 -0.03504752 0.98247590
vn -0.20128550 0.03078487 0.97904870
vn -0.40884330 -0.03556607 0.91191120
vn -0.38210940 -0.35599230 0.85279650
vn -0.55259450 -0.36774690 0.74793150
vn -0.18316490 0.03343193 0.98251360
vn -0.20775160 0.23627510 0.94921710
vn -0.16900400 0.23921360 0.95614560
vn -0.39389950 0.24616280 0.88557720
vn -0.40868880 0.03404837 0.91203850
vn -0.59720880 -0.03664951 0.80124810
vn -0.53733620 -0.37353840 0.75613400
vn -0.59721580 0.03486632 0.80132250
vn -0.57532350 0.25493010 0.77718320
vn -0.57424030 -0.03558163 0.81791320
vn -0.57432240 0.03438005 0.81790690
vn -0.55797530 0.25930500 0.78830490
vn -0.36922200 0.25826760 0.89273330
vn -0.38188480 -0.03552191 0.92352700
vn -0.35488250 -0.37224030 0.85761040
vn -0.22675210 -0.36511900 0.90292400
vn -0.38198450 0.03423888 0.92353420
vn -0.24041150 -0.03517887 0.97003330
vn -0.17276040 -0.36397710 0.91524570
vn -0.24043190 0.03376274 0.97007860
vn -0.23487770 0.25296450 0.93853150
vn -0.18383360 -0.03533591 0.98232200
vn -0.18383950 0.03383394 0.98237380
vn -0.17911780 0.25210760 0.95097770
vn -0.13755140 0.25054260 0.95828380
vn -0.14097980 0.03363462 0.98944100
vn -0.08079787 0.24742700 0.96553180
vn -0.14095590 -0.03515986 0.98939130
vn -0.13282420 -0.36181700 0.92273850
vn -0.08342823 0.03315863 0.99596200
vn -0.08335924 -0.03461311 0.99591820
vn -0.07798550 -0.35776790 0.93054840
vn 0.00000000 -0.35542680 0.93470410
vn 0.00000000 0.03274079 0.99946390
vn 0.00000000 0.24557430 0.96937770
vn 0.08079661 0.24742750 0.96553170
vn 0.00000000 -0.03407838 0.99941920
vn 0.08342806 0.03315875 0.99596200
vn 0.13755140 0.25054310 0.95828370
vn 0.08335878 -0.03461321 0.99591830
vn 0.07798480 -0.35776650 0.93054900
vn 0.14097960 0.03363516 0.98944100
vn 0.17911780 0.25210890 0.95097730
vn 0.14095590 -0.03515946 0.98939130
vn 0.13282410 -0.36181760 0.92273830
vn 0.18383880 0.03383468 0.98237400
vn 0.23487730 0.25297340 0.93852930
vn 0.18383310 -0.03533526 0.98232220
vn 0.17276110 -0.36397930 0.91524450
vn 0.24042740 0.03376449 0.97007970
vn 0.36926710 0.25823380 0.89272460
vn 0.24040660 -0.03518155 0.97003450
vn 0.22674880 -0.36513330 0.90291900
vn 0.38200080 0.03421985 0.92352820
vn 0.55794420 0.25928010 0.78833500
vn 0.38188510 -0.03551833 0.92352710
vn 0.35501580 -0.37210710 0.85761300
vn 0.57430770 0.03436407 0.81791780
vn 0.57531800 0.25494070 0.77718370
vn 0.57423920 -0.03558240 0.81791390
vn 0.53726890 -0.37340580 0.75624750
vn 0.59721180 0.03486542 0.80132540
vn 0.39390470 0.24615890 0.88557600
vn 0.59720430 -0.03665235 0.80125140
vn 0.55259100 -0.36773230 0.74794120
vn 0.40868710 0.03404390 0.91203940
vn 0.16900770 0.23920850 0.95614630
vn 0.40884230 -0.03556734 0.91191170
vn 0.38211520 -0.35597360 0.85280170
vn 0.18316360 0.03342856 0.98251400
vn 0.20775590 0.23627970 0.94921510
vn 0.20128100 0.03078558 0.97904960
vn 0.18306310 -0.03504772 0.98247620
vn 0.16296150 -0.34647290 0.92379650
vn 0.20158330 -0.03195258 0.97895000
vn 0.20834930 -0.34220180 0.91623600
vt 20.19999000 0.67378350
vt 20.19286000 0.68006550
vt 20.19850000 0.68006550
vt 20.19361000 0.67378350
vt 20.18288000 0.68006550
vt 20.19999000 0.63190210
vt 20.18139000 0.67378350
vt 20.19361000 0.63190210
vt 20.19850000 0.62771400
vt 20.18139000 0.63190210
vt 20.19286000 0.62771400
vt 20.18288000 0.62771400
vt 20.37094000 1.18908900
vt 20.37094000 1.19302300
vt 20.38050000 1.19302300
vt 20.38591000 1.18909000
vt 20.37107000 1.16466000
vt 20.38578000 1.16479400
vt 20.39875000 1.11975900
vt 20.38360000 1.11957800
vt 20.41006000 1.07440900
vt 20.42320000 1.08053800
vt 20.44843000 1.02902500
vt 20.46160000 1.03517400
vt 20.48345000 0.99490720
vt 20.47041000 0.98882060
vt 20.48203000 0.95092600
vt 20.49661000 0.95092600
vt 20.49171000 0.90281380
vt 20.50635000 0.90280830
vt 20.51446000 0.85585420
vt 20.49977000 0.85585560
vt 20.51984000 0.80857860
vt 20.50510000 0.80857810
vt 20.50766000 0.76110490
vt 20.52244000 0.76110490
vt 20.51984000 0.71363120
vt 20.50510000 0.71363160
vt 20.51446000 0.66635530
vt 20.49977000 0.66635410
vt 20.50635000 0.61940130
vt 20.49171000 0.61939600
vt 20.49661000 0.57128320
vt 20.48203000 0.57128320
vt 20.48345000 0.52730180
vt 20.47041000 0.53338840
vt 20.46160000 0.48703450
vt 20.44843000 0.49318390
vt 20.42320000 0.44167040
vt 20.41006000 0.44780010
vt 20.39875000 0.40244930
vt 20.38360000 0.40263040
vt 20.38578000 0.35741430
vt 20.37107000 0.35754800
vt 20.38591000 0.33311870
vt 20.37094000 0.33311910
vt 20.38050000 0.32918530
vt 20.37094000 0.32918530
vt 20.43596000 1.19188200
vt 20.44136000 1.19581600
vt 20.45092000 1.19581600
vt 20.45092000 1.19188200
vt 20.43608000 1.16770900
vt 20.45079000 1.16756200
vt 20.43837000 1.12254900
vt 20.42324000 1.12274500
vt 20.39866000 1.08333100
vt 20.41181000 1.07720100
vt 20.36024000 1.03794500
vt 20.37341000 1.03179400
vt 20.35145000 0.99158870
vt 20.33841000 0.99767600
vt 20.32525000 0.95371840
vt 20.33984000 0.95371840
vt 20.31551000 0.90554610
vt 20.33014000 0.90555190
vt 20.32209000 0.85863080
vt 20.30741000 0.85862960
vt 20.31676000 0.81135690
vt 20.30202000 0.81135770
vt 20.29942000 0.76389690
vt 20.31421000 0.76389690
vt 20.31676000 0.71643640
vt 20.30202000 0.71643590
vt 20.32209000 0.66916260
vt 20.30741000 0.66916390
vt 20.33014000 0.62224160
vt 20.31551000 0.62224750
vt 20.32525000 0.57407480
vt 20.33984000 0.57407480
vt 20.35145000 0.53620420
vt 20.33841000 0.53011690
vt 20.37341000 0.49599840
vt 20.36024000 0.48984800
vt 20.39866000 0.44446170
vt 20.41181000 0.45059170
vt 20.42324000 0.40504710
vt 20.43837000 0.40524370
vt 20.45079000 0.36022980
vt 20.43608000 0.36008350
vt 20.45092000 0.33591020
vt 20.43596000 0.33590960
vt 20.45092000 0.33197640
vt 20.44136000 0.33197640
vt 20.47009000 1.20729600
vt 20.47009000 1.21139500
vt 20.47636000 1.21210700
vt 20.47636000 1.20729600
vt 20.51817000 1.21210700
vt 20.47009000 1.18195800
vt 20.51817000 1.20729600
vt 20.52235000 1.21139500
vt 20.52235000 1.20729600
vt 20.47636000 1.18162400
vt 20.51817000 1.18162700
vt 20.52235000 1.18184400
vt 20.52235000 1.13487300
vt 20.47636000 1.13552200
vt 20.47009000 1.13505900
vt 20.47009000 1.08781100
vt 20.51817000 1.13545100
vt 20.47636000 1.08708100
vt 20.47009000 1.04050300
vt 20.47636000 1.03973400
vt 20.51817000 1.08708100
vt 20.52235000 1.08781200
vt 20.51817000 1.03973000
vt 20.52235000 1.04052700
vt 20.51817000 0.99789660
vt 20.47636000 0.99790140
vt 20.47009000 0.99861260
vt 20.47009000 0.95915590
vt 20.47636000 0.95915620
vt 20.47009000 0.90897170
vt 20.52235000 0.99863810
vt 20.51817000 0.95915620
vt 20.52235000 0.95915590
vt 20.47636000 0.90866980
vt 20.51817000 0.90871190
vt 20.52235000 0.90902820
vt 20.52235000 0.86010290
vt 20.51817000 0.86006870
vt 20.52235000 0.81084480
vt 20.47636000 0.86006890
vt 20.47009000 0.86008520
vt 20.51817000 0.81102450
vt 20.47636000 0.81106750
vt 20.47009000 0.81083110
vt 20.47009000 0.76138310
vt 20.51817000 0.76138310
vt 20.52235000 0.76138310
vt 20.52235000 0.71192090
vt 20.47636000 0.76138310
vt 20.51817000 0.71174110
vt 20.52235000 0.66266300
vt 20.47636000 0.71174060
vt 20.47009000 0.71193450
vt 20.51817000 0.66269690
vt 20.52235000 0.61373770
vt 20.47636000 0.66269690
vt 20.47009000 0.66268030
vt 20.51817000 0.61405370
vt 20.52235000 0.56360950
vt 20.47636000 0.61405440
vt 20.47009000 0.61379370
vt 20.51817000 0.56360920
vt 20.52235000 0.52412690
vt 20.47636000 0.56360920
vt 20.47009000 0.56360950
vt 20.51817000 0.52487740
vt 20.52235000 0.48223840
vt 20.51817000 0.48302800
vt 20.47636000 0.52486790
vt 20.47009000 0.52415240
vt 20.47636000 0.48302750
vt 20.47009000 0.48226260
vt 20.51817000 0.43568350
vt 20.52235000 0.43495330
vt 20.52235000 0.38789150
vt 20.47636000 0.43568350
vt 20.47009000 0.43495360
vt 20.51817000 0.38731320
vt 20.52235000 0.34092030
vt 20.47636000 0.38724280
vt 20.47009000 0.38770620
vt 20.51817000 0.34113760
vt 20.52235000 0.31546820
vt 20.47636000 0.34114050
vt 20.47009000 0.34080650
vt 20.51817000 0.31546820
vt 20.52235000 0.31136960
vt 20.51817000 0.31065700
vt 20.47636000 0.31546820
vt 20.47009000 0.31546820
vt 20.47636000 0.31065700
vt 20.47009000 0.31136960
vt 20.19603000 0.67378350
vt 20.19752000 0.68006550
vt 20.20316000 0.68006550
vt 20.20240000 0.67378350
vt 20.21313000 0.68006550
vt 20.19603000 0.63190220
vt 20.21462000 0.67378350
vt 20.20240000 0.63190220
vt 20.19752000 0.62771410
vt 20.21462000 0.63190220
vt 20.20316000 0.62771410
vt 20.21313000 0.62771410
vt 20.29950000 1.18294600
vt 20.29950000 1.20826800
vt 20.30368000 1.20826800
vt 20.30368000 1.18270600
vt 20.34551000 1.20826800
vt 20.30368000 1.13671100
vt 20.29950000 1.13600700
vt 20.29950000 1.09512800
vt 20.34551000 1.18270300
vt 20.35178000 1.20826800
vt 20.35178000 1.18307300
vt 20.35178000 1.13620800
vt 20.34551000 1.13678900
vt 20.30368000 1.09585800
vt 20.29950000 1.04784600
vt 20.34551000 1.09585800
vt 20.35178000 1.09512800
vt 20.30368000 1.04850500
vt 20.34551000 1.04851000
vt 20.35178000 1.04782300
vt 20.35178000 1.00585200
vt 20.30368000 1.00655500
vt 20.29950000 1.00587600
vt 20.29950000 0.96003570
vt 20.34551000 1.00656100
vt 20.30368000 0.96003570
vt 20.29950000 0.90988350
vt 20.34551000 0.96003570
vt 20.35178000 0.96003570
vt 20.30368000 0.90957250
vt 20.34551000 0.90953080
vt 20.35178000 0.90982680
vt 20.35178000 0.86092700
vt 20.34551000 0.86091180
vt 20.35178000 0.81165660
vt 20.30368000 0.86091150
vt 20.29950000 0.86094430
vt 20.34551000 0.81189190
vt 20.30368000 0.81184920
vt 20.29950000 0.81167000
vt 20.29950000 0.76218930
vt 20.34551000 0.76218930
vt 20.35178000 0.76218930
vt 20.35178000 0.71272180
vt 20.30368000 0.76218930
vt 20.34551000 0.71248630
vt 20.35178000 0.66345170
vt 20.30368000 0.71252920
vt 20.29950000 0.71270870
vt 20.34551000 0.66346670
vt 20.35178000 0.61455160
vt 20.30368000 0.66346670
vt 20.29950000 0.66343380
vt 20.34551000 0.61484770
vt 20.35178000 0.56434250
vt 20.30368000 0.61480560
vt 20.29950000 0.61449480
vt 20.34551000 0.56434250
vt 20.35178000 0.51852600
vt 20.30368000 0.56434250
vt 20.29950000 0.56434250
vt 20.34551000 0.51782060
vt 20.35178000 0.47655480
vt 20.30368000 0.51783070
vt 20.29950000 0.51850140
vt 20.34551000 0.47586500
vt 20.35178000 0.42924970
vt 20.30368000 0.47586660
vt 20.29950000 0.47653180
vt 20.34551000 0.42851960
vt 20.35178000 0.38816900
vt 20.30368000 0.42851960
vt 20.29950000 0.42924970
vt 20.34551000 0.38758810
vt 20.35178000 0.34130450
vt 20.30368000 0.38766640
vt 20.29950000 0.38837050
vt 20.34551000 0.34167430
vt 20.35178000 0.31610890
vt 20.34551000 0.31610920
vt 20.30368000 0.34167150
vt 20.29950000 0.34143150
vt 20.30368000 0.31610920
vt 20.29950000 0.31610890
f 3/3/3 2/2/2 1/1/1
f 2/2/2 4/4/4 1/1/1
f 2/2/2 5/5/5 4/4/4
f 1/1/1 4/4/4 6/6/6
f 5/5/5 7/7/7 4/4/4
f 4/4/4 8/8/8 6/6/6
f 4/4/4 7/7/7 8/8/8
f 6/6/6 8/8/8 9/9/9
f 7/7/7 10/10/10 8/8/8
f 8/8/8 11/11/11 9/9/9
f 8/8/8 10/10/10 11/11/11
f 10/10/10 12/12/12 11/11/11
f 15/15/15 14/14/14 13/13/13
f 16/16/16 15/15/15 13/13/13
f 16/16/16 13/13/13 17/17/17
f 18/18/18 16/16/16 17/17/17
f 18/18/18 17/17/17 19/19/19
f 17/17/17 20/20/20 19/19/19
f 19/19/19 20/20/20 21/21/21
f 22/22/22 19/19/19 21/21/21
f 22/22/22 21/21/21 23/23/23
f 24/24/24 22/22/22 23/23/23
f 25/25/25 24/24/24 23/23/23
f 26/26/26 25/25/25 23/23/23
f 25/25/25 26/26/26 27/27/27
f 28/28/28 25/25/25 27/27/27
f 28/28/28 27/27/27 29/29/29
f 30/30/30 28/28/28 29/29/29
f 31/31/31 30/30/30 29/29/29
f 32/32/32 31/31/31 29/29/29
f 33/33/33 31/31/31 32/32/32
f 34/34/34 33/33/33 32/32/32
f 33/33/33 34/34/34 35/35/35
f 36/36/36 33/33/33 35/35/35
f 37/37/37 36/36/36 35/35/35
f 38/38/38 37/37/37 35/35/35
f 37/37/37 38/38/38 39/39/39
f 38/38/38 40/40/40 39/39/39
f 39/39/39 40/40/40 41/41/41
f 40/40/40 42/42/42 41/41/41
f 43/43/43 41/41/41 42/42/42
f 44/44/44 43/43/43 42/42/42
f 45/45/45 43/43/43 44/44/44
f 46/46/46 45/45/45 44/44/44
f 45/45/45 46/46/46 47/47/47
f 46/46/46 48/48/48 47/47/47
f 49/49/49 47/47/47 48/48/48
f 50/50/50 49/49/49 48/48/48
f 51/51/51 49/49/49 50/50/50
f 52/52/52 51/51/51 50/50/50
f 51/51/51 52/52/52 53/53/53
f 52/52/52 54/54/54 53/53/53
f 55/55/55 53/53/53 54/54/54
f 56/56/56 55/55/55 54/54/54
f 57/57/57 55/55/55 56/56/56
f 58/58/58 57/57/57 56/56/56
f 61/61/61 60/60/60 59/59/59
f 62/62/62 61/61/61 59/59/59
f 62/62/62 59/59/59 63/63/63
f 64/64/64 62/62/62 63/63/63
f 64/64/64 63/63/63 65/65/65
f 63/63/63 66/66/66 65/65/65
f 65/65/65 66/66/66 67/67/67
f 68/68/68 65/65/65 67/67/67
f 68/68/68 67/67/67 69/69/69
f 70/70/70 68/68/68 69/69/69
f 71/71/71 70/70/70 69/69/69
f 72/72/72 71/71/71 69/69/69
f 71/71/71 72/72/72 73/73/73
f 74/74/74 71/71/71 73/73/73
f 74/74/74 73/73/73 75/75/75
f 76/76/76 74/74/74 75/75/75
f 77/77/77 76/76/76 75/75/75
f 78/78/78 77/77/77 75/75/75
f 79/79/79 77/77/77 78/78/78
f 80/80/80 79/79/79 78/78/78
f 79/79/79 80/80/80 81/81/81
f 82/82/82 79/79/79 81/81/81
f 83/83/83 82/82/82 81/81/81
f 84/84/84 83/83/83 81/81/81
f 85/85/85 83/83/83 84/84/84
f 86/86/86 85/85/85 84/84/84
f 87/87/87 85/85/85 86/86/86
f 88/88/88 87/87/87 86/86/86
f 88/88/88 89/89/89 87/87/87
f 89/89/89 90/90/90 87/87/87
f 91/91/91 90/90/90 89/89/89
f 92/92/92 91/91/91 89/89/89
f 93/93/93 91/91/91 92/92/92
f 94/94/94 93/93/93 92/92/92
f 94/94/94 95/95/95 93/93/93
f 95/95/95 96/96/96 93/93/93
f 95/95/95 97/97/97 96/96/96
f 97/97/97 98/98/98 96/96/96
f 98/98/98 97/97/97 99/99/99
f 97/97/97 100/100/100 99/99/99
f 101/101/101 99/99/99 100/100/100
f 102/102/102 101/101/101 100/100/100
f 103/103/103 101/101/101 102/102/102
f 104/104/104 103/103/103 102/102/102
f 107/107/107 106/106/106 105/105/105
f 108/108/108 107/107/107 105/105/105
f 109/109/109 107/107/107 108/108/108
f 108/108/108 105/105/105 110/110/110
f 111/111/111 109/109/109 108/108/108
f 112/112/112 109/109/109 111/111/111
f 113/113/113 112/112/112 111/111/111
f 114/114/114 108/108/108 110/110/110
f 111/111/111 108/108/108 114/114/114
f 113/113/113 111/111/111 115/115/115
f 115/115/115 111/111/111 114/114/114
f 116/116/116 113/113/113 115/115/115
f 116/116/116 115/115/115 117/117/117
f 118/118/118 114/114/114 110/110/110
f 119/119/119 118/118/118 110/110/110
f 118/118/118 119/119/119 120/120/120
f 115/115/115 114/114/114 121/121/121
f 115/115/115 121/121/121 117/117/117
f 114/114/114 118/118/118 121/121/121
f 122/122/122 118/118/118 120/120/120
f 121/121/121 118/118/118 122/122/122
f 122/122/122 120/120/120 123/123/123
f 124/124/124 122/122/122 123/123/123
f 117/117/117 121/121/121 125/125/125
f 125/125/125 121/121/121 122/122/122
f 125/125/125 122/122/122 124/124/124
f 126/126/126 117/117/117 125/125/125
f 126/126/126 125/125/125 127/127/127
f 127/127/127 125/125/125 124/124/124
f 128/128/128 126/126/126 127/127/127
f 129/129/129 127/127/127 124/124/124
f 130/130/130 129/129/129 124/124/124
f 130/130/130 124/124/124 123/123/123
f 131/131/131 130/130/130 123/123/123
f 130/130/130 131/131/131 132/132/132
f 133/133/133 130/130/130 132/132/132
f 129/129/129 130/130/130 133/133/133
f 133/133/133 132/132/132 134/134/134
f 129/129/129 135/135/135 127/127/127
f 135/135/135 128/128/128 127/127/127
f 135/135/135 129/129/129 136/136/136
f 136/136/136 129/129/129 133/133/133
f 137/137/137 135/135/135 136/136/136
f 138/138/138 133/133/133 134/134/134
f 136/136/136 133/133/133 138/138/138
f 137/137/137 136/136/136 139/139/139
f 139/139/139 136/136/136 138/138/138
f 140/140/140 137/137/137 139/139/139
f 141/141/141 140/140/140 139/139/139
f 142/142/142 141/141/141 139/139/139
f 142/142/142 139/139/139 138/138/138
f 143/143/143 141/141/141 142/142/142
f 144/144/144 138/138/138 134/134/134
f 144/144/144 142/142/142 138/138/138
f 145/145/145 144/144/144 134/134/134
f 146/146/146 143/143/143 142/142/142
f 146/146/146 142/142/142 144/144/144
f 147/147/147 144/144/144 145/145/145
f 147/147/147 146/146/146 144/144/144
f 148/148/148 147/147/147 145/145/145
f 147/147/147 148/148/148 149/149/149
f 143/143/143 146/146/146 150/150/150
f 151/151/151 143/143/143 150/150/150
f 152/152/152 151/151/151 150/150/150
f 146/146/146 147/147/147 153/153/153
f 153/153/153 147/147/147 149/149/149
f 150/150/150 146/146/146 153/153/153
f 154/154/154 152/152/152 150/150/150
f 154/154/154 150/150/150 153/153/153
f 152/152/152 154/154/154 155/155/155
f 156/156/156 153/153/153 149/149/149
f 156/156/156 154/154/154 153/153/153
f 157/157/157 156/156/156 149/149/149
f 154/154/154 158/158/158 155/155/155
f 154/154/154 156/156/156 158/158/158
f 155/155/155 158/158/158 159/159/159
f 156/156/156 157/157/157 160/160/160
f 156/156/156 160/160/160 158/158/158
f 157/157/157 161/161/161 160/160/160
f 158/158/158 162/162/162 159/159/159
f 158/158/158 160/160/160 162/162/162
f 163/163/163 159/159/159 162/162/162
f 160/160/160 161/161/161 164/164/164
f 160/160/160 164/164/164 162/162/162
f 161/161/161 165/165/165 164/164/164
f 166/166/166 163/163/163 162/162/162
f 166/166/166 162/162/162 164/164/164
f 167/167/167 163/163/163 166/166/166
f 168/168/168 164/164/164 165/165/165
f 168/168/168 166/166/166 164/164/164
f 169/169/169 168/168/168 165/165/165
f 170/170/170 167/167/167 166/166/166
f 170/170/170 166/166/166 168/168/168
f 167/167/167 170/170/170 171/171/171
f 170/170/170 172/172/172 171/171/171
f 173/173/173 168/168/168 169/169/169
f 173/173/173 170/170/170 168/168/168
f 170/170/170 173/173/173 172/172/172
f 174/174/174 173/173/173 169/169/169
f 173/173/173 174/174/174 175/175/175
f 173/173/173 175/175/175 172/172/172
f 174/174/174 176/176/176 175/175/175
f 177/177/177 172/172/172 175/175/175
f 177/177/177 178/178/178 172/172/172
f 178/178/178 171/171/171 172/172/172
f 179/179/179 178/178/178 177/177/177
f 180/180/180 177/177/177 175/175/175
f 180/180/180 175/175/175 176/176/176
f 181/181/181 180/180/180 176/176/176
f 182/182/182 179/179/179 177/177/177
f 182/182/182 177/177/177 180/180/180
f 179/179/179 182/182/182 183/183/183
f 184/184/184 180/180/180 181/181/181
f 184/184/184 182/182/182 180/180/180
f 185/185/185 184/184/184 181/181/181
f 182/182/182 186/186/186 183/183/183
f 182/182/182 184/184/184 186/186/186
f 187/187/187 183/183/183 186/186/186
f 188/188/188 184/184/184 185/185/185
f 184/184/184 188/188/188 186/186/186
f 189/189/189 188/188/188 185/185/185
f 190/190/190 187/187/187 186/186/186
f 190/190/190 186/186/186 188/188/188
f 191/191/191 187/187/187 190/190/190
f 192/192/192 191/191/191 190/190/190
f 193/193/193 188/188/188 189/189/189
f 193/193/193 190/190/190 188/188/188
f 192/192/192 190/190/190 193/193/193
f 194/194/194 193/193/193 189/189/189
f 195/195/195 192/192/192 193/193/193
f 195/195/195 193/193/193 194/194/194
f 196/196/196 195/195/195 194/194/194
f 199/199/199 198/198/198 197/197/197
f 200/200/200 199/199/199 197/197/197
f 201/201/201 199/199/199 200/200/200
f 200/200/200 197/197/197 202/202/202
f 203/203/203 201/201/201 200/200/200
f 204/204/204 200/200/200 202/202/202
f 203/203/203 200/200/200 204/204/204
f 204/204/204 202/202/202 205/205/205
f 206/206/206 203/203/203 204/204/204
f 207/207/207 204/204/204 205/205/205
f 206/206/206 204/204/204 207/207/207
f 208/208/208 206/206/206 207/207/207
f 211/211/211 210/210/210 209/209/209
f 212/212/212 211/211/211 209/209/209
f 213/213/213 211/211/211 212/212/212
f 214/214/214 212/212/212 209/209/209
f 215/215/215 214/214/214 209/209/209
f 214/214/214 215/215/215 216/216/216
f 217/217/217 213/213/213 212/212/212
f 218/218/218 213/213/213 217/217/217
f 219/219/219 218/218/218 217/217/217
f 219/219/219 217/217/217 220/220/220
f 217/217/217 212/212/212 221/221/221
f 212/212/212 214/214/214 221/221/221
f 217/217/217 221/221/221 220/220/220
f 222/222/222 214/214/214 216/216/216
f 221/221/221 214/214/214 222/222/222
f 222/222/222 216/216/216 223/223/223
f 220/220/220 221/221/221 224/224/224
f 224/224/224 221/221/221 222/222/222
f 225/225/225 220/220/220 224/224/224
f 226/226/226 222/222/222 223/223/223
f 224/224/224 222/222/222 226/226/226
f 225/225/225 224/224/224 227/227/227
f 227/227/227 224/224/224 226/226/226
f 228/228/228 225/225/225 227/227/227
f 228/228/228 227/227/227 229/229/229
f 230/230/230 226/226/226 223/223/223
f 231/231/231 230/230/230 223/223/223
f 230/230/230 231/231/231 232/232/232
f 233/233/233 227/227/227 226/226/226
f 227/227/227 233/233/233 229/229/229
f 230/230/230 233/233/233 226/226/226
f 234/234/234 230/230/230 232/232/232
f 233/233/233 230/230/230 234/234/234
f 234/234/234 232/232/232 235/235/235
f 229/229/229 233/233/233 236/236/236
f 236/236/236 233/233/233 234/234/234
f 237/237/237 229/229/229 236/236/236
f 238/238/238 234/234/234 235/235/235
f 236/236/236 234/234/234 238/238/238
f 237/237/237 236/236/236 239/239/239
f 239/239/239 236/236/236 238/238/238
f 240/240/240 237/237/237 239/239/239
f 241/241/241 240/240/240 239/239/239
f 242/242/242 241/241/241 239/239/239
f 239/239/239 238/238/238 242/242/242
f 243/243/243 241/241/241 242/242/242
f 244/244/244 238/238/238 235/235/235
f 238/238/238 244/244/244 242/242/242
f 245/245/245 244/244/244 235/235/235
f 246/246/246 243/243/243 242/242/242
f 242/242/242 244/244/244 246/246/246
f 247/247/247 244/244/244 245/245/245
f 244/244/244 247/247/247 246/246/246
f 248/248/248 247/247/247 245/245/245
f 247/247/247 248/248/248 249/249/249
f 243/243/243 246/246/246 250/250/250
f 251/251/251 243/243/243 250/250/250
f 252/252/252 251/251/251 250/250/250
f 246/246/246 247/247/247 253/253/253
f 253/253/253 247/247/247 249/249/249
f 250/250/250 246/246/246 253/253/253
f 254/254/254 252/252/252 250/250/250
f 254/254/254 250/250/250 253/253/253
f 252/252/252 254/254/254 255/255/255
f 256/256/256 253/253/253 249/249/249
f 256/256/256 254/254/254 253/253/253
f 257/257/257 256/256/256 249/249/249
f 254/254/254 258/258/258 255/255/255
f 254/254/254 256/256/256 258/258/258
f 255/255/255 258/258/258 259/259/259
f 256/256/256 257/257/257 260/260/260
f 256/256/256 260/260/260 258/258/258
f 257/257/257 261/261/261 260/260/260
f 258/258/258 262/262/262 259/259/259
f 258/258/258 260/260/260 262/262/262
f 263/263/263 259/259/259 262/262/262
f 260/260/260 261/261/261 264/264/264
f 260/260/260 264/264/264 262/262/262
f 261/261/261 265/265/265 264/264/264
f 266/266/266 263/263/263 262/262/262
f 266/266/266 262/262/262 264/264/264
f 267/267/267 263/263/263 266/266/266
f 268/268/268 264/264/264 265/265/265
f 268/268/268 266/266/266 264/264/264
f 269/269/269 268/268/268 265/265/265
f 270/270/270 267/267/267 266/266/266
f 270/270/270 266/266/266 268/268/268
f 267/267/267 270/270/270 271/271/271
f 272/272/272 268/268/268 269/269/269
f 272/272/272 270/270/270 268/268/268
f 273/273/273 272/272/272 269/269/269
f 270/270/270 274/274/274 271/271/271
f 270/270/270 272/272/272 274/274/274
f 275/275/275 271/271/271 274/274/274
f 272/272/272 273/273/273 276/276/276
f 272/272/272 276/276/276 274/274/274
f 273/273/273 277/277/277 276/276/276
f 278/278/278 275/275/275 274/274/274
f 278/278/278 274/274/274 276/276/276
f 279/279/279 275/275/275 278/278/278
f 280/280/280 276/276/276 277/277/277
f 280/280/280 278/278/278 276/276/276
f 281/281/281 280/280/280 277/277/277
f 282/282/282 279/279/279 278/278/278
f 282/282/282 278/278/278 280/280/280
f 279/279/279 282/282/282 283/283/283
f 284/284/284 280/280/280 281/281/281
f 284/284/284 282/282/282 280/280/280
f 285/285/285 284/284/284 281/281/281
f 282/282/282 286/286/286 283/283/283
f 282/282/282 284/284/284 286/286/286
f 287/287/287 283/283/283 286/286/286
f 288/288/288 287/287/287 286/286/286
f 289/289/289 284/284/284 285/285/285
f 284/284/284 289/289/289 286/286/286
f 288/288/288 286/286/286 289/289/289
f 290/290/290 289/289/289 285/285/285
f 291/291/291 288/288/288 289/289/289
f 291/291/291 289/289/289 290/290/290
f 292/292/292 291/291/291 290/290/290

