# Blender 3.6.0
# www.blender.org
o DoorFrame_3a4c68aa_DoorFrame_3a4c68aa
v -0.220750 1.995210 2.525010
v -0.220750 0.000000 2.525010
v -0.223520 0.002800 2.526800
v -0.223520 1.998010 2.526810
v 0.620750 0.000000 2.525010
v 0.620750 1.995210 2.525010
v 0.623530 1.998010 2.526810
v 0.623530 0.002800 2.526800
v 0.617980 1.998010 2.525010
v -0.217970 1.998010 2.525010
v -0.220750 2.000800 2.526810
v 0.620760 2.000800 2.526810
v 0.620750 2.037960 2.525010
v 0.657580 2.037960 2.375010
v 0.657580 2.037960 2.525010
v 0.620750 2.037960 2.375010
v -0.220750 2.037960 2.525010
v -0.220750 2.037960 2.375010
v -0.257570 2.037960 2.525010
v -0.257570 2.037960 2.375010
v -0.260340 1.998010 2.525010
v -0.260340 2.035170 2.525010
v -0.257570 2.032370 2.526800
v -0.257570 1.998010 2.526800
v -0.257570 0.002800 2.526800
v -0.260340 0.000000 2.525010
v -0.257570 2.037960 2.525010
v -0.220750 2.035170 2.526800
v -0.254800 2.035170 2.526800
v -0.220750 2.037960 2.525010
v 0.620750 2.037960 2.525010
v 0.620750 2.035170 2.526800
v 0.654810 2.035170 2.526800
v 0.657580 2.037960 2.525010
v 0.660360 2.035170 2.525010
v 0.657580 1.998010 2.526800
v 0.657580 2.032370 2.526800
v 0.660360 1.998010 2.525010
v 0.660360 0.000000 2.525010
v 0.657580 0.002800 2.526800
v -0.220750 2.037960 2.375010
v -0.257570 2.037960 2.375010
v -0.254800 2.035170 2.373210
v -0.220750 2.035170 2.373210
v 0.620750 2.035170 2.373210
v 0.620750 2.037960 2.375010
v 0.657580 2.037960 2.375010
v 0.654810 2.035170 2.373210
v -0.260340 2.035170 2.375010
v -0.257570 1.998010 2.373210
v -0.257570 2.032370 2.373210
v -0.260340 1.998010 2.375010
v -0.260340 0.000000 2.375010
v -0.257570 0.002800 2.373210
v -0.220750 0.000000 2.375010
v -0.220750 1.995210 2.375010
v -0.223520 1.998010 2.373210
v -0.223520 0.002800 2.373210
v -0.217970 1.998010 2.375010
v 0.617980 1.998010 2.375010
v 0.620760 2.000800 2.373210
v -0.220750 2.000800 2.373210
v 0.620750 1.995210 2.375010
v 0.620750 0.000000 2.375010
v 0.623530 0.002800 2.373210
v 0.623530 1.998010 2.373210
v 0.660360 1.998010 2.375010
v 0.660360 2.035170 2.375010
v 0.657580 2.032370 2.373210
v 0.657580 1.998010 2.373210
v 0.657580 0.002800 2.373210
v 0.660360 0.000000 2.375010
v -0.260340 0.000000 2.525010
v -0.260340 0.000000 2.375010
v -0.260340 1.998010 2.375010
v -0.260340 1.998010 2.525010
v -0.260340 2.035170 2.525010
v -0.260340 2.035170 2.375010
v -0.254800 2.035170 2.373210
v -0.257570 2.032370 2.373210
v -0.257570 1.998010 2.373210
v -0.226280 2.000580 2.373210
v -0.257570 0.002800 2.373210
v -0.223520 1.998010 2.373210
v -0.223520 0.002800 2.373210
v -0.220750 2.000800 2.373210
v -0.223290 2.003590 2.373210
v -0.220750 2.035170 2.373210
v 0.620750 2.035170 2.373210
v 0.620760 2.000800 2.373210
v 0.623300 2.003590 2.373210
v 0.623530 1.998010 2.373210
v 0.626290 2.000580 2.373210
v 0.654810 2.035170 2.373210
v 0.657580 2.032370 2.373210
v 0.623530 0.002800 2.373210
v 0.657580 1.998010 2.373210
v 0.657580 0.002800 2.373210
v 0.620750 1.995210 2.525010
v 0.620750 0.000000 2.525010
v 0.620750 0.000000 2.375010
v 0.620750 1.995210 2.375010
v -0.257570 1.998010 2.526800
v -0.257570 2.032370 2.526800
v -0.254800 2.035170 2.526800
v -0.226280 2.000580 2.526810
v -0.257570 0.002800 2.526800
v -0.223520 0.002800 2.526800
v -0.223520 1.998010 2.526810
v -0.223290 2.003590 2.526810
v -0.220750 2.000800 2.526810
v -0.220750 2.035170 2.526800
v 0.620760 2.000800 2.526810
v 0.620750 2.035170 2.526800
v 0.623300 2.003590 2.526810
v 0.626290 2.000580 2.526810
v 0.623530 1.998010 2.526810
v 0.623530 0.002800 2.526800
v 0.657580 0.002800 2.526800
v 0.654810 2.035170 2.526800
v 0.657580 1.998010 2.526800
v 0.657580 2.032370 2.526800
v 0.660360 0.000000 2.375010
v 0.660360 0.000000 2.525010
v 0.660360 1.998010 2.525010
v 0.660360 1.998010 2.375010
v 0.660360 2.035170 2.375010
v 0.660360 2.035170 2.525010
v -0.220750 0.000000 2.375010
v -0.260340 0.000000 2.375010
v -0.260340 0.000000 2.525010
v -0.220750 0.000000 2.525010
v 0.620750 0.000000 2.525010
v 0.660360 0.000000 2.525010
v 0.660360 0.000000 2.375010
v 0.620750 0.000000 2.375010
v -0.220750 1.995210 2.375010
v -0.220750 0.000000 2.375010
v -0.220750 0.000000 2.525010
v -0.220750 1.995210 2.525010
v 0.660360 0.000000 2.375010
v 0.657580 0.002800 2.373210
v 0.623530 0.002800 2.373210
v 0.620750 0.000000 2.375010
v -0.220750 0.000000 2.375010
v -0.223520 0.002800 2.373210
v -0.257570 0.002800 2.373210
v -0.260340 0.000000 2.375010
v -0.217970 1.998010 2.525010
v 0.617980 1.998010 2.525010
v 0.617980 1.998010 2.375010
v -0.217970 1.998010 2.375010
v -0.260340 0.000000 2.525010
v -0.257570 0.002800 2.526800
v -0.223520 0.002800 2.526800
v -0.220750 0.000000 2.525010
v 0.620750 0.000000 2.525010
v 0.623530 0.002800 2.526800
v 0.657580 0.002800 2.526800
v 0.660360 0.000000 2.525010
v 0.660360 2.035170 2.525010
v 0.657580 2.037960 2.525010
v 0.657580 2.037960 2.375010
v 0.660360 2.035170 2.375010
v -0.260340 2.035170 2.375010
v -0.257570 2.037960 2.375010
v -0.257570 2.037960 2.525010
v -0.260340 2.035170 2.525010
v -0.217970 1.998010 2.375010
v -0.220750 1.995210 2.375010
v -0.220750 1.995210 2.525010
v -0.217970 1.998010 2.525010
v 0.617980 1.998010 2.525010
v 0.620750 1.995210 2.525010
v 0.620750 1.995210 2.375010
v 0.617980 1.998010 2.375010
v 0.654810 2.035170 2.373210
v 0.657580 2.032370 2.373210
v 0.660360 2.035170 2.375010
v 0.657580 2.037960 2.375010
v 0.623530 1.998010 2.373210
v 0.620760 2.000800 2.373210
v 0.617980 1.998010 2.375010
v 0.620750 1.995210 2.375010
v -0.220750 2.000800 2.373210
v -0.223520 1.998010 2.373210
v -0.220750 1.995210 2.375010
v -0.217970 1.998010 2.375010
v -0.257570 2.032370 2.373210
v -0.254800 2.035170 2.373210
v -0.257570 2.037960 2.375010
v -0.260340 2.035170 2.375010
v 0.657580 2.032370 2.526800
v 0.654810 2.035170 2.526800
v 0.657580 2.037960 2.525010
v 0.660360 2.035170 2.525010
v -0.254800 2.035170 2.526800
v -0.257570 2.032370 2.526800
v -0.260340 2.035170 2.525010
v -0.257570 2.037960 2.525010
v -0.223520 1.998010 2.526810
v -0.220750 2.000800 2.526810
v -0.217970 1.998010 2.525010
v -0.220750 1.995210 2.525010
v 0.620760 2.000800 2.526810
v 0.623530 1.998010 2.526810
v 0.620750 1.995210 2.525010
v 0.617980 1.998010 2.525010
vn 0.5428 -0.0000 0.8399
vn 0.5448 -0.0000 0.8386
vn -0.5434 -0.0000 0.8395
vn -0.5414 -0.0000 0.8408
vn -0.0000 -0.5421 0.8403
vn -0.0000 -0.5420 0.8404
vn -0.0000 1.0000 -0.0000
vn -0.5427 -0.0000 0.8399
vn -0.0000 0.5399 0.8417
vn 0.5412 -0.0000 0.8409
vn 0.5414 -0.0000 0.8408
vn 0.5413 -0.0000 0.8409
vn 0.5413 -0.0000 0.8408
vn -0.0000 0.5421 -0.8403
vn -0.0000 0.5422 -0.8403
vn -0.5449 -0.0000 -0.8385
vn -0.5448 -0.0000 -0.8386
vn 0.5449 -0.0000 -0.8385
vn 0.5448 -0.0000 -0.8386
vn -0.0000 -0.5422 -0.8403
vn -0.0000 -0.5421 -0.8403
vn -0.5434 -0.0000 -0.8395
vn -0.5435 -0.0000 -0.8394
vn 0.5436 -0.0000 -0.8393
vn 0.5434 -0.0000 -0.8394
vn 0.5435 -0.0000 -0.8394
vn -1.0000 -0.0000 -0.0000
vn -0.0000 -0.0000 -1.0000
vn -0.0001 -0.0000 -1.0000
vn -0.0001 0.0001 1.0000
vn -0.0000 -0.0000 1.0000
vn -0.0003 -0.0000 1.0000
vn -0.0002 -0.0000 1.0000
vn -0.0001 -0.0000 1.0000
vn 0.0001 0.0002 1.0000
vn -0.0000 0.0003 1.0000
vn -0.0001 0.0002 1.0000
vn -0.0000 0.0002 1.0000
vn 0.0002 0.0001 1.0000
vn 0.0001 -0.0000 1.0000
vn 0.0001 0.0001 1.0000
vn 0.0003 -0.0000 1.0000
vn 1.0000 -0.0000 -0.0000
vn -0.0000 -1.0000 -0.0000
vn -0.0000 -0.5408 -0.8412
vn -0.0000 -0.5386 0.8426
vn 0.7084 0.7058 -0.0000
vn -0.7096 0.7046 -0.0000
vn 0.7096 -0.7046 -0.0000
vn -0.7109 -0.7033 -0.0000
vn 0.2949 0.2929 -0.9095
vn 0.2950 0.2919 -0.9098
vn 0.2950 0.2928 -0.9095
vn 0.2949 0.2938 -0.9092
vn -0.2950 -0.2924 -0.9097
vn -0.2950 -0.2929 -0.9095
vn -0.2950 -0.2924 -0.9096
vn -0.2951 -0.2919 -0.9098
vn 0.2950 -0.2929 -0.9095
vn -0.2954 0.2928 -0.9094
vn -0.2959 0.2928 -0.9092
vn -0.2955 0.2928 -0.9094
vn -0.2950 0.2929 -0.9095
vn 0.2935 0.2915 0.9104
vn 0.2946 0.2914 0.9101
vn 0.2937 0.2915 0.9104
vn 0.2926 0.2916 0.9107
vn -0.2941 0.2915 0.9102
vn -0.2941 0.2910 0.9104
vn -0.2941 0.2914 0.9103
vn -0.2941 0.2919 0.9101
vn 0.2949 -0.2929 0.9095
vn 0.2950 -0.2929 0.9095
vn -0.2950 -0.2924 0.9097
vn -0.2946 -0.2924 0.9098
vn -0.2949 -0.2924 0.9097
vn -0.2953 -0.2924 0.9096
vt 2.471125 0.691684
vt 2.474748 0.688061
vt 2.474748 2.507945
vt 2.471125 2.511568
vt 3.833223 2.511556
vt 3.829600 2.507932
vt 3.829600 0.688073
vt 3.833223 0.691697
vt 2.763019 3.181256
vt 2.766613 3.177655
vt 3.537735 3.177655
vt 3.541329 3.181256
vt 0.403544 3.574302
vt 0.403544 3.382219
vt 0.432303 3.574302
vt 0.432303 3.382219
vt 1.089436 3.574302
vt 1.089436 3.382219
vt 1.118196 3.574302
vt 1.118196 3.382219
vt 2.417389 2.553092
vt 2.413764 2.556635
vt 2.413764 2.522729
vt 2.417389 2.522729
vt 2.417389 0.703442
vt 2.413764 0.699818
vt 2.733074 3.234478
vt 2.763562 3.234478
vt 2.729547 3.238083
vt 2.763562 3.238083
vt 3.540786 3.238083
vt 3.540786 3.234478
vt 3.571274 3.234478
vt 3.574801 3.238083
vt 3.886959 2.553042
vt 3.886959 2.522681
vt 3.890584 2.556585
vt 3.890584 2.522681
vt 3.890584 0.699868
vt 3.886959 0.703492
vt 1.614730 3.234478
vt 1.618257 3.238083
vt 1.584243 3.238083
vt 1.584243 3.234478
vt 0.807061 3.234478
vt 0.807061 3.238083
vt 0.773048 3.238083
vt 0.776574 3.234478
vt 1.930438 2.553088
vt 1.930438 2.522725
vt 1.934063 2.556632
vt 1.934063 2.522725
vt 1.934063 0.699821
vt 1.930438 0.703446
vt 1.876701 2.511539
vt 1.873078 2.507915
vt 1.873078 0.688091
vt 1.876701 0.691714
vt 0.806500 3.181256
vt 0.810094 3.177655
vt 1.581210 3.177655
vt 1.584804 3.181256
vt 0.514602 0.691689
vt 0.518226 0.688066
vt 0.518226 2.507939
vt 0.514602 2.511563
vt 0.460867 2.553112
vt 0.457242 2.556656
vt 0.457242 2.522748
vt 0.460867 2.522748
vt 0.460867 0.703422
vt 0.457242 0.699797
vt 0.120505 2.387171
vt 0.120505 0.840514
vt 0.314278 0.840514
vt 0.314278 2.387171
vt 0.314278 2.415939
vt 0.120505 2.415939
vt 1.672423 2.635304
vt 1.672423 2.669462
vt 1.669617 2.672242
vt 1.641909 2.639050
vt 1.672423 0.588628
vt 1.639215 2.636511
vt 1.639215 0.588628
vt 1.636312 2.639381
vt 1.638885 2.642047
vt 1.635137 2.672242
vt 0.756167 2.672242
vt 0.754992 2.639381
vt 0.752420 2.642047
vt 0.752089 2.636511
vt 0.749395 2.639050
vt 0.721688 2.672242
vt 0.718881 2.669462
vt 0.752089 0.588628
vt 0.718881 2.635304
vt 0.718881 0.588628
vt 4.034503 0.848252
vt 4.226367 0.848252
vt 4.226367 2.408112
vt 4.034503 2.408112
vt 2.678208 2.672245
vt 2.675402 2.669465
vt 2.675402 2.635307
vt 2.705915 2.639054
vt 2.675402 0.588625
vt 2.708610 0.588625
vt 2.708610 2.636514
vt 2.708941 2.642051
vt 2.711513 2.639385
vt 2.712687 2.672245
vt 3.592835 2.639385
vt 3.591660 2.672245
vt 3.595407 2.642051
vt 3.598433 2.639054
vt 3.595738 2.636514
vt 3.595738 0.588625
vt 3.628946 0.588625
vt 3.626140 2.672245
vt 3.628946 2.635307
vt 3.628946 2.669465
vt 2.077027 2.387171
vt 2.077027 0.840515
vt 2.270800 0.840515
vt 2.270800 2.387171
vt 2.270800 2.415939
vt 2.077027 2.415939
vt 4.865216 0.709094
vt 4.865216 0.595254
vt 4.917393 0.595254
vt 4.917393 0.709094
vt 4.917393 0.160470
vt 4.917393 0.274313
vt 4.865216 0.274313
vt 4.865216 0.160470
vt 4.469285 0.848253
vt 4.661150 0.848253
vt 4.661150 2.408112
vt 4.469285 2.408112
vt 0.502639 0.026420
vt 0.472830 0.026420
vt 0.469170 0.022760
vt 0.506299 0.022760
vt 1.918474 0.026420
vt 1.888666 0.026420
vt 1.885005 0.022760
vt 1.922135 0.022760
vt 2.489274 3.378856
vt 2.489274 3.577665
vt 1.858552 3.577665
vt 1.858552 3.378856
vt 2.459160 0.026420
vt 2.429353 0.026420
vt 2.425693 0.022760
vt 2.462820 0.022760
vt 3.874995 0.026420
vt 3.845188 0.026420
vt 3.841528 0.022760
vt 3.878655 0.022760
vt 0.021623 3.175402
vt 0.021623 3.781119
vt 0.020648 3.781119
vt 0.020648 3.175402
vt 1.500117 3.781146
vt 1.500117 3.175375
vt 1.501091 3.175375
vt 1.501091 3.781146
vt 4.264090 3.238926
vt 4.866345 3.238926
vt 4.866345 3.239906
vt 4.264090 3.239906
vt 3.829136 3.238926
vt 4.431732 3.238926
vt 4.431732 3.239907
vt 3.829136 3.239907
vt 0.458247 3.234622
vt 0.461761 3.231187
vt 0.464180 3.233583
vt 0.460742 3.237098
vt 0.521616 3.176733
vt 0.518144 3.180211
vt 0.515667 3.177762
vt 0.519146 3.174284
vt 1.872160 3.174296
vt 1.875624 3.177760
vt 1.873158 3.180199
vt 1.869701 3.176734
vt 1.930565 3.237114
vt 1.927107 3.233579
vt 1.929541 3.231170
vt 1.933076 3.234625
vt 3.887086 3.237110
vt 3.883633 3.233581
vt 3.886063 3.231174
vt 3.889592 3.234625
vt 2.414772 3.234622
vt 2.418282 3.231190
vt 2.420698 3.233583
vt 2.417265 3.237094
vt 2.478140 3.176732
vt 2.474666 3.180213
vt 2.472187 3.177763
vt 2.475668 3.174282
vt 3.828682 3.174297
vt 3.832146 3.177760
vt 3.829680 3.180198
vt 3.826223 3.176735
s 1
f 3/1/1 2/2/1 1/3/2
f 4/4/2 3/1/1 1/3/2
f 7/5/3 6/6/3 5/7/4
f 8/8/4 7/5/3 5/7/4
f 11/9/5 10/10/5 9/11/6
f 12/12/6 11/9/5 9/11/6
f 15/13/7 14/14/7 13/15/7
f 14/14/7 16/16/7 13/15/7
f 13/15/7 16/16/7 17/17/7
f 16/16/7 18/18/7 17/17/7
f 19/19/7 17/17/7 18/18/7
f 20/20/7 19/19/7 18/18/7
f 23/21/8 22/22/8 21/23/8
f 24/24/8 23/21/8 21/23/8
f 25/25/8 24/24/8 21/23/8
f 26/26/8 25/25/8 21/23/8
f 29/27/9 28/28/9 27/29/9
f 28/28/9 30/30/9 27/29/9
f 30/30/9 28/28/9 31/31/9
f 28/28/9 32/32/9 31/31/9
f 32/32/9 33/33/9 31/31/9
f 33/33/9 34/34/9 31/31/9
f 37/35/10 36/36/11 35/37/12
f 36/36/11 38/38/11 35/37/12
f 38/38/11 36/36/11 39/39/13
f 36/36/11 40/40/13 39/39/13
f 43/41/14 42/42/14 41/43/15
f 44/44/15 43/41/14 41/43/15
f 45/45/14 44/44/15 41/43/15
f 46/46/14 45/45/14 41/43/15
f 45/45/14 46/46/14 47/47/14
f 48/48/14 45/45/14 47/47/14
f 51/49/16 50/50/16 49/51/16
f 50/50/16 52/52/16 49/51/16
f 52/52/16 50/50/16 53/53/17
f 50/50/16 54/54/17 53/53/17
f 57/55/18 56/56/18 55/57/19
f 58/58/19 57/55/18 55/57/19
f 61/59/20 60/60/20 59/61/21
f 62/62/21 61/59/20 59/61/21
f 65/63/22 64/64/22 63/65/23
f 66/66/23 65/63/22 63/65/23
f 69/67/24 68/68/24 67/69/25
f 70/70/25 69/67/24 67/69/25
f 71/71/26 70/70/25 67/69/25
f 72/72/26 71/71/26 67/69/25
f 75/73/27 74/74/27 73/75/27
f 76/76/27 75/73/27 73/75/27
f 75/73/27 76/76/27 77/77/27
f 78/78/27 75/73/27 77/77/27
f 81/79/28 80/80/28 79/81/28
f 82/82/28 81/79/28 79/81/28
f 83/83/28 81/79/28 82/82/28
f 83/83/28 82/82/28 84/84/28
f 84/84/28 85/85/28 83/83/28
f 86/86/28 84/84/28 82/82/28
f 87/87/29 82/82/28 79/81/28
f 87/87/29 86/86/28 82/82/28
f 79/81/28 88/88/28 87/87/29
f 86/86/28 87/87/29 88/88/28
f 86/86/28 88/88/28 89/89/28
f 90/90/28 86/86/28 89/89/28
f 89/89/28 91/91/28 90/90/28
f 90/90/28 91/91/28 92/92/28
f 93/93/28 91/91/28 89/89/28
f 91/91/28 93/93/28 92/92/28
f 93/93/28 89/89/28 94/94/28
f 93/93/28 94/94/28 95/95/28
f 96/96/28 92/92/28 93/93/28
f 95/95/28 97/97/28 93/93/28
f 96/96/28 93/93/28 97/97/28
f 97/97/28 98/98/28 96/96/28
f 101/99/27 100/100/27 99/101/27
f 102/102/27 101/99/27 99/101/27
f 105/103/30 104/104/31 103/105/32
f 105/103/30 103/105/32 106/106/33
f 106/106/33 103/105/32 107/107/31
f 106/106/33 107/107/31 108/108/31
f 108/108/31 109/109/34 106/106/33
f 105/103/30 106/106/33 110/110/35
f 110/110/35 106/106/33 109/109/34
f 111/111/35 110/110/35 109/109/34
f 110/110/35 112/112/36 105/103/30
f 112/112/36 110/110/35 111/111/35
f 112/112/36 111/111/35 113/113/37
f 114/114/36 112/112/36 113/113/37
f 113/113/37 115/115/38 114/114/36
f 114/114/36 115/115/38 116/116/39
f 115/115/38 113/113/37 116/116/39
f 113/113/37 117/117/40 116/116/39
f 116/116/39 117/117/40 118/118/31
f 116/116/39 118/118/31 119/119/31
f 120/120/41 114/114/36 116/116/39
f 119/119/31 121/121/42 116/116/39
f 120/120/41 116/116/39 121/121/42
f 121/121/42 122/122/40 120/120/41
f 125/123/43 124/124/43 123/125/43
f 126/126/43 125/123/43 123/125/43
f 126/126/43 127/127/43 125/123/43
f 127/127/43 128/128/43 125/123/43
f 131/129/44 130/130/44 129/131/44
f 132/132/44 131/129/44 129/131/44
f 135/133/44 134/134/44 133/135/44
f 136/136/44 135/133/44 133/135/44
f 139/137/43 138/138/43 137/139/43
f 140/140/43 139/137/43 137/139/43
f 143/141/45 142/142/45 141/143/45
f 144/144/45 143/141/45 141/143/45
f 147/145/45 146/146/45 145/147/45
f 148/148/45 147/145/45 145/147/45
f 151/149/44 150/150/44 149/151/44
f 152/152/44 151/149/44 149/151/44
f 155/153/46 154/154/46 153/155/46
f 156/156/46 155/153/46 153/155/46
f 159/157/46 158/158/46 157/159/46
f 160/160/46 159/157/46 157/159/46
f 163/161/47 162/162/47 161/163/47
f 164/164/47 163/161/47 161/163/47
f 167/165/48 166/166/48 165/167/48
f 168/168/48 167/165/48 165/167/48
f 171/169/49 170/170/49 169/171/49
f 172/172/49 171/169/49 169/171/49
f 175/173/50 174/174/50 173/175/50
f 176/176/50 175/173/50 173/175/50
f 179/177/51 178/178/52 177/179/53
f 180/180/54 179/177/51 177/179/53
f 183/181/55 182/182/56 181/183/57
f 184/184/58 183/181/55 181/183/57
f 187/185/59 186/186/59 185/187/59
f 188/188/59 187/185/59 185/187/59
f 191/189/60 190/190/61 189/191/62
f 192/192/63 191/189/60 189/191/62
f 195/193/64 194/194/65 193/195/66
f 196/196/67 195/193/64 193/195/66
f 199/197/68 198/198/69 197/199/70
f 200/200/71 199/197/68 197/199/70
f 203/201/72 202/202/73 201/203/72
f 204/204/72 203/201/72 201/203/72
f 207/205/74 206/206/75 205/207/76
f 208/208/77 207/205/74 205/207/76
f 3/1/1 2/2/1 1/3/2
f 4/4/2 3/1/1 1/3/2
f 7/5/3 6/6/3 5/7/4
f 8/8/4 7/5/3 5/7/4
f 11/9/5 10/10/5 9/11/6
f 12/12/6 11/9/5 9/11/6
f 15/13/7 14/14/7 13/15/7
f 14/14/7 16/16/7 13/15/7
f 13/15/7 16/16/7 17/17/7
f 16/16/7 18/18/7 17/17/7
f 19/19/7 17/17/7 18/18/7
f 20/20/7 19/19/7 18/18/7
f 23/21/8 22/22/8 21/23/8
f 24/24/8 23/21/8 21/23/8
f 25/25/8 24/24/8 21/23/8
f 26/26/8 25/25/8 21/23/8
f 29/27/9 28/28/9 27/29/9
f 28/28/9 30/30/9 27/29/9
f 30/30/9 28/28/9 31/31/9
f 28/28/9 32/32/9 31/31/9
f 32/32/9 33/33/9 31/31/9
f 33/33/9 34/34/9 31/31/9
f 37/35/10 36/36/11 35/37/12
f 36/36/11 38/38/11 35/37/12
f 38/38/11 36/36/11 39/39/13
f 36/36/11 40/40/13 39/39/13
f 43/41/14 42/42/14 41/43/15
f 44/44/15 43/41/14 41/43/15
f 45/45/14 44/44/15 41/43/15
f 46/46/14 45/45/14 41/43/15
f 45/45/14 46/46/14 47/47/14
f 48/48/14 45/45/14 47/47/14
f 51/49/16 50/50/16 49/51/16
f 50/50/16 52/52/16 49/51/16
f 52/52/16 50/50/16 53/53/17
f 50/50/16 54/54/17 53/53/17
f 57/55/18 56/56/18 55/57/19
f 58/58/19 57/55/18 55/57/19
f 61/59/20 60/60/20 59/61/21
f 62/62/21 61/59/20 59/61/21
f 65/63/22 64/64/22 63/65/23
f 66/66/23 65/63/22 63/65/23
f 69/67/24 68/68/24 67/69/25
f 70/70/25 69/67/24 67/69/25
f 71/71/26 70/70/25 67/69/25
f 72/72/26 71/71/26 67/69/25
f 75/73/27 74/74/27 73/75/27
f 76/76/27 75/73/27 73/75/27
f 75/73/27 76/76/27 77/77/27
f 78/78/27 75/73/27 77/77/27
f 81/79/28 80/80/28 79/81/28
f 82/82/28 81/79/28 79/81/28
f 83/83/28 81/79/28 82/82/28
f 83/83/28 82/82/28 84/84/28
f 84/84/28 85/85/28 83/83/28
f 86/86/28 84/84/28 82/82/28
f 87/87/29 82/82/28 79/81/28
f 87/87/29 86/86/28 82/82/28
f 79/81/28 88/88/28 87/87/29
f 86/86/28 87/87/29 88/88/28
f 86/86/28 88/88/28 89/89/28
f 90/90/28 86/86/28 89/89/28
f 89/89/28 91/91/28 90/90/28
f 90/90/28 91/91/28 92/92/28
f 93/93/28 91/91/28 89/89/28
f 91/91/28 93/93/28 92/92/28
f 93/93/28 89/89/28 94/94/28
f 93/93/28 94/94/28 95/95/28
f 96/96/28 92/92/28 93/93/28
f 95/95/28 97/97/28 93/93/28
f 96/96/28 93/93/28 97/97/28
f 97/97/28 98/98/28 96/96/28
f 101/99/27 100/100/27 99/101/27
f 102/102/27 101/99/27 99/101/27
f 105/103/30 104/104/31 103/105/32
f 105/103/30 103/105/32 106/106/33
f 106/106/33 103/105/32 107/107/31
f 106/106/33 107/107/31 108/108/31
f 108/108/31 109/109/34 106/106/33
f 105/103/30 106/106/33 110/110/35
f 110/110/35 106/106/33 109/109/34
f 111/111/35 110/110/35 109/109/34
f 110/110/35 112/112/36 105/103/30
f 112/112/36 110/110/35 111/111/35
f 112/112/36 111/111/35 113/113/37
f 114/114/36 112/112/36 113/113/37
f 113/113/37 115/115/38 114/114/36
f 114/114/36 115/115/38 116/116/39
f 115/115/38 113/113/37 116/116/39
f 113/113/37 117/117/40 116/116/39
f 116/116/39 117/117/40 118/118/31
f 116/116/39 118/118/31 119/119/31
f 120/120/41 114/114/36 116/116/39
f 119/119/31 121/121/42 116/116/39
f 120/120/41 116/116/39 121/121/42
f 121/121/42 122/122/40 120/120/41
f 125/123/43 124/124/43 123/125/43
f 126/126/43 125/123/43 123/125/43
f 126/126/43 127/127/43 125/123/43
f 127/127/43 128/128/43 125/123/43
f 131/129/44 130/130/44 129/131/44
f 132/132/44 131/129/44 129/131/44
f 135/133/44 134/134/44 133/135/44
f 136/136/44 135/133/44 133/135/44
f 139/137/43 138/138/43 137/139/43
f 140/140/43 139/137/43 137/139/43
f 143/141/45 142/142/45 141/143/45
f 144/144/45 143/141/45 141/143/45
f 147/145/45 146/146/45 145/147/45
f 148/148/45 147/145/45 145/147/45
f 151/149/44 150/150/44 149/151/44
f 152/152/44 151/149/44 149/151/44
f 155/153/46 154/154/46 153/155/46
f 156/156/46 155/153/46 153/155/46
f 159/157/46 158/158/46 157/159/46
f 160/160/46 159/157/46 157/159/46
f 163/161/47 162/162/47 161/163/47
f 164/164/47 163/161/47 161/163/47
f 167/165/48 166/166/48 165/167/48
f 168/168/48 167/165/48 165/167/48
f 171/169/49 170/170/49 169/171/49
f 172/172/49 171/169/49 169/171/49
f 175/173/50 174/174/50 173/175/50
f 176/176/50 175/173/50 173/175/50
f 179/177/51 178/178/52 177/179/53
f 180/180/54 179/177/51 177/179/53
f 183/181/55 182/182/56 181/183/57
f 184/184/58 183/181/55 181/183/57
f 187/185/59 186/186/59 185/187/59
f 188/188/59 187/185/59 185/187/59
f 191/189/60 190/190/61 189/191/62
f 192/192/63 191/189/60 189/191/62
f 195/193/64 194/194/65 193/195/66
f 196/196/67 195/193/64 193/195/66
f 199/197/68 198/198/69 197/199/70
f 200/200/71 199/197/68 197/199/70
f 203/201/72 202/202/73 201/203/72
f 204/204/72 203/201/72 201/203/72
f 207/205/74 206/206/75 205/207/76
f 208/208/77 207/205/74 205/207/76
