mtllib material.mtl
usemtl material_0
v 0.33476000 -0.07324000 -0.02224000
v 0.33476000 -0.07324000 -0.48929000
v 0.33476000 0.07704000 -0.48929000
v 0.33476000 0.07704000 -0.02224000
v 0.33476000 -0.07324000 -0.48929000
v 0.00000000 0.07704000 -0.48929000
v 0.33476000 0.07704000 -0.48929000
v 0.00000000 -0.07324000 -0.48929000
v -0.33436000 -0.07324000 -0.48929000
v -0.33436000 0.07704000 -0.48929000
v 0.33476000 0.07704000 -0.02224000
v 0.35010000 0.07704000 -0.50712000
v 0.35010000 0.07704000 -0.02224000
v 0.33476000 0.07704000 -0.48929000
v 0.00000000 0.07704000 -0.50712000
v 0.00000000 0.07704000 -0.48929000
v -0.33436000 0.07704000 -0.48929000
v -0.34971000 0.07704000 -0.50712000
v -0.33436000 0.07704000 -0.02224000
v -0.34971000 0.07704000 -0.02224000
v 0.35010000 0.07704000 -0.50712000
v 0.35010000 -0.08517000 -0.50712000
v 0.35010000 -0.08517000 -0.02224000
v 0.35010000 0.07704000 -0.02224000
v 0.00000000 0.07704000 -0.50712000
v 0.35010000 -0.08517000 -0.50712000
v 0.35010000 0.07704000 -0.50712000
v 0.00000000 -0.08517000 -0.50712000
v -0.34971000 0.07704000 -0.50712000
v -0.34971000 -0.08517000 -0.50712000
v 0.35010000 -0.08517000 -0.50712000
v 0.00000000 -0.08517000 -0.02224000
v 0.35010000 -0.08517000 -0.02224000
v 0.00000000 -0.08517000 -0.50712000
v -0.34971000 -0.08517000 -0.50712000
v -0.34971000 -0.08517000 -0.02224000
v 0.24764000 -0.07706000 -0.43515000
v 0.12382000 -0.07706000 -0.43515000
v 0.00000000 -0.07706000 -0.43515000
v 0.26812000 -0.07706000 -0.44018000
v 0.26167000 -0.07706000 -0.42154000
v 0.31913000 -0.07706000 -0.04102000
v 0.31913000 -0.07706000 -0.47348000
v 0.24255000 -0.08264000 -0.43122000
v 0.12128000 -0.08264000 -0.43122000
v 0.12382000 -0.07706000 -0.43515000
v 0.00000000 -0.08264000 -0.43122000
v 0.00000000 -0.07706000 -0.43515000
v -0.25169000 -0.07706000 -0.43515000
v -0.24661000 -0.08264000 -0.43122000
v -0.27217000 -0.07706000 -0.44018000
v -0.26572000 -0.07706000 -0.42154000
v -0.31874000 -0.07706000 -0.04102000
v 0.00000000 -0.07706000 -0.47348000
v -0.26023000 -0.08264000 -0.41800000
v 0.00000000 -0.08264000 -0.43122000
v 0.00000000 -0.08264000 -0.07031000
v 0.12128000 -0.08264000 -0.43122000
v -0.26572000 -0.07706000 -0.07999000
v -0.31874000 -0.07706000 -0.47348000
v 0.25618000 -0.08264000 -0.41800000
v 0.26167000 -0.07706000 -0.07999000
v -0.26023000 -0.08264000 -0.08353000
v 0.25618000 -0.08264000 -0.08353000
v -0.24661000 -0.08264000 -0.07031000
v 0.24255000 -0.08264000 -0.07031000
v -0.25169000 -0.07706000 -0.06638000
v 0.24764000 -0.07706000 -0.06638000
v -0.27217000 -0.07706000 -0.06135000
v 0.00000000 -0.07706000 -0.06638000
v 0.00000000 -0.08264000 -0.07031000
v 0.00000000 -0.07706000 -0.06638000
v 0.00000000 -0.07706000 -0.04102000
v 0.26812000 -0.07706000 -0.06135000
v 0.00000000 -0.07324000 -0.03451000
v -0.32506000 -0.07324000 -0.03451000
v 0.32546000 -0.07324000 -0.03451000
v 0.00000000 -0.07324000 -0.02224000
v -0.33436000 -0.07324000 -0.02224000
v 0.33476000 -0.07324000 -0.02224000
v -0.32506000 -0.07324000 -0.47999000
v -0.33436000 -0.07324000 -0.48929000
v 0.32546000 -0.07324000 -0.47999000
v 0.33476000 -0.07324000 -0.48929000
v 0.00000000 -0.07324000 -0.47999000
v 0.00000000 -0.07324000 -0.48929000
v -0.33436000 -0.07324000 -0.02224000
v -0.33436000 0.07704000 -0.02224000
v -0.33436000 0.07704000 -0.48929000
v -0.33436000 -0.07324000 -0.48929000
v -0.34971000 0.07704000 -0.02224000
v -0.34971000 -0.08517000 -0.02224000
v -0.34971000 -0.08517000 -0.50712000
v -0.34971000 0.07704000 -0.50712000
v 0.42296000 0.09931000 -0.02224000
v 0.42296000 -0.10110000 -0.02224000
v 0.42296000 -0.10110000 0.00000000
v 0.42296000 0.09931000 0.00000000
v 0.42296000 -0.10110000 0.00000000
v 0.00000000 0.09931000 0.00000000
v 0.42296000 0.09931000 0.00000000
v 0.00000000 -0.10110000 0.00000000
v -0.42474000 -0.10110000 0.00000000
v -0.42474000 0.09931000 0.00000000
v 0.42296000 -0.10110000 -0.02224000
v 0.00000000 -0.10110000 0.00000000
v 0.42296000 -0.10110000 0.00000000
v 0.00000000 -0.10110000 -0.02224000
v -0.42474000 -0.10110000 -0.02224000
v -0.42474000 -0.10110000 0.00000000
v 0.42296000 0.09931000 -0.02224000
v 0.42296000 0.09931000 0.00000000
v 0.00000000 0.09931000 0.00000000
v 0.00000000 0.09931000 -0.02224000
v -0.42474000 0.09931000 -0.02224000
v -0.42474000 0.09931000 0.00000000
v 0.00000000 -0.07324000 -0.02224000
v 0.33476000 -0.07324000 -0.02224000
v 0.33476000 0.07704000 -0.02224000
v 0.00000000 0.09931000 -0.02224000
v 0.42296000 0.09931000 -0.02224000
v 0.35010000 0.07704000 -0.02224000
v 0.42296000 -0.10110000 -0.02224000
v 0.35010000 -0.08517000 -0.02224000
v 0.00000000 -0.10110000 -0.02224000
v 0.00000000 -0.08517000 -0.02224000
v -0.34971000 -0.08517000 -0.02224000
v -0.42474000 -0.10110000 -0.02224000
v -0.42474000 0.09931000 -0.02224000
v -0.34971000 0.07704000 -0.02224000
v -0.33436000 0.07704000 -0.02224000
v -0.33436000 -0.07324000 -0.02224000
v -0.42474000 0.09931000 0.00000000
v -0.42474000 -0.10110000 0.00000000
v -0.42474000 -0.10110000 -0.02224000
v -0.42474000 0.09931000 -0.02224000
v 0.34972000 -0.01402000 -0.47533000
v 0.36241000 -0.01402000 -0.47533000
v 0.36241000 -0.00234000 -0.48017000
v 0.34972000 -0.00234000 -0.48017000
v 0.36241000 0.00934000 -0.47533000
v 0.34972000 0.00934000 -0.47533000
v 0.34972000 0.00934000 -0.47533000
v 0.36241000 0.00934000 -0.47533000
v 0.36241000 0.01418000 -0.46365000
v 0.34972000 0.01418000 -0.46365000
v 0.34972000 0.01418000 -0.04642000
v 0.36241000 0.01418000 -0.04642000
v 0.36241000 0.00934000 -0.03474000
v 0.34972000 0.00934000 -0.03474000
v 0.34972000 0.00934000 -0.03474000
v 0.36241000 0.00934000 -0.03474000
v 0.36241000 -0.00234000 -0.02990000
v 0.34972000 -0.00234000 -0.02990000
v 0.34972000 -0.00234000 -0.02990000
v 0.36241000 -0.00234000 -0.02990000
v 0.36241000 -0.01402000 -0.03474000
v 0.34972000 -0.01402000 -0.03474000
v 0.34972000 -0.01402000 -0.03474000
v 0.36241000 -0.01402000 -0.03474000
v 0.36241000 -0.01886000 -0.04642000
v 0.34972000 -0.01886000 -0.04642000
v 0.34972000 -0.01886000 -0.46365000
v 0.36241000 -0.01886000 -0.46365000
v 0.36241000 -0.01402000 -0.47533000
v 0.34972000 -0.01402000 -0.47533000
v 0.36241000 -0.01117000 -0.47249000
v 0.35911000 -0.01117000 -0.47249000
v 0.35911000 -0.00234000 -0.47615000
v 0.36241000 -0.00234000 -0.47615000
v 0.36241000 -0.00234000 -0.47615000
v 0.35911000 -0.00234000 -0.47615000
v 0.35911000 0.00649000 -0.47249000
v 0.36241000 0.00649000 -0.47249000
v 0.36241000 0.00649000 -0.47249000
v 0.35911000 0.00649000 -0.47249000
v 0.35911000 0.01046000 -0.46291000
v 0.36241000 0.01046000 -0.46291000
v 0.35911000 0.01046000 -0.04716000
v 0.36241000 0.01046000 -0.04716000
v 0.35911000 0.00649000 -0.03759000
v 0.36241000 0.00649000 -0.03759000
v 0.36241000 0.00649000 -0.03759000
v 0.35911000 0.00649000 -0.03759000
v 0.35911000 -0.00234000 -0.03393000
v 0.36241000 -0.00234000 -0.03393000
v 0.36241000 -0.00234000 -0.03393000
v 0.35911000 -0.00234000 -0.03393000
v 0.35911000 -0.01117000 -0.03759000
v 0.36241000 -0.01117000 -0.03759000
v 0.36241000 -0.01117000 -0.03759000
v 0.35911000 -0.01117000 -0.03759000
v 0.35911000 -0.01514000 -0.04716000
v 0.36241000 -0.01514000 -0.04716000
v 0.35911000 -0.01514000 -0.46291000
v 0.36241000 -0.01514000 -0.46291000
v 0.35911000 -0.01117000 -0.47249000
v 0.36241000 -0.01117000 -0.47249000
v -0.34971000 -0.01402000 -0.47533000
v -0.36240000 -0.00234000 -0.48017000
v -0.36240000 -0.01402000 -0.47533000
v -0.34971000 -0.00234000 -0.48017000
v -0.36240000 0.00934000 -0.47533000
v -0.34971000 0.00934000 -0.47533000
v -0.34971000 0.00934000 -0.47533000
v -0.36240000 0.01418000 -0.46365000
v -0.36240000 0.00934000 -0.47533000
v -0.34971000 0.01418000 -0.46365000
v -0.34971000 0.01418000 -0.04642000
v -0.36240000 0.01418000 -0.04642000
v -0.36240000 0.00934000 -0.03474000
v -0.34971000 0.00934000 -0.03474000
v -0.34971000 0.00934000 -0.03474000
v -0.34971000 -0.00234000 -0.02990000
v -0.36240000 -0.00234000 -0.02990000
v -0.36240000 0.00934000 -0.03474000
v -0.34971000 -0.00234000 -0.02990000
v -0.34971000 -0.01402000 -0.03474000
v -0.36240000 -0.01402000 -0.03474000
v -0.36240000 -0.00234000 -0.02990000
v -0.34971000 -0.01402000 -0.03474000
v -0.36240000 -0.01886000 -0.04642000
v -0.36240000 -0.01402000 -0.03474000
v -0.34971000 -0.01886000 -0.04642000
v -0.34971000 -0.01886000 -0.46365000
v -0.36240000 -0.01886000 -0.46365000
v -0.36240000 -0.01402000 -0.47533000
v -0.34971000 -0.01402000 -0.47533000
v -0.36240000 -0.01117000 -0.47249000
v -0.36240000 -0.00234000 -0.47615000
v -0.35910000 -0.00234000 -0.47615000
v -0.35910000 -0.01117000 -0.47249000
v -0.36240000 -0.00234000 -0.47615000
v -0.36240000 0.00649000 -0.47249000
v -0.35910000 0.00649000 -0.47249000
v -0.35910000 -0.00234000 -0.47615000
v -0.36240000 0.00649000 -0.47249000
v -0.35910000 0.01046000 -0.46291000
v -0.35910000 0.00649000 -0.47249000
v -0.36240000 0.01046000 -0.46291000
v -0.35910000 0.01046000 -0.04716000
v -0.36240000 0.01046000 -0.04716000
v -0.35910000 0.00649000 -0.03759000
v -0.36240000 0.00649000 -0.03759000
v -0.36240000 0.00649000 -0.03759000
v -0.36240000 -0.00234000 -0.03393000
v -0.35910000 -0.00234000 -0.03393000
v -0.35910000 0.00649000 -0.03759000
v -0.36240000 -0.00234000 -0.03393000
v -0.36240000 -0.01117000 -0.03759000
v -0.35910000 -0.01117000 -0.03759000
v -0.35910000 -0.00234000 -0.03393000
v -0.36240000 -0.01117000 -0.03759000
v -0.35910000 -0.01514000 -0.04716000
v -0.35910000 -0.01117000 -0.03759000
v -0.36240000 -0.01514000 -0.04716000
v -0.35910000 -0.01514000 -0.46291000
v -0.36240000 -0.01514000 -0.46291000
v -0.35910000 -0.01117000 -0.47249000
v -0.36240000 -0.01117000 -0.47249000
v 0.35911000 -0.01117000 -0.47249000
v 0.35911000 -0.00234000 -0.46365000
v 0.35911000 -0.00234000 -0.47615000
v 0.35911000 0.00649000 -0.47249000
v 0.35911000 0.01046000 -0.46291000
v 0.35911000 -0.01514000 -0.46291000
v 0.35911000 0.01046000 -0.04716000
v 0.35911000 -0.00234000 -0.04642000
v 0.35911000 -0.01514000 -0.04716000
v 0.35911000 0.00649000 -0.03759000
v 0.35911000 -0.01117000 -0.03759000
v 0.35911000 -0.00234000 -0.03393000
v -0.35910000 -0.01117000 -0.47249000
v -0.35910000 -0.00234000 -0.47615000
v -0.35910000 -0.00234000 -0.46365000
v -0.35910000 0.00649000 -0.47249000
v -0.35910000 0.01046000 -0.46291000
v -0.35910000 -0.01514000 -0.46291000
v -0.35910000 0.01046000 -0.04716000
v -0.35910000 -0.00234000 -0.04642000
v -0.35910000 -0.01514000 -0.04716000
v -0.35910000 0.00649000 -0.03759000
v -0.35910000 -0.01117000 -0.03759000
v -0.35910000 -0.00234000 -0.03393000
v 0.36241000 -0.01402000 -0.47533000
v 0.36241000 -0.01117000 -0.47249000
v 0.36241000 -0.00234000 -0.47615000
v 0.36241000 -0.00234000 -0.48017000
v 0.36241000 -0.01886000 -0.46365000
v 0.36241000 0.00649000 -0.47249000
v 0.36241000 -0.01514000 -0.46291000
v 0.36241000 0.00934000 -0.47533000
v 0.36241000 -0.01886000 -0.04642000
v 0.36241000 0.01046000 -0.46291000
v 0.36241000 -0.01514000 -0.04716000
v 0.36241000 0.01418000 -0.46365000
v 0.36241000 -0.01402000 -0.03474000
v 0.36241000 0.01046000 -0.04716000
v 0.36241000 -0.01117000 -0.03759000
v 0.36241000 0.01418000 -0.04642000
v 0.36241000 -0.00234000 -0.02990000
v 0.36241000 0.00649000 -0.03759000
v 0.36241000 -0.00234000 -0.03393000
v 0.36241000 0.00934000 -0.03474000
v -0.36240000 -0.01402000 -0.47533000
v -0.36240000 -0.00234000 -0.47615000
v -0.36240000 -0.01117000 -0.47249000
v -0.36240000 -0.00234000 -0.48017000
v -0.36240000 -0.01886000 -0.46365000
v -0.36240000 0.00649000 -0.47249000
v -0.36240000 -0.01514000 -0.46291000
v -0.36240000 0.00934000 -0.47533000
v -0.36240000 -0.01886000 -0.04642000
v -0.36240000 0.01046000 -0.46291000
v -0.36240000 -0.01514000 -0.04716000
v -0.36240000 0.01418000 -0.46365000
v -0.36240000 -0.01402000 -0.03474000
v -0.36240000 0.01046000 -0.04716000
v -0.36240000 -0.01117000 -0.03759000
v -0.36240000 0.01418000 -0.04642000
v -0.36240000 -0.00234000 -0.02990000
v -0.36240000 0.00649000 -0.03759000
v -0.36240000 -0.00234000 -0.03393000
v -0.36240000 0.00934000 -0.03474000
vn -1.00000000 0.00000000 0.00000000
vn -1.00000000 0.00000000 0.00000000
vn -1.00000000 0.00000000 0.00000000
vn -1.00000000 0.00000000 0.00000000
vn 0.00000000 0.00000000 1.00000000
vn 0.00000000 0.00000000 1.00000000
vn 0.00000000 0.00000000 1.00000000
vn 0.00000000 0.00000000 1.00000000
vn 0.00000000 0.00000000 1.00000000
vn 0.00000000 0.00000000 1.00000000
vn 0.00000000 1.00000000 0.00000000
vn 0.00000000 1.00000000 0.00000000
vn 0.00000000 1.00000000 0.00000000
vn 0.00000000 1.00000000 0.00000000
vn 0.00000000 1.00000000 0.00000000
vn 0.00000000 1.00000000 0.00000000
vn 0.00000000 1.00000000 0.00000000
vn 0.00000000 1.00000000 0.00000000
vn 0.00000000 1.00000000 0.00000000
vn 0.00000000 1.00000000 0.00000000
vn 1.00000000 0.00000000 0.00000000
vn 1.00000000 0.00000000 0.00000000
vn 1.00000000 0.00000000 0.00000000
vn 1.00000000 0.00000000 0.00000000
vn 0.00000000 0.00000000 -1.00000000
vn 0.00000000 0.00000000 -1.00000000
vn 0.00000000 0.00000000 -1.00000000
vn 0.00000000 0.00000000 -1.00000000
vn 0.00000000 0.00000000 -1.00000000
vn 0.00000000 0.00000000 -1.00000000
vn 0.00000000 -1.00000000 0.00000000
vn 0.00000000 -1.00000000 0.00000000
vn 0.00000000 -1.00000000 0.00000000
vn 0.00000000 -1.00000000 0.00000000
vn 0.00000000 -1.00000000 0.00000000
vn 0.00000000 -1.00000000 0.00000000
vn -0.00381071 0.99972300 0.02322449
vn 0.00000000 1.00000000 0.00000021
vn 0.00000000 1.00000000 0.00000010
vn 0.00000000 1.00000000 0.00000000
vn -0.03374797 0.99942900 0.00160581
vn -0.09254076 0.99343810 -0.06720889
vn -0.09464931 0.99313450 0.06874045
vn -0.00049763 0.99997270 0.00738400
vn 0.00000000 0.57598840 0.81745790
vn 0.00000000 0.57598840 0.81745790
vn 0.00000000 0.57598810 0.81745810
vn 0.00000000 0.57598810 0.81745800
vn 0.00372915 0.99910070 0.04223564
vn 0.00048746 0.99989930 0.01418659
vn 0.00000000 1.00000000 0.00000000
vn 0.03649881 0.99933210 0.00173671
vn 0.09862521 0.99254970 -0.07154236
vn 0.00000000 0.99568640 0.09278212
vn 0.01742977 0.99984790 0.00060235
vn 0.00000000 1.00000000 0.00000000
vn 0.00000000 1.00000000 0.00000000
vn 0.00000000 1.00000000 0.00000000
vn 0.03649880 0.99933210 -0.00173670
vn 0.09996035 0.99234580 0.07251105
vn -0.01770167 0.99984310 0.00061175
vn -0.03374798 0.99942900 -0.00160581
vn 0.01742982 0.99984790 -0.00060236
vn -0.01770172 0.99984310 -0.00061175
vn 0.00048745 0.99989930 -0.01418651
vn -0.00049520 0.99989930 -0.01418512
vn 0.00556246 0.99799790 -0.06300040
vn -0.00560803 0.99802450 -0.06257584
vn 0.00000000 1.00000000 0.00000013
vn 0.00000000 0.57600350 -0.81744730
vn 0.00000000 0.57600340 -0.81744730
vn 0.00000000 1.00000000 0.00000000
vn 0.00000000 0.99151680 -0.12997870
vn 0.00000000 1.00000000 0.00000000
vn 0.00000000 0.98050620 -0.19648800
vn 0.05980939 0.99718870 -0.04513846
vn -0.05977758 0.99718930 -0.04516811
vn 0.00000000 1.00000000 0.00000000
vn 0.00000000 1.00000000 0.00000000
vn 0.00000000 1.00000000 0.00000000
vn 0.06627954 0.99654640 0.05002121
vn 0.00000000 1.00000000 0.00000000
vn -0.06624673 0.99654690 0.05005598
vn 0.00000000 1.00000000 0.00000000
vn 0.00000000 0.97274940 0.23185920
vn 0.00000000 1.00000000 0.00000000
vn 1.00000000 0.00000000 0.00000000
vn 1.00000000 0.00000000 0.00000000
vn 1.00000000 0.00000000 0.00000000
vn 1.00000000 0.00000000 0.00000000
vn -1.00000000 0.00000000 0.00000000
vn -1.00000000 0.00000000 0.00000000
vn -1.00000000 0.00000000 0.00000000
vn -1.00000000 0.00000000 0.00000000
vn 1.00000000 0.00000000 0.00000000
vn 1.00000000 0.00000000 0.00000000
vn 1.00000000 0.00000000 0.00000000
vn 1.00000000 0.00000000 0.00000000
vn 0.00000000 0.00000000 1.00000000
vn 0.00000000 0.00000000 1.00000000
vn 0.00000000 0.00000000 1.00000000
vn 0.00000000 0.00000000 1.00000000
vn 0.00000000 0.00000000 1.00000000
vn 0.00000000 0.00000000 1.00000000
vn 0.00000000 -1.00000000 0.00000000
vn 0.00000000 -1.00000000 0.00000000
vn 0.00000000 -1.00000000 0.00000000
vn 0.00000000 -1.00000000 0.00000000
vn 0.00000000 -1.00000000 0.00000000
vn 0.00000000 -1.00000000 0.00000000
vn 0.00000000 1.00000000 0.00000000
vn 0.00000000 1.00000000 0.00000000
vn 0.00000000 1.00000000 0.00000000
vn 0.00000000 1.00000000 0.00000000
vn 0.00000000 1.00000000 0.00000000
vn 0.00000000 1.00000000 0.00000000
vn 0.00000000 0.00000000 -1.00000000
vn -0.00000011 0.00000000 -1.00000000
vn 0.00000000 0.00000000 -1.00000000
vn 0.00000000 0.00000000 -1.00000000
vn 0.00000043 0.00000000 -1.00000000
vn 0.00000030 0.00000000 -1.00000000
vn 0.00000043 0.00000000 -1.00000000
vn 0.00000026 0.00000000 -1.00000000
vn 0.00000000 0.00000000 -1.00000000
vn 0.00000000 0.00000000 -1.00000000
vn -0.00000026 0.00000000 -1.00000000
vn -0.00000042 0.00000000 -1.00000000
vn -0.00000041 0.00000000 -1.00000000
vn -0.00000029 0.00000000 -1.00000000
vn 0.00000000 0.00000000 -1.00000000
vn 0.00000011 0.00000000 -1.00000000
vn -1.00000000 0.00000000 0.00000000
vn -1.00000000 0.00000000 0.00000000
vn -1.00000000 0.00000000 0.00000000
vn -1.00000000 0.00000000 0.00000000
vn 0.00000000 -0.38267480 -0.92388320
vn 0.00000000 -0.38267480 -0.92388320
vn 0.00000000 0.00000000 -1.00000000
vn 0.00000000 0.00000000 -1.00000000
vn 0.00000000 0.38267560 -0.92388280
vn 0.00000000 0.38267560 -0.92388280
vn 0.00000000 0.92388190 -0.38267750
vn 0.00000000 0.92388190 -0.38267750
vn 0.00000000 0.99993650 -0.01127901
vn 0.00000000 0.99993650 -0.01127901
vn 0.00000000 0.99993650 0.01127905
vn 0.00000000 0.99993650 0.01127904
vn 0.00000000 0.92387880 0.38268520
vn 0.00000000 0.92387880 0.38268520
vn 0.00000000 0.38268550 0.92387870
vn 0.00000000 0.38268550 0.92387870
vn 0.00000000 0.38268550 0.92387870
vn 0.00000000 0.38268550 0.92387870
vn 0.00000000 -0.38268500 0.92387880
vn 0.00000000 -0.38268500 0.92387880
vn 0.00000000 -0.38268500 0.92387880
vn 0.00000000 -0.38268500 0.92387880
vn 0.00000000 -0.92387840 0.38268630
vn 0.00000000 -0.92387840 0.38268630
vn 0.00000000 -0.99993650 0.01127908
vn 0.00000000 -0.99993650 0.01127908
vn 0.00000000 -0.99993650 -0.01127904
vn 0.00000000 -0.99993650 -0.01127904
vn 0.00000000 -0.92388150 -0.38267840
vn 0.00000000 -0.92388150 -0.38267840
vn 0.00000000 0.38268340 0.92387950
vn 0.00000000 0.38268340 0.92387950
vn 0.00000000 0.38268340 0.92387950
vn 0.00000000 0.38268340 0.92387950
vn 0.00000000 -0.38268400 0.92387930
vn 0.00000000 -0.38268400 0.92387930
vn 0.00000000 -0.38268400 0.92387930
vn 0.00000000 -0.38268400 0.92387930
vn 0.00000000 -0.92387750 0.38268830
vn 0.00000000 -0.92387750 0.38268830
vn 0.00000000 -0.99995660 0.00932238
vn 0.00000000 -0.99995660 0.00932238
vn 0.00000000 -0.99995660 -0.00932238
vn 0.00000000 -0.99995660 -0.00932238
vn 0.00000000 -0.92387910 -0.38268430
vn 0.00000000 -0.92387910 -0.38268430
vn 0.00000000 -0.38268400 -0.92387930
vn 0.00000000 -0.38268400 -0.92387930
vn 0.00000000 -0.38268400 -0.92387930
vn 0.00000000 -0.38268400 -0.92387930
vn 0.00000000 0.38268340 -0.92387950
vn 0.00000000 0.38268340 -0.92387950
vn 0.00000000 0.38268340 -0.92387950
vn 0.00000000 0.38268340 -0.92387950
vn 0.00000000 0.92387910 -0.38268430
vn 0.00000000 0.92387910 -0.38268430
vn 0.00000000 0.99995660 -0.00932238
vn 0.00000000 0.99995660 -0.00932238
vn 0.00000000 0.99995660 0.00932238
vn 0.00000000 0.99995660 0.00932238
vn 0.00000000 0.92387750 0.38268830
vn 0.00000000 0.92387750 0.38268830
vn 0.00000000 -0.38267480 -0.92388320
vn 0.00000000 0.00000000 -1.00000000
vn 0.00000000 -0.38267480 -0.92388320
vn 0.00000000 0.00000000 -1.00000000
vn 0.00000000 0.38267560 -0.92388280
vn 0.00000000 0.38267560 -0.92388280
vn 0.00000000 0.92388190 -0.38267750
vn 0.00000000 0.99993650 -0.01127901
vn 0.00000000 0.92388190 -0.38267750
vn 0.00000000 0.99993650 -0.01127902
vn 0.00000000 0.99993650 0.01127899
vn 0.00000000 0.99993650 0.01127899
vn 0.00000000 0.92387880 0.38268520
vn 0.00000000 0.92387880 0.38268520
vn 0.00000000 0.38268550 0.92387870
vn 0.00000000 0.38268550 0.92387870
vn 0.00000000 0.38268550 0.92387870
vn 0.00000000 0.38268550 0.92387870
vn 0.00000000 -0.38268500 0.92387880
vn 0.00000000 -0.38268500 0.92387880
vn 0.00000000 -0.38268500 0.92387880
vn 0.00000000 -0.38268500 0.92387880
vn 0.00000000 -0.92387840 0.38268630
vn 0.00000000 -0.99993650 0.01127906
vn 0.00000000 -0.92387840 0.38268630
vn 0.00000000 -0.99993650 0.01127906
vn 0.00000000 -0.99993650 -0.01127901
vn 0.00000000 -0.99993650 -0.01127901
vn 0.00000000 -0.92388150 -0.38267840
vn 0.00000000 -0.92388150 -0.38267840
vn 0.00000000 0.38268340 0.92387950
vn 0.00000000 0.38268340 0.92387950
vn 0.00000000 0.38268340 0.92387950
vn 0.00000000 0.38268340 0.92387950
vn 0.00000000 -0.38268400 0.92387930
vn 0.00000000 -0.38268400 0.92387930
vn 0.00000000 -0.38268400 0.92387930
vn 0.00000000 -0.38268400 0.92387930
vn 0.00000000 -0.92387750 0.38268830
vn 0.00000000 -0.99995660 0.00932237
vn 0.00000000 -0.92387750 0.38268830
vn 0.00000000 -0.99995660 0.00932237
vn 0.00000000 -0.99995660 -0.00932239
vn 0.00000000 -0.99995660 -0.00932239
vn 0.00000000 -0.92388080 -0.38268040
vn 0.00000000 -0.92388080 -0.38268040
vn 0.00000000 -0.38268400 -0.92387930
vn 0.00000000 -0.38268400 -0.92387930
vn 0.00000000 -0.38268400 -0.92387930
vn 0.00000000 -0.38268400 -0.92387930
vn 0.00000000 0.38268340 -0.92387950
vn 0.00000000 0.38268340 -0.92387950
vn 0.00000000 0.38268340 -0.92387950
vn 0.00000000 0.38268340 -0.92387950
vn 0.00000000 0.92388080 -0.38268040
vn 0.00000000 0.99995660 -0.00932237
vn 0.00000000 0.92388080 -0.38268040
vn 0.00000000 0.99995660 -0.00932237
vn 0.00000000 0.99995660 0.00932240
vn 0.00000000 0.99995660 0.00932240
vn 0.00000000 0.92387750 0.38268830
vn 0.00000000 0.92387750 0.38268830
vn 1.00000000 0.00000104 0.00000212
vn 1.00000000 0.00000000 0.00000000
vn 1.00000000 0.00000000 0.00000305
vn 1.00000000 -0.00000166 0.00000212
vn 1.00000000 -0.00000457 0.00000000
vn 1.00000000 0.00000456 0.00000000
vn 1.00000000 -0.00000457 0.00000000
vn 1.00000000 0.00000000 0.00000000
vn 1.00000000 0.00000457 0.00000000
vn 1.00000000 0.00000000 -0.00000212
vn 1.00000000 -0.00000166 -0.00000212
vn 1.00000000 -0.00000173 -0.00000305
vn -1.00000000 -0.00000083 0.00000212
vn -1.00000000 0.00000000 0.00000305
vn -1.00000000 0.00000000 -0.00000016
vn -1.00000000 0.00000083 0.00000212
vn -1.00000000 -0.00000434 -0.00000017
vn -1.00000000 0.00000434 -0.00000017
vn -1.00000000 -0.00000434 -0.00000019
vn -1.00000000 0.00000000 -0.00000021
vn -1.00000000 0.00000434 -0.00000019
vn -1.00000000 0.00000166 -0.00000212
vn -1.00000000 -0.00000166 -0.00000212
vn -1.00000000 0.00000000 -0.00000305
vn 1.00000000 -0.00000085 0.00000000
vn 1.00000000 -0.00000085 0.00000000
vn 1.00000000 0.00000000 0.00000000
vn 1.00000000 0.00000000 0.00000000
vn 1.00000000 -0.00000428 0.00000000
vn 1.00000000 0.00000113 0.00000000
vn 1.00000000 -0.00000428 0.00000000
vn 1.00000000 0.00000113 0.00000000
vn 1.00000000 -0.00000436 0.00000000
vn 1.00000000 0.00000385 0.00000000
vn 1.00000000 -0.00000436 0.00000000
vn 1.00000000 0.00000385 0.00000000
vn 1.00000000 0.00000000 0.00000000
vn 1.00000000 0.00000386 0.00000000
vn 1.00000000 0.00000000 0.00000000
vn 1.00000000 0.00000386 0.00000000
vn 1.00000000 0.00000115 0.00000000
vn 1.00000000 0.00000028 0.00000000
vn 1.00000000 0.00000115 0.00000000
vn 1.00000000 0.00000028 0.00000000
vn -1.00000000 0.00000000 0.00000000
vn -1.00000000 -0.00000231 0.00000000
vn -1.00000000 0.00000000 0.00000000
vn -1.00000000 -0.00000231 0.00000000
vn -1.00000000 -0.00000767 -0.00000018
vn -1.00000000 -0.00000227 0.00000000
vn -1.00000000 -0.00000767 -0.00000018
vn -1.00000000 -0.00000227 0.00000000
vn -1.00000000 -0.00000767 -0.00000018
vn -1.00000000 0.00000767 -0.00000018
vn -1.00000000 -0.00000767 -0.00000018
vn -1.00000000 0.00000767 -0.00000018
vn -1.00000000 0.00000000 0.00000000
vn -1.00000000 0.00000743 -0.00000018
vn -1.00000000 0.00000000 0.00000000
vn -1.00000000 0.00000743 -0.00000018
vn -1.00000000 -0.00000231 0.00000000
vn -1.00000000 -0.00000681 0.00000000
vn -1.00000000 -0.00000231 0.00000000
vn -1.00000000 -0.00000681 0.00000000
vt 20.31262000 0.47859360
vt 20.31262000 0.84347410
vt 20.43003000 0.84347410
vt 20.43003000 0.47859360
vt 20.81089000 -0.02461353
vt 20.92829000 0.23690930
vt 20.92829000 -0.02461353
vt 20.81089000 0.23690930
vt 20.81089000 0.49813180
vt 20.92829000 0.49813180
vt 19.98276000 -0.01384161
vt 20.36156000 -0.02582984
vt 19.98276000 -0.02582984
vt 20.34764000 -0.01384161
vt 20.36156000 0.24768010
vt 20.34764000 0.24768010
vt 20.34764000 0.50890150
vt 20.36156000 0.52088980
vt 19.98276000 0.50890150
vt 19.98276000 0.52088980
vt 20.67048000 0.47788680
vt 20.54376000 0.47788680
vt 20.54376000 0.85669140
vt 20.67048000 0.85669140
vt 20.34266000 0.24768010
vt 20.46939000 -0.02583231
vt 20.34266000 -0.02583231
vt 20.46939000 0.24768010
vt 20.34266000 0.52089230
vt 20.46939000 0.52089230
vt 20.45070000 -0.02583364
vt 20.82951000 0.24768010
vt 20.82951000 -0.02583364
vt 20.45070000 0.24768010
vt 20.45070000 0.52089360
vt 20.82951000 0.52089360
vt 20.97577000 0.53652040
vt 20.97577000 0.63431170
vt 20.97577000 0.73210280
vt 20.97974000 0.52034440
vt 20.96502000 0.52543830
vt 20.66449000 0.48005910
vt 21.00605000 0.48005910
vt 20.97266000 0.54053880
vt 20.97266000 0.63632080
vt 20.97577000 0.63431170
vt 20.97266000 0.73210280
vt 20.97577000 0.73210280
vt 20.97577000 0.93089360
vt 20.97266000 0.92687520
vt 20.97974000 0.94706970
vt 20.96502000 0.94197570
vt 20.66449000 0.98384310
vt 21.00605000 0.73210280
vt 20.96222000 0.93763720
vt 20.97266000 0.73210280
vt 20.68762000 0.73210280
vt 20.97266000 0.63632080
vt 20.69527000 0.94197570
vt 21.00605000 0.98384310
vt 20.96222000 0.52977690
vt 20.69527000 0.52543830
vt 20.69806000 0.93763720
vt 20.69806000 0.52977680
vt 20.68762000 0.92687520
vt 20.68762000 0.54053880
vt 20.68451000 0.93089360
vt 20.68451000 0.53652040
vt 20.68055000 0.94706970
vt 20.68451000 0.73210280
vt 20.68762000 0.73210280
vt 20.68451000 0.73210280
vt 20.66449000 0.73210280
vt 20.68055000 0.52034440
vt 20.65935000 0.73210280
vt 20.65935000 0.98884030
vt 20.65935000 0.47506190
vt 20.64966000 0.73210280
vt 20.64966000 0.99618540
vt 20.64966000 0.46771680
vt 21.01119000 0.98884030
vt 21.01853000 0.99618540
vt 21.01119000 0.47506190
vt 21.01853000 0.46771680
vt 21.01119000 0.73210280
vt 21.01853000 0.73210280
vt 20.20100000 0.84347570
vt 20.31841000 0.84347570
vt 20.31841000 0.47859200
vt 20.20100000 0.47859200
vt 20.55049000 0.47788690
vt 20.42376000 0.47788690
vt 20.42376000 0.85669130
vt 20.55049000 0.85669130
vt 10.87640000 0.19802260
vt 10.87640000 0.04144470
vt 10.85902000 0.04144470
vt 10.85902000 0.19802260
vt 10.04132000 0.16886910
vt 10.19789000 0.49930160
vt 10.19789000 0.16886910
vt 10.04132000 0.49930160
vt 10.04132000 0.83113090
vt 10.19789000 0.83113090
vt 10.24872000 0.16886880
vt 10.26610000 0.49930160
vt 10.26610000 0.16886880
vt 10.24872000 0.49930160
vt 10.24872000 0.83113130
vt 10.26610000 0.83113130
vt 10.29889000 0.16885980
vt 10.28151000 0.16885980
vt 10.28151000 0.49930160
vt 10.29889000 0.49930160
vt 10.29889000 0.83114030
vt 10.28151000 0.83114030
vt 10.48419000 0.49930160
vt 10.48419000 0.23777610
vt 10.36678000 0.23777610
vt 10.34938000 0.49930160
vt 10.34938000 0.16886720
vt 10.36678000 0.22578770
vt 10.50595000 0.16886720
vt 10.49351000 0.22578770
vt 10.50595000 0.49930160
vt 10.49351000 0.49930160
vt 10.49351000 0.77251530
vt 10.50595000 0.83113290
vt 10.34938000 0.83113290
vt 10.36678000 0.77251530
vt 10.36678000 0.76052680
vt 10.48419000 0.76052680
vt 10.90919000 0.19802410
vt 10.90919000 0.04144318
vt 10.89181000 0.04144318
vt 10.89181000 0.19802410
vt 30.49342000 0.03732281
vt 30.50373000 0.03732281
vt 30.50373000 0.02782890
vt 30.49342000 0.02782890
vt 30.50373000 0.01833501
vt 30.49342000 0.01833501
vt 30.29451000 0.66177050
vt 30.30444000 0.66177050
vt 30.30444000 0.65262590
vt 30.29451000 0.65262590
vt 30.29451000 0.32597020
vt 30.30444000 0.32597020
vt 30.30444000 0.31682590
vt 30.29451000 0.31682590
vt 30.52845000 0.03731999
vt 30.53876000 0.03731999
vt 30.53876000 0.02782892
vt 30.52845000 0.02782892
vt 30.52845000 0.02782892
vt 30.53876000 0.02782892
vt 30.53876000 0.01833782
vt 30.52845000 0.01833782
vt 30.32953000 0.66177370
vt 30.33947000 0.66177370
vt 30.33947000 0.65262910
vt 30.32953000 0.65262910
vt 30.32953000 0.32596740
vt 30.33947000 0.32596740
vt 30.33947000 0.31682260
vt 30.32953000 0.31682260
vt 30.62963000 0.01435047
vt 30.62695000 0.01435047
vt 30.62695000 0.02153093
vt 30.62963000 0.02153093
vt 30.62963000 0.02153093
vt 30.62695000 0.02153093
vt 30.62695000 0.02871136
vt 30.62963000 0.02871136
vt 30.43048000 0.31280610
vt 30.42790000 0.31280610
vt 30.42790000 0.32029850
vt 30.43048000 0.32029850
vt 30.42790000 0.64570150
vt 30.43048000 0.64570150
vt 30.42790000 0.65319410
vt 30.43048000 0.65319410
vt 30.64438000 0.01435416
vt 30.64170000 0.01435416
vt 30.64170000 0.02153090
vt 30.64438000 0.02153090
vt 30.64438000 0.02153090
vt 30.64170000 0.02153090
vt 30.64170000 0.02870767
vt 30.64438000 0.02870767
vt 30.44523000 0.31296800
vt 30.44265000 0.31296800
vt 30.44265000 0.32045340
vt 30.44523000 0.32045340
vt 30.44265000 0.64554690
vt 30.44523000 0.64554690
vt 30.44265000 0.65303220
vt 30.44523000 0.65303220
vt 30.57379000 0.03732320
vt 30.56347000 0.02782890
vt 30.56347000 0.03732320
vt 30.57379000 0.02782890
vt 30.56347000 0.01833462
vt 30.57379000 0.01833462
vt 30.37449000 0.66177730
vt 30.36456000 0.65263240
vt 30.36456000 0.66177730
vt 30.37449000 0.65263240
vt 30.37449000 0.32596370
vt 30.36456000 0.32596370
vt 30.36456000 0.31681900
vt 30.37449000 0.31681900
vt 30.60881000 0.03731999
vt 30.60881000 0.02782892
vt 30.59850000 0.02782892
vt 30.59850000 0.03731999
vt 30.60881000 0.02782892
vt 30.60881000 0.01833782
vt 30.59850000 0.01833782
vt 30.59850000 0.02782892
vt 30.40952000 0.66176980
vt 30.39959000 0.65262550
vt 30.39959000 0.66176980
vt 30.40952000 0.65262550
vt 30.40952000 0.32597110
vt 30.39959000 0.32597110
vt 30.39959000 0.31682650
vt 30.40952000 0.31682650
vt 30.65645000 0.01435194
vt 30.65645000 0.02153093
vt 30.65913000 0.02153093
vt 30.65913000 0.01435194
vt 30.65645000 0.02153093
vt 30.65645000 0.02870989
vt 30.65913000 0.02870989
vt 30.65913000 0.02153093
vt 30.45740000 0.31279900
vt 30.45998000 0.32029180
vt 30.45998000 0.31279900
vt 30.45740000 0.32029180
vt 30.45998000 0.64570830
vt 30.45740000 0.64570830
vt 30.45998000 0.65320110
vt 30.45740000 0.65320110
vt 30.67120000 0.01435194
vt 30.67120000 0.02153090
vt 30.67388000 0.02153090
vt 30.67388000 0.01435194
vt 30.67120000 0.02153090
vt 30.67120000 0.02870989
vt 30.67388000 0.02870989
vt 30.67388000 0.02153090
vt 30.47215000 0.31291460
vt 30.47473000 0.32040230
vt 30.47473000 0.31291460
vt 30.47215000 0.32040230
vt 30.47473000 0.64559790
vt 30.47215000 0.64559790
vt 30.47473000 0.65308560
vt 30.47215000 0.65308560
vt 30.18149000 0.32121520
vt 30.18839000 0.32811570
vt 30.18839000 0.31835680
vt 30.19529000 0.32121520
vt 30.19839000 0.32869370
vt 30.17839000 0.32869370
vt 30.19839000 0.65349290
vt 30.18839000 0.65407110
vt 30.17839000 0.65349290
vt 30.19529000 0.66097150
vt 30.18149000 0.66097150
vt 30.18839000 0.66382990
vt 30.24417000 0.66099690
vt 30.25107000 0.66385560
vt 30.25107000 0.65409530
vt 30.25797000 0.66099690
vt 30.26107000 0.65351720
vt 30.24107000 0.65351720
vt 30.26107000 0.32866950
vt 30.25107000 0.32809130
vt 30.24107000 0.32866950
vt 30.25797000 0.32118980
vt 30.24417000 0.32118980
vt 30.25107000 0.31833110
vt 30.02876000 0.32786710
vt 30.03099000 0.33009180
vt 30.03789000 0.32723300
vt 30.03789000 0.32408680
vt 30.02498000 0.33699360
vt 30.04479000 0.33009180
vt 30.02789000 0.33757160
vt 30.04701000 0.32786710
vt 30.02498000 0.66300650
vt 30.04789000 0.33757160
vt 30.02789000 0.66242830
vt 30.05079000 0.33699360
vt 30.02876000 0.67213280
vt 30.04789000 0.66242830
vt 30.03099000 0.66990820
vt 30.05079000 0.66300650
vt 30.03789000 0.67591320
vt 30.04479000 0.66990820
vt 30.03789000 0.67276700
vt 30.04701000 0.67213280
vt 30.10822000 0.67206990
vt 30.11734000 0.67270370
vt 30.11045000 0.66984580
vt 30.11734000 0.67584860
vt 30.10444000 0.66294660
vt 30.12424000 0.66984580
vt 30.10735000 0.66236880
vt 30.12647000 0.67206990
vt 30.10444000 0.33705330
vt 30.12734000 0.66236880
vt 30.10735000 0.33763130
vt 30.13025000 0.66294660
vt 30.10822000 0.32793030
vt 30.12734000 0.33763130
vt 30.11045000 0.33015420
vt 30.13025000 0.33705330
vt 30.11734000 0.32415140
vt 30.12424000 0.33015420
vt 30.11734000 0.32729640
vt 30.12647000 0.32793030
f 3/3/3 2/2/2 1/1/1
f 4/4/4 3/3/3 1/1/1
f 7/7/7 6/6/6 5/5/5
f 6/6/6 8/8/8 5/5/5
f 8/8/8 6/6/6 9/9/9
f 6/6/6 10/10/10 9/9/9
f 13/13/13 12/12/12 11/11/11
f 12/12/12 14/14/14 11/11/11
f 12/12/12 15/15/15 14/14/14
f 15/15/15 16/16/16 14/14/14
f 16/16/16 15/15/15 17/17/17
f 15/15/15 18/18/18 17/17/17
f 17/17/17 18/18/18 19/19/19
f 18/18/18 20/20/20 19/19/19
f 23/23/23 22/22/22 21/21/21
f 24/24/24 23/23/23 21/21/21
f 27/27/27 26/26/26 25/25/25
f 26/26/26 28/28/28 25/25/25
f 25/25/25 28/28/28 29/29/29
f 28/28/28 30/30/30 29/29/29
f 33/33/33 32/32/32 31/31/31
f 32/32/32 34/34/34 31/31/31
f 34/34/34 32/32/32 35/35/35
f 32/32/32 36/36/36 35/35/35
f 39/39/39 38/38/38 37/37/37
f 39/39/39 37/37/37 40/40/40
f 40/40/40 37/37/37 41/41/41
f 40/40/40 41/41/41 42/42/42
f 39/39/39 40/40/40 43/43/43
f 42/42/42 43/43/43 40/40/40
f 37/37/37 44/44/44 41/41/41
f 45/45/45 44/44/44 37/37/37
f 46/46/46 45/45/45 37/37/37
f 47/47/47 45/45/45 46/46/46
f 48/48/48 47/47/47 46/46/46
f 47/47/47 48/48/48 49/49/49
f 50/50/50 47/47/47 49/49/49
f 51/51/51 49/49/49 39/39/39
f 50/50/50 49/49/49 52/52/52
f 49/49/49 51/51/51 52/52/52
f 53/53/53 52/52/52 51/51/51
f 51/51/51 39/39/39 54/54/54
f 43/43/43 54/54/54 39/39/39
f 55/55/55 50/50/50 52/52/52
f 56/56/56 50/50/50 55/55/55
f 55/55/55 57/57/57 56/56/56
f 58/58/58 56/56/56 57/57/57
f 57/57/57 44/44/44 58/58/58
f 55/55/55 52/52/52 59/59/59
f 53/53/53 59/59/59 52/52/52
f 51/51/51 60/60/60 53/53/53
f 54/54/54 60/60/60 51/51/51
f 57/57/57 61/61/61 44/44/44
f 44/44/44 61/61/61 41/41/41
f 41/41/41 61/61/61 62/62/62
f 41/41/41 62/62/62 42/42/42
f 55/55/55 63/63/63 57/57/57
f 63/63/63 55/55/55 59/59/59
f 57/57/57 64/64/64 61/61/61
f 61/61/61 64/64/64 62/62/62
f 63/63/63 65/65/65 57/57/57
f 57/57/57 66/66/66 64/64/64
f 63/63/63 59/59/59 67/67/67
f 65/65/65 63/63/63 67/67/67
f 62/62/62 64/64/64 68/68/68
f 64/64/64 66/66/66 68/68/68
f 59/59/59 69/69/69 67/67/67
f 53/53/53 69/69/69 59/59/59
f 65/65/65 67/67/67 70/70/70
f 68/68/68 66/66/66 70/70/70
f 71/71/71 65/65/65 70/70/70
f 66/66/66 71/71/71 70/70/70
f 72/72/72 67/67/67 69/69/69
f 69/69/69 73/73/73 72/72/72
f 68/68/68 72/72/72 73/73/73
f 69/69/69 53/53/53 73/73/73
f 74/74/74 62/62/62 68/68/68
f 73/73/73 74/74/74 68/68/68
f 62/62/62 74/74/74 42/42/42
f 73/73/73 42/42/42 74/74/74
f 73/73/73 53/53/53 75/75/75
f 42/42/42 73/73/73 75/75/75
f 53/53/53 76/76/76 75/75/75
f 53/53/53 60/60/60 76/76/76
f 77/77/77 42/42/42 75/75/75
f 43/43/43 42/42/42 77/77/77
f 75/75/75 76/76/76 78/78/78
f 77/77/77 75/75/75 78/78/78
f 76/76/76 79/79/79 78/78/78
f 80/80/80 77/77/77 78/78/78
f 60/60/60 81/81/81 76/76/76
f 76/76/76 81/81/81 79/79/79
f 81/81/81 82/82/82 79/79/79
f 60/60/60 54/54/54 81/81/81
f 83/83/83 43/43/43 77/77/77
f 83/83/83 77/77/77 80/80/80
f 54/54/54 43/43/43 83/83/83
f 84/84/84 83/83/83 80/80/80
f 81/81/81 85/85/85 82/82/82
f 54/54/54 85/85/85 81/81/81
f 85/85/85 54/54/54 83/83/83
f 85/85/85 83/83/83 84/84/84
f 85/85/85 86/86/86 82/82/82
f 86/86/86 85/85/85 84/84/84
f 89/89/89 88/88/88 87/87/87
f 90/90/90 89/89/89 87/87/87
f 93/93/93 92/92/92 91/91/91
f 94/94/94 93/93/93 91/91/91
f 97/97/97 96/96/96 95/95/95
f 98/98/98 97/97/97 95/95/95
f 101/101/101 100/100/100 99/99/99
f 100/100/100 102/102/102 99/99/99
f 103/103/103 102/102/102 100/100/100
f 104/104/104 103/103/103 100/100/100
f 107/107/107 106/106/106 105/105/105
f 106/106/106 108/108/108 105/105/105
f 108/108/108 106/106/106 109/109/109
f 106/106/106 110/110/110 109/109/109
f 113/113/113 112/112/112 111/111/111
f 114/114/114 113/113/113 111/111/111
f 113/113/113 114/114/114 115/115/115
f 116/116/116 113/113/113 115/115/115
f 119/119/119 118/118/118 117/117/117
f 120/120/120 119/119/119 117/117/117
f 120/120/120 121/121/121 119/119/119
f 121/121/121 122/122/122 119/119/119
f 121/121/121 123/123/123 122/122/122
f 123/123/123 124/124/124 122/122/122
f 123/123/123 125/125/125 124/124/124
f 125/125/125 126/126/126 124/124/124
f 126/126/126 125/125/125 127/127/127
f 125/125/125 128/128/128 127/127/127
f 127/127/127 128/128/128 129/129/129
f 130/130/130 127/127/127 129/129/129
f 130/130/130 129/129/129 131/131/131
f 129/129/129 120/120/120 131/131/131
f 131/131/131 120/120/120 117/117/117
f 132/132/132 131/131/131 117/117/117
f 135/135/135 134/134/134 133/133/133
f 136/136/136 135/135/135 133/133/133
f 139/139/139 138/138/138 137/137/137
f 140/140/140 139/139/139 137/137/137
f 141/141/141 139/139/139 140/140/140
f 142/142/142 141/141/141 140/140/140
f 145/145/145 144/144/144 143/143/143
f 146/146/146 145/145/145 143/143/143
f 146/146/146 147/147/147 145/145/145
f 147/147/147 148/148/148 145/145/145
f 149/149/149 148/148/148 147/147/147
f 150/150/150 149/149/149 147/147/147
f 153/153/153 152/152/152 151/151/151
f 154/154/154 153/153/153 151/151/151
f 157/157/157 156/156/156 155/155/155
f 158/158/158 157/157/157 155/155/155
f 161/161/161 160/160/160 159/159/159
f 162/162/162 161/161/161 159/159/159
f 161/161/161 162/162/162 163/163/163
f 164/164/164 161/161/161 163/163/163
f 165/165/165 164/164/164 163/163/163
f 166/166/166 165/165/165 163/163/163
f 169/169/169 168/168/168 167/167/167
f 170/170/170 169/169/169 167/167/167
f 173/173/173 172/172/172 171/171/171
f 174/174/174 173/173/173 171/171/171
f 177/177/177 176/176/176 175/175/175
f 178/178/178 177/177/177 175/175/175
f 179/179/179 177/177/177 178/178/178
f 180/180/180 179/179/179 178/178/178
f 181/181/181 179/179/179 180/180/180
f 182/182/182 181/181/181 180/180/180
f 185/185/185 184/184/184 183/183/183
f 186/186/186 185/185/185 183/183/183
f 189/189/189 188/188/188 187/187/187
f 190/190/190 189/189/189 187/187/187
f 193/193/193 192/192/192 191/191/191
f 194/194/194 193/193/193 191/191/191
f 195/195/195 193/193/193 194/194/194
f 196/196/196 195/195/195 194/194/194
f 197/197/197 195/195/195 196/196/196
f 198/198/198 197/197/197 196/196/196
f 201/201/201 200/200/200 199/199/199
f 200/200/200 202/202/202 199/199/199
f 200/200/200 203/203/203 202/202/202
f 203/203/203 204/204/204 202/202/202
f 207/207/207 206/206/206 205/205/205
f 206/206/206 208/208/208 205/205/205
f 209/209/209 208/208/208 206/206/206
f 210/210/210 209/209/209 206/206/206
f 210/210/210 211/211/211 209/209/209
f 211/211/211 212/212/212 209/209/209
f 215/215/215 214/214/214 213/213/213
f 216/216/216 215/215/215 213/213/213
f 219/219/219 218/218/218 217/217/217
f 220/220/220 219/219/219 217/217/217
f 223/223/223 222/222/222 221/221/221
f 222/222/222 224/224/224 221/221/221
f 224/224/224 222/222/222 225/225/225
f 222/222/222 226/226/226 225/225/225
f 226/226/226 227/227/227 225/225/225
f 227/227/227 228/228/228 225/225/225
f 231/231/231 230/230/230 229/229/229
f 232/232/232 231/231/231 229/229/229
f 235/235/235 234/234/234 233/233/233
f 236/236/236 235/235/235 233/233/233
f 239/239/239 238/238/238 237/237/237
f 238/238/238 240/240/240 237/237/237
f 238/238/238 241/241/241 240/240/240
f 241/241/241 242/242/242 240/240/240
f 241/241/241 243/243/243 242/242/242
f 243/243/243 244/244/244 242/242/242
f 247/247/247 246/246/246 245/245/245
f 248/248/248 247/247/247 245/245/245
f 251/251/251 250/250/250 249/249/249
f 252/252/252 251/251/251 249/249/249
f 255/255/255 254/254/254 253/253/253
f 254/254/254 256/256/256 253/253/253
f 254/254/254 257/257/257 256/256/256
f 257/257/257 258/258/258 256/256/256
f 257/257/257 259/259/259 258/258/258
f 259/259/259 260/260/260 258/258/258
f 263/263/263 262/262/262 261/261/261
f 264/264/264 262/262/262 263/263/263
f 265/265/265 262/262/262 264/264/264
f 261/261/261 262/262/262 266/266/266
f 265/265/265 267/267/267 262/262/262
f 262/262/262 268/268/268 266/266/266
f 267/267/267 268/268/268 262/262/262
f 268/268/268 269/269/269 266/266/266
f 270/270/270 268/268/268 267/267/267
f 269/269/269 268/268/268 271/271/271
f 272/272/272 268/268/268 270/270/270
f 271/271/271 268/268/268 272/272/272
f 275/275/275 274/274/274 273/273/273
f 275/275/275 276/276/276 274/274/274
f 275/275/275 277/277/277 276/276/276
f 275/275/275 273/273/273 278/278/278
f 279/279/279 277/277/277 275/275/275
f 280/280/280 275/275/275 278/278/278
f 280/280/280 279/279/279 275/275/275
f 281/281/281 280/280/280 278/278/278
f 280/280/280 282/282/282 279/279/279
f 280/280/280 281/281/281 283/283/283
f 280/280/280 284/284/284 282/282/282
f 280/280/280 283/283/283 284/284/284
f 287/287/287 286/286/286 285/285/285
f 288/288/288 287/287/287 285/285/285
f 285/285/285 286/286/286 289/289/289
f 290/290/290 287/287/287 288/288/288
f 286/286/286 291/291/291 289/289/289
f 292/292/292 290/290/290 288/288/288
f 289/289/289 291/291/291 293/293/293
f 294/294/294 290/290/290 292/292/292
f 291/291/291 295/295/295 293/293/293
f 296/296/296 294/294/294 292/292/292
f 293/293/293 295/295/295 297/297/297
f 298/298/298 294/294/294 296/296/296
f 295/295/295 299/299/299 297/297/297
f 300/300/300 298/298/298 296/296/296
f 297/297/297 299/299/299 301/301/301
f 302/302/302 298/298/298 300/300/300
f 299/299/299 303/303/303 301/301/301
f 304/304/304 302/302/302 300/300/300
f 301/301/301 303/303/303 304/304/304
f 303/303/303 302/302/302 304/304/304
f 307/307/307 306/306/306 305/305/305
f 306/306/306 308/308/308 305/305/305
f 307/307/307 305/305/305 309/309/309
f 306/306/306 310/310/310 308/308/308
f 311/311/311 307/307/307 309/309/309
f 310/310/310 312/312/312 308/308/308
f 311/311/311 309/309/309 313/313/313
f 310/310/310 314/314/314 312/312/312
f 315/315/315 311/311/311 313/313/313
f 314/314/314 316/316/316 312/312/312
f 315/315/315 313/313/313 317/317/317
f 314/314/314 318/318/318 316/316/316
f 319/319/319 315/315/315 317/317/317
f 318/318/318 320/320/320 316/316/316
f 319/319/319 317/317/317 321/321/321
f 318/318/318 322/322/322 320/320/320
f 323/323/323 319/319/319 321/321/321
f 322/322/322 324/324/324 320/320/320
f 323/323/323 321/321/321 324/324/324
f 322/322/322 323/323/323 324/324/324

