mtllib Cabinet_b69a8cbf.mtl
v -0.14 0.31919 0.02525
v -0.17419 0.3192 0.02526
v -0.17582 0.32083 0.02699
v -0.08499 0.31919 0.02535
v -0.13999 0.32085 0.02699
v -0.085 0.32085 0.02709
v -0.0508 0.3192 0.02536
v -0.04911 0.32083 0.02709
v -0.14 0.31919 0.02525
v -0.17582 0.32083 0.02699
v -0.13999 0.32085 0.02699
v -0.08499 -0.31918 0.02535
v -0.0508 -0.31919 0.02536
v -0.04911 -0.32081 0.02709
v -0.14 -0.31918 0.02525
v -0.085 -0.32085 0.02709
v -0.13999 -0.32085 0.02699
v -0.17419 -0.31919 0.02526
v -0.17582 -0.32081 0.02699
v -0.08499 -0.31918 0.02535
v -0.04911 -0.32081 0.02709
v -0.085 -0.32085 0.02709
v -0.22864 -0.37363 0.02699
v -0.14 -0.375 0.02539
v -0.23 -0.375 0.02539
v -0.14 -0.37368 0.02699
v -0.08499 -0.375 0.02549
v -0.08499 -0.37368 0.02709
v 0.00501 -0.375 0.02549
v 0.00363 -0.37363 0.02709
v -0.08499 -0.375 9E-05
v 0.00501 -0.375 0.02549
v 0.00501 -0.375 9E-05
v -0.08499 -0.375 0.02549
v -0.14 -0.375 0.02539
v -0.14 -0.375 -1E-05
v -0.23 -0.375 -1E-05
v -0.23 -0.375 0.02539
v 0.00363 -0.37363 0.02709
v 0.00501 -0.285 0.02549
v 0.00501 -0.375 0.02549
v 0.00369 -0.285 0.02709
v 0.00501 0.285 0.02549
v 0.00369 0.285 0.02709
v 0.00501 0.375 0.02549
v 0.00363 0.37368 0.02709
v 0.00501 0.285 9E-05
v 0.00501 0.375 0.02549
v 0.00501 0.375 9E-05
v 0.00501 0.285 0.02549
v 0.00501 -0.285 0.02549
v 0.00501 -0.285 9E-05
v 0.00501 -0.375 9E-05
v 0.00501 -0.375 0.02549
v -0.08499 0.375 0.02549
v 0.00501 0.375 0.02549
v 0.00363 0.37368 0.02709
v -0.08499 0.37365 0.02709
v -0.14 0.375 0.02539
v -0.14 0.37365 0.02699
v -0.23 0.375 0.02539
v -0.22864 0.37368 0.02699
v -0.14 0.375 -1E-05
v -0.23 0.375 0.02539
v -0.23 0.375 -1E-05
v -0.14 0.375 0.02539
v -0.08499 0.375 0.02549
v -0.08499 0.375 9E-05
v 0.00501 0.375 9E-05
v 0.00501 0.375 0.02549
v -0.23 0.28501 0.02539
v -0.23 0.375 0.02539
v -0.22864 0.37368 0.02699
v -0.22866 0.28501 0.02699
v -0.23 -0.285 0.02539
v -0.22866 -0.285 0.02699
v -0.23 -0.375 0.02539
v -0.22864 -0.37363 0.02699
v -0.23 0.375 -1E-05
v -0.23 0.375 0.02539
v -0.23 0.28501 0.02539
v -0.23 0.28501 -1E-05
v -0.23 -0.285 -1E-05
v -0.23 -0.285 0.02539
v -0.23 -0.375 0.02539
v -0.23 -0.375 -1E-05
v -0.17419 0.3192 0.02526
v -0.17584 0.285 0.02699
v -0.17582 0.32083 0.02699
v -0.17418 0.28501 0.02525
v -0.17584 -0.28499 0.02699
v -0.17418 -0.285 0.02525
v -0.17582 -0.32081 0.02699
v -0.17419 -0.31919 0.02526
v -0.1727 0.28501 0.01299
v -0.17419 0.3192 0.02526
v -0.1727 0.3177 0.01299
v -0.17418 0.28501 0.02525
v -0.17418 -0.285 0.02525
v -0.1727 -0.285 0.01299
v -0.1727 -0.3177 0.01299
v -0.17419 -0.31919 0.02526
v -0.1727 0.3177 0.01299
v -0.17419 0.3192 0.02526
v -0.14 0.31919 0.02525
v -0.14 0.3177 0.01299
v -0.08499 0.3177 0.01309
v -0.08499 0.31919 0.02535
v -0.0508 0.3192 0.02536
v -0.05229 0.3177 0.01309
v -0.05081 0.285 0.02535
v -0.0508 0.3192 0.02536
v -0.04911 0.32083 0.02709
v -0.0492 0.285 0.02709
v -0.05081 -0.285 0.02535
v -0.0492 -0.28499 0.02709
v -0.0508 -0.31919 0.02536
v -0.04911 -0.32081 0.02709
v -0.05229 0.3177 0.01309
v -0.0508 0.3192 0.02536
v -0.05081 0.285 0.02535
v -0.05229 0.285 0.01309
v -0.05229 -0.285 0.01309
v -0.05081 -0.285 0.02535
v -0.0508 -0.31919 0.02536
v -0.05229 -0.3177 0.01309
v -0.05229 -0.3177 0.01309
v -0.0508 -0.31919 0.02536
v -0.08499 -0.31918 0.02535
v -0.08499 -0.3177 0.01309
v -0.14 -0.3177 0.01299
v -0.14 -0.31918 0.02525
v -0.17419 -0.31919 0.02526
v -0.1727 -0.3177 0.01299
v -0.05229 0.285 0.01309
v -0.08499 0.3177 0.01309
v -0.05229 0.3177 0.01309
v -0.08499 0.285 0.01309
v -0.14 0.3177 0.01299
v -0.08499 -0.285 0.01309
v -0.05229 -0.285 0.01309
v -0.05229 -0.3177 0.01309
v -0.08499 -0.3177 0.01309
v -0.14 0.28501 0.01299
v -0.1727 0.3177 0.01299
v -0.1727 0.28501 0.01299
v -0.1727 -0.285 0.01299
v -0.14 -0.285 0.01299
v -0.14 -0.3177 0.01299
v -0.1727 -0.3177 0.01299
v -0.08499 0.375 9E-05
v 0.00501 0.285 9E-05
v 0.00501 0.375 9E-05
v -0.08499 0.285 9E-05
v 0.00501 -0.285 9E-05
v -0.14 0.28501 -1E-05
v -0.14 0.375 -1E-05
v -0.23 0.375 -1E-05
v -0.23 0.28501 -1E-05
v -0.08499 -0.285 9E-05
v 0.00501 -0.375 9E-05
v -0.08499 -0.375 9E-05
v -0.14 -0.375 -1E-05
v -0.14 -0.285 -1E-05
v -0.23 -0.285 -1E-05
v -0.23 -0.375 -1E-05
v -0.17582 0.32083 0.02699
v -0.17584 0.285 0.02699
v -0.22866 0.28501 0.02699
v -0.22864 0.37368 0.02699
v -0.22866 -0.285 0.02699
v -0.13999 0.32085 0.02699
v -0.17584 -0.28499 0.02699
v -0.14 0.37365 0.02699
v -0.22864 -0.37363 0.02699
v -0.085 0.32085 0.02709
v -0.17582 -0.32081 0.02699
v -0.08499 0.37365 0.02709
v -0.14 -0.37368 0.02699
v -0.04911 0.32083 0.02709
v -0.13999 -0.32085 0.02699
v 0.00363 0.37368 0.02709
v -0.08499 -0.37368 0.02709
v -0.0492 0.285 0.02709
v -0.085 -0.32085 0.02709
v 0.00369 0.285 0.02709
v 0.00363 -0.37363 0.02709
v -0.0492 -0.28499 0.02709
v -0.04911 -0.32081 0.02709
v 0.00369 -0.285 0.02709
vt 0.4238498 4.567565
vt 0.402329 4.567581
vt 0.4012991 4.570472
vt 0.4584692 4.567732
vt 0.4238504 4.570472
vt 0.4584689 4.57064
vt 0.4799901 4.567748
vt 0.4810538 4.57064
vt 0.4238498 4.567565
vt 0.4012991 4.570472
vt 0.4238504 4.570472
vt 1.306236 4.567733
vt 1.284714 4.567749
vt 1.283651 4.57064
vt 1.340856 4.567565
vt 1.306236 4.57064
vt 1.340856 4.570472
vt 1.362378 4.567582
vt 1.363408 4.570472
vt 1.306236 4.567733
vt 1.283651 4.57064
vt 1.306236 4.57064
vt 4.169143 3.987221
vt 4.242078 3.985243
vt 4.168031 3.985243
vt 4.242078 3.987221
vt 4.287333 3.985366
vt 4.287333 3.987345
vt 4.36138 3.985366
vt 4.360251 3.987345
vt 4.287333 3.953954
vt 4.36138 3.985366
vt 4.36138 3.953954
vt 4.287333 3.985366
vt 4.242078 3.985243
vt 4.242078 3.95383
vt 4.168031 3.95383
vt 4.168031 3.985243
vt 1.600618 1.904502
vt 1.602637 1.975994
vt 1.602637 1.903399
vt 1.600618 1.975994
vt 1.602637 2.435771
vt 1.600618 2.435771
vt 1.602637 2.508367
vt 1.600618 2.507295
vt 1.634676 2.435771
vt 1.602637 2.508367
vt 1.634676 2.508367
vt 1.602637 2.435771
vt 1.602637 1.975994
vt 1.634676 1.975994
vt 1.634676 1.903399
vt 1.602637 1.903399
vt 4.242076 4.279488
vt 4.168011 4.279488
vt 4.169142 4.281466
vt 4.242076 4.281466
vt 4.287336 4.279364
vt 4.287335 4.281343
vt 4.3614 4.279364
vt 4.360287 4.281343
vt 4.287336 4.247946
vt 4.3614 4.279364
vt 4.3614 4.247946
vt 4.287336 4.279364
vt 4.242076 4.279488
vt 4.242076 4.24807
vt 4.168011 4.24807
vt 4.168011 4.279488
vt 1.926778 2.435817
vt 1.926778 2.508428
vt 1.928797 2.507355
vt 1.928797 2.435817
vt 1.926779 1.975948
vt 1.928797 1.975948
vt 1.926779 1.903337
vt 1.928797 1.904441
vt 1.894733 2.508428
vt 1.926778 2.508428
vt 1.926778 2.435817
vt 1.894733 2.435817
vt 1.894733 1.975948
vt 1.926779 1.975948
vt 1.926779 1.903337
vt 1.894733 1.903337
vt 3.961233 2.1015
vt 3.958174 2.081175
vt 3.958174 2.102472
vt 3.96125 2.081175
vt 3.958174 1.742349
vt 3.96125 1.742349
vt 3.958174 1.721058
vt 3.961233 1.722026
vt 3.983001 2.081175
vt 3.961233 2.1015
vt 3.983001 2.100614
vt 3.96125 2.081175
vt 3.96125 1.742349
vt 3.983001 1.742349
vt 3.983001 1.722912
vt 3.961233 1.722026
vt 0.4032671 4.547009
vt 0.402329 4.567581
vt 0.4238498 4.567565
vt 0.4238498 4.547009
vt 0.4584692 4.547176
vt 0.4584692 4.567732
vt 0.4799901 4.567748
vt 0.4790518 4.547176
vt 3.685798 2.080985
vt 3.685815 2.101288
vt 3.68887 2.102258
vt 3.68887 2.080985
vt 3.685798 1.742539
vt 3.68887 1.74254
vt 3.685815 1.722239
vt 3.68887 1.721272
vt 3.664072 2.100402
vt 3.685815 2.101288
vt 3.685798 2.080985
vt 3.664072 2.080985
vt 3.664072 1.742539
vt 3.685798 1.742539
vt 3.685815 1.722239
vt 3.664072 1.723124
vt 1.285653 4.547176
vt 1.284714 4.567749
vt 1.306236 4.567733
vt 1.306236 4.547176
vt 1.340856 4.547008
vt 1.340856 4.567565
vt 1.362378 4.567582
vt 1.36144 4.547008
vt 4.623641 2.176461
vt 4.588434 2.206831
vt 4.623641 2.206831
vt 4.588434 2.176461
vt 4.529213 2.206831
vt 4.588434 1.647068
vt 4.623641 1.647068
vt 4.623641 1.616698
vt 4.588434 1.616698
vt 4.529213 2.176461
vt 4.494006 2.206831
vt 4.494006 2.176461
vt 4.494006 1.647069
vt 4.529214 1.647069
vt 4.529214 1.616698
vt 4.494006 1.616698
vt 0.707296 2.574212
vt 0.6156659 2.485813
vt 0.6156659 2.574212
vt 0.707296 2.485813
vt 0.6156659 1.925952
vt 0.7632928 2.485813
vt 0.7632928 2.574212
vt 0.8549224 2.574212
vt 0.8549224 2.485813
vt 0.707296 1.925952
vt 0.6156659 1.837553
vt 0.707296 1.837553
vt 0.7632927 1.837553
vt 0.7632927 1.925952
vt 0.8549226 1.925952
vt 0.8549226 1.837553
vt 2.729381 2.519785
vt 2.729359 2.484733
vt 2.675374 2.484734
vt 2.675393 2.571489
vt 2.675374 1.927045
vt 2.766 2.519808
vt 2.729359 1.927045
vt 2.765999 2.571464
vt 2.675393 1.840328
vt 2.822214 2.519808
vt 2.729381 1.892
vt 2.822214 2.571464
vt 2.765999 1.840276
vt 2.858886 2.519785
vt 2.766 1.891963
vt 2.912799 2.571489
vt 2.822214 1.840276
vt 2.858799 2.484733
vt 2.822214 1.891963
vt 2.912861 2.484733
vt 2.912799 1.840327
vt 2.858799 1.927045
vt 2.858886 1.892
vt 2.912861 1.927045
vt 4.242076 4.281466
vt 4.287336 4.247946
vt 4.242076 4.24807
vt 4.588434 1.647068
vt 0.707296 2.574212
vt 0.707296 2.485813
vt 0.7632928 2.485813
vt 0.7632928 2.574212
vt 0.707296 1.925952
vt 0.707296 1.837553
vt 0.7632927 1.837553
vt 0.7632927 1.925952
vn 0.0001554369 -0.7255229 0.688198
vn 0.0001554369 -0.7255229 0.688198
vn 0.0001554369 -0.7255229 0.688198
vn -0.001253903 -0.7223243 0.6915534
vn -0.001253903 -0.7223243 0.6915534
vn -0.0001806768 -0.7226163 0.6912493
vn -0.0004731968 -0.7253123 0.6884198
vn -0.0004829724 -0.7254022 0.688325
vn 0.000478989 -0.722291 0.6915892
vn 0.000478989 -0.722291 0.6915892
vn 0.0004789889 -0.722291 0.6915891
vn -0.0001682258 0.7271364 0.686493
vn -0.0001682258 0.7271364 0.6864929
vn -0.0001682258 0.7271364 0.686493
vn -0.00125658 0.7209861 0.6929483
vn -0.00125658 0.7209861 0.6929484
vn 0.000162839 0.7208318 0.69311
vn 0.000162839 0.7208318 0.69311
vn 0.0007717988 0.7268527 0.686793
vn -0.0007688866 0.720915 0.6930231
vn -0.0007688865 0.7209151 0.693023
vn -0.0007688865 0.720915 0.6930231
vn -0.0004549546 -0.7723697 0.6351732
vn -0.0007267921 -0.772377 0.635164
vn 0 -0.7598185 0.6501353
vn -0.0007205562 -0.7723768 0.6351641
vn -0.001158776 -0.7723886 0.6351492
vn -0.001158391 -0.7723469 0.6351999
vn 0 -0.7724119 0.6351219
vn 0.0004508168 -0.7598169 0.650137
vn 0 -1 0
vn 0 -1 0
vn 0 -1 0
vn 0 -1 0
vn -1.053073E-06 -1 0
vn -1.051567E-06 -1 0
vn 0 -1 0
vn 0 -1 0
vn 0.7734106 -0.000532652 0.6339052
vn 0.7734703 -7.073977E-05 0.6338325
vn 0.7590394 0 0.6510448
vn 0.7734702 -7.182967E-05 0.6338328
vn 0.7734795 0 0.6338214
vn 0.7734129 0 0.6339025
vn 0.7734285 0 0.6338835
vn 0.7587745 0.000522392 0.6513532
vn 1 0 0
vn 1 0 0
vn 1 0 0
vn 1 0 0
vn 1 0 0
vn 1 0 0
vn 1 0 0
vn 1 0 0
vn 0 0.7692037 0.6390036
vn 0 0.7692037 0.6390036
vn 0 0.7692037 0.6390036
vn -0.000579572 0.7632212 0.646137
vn -0.001177877 0.7632868 0.6460587
vn -0.001177654 0.7632109 0.6461484
vn 0 0.7632193 0.6461396
vn 0.0002192781 0.7692607 0.638935
vn 0 1 0
vn 0 1 0
vn 0 1 0
vn 0 1 0
vn 0 1 0
vn 0 1 0
vn 0 1 0
vn 0 1 0
vn -0.7639682 0 0.6452539
vn -0.7639682 0 0.6452539
vn -0.7639682 0 0.6452539
vn -0.7685273 0.0001652889 0.6398169
vn -0.7685158 1.16866E-06 0.6398308
vn -0.7683047 0 0.6400843
vn -0.7683047 0 0.6400843
vn -0.7637182 -0.0001633967 0.6455497
vn -1 0 0
vn -1 0 0
vn -1 0 0
vn -1 0 0
vn -1 6.323606E-07 0
vn -1 2.730711E-07 0
vn -1 0 0
vn -1 0 0
vn 0.7253007 -0.0004365183 0.6884321
vn 0.722616 -0.0001701837 0.6912497
vn 0.725391 -0.0004454893 0.688337
vn 0.7224823 -0.0001569582 0.6913894
vn 0.7224734 0.0004459548 0.6913986
vn 0.7254522 0.0001608312 0.6882725
vn 0.7254522 0.0001608312 0.6882725
vn 0.7254522 0.0001608312 0.6882725
vn 0.9927095 5.68189E-06 0.1205311
vn 0.9927084 1.785083E-06 0.1205406
vn 0.9927079 0 0.120545
vn 0.99271 7.224122E-06 0.1205273
vn 0.9927102 0 0.120526
vn 0.9927084 2.166532E-07 0.120541
vn 0.9927083 0 0.1205414
vn 0.9927073 -3.609359E-06 0.1205499
vn -3.609289E-06 -0.9927099 0.1205286
vn -3.60929E-06 -0.9927099 0.1205286
vn -3.60929E-06 -0.9927099 0.1205286
vn 0 -0.9927077 0.1205465
vn -0.0002222847 -0.99271 0.1205277
vn -0.0002178012 -0.9927094 0.1205316
vn 0 -0.9927058 0.1205624
vn 0 -0.9927044 0.1205743
vn -0.7142306 -0.0001841564 0.6999103
vn -0.7142306 -0.0001841564 0.6999103
vn -0.7142305 -0.0001841564 0.6999104
vn -0.733923 0.001761812 0.6792303
vn -0.7339624 0 0.6791902
vn -0.733949 0.000173986 0.6792045
vn -0.7339489 0.000173986 0.6792045
vn -0.715094 -0.001713202 0.6990262
vn -0.9927077 -7.218446E-06 0.1205462
vn -0.9927077 -7.218445E-06 0.1205462
vn -0.9927077 -7.218445E-06 0.1205462
vn -0.9927052 0 0.1205664
vn -0.9927053 0 0.1205657
vn -0.9927056 0 0.1205625
vn -0.9927071 1.785017E-06 0.1205513
vn -0.9927077 0 0.1205469
vn 0 0.9927072 0.1205505
vn 0 0.9927072 0.1205505
vn 0 0.9927072 0.1205505
vn 0 0.9927071 0.1205515
vn -0.0002155574 0.9927093 0.1205325
vn -0.0002133877 0.99271 0.1205276
vn -8.925265E-07 0.9927085 0.1205399
vn 0 0.9927078 0.1205459
vn 0 0 1
vn 0 0 1
vn 0 0 1
vn 0 0 1
vn 0 0 1
vn 0 0 1
vn 0 0 1
vn 0 0 1
vn 0 0 1
vn 0 0 1
vn 0 0 1
vn 0 0 1
vn 0 0 1
vn -0.001826216 0 0.9999983
vn -0.001818968 0 0.9999983
vn 0 0 1
vn 0 0 -1
vn 0 0 -1
vn 0 0 -1
vn 0 0 -1
vn 0 0 -1
vn 0 0 -1
vn 0 0 -1
vn 0 0 -1
vn 0 0 -1
vn 0 0 -1
vn 0 0 -1
vn 0 0 -1
vn 0.001824868 0 -0.9999983
vn 0.001819298 0 -0.9999983
vn 0 0 -1
vn 0 0 -1
vn -2.896629E-06 0 1
vn -3.816168E-07 0 1
vn -3.618438E-07 0 1
vn -1.569387E-06 0 1
vn -1.403441E-06 0 1
vn -0.0007953533 0 0.9999998
vn -7.024319E-07 0 1
vn -0.0006968126 0 0.9999998
vn -3.02712E-06 0 1
vn -0.001103798 0 0.9999994
vn 4.791376E-06 0 1
vn -0.0008098998 0 0.9999996
vn -0.0008111143 0 0.9999996
vn -2.716951E-06 0 1
vn -0.001103565 0 0.9999994
vn 5.911519E-06 0 1
vn -0.0006987313 0 0.9999998
vn -5.06246E-06 0 1
vn -0.0007988585 0 0.9999998
vn -3.875109E-06 0 1
vn -1.294902E-06 0 1
vn -3.590743E-07 0 1
vn -6.105128E-07 0 1
vn -2.241675E-07 0 1
vn 0 -1 0
vn 0 -1 0
vn 0 -1 0
vn 0 -1 0
vn 0 -1 0
vn 1 0 0
vn 1 0 0
vn 1 0 0
vn 1 0 0
vn 1 0 0
vn 1 0 0
vn 1 0 0
vn 1 0 0
vn 0 1 0
vn 0 1 0
vn 0 1 0
vn 0 1 0
vn 0 1 0
vn 0 1 0
vn 0 1 0
vn 0 1 0
vn -1 0 0
vn -1 0 0
vn -1 0 0
vn -1 0 0
vn -1 0 0
vn -1 0 0
vn -1 0 0
vn 0 0 1
vn 0 0 1
vn 0 0 1
vn 0 0 1
vn 0 0 1
vn 0 0 1
vn 0 0 1
vn 0 0 1
vn 0 0 1
vn 0 0 1
vn 0 0 1
vn 0 0 1
vn 0 0 1
vn 0 0 1
vn 0 0 -1
vn 0 0 -1
vn 0 0 -1
vn 0 0 -1
vn 0 0 -1
vn 0 0 -1
vn 0 0 -1
vn 0 0 -1
vn 0 0 -1
vn 0 0 -1
vn 0 0 -1
vn 0 0 -1
vn 0.001824868 0 -0.9999983
vn 0 0 -1
vn 0 0 -1
vn 0 0 1
vn 0 0 1
usemtl WhiteWoodClean
f 3/3/3 2/2/2 1/1/1
f 5/5/5 1/1/1 4/4/4
f 6/6/6 5/5/5 4/4/4
f 6/6/6 4/4/4 7/7/7
f 8/8/8 6/6/6 7/7/7
f 11/11/11 10/10/10 9/9/9
f 14/14/14 13/13/13 12/12/12
f 16/16/16 12/12/12 15/15/15
f 17/17/17 16/16/16 15/15/15
f 17/17/17 15/15/15 18/18/18
f 19/19/19 17/17/17 18/18/18
f 22/22/22 21/21/21 20/20/20
f 25/25/25 24/24/24 23/23/23
f 24/24/24 26/26/26 23/23/23
f 26/26/26 24/24/24 27/27/27
f 28/28/28 26/26/26 27/27/27
f 27/27/27 29/29/29 28/28/28
f 29/29/29 30/30/30 28/28/28
f 33/33/33 32/32/32 31/31/31
f 32/32/32 34/34/34 31/31/31
f 31/31/31 34/34/34 35/35/35
f 36/36/36 31/31/31 35/35/35
f 36/36/36 35/35/35 37/37/37
f 35/35/35 38/38/38 37/37/37
f 41/41/41 40/40/40 39/39/39
f 40/40/40 42/42/42 39/39/39
f 42/42/42 40/40/40 43/43/43
f 44/44/44 42/42/42 43/43/43
f 43/43/43 45/45/45 44/44/44
f 45/45/45 46/46/46 44/44/44
f 49/49/49 48/48/48 47/47/47
f 48/48/48 50/50/50 47/47/47
f 47/47/47 50/50/50 51/51/51
f 52/52/52 47/47/47 51/51/51
f 52/52/52 51/51/51 53/53/53
f 51/51/51 54/54/54 53/53/53
f 57/57/57 56/56/56 55/55/55
f 58/58/58 57/57/57 55/55/55
f 58/58/58 55/55/55 59/59/59
f 60/60/60 58/58/58 59/59/59
f 60/60/60 59/59/59 61/61/61
f 62/62/62 60/60/60 61/61/61
f 65/65/65 64/64/64 63/63/63
f 64/64/64 66/66/66 63/63/63
f 63/63/63 66/66/66 67/67/67
f 68/68/68 63/63/63 67/67/67
f 68/68/68 67/67/67 69/69/69
f 67/67/67 70/70/70 69/69/69
f 73/73/73 72/72/72 71/71/71
f 74/74/74 73/73/73 71/71/71
f 74/74/74 71/71/71 75/75/75
f 76/76/76 74/74/74 75/75/75
f 75/75/75 77/77/77 76/76/76
f 77/77/77 78/78/78 76/76/76
f 81/81/81 80/80/80 79/79/79
f 82/82/82 81/81/81 79/79/79
f 82/82/82 83/83/83 81/81/81
f 83/83/83 84/84/84 81/81/81
f 85/85/85 84/84/84 83/83/83
f 86/86/86 85/85/85 83/83/83
f 89/89/89 88/88/88 87/87/87
f 88/88/88 90/90/90 87/87/87
f 90/90/90 88/88/88 91/91/91
f 92/92/92 90/90/90 91/91/91
f 91/91/91 93/93/93 92/92/92
f 93/93/93 94/94/94 92/92/92
f 97/97/97 96/96/96 95/95/95
f 96/96/96 98/98/98 95/95/95
f 95/95/95 98/98/98 99/99/99
f 100/100/100 95/95/95 99/99/99
f 100/100/100 99/99/99 101/101/101
f 99/99/99 102/102/102 101/101/101
f 105/105/105 104/104/104 103/103/103
f 106/106/106 105/105/105 103/103/103
f 106/106/106 107/107/107 105/105/105
f 107/107/107 108/108/108 105/105/105
f 109/109/109 108/108/108 107/107/107
f 110/110/110 109/109/109 107/107/107
f 113/113/113 112/112/112 111/111/111
f 114/114/114 113/113/113 111/111/111
f 114/114/114 111/111/111 115/115/115
f 116/116/116 114/114/114 115/115/115
f 116/116/116 115/115/115 117/117/117
f 118/118/118 116/116/116 117/117/117
f 121/121/121 120/120/120 119/119/119
f 122/122/122 121/121/121 119/119/119
f 121/121/121 122/122/122 123/123/123
f 124/124/124 121/121/121 123/123/123
f 125/125/125 124/124/124 123/123/123
f 126/126/126 125/125/125 123/123/123
f 129/129/129 128/128/128 127/127/127
f 130/130/130 129/129/129 127/127/127
f 130/130/130 131/131/131 129/129/129
f 131/131/131 132/132/132 129/129/129
f 133/133/133 132/132/132 131/131/131
f 134/134/134 133/133/133 131/131/131
f 137/137/137 136/136/136 135/135/135
f 136/136/136 138/138/138 135/135/135
f 138/138/138 136/136/136 139/139/139
f 135/135/135 138/138/138 140/140/140
f 141/141/141 135/135/135 140/140/140
f 141/141/141 140/140/140 142/142/142
f 140/140/140 143/143/143 142/142/142
f 144/144/144 138/138/138 139/139/139
f 138/138/138 144/144/144 140/140/140
f 139/139/139 145/145/145 144/144/144
f 145/145/145 146/146/146 144/144/144
f 144/144/144 146/146/146 147/147/147
f 143/143/143 140/140/140 148/148/148
f 144/144/144 148/148/148 140/140/140
f 148/148/148 144/144/144 147/147/147
f 149/149/149 143/143/143 148/148/148
f 148/148/148 147/147/147 149/149/149
f 147/147/147 150/150/150 149/149/149
f 153/153/153 152/152/152 151/151/151
f 152/152/152 154/154/154 151/151/151
f 154/154/154 152/152/152 155/155/155
f 151/151/151 154/154/154 156/156/156
f 157/157/157 151/151/151 156/156/156
f 157/157/157 156/156/156 158/158/158
f 156/156/156 159/159/159 158/158/158
f 160/160/160 154/154/154 155/155/155
f 154/154/154 160/160/160 156/156/156
f 155/155/155 161/161/161 160/160/160
f 161/161/161 162/162/162 160/160/160
f 162/162/162 163/163/163 160/160/160
f 156/156/156 164/164/164 159/159/159
f 160/160/160 164/164/164 156/156/156
f 163/163/163 164/164/164 160/160/160
f 164/164/164 165/165/165 159/159/159
f 164/164/164 163/163/163 165/165/165
f 163/163/163 166/166/166 165/165/165
f 169/169/169 168/168/168 167/167/167
f 170/170/170 169/169/169 167/167/167
f 168/168/168 169/169/169 171/171/171
f 170/170/170 167/167/167 172/172/172
f 173/173/173 168/168/168 171/171/171
f 174/174/174 170/170/170 172/172/172
f 171/171/171 175/175/175 173/173/173
f 174/174/174 172/172/172 176/176/176
f 175/175/175 177/177/177 173/173/173
f 178/178/178 174/174/174 176/176/176
f 175/175/175 179/179/179 177/177/177
f 178/178/178 176/176/176 180/180/180
f 179/179/179 181/181/181 177/177/177
f 182/182/182 178/178/178 180/180/180
f 179/179/179 183/183/183 181/181/181
f 182/182/182 180/180/180 184/184/184
f 183/183/183 185/185/185 181/181/181
f 186/186/186 182/182/182 184/184/184
f 183/183/183 187/187/187 185/185/185
f 186/186/186 184/184/184 188/188/188
f 187/187/187 189/189/189 185/185/185
f 190/190/190 186/186/186 188/188/188
f 187/187/187 190/190/190 189/189/189
f 190/190/190 188/188/188 189/189/189
