mtllib Cabinet_b69a8cbf.mtl
v 0.085 0.31919 0.02527
v 0.05081 0.3192 0.02528
v 0.04918 0.32083 0.027
v 0.14001 0.31919 0.02537
v 0.08501 0.32085 0.027
v 0.14 0.32085 0.0271
v 0.1742 0.3192 0.02538
v 0.17589 0.32083 0.0271
v 0.085 0.31919 0.02527
v 0.04918 0.32083 0.027
v 0.08501 0.32085 0.027
v 0.14001 -0.31918 0.02537
v 0.1742 -0.31919 0.02538
v 0.17589 -0.32081 0.0271
v 0.085 -0.31918 0.02527
v 0.14 -0.32085 0.0271
v 0.08501 -0.32085 0.027
v 0.05081 -0.31919 0.02528
v 0.04918 -0.32081 0.027
v 0.14001 -0.31918 0.02537
v 0.17589 -0.32081 0.0271
v 0.14 -0.32085 0.0271
v -0.00364 -0.37363 0.027
v 0.085 -0.375 0.02541
v -0.005 -0.375 0.02541
v 0.085 -0.37368 0.027
v 0.14001 -0.375 0.02551
v 0.14001 -0.37368 0.0271
v 0.23001 -0.375 0.02551
v 0.22863 -0.37363 0.0271
v 0.14001 -0.375 0.00011
v 0.23001 -0.375 0.02551
v 0.23001 -0.375 0.00011
v 0.14001 -0.375 0.02551
v 0.085 -0.375 0.02541
v 0.085 -0.375 0
v -0.005 -0.375 0
v -0.005 -0.375 0.02541
v 0.22863 -0.37363 0.0271
v 0.23001 -0.285 0.02551
v 0.23001 -0.375 0.02551
v 0.22869 -0.285 0.0271
v 0.23001 0.285 0.02551
v 0.22869 0.285 0.0271
v 0.23001 0.37501 0.02551
v 0.22863 0.37368 0.0271
v 0.23001 0.285 0.00011
v 0.23001 0.37501 0.02551
v 0.23001 0.37501 0.00011
v 0.23001 0.285 0.02551
v 0.23001 -0.285 0.02551
v 0.23001 -0.285 0.00011
v 0.23001 -0.375 0.00011
v 0.23001 -0.375 0.02551
v 0.14001 0.37501 0.02551
v 0.23001 0.37501 0.02551
v 0.22863 0.37368 0.0271
v 0.14001 0.37365 0.0271
v 0.085 0.37501 0.02541
v 0.085 0.37365 0.027
v -0.005 0.37501 0.02541
v -0.00364 0.37368 0.027
v 0.085 0.37501 0
v -0.005 0.37501 0.02541
v -0.005 0.37501 0
v 0.085 0.37501 0.02541
v 0.14001 0.37501 0.02551
v 0.14001 0.37501 0.00011
v 0.23001 0.37501 0.00011
v 0.23001 0.37501 0.02551
v -0.005 0.28501 0.02541
v -0.005 0.37501 0.02541
v -0.00364 0.37368 0.027
v -0.00366 0.28501 0.027
v -0.005 -0.285 0.02541
v -0.00366 -0.28499 0.027
v -0.005 -0.375 0.02541
v -0.00364 -0.37363 0.027
v -0.005 0.37501 0
v -0.005 0.37501 0.02541
v -0.005 0.28501 0.02541
v -0.005 0.28501 0
v -0.005 -0.285 0
v -0.005 -0.285 0.02541
v -0.005 -0.375 0.02541
v -0.005 -0.375 0
v 0.05081 0.3192 0.02528
v 0.04916 0.285 0.027
v 0.04918 0.32083 0.027
v 0.05082 0.28501 0.02527
v 0.04916 -0.28499 0.027
v 0.05082 -0.285 0.02527
v 0.04918 -0.32081 0.027
v 0.05081 -0.31919 0.02528
v 0.0523 0.28501 0.01301
v 0.05081 0.3192 0.02528
v 0.0523 0.31771 0.01301
v 0.05082 0.28501 0.02527
v 0.05082 -0.285 0.02527
v 0.0523 -0.285 0.01301
v 0.0523 -0.3177 0.01301
v 0.05081 -0.31919 0.02528
v 0.0523 0.31771 0.01301
v 0.05081 0.3192 0.02528
v 0.085 0.31919 0.02527
v 0.085 0.31771 0.01301
v 0.14001 0.31771 0.01311
v 0.14001 0.31919 0.02537
v 0.1742 0.3192 0.02538
v 0.17271 0.31771 0.01311
v 0.17419 0.285 0.02537
v 0.1742 0.3192 0.02538
v 0.17589 0.32083 0.0271
v 0.1758 0.285 0.0271
v 0.17419 -0.285 0.02537
v 0.1758 -0.28499 0.0271
v 0.1742 -0.31919 0.02538
v 0.17589 -0.32081 0.0271
v 0.17271 0.31771 0.01311
v 0.1742 0.3192 0.02538
v 0.17419 0.285 0.02537
v 0.17271 0.285 0.01311
v 0.17271 -0.285 0.01311
v 0.17419 -0.285 0.02537
v 0.1742 -0.31919 0.02538
v 0.17271 -0.3177 0.01311
v 0.17271 -0.3177 0.01311
v 0.1742 -0.31919 0.02538
v 0.14001 -0.31918 0.02537
v 0.14001 -0.3177 0.01311
v 0.085 -0.3177 0.01301
v 0.085 -0.31918 0.02527
v 0.05081 -0.31919 0.02528
v 0.0523 -0.3177 0.01301
v 0.17271 0.285 0.01311
v 0.14001 0.31771 0.01311
v 0.17271 0.31771 0.01311
v 0.14001 0.285 0.01311
v 0.085 0.31771 0.01301
v 0.14001 -0.285 0.01311
v 0.17271 -0.285 0.01311
v 0.17271 -0.3177 0.01311
v 0.14001 -0.3177 0.01311
v 0.085 0.28501 0.01301
v 0.0523 0.31771 0.01301
v 0.0523 0.28501 0.01301
v 0.0523 -0.285 0.01301
v 0.085 -0.285 0.01301
v 0.085 -0.3177 0.01301
v 0.0523 -0.3177 0.01301
v 0.14001 0.37501 0.00011
v 0.23001 0.285 0.00011
v 0.23001 0.37501 0.00011
v 0.14001 0.285 0.00011
v 0.23001 -0.285 0.00011
v 0.085 0.28501 0
v 0.085 0.37501 0
v -0.005 0.37501 0
v -0.005 0.28501 0
v 0.14001 -0.285 0.00011
v 0.23001 -0.375 0.00011
v 0.14001 -0.375 0.00011
v 0.085 -0.375 0
v 0.085 -0.285 0
v -0.005 -0.285 0
v -0.005 -0.375 0
v 0.04918 0.32083 0.027
v 0.04916 0.285 0.027
v -0.00366 0.28501 0.027
v -0.00364 0.37368 0.027
v -0.00366 -0.28499 0.027
v 0.08501 0.32085 0.027
v 0.04916 -0.28499 0.027
v 0.085 0.37365 0.027
v -0.00364 -0.37363 0.027
v 0.14 0.32085 0.0271
v 0.04918 -0.32081 0.027
v 0.14001 0.37365 0.0271
v 0.085 -0.37368 0.027
v 0.17589 0.32083 0.0271
v 0.08501 -0.32085 0.027
v 0.22863 0.37368 0.0271
v 0.14001 -0.37368 0.0271
v 0.1758 0.285 0.0271
v 0.14 -0.32085 0.0271
v 0.22869 0.285 0.0271
v 0.22863 -0.37363 0.0271
v 0.1758 -0.28499 0.0271
v 0.17589 -0.32081 0.0271
v 0.22869 -0.285 0.0271
vt 4.242076 4.281466
vt 4.287336 4.247946
vt 4.242076 4.24807
vt 4.588434 1.647068
vt 0.707296 2.574212
vt 0.707296 2.485813
vt 0.7632928 2.485813
vt 0.7632928 2.574212
vt 0.707296 1.925952
vt 0.707296 1.837553
vt 0.7632927 1.837553
vt 0.7632927 1.925952
vt 0.4238499 4.567565
vt 0.4023291 4.567581
vt 0.4012993 4.570471
vt 0.4584692 4.567733
vt 0.4238504 4.570471
vt 0.4584689 4.570639
vt 0.4799899 4.567749
vt 0.4810537 4.570639
vt 0.4238499 4.567565
vt 0.4012993 4.570471
vt 0.4238504 4.570471
vt 1.306235 4.567733
vt 1.284713 4.56775
vt 1.283648 4.570641
vt 1.340857 4.567566
vt 1.306236 4.570641
vt 1.340856 4.570473
vt 1.36238 4.567583
vt 1.36341 4.570473
vt 1.306235 4.567733
vt 1.283648 4.570641
vt 1.306236 4.570641
vt 4.169125 3.987224
vt 4.242074 3.985245
vt 4.168014 3.985245
vt 4.242075 3.987224
vt 4.287337 3.985368
vt 4.287337 3.987348
vt 4.361398 3.985368
vt 4.36027 3.987348
vt 4.287337 3.953952
vt 4.361398 3.985368
vt 4.361398 3.953952
vt 4.287337 3.985368
vt 4.242074 3.985245
vt 4.242074 3.953828
vt 4.168014 3.953828
vt 4.168014 3.985245
vt 1.600618 1.904498
vt 1.602637 1.975991
vt 1.602637 1.903394
vt 1.600618 1.975991
vt 1.602637 2.435773
vt 1.600618 2.435773
vt 1.602637 2.50837
vt 1.600618 2.507298
vt 1.634676 2.435773
vt 1.602637 2.50837
vt 1.634676 2.50837
vt 1.602637 2.435773
vt 1.602637 1.975991
vt 1.634676 1.975991
vt 1.634676 1.903394
vt 1.602637 1.903394
vt 4.242076 4.279487
vt 4.168014 4.279487
vt 4.169143 4.281466
vt 4.242076 4.281466
vt 4.287336 4.279363
vt 4.287335 4.281342
vt 4.361397 4.279363
vt 4.360286 4.281342
vt 4.287336 4.247946
vt 4.361397 4.279363
vt 4.361397 4.247946
vt 4.287336 4.279363
vt 4.242076 4.279487
vt 4.242076 4.24807
vt 4.168014 4.24807
vt 4.168014 4.279487
vt 1.926778 2.435816
vt 1.926778 2.508426
vt 1.928797 2.507354
vt 1.928797 2.435816
vt 1.926779 1.975949
vt 1.928797 1.975949
vt 1.926779 1.903338
vt 1.928797 1.904442
vt 1.894733 2.508426
vt 1.926778 2.508426
vt 1.926778 2.435816
vt 1.894733 2.435816
vt 1.894733 1.975949
vt 1.926779 1.975949
vt 1.926779 1.903338
vt 1.894733 1.903338
vt 3.961233 2.101505
vt 3.958174 2.08118
vt 3.958174 2.102477
vt 3.96125 2.08118
vt 3.958174 1.742345
vt 3.96125 1.742345
vt 3.958174 1.721053
vt 3.961233 1.72202
vt 3.983001 2.08118
vt 3.961233 2.101505
vt 3.983001 2.100619
vt 3.96125 2.08118
vt 3.96125 1.742345
vt 3.983001 1.742345
vt 3.983001 1.722906
vt 3.961233 1.72202
vt 0.4032673 4.547009
vt 0.4023291 4.567581
vt 0.4238499 4.567565
vt 0.4238499 4.547009
vt 0.4584692 4.547177
vt 0.4584692 4.567733
vt 0.4799899 4.567749
vt 0.4790518 4.547177
vt 3.685797 2.080983
vt 3.685814 2.101284
vt 3.68887 2.102254
vt 3.68887 2.080983
vt 3.685797 1.742541
vt 3.68887 1.742542
vt 3.685814 1.722241
vt 3.68887 1.721274
vt 3.664072 2.100398
vt 3.685814 2.101284
vt 3.685797 2.080983
vt 3.664072 2.080983
vt 3.664072 1.742541
vt 3.685797 1.742541
vt 3.685814 1.722241
vt 3.664072 1.723126
vt 1.285651 4.547175
vt 1.284713 4.56775
vt 1.306235 4.567733
vt 1.306235 4.547175
vt 1.340857 4.547007
vt 1.340857 4.567566
vt 1.36238 4.567583
vt 1.361442 4.547007
vt 4.623642 2.176462
vt 4.588434 2.206832
vt 4.623642 2.206832
vt 4.588434 2.176462
vt 4.529213 2.206832
vt 4.588434 1.647068
vt 4.623642 1.647068
vt 4.623642 1.616697
vt 4.588434 1.616697
vt 4.529213 2.176462
vt 4.494005 2.206832
vt 4.494005 2.176462
vt 4.494005 1.647068
vt 4.529214 1.647068
vt 4.529214 1.616697
vt 4.494005 1.616697
vt 0.707296 2.574212
vt 0.6156658 2.485813
vt 0.6156658 2.574212
vt 0.707296 2.485813
vt 0.6156658 1.925952
vt 0.7632928 2.485813
vt 0.7632928 2.574212
vt 0.8549225 2.574212
vt 0.8549225 2.485813
vt 0.707296 1.925952
vt 0.6156658 1.837553
vt 0.707296 1.837553
vt 0.7632927 1.837553
vt 0.7632927 1.925952
vt 0.8549227 1.925952
vt 0.8549227 1.837553
vt 2.729382 2.519784
vt 2.729359 2.484732
vt 2.675374 2.484732
vt 2.675394 2.571488
vt 2.675374 1.927046
vt 2.766 2.519807
vt 2.729359 1.927046
vt 2.765999 2.571463
vt 2.675394 1.840329
vt 2.822214 2.519807
vt 2.729382 1.892001
vt 2.822214 2.571463
vt 2.765999 1.840277
vt 2.858886 2.519784
vt 2.766 1.891964
vt 2.912799 2.571488
vt 2.822214 1.840277
vt 2.858799 2.484731
vt 2.822214 1.891964
vt 2.912861 2.484732
vt 2.912799 1.840328
vt 2.858799 1.927046
vt 2.858886 1.892001
vt 2.912861 1.927046
vn 0 -1 0
vn 0 -1 0
vn 0 -1 0
vn 0 -1 0
vn 0 -1 0
vn 0 -1 0
vn 1 0 0
vn 1 0 0
vn 1 0 0
vn 1 0 0
vn 1 0 0
vn 1 0 0
vn 1 0 0
vn 1 0 0
vn 0 1 0
vn 0 1 0
vn 0 1 0
vn 0 1 0
vn 0 1 0
vn 0 1 0
vn 0 1 0
vn 0 1 0
vn -1 0 0
vn -1 0 0
vn -1 0 0
vn -1 0 0
vn -1 0 0
vn -1 0 0
vn 0 0 1
vn 0 0 1
vn 0 0 1
vn 0 0 1
vn 0 0 1
vn 0 0 1
vn 0 0 1
vn 0 0 1
vn 0 0 1
vn 0 0 1
vn 0 0 1
vn 0 0 1
vn 0 0 1
vn 0 0 1
vn 0 0 -1
vn 0 0 -1
vn 0 0 -1
vn 0 0 -1
vn 0 0 -1
vn 0 0 -1
vn 0 0 -1
vn 0 0 -1
vn 0 0 -1
vn 0 0 -1
vn 0 0 -1
vn 0 0 -1
vn 0.001824868 0 -0.9999983
vn 0 0 -1
vn 0 0 -1
vn 0.0001667492 -0.7255678 0.6881507
vn 0.0001667492 -0.7255678 0.6881507
vn 0.0001667492 -0.7255678 0.6881507
vn -0.001258789 -0.7222326 0.691649
vn -0.001258789 -0.7222326 0.6916491
vn -0.0001690296 -0.7223501 0.6915275
vn -0.0001690296 -0.7223501 0.6915275
vn -0.0004740515 -0.7253703 0.6883585
vn 0.0004878615 -0.7222878 0.6915925
vn 0.0004878615 -0.7222878 0.6915924
vn 0.0004878615 -0.7222878 0.6915924
vn -0.0001791336 0.7269573 0.6866825
vn -0.0001791336 0.7269574 0.6866826
vn -0.0001791336 0.7269573 0.6866825
vn -0.001251932 0.7208315 0.6931092
vn -0.001251932 0.7208315 0.6931092
vn 0.0001657027 0.7207574 0.6931874
vn 0.0001657027 0.7207574 0.6931873
vn 0.0007718376 0.7268197 0.6868278
vn -0.0007690304 0.7209263 0.6930113
vn -0.0007690305 0.7209262 0.6930114
vn -0.0007690304 0.7209263 0.6930114
vn -0.0004611245 -0.7723329 0.6352178
vn -0.0007305361 -0.7723255 0.6352266
vn 0 -0.7599123 0.6500256
vn -0.000724342 -0.7723256 0.6352263
vn -0.00115866 -0.7723136 0.6352403
vn -0.001158653 -0.7722287 0.6353436
vn 0 -0.7722934 0.6352661
vn 0.0004536385 -0.7597584 0.6502054
vn 0 -1 0
vn 0 -1 0
vn 0 -1 0
vn 0 -1 0
vn 0 -1 5.465589E-06
vn 0 -1 6.631757E-06
vn 0 -1 1.870188E-06
vn 0 -1 0
vn 0.7732871 -0.0005327504 0.6340559
vn 0.7732648 -7.076103E-05 0.6340833
vn 0.7589123 0 0.6511928
vn 0.7732648 -7.185101E-05 0.6340832
vn 0.7732613 0 0.6340874
vn 0.7733282 0 0.6340058
vn 0.7733051 0 0.6340342
vn 0.7587585 0.000522381 0.6513718
vn 1 0 0
vn 1 0 0
vn 1 0 0
vn 1 0 0
vn 1 0 0
vn 1 0 0
vn 1 0 0
vn 1 0 0
vn 0 0.7689548 0.6393032
vn 0 0.7689548 0.6393031
vn 0 0.7689548 0.6393031
vn -0.0005771476 0.7630208 0.6463736
vn -0.001171202 0.7629551 0.6464504
vn -0.001178075 0.7631944 0.6461678
vn 0 0.7630976 0.6462831
vn 0.0002235037 0.7692708 0.6389228
vn 0 1 0
vn 0 1 0
vn 0 1 0
vn 0 1 0
vn 0 1 0
vn 0 1 0
vn 0 1 0
vn 0 1 0
vn -0.7639672 0 0.6452551
vn -0.7639671 0 0.6452551
vn -0.7639671 0 0.6452551
vn -0.768327 0.0001674266 0.6400575
vn -0.7683989 0 0.6399711
vn -0.7683408 0 0.6400409
vn -0.7683407 0 0.640041
vn -0.763844 -0.0001643948 0.645401
vn -1 0 0
vn -1 0 0
vn -1 0 0
vn -1 0 0
vn -1 0 0
vn -1 4.215681E-07 0
vn -1 0 0
vn -1 0 0
vn 0.725161 -0.0004347764 0.6885793
vn 0.7226245 -0.0001806544 0.6912408
vn 0.7252462 -0.0004433373 0.6884894
vn 0.7224983 -0.0001680383 0.6913726
vn 0.7224077 0.000443783 0.6914672
vn 0.7253506 0.0001744105 0.6883796
vn 0.7253506 0.0001744105 0.6883796
vn 0.7253506 0.0001744105 0.6883796
vn 0.992709 5.681906E-06 0.1205355
vn 0.9927087 1.78505E-06 0.1205382
vn 0.9927085 0 0.1205395
vn 0.9927092 7.224116E-06 0.1205344
vn 0.9927094 0 0.1205321
vn 0.9927079 4.333183E-07 0.1205443
vn 0.992708 0 0.1205441
vn 0.9927089 0 0.1205357
vn 1.80465E-06 -0.9927092 0.1205344
vn 1.80465E-06 -0.9927092 0.1205344
vn 1.80465E-06 -0.9927092 0.1205344
vn 0 -0.9927073 0.1205497
vn -0.0002222896 -0.9927096 0.1205304
vn -0.0002213124 -0.9927094 0.1205324
vn 0 -0.9927056 0.1205631
vn 0 -0.9927043 0.1205752
vn -0.7141752 -0.0001730954 0.699967
vn -0.7141752 -0.0001730955 0.699967
vn -0.7141752 -0.0001730955 0.699967
vn -0.7339186 0.001752789 0.6792352
vn -0.7338958 0 0.6792621
vn -0.7338119 0.0001721436 0.6793527
vn -0.7338119 0.0001721436 0.6793527
vn -0.7151117 -0.001713244 0.6990081
vn -0.9927065 -3.609297E-06 0.1205559
vn -0.9927065 -3.609297E-06 0.1205559
vn -0.9927065 -3.609297E-06 0.1205559
vn -0.9927056 0 0.1205627
vn -0.9927053 0 0.1205658
vn -0.9927058 0 0.1205625
vn -0.9927066 8.924965E-07 0.1205555
vn -0.992707 0 0.1205525
vn -3.609264E-06 0.99271 0.1205278
vn -3.609264E-06 0.99271 0.1205278
vn -3.609264E-06 0.99271 0.1205278
vn 0 0.9927107 0.1205213
vn -0.0002166797 0.9927072 0.1205502
vn -0.0002154126 0.9927095 0.1205308
vn -8.925212E-07 0.9927083 0.120542
vn 0 0.9927076 0.1205477
vn 0 0 1
vn 0 0 1
vn 0 0 1
vn 0 0 1
vn 0 0 1
vn 0 0 1
vn 0 0 1
vn 0 0 1
vn 0 0 1
vn 0 0 1
vn 0 0 1
vn 0 0 1
vn 0 0 1
vn -0.001817814 0 0.9999983
vn -0.001818993 0 0.9999983
vn 0 0 1
vn 0 0 -1
vn 0 0 -1
vn 0 0 -1
vn 0 0 -1
vn 0 0 -1
vn 0 0 -1
vn 0 0 -1
vn 0 0 -1
vn 0 0 -1
vn 0 0 -1
vn 0 0 -1
vn 0 0 -1
vn 0.001824868 0 -0.9999983
vn 0.001821168 0 -0.9999983
vn 0 0 -1
vn 0 0 -1
vn -1.991661E-06 0 1
vn 0 0 1
vn 1.372661E-07 0 1
vn -5.907108E-07 0 1
vn -5.28418E-06 0 1
vn -0.0007990303 0 0.9999998
vn -6.019562E-06 0 1
vn -0.0006981791 0 0.9999998
vn 1.968776E-06 0 1
vn -0.001100138 0 0.9999994
vn -3.48988E-06 0 1
vn -0.0008129521 0 0.9999996
vn -0.0008065189 0 0.9999998
vn 3.114391E-06 0 1
vn -0.001104663 0 0.9999994
vn -1.972626E-06 0 1
vn -0.0006961445 0 0.9999998
vn 6.01072E-06 0 1
vn -0.0007965429 0 0.9999998
vn 5.276087E-06 0 1
vn 1.701083E-07 0 1
vn 3.590766E-07 0 1
vn 8.387343E-07 0 1
vn 0 0 1
usemtl WhiteWoodClean
f 3/15/60 2/14/59 1/13/58
f 5/17/62 1/13/58 4/16/61
f 6/18/63 5/17/62 4/16/61
f 6/18/63 4/16/61 7/19/64
f 8/20/65 6/18/63 7/19/64
f 11/23/68 10/22/67 9/21/66
f 14/26/71 13/25/70 12/24/69
f 16/28/73 12/24/69 15/27/72
f 17/29/74 16/28/73 15/27/72
f 17/29/74 15/27/72 18/30/75
f 19/31/76 17/29/74 18/30/75
f 22/34/79 21/33/78 20/32/77
f 25/37/82 24/36/81 23/35/80
f 24/36/81 26/38/83 23/35/80
f 26/38/83 24/36/81 27/39/84
f 28/40/85 26/38/83 27/39/84
f 27/39/84 29/41/86 28/40/85
f 29/41/86 30/42/87 28/40/85
f 33/45/90 32/44/89 31/43/88
f 32/44/89 34/46/91 31/43/88
f 31/43/88 34/46/91 35/47/92
f 36/48/93 31/43/88 35/47/92
f 36/48/93 35/47/92 37/49/94
f 35/47/92 38/50/95 37/49/94
f 41/53/98 40/52/97 39/51/96
f 40/52/97 42/54/99 39/51/96
f 42/54/99 40/52/97 43/55/100
f 44/56/101 42/54/99 43/55/100
f 43/55/100 45/57/102 44/56/101
f 45/57/102 46/58/103 44/56/101
f 49/61/106 48/60/105 47/59/104
f 48/60/105 50/62/107 47/59/104
f 47/59/104 50/62/107 51/63/108
f 52/64/109 47/59/104 51/63/108
f 52/64/109 51/63/108 53/65/110
f 51/63/108 54/66/111 53/65/110
f 57/69/114 56/68/113 55/67/112
f 58/70/115 57/69/114 55/67/112
f 58/70/115 55/67/112 59/71/116
f 60/72/117 58/70/115 59/71/116
f 60/72/117 59/71/116 61/73/118
f 62/74/119 60/72/117 61/73/118
f 65/77/122 64/76/121 63/75/120
f 64/76/121 66/78/123 63/75/120
f 63/75/120 66/78/123 67/79/124
f 68/80/125 63/75/120 67/79/124
f 68/80/125 67/79/124 69/81/126
f 67/79/124 70/82/127 69/81/126
f 73/85/130 72/84/129 71/83/128
f 74/86/131 73/85/130 71/83/128
f 74/86/131 71/83/128 75/87/132
f 76/88/133 74/86/131 75/87/132
f 75/87/132 77/89/134 76/88/133
f 77/89/134 78/90/135 76/88/133
f 81/93/138 80/92/137 79/91/136
f 82/94/139 81/93/138 79/91/136
f 82/94/139 83/95/140 81/93/138
f 83/95/140 84/96/141 81/93/138
f 85/97/142 84/96/141 83/95/140
f 86/98/143 85/97/142 83/95/140
f 89/101/146 88/100/145 87/99/144
f 88/100/145 90/102/147 87/99/144
f 90/102/147 88/100/145 91/103/148
f 92/104/149 90/102/147 91/103/148
f 91/103/148 93/105/150 92/104/149
f 93/105/150 94/106/151 92/104/149
f 97/109/154 96/108/153 95/107/152
f 96/108/153 98/110/155 95/107/152
f 95/107/152 98/110/155 99/111/156
f 100/112/157 95/107/152 99/111/156
f 100/112/157 99/111/156 101/113/158
f 99/111/156 102/114/159 101/113/158
f 105/117/162 104/116/161 103/115/160
f 106/118/163 105/117/162 103/115/160
f 106/118/163 107/119/164 105/117/162
f 107/119/164 108/120/165 105/117/162
f 109/121/166 108/120/165 107/119/164
f 110/122/167 109/121/166 107/119/164
f 113/125/170 112/124/169 111/123/168
f 114/126/171 113/125/170 111/123/168
f 114/126/171 111/123/168 115/127/172
f 116/128/173 114/126/171 115/127/172
f 116/128/173 115/127/172 117/129/174
f 118/130/175 116/128/173 117/129/174
f 121/133/178 120/132/177 119/131/176
f 122/134/179 121/133/178 119/131/176
f 121/133/178 122/134/179 123/135/180
f 124/136/181 121/133/178 123/135/180
f 125/137/182 124/136/181 123/135/180
f 126/138/183 125/137/182 123/135/180
f 129/141/186 128/140/185 127/139/184
f 130/142/187 129/141/186 127/139/184
f 130/142/187 131/143/188 129/141/186
f 131/143/188 132/144/189 129/141/186
f 133/145/190 132/144/189 131/143/188
f 134/146/191 133/145/190 131/143/188
f 137/149/194 136/148/193 135/147/192
f 136/148/193 138/150/195 135/147/192
f 138/150/195 136/148/193 139/151/196
f 135/147/192 138/150/195 140/152/197
f 141/153/198 135/147/192 140/152/197
f 141/153/198 140/152/197 142/154/199
f 140/152/197 143/155/200 142/154/199
f 144/156/201 138/150/195 139/151/196
f 138/150/195 144/156/201 140/152/197
f 139/151/196 145/157/202 144/156/201
f 145/157/202 146/158/203 144/156/201
f 144/156/201 146/158/203 147/159/204
f 143/155/200 140/152/197 148/160/205
f 144/156/201 148/160/205 140/152/197
f 148/160/205 144/156/201 147/159/204
f 149/161/206 143/155/200 148/160/205
f 148/160/205 147/159/204 149/161/206
f 147/159/204 150/162/207 149/161/206
f 153/165/210 152/164/209 151/163/208
f 152/164/209 154/166/211 151/163/208
f 154/166/211 152/164/209 155/167/212
f 151/163/208 154/166/211 156/168/213
f 157/169/214 151/163/208 156/168/213
f 157/169/214 156/168/213 158/170/215
f 156/168/213 159/171/216 158/170/215
f 160/172/217 154/166/211 155/167/212
f 154/166/211 160/172/217 156/168/213
f 155/167/212 161/173/218 160/172/217
f 161/173/218 162/174/219 160/172/217
f 162/174/219 163/175/220 160/172/217
f 156/168/213 164/176/221 159/171/216
f 160/172/217 164/176/221 156/168/213
f 163/175/220 164/176/221 160/172/217
f 164/176/221 165/177/222 159/171/216
f 164/176/221 163/175/220 165/177/222
f 163/175/220 166/178/223 165/177/222
f 169/181/226 168/180/225 167/179/224
f 170/182/227 169/181/226 167/179/224
f 168/180/225 169/181/226 171/183/228
f 170/182/227 167/179/224 172/184/229
f 173/185/230 168/180/225 171/183/228
f 174/186/231 170/182/227 172/184/229
f 171/183/228 175/187/232 173/185/230
f 174/186/231 172/184/229 176/188/233
f 175/187/232 177/189/234 173/185/230
f 178/190/235 174/186/231 176/188/233
f 175/187/232 179/191/236 177/189/234
f 178/190/235 176/188/233 180/192/237
f 179/191/236 181/193/238 177/189/234
f 182/194/239 178/190/235 180/192/237
f 179/191/236 183/195/240 181/193/238
f 182/194/239 180/192/237 184/196/241
f 183/195/240 185/197/242 181/193/238
f 186/198/243 182/194/239 184/196/241
f 183/195/240 187/199/244 185/197/242
f 186/198/243 184/196/241 188/200/245
f 187/199/244 189/201/246 185/197/242
f 190/202/247 186/198/243 188/200/245
f 187/199/244 190/202/247 189/201/246
f 190/202/247 188/200/245 189/201/246
