mtllib material.mtl
usemtl material_0
v -2.43000000 2.50000000 -2.80000000
v -2.43000000 2.50000000 -2.89999000
v -2.32999000 2.50000000 -2.89999000
v -2.32999000 2.50000000 -2.80000000
v -2.43000000 2.50000000 -0.02500000
v -2.32999000 2.50000000 -0.02500000
v 2.20000000 2.50000000 -2.80000000
v -2.32999000 2.50000000 0.82501000
v -2.43000000 2.50000000 0.82501000
v -2.43000000 2.50000000 2.40001000
v -2.32999000 2.50000000 2.40001000
v -2.43000000 2.50000000 2.50000000
v -2.32999000 2.50000000 2.50000000
v -0.22500000 2.50000000 2.50000000
v -0.22500000 2.50000000 2.40001000
v 0.62475000 2.50000000 2.50000000
v 0.62475000 2.50000000 2.40001000
v 2.20150000 2.50000000 2.49950000
v 2.20150000 2.50000000 2.40051000
v 2.40000000 2.50000000 2.49951000
v 2.40000000 2.50000000 2.40026000
v 2.40000000 2.50000000 1.57810000
v 2.20000000 2.50000000 2.40001000
v 2.19986000 2.50000000 1.57800000
v 2.40000000 2.50000000 0.50025000
v 2.19967000 2.50000000 0.50025000
v 2.40000000 2.50000000 -0.40000000
v 2.19951000 2.50000000 -0.40000000
v 2.40000000 2.50000000 -1.99987000
v 2.20013000 2.50000000 -1.99987000
v 2.40000000 2.50000000 -2.80000000
v 2.20000000 2.50000000 -2.89999000
v 2.40000000 2.50000000 -2.89999000
v -2.43000000 0.00000000 0.82501000
v -2.32999000 0.00000000 2.40001000
v -2.32999000 0.00000000 0.82501000
v -2.43000000 0.00000000 2.40001000
v -2.32999000 0.00000000 2.50000000
v -2.43000000 0.00000000 2.50000000
v -0.23674000 0.00000000 2.40001000
v -0.23674000 0.00000000 2.50000000
v 0.63650000 0.00000000 2.50000000
v 2.20150000 0.00051000 2.40051000
v 0.63650000 0.00000000 2.40001000
v 2.20150000 0.00051000 2.49950000
v 2.40000000 0.00080000 2.40026000
v 2.40000000 0.00055000 2.49951000
v -2.43000000 0.00000000 -0.02500000
v -2.32999000 0.00000000 -0.02500000
v -2.32999000 0.00000000 -0.14999000
v -2.43000000 0.00000000 -0.14999000
v -2.43000000 0.00000000 -2.80000000
v -2.32999000 0.00000000 -2.80000000
v -2.43000000 0.00000000 -2.89999000
v -2.32999000 0.00000000 -2.89999000
v 2.20000000 0.00000000 -2.89999000
v 2.20000000 0.00000000 -2.80000000
v 2.40000000 0.00005000 -2.89999000
v 2.40000000 0.00005000 -2.80000000
v 2.40000000 0.00026000 -1.99987000
v 2.20025000 0.00026000 -1.99987000
v 2.40000000 0.00105000 -0.40000000
v 2.20000000 0.00101000 -0.40000000
v 2.20000000 0.00101000 0.50025000
v 2.40000000 0.00097000 0.50025000
v 2.20000000 0.00101000 1.57800000
v 2.40000000 0.00088000 1.57810000
v 2.40000000 0.00080000 2.40026000
v 2.20000000 0.00101000 2.40001000
v -2.43000000 0.04000000 2.50000000
v -2.32999000 0.00000000 2.50000000
v -2.43000000 0.00000000 2.50000000
v -2.32999000 0.04000000 2.50000000
v -2.32999000 0.87500000 2.50000000
v -2.43000000 0.87500000 2.50000000
v -2.43000000 2.00000000 2.50000000
v -0.23674000 0.04000000 2.50000000
v -0.23674000 0.00000000 2.50000000
v -0.23674000 0.87500000 2.50000000
v -0.23674000 2.02977000 2.50000000
v -2.32999000 2.00000000 2.50000000
v -2.32999000 2.12500000 2.50000000
v -2.43000000 2.12500000 2.50000000
v -2.43000000 2.44001000 2.50000000
v -0.22500000 2.12500000 2.50000000
v 0.63650000 2.02977000 2.50000000
v -2.32999000 2.44001000 2.50000000
v -2.32999000 2.50000000 2.50000000
v -2.43000000 2.50000000 2.50000000
v -0.22500000 2.44001000 2.50000000
v -0.22500000 2.50000000 2.50000000
v 0.62475000 2.44001000 2.50000000
v 0.62475000 2.50000000 2.50000000
v 0.62475000 2.12500000 2.50000000
v 2.20150000 2.44001000 2.49950000
v 2.20150000 2.50000000 2.49950000
v 2.40000000 2.44001000 2.49950000
v 2.40000000 2.50000000 2.49951000
v 2.40000000 2.12688000 2.49950000
v 2.20150000 2.12500000 2.49950000
v 2.40000000 2.00000000 2.49950000
v 2.20150000 2.00000000 2.49950000
v 2.20150000 0.87500000 2.49950000
v 2.40002000 0.87500000 2.49950000
v 0.63650000 0.87500000 2.50000000
v 2.40000000 0.04005000 2.49950000
v 2.20150000 0.04000000 2.49950000
v 0.63650000 0.04000000 2.50000000
v 2.20150000 0.00051000 2.49950000
v 2.40000000 0.00055000 2.49951000
v 0.63650000 0.00000000 2.50000000
v -2.43000000 0.04000000 2.50000000
v -2.43000000 0.00000000 2.50000000
v -2.43000000 0.00000000 2.40001000
v -2.43000000 0.04000000 2.40001000
v -2.43000000 0.00000000 0.82501000
v -2.43000000 0.04000000 0.82501000
v -2.43000000 0.87500000 0.82501000
v -2.43000000 0.87500000 2.40001000
v -2.43000000 0.87500000 2.50000000
v -2.43000000 2.00000000 2.50000000
v -2.43000000 2.00000000 2.40001000
v -2.43000000 1.91876000 0.82501000
v -2.43000000 2.12500000 2.40001000
v -2.43000000 2.12500000 2.50000000
v -2.43000000 2.44001000 2.50000000
v -2.43000000 2.12500000 0.82501000
v -2.43000000 2.12500000 -0.02500000
v -2.43000000 1.91876000 -0.02500000
v -2.43000000 2.44001000 2.40001000
v -2.43000000 2.50000000 2.40001000
v -2.43000000 2.50000000 2.50000000
v -2.43000000 2.50000000 0.82501000
v -2.43000000 2.44001000 0.82501000
v -2.43000000 2.50000000 -0.02500000
v -2.43000000 2.44001000 -0.02500000
v -2.43000000 2.44001000 -2.80000000
v -2.43000000 2.50000000 -2.80000000
v -2.43000000 2.00000000 -2.80000000
v -2.43000000 0.87500000 -0.02500000
v -2.43000000 2.12500000 -2.80000000
v -2.43000000 2.44001000 -2.89999000
v -2.43000000 2.50000000 -2.89999000
v -2.43000000 2.12500000 -2.89999000
v -2.43000000 2.00000000 -2.89999000
v -2.43000000 0.87500000 -2.80000000
v -2.43000000 0.87500000 -2.89999000
v -2.43000000 0.04000000 -2.89999000
v -2.43000000 0.04000000 -2.80000000
v -2.43000000 0.04000000 -0.02500000
v -2.43000000 0.00000000 -2.80000000
v -2.43000000 0.00000000 -2.89999000
v -2.43000000 0.00000000 -0.14999000
v -2.43000000 0.00000000 -0.02500000
v -2.32999000 0.04000000 2.40001000
v -2.32999000 0.87500000 0.82501000
v -2.32999000 0.04000000 0.82501000
v -2.32999000 0.87500000 2.40001000
v -2.32999000 2.00000000 2.40001000
v -2.32999000 1.91876000 0.82501000
v -2.32999000 2.12500000 0.82501000
v -2.32999000 2.12500000 -0.02500000
v -2.32999000 2.12500000 2.40001000
v -2.32999000 2.44001000 2.40001000
v -2.32999000 2.44001000 0.82501000
v -2.32999000 2.44001000 -0.02500000
v -2.32999000 2.44001000 -2.80000000
v -2.32999000 2.12500000 -2.80000000
v -2.32999000 1.91876000 -0.02500000
v -2.32999000 2.00000000 -2.80000000
v -2.32999000 0.87500000 -0.02500000
v -2.32999000 0.87500000 -2.80000000
v -2.32999000 0.04000000 -2.80000000
v -2.32999000 0.04000000 -0.02500000
v -0.23674000 0.04000000 2.40001000
v -2.32999000 0.87500000 2.40001000
v -2.32999000 0.04000000 2.40001000
v -0.23674000 0.87500000 2.40001000
v -0.23674000 2.02977000 2.40001000
v -2.32999000 2.00000000 2.40001000
v -2.32999000 2.12500000 2.40001000
v -0.22500000 2.12500000 2.40001000
v 0.63650000 2.02977000 2.40001000
v -0.22500000 2.44001000 2.40001000
v -2.32999000 2.44001000 2.40001000
v 0.62475000 2.44001000 2.40001000
v 0.62475000 2.12500000 2.40001000
v 2.20150000 2.44001000 2.40051000
v 2.20150000 2.12500000 2.40051000
v 2.20150000 2.00000000 2.40051000
v 2.20150000 0.87500000 2.40051000
v 0.63650000 0.87500000 2.40001000
v 2.20150000 0.04000000 2.40051000
v 0.63650000 0.04000000 2.40001000
v 2.40000000 0.04005000 -2.89999000
v 2.20000000 0.00000000 -2.89999000
v 2.40000000 0.00005000 -2.89999000
v 2.20000000 0.04000000 -2.89999000
v -2.32999000 0.00000000 -2.89999000
v 2.20000000 0.87500000 -2.89999000
v 2.40002000 0.87500000 -2.89999000
v 2.40000000 2.00000000 -2.89999000
v -2.32999000 0.04000000 -2.89999000
v -2.43000000 0.00000000 -2.89999000
v -2.43000000 0.04000000 -2.89999000
v -2.43000000 0.87500000 -2.89999000
v -2.32999000 0.87500000 -2.89999000
v 2.20000000 2.00000000 -2.89999000
v -2.32999000 2.00000000 -2.89999000
v -2.43000000 2.00000000 -2.89999000
v -2.43000000 2.12500000 -2.89999000
v 2.20000000 2.12500000 -2.89999000
v 2.40000000 2.12688000 -2.89999000
v 2.40000000 2.44001000 -2.89999000
v -2.32999000 2.12500000 -2.89999000
v 2.20000000 2.44001000 -2.89999000
v -2.32999000 2.44001000 -2.89999000
v -2.43000000 2.44001000 -2.89999000
v -2.43000000 2.50000000 -2.89999000
v -2.32999000 2.50000000 -2.89999000
v 2.20000000 2.50000000 -2.89999000
v 2.40000000 2.50000000 -2.89999000
v 2.40000000 0.04005000 -2.89999000
v 2.40000000 0.00005000 -2.89999000
v 2.40000000 0.00005000 -2.80000000
v 2.40000000 0.04005000 -2.80000000
v 2.40002000 0.87500000 -2.80000000
v 2.40002000 0.87500000 -2.89999000
v 2.40000000 2.00000000 -2.89999000
v 2.40000000 0.04000000 -1.99988000
v 2.40000000 0.00026000 -1.99987000
v 2.40000000 0.00105000 -0.40000000
v 2.40000000 0.04005000 -0.40000000
v 2.40000000 0.00097000 0.50025000
v 2.40002000 0.87500000 -1.99998000
v 2.39970000 2.00000000 -2.00012000
v 2.40002000 0.87500000 -0.40000000
v 2.40000000 2.00000000 -2.80000000
v 2.40000000 2.12688000 -2.80000000
v 2.40000000 2.12688000 -2.89999000
v 2.40000000 2.12688000 -2.00006000
v 2.40000000 2.44001000 -2.89999000
v 2.40000000 0.04005000 0.50025000
v 2.40000000 0.00088000 1.57810000
v 2.40002000 0.87500000 0.50025000
v 2.40011000 2.00000000 0.50025000
v 2.40020000 2.00000000 -0.40000000
v 2.40000000 2.12688000 0.50025000
v 2.40000000 0.04005000 1.57810000
v 2.40000000 2.12688000 -0.40000000
v 2.40000000 2.44001000 -1.99990000
v 2.40000000 2.44001000 -2.80000000
v 2.40000000 2.50000000 -2.80000000
v 2.40000000 2.50000000 -2.89999000
v 2.40000000 2.50000000 -1.99987000
v 2.40000000 2.44001000 -0.40000000
v 2.40000000 2.50000000 -0.40000000
v 2.40000000 2.50000000 0.50025000
v 2.40000000 2.44001000 0.50025000
v 2.40000000 2.44001000 1.57810000
v 2.40000000 2.50000000 1.57810000
v 2.40000000 2.50000000 2.40026000
v 2.40000000 2.12688000 1.57810000
v 2.40000000 2.44001000 2.40026000
v 2.40000000 2.50000000 2.49951000
v 2.40000000 2.44001000 2.49950000
v 2.40000000 2.12688000 2.49950000
v 2.40000000 2.12688000 2.40026000
v 2.40000000 2.00000000 2.49950000
v 2.39991000 2.00000000 2.40026000
v 2.39999000 2.00000000 1.57810000
v 2.40002000 0.87500000 2.40026000
v 2.40002000 0.87500000 1.57810000
v 2.40002000 0.87500000 2.49950000
v 2.40000000 0.04005000 2.40026000
v 2.40000000 0.04005000 2.49950000
v 2.40000000 0.00080000 2.40026000
v 2.40000000 0.00055000 2.49951000
v 2.20000000 0.04000000 -2.80000000
v -2.32999000 0.04000000 -2.80000000
v -2.32999000 0.87500000 -2.80000000
v 2.20000000 0.87500000 -2.80000000
v 2.20000000 2.00000000 -2.80000000
v -2.32999000 2.00000000 -2.80000000
v -2.32999000 2.12500000 -2.80000000
v 2.20000000 2.12500000 -2.80000000
v 2.20000000 2.44001000 -2.80000000
v -2.32999000 2.44001000 -2.80000000
v 2.20015000 2.44001000 -1.99990000
v 2.20000000 2.12500000 -2.80000000
v 2.20000000 2.44001000 -2.80000000
v 2.20026000 2.12500000 -2.00006000
v 2.20000000 2.00000000 -2.80000000
v 2.20030000 2.00000000 -2.00012000
v 2.19958000 2.12500000 -0.40000000
v 2.20028000 0.87500000 -1.99998000
v 2.19952000 2.44001000 -0.40000000
v 2.20000000 0.87500000 -2.80000000
v 2.20026000 0.04000000 -1.99988000
v 2.20000000 0.04000000 -2.80000000
v 2.20000000 0.00000000 -2.80000000
v 2.20025000 0.00026000 -1.99987000
v 2.20000000 0.00101000 -0.40000000
v 2.19983000 0.87500000 -0.40000000
v 2.20000000 0.04000000 -0.40000000
v 2.19972000 2.12500000 0.50025000
v 2.19967000 2.44001000 0.50025000
v 2.19986000 2.44001000 1.57800000
v 2.19960000 2.00000000 -0.40000000
v 2.19973000 2.00000000 0.50025000
v 2.19988000 2.12500000 1.57800000
v 2.19989000 0.87500000 0.50025000
v 2.20000000 0.04000000 0.50025000
v 2.20000000 2.44001000 2.40001000
v 2.20000000 2.12500000 2.40001000
v 2.20000000 2.00000000 2.40001000
v 2.19989000 2.00000000 1.57800000
v 2.19995000 0.87500000 1.57800000
v 2.20000000 0.87500000 2.40001000
v 2.20000000 0.04000000 1.57800000
v 2.20000000 0.04000000 2.40001000
v 2.40000000 2.12688000 -2.00006000
v 2.20030000 2.00000000 -2.00012000
v 2.20026000 2.12500000 -2.00006000
v 2.39970000 2.00000000 -2.00012000
v 2.20028000 0.87500000 -1.99998000
v 2.40002000 0.87500000 -1.99998000
v 2.19983000 0.87500000 -0.40000000
v 2.20028000 0.87500000 -1.99998000
v 2.40002000 0.87500000 -1.99998000
v 2.40002000 0.87500000 -0.40000000
v 2.19960000 2.00000000 -0.40000000
v 2.19983000 0.87500000 -0.40000000
v 2.40002000 0.87500000 -0.40000000
v 2.40020000 2.00000000 -0.40000000
v 2.19958000 2.12500000 -0.40000000
v 2.40000000 2.12688000 -0.40000000
v 2.19958000 2.12500000 -0.40000000
v 2.40000000 2.12688000 -0.40000000
v 2.40000000 2.12688000 -2.00006000
v 2.20026000 2.12500000 -2.00006000
v 2.49996000 2.12688000 1.57810000
v 2.49996000 2.12688000 0.50025000
v 2.50006000 2.00000000 0.50025000
v 2.49995000 2.00000000 1.57810000
v 2.49997000 0.87500000 1.57810000
v 2.49997000 0.87500000 0.50025000
v 2.49996000 0.04005000 1.57810000
v 2.49996000 0.04005000 0.50025000
v 2.34996000 2.12688000 1.57810000
v 2.35006000 2.00000000 0.50025000
v 2.34996000 2.12688000 0.50025000
v 2.34995000 2.00000000 1.57810000
v 2.34997000 0.87500000 1.57810000
v 2.34997000 0.87500000 0.50025000
v 2.34996000 0.04005000 1.57810000
v 2.34996000 0.04005000 0.50025000
v 2.34996000 0.04005000 1.57810000
v 2.19995000 0.87500000 1.57800000
v 2.20000000 0.04000000 1.57800000
v 2.34997000 0.87500000 1.57810000
v 2.19989000 2.00000000 1.57800000
v 2.34995000 2.00000000 1.57810000
v 2.19988000 2.12500000 1.57800000
v 2.34996000 2.12688000 1.57810000
v 2.34996000 2.12688000 1.57810000
v 2.34996000 2.12688000 0.50025000
v 2.19972000 2.12500000 0.50025000
v 2.19988000 2.12500000 1.57800000
v 2.35006000 2.00000000 0.50025000
v 2.19972000 2.12500000 0.50025000
v 2.34996000 2.12688000 0.50025000
v 2.19973000 2.00000000 0.50025000
v 2.34997000 0.87500000 0.50025000
v 2.19989000 0.87500000 0.50025000
v 2.34996000 0.04005000 0.50025000
v 2.20000000 0.04000000 0.50025000
v 2.34996000 0.04005000 0.50025000
v 2.34996000 0.04005000 1.57810000
v 2.20000000 0.04000000 1.57800000
v 2.20000000 0.04000000 0.50025000
v 2.49996000 2.12688000 0.50025000
v 2.49996000 2.12688000 1.57810000
v 2.40000000 2.12688000 1.57810000
v 2.40000000 2.12688000 0.50025000
v 2.49995000 2.00000000 1.57810000
v 2.40000000 2.12688000 1.57810000
v 2.49996000 2.12688000 1.57810000
v 2.39999000 2.00000000 1.57810000
v 2.49997000 0.87500000 1.57810000
v 2.40002000 0.87500000 1.57810000
v 2.49996000 0.04005000 1.57810000
v 2.40000000 0.04005000 1.57810000
v 2.49996000 0.04005000 1.57810000
v 2.49996000 0.04005000 0.50025000
v 2.40000000 0.04005000 0.50025000
v 2.40000000 0.04005000 1.57810000
v 2.49997000 0.87500000 0.50025000
v 2.40000000 0.04005000 0.50025000
v 2.49996000 0.04005000 0.50025000
v 2.40002000 0.87500000 0.50025000
v 2.50006000 2.00000000 0.50025000
v 2.40011000 2.00000000 0.50025000
v 2.49996000 2.12688000 0.50025000
v 2.40000000 2.12688000 0.50025000
v -2.43000000 0.87500000 0.82501000
v -2.32999000 1.91876000 0.82501000
v -2.43000000 1.91876000 0.82501000
v -2.32999000 0.87500000 0.82501000
v -2.43000000 0.04000000 0.82501000
v -2.32999000 0.04000000 0.82501000
v -2.32999000 0.00000000 0.82501000
v -2.43000000 0.00000000 0.82501000
v -2.43000000 1.91876000 0.82501000
v -2.32999000 1.91876000 0.82501000
v -2.32999000 1.91876000 -0.02500000
v -2.43000000 1.91876000 -0.02500000
v -2.43000000 1.91876000 -0.02500000
v -2.32999000 1.91876000 -0.02500000
v -2.32999000 0.87500000 -0.02500000
v -2.43000000 0.87500000 -0.02500000
v -2.32999000 0.04000000 -0.02500000
v -2.43000000 0.04000000 -0.02500000
v -2.43000000 0.00000000 -0.02500000
v -2.32999000 0.00000000 -0.02500000
v 0.63650000 0.87500000 2.50000000
v 0.63650000 2.02977000 2.40001000
v 0.63650000 2.02977000 2.50000000
v 0.63650000 0.87500000 2.40001000
v 0.63650000 0.04000000 2.50000000
v 0.63650000 0.04000000 2.40001000
v 0.63650000 0.00000000 2.40001000
v 0.63650000 0.00000000 2.50000000
v 0.63650000 2.02977000 2.50000000
v 0.63650000 2.02977000 2.40001000
v -0.23674000 2.02977000 2.40001000
v -0.23674000 2.02977000 2.50000000
v -0.23674000 2.02977000 2.50000000
v -0.23674000 2.02977000 2.40001000
v -0.23674000 0.87500000 2.40001000
v -0.23674000 0.87500000 2.50000000
v -0.23674000 0.04000000 2.40001000
v -0.23674000 0.04000000 2.50000000
v -0.23674000 0.00000000 2.50000000
v -0.23674000 0.00000000 2.40001000
vn -2.38000000 0.57735030 -0.09999999
vn -2.38000000 0.57735030 -0.09999999
vn -2.38000000 0.57735030 -0.09999999
vn -2.38000000 0.57735030 -0.09999999
vn -2.38000000 0.57735030 -0.09999999
vn -2.38000000 0.57735030 -0.09999999
vn -2.38000000 0.57735030 -0.09999999
vn -2.38000000 0.57735030 -0.09999999
vn -2.38000000 0.57735030 -0.09999999
vn -2.38000000 0.57735030 -0.09999999
vn -2.38000000 0.57735030 -0.09999999
vn -2.38000000 0.57735030 -0.09999999
vn -2.38000000 0.57735030 -0.09999999
vn -2.38000000 0.57735030 -0.09999999
vn -2.38000000 0.57735030 -0.09999999
vn -2.38000000 0.57735030 -0.09999999
vn -2.38000000 0.57735030 -0.09999999
vn -2.38000000 0.57735030 -0.09999999
vn -2.38000000 0.57735030 -0.09999999
vn -2.38000000 0.57735030 -0.09999999
vn -2.38000000 0.57735030 -0.09999999
vn -2.38000000 0.57735030 -0.09999999
vn -2.38000000 0.57735030 -0.09999999
vn -2.38000000 0.57735030 -0.09999999
vn -2.38000000 0.57735030 -0.09999999
vn -2.38000000 0.57735030 -0.09999999
vn -2.38000000 0.57735030 -0.09999990
vn -2.38000000 0.57735030 -0.09999988
vn -2.38000000 0.57735030 -0.09999999
vn -2.38000000 0.57735030 -0.09999999
vn -2.38000000 0.57735030 -0.09999999
vn -2.38000000 0.57735030 -0.09999999
vn -2.38000000 0.57735030 -0.09999999
vn -2.38000000 -0.57735030 -0.09999999
vn -2.38000000 -0.57735030 -0.09999999
vn -2.38000000 -0.57735030 -0.09999999
vn -2.38000000 -0.57735030 -0.09999999
vn -2.38000000 -0.57735030 -0.09999999
vn -2.38000000 -0.57735030 -0.09999999
vn -2.38000000 -0.57735030 -0.09999999
vn -2.38000000 -0.57735030 -0.09999999
vn -2.37981600 -0.57735030 -0.09999999
vn -2.37973800 -0.57735020 -0.09999999
vn -2.37981600 -0.57735030 -0.09999999
vn -2.37976200 -0.57735030 -0.10004840
vn -2.37964100 -0.57734920 -0.10102660
vn -2.37985500 -0.57734840 -0.10145430
vn -2.38000000 -0.57735030 -0.09999999
vn -2.38000000 -0.57735030 -0.09999999
vn -2.38000000 -0.57735030 -0.09999999
vn -2.38000000 -0.57735030 -0.09999999
vn -2.38000000 -0.57735030 -0.09999999
vn -2.38000000 -0.57735030 -0.09999999
vn -2.38000000 -0.57735030 -0.09999999
vn -2.38000000 -0.57735030 -0.09999999
vn -2.37999400 -0.57735030 -0.09999999
vn -2.37996500 -0.57735030 -0.09996210
vn -2.37985600 -0.57735030 -0.09999999
vn -2.37985600 -0.57735030 -0.09987171
vn -2.37999200 -0.57735020 -0.09974929
vn -2.37999200 -0.57735020 -0.09974836
vn -2.37987500 -0.57735030 -0.09982846
vn -2.37985600 -0.57735030 -0.09982679
vn -2.38007300 -0.57735030 -0.10002020
vn -2.38010500 -0.57735030 -0.10002670
vn -2.38036100 -0.57735020 -0.10004470
vn -2.38036600 -0.57735020 -0.10005150
vn -2.38054500 -0.57735010 -0.10000780
vn -2.38057800 -0.57735000 -0.09999999
vn -2.38000000 0.00000000 0.47735030
vn -2.38000000 0.00000000 0.47735030
vn -2.38000000 0.00000000 0.47735030
vn -2.38000000 0.00000000 0.47735030
vn -2.38000000 0.00000000 0.47735030
vn -2.38000000 0.00000000 0.47735030
vn -2.38000000 0.00000000 0.47735030
vn -2.38000000 0.00000000 0.47735030
vn -2.38000000 0.00000000 0.47735030
vn -2.38000000 0.00000000 0.47735030
vn -2.38000000 0.00000000 0.47735030
vn -2.38000000 0.00000000 0.47735030
vn -2.38000000 0.00000000 0.47735030
vn -2.38000000 0.00000000 0.47735030
vn -2.38000000 0.00000000 0.47735030
vn -2.38000000 0.00000000 0.47735030
vn -2.38000000 0.00000000 0.47735030
vn -2.38000000 0.00000000 0.47735030
vn -2.38000000 0.00000000 0.47735030
vn -2.38000000 0.00000000 0.47735030
vn -2.38000000 0.00000000 0.47735030
vn -2.38000000 0.00000000 0.47735030
vn -2.38000000 0.00000000 0.47735030
vn -2.38000000 0.00000000 0.47735030
vn -2.38000000 0.00000000 0.47735030
vn -2.37981700 0.00000000 0.47735030
vn -2.37981700 0.00000000 0.47735030
vn -2.38000100 -0.00000239 0.47735030
vn -2.38000100 -0.00000294 0.47735030
vn -2.38000000 0.00000000 0.47735030
vn -2.37981700 0.00002259 0.47735030
vn -2.38000000 0.00000000 0.47735030
vn -2.37981600 0.00000000 0.47735030
vn -2.37981600 0.00000000 0.47735030
vn -2.38000000 0.00000000 0.47735030
vn -2.37981600 0.00000000 0.47735030
vn -2.38000000 0.00000000 0.47735030
vn -2.37981600 0.00000000 0.47735030
vn -2.37981600 0.00000000 0.47735030
vn -2.37981600 0.00000000 0.47735030
vn -2.38000000 0.00000446 0.47735030
vn -2.37981600 0.00000000 0.47735030
vn -2.95735000 0.00000000 -0.09999999
vn -2.95735000 0.00000000 -0.09999999
vn -2.95735000 0.00000000 -0.09999999
vn -2.95735000 0.00000000 -0.09999999
vn -2.95735000 0.00000000 -0.09999999
vn -2.95735000 0.00000000 -0.09999999
vn -2.95735000 0.00000000 -0.09999999
vn -2.95735000 0.00000000 -0.09999999
vn -2.95735000 0.00000000 -0.09999999
vn -2.95735000 0.00000000 -0.09999999
vn -2.95735000 0.00000000 -0.09999999
vn -2.95735000 0.00000000 -0.09999999
vn -2.95735000 0.00000000 -0.09999999
vn -2.95735000 0.00000000 -0.09999999
vn -2.95735000 0.00000000 -0.09999999
vn -2.95735000 0.00000000 -0.09999999
vn -2.95735000 0.00000000 -0.09999999
vn -2.95735000 0.00000000 -0.09999999
vn -2.95735000 0.00000000 -0.09999999
vn -2.95735000 0.00000000 -0.09999999
vn -2.95735000 0.00000000 -0.09999999
vn -2.95735000 0.00000000 -0.09999999
vn -2.95735000 0.00000000 -0.09999999
vn -2.95735000 0.00000000 -0.09999999
vn -2.95735000 0.00000000 -0.09999999
vn -2.95735000 0.00000000 -0.09999999
vn -2.95735000 0.00000000 -0.09999999
vn -2.95735000 0.00000000 -0.09999999
vn -2.95735000 0.00000000 -0.09999999
vn -2.95735000 0.00000000 -0.09999999
vn -2.95735000 0.00000000 -0.09999999
vn -2.95735000 0.00000000 -0.09999999
vn -2.95735000 0.00000000 -0.09999999
vn -2.95735000 0.00000000 -0.09999999
vn -2.95735000 0.00000000 -0.09999999
vn -2.95735000 0.00000000 -0.09999999
vn -2.95735000 0.00000000 -0.09999999
vn -2.95735000 0.00000000 -0.09999999
vn -2.95735000 0.00000000 -0.09999999
vn -2.95735000 0.00000000 -0.09999999
vn -2.95735000 0.00000000 -0.09999999
vn -2.95735000 0.00000000 -0.09999999
vn -2.95735000 0.00000000 -0.09999999
vn -1.80265000 0.00000000 -0.09999999
vn -1.80265000 0.00000000 -0.09999999
vn -1.80265000 0.00000000 -0.09999999
vn -1.80265000 0.00000000 -0.09999999
vn -1.80265000 0.00000000 -0.09999999
vn -1.80265000 0.00000000 -0.09999999
vn -1.80265000 0.00000000 -0.09999999
vn -1.80265000 0.00000000 -0.09999999
vn -1.80265000 0.00000000 -0.09999999
vn -1.80265000 0.00000000 -0.09999999
vn -1.80265000 0.00000000 -0.09999999
vn -1.80265000 0.00000000 -0.09999999
vn -1.80265000 0.00000000 -0.09999999
vn -1.80265000 0.00000000 -0.09999999
vn -1.80265000 0.00000000 -0.09999999
vn -1.80265000 0.00000000 -0.09999999
vn -1.80265000 0.00000000 -0.09999999
vn -1.80265000 0.00000000 -0.09999999
vn -1.80265000 0.00000000 -0.09999999
vn -1.80265000 0.00000000 -0.09999999
vn -2.38000000 0.00000000 -0.67735030
vn -2.38000000 0.00000000 -0.67735030
vn -2.38000000 0.00000000 -0.67735030
vn -2.38000000 0.00000000 -0.67735030
vn -2.38000000 0.00000000 -0.67735030
vn -2.38000000 0.00000000 -0.67735030
vn -2.38000000 0.00000000 -0.67735030
vn -2.38000000 0.00000000 -0.67735030
vn -2.38000000 0.00000000 -0.67735030
vn -2.38000000 0.00000000 -0.67735030
vn -2.38000000 0.00000000 -0.67735030
vn -2.38000000 0.00000000 -0.67735030
vn -2.38000000 0.00000000 -0.67735030
vn -2.37981700 0.00000000 -0.67735030
vn -2.37981700 0.00002258 -0.67735030
vn -2.37981600 0.00000000 -0.67735030
vn -2.37981600 0.00000000 -0.67735030
vn -2.37981600 0.00000000 -0.67735030
vn -2.37981600 -0.00000021 -0.67735030
vn -2.37981600 0.00000000 -0.67735030
vn -2.37999900 0.00000000 -0.67735030
vn -2.38000000 0.00000000 -0.67735030
vn -2.37999800 0.00000000 -0.67735030
vn -2.38000000 0.00000000 -0.67735030
vn -2.38000000 0.00000000 -0.67735030
vn -2.38000000 0.00000000 -0.67735030
vn -2.38000000 0.00000000 -0.67735030
vn -2.38000000 0.00000000 -0.67735030
vn -2.38000000 0.00000000 -0.67735030
vn -2.38000000 0.00000000 -0.67735030
vn -2.38000000 0.00000000 -0.67735030
vn -2.38000000 0.00000000 -0.67735030
vn -2.38000000 0.00000000 -0.67735030
vn -2.38000000 0.00000000 -0.67735030
vn -2.38000000 0.00000000 -0.67735030
vn -2.38000000 0.00000000 -0.67735030
vn -2.38000000 0.00000000 -0.67735030
vn -2.38000000 0.00000000 -0.67735030
vn -2.38000100 0.00000000 -0.67735030
vn -2.38000100 0.00000000 -0.67735030
vn -2.38000000 0.00000000 -0.67735030
vn -2.38000000 0.00000000 -0.67735030
vn -2.38000000 0.00000000 -0.67735030
vn -2.38000000 0.00000000 -0.67735030
vn -2.38000000 0.00000000 -0.67735030
vn -2.38000000 0.00000000 -0.67735030
vn -2.38000000 0.00000000 -0.67735030
vn -2.38000000 0.00000000 -0.67735030
vn -1.80265000 -0.00000844 -0.09999999
vn -1.80265000 0.00000000 -0.09999999
vn -1.80265000 0.00000000 -0.09999999
vn -1.80265000 -0.00000810 -0.09999999
vn -1.80265000 0.00000601 -0.09999999
vn -1.80265000 0.00000626 -0.09999999
vn -1.80265000 0.00000000 -0.09999999
vn -1.80265000 0.00000000 -0.09999999
vn -1.80265000 0.00000000 -0.09999999
vn -1.80265000 -0.00000044 -0.09999999
vn -1.80265000 0.00000000 -0.09999999
vn -1.80265000 0.00000000 -0.09999999
vn -1.80265000 0.00016062 -0.09999999
vn -1.80265000 0.00000000 -0.09978313
vn -1.80265000 -0.00000844 -0.09999999
vn -1.80265000 0.00000000 -0.09999999
vn -1.80265000 0.00000000 -0.09999999
vn -1.80265000 0.00000000 -0.09999999
vn -1.80265100 -0.00136883 -0.09999999
vn -1.80265000 0.00000000 -0.09999999
vn -1.80265000 -0.00000810 -0.09999999
vn -1.80265000 0.00000000 -0.09999999
vn -1.80265000 -0.00003716 -0.09999999
vn -1.80265000 -0.00001962 -0.09996220
vn -1.80265000 0.00000166 -0.09994412
vn -1.80265000 0.00033605 -0.09996326
vn -1.80265000 0.00000000 -0.09999999
vn -1.80265000 0.00026247 -0.09999999
vn -1.80265000 0.00000000 -0.09999999
vn -1.80265000 0.00000000 -0.09999999
vn -1.80265000 0.00000000 -0.09999999
vn -1.80265000 0.00000000 -0.09999999
vn -1.80265000 0.00000000 -0.09999999
vn -1.80265000 0.00000000 -0.09999999
vn -1.80265000 0.00000000 -0.09999999
vn -1.80265000 0.00000000 -0.09999999
vn -1.80265000 0.00000000 -0.09999999
vn -1.80265000 0.00000000 -0.09999999
vn -1.80265000 0.00000000 -0.09999999
vn -1.80265000 0.00000000 -0.09999999
vn -1.80265000 -0.00045188 -0.09999999
vn -1.80265000 0.00000000 -0.09999999
vn -1.80265000 0.00000000 -0.09999999
vn -1.80265000 0.00000000 -0.09999999
vn -1.80265000 0.00000000 -0.09999999
vn -1.80265000 -0.00045223 -0.10057610
vn -1.80265000 0.00000631 -0.09999999
vn -1.80265000 0.00005706 -0.10057610
vn -1.80265000 -0.00004973 -0.09993849
vn -1.80265000 -0.00000821 -0.09999999
vn -1.80265000 0.00001219 -0.09999999
vn -1.80265000 -0.00000850 -0.09999999
vn -1.80265000 0.00000000 -0.09999999
vn -1.80265000 -0.00000816 -0.09999999
vn -1.80265000 0.00000000 -0.09999999
vn -1.80265000 0.00000000 -0.09999999
vn -2.38000000 0.00000000 0.47735030
vn -2.38000000 0.00000000 0.47735030
vn -2.38000000 0.00000000 0.47735030
vn -2.38000000 0.00000000 0.47735030
vn -2.38000000 0.00000000 0.47735030
vn -2.38000000 0.00000000 0.47735030
vn -2.38000000 0.00000000 0.47735030
vn -2.38000000 0.00000000 0.47735030
vn -2.38000000 0.00000000 0.47735030
vn -2.38000000 0.00000000 0.47735030
vn -2.95735000 -0.00017970 -0.10010720
vn -2.95735000 -0.00003465 -0.09985840
vn -2.95735000 0.00000000 -0.09989484
vn -2.95735000 -0.00020034 -0.10006520
vn -2.95735000 0.00000582 -0.09979336
vn -2.95735000 -0.00000714 -0.09978347
vn -2.95735000 -0.00012178 -0.10009090
vn -2.95735000 0.00000941 -0.09979893
vn -2.95735000 -0.00011320 -0.10011390
vn -2.95735000 0.00000401 -0.09980343
vn -2.95735000 0.00001452 -0.09980343
vn -2.95735000 0.00000000 -0.09981876
vn -2.95735000 0.00000000 -0.09981876
vn -2.95735000 0.00003545 -0.09982032
vn -2.95735000 -0.00012289 -0.10009360
vn -2.95735000 0.00001486 -0.10016130
vn -2.95735000 -0.00010894 -0.10005280
vn -2.95735000 -0.00007780 -0.09990445
vn -2.95735000 -0.00007637 -0.09989969
vn -2.95735000 -0.00003964 -0.09990508
vn -2.95735000 -0.00009579 -0.09993497
vn -2.95735000 -0.00007876 -0.09991720
vn -2.95735000 -0.00003185 -0.09990770
vn -2.95735000 -0.00009809 -0.09996009
vn -2.95735000 -0.00007891 -0.09999774
vn -2.95735000 -0.00000826 -0.09990916
vn -2.95735000 0.00000000 -0.09991233
vn -2.95735000 0.00000000 -0.09991233
vn -2.95735000 -0.00003731 -0.09991801
vn -2.95735000 -0.00003317 -0.09991801
vn -2.95735000 0.00000000 -0.09996334
vn -2.95735000 -0.00003450 -0.09996334
vn -2.95735000 0.00000000 -0.09999850
vn -2.37999900 -0.00028899 0.47735020
vn -2.38000000 0.00003602 0.47735030
vn -2.37999700 -0.00029177 0.47735020
vn -2.38000000 0.00003599 0.47735030
vn -2.38000000 0.00007251 0.47735030
vn -2.38000000 0.00007251 0.47735030
vn -2.38000000 0.57735030 -0.09999999
vn -2.38000000 0.57735030 -0.09999999
vn -2.38000000 0.57735030 -0.09999999
vn -2.38000000 0.57735030 -0.09999999
vn -2.38000000 0.00000000 -0.67735030
vn -2.38000000 0.00000000 -0.67735030
vn -2.38000000 0.00000000 -0.67735030
vn -2.38000000 0.00000000 -0.67735030
vn -2.38000000 0.00000000 -0.67735030
vn -2.38000000 0.00000000 -0.67735030
vn -2.37460100 -0.57732500 -0.09999982
vn -2.37460200 -0.57732500 -0.09999999
vn -2.37458500 -0.57732490 -0.09999789
vn -2.37458400 -0.57732490 -0.09999770
vn -1.80265000 -0.00001060 -0.09994312
vn -1.80265000 0.00047167 -0.09999999
vn -1.80265000 0.00002862 -0.09997116
vn -1.80265000 0.00000535 -0.09993853
vn -1.80265000 -0.00001364 -0.09998284
vn -1.80265000 -0.00003000 -0.09999999
vn -1.80265000 -0.00000702 -0.09999999
vn -1.80265000 -0.00000702 -0.09999999
vn -2.95735000 0.00001011 -0.10005770
vn -2.95735000 -0.00002908 -0.10002930
vn -2.95735000 -0.00047826 -0.09999999
vn -2.95735000 -0.00000568 -0.10006240
vn -2.95735000 0.00001429 -0.10001740
vn -2.95735000 0.00003102 -0.09999999
vn -2.95735000 0.00000837 -0.09999999
vn -2.95735000 0.00000852 -0.09999999
vn -2.37958300 0.00000000 -0.67735020
vn -2.37958500 0.00000000 -0.67735020
vn -2.37958300 0.00000000 -0.67735020
vn -2.37958500 0.00000000 -0.67735020
vn -2.37958500 0.00000008 -0.67735020
vn -2.37958500 0.00000000 -0.67735020
vn -2.37958500 0.00000039 -0.67735020
vn -2.37958500 0.00000000 -0.67735020
vn -2.37279200 -0.57730530 -0.10000090
vn -2.37279900 -0.57730540 -0.09999999
vn -2.37279900 -0.57730540 -0.10000010
vn -2.37279200 -0.57730530 -0.10000100
vn -2.38000000 0.00000000 0.47735030
vn -2.38000000 0.00000000 0.47735030
vn -2.38000000 0.00000000 0.47735030
vn -2.38000000 0.00000000 0.47735030
vn -2.38000000 0.00000000 0.47735030
vn -2.38000000 0.00000000 0.47735030
vn -2.38000000 0.00000000 0.47735030
vn -2.38000000 0.00000000 0.47735030
vn -2.38019300 0.57735030 -0.09999999
vn -2.38019300 0.57735030 -0.09999999
vn -2.38019300 0.57735030 -0.09999999
vn -2.38019300 0.57735030 -0.09999999
vn -2.38000000 0.57735030 -0.09999999
vn -2.38000000 0.57735030 -0.09999999
vn -2.38000000 0.57735030 -0.09999999
vn -2.38000000 0.57735030 -0.09999999
vn -2.38000000 0.00000000 0.47735030
vn -2.38000000 0.00000000 0.47735030
vn -2.38000000 0.00000000 0.47735030
vn -2.38000000 0.00000000 0.47735030
vn -2.38000000 0.00000000 0.47735030
vn -2.38000000 0.00000000 0.47735030
vn -2.38000000 0.00000000 0.47735030
vn -2.38000000 0.00000000 0.47735030
vn -2.38000000 -0.57735030 -0.09999999
vn -2.38000000 -0.57735030 -0.09999999
vn -2.38000000 -0.57735030 -0.09999999
vn -2.38000000 -0.57735030 -0.09999999
vn -2.38000000 0.00000000 -0.67735030
vn -2.38000000 0.00000000 -0.67735030
vn -2.38000000 0.00000000 -0.67735030
vn -2.38000000 0.00000000 -0.67735030
vn -2.38000000 0.00000000 -0.67735030
vn -2.38000000 0.00000000 -0.67735030
vn -2.38000000 0.00000000 -0.67735030
vn -2.38000000 0.00000000 -0.67735030
vn -2.38000000 0.00000000 -0.67735030
vn -2.38000000 0.00000000 -0.67735030
vn -2.38000000 0.00000000 -0.67735030
vn -2.38000000 0.00000000 -0.67735030
vn -2.38000000 0.00000000 -0.67735030
vn -2.38000000 0.00000000 -0.67735030
vn -2.38000000 0.00000000 -0.67735030
vn -2.38000000 0.00000000 -0.67735030
vn -2.38000000 -0.57735030 -0.09999999
vn -2.38000000 -0.57735030 -0.09999999
vn -2.38000000 -0.57735030 -0.09999999
vn -2.38000000 -0.57735030 -0.09999999
vn -2.38000000 0.00000000 0.47735030
vn -2.38000000 0.00000000 0.47735030
vn -2.38000000 0.00000000 0.47735030
vn -2.38000000 0.00000000 0.47735030
vn -2.38000000 0.00000000 0.47735030
vn -2.38000000 0.00000000 0.47735030
vn -2.38000000 0.00000000 0.47735030
vn -2.38000000 0.00000000 0.47735030
vn -2.95735000 0.00000000 -0.09999999
vn -2.95735000 0.00000000 -0.09999999
vn -2.95735000 0.00000000 -0.09999999
vn -2.95735000 0.00000000 -0.09999999
vn -2.95735000 0.00000000 -0.09999999
vn -2.95735000 0.00000000 -0.09999999
vn -2.95735000 0.00000000 -0.09999999
vn -2.95735000 0.00000000 -0.09999999
vn -2.38000000 -0.57735030 -0.09999999
vn -2.38000000 -0.57735030 -0.09999999
vn -2.38000000 -0.57735030 -0.09999999
vn -2.38000000 -0.57735030 -0.09999999
vn -1.80265000 0.00000000 -0.09999999
vn -1.80265000 0.00000000 -0.09999999
vn -1.80265000 0.00000000 -0.09999999
vn -1.80265000 0.00000000 -0.09999999
vn -1.80265000 0.00000007 -0.09999933
vn -1.80265000 0.00000007 -0.09999933
vn -1.80265000 0.00000000 -0.09999868
vn -1.80265000 0.00000000 -0.09999868
vt -12.72206000 -16.43988000
vt -12.72206000 -16.53969000
vt -12.82226000 -16.53969000
vt -12.82226000 -16.43988000
vt -12.72206000 -13.67046000
vt -12.82226000 -13.67046000
vt -17.36135000 -16.43988000
vt -12.82226000 -12.82217000
vt -12.72206000 -12.82217000
vt -12.72206000 -11.25033000
vt -12.82226000 -11.25033000
vt -12.72206000 -11.15054000
vt -12.82226000 -11.15054000
vt -14.93148000 -11.15054000
vt -14.93148000 -11.25033000
vt -15.78293000 -11.15054000
vt -15.78293000 -11.25033000
vt -17.36285000 -11.15104000
vt -17.36285000 -11.24984000
vt -17.56175000 -11.15104000
vt -17.56175000 -11.25008000
vt -17.56175000 -12.07058000
vt -17.36135000 -11.25033000
vt -17.36120000 -12.07069000
vt -17.56175000 -13.14627000
vt -17.36101000 -13.14627000
vt -17.56175000 -14.04471000
vt -17.36085000 -14.04471000
vt -17.56175000 -15.64137000
vt -17.36147000 -15.64137000
vt -17.56175000 -16.43988000
vt -17.36135000 -16.53969000
vt -17.56175000 -16.53969000
vt -0.74939490 -1.70169800
vt -0.64939460 -0.12669980
vt -0.64939460 -1.70169800
vt -0.74939510 -0.12669960
vt -0.64939450 -0.02669996
vt -0.74939500 -0.02669996
vt 1.44385400 -0.12669970
vt 1.44385400 -0.02669972
vt -0.48533830 -0.96978330
vt 1.07966200 -1.06928300
vt -0.48533820 -1.06978300
vt 1.07966200 -0.97028330
vt 1.27816200 -1.06953300
vt 1.27816200 -0.97028290
vt 0.49916950 -3.23835500
vt 0.49916950 -3.13835500
vt 0.62416900 -3.13835500
vt 0.62416880 -3.23835500
vt 3.27416600 -3.23835500
vt 3.27416600 -3.13835500
vt 3.37416500 -3.23835500
vt 3.37416600 -3.13835500
vt 3.37416500 1.39163800
vt 3.27416600 1.39163900
vt 3.37416600 1.59164000
vt 3.27416600 1.59164000
vt 2.47404100 1.59164000
vt 2.47404100 1.39188700
vt 0.87416910 1.59164000
vt 0.87416900 1.39163900
vt -0.02608013 1.39163900
vt -0.02608001 1.59164000
vt -1.10382200 1.39163900
vt -1.10392900 1.59164000
vt -1.92607800 1.59164000
vt -1.92582800 1.39163900
vt -2.16925900 -1.63323000
vt -2.06926000 -1.67322900
vt -2.16925900 -1.67322900
vt -2.06925900 -1.63323000
vt -2.06925900 -0.79822910
vt -2.16925900 -0.79822920
vt -2.16925800 0.32677040
vt 0.02399421 -1.63322600
vt 0.02399305 -1.67322900
vt 0.02399302 -0.79822950
vt 0.02399182 0.35654070
vt -2.06925900 0.32677030
vt -2.06926000 0.45177100
vt -2.16925800 0.45177040
vt -2.16925900 0.76677070
vt 0.03574187 0.45177050
vt 0.89724040 0.35653980
vt -2.06926000 0.76677100
vt -2.06925900 0.82677010
vt -2.16925900 0.82676980
vt 0.03574166 0.76677100
vt 0.03574169 0.82677030
vt 0.88549210 0.76677080
vt 0.88549220 0.82677030
vt 0.88549220 0.45177070
vt 2.46224200 0.76677050
vt 2.46224200 0.82677030
vt 2.66074200 0.76677050
vt 2.66074200 0.82677040
vt 2.66074200 0.45364430
vt 2.46224200 0.45177090
vt 2.66074200 0.32677070
vt 2.46224200 0.32677070
vt 2.46224200 -0.79822960
vt 2.66075400 -0.79822950
vt 0.89723800 -0.79823000
vt 2.66074200 -1.63318000
vt 2.46224200 -1.63323000
vt 0.89723940 -1.63322900
vt 2.46224200 -1.67273000
vt 2.66074200 -1.67268000
vt 0.89724050 -1.67322900
vt 3.41927800 -2.39041600
vt 3.41927800 -2.43041600
vt 3.31927900 -2.43041600
vt 3.31927800 -2.39041600
vt 1.74427900 -2.43041600
vt 1.74427900 -2.39041600
vt 1.74427900 -1.55541600
vt 3.31927800 -1.55541600
vt 3.41927800 -1.55541500
vt 3.41927900 -0.43041580
vt 3.31927900 -0.43041560
vt 1.74427900 -0.51166250
vt 3.31927900 -0.30541510
vt 3.41927900 -0.30541550
vt 3.41927800 0.00958490
vt 1.74427900 -0.30541530
vt 0.89427850 -0.30541540
vt 0.89427850 -0.51166220
vt 3.31927800 0.00958479
vt 3.31927800 0.06958449
vt 3.41927800 0.06958449
vt 1.74427900 0.06958449
vt 1.74427800 0.00958479
vt 0.89427850 0.06958449
vt 0.89427850 0.00958479
vt -1.88072200 0.00958490
vt -1.88072200 0.06958413
vt -1.88072200 -0.43041550
vt 0.89427850 -1.55541600
vt -1.88072200 -0.30541570
vt -1.98072100 0.00958455
vt -1.98072100 0.06958437
vt -1.98072100 -0.30541560
vt -1.98072100 -0.43041510
vt -1.88072200 -1.55541600
vt -1.98072100 -1.55541600
vt -1.98072100 -2.39041600
vt -1.88072200 -2.39041600
vt 0.89427850 -2.39041600
vt -1.88072200 -2.43041600
vt -1.98072200 -2.43041600
vt 0.76927860 -2.43041600
vt 0.89427850 -2.43041500
vt -1.87116800 -1.67168100
vt -0.29616790 -0.83668150
vt -0.29616800 -1.67168100
vt -1.87116800 -0.83668150
vt -1.87116800 0.28831910
vt -0.29616810 0.20707150
vt -0.29616760 0.41331830
vt 0.55383240 0.41331830
vt -1.87116800 0.41331820
vt -1.87116800 0.72831890
vt -0.29616770 0.72831870
vt 0.55383210 0.72831860
vt 3.32883200 0.72831860
vt 3.32883300 0.41331820
vt 0.55383290 0.20707220
vt 3.32883200 0.28831900
vt 0.55383230 -0.83668140
vt 3.32883200 -0.83668120
vt 3.32883300 -1.67168200
vt 0.55383230 -1.67168100
vt 0.07793184 0.53658310
vt -2.01532000 -0.29841820
vt -2.01531900 0.53658290
vt 0.07793306 -0.29841720
vt 0.07793389 -1.45318800
vt -2.01531900 -1.42341700
vt -2.01531900 -1.54841700
vt 0.08968098 -1.54841700
vt 0.95117950 -1.45318700
vt 0.08968098 -1.86341800
vt -2.01532000 -1.86341800
vt 0.93943080 -1.86341800
vt 0.93943100 -1.54841700
vt 2.51618000 -1.86341800
vt 2.51618000 -1.54841700
vt 2.51618000 -1.42341700
vt 2.51618000 -0.29841840
vt 0.95117910 -0.29841800
vt 2.51618000 0.53658210
vt 0.95117890 0.53658240
vt 8.56135400 7.70978000
vt 8.75607100 7.66864300
vt 8.56135400 7.66869400
vt 8.75607100 7.70972800
vt 13.16644000 7.66864300
vt 8.75607100 8.56737900
vt 8.56134200 8.56737900
vt 8.56135400 9.72289600
vt 13.16644000 7.70972800
vt 13.26379000 7.66864300
vt 13.26379000 7.70972800
vt 13.26379000 8.56737900
vt 13.16644000 8.56737900
vt 8.75607100 9.72289600
vt 13.16644000 9.72289600
vt 13.26379000 9.72289600
vt 13.26379000 9.85128500
vt 8.75607100 9.85128500
vt 8.56135400 9.85321100
vt 8.56135400 10.17483000
vt 13.16644000 9.85128500
vt 8.75607100 10.17483000
vt 13.16644000 10.17483000
vt 13.26379000 10.17483000
vt 13.26379000 10.23646000
vt 13.16644000 10.23646000
vt 8.75607100 10.23646000
vt 8.56135400 10.23646000
vt -0.14275260 -11.83355000
vt -0.14275260 -11.87472000
vt -0.23992010 -11.87472000
vt -0.23992010 -11.83355000
vt -0.23992010 -10.97426000
vt -0.14275260 -10.97426000
vt -0.14275260 -9.81646300
vt -1.01737600 -11.83360000
vt -1.01738000 -11.87451000
vt -2.57193700 -11.87369000
vt -2.57193700 -11.83355000
vt -3.44668700 -11.87377000
vt -1.01727400 -10.97426000
vt -1.01713700 -9.81646300
vt -2.57193700 -10.97426000
vt -0.23992010 -9.81646300
vt -0.23992010 -9.68589100
vt -0.14275260 -9.68589100
vt -1.01719800 -9.68589100
vt -0.14275260 -9.36363600
vt -3.44668700 -11.83355000
vt -4.49400500 -11.87387000
vt -3.44668700 -10.97426000
vt -3.44668700 -9.81646300
vt -2.57193700 -9.81646300
vt -3.44668700 -9.68589100
vt -4.49400500 -11.83355000
vt -2.57193700 -9.68589100
vt -1.01735100 -9.36363600
vt -0.23992010 -9.36363600
vt -0.23992010 -9.30188800
vt -0.14275260 -9.30188800
vt -1.01738000 -9.30188800
vt -2.57193700 -9.36363600
vt -2.57193700 -9.30188800
vt -3.44668700 -9.30188800
vt -3.44668700 -9.36363600
vt -4.49400500 -9.36363600
vt -4.49400500 -9.30188800
vt -5.29286800 -9.30188800
vt -4.49400500 -9.68589100
vt -5.29286800 -9.36363600
vt -5.38930600 -9.30188800
vt -5.38930600 -9.36363600
vt -5.38930600 -9.68589100
vt -5.29286800 -9.68589100
vt -5.38930600 -9.81646300
vt -5.29286800 -9.81646300
vt -4.49400500 -9.81646300
vt -5.29286800 -10.97426000
vt -4.49400500 -10.97426000
vt -5.38930600 -10.97426000
vt -5.29286800 -11.83355000
vt -5.38930600 -11.83355000
vt -5.29286800 -11.87395000
vt -5.38930600 -11.87420000
vt -1.18636400 15.55062000
vt -5.64841800 15.55062000
vt -5.64841800 16.39833000
vt -1.18636400 16.39833000
vt -1.18636400 17.54046000
vt -5.64841800 17.54046000
vt -5.64841800 17.66737000
vt -1.18636400 17.66737000
vt -1.18636400 17.98716000
vt -5.64841800 17.98716000
vt 7.19782500 3.68613100
vt 6.41517800 3.36410800
vt 6.41517800 3.68613100
vt 7.19767200 3.36410800
vt 6.41517800 3.23632300
vt 7.19761000 3.23632300
vt 8.76284400 3.36410800
vt 7.19774800 2.08624300
vt 8.76284400 3.68613100
vt 6.41517800 2.08624300
vt 7.19785000 1.23262800
vt 6.41517800 1.23262800
vt 6.41517800 1.19173600
vt 7.19785500 1.19199200
vt 8.76284400 1.19275800
vt 8.76284400 2.08624300
vt 8.76284400 1.23262800
vt 9.64346300 3.36410800
vt 9.64346300 3.68613100
vt 10.69770000 3.68613100
vt 8.76284400 3.23632300
vt 9.64346300 3.23632300
vt 10.69770000 3.36410800
vt 9.64346300 2.08624300
vt 9.64346300 1.23262800
vt 11.50179000 3.68613100
vt 11.50179000 3.36410800
vt 11.50179000 3.23632300
vt 10.69770000 3.23632300
vt 10.69770000 2.08624300
vt 11.50179000 2.08624300
vt 10.69770000 1.23262800
vt 11.50179000 1.23262800
vt 21.47044000 0.29282970
vt 21.19831000 0.19972340
vt 21.19825000 0.29145390
vt 21.47003000 0.19972340
vt 21.19827000 -0.62585470
vt 21.47046000 -0.62585470
vt 18.88294000 -0.94937860
vt 18.88225000 -1.98909500
vt 18.57488000 -1.98909500
vt 18.57488000 -0.94937860
vt 20.16800000 -1.10220400
vt 20.16769000 -1.92957800
vt 19.89549000 -1.92957800
vt 19.89524000 -1.10220400
vt 20.16803000 -1.01027300
vt 19.89551000 -1.00889500
vt 17.27205000 -0.94905130
vt 17.58032000 -0.94905130
vt 17.58032000 -1.98942200
vt 17.27310000 -1.98942200
vt 16.25677000 -4.94332200
vt 17.29288000 -4.94332200
vt 17.29288000 -5.07530700
vt 16.25677000 -5.07530700
vt 16.25677000 -6.24562900
vt 17.29288000 -6.24562900
vt 16.25677000 -7.11421600
vt 17.29288000 -7.11421600
vt 19.89832000 -4.94331600
vt 18.86222000 -5.07530100
vt 18.86222000 -4.94331600
vt 19.89832000 -5.07530100
vt 19.89832000 -6.24563000
vt 18.86222000 -6.24563000
vt 19.89832000 -7.11422200
vt 18.86222000 -7.11422200
vt 21.20350000 -10.53522000
vt 21.46511000 -10.05646000
vt 21.46502000 -10.53525000
vt 21.20347000 -10.05646000
vt 21.46522000 -9.41137900
vt 21.20351000 -9.41137900
vt 21.46523000 -9.33970300
vt 21.20350000 -9.33862800
vt 16.25968000 4.69023100
vt 16.25968000 4.09580600
vt 15.98724000 4.09580600
vt 15.98753000 4.69017200
vt 21.46535000 -14.62182000
vt 21.20336000 -14.55008000
vt 21.46517000 -14.54900000
vt 21.20339000 -14.62182000
vt 21.46519000 -15.26746000
vt 21.20366000 -15.26746000
vt 21.46517000 -15.74664000
vt 21.20386000 -15.74667000
vt 21.19826000 2.79336800
vt 21.19826000 3.38722200
vt 21.47044000 3.38716200
vt 21.47045000 2.79336800
vt 18.61780000 4.15060900
vt 18.61780000 4.63542900
vt 18.84002000 4.63542900
vt 18.84002000 4.15060900
vt 16.23022000 -0.38895050
vt 16.01667000 -0.32957540
vt 16.23025000 -0.32957540
vt 16.01664000 -0.38895050
vt 16.23027000 -0.91543160
vt 16.01669000 -0.91543160
vt 16.23025000 -1.30617500
vt 16.01667000 -1.30617500
vt 17.53729000 4.63543300
vt 17.53729000 4.15060500
vt 17.31508000 4.15060500
vt 17.31508000 4.63543300
vt 21.22769000 -4.82364300
vt 21.44122000 -5.21454700
vt 21.22771000 -5.21454700
vt 21.44119000 -4.82364300
vt 21.22749000 -4.29694500
vt 21.44099000 -4.29694500
vt 21.22771000 -4.23754500
vt 21.44122000 -4.23754500
vt 0.18787290 -1.00786100
vt 1.23171000 -0.90785320
vt 1.23171000 -1.00786100
vt 0.18787290 -0.90785320
vt -0.64719380 -1.00786100
vt -0.64719380 -0.90785320
vt -0.68719670 -0.90785320
vt -0.68719670 -1.00786100
vt 0.00127924 -1.08547200
vt 0.00127924 -0.98547190
vt 0.85127960 -0.98547190
vt 0.85127960 -1.08547200
vt -0.48901250 -1.05636000
vt -0.48901260 -0.95635210
vt 0.55482290 -0.95635190
vt 0.55482290 -1.05636000
vt 1.38988900 -0.95635190
vt 1.38988900 -1.05636000
vt 1.42989200 -1.05636000
vt 1.42989200 -0.95635190
vt 0.47487090 -0.93896910
vt -0.67944110 -1.03893000
vt -0.67944110 -0.93896930
vt 0.47487080 -1.03892900
vt 1.30954100 -0.93896910
vt 1.30954100 -1.03892900
vt 1.34952600 -1.03893000
vt 1.34952400 -0.93896920
vt 0.86291480 -1.00116100
vt 0.86291480 -1.10116000
vt -0.01033124 -1.10116000
vt -0.01033124 -1.00116100
vt -0.67944220 -1.02024700
vt -0.67944230 -0.92028650
vt 0.47487070 -0.92028650
vt 0.47487080 -1.02024700
vt 1.30954200 -0.92028770
vt 1.30954100 -1.02024700
vt 1.34952500 -1.02024700
vt 1.34952700 -0.92028750
f 3/3/3 2/2/2 1/1/1
f 4/4/4 3/3/3 1/1/1
f 1/1/1 5/5/5 4/4/4
f 5/5/5 6/6/6 4/4/4
f 4/4/4 7/7/7 3/3/3
f 6/6/6 5/5/5 8/8/8
f 5/5/5 9/9/9 8/8/8
f 9/9/9 10/10/10 8/8/8
f 10/10/10 11/11/11 8/8/8
f 10/10/10 12/12/12 11/11/11
f 12/12/12 13/13/13 11/11/11
f 13/13/13 14/14/14 11/11/11
f 14/14/14 15/15/15 11/11/11
f 14/14/14 16/16/16 15/15/15
f 16/16/16 17/17/17 15/15/15
f 16/16/16 18/18/18 17/17/17
f 18/18/18 19/19/19 17/17/17
f 19/19/19 18/18/18 20/20/20
f 21/21/21 19/19/19 20/20/20
f 23/23/23 21/21/21 22/22/22
f 24/24/24 23/23/23 22/22/22
f 24/24/24 22/22/22 25/25/25
f 26/26/26 24/24/24 25/25/25
f 26/26/26 25/25/25 27/27/27
f 28/28/28 26/26/26 27/27/27
f 27/27/27 29/29/29 28/28/28
f 29/29/29 30/30/30 28/28/28
f 30/30/30 29/29/29 31/31/31
f 7/7/7 30/30/30 31/31/31
f 7/7/7 31/31/31 32/32/32
f 7/7/7 32/32/32 3/3/3
f 31/31/31 33/33/33 32/32/32
f 36/36/36 35/35/35 34/34/34
f 35/35/35 37/37/37 34/34/34
f 35/35/35 38/38/38 37/37/37
f 38/38/38 39/39/39 37/37/37
f 35/35/35 40/40/40 38/38/38
f 40/40/40 41/41/41 38/38/38
f 44/44/44 43/43/43 42/42/42
f 43/43/43 45/45/45 42/42/42
f 45/45/45 43/43/43 46/46/46
f 47/47/47 45/45/45 46/46/46
f 50/50/50 49/49/49 48/48/48
f 51/51/51 50/50/50 48/48/48
f 50/50/50 51/51/51 52/52/52
f 53/53/53 50/50/50 52/52/52
f 52/52/52 54/54/54 53/53/53
f 54/54/54 55/55/55 53/53/53
f 55/55/55 56/56/56 53/53/53
f 56/56/56 57/57/57 53/53/53
f 56/56/56 58/58/58 57/57/57
f 58/58/58 59/59/59 57/57/57
f 59/59/59 60/60/60 57/57/57
f 60/60/60 61/61/61 57/57/57
f 61/61/61 60/60/60 62/62/62
f 63/63/63 61/61/61 62/62/62
f 63/63/63 62/62/62 64/64/64
f 62/62/62 65/65/65 64/64/64
f 64/64/64 65/65/65 66/66/66
f 65/65/65 67/67/67 66/66/66
f 66/66/66 67/67/67 68/68/68
f 69/69/69 66/66/66 68/68/68
f 72/72/72 71/71/71 70/70/70
f 71/71/71 73/73/73 70/70/70
f 73/73/73 74/74/74 70/70/70
f 74/74/74 75/75/75 70/70/70
f 76/76/76 75/75/75 74/74/74
f 73/73/73 71/71/71 77/77/77
f 74/74/74 73/73/73 77/77/77
f 71/71/71 78/78/78 77/77/77
f 79/79/79 74/74/74 77/77/77
f 79/79/79 80/80/80 74/74/74
f 81/81/81 76/76/76 74/74/74
f 80/80/80 81/81/81 74/74/74
f 76/76/76 81/81/81 82/82/82
f 81/81/81 80/80/80 82/82/82
f 83/83/83 76/76/76 82/82/82
f 83/83/83 82/82/82 84/84/84
f 80/80/80 85/85/85 82/82/82
f 80/80/80 86/86/86 85/85/85
f 82/82/82 87/87/87 84/84/84
f 87/87/87 88/88/88 84/84/84
f 88/88/88 89/89/89 84/84/84
f 87/87/87 82/82/82 90/90/90
f 88/88/88 87/87/87 90/90/90
f 82/82/82 85/85/85 90/90/90
f 91/91/91 88/88/88 90/90/90
f 91/91/91 90/90/90 92/92/92
f 90/90/90 85/85/85 92/92/92
f 93/93/93 91/91/91 92/92/92
f 85/85/85 94/94/94 92/92/92
f 86/86/86 94/94/94 85/85/85
f 93/93/93 92/92/92 95/95/95
f 92/92/92 94/94/94 95/95/95
f 96/96/96 93/93/93 95/95/95
f 96/96/96 95/95/95 97/97/97
f 98/98/98 96/96/96 97/97/97
f 99/99/99 97/97/97 95/95/95
f 94/94/94 100/100/100 95/95/95
f 100/100/100 99/99/99 95/95/95
f 94/94/94 86/86/86 100/100/100
f 99/99/99 100/100/100 101/101/101
f 86/86/86 102/102/102 100/100/100
f 100/100/100 102/102/102 101/101/101
f 102/102/102 86/86/86 103/103/103
f 101/101/101 102/102/102 103/103/103
f 104/104/104 101/101/101 103/103/103
f 86/86/86 105/105/105 103/103/103
f 106/106/106 104/104/104 103/103/103
f 103/103/103 105/105/105 107/107/107
f 107/107/107 106/106/106 103/103/103
f 105/105/105 108/108/108 107/107/107
f 107/107/107 109/109/109 106/106/106
f 109/109/109 107/107/107 108/108/108
f 109/109/109 110/110/110 106/106/106
f 111/111/111 109/109/109 108/108/108
f 114/114/114 113/113/113 112/112/112
f 115/115/115 114/114/114 112/112/112
f 116/116/116 114/114/114 115/115/115
f 117/117/117 116/116/116 115/115/115
f 118/118/118 117/117/117 115/115/115
f 119/119/119 115/115/115 112/112/112
f 119/119/119 118/118/118 115/115/115
f 120/120/120 119/119/119 112/112/112
f 120/120/120 121/121/121 119/119/119
f 119/119/119 122/122/122 118/118/118
f 121/121/121 122/122/122 119/119/119
f 122/122/122 123/123/123 118/118/118
f 122/122/122 121/121/121 124/124/124
f 121/121/121 125/125/125 124/124/124
f 124/124/124 125/125/125 126/126/126
f 123/123/123 122/122/122 127/127/127
f 122/122/122 124/124/124 127/127/127
f 123/123/123 127/127/127 128/128/128
f 129/129/129 123/123/123 128/128/128
f 130/130/130 124/124/124 126/126/126
f 127/127/127 124/124/124 130/130/130
f 131/131/131 130/130/130 126/126/126
f 132/132/132 131/131/131 126/126/126
f 131/131/131 133/133/133 130/130/130
f 134/134/134 127/127/127 130/130/130
f 133/133/133 134/134/134 130/130/130
f 128/128/128 127/127/127 134/134/134
f 133/133/133 135/135/135 134/134/134
f 135/135/135 136/136/136 134/134/134
f 136/136/136 128/128/128 134/134/134
f 136/136/136 135/135/135 137/137/137
f 128/128/128 136/136/136 137/137/137
f 135/135/135 138/138/138 137/137/137
f 139/139/139 129/129/129 128/128/128
f 129/129/129 139/139/139 140/140/140
f 141/141/141 128/128/128 137/137/137
f 141/141/141 139/139/139 128/128/128
f 137/137/137 138/138/138 142/142/142
f 141/141/141 137/137/137 142/142/142
f 138/138/138 143/143/143 142/142/142
f 144/144/144 141/141/141 142/142/142
f 144/144/144 145/145/145 141/141/141
f 145/145/145 139/139/139 141/141/141
f 139/139/139 145/145/145 146/146/146
f 139/139/139 146/146/146 140/140/140
f 145/145/145 147/147/147 146/146/146
f 146/146/146 147/147/147 148/148/148
f 140/140/140 146/146/146 149/149/149
f 149/149/149 146/146/146 148/148/148
f 150/150/150 140/140/140 149/149/149
f 151/151/151 149/149/149 148/148/148
f 150/150/150 149/149/149 151/151/151
f 152/152/152 151/151/151 148/148/148
f 150/150/150 151/151/151 153/153/153
f 153/153/153 154/154/154 150/150/150
f 157/157/157 156/156/156 155/155/155
f 156/156/156 158/158/158 155/155/155
f 159/159/159 158/158/158 156/156/156
f 160/160/160 159/159/159 156/156/156
f 159/159/159 160/160/160 161/161/161
f 161/161/161 160/160/160 162/162/162
f 163/163/163 159/159/159 161/161/161
f 163/163/163 161/161/161 164/164/164
f 161/161/161 165/165/165 164/164/164
f 161/161/161 162/162/162 165/165/165
f 162/162/162 166/166/166 165/165/165
f 166/166/166 162/162/162 167/167/167
f 162/162/162 168/168/168 167/167/167
f 160/160/160 169/169/169 162/162/162
f 170/170/170 168/168/168 162/162/162
f 169/169/169 170/170/170 162/162/162
f 170/170/170 169/169/169 171/171/171
f 172/172/172 170/170/170 171/171/171
f 172/172/172 171/171/171 173/173/173
f 171/171/171 174/174/174 173/173/173
f 177/177/177 176/176/176 175/175/175
f 176/176/176 178/178/178 175/175/175
f 179/179/179 178/178/178 176/176/176
f 180/180/180 179/179/179 176/176/176
f 179/179/179 180/180/180 181/181/181
f 182/182/182 179/179/179 181/181/181
f 183/183/183 179/179/179 182/182/182
f 182/182/182 181/181/181 184/184/184
f 181/181/181 185/185/185 184/184/184
f 182/182/182 184/184/184 186/186/186
f 187/187/187 182/182/182 186/186/186
f 187/187/187 183/183/183 182/182/182
f 187/187/187 186/186/186 188/188/188
f 189/189/189 187/187/187 188/188/188
f 183/183/183 187/187/187 189/189/189
f 190/190/190 183/183/183 189/189/189
f 183/183/183 190/190/190 191/191/191
f 192/192/192 183/183/183 191/191/191
f 192/192/192 191/191/191 193/193/193
f 194/194/194 192/192/192 193/193/193
f 197/197/197 196/196/196 195/195/195
f 196/196/196 198/198/198 195/195/195
f 196/196/196 199/199/199 198/198/198
f 195/195/195 198/198/198 200/200/200
f 201/201/201 195/195/195 200/200/200
f 202/202/202 201/201/201 200/200/200
f 199/199/199 203/203/203 198/198/198
f 199/199/199 204/204/204 203/203/203
f 204/204/204 205/205/205 203/203/203
f 205/205/205 206/206/206 203/203/203
f 203/203/203 207/207/207 198/198/198
f 207/207/207 200/200/200 198/198/198
f 206/206/206 207/207/207 203/203/203
f 208/208/208 202/202/202 200/200/200
f 208/208/208 200/200/200 207/207/207
f 209/209/209 207/207/207 206/206/206
f 209/209/209 208/208/208 207/207/207
f 210/210/210 209/209/209 206/206/206
f 209/209/209 210/210/210 211/211/211
f 208/208/208 212/212/212 202/202/202
f 212/212/212 213/213/213 202/202/202
f 214/214/214 213/213/213 212/212/212
f 208/208/208 209/209/209 215/215/215
f 215/215/215 209/209/209 211/211/211
f 212/212/212 208/208/208 215/215/215
f 216/216/216 214/214/214 212/212/212
f 212/212/212 215/215/215 216/216/216
f 215/215/215 211/211/211 217/217/217
f 215/215/215 217/217/217 216/216/216
f 211/211/211 218/218/218 217/217/217
f 218/218/218 219/219/219 217/217/217
f 219/219/219 220/220/220 217/217/217
f 217/217/217 220/220/220 216/216/216
f 220/220/220 221/221/221 216/216/216
f 216/216/216 221/221/221 214/214/214
f 221/221/221 222/222/222 214/214/214
f 225/225/225 224/224/224 223/223/223
f 226/226/226 225/225/225 223/223/223
f 227/227/227 226/226/226 223/223/223
f 228/228/228 227/227/227 223/223/223
f 228/228/228 229/229/229 227/227/227
f 226/226/226 230/230/230 225/225/225
f 226/226/226 227/227/227 230/230/230
f 230/230/230 231/231/231 225/225/225
f 232/232/232 231/231/231 230/230/230
f 233/233/233 232/232/232 230/230/230
f 232/232/232 233/233/233 234/234/234
f 227/227/227 235/235/235 230/230/230
f 233/233/233 230/230/230 235/235/235
f 236/236/236 235/235/235 227/227/227
f 237/237/237 233/233/233 235/235/235
f 229/229/229 238/238/238 227/227/227
f 238/238/238 236/236/236 227/227/227
f 238/238/238 229/229/229 239/239/239
f 236/236/236 238/238/238 239/239/239
f 229/229/229 240/240/240 239/239/239
f 241/241/241 236/236/236 239/239/239
f 239/239/239 240/240/240 242/242/242
f 233/233/233 243/243/243 234/234/234
f 234/234/234 243/243/243 244/244/244
f 243/243/243 233/233/233 245/245/245
f 233/233/233 237/237/237 245/245/245
f 245/245/245 237/237/237 246/246/246
f 237/237/237 247/247/247 246/246/246
f 248/248/248 246/246/246 247/247/247
f 243/243/243 249/249/249 244/244/244
f 250/250/250 248/248/248 247/247/247
f 241/241/241 251/251/251 250/250/250
f 241/241/241 239/239/239 251/251/251
f 252/252/252 239/239/239 242/242/242
f 239/239/239 252/252/252 251/251/251
f 253/253/253 252/252/252 242/242/242
f 251/251/251 252/252/252 253/253/253
f 254/254/254 253/253/253 242/242/242
f 255/255/255 251/251/251 253/253/253
f 251/251/251 256/256/256 250/250/250
f 251/251/251 255/255/255 256/256/256
f 250/250/250 256/256/256 248/248/248
f 255/255/255 257/257/257 256/256/256
f 256/256/256 257/257/257 258/258/258
f 256/256/256 259/259/259 248/248/248
f 259/259/259 256/256/256 258/258/258
f 248/248/248 259/259/259 260/260/260
f 259/259/259 258/258/258 260/260/260
f 258/258/258 261/261/261 260/260/260
f 261/261/261 262/262/262 260/260/260
f 263/263/263 248/248/248 260/260/260
f 262/262/262 264/264/264 260/260/260
f 262/262/262 265/265/265 264/264/264
f 265/265/265 266/266/266 264/264/264
f 266/266/266 267/267/267 264/264/264
f 264/264/264 268/268/268 260/260/260
f 267/267/267 268/268/268 264/264/264
f 268/268/268 263/263/263 260/260/260
f 267/267/267 269/269/269 268/268/268
f 268/268/268 270/270/270 263/263/263
f 269/269/269 270/270/270 268/268/268
f 270/270/270 271/271/271 263/263/263
f 270/270/270 269/269/269 272/272/272
f 270/270/270 272/272/272 271/271/271
f 272/272/272 273/273/273 271/271/271
f 269/269/269 274/274/274 272/272/272
f 273/273/273 272/272/272 249/249/249
f 272/272/272 274/274/274 275/275/275
f 272/272/272 275/275/275 249/249/249
f 244/244/244 249/249/249 275/275/275
f 274/274/274 276/276/276 275/275/275
f 277/277/277 244/244/244 275/275/275
f 277/277/277 275/275/275 276/276/276
f 278/278/278 277/277/277 276/276/276
f 281/281/281 280/280/280 279/279/279
f 282/282/282 281/281/281 279/279/279
f 282/282/282 283/283/283 281/281/281
f 283/283/283 284/284/284 281/281/281
f 284/284/284 283/283/283 285/285/285
f 283/283/283 286/286/286 285/285/285
f 285/285/285 286/286/286 287/287/287
f 288/288/288 285/285/285 287/287/287
f 291/291/291 290/290/290 289/289/289
f 290/290/290 292/292/292 289/289/289
f 290/290/290 293/293/293 292/292/292
f 293/293/293 294/294/294 292/292/292
f 289/289/289 292/292/292 295/295/295
f 294/294/294 293/293/293 296/296/296
f 297/297/297 289/289/289 295/295/295
f 293/293/293 298/298/298 296/296/296
f 296/296/296 298/298/298 299/299/299
f 298/298/298 300/300/300 299/299/299
f 299/299/299 300/300/300 301/301/301
f 302/302/302 299/299/299 301/301/301
f 302/302/302 303/303/303 299/299/299
f 296/296/296 299/299/299 304/304/304
f 303/303/303 305/305/305 299/299/299
f 299/299/299 305/305/305 304/304/304
f 297/297/297 295/295/295 306/306/306
f 307/307/307 297/297/297 306/306/306
f 307/307/307 306/306/306 308/308/308
f 295/295/295 309/309/309 306/306/306
f 309/309/309 310/310/310 306/306/306
f 306/306/306 311/311/311 308/308/308
f 312/312/312 310/310/310 309/309/309
f 304/304/304 312/312/312 309/309/309
f 304/304/304 305/305/305 312/312/312
f 305/305/305 313/313/313 312/312/312
f 314/314/314 308/308/308 311/311/311
f 315/315/315 314/314/314 311/311/311
f 315/315/315 311/311/311 316/316/316
f 311/311/311 317/317/317 316/316/316
f 316/316/316 317/317/317 318/318/318
f 319/319/319 316/316/316 318/318/318
f 318/318/318 320/320/320 319/319/319
f 320/320/320 321/321/321 319/319/319
f 324/324/324 323/323/323 322/322/322
f 323/323/323 325/325/325 322/322/322
f 325/325/325 323/323/323 326/326/326
f 327/327/327 325/325/325 326/326/326
f 330/330/330 329/329/329 328/328/328
f 331/331/331 330/330/330 328/328/328
f 334/334/334 333/333/333 332/332/332
f 335/335/335 334/334/334 332/332/332
f 332/332/332 336/336/336 335/335/335
f 336/336/336 337/337/337 335/335/335
f 340/340/340 339/339/339 338/338/338
f 341/341/341 340/340/340 338/338/338
f 344/344/344 343/343/343 342/342/342
f 345/345/345 344/344/344 342/342/342
f 344/344/344 345/345/345 346/346/346
f 347/347/347 344/344/344 346/346/346
f 347/347/347 346/346/346 348/348/348
f 349/349/349 347/347/347 348/348/348
f 352/352/352 351/351/351 350/350/350
f 351/351/351 353/353/353 350/350/350
f 353/353/353 351/351/351 354/354/354
f 351/351/351 355/355/355 354/354/354
f 354/354/354 355/355/355 356/356/356
f 355/355/355 357/357/357 356/356/356
f 360/360/360 359/359/359 358/358/358
f 359/359/359 361/361/361 358/358/358
f 359/359/359 362/362/362 361/361/361
f 362/362/362 363/363/363 361/361/361
f 362/362/362 364/364/364 363/363/363
f 364/364/364 365/365/365 363/363/363
f 368/368/368 367/367/367 366/366/366
f 369/369/369 368/368/368 366/366/366
f 372/372/372 371/371/371 370/370/370
f 371/371/371 373/373/373 370/370/370
f 370/370/370 373/373/373 374/374/374
f 373/373/373 375/375/375 374/374/374
f 374/374/374 375/375/375 376/376/376
f 375/375/375 377/377/377 376/376/376
f 380/380/380 379/379/379 378/378/378
f 381/381/381 380/380/380 378/378/378
f 384/384/384 383/383/383 382/382/382
f 385/385/385 384/384/384 382/382/382
f 388/388/388 387/387/387 386/386/386
f 387/387/387 389/389/389 386/386/386
f 386/386/386 389/389/389 390/390/390
f 389/389/389 391/391/391 390/390/390
f 390/390/390 391/391/391 392/392/392
f 391/391/391 393/393/393 392/392/392
f 396/396/396 395/395/395 394/394/394
f 397/397/397 396/396/396 394/394/394
f 400/400/400 399/399/399 398/398/398
f 399/399/399 401/401/401 398/398/398
f 398/398/398 401/401/401 402/402/402
f 401/401/401 403/403/403 402/402/402
f 402/402/402 403/403/403 404/404/404
f 403/403/403 405/405/405 404/404/404
f 408/408/408 407/407/407 406/406/406
f 407/407/407 409/409/409 406/406/406
f 406/406/406 409/409/409 410/410/410
f 409/409/409 411/411/411 410/410/410
f 410/410/410 411/411/411 412/412/412
f 413/413/413 410/410/410 412/412/412
f 416/416/416 415/415/415 414/414/414
f 417/417/417 416/416/416 414/414/414
f 420/420/420 419/419/419 418/418/418
f 421/421/421 420/420/420 418/418/418
f 422/422/422 420/420/420 421/421/421
f 423/423/423 422/422/422 421/421/421
f 422/422/422 423/423/423 424/424/424
f 425/425/425 422/422/422 424/424/424
f 428/428/428 427/427/427 426/426/426
f 427/427/427 429/429/429 426/426/426
f 426/426/426 429/429/429 430/430/430
f 429/429/429 431/431/431 430/430/430
f 430/430/430 431/431/431 432/432/432
f 433/433/433 430/430/430 432/432/432
f 436/436/436 435/435/435 434/434/434
f 437/437/437 436/436/436 434/434/434
f 440/440/440 439/439/439 438/438/438
f 441/441/441 440/440/440 438/438/438
f 442/442/442 440/440/440 441/441/441
f 443/443/443 442/442/442 441/441/441
f 442/442/442 443/443/443 444/444/444
f 445/445/445 442/442/442 444/444/444
f 3/3/3 2/2/2 1/1/1
f 4/4/4 3/3/3 1/1/1
f 1/1/1 5/5/5 4/4/4
f 5/5/5 6/6/6 4/4/4
f 4/4/4 7/7/7 3/3/3
f 6/6/6 5/5/5 8/8/8
f 5/5/5 9/9/9 8/8/8
f 9/9/9 10/10/10 8/8/8
f 10/10/10 11/11/11 8/8/8
f 10/10/10 12/12/12 11/11/11
f 12/12/12 13/13/13 11/11/11
f 13/13/13 14/14/14 11/11/11
f 14/14/14 15/15/15 11/11/11
f 14/14/14 16/16/16 15/15/15
f 16/16/16 17/17/17 15/15/15
f 16/16/16 18/18/18 17/17/17
f 18/18/18 19/19/19 17/17/17
f 19/19/19 18/18/18 20/20/20
f 21/21/21 19/19/19 20/20/20
f 23/23/23 21/21/21 22/22/22
f 24/24/24 23/23/23 22/22/22
f 24/24/24 22/22/22 25/25/25
f 26/26/26 24/24/24 25/25/25
f 26/26/26 25/25/25 27/27/27
f 28/28/28 26/26/26 27/27/27
f 27/27/27 29/29/29 28/28/28
f 29/29/29 30/30/30 28/28/28
f 30/30/30 29/29/29 31/31/31
f 7/7/7 30/30/30 31/31/31
f 7/7/7 31/31/31 32/32/32
f 7/7/7 32/32/32 3/3/3
f 31/31/31 33/33/33 32/32/32
f 36/36/36 35/35/35 34/34/34
f 35/35/35 37/37/37 34/34/34
f 35/35/35 38/38/38 37/37/37
f 38/38/38 39/39/39 37/37/37
f 35/35/35 40/40/40 38/38/38
f 40/40/40 41/41/41 38/38/38
f 44/44/44 43/43/43 42/42/42
f 43/43/43 45/45/45 42/42/42
f 45/45/45 43/43/43 46/46/46
f 47/47/47 45/45/45 46/46/46
f 50/50/50 49/49/49 48/48/48
f 51/51/51 50/50/50 48/48/48
f 50/50/50 51/51/51 52/52/52
f 53/53/53 50/50/50 52/52/52
f 52/52/52 54/54/54 53/53/53
f 54/54/54 55/55/55 53/53/53
f 55/55/55 56/56/56 53/53/53
f 56/56/56 57/57/57 53/53/53
f 56/56/56 58/58/58 57/57/57
f 58/58/58 59/59/59 57/57/57
f 59/59/59 60/60/60 57/57/57
f 60/60/60 61/61/61 57/57/57
f 61/61/61 60/60/60 62/62/62
f 63/63/63 61/61/61 62/62/62
f 63/63/63 62/62/62 64/64/64
f 62/62/62 65/65/65 64/64/64
f 64/64/64 65/65/65 66/66/66
f 65/65/65 67/67/67 66/66/66
f 66/66/66 67/67/67 68/68/68
f 69/69/69 66/66/66 68/68/68
f 72/72/72 71/71/71 70/70/70
f 71/71/71 73/73/73 70/70/70
f 73/73/73 74/74/74 70/70/70
f 74/74/74 75/75/75 70/70/70
f 76/76/76 75/75/75 74/74/74
f 73/73/73 71/71/71 77/77/77
f 74/74/74 73/73/73 77/77/77
f 71/71/71 78/78/78 77/77/77
f 79/79/79 74/74/74 77/77/77
f 79/79/79 80/80/80 74/74/74
f 81/81/81 76/76/76 74/74/74
f 80/80/80 81/81/81 74/74/74
f 76/76/76 81/81/81 82/82/82
f 81/81/81 80/80/80 82/82/82
f 83/83/83 76/76/76 82/82/82
f 83/83/83 82/82/82 84/84/84
f 80/80/80 85/85/85 82/82/82
f 80/80/80 86/86/86 85/85/85
f 82/82/82 87/87/87 84/84/84
f 87/87/87 88/88/88 84/84/84
f 88/88/88 89/89/89 84/84/84
f 87/87/87 82/82/82 90/90/90
f 88/88/88 87/87/87 90/90/90
f 82/82/82 85/85/85 90/90/90
f 91/91/91 88/88/88 90/90/90
f 91/91/91 90/90/90 92/92/92
f 90/90/90 85/85/85 92/92/92
f 93/93/93 91/91/91 92/92/92
f 85/85/85 94/94/94 92/92/92
f 86/86/86 94/94/94 85/85/85
f 93/93/93 92/92/92 95/95/95
f 92/92/92 94/94/94 95/95/95
f 96/96/96 93/93/93 95/95/95
f 96/96/96 95/95/95 97/97/97
f 98/98/98 96/96/96 97/97/97
f 99/99/99 97/97/97 95/95/95
f 94/94/94 100/100/100 95/95/95
f 100/100/100 99/99/99 95/95/95
f 94/94/94 86/86/86 100/100/100
f 99/99/99 100/100/100 101/101/101
f 86/86/86 102/102/102 100/100/100
f 100/100/100 102/102/102 101/101/101
f 102/102/102 86/86/86 103/103/103
f 101/101/101 102/102/102 103/103/103
f 104/104/104 101/101/101 103/103/103
f 86/86/86 105/105/105 103/103/103
f 106/106/106 104/104/104 103/103/103
f 103/103/103 105/105/105 107/107/107
f 107/107/107 106/106/106 103/103/103
f 105/105/105 108/108/108 107/107/107
f 107/107/107 109/109/109 106/106/106
f 109/109/109 107/107/107 108/108/108
f 109/109/109 110/110/110 106/106/106
f 111/111/111 109/109/109 108/108/108
f 114/114/114 113/113/113 112/112/112
f 115/115/115 114/114/114 112/112/112
f 116/116/116 114/114/114 115/115/115
f 117/117/117 116/116/116 115/115/115
f 118/118/118 117/117/117 115/115/115
f 119/119/119 115/115/115 112/112/112
f 119/119/119 118/118/118 115/115/115
f 120/120/120 119/119/119 112/112/112
f 120/120/120 121/121/121 119/119/119
f 119/119/119 122/122/122 118/118/118
f 121/121/121 122/122/122 119/119/119
f 122/122/122 123/123/123 118/118/118
f 122/122/122 121/121/121 124/124/124
f 121/121/121 125/125/125 124/124/124
f 124/124/124 125/125/125 126/126/126
f 123/123/123 122/122/122 127/127/127
f 122/122/122 124/124/124 127/127/127
f 123/123/123 127/127/127 128/128/128
f 129/129/129 123/123/123 128/128/128
f 130/130/130 124/124/124 126/126/126
f 127/127/127 124/124/124 130/130/130
f 131/131/131 130/130/130 126/126/126
f 132/132/132 131/131/131 126/126/126
f 131/131/131 133/133/133 130/130/130
f 134/134/134 127/127/127 130/130/130
f 133/133/133 134/134/134 130/130/130
f 128/128/128 127/127/127 134/134/134
f 133/133/133 135/135/135 134/134/134
f 135/135/135 136/136/136 134/134/134
f 136/136/136 128/128/128 134/134/134
f 136/136/136 135/135/135 137/137/137
f 128/128/128 136/136/136 137/137/137
f 135/135/135 138/138/138 137/137/137
f 139/139/139 129/129/129 128/128/128
f 129/129/129 139/139/139 140/140/140
f 141/141/141 128/128/128 137/137/137
f 141/141/141 139/139/139 128/128/128
f 137/137/137 138/138/138 142/142/142
f 141/141/141 137/137/137 142/142/142
f 138/138/138 143/143/143 142/142/142
f 144/144/144 141/141/141 142/142/142
f 144/144/144 145/145/145 141/141/141
f 145/145/145 139/139/139 141/141/141
f 139/139/139 145/145/145 146/146/146
f 139/139/139 146/146/146 140/140/140
f 145/145/145 147/147/147 146/146/146
f 146/146/146 147/147/147 148/148/148
f 140/140/140 146/146/146 149/149/149
f 149/149/149 146/146/146 148/148/148
f 150/150/150 140/140/140 149/149/149
f 151/151/151 149/149/149 148/148/148
f 150/150/150 149/149/149 151/151/151
f 152/152/152 151/151/151 148/148/148
f 150/150/150 151/151/151 153/153/153
f 153/153/153 154/154/154 150/150/150
f 157/157/157 156/156/156 155/155/155
f 156/156/156 158/158/158 155/155/155
f 159/159/159 158/158/158 156/156/156
f 160/160/160 159/159/159 156/156/156
f 159/159/159 160/160/160 161/161/161
f 161/161/161 160/160/160 162/162/162
f 163/163/163 159/159/159 161/161/161
f 163/163/163 161/161/161 164/164/164
f 161/161/161 165/165/165 164/164/164
f 161/161/161 162/162/162 165/165/165
f 162/162/162 166/166/166 165/165/165
f 166/166/166 162/162/162 167/167/167
f 162/162/162 168/168/168 167/167/167
f 160/160/160 169/169/169 162/162/162
f 170/170/170 168/168/168 162/162/162
f 169/169/169 170/170/170 162/162/162
f 170/170/170 169/169/169 171/171/171
f 172/172/172 170/170/170 171/171/171
f 172/172/172 171/171/171 173/173/173
f 171/171/171 174/174/174 173/173/173
f 177/177/177 176/176/176 175/175/175
f 176/176/176 178/178/178 175/175/175
f 179/179/179 178/178/178 176/176/176
f 180/180/180 179/179/179 176/176/176
f 179/179/179 180/180/180 181/181/181
f 182/182/182 179/179/179 181/181/181
f 183/183/183 179/179/179 182/182/182
f 182/182/182 181/181/181 184/184/184
f 181/181/181 185/185/185 184/184/184
f 182/182/182 184/184/184 186/186/186
f 187/187/187 182/182/182 186/186/186
f 187/187/187 183/183/183 182/182/182
f 187/187/187 186/186/186 188/188/188
f 189/189/189 187/187/187 188/188/188
f 183/183/183 187/187/187 189/189/189
f 190/190/190 183/183/183 189/189/189
f 183/183/183 190/190/190 191/191/191
f 192/192/192 183/183/183 191/191/191
f 192/192/192 191/191/191 193/193/193
f 194/194/194 192/192/192 193/193/193
f 197/197/197 196/196/196 195/195/195
f 196/196/196 198/198/198 195/195/195
f 196/196/196 199/199/199 198/198/198
f 195/195/195 198/198/198 200/200/200
f 201/201/201 195/195/195 200/200/200
f 202/202/202 201/201/201 200/200/200
f 199/199/199 203/203/203 198/198/198
f 199/199/199 204/204/204 203/203/203
f 204/204/204 205/205/205 203/203/203
f 205/205/205 206/206/206 203/203/203
f 203/203/203 207/207/207 198/198/198
f 207/207/207 200/200/200 198/198/198
f 206/206/206 207/207/207 203/203/203
f 208/208/208 202/202/202 200/200/200
f 208/208/208 200/200/200 207/207/207
f 209/209/209 207/207/207 206/206/206
f 209/209/209 208/208/208 207/207/207
f 210/210/210 209/209/209 206/206/206
f 209/209/209 210/210/210 211/211/211
f 208/208/208 212/212/212 202/202/202
f 212/212/212 213/213/213 202/202/202
f 214/214/214 213/213/213 212/212/212
f 208/208/208 209/209/209 215/215/215
f 215/215/215 209/209/209 211/211/211
f 212/212/212 208/208/208 215/215/215
f 216/216/216 214/214/214 212/212/212
f 212/212/212 215/215/215 216/216/216
f 215/215/215 211/211/211 217/217/217
f 215/215/215 217/217/217 216/216/216
f 211/211/211 218/218/218 217/217/217
f 218/218/218 219/219/219 217/217/217
f 219/219/219 220/220/220 217/217/217
f 217/217/217 220/220/220 216/216/216
f 220/220/220 221/221/221 216/216/216
f 216/216/216 221/221/221 214/214/214
f 221/221/221 222/222/222 214/214/214
f 225/225/225 224/224/224 223/223/223
f 226/226/226 225/225/225 223/223/223
f 227/227/227 226/226/226 223/223/223
f 228/228/228 227/227/227 223/223/223
f 228/228/228 229/229/229 227/227/227
f 226/226/226 230/230/230 225/225/225
f 226/226/226 227/227/227 230/230/230
f 230/230/230 231/231/231 225/225/225
f 232/232/232 231/231/231 230/230/230
f 233/233/233 232/232/232 230/230/230
f 232/232/232 233/233/233 234/234/234
f 227/227/227 235/235/235 230/230/230
f 233/233/233 230/230/230 235/235/235
f 236/236/236 235/235/235 227/227/227
f 237/237/237 233/233/233 235/235/235
f 229/229/229 238/238/238 227/227/227
f 238/238/238 236/236/236 227/227/227
f 238/238/238 229/229/229 239/239/239
f 236/236/236 238/238/238 239/239/239
f 229/229/229 240/240/240 239/239/239
f 241/241/241 236/236/236 239/239/239
f 239/239/239 240/240/240 242/242/242
f 233/233/233 243/243/243 234/234/234
f 234/234/234 243/243/243 244/244/244
f 243/243/243 233/233/233 245/245/245
f 233/233/233 237/237/237 245/245/245
f 245/245/245 237/237/237 246/246/246
f 237/237/237 247/247/247 246/246/246
f 248/248/248 246/246/246 247/247/247
f 243/243/243 249/249/249 244/244/244
f 250/250/250 248/248/248 247/247/247
f 241/241/241 251/251/251 250/250/250
f 241/241/241 239/239/239 251/251/251
f 252/252/252 239/239/239 242/242/242
f 239/239/239 252/252/252 251/251/251
f 253/253/253 252/252/252 242/242/242
f 251/251/251 252/252/252 253/253/253
f 254/254/254 253/253/253 242/242/242
f 255/255/255 251/251/251 253/253/253
f 251/251/251 256/256/256 250/250/250
f 251/251/251 255/255/255 256/256/256
f 250/250/250 256/256/256 248/248/248
f 255/255/255 257/257/257 256/256/256
f 256/256/256 257/257/257 258/258/258
f 256/256/256 259/259/259 248/248/248
f 259/259/259 256/256/256 258/258/258
f 248/248/248 259/259/259 260/260/260
f 259/259/259 258/258/258 260/260/260
f 258/258/258 261/261/261 260/260/260
f 261/261/261 262/262/262 260/260/260
f 263/263/263 248/248/248 260/260/260
f 262/262/262 264/264/264 260/260/260
f 262/262/262 265/265/265 264/264/264
f 265/265/265 266/266/266 264/264/264
f 266/266/266 267/267/267 264/264/264
f 264/264/264 268/268/268 260/260/260
f 267/267/267 268/268/268 264/264/264
f 268/268/268 263/263/263 260/260/260
f 267/267/267 269/269/269 268/268/268
f 268/268/268 270/270/270 263/263/263
f 269/269/269 270/270/270 268/268/268
f 270/270/270 271/271/271 263/263/263
f 270/270/270 269/269/269 272/272/272
f 270/270/270 272/272/272 271/271/271
f 272/272/272 273/273/273 271/271/271
f 269/269/269 274/274/274 272/272/272
f 273/273/273 272/272/272 249/249/249
f 272/272/272 274/274/274 275/275/275
f 272/272/272 275/275/275 249/249/249
f 244/244/244 249/249/249 275/275/275
f 274/274/274 276/276/276 275/275/275
f 277/277/277 244/244/244 275/275/275
f 277/277/277 275/275/275 276/276/276
f 278/278/278 277/277/277 276/276/276
f 281/281/281 280/280/280 279/279/279
f 282/282/282 281/281/281 279/279/279
f 282/282/282 283/283/283 281/281/281
f 283/283/283 284/284/284 281/281/281
f 284/284/284 283/283/283 285/285/285
f 283/283/283 286/286/286 285/285/285
f 285/285/285 286/286/286 287/287/287
f 288/288/288 285/285/285 287/287/287
f 291/291/291 290/290/290 289/289/289
f 290/290/290 292/292/292 289/289/289
f 290/290/290 293/293/293 292/292/292
f 293/293/293 294/294/294 292/292/292
f 289/289/289 292/292/292 295/295/295
f 294/294/294 293/293/293 296/296/296
f 297/297/297 289/289/289 295/295/295
f 293/293/293 298/298/298 296/296/296
f 296/296/296 298/298/298 299/299/299
f 298/298/298 300/300/300 299/299/299
f 299/299/299 300/300/300 301/301/301
f 302/302/302 299/299/299 301/301/301
f 302/302/302 303/303/303 299/299/299
f 296/296/296 299/299/299 304/304/304
f 303/303/303 305/305/305 299/299/299
f 299/299/299 305/305/305 304/304/304
f 297/297/297 295/295/295 306/306/306
f 307/307/307 297/297/297 306/306/306
f 307/307/307 306/306/306 308/308/308
f 295/295/295 309/309/309 306/306/306
f 309/309/309 310/310/310 306/306/306
f 306/306/306 311/311/311 308/308/308
f 312/312/312 310/310/310 309/309/309
f 304/304/304 312/312/312 309/309/309
f 304/304/304 305/305/305 312/312/312
f 305/305/305 313/313/313 312/312/312
f 314/314/314 308/308/308 311/311/311
f 315/315/315 314/314/314 311/311/311
f 315/315/315 311/311/311 316/316/316
f 311/311/311 317/317/317 316/316/316
f 316/316/316 317/317/317 318/318/318
f 319/319/319 316/316/316 318/318/318
f 318/318/318 320/320/320 319/319/319
f 320/320/320 321/321/321 319/319/319
f 324/324/324 323/323/323 322/322/322
f 323/323/323 325/325/325 322/322/322
f 325/325/325 323/323/323 326/326/326
f 327/327/327 325/325/325 326/326/326
f 330/330/330 329/329/329 328/328/328
f 331/331/331 330/330/330 328/328/328
f 334/334/334 333/333/333 332/332/332
f 335/335/335 334/334/334 332/332/332
f 332/332/332 336/336/336 335/335/335
f 336/336/336 337/337/337 335/335/335
f 340/340/340 339/339/339 338/338/338
f 341/341/341 340/340/340 338/338/338
f 344/344/344 343/343/343 342/342/342
f 345/345/345 344/344/344 342/342/342
f 344/344/344 345/345/345 346/346/346
f 347/347/347 344/344/344 346/346/346
f 347/347/347 346/346/346 348/348/348
f 349/349/349 347/347/347 348/348/348
f 352/352/352 351/351/351 350/350/350
f 351/351/351 353/353/353 350/350/350
f 353/353/353 351/351/351 354/354/354
f 351/351/351 355/355/355 354/354/354
f 354/354/354 355/355/355 356/356/356
f 355/355/355 357/357/357 356/356/356
f 360/360/360 359/359/359 358/358/358
f 359/359/359 361/361/361 358/358/358
f 359/359/359 362/362/362 361/361/361
f 362/362/362 363/363/363 361/361/361
f 362/362/362 364/364/364 363/363/363
f 364/364/364 365/365/365 363/363/363
f 368/368/368 367/367/367 366/366/366
f 369/369/369 368/368/368 366/366/366
f 372/372/372 371/371/371 370/370/370
f 371/371/371 373/373/373 370/370/370
f 370/370/370 373/373/373 374/374/374
f 373/373/373 375/375/375 374/374/374
f 374/374/374 375/375/375 376/376/376
f 375/375/375 377/377/377 376/376/376
f 380/380/380 379/379/379 378/378/378
f 381/381/381 380/380/380 378/378/378
f 384/384/384 383/383/383 382/382/382
f 385/385/385 384/384/384 382/382/382
f 388/388/388 387/387/387 386/386/386
f 387/387/387 389/389/389 386/386/386
f 386/386/386 389/389/389 390/390/390
f 389/389/389 391/391/391 390/390/390
f 390/390/390 391/391/391 392/392/392
f 391/391/391 393/393/393 392/392/392
f 396/396/396 395/395/395 394/394/394
f 397/397/397 396/396/396 394/394/394
f 400/400/400 399/399/399 398/398/398
f 399/399/399 401/401/401 398/398/398
f 398/398/398 401/401/401 402/402/402
f 401/401/401 403/403/403 402/402/402
f 402/402/402 403/403/403 404/404/404
f 403/403/403 405/405/405 404/404/404
f 408/408/408 407/407/407 406/406/406
f 407/407/407 409/409/409 406/406/406
f 406/406/406 409/409/409 410/410/410
f 409/409/409 411/411/411 410/410/410
f 410/410/410 411/411/411 412/412/412
f 413/413/413 410/410/410 412/412/412
f 416/416/416 415/415/415 414/414/414
f 417/417/417 416/416/416 414/414/414
f 420/420/420 419/419/419 418/418/418
f 421/421/421 420/420/420 418/418/418
f 422/422/422 420/420/420 421/421/421
f 423/423/423 422/422/422 421/421/421
f 422/422/422 423/423/423 424/424/424
f 425/425/425 422/422/422 424/424/424
f 428/428/428 427/427/427 426/426/426
f 427/427/427 429/429/429 426/426/426
f 426/426/426 429/429/429 430/430/430
f 429/429/429 431/431/431 430/430/430
f 430/430/430 431/431/431 432/432/432
f 433/433/433 430/430/430 432/432/432
f 436/436/436 435/435/435 434/434/434
f 437/437/437 436/436/436 434/434/434
f 440/440/440 439/439/439 438/438/438
f 441/441/441 440/440/440 438/438/438
f 442/442/442 440/440/440 441/441/441
f 443/443/443 442/442/442 441/441/441
f 442/442/442 443/443/443 444/444/444
f 445/445/445 442/442/442 444/444/444

