mtllib material.mtl
usemtl material_0
v -2.32250000 0.01300000 -0.03800000
v -2.32250000 0.02701000 -0.03800000
v -2.32250000 0.02701000 -2.79249000
v -2.32250000 0.01300000 -2.79249000
v -2.32250000 0.01300000 -0.14999000
v -2.32250000 0.02701000 2.39250000
v -2.32250000 0.02701000 0.83801000
v -2.32250000 0.01300000 0.83801000
v -2.32250000 0.01300000 2.39250000
v -2.32500000 0.00300000 2.39500000
v -2.32250000 0.01300000 2.39250000
v -2.32250000 0.01300000 0.83801000
v -2.32500000 0.00300000 0.82801000
v -2.32500000 0.00300000 0.82801000
v -2.32250000 0.01300000 0.83801000
v -2.32250000 0.02701000 0.83801000
v -2.32500000 0.03701000 0.82801000
v -2.32500000 0.03701000 0.82801000
v -2.32250000 0.02701000 0.83801000
v -2.32250000 0.02701000 2.39250000
v -2.32500000 0.03701000 2.39500000
v -0.25010000 0.02701000 2.39250000
v -2.32250000 0.02701000 2.39250000
v -2.32250000 0.01300000 2.39250000
v -0.25010000 0.01300000 2.39250000
v -0.23983000 0.03701000 2.39500000
v -0.25010000 0.02701000 2.39250000
v -0.25010000 0.01300000 2.39250000
v -0.23983000 0.00300000 2.39500000
v -0.23983000 0.00300000 2.39500000
v -0.25010000 0.01300000 2.39250000
v -2.32250000 0.01300000 2.39250000
v -2.32500000 0.00300000 2.39500000
v -2.32500000 0.03701000 2.39500000
v -2.32250000 0.02701000 2.39250000
v -0.25010000 0.02701000 2.39250000
v -0.23983000 0.03701000 2.39500000
v 0.64986000 0.01301000 2.39251000
v 2.18851000 0.01350000 2.39300000
v 2.18851000 0.02701000 2.39300000
v 0.64986000 0.02701000 2.39251000
v 0.63959000 0.00301000 2.39501000
v 0.64986000 0.01301000 2.39251000
v 0.64986000 0.02701000 2.39251000
v 0.63959000 0.03701000 2.39501000
v 0.63959000 0.03701000 2.39501000
v 0.64986000 0.02701000 2.39251000
v 2.18851000 0.02701000 2.39300000
v 2.19851000 0.03701000 2.39550000
v 2.19851000 0.03701000 2.39550000
v 2.18851000 0.02701000 2.39300000
v 2.18851000 0.01350000 2.39300000
v 2.19851000 0.00350000 2.39550000
v 2.19851000 0.00350000 2.39550000
v 2.18851000 0.01350000 2.39300000
v 0.64986000 0.01301000 2.39251000
v 0.63959000 0.00301000 2.39501000
v -2.32500000 0.03701000 -2.79499000
v -2.32250000 0.02701000 -2.79249000
v -2.32250000 0.02701000 -0.03800000
v -2.32500000 0.03701000 -0.02800000
v -2.32500000 0.03701000 -0.02800000
v -2.32250000 0.02701000 -0.03800000
v -2.32250000 0.01300000 -0.03800000
v -2.32500000 0.00300000 -0.02800000
v -2.32500000 0.00300000 -0.02800000
v -2.32250000 0.01300000 -0.03800000
v -2.32250000 0.01300000 -0.14999000
v -2.32500000 0.00300000 -0.14999000
v -2.32250000 0.01300000 -2.79249000
v -2.32500000 0.00300000 -2.79499000
v 2.18700000 0.02701000 -2.79249000
v 2.18700000 0.01300000 -2.79249000
v -2.32250000 0.01300000 -2.79249000
v -2.32250000 0.02701000 -2.79249000
v 2.19701000 0.03701000 -2.79500000
v 2.18700000 0.02701000 -2.79249000
v -2.32250000 0.02701000 -2.79249000
v -2.32500000 0.03701000 -2.79499000
v -2.32500000 0.00300000 -2.79499000
v -2.32250000 0.01300000 -2.79249000
v 2.18700000 0.01300000 -2.79249000
v 2.19701000 0.00300000 -2.79500000
v 2.19701000 0.00300000 -2.79500000
v 2.18700000 0.01300000 -2.79249000
v 2.18700000 0.02701000 -2.79249000
v 2.19701000 0.03701000 -2.79500000
v -2.31300000 2.45281000 2.38301000
v -2.31300000 2.48720000 2.38301000
v -2.31300000 2.48720000 0.82501000
v -2.31300000 2.45281000 0.82501000
v -2.31300000 2.48720000 -0.02500000
v -2.31300000 2.45281000 -0.02500000
v -2.31300000 2.45281000 -2.78299000
v -2.31300000 2.48720000 -2.78299000
v -2.31850000 2.44520000 -0.02500000
v -2.31300000 2.45281000 -2.78299000
v -2.31850000 2.44520000 -2.78849000
v -2.31300000 2.45281000 -0.02500000
v -2.31850000 2.44520000 0.82501000
v -2.31300000 2.45281000 0.82501000
v -2.31850000 2.44520000 2.38850000
v -2.31300000 2.45281000 2.38301000
v -2.31850000 2.49481000 -2.78849000
v -2.31300000 2.48720000 -2.78299000
v -2.31300000 2.48720000 -0.02500000
v -2.31850000 2.49481000 -0.02500000
v -2.31300000 2.48720000 0.82501000
v -2.31850000 2.49481000 0.82501000
v -2.31300000 2.48720000 2.38301000
v -2.31850000 2.49481000 2.38850000
v -0.22500000 2.45281000 2.38301000
v -2.31300000 2.48720000 2.38301000
v -2.31300000 2.45281000 2.38301000
v -0.22500000 2.48720000 2.38301000
v 0.62476000 2.45281000 2.38301000
v 0.62476000 2.48720000 2.38301000
v 2.18871000 2.45281000 2.38350000
v 2.18871000 2.48720000 2.38350000
v -2.31850000 2.49481000 2.38850000
v -2.31300000 2.48720000 2.38301000
v -0.22500000 2.48720000 2.38301000
v -0.22500000 2.49481000 2.38850000
v 0.62476000 2.48720000 2.38301000
v 0.62476000 2.49481000 2.38850000
v 2.18871000 2.48720000 2.38350000
v 2.19631000 2.49481000 2.38900000
v 2.19631000 2.49481000 2.38900000
v 2.18871000 2.48720000 2.38350000
v 2.18871000 2.45281000 2.38350000
v 2.19631000 2.44520000 2.38900000
v 2.20150000 2.50000000 2.40051000
v 2.19631000 2.49481000 2.38900000
v 2.19631000 2.44520000 2.38900000
v 2.20150000 2.44001000 2.40051000
v 2.19631000 2.44520000 2.38900000
v 2.18871000 2.45281000 2.38350000
v 0.62476000 2.45281000 2.38301000
v 0.62476000 2.44520000 2.38850000
v -0.22500000 2.45281000 2.38301000
v -0.22500000 2.44520000 2.38850000
v -2.31300000 2.45281000 2.38301000
v -2.31850000 2.44520000 2.38850000
v 2.18301000 2.45281000 -2.78299000
v -2.31300000 2.45281000 -2.78299000
v -2.31300000 2.48720000 -2.78299000
v 2.18301000 2.48720000 -2.78299000
v -2.31850000 2.44520000 -2.78849000
v -2.31300000 2.45281000 -2.78299000
v 2.18301000 2.45281000 -2.78299000
v 2.18851000 2.44520000 -2.78849000
v 2.18851000 2.49481000 -2.78849000
v 2.18301000 2.48720000 -2.78299000
v -2.31300000 2.48720000 -2.78299000
v -2.31850000 2.49481000 -2.78849000
v 2.18301000 2.48720000 -2.78299000
v 2.18315000 2.45280000 -1.99990000
v 2.18301000 2.45281000 -2.78299000
v 2.18313000 2.48720000 -1.99987000
v 2.18251000 2.45280000 -0.40000000
v 2.18251000 2.48720000 -0.40000000
v 2.18267000 2.45280000 0.50025000
v 2.18267000 2.48720000 0.50025000
v 2.18286000 2.45280000 1.57246000
v 2.18286000 2.48720000 1.57246000
v 2.18300000 2.45281000 2.38721000
v 2.18300000 2.48720000 2.38721000
v 2.18851000 2.44520000 -2.78849000
v 2.18301000 2.45281000 -2.78299000
v 2.18315000 2.45280000 -1.99990000
v 2.18865000 2.44520000 -1.99990000
v 2.18802000 2.44520000 -0.40000000
v 2.18251000 2.45280000 -0.40000000
v 2.18267000 2.45280000 0.50025000
v 2.18817000 2.44520000 0.50025000
v 2.18286000 2.45280000 1.57246000
v 2.18836000 2.44520000 1.57575000
v 2.18300000 2.45281000 2.38721000
v 2.18850000 2.44520000 2.39481000
v 2.18863000 2.49480000 -1.99987000
v 2.18301000 2.48720000 -2.78299000
v 2.18851000 2.49481000 -2.78849000
v 2.18313000 2.48720000 -1.99987000
v 2.18801000 2.49480000 -0.40000000
v 2.18251000 2.48720000 -0.40000000
v 2.18817000 2.49480000 0.50025000
v 2.18267000 2.48720000 0.50025000
v 2.18836000 2.49480000 1.57575000
v 2.18286000 2.48720000 1.57246000
v 2.18850000 2.49481000 2.39481000
v 2.18300000 2.48720000 2.38721000
v -2.32999000 2.50000000 0.82501000
v -2.31850000 2.49481000 2.38850000
v -2.32999000 2.50000000 2.40001000
v -2.31850000 2.49481000 0.82501000
v -2.32999000 2.50000000 -0.02500000
v -2.31850000 2.49481000 -0.02500000
v -2.32999000 2.50000000 -2.80000000
v -2.31850000 2.49481000 -2.78849000
v -2.32999000 2.50000000 2.40001000
v -2.31850000 2.49481000 2.38850000
v -0.22500000 2.49481000 2.38850000
v -0.22500000 2.50000000 2.40001000
v 0.62476000 2.49481000 2.38850000
v 0.62475000 2.50000000 2.40001000
v 2.20150000 2.50000000 2.40051000
v 2.19631000 2.49481000 2.38900000
v 2.20000000 2.50000000 -2.80000000
v -2.31850000 2.49481000 -2.78849000
v -2.32999000 2.50000000 -2.80000000
v 2.18851000 2.49481000 -2.78849000
v 2.20000000 2.50000000 -2.80000000
v 2.18863000 2.49480000 -1.99987000
v 2.18851000 2.49481000 -2.78849000
v 2.20013000 2.50000000 -1.99987000
v 2.18801000 2.49480000 -0.40000000
v 2.19951000 2.50000000 -0.40000000
v 2.18817000 2.49480000 0.50025000
v 2.19967000 2.50000000 0.50025000
v 2.19986000 2.50000000 1.57800000
v 2.18836000 2.49480000 1.57575000
v 2.20000000 2.50000000 2.40001000
v 2.18850000 2.49481000 2.39481000
v 2.20150000 2.44001000 2.40051000
v 2.19631000 2.44520000 2.38900000
v 0.62476000 2.44520000 2.38850000
v 0.62475000 2.44001000 2.40001000
v -0.22500000 2.44520000 2.38850000
v -0.22500000 2.44001000 2.40001000
v -2.31850000 2.44520000 2.38850000
v -2.32999000 2.44001000 2.40001000
v -2.32999000 2.44001000 2.40001000
v -2.31850000 2.44520000 2.38850000
v -2.31850000 2.44520000 0.82501000
v -2.32999000 2.44001000 0.82501000
v -2.31850000 2.44520000 -0.02500000
v -2.32999000 2.44001000 -0.02500000
v -2.31850000 2.44520000 -2.78849000
v -2.32999000 2.44001000 -2.80000000
v -2.32999000 2.44001000 -2.80000000
v -2.31850000 2.44520000 -2.78849000
v 2.18851000 2.44520000 -2.78849000
v 2.20000000 2.44001000 -2.80000000
v 2.20015000 2.44001000 -1.99990000
v 2.20000000 2.44001000 -2.80000000
v 2.18851000 2.44520000 -2.78849000
v 2.18865000 2.44520000 -1.99990000
v 2.18802000 2.44520000 -0.40000000
v 2.19952000 2.44001000 -0.40000000
v 2.19967000 2.44001000 0.50025000
v 2.18817000 2.44520000 0.50025000
v 2.19986000 2.44001000 1.57800000
v 2.18836000 2.44520000 1.57575000
v 2.20000000 2.44001000 2.40001000
v 2.18850000 2.44520000 2.39481000
v 2.20000000 2.44001000 2.40001000
v 2.18850000 2.44520000 2.39481000
v 2.18850000 2.49481000 2.39481000
v 2.20000000 2.50000000 2.40001000
v 2.18850000 2.44520000 2.39481000
v 2.18300000 2.48720000 2.38721000
v 2.18850000 2.49481000 2.39481000
v 2.18300000 2.45281000 2.38721000
v -2.32999000 0.00000000 2.40001000
v -2.32500000 0.00300000 2.39500000
v -2.32500000 0.00300000 0.82801000
v -2.32999000 0.00000000 0.82501000
v -2.32999000 0.00000000 0.82501000
v -2.32500000 0.00300000 0.82801000
v -2.32500000 0.03701000 0.82801000
v -2.32999000 0.04000000 0.82501000
v -2.32999000 0.04000000 0.82501000
v -2.32500000 0.03701000 0.82801000
v -2.32500000 0.03701000 2.39500000
v -2.32999000 0.04000000 2.40001000
v -2.32999000 0.04000000 2.40001000
v -2.32500000 0.03701000 2.39500000
v -0.23983000 0.03701000 2.39500000
v -0.23674000 0.04000000 2.40001000
v -0.23674000 0.04000000 2.40001000
v -0.23983000 0.03701000 2.39500000
v -0.23983000 0.00300000 2.39500000
v -0.23674000 0.00000000 2.40001000
v -0.23674000 0.00000000 2.40001000
v -0.23983000 0.00300000 2.39500000
v -2.32500000 0.00300000 2.39500000
v -2.32999000 0.00000000 2.40001000
v 2.20150000 0.00051000 2.40051000
v 2.19851000 0.00350000 2.39550000
v 0.63959000 0.00301000 2.39501000
v 0.63650000 0.00000000 2.40001000
v 0.63650000 0.00000000 2.40001000
v 0.63959000 0.00301000 2.39501000
v 0.63959000 0.03701000 2.39501000
v 0.63650000 0.04000000 2.40001000
v 0.63650000 0.04000000 2.40001000
v 0.63959000 0.03701000 2.39501000
v 2.19851000 0.03701000 2.39550000
v 2.20150000 0.04000000 2.40051000
v 2.20150000 0.04000000 2.40051000
v 2.19851000 0.03701000 2.39550000
v 2.19851000 0.00350000 2.39550000
v 2.20150000 0.00051000 2.40051000
v -2.32999000 0.00000000 -0.14999000
v -2.32500000 0.00300000 -2.79499000
v -2.32999000 0.00000000 -2.80000000
v -2.32500000 0.00300000 -0.14999000
v -2.32999000 0.00000000 -0.02500000
v -2.32500000 0.00300000 -0.02800000
v -2.32999000 0.00000000 -2.80000000
v -2.32500000 0.00300000 -2.79499000
v 2.19701000 0.00300000 -2.79500000
v 2.20000000 0.00000000 -2.80000000
v 2.20000000 0.00000000 -2.80000000
v 2.19701000 0.00300000 -2.79500000
v 2.19701000 0.03701000 -2.79500000
v 2.20000000 0.04000000 -2.80000000
v 2.20000000 0.04000000 -2.80000000
v 2.19701000 0.03701000 -2.79500000
v -2.32500000 0.03701000 -2.79499000
v -2.32999000 0.04000000 -2.80000000
v -2.32999000 0.04000000 -2.80000000
v -2.32500000 0.03701000 -2.79499000
v -2.32500000 0.03701000 -0.02800000
v -2.32999000 0.04000000 -0.02500000
v -2.32999000 0.04000000 -0.02500000
v -2.32500000 0.03701000 -0.02800000
v -2.32500000 0.00300000 -0.02800000
v -2.32999000 0.00000000 -0.02500000
v 2.20000000 0.00101000 2.40001000
v 2.19500000 0.00401000 2.39701000
v 2.19500000 0.03701000 2.39701000
v 2.20000000 0.04000000 2.40001000
v 2.20000000 0.04000000 -0.40000000
v 2.19500000 0.03700000 -0.39700000
v 2.19500000 0.00400000 -0.39700000
v 2.20000000 0.00101000 -0.40000000
v 2.19500000 0.03700000 -0.39700000
v 2.19250000 0.02700000 -0.38699000
v 2.19250000 0.01400000 -0.38699000
v 2.19500000 0.00400000 -0.39700000
v 2.19250000 0.02700000 0.50025000
v 2.19250000 0.01400000 -0.38699000
v 2.19250000 0.02700000 -0.38699000
v 2.19250000 0.01400000 0.50025000
v 2.19250000 0.02700000 1.57237000
v 2.19250000 0.01400000 1.57237000
v 2.19250000 0.01401000 2.38701000
v 2.19250000 0.02701000 2.38701000
v 2.19500000 0.00400000 -0.39700000
v 2.19250000 0.01400000 -0.38699000
v 2.19250000 0.01400000 0.50025000
v 2.19500000 0.00400000 0.50025000
v 2.19250000 0.01400000 1.57237000
v 2.19500000 0.00400000 1.57670000
v 2.19500000 0.00401000 2.39701000
v 2.19250000 0.01401000 2.38701000
v 2.19500000 0.03700000 0.50025000
v 2.19250000 0.02700000 -0.38699000
v 2.19500000 0.03700000 -0.39700000
v 2.19250000 0.02700000 0.50025000
v 2.19250000 0.02700000 1.57237000
v 2.19500000 0.03700000 1.57670000
v 2.19500000 0.03701000 2.39701000
v 2.19250000 0.02701000 2.38701000
v 2.19500000 0.00401000 2.39701000
v 2.19250000 0.01401000 2.38701000
v 2.19250000 0.02701000 2.38701000
v 2.19500000 0.03701000 2.39701000
v 2.20000000 0.00101000 0.50025000
v 2.20000000 0.00101000 -0.40000000
v 2.19500000 0.00400000 -0.39700000
v 2.19500000 0.00400000 0.50025000
v 2.19500000 0.00400000 1.57670000
v 2.20000000 0.00101000 1.57800000
v 2.19500000 0.00401000 2.39701000
v 2.20000000 0.00101000 2.40001000
v 2.20000000 0.04000000 -0.40000000
v 2.19500000 0.03700000 0.50025000
v 2.19500000 0.03700000 -0.39700000
v 2.20000000 0.04000000 0.50025000
v 2.19500000 0.03700000 1.57670000
v 2.20000000 0.04000000 1.57800000
v 2.19500000 0.03701000 2.39701000
v 2.20000000 0.04000000 2.40001000
vn -1.80265000 0.00000000 -0.09999999
vn -1.80265000 0.00000000 -0.09999999
vn -1.80265000 0.00000000 -0.09999999
vn -1.80265000 0.00000000 -0.09999999
vn -1.80265000 0.00000000 -0.09999999
vn -1.80265000 0.00000000 -0.09999999
vn -1.80265000 0.00000000 -0.09999999
vn -1.80265000 0.00000000 -0.09999999
vn -1.80265000 0.00000000 -0.09999999
vn -1.81988500 -0.14001500 -0.09999999
vn -1.81988500 -0.14001500 -0.09999999
vn -1.81988500 -0.14001500 -0.09999999
vn -1.81989200 -0.14004380 -0.09999999
vn -1.81988700 0.00000000 -0.24002430
vn -1.81988700 0.00000000 -0.24002430
vn -1.81988700 0.00000000 -0.24002430
vn -1.81988800 0.00000000 -0.24002820
vn -1.81988900 0.14003180 -0.09999999
vn -1.81988900 0.14003190 -0.09999999
vn -1.81988500 0.14001760 -0.09999999
vn -1.81988500 0.14001760 -0.09999999
vn -2.38000000 0.00000000 -0.67735030
vn -2.38000000 0.00000000 -0.67735030
vn -2.38000000 0.00000000 -0.67735030
vn -2.38000000 0.00000000 -0.67735030
vn -2.24355800 0.00000000 -0.66099640
vn -2.24355800 0.00000000 -0.66099640
vn -2.24355800 0.00000000 -0.66099640
vn -2.24353100 0.00000000 -0.66098960
vn -2.38000000 -0.14002000 -0.66011400
vn -2.38000000 -0.14002000 -0.66011400
vn -2.38000000 -0.14002000 -0.66011400
vn -2.38000000 -0.14002000 -0.66011400
vn -2.38000000 0.14002000 -0.66011390
vn -2.38000000 0.14002000 -0.66011400
vn -2.38000000 0.14002000 -0.66011400
vn -2.38000000 0.14002000 -0.66011400
vn -2.37981600 0.00000000 -0.67735030
vn -2.37981600 0.00000000 -0.67735030
vn -2.37981600 0.00000000 -0.67735030
vn -2.37981600 0.00000000 -0.67735030
vn -2.51630400 0.00000000 -0.66102990
vn -2.51630400 0.00000000 -0.66102990
vn -2.51630400 0.00000000 -0.66102990
vn -2.51634800 0.00000000 -0.66101930
vn -2.37982100 0.14005650 -0.66010490
vn -2.37982100 0.14005650 -0.66010490
vn -2.37982100 0.14005650 -0.66010490
vn -2.37982100 0.14002860 -0.66011180
vn -2.23981800 0.00000000 -0.66007350
vn -2.23981800 0.00000000 -0.66007350
vn -2.23981800 0.00000000 -0.66007350
vn -2.23980500 0.00000000 -0.66007030
vn -2.37977600 -0.14002790 -0.66011200
vn -2.37977600 -0.14002790 -0.66011200
vn -2.37977600 -0.14002790 -0.66011200
vn -2.37977600 -0.14005780 -0.66010450
vn -1.81988700 0.14002210 -0.09999999
vn -1.81988700 0.14002210 -0.09999999
vn -1.81988700 0.14002210 -0.09999999
vn -1.81989000 0.14003700 -0.09999999
vn -1.81988800 0.00000000 0.04002798
vn -1.81988800 0.00000000 0.04002796
vn -1.81988800 0.00000000 0.04002798
vn -1.81988800 0.00000000 0.04002799
vn -1.81989400 -0.14005190 -0.09999999
vn -1.81989400 -0.14005190 -0.09999999
vn -1.81989400 -0.14005190 -0.09999999
vn -1.81988600 -0.14001960 -0.09999999
vn -1.81988800 -0.14002800 -0.09999999
vn -1.81988800 -0.14002800 -0.09999999
vn -2.38000000 0.00000000 0.47735030
vn -2.38000000 0.00000000 0.47735030
vn -2.38000000 0.00000000 0.47735030
vn -2.38000000 0.00000000 0.47735030
vn -2.38000000 0.14004410 0.46010800
vn -2.38000000 0.14004420 0.46010800
vn -2.38000000 0.14002810 0.46011200
vn -2.38000000 0.14002810 0.46011200
vn -2.38000000 -0.14002800 0.46011210
vn -2.38000000 -0.14002800 0.46011210
vn -2.38000000 -0.14002800 0.46011210
vn -2.38000000 -0.14004410 0.46010800
vn -2.23996400 0.00000000 0.46011010
vn -2.23996400 0.00000000 0.46011010
vn -2.23996400 0.00000000 0.46011010
vn -2.23996300 0.00000000 0.46010980
vn -1.80265000 0.00000000 -0.09999999
vn -1.80265000 0.00000000 -0.09999999
vn -1.80265000 0.00000000 -0.09999999
vn -1.80265000 0.00000000 -0.09999999
vn -1.80265000 0.00000000 -0.09999999
vn -1.80265000 0.00000000 -0.09999999
vn -1.80265000 0.00000000 -0.09999999
vn -1.80265000 0.00000000 -0.09999999
vn -1.91228000 -0.33848400 -0.09999999
vn -1.91227200 -0.33847220 -0.09999999
vn -1.91227200 -0.33847220 -0.09999999
vn -1.91228000 -0.33848400 -0.09999999
vn -1.91228000 -0.33848400 -0.09999999
vn -1.91228000 -0.33848400 -0.09999999
vn -1.91227400 -0.33847480 -0.09999999
vn -1.91227400 -0.33847480 -0.09999999
vn -1.91227600 0.33847790 -0.09999999
vn -1.91227600 0.33847790 -0.09999999
vn -1.91227600 0.33847790 -0.09999999
vn -1.91226200 0.33845870 -0.09999999
vn -1.91227100 0.33847050 -0.09999999
vn -1.91227100 0.33847050 -0.09999999
vn -1.91225500 0.33844970 -0.09999999
vn -1.91225500 0.33844960 -0.09999999
vn -2.38000000 0.00000000 -0.67735030
vn -2.38000000 0.00000000 -0.67735030
vn -2.38000000 0.00000000 -0.67735030
vn -2.38000000 0.00000000 -0.67735030
vn -2.38000000 0.00000000 -0.67735030
vn -2.38000000 0.00000000 -0.67735030
vn -2.37981700 0.00000000 -0.67735030
vn -2.37981700 0.00000000 -0.67735030
vn -2.38000000 0.33845530 -0.56774070
vn -2.38000000 0.33845530 -0.56774070
vn -2.38000000 0.33845530 -0.56774070
vn -2.38000000 0.33846650 -0.56773250
vn -2.38000000 0.33845510 -0.56774080
vn -2.38000000 0.33845370 -0.56774190
vn -2.37985200 0.33845180 -0.56774320
vn -2.37985200 0.33844650 -0.56774700
vn -2.04138900 0.00000000 -0.56762750
vn -2.04138900 0.00000000 -0.56762750
vn -2.04138900 0.00000000 -0.56762750
vn -2.04137800 0.00000000 -0.56761990
vn -1.85386300 0.00000000 -0.33772400
vn -1.85386200 0.00000000 -0.33772310
vn -1.85386400 0.00000000 -0.33772680
vn -1.85386400 0.00000000 -0.33772720
vn -2.37985200 -0.33846270 -0.56773540
vn -2.37985200 -0.33846270 -0.56773540
vn -2.37985200 -0.33846270 -0.56773540
vn -2.37985200 -0.33848650 -0.56771800
vn -2.38000000 -0.33848200 -0.56772140
vn -2.38000000 -0.33846830 -0.56773130
vn -2.38000000 -0.33847740 -0.56772460
vn -2.38000000 -0.33847740 -0.56772460
vn -2.38000000 0.00000000 0.47735030
vn -2.38000000 0.00000000 0.47735030
vn -2.38000000 0.00000000 0.47735030
vn -2.38000000 0.00000000 0.47735030
vn -2.38000000 -0.33847240 0.36772830
vn -2.38000000 -0.33847240 0.36772830
vn -2.38000000 -0.33847800 0.36772420
vn -2.38000000 -0.33847800 0.36772420
vn -2.38000000 0.33846650 0.36773260
vn -2.38000000 0.33846640 0.36773260
vn -2.38000000 0.33847800 0.36772420
vn -2.38000000 0.33847800 0.36772420
vn -2.95735000 -0.00019255 -0.09990719
vn -2.95735000 -0.00019255 -0.09990719
vn -2.95735000 0.00000000 -0.09989863
vn -2.95735000 -0.00019255 -0.09990719
vn -2.95735000 -0.00019669 -0.10022760
vn -2.95735000 -0.00011474 -0.10022590
vn -2.95735000 -0.00010923 -0.09989930
vn -2.95735000 -0.00006554 -0.09989724
vn -2.95735000 -0.00006726 -0.09989902
vn -2.95735000 -0.00003057 -0.09989794
vn -2.95735000 -0.00003219 -0.09989846
vn -2.95735000 0.00000000 -0.09989717
vn -2.84772600 -0.33847510 -0.09992037
vn -2.84772600 -0.33847510 -0.09992037
vn -2.84772600 -0.33847510 -0.09992037
vn -2.84758600 -0.33866950 -0.09991735
vn -2.84761500 -0.33862950 -0.10018470
vn -2.84764000 -0.33859460 -0.10018390
vn -2.84764700 -0.33858490 -0.09991758
vn -2.84764100 -0.33859330 -0.09991738
vn -2.84764000 -0.33859470 -0.09991767
vn -2.84766400 -0.33856140 -0.09991845
vn -2.84771800 -0.33848700 -0.09991813
vn -2.84771800 -0.33848660 -0.09991813
vn -2.84780300 0.33836980 -0.10018360
vn -2.84774200 0.33845430 -0.09992425
vn -2.84774100 0.33845490 -0.09992426
vn -2.84783000 0.33833200 -0.10018370
vn -2.84783000 0.33833190 -0.10018370
vn -2.84783000 0.33833200 -0.10018370
vn -2.84781900 0.33834770 -0.09991675
vn -2.84778700 0.33839130 -0.09991716
vn -2.84778000 0.33840170 -0.09991668
vn -2.84771300 0.33849440 -0.09991749
vn -2.84772200 0.33848130 -0.09991676
vn -2.84771600 0.33849010 -0.09991702
vn -2.14212600 0.52606930 -0.09999999
vn -2.14212900 0.52607120 -0.09999999
vn -2.14212900 0.52607120 -0.09999999
vn -2.14212500 0.52606930 -0.09999999
vn -2.14212800 0.52607040 -0.09999999
vn -2.14212800 0.52607040 -0.09999999
vn -2.14212400 0.52606880 -0.09999999
vn -2.14212400 0.52606880 -0.09999999
vn -2.38000000 0.52607390 -0.33786460
vn -2.38000000 0.52607390 -0.33786450
vn -2.38000000 0.52607040 -0.33787230
vn -2.38000000 0.52607040 -0.33787230
vn -2.37995100 0.52607720 -0.33785730
vn -2.37995100 0.52607720 -0.33785720
vn -2.37992500 0.52607720 -0.33785750
vn -2.37992500 0.52607720 -0.33785750
vn -2.38000000 0.52607110 0.13787080
vn -2.38000000 0.52607020 0.13787280
vn -2.38000000 0.52607020 0.13787280
vn -2.38000000 0.52607110 0.13787080
vn -2.61786500 0.52607380 -0.09995970
vn -2.61807700 0.52597800 -0.10005020
vn -2.61786100 0.52607570 -0.09995963
vn -2.61807700 0.52597780 -0.10005020
vn -2.61795900 0.52603100 -0.10004420
vn -2.61795900 0.52603120 -0.10004420
vn -2.61795200 0.52603440 -0.09995751
vn -2.61795200 0.52603440 -0.09995751
vn -2.61793300 0.52604320 -0.09995757
vn -2.61793200 0.52604330 -0.09995766
vn -2.61788300 0.52606550 -0.09995805
vn -2.61788200 0.52606580 -0.09995806
vn -2.37992500 -0.52607670 -0.33785840
vn -2.37992500 -0.52607680 -0.33785810
vn -2.37995100 -0.52606740 -0.33787910
vn -2.37995100 -0.52606730 -0.33787920
vn -2.38000000 -0.52607240 -0.33786780
vn -2.38000000 -0.52607240 -0.33786790
vn -2.38000000 -0.52606400 -0.33788640
vn -2.38000000 -0.52606400 -0.33788650
vn -2.14212300 -0.52606820 -0.09999999
vn -2.14212300 -0.52606830 -0.09999999
vn -2.14211500 -0.52606480 -0.09999999
vn -2.14211500 -0.52606480 -0.09999999
vn -2.14212100 -0.52606740 -0.09999999
vn -2.14212100 -0.52606740 -0.09999999
vn -2.14212400 -0.52606860 -0.09999999
vn -2.14212400 -0.52606860 -0.09999999
vn -2.38000000 -0.52607060 0.13787200
vn -2.38000000 -0.52607060 0.13787200
vn -2.38000000 -0.52607620 0.13785970
vn -2.38000000 -0.52607620 0.13785960
vn -2.61768200 -0.52615670 -0.10004940
vn -2.61786700 -0.52607310 -0.09995638
vn -2.61786500 -0.52607360 -0.09995640
vn -2.61768100 -0.52615710 -0.10004940
vn -2.61777800 -0.52611290 -0.10004530
vn -2.61777900 -0.52611290 -0.10004530
vn -2.61782900 -0.52608980 -0.09995820
vn -2.61783000 -0.52608970 -0.09995820
vn -2.61786500 -0.52607390 -0.09995850
vn -2.61786600 -0.52607320 -0.09995849
vn -2.61788600 -0.52606430 -0.09995773
vn -2.61788600 -0.52606420 -0.09995772
vn -2.61781100 0.00000000 0.42609800
vn -2.61781000 0.00000000 0.42609860
vn -2.61781600 0.00000000 0.42609610
vn -2.61781600 0.00000000 0.42609580
vn -2.84763800 0.00000000 0.23859690
vn -2.84763800 0.00000000 0.23859670
vn -2.84763800 0.00000000 0.23859660
vn -2.84763800 0.00000000 0.23859700
vn -2.08296600 -0.49507980 -0.09999999
vn -2.08296600 -0.49507990 -0.09999999
vn -2.08291300 -0.49504780 -0.09999999
vn -2.08291200 -0.49504780 -0.09999999
vn -2.08294900 0.00000000 -0.59506990
vn -2.08295000 0.00000000 -0.59507020
vn -2.08294700 0.00000000 -0.59506850
vn -2.08294700 0.00000000 -0.59506850
vn -2.08296200 0.49507720 -0.09999999
vn -2.08296200 0.49507740 -0.09999999
vn -2.08291300 0.49504780 -0.09999999
vn -2.08291200 0.49504770 -0.09999999
vn -2.38000000 0.49508610 -0.39702370
vn -2.38000000 0.49508610 -0.39702370
vn -2.38000000 0.49508570 -0.39702450
vn -2.38000000 0.49508570 -0.39702450
vn -1.88855600 0.00000000 -0.40301120
vn -1.88855500 0.00000000 -0.40300930
vn -1.88856100 0.00000000 -0.40302030
vn -1.88856200 0.00000000 -0.40302110
vn -2.38000000 -0.49508580 -0.39702420
vn -2.38000000 -0.49508580 -0.39702420
vn -2.38000000 -0.49508580 -0.39702420
vn -2.38000000 -0.49508570 -0.39702420
vn -2.37974700 -0.49507630 -0.39703990
vn -2.37974700 -0.49507630 -0.39703990
vn -2.37974700 -0.49507310 -0.39704530
vn -2.37974700 -0.49507310 -0.39704530
vn -2.87131200 0.00000000 -0.40322630
vn -2.87131100 0.00000000 -0.40322790
vn -2.87131600 0.00000000 -0.40321920
vn -2.87131600 0.00000000 -0.40321860
vn -2.37990500 0.49507160 -0.39704780
vn -2.37990500 0.49507160 -0.39704780
vn -2.37990500 0.49507660 -0.39703960
vn -2.37990500 0.49507660 -0.39703960
vn -1.88480300 0.00000000 -0.39683910
vn -1.88480300 0.00000000 -0.39683900
vn -1.88480400 0.00000000 -0.39683960
vn -1.88480400 0.00000000 -0.39683970
vn -2.08295500 -0.49507330 -0.09999999
vn -2.08294300 -0.49506600 -0.09999999
vn -2.08294300 -0.49506600 -0.09999999
vn -2.08295500 -0.49507330 -0.09999999
vn -2.08294900 -0.49506940 -0.09999999
vn -2.08294900 -0.49506970 -0.09999999
vn -2.38000000 -0.49508180 0.19703090
vn -2.38000000 -0.49508180 0.19703090
vn -2.38000000 -0.49507380 0.19704420
vn -2.38000000 -0.49507380 0.19704420
vn -1.88491300 0.00000000 0.19702170
vn -1.88491400 0.00000000 0.19702330
vn -1.88490800 0.00000000 0.19701380
vn -1.88490800 0.00000000 0.19701310
vn -2.38000000 0.49507370 0.19704430
vn -2.38000000 0.49507370 0.19704430
vn -2.38000000 0.49508160 0.19703120
vn -2.38000000 0.49508160 0.19703120
vn -2.08294800 0.49506920 -0.09999999
vn -2.08294800 0.49506920 -0.09999999
vn -2.08294400 0.49506640 -0.09999999
vn -2.08294400 0.49506640 -0.09999999
vn -2.08295000 0.00000372 0.39507010
vn -2.08295000 0.00000444 0.39507020
vn -2.08294900 0.00000029 0.39506950
vn -2.08294900 0.00000000 0.39506950
vn -2.67706800 0.00000000 0.39505960
vn -2.67707600 0.00000000 0.39505490
vn -2.67703300 0.00000000 0.39508070
vn -2.67703000 0.00000000 0.39508250
vn -2.67706700 -0.00004917 -0.59506050
vn -2.67707900 -0.00004579 -0.59505280
vn -2.67700900 -0.00006450 -0.59509490
vn -2.67700400 -0.00006585 -0.59509790
vn -2.94011600 -0.00007889 -0.24001080
vn -2.94011600 -0.00007889 -0.24001080
vn -2.94011600 -0.00007889 -0.24001080
vn -2.94010900 -0.00009841 -0.24003860
vn -2.95735000 -0.00007821 -0.09999930
vn -2.95735000 -0.00007821 -0.09999930
vn -2.95735000 -0.00007821 -0.09999930
vn -2.95735000 -0.00009776 -0.09999920
vn -2.95735000 -0.00009709 -0.09999885
vn -2.95735000 -0.00003236 -0.09999967
vn -2.95735000 -0.00002130 -0.09999891
vn -2.95735000 0.00000000 -0.09999848
vn -2.94008100 -0.14015070 -0.09999915
vn -2.94008100 -0.14015070 -0.09999915
vn -2.94008100 -0.14015070 -0.09999915
vn -2.94010800 -0.14004630 -0.09999999
vn -2.94009900 -0.14008010 -0.09999960
vn -2.94011100 -0.14003180 -0.09999999
vn -2.94011000 -0.14003610 -0.09999887
vn -2.94011000 -0.14003610 -0.09999887
vn -2.94012700 0.13996780 -0.09999939
vn -2.94012700 0.13996780 -0.09999939
vn -2.94013900 0.13992040 -0.09999871
vn -2.94012700 0.13996780 -0.09999939
vn -2.94012100 0.13999420 -0.09999895
vn -2.94012500 0.13997670 -0.09999786
vn -2.94011000 0.14003630 -0.09999860
vn -2.94011000 0.14003630 -0.09999860
vn -2.94011400 0.00000000 0.04002123
vn -2.94011400 0.00000000 0.04002124
vn -2.94011400 0.00000000 0.04002123
vn -2.94011300 0.00000000 0.04002291
vn -2.67694700 -0.49513250 -0.09999982
vn -2.67692000 -0.49514830 -0.09999999
vn -2.67692000 -0.49514830 -0.09999999
vn -2.67694700 -0.49513250 -0.09999982
vn -2.67696100 -0.49512370 -0.09999977
vn -2.67696100 -0.49512400 -0.09999969
vn -2.67705900 -0.49506530 -0.09999999
vn -2.67705900 -0.49506500 -0.09999999
vn -2.67714900 0.49501080 -0.09999945
vn -2.67708200 0.49505130 -0.09999931
vn -2.67715000 0.49501050 -0.09999945
vn -2.67708200 0.49505140 -0.09999931
vn -2.67702800 0.49508340 -0.09999918
vn -2.67703200 0.49508150 -0.09999914
vn -2.67703800 0.49507740 -0.09999922
vn -2.67703800 0.49507740 -0.09999922
vt 18.33225000 -18.42911000
vt 18.33225000 -18.38017000
vt 19.13452000 -18.38017000
vt 19.13452000 -18.42911000
vt 18.36488000 -18.42911000
vt 17.19159000 2.46302300
vt 17.65156000 2.46302300
vt 17.65156000 2.41484500
vt 17.19159000 2.41484500
vt 17.19085000 2.38043300
vt 17.19159000 2.41484500
vt 17.65156000 2.41484500
vt 17.65452000 2.38043300
vt 17.65452000 2.38043300
vt 17.65156000 2.41484500
vt 17.65156000 2.46302300
vt 17.65452000 2.49743500
vt 17.65452000 2.49743500
vt 17.65156000 2.46302300
vt 17.19159000 2.46302300
vt 17.19085000 2.49743500
vt 17.78769000 -9.26164100
vt 18.40476000 -9.26164100
vt 18.40476000 -9.30951500
vt 17.78769000 -9.30951500
vt 17.78464000 -9.22744700
vt 17.78769000 -9.26164100
vt 17.78769000 -9.30951500
vt 17.78464000 -9.34370900
vt 17.78464000 -9.34370900
vt 17.78769000 -9.30951500
vt 18.40476000 -9.30951500
vt 18.40550000 -9.34370900
vt 18.40550000 -9.22744700
vt 18.40476000 -9.26164100
vt 17.78769000 -9.26164100
vt 17.78464000 -9.22744700
vt 18.94229000 1.11209600
vt 18.48795000 1.11379100
vt 18.48795000 1.16036500
vt 18.94229000 1.16036500
vt 18.94532000 1.07759600
vt 18.94229000 1.11209600
vt 18.94229000 1.16036500
vt 18.94532000 1.19485400
vt 18.94532000 1.19485400
vt 18.94229000 1.16036500
vt 18.48795000 1.16036500
vt 18.48500000 1.19485400
vt 18.48500000 1.19485400
vt 18.48795000 1.16036500
vt 18.48795000 1.11379100
vt 18.48500000 1.07931400
vt 18.48500000 1.07931400
vt 18.48795000 1.11379100
vt 18.94229000 1.11209600
vt 18.94532000 1.07759600
vt 19.13525000 -18.34521000
vt 19.13452000 -18.38017000
vt 18.33225000 -18.38017000
vt 18.32935000 -18.34521000
vt 18.32935000 -18.34521000
vt 18.33225000 -18.38017000
vt 18.33225000 -18.42911000
vt 18.32935000 -18.46407000
vt 18.32935000 -18.46407000
vt 18.33225000 -18.42911000
vt 18.36488000 -18.42911000
vt 18.36488000 -18.46407000
vt 19.13452000 -18.42911000
vt 19.13525000 -18.46407000
vt 8.99743400 19.39745000
vt 8.99743400 19.35123000
vt 7.60689400 19.35123000
vt 7.60689400 19.39745000
vt 9.00051600 19.43047000
vt 8.99743400 19.39745000
vt 7.60689400 19.39745000
vt 7.60612200 19.43047000
vt 7.60612200 19.31821000
vt 7.60689400 19.35123000
vt 8.99743400 19.35123000
vt 9.00051600 19.31821000
vt 9.00051600 19.31821000
vt 8.99743400 19.35123000
vt 8.99743400 19.39745000
vt 9.00051600 19.43047000
vt -2.36112800 6.29406300
vt -2.36112800 6.40014400
vt -1.81958400 6.40014400
vt -1.81958400 6.29406300
vt -1.52413300 6.40014400
vt -1.52413300 6.29406300
vt -0.56548180 6.29406300
vt -0.56548180 6.40014400
vt -1.52413300 6.27062600
vt -0.56548180 6.29406300
vt -0.56357010 6.27062600
vt -1.52413300 6.29406300
vt -1.81958400 6.27062600
vt -1.81958400 6.29406300
vt -2.36304000 6.27062600
vt -2.36112800 6.29406300
vt -0.56357010 6.42358000
vt -0.56548180 6.40014400
vt -1.52413300 6.40014400
vt -1.52413300 6.42358000
vt -1.81958400 6.40014400
vt -1.81958400 6.42358000
vt -2.36112800 6.40014400
vt -2.36304000 6.42358000
vt -15.07729000 20.62946000
vt -14.26695000 20.72466000
vt -14.26695000 20.62946000
vt -15.07729000 20.72466000
vt -15.40707000 20.62946000
vt -15.40707000 20.72466000
vt -16.01402000 20.62946000
vt -16.01402000 20.72466000
vt -14.26482000 20.74569000
vt -14.26695000 20.72466000
vt -15.07729000 20.72466000
vt -15.07729000 20.74569000
vt -15.40707000 20.72466000
vt -15.40707000 20.74569000
vt -16.01402000 20.72466000
vt -16.01697000 20.74569000
vt -16.01697000 20.74569000
vt -16.01402000 20.72466000
vt -16.01402000 20.62946000
vt -16.01697000 20.60843000
vt -16.01899000 20.76008000
vt -16.01697000 20.74569000
vt -16.01697000 20.60843000
vt -16.01899000 20.59404000
vt -16.01697000 20.60843000
vt -16.01402000 20.62946000
vt -15.40707000 20.62946000
vt -15.40707000 20.60843000
vt -15.07729000 20.62946000
vt -15.07729000 20.60843000
vt -14.26695000 20.62946000
vt -14.26482000 20.60843000
vt -2.62376300 20.62484000
vt -4.21101800 20.62484000
vt -4.21101800 20.72928000
vt -2.62376400 20.72928000
vt -4.21295900 20.60176000
vt -4.21101800 20.62484000
vt -2.62376300 20.62484000
vt -2.62182200 20.60176000
vt -2.62182200 20.75236000
vt -2.62376400 20.72928000
vt -4.21101800 20.72928000
vt -4.21295900 20.75236000
vt -15.48451000 6.39535400
vt -15.18547000 6.29878000
vt -15.48451000 6.29879700
vt -15.18546000 6.39533700
vt -14.57452000 6.29878700
vt -14.57452000 6.39534400
vt -14.23074000 6.29879000
vt -14.23074000 6.39534800
vt -13.82130000 6.29879400
vt -13.82130000 6.39535100
vt -13.51017000 6.29879700
vt -13.51017000 6.39535400
vt -15.48661000 6.27746300
vt -15.48451000 6.29879700
vt -15.18547000 6.29878000
vt -15.18547000 6.27745200
vt -14.57452000 6.27745700
vt -14.57452000 6.29878700
vt -14.23074000 6.29879000
vt -14.23074000 6.27745900
vt -13.82130000 6.29879400
vt -13.82004000 6.27746200
vt -13.51017000 6.29879700
vt -13.50727000 6.27746300
vt -15.18546000 6.41667600
vt -15.48451000 6.39535400
vt -15.48661000 6.41668700
vt -15.18546000 6.39533700
vt -14.57452000 6.41668000
vt -14.57452000 6.39534400
vt -14.23074000 6.41668200
vt -14.23074000 6.39534800
vt -13.82004000 6.41668500
vt -13.82130000 6.39535100
vt -13.50727000 6.41668700
vt -13.51017000 6.39535400
vt -1.00770000 0.23959220
vt -1.01993200 1.85300900
vt -1.00770000 1.86487700
vt -1.01993200 0.23959220
vt -1.00770000 -0.63754510
vt -1.01993200 -0.63754510
vt -1.00770000 -3.50114100
vt -1.01993200 -3.48927400
vt -1.00770000 1.86487700
vt -1.01993200 1.85300900
vt -3.24642800 1.85300900
vt -3.24642800 1.86487700
vt -4.15016400 1.85300900
vt -4.15016300 1.86487700
vt -5.82708200 1.86539300
vt -5.82155400 1.85352400
vt -5.82548600 -3.50114100
vt -1.01993200 -3.48927400
vt -1.00770000 -3.50114100
vt -5.81325700 -3.48927400
vt -5.82548600 -3.50114100
vt -5.81339100 -2.67547300
vt -5.81325700 -3.48927400
vt -5.82562000 -2.67547100
vt -5.81272500 -1.02451800
vt -5.82495500 -1.02451800
vt -5.81289600 -0.09552592
vt -5.82512600 -0.09552592
vt -5.82533000 1.01662500
vt -5.81309900 1.01430200
vt -5.82548600 1.86487700
vt -5.81325400 1.85951300
vt -12.73225000 5.55948200
vt -12.73778000 5.54761200
vt -14.40914000 5.54709700
vt -14.40914000 5.55896500
vt -15.31286000 5.54709700
vt -15.31286000 5.55896500
vt -17.53932000 5.54709700
vt -17.55155000 5.55896500
vt -20.86828000 1.86455600
vt -20.85605000 1.85268900
vt -20.85605000 0.23924970
vt -20.86828000 0.23924970
vt -20.85605000 -0.63789950
vt -20.86828000 -0.63789950
vt -20.85605000 -3.48966600
vt -20.86828000 -3.50153400
vt -17.55272000 -7.19558600
vt -17.54049000 -7.18371900
vt -12.74712000 -7.18371900
vt -12.73489000 -7.19558600
vt -9.41941800 -2.67581700
vt -9.41957400 -3.50143800
vt -9.43180200 -3.48957100
vt -9.43165000 -2.67581800
vt -9.43232300 -1.02487100
vt -9.42009300 -1.02487000
vt -9.41992600 -0.09589875
vt -9.43215700 -0.09589875
vt -9.41972600 1.01622700
vt -9.43195600 1.01390400
vt -9.41957400 1.86446000
vt -9.43180500 1.85909600
vt -8.11722400 6.23795800
vt -8.11979600 6.25687600
vt -8.11979600 6.43733100
vt -8.11722400 6.45624800
vt -8.11979600 6.25687600
vt -8.12356000 6.40968000
vt -8.11979600 6.43733100
vt -8.12356000 6.28452600
vt 15.59935000 -11.04646000
vt 15.60478000 -11.05182000
vt 15.60478000 -12.73237000
vt 15.59935000 -12.73559000
vt -0.68719670 -0.90785320
vt -0.68419680 -0.90285310
vt -0.65019450 -0.90285310
vt -0.64719380 -0.90785320
vt 20.55575000 -16.64471000
vt 20.55031000 -16.64149000
vt 20.55031000 -14.95905000
vt 20.55575000 -14.95368000
vt 19.22881000 -13.97037000
vt 19.22338000 -13.97574000
vt 16.95733000 -13.97574000
vt 16.95398000 -13.97038000
vt 1.30954200 -0.92028770
vt 1.31254100 -0.91007590
vt 1.34652700 -0.91007260
vt 1.34952700 -0.92028750
vt 19.20175000 -10.06220000
vt 19.19840000 -10.06757000
vt 16.93108000 -10.06757000
vt 16.92564000 -10.06220000
vt 18.39600000 0.63499590
vt 18.39722000 0.64928710
vt 19.03325000 0.64693340
vt 19.03451000 0.63263830
vt 1.34952600 -1.03893000
vt 1.34652600 -1.04914200
vt 1.31254000 -1.04914500
vt 1.30954100 -1.03892900
vt 19.03448000 1.64543200
vt 19.03323000 1.63114400
vt 18.39725000 1.63114700
vt 18.39603000 1.64544100
vt 16.89982000 1.23752900
vt 16.90105000 1.22317000
vt 16.90105000 1.06281800
vt 16.89982000 1.04846300
vt 2.57577700 16.75350000
vt 2.58149500 14.05647000
vt 2.57577700 14.05137000
vt 2.58149500 16.75350000
vt 2.57577700 16.88097000
vt 2.58149500 16.87790000
vt 5.71643300 12.33772000
vt 5.72215100 12.34281000
vt 10.89438000 12.34281000
vt 10.89781000 12.33772000
vt 14.03878000 19.28287000
vt 14.03750000 19.29659000
vt 14.03750000 19.45209000
vt 14.03878000 19.46581000
vt -17.73198000 13.64044000
vt -17.72855000 13.64553000
vt -12.55754000 13.64553000
vt -12.55182000 13.64044000
vt -9.41055600 15.35418000
vt -9.41627700 15.35928000
vt -9.41627700 18.18054000
vt -9.41055600 18.18361000
vt 1.38988900 -0.95635190
vt 1.39288900 -0.95135160
vt 1.42689300 -0.95135170
vt 1.42989200 -0.95635190
vt 21.85768000 -19.80264000
vt 21.85651000 -19.78798000
vt 21.85651000 -19.62675000
vt 21.85768000 -19.61209000
vt 15.60015000 -19.61594000
vt 15.60128000 -19.63001000
vt 15.60128000 -19.78473000
vt 15.60015000 -19.79879000
vt 18.32915000 -19.64863000
vt 18.33201000 -19.68423000
vt 18.33201000 -19.73053000
vt 18.32915000 -19.76614000
vt 18.58590000 -19.68423000
vt 18.33201000 -19.73053000
vt 18.33201000 -19.68423000
vt 18.58590000 -19.73053000
vt 18.89268000 -19.68423000
vt 18.89268000 -19.73053000
vt 19.12580000 -19.73053000
vt 19.12580000 -19.68423000
vt 18.32915000 -19.76614000
vt 18.33201000 -19.73053000
vt 18.58590000 -19.73053000
vt 18.58590000 -19.76614000
vt 18.89268000 -19.73053000
vt 18.89392000 -19.76613000
vt 19.12866000 -19.76613000
vt 19.12580000 -19.73053000
vt 18.58590000 -19.64863000
vt 18.33201000 -19.68423000
vt 18.32915000 -19.64863000
vt 18.58590000 -19.68423000
vt 18.89268000 -19.68423000
vt 18.89392000 -19.64862000
vt 19.12866000 -19.64862000
vt 19.12580000 -19.68423000
vt 19.12866000 -19.76613000
vt 19.12580000 -19.73053000
vt 19.12580000 -19.68423000
vt 19.12866000 -19.64862000
vt 18.53131000 -20.21580000
vt 18.17536000 -20.21580000
vt 18.17654000 -20.20104000
vt 18.53131000 -20.20104000
vt 18.95692000 -20.20103000
vt 18.95743000 -20.21580000
vt 19.28127000 -20.20103000
vt 19.28245000 -20.21580000
vt 18.17552000 -19.19895000
vt 18.53137000 -19.21371000
vt 18.17670000 -19.21371000
vt 18.53137000 -19.19895000
vt 18.95686000 -19.21371000
vt 18.95737000 -19.19895000
vt 19.28111000 -19.21371000
vt 19.28229000 -19.19895000
f 3/3/3 2/2/2 1/1/1
f 5/5/5 4/4/4 3/3/3
f 3/3/3 1/1/1 5/5/5
f 8/8/8 7/7/7 6/6/6
f 9/9/9 8/8/8 6/6/6
f 12/12/12 11/11/11 10/10/10
f 13/13/13 12/12/12 10/10/10
f 16/16/16 15/15/15 14/14/14
f 17/17/17 16/16/16 14/14/14
f 20/20/20 19/19/19 18/18/18
f 21/21/21 20/20/20 18/18/18
f 24/24/24 23/23/23 22/22/22
f 25/25/25 24/24/24 22/22/22
f 28/28/28 27/27/27 26/26/26
f 29/29/29 28/28/28 26/26/26
f 32/32/32 31/31/31 30/30/30
f 33/33/33 32/32/32 30/30/30
f 36/36/36 35/35/35 34/34/34
f 37/37/37 36/36/36 34/34/34
f 40/40/40 39/39/39 38/38/38
f 41/41/41 40/40/40 38/38/38
f 44/44/44 43/43/43 42/42/42
f 45/45/45 44/44/44 42/42/42
f 48/48/48 47/47/47 46/46/46
f 49/49/49 48/48/48 46/46/46
f 52/52/52 51/51/51 50/50/50
f 53/53/53 52/52/52 50/50/50
f 56/56/56 55/55/55 54/54/54
f 57/57/57 56/56/56 54/54/54
f 60/60/60 59/59/59 58/58/58
f 61/61/61 60/60/60 58/58/58
f 64/64/64 63/63/63 62/62/62
f 65/65/65 64/64/64 62/62/62
f 68/68/68 67/67/67 66/66/66
f 69/69/69 68/68/68 66/66/66
f 70/70/70 68/68/68 69/69/69
f 71/71/71 70/70/70 69/69/69
f 74/74/74 73/73/73 72/72/72
f 75/75/75 74/74/74 72/72/72
f 78/78/78 77/77/77 76/76/76
f 79/79/79 78/78/78 76/76/76
f 82/82/82 81/81/81 80/80/80
f 83/83/83 82/82/82 80/80/80
f 86/86/86 85/85/85 84/84/84
f 87/87/87 86/86/86 84/84/84
f 90/90/90 89/89/89 88/88/88
f 91/91/91 90/90/90 88/88/88
f 92/92/92 90/90/90 91/91/91
f 93/93/93 92/92/92 91/91/91
f 92/92/92 93/93/93 94/94/94
f 95/95/95 92/92/92 94/94/94
f 98/98/98 97/97/97 96/96/96
f 97/97/97 99/99/99 96/96/96
f 96/96/96 99/99/99 100/100/100
f 99/99/99 101/101/101 100/100/100
f 100/100/100 101/101/101 102/102/102
f 101/101/101 103/103/103 102/102/102
f 106/106/106 105/105/105 104/104/104
f 107/107/107 106/106/106 104/104/104
f 108/108/108 106/106/106 107/107/107
f 109/109/109 108/108/108 107/107/107
f 110/110/110 108/108/108 109/109/109
f 111/111/111 110/110/110 109/109/109
f 114/114/114 113/113/113 112/112/112
f 113/113/113 115/115/115 112/112/112
f 112/112/112 115/115/115 116/116/116
f 115/115/115 117/117/117 116/116/116
f 116/116/116 117/117/117 118/118/118
f 117/117/117 119/119/119 118/118/118
f 122/122/122 121/121/121 120/120/120
f 123/123/123 122/122/122 120/120/120
f 122/122/122 123/123/123 124/124/124
f 123/123/123 125/125/125 124/124/124
f 126/126/126 124/124/124 125/125/125
f 127/127/127 126/126/126 125/125/125
f 130/130/130 129/129/129 128/128/128
f 131/131/131 130/130/130 128/128/128
f 134/134/134 133/133/133 132/132/132
f 135/135/135 134/134/134 132/132/132
f 138/138/138 137/137/137 136/136/136
f 139/139/139 138/138/138 136/136/136
f 138/138/138 139/139/139 140/140/140
f 139/139/139 141/141/141 140/140/140
f 142/142/142 140/140/140 141/141/141
f 143/143/143 142/142/142 141/141/141
f 146/146/146 145/145/145 144/144/144
f 147/147/147 146/146/146 144/144/144
f 150/150/150 149/149/149 148/148/148
f 151/151/151 150/150/150 148/148/148
f 154/154/154 153/153/153 152/152/152
f 155/155/155 154/154/154 152/152/152
f 158/158/158 157/157/157 156/156/156
f 157/157/157 159/159/159 156/156/156
f 159/159/159 157/157/157 160/160/160
f 161/161/161 159/159/159 160/160/160
f 161/161/161 160/160/160 162/162/162
f 163/163/163 161/161/161 162/162/162
f 163/163/163 162/162/162 164/164/164
f 165/165/165 163/163/163 164/164/164
f 164/164/164 166/166/166 165/165/165
f 166/166/166 167/167/167 165/165/165
f 170/170/170 169/169/169 168/168/168
f 171/171/171 170/170/170 168/168/168
f 170/170/170 171/171/171 172/172/172
f 173/173/173 170/170/170 172/172/172
f 173/173/173 172/172/172 174/174/174
f 172/172/172 175/175/175 174/174/174
f 174/174/174 175/175/175 176/176/176
f 175/175/175 177/177/177 176/176/176
f 178/178/178 176/176/176 177/177/177
f 179/179/179 178/178/178 177/177/177
f 182/182/182 181/181/181 180/180/180
f 181/181/181 183/183/183 180/180/180
f 184/184/184 180/180/180 183/183/183
f 185/185/185 184/184/184 183/183/183
f 186/186/186 184/184/184 185/185/185
f 187/187/187 186/186/186 185/185/185
f 188/188/188 186/186/186 187/187/187
f 189/189/189 188/188/188 187/187/187
f 188/188/188 189/189/189 190/190/190
f 189/189/189 191/191/191 190/190/190
f 194/194/194 193/193/193 192/192/192
f 193/193/193 195/195/195 192/192/192
f 192/192/192 195/195/195 196/196/196
f 195/195/195 197/197/197 196/196/196
f 196/196/196 197/197/197 198/198/198
f 197/197/197 199/199/199 198/198/198
f 202/202/202 201/201/201 200/200/200
f 203/203/203 202/202/202 200/200/200
f 202/202/202 203/203/203 204/204/204
f 203/203/203 205/205/205 204/204/204
f 204/204/204 205/205/205 206/206/206
f 207/207/207 204/204/204 206/206/206
f 210/210/210 209/209/209 208/208/208
f 209/209/209 211/211/211 208/208/208
f 214/214/214 213/213/213 212/212/212
f 213/213/213 215/215/215 212/212/212
f 215/215/215 213/213/213 216/216/216
f 217/217/217 215/215/215 216/216/216
f 217/217/217 216/216/216 218/218/218
f 219/219/219 217/217/217 218/218/218
f 220/220/220 219/219/219 218/218/218
f 221/221/221 220/220/220 218/218/218
f 220/220/220 221/221/221 222/222/222
f 221/221/221 223/223/223 222/222/222
f 226/226/226 225/225/225 224/224/224
f 227/227/227 226/226/226 224/224/224
f 226/226/226 227/227/227 228/228/228
f 227/227/227 229/229/229 228/228/228
f 230/230/230 228/228/228 229/229/229
f 231/231/231 230/230/230 229/229/229
f 234/234/234 233/233/233 232/232/232
f 235/235/235 234/234/234 232/232/232
f 236/236/236 234/234/234 235/235/235
f 237/237/237 236/236/236 235/235/235
f 238/238/238 236/236/236 237/237/237
f 239/239/239 238/238/238 237/237/237
f 242/242/242 241/241/241 240/240/240
f 243/243/243 242/242/242 240/240/240
f 246/246/246 245/245/245 244/244/244
f 247/247/247 246/246/246 244/244/244
f 248/248/248 247/247/247 244/244/244
f 249/249/249 248/248/248 244/244/244
f 249/249/249 250/250/250 248/248/248
f 250/250/250 251/251/251 248/248/248
f 250/250/250 252/252/252 251/251/251
f 252/252/252 253/253/253 251/251/251
f 253/253/253 252/252/252 254/254/254
f 255/255/255 253/253/253 254/254/254
f 258/258/258 257/257/257 256/256/256
f 259/259/259 258/258/258 256/256/256
f 262/262/262 261/261/261 260/260/260
f 261/261/261 263/263/263 260/260/260
f 266/266/266 265/265/265 264/264/264
f 267/267/267 266/266/266 264/264/264
f 270/270/270 269/269/269 268/268/268
f 271/271/271 270/270/270 268/268/268
f 274/274/274 273/273/273 272/272/272
f 275/275/275 274/274/274 272/272/272
f 278/278/278 277/277/277 276/276/276
f 279/279/279 278/278/278 276/276/276
f 282/282/282 281/281/281 280/280/280
f 283/283/283 282/282/282 280/280/280
f 286/286/286 285/285/285 284/284/284
f 287/287/287 286/286/286 284/284/284
f 290/290/290 289/289/289 288/288/288
f 291/291/291 290/290/290 288/288/288
f 294/294/294 293/293/293 292/292/292
f 295/295/295 294/294/294 292/292/292
f 298/298/298 297/297/297 296/296/296
f 299/299/299 298/298/298 296/296/296
f 302/302/302 301/301/301 300/300/300
f 303/303/303 302/302/302 300/300/300
f 306/306/306 305/305/305 304/304/304
f 305/305/305 307/307/307 304/304/304
f 304/304/304 307/307/307 308/308/308
f 307/307/307 309/309/309 308/308/308
f 312/312/312 311/311/311 310/310/310
f 313/313/313 312/312/312 310/310/310
f 316/316/316 315/315/315 314/314/314
f 317/317/317 316/316/316 314/314/314
f 320/320/320 319/319/319 318/318/318
f 321/321/321 320/320/320 318/318/318
f 324/324/324 323/323/323 322/322/322
f 325/325/325 324/324/324 322/322/322
f 328/328/328 327/327/327 326/326/326
f 329/329/329 328/328/328 326/326/326
f 332/332/332 331/331/331 330/330/330
f 333/333/333 332/332/332 330/330/330
f 336/336/336 335/335/335 334/334/334
f 337/337/337 336/336/336 334/334/334
f 340/340/340 339/339/339 338/338/338
f 341/341/341 340/340/340 338/338/338
f 344/344/344 343/343/343 342/342/342
f 343/343/343 345/345/345 342/342/342
f 342/342/342 345/345/345 346/346/346
f 345/345/345 347/347/347 346/346/346
f 347/347/347 348/348/348 346/346/346
f 348/348/348 349/349/349 346/346/346
f 352/352/352 351/351/351 350/350/350
f 353/353/353 352/352/352 350/350/350
f 352/352/352 353/353/353 354/354/354
f 353/353/353 355/355/355 354/354/354
f 354/354/354 355/355/355 356/356/356
f 357/357/357 354/354/354 356/356/356
f 360/360/360 359/359/359 358/358/358
f 359/359/359 361/361/361 358/358/358
f 361/361/361 362/362/362 358/358/358
f 362/362/362 363/363/363 358/358/358
f 363/363/363 362/362/362 364/364/364
f 362/362/362 365/365/365 364/364/364
f 368/368/368 367/367/367 366/366/366
f 369/369/369 368/368/368 366/366/366
f 372/372/372 371/371/371 370/370/370
f 373/373/373 372/372/372 370/370/370
f 373/373/373 370/370/370 374/374/374
f 370/370/370 375/375/375 374/374/374
f 376/376/376 374/374/374 375/375/375
f 377/377/377 376/376/376 375/375/375
f 380/380/380 379/379/379 378/378/378
f 379/379/379 381/381/381 378/378/378
f 381/381/381 379/379/379 382/382/382
f 383/383/383 381/381/381 382/382/382
f 382/382/382 384/384/384 383/383/383
f 384/384/384 385/385/385 383/383/383
f 3/3/3 2/2/2 1/1/1
f 5/5/5 4/4/4 3/3/3
f 3/3/3 1/1/1 5/5/5
f 8/8/8 7/7/7 6/6/6
f 9/9/9 8/8/8 6/6/6
f 12/12/12 11/11/11 10/10/10
f 13/13/13 12/12/12 10/10/10
f 16/16/16 15/15/15 14/14/14
f 17/17/17 16/16/16 14/14/14
f 20/20/20 19/19/19 18/18/18
f 21/21/21 20/20/20 18/18/18
f 24/24/24 23/23/23 22/22/22
f 25/25/25 24/24/24 22/22/22
f 28/28/28 27/27/27 26/26/26
f 29/29/29 28/28/28 26/26/26
f 32/32/32 31/31/31 30/30/30
f 33/33/33 32/32/32 30/30/30
f 36/36/36 35/35/35 34/34/34
f 37/37/37 36/36/36 34/34/34
f 40/40/40 39/39/39 38/38/38
f 41/41/41 40/40/40 38/38/38
f 44/44/44 43/43/43 42/42/42
f 45/45/45 44/44/44 42/42/42
f 48/48/48 47/47/47 46/46/46
f 49/49/49 48/48/48 46/46/46
f 52/52/52 51/51/51 50/50/50
f 53/53/53 52/52/52 50/50/50
f 56/56/56 55/55/55 54/54/54
f 57/57/57 56/56/56 54/54/54
f 60/60/60 59/59/59 58/58/58
f 61/61/61 60/60/60 58/58/58
f 64/64/64 63/63/63 62/62/62
f 65/65/65 64/64/64 62/62/62
f 68/68/68 67/67/67 66/66/66
f 69/69/69 68/68/68 66/66/66
f 70/70/70 68/68/68 69/69/69
f 71/71/71 70/70/70 69/69/69
f 74/74/74 73/73/73 72/72/72
f 75/75/75 74/74/74 72/72/72
f 78/78/78 77/77/77 76/76/76
f 79/79/79 78/78/78 76/76/76
f 82/82/82 81/81/81 80/80/80
f 83/83/83 82/82/82 80/80/80
f 86/86/86 85/85/85 84/84/84
f 87/87/87 86/86/86 84/84/84
f 90/90/90 89/89/89 88/88/88
f 91/91/91 90/90/90 88/88/88
f 92/92/92 90/90/90 91/91/91
f 93/93/93 92/92/92 91/91/91
f 92/92/92 93/93/93 94/94/94
f 95/95/95 92/92/92 94/94/94
f 98/98/98 97/97/97 96/96/96
f 97/97/97 99/99/99 96/96/96
f 96/96/96 99/99/99 100/100/100
f 99/99/99 101/101/101 100/100/100
f 100/100/100 101/101/101 102/102/102
f 101/101/101 103/103/103 102/102/102
f 106/106/106 105/105/105 104/104/104
f 107/107/107 106/106/106 104/104/104
f 108/108/108 106/106/106 107/107/107
f 109/109/109 108/108/108 107/107/107
f 110/110/110 108/108/108 109/109/109
f 111/111/111 110/110/110 109/109/109
f 114/114/114 113/113/113 112/112/112
f 113/113/113 115/115/115 112/112/112
f 112/112/112 115/115/115 116/116/116
f 115/115/115 117/117/117 116/116/116
f 116/116/116 117/117/117 118/118/118
f 117/117/117 119/119/119 118/118/118
f 122/122/122 121/121/121 120/120/120
f 123/123/123 122/122/122 120/120/120
f 122/122/122 123/123/123 124/124/124
f 123/123/123 125/125/125 124/124/124
f 126/126/126 124/124/124 125/125/125
f 127/127/127 126/126/126 125/125/125
f 130/130/130 129/129/129 128/128/128
f 131/131/131 130/130/130 128/128/128
f 134/134/134 133/133/133 132/132/132
f 135/135/135 134/134/134 132/132/132
f 138/138/138 137/137/137 136/136/136
f 139/139/139 138/138/138 136/136/136
f 138/138/138 139/139/139 140/140/140
f 139/139/139 141/141/141 140/140/140
f 142/142/142 140/140/140 141/141/141
f 143/143/143 142/142/142 141/141/141
f 146/146/146 145/145/145 144/144/144
f 147/147/147 146/146/146 144/144/144
f 150/150/150 149/149/149 148/148/148
f 151/151/151 150/150/150 148/148/148
f 154/154/154 153/153/153 152/152/152
f 155/155/155 154/154/154 152/152/152
f 158/158/158 157/157/157 156/156/156
f 157/157/157 159/159/159 156/156/156
f 159/159/159 157/157/157 160/160/160
f 161/161/161 159/159/159 160/160/160
f 161/161/161 160/160/160 162/162/162
f 163/163/163 161/161/161 162/162/162
f 163/163/163 162/162/162 164/164/164
f 165/165/165 163/163/163 164/164/164
f 164/164/164 166/166/166 165/165/165
f 166/166/166 167/167/167 165/165/165
f 170/170/170 169/169/169 168/168/168
f 171/171/171 170/170/170 168/168/168
f 170/170/170 171/171/171 172/172/172
f 173/173/173 170/170/170 172/172/172
f 173/173/173 172/172/172 174/174/174
f 172/172/172 175/175/175 174/174/174
f 174/174/174 175/175/175 176/176/176
f 175/175/175 177/177/177 176/176/176
f 178/178/178 176/176/176 177/177/177
f 179/179/179 178/178/178 177/177/177
f 182/182/182 181/181/181 180/180/180
f 181/181/181 183/183/183 180/180/180
f 184/184/184 180/180/180 183/183/183
f 185/185/185 184/184/184 183/183/183
f 186/186/186 184/184/184 185/185/185
f 187/187/187 186/186/186 185/185/185
f 188/188/188 186/186/186 187/187/187
f 189/189/189 188/188/188 187/187/187
f 188/188/188 189/189/189 190/190/190
f 189/189/189 191/191/191 190/190/190
f 194/194/194 193/193/193 192/192/192
f 193/193/193 195/195/195 192/192/192
f 192/192/192 195/195/195 196/196/196
f 195/195/195 197/197/197 196/196/196
f 196/196/196 197/197/197 198/198/198
f 197/197/197 199/199/199 198/198/198
f 202/202/202 201/201/201 200/200/200
f 203/203/203 202/202/202 200/200/200
f 202/202/202 203/203/203 204/204/204
f 203/203/203 205/205/205 204/204/204
f 204/204/204 205/205/205 206/206/206
f 207/207/207 204/204/204 206/206/206
f 210/210/210 209/209/209 208/208/208
f 209/209/209 211/211/211 208/208/208
f 214/214/214 213/213/213 212/212/212
f 213/213/213 215/215/215 212/212/212
f 215/215/215 213/213/213 216/216/216
f 217/217/217 215/215/215 216/216/216
f 217/217/217 216/216/216 218/218/218
f 219/219/219 217/217/217 218/218/218
f 220/220/220 219/219/219 218/218/218
f 221/221/221 220/220/220 218/218/218
f 220/220/220 221/221/221 222/222/222
f 221/221/221 223/223/223 222/222/222
f 226/226/226 225/225/225 224/224/224
f 227/227/227 226/226/226 224/224/224
f 226/226/226 227/227/227 228/228/228
f 227/227/227 229/229/229 228/228/228
f 230/230/230 228/228/228 229/229/229
f 231/231/231 230/230/230 229/229/229
f 234/234/234 233/233/233 232/232/232
f 235/235/235 234/234/234 232/232/232
f 236/236/236 234/234/234 235/235/235
f 237/237/237 236/236/236 235/235/235
f 238/238/238 236/236/236 237/237/237
f 239/239/239 238/238/238 237/237/237
f 242/242/242 241/241/241 240/240/240
f 243/243/243 242/242/242 240/240/240
f 246/246/246 245/245/245 244/244/244
f 247/247/247 246/246/246 244/244/244
f 248/248/248 247/247/247 244/244/244
f 249/249/249 248/248/248 244/244/244
f 249/249/249 250/250/250 248/248/248
f 250/250/250 251/251/251 248/248/248
f 250/250/250 252/252/252 251/251/251
f 252/252/252 253/253/253 251/251/251
f 253/253/253 252/252/252 254/254/254
f 255/255/255 253/253/253 254/254/254
f 258/258/258 257/257/257 256/256/256
f 259/259/259 258/258/258 256/256/256
f 262/262/262 261/261/261 260/260/260
f 261/261/261 263/263/263 260/260/260
f 266/266/266 265/265/265 264/264/264
f 267/267/267 266/266/266 264/264/264
f 270/270/270 269/269/269 268/268/268
f 271/271/271 270/270/270 268/268/268
f 274/274/274 273/273/273 272/272/272
f 275/275/275 274/274/274 272/272/272
f 278/278/278 277/277/277 276/276/276
f 279/279/279 278/278/278 276/276/276
f 282/282/282 281/281/281 280/280/280
f 283/283/283 282/282/282 280/280/280
f 286/286/286 285/285/285 284/284/284
f 287/287/287 286/286/286 284/284/284
f 290/290/290 289/289/289 288/288/288
f 291/291/291 290/290/290 288/288/288
f 294/294/294 293/293/293 292/292/292
f 295/295/295 294/294/294 292/292/292
f 298/298/298 297/297/297 296/296/296
f 299/299/299 298/298/298 296/296/296
f 302/302/302 301/301/301 300/300/300
f 303/303/303 302/302/302 300/300/300
f 306/306/306 305/305/305 304/304/304
f 305/305/305 307/307/307 304/304/304
f 304/304/304 307/307/307 308/308/308
f 307/307/307 309/309/309 308/308/308
f 312/312/312 311/311/311 310/310/310
f 313/313/313 312/312/312 310/310/310
f 316/316/316 315/315/315 314/314/314
f 317/317/317 316/316/316 314/314/314
f 320/320/320 319/319/319 318/318/318
f 321/321/321 320/320/320 318/318/318
f 324/324/324 323/323/323 322/322/322
f 325/325/325 324/324/324 322/322/322
f 328/328/328 327/327/327 326/326/326
f 329/329/329 328/328/328 326/326/326
f 332/332/332 331/331/331 330/330/330
f 333/333/333 332/332/332 330/330/330
f 336/336/336 335/335/335 334/334/334
f 337/337/337 336/336/336 334/334/334
f 340/340/340 339/339/339 338/338/338
f 341/341/341 340/340/340 338/338/338
f 344/344/344 343/343/343 342/342/342
f 343/343/343 345/345/345 342/342/342
f 342/342/342 345/345/345 346/346/346
f 345/345/345 347/347/347 346/346/346
f 347/347/347 348/348/348 346/346/346
f 348/348/348 349/349/349 346/346/346
f 352/352/352 351/351/351 350/350/350
f 353/353/353 352/352/352 350/350/350
f 352/352/352 353/353/353 354/354/354
f 353/353/353 355/355/355 354/354/354
f 354/354/354 355/355/355 356/356/356
f 357/357/357 354/354/354 356/356/356
f 360/360/360 359/359/359 358/358/358
f 359/359/359 361/361/361 358/358/358
f 361/361/361 362/362/362 358/358/358
f 362/362/362 363/363/363 358/358/358
f 363/363/363 362/362/362 364/364/364
f 362/362/362 365/365/365 364/364/364
f 368/368/368 367/367/367 366/366/366
f 369/369/369 368/368/368 366/366/366
f 372/372/372 371/371/371 370/370/370
f 373/373/373 372/372/372 370/370/370
f 373/373/373 370/370/370 374/374/374
f 370/370/370 375/375/375 374/374/374
f 376/376/376 374/374/374 375/375/375
f 377/377/377 376/376/376 375/375/375
f 380/380/380 379/379/379 378/378/378
f 379/379/379 381/381/381 378/378/378
f 381/381/381 379/379/379 382/382/382
f 383/383/383 381/381/381 382/382/382
f 382/382/382 384/384/384 383/383/383
f 384/384/384 385/385/385 383/383/383

