mtllib material.mtl
usemtl material_0
v 0.09000000 0.31919000 0.02527000
v 0.05581000 0.31920000 0.02528000
v 0.05418000 0.32083000 0.02700000
v 0.20001000 0.31919000 0.02537000
v 0.09001000 0.32085000 0.02700000
v 0.20000000 0.32085000 0.02711000
v 0.23420000 0.31920000 0.02538000
v 0.23589000 0.32083000 0.02711000
v 0.09000000 0.31919000 0.02527000
v 0.05418000 0.32083000 0.02700000
v 0.00136000 -0.37363000 0.02700000
v 0.09000000 -0.37500000 0.02541000
v 0.00000000 -0.37500000 0.02541000
v 0.09000000 -0.37368000 0.02700000
v 0.20001000 -0.37500000 0.02551000
v 0.20001000 -0.37368000 0.02711000
v 0.29001000 -0.37500000 0.02551000
v 0.28863000 -0.37363000 0.02711000
v 0.20001000 -0.37500000 0.00011000
v 0.29001000 -0.37500000 0.02551000
v 0.29001000 -0.37500000 0.00011000
v 0.20001000 -0.37500000 0.02551000
v 0.09000000 -0.37500000 0.02541000
v 0.09000000 -0.37500000 0.00001000
v 0.00000000 -0.37500000 0.00001000
v 0.00000000 -0.37500000 0.02541000
v 0.28863000 -0.37363000 0.02711000
v 0.29001000 -0.28500000 0.02551000
v 0.29001000 -0.37500000 0.02551000
v 0.28869000 -0.28500000 0.02711000
v 0.29001000 0.28500000 0.02551000
v 0.28869000 0.28500000 0.02711000
v 0.29001000 0.37501000 0.02551000
v 0.28863000 0.37368000 0.02711000
v 0.29001000 0.28500000 0.00011000
v 0.29001000 0.37501000 0.02551000
v 0.29001000 0.37501000 0.00011000
v 0.29001000 0.28500000 0.02551000
v 0.29001000 -0.28500000 0.02551000
v 0.29001000 -0.28500000 0.00011000
v 0.29001000 -0.37500000 0.00011000
v 0.29001000 -0.37500000 0.02551000
v 0.20001000 0.37501000 0.02551000
v 0.29001000 0.37501000 0.02551000
v 0.28863000 0.37368000 0.02711000
v 0.20001000 0.37365000 0.02711000
v 0.09000000 0.37501000 0.02540000
v 0.09000000 0.37365000 0.02700000
v 0.00000000 0.37501000 0.02540000
v 0.00136000 0.37368000 0.02700000
v 0.09000000 0.37501000 0.00001000
v 0.00000000 0.37501000 0.02540000
v 0.00000000 0.37501000 0.00001000
v 0.09000000 0.37501000 0.02540000
v 0.20001000 0.37501000 0.02551000
v 0.20001000 0.37501000 0.00011000
v 0.29001000 0.37501000 0.00011000
v 0.29001000 0.37501000 0.02551000
v 0.00000000 0.28501000 0.02540000
v 0.00000000 0.37501000 0.02540000
v 0.00136000 0.37368000 0.02700000
v 0.00134000 0.28501000 0.02700000
v 0.00000000 -0.28500000 0.02541000
v 0.00134000 -0.28499000 0.02700000
v 0.00000000 -0.37500000 0.02541000
v 0.00136000 -0.37363000 0.02700000
v 0.00000000 0.37501000 0.00001000
v 0.00000000 0.37501000 0.02540000
v 0.00000000 0.28501000 0.02540000
v 0.00000000 0.28501000 0.00001000
v 0.00000000 -0.28500000 0.00001000
v 0.00000000 -0.28500000 0.02541000
v 0.00000000 -0.37500000 0.02541000
v 0.00000000 -0.37500000 0.00001000
v 0.05581000 0.31920000 0.02528000
v 0.05416000 0.28500000 0.02700000
v 0.05418000 0.32083000 0.02700000
v 0.05582000 0.28501000 0.02527000
v 0.05416000 -0.28499000 0.02700000
v 0.05582000 -0.28500000 0.02527000
v 0.05418000 -0.32081000 0.02700000
v 0.05581000 -0.31919000 0.02528000
v 0.05730000 0.28501000 0.01301000
v 0.05581000 0.31920000 0.02528000
v 0.05730000 0.31771000 0.01301000
v 0.05582000 0.28501000 0.02527000
v 0.05582000 -0.28500000 0.02527000
v 0.05730000 -0.28500000 0.01301000
v 0.05730000 -0.31770000 0.01301000
v 0.05581000 -0.31919000 0.02528000
v 0.05730000 0.31771000 0.01301000
v 0.05581000 0.31920000 0.02528000
v 0.09000000 0.31919000 0.02527000
v 0.09000000 0.31771000 0.01301000
v 0.20001000 0.31771000 0.01311000
v 0.20001000 0.31919000 0.02537000
v 0.23420000 0.31920000 0.02538000
v 0.23271000 0.31771000 0.01311000
v 0.23419000 0.28500000 0.02537000
v 0.23420000 0.31920000 0.02538000
v 0.23589000 0.32083000 0.02711000
v 0.23580000 0.28500000 0.02711000
v 0.23419000 -0.28500000 0.02537000
v 0.23580000 -0.28499000 0.02711000
v 0.23420000 -0.31919000 0.02538000
v 0.23589000 -0.32081000 0.02711000
v 0.23271000 0.31771000 0.01311000
v 0.23420000 0.31920000 0.02538000
v 0.23419000 0.28500000 0.02537000
v 0.23271000 0.28500000 0.01311000
v 0.23271000 -0.28500000 0.01311000
v 0.23419000 -0.28500000 0.02537000
v 0.23420000 -0.31919000 0.02538000
v 0.23271000 -0.31770000 0.01311000
v 0.20001000 -0.31918000 0.02537000
v 0.23420000 -0.31919000 0.02538000
v 0.23589000 -0.32081000 0.02711000
v 0.20000000 -0.32085000 0.02711000
v 0.09000000 -0.31918000 0.02527000
v 0.09001000 -0.32085000 0.02700000
v 0.05581000 -0.31919000 0.02528000
v 0.05418000 -0.32081000 0.02700000
v 0.23271000 -0.31770000 0.01311000
v 0.23420000 -0.31919000 0.02538000
v 0.20001000 -0.31918000 0.02537000
v 0.20001000 -0.31770000 0.01311000
v 0.09000000 -0.31770000 0.01301000
v 0.09000000 -0.31918000 0.02527000
v 0.05581000 -0.31919000 0.02528000
v 0.05730000 -0.31770000 0.01301000
v 0.23271000 0.28500000 0.01311000
v 0.20001000 0.31771000 0.01311000
v 0.23271000 0.31771000 0.01311000
v 0.20001000 0.28500000 0.01311000
v 0.09000000 0.31771000 0.01301000
v 0.20001000 -0.28500000 0.01311000
v 0.23271000 -0.28500000 0.01311000
v 0.23271000 -0.31770000 0.01311000
v 0.20001000 -0.31770000 0.01311000
v 0.09000000 0.28501000 0.01301000
v 0.05730000 0.31771000 0.01301000
v 0.05730000 0.28501000 0.01301000
v 0.05730000 -0.28500000 0.01301000
v 0.09000000 -0.28500000 0.01301000
v 0.09000000 -0.31770000 0.01301000
v 0.05730000 -0.31770000 0.01301000
v 0.20001000 0.37501000 0.00011000
v 0.29001000 0.28500000 0.00011000
v 0.29001000 0.37501000 0.00011000
v 0.20001000 0.28500000 0.00011000
v 0.29001000 -0.28500000 0.00011000
v 0.09000000 0.28501000 0.00001000
v 0.09000000 0.37501000 0.00001000
v 0.00000000 0.37501000 0.00001000
v 0.00000000 0.28501000 0.00001000
v 0.20001000 -0.28500000 0.00011000
v 0.29001000 -0.37500000 0.00011000
v 0.20001000 -0.37500000 0.00011000
v 0.09000000 -0.37500000 0.00001000
v 0.09000000 -0.28500000 0.00001000
v 0.00000000 -0.28500000 0.00001000
v 0.00000000 -0.37500000 0.00001000
v 0.05418000 0.32083000 0.02700000
v 0.05416000 0.28500000 0.02700000
v 0.00134000 0.28501000 0.02700000
v 0.00136000 0.37368000 0.02700000
v 0.00134000 -0.28499000 0.02700000
v 0.09001000 0.32085000 0.02700000
v 0.05416000 -0.28499000 0.02700000
v 0.09000000 0.37365000 0.02700000
v 0.00136000 -0.37363000 0.02700000
v 0.20000000 0.32085000 0.02711000
v 0.05418000 -0.32081000 0.02700000
v 0.20001000 0.37365000 0.02711000
v 0.09000000 -0.37368000 0.02700000
v 0.23589000 0.32083000 0.02711000
v 0.09001000 -0.32085000 0.02700000
v 0.28863000 0.37368000 0.02711000
v 0.20001000 -0.37368000 0.02711000
v 0.23580000 0.28500000 0.02711000
v 0.20000000 -0.32085000 0.02711000
v 0.28869000 0.28500000 0.02711000
v 0.28863000 -0.37363000 0.02711000
v 0.23580000 -0.28499000 0.02711000
v 0.23589000 -0.32081000 0.02711000
v 0.28869000 -0.28500000 0.02711000
vn 0.00015734 -0.72552190 0.68819900
vn 0.00015734 -0.72552190 0.68819900
vn 0.00015734 -0.72552190 0.68819900
vn -0.00062656 -0.72235420 0.69152310
vn -0.00062656 -0.72235410 0.69152300
vn -0.00017832 -0.72251190 0.69135850
vn -0.00017832 -0.72251180 0.69135860
vn -0.00047401 -0.72543220 0.68829340
vn 0.00047463 -0.72246210 0.69141040
vn 0.00047463 -0.72246210 0.69141040
vn -0.00046034 -0.77233370 0.63521680
vn -0.00052575 -0.77235070 0.63519600
vn 0.00000000 -0.75978510 0.65017440
vn -0.00052499 -0.77235060 0.63519630
vn -0.00057770 -0.77236430 0.63517950
vn -0.00057920 -0.77234760 0.63519990
vn 0.00000000 -0.77241130 0.63512260
vn 0.00044958 -0.75988120 0.65006180
vn 0.00000000 -1.00000000 0.00000000
vn 0.00000000 -1.00000000 0.00000000
vn 0.00000000 -1.00000000 0.00000000
vn 0.00000000 -1.00000000 0.00000000
vn 0.00000000 -1.00000000 0.00000000
vn 0.00000000 -1.00000000 0.00000000
vn 0.00000000 -1.00000000 0.00000000
vn 0.00000000 -1.00000000 0.00000000
vn 0.77345940 -0.00053194 0.63384560
vn 0.77341290 -0.00007065 0.63390250
vn 0.75910680 0.00000000 0.65096610
vn 0.77341310 -0.00007174 0.63390240
vn 0.77340580 0.00000000 0.63391130
vn 0.77347270 0.00000000 0.63382970
vn 0.77342150 0.00000000 0.63389210
vn 0.75884520 0.00052171 0.65127070
vn 1.00000000 0.00000000 0.00000000
vn 1.00000000 0.00000000 0.00000000
vn 1.00000000 0.00000000 0.00000000
vn 1.00000000 0.00000000 0.00000000
vn 1.00000000 0.00000000 0.00000000
vn 1.00000000 0.00000000 0.00000000
vn 1.00000000 0.00000000 0.00000000
vn 1.00000000 0.00000000 0.00000000
vn 0.00000000 0.76894630 0.63931330
vn 0.00000000 0.76894630 0.63931330
vn 0.00000000 0.76894630 0.63931330
vn -0.00042111 0.76312380 0.64625220
vn -0.00058878 0.76307670 0.64630760
vn -0.00058575 0.76335810 0.64597530
vn 0.00000000 0.76303140 0.64636150
vn 0.00021930 0.76920070 0.63900720
vn 0.00000000 1.00000000 0.00000000
vn 0.00000000 1.00000000 0.00000000
vn 0.00000000 1.00000000 0.00000000
vn 0.00000000 1.00000000 0.00000000
vn 0.00000000 1.00000000 0.00000000
vn 0.00000000 1.00000000 0.00000000
vn 0.00000000 1.00000000 0.00000000
vn 0.00000000 1.00000000 0.00000000
vn -0.76401410 0.00000000 0.64519950
vn -0.76401410 0.00000000 0.64519950
vn -0.76401410 0.00000000 0.64519950
vn -0.76840980 0.00016532 0.63995800
vn -0.76837190 0.00000056 0.64000350
vn -0.76831370 0.00000000 0.64007340
vn -0.76831370 0.00000000 0.64007350
vn -0.76383610 -0.00016439 0.64541030
vn -1.00000000 0.00000000 0.00000000
vn -1.00000000 0.00000000 0.00000000
vn -1.00000000 0.00000000 0.00000000
vn -1.00000000 0.00000000 0.00000000
vn -1.00000000 0.00000026 0.00000000
vn -1.00000000 0.00000026 0.00000000
vn -1.00000000 0.00000000 0.00000000
vn -1.00000000 0.00000000 0.00000000
vn 0.72529040 -0.00043556 0.68844290
vn 0.72256300 -0.00017408 0.69130500
vn 0.72538200 -0.00044436 0.68834630
vn 0.72242720 -0.00016109 0.69144680
vn 0.72248670 0.00044263 0.69138470
vn 0.72536250 0.00016560 0.68836690
vn 0.72536250 0.00016560 0.68836700
vn 0.72536250 0.00016560 0.68836710
vn 0.99271000 0.00000568 0.12052730
vn 0.99270840 0.00000179 0.12054070
vn 0.99270770 0.00000000 0.12054680
vn 0.99271070 0.00000722 0.12052200
vn 0.99271050 -0.00000011 0.12052380
vn 0.99270800 0.00000032 0.12054350
vn 0.99270830 0.00000000 0.12054230
vn 0.99270770 0.00000000 0.12054640
vn 0.00000180 -0.99270880 0.12053670
vn 0.00000180 -0.99270880 0.12053670
vn 0.00000180 -0.99270880 0.12053670
vn 0.00000000 -0.99271090 0.12051990
vn -0.00011115 -0.99270950 0.12053110
vn -0.00011066 -0.99270920 0.12053410
vn 0.00000022 -0.99270740 0.12054860
vn 0.00000000 -0.99270780 0.12054610
vn -0.71423730 -0.00018415 0.69990360
vn -0.71423730 -0.00018415 0.69990360
vn -0.71423740 -0.00018415 0.69990350
vn -0.73400750 0.00175787 0.67913900
vn -0.73398080 0.00000000 0.67917030
vn -0.73396780 0.00017768 0.67918420
vn -0.73396780 0.00017768 0.67918420
vn -0.71503390 -0.00171312 0.69908780
vn -0.99270760 -0.00000880 0.12054800
vn -0.99270760 -0.00000880 0.12054800
vn -0.99270760 -0.00000880 0.12054800
vn -0.99270440 0.00000024 0.12057380
vn -0.99270450 0.00000000 0.12057300
vn -0.99270450 0.00000000 0.12057310
vn -0.99270670 0.00000188 0.12055400
vn -0.99270730 -0.00000047 0.12054960
vn -0.00017912 0.72701610 0.68662040
vn -0.00017912 0.72701610 0.68662040
vn -0.00017912 0.72701610 0.68662040
vn -0.00076893 0.72101560 0.69291840
vn -0.00062624 0.72092280 0.69301520
vn 0.00015644 0.72086200 0.69307870
vn 0.00015644 0.72086200 0.69307860
vn 0.00077621 0.72678170 0.68686800
vn -0.00000271 0.99271290 0.12050340
vn -0.00000271 0.99271290 0.12050350
vn -0.00000271 0.99271290 0.12050350
vn 0.00000000 0.99270700 0.12055280
vn -0.00010694 0.99270920 0.12053430
vn -0.00010679 0.99270950 0.12053130
vn -0.00000045 0.99270830 0.12054180
vn 0.00000000 0.99270760 0.12054750
vn 0.00000000 0.00000000 1.00000000
vn 0.00000000 0.00000000 1.00000000
vn 0.00000000 0.00000000 1.00000000
vn 0.00000000 0.00000000 1.00000000
vn 0.00000000 0.00000000 1.00000000
vn 0.00000000 0.00000000 1.00000000
vn 0.00000000 0.00000000 1.00000000
vn 0.00000000 0.00000000 1.00000000
vn 0.00000000 0.00000000 1.00000000
vn 0.00000000 0.00000000 1.00000000
vn 0.00000000 0.00000000 1.00000000
vn 0.00000000 0.00000000 1.00000000
vn 0.00000000 0.00000000 1.00000000
vn -0.00090976 0.00000000 0.99999960
vn -0.00090950 0.00000000 0.99999960
vn 0.00000000 0.00000000 1.00000000
vn 0.00000000 0.00000000 -1.00000000
vn 0.00000000 0.00000000 -1.00000000
vn 0.00000000 0.00000000 -1.00000000
vn 0.00000000 0.00000000 -1.00000000
vn 0.00000000 0.00000000 -1.00000000
vn 0.00000000 0.00000000 -1.00000000
vn 0.00000000 0.00000000 -1.00000000
vn 0.00000000 0.00000000 -1.00000000
vn 0.00000000 0.00000000 -1.00000000
vn 0.00000000 0.00000000 -1.00000000
vn 0.00000000 0.00000000 -1.00000000
vn 0.00000000 0.00000000 -1.00000000
vn 0.00090998 0.00000000 -0.99999960
vn 0.00090967 0.00000000 -0.99999960
vn 0.00000000 0.00000000 -1.00000000
vn 0.00000000 0.00000000 -1.00000000
vn 0.00000033 0.00000000 1.00000000
vn -0.00000038 0.00000000 1.00000000
vn 0.00000000 0.00000000 1.00000000
vn 0.00000044 0.00000000 1.00000000
vn 0.00000070 0.00000000 1.00000000
vn -0.00055388 0.00000000 0.99999990
vn 0.00000047 0.00000000 1.00000000
vn -0.00050460 0.00000000 0.99999990
vn 0.00000197 0.00000000 1.00000000
vn -0.00068715 0.00000000 0.99999980
vn -0.00000023 0.00000000 1.00000000
vn -0.00056179 0.00000000 0.99999990
vn -0.00056162 0.00000000 0.99999990
vn -0.00000015 0.00000000 1.00000000
vn -0.00068818 0.00000000 0.99999980
vn 0.00000000 0.00000000 1.00000000
vn -0.00050533 0.00000000 0.99999990
vn 0.00000000 0.00000000 1.00000000
vn -0.00055581 0.00000000 0.99999990
vn -0.00000033 0.00000000 1.00000000
vn 0.00000000 0.00000000 1.00000000
vn -0.00000574 0.00000000 1.00000000
vn -0.00000028 0.00000000 1.00000000
vn -0.00000578 0.00000000 1.00000000
vt 4.46635300 3.13399100
vt 4.44544600 3.13400700
vt 4.44444700 3.13698000
vt 4.53361300 3.13416300
vt 4.46635400 3.13698000
vt 4.53361300 3.13715300
vt 4.55452000 3.13417900
vt 4.55555300 3.13715300
vt 4.46635300 3.13399100
vt 4.44444700 3.13698000
vt 4.13306400 3.39181600
vt 4.20522700 3.38981500
vt 4.13196500 3.38981500
vt 4.20522700 3.39181600
vt 4.29477300 3.38994000
vt 4.29477300 3.39194100
vt 4.36803500 3.38994000
vt 4.36691900 3.39194100
vt 4.29477300 3.35818400
vt 4.36803500 3.38994000
vt 4.36803500 3.35818400
vt 4.29477300 3.38994000
vt 4.20522700 3.38981500
vt 4.20522700 3.35805900
vt 4.13196500 3.35805900
vt 4.13196500 3.38981500
vt 1.85797100 1.57361400
vt 1.85998900 1.64510800
vt 1.85998900 1.57251000
vt 1.85797100 1.64510800
vt 1.85998900 2.10489200
vt 1.85797100 2.10489200
vt 1.85998900 2.17749000
vt 1.85797100 2.17641700
vt 1.89202900 2.10489200
vt 1.85998900 2.17749000
vt 1.89202900 2.17749000
vt 1.85998900 2.10489200
vt 1.85998900 1.64510800
vt 1.89202900 1.64510800
vt 1.89202900 1.57251000
vt 1.85998900 1.57251000
vt 4.20521700 3.63994200
vt 4.13193900 3.63994200
vt 4.13305700 3.64194300
vt 4.20521700 3.64194300
vt 4.29478300 3.63981700
vt 4.29478300 3.64181800
vt 4.36806100 3.63981700
vt 4.36696000 3.64181800
vt 4.29478300 3.60805700
vt 4.36806100 3.63981700
vt 4.36806100 3.60805700
vt 4.29478300 3.63981700
vt 4.20521700 3.63994200
vt 4.20521700 3.60818200
vt 4.13193900 3.60818200
vt 4.13193900 3.63994200
vt 1.64001300 2.10493500
vt 1.64001300 2.17754600
vt 1.64203200 2.17647300
vt 1.64203200 2.10493500
vt 1.64001400 1.64506500
vt 1.64203200 1.64506500
vt 1.64001400 1.57245500
vt 1.64203200 1.57355900
vt 1.60796800 2.17754600
vt 1.64001300 2.17754600
vt 1.64001300 2.10493500
vt 1.60796800 2.10493500
vt 1.60796800 1.64506500
vt 1.64001400 1.64506500
vt 1.64001400 1.57245500
vt 1.60796800 1.57245500
vt 3.61564600 1.81473900
vt 3.61258700 1.79441500
vt 3.61258700 1.81571100
vt 3.61566300 1.79441500
vt 3.61258700 1.45558100
vt 3.61566300 1.45558100
vt 3.61258700 1.43428900
vt 3.61564600 1.43525600
vt 3.63741300 1.79441500
vt 3.61564600 1.81473900
vt 3.63741300 1.81385400
vt 3.61566300 1.79441500
vt 3.61566300 1.45558100
vt 3.63741300 1.45558100
vt 3.63741300 1.43614300
vt 3.61564600 1.43525600
vt 4.44635900 3.11284700
vt 4.44544600 3.13400700
vt 4.46635300 3.13399100
vt 4.46635300 3.11284700
vt 4.53361300 3.11302000
vt 4.53361300 3.13416300
vt 4.55452000 3.13417900
vt 4.55360800 3.11302000
vt 3.88432600 1.79421900
vt 3.88434300 1.81451900
vt 3.88740000 1.81549000
vt 3.88740000 1.79421900
vt 3.88432600 1.45577700
vt 3.88740000 1.45577700
vt 3.88434300 1.43547700
vt 3.88740000 1.43451000
vt 3.86260000 1.81363400
vt 3.88434300 1.81451900
vt 3.88432600 1.79421900
vt 3.86260000 1.79421900
vt 3.86260000 1.45577700
vt 3.88432600 1.45577700
vt 3.88434300 1.43547700
vt 3.86260000 1.43636200
vt 0.46637520 3.88416600
vt 0.44546230 3.88418200
vt 0.44442880 3.88715600
vt 0.46637550 3.88715600
vt 0.53365770 3.88399400
vt 0.53365720 3.88698300
vt 0.55457030 3.88401000
vt 0.55557120 3.88698300
vt 0.44637420 3.86301700
vt 0.44546230 3.88418200
vt 0.46637520 3.88416600
vt 0.46637520 3.86301700
vt 0.53365770 3.86284400
vt 0.53365770 3.88399400
vt 0.55457030 3.88401000
vt 0.55365880 3.86284400
vt 4.59483000 1.76357300
vt 4.55947100 1.79381500
vt 4.59483000 1.79381500
vt 4.55947100 1.76357300
vt 4.44052900 1.79381500
vt 4.55947100 1.23642700
vt 4.59483000 1.23642700
vt 4.59483000 1.20618500
vt 4.55947100 1.20618500
vt 4.44052900 1.76357400
vt 4.40517000 1.79381500
vt 4.40517000 1.76357400
vt 4.40517000 1.23642700
vt 4.44052900 1.23642700
vt 4.44052900 1.20618500
vt 4.40517000 1.20618500
vt 0.69460340 2.24731800
vt 0.60395490 2.15796200
vt 0.60395490 2.24731800
vt 0.69460340 2.15796200
vt 0.60395490 1.59203800
vt 0.80539660 2.15796200
vt 0.80539660 2.24731800
vt 0.89604460 2.24731800
vt 0.89604460 2.15796200
vt 0.69460340 1.59203800
vt 0.60395490 1.50268200
vt 0.69460340 1.50268200
vt 0.80539640 1.50268200
vt 0.80539640 1.59203800
vt 0.89604460 1.59203800
vt 0.89604460 1.50268200
vt 2.65825000 2.19264400
vt 2.65822700 2.15717400
vt 2.60487900 2.15717500
vt 2.60489800 2.24496400
vt 2.60487900 1.59283900
vt 2.69443700 2.19266800
vt 2.65822700 1.59283900
vt 2.69443700 2.24494000
vt 2.60489800 1.50508800
vt 2.80554200 2.19266800
vt 2.65825000 1.55737600
vt 2.80554200 2.24493900
vt 2.69443700 1.50503600
vt 2.84178300 2.19264400
vt 2.69443700 1.55733900
vt 2.89506000 2.24496400
vt 2.80554200 1.50503600
vt 2.84169600 2.15717400
vt 2.80554200 1.55733800
vt 2.89512100 2.15717500
vt 2.89506000 1.50508800
vt 2.84169600 1.59283900
vt 2.84178300 1.55737600
vt 2.89512100 1.59283900
f 3/3/3 2/2/2 1/1/1
f 5/5/5 1/1/1 4/4/4
f 6/6/6 5/5/5 4/4/4
f 6/6/6 4/4/4 7/7/7
f 8/8/8 6/6/6 7/7/7
f 5/5/5 10/10/10 9/9/9
f 13/13/13 12/12/12 11/11/11
f 12/12/12 14/14/14 11/11/11
f 14/14/14 12/12/12 15/15/15
f 16/16/16 14/14/14 15/15/15
f 15/15/15 17/17/17 16/16/16
f 17/17/17 18/18/18 16/16/16
f 21/21/21 20/20/20 19/19/19
f 20/20/20 22/22/22 19/19/19
f 19/19/19 22/22/22 23/23/23
f 24/24/24 19/19/19 23/23/23
f 24/24/24 23/23/23 25/25/25
f 23/23/23 26/26/26 25/25/25
f 29/29/29 28/28/28 27/27/27
f 28/28/28 30/30/30 27/27/27
f 30/30/30 28/28/28 31/31/31
f 32/32/32 30/30/30 31/31/31
f 31/31/31 33/33/33 32/32/32
f 33/33/33 34/34/34 32/32/32
f 37/37/37 36/36/36 35/35/35
f 36/36/36 38/38/38 35/35/35
f 35/35/35 38/38/38 39/39/39
f 40/40/40 35/35/35 39/39/39
f 40/40/40 39/39/39 41/41/41
f 39/39/39 42/42/42 41/41/41
f 45/45/45 44/44/44 43/43/43
f 46/46/46 45/45/45 43/43/43
f 46/46/46 43/43/43 47/47/47
f 48/48/48 46/46/46 47/47/47
f 48/48/48 47/47/47 49/49/49
f 50/50/50 48/48/48 49/49/49
f 53/53/53 52/52/52 51/51/51
f 52/52/52 54/54/54 51/51/51
f 51/51/51 54/54/54 55/55/55
f 56/56/56 51/51/51 55/55/55
f 56/56/56 55/55/55 57/57/57
f 55/55/55 58/58/58 57/57/57
f 61/61/61 60/60/60 59/59/59
f 62/62/62 61/61/61 59/59/59
f 62/62/62 59/59/59 63/63/63
f 64/64/64 62/62/62 63/63/63
f 63/63/63 65/65/65 64/64/64
f 65/65/65 66/66/66 64/64/64
f 69/69/69 68/68/68 67/67/67
f 70/70/70 69/69/69 67/67/67
f 70/70/70 71/71/71 69/69/69
f 71/71/71 72/72/72 69/69/69
f 73/73/73 72/72/72 71/71/71
f 74/74/74 73/73/73 71/71/71
f 77/77/77 76/76/76 75/75/75
f 76/76/76 78/78/78 75/75/75
f 78/78/78 76/76/76 79/79/79
f 80/80/80 78/78/78 79/79/79
f 79/79/79 81/81/81 80/80/80
f 81/81/81 82/82/82 80/80/80
f 85/85/85 84/84/84 83/83/83
f 84/84/84 86/86/86 83/83/83
f 83/83/83 86/86/86 87/87/87
f 88/88/88 83/83/83 87/87/87
f 88/88/88 87/87/87 89/89/89
f 87/87/87 90/90/90 89/89/89
f 93/93/93 92/92/92 91/91/91
f 94/94/94 93/93/93 91/91/91
f 94/94/94 95/95/95 93/93/93
f 95/95/95 96/96/96 93/93/93
f 97/97/97 96/96/96 95/95/95
f 98/98/98 97/97/97 95/95/95
f 101/101/101 100/100/100 99/99/99
f 102/102/102 101/101/101 99/99/99
f 102/102/102 99/99/99 103/103/103
f 104/104/104 102/102/102 103/103/103
f 104/104/104 103/103/103 105/105/105
f 106/106/106 104/104/104 105/105/105
f 109/109/109 108/108/108 107/107/107
f 110/110/110 109/109/109 107/107/107
f 109/109/109 110/110/110 111/111/111
f 112/112/112 109/109/109 111/111/111
f 113/113/113 112/112/112 111/111/111
f 114/114/114 113/113/113 111/111/111
f 117/117/117 116/116/116 115/115/115
f 118/118/118 117/117/117 115/115/115
f 118/118/118 115/115/115 119/119/119
f 120/120/120 118/118/118 119/119/119
f 120/120/120 119/119/119 121/121/121
f 122/122/122 120/120/120 121/121/121
f 125/125/125 124/124/124 123/123/123
f 126/126/126 125/125/125 123/123/123
f 126/126/126 127/127/127 125/125/125
f 127/127/127 128/128/128 125/125/125
f 129/129/129 128/128/128 127/127/127
f 130/130/130 129/129/129 127/127/127
f 133/133/133 132/132/132 131/131/131
f 132/132/132 134/134/134 131/131/131
f 134/134/134 132/132/132 135/135/135
f 131/131/131 134/134/134 136/136/136
f 137/137/137 131/131/131 136/136/136
f 137/137/137 136/136/136 138/138/138
f 136/136/136 139/139/139 138/138/138
f 140/140/140 134/134/134 135/135/135
f 134/134/134 140/140/140 136/136/136
f 135/135/135 141/141/141 140/140/140
f 141/141/141 142/142/142 140/140/140
f 140/140/140 142/142/142 143/143/143
f 139/139/139 136/136/136 144/144/144
f 140/140/140 144/144/144 136/136/136
f 144/144/144 140/140/140 143/143/143
f 145/145/145 139/139/139 144/144/144
f 144/144/144 143/143/143 145/145/145
f 143/143/143 146/146/146 145/145/145
f 149/149/149 148/148/148 147/147/147
f 148/148/148 150/150/150 147/147/147
f 150/150/150 148/148/148 151/151/151
f 147/147/147 150/150/150 152/152/152
f 153/153/153 147/147/147 152/152/152
f 153/153/153 152/152/152 154/154/154
f 152/152/152 155/155/155 154/154/154
f 156/156/156 150/150/150 151/151/151
f 150/150/150 156/156/156 152/152/152
f 151/151/151 157/157/157 156/156/156
f 157/157/157 158/158/158 156/156/156
f 158/158/158 159/159/159 156/156/156
f 152/152/152 160/160/160 155/155/155
f 156/156/156 160/160/160 152/152/152
f 159/159/159 160/160/160 156/156/156
f 160/160/160 161/161/161 155/155/155
f 160/160/160 159/159/159 161/161/161
f 159/159/159 162/162/162 161/161/161
f 165/165/165 164/164/164 163/163/163
f 166/166/166 165/165/165 163/163/163
f 164/164/164 165/165/165 167/167/167
f 166/166/166 163/163/163 168/168/168
f 169/169/169 164/164/164 167/167/167
f 170/170/170 166/166/166 168/168/168
f 167/167/167 171/171/171 169/169/169
f 170/170/170 168/168/168 172/172/172
f 171/171/171 173/173/173 169/169/169
f 174/174/174 170/170/170 172/172/172
f 171/171/171 175/175/175 173/173/173
f 174/174/174 172/172/172 176/176/176
f 175/175/175 177/177/177 173/173/173
f 178/178/178 174/174/174 176/176/176
f 175/175/175 179/179/179 177/177/177
f 178/178/178 176/176/176 180/180/180
f 179/179/179 181/181/181 177/177/177
f 182/182/182 178/178/178 180/180/180
f 179/179/179 183/183/183 181/181/181
f 182/182/182 180/180/180 184/184/184
f 183/183/183 185/185/185 181/181/181
f 186/186/186 182/182/182 184/184/184
f 183/183/183 186/186/186 185/185/185
f 186/186/186 184/184/184 185/185/185

