mtllib material.mtl
usemtl material_0
v -0.24000000 0.05500000 0.02000000
v -0.23800000 0.05300000 0.02200000
v -0.23800000 -0.05300000 0.02200000
v -0.24000000 -0.05499000 0.02000000
v -0.24000000 -0.05499000 0.00000000
v 0.24000000 -0.05499000 0.00000000
v 0.24000000 0.05500000 0.00000000
v -0.24000000 0.05500000 0.00000000
v -0.24000000 -0.05499000 0.02000000
v -0.24000000 -0.05499000 0.00000000
v -0.24000000 0.05500000 0.00000000
v -0.24000000 0.05500000 0.02000000
v -0.24000000 0.05500000 0.02000000
v -0.24000000 0.05500000 0.00000000
v 0.24000000 0.05500000 0.00000000
v 0.24000000 0.05500000 0.02000000
v 0.24000000 0.05500000 0.02000000
v 0.24000000 0.05500000 0.00000000
v 0.24000000 -0.05499000 0.00000000
v 0.24000000 -0.05499000 0.02000000
v 0.24000000 -0.05499000 0.02000000
v 0.24000000 -0.05499000 0.00000000
v -0.24000000 -0.05499000 0.00000000
v -0.24000000 -0.05499000 0.02000000
v -0.23800000 -0.05300000 0.02200000
v -0.23800000 0.05300000 0.02200000
v 0.23801000 0.05301000 0.02200000
v 0.23801000 -0.05299000 0.02200000
v -0.24000000 -0.05499000 0.02000000
v -0.23800000 -0.05300000 0.02200000
v 0.23801000 -0.05299000 0.02200000
v 0.24000000 -0.05499000 0.02000000
v 0.24000000 -0.05499000 0.02000000
v 0.23801000 -0.05299000 0.02200000
v 0.23801000 0.05301000 0.02200000
v 0.24000000 0.05500000 0.02000000
v 0.24000000 0.05500000 0.02000000
v 0.23801000 0.05301000 0.02200000
v -0.23800000 0.05300000 0.02200000
v -0.24000000 0.05500000 0.02000000
v -0.23899000 -0.05400000 -0.36712000
v 0.23901000 -0.05399000 -0.36712000
v 0.23901000 0.04861000 -0.36712000
v -0.23899000 0.04860000 -0.36712000
v 0.23901000 -0.05399000 0.00813000
v 0.23901000 0.04861000 0.00813000
v 0.23901000 0.04861000 -0.36712000
v 0.23901000 -0.05399000 -0.36712000
v -0.23899000 0.04860000 0.00813000
v -0.23899000 -0.05400000 0.00813000
v -0.23899000 -0.05400000 -0.36712000
v -0.23899000 0.04860000 -0.36712000
v -0.22400000 -0.04450000 -0.00612000
v -0.22400000 -0.04450000 -0.35287000
v 0.22401000 -0.04450000 -0.35287000
v 0.22401000 -0.04450000 -0.00612000
v -0.23899000 -0.05400000 0.00813000
v 0.23901000 -0.05399000 0.00813000
v 0.23901000 -0.05399000 -0.36712000
v -0.23899000 -0.05400000 -0.36712000
v -0.22400000 0.04860000 -0.00612000
v -0.22400000 -0.04450000 -0.00612000
v 0.22401000 -0.04450000 -0.00612000
v 0.22401000 0.04861000 -0.00612000
v 0.22401000 0.04861000 -0.00612000
v 0.22401000 -0.04450000 -0.00612000
v 0.22401000 -0.04450000 -0.35287000
v 0.22401000 0.04861000 -0.35287000
v 0.22401000 0.04861000 -0.35287000
v 0.22401000 -0.04450000 -0.35287000
v -0.22400000 -0.04450000 -0.35287000
v -0.22400000 0.04860000 -0.35287000
v -0.22400000 0.04860000 -0.35287000
v -0.22400000 -0.04450000 -0.35287000
v -0.22400000 -0.04450000 -0.00612000
v -0.22400000 0.04860000 -0.00612000
v 0.23901000 0.04861000 -0.36712000
v 0.22401000 0.04861000 -0.35287000
v -0.22400000 0.04860000 -0.35287000
v -0.23899000 0.04860000 -0.36712000
v 0.23901000 0.04861000 0.00813000
v -0.22400000 0.04860000 -0.00612000
v 0.22401000 0.04861000 -0.00612000
v -0.23899000 0.04860000 0.00813000
vn -0.70715120 0.00000000 0.70706240
vn -0.70714900 0.00000000 0.70706440
vn -0.70722180 0.00000000 0.70699180
vn -0.70722260 0.00000000 0.70699090
vn 0.00000000 0.00000000 -1.00000000
vn 0.00000000 0.00000000 -1.00000000
vn 0.00000000 0.00000000 -1.00000000
vn 0.00000000 0.00000000 -1.00000000
vn -1.00000000 0.00000000 0.00000000
vn -1.00000000 0.00000000 0.00000000
vn -1.00000000 0.00000000 0.00000000
vn -1.00000000 0.00000000 0.00000000
vn -0.00000016 1.00000000 0.00000000
vn -0.00000016 1.00000000 0.00000000
vn -0.00000016 1.00000000 0.00000000
vn -0.00000016 1.00000000 0.00000000
vn 1.00000000 0.00000000 0.00000000
vn 1.00000000 0.00000000 0.00000000
vn 1.00000000 0.00000000 0.00000000
vn 1.00000000 0.00000000 0.00000000
vn 0.00000000 -1.00000000 0.00000000
vn 0.00000000 -1.00000000 0.00000000
vn 0.00000000 -1.00000000 0.00000000
vn 0.00000000 -1.00000000 0.00000000
vn 0.00000000 0.00000000 1.00000000
vn 0.00000000 0.00000000 1.00000000
vn 0.00000000 0.00000000 1.00000000
vn 0.00000000 0.00000000 1.00000000
vn 0.00000000 -0.70715050 0.70706300
vn 0.00000000 -0.70715080 0.70706270
vn 0.00000000 -0.70712490 0.70708860
vn 0.00000000 -0.70712490 0.70708860
vn 0.70719550 0.00000000 0.70701810
vn 0.70719930 0.00000000 0.70701430
vn 0.70706670 0.00000000 0.70714690
vn 0.70706500 0.00000000 0.70714840
vn 0.00000056 0.70716300 0.70705050
vn 0.00000057 0.70716330 0.70705010
vn -0.00000056 0.70710690 0.70710660
vn -0.00000056 0.70710680 0.70710680
vn 0.00000000 0.00000000 -1.00000000
vn 0.00000000 0.00000000 -1.00000000
vn 0.00000000 0.00000000 -1.00000000
vn 0.00000000 0.00000000 -1.00000000
vn 1.00000000 0.00000000 0.00000000
vn 1.00000000 0.00000000 0.00000000
vn 1.00000000 0.00000000 0.00000000
vn 1.00000000 0.00000000 0.00000000
vn -1.00000000 0.00000000 0.00000000
vn -1.00000000 0.00000000 0.00000000
vn -1.00000000 0.00000000 0.00000000
vn -1.00000000 0.00000000 0.00000000
vn 0.00000000 1.00000000 0.00000000
vn 0.00000000 1.00000000 0.00000000
vn 0.00000000 1.00000000 0.00000000
vn 0.00000000 1.00000000 0.00000000
vn 0.00000000 -1.00000000 0.00000000
vn 0.00000000 -1.00000000 0.00000000
vn 0.00000000 -1.00000000 0.00000000
vn 0.00000000 -1.00000000 0.00000000
vn 0.00000000 0.00000000 -1.00000000
vn 0.00000000 0.00000000 -1.00000000
vn 0.00000000 0.00000000 -1.00000000
vn 0.00000000 0.00000000 -1.00000000
vn -1.00000000 0.00000000 0.00000000
vn -1.00000000 0.00000000 0.00000000
vn -1.00000000 0.00000000 0.00000000
vn -1.00000000 0.00000000 0.00000000
vn 0.00000000 0.00000000 1.00000000
vn 0.00000000 0.00000000 1.00000000
vn 0.00000000 0.00000000 1.00000000
vn 0.00000000 0.00000000 1.00000000
vn 1.00000000 0.00000000 0.00000000
vn 1.00000000 0.00000000 0.00000000
vn 1.00000000 0.00000000 0.00000000
vn 1.00000000 0.00000000 0.00000000
vn 0.00000000 1.00000000 -0.00000319
vn 0.00000000 1.00000000 -0.00000347
vn 0.00000000 1.00000000 0.00000000
vn 0.00000000 1.00000000 0.00000000
vn 0.00000000 1.00000000 0.00000000
vn 0.00000000 1.00000000 0.00000257
vn 0.00000000 1.00000000 0.00000000
vn 0.00000000 1.00000000 0.00000236
vt 0.35118840 -0.27959380
vt 0.35322510 -0.27755710
vt 0.46117000 -0.27755710
vt 0.46320660 -0.27959370
vt 0.53957470 -0.19417040
vt 1.01957500 -0.19417040
vt 1.01957500 -0.30417040
vt 0.53957470 -0.30417030
vt 0.46320660 -0.27959370
vt 0.46320660 -0.29996080
vt 0.35118840 -0.29996080
vt 0.35118840 -0.27959380
vt 0.53511550 -0.19248790
vt 0.53511550 -0.17211620
vt 1.02403400 -0.17211610
vt 1.02403400 -0.19248780
vt 0.45415110 -0.29783090
vt 0.45415110 -0.27746380
vt 0.56616960 -0.27746380
vt 0.56616960 -0.29783090
vt 1.02403500 -0.14686790
vt 1.02403500 -0.16723960
vt 0.53511540 -0.16723960
vt 0.53511540 -0.14686790
vt 0.10930730 0.59667370
vt 0.10930730 0.70267360
vt 0.58530770 0.70267370
vt 0.58530770 0.59667370
vt 0.53511540 -0.14686790
vt 0.53715240 -0.14483080
vt 1.02199700 -0.14483080
vt 1.02403500 -0.14686790
vt 0.56616960 -0.29783090
vt 0.56413290 -0.29986750
vt 0.45618770 -0.29986750
vt 0.45415110 -0.29783090
vt 1.02403400 -0.19248780
vt 1.02199700 -0.19452490
vt 0.53715250 -0.19452500
vt 0.53511550 -0.19248790
vt 0.54147430 0.64873870
vt 1.01947500 0.64873860
vt 1.01947500 0.54613860
vt 0.54147430 0.54613880
vt 0.20500670 0.00047375
vt 0.20500670 0.10307370
vt 0.58025670 0.10307370
vt 0.58025670 0.00047380
vt 0.58025660 0.00462531
vt 0.58025660 -0.09797461
vt 0.20500670 -0.09797470
vt 0.20500670 0.00462531
vt 0.13590380 0.26648530
vt 0.13590390 0.61323490
vt 0.58390400 0.61323480
vt 0.58390400 0.26648530
vt 0.54147460 0.56275620
vt 1.01947500 0.56275640
vt 1.01947500 0.18750620
vt 0.54147460 0.18750610
vt 0.13590350 0.18929970
vt 0.13590350 0.28239970
vt 0.58390380 0.28239980
vt 0.58390380 0.18929970
vt 0.57702880 -0.09429932
vt 0.57702880 -0.18739930
vt 0.23027920 -0.18739940
vt 0.23027910 -0.09429935
vt 0.58390380 0.19249870
vt 0.58390380 0.09939854
vt 0.13590340 0.09939848
vt 0.13590340 0.19249850
vt 0.57702850 -0.18420030
vt 0.57702850 -0.27730030
vt 0.23027910 -0.27730030
vt 0.23027910 -0.18420030
vt 1.01947400 0.21779120
vt 1.00447400 0.20354070
vt 0.55647520 0.20354070
vt 0.54147490 0.21779120
vt 1.01947400 -0.15745800
vt 0.55647500 -0.14320800
vt 1.00447400 -0.14320800
vt 0.54147490 -0.15745800
f 3/3/3 2/2/2 1/1/1
f 4/4/4 3/3/3 1/1/1
f 7/7/7 6/6/6 5/5/5
f 8/8/8 7/7/7 5/5/5
f 11/11/11 10/10/10 9/9/9
f 12/12/12 11/11/11 9/9/9
f 15/15/15 14/14/14 13/13/13
f 16/16/16 15/15/15 13/13/13
f 19/19/19 18/18/18 17/17/17
f 20/20/20 19/19/19 17/17/17
f 23/23/23 22/22/22 21/21/21
f 24/24/24 23/23/23 21/21/21
f 27/27/27 26/26/26 25/25/25
f 28/28/28 27/27/27 25/25/25
f 31/31/31 30/30/30 29/29/29
f 32/32/32 31/31/31 29/29/29
f 35/35/35 34/34/34 33/33/33
f 36/36/36 35/35/35 33/33/33
f 39/39/39 38/38/38 37/37/37
f 40/40/40 39/39/39 37/37/37
f 43/43/43 42/42/42 41/41/41
f 44/44/44 43/43/43 41/41/41
f 47/47/47 46/46/46 45/45/45
f 48/48/48 47/47/47 45/45/45
f 51/51/51 50/50/50 49/49/49
f 52/52/52 51/51/51 49/49/49
f 55/55/55 54/54/54 53/53/53
f 56/56/56 55/55/55 53/53/53
f 59/59/59 58/58/58 57/57/57
f 60/60/60 59/59/59 57/57/57
f 63/63/63 62/62/62 61/61/61
f 64/64/64 63/63/63 61/61/61
f 67/67/67 66/66/66 65/65/65
f 68/68/68 67/67/67 65/65/65
f 71/71/71 70/70/70 69/69/69
f 72/72/72 71/71/71 69/69/69
f 75/75/75 74/74/74 73/73/73
f 76/76/76 75/75/75 73/73/73
f 79/79/79 78/78/78 77/77/77
f 80/80/80 79/79/79 77/77/77
f 77/77/77 78/78/78 81/81/81
f 82/82/82 79/79/79 80/80/80
f 78/78/78 83/83/83 81/81/81
f 84/84/84 82/82/82 80/80/80
f 81/81/81 83/83/83 84/84/84
f 83/83/83 82/82/82 84/84/84

