# Blender 3.6.0
# www.blender.org
o StandardCounterHeightWidth_59bda8d0_StandardCounterHeightWidth_
v 2.200010 0.896050 0.421050
v 1.544550 0.900000 0.415460
v 2.200010 0.900000 0.411500
v 2.200010 0.896050 0.421050
v 1.537800 0.896050 0.422210
v 1.544550 0.900000 0.415460
v 1.538540 0.896050 0.020740
v 1.544550 0.900000 0.415460
v 1.537800 0.896050 0.422210
v 1.548510 0.900000 -1.949990
v 1.537800 0.896050 -2.177790
v 1.544550 0.900000 -2.184540
v 0.700010 0.900000 -2.188500
v 1.544550 0.900000 -2.184540
v 1.537800 0.896050 -2.177790
v 0.700010 0.900000 -2.188500
v 1.537800 0.896050 -2.177790
v 0.700000 0.896050 -2.178950
v -1.221040 0.896050 -2.799990
v -1.211490 0.900000 -2.799990
v -1.215450 0.900000 -2.184540
v -1.221040 0.896050 -2.799990
v -1.215450 0.900000 -2.184540
v -1.222200 0.896050 -2.177790
v -0.200000 0.896050 -2.178950
v -0.706460 0.900000 -2.187070
v -0.200000 0.900000 -2.188500
v -0.710730 0.896050 -2.178530
v -1.215450 0.900000 -2.184540
v -0.200000 0.896050 -2.178950
v -0.706460 0.900000 -2.187070
v -0.710730 0.896050 -2.178530
v -1.222200 0.896050 -2.177790
v -1.215450 0.900000 -2.184540
v -1.225000 0.886510 -2.799990
v -1.221040 0.896050 -2.799990
v -1.222200 0.896050 -2.177790
v -1.225000 0.886510 -2.799990
v -1.222200 0.896050 -2.177790
v -1.225000 0.886500 -2.175000
v 1.535000 0.886500 0.425010
v 1.537800 0.896050 0.422210
v 2.200010 0.896050 0.421050
v 1.535000 0.886500 0.425010
v 2.200010 0.896050 0.421050
v 2.200010 0.886510 0.425010
v 1.537800 0.896050 -2.177790
v 1.535000 0.886500 -2.175000
v 0.700000 0.886510 -2.175000
v 1.537800 0.896050 -2.177790
v 0.700000 0.886510 -2.175000
v 0.700000 0.896050 -2.178950
v -1.225000 0.886500 -2.175000
v -1.222200 0.896050 -2.177790
v -0.710730 0.896050 -2.178530
v 1.538960 0.896050 -1.949990
v 1.535000 0.886500 -2.175000
v 1.537800 0.896050 -2.177790
v 1.535000 0.886500 0.022510
v 1.537800 0.896050 0.422210
v 1.535000 0.886500 0.425010
v 1.544550 0.900000 0.415460
v 2.200010 0.900000 0.400000
v 2.200010 0.900000 0.411500
v 1.560000 0.900000 0.400000
v 1.560000 0.900000 0.010000
v 1.547080 0.900000 0.016470
v 2.200010 0.900000 0.010000
v 1.560000 0.900000 -0.379990
v 1.548510 0.900000 -0.379990
v 2.200010 0.900000 -0.379990
v 1.548510 0.900000 -1.049990
v 1.560000 0.900000 -1.049990
v 2.200010 0.900000 -1.049990
v 1.560000 0.900000 -1.949990
v 1.548510 0.900000 -1.949990
v 1.560000 0.900000 -2.200000
v 1.544550 0.900000 -2.184540
v 0.700010 0.900000 -2.188500
v 0.700010 0.900000 -2.200000
v 0.700000 0.900000 -2.799990
v 1.560000 0.900000 -2.799990
v 2.200010 0.900000 -2.799990
v 2.200010 0.900000 -2.200000
v 2.200010 0.900000 -1.949990
v 2.156400 0.899510 -1.093590
v 1.652250 0.899510 -1.093590
v 2.156400 0.899510 -1.906390
v 1.652250 0.899510 -1.906390
v 1.538540 0.896050 0.020740
v 1.547080 0.900000 0.016470
v 1.544550 0.900000 0.415460
v 1.538960 0.896050 -0.379990
v 1.548510 0.900000 -0.379990
v 1.538960 0.896050 -1.049990
v 1.548510 0.900000 -1.049990
v 1.538960 0.896050 -1.949990
v 1.548510 0.900000 -1.949990
v 1.537800 0.896050 -2.177790
v 1.560000 0.880000 -2.799990
v 2.200010 0.880000 -2.799990
v 2.200010 0.900000 -2.799990
v 1.560000 0.900000 -2.799990
v 0.700000 0.900000 -2.799990
v 0.700010 0.880000 -2.799990
v -0.200000 0.896050 -2.178950
v -0.200000 0.900000 -2.188500
v -0.200000 0.900000 -2.200000
v -0.200000 0.886510 -2.175000
v -0.200000 0.880000 -2.175000
v -0.200000 0.880000 -2.200000
v -0.200000 0.880000 -2.799990
v -0.200000 0.900000 -2.799990
v 2.200010 0.880000 -2.200000
v 2.200010 0.900000 -2.799990
v 2.200010 0.880000 -2.799990
v 2.200010 0.900000 -2.200000
v 2.200010 0.900000 -1.949990
v 2.200010 0.880000 -1.949990
v 2.200010 0.880000 -1.049990
v 2.200010 0.900000 -1.049990
v 2.200010 0.900000 -0.379990
v 2.200010 0.880000 -0.379990
v 2.200010 0.880000 0.010000
v 2.200010 0.900000 0.010000
v 2.200010 0.880000 0.400000
v 2.200010 0.900000 0.400000
v 2.200010 0.880000 0.425010
v 2.200010 0.886510 0.425010
v 2.200010 0.896050 0.421050
v 2.200010 0.900000 0.411500
v 0.700000 0.886510 -2.175000
v 0.700000 0.880000 -2.175000
v 0.700010 0.880000 -2.200000
v 0.700010 0.900000 -2.200000
v 0.700000 0.896050 -2.178950
v 0.700010 0.900000 -2.188500
v 0.700000 0.900000 -2.799990
v 0.700010 0.880000 -2.799990
v 1.535000 0.880000 0.425010
v 1.535000 0.886500 0.022510
v 1.535000 0.886500 0.425010
v 1.535000 0.880000 0.022510
v 1.535000 0.886500 -0.379990
v 1.535000 0.880000 -0.379990
v 1.535000 0.886500 -1.049990
v 1.535000 0.880000 -1.049990
v 1.535000 0.880000 -1.949990
v 1.535000 0.886500 -1.949990
v 1.535000 0.886500 -2.175000
v 1.535000 0.880000 -2.175000
v -1.199990 0.880000 -2.250000
v -1.199990 0.880000 -2.799990
v -1.225000 0.880000 -2.799990
v -1.225000 0.880000 -2.175000
v -1.199990 0.880000 -2.200000
v -0.712490 0.880000 -2.175000
v -0.699990 0.880000 -2.200000
v -0.200000 0.880000 -2.175000
v -0.200000 0.880000 -2.200000
v 2.200010 0.880000 0.425010
v 2.200010 0.880000 0.400000
v 1.610000 0.880000 0.400000
v 1.560000 0.880000 0.400000
v 1.535000 0.880000 0.425010
v 1.560000 0.880000 0.010000
v 1.535000 0.880000 0.022510
v 1.560000 0.880000 -0.379990
v 1.535000 0.880000 -0.379990
v 1.560000 0.880000 -1.049990
v 1.535000 0.880000 -1.049990
v 1.535000 0.880000 -1.949990
v 1.560000 0.880000 -1.949990
v 1.560000 0.880000 -2.200000
v 1.535000 0.880000 -2.175000
v 0.700010 0.880000 -2.200000
v 0.700000 0.880000 -2.175000
v -0.706460 0.900000 -2.187070
v -0.200000 0.900000 -2.200000
v -0.200000 0.900000 -2.188500
v -0.699990 0.900000 -2.200000
v -0.200000 0.900000 -2.799990
v -0.699990 0.900000 -2.799990
v -1.215450 0.900000 -2.184540
v -1.199990 0.900000 -2.200000
v -1.199990 0.900000 -2.799990
v -1.211490 0.900000 -2.799990
v -0.200000 0.880000 -2.799990
v -0.200000 0.900000 -2.799990
v -0.699990 0.900000 -2.799990
v -0.699990 0.880000 -2.799990
v -1.199990 0.900000 -2.799990
v -1.199990 0.880000 -2.799990
v -1.225000 0.880000 -2.799990
v -1.211490 0.900000 -2.799990
v -1.221040 0.896050 -2.799990
v -1.225000 0.886510 -2.799990
v -1.225000 0.886500 -2.175000
v -0.712490 0.880000 -2.175000
v -1.225000 0.880000 -2.175000
v -0.712490 0.886500 -2.175000
v -0.200000 0.880000 -2.175000
v -0.200000 0.886510 -2.175000
v 0.700000 0.880000 -2.175000
v 0.700000 0.886510 -2.175000
v 1.535000 0.886500 -2.175000
v 1.535000 0.880000 -2.175000
v 2.200010 0.886510 0.425010
v 2.200010 0.880000 0.425010
v 1.535000 0.880000 0.425010
v 1.535000 0.886500 0.425010
v -1.225000 0.886500 -2.175000
v -1.225000 0.880000 -2.175000
v -1.225000 0.880000 -2.799990
v -1.225000 0.886510 -2.799990
v -0.712490 0.886500 -2.175000
v -0.200000 0.896050 -2.178950
v -0.200000 0.886510 -2.175000
v -0.710730 0.896050 -2.178530
v -1.225000 0.886500 -2.175000
v 1.538960 0.896050 -1.949990
v 1.535000 0.886500 -1.949990
v 1.535000 0.886500 -2.175000
v 1.538960 0.896050 -1.049990
v 1.535000 0.886500 -1.049990
v 1.538960 0.896050 -0.379990
v 1.535000 0.886500 -0.379990
v 1.538540 0.896050 0.020740
v 1.535000 0.886500 0.022510
v 1.537800 0.896050 0.422210
vn 0.0023 0.9241 0.3822
vn 0.0009 0.8627 0.5057
vn -0.5058 0.8627 -0.0009
vn -0.4988 0.8667 0.0084
vn -0.0024 0.8641 0.5033
vn -0.0005 0.9241 0.3822
vn -0.3822 0.9241 -0.0025
vn 0.0011 0.9241 0.3822
vn 0.0021 0.9075 0.4200
vn 0.0021 0.9072 0.4207
vn 0.0015 0.9073 0.4204
vn 0.0003 0.9075 0.4199
vn 0.0007 0.8628 0.5056
vn -0.9236 0.3834 -0.0017
vn -0.9596 0.2814 -0.0000
vn 0.0017 0.2809 0.9597
vn -0.0000 0.3834 0.9236
vn -0.0000 0.2804 0.9599
vn -0.0013 0.3826 0.9239
vn 0.0014 0.2800 0.9600
vn -0.9592 0.2826 0.0049
vn -0.0000 1.0000 -0.0000
vn 0.0010 1.0000 -0.0008
vn -0.0028 1.0000 -0.0028
vn 0.0010 1.0000 0.0008
vn -0.0028 1.0000 0.0028
vn -0.0056 1.0000 -0.0056
vn 0.0023 1.0000 -0.0064
vn -0.0056 1.0000 0.0056
vn 0.0023 1.0000 0.0064
vn -0.4209 0.9071 -0.0027
vn -0.4200 0.9075 -0.0013
vn -0.4206 0.9073 -0.0019
vn -0.3825 0.9240 -0.0007
vn -0.3822 0.9241 -0.0007
vn -0.3822 0.9241 -0.0000
vn -0.3822 0.9241 0.0010
vn -0.3822 0.9241 0.0019
vn -0.0000 -0.0000 -1.0000
vn 1.0000 -0.0000 -0.0000
vn 1.0000 -0.0001 -0.0000
vn -1.0000 -0.0000 -0.0002
vn -1.0000 -0.0000 -0.0004
vn -1.0000 -0.0001 -0.0004
vn -1.0000 0.0001 -0.0002
vn -1.0000 -0.0000 -0.0005
vn -1.0000 0.0025 -0.0000
vn -1.0000 -0.0005 -0.0000
vn -1.0000 -0.0000 -0.0000
vn -0.0000 -1.0000 -0.0000
vn -0.0000 -1.0000 -0.0001
vn -0.0000 -0.0000 1.0000
vn -0.0000 0.3826 0.9239
vn -0.0000 0.3821 0.9241
vn 0.0003 0.3469 0.9379
vn 0.0004 0.3466 0.9380
vn -0.0000 0.3467 0.9380
vn -0.9237 0.3830 -0.0000
vn -0.9237 0.3830 -0.0005
vn -0.9239 0.3827 -0.0005
vn -0.9376 0.3477 -0.0008
vn -0.9377 0.3474 -0.0010
vn -0.9378 0.3473 -0.0017
vt 1.001410 -1.362762
vt 0.345465 -1.366719
vt 1.001410 -1.372315
vt 0.338710 -1.373474
vt 0.766081 -1.144974
vt 0.770156 -1.138018
vt 0.766081 -0.731240
vt 0.345465 1.235226
vt 0.338710 1.228471
vt 0.349422 1.000504
vt -0.499713 1.239185
vt -0.499713 1.229633
vt 0.264139 0.975563
vt 0.880157 0.971605
vt 0.880157 0.981160
vt 0.538228 0.383716
vt 0.542449 0.390921
vt 0.538228 1.047932
vt 0.268098 -0.040822
vt 0.266671 0.466105
vt 0.258557 -0.040822
vt 0.258124 0.470378
vt 0.257383 0.982319
vt 0.528037 1.047932
vt 0.528037 0.380731
vt 0.735931 0.375335
vt 0.735931 1.049656
vt 0.726210 1.052503
vt 0.726210 0.375335
vt 0.518284 1.038080
vt 0.518288 0.187755
vt 0.528009 0.184907
vt 0.528006 1.038080
vt 0.630007 0.465476
vt 0.630007 0.986632
vt 0.620280 0.989480
vt 0.766081 1.534439
vt 0.756243 1.531558
vt 0.766081 1.299685
vt 0.756243 -1.147856
vt 0.756243 -0.733062
vt 1.001410 -1.351254
vt 0.360931 -1.351254
vt 0.360931 -0.960962
vt 0.347996 -0.967429
vt 1.001410 -0.960962
vt 0.360931 -0.570670
vt 0.349422 -0.570670
vt 1.001410 -0.570670
vt 0.349422 0.099831
vt 0.360931 0.099831
vt 1.001410 0.099831
vt 0.360931 1.000504
vt 0.360931 1.250691
vt -0.499713 1.250692
vt -0.499713 1.851141
vt 0.360931 1.851140
vt 1.001410 1.851140
vt 1.001410 1.250691
vt 1.001410 1.000504
vt 0.957777 0.143464
vt 0.453246 0.143464
vt 0.957777 0.956872
vt 0.453246 0.956872
vt 0.339451 -0.971702
vt 0.339869 -0.570670
vt 0.339869 0.099831
vt 0.339869 1.000504
vt 0.481837 -0.251475
vt 0.501836 -0.251475
vt 0.501836 0.388525
vt 0.481837 0.388525
vt 0.481838 1.248526
vt 0.501837 1.248527
vt -0.239555 1.134117
vt -0.251052 1.134102
vt -0.260599 1.130159
vt -0.264555 1.120620
vt -0.264555 1.114121
vt -0.239555 1.114120
vt 0.360444 1.114120
vt 0.360444 1.134119
vt 0.498163 -1.373461
vt 0.518163 -1.373461
vt 0.498163 -0.773462
vt 0.518163 -0.773462
vt 0.518163 -0.523461
vt 0.498163 -0.523461
vt 0.498163 0.376539
vt 0.518163 0.376539
vt 0.518163 1.046538
vt 0.498163 1.046538
vt 0.498163 1.436538
vt 0.518163 1.436538
vt 0.498163 1.826539
vt 0.518163 1.826539
vt 0.498163 1.851539
vt 0.504663 1.851539
vt 0.514209 1.847584
vt 0.518163 1.838038
vt 0.435036 1.118235
vt 0.460034 1.118244
vt 0.460035 1.124738
vt 0.435035 1.138231
vt 0.456079 1.134273
vt 0.446532 1.138219
vt -0.164964 1.138236
vt -0.164964 1.118238
vt 0.749545 -1.147856
vt 0.749545 -0.733062
vt 0.756243 -0.318268
vt 0.749545 -0.318268
vt 0.756243 0.372196
vt 0.749545 0.372196
vt 0.749545 1.299685
vt 0.756243 1.299685
vt 0.749545 1.531558
vt 0.501079 0.976098
vt 0.501079 0.951098
vt 1.051076 0.951098
vt 1.126075 0.976098
vt 1.101075 0.951098
vt 1.126075 0.463601
vt 1.101075 0.451102
vt 1.126076 -0.048895
vt 1.101077 -0.048895
vt 0.800639 1.482432
vt 1.390643 1.482432
vt 1.390643 1.507432
vt 0.750639 1.482432
vt 0.725640 1.507432
vt 0.750639 1.092430
vt 0.725640 1.104930
vt 0.750639 0.702427
vt 0.725640 0.702427
vt 0.750639 0.032424
vt 0.725640 0.032424
vt 0.725640 -0.867582
vt 0.750639 -0.867582
vt 0.750639 -1.117583
vt 0.725640 -1.092583
vt -0.109366 -1.117583
vt -0.109366 -1.092585
vt 0.279608 -0.040822
vt 0.279607 0.459636
vt 0.880157 -0.040822
vt 0.880157 0.459636
vt 0.279607 0.960094
vt 0.880157 0.960094
vt 0.245318 0.454777
vt 0.245320 -0.045222
vt 0.265319 -0.045222
vt 0.265318 0.454777
vt 0.245318 0.954777
vt 0.265318 0.954777
vt 0.265318 0.979778
vt 0.245318 0.966277
vt 0.249272 0.975824
vt 0.258818 0.979778
vt 0.613657 0.989481
vt 0.613657 0.467278
vt 0.620280 0.467278
vt 0.613657 -0.054925
vt 0.620277 -0.054925
vt 0.511669 1.038080
vt 0.511669 0.187755
vt 0.719591 1.052503
vt 0.719591 0.375335
vt 0.521099 1.047932
vt 0.521099 0.380731
vt 0.630021 -0.054925
vt 0.766081 0.372196
vt 0.766081 -0.318268
s 1
f 3/1/1 2/2/1 1/3/1
f 6/2/2 5/4/2 4/3/2
f 9/5/3 8/6/3 7/7/3
f 12/8/4 11/9/4 10/10/4
f 15/9/5 14/8/5 13/11/5
f 18/12/6 17/9/6 16/11/6
f 21/13/7 20/14/7 19/15/7
f 24/16/3 23/17/3 22/18/3
f 27/19/8 26/20/9 25/21/8
f 26/20/9 29/13/10 28/22/11
f 31/20/12 28/22/11 30/21/12
f 34/13/13 33/23/13 32/22/13
f 37/16/14 36/18/14 35/24/14
f 40/25/15 39/16/15 38/24/15
f 43/26/16 42/27/16 41/28/16
f 46/29/17 45/26/17 44/28/17
f 49/30/18 48/31/18 47/32/18
f 52/33/19 51/30/19 50/32/19
f 55/34/20 54/35/20 53/36/20
f 58/37/21 57/38/21 56/39/21
f 61/40/15 60/5/15 59/41/15
f 64/1/22 63/42/22 62/2/22
f 63/42/22 65/43/22 62/2/22
f 65/43/22 66/44/22 62/2/22
f 65/43/22 63/42/22 66/44/22
f 66/44/22 67/45/22 62/2/22
f 63/42/22 68/46/22 66/44/22
f 66/44/22 69/47/22 67/45/22
f 66/44/22 68/46/22 69/47/22
f 69/47/22 70/48/22 67/45/22
f 68/46/22 71/49/22 69/47/22
f 70/48/22 69/47/22 72/50/22
f 69/47/22 71/49/22 73/51/23
f 69/47/22 73/51/23 72/50/22
f 71/49/22 74/52/24 73/51/23
f 72/50/22 73/51/23 75/53/25
f 76/10/22 72/50/22 75/53/25
f 76/10/22 75/53/25 77/54/22
f 78/8/22 76/10/22 77/54/22
f 79/11/22 78/8/22 77/54/22
f 80/55/22 79/11/22 77/54/22
f 80/55/22 77/54/22 81/56/22
f 77/54/22 82/57/22 81/56/22
f 83/58/22 82/57/22 77/54/22
f 84/59/22 83/58/22 77/54/22
f 84/59/22 77/54/22 85/60/26
f 77/54/22 75/53/25 85/60/26
f 74/52/24 86/61/27 73/51/23
f 86/61/27 87/62/28 73/51/23
f 73/51/23 87/62/28 75/53/25
f 88/63/29 86/61/27 74/52/24
f 85/60/26 88/63/29 74/52/24
f 87/62/28 89/64/30 75/53/25
f 89/64/30 88/63/29 85/60/26
f 75/53/25 89/64/30 85/60/26
f 92/2/31 91/45/32 90/65/33
f 90/65/33 91/45/32 93/66/34
f 91/45/32 94/48/35 93/66/34
f 93/66/34 94/48/35 95/67/36
f 94/48/35 96/50/36 95/67/36
f 95/67/36 96/50/36 97/68/37
f 96/50/36 98/10/37 97/68/37
f 99/9/38 97/68/37 98/10/37
f 102/69/39 101/70/39 100/71/39
f 103/72/39 102/69/39 100/71/39
f 103/72/39 100/71/39 104/73/39
f 100/71/39 105/74/39 104/73/39
f 108/75/40 107/76/40 106/77/40
f 108/75/40 106/77/40 109/78/40
f 108/75/40 109/78/40 110/79/40
f 110/79/40 111/80/40 108/75/40
f 108/75/40 111/80/40 112/81/40
f 113/82/40 108/75/40 112/81/40
f 116/83/40 115/84/40 114/85/40
f 115/84/40 117/86/40 114/85/40
f 114/85/40 117/86/40 118/87/40
f 119/88/40 114/85/40 118/87/40
f 119/88/40 118/87/40 120/89/40
f 118/87/40 121/90/40 120/89/40
f 121/90/40 122/91/40 120/89/40
f 122/91/40 123/92/40 120/89/40
f 124/93/40 123/92/40 122/91/40
f 125/94/40 124/93/40 122/91/40
f 126/95/40 124/93/40 125/94/40
f 127/96/40 126/95/40 125/94/40
f 128/97/40 126/95/40 127/96/40
f 127/96/40 129/98/40 128/97/40
f 127/96/40 130/99/40 129/98/40
f 127/96/40 131/100/41 130/99/40
f 134/101/42 133/102/43 132/103/44
f 132/103/44 135/104/45 134/101/42
f 132/103/44 136/105/46 135/104/45
f 136/105/46 137/106/47 135/104/45
f 135/104/45 138/107/48 134/101/42
f 138/107/48 139/108/48 134/101/42
f 142/40/49 141/41/49 140/109/49
f 141/41/49 143/110/49 140/109/49
f 141/41/49 144/111/49 143/110/49
f 144/111/49 145/112/49 143/110/49
f 144/111/49 146/113/49 145/112/49
f 146/113/49 147/114/49 145/112/49
f 148/115/49 147/114/49 146/113/49
f 149/116/49 148/115/49 146/113/49
f 148/115/49 149/116/49 150/38/49
f 151/117/49 148/115/49 150/38/49
f 154/118/50 153/119/50 152/120/50
f 152/120/50 155/121/50 154/118/50
f 152/120/50 156/122/50 155/121/50
f 155/121/50 156/122/50 157/123/50
f 156/122/50 158/124/50 157/123/50
f 157/123/50 158/124/50 159/125/50
f 158/124/50 160/126/50 159/125/50
f 163/127/51 162/128/50 161/129/50
f 161/129/50 164/130/50 163/127/51
f 161/129/50 165/131/50 164/130/50
f 166/132/50 164/130/50 165/131/50
f 167/133/50 166/132/50 165/131/50
f 168/134/50 166/132/50 167/133/50
f 169/135/50 168/134/50 167/133/50
f 168/134/50 169/135/50 170/136/50
f 169/135/50 171/137/50 170/136/50
f 171/137/50 172/138/50 170/136/50
f 172/138/50 173/139/50 170/136/50
f 173/139/50 172/138/50 174/140/50
f 172/138/50 175/141/50 174/140/50
f 174/140/50 175/141/50 176/142/50
f 175/141/50 177/143/50 176/142/50
f 180/19/22 179/144/22 178/20/22
f 179/144/22 181/145/22 178/20/22
f 181/145/22 179/144/22 182/146/22
f 183/147/22 181/145/22 182/146/22
f 178/20/22 181/145/22 184/13/22
f 185/148/22 181/145/22 183/147/22
f 181/145/22 185/148/22 184/13/22
f 186/149/22 185/148/22 183/147/22
f 185/148/22 186/149/22 184/13/22
f 186/149/22 187/14/22 184/13/22
f 190/150/39 189/151/39 188/152/39
f 191/153/39 190/150/39 188/152/39
f 192/154/39 190/150/39 191/153/39
f 193/155/39 192/154/39 191/153/39
f 192/154/39 193/155/39 194/156/39
f 194/156/39 195/157/39 192/154/39
f 194/156/39 196/158/39 195/157/39
f 194/156/39 197/159/39 196/158/39
f 200/160/52 199/161/52 198/36/52
f 199/161/52 201/162/52 198/36/52
f 199/161/52 202/163/52 201/162/52
f 202/163/52 203/164/52 201/162/52
f 206/31/52 205/30/52 204/165/52
f 207/166/52 206/31/52 204/165/52
f 210/167/52 209/168/52 208/29/52
f 211/28/52 210/167/52 208/29/52
f 214/169/49 213/170/49 212/25/49
f 215/24/49 214/169/49 212/25/49
f 218/164/53 217/171/54 216/162/55
f 217/171/54 219/34/56 216/162/55
f 216/162/55 219/34/56 220/36/57
f 223/38/58 222/116/58 221/39/58
f 224/172/58 221/39/58 222/116/58
f 225/113/58 224/172/58 222/116/58
f 226/173/59 224/172/58 225/113/58
f 227/111/60 226/173/59 225/113/58
f 228/7/61 226/173/59 227/111/60
f 229/41/62 228/7/61 227/111/60
f 230/5/63 228/7/61 229/41/62
f 3/1/1 2/2/1 1/3/1
f 6/2/2 5/4/2 4/3/2
f 9/5/3 8/6/3 7/7/3
f 12/8/4 11/9/4 10/10/4
f 15/9/5 14/8/5 13/11/5
f 18/12/6 17/9/6 16/11/6
f 21/13/7 20/14/7 19/15/7
f 24/16/3 23/17/3 22/18/3
f 27/19/8 26/20/9 25/21/8
f 26/20/9 29/13/10 28/22/11
f 31/20/12 28/22/11 30/21/12
f 34/13/13 33/23/13 32/22/13
f 37/16/14 36/18/14 35/24/14
f 40/25/15 39/16/15 38/24/15
f 43/26/16 42/27/16 41/28/16
f 46/29/17 45/26/17 44/28/17
f 49/30/18 48/31/18 47/32/18
f 52/33/19 51/30/19 50/32/19
f 55/34/20 54/35/20 53/36/20
f 58/37/21 57/38/21 56/39/21
f 61/40/15 60/5/15 59/41/15
f 64/1/22 63/42/22 62/2/22
f 63/42/22 65/43/22 62/2/22
f 65/43/22 66/44/22 62/2/22
f 65/43/22 63/42/22 66/44/22
f 66/44/22 67/45/22 62/2/22
f 63/42/22 68/46/22 66/44/22
f 66/44/22 69/47/22 67/45/22
f 66/44/22 68/46/22 69/47/22
f 69/47/22 70/48/22 67/45/22
f 68/46/22 71/49/22 69/47/22
f 70/48/22 69/47/22 72/50/22
f 69/47/22 71/49/22 73/51/23
f 69/47/22 73/51/23 72/50/22
f 71/49/22 74/52/24 73/51/23
f 72/50/22 73/51/23 75/53/25
f 76/10/22 72/50/22 75/53/25
f 76/10/22 75/53/25 77/54/22
f 78/8/22 76/10/22 77/54/22
f 79/11/22 78/8/22 77/54/22
f 80/55/22 79/11/22 77/54/22
f 80/55/22 77/54/22 81/56/22
f 77/54/22 82/57/22 81/56/22
f 83/58/22 82/57/22 77/54/22
f 84/59/22 83/58/22 77/54/22
f 84/59/22 77/54/22 85/60/26
f 77/54/22 75/53/25 85/60/26
f 74/52/24 86/61/27 73/51/23
f 86/61/27 87/62/28 73/51/23
f 73/51/23 87/62/28 75/53/25
f 88/63/29 86/61/27 74/52/24
f 85/60/26 88/63/29 74/52/24
f 87/62/28 89/64/30 75/53/25
f 89/64/30 88/63/29 85/60/26
f 75/53/25 89/64/30 85/60/26
f 92/2/31 91/45/32 90/65/33
f 90/65/33 91/45/32 93/66/34
f 91/45/32 94/48/35 93/66/34
f 93/66/34 94/48/35 95/67/36
f 94/48/35 96/50/36 95/67/36
f 95/67/36 96/50/36 97/68/37
f 96/50/36 98/10/37 97/68/37
f 99/9/38 97/68/37 98/10/37
f 102/69/39 101/70/39 100/71/39
f 103/72/39 102/69/39 100/71/39
f 103/72/39 100/71/39 104/73/39
f 100/71/39 105/74/39 104/73/39
f 108/75/40 107/76/40 106/77/40
f 108/75/40 106/77/40 109/78/40
f 108/75/40 109/78/40 110/79/40
f 110/79/40 111/80/40 108/75/40
f 108/75/40 111/80/40 112/81/40
f 113/82/40 108/75/40 112/81/40
f 116/83/40 115/84/40 114/85/40
f 115/84/40 117/86/40 114/85/40
f 114/85/40 117/86/40 118/87/40
f 119/88/40 114/85/40 118/87/40
f 119/88/40 118/87/40 120/89/40
f 118/87/40 121/90/40 120/89/40
f 121/90/40 122/91/40 120/89/40
f 122/91/40 123/92/40 120/89/40
f 124/93/40 123/92/40 122/91/40
f 125/94/40 124/93/40 122/91/40
f 126/95/40 124/93/40 125/94/40
f 127/96/40 126/95/40 125/94/40
f 128/97/40 126/95/40 127/96/40
f 127/96/40 129/98/40 128/97/40
f 127/96/40 130/99/40 129/98/40
f 127/96/40 131/100/41 130/99/40
f 134/101/42 133/102/43 132/103/44
f 132/103/44 135/104/45 134/101/42
f 132/103/44 136/105/46 135/104/45
f 136/105/46 137/106/47 135/104/45
f 135/104/45 138/107/48 134/101/42
f 138/107/48 139/108/48 134/101/42
f 142/40/49 141/41/49 140/109/49
f 141/41/49 143/110/49 140/109/49
f 141/41/49 144/111/49 143/110/49
f 144/111/49 145/112/49 143/110/49
f 144/111/49 146/113/49 145/112/49
f 146/113/49 147/114/49 145/112/49
f 148/115/49 147/114/49 146/113/49
f 149/116/49 148/115/49 146/113/49
f 148/115/49 149/116/49 150/38/49
f 151/117/49 148/115/49 150/38/49
f 154/118/50 153/119/50 152/120/50
f 152/120/50 155/121/50 154/118/50
f 152/120/50 156/122/50 155/121/50
f 155/121/50 156/122/50 157/123/50
f 156/122/50 158/124/50 157/123/50
f 157/123/50 158/124/50 159/125/50
f 158/124/50 160/126/50 159/125/50
f 163/127/51 162/128/50 161/129/50
f 161/129/50 164/130/50 163/127/51
f 161/129/50 165/131/50 164/130/50
f 166/132/50 164/130/50 165/131/50
f 167/133/50 166/132/50 165/131/50
f 168/134/50 166/132/50 167/133/50
f 169/135/50 168/134/50 167/133/50
f 168/134/50 169/135/50 170/136/50
f 169/135/50 171/137/50 170/136/50
f 171/137/50 172/138/50 170/136/50
f 172/138/50 173/139/50 170/136/50
f 173/139/50 172/138/50 174/140/50
f 172/138/50 175/141/50 174/140/50
f 174/140/50 175/141/50 176/142/50
f 175/141/50 177/143/50 176/142/50
f 180/19/22 179/144/22 178/20/22
f 179/144/22 181/145/22 178/20/22
f 181/145/22 179/144/22 182/146/22
f 183/147/22 181/145/22 182/146/22
f 178/20/22 181/145/22 184/13/22
f 185/148/22 181/145/22 183/147/22
f 181/145/22 185/148/22 184/13/22
f 186/149/22 185/148/22 183/147/22
f 185/148/22 186/149/22 184/13/22
f 186/149/22 187/14/22 184/13/22
f 190/150/39 189/151/39 188/152/39
f 191/153/39 190/150/39 188/152/39
f 192/154/39 190/150/39 191/153/39
f 193/155/39 192/154/39 191/153/39
f 192/154/39 193/155/39 194/156/39
f 194/156/39 195/157/39 192/154/39
f 194/156/39 196/158/39 195/157/39
f 194/156/39 197/159/39 196/158/39
f 200/160/52 199/161/52 198/36/52
f 199/161/52 201/162/52 198/36/52
f 199/161/52 202/163/52 201/162/52
f 202/163/52 203/164/52 201/162/52
f 206/31/52 205/30/52 204/165/52
f 207/166/52 206/31/52 204/165/52
f 210/167/52 209/168/52 208/29/52
f 211/28/52 210/167/52 208/29/52
f 214/169/49 213/170/49 212/25/49
f 215/24/49 214/169/49 212/25/49
f 218/164/53 217/171/54 216/162/55
f 217/171/54 219/34/56 216/162/55
f 216/162/55 219/34/56 220/36/57
f 223/38/58 222/116/58 221/39/58
f 224/172/58 221/39/58 222/116/58
f 225/113/58 224/172/58 222/116/58
f 226/173/59 224/172/58 225/113/58
f 227/111/60 226/173/59 225/113/58
f 228/7/61 226/173/59 227/111/60
f 229/41/62 228/7/61 227/111/60
f 230/5/63 228/7/61 229/41/62
