# Blender 3.6.0
# www.blender.org
o StandardCounterHeightWidth_59bda8d0_StandardCounterHeightWidth_
v 1.560000 0.880000 -2.799990
v 2.200010 0.880000 -2.799990
v 0.700010 0.880000 -2.799990
v -0.200000 0.880000 -2.200000
v -0.200000 0.880000 -2.799990
v 2.200010 0.880000 -2.200000
v 2.200010 0.880000 -2.799990
v 2.200010 0.880000 -1.949990
v 2.200010 0.880000 -1.049990
v 2.200010 0.880000 -0.379990
v 2.200010 0.880000 0.010000
v 2.200010 0.880000 0.400000
v 0.700010 0.880000 -2.200000
v 0.700010 0.880000 -2.799990
v -0.200000 0.880000 -2.799990
v -0.699990 0.880000 -2.799990
v -1.199990 0.880000 -2.799990
v 1.560000 0.120690 -1.594990
v 1.560000 0.120720 -1.505000
v 1.560000 0.120690 -1.414990
v 1.560000 0.869310 -1.049990
v 1.560000 0.869300 -1.124990
v 1.560000 0.869300 -1.414990
v 1.560000 0.869310 -1.505000
v 1.560000 0.869300 -1.594990
v 1.560000 0.869300 -1.884990
v 1.560000 0.759310 0.384290
v 1.560000 0.759300 0.295010
v 1.560000 0.759300 0.115010
v 2.200010 0.100000 -2.799990
v 1.560000 -0.000000 -2.799990
v 2.200010 -0.000000 -2.799990
v 1.560000 0.100000 -2.799990
v 0.700010 -0.000000 -2.799990
v 0.700010 0.100000 -2.799990
v 2.200010 0.750000 -2.799990
v 1.560000 0.750000 -2.799990
v 0.700010 0.750000 -2.799990
v 2.200010 0.100000 -2.799990
v 2.200010 -0.000000 -2.799990
v 2.200010 -0.000000 -2.200000
v 2.200010 0.100000 -2.200000
v 2.200010 0.750000 -2.799990
v 2.200010 -0.000000 -1.949990
v 2.200010 0.750000 -2.200000
v 2.200010 0.100000 -1.949990
v 2.200010 0.750000 -1.949990
v 2.200010 0.750000 -1.049990
v 2.200010 0.100000 -1.049990
v 2.200010 -0.000000 -1.049990
v 2.200010 -0.000000 -0.379990
v 2.200010 0.100000 -0.379990
v 2.200010 0.000000 0.010000
v 2.200010 0.750000 -0.379990
v 2.200010 0.100000 0.004980
v 2.200010 0.100000 0.010000
v 2.200010 0.095790 0.010000
v 2.200010 0.000000 0.400000
v 2.200010 0.100000 0.400000
v 2.200010 0.750000 0.010000
v 2.200010 0.750000 0.400000
v -1.199990 0.100000 -2.799990
v -1.199990 -0.000000 -2.250000
v -1.199990 -0.000000 -2.799990
v -1.199990 0.100000 -2.250000
v -1.199990 0.750000 -2.799990
v -1.199990 0.750000 -2.250000
v -1.199990 0.880000 -2.250000
v -1.199990 0.880000 -2.799990
v -1.199990 0.750000 -2.200000
v -1.199990 0.100000 -2.200000
v -1.199990 0.880000 -2.200000
v 1.610000 0.000000 0.400000
v 2.200010 0.100000 0.400000
v 2.200010 0.000000 0.400000
v 1.610000 0.100000 0.400000
v 2.200010 0.750000 0.400000
v 1.610000 0.750000 0.400000
v 2.200010 0.880000 0.400000
v 1.560000 0.100000 0.400000
v 1.610000 0.880000 0.400000
v 1.560000 0.750000 0.400000
v 1.560000 0.880000 0.400000
v 0.700010 -0.000000 -2.250000
v 0.700000 0.100000 -2.250000
v 1.610010 0.100000 -2.250000
v 1.610010 -0.000000 -2.250000
v 0.700000 0.100000 -2.250000
v 0.700000 0.100000 -2.200000
v 1.560000 0.100000 -2.200000
v 1.610010 0.100000 -2.250000
v 1.610010 0.100000 -1.949990
v 1.560000 0.100000 -1.949990
v 1.560000 0.100000 -1.021150
v 1.610010 0.100000 -1.021150
v 1.608480 0.100000 -1.021150
v 1.610010 0.100000 -0.420230
v 1.607310 0.100000 -0.420230
v 1.560000 0.100000 -0.420230
v 1.560000 0.100000 0.010000
v 1.610000 0.100000 0.010000
v 1.560000 0.100000 0.400000
v 1.610000 0.100000 0.400000
v -0.699990 -0.000000 -2.799990
v -1.199990 0.100000 -2.799990
v -1.199990 -0.000000 -2.799990
v -0.699990 0.100000 -2.799990
v -0.200000 -0.000000 -2.799990
v -1.199990 0.750000 -2.799990
v -0.200000 0.100000 -2.799990
v -0.699990 0.750000 -2.799990
v -0.200000 0.750000 -2.799990
v -0.200000 0.100000 -2.250000
v -0.200000 -0.000000 -2.250000
v -0.699990 -0.000000 -2.250000
v -0.699990 0.100000 -2.250000
v -1.199990 -0.000000 -2.250000
v -1.199990 0.100000 -2.250000
v -0.200000 0.100000 -2.200000
v -0.200000 0.100000 -2.250000
v -0.699990 0.100000 -2.250000
v -0.699990 0.100000 -2.200000
v -1.199990 0.100000 -2.250000
v -1.199990 0.100000 -2.200000
v 1.610010 -0.000000 -1.949990
v 1.610010 -0.000000 -2.250000
v 1.610010 0.100000 -2.250000
v 1.610010 0.100000 -1.949990
v 1.610010 0.100000 -1.021150
v 1.610010 -0.000000 -1.021150
v 1.610010 -0.000000 -0.420230
v 1.610010 0.100000 -0.420230
v 1.610000 0.100000 0.010000
v 1.610000 0.000000 0.010000
v 1.610000 0.100000 0.400000
v 1.610000 0.000000 0.400000
v 0.700010 -0.000000 -2.250000
v 0.700010 -0.000000 -2.799990
v 0.700010 0.100000 -2.799990
v 0.700000 0.100000 -2.250000
v 0.700010 0.750000 -2.200000
v 0.700000 0.100000 -2.200000
v 0.700010 0.750000 -2.799990
v -0.200000 0.100000 -2.250000
v -0.200000 -0.000000 -2.799990
v -0.200000 -0.000000 -2.250000
v -0.200000 0.100000 -2.799990
v -0.200000 0.750000 -2.799990
v -0.200000 0.100000 -2.200000
v -0.200000 0.750000 -2.200000
v 1.195700 0.869320 -2.200000
v 1.184300 0.869320 -2.200000
v 0.700010 0.880000 -2.200000
v 1.285010 0.869310 -2.200000
v 1.405020 0.869310 -2.200000
v 1.494300 0.869320 -2.200000
v 1.560000 0.880000 -2.200000
v 1.560000 0.750000 -2.200000
v 1.494330 0.780000 -2.200000
v 1.494330 0.750000 -2.200000
v 1.560000 0.100000 -2.200000
v 1.494330 0.210000 -2.200000
v 1.494300 0.120710 -2.200000
v 0.700000 0.100000 -2.200000
v 1.405020 0.120680 -2.200000
v 1.285020 0.120680 -2.200000
v 1.195700 0.120710 -2.200000
v 1.184300 0.120710 -2.200000
v 1.095010 0.869310 -2.200000
v 0.805010 0.869310 -2.200000
v 0.715700 0.869320 -2.200000
v 0.715690 0.780010 -2.200000
v 0.715690 0.750000 -2.200000
v 0.700010 0.750000 -2.200000
v 0.715690 0.210000 -2.200000
v 0.715700 0.120710 -2.200000
v 0.805010 0.120680 -2.200000
v 1.095010 0.120680 -2.200000
v -1.188990 0.631000 -2.200000
v -0.711000 0.631000 -2.200000
v -0.711000 0.609010 -2.200000
v -1.188990 0.609010 -2.200000
v -1.199990 0.750000 -2.200000
v -1.188990 0.739000 -2.200000
v -1.188990 0.461010 -2.200000
v -0.711000 0.739010 -2.200000
v -0.699990 0.750000 -2.200000
v -1.188990 0.439000 -2.200000
v -0.699990 0.100000 -2.200000
v -0.711000 0.121000 -2.200000
v -0.711000 0.439000 -2.200000
v -0.711000 0.461010 -2.200000
v -1.188990 0.291000 -2.200000
v -1.199990 0.100000 -2.200000
v -1.188990 0.121010 -2.200000
v -1.188990 0.269000 -2.200000
v -0.711000 0.269000 -2.200000
v -0.711000 0.291000 -2.200000
v -0.711000 0.761010 -2.200000
v -1.188990 0.761010 -2.200000
v -1.199990 0.880000 -2.200000
v -1.188990 0.869000 -2.200000
v -0.711000 0.869010 -2.200000
v -0.699990 0.880000 -2.200000
v -0.684310 0.210000 -2.200000
v -0.684310 0.750000 -2.200000
v -0.684300 0.120710 -2.200000
v -0.684310 0.780010 -2.200000
v -0.594990 0.120680 -2.200000
v -0.304990 0.120680 -2.200000
v -0.215700 0.120710 -2.200000
v -0.684300 0.869320 -2.200000
v -0.200000 0.100000 -2.200000
v -0.215670 0.210000 -2.200000
v -0.215670 0.750000 -2.200000
v -0.594990 0.869310 -2.200000
v -0.304990 0.869310 -2.200000
v -0.200000 0.750000 -2.200000
v -0.215670 0.780000 -2.200000
v -0.215700 0.869320 -2.200000
v -0.200000 0.880000 -2.200000
v 1.560000 0.120690 -1.124990
v 1.560000 0.100000 -1.949990
v 1.560000 0.120690 -1.884990
v 1.560000 0.120710 -1.949990
v 1.560000 0.120720 -1.035710
v 1.560000 0.100000 -2.200000
v 1.560000 0.100000 -1.021150
v 1.560000 0.120720 -1.974290
v 1.560000 0.210000 -1.021150
v 1.560000 0.210000 -1.035710
v 1.560000 0.750000 -2.200000
v 1.560000 0.210000 -1.974300
v 1.560000 0.750000 -1.974300
v 1.560000 0.880000 -2.200000
v 1.560000 0.869310 -1.974290
v 1.560000 0.659390 -1.035680
v 1.560000 0.659390 -1.021150
v 1.560000 0.869310 -1.021150
v 1.560000 0.869310 -1.035710
v 1.560000 0.880000 -1.949990
v 1.560000 0.869310 -1.949990
v 1.560000 0.880000 -1.049990
v 1.560000 0.880000 -0.379990
v 1.560000 0.869310 -0.420230
v 1.560000 0.869000 -0.398990
v 1.560000 0.869010 -0.000990
v 1.560000 0.880000 0.010000
v 1.560000 0.781000 -0.000990
v 1.560000 0.759010 -0.000990
v 1.560000 0.781000 -0.398990
v 1.560000 0.770560 -0.420230
v 1.560000 0.759010 -0.398990
v 1.560000 0.451000 -0.398990
v 1.560000 0.750000 -0.000990
v 1.560000 0.443390 -0.420230
v 1.560000 0.750000 0.010000
v 1.560000 0.451000 -0.000990
v 1.560000 0.429010 -0.000990
v 1.560000 0.121010 -0.000990
v 1.560000 0.429010 -0.398990
v 1.560000 0.121010 -0.398990
v 1.560000 0.100000 -0.420230
v 1.560000 0.100000 0.010000
v 1.560000 0.120720 0.025710
v 1.560000 0.120690 0.115010
v 1.560000 0.120690 0.295010
v 1.560000 0.210000 0.025700
v 1.560000 0.120720 0.384290
v 1.560000 0.100000 0.400000
v 1.560000 0.670010 0.025700
v 1.560000 0.750000 0.025710
v 1.560000 0.750000 0.400000
v 1.560000 0.759310 0.025710
v 1.560000 0.210000 0.384320
v 1.560000 0.670010 0.384320
v 1.560000 0.750000 0.384300
v 1.560000 0.880000 0.400000
v 1.560000 0.781000 0.384010
v 1.560000 0.869010 0.384010
v 1.560000 0.781000 0.026010
v 1.560000 0.869000 0.026010
v 1.560000 0.869310 -1.021150
v 2.112740 0.869310 -1.021150
v 2.112740 0.409140 -1.021150
v 1.560000 0.659390 -1.021150
v 1.560000 0.210000 -1.021150
v 1.608480 0.100000 -1.021150
v 1.560000 0.100000 -1.021150
v 2.112740 0.100000 -1.021150
v 1.610010 0.100000 -1.021150
v 1.560000 0.869310 -0.420230
v 2.112740 0.869310 -0.420230
v 2.112740 0.869310 -1.021150
v 1.560000 0.869310 -1.021150
v 1.560000 0.770560 -0.420230
v 2.112740 0.869310 -0.420230
v 1.560000 0.869310 -0.420230
v 2.112740 0.409140 -0.420230
v 1.560000 0.443390 -0.420230
v 1.560000 0.100000 -0.420230
v 1.607310 0.100000 -0.420230
v 2.112740 0.100000 -0.420230
v 1.610010 0.100000 -0.420230
v 2.112740 0.869310 -1.021150
v 2.112740 0.869310 -0.420230
v 2.112740 0.409140 -0.420230
v 2.112740 0.409140 -1.021150
v 2.112740 0.100000 -0.420230
v 2.112740 0.100000 -1.021150
v 2.112740 0.100000 -0.420230
v 2.112740 0.000010 -0.420230
v 2.112740 0.000010 -1.021150
v 2.112740 0.100000 -1.021150
v 1.610010 0.100000 -0.420230
v 1.610010 -0.000000 -0.420230
v 2.112740 0.000010 -0.420230
v 2.112740 0.100000 -0.420230
v 2.112740 0.100000 -1.021150
v 2.112740 0.000010 -1.021150
v 1.610010 -0.000000 -1.021150
v 1.610010 0.100000 -1.021150
v -1.188990 0.631000 -2.595000
v -1.188990 0.739000 -2.595000
v -0.711000 0.739010 -2.595000
v -0.711000 0.631000 -2.595000
v 1.965010 0.781000 0.026010
v 1.965010 0.869000 0.026010
v 1.965010 0.869010 0.384010
v 1.965010 0.781000 0.384010
v 1.965010 0.781000 -0.398990
v 1.965010 0.869000 -0.398990
v 1.965010 0.869010 -0.000990
v 1.965010 0.781000 -0.000990
v 1.965010 0.759010 -0.001000
v 1.965010 0.451000 -0.001000
v 1.965010 0.451000 -0.398990
v 1.965010 0.759010 -0.398990
v -1.188990 0.121010 -2.595000
v -1.188990 0.269000 -2.595000
v -0.711000 0.269000 -2.595000
v -0.711000 0.121010 -2.595000
v -1.188990 0.291000 -2.595000
v -1.188990 0.439000 -2.595000
v -0.711000 0.439000 -2.595000
v -0.711000 0.291000 -2.595000
v -1.188990 0.461010 -2.595000
v -1.188990 0.609010 -2.595000
v -0.711000 0.609010 -2.595000
v -0.711000 0.461010 -2.595000
v -1.188990 0.761010 -2.595000
v -1.188990 0.869000 -2.595000
v -0.711000 0.869010 -2.595000
v -0.711000 0.761010 -2.595000
v -1.188990 0.869000 -2.200000
v -0.711000 0.869010 -2.200000
v -0.711000 0.869010 -2.595000
v -1.188990 0.869000 -2.595000
v -0.711000 0.761010 -2.200000
v -0.711000 0.761010 -2.595000
v -0.711000 0.869010 -2.595000
v -0.711000 0.869010 -2.200000
v -1.188990 0.761010 -2.200000
v -1.188990 0.761010 -2.595000
v -0.711000 0.761010 -2.595000
v -0.711000 0.761010 -2.200000
v -1.188990 0.869000 -2.200000
v -1.188990 0.869000 -2.595000
v -1.188990 0.761010 -2.595000
v -1.188990 0.761010 -2.200000
v -1.188990 0.609010 -2.200000
v -0.711000 0.609010 -2.200000
v -0.711000 0.609010 -2.595000
v -1.188990 0.609010 -2.595000
v -0.711000 0.461010 -2.595000
v -0.711000 0.609010 -2.595000
v -0.711000 0.609010 -2.200000
v -0.711000 0.461010 -2.200000
v -1.188990 0.461010 -2.200000
v -1.188990 0.461010 -2.595000
v -0.711000 0.461010 -2.595000
v -0.711000 0.461010 -2.200000
v -1.188990 0.609010 -2.595000
v -1.188990 0.461010 -2.595000
v -1.188990 0.461010 -2.200000
v -1.188990 0.609010 -2.200000
v -1.188990 0.439000 -2.200000
v -0.711000 0.439000 -2.200000
v -0.711000 0.439000 -2.595000
v -1.188990 0.439000 -2.595000
v -0.711000 0.439000 -2.200000
v -0.711000 0.291000 -2.200000
v -0.711000 0.291000 -2.595000
v -0.711000 0.439000 -2.595000
v -1.188990 0.291000 -2.200000
v -1.188990 0.291000 -2.595000
v -0.711000 0.291000 -2.595000
v -0.711000 0.291000 -2.200000
v -1.188990 0.291000 -2.200000
v -1.188990 0.439000 -2.200000
v -1.188990 0.439000 -2.595000
v -1.188990 0.291000 -2.595000
v -1.188990 0.269000 -2.200000
v -0.711000 0.269000 -2.200000
v -0.711000 0.269000 -2.595000
v -1.188990 0.269000 -2.595000
v -0.711000 0.269000 -2.200000
v -0.711000 0.121000 -2.200000
v -0.711000 0.121010 -2.595000
v -0.711000 0.269000 -2.595000
v -1.188990 0.121010 -2.200000
v -1.188990 0.121010 -2.595000
v -0.711000 0.121010 -2.595000
v -0.711000 0.121000 -2.200000
v -1.188990 0.121010 -2.200000
v -1.188990 0.269000 -2.200000
v -1.188990 0.269000 -2.595000
v -1.188990 0.121010 -2.595000
v -0.711000 0.631000 -2.200000
v -0.711000 0.631000 -2.595000
v -0.711000 0.739010 -2.595000
v -0.711000 0.739010 -2.200000
v -1.188990 0.739000 -2.200000
v -1.188990 0.739000 -2.595000
v -1.188990 0.631000 -2.595000
v -1.188990 0.631000 -2.200000
v -1.188990 0.739000 -2.200000
v -0.711000 0.739010 -2.200000
v -0.711000 0.739010 -2.595000
v -1.188990 0.739000 -2.595000
v -1.188990 0.631000 -2.200000
v -1.188990 0.631000 -2.595000
v -0.711000 0.631000 -2.595000
v -0.711000 0.631000 -2.200000
v 1.560000 0.759010 -0.398990
v 1.965010 0.759010 -0.398990
v 1.965010 0.451000 -0.398990
v 1.560000 0.451000 -0.398990
v 1.965010 0.759010 -0.001000
v 1.965010 0.759010 -0.398990
v 1.560000 0.759010 -0.398990
v 1.560000 0.759010 -0.000990
v 1.560000 0.451000 -0.000990
v 1.965010 0.451000 -0.001000
v 1.965010 0.759010 -0.001000
v 1.560000 0.759010 -0.000990
v 1.560000 0.451000 -0.398990
v 1.965010 0.451000 -0.398990
v 1.965010 0.451000 -0.001000
v 1.560000 0.451000 -0.000990
v 1.560000 0.869000 -0.398990
v 1.965010 0.869010 -0.000990
v 1.965010 0.869000 -0.398990
v 1.560000 0.869010 -0.000990
v 1.560000 0.781000 -0.000990
v 1.965010 0.781000 -0.000990
v 1.965010 0.869010 -0.000990
v 1.560000 0.869010 -0.000990
v 1.965010 0.781000 -0.398990
v 1.965010 0.781000 -0.000990
v 1.560000 0.781000 -0.398990
v 1.560000 0.781000 -0.000990
v 1.560000 0.781000 -0.398990
v 1.560000 0.869000 -0.398990
v 1.965010 0.869000 -0.398990
v 1.965010 0.781000 -0.398990
v 1.965010 0.869000 0.026010
v 1.560000 0.869000 0.026010
v 1.560000 0.869010 0.384010
v 1.965010 0.869010 0.384010
v 1.560000 0.781000 0.384010
v 1.965010 0.781000 0.384010
v 1.965010 0.869010 0.384010
v 1.560000 0.869010 0.384010
v 1.965010 0.781000 0.026010
v 1.965010 0.781000 0.384010
v 1.560000 0.781000 0.384010
v 1.560000 0.781000 0.026010
v 1.560000 0.781000 0.026010
v 1.560000 0.869000 0.026010
v 1.965010 0.869000 0.026010
v 1.965010 0.781000 0.026010
v 1.560000 0.429010 -0.000990
v 1.560000 0.121010 -0.000990
v 1.965010 0.121010 -0.001000
v 1.965010 0.429010 -0.001000
v 1.965010 0.429010 -0.001000
v 1.965010 0.429010 -0.398990
v 1.560000 0.429010 -0.398990
v 1.560000 0.429010 -0.000990
v 1.560000 0.121010 -0.398990
v 1.560000 0.429010 -0.398990
v 1.965010 0.429010 -0.398990
v 1.965010 0.297360 -0.398990
v 1.671820 0.121010 -0.398990
v 1.965010 0.121010 -0.398990
v 1.965010 0.121010 -0.001000
v 1.560000 0.121010 -0.000990
v 1.560000 0.121010 -0.398990
v 1.965010 0.121010 -0.188660
v 1.671820 0.121010 -0.398990
v 1.965010 0.121010 -0.398990
v 1.965010 0.297360 -0.398990
v 1.965010 0.429010 -0.398990
v 1.965010 0.429010 -0.001000
v 1.965010 0.205650 -0.289610
v 1.965010 0.121010 -0.398990
v 1.965010 0.121010 -0.001000
v 1.965010 0.121010 -0.188660
v 1.955010 0.210000 0.026000
v 1.955010 0.121000 0.115120
v 1.955010 0.121000 0.026000
v 1.955010 0.210000 0.115120
v 1.955010 0.670010 0.026000
v 1.954900 0.210000 0.295120
v 1.954900 0.121000 0.295120
v 1.954900 0.121000 0.384010
v 1.954900 0.210000 0.384010
v 1.954900 0.670010 0.295120
v 1.954900 0.670010 0.384010
v 1.955010 0.670010 0.115120
v 1.955010 0.759010 0.026000
v 1.955010 0.759010 0.115120
v 1.954900 0.759010 0.295120
v 1.954900 0.759010 0.384010
v 1.954900 0.663000 -1.124920
v 1.954900 0.663000 -1.035990
v 1.954900 0.603000 -1.035990
v 1.954900 0.603000 -1.124920
v 1.955010 0.603010 -1.414930
v 1.955010 0.663010 -1.414930
v 1.954950 0.663010 -1.504990
v 1.954950 0.603010 -1.504990
v 1.954900 0.663000 -1.594920
v 1.954900 0.261420 -1.047630
v 1.954900 0.281480 -1.035990
v 1.954900 0.210000 -1.035990
v 1.954900 0.210000 -1.077440
v 1.954900 0.121000 -1.035990
v 1.955010 0.210000 -1.414920
v 1.954900 0.210000 -1.124920
v 1.954900 0.179930 -1.094870
v 1.954900 0.121000 -1.124920
v 1.954900 0.128100 -1.124920
v 1.954910 0.121000 -1.129040
v 1.955010 0.121000 -1.414920
v 1.954950 0.210000 -1.504990
v 1.954950 0.121000 -1.504990
v 1.954900 0.603000 -1.594920
v 1.954900 0.210000 -1.594920
v 1.954900 0.121000 -1.594920
v 1.955010 0.121000 -1.884930
v 1.955010 0.603010 -1.884930
v 1.955010 0.663010 -1.884930
v 1.955010 0.663010 -1.973990
v 1.955010 0.603010 -1.973990
v 1.955010 0.210000 -1.884930
v 1.955010 0.210000 -1.974000
v 1.955010 0.121000 -1.974000
v 1.405170 0.869010 -2.604890
v 1.494010 0.869010 -2.604890
v 1.494010 0.780000 -2.604890
v 1.405170 0.780000 -2.604890
v 1.494010 0.210000 -2.604890
v 1.285170 0.780010 -2.605000
v 1.285170 0.869010 -2.605000
v 1.196000 0.869010 -2.605000
v 1.405170 0.210000 -2.604890
v 1.494010 0.121000 -2.604890
v 1.405170 0.121000 -2.604890
v 1.285170 0.121000 -2.605000
v 1.285170 0.210000 -2.605000
v 1.196000 0.780010 -2.605000
v 1.184010 0.869010 -2.604890
v 1.196000 0.210000 -2.605000
v 1.196000 0.121000 -2.605000
v 1.184010 0.780000 -2.604890
v 1.095080 0.869010 -2.604890
v 1.184010 0.210000 -2.604890
v 1.184010 0.121000 -2.604890
v 1.095080 0.780000 -2.604890
v 1.095080 0.210000 -2.604890
v 1.095080 0.121000 -2.604890
v 0.805070 0.121000 -2.605000
v 0.805070 0.780010 -2.605000
v 0.805070 0.869010 -2.605000
v 0.716000 0.869010 -2.605000
v 0.716000 0.780010 -2.605000
v 0.805070 0.210000 -2.605000
v 0.716000 0.210000 -2.605000
v 0.716000 0.121000 -2.605000
v -0.683990 0.210000 -2.605000
v -0.594930 0.121000 -2.605000
v -0.683990 0.121000 -2.605000
v -0.594930 0.210000 -2.605000
v -0.683990 0.780010 -2.605000
v -0.304930 0.210000 -2.604890
v -0.304930 0.121000 -2.604890
v -0.216000 0.121000 -2.604890
v -0.215990 0.210000 -2.604890
v -0.304930 0.780000 -2.604890
v -0.215990 0.780000 -2.604890
v -0.594930 0.780010 -2.605000
v -0.683990 0.869010 -2.605000
v -0.594930 0.869010 -2.605000
v -0.304930 0.869010 -2.604890
v -0.216000 0.869010 -2.604890
v 1.494300 0.869320 -2.200000
v 1.494010 0.869010 -2.604890
v 1.405170 0.869010 -2.604890
v 1.405020 0.869310 -2.200000
v 1.285170 0.869010 -2.605000
v 1.285010 0.869310 -2.200000
v 1.196000 0.869010 -2.605000
v 1.195700 0.869320 -2.200000
v 1.184300 0.869320 -2.200000
v 1.184010 0.869010 -2.604890
v 1.095080 0.869010 -2.604890
v 1.095010 0.869310 -2.200000
v 0.805070 0.869010 -2.605000
v 0.805010 0.869310 -2.200000
v 0.716000 0.869010 -2.605000
v 0.715700 0.869320 -2.200000
v 1.494330 0.780000 -2.200000
v 1.494010 0.869010 -2.604890
v 1.494300 0.869320 -2.200000
v 1.494010 0.780000 -2.604890
v 1.494330 0.750000 -2.200000
v 1.494330 0.210000 -2.200000
v 1.494010 0.210000 -2.604890
v 1.494300 0.120710 -2.200000
v 1.494010 0.121000 -2.604890
v 1.405020 0.120680 -2.200000
v 1.494010 0.121000 -2.604890
v 1.494300 0.120710 -2.200000
v 1.405170 0.121000 -2.604890
v 1.285170 0.121000 -2.605000
v 1.285020 0.120680 -2.200000
v 1.196000 0.121000 -2.605000
v 1.195700 0.120710 -2.200000
v 1.184300 0.120710 -2.200000
v 1.184010 0.121000 -2.604890
v 1.095010 0.120680 -2.200000
v 1.095080 0.121000 -2.604890
v 0.805070 0.121000 -2.605000
v 0.805010 0.120680 -2.200000
v 0.715700 0.120710 -2.200000
v 0.716000 0.121000 -2.605000
v 0.715690 0.780010 -2.200000
v 0.715700 0.869320 -2.200000
v 0.716000 0.869010 -2.605000
v 0.716000 0.780010 -2.605000
v 0.715690 0.750000 -2.200000
v 0.715690 0.210000 -2.200000
v 0.716000 0.210000 -2.605000
v 0.715700 0.120710 -2.200000
v 0.716000 0.121000 -2.605000
v -0.215700 0.869320 -2.200000
v -0.216000 0.869010 -2.604890
v -0.304930 0.869010 -2.604890
v -0.304990 0.869310 -2.200000
v -0.594930 0.869010 -2.605000
v -0.594990 0.869310 -2.200000
v -0.683990 0.869010 -2.605000
v -0.684300 0.869320 -2.200000
v -0.215700 0.120710 -2.200000
v -0.216000 0.121000 -2.604890
v -0.215990 0.210000 -2.604890
v -0.215670 0.210000 -2.200000
v -0.215990 0.780000 -2.604890
v -0.215670 0.750000 -2.200000
v -0.215670 0.780000 -2.200000
v -0.216000 0.869010 -2.604890
v -0.215700 0.869320 -2.200000
v -0.684300 0.120710 -2.200000
v -0.683990 0.121000 -2.605000
v -0.594930 0.121000 -2.605000
v -0.594990 0.120680 -2.200000
v -0.304990 0.120680 -2.200000
v -0.304930 0.121000 -2.604890
v -0.216000 0.121000 -2.604890
v -0.215700 0.120710 -2.200000
v -0.684310 0.780010 -2.200000
v -0.684300 0.869320 -2.200000
v -0.683990 0.869010 -2.605000
v -0.683990 0.780010 -2.605000
v -0.684310 0.750000 -2.200000
v -0.684310 0.210000 -2.200000
v -0.683990 0.210000 -2.605000
v -0.684300 0.120710 -2.200000
v -0.683990 0.121000 -2.605000
v 1.560000 0.120720 0.025710
v 1.955010 0.210000 0.026000
v 1.955010 0.121000 0.026000
v 1.560000 0.210000 0.025700
v 1.955010 0.670010 0.026000
v 1.560000 0.670010 0.025700
v 1.560000 0.759310 0.025710
v 1.955010 0.759010 0.026000
v 1.560000 0.759310 0.025710
v 1.955010 0.759010 0.115120
v 1.955010 0.759010 0.026000
v 1.560000 0.759300 0.115010
v 1.560000 0.759300 0.295010
v 1.954900 0.759010 0.295120
v 1.560000 0.759310 0.384290
v 1.954900 0.759010 0.384010
v 1.560000 0.120690 0.295010
v 1.954900 0.121000 0.384010
v 1.560000 0.120720 0.384290
v 1.954900 0.121000 0.295120
v 1.955010 0.121000 0.115120
v 1.560000 0.120690 0.115010
v 1.955010 0.121000 0.026000
v 1.560000 0.120720 0.025710
v 1.954900 0.759010 0.384010
v 1.560000 0.759310 0.384290
v 1.560000 0.670010 0.384320
v 1.954900 0.670010 0.384010
v 1.954900 0.210000 0.384010
v 1.560000 0.210000 0.384320
v 1.954900 0.121000 0.384010
v 1.560000 0.120720 0.384290
v 1.618350 0.869160 -1.974150
v 1.560000 0.869310 -1.974290
v 1.560000 0.869310 -1.949990
v 1.618350 0.869150 -1.884960
v 1.560000 0.869300 -1.884990
v 1.618350 0.869150 -1.594960
v 1.560000 0.869300 -1.594990
v 1.618350 0.869160 -1.505000
v 1.560000 0.869310 -1.505000
v 1.560000 0.869300 -1.414990
v 1.618350 0.869150 -1.414960
v 1.618350 0.869150 -1.124960
v 1.560000 0.869300 -1.124990
v 1.560000 0.869310 -1.049990
v 1.618350 0.869160 -1.035850
v 1.560000 0.869310 -1.035710
v 1.955010 0.663010 -1.884930
v 1.955010 0.663010 -1.973990
v 1.621150 0.663160 -1.974140
v 1.621150 0.663150 -1.884960
v 1.954900 0.663000 -1.594920
v 1.621150 0.663150 -1.594960
v 1.954950 0.663010 -1.504990
v 1.621150 0.663160 -1.505000
v 1.621150 0.663150 -1.414960
v 1.955010 0.663010 -1.414930
v 1.954900 0.663000 -1.124920
v 1.621150 0.663150 -1.124960
v 1.621150 0.663160 -1.035850
v 1.954900 0.663000 -1.035990
v 1.560000 0.120710 -1.949990
v 1.560000 0.120720 -1.974290
v 1.618350 0.120860 -1.974150
v 1.618350 0.120850 -1.884960
v 1.560000 0.120690 -1.884990
v 1.621150 0.120850 -1.884960
v 1.621150 0.120860 -1.974140
v 1.618350 0.120850 -1.594960
v 1.560000 0.120690 -1.594990
v 1.560000 0.120720 -1.505000
v 1.955010 0.121000 -1.884930
v 1.955010 0.121000 -1.974000
v 1.954900 0.121000 -1.594920
v 1.621150 0.120850 -1.594960
v 1.954950 0.121000 -1.504990
v 1.621150 0.120860 -1.505000
v 1.621150 0.120850 -1.414960
v 1.955010 0.121000 -1.414920
v 1.954910 0.121000 -1.129040
v 1.618350 0.120860 -1.505000
v 1.618350 0.120850 -1.414960
v 1.560000 0.120690 -1.414990
v 1.618350 0.120850 -1.124960
v 1.560000 0.120690 -1.124990
v 1.560000 0.120720 -1.035710
v 1.618350 0.120860 -1.035850
v 1.621150 0.120860 -1.035850
v 1.621150 0.120850 -1.124960
v 1.951520 0.121000 -1.127870
v 1.954900 0.121000 -1.124920
v 1.943020 0.121000 -1.124930
v 1.903100 0.120980 -1.111100
v 1.685920 0.120890 -1.035880
v 1.954900 0.121000 -1.035990
v 1.560000 0.659390 -1.035680
v 1.618350 0.869160 -1.035850
v 1.560000 0.869310 -1.035710
v 1.621150 0.663160 -1.035850
v 1.618350 0.603010 -1.035830
v 1.621150 0.603010 -1.035840
v 1.954900 0.663000 -1.035990
v 1.954900 0.603000 -1.035990
v 1.560000 0.210000 -1.035710
v 1.954900 0.281480 -1.035990
v 1.618350 0.210000 -1.035830
v 1.914620 0.257440 -1.035980
v 1.954900 0.210000 -1.035990
v 1.618350 0.120860 -1.035850
v 1.560000 0.120720 -1.035710
v 1.621150 0.210000 -1.035840
v 1.621150 0.120860 -1.035850
v 1.835170 0.210000 -1.035940
v 1.738270 0.152140 -1.035900
v 1.685920 0.120890 -1.035880
v 1.954900 0.121000 -1.035990
v 1.560000 0.750000 -1.974300
v 1.560000 0.869310 -1.974290
v 1.618350 0.869160 -1.974150
v 1.618350 0.603010 -1.974150
v 1.618350 0.210000 -1.974150
v 1.560000 0.210000 -1.974300
v 1.560000 0.120720 -1.974290
v 1.618350 0.120860 -1.974150
v 1.621150 0.120860 -1.974140
v 1.621150 0.210000 -1.974150
v 1.955010 0.121000 -1.974000
v 1.955010 0.210000 -1.974000
v 1.955010 0.603010 -1.973990
v 1.621150 0.603010 -1.974150
v 1.621150 0.663160 -1.974140
v 1.955010 0.663010 -1.973990
v 1.621150 0.663150 -1.124960
v 1.618350 0.869160 -1.035850
v 1.621150 0.663160 -1.035850
v 1.618350 0.869150 -1.124960
v 1.621150 0.663150 -1.414960
v 1.618350 0.869150 -1.414960
v 1.621150 0.663160 -1.505000
v 1.618350 0.869160 -1.505000
v 1.621150 0.663150 -1.594960
v 1.618350 0.869150 -1.594960
v 1.621150 0.663150 -1.884960
v 1.618350 0.869150 -1.884960
v 1.621150 0.663160 -1.974140
v 1.618350 0.869160 -1.974150
vn -0.0001 -0.0000 1.0000
vn -1.0000 -0.0055 -0.0000
vn -1.0000 -0.0000 -0.0000
vn -0.9997 0.0256 -0.0000
vn -1.0000 -0.0033 -0.0000
vn -0.9999 0.0103 -0.0000
vn -1.0000 0.0083 -0.0000
vn -0.0000 -0.0000 -1.0000
vn 1.0000 -0.0000 -0.0000
vn -0.0000 -0.0000 1.0000
vn -0.0000 -1.0000 -0.0000
vn -0.0000 -1.0000 0.0002
vn -0.0000 -1.0000 -0.0002
vn -1.0000 -0.0001 -0.0000
vn 0.0001 -0.0000 1.0000
vn -1.0000 0.0001 -0.0000
vn -1.0000 -0.0003 -0.0000
vn -0.0000 1.0000 -0.0000
vn -1.0000 -0.0000 -0.0003
vn -1.0000 -0.0000 -0.0002
vn -1.0000 -0.0000 0.0001
vn -1.0000 -0.0000 0.0006
vn -1.0000 -0.0000 -0.0012
vn -1.0000 -0.0001 -0.0014
vn -0.0005 -0.0000 1.0000
vn 0.0046 -0.0000 1.0000
vn -0.0002 -0.0000 1.0000
vn -0.0000 -1.0000 0.0008
vn 0.0001 -1.0000 0.0007
vn -0.0000 -1.0000 0.0007
vn -0.0001 -1.0000 0.0008
vn -1.0000 -0.0003 0.0007
vn -1.0000 -0.0000 0.0008
vn -1.0000 -0.0001 0.0008
vn -1.0000 0.0002 0.0008
vn -1.0000 0.0003 0.0008
vn -1.0000 -0.0000 0.0007
vn -0.0003 1.0000 0.0007
vn -0.0000 1.0000 0.0008
vn -0.0001 1.0000 0.0008
vn 0.0001 1.0000 0.0008
vn -0.0000 1.0000 0.0007
vn 0.0002 1.0000 0.0007
vn -0.0002 1.0000 0.0007
vn 0.0002 1.0000 0.0008
vn 0.0003 1.0000 0.0008
vn 1.0000 -0.0000 0.0008
vn 1.0000 -0.0001 0.0007
vn 1.0000 0.0001 0.0008
vn 1.0000 -0.0000 0.0007
vn -1.0000 0.0001 0.0008
vn -1.0000 0.0001 0.0007
vn -1.0000 -0.0002 0.0008
vn 1.0000 -0.0001 0.0008
vn -0.0007 -0.0000 1.0000
vn -0.0008 0.0001 1.0000
vn -0.0008 -0.0001 1.0000
vn -0.0008 -1.0000 -0.0000
vn -0.0007 -1.0000 -0.0000
vn -0.0007 -1.0000 -0.0001
vn -0.0007 -1.0000 0.0001
vn -0.0007 1.0000 -0.0003
vn -0.0008 1.0000 -0.0000
vn -0.0008 1.0000 -0.0001
vn -0.0008 1.0000 0.0001
vn -0.0007 1.0000 0.0003
vn -0.0008 -0.0001 -1.0000
vn -0.0007 -0.0003 -1.0000
vn -0.0008 -0.0000 -1.0000
vn -0.0008 0.0001 -1.0000
vn -0.0007 0.0003 -1.0000
vn -0.0026 -1.0000 -0.0001
vn -0.0026 -1.0000 -0.0000
vn -0.0026 -1.0000 0.0001
vn -0.0004 -1.0000 -0.0001
vn -0.0004 -1.0000 -0.0000
vn -0.0004 -1.0000 0.0001
vn -0.0005 -1.0000 -0.0000
vn -0.0005 -1.0000 0.0001
vn -0.0012 1.0000 0.0001
vn -0.0024 1.0000 0.0004
vn -0.0025 1.0000 0.0003
vn -0.0013 1.0000 0.0001
vn -0.0027 1.0000 0.0002
vn -0.0002 1.0000 0.0001
vn -0.0013 1.0000 -0.0001
vn -0.0027 1.0000 -0.0002
vn -0.0025 1.0000 -0.0000
vn -0.0004 1.0000 -0.0000
vn -0.0002 1.0000 -0.0001
vn -0.0002 1.0000 -0.0000
vn -0.0012 1.0000 -0.0000
vn -0.0025 1.0000 -0.0002
vn -0.0012 1.0000 -0.0001
vn -0.0001 1.0000 -0.0002
vn -0.0001 1.0000 0.0005
vn -0.0003 1.0000 0.0005
vn -0.0005 1.0000 -0.0001
vn -0.0024 -0.0001 -1.0000
vn -0.0025 -0.0001 -1.0000
vn -0.0027 -0.0001 -1.0000
vn -0.0020 -0.0001 -1.0000
vn -0.0030 -0.0000 -1.0000
vn -0.0004 -0.0000 -1.0000
vn -0.0021 0.0001 -1.0000
vn -0.0003 0.0001 -1.0000
vn -0.0028 0.0001 -1.0000
vn -0.0012 0.0001 -1.0000
vn -0.0024 -0.0000 -1.0000
vn -0.0020 0.0001 -1.0000
vn -0.0002 0.0001 -1.0000
vn -0.0004 0.0001 -1.0000
vn -0.0005 0.0001 -1.0000
vn -0.0025 -0.0001 1.0000
vn -0.0024 -0.0001 1.0000
vn -0.0025 -0.0000 1.0000
vn -0.0013 -0.0000 1.0000
vn -0.0026 0.0001 1.0000
vn -0.0030 -0.0000 1.0000
vn -0.0020 0.0001 1.0000
vn -0.0004 -0.0000 1.0000
vn -0.0003 -0.0000 1.0000
vn -0.0110 -0.0002 0.9999
vn -0.9999 -0.0136 -0.0000
vt -0.365014 0.130672
vt -0.455029 0.130696
vt -0.545021 0.130672
vt -0.365014 0.879311
vt -0.075002 0.879310
vt -0.000006 0.879321
vt -0.835033 0.879311
vt -0.545021 0.879310
vt -0.455029 0.879322
vt 1.165049 0.769307
vt 1.345056 0.769306
vt 1.434338 0.769318
vt 1.381837 -0.251475
vt 1.381837 0.388525
vt 1.281837 -0.251475
vt 1.281837 0.388525
vt 1.381837 1.248525
vt 1.281835 1.248525
vt 0.631836 -0.251475
vt 0.631836 0.388525
vt 0.631836 1.248526
vt 0.501837 1.248527
vt 0.501836 0.388525
vt 0.501836 -0.251475
vt -0.381837 -0.773462
vt -0.381837 -1.373461
vt -0.281837 -1.373461
vt -0.281837 -0.773462
vt 0.368163 -1.373461
vt -0.381837 -0.523461
vt 0.368163 -0.773462
vt -0.281837 -0.523461
vt 0.498163 -0.773462
vt 0.498163 -1.373461
vt 0.498163 -0.523461
vt 0.368163 -0.523461
vt 0.368163 0.376539
vt 0.498163 0.376539
vt 0.498163 1.046538
vt -0.281837 0.376539
vt -0.381837 0.376539
vt -0.381837 1.046538
vt -0.281837 1.046538
vt -0.381837 1.436538
vt 0.368163 1.046538
vt -0.281837 1.431516
vt -0.281837 1.436538
vt -0.286048 1.436538
vt -0.381837 1.826539
vt -0.281837 1.826539
vt 0.368163 1.436538
vt 0.498163 1.436538
vt 0.368163 1.826539
vt 0.498163 1.826539
vt -0.054906 0.246442
vt 0.495094 0.246442
vt -0.054906 0.346442
vt 0.495094 0.346442
vt -0.054906 0.996442
vt 0.495094 0.996442
vt 0.495094 1.126442
vt -0.054906 1.126442
vt 0.545094 0.996442
vt 0.545094 0.346442
vt 0.545094 1.126442
vt 0.663534 0.246442
vt 0.663534 0.346442
vt 0.073534 0.246442
vt 0.073534 0.346442
vt 0.663534 0.996442
vt 0.073533 0.996442
vt 0.663534 1.126442
vt 0.023534 0.346442
vt 0.073533 1.126442
vt 0.023534 0.996442
vt 0.023534 1.126442
vt 0.147950 0.092051
vt 0.147949 1.002051
vt 0.047949 1.002050
vt 0.047950 0.092051
vt 1.022485 1.374189
vt 1.022485 0.514116
vt 1.072490 0.514116
vt 1.072490 1.424193
vt 0.772465 1.424194
vt 0.772465 1.374189
vt -0.156458 1.374189
vt -0.156458 1.424193
vt -0.156458 1.422671
vt 0.946430 1.134194
vt 0.946430 1.181499
vt 0.946430 1.184198
vt 0.516162 1.134194
vt 0.516162 1.184197
vt 0.126132 1.134194
vt 0.126132 1.184197
vt 1.145318 0.954777
vt 1.045318 0.954777
vt 1.145318 0.454777
vt 1.045318 0.454777
vt 1.145318 -0.045222
vt 0.395318 0.954777
vt 1.045319 -0.045222
vt 0.395318 0.454777
vt 0.265318 0.954777
vt 0.395318 -0.045222
vt 0.265318 0.454777
vt 0.265319 -0.045222
vt 0.459536 0.469116
vt 0.459536 -0.030884
vt 0.559536 -0.030884
vt 0.559536 0.469116
vt 0.459536 0.969116
vt 0.559536 0.969116
vt 0.467372 0.469116
vt 0.467372 -0.030884
vt 0.517372 -0.030884
vt 0.517372 0.469116
vt 0.467372 0.969116
vt 0.517372 0.969116
vt 0.566267 1.521762
vt 0.466267 1.521762
vt 0.466267 1.221762
vt 0.566267 1.221762
vt 0.566266 0.291544
vt 0.466267 0.291544
vt 0.566267 -0.738237
vt 0.566266 -0.307096
vt 0.466267 -0.307096
vt 0.466267 -0.738237
vt 0.566267 -1.128237
vt 0.466267 -1.128237
vt -0.164964 0.338238
vt -0.164964 0.238238
vt 0.385036 0.238238
vt 0.385036 0.338238
vt 0.435036 0.988238
vt 0.435035 0.338238
vt -0.164964 0.988238
vt -0.164964 1.118238
vt 0.435036 1.118235
vt -0.189555 0.234121
vt 0.360444 0.234121
vt -0.189556 0.334121
vt 0.360444 0.334121
vt 0.360444 0.984121
vt -0.239556 0.334121
vt -0.239556 0.984121
vt -0.239555 1.114120
vt 0.360444 1.114120
vt 0.845174 1.039861
vt 0.834488 0.555567
vt 0.834488 0.544166
vt 0.834476 0.454852
vt 0.834476 0.334851
vt 0.834488 0.245566
vt 0.845173 0.179862
vt 0.715173 0.179862
vt 0.745173 0.245538
vt 0.715173 0.245538
vt 0.065173 0.179862
vt 0.175173 0.245538
vt 0.085876 0.245566
vt 0.065173 1.039861
vt 0.085851 0.334851
vt 0.085851 0.454852
vt 0.085876 0.544166
vt 0.085876 0.555567
vt 0.834476 0.644857
vt 0.834476 0.934858
vt 0.834488 1.024166
vt 0.745173 1.024176
vt 0.715173 1.024176
vt 0.715173 1.039862
vt 0.175173 1.024176
vt 0.085877 1.024166
vt 0.085851 0.934858
vt 0.085851 0.644857
vt 0.544212 0.480116
vt 0.566212 0.480116
vt 0.566212 0.958116
vt 0.544212 0.958116
vt 0.685212 0.969116
vt 0.674212 0.958116
vt 0.396211 0.958116
vt 0.674212 0.480116
vt 0.685212 0.469116
vt 0.374211 0.958116
vt 0.035211 0.469116
vt 0.056211 0.480116
vt 0.374211 0.480116
vt 0.396211 0.480116
vt 0.226211 0.958116
vt 0.035211 0.969116
vt 0.056211 0.958116
vt 0.204211 0.958116
vt 0.204211 0.480116
vt 0.226211 0.480116
vt 0.696212 0.480116
vt 0.696212 0.958116
vt 0.815212 0.969116
vt 0.804212 0.958116
vt 0.804213 0.480116
vt 0.815212 0.469116
vt 0.145211 0.453429
vt 0.685212 0.453429
vt 0.055914 0.453421
vt 0.715212 0.453429
vt 0.055890 0.364112
vt 0.055890 0.074111
vt 0.055914 -0.015180
vt 0.804527 0.453421
vt 0.035211 -0.030885
vt 0.145211 -0.015209
vt 0.685212 -0.015209
vt 0.804515 0.364112
vt 0.804515 0.074111
vt 0.685213 -0.030885
vt 0.715212 -0.015209
vt 0.804527 -0.015180
vt 0.815213 -0.030885
vt -0.075002 0.130672
vt -0.900041 0.109985
vt -0.835033 0.130672
vt -0.900041 0.130689
vt 0.014283 0.130696
vt -1.150051 0.109985
vt 0.028839 0.109985
vt -0.924339 0.130696
vt 0.028839 0.219989
vt 0.014283 0.219989
vt -1.150051 0.760010
vt -0.924348 0.219989
vt -0.924348 0.760010
vt -1.150051 0.890015
vt -0.924339 0.879322
vt 0.014311 0.669394
vt 0.028839 0.669394
vt 0.028839 0.879322
vt 0.014283 0.879322
vt -0.900041 0.890015
vt -0.900041 0.879319
vt -0.000006 0.890015
vt 0.670020 0.890015
vt 0.629782 0.879322
vt 0.651020 0.879015
vt 1.049035 0.879015
vt 1.060036 0.890015
vt 1.049035 0.791012
vt 1.049035 0.769011
vt 0.651020 0.791012
vt 0.629782 0.780568
vt 0.651020 0.769010
vt 0.651020 0.460999
vt 1.049035 0.760010
vt 0.629782 0.453387
vt 1.060036 0.760010
vt 1.049035 0.460999
vt 1.049035 0.438998
vt 1.049035 0.130986
vt 0.651020 0.438998
vt 0.651020 0.130986
vt 0.629782 0.109985
vt 1.060036 0.109985
vt 1.075739 0.130696
vt 1.165049 0.130672
vt 1.345056 0.130672
vt 1.075730 0.219989
vt 1.434338 0.130696
vt 1.450051 0.109985
vt 1.075730 0.680008
vt 1.075739 0.760010
vt 1.450051 0.760010
vt 1.075739 0.769318
vt 1.434366 0.219989
vt 1.434366 0.680007
vt 1.434341 0.760010
vt 1.450051 0.890015
vt 1.434050 0.791012
vt 1.434050 0.879015
vt 1.076036 0.791012
vt 1.076036 0.879015
vt 0.824613 0.388866
vt 0.824613 0.849384
vt 0.271464 0.849384
vt 0.271464 0.639309
vt 0.271464 0.189588
vt 0.319979 0.079506
vt 0.271464 0.079506
vt 0.824613 0.079506
vt 0.321502 0.079506
vt -0.155143 0.568389
vt 0.443497 0.568389
vt 0.443497 1.123389
vt -0.155143 1.123389
vt 0.370136 0.968851
vt -0.183013 0.968851
vt 0.370136 0.870027
vt -0.183013 0.508336
vt 0.370136 0.542616
vt 0.370136 0.198972
vt 0.322799 0.198972
vt -0.183013 0.198972
vt 0.320099 0.198972
vt 0.992961 0.490333
vt 0.992961 0.944984
vt 0.389013 0.944984
vt 0.389004 0.487759
vt 0.992961 0.179206
vt 0.389004 0.177607
vt 0.033859 0.800682
vt 0.033859 0.199317
vt 0.133933 0.199317
vt 0.133933 0.800682
vt 0.306614 0.167078
vt 0.306614 0.670190
vt 0.206540 0.670190
vt 0.206540 0.167078
vt 0.379036 0.670190
vt 0.379036 0.167078
vt 0.479110 0.167078
vt 0.479110 0.670190
vt 0.236861 0.554545
vt 0.236861 1.032545
vt 0.128861 1.032545
vt 0.128861 0.554545
vt 0.308253 0.749634
vt 0.308253 1.107634
vt 0.220253 1.107634
vt 0.220253 0.749634
vt 0.803366 0.672817
vt 0.803366 1.070817
vt 0.715366 1.070817
vt 0.715366 0.672817
vt 0.518689 1.058082
vt 0.518689 0.660083
vt 0.826689 0.660083
vt 0.826689 1.058082
vt 0.231904 0.554545
vt 0.231904 1.032545
vt 0.083904 1.032545
vt 0.083904 0.554545
vt 0.204006 0.554545
vt 0.204006 1.032545
vt 0.056006 1.032545
vt 0.056006 0.554545
vt 0.176107 0.554545
vt 0.176107 1.032545
vt 0.028107 1.032545
vt 0.028107 0.554545
vt 0.131150 0.550428
vt 0.131150 1.028428
vt 0.023150 1.028428
vt 0.023150 0.550428
vt -0.163468 0.550428
vt 0.231532 0.550428
vt 0.231532 1.028427
vt -0.163468 1.028427
vt 0.689968 1.056362
vt 0.581967 1.056362
vt 0.581967 0.661362
vt 0.689968 0.661362
vt 0.680355 0.473228
vt 0.680355 0.951228
vt 0.285356 0.951228
vt 0.285356 0.473228
vt 0.559951 0.661362
vt 0.667951 0.661362
vt 0.667951 1.056362
vt 0.559951 1.056362
vt -0.166466 0.624708
vt 0.228534 0.624708
vt 0.228534 1.102708
vt -0.166466 1.102708
vt 0.662994 0.661362
vt 0.662994 1.056362
vt 0.514994 1.056362
vt 0.514994 0.661362
vt 0.616137 0.551279
vt 0.616137 1.029279
vt 0.221137 1.029279
vt 0.221137 0.551279
vt 0.487095 1.056274
vt 0.487095 0.661274
vt 0.635095 0.661274
vt 0.635095 1.056274
vt -0.101956 0.628826
vt 0.293044 0.628826
vt 0.293044 1.106825
vt -0.101956 1.106825
vt 0.459197 1.056274
vt 0.459197 0.661274
vt 0.607197 0.661274
vt 0.607197 1.056274
vt 0.551917 0.551279
vt 0.551917 1.029279
vt 0.156918 1.029279
vt 0.156918 0.551279
vt 0.579299 0.659980
vt 0.579299 1.054980
vt 0.431299 1.054980
vt 0.431299 0.659980
vt -0.037640 0.628826
vt 0.357360 0.628826
vt 0.357360 1.106825
vt -0.037640 1.106825
vt 0.403400 1.041451
vt 0.403400 0.646451
vt 0.551400 0.646451
vt 0.551400 1.041451
vt 0.487698 0.551279
vt 0.487698 1.029279
vt 0.092698 1.029279
vt 0.092698 0.551279
vt 0.523502 0.724502
vt 0.523502 1.119503
vt 0.375502 1.119503
vt 0.375502 0.724502
vt 0.478544 1.119503
vt 0.370544 1.119503
vt 0.370544 0.724502
vt 0.478544 0.724502
vt 0.348528 0.724502
vt 0.456528 0.724502
vt 0.456528 1.119502
vt 0.348528 1.119502
vt 0.026675 0.628826
vt 0.421675 0.628826
vt 0.421675 1.106825
vt 0.026675 1.106825
vt 0.423479 0.554545
vt 0.423479 1.032545
vt 0.028479 1.032545
vt 0.028479 0.554545
vt 0.400947 0.593464
vt 0.708947 0.593464
vt 0.708947 0.998464
vt 0.400947 0.998464
vt 0.415187 0.998552
vt 0.415186 0.593551
vt 0.813186 0.593551
vt 0.813186 0.998551
vt 0.519833 0.593551
vt 0.827833 0.593551
vt 0.827833 0.998551
vt 0.519833 0.998551
vt 0.534072 0.606286
vt 0.932072 0.606286
vt 0.932072 1.011286
vt 0.534072 1.011286
vt 0.600337 0.668223
vt 0.998337 0.668223
vt 0.600337 1.073223
vt 0.998337 1.073223
vt 0.798808 0.668224
vt 0.886809 0.668224
vt 0.886809 1.073223
vt 0.798808 1.073223
vt 1.084090 1.073223
vt 0.686090 0.668223
vt 1.084090 0.668223
vt 0.686090 1.073224
vt 0.972562 0.668226
vt 0.972562 1.073226
vt 0.884563 1.073226
vt 0.884563 0.668226
vt 0.597299 1.061692
vt 0.239299 1.061692
vt 0.239299 0.656692
vt 0.597299 0.656692
vt 0.904052 0.668226
vt 0.992052 0.668226
vt 0.992052 1.073225
vt 0.904052 1.073225
vt 0.299717 0.983641
vt 0.299716 0.578641
vt 0.657717 0.578641
vt 0.657717 0.983641
vt 0.563282 0.592168
vt 0.563282 0.997170
vt 0.475283 0.997170
vt 0.475283 0.592168
vt 1.129362 0.731771
vt 1.129362 1.136771
vt 0.821362 1.136771
vt 0.821362 0.731771
vt 0.718320 1.136771
vt 0.718320 0.731771
vt 1.116319 0.731771
vt 1.116319 1.136771
vt 1.013276 0.731769
vt 1.013276 1.136769
vt 0.705276 1.136769
vt 0.881636 0.731769
vt 0.705276 1.024954
vt 0.705276 0.731769
vt 1.000233 1.136769
vt 0.602234 1.136769
vt 0.602234 0.731769
vt 0.789896 0.731769
vt 1.000233 1.024955
vt 1.000233 0.731769
vt 0.878115 0.672817
vt 0.878115 1.070817
vt 0.746475 1.070817
vt 0.654762 0.961435
vt 0.570115 1.070817
vt 0.570115 0.672817
vt 0.570115 0.860479
vt 0.386701 0.396286
vt 0.475813 0.396286
vt 0.386701 0.485286
vt 0.475813 0.485286
vt 0.386701 0.945287
vt 0.655814 0.485286
vt 0.655814 0.396286
vt 0.744702 0.396286
vt 0.744702 0.485286
vt 0.655814 0.945287
vt 0.744702 0.945287
vt 0.475813 0.945287
vt 0.386701 1.034287
vt 0.475813 1.034287
vt 0.655814 1.034286
vt 0.744702 1.034286
vt 0.362287 0.080109
vt 0.422287 0.080109
vt 0.422287 0.169039
vt 0.362287 0.169039
vt 0.362287 0.459040
vt 0.422287 0.459040
vt 0.422287 0.549109
vt 0.362287 0.549109
vt 0.422287 0.639039
vt 0.020700 0.091743
vt 0.040765 0.080109
vt -0.030713 0.080109
vt -0.030713 0.121552
vt -0.119713 0.080109
vt -0.030713 0.459039
vt -0.030713 0.169039
vt -0.060787 0.138989
vt -0.119713 0.169039
vt -0.112614 0.169039
vt -0.119713 0.173155
vt -0.119713 0.459039
vt -0.030713 0.549109
vt -0.119713 0.549109
vt 0.362287 0.639039
vt -0.030713 0.639039
vt -0.119713 0.639039
vt -0.119713 0.929040
vt 0.362287 0.929040
vt 0.422287 0.929040
vt 0.422287 1.018109
vt 0.362287 1.018109
vt -0.030713 0.929040
vt -0.030713 1.018110
vt -0.119713 1.018110
vt 1.000929 0.214832
vt 1.089929 0.214832
vt 1.089929 0.303664
vt 1.000929 0.303664
vt 0.430928 0.214832
vt 1.000929 0.423664
vt 1.089929 0.423664
vt 1.089929 0.512833
vt 0.430928 0.303664
vt 0.341928 0.214832
vt 0.341928 0.303664
vt 0.341929 0.423664
vt 0.430929 0.423664
vt 1.000929 0.512833
vt 1.089929 0.524832
vt 0.430929 0.512833
vt 0.341929 0.512833
vt 1.000929 0.524832
vt 1.089929 0.613762
vt 0.430928 0.524832
vt 0.341928 0.524832
vt 1.000929 0.613762
vt 0.430928 0.613762
vt 0.341928 0.613762
vt 0.341929 0.903764
vt 1.000929 0.903764
vt 1.089929 0.903764
vt 1.089929 0.992833
vt 1.000929 0.992833
vt 0.430929 0.903764
vt 0.430929 0.992833
vt 0.341929 0.992833
vt 0.535486 0.346021
vt 0.624555 0.346021
vt 0.535486 0.435021
vt 0.624555 0.435021
vt 0.535486 1.005021
vt 0.914555 0.435021
vt 0.914555 0.346021
vt 1.003485 0.346021
vt 1.003485 0.435021
vt 0.914555 1.005021
vt 1.003485 1.005021
vt 0.624555 1.005021
vt 0.535486 1.094022
vt 0.624555 1.094022
vt 0.914555 1.094022
vt 1.003485 1.094022
vt 0.355782 0.306967
vt 0.355782 0.218135
vt 0.760681 0.217841
vt 0.760681 0.307126
vt 0.355682 0.426968
vt 0.760681 0.427126
vt 0.355682 0.516137
vt 0.760681 0.516441
vt 0.760681 0.527841
vt 0.355782 0.528136
vt 0.355782 0.617066
vt 0.760681 0.617132
vt 0.355682 0.907068
vt 0.760681 0.907133
vt 0.355681 0.996137
vt 0.760681 0.996442
vt 1.076354 1.042149
vt 0.671454 1.041834
vt 1.076354 0.952834
vt 0.671454 0.952834
vt 1.076354 0.922834
vt 1.076354 0.382834
vt 0.671454 0.382834
vt 1.076354 0.293537
vt 0.671454 0.293834
vt 0.421946 0.217842
vt 0.826846 0.218136
vt 0.421946 0.307126
vt 0.826846 0.306967
vt 0.826945 0.426967
vt 0.421946 0.427126
vt 0.826945 0.516137
vt 0.421946 0.516441
vt 0.421946 0.527841
vt 0.826846 0.528136
vt 0.421946 0.617132
vt 0.826846 0.617066
vt 0.826945 0.907067
vt 0.421946 0.907132
vt 0.421946 0.996441
vt 0.826946 0.996136
vt 1.170731 1.155907
vt 0.765731 1.156222
vt 0.765731 1.066907
vt 1.170730 1.066907
vt 0.765731 1.036907
vt 0.765731 0.496907
vt 1.170730 0.496906
vt 0.765731 0.407610
vt 1.170731 0.407906
vt 0.086826 0.718794
vt 0.086826 0.629863
vt 0.491726 0.629568
vt 0.491726 0.718859
vt 0.086726 1.008794
vt 0.491726 1.008859
vt 0.086725 1.097863
vt 0.491726 1.098168
vt 0.737718 0.382834
vt 0.737718 0.293834
vt 1.142618 0.293537
vt 1.142618 0.382834
vt 0.737718 0.952834
vt 1.142618 0.922834
vt 1.142618 0.952834
vt 0.737718 1.041834
vt 1.142618 1.042149
vt 0.557990 1.008794
vt 0.557990 1.097863
vt 0.152990 1.098168
vt 0.152990 1.008859
vt 0.152990 0.718859
vt 0.557890 0.718793
vt 0.557890 0.629863
vt 0.152990 0.629568
vt 1.010148 0.971987
vt 0.605147 0.972302
vt 0.605147 0.882986
vt 1.010146 0.882986
vt 0.605147 0.852987
vt 0.605147 0.312986
vt 1.010146 0.312986
vt 0.605147 0.223690
vt 1.010148 0.223986
vt 0.888905 0.392968
vt 0.888905 0.481968
vt 0.493905 0.392679
vt 0.493905 0.481968
vt 0.888905 0.941969
vt 0.493905 0.941969
vt 0.493905 1.031276
vt 0.888905 1.030969
vt 0.183092 0.733854
vt 0.272204 0.733854
vt 0.182795 1.128855
vt 0.272101 1.128855
vt 0.452102 1.128855
vt 0.452205 0.733955
vt 0.541380 1.128855
vt 0.541093 0.733955
vt 0.123930 1.128855
vt 0.124218 0.733954
vt 0.213209 1.128855
vt 0.213105 0.733954
vt 0.393106 0.733855
vt 0.393209 1.128855
vt 0.482219 0.733855
vt 0.482516 1.128855
vt 0.429743 0.485339
vt 0.429743 0.396032
vt 0.824643 0.396340
vt 0.824643 0.485339
vt 0.824643 0.945340
vt 0.429743 0.945340
vt 0.824643 1.034340
vt 0.429743 1.034629
vt 0.328262 0.103746
vt 0.328262 0.079449
vt 0.386613 0.079595
vt 0.386613 0.168783
vt 0.328262 0.168752
vt 0.386613 0.458783
vt 0.328262 0.458752
vt 0.386613 0.548743
vt 0.328262 0.548741
vt 0.328262 0.638752
vt 0.386613 0.638783
vt 0.386613 0.928784
vt 0.328262 0.928752
vt 0.328262 1.003746
vt 0.386613 1.017892
vt 0.328262 1.018034
vt 0.054893 0.079575
vt 0.388743 0.079722
vt 0.388743 0.168791
vt 0.054893 0.168760
vt 0.388643 0.458793
vt 0.054893 0.458762
vt 0.388693 0.548722
vt 0.054893 0.548720
vt 0.054893 0.638760
vt 0.388743 0.638791
vt 0.388643 0.928793
vt 0.054893 0.928761
vt 0.054893 1.017864
vt 0.388643 1.017722
vt 0.178820 1.017888
vt 0.120470 1.018034
vt 0.120470 0.993737
vt 0.178820 0.928700
vt 0.120470 0.928731
vt 0.181620 0.928699
vt 0.181620 1.017884
vt 0.178820 0.638699
vt 0.120470 0.638731
vt 0.120470 0.548742
vt 0.515470 0.928668
vt 0.515470 1.017738
vt 0.515370 0.638667
vt 0.181620 0.638698
vt 0.515420 0.548737
vt 0.181620 0.548739
vt 0.181620 0.458699
vt 0.515470 0.458667
vt 0.515372 0.172783
vt 0.178820 0.548739
vt 0.178820 0.458700
vt 0.120470 0.458731
vt 0.178820 0.168699
vt 0.120470 0.168731
vt 0.120470 0.079449
vt 0.178820 0.079591
vt 0.181620 0.079595
vt 0.181620 0.168698
vt 0.511983 0.171610
vt 0.515370 0.168666
vt 0.503488 0.168668
vt 0.463570 0.154842
vt 0.246385 0.079622
vt 0.515370 0.079737
vt 0.705834 0.407616
vt 0.764183 0.407768
vt 0.705834 0.617536
vt 0.766984 0.613772
vt 0.764183 0.673924
vt 0.766984 0.673924
vt 1.100734 0.613923
vt 1.100734 0.673924
vt 0.705834 1.066924
vt 1.100734 0.995445
vt 0.764183 1.066924
vt 1.060452 1.019492
vt 1.100734 1.066924
vt 0.764183 1.156071
vt 0.705834 1.156214
vt 0.766984 1.066924
vt 0.766984 1.156066
vt 0.980997 1.066924
vt 0.884094 1.124787
vt 0.831749 1.156039
vt 1.100734 1.155924
vt 0.699925 1.156060
vt 0.641575 1.156212
vt 0.641569 1.036901
vt 0.699925 0.889906
vt 0.699925 0.496907
vt 0.641575 0.496907
vt 0.641575 0.407618
vt 0.699925 0.407761
vt 0.702725 0.407765
vt 0.702725 0.496907
vt 1.036574 0.407907
vt 1.036574 0.496907
vt 1.036574 0.889906
vt 0.702725 0.889906
vt 0.702725 0.950056
vt 1.036574 0.949905
vt 0.164642 0.079554
vt 0.370656 0.079550
vt 0.164636 0.168662
vt 0.370650 0.168663
vt 0.164637 0.458676
vt 0.370650 0.458677
vt 0.164642 0.548720
vt 0.370656 0.548720
vt 0.164636 0.638683
vt 0.370650 0.638684
vt 0.164637 0.928697
vt 0.370650 0.928698
vt 0.164642 1.017887
vt 0.370656 1.017891
s 1
f 20/1/1 19/2/2 18/3/3
f 23/4/3 22/5/4 21/6/3
f 26/7/5 25/8/6 24/9/3
f 29/10/7 28/11/3 27/12/3
f 32/13/8 31/14/8 30/15/8
f 31/14/8 33/16/8 30/15/8
f 33/16/8 31/14/8 34/17/8
f 35/18/8 33/16/8 34/17/8
f 30/15/8 33/16/8 36/19/8
f 33/16/8 35/18/8 37/20/8
f 33/16/8 37/20/8 36/19/8
f 35/18/8 38/21/8 37/20/8
f 38/21/8 3/22/8 37/20/8
f 3/22/8 1/23/8 37/20/8
f 37/20/8 1/23/8 36/19/8
f 1/23/8 2/24/8 36/19/8
f 41/25/9 40/26/9 39/27/9
f 42/28/9 41/25/9 39/27/9
f 42/28/9 39/27/9 43/29/9
f 41/25/9 42/28/9 44/30/9
f 45/31/9 42/28/9 43/29/9
f 42/28/9 46/32/9 44/30/9
f 42/28/9 45/31/9 46/32/9
f 6/33/9 45/31/9 43/29/9
f 7/34/9 6/33/9 43/29/9
f 45/31/9 6/33/9 8/35/9
f 47/36/9 45/31/9 8/35/9
f 45/31/9 47/36/9 46/32/9
f 47/36/9 8/35/9 48/37/9
f 46/32/9 47/36/9 48/37/9
f 8/35/9 9/38/9 48/37/9
f 9/38/9 10/39/9 48/37/9
f 44/30/9 46/32/9 49/40/9
f 46/32/9 48/37/9 49/40/9
f 50/41/9 44/30/9 49/40/9
f 51/42/9 50/41/9 49/40/9
f 52/43/9 51/42/9 49/40/9
f 52/43/9 49/40/9 48/37/9
f 53/44/9 51/42/9 52/43/9
f 10/39/9 54/45/9 48/37/9
f 54/45/9 52/43/9 48/37/9
f 55/46/9 52/43/9 54/45/9
f 56/47/9 55/46/9 54/45/9
f 53/44/9 57/48/9 56/47/9
f 57/48/9 53/44/9 52/43/9
f 55/46/9 57/48/9 52/43/9
f 55/46/9 56/47/9 57/48/9
f 58/49/9 53/44/9 56/47/9
f 59/50/9 58/49/9 56/47/9
f 60/51/9 54/45/9 10/39/9
f 60/51/9 56/47/9 54/45/9
f 59/50/9 56/47/9 60/51/9
f 11/52/9 60/51/9 10/39/9
f 61/53/9 59/50/9 60/51/9
f 61/53/9 60/51/9 11/52/9
f 12/54/9 61/53/9 11/52/9
f 64/55/3 63/56/3 62/57/3
f 63/56/3 65/58/3 62/57/3
f 62/57/3 65/58/3 66/59/3
f 65/58/3 67/60/3 66/59/3
f 67/60/3 68/61/3 66/59/3
f 68/61/3 69/62/3 66/59/3
f 67/60/3 65/58/3 70/63/3
f 68/61/3 67/60/3 70/63/3
f 65/58/3 71/64/3 70/63/3
f 72/65/3 68/61/3 70/63/3
f 75/66/10 74/67/10 73/68/10
f 74/67/10 76/69/10 73/68/10
f 76/69/10 74/67/10 77/70/10
f 78/71/10 76/69/10 77/70/10
f 78/71/10 77/70/10 79/72/10
f 76/69/10 78/71/10 80/73/10
f 81/74/10 78/71/10 79/72/10
f 78/71/10 82/75/10 80/73/10
f 78/71/10 81/74/10 82/75/10
f 81/74/10 83/76/10 82/75/10
f 86/77/10 85/78/10 84/79/10
f 87/80/10 86/77/10 84/79/10
f 90/81/11 89/82/11 88/83/11
f 91/84/11 90/81/11 88/83/11
f 90/81/11 91/84/11 92/85/11
f 93/86/11 90/81/11 92/85/11
f 93/86/11 92/85/11 94/87/12
f 92/85/11 95/88/12 94/87/12
f 95/88/12 96/89/10 94/87/12
f 99/90/13 98/91/8 97/92/13
f 100/93/11 99/90/13 97/92/13
f 101/94/11 100/93/11 97/92/13
f 102/95/11 100/93/11 101/94/11
f 103/96/11 102/95/11 101/94/11
f 106/97/8 105/98/8 104/99/8
f 105/98/8 107/100/8 104/99/8
f 104/99/8 107/100/8 108/101/8
f 105/98/8 109/102/8 107/100/8
f 107/100/8 110/103/8 108/101/8
f 109/102/8 111/104/8 107/100/8
f 107/100/8 111/104/8 110/103/8
f 109/102/8 17/105/8 111/104/8
f 111/104/8 112/106/8 110/103/8
f 17/105/8 16/107/8 111/104/8
f 111/104/8 16/107/8 112/106/8
f 16/107/8 15/108/8 112/106/8
f 115/109/10 114/110/10 113/111/10
f 116/112/10 115/109/10 113/111/10
f 117/113/10 115/109/10 116/112/10
f 118/114/10 117/113/10 116/112/10
f 121/115/11 120/116/11 119/117/11
f 122/118/11 121/115/11 119/117/11
f 123/119/11 121/115/11 122/118/11
f 124/120/11 123/119/11 122/118/11
f 127/121/3 126/122/3 125/123/3
f 128/124/3 127/121/3 125/123/3
f 128/124/3 125/123/3 129/125/3
f 125/123/3 130/126/3 129/125/3
f 133/127/3 132/128/3 131/129/3
f 134/130/3 133/127/3 131/129/3
f 135/131/3 133/127/3 134/130/3
f 136/132/3 135/131/3 134/130/3
f 139/133/3 138/134/3 137/135/14
f 140/136/3 139/133/3 137/135/14
f 141/137/3 139/133/3 140/136/3
f 140/136/3 142/138/3 141/137/3
f 141/137/3 143/139/3 139/133/3
f 14/140/3 143/139/3 141/137/3
f 13/141/3 14/140/3 141/137/3
f 146/142/9 145/143/9 144/144/9
f 145/143/9 147/145/9 144/144/9
f 144/144/9 147/145/9 148/146/9
f 148/146/9 149/147/9 144/144/9
f 148/146/9 150/148/9 149/147/9
f 150/148/9 148/146/9 4/149/9
f 148/146/9 5/150/9 4/149/9
f 153/151/10 152/152/10 151/153/10
f 153/151/10 151/153/10 154/154/10
f 153/151/10 154/154/10 155/155/10
f 153/151/10 155/155/10 156/156/10
f 157/157/10 153/151/10 156/156/10
f 156/156/10 158/158/10 157/157/10
f 156/156/10 159/159/10 158/158/10
f 158/158/10 159/159/10 160/160/10
f 161/161/10 158/158/10 160/160/10
f 160/160/10 162/162/10 161/161/10
f 162/162/10 163/163/10 161/161/10
f 163/163/10 164/164/10 161/161/10
f 163/163/10 165/165/10 164/164/10
f 165/165/10 166/166/10 164/164/10
f 166/166/10 167/167/10 164/164/10
f 167/167/10 168/168/10 164/164/10
f 153/151/10 169/169/10 152/152/10
f 153/151/10 170/170/10 169/169/10
f 153/151/10 171/171/10 170/170/10
f 153/151/10 172/172/15 171/171/10
f 153/151/10 173/173/10 172/172/15
f 153/151/10 174/174/10 173/173/10
f 175/175/10 173/173/10 174/174/10
f 175/175/10 174/174/10 164/164/10
f 176/176/10 175/175/10 164/164/10
f 177/177/10 176/176/10 164/164/10
f 178/178/10 177/177/10 164/164/10
f 168/168/10 178/178/10 164/164/10
f 181/179/10 180/180/10 179/181/15
f 179/181/15 182/182/10 181/179/10
f 183/183/10 182/182/10 179/181/15
f 183/183/10 179/181/15 184/184/10
f 183/183/10 185/185/15 182/182/10
f 183/183/10 184/184/10 186/186/10
f 186/186/10 187/187/10 183/183/10
f 183/183/10 188/188/10 185/185/15
f 189/189/10 187/187/10 186/186/10
f 186/186/10 190/190/10 189/189/10
f 185/185/15 188/188/10 191/191/10
f 191/191/10 192/192/10 185/185/15
f 183/183/10 193/193/1 188/188/10
f 190/190/10 194/194/10 189/189/10
f 190/190/10 195/195/10 194/194/10
f 195/195/10 183/183/10 194/194/10
f 183/183/10 195/195/10 196/196/10
f 183/183/10 196/196/10 193/193/1
f 193/193/1 196/196/10 197/197/10
f 197/197/10 198/198/10 193/193/1
f 199/199/10 183/183/10 187/187/10
f 199/199/10 200/200/10 183/183/10
f 200/200/10 201/201/10 183/183/10
f 201/201/10 200/200/10 202/202/10
f 201/201/10 202/202/10 203/203/10
f 203/203/10 199/199/10 187/187/10
f 203/203/10 204/204/10 201/201/10
f 187/187/10 204/204/10 203/203/10
f 205/205/10 187/187/10 189/189/10
f 205/205/10 206/206/10 187/187/10
f 204/204/10 187/187/10 206/206/10
f 207/207/10 205/205/10 189/189/10
f 204/204/10 206/206/10 208/208/15
f 209/209/10 207/207/10 189/189/10
f 210/210/10 209/209/10 189/189/10
f 211/211/10 210/210/10 189/189/10
f 204/204/10 208/208/15 212/212/10
f 211/211/10 189/189/10 213/213/10
f 214/214/10 211/211/10 213/213/10
f 215/215/10 214/214/10 213/213/10
f 204/204/10 212/212/10 216/216/10
f 204/204/10 216/216/10 217/217/10
f 213/213/10 218/218/10 215/215/10
f 218/218/10 219/219/10 215/215/10
f 204/204/10 217/217/10 220/220/10
f 220/220/10 219/219/10 218/218/10
f 221/221/10 204/204/10 220/220/10
f 220/220/10 218/218/10 221/221/10
f 18/3/3 222/222/16 20/1/1
f 223/223/3 222/222/16 18/3/3
f 223/223/3 18/3/3 224/224/3
f 224/224/3 225/225/3 223/223/3
f 226/226/3 222/222/16 223/223/3
f 227/227/3 223/223/3 225/225/3
f 223/223/3 228/228/3 226/226/3
f 225/225/3 229/229/3 227/227/3
f 228/228/3 230/230/3 226/226/3
f 230/230/3 231/231/3 226/226/3
f 229/229/3 232/232/3 227/227/3
f 229/229/3 233/233/3 232/232/3
f 233/233/3 234/234/3 232/232/3
f 234/234/3 235/235/3 232/232/3
f 234/234/3 236/236/3 235/235/3
f 231/231/3 230/230/3 237/237/3
f 230/230/3 238/238/3 237/237/3
f 238/238/3 239/239/17 237/237/3
f 239/239/17 240/240/3 237/237/3
f 236/236/3 241/241/3 235/235/3
f 236/236/3 242/242/3 241/241/3
f 24/9/3 241/241/3 242/242/3
f 24/9/3 242/242/3 26/7/5
f 24/9/3 243/243/3 241/241/3
f 244/244/3 243/243/3 240/240/3
f 243/243/3 21/6/3 240/240/3
f 21/6/3 243/243/3 24/9/3
f 21/6/3 24/9/3 23/4/3
f 244/244/3 240/240/3 239/239/17
f 244/244/3 239/239/17 245/245/3
f 245/245/3 246/246/3 244/244/3
f 244/244/3 246/246/3 247/247/3
f 247/247/3 248/248/3 244/244/3
f 248/248/3 247/247/3 249/249/3
f 248/248/3 249/249/3 250/250/3
f 251/251/3 246/246/3 245/245/3
f 250/250/3 249/249/3 251/251/3
f 252/252/3 251/251/3 245/245/3
f 251/251/3 253/253/3 250/250/3
f 251/251/3 252/252/3 253/253/3
f 254/254/3 253/253/3 252/252/3
f 248/248/3 250/250/3 255/255/3
f 256/256/3 254/254/3 252/252/3
f 255/255/3 257/257/3 248/248/3
f 257/257/3 255/255/3 258/258/3
f 257/257/3 258/258/3 259/259/3
f 257/257/3 259/259/3 260/260/3
f 258/258/3 261/261/3 259/259/3
f 261/261/3 258/258/3 254/254/3
f 261/261/3 254/254/3 256/256/3
f 261/261/3 256/256/3 262/262/3
f 256/256/3 263/263/3 262/262/3
f 263/263/3 260/260/3 262/262/3
f 260/260/3 263/263/3 264/264/3
f 264/264/3 257/257/3 260/260/3
f 265/265/3 257/257/3 264/264/3
f 264/264/3 266/266/3 265/265/3
f 264/264/3 267/267/3 266/266/3
f 265/265/3 268/268/3 257/257/3
f 269/269/3 267/267/3 264/264/3
f 269/269/3 264/264/3 270/270/3
f 268/268/3 271/271/3 257/257/3
f 271/271/3 272/272/3 257/257/3
f 270/270/3 273/273/3 269/269/3
f 257/257/3 272/272/3 274/274/3
f 273/273/3 275/275/3 269/269/3
f 273/273/3 276/276/3 275/275/3
f 273/273/3 277/277/3 276/276/3
f 277/277/3 273/273/3 278/278/3
f 274/274/3 248/248/3 257/257/3
f 278/278/3 27/12/3 277/277/3
f 27/12/3 274/274/3 29/10/7
f 278/278/3 279/279/3 27/12/3
f 279/279/3 274/274/3 27/12/3
f 278/278/3 280/280/3 279/279/3
f 280/280/3 278/278/3 248/248/3
f 274/274/3 279/279/3 281/281/3
f 274/274/3 281/281/3 248/248/3
f 282/282/3 280/280/3 248/248/3
f 281/281/3 282/282/3 248/248/3
f 285/283/10 284/284/10 283/285/10
f 286/286/10 285/283/10 283/285/10
f 286/286/10 287/287/10 285/283/10
f 285/283/10 287/287/10 288/288/10
f 287/287/10 289/289/10 288/288/10
f 285/283/10 288/288/10 290/290/10
f 288/288/10 291/291/10 290/290/10
f 294/292/11 293/293/11 292/294/11
f 295/295/11 294/292/11 292/294/11
f 298/296/8 297/297/8 296/298/8
f 297/297/8 299/299/8 296/298/8
f 296/298/8 299/299/8 300/300/8
f 301/301/8 300/300/8 299/299/8
f 302/302/8 301/301/8 299/299/8
f 302/302/8 299/299/8 303/303/8
f 304/304/10 302/302/8 303/303/8
f 307/305/3 306/306/3 305/307/3
f 308/308/3 307/305/3 305/307/3
f 309/309/3 307/305/3 308/308/3
f 310/310/3 309/309/3 308/308/3
f 313/311/3 312/312/3 311/313/3
f 314/314/3 313/311/3 311/313/3
f 317/315/8 316/316/8 315/317/8
f 318/318/8 317/315/8 315/317/8
f 321/319/10 320/320/10 319/321/10
f 322/322/10 321/319/10 319/321/10
f 325/323/10 324/324/10 323/325/10
f 326/326/10 325/323/10 323/325/10
f 329/327/3 328/328/3 327/329/3
f 330/330/3 329/327/3 327/329/3
f 333/331/3 332/332/3 331/333/3
f 334/334/3 333/331/3 331/333/3
f 337/335/3 336/336/3 335/337/3
f 338/338/3 337/335/3 335/337/3
f 341/339/10 340/340/10 339/341/10
f 342/342/10 341/339/10 339/341/10
f 345/343/10 344/344/10 343/345/10
f 346/346/10 345/343/10 343/345/10
f 349/347/10 348/348/10 347/349/10
f 350/350/10 349/347/10 347/349/10
f 353/351/10 352/352/10 351/353/10
f 354/354/10 353/351/10 351/353/10
f 357/355/11 356/356/11 355/357/11
f 358/358/11 357/355/11 355/357/11
f 361/359/3 360/360/3 359/361/3
f 362/362/3 361/359/3 359/361/3
f 365/363/18 364/364/18 363/365/18
f 366/366/18 365/363/18 363/365/18
f 369/367/9 368/368/9 367/369/9
f 370/370/9 369/367/9 367/369/9
f 373/371/11 372/372/11 371/373/11
f 374/374/11 373/371/11 371/373/11
f 377/375/3 376/376/3 375/377/3
f 378/378/3 377/375/3 375/377/3
f 381/379/18 380/380/18 379/381/18
f 382/382/18 381/379/18 379/381/18
f 385/383/9 384/384/9 383/385/9
f 386/386/9 385/383/9 383/385/9
f 389/387/11 388/388/11 387/389/11
f 390/390/11 389/387/11 387/389/11
f 393/391/3 392/392/3 391/393/3
f 394/394/3 393/391/3 391/393/3
f 397/395/18 396/396/18 395/397/18
f 398/398/18 397/395/18 395/397/18
f 401/399/9 400/400/9 399/401/9
f 402/402/9 401/399/9 399/401/9
f 405/403/11 404/404/11 403/405/11
f 406/406/11 405/403/11 403/405/11
f 409/407/3 408/408/3 407/409/3
f 410/410/3 409/407/3 407/409/3
f 413/411/18 412/412/18 411/413/18
f 414/414/18 413/411/18 411/413/18
f 417/415/9 416/416/9 415/417/9
f 418/418/9 417/415/9 415/417/9
f 421/419/3 420/420/3 419/421/3
f 422/422/3 421/419/3 419/421/3
f 425/423/9 424/424/9 423/425/9
f 426/426/9 425/423/9 423/425/9
f 429/427/11 428/428/11 427/429/11
f 430/430/11 429/427/11 427/429/11
f 433/431/18 432/432/18 431/433/18
f 434/434/18 433/431/18 431/433/18
f 437/435/10 436/436/10 435/437/10
f 435/437/10 438/438/10 437/435/10
f 441/439/11 440/440/11 439/441/11
f 439/441/11 442/442/11 441/439/11
f 445/443/8 444/444/8 443/445/8
f 443/445/8 446/446/8 445/443/8
f 449/447/18 448/448/18 447/449/18
f 447/449/18 450/450/18 449/447/18
f 453/451/11 452/452/11 451/453/11
f 452/452/11 454/454/11 451/453/11
f 457/455/8 456/456/8 455/457/8
f 458/458/8 457/455/8 455/457/8
f 461/459/18 460/460/18 459/461/18
f 461/459/18 462/462/18 460/460/18
f 465/463/10 464/464/10 463/465/10
f 466/466/10 465/463/10 463/465/10
f 469/467/11 468/468/11 467/469/11
f 470/470/11 469/467/11 467/469/11
f 473/471/8 472/472/8 471/473/8
f 474/474/8 473/471/8 471/473/8
f 477/475/18 476/476/18 475/477/18
f 478/478/18 477/475/18 475/477/18
f 481/479/10 480/480/10 479/481/10
f 482/482/10 481/479/10 479/481/10
f 485/483/8 484/484/8 483/485/8
f 486/486/8 485/483/8 483/485/8
f 489/487/11 488/488/11 487/489/11
f 487/489/11 490/490/11 489/487/11
f 493/491/10 492/492/10 491/493/10
f 494/494/10 493/491/10 491/493/10
f 495/495/10 494/494/10 491/493/10
f 495/495/10 496/496/10 494/494/10
f 499/497/18 498/498/18 497/499/18
f 497/499/18 500/500/18 499/497/18
f 500/500/18 501/501/18 499/497/18
f 500/500/18 502/502/18 501/501/18
f 505/503/3 504/504/3 503/505/3
f 506/506/3 505/503/3 503/505/3
f 506/506/3 503/505/3 507/507/3
f 508/508/3 505/503/3 506/506/3
f 509/509/3 506/506/3 507/507/3
f 509/509/3 508/508/3 506/506/3
f 276/276/3 277/277/3 27/12/3
f 512/510/3 511/511/19 510/512/3
f 511/511/19 513/513/19 510/512/3
f 514/514/3 510/512/3 513/513/19
f 513/513/19 511/511/19 515/515/19
f 511/511/19 516/516/19 515/515/19
f 516/516/19 517/517/3 515/515/19
f 517/517/3 518/518/3 515/515/19
f 519/519/19 515/515/19 518/518/3
f 513/513/19 515/515/19 519/519/19
f 520/520/3 519/519/19 518/518/3
f 521/521/19 514/514/3 513/513/19
f 521/521/19 513/513/19 519/519/19
f 514/514/3 521/521/19 522/522/3
f 521/521/19 523/523/19 522/522/3
f 524/524/19 523/523/19 521/521/19
f 519/519/19 524/524/19 521/521/19
f 519/519/19 520/520/3 524/524/19
f 520/520/3 525/525/3 524/524/19
f 528/526/3 527/527/3 526/528/20
f 529/529/20 528/526/3 526/528/20
f 529/529/20 526/528/20 530/530/21
f 526/528/20 531/531/21 530/530/21
f 530/530/21 531/531/21 532/532/22
f 533/533/22 530/530/21 532/532/22
f 533/533/22 532/532/22 534/534/21
f 528/526/3 529/529/20 535/535/3
f 536/536/3 528/526/3 535/535/3
f 536/536/3 535/535/3 537/537/3
f 535/535/3 538/538/3 537/537/3
f 535/535/3 529/529/20 538/538/3
f 539/539/3 537/537/3 538/538/3
f 530/530/21 540/540/21 529/529/20
f 530/530/21 533/533/22 540/540/21
f 529/529/20 541/541/20 538/538/3
f 540/540/21 541/541/20 529/529/20
f 542/542/3 539/539/3 538/538/3
f 542/542/3 538/538/3 541/541/20
f 543/543/23 539/539/3 542/542/3
f 544/544/23 543/543/23 542/542/3
f 544/544/23 542/542/3 541/541/20
f 545/545/24 543/543/23 544/544/23
f 545/545/24 544/544/23 541/541/20
f 546/546/21 545/545/24 541/541/20
f 540/540/21 546/546/21 541/541/20
f 546/546/21 540/540/21 547/547/22
f 533/533/22 547/547/22 540/540/21
f 548/548/22 546/546/21 547/547/22
f 547/547/22 533/533/22 549/549/21
f 549/549/21 533/533/22 534/534/21
f 548/548/22 547/547/22 550/550/21
f 550/550/21 547/547/22 549/549/21
f 551/551/21 548/548/22 550/550/21
f 552/552/20 551/551/21 550/550/21
f 549/549/21 534/534/21 553/553/20
f 534/534/21 554/554/20 553/553/20
f 553/553/20 554/554/20 555/555/3
f 556/556/3 553/553/20 555/555/3
f 557/557/20 550/550/21 549/549/21
f 553/553/20 557/557/20 549/549/21
f 553/553/20 556/556/3 557/557/20
f 557/557/20 552/552/20 550/550/21
f 556/556/3 558/558/3 557/557/20
f 552/552/20 557/557/20 558/558/3
f 559/559/3 552/552/20 558/558/3
f 562/560/10 561/561/10 560/562/25
f 563/563/25 562/560/10 560/562/25
f 562/560/10 563/563/25 564/564/10
f 563/563/25 560/562/25 565/565/25
f 560/562/25 566/566/25 565/565/25
f 565/565/25 566/566/25 567/567/26
f 563/563/25 568/568/25 564/564/10
f 569/569/10 564/564/10 568/568/25
f 570/570/25 569/569/10 568/568/25
f 570/570/25 568/568/25 571/571/25
f 572/572/25 568/568/25 563/563/25
f 565/565/25 572/572/25 563/563/25
f 568/568/25 572/572/25 571/571/25
f 573/573/26 565/565/25 567/567/26
f 565/565/25 573/573/26 572/572/25
f 567/567/26 574/574/26 573/573/26
f 571/571/25 572/572/25 575/575/26
f 573/573/26 575/575/26 572/572/25
f 576/576/26 571/571/25 575/575/26
f 574/574/26 577/577/26 573/573/26
f 575/575/26 573/573/26 577/577/26
f 577/577/26 574/574/26 578/578/27
f 575/575/26 579/579/26 576/576/26
f 579/579/26 575/575/26 577/577/26
f 579/579/26 580/580/26 576/576/26
f 581/581/27 577/577/26 578/578/27
f 577/577/26 581/581/27 579/579/26
f 580/580/26 579/579/26 582/582/27
f 581/581/27 582/582/27 579/579/26
f 583/583/27 580/580/26 582/582/27
f 583/583/27 582/582/27 584/584/27
f 581/581/27 578/578/27 585/585/27
f 578/578/27 586/586/27 585/585/27
f 585/585/27 586/586/27 587/587/10
f 588/588/10 585/585/27 587/587/10
f 589/589/27 582/582/27 581/581/27
f 585/585/27 589/589/27 581/581/27
f 585/585/27 588/588/10 589/589/27
f 582/582/27 589/589/27 584/584/27
f 588/588/10 590/590/10 589/589/27
f 584/584/27 589/589/27 590/590/10
f 591/591/10 584/584/27 590/590/10
f 594/592/10 593/593/27 592/594/10
f 593/593/27 595/595/27 592/594/10
f 596/596/10 592/594/10 595/595/27
f 597/597/27 595/595/27 593/593/27
f 598/598/27 597/597/27 593/593/27
f 598/598/27 599/599/10 597/597/27
f 599/599/10 600/600/10 597/597/27
f 601/601/27 597/597/27 600/600/10
f 595/595/27 597/597/27 601/601/27
f 602/602/10 601/601/27 600/600/10
f 603/603/27 596/596/10 595/595/27
f 603/603/27 595/595/27 601/601/27
f 596/596/10 603/603/27 604/604/10
f 603/603/27 605/605/27 604/604/10
f 606/606/27 605/605/27 603/603/27
f 601/601/27 606/606/27 603/603/27
f 601/601/27 602/602/10 606/606/27
f 602/602/10 607/607/10 606/606/27
f 610/608/28 609/609/28 608/610/29
f 611/611/29 610/608/28 608/610/29
f 610/608/28 611/611/29 612/612/30
f 611/611/29 613/613/28 612/612/30
f 614/614/28 612/612/30 613/613/28
f 615/615/31 614/614/28 613/613/28
f 615/615/31 616/616/28 614/614/28
f 616/616/28 617/617/28 614/614/28
f 618/618/28 617/617/28 616/616/28
f 619/619/29 618/618/28 616/616/28
f 618/618/28 619/619/29 620/620/30
f 619/619/29 621/621/28 620/620/30
f 622/622/30 620/620/30 621/621/28
f 623/623/31 622/622/30 621/621/28
f 626/624/32 625/625/33 624/626/34
f 625/625/33 627/627/33 624/626/34
f 628/628/33 624/626/34 627/627/33
f 629/629/35 628/628/33 627/627/33
f 627/627/33 630/630/33 629/629/35
f 629/629/35 630/630/33 631/631/36
f 630/630/33 632/632/37 631/631/36
f 635/633/38 634/634/39 633/635/40
f 634/634/39 636/636/39 633/635/40
f 633/635/40 636/636/39 637/637/39
f 638/638/41 633/635/40 637/637/39
f 637/637/39 639/639/42 638/638/41
f 639/639/42 640/640/43 638/638/41
f 641/641/44 640/640/43 639/639/42
f 642/642/42 641/641/44 639/639/42
f 641/641/44 642/642/42 643/643/40
f 642/642/42 644/644/39 643/643/40
f 643/643/40 644/644/39 645/645/39
f 646/646/45 643/643/40 645/645/39
f 646/646/45 645/645/39 647/647/46
f 645/645/39 648/648/42 647/647/46
f 651/649/47 650/650/48 649/651/47
f 652/652/47 651/649/47 649/651/47
f 652/652/47 649/651/47 653/653/47
f 652/652/47 653/653/47 654/654/49
f 654/654/49 655/655/47 652/652/47
f 655/655/47 654/654/49 656/656/49
f 657/657/50 655/655/47 656/656/49
f 660/658/28 659/659/28 658/660/29
f 661/661/29 660/658/28 658/660/29
f 660/658/28 661/661/29 662/662/30
f 661/661/29 663/663/28 662/662/30
f 664/664/30 662/662/30 663/663/28
f 665/665/31 664/664/30 663/663/28
f 668/666/51 667/667/52 666/668/36
f 669/669/35 668/666/51 666/668/36
f 670/670/34 668/666/51 669/669/35
f 669/669/35 671/671/33 670/670/34
f 671/671/33 672/672/53 670/670/34
f 673/673/34 670/670/34 672/672/53
f 674/674/32 673/673/34 672/672/53
f 677/675/39 676/676/42 675/677/46
f 678/678/45 677/675/39 675/677/46
f 678/678/45 679/679/40 677/675/39
f 679/679/40 680/680/39 677/675/39
f 681/681/39 680/680/39 679/679/40
f 682/682/38 681/681/39 679/679/40
f 685/683/47 684/684/54 683/685/47
f 686/686/47 685/683/47 683/685/47
f 686/686/47 683/685/47 687/687/47
f 686/686/47 687/687/47 688/688/49
f 688/688/49 689/689/47 686/686/47
f 689/689/47 688/688/49 690/690/49
f 691/691/47 689/689/47 690/690/49
f 694/692/55 693/693/55 692/694/56
f 693/693/55 695/695/56 692/694/56
f 695/695/56 693/693/55 696/696/55
f 697/697/57 695/695/56 696/696/55
f 698/698/57 697/697/57 696/696/55
f 696/696/55 699/699/55 698/698/57
f 702/700/58 701/701/59 700/702/60
f 701/701/59 703/703/60 700/702/60
f 704/704/61 703/703/60 701/701/59
f 705/705/59 704/704/61 701/701/59
f 704/704/61 705/705/59 706/706/61
f 705/705/59 707/707/58 706/706/61
f 710/708/62 709/709/63 708/710/64
f 709/709/63 711/711/63 708/710/64
f 708/710/64 711/711/63 712/712/63
f 713/713/65 708/710/64 712/712/63
f 712/712/63 714/714/63 713/713/65
f 714/714/63 715/715/66 713/713/65
f 718/716/67 717/717/68 716/718/69
f 716/718/69 719/719/69 718/716/67
f 718/716/67 719/719/69 720/720/69
f 721/721/70 718/716/67 720/720/69
f 720/720/69 722/722/69 721/721/70
f 722/722/69 723/723/71 721/721/70
f 726/724/72 725/725/73 724/726/72
f 724/726/72 727/727/72 726/724/72
f 727/727/72 728/728/72 726/724/72
f 728/728/72 727/727/72 729/729/74
f 730/730/74 728/728/72 729/729/74
f 729/729/74 731/731/73 730/730/74
f 731/731/73 732/732/73 730/730/74
f 732/732/73 731/731/73 733/733/72
f 731/731/73 734/734/72 733/733/72
f 733/733/72 734/734/72 735/735/74
f 736/736/74 733/733/72 735/735/74
f 737/737/74 736/736/74 735/735/74
f 735/735/74 738/738/74 737/737/74
f 738/738/74 739/739/73 737/737/74
f 742/740/75 741/741/76 740/742/76
f 743/743/75 742/740/75 740/742/76
f 743/743/75 740/742/76 744/744/76
f 745/745/77 743/743/75 744/744/76
f 744/744/76 746/746/76 745/745/77
f 746/746/76 747/747/76 745/745/77
f 747/747/76 746/746/76 748/748/75
f 746/746/76 749/749/76 748/748/75
f 748/748/75 749/749/76 750/750/78
f 751/751/77 748/748/75 750/750/78
f 752/752/79 751/751/77 750/750/78
f 753/753/78 752/752/79 750/750/78
f 756/754/80 755/755/81 754/756/82
f 754/756/82 757/757/83 756/754/80
f 754/756/82 758/758/84 757/757/83
f 756/754/80 757/757/83 759/759/85
f 760/760/85 756/754/80 759/759/85
f 761/761/86 757/757/83 758/758/84
f 762/762/87 761/761/86 758/758/84
f 761/761/86 762/762/87 763/763/88
f 760/760/85 759/759/85 764/764/89
f 765/765/89 760/760/85 764/764/89
f 766/766/89 764/764/89 759/759/85
f 759/759/85 757/757/83 767/767/90
f 767/767/90 766/766/89 759/759/85
f 757/757/83 761/761/86 767/767/90
f 766/766/89 767/767/90 768/768/89
f 767/767/90 761/761/86 769/769/91
f 767/767/90 769/769/91 768/768/89
f 769/769/91 770/770/91 768/768/89
f 770/770/91 771/771/89 768/768/89
f 772/772/90 771/771/89 770/770/91
f 761/761/86 773/773/92 769/769/91
f 773/773/92 761/761/86 763/763/88
f 769/769/91 773/773/92 770/770/91
f 774/774/83 773/773/92 763/763/88
f 773/773/92 774/774/83 770/770/91
f 775/775/84 774/774/83 763/763/88
f 776/776/86 774/774/83 775/775/84
f 777/777/87 776/776/86 775/775/84
f 776/776/86 777/777/87 778/778/93
f 778/778/93 779/779/94 776/776/86
f 776/776/86 779/779/94 780/780/90
f 774/774/83 776/776/86 781/781/90
f 770/770/91 774/774/83 781/781/90
f 781/781/90 776/776/86 780/780/90
f 782/782/95 772/772/90 770/770/91
f 782/782/95 783/783/85 772/772/90
f 781/781/90 784/784/96 770/770/91
f 784/784/96 782/782/95 770/770/91
f 784/784/96 781/781/90 780/780/90
f 784/784/96 783/783/85 782/782/95
f 785/785/97 784/784/96 780/780/90
f 785/785/97 783/783/85 784/784/96
f 786/786/98 785/785/97 780/780/90
f 787/787/89 783/783/85 785/785/97
f 786/786/98 787/787/89 785/785/97
f 790/788/99 789/789/100 788/790/101
f 789/789/100 791/791/102 788/790/101
f 791/791/102 792/792/103 788/790/101
f 793/793/102 792/792/103 791/791/102
f 793/793/102 791/791/102 794/794/104
f 795/795/104 793/793/102 794/794/104
f 792/792/103 796/796/105 788/790/101
f 793/793/102 795/795/104 797/797/106
f 792/792/103 798/798/107 796/796/105
f 798/798/107 792/792/103 793/793/102
f 799/799/104 793/793/102 797/797/106
f 799/799/104 797/797/106 800/800/104
f 798/798/107 801/801/108 796/796/105
f 801/801/108 802/802/109 796/796/105
f 803/803/110 798/798/107 793/793/102
f 801/801/108 798/798/107 803/803/110
f 803/803/110 793/793/102 799/799/104
f 804/804/111 801/801/108 803/803/110
f 805/805/104 803/803/110 799/799/104
f 804/804/111 803/803/110 805/805/104
f 805/805/104 799/799/104 800/800/104
f 806/806/112 804/804/111 805/805/104
f 806/806/112 805/805/104 800/800/104
f 807/807/113 804/804/111 806/806/112
f 807/807/113 806/806/112 800/800/104
f 808/808/104 807/807/113 800/800/104
f 811/809/114 810/810/115 809/811/116
f 812/812/117 811/809/114 809/811/116
f 813/813/117 812/812/117 809/811/116
f 809/811/116 814/814/118 813/813/117
f 813/813/117 814/814/118 815/815/116
f 816/816/119 813/813/117 815/815/116
f 813/813/117 816/816/119 817/817/120
f 818/818/27 813/813/117 817/817/120
f 812/812/117 813/813/117 818/818/27
f 818/818/27 817/817/120 819/819/121
f 820/820/121 818/818/27 819/819/121
f 818/818/27 820/820/121 821/821/25
f 811/809/114 812/812/117 822/822/122
f 822/822/122 812/812/117 818/818/27
f 822/822/122 818/818/27 821/821/25
f 823/823/123 811/809/114 822/822/122
f 821/821/25 824/824/25 822/822/122
f 824/824/25 823/823/123 822/822/122
f 827/825/124 826/826/124 825/827/124
f 826/826/124 828/828/124 825/827/124
f 825/827/124 828/828/124 829/829/124
f 828/828/124 830/830/124 829/829/124
f 829/829/124 830/830/124 831/831/124
f 830/830/124 832/832/124 831/831/124
f 831/831/124 832/832/124 833/833/124
f 832/832/124 834/834/124 833/833/124
f 833/833/124 834/834/124 835/835/124
f 834/834/124 836/836/124 835/835/124
f 835/835/124 836/836/124 837/837/124
f 836/836/124 838/838/124 837/837/124
f 20/1/1 19/2/2 18/3/3
f 23/4/3 22/5/4 21/6/3
f 26/7/5 25/8/6 24/9/3
f 29/10/7 28/11/3 27/12/3
f 32/13/8 31/14/8 30/15/8
f 31/14/8 33/16/8 30/15/8
f 33/16/8 31/14/8 34/17/8
f 35/18/8 33/16/8 34/17/8
f 30/15/8 33/16/8 36/19/8
f 33/16/8 35/18/8 37/20/8
f 33/16/8 37/20/8 36/19/8
f 35/18/8 38/21/8 37/20/8
f 38/21/8 3/22/8 37/20/8
f 3/22/8 1/23/8 37/20/8
f 37/20/8 1/23/8 36/19/8
f 1/23/8 2/24/8 36/19/8
f 41/25/9 40/26/9 39/27/9
f 42/28/9 41/25/9 39/27/9
f 42/28/9 39/27/9 43/29/9
f 41/25/9 42/28/9 44/30/9
f 45/31/9 42/28/9 43/29/9
f 42/28/9 46/32/9 44/30/9
f 42/28/9 45/31/9 46/32/9
f 6/33/9 45/31/9 43/29/9
f 7/34/9 6/33/9 43/29/9
f 45/31/9 6/33/9 8/35/9
f 47/36/9 45/31/9 8/35/9
f 45/31/9 47/36/9 46/32/9
f 47/36/9 8/35/9 48/37/9
f 46/32/9 47/36/9 48/37/9
f 8/35/9 9/38/9 48/37/9
f 9/38/9 10/39/9 48/37/9
f 44/30/9 46/32/9 49/40/9
f 46/32/9 48/37/9 49/40/9
f 50/41/9 44/30/9 49/40/9
f 51/42/9 50/41/9 49/40/9
f 52/43/9 51/42/9 49/40/9
f 52/43/9 49/40/9 48/37/9
f 53/44/9 51/42/9 52/43/9
f 10/39/9 54/45/9 48/37/9
f 54/45/9 52/43/9 48/37/9
f 55/46/9 52/43/9 54/45/9
f 56/47/9 55/46/9 54/45/9
f 53/44/9 57/48/9 56/47/9
f 57/48/9 53/44/9 52/43/9
f 55/46/9 57/48/9 52/43/9
f 55/46/9 56/47/9 57/48/9
f 58/49/9 53/44/9 56/47/9
f 59/50/9 58/49/9 56/47/9
f 60/51/9 54/45/9 10/39/9
f 60/51/9 56/47/9 54/45/9
f 59/50/9 56/47/9 60/51/9
f 11/52/9 60/51/9 10/39/9
f 61/53/9 59/50/9 60/51/9
f 61/53/9 60/51/9 11/52/9
f 12/54/9 61/53/9 11/52/9
f 64/55/3 63/56/3 62/57/3
f 63/56/3 65/58/3 62/57/3
f 62/57/3 65/58/3 66/59/3
f 65/58/3 67/60/3 66/59/3
f 67/60/3 68/61/3 66/59/3
f 68/61/3 69/62/3 66/59/3
f 67/60/3 65/58/3 70/63/3
f 68/61/3 67/60/3 70/63/3
f 65/58/3 71/64/3 70/63/3
f 72/65/3 68/61/3 70/63/3
f 75/66/10 74/67/10 73/68/10
f 74/67/10 76/69/10 73/68/10
f 76/69/10 74/67/10 77/70/10
f 78/71/10 76/69/10 77/70/10
f 78/71/10 77/70/10 79/72/10
f 76/69/10 78/71/10 80/73/10
f 81/74/10 78/71/10 79/72/10
f 78/71/10 82/75/10 80/73/10
f 78/71/10 81/74/10 82/75/10
f 81/74/10 83/76/10 82/75/10
f 86/77/10 85/78/10 84/79/10
f 87/80/10 86/77/10 84/79/10
f 90/81/11 89/82/11 88/83/11
f 91/84/11 90/81/11 88/83/11
f 90/81/11 91/84/11 92/85/11
f 93/86/11 90/81/11 92/85/11
f 93/86/11 92/85/11 94/87/12
f 92/85/11 95/88/12 94/87/12
f 95/88/12 96/89/10 94/87/12
f 99/90/13 98/91/8 97/92/13
f 100/93/11 99/90/13 97/92/13
f 101/94/11 100/93/11 97/92/13
f 102/95/11 100/93/11 101/94/11
f 103/96/11 102/95/11 101/94/11
f 106/97/8 105/98/8 104/99/8
f 105/98/8 107/100/8 104/99/8
f 104/99/8 107/100/8 108/101/8
f 105/98/8 109/102/8 107/100/8
f 107/100/8 110/103/8 108/101/8
f 109/102/8 111/104/8 107/100/8
f 107/100/8 111/104/8 110/103/8
f 109/102/8 17/105/8 111/104/8
f 111/104/8 112/106/8 110/103/8
f 17/105/8 16/107/8 111/104/8
f 111/104/8 16/107/8 112/106/8
f 16/107/8 15/108/8 112/106/8
f 115/109/10 114/110/10 113/111/10
f 116/112/10 115/109/10 113/111/10
f 117/113/10 115/109/10 116/112/10
f 118/114/10 117/113/10 116/112/10
f 121/115/11 120/116/11 119/117/11
f 122/118/11 121/115/11 119/117/11
f 123/119/11 121/115/11 122/118/11
f 124/120/11 123/119/11 122/118/11
f 127/121/3 126/122/3 125/123/3
f 128/124/3 127/121/3 125/123/3
f 128/124/3 125/123/3 129/125/3
f 125/123/3 130/126/3 129/125/3
f 133/127/3 132/128/3 131/129/3
f 134/130/3 133/127/3 131/129/3
f 135/131/3 133/127/3 134/130/3
f 136/132/3 135/131/3 134/130/3
f 139/133/3 138/134/3 137/135/14
f 140/136/3 139/133/3 137/135/14
f 141/137/3 139/133/3 140/136/3
f 140/136/3 142/138/3 141/137/3
f 141/137/3 143/139/3 139/133/3
f 14/140/3 143/139/3 141/137/3
f 13/141/3 14/140/3 141/137/3
f 146/142/9 145/143/9 144/144/9
f 145/143/9 147/145/9 144/144/9
f 144/144/9 147/145/9 148/146/9
f 148/146/9 149/147/9 144/144/9
f 148/146/9 150/148/9 149/147/9
f 150/148/9 148/146/9 4/149/9
f 148/146/9 5/150/9 4/149/9
f 153/151/10 152/152/10 151/153/10
f 153/151/10 151/153/10 154/154/10
f 153/151/10 154/154/10 155/155/10
f 153/151/10 155/155/10 156/156/10
f 157/157/10 153/151/10 156/156/10
f 156/156/10 158/158/10 157/157/10
f 156/156/10 159/159/10 158/158/10
f 158/158/10 159/159/10 160/160/10
f 161/161/10 158/158/10 160/160/10
f 160/160/10 162/162/10 161/161/10
f 162/162/10 163/163/10 161/161/10
f 163/163/10 164/164/10 161/161/10
f 163/163/10 165/165/10 164/164/10
f 165/165/10 166/166/10 164/164/10
f 166/166/10 167/167/10 164/164/10
f 167/167/10 168/168/10 164/164/10
f 153/151/10 169/169/10 152/152/10
f 153/151/10 170/170/10 169/169/10
f 153/151/10 171/171/10 170/170/10
f 153/151/10 172/172/15 171/171/10
f 153/151/10 173/173/10 172/172/15
f 153/151/10 174/174/10 173/173/10
f 175/175/10 173/173/10 174/174/10
f 175/175/10 174/174/10 164/164/10
f 176/176/10 175/175/10 164/164/10
f 177/177/10 176/176/10 164/164/10
f 178/178/10 177/177/10 164/164/10
f 168/168/10 178/178/10 164/164/10
f 181/179/10 180/180/10 179/181/15
f 179/181/15 182/182/10 181/179/10
f 183/183/10 182/182/10 179/181/15
f 183/183/10 179/181/15 184/184/10
f 183/183/10 185/185/15 182/182/10
f 183/183/10 184/184/10 186/186/10
f 186/186/10 187/187/10 183/183/10
f 183/183/10 188/188/10 185/185/15
f 189/189/10 187/187/10 186/186/10
f 186/186/10 190/190/10 189/189/10
f 185/185/15 188/188/10 191/191/10
f 191/191/10 192/192/10 185/185/15
f 183/183/10 193/193/1 188/188/10
f 190/190/10 194/194/10 189/189/10
f 190/190/10 195/195/10 194/194/10
f 195/195/10 183/183/10 194/194/10
f 183/183/10 195/195/10 196/196/10
f 183/183/10 196/196/10 193/193/1
f 193/193/1 196/196/10 197/197/10
f 197/197/10 198/198/10 193/193/1
f 199/199/10 183/183/10 187/187/10
f 199/199/10 200/200/10 183/183/10
f 200/200/10 201/201/10 183/183/10
f 201/201/10 200/200/10 202/202/10
f 201/201/10 202/202/10 203/203/10
f 203/203/10 199/199/10 187/187/10
f 203/203/10 204/204/10 201/201/10
f 187/187/10 204/204/10 203/203/10
f 205/205/10 187/187/10 189/189/10
f 205/205/10 206/206/10 187/187/10
f 204/204/10 187/187/10 206/206/10
f 207/207/10 205/205/10 189/189/10
f 204/204/10 206/206/10 208/208/15
f 209/209/10 207/207/10 189/189/10
f 210/210/10 209/209/10 189/189/10
f 211/211/10 210/210/10 189/189/10
f 204/204/10 208/208/15 212/212/10
f 211/211/10 189/189/10 213/213/10
f 214/214/10 211/211/10 213/213/10
f 215/215/10 214/214/10 213/213/10
f 204/204/10 212/212/10 216/216/10
f 204/204/10 216/216/10 217/217/10
f 213/213/10 218/218/10 215/215/10
f 218/218/10 219/219/10 215/215/10
f 204/204/10 217/217/10 220/220/10
f 220/220/10 219/219/10 218/218/10
f 221/221/10 204/204/10 220/220/10
f 220/220/10 218/218/10 221/221/10
f 18/3/3 222/222/16 20/1/1
f 223/223/3 222/222/16 18/3/3
f 223/223/3 18/3/3 224/224/3
f 224/224/3 225/225/3 223/223/3
f 226/226/3 222/222/16 223/223/3
f 227/227/3 223/223/3 225/225/3
f 223/223/3 228/228/3 226/226/3
f 225/225/3 229/229/3 227/227/3
f 228/228/3 230/230/3 226/226/3
f 230/230/3 231/231/3 226/226/3
f 229/229/3 232/232/3 227/227/3
f 229/229/3 233/233/3 232/232/3
f 233/233/3 234/234/3 232/232/3
f 234/234/3 235/235/3 232/232/3
f 234/234/3 236/236/3 235/235/3
f 231/231/3 230/230/3 237/237/3
f 230/230/3 238/238/3 237/237/3
f 238/238/3 239/239/17 237/237/3
f 239/239/17 240/240/3 237/237/3
f 236/236/3 241/241/3 235/235/3
f 236/236/3 242/242/3 241/241/3
f 24/9/3 241/241/3 242/242/3
f 24/9/3 242/242/3 26/7/5
f 24/9/3 243/243/3 241/241/3
f 244/244/3 243/243/3 240/240/3
f 243/243/3 21/6/3 240/240/3
f 21/6/3 243/243/3 24/9/3
f 21/6/3 24/9/3 23/4/3
f 244/244/3 240/240/3 239/239/17
f 244/244/3 239/239/17 245/245/3
f 245/245/3 246/246/3 244/244/3
f 244/244/3 246/246/3 247/247/3
f 247/247/3 248/248/3 244/244/3
f 248/248/3 247/247/3 249/249/3
f 248/248/3 249/249/3 250/250/3
f 251/251/3 246/246/3 245/245/3
f 250/250/3 249/249/3 251/251/3
f 252/252/3 251/251/3 245/245/3
f 251/251/3 253/253/3 250/250/3
f 251/251/3 252/252/3 253/253/3
f 254/254/3 253/253/3 252/252/3
f 248/248/3 250/250/3 255/255/3
f 256/256/3 254/254/3 252/252/3
f 255/255/3 257/257/3 248/248/3
f 257/257/3 255/255/3 258/258/3
f 257/257/3 258/258/3 259/259/3
f 257/257/3 259/259/3 260/260/3
f 258/258/3 261/261/3 259/259/3
f 261/261/3 258/258/3 254/254/3
f 261/261/3 254/254/3 256/256/3
f 261/261/3 256/256/3 262/262/3
f 256/256/3 263/263/3 262/262/3
f 263/263/3 260/260/3 262/262/3
f 260/260/3 263/263/3 264/264/3
f 264/264/3 257/257/3 260/260/3
f 265/265/3 257/257/3 264/264/3
f 264/264/3 266/266/3 265/265/3
f 264/264/3 267/267/3 266/266/3
f 265/265/3 268/268/3 257/257/3
f 269/269/3 267/267/3 264/264/3
f 269/269/3 264/264/3 270/270/3
f 268/268/3 271/271/3 257/257/3
f 271/271/3 272/272/3 257/257/3
f 270/270/3 273/273/3 269/269/3
f 257/257/3 272/272/3 274/274/3
f 273/273/3 275/275/3 269/269/3
f 273/273/3 276/276/3 275/275/3
f 273/273/3 277/277/3 276/276/3
f 277/277/3 273/273/3 278/278/3
f 274/274/3 248/248/3 257/257/3
f 278/278/3 27/12/3 277/277/3
f 27/12/3 274/274/3 29/10/7
f 278/278/3 279/279/3 27/12/3
f 279/279/3 274/274/3 27/12/3
f 278/278/3 280/280/3 279/279/3
f 280/280/3 278/278/3 248/248/3
f 274/274/3 279/279/3 281/281/3
f 274/274/3 281/281/3 248/248/3
f 282/282/3 280/280/3 248/248/3
f 281/281/3 282/282/3 248/248/3
f 285/283/10 284/284/10 283/285/10
f 286/286/10 285/283/10 283/285/10
f 286/286/10 287/287/10 285/283/10
f 285/283/10 287/287/10 288/288/10
f 287/287/10 289/289/10 288/288/10
f 285/283/10 288/288/10 290/290/10
f 288/288/10 291/291/10 290/290/10
f 294/292/11 293/293/11 292/294/11
f 295/295/11 294/292/11 292/294/11
f 298/296/8 297/297/8 296/298/8
f 297/297/8 299/299/8 296/298/8
f 296/298/8 299/299/8 300/300/8
f 301/301/8 300/300/8 299/299/8
f 302/302/8 301/301/8 299/299/8
f 302/302/8 299/299/8 303/303/8
f 304/304/10 302/302/8 303/303/8
f 307/305/3 306/306/3 305/307/3
f 308/308/3 307/305/3 305/307/3
f 309/309/3 307/305/3 308/308/3
f 310/310/3 309/309/3 308/308/3
f 313/311/3 312/312/3 311/313/3
f 314/314/3 313/311/3 311/313/3
f 317/315/8 316/316/8 315/317/8
f 318/318/8 317/315/8 315/317/8
f 321/319/10 320/320/10 319/321/10
f 322/322/10 321/319/10 319/321/10
f 325/323/10 324/324/10 323/325/10
f 326/326/10 325/323/10 323/325/10
f 329/327/3 328/328/3 327/329/3
f 330/330/3 329/327/3 327/329/3
f 333/331/3 332/332/3 331/333/3
f 334/334/3 333/331/3 331/333/3
f 337/335/3 336/336/3 335/337/3
f 338/338/3 337/335/3 335/337/3
f 341/339/10 340/340/10 339/341/10
f 342/342/10 341/339/10 339/341/10
f 345/343/10 344/344/10 343/345/10
f 346/346/10 345/343/10 343/345/10
f 349/347/10 348/348/10 347/349/10
f 350/350/10 349/347/10 347/349/10
f 353/351/10 352/352/10 351/353/10
f 354/354/10 353/351/10 351/353/10
f 357/355/11 356/356/11 355/357/11
f 358/358/11 357/355/11 355/357/11
f 361/359/3 360/360/3 359/361/3
f 362/362/3 361/359/3 359/361/3
f 365/363/18 364/364/18 363/365/18
f 366/366/18 365/363/18 363/365/18
f 369/367/9 368/368/9 367/369/9
f 370/370/9 369/367/9 367/369/9
f 373/371/11 372/372/11 371/373/11
f 374/374/11 373/371/11 371/373/11
f 377/375/3 376/376/3 375/377/3
f 378/378/3 377/375/3 375/377/3
f 381/379/18 380/380/18 379/381/18
f 382/382/18 381/379/18 379/381/18
f 385/383/9 384/384/9 383/385/9
f 386/386/9 385/383/9 383/385/9
f 389/387/11 388/388/11 387/389/11
f 390/390/11 389/387/11 387/389/11
f 393/391/3 392/392/3 391/393/3
f 394/394/3 393/391/3 391/393/3
f 397/395/18 396/396/18 395/397/18
f 398/398/18 397/395/18 395/397/18
f 401/399/9 400/400/9 399/401/9
f 402/402/9 401/399/9 399/401/9
f 405/403/11 404/404/11 403/405/11
f 406/406/11 405/403/11 403/405/11
f 409/407/3 408/408/3 407/409/3
f 410/410/3 409/407/3 407/409/3
f 413/411/18 412/412/18 411/413/18
f 414/414/18 413/411/18 411/413/18
f 417/415/9 416/416/9 415/417/9
f 418/418/9 417/415/9 415/417/9
f 421/419/3 420/420/3 419/421/3
f 422/422/3 421/419/3 419/421/3
f 425/423/9 424/424/9 423/425/9
f 426/426/9 425/423/9 423/425/9
f 429/427/11 428/428/11 427/429/11
f 430/430/11 429/427/11 427/429/11
f 433/431/18 432/432/18 431/433/18
f 434/434/18 433/431/18 431/433/18
f 437/435/10 436/436/10 435/437/10
f 435/437/10 438/438/10 437/435/10
f 441/439/11 440/440/11 439/441/11
f 439/441/11 442/442/11 441/439/11
f 445/443/8 444/444/8 443/445/8
f 443/445/8 446/446/8 445/443/8
f 449/447/18 448/448/18 447/449/18
f 447/449/18 450/450/18 449/447/18
f 453/451/11 452/452/11 451/453/11
f 452/452/11 454/454/11 451/453/11
f 457/455/8 456/456/8 455/457/8
f 458/458/8 457/455/8 455/457/8
f 461/459/18 460/460/18 459/461/18
f 461/459/18 462/462/18 460/460/18
f 465/463/10 464/464/10 463/465/10
f 466/466/10 465/463/10 463/465/10
f 469/467/11 468/468/11 467/469/11
f 470/470/11 469/467/11 467/469/11
f 473/471/8 472/472/8 471/473/8
f 474/474/8 473/471/8 471/473/8
f 477/475/18 476/476/18 475/477/18
f 478/478/18 477/475/18 475/477/18
f 481/479/10 480/480/10 479/481/10
f 482/482/10 481/479/10 479/481/10
f 485/483/8 484/484/8 483/485/8
f 486/486/8 485/483/8 483/485/8
f 489/487/11 488/488/11 487/489/11
f 487/489/11 490/490/11 489/487/11
f 493/491/10 492/492/10 491/493/10
f 494/494/10 493/491/10 491/493/10
f 495/495/10 494/494/10 491/493/10
f 495/495/10 496/496/10 494/494/10
f 499/497/18 498/498/18 497/499/18
f 497/499/18 500/500/18 499/497/18
f 500/500/18 501/501/18 499/497/18
f 500/500/18 502/502/18 501/501/18
f 505/503/3 504/504/3 503/505/3
f 506/506/3 505/503/3 503/505/3
f 506/506/3 503/505/3 507/507/3
f 508/508/3 505/503/3 506/506/3
f 509/509/3 506/506/3 507/507/3
f 509/509/3 508/508/3 506/506/3
f 276/276/3 277/277/3 27/12/3
f 512/510/3 511/511/19 510/512/3
f 511/511/19 513/513/19 510/512/3
f 514/514/3 510/512/3 513/513/19
f 513/513/19 511/511/19 515/515/19
f 511/511/19 516/516/19 515/515/19
f 516/516/19 517/517/3 515/515/19
f 517/517/3 518/518/3 515/515/19
f 519/519/19 515/515/19 518/518/3
f 513/513/19 515/515/19 519/519/19
f 520/520/3 519/519/19 518/518/3
f 521/521/19 514/514/3 513/513/19
f 521/521/19 513/513/19 519/519/19
f 514/514/3 521/521/19 522/522/3
f 521/521/19 523/523/19 522/522/3
f 524/524/19 523/523/19 521/521/19
f 519/519/19 524/524/19 521/521/19
f 519/519/19 520/520/3 524/524/19
f 520/520/3 525/525/3 524/524/19
f 528/526/3 527/527/3 526/528/20
f 529/529/20 528/526/3 526/528/20
f 529/529/20 526/528/20 530/530/21
f 526/528/20 531/531/21 530/530/21
f 530/530/21 531/531/21 532/532/22
f 533/533/22 530/530/21 532/532/22
f 533/533/22 532/532/22 534/534/21
f 528/526/3 529/529/20 535/535/3
f 536/536/3 528/526/3 535/535/3
f 536/536/3 535/535/3 537/537/3
f 535/535/3 538/538/3 537/537/3
f 535/535/3 529/529/20 538/538/3
f 539/539/3 537/537/3 538/538/3
f 530/530/21 540/540/21 529/529/20
f 530/530/21 533/533/22 540/540/21
f 529/529/20 541/541/20 538/538/3
f 540/540/21 541/541/20 529/529/20
f 542/542/3 539/539/3 538/538/3
f 542/542/3 538/538/3 541/541/20
f 543/543/23 539/539/3 542/542/3
f 544/544/23 543/543/23 542/542/3
f 544/544/23 542/542/3 541/541/20
f 545/545/24 543/543/23 544/544/23
f 545/545/24 544/544/23 541/541/20
f 546/546/21 545/545/24 541/541/20
f 540/540/21 546/546/21 541/541/20
f 546/546/21 540/540/21 547/547/22
f 533/533/22 547/547/22 540/540/21
f 548/548/22 546/546/21 547/547/22
f 547/547/22 533/533/22 549/549/21
f 549/549/21 533/533/22 534/534/21
f 548/548/22 547/547/22 550/550/21
f 550/550/21 547/547/22 549/549/21
f 551/551/21 548/548/22 550/550/21
f 552/552/20 551/551/21 550/550/21
f 549/549/21 534/534/21 553/553/20
f 534/534/21 554/554/20 553/553/20
f 553/553/20 554/554/20 555/555/3
f 556/556/3 553/553/20 555/555/3
f 557/557/20 550/550/21 549/549/21
f 553/553/20 557/557/20 549/549/21
f 553/553/20 556/556/3 557/557/20
f 557/557/20 552/552/20 550/550/21
f 556/556/3 558/558/3 557/557/20
f 552/552/20 557/557/20 558/558/3
f 559/559/3 552/552/20 558/558/3
f 562/560/10 561/561/10 560/562/25
f 563/563/25 562/560/10 560/562/25
f 562/560/10 563/563/25 564/564/10
f 563/563/25 560/562/25 565/565/25
f 560/562/25 566/566/25 565/565/25
f 565/565/25 566/566/25 567/567/26
f 563/563/25 568/568/25 564/564/10
f 569/569/10 564/564/10 568/568/25
f 570/570/25 569/569/10 568/568/25
f 570/570/25 568/568/25 571/571/25
f 572/572/25 568/568/25 563/563/25
f 565/565/25 572/572/25 563/563/25
f 568/568/25 572/572/25 571/571/25
f 573/573/26 565/565/25 567/567/26
f 565/565/25 573/573/26 572/572/25
f 567/567/26 574/574/26 573/573/26
f 571/571/25 572/572/25 575/575/26
f 573/573/26 575/575/26 572/572/25
f 576/576/26 571/571/25 575/575/26
f 574/574/26 577/577/26 573/573/26
f 575/575/26 573/573/26 577/577/26
f 577/577/26 574/574/26 578/578/27
f 575/575/26 579/579/26 576/576/26
f 579/579/26 575/575/26 577/577/26
f 579/579/26 580/580/26 576/576/26
f 581/581/27 577/577/26 578/578/27
f 577/577/26 581/581/27 579/579/26
f 580/580/26 579/579/26 582/582/27
f 581/581/27 582/582/27 579/579/26
f 583/583/27 580/580/26 582/582/27
f 583/583/27 582/582/27 584/584/27
f 581/581/27 578/578/27 585/585/27
f 578/578/27 586/586/27 585/585/27
f 585/585/27 586/586/27 587/587/10
f 588/588/10 585/585/27 587/587/10
f 589/589/27 582/582/27 581/581/27
f 585/585/27 589/589/27 581/581/27
f 585/585/27 588/588/10 589/589/27
f 582/582/27 589/589/27 584/584/27
f 588/588/10 590/590/10 589/589/27
f 584/584/27 589/589/27 590/590/10
f 591/591/10 584/584/27 590/590/10
f 594/592/10 593/593/27 592/594/10
f 593/593/27 595/595/27 592/594/10
f 596/596/10 592/594/10 595/595/27
f 597/597/27 595/595/27 593/593/27
f 598/598/27 597/597/27 593/593/27
f 598/598/27 599/599/10 597/597/27
f 599/599/10 600/600/10 597/597/27
f 601/601/27 597/597/27 600/600/10
f 595/595/27 597/597/27 601/601/27
f 602/602/10 601/601/27 600/600/10
f 603/603/27 596/596/10 595/595/27
f 603/603/27 595/595/27 601/601/27
f 596/596/10 603/603/27 604/604/10
f 603/603/27 605/605/27 604/604/10
f 606/606/27 605/605/27 603/603/27
f 601/601/27 606/606/27 603/603/27
f 601/601/27 602/602/10 606/606/27
f 602/602/10 607/607/10 606/606/27
f 610/608/28 609/609/28 608/610/29
f 611/611/29 610/608/28 608/610/29
f 610/608/28 611/611/29 612/612/30
f 611/611/29 613/613/28 612/612/30
f 614/614/28 612/612/30 613/613/28
f 615/615/31 614/614/28 613/613/28
f 615/615/31 616/616/28 614/614/28
f 616/616/28 617/617/28 614/614/28
f 618/618/28 617/617/28 616/616/28
f 619/619/29 618/618/28 616/616/28
f 618/618/28 619/619/29 620/620/30
f 619/619/29 621/621/28 620/620/30
f 622/622/30 620/620/30 621/621/28
f 623/623/31 622/622/30 621/621/28
f 626/624/32 625/625/33 624/626/34
f 625/625/33 627/627/33 624/626/34
f 628/628/33 624/626/34 627/627/33
f 629/629/35 628/628/33 627/627/33
f 627/627/33 630/630/33 629/629/35
f 629/629/35 630/630/33 631/631/36
f 630/630/33 632/632/37 631/631/36
f 635/633/38 634/634/39 633/635/40
f 634/634/39 636/636/39 633/635/40
f 633/635/40 636/636/39 637/637/39
f 638/638/41 633/635/40 637/637/39
f 637/637/39 639/639/42 638/638/41
f 639/639/42 640/640/43 638/638/41
f 641/641/44 640/640/43 639/639/42
f 642/642/42 641/641/44 639/639/42
f 641/641/44 642/642/42 643/643/40
f 642/642/42 644/644/39 643/643/40
f 643/643/40 644/644/39 645/645/39
f 646/646/45 643/643/40 645/645/39
f 646/646/45 645/645/39 647/647/46
f 645/645/39 648/648/42 647/647/46
f 651/649/47 650/650/48 649/651/47
f 652/652/47 651/649/47 649/651/47
f 652/652/47 649/651/47 653/653/47
f 652/652/47 653/653/47 654/654/49
f 654/654/49 655/655/47 652/652/47
f 655/655/47 654/654/49 656/656/49
f 657/657/50 655/655/47 656/656/49
f 660/658/28 659/659/28 658/660/29
f 661/661/29 660/658/28 658/660/29
f 660/658/28 661/661/29 662/662/30
f 661/661/29 663/663/28 662/662/30
f 664/664/30 662/662/30 663/663/28
f 665/665/31 664/664/30 663/663/28
f 668/666/51 667/667/52 666/668/36
f 669/669/35 668/666/51 666/668/36
f 670/670/34 668/666/51 669/669/35
f 669/669/35 671/671/33 670/670/34
f 671/671/33 672/672/53 670/670/34
f 673/673/34 670/670/34 672/672/53
f 674/674/32 673/673/34 672/672/53
f 677/675/39 676/676/42 675/677/46
f 678/678/45 677/675/39 675/677/46
f 678/678/45 679/679/40 677/675/39
f 679/679/40 680/680/39 677/675/39
f 681/681/39 680/680/39 679/679/40
f 682/682/38 681/681/39 679/679/40
f 685/683/47 684/684/54 683/685/47
f 686/686/47 685/683/47 683/685/47
f 686/686/47 683/685/47 687/687/47
f 686/686/47 687/687/47 688/688/49
f 688/688/49 689/689/47 686/686/47
f 689/689/47 688/688/49 690/690/49
f 691/691/47 689/689/47 690/690/49
f 694/692/55 693/693/55 692/694/56
f 693/693/55 695/695/56 692/694/56
f 695/695/56 693/693/55 696/696/55
f 697/697/57 695/695/56 696/696/55
f 698/698/57 697/697/57 696/696/55
f 696/696/55 699/699/55 698/698/57
f 702/700/58 701/701/59 700/702/60
f 701/701/59 703/703/60 700/702/60
f 704/704/61 703/703/60 701/701/59
f 705/705/59 704/704/61 701/701/59
f 704/704/61 705/705/59 706/706/61
f 705/705/59 707/707/58 706/706/61
f 710/708/62 709/709/63 708/710/64
f 709/709/63 711/711/63 708/710/64
f 708/710/64 711/711/63 712/712/63
f 713/713/65 708/710/64 712/712/63
f 712/712/63 714/714/63 713/713/65
f 714/714/63 715/715/66 713/713/65
f 718/716/67 717/717/68 716/718/69
f 716/718/69 719/719/69 718/716/67
f 718/716/67 719/719/69 720/720/69
f 721/721/70 718/716/67 720/720/69
f 720/720/69 722/722/69 721/721/70
f 722/722/69 723/723/71 721/721/70
f 726/724/72 725/725/73 724/726/72
f 724/726/72 727/727/72 726/724/72
f 727/727/72 728/728/72 726/724/72
f 728/728/72 727/727/72 729/729/74
f 730/730/74 728/728/72 729/729/74
f 729/729/74 731/731/73 730/730/74
f 731/731/73 732/732/73 730/730/74
f 732/732/73 731/731/73 733/733/72
f 731/731/73 734/734/72 733/733/72
f 733/733/72 734/734/72 735/735/74
f 736/736/74 733/733/72 735/735/74
f 737/737/74 736/736/74 735/735/74
f 735/735/74 738/738/74 737/737/74
f 738/738/74 739/739/73 737/737/74
f 742/740/75 741/741/76 740/742/76
f 743/743/75 742/740/75 740/742/76
f 743/743/75 740/742/76 744/744/76
f 745/745/77 743/743/75 744/744/76
f 744/744/76 746/746/76 745/745/77
f 746/746/76 747/747/76 745/745/77
f 747/747/76 746/746/76 748/748/75
f 746/746/76 749/749/76 748/748/75
f 748/748/75 749/749/76 750/750/78
f 751/751/77 748/748/75 750/750/78
f 752/752/79 751/751/77 750/750/78
f 753/753/78 752/752/79 750/750/78
f 756/754/80 755/755/81 754/756/82
f 754/756/82 757/757/83 756/754/80
f 754/756/82 758/758/84 757/757/83
f 756/754/80 757/757/83 759/759/85
f 760/760/85 756/754/80 759/759/85
f 761/761/86 757/757/83 758/758/84
f 762/762/87 761/761/86 758/758/84
f 761/761/86 762/762/87 763/763/88
f 760/760/85 759/759/85 764/764/89
f 765/765/89 760/760/85 764/764/89
f 766/766/89 764/764/89 759/759/85
f 759/759/85 757/757/83 767/767/90
f 767/767/90 766/766/89 759/759/85
f 757/757/83 761/761/86 767/767/90
f 766/766/89 767/767/90 768/768/89
f 767/767/90 761/761/86 769/769/91
f 767/767/90 769/769/91 768/768/89
f 769/769/91 770/770/91 768/768/89
f 770/770/91 771/771/89 768/768/89
f 772/772/90 771/771/89 770/770/91
f 761/761/86 773/773/92 769/769/91
f 773/773/92 761/761/86 763/763/88
f 769/769/91 773/773/92 770/770/91
f 774/774/83 773/773/92 763/763/88
f 773/773/92 774/774/83 770/770/91
f 775/775/84 774/774/83 763/763/88
f 776/776/86 774/774/83 775/775/84
f 777/777/87 776/776/86 775/775/84
f 776/776/86 777/777/87 778/778/93
f 778/778/93 779/779/94 776/776/86
f 776/776/86 779/779/94 780/780/90
f 774/774/83 776/776/86 781/781/90
f 770/770/91 774/774/83 781/781/90
f 781/781/90 776/776/86 780/780/90
f 782/782/95 772/772/90 770/770/91
f 782/782/95 783/783/85 772/772/90
f 781/781/90 784/784/96 770/770/91
f 784/784/96 782/782/95 770/770/91
f 784/784/96 781/781/90 780/780/90
f 784/784/96 783/783/85 782/782/95
f 785/785/97 784/784/96 780/780/90
f 785/785/97 783/783/85 784/784/96
f 786/786/98 785/785/97 780/780/90
f 787/787/89 783/783/85 785/785/97
f 786/786/98 787/787/89 785/785/97
f 790/788/99 789/789/100 788/790/101
f 789/789/100 791/791/102 788/790/101
f 791/791/102 792/792/103 788/790/101
f 793/793/102 792/792/103 791/791/102
f 793/793/102 791/791/102 794/794/104
f 795/795/104 793/793/102 794/794/104
f 792/792/103 796/796/105 788/790/101
f 793/793/102 795/795/104 797/797/106
f 792/792/103 798/798/107 796/796/105
f 798/798/107 792/792/103 793/793/102
f 799/799/104 793/793/102 797/797/106
f 799/799/104 797/797/106 800/800/104
f 798/798/107 801/801/108 796/796/105
f 801/801/108 802/802/109 796/796/105
f 803/803/110 798/798/107 793/793/102
f 801/801/108 798/798/107 803/803/110
f 803/803/110 793/793/102 799/799/104
f 804/804/111 801/801/108 803/803/110
f 805/805/104 803/803/110 799/799/104
f 804/804/111 803/803/110 805/805/104
f 805/805/104 799/799/104 800/800/104
f 806/806/112 804/804/111 805/805/104
f 806/806/112 805/805/104 800/800/104
f 807/807/113 804/804/111 806/806/112
f 807/807/113 806/806/112 800/800/104
f 808/808/104 807/807/113 800/800/104
f 811/809/114 810/810/115 809/811/116
f 812/812/117 811/809/114 809/811/116
f 813/813/117 812/812/117 809/811/116
f 809/811/116 814/814/118 813/813/117
f 813/813/117 814/814/118 815/815/116
f 816/816/119 813/813/117 815/815/116
f 813/813/117 816/816/119 817/817/120
f 818/818/27 813/813/117 817/817/120
f 812/812/117 813/813/117 818/818/27
f 818/818/27 817/817/120 819/819/121
f 820/820/121 818/818/27 819/819/121
f 818/818/27 820/820/121 821/821/25
f 811/809/114 812/812/117 822/822/122
f 822/822/122 812/812/117 818/818/27
f 822/822/122 818/818/27 821/821/25
f 823/823/123 811/809/114 822/822/122
f 821/821/25 824/824/25 822/822/122
f 824/824/25 823/823/123 822/822/122
f 827/825/124 826/826/124 825/827/124
f 826/826/124 828/828/124 825/827/124
f 825/827/124 828/828/124 829/829/124
f 828/828/124 830/830/124 829/829/124
f 829/829/124 830/830/124 831/831/124
f 830/830/124 832/832/124 831/831/124
f 831/831/124 832/832/124 833/833/124
f 832/832/124 834/834/124 833/833/124
f 833/833/124 834/834/124 835/835/124
f 834/834/124 836/836/124 835/835/124
f 835/835/124 836/836/124 837/837/124
f 836/836/124 838/838/124 837/837/124
