mtllib material.mtl
usemtl material_0
v 0.32551000 0.01488000 0.00018000
v 0.32551000 0.01488000 -0.01067000
v 0.32551000 -0.01487000 -0.01067000
v 0.32551000 -0.01487000 0.00018000
v 0.32408000 0.01321000 0.00178000
v 0.32408000 -0.01320000 0.00178000
v 0.10431000 -0.01487000 0.06116000
v 0.10431000 -0.01487000 0.07193000
v 0.15982000 -0.01487000 0.05967000
v 0.15982000 -0.01487000 0.04894000
v 0.21437000 -0.01487000 0.04400000
v 0.21437000 -0.01487000 0.03314000
v 0.04651000 -0.01487000 0.06692000
v 0.04651000 -0.01487000 0.07776000
v 0.00000000 -0.01487000 0.06692000
v 0.00000000 -0.01487000 0.07776000
v -0.04650000 -0.01487000 0.07776000
v -0.04650000 -0.01487000 0.06692000
v -0.10430000 -0.01487000 0.07193000
v -0.10430000 -0.01487000 0.06116000
v 0.27038000 -0.01487000 0.02412000
v 0.27038000 -0.01487000 0.01322000
v 0.32551000 -0.01487000 0.00018000
v 0.32551000 -0.01487000 -0.01067000
v -0.15981000 -0.01487000 0.05967000
v -0.15981000 -0.01487000 0.04894000
v -0.21436000 -0.01487000 0.04400000
v -0.21436000 -0.01487000 0.03314000
v -0.27037000 -0.01487000 0.02412000
v -0.27037000 -0.01487000 0.01322000
v -0.32550000 -0.01487000 0.00018000
v -0.32550000 -0.01487000 -0.01067000
v 0.21437000 -0.01487000 0.04400000
v 0.27037000 -0.01320000 0.02532000
v 0.27038000 -0.01487000 0.02412000
v 0.21479000 -0.01320000 0.04511000
v 0.15982000 -0.01487000 0.05967000
v 0.15986000 -0.01320000 0.06093000
v 0.10431000 -0.01487000 0.07193000
v 0.10457000 -0.01320000 0.07312000
v 0.04651000 -0.01487000 0.07776000
v 0.04656000 -0.01320000 0.07897000
v 0.00000000 -0.01320000 0.07897000
v 0.00000000 -0.01487000 0.07776000
v -0.04650000 -0.01487000 0.07776000
v -0.04655000 -0.01320000 0.07897000
v -0.10456000 -0.01320000 0.07312000
v -0.10430000 -0.01487000 0.07193000
v -0.15985000 -0.01320000 0.06093000
v -0.15981000 -0.01487000 0.05967000
v 0.27037000 0.01321000 0.02532000
v 0.21479000 -0.01320000 0.04511000
v 0.21479000 0.01321000 0.04511000
v 0.27037000 -0.01320000 0.02532000
v 0.32408000 0.01321000 0.00178000
v 0.32408000 -0.01320000 0.00178000
v 0.15986000 0.01321000 0.06093000
v 0.10457000 -0.01320000 0.07312000
v 0.10457000 0.01321000 0.07312000
v 0.15986000 -0.01320000 0.06093000
v 0.27038000 -0.01487000 0.01322000
v 0.32551000 -0.01487000 -0.01067000
v 0.32551000 0.01488000 -0.01067000
v 0.27038000 0.01488000 0.01322000
v 0.21437000 0.01488000 0.03314000
v 0.21437000 -0.01487000 0.03314000
v 0.15982000 -0.01487000 0.04894000
v 0.15982000 0.01488000 0.04894000
v 0.10431000 0.01488000 0.06116000
v 0.10431000 -0.01487000 0.06116000
v 0.04651000 -0.01487000 0.06692000
v 0.04651000 0.01488000 0.06692000
v 0.00000000 -0.01487000 0.06692000
v 0.00000000 0.01488000 0.06692000
v -0.04650000 0.01488000 0.06692000
v -0.04650000 -0.01487000 0.06692000
v -0.10430000 0.01488000 0.06116000
v -0.10430000 -0.01487000 0.06116000
v -0.15981000 -0.01487000 0.04894000
v -0.15981000 0.01488000 0.04894000
v -0.21436000 0.01488000 0.03314000
v -0.21436000 -0.01487000 0.03314000
v -0.27037000 -0.01487000 0.01322000
v -0.27037000 0.01488000 0.01322000
v -0.32550000 0.01488000 -0.01067000
v -0.32550000 -0.01487000 -0.01067000
v 0.15982000 0.01488000 0.05967000
v 0.15982000 0.01488000 0.04894000
v 0.21437000 0.01488000 0.03314000
v 0.21437000 0.01488000 0.04400000
v 0.27038000 0.01488000 0.01322000
v 0.27038000 0.01488000 0.02412000
v 0.32551000 0.01488000 -0.01067000
v 0.32551000 0.01488000 0.00018000
v 0.10431000 0.01488000 0.07189000
v 0.10431000 0.01488000 0.06116000
v 0.04651000 0.01488000 0.07776000
v 0.04651000 0.01488000 0.06692000
v 0.00000000 0.01488000 0.07776000
v 0.00000000 0.01488000 0.06692000
v -0.04650000 0.01488000 0.06692000
v -0.04650000 0.01488000 0.07776000
v -0.10430000 0.01488000 0.06116000
v -0.10430000 0.01488000 0.07189000
v -0.15981000 0.01488000 0.04894000
v -0.15981000 0.01488000 0.05967000
v -0.21436000 0.01488000 0.03314000
v -0.21436000 0.01488000 0.04400000
v -0.27037000 0.01488000 0.01322000
v -0.27037000 0.01488000 0.02412000
v -0.32550000 0.01488000 0.00018000
v -0.32550000 0.01488000 -0.01067000
v 0.04656000 -0.01320000 0.07897000
v 0.04656000 0.01321000 0.07897000
v 0.00000000 0.01321000 0.07897000
v 0.00000000 -0.01320000 0.07897000
v -0.04655000 -0.01320000 0.07897000
v -0.04655000 0.01321000 0.07897000
v -0.10456000 0.01321000 0.07312000
v -0.10456000 -0.01320000 0.07312000
v 0.32408000 -0.01320000 0.00178000
v 0.32551000 -0.01487000 0.00018000
v 0.32551000 0.01488000 0.00018000
v 0.32408000 0.01321000 0.00178000
v 0.27037000 0.01321000 0.02532000
v 0.27038000 0.01488000 0.02412000
v 0.21479000 0.01321000 0.04511000
v 0.21437000 0.01488000 0.04400000
v 0.15986000 0.01321000 0.06093000
v 0.15982000 0.01488000 0.05967000
v 0.10457000 0.01321000 0.07312000
v 0.10431000 0.01488000 0.07189000
v 0.04656000 0.01321000 0.07897000
v 0.04651000 0.01488000 0.07776000
v 0.00000000 0.01321000 0.07897000
v 0.00000000 0.01488000 0.07776000
v -0.04650000 0.01488000 0.07776000
v -0.04655000 0.01321000 0.07897000
v -0.10430000 0.01488000 0.07189000
v -0.10456000 0.01321000 0.07312000
v -0.15981000 0.01488000 0.05967000
v -0.15985000 0.01321000 0.06093000
v -0.21436000 0.01488000 0.04400000
v -0.21478000 0.01321000 0.04511000
v -0.27037000 0.01488000 0.02412000
v -0.27036000 0.01321000 0.02532000
v -0.32550000 0.01488000 0.00018000
v -0.32407000 0.01321000 0.00178000
v -0.32550000 0.01488000 0.00018000
v -0.32550000 -0.01487000 -0.01067000
v -0.32550000 0.01488000 -0.01067000
v -0.32550000 -0.01487000 0.00018000
v -0.32407000 0.01321000 0.00178000
v -0.32407000 -0.01320000 0.00178000
v -0.21436000 -0.01487000 0.04400000
v -0.27037000 -0.01487000 0.02412000
v -0.27036000 -0.01320000 0.02532000
v -0.21478000 -0.01320000 0.04511000
v -0.27036000 0.01321000 0.02532000
v -0.21478000 0.01321000 0.04511000
v -0.21478000 -0.01320000 0.04511000
v -0.27036000 -0.01320000 0.02532000
v -0.32407000 0.01321000 0.00178000
v -0.32407000 -0.01320000 0.00178000
v -0.15985000 0.01321000 0.06093000
v -0.15985000 -0.01320000 0.06093000
v -0.32550000 -0.01487000 0.00018000
v -0.32407000 -0.01320000 0.00178000
vn 0.98040480 0.07796442 0.18090870
vn 1.00000000 0.00000000 0.00000000
vn 1.00000000 0.00000000 0.00000000
vn 0.98040720 -0.07795076 0.18090170
vn 0.41918210 0.05032140 0.90650660
vn 0.41918240 -0.05031354 0.90650690
vn 0.00000000 -1.00000000 -0.00000039
vn 0.00000000 -1.00000000 0.00000043
vn 0.00000000 -1.00000000 -0.00000170
vn 0.00000000 -1.00000000 -0.00000077
vn 0.00000000 -1.00000000 0.00000034
vn 0.00000000 -1.00000000 -0.00000033
vn 0.00000000 -1.00000000 0.00000226
vn 0.00000000 -1.00000000 0.00000213
vn 0.00000000 -1.00000000 0.00000000
vn 0.00000000 -1.00000000 0.00000000
vn 0.00000000 -1.00000000 0.00000262
vn 0.00000000 -1.00000000 0.00000278
vn 0.00000000 -1.00000000 0.00000052
vn 0.00000000 -1.00000000 -0.00000049
vn 0.00000000 -1.00000000 -0.00000105
vn 0.00000000 -1.00000000 -0.00000065
vn 0.00000000 -1.00000000 0.00000000
vn 0.00000000 -1.00000000 0.00000000
vn 0.00000000 -1.00000000 -0.00000299
vn 0.00000000 -1.00000000 -0.00000218
vn 0.00000000 -1.00000000 0.00000000
vn 0.00000000 -1.00000000 0.00000000
vn 0.00000000 -1.00000000 0.00000190
vn 0.00000000 -1.00000000 0.00000312
vn 0.00000000 -1.00000000 0.00000509
vn 0.00000000 -1.00000000 0.00000509
vn 0.25001180 -0.57577340 0.77844670
vn 0.36795600 -0.03864005 0.92904000
vn 0.31362690 -0.53820390 0.78228810
vn 0.30642040 -0.04148148 0.95099200
vn 0.20132320 -0.58662680 0.78443470
vn 0.24595420 -0.04269772 0.96834050
vn 0.12623710 -0.58963280 0.79774520
vn 0.15720060 -0.04258016 0.98664840
vn 0.04536510 -0.58653840 0.80865000
vn 0.05578987 -0.04229968 0.99754600
vn -0.00000341 -0.04298837 0.99907550
vn -0.00000273 -0.58551970 0.81065820
vn -0.04536447 -0.58653090 0.80865540
vn -0.05578981 -0.04229955 0.99754610
vn -0.15719800 -0.04258002 0.98664870
vn -0.12623410 -0.58963260 0.79774590
vn -0.24595450 -0.04269792 0.96834040
vn -0.20132360 -0.58662820 0.78443370
vn 0.36795630 0.03864269 0.92903980
vn 0.30642040 -0.04148148 0.95099200
vn 0.30642040 0.04148167 0.95099210
vn 0.36795600 -0.03864005 0.92904000
vn 0.41918210 0.05032140 0.90650660
vn 0.41918240 -0.05031354 0.90650690
vn 0.24594200 0.04300745 0.96833000
vn 0.15720060 -0.04258016 0.98664840
vn 0.15719020 0.04314342 0.98662560
vn 0.24595420 -0.04269772 0.96834050
vn -0.36678340 0.00000000 -0.93030640
vn -0.39774980 0.00000000 -0.91749400
vn -0.39774980 0.00000000 -0.91749400
vn -0.36678340 0.00000000 -0.93030640
vn -0.30738010 0.00000000 -0.95158680
vn -0.30738010 0.00000000 -0.95158680
vn -0.24673630 0.00000000 -0.96908270
vn -0.24673630 0.00000000 -0.96908270
vn -0.15678770 0.00000000 -0.98763230
vn -0.15678770 0.00000000 -0.98763230
vn -0.05515244 0.00000000 -0.99847800
vn -0.05515244 0.00000000 -0.99847800
vn 0.00000000 0.00000000 -1.00000000
vn 0.00000000 0.00000000 -1.00000000
vn 0.05515244 0.00000000 -0.99847800
vn 0.05515244 0.00000000 -0.99847800
vn 0.15678770 0.00000000 -0.98763230
vn 0.15678770 0.00000000 -0.98763230
vn 0.24673630 0.00000000 -0.96908270
vn 0.24673630 0.00000000 -0.96908270
vn 0.30738010 0.00000000 -0.95158680
vn 0.30738010 0.00000000 -0.95158680
vn 0.36678340 0.00000000 -0.93030640
vn 0.36678340 0.00000000 -0.93030640
vn 0.39774980 0.00000000 -0.91749400
vn 0.39774980 0.00000000 -0.91749400
vn 0.00000000 1.00000000 0.00000000
vn 0.00000000 1.00000000 0.00000000
vn 0.00000000 1.00000000 0.00000148
vn 0.00000000 1.00000000 0.00000099
vn 0.00000000 1.00000000 -0.00000058
vn 0.00000000 1.00000000 0.00000060
vn 0.00000000 1.00000000 -0.00000248
vn 0.00000000 1.00000000 -0.00000248
vn 0.00000000 1.00000000 0.00000000
vn 0.00000000 1.00000000 0.00000000
vn 0.00000000 1.00000000 0.00000000
vn 0.00000000 1.00000000 0.00000000
vn 0.00000000 1.00000000 0.00000000
vn 0.00000000 1.00000000 0.00000000
vn 0.00000000 1.00000000 0.00000000
vn 0.00000000 1.00000000 0.00000000
vn 0.00000000 1.00000000 0.00000000
vn 0.00000000 1.00000000 0.00000000
vn 0.00000000 1.00000000 0.00000000
vn 0.00000000 1.00000000 0.00000000
vn 0.00000000 1.00000000 0.00000303
vn 0.00000000 1.00000000 0.00000204
vn 0.00000000 1.00000000 -0.00000118
vn 0.00000000 1.00000000 0.00000123
vn 0.00000000 1.00000000 -0.00000509
vn 0.00000000 1.00000000 -0.00000509
vn 0.05578987 -0.04229968 0.99754600
vn 0.05579839 0.04262871 0.99753170
vn -0.00000332 0.04299138 0.99907540
vn -0.00000341 -0.04298837 0.99907550
vn -0.05578981 -0.04229955 0.99754610
vn -0.05579841 0.04262352 0.99753180
vn -0.15718770 0.04314110 0.98662600
vn -0.15719800 -0.04258002 0.98664870
vn 0.41918240 -0.05031354 0.90650690
vn 0.98040720 -0.07795076 0.18090170
vn 0.98040480 0.07796442 0.18090870
vn 0.41918210 0.05032140 0.90650660
vn 0.36795630 0.03864269 0.92903980
vn 0.31362760 0.53822180 0.78227550
vn 0.30642040 0.04148167 0.95099210
vn 0.25001460 0.57575270 0.77846100
vn 0.24594200 0.04300745 0.96833000
vn 0.20078800 0.58899160 0.78279810
vn 0.15719020 0.04314342 0.98662560
vn 0.12572560 0.59482870 0.79395960
vn 0.05579839 0.04262871 0.99753170
vn 0.04537755 0.58952160 0.80647700
vn -0.00000332 0.04299138 0.99907540
vn -0.00000149 0.58553380 0.81064800
vn -0.04537934 0.58946940 0.80651500
vn -0.05579841 0.04262352 0.99753180
vn -0.12572600 0.59479900 0.79398180
vn -0.15718770 0.04314110 0.98662600
vn -0.20078950 0.58899580 0.78279470
vn -0.24594230 0.04300786 0.96832990
vn -0.25001620 0.57575950 0.77845540
vn -0.30642060 0.04148175 0.95099200
vn -0.31363410 0.53819010 0.78229480
vn -0.36795850 0.03864039 0.92903900
vn -0.98040520 0.07795485 0.18091100
vn -0.41918440 0.05031422 0.90650590
vn -0.98040520 0.07795485 0.18091100
vn -1.00000000 0.00000000 0.00000000
vn -1.00000000 0.00000000 0.00000000
vn -0.98040710 -0.07795287 0.18090180
vn -0.41918440 0.05031422 0.90650590
vn -0.41918500 -0.05031453 0.90650560
vn -0.25001020 -0.57577260 0.77844760
vn -0.31363120 -0.53820940 0.78228250
vn -0.36795860 -0.03864027 0.92903900
vn -0.30642040 -0.04148168 0.95099210
vn -0.36795850 0.03864039 0.92903900
vn -0.30642060 0.04148175 0.95099200
vn -0.30642040 -0.04148168 0.95099210
vn -0.36795860 -0.03864027 0.92903900
vn -0.41918440 0.05031422 0.90650590
vn -0.41918500 -0.05031453 0.90650560
vn -0.24594230 0.04300786 0.96832990
vn -0.24595450 -0.04269792 0.96834040
vn -0.98040710 -0.07795287 0.18090180
vn -0.41918500 -0.05031453 0.90650560
vt 10.75378000 0.61872110
vt 10.76244000 0.61872110
vt 10.76244000 0.59498170
vt 10.75378000 0.59498170
vt 10.75250000 0.61738570
vt 10.75250000 0.59631710
vt 10.98855000 0.60422060
vt 10.99727000 0.60422060
vt 10.98734000 0.55925040
vt 10.97865000 0.55925040
vt 10.97465000 0.51505890
vt 10.96585000 0.51505880
vt 10.99322000 0.65105320
vt 11.00200000 0.65105320
vt 10.99322000 0.68872550
vt 11.00200000 0.68872550
vt 11.00200000 0.72639780
vt 10.99322000 0.72639780
vt 10.99727000 0.77323040
vt 10.98855000 0.77323040
vt 10.95854000 0.46968240
vt 10.94971000 0.46968200
vt 10.93914000 0.42501970
vt 10.93035000 0.42501970
vt 10.98734000 0.81820050
vt 10.97865000 0.81820050
vt 10.97465000 0.86239210
vt 10.96585000 0.86239220
vt 10.95854000 0.90776870
vt 10.94971000 0.90776890
vt 10.93914000 0.95243120
vt 10.93035000 0.95243120
vt 10.97465000 0.51505890
vt 10.95951000 0.46968500
vt 10.95854000 0.46968240
vt 10.97554000 0.51471250
vt 10.98734000 0.55925040
vt 10.98836000 0.55921570
vt 10.99727000 0.60422060
vt 10.99824000 0.60401090
vt 11.00200000 0.65105320
vt 11.00298000 0.65101240
vt 11.00298000 0.68872550
vt 11.00200000 0.68872550
vt 11.00200000 0.72639780
vt 11.00298000 0.72643870
vt 10.99824000 0.77344020
vt 10.99727000 0.77323040
vt 10.98836000 0.81823530
vt 10.98734000 0.81820050
vt 10.93046000 0.47256090
vt 10.90944000 0.51679290
vt 10.93046000 0.51679290
vt 10.90944000 0.47256090
vt 10.93046000 0.42981560
vt 10.90944000 0.42981560
vt 10.93046000 0.56051000
vt 10.90944000 0.60451390
vt 10.93046000 0.60451390
vt 10.90944000 0.56051000
vt 10.97357000 0.01434408
vt 10.97357000 -0.02952780
vt 10.94989000 -0.02952780
vt 10.94989000 0.01434408
vt 10.94989000 0.05891763
vt 10.97357000 0.05891763
vt 10.97357000 0.10232720
vt 10.94989000 0.10232720
vt 10.94989000 0.14650150
vt 10.97357000 0.14650150
vt 10.97357000 0.19250530
vt 10.94989000 0.19250530
vt 10.97357000 0.22951080
vt 10.94989000 0.22951080
vt 10.94989000 0.26651630
vt 10.97357000 0.26651630
vt 10.94989000 0.31252000
vt 10.97357000 0.31252000
vt 10.97357000 0.35669430
vt 10.94989000 0.35669430
vt 10.94989000 0.40010390
vt 10.97357000 0.40010390
vt 10.97357000 0.44467760
vt 10.94989000 0.44467760
vt 10.94989000 0.48854940
vt 10.97357000 0.48854940
vt 10.89183000 0.10005030
vt 10.90053000 0.10005030
vt 10.91332000 0.05586350
vt 10.90453000 0.05586365
vt 10.92946000 0.01049197
vt 10.92063000 0.01049231
vt 10.94882000 -0.03416531
vt 10.94003000 -0.03416531
vt 10.88193000 0.14501540
vt 10.89062000 0.14501540
vt 10.87718000 0.19184270
vt 10.88596000 0.19184270
vt 10.87718000 0.22951080
vt 10.88596000 0.22951080
vt 10.88596000 0.26717880
vt 10.87718000 0.26717880
vt 10.89062000 0.31400610
vt 10.88193000 0.31400610
vt 10.90053000 0.35897120
vt 10.89183000 0.35897120
vt 10.91332000 0.40315800
vt 10.90453000 0.40315780
vt 10.92946000 0.44852970
vt 10.92063000 0.44852930
vt 10.94003000 0.49318680
vt 10.94882000 0.49318680
vt 10.90944000 0.65068510
vt 10.93046000 0.65068510
vt 10.93046000 0.68773190
vt 10.90944000 0.68773190
vt 10.90944000 0.72477870
vt 10.93046000 0.72477870
vt 10.93046000 0.77095000
vt 10.90944000 0.77095000
vt 10.94044000 0.42617090
vt 10.93914000 0.42501970
vt 10.94003000 -0.03416531
vt 10.93873000 -0.03301431
vt 10.91966000 0.01049490
vt 10.92063000 0.01049231
vt 10.90363000 0.05551729
vt 10.90453000 0.05586365
vt 10.89081000 0.10001550
vt 10.89183000 0.10005030
vt 10.88094000 0.14480560
vt 10.88193000 0.14501540
vt 10.87620000 0.19180180
vt 10.87718000 0.19184270
vt 10.87620000 0.22951080
vt 10.87718000 0.22951080
vt 10.87718000 0.26717880
vt 10.87620000 0.26721970
vt 10.88193000 0.31400610
vt 10.88094000 0.31421590
vt 10.89183000 0.35897120
vt 10.89081000 0.35900600
vt 10.90453000 0.40315780
vt 10.90363000 0.40350430
vt 10.92063000 0.44852930
vt 10.91966000 0.44852670
vt 10.94003000 0.49318680
vt 10.93873000 0.49203590
vt 10.74631000 0.61870960
vt 10.73767000 0.59499320
vt 10.73767000 0.61870960
vt 10.74631000 0.59499320
vt 10.74759000 0.61737540
vt 10.74759000 0.59632730
vt 10.97465000 0.86239210
vt 10.95854000 0.90776870
vt 10.95951000 0.90776600
vt 10.97554000 0.86273850
vt 10.93046000 0.90290280
vt 10.93046000 0.85867080
vt 10.90944000 0.85867080
vt 10.90944000 0.90290280
vt 10.93046000 0.94564820
vt 10.90944000 0.94564820
vt 10.93046000 0.81495370
vt 10.90944000 0.81495370
vt 10.93914000 0.95243120
vt 10.94044000 0.95128000
f 3/3/3 2/2/2 1/1/1
f 4/4/4 3/3/3 1/1/1
f 1/1/1 5/5/5 4/4/4
f 5/5/5 6/6/6 4/4/4
f 9/9/9 8/8/8 7/7/7
f 10/10/10 9/9/9 7/7/7
f 9/9/9 10/10/10 11/11/11
f 10/10/10 12/12/12 11/11/11
f 13/13/13 7/7/7 8/8/8
f 14/14/14 13/13/13 8/8/8
f 15/15/15 13/13/13 14/14/14
f 16/16/16 15/15/15 14/14/14
f 15/15/15 16/16/16 17/17/17
f 18/18/18 15/15/15 17/17/17
f 18/18/18 17/17/17 19/19/19
f 20/20/20 18/18/18 19/19/19
f 21/21/21 11/11/11 12/12/12
f 22/22/22 21/21/21 12/12/12
f 21/21/21 22/22/22 23/23/23
f 22/22/22 24/24/24 23/23/23
f 19/19/19 25/25/25 20/20/20
f 25/25/25 26/26/26 20/20/20
f 26/26/26 25/25/25 27/27/27
f 28/28/28 26/26/26 27/27/27
f 27/27/27 29/29/29 28/28/28
f 29/29/29 30/30/30 28/28/28
f 30/30/30 29/29/29 31/31/31
f 32/32/32 30/30/30 31/31/31
f 35/35/35 34/34/34 33/33/33
f 34/34/34 36/36/36 33/33/33
f 33/33/33 36/36/36 37/37/37
f 36/36/36 38/38/38 37/37/37
f 37/37/37 38/38/38 39/39/39
f 38/38/38 40/40/40 39/39/39
f 39/39/39 40/40/40 41/41/41
f 40/40/40 42/42/42 41/41/41
f 41/41/41 42/42/42 43/43/43
f 44/44/44 41/41/41 43/43/43
f 45/45/45 44/44/44 43/43/43
f 46/46/46 45/45/45 43/43/43
f 46/46/46 47/47/47 45/45/45
f 47/47/47 48/48/48 45/45/45
f 47/47/47 49/49/49 48/48/48
f 49/49/49 50/50/50 48/48/48
f 53/53/53 52/52/52 51/51/51
f 52/52/52 54/54/54 51/51/51
f 55/55/55 51/51/51 54/54/54
f 56/56/56 55/55/55 54/54/54
f 59/59/59 58/58/58 57/57/57
f 58/58/58 60/60/60 57/57/57
f 53/53/53 57/57/57 60/60/60
f 52/52/52 53/53/53 60/60/60
f 63/63/63 62/62/62 61/61/61
f 64/64/64 63/63/63 61/61/61
f 64/64/64 61/61/61 65/65/65
f 61/61/61 66/66/66 65/65/65
f 65/65/65 66/66/66 67/67/67
f 68/68/68 65/65/65 67/67/67
f 68/68/68 67/67/67 69/69/69
f 67/67/67 70/70/70 69/69/69
f 69/69/69 70/70/70 71/71/71
f 72/72/72 69/69/69 71/71/71
f 72/72/72 71/71/71 73/73/73
f 74/74/74 72/72/72 73/73/73
f 75/75/75 74/74/74 73/73/73
f 76/76/76 75/75/75 73/73/73
f 77/77/77 75/75/75 76/76/76
f 78/78/78 77/77/77 76/76/76
f 78/78/78 79/79/79 77/77/77
f 79/79/79 80/80/80 77/77/77
f 81/81/81 80/80/80 79/79/79
f 82/82/82 81/81/81 79/79/79
f 82/82/82 83/83/83 81/81/81
f 83/83/83 84/84/84 81/81/81
f 85/85/85 84/84/84 83/83/83
f 86/86/86 85/85/85 83/83/83
f 89/89/89 88/88/88 87/87/87
f 90/90/90 89/89/89 87/87/87
f 89/89/89 90/90/90 91/91/91
f 90/90/90 92/92/92 91/91/91
f 93/93/93 91/91/91 92/92/92
f 94/94/94 93/93/93 92/92/92
f 95/95/95 87/87/87 88/88/88
f 96/96/96 95/95/95 88/88/88
f 95/95/95 96/96/96 97/97/97
f 96/96/96 98/98/98 97/97/97
f 97/97/97 98/98/98 99/99/99
f 98/98/98 100/100/100 99/99/99
f 100/100/100 101/101/101 99/99/99
f 101/101/101 102/102/102 99/99/99
f 101/101/101 103/103/103 102/102/102
f 103/103/103 104/104/104 102/102/102
f 104/104/104 103/103/103 105/105/105
f 106/106/106 104/104/104 105/105/105
f 105/105/105 107/107/107 106/106/106
f 107/107/107 108/108/108 106/106/106
f 108/108/108 107/107/107 109/109/109
f 110/110/110 108/108/108 109/109/109
f 112/112/112 111/111/111 110/110/110
f 109/109/109 112/112/112 110/110/110
f 58/58/58 59/59/59 113/113/113
f 59/59/59 114/114/114 113/113/113
f 113/113/113 114/114/114 115/115/115
f 116/116/116 113/113/113 115/115/115
f 117/117/117 116/116/116 115/115/115
f 118/118/118 117/117/117 115/115/115
f 118/118/118 119/119/119 117/117/117
f 119/119/119 120/120/120 117/117/117
f 121/121/121 34/34/34 35/35/35
f 122/122/122 121/121/121 35/35/35
f 125/125/125 124/124/124 123/123/123
f 126/126/126 125/125/125 123/123/123
f 127/127/127 125/125/125 126/126/126
f 128/128/128 127/127/127 126/126/126
f 129/129/129 127/127/127 128/128/128
f 130/130/130 129/129/129 128/128/128
f 131/131/131 129/129/129 130/130/130
f 132/132/132 131/131/131 130/130/130
f 133/133/133 131/131/131 132/132/132
f 134/134/134 133/133/133 132/132/132
f 135/135/135 133/133/133 134/134/134
f 136/136/136 135/135/135 134/134/134
f 135/135/135 136/136/136 137/137/137
f 138/138/138 135/135/135 137/137/137
f 138/138/138 137/137/137 139/139/139
f 140/140/140 138/138/138 139/139/139
f 140/140/140 139/139/139 141/141/141
f 142/142/142 140/140/140 141/141/141
f 142/142/142 141/141/141 143/143/143
f 144/144/144 142/142/142 143/143/143
f 144/144/144 143/143/143 145/145/145
f 146/146/146 144/144/144 145/145/145
f 146/146/146 145/145/145 147/147/147
f 148/148/148 146/146/146 147/147/147
f 151/151/151 150/150/150 149/149/149
f 150/150/150 152/152/152 149/149/149
f 153/153/153 149/149/149 152/152/152
f 154/154/154 153/153/153 152/152/152
f 157/157/157 156/156/156 155/155/155
f 158/158/158 157/157/157 155/155/155
f 158/158/158 155/155/155 50/50/50
f 49/49/49 158/158/158 50/50/50
f 161/161/161 160/160/160 159/159/159
f 162/162/162 161/161/161 159/159/159
f 159/159/159 163/163/163 162/162/162
f 163/163/163 164/164/164 162/162/162
f 120/120/120 119/119/119 165/165/165
f 166/166/166 120/120/120 165/165/165
f 165/165/165 160/160/160 166/166/166
f 160/160/160 161/161/161 166/166/166
f 168/168/168 167/167/167 156/156/156
f 157/157/157 168/168/168 156/156/156

