mtllib oven_FP1.mtl
v 0.32551 0.01488 0.00018
v 0.32551 0.01488 -0.01067
v 0.32551 -0.01487 -0.01067
v 0.32551 -0.01487 0.00018
v 0.32408 0.01321 0.00178
v 0.32408 -0.0132 0.00178
v 0.10431 -0.01487 0.06116
v 0.10431 -0.01487 0.07193
v 0.15982 -0.01487 0.05967
v 0.15982 -0.01487 0.04894
v 0.21437 -0.01487 0.044
v 0.21437 -0.01487 0.03314
v 0.10431 -0.01487 0.07193
v 0.04651 -0.01487 0.06692
v 0.04651 -0.01487 0.07776
v 0 -0.01487 0.06692
v 0 -0.01487 0.07776
v -0.0465 -0.01487 0.07776
v -0.0465 -0.01487 0.06692
v -0.1043 -0.01487 0.07193
v -0.1043 -0.01487 0.06116
v 0.21437 -0.01487 0.044
v 0.27038 -0.01487 0.02412
v 0.27038 -0.01487 0.01322
v 0.32551 -0.01487 0.00018
v 0.32551 -0.01487 -0.01067
v -0.15981 -0.01487 0.05967
v -0.1043 -0.01487 0.07193
v -0.15981 -0.01487 0.04894
v -0.21436 -0.01487 0.044
v -0.21436 -0.01487 0.03314
v -0.27037 -0.01487 0.02412
v -0.21436 -0.01487 0.044
v -0.27037 -0.01487 0.01322
v -0.3255 -0.01487 0.00018
v -0.3255 -0.01487 -0.01067
v 0.21437 -0.01487 0.044
v 0.27037 -0.0132 0.02532
v 0.27038 -0.01487 0.02412
v 0.21479 -0.0132 0.04511
v 0.15982 -0.01487 0.05967
v 0.15986 -0.0132 0.06093
v 0.10431 -0.01487 0.07193
v 0.15986 -0.0132 0.06093
v 0.15982 -0.01487 0.05967
v 0.10457 -0.0132 0.07312
v 0.04651 -0.01487 0.07776
v 0.04656 -0.0132 0.07897
v 0 -0.0132 0.07897
v 0 -0.01487 0.07776
v -0.0465 -0.01487 0.07776
v -0.04655 -0.0132 0.07897
v -0.10456 -0.0132 0.07312
v -0.1043 -0.01487 0.07193
v -0.15985 -0.0132 0.06093
v -0.15981 -0.01487 0.05967
v 0.27037 0.01321 0.02532
v 0.21479 -0.0132 0.04511
v 0.21479 0.01321 0.04511
v 0.27037 -0.0132 0.02532
v 0.32408 0.01321 0.00178
v 0.32408 -0.0132 0.00178
v 0.15986 0.01321 0.06093
v 0.10457 -0.0132 0.07312
v 0.10457 0.01321 0.07312
v 0.15986 -0.0132 0.06093
v 0.21479 0.01321 0.04511
v 0.21479 -0.0132 0.04511
v 0.27038 -0.01487 0.01322
v 0.32551 -0.01487 -0.01067
v 0.32551 0.01488 -0.01067
v 0.27038 0.01488 0.01322
v 0.21437 0.01488 0.03314
v 0.21437 -0.01487 0.03314
v 0.15982 -0.01487 0.04894
v 0.15982 0.01488 0.04894
v 0.10431 0.01488 0.06116
v 0.10431 -0.01487 0.06116
v 0.04651 -0.01487 0.06692
v 0.04651 0.01488 0.06692
v 0 -0.01487 0.06692
v 0 0.01488 0.06692
v -0.0465 0.01488 0.06692
v -0.0465 -0.01487 0.06692
v -0.1043 0.01488 0.06116
v -0.1043 -0.01487 0.06116
v -0.15981 -0.01487 0.04894
v -0.15981 0.01488 0.04894
v -0.21436 0.01488 0.03314
v -0.21436 -0.01487 0.03314
v -0.27037 -0.01487 0.01322
v -0.27037 0.01488 0.01322
v -0.3255 0.01488 -0.01067
v -0.3255 -0.01487 -0.01067
v 0.15982 0.01488 0.05967
v 0.15982 0.01488 0.04894
v 0.21437 0.01488 0.03314
v 0.21437 0.01488 0.044
v 0.27038 0.01488 0.01322
v 0.27038 0.01488 0.02412
v 0.27038 0.01488 0.01322
v 0.32551 0.01488 -0.01067
v 0.32551 0.01488 0.00018
v 0.15982 0.01488 0.04894
v 0.10431 0.01488 0.07189
v 0.10431 0.01488 0.06116
v 0.04651 0.01488 0.07776
v 0.04651 0.01488 0.06692
v 0 0.01488 0.07776
v 0 0.01488 0.06692
v -0.0465 0.01488 0.06692
v -0.0465 0.01488 0.07776
v -0.1043 0.01488 0.06116
v -0.1043 0.01488 0.07189
v -0.15981 0.01488 0.04894
v -0.15981 0.01488 0.05967
v -0.21436 0.01488 0.03314
v -0.15981 0.01488 0.04894
v -0.21436 0.01488 0.044
v -0.27037 0.01488 0.01322
v -0.27037 0.01488 0.02412
v -0.3255 0.01488 0.00018
v -0.3255 0.01488 -0.01067
v -0.27037 0.01488 0.01322
v 0.04656 -0.0132 0.07897
v 0.10457 0.01321 0.07312
v 0.10457 -0.0132 0.07312
v 0.04656 0.01321 0.07897
v 0 0.01321 0.07897
v 0 -0.0132 0.07897
v -0.04655 -0.0132 0.07897
v -0.04655 0.01321 0.07897
v -0.10456 0.01321 0.07312
v -0.10456 -0.0132 0.07312
v 0.27038 -0.01487 0.02412
v 0.27037 -0.0132 0.02532
v 0.32408 -0.0132 0.00178
v 0.32551 -0.01487 0.00018
v 0.32551 0.01488 0.00018
v 0.32408 0.01321 0.00178
v 0.27037 0.01321 0.02532
v 0.27038 0.01488 0.02412
v 0.21479 0.01321 0.04511
v 0.21437 0.01488 0.044
v 0.21479 0.01321 0.04511
v 0.15986 0.01321 0.06093
v 0.15982 0.01488 0.05967
v 0.10457 0.01321 0.07312
v 0.10431 0.01488 0.07189
v 0.10457 0.01321 0.07312
v 0.04656 0.01321 0.07897
v 0.04651 0.01488 0.07776
v 0 0.01321 0.07897
v 0 0.01488 0.07776
v -0.0465 0.01488 0.07776
v -0.04655 0.01321 0.07897
v -0.1043 0.01488 0.07189
v -0.10456 0.01321 0.07312
v -0.15981 0.01488 0.05967
v -0.10456 0.01321 0.07312
v -0.15985 0.01321 0.06093
v -0.21436 0.01488 0.044
v -0.21478 0.01321 0.04511
v -0.27037 0.01488 0.02412
v -0.21478 0.01321 0.04511
v -0.27036 0.01321 0.02532
v -0.3255 0.01488 0.00018
v -0.32407 0.01321 0.00178
v -0.3255 0.01488 0.00018
v -0.3255 -0.01487 -0.01067
v -0.3255 0.01488 -0.01067
v -0.3255 -0.01487 0.00018
v -0.32407 0.01321 0.00178
v -0.32407 -0.0132 0.00178
v -0.21436 -0.01487 0.044
v -0.27037 -0.01487 0.02412
v -0.27036 -0.0132 0.02532
v -0.21478 -0.0132 0.04511
v -0.15981 -0.01487 0.05967
v -0.15985 -0.0132 0.06093
v -0.27036 0.01321 0.02532
v -0.21478 0.01321 0.04511
v -0.21478 -0.0132 0.04511
v -0.27036 -0.0132 0.02532
v -0.32407 0.01321 0.00178
v -0.32407 -0.0132 0.00178
v -0.15985 0.01321 0.06093
v -0.10456 0.01321 0.07312
v -0.10456 -0.0132 0.07312
v -0.15985 -0.0132 0.06093
v -0.21478 0.01321 0.04511
v -0.21478 -0.0132 0.04511
v -0.27037 -0.01487 0.02412
v -0.3255 -0.01487 0.00018
v -0.32407 -0.0132 0.00178
v -0.27036 -0.0132 0.02532
vt 10.75378 0.6187211
vt 10.76244 0.6187211
vt 10.76244 0.5949817
vt 10.75378 0.5949817
vt 10.7525 0.6173857
vt 10.7525 0.5963171
vt 10.98855 0.6042206
vt 10.99727 0.6042206
vt 10.98734 0.5592504
vt 10.97865 0.5592504
vt 10.97465 0.5150589
vt 10.96585 0.5150588
vt 10.99727 0.6042206
vt 10.99322 0.6510532
vt 11.002 0.6510532
vt 10.99322 0.6887255
vt 11.002 0.6887255
vt 11.002 0.7263978
vt 10.99322 0.7263978
vt 10.99727 0.7732304
vt 10.98855 0.7732304
vt 10.97465 0.5150589
vt 10.95854 0.4696824
vt 10.94971 0.469682
vt 10.93914 0.4250197
vt 10.93035 0.4250197
vt 10.98734 0.8182005
vt 10.99727 0.7732304
vt 10.97865 0.8182005
vt 10.97465 0.8623921
vt 10.96585 0.8623922
vt 10.95854 0.9077687
vt 10.97465 0.8623921
vt 10.94971 0.9077689
vt 10.93914 0.9524312
vt 10.93035 0.9524312
vt 10.97465 0.5150589
vt 10.95951 0.469685
vt 10.95854 0.4696824
vt 10.97554 0.5147125
vt 10.98734 0.5592504
vt 10.98836 0.5592157
vt 10.99727 0.6042206
vt 10.98836 0.5592157
vt 10.98734 0.5592504
vt 10.99824 0.6040109
vt 11.002 0.6510532
vt 11.00298 0.6510124
vt 11.00298 0.6887255
vt 11.002 0.6887255
vt 11.002 0.7263978
vt 11.00298 0.7264387
vt 10.99824 0.7734402
vt 10.99727 0.7732304
vt 10.98836 0.8182353
vt 10.98734 0.8182005
vt 10.93046 0.4725609
vt 10.90944 0.5167929
vt 10.93046 0.5167929
vt 10.90944 0.4725609
vt 10.93046 0.4298156
vt 10.90944 0.4298156
vt 10.93046 0.56051
vt 10.90944 0.6045139
vt 10.93046 0.6045139
vt 10.90944 0.56051
vt 10.93046 0.5167929
vt 10.90944 0.5167929
vt 10.97357 0.01434408
vt 10.97357 -0.0295278
vt 10.94989 -0.0295278
vt 10.94989 0.01434408
vt 10.94989 0.05891763
vt 10.97357 0.05891763
vt 10.97357 0.1023272
vt 10.94989 0.1023272
vt 10.94989 0.1465015
vt 10.97357 0.1465015
vt 10.97357 0.1925053
vt 10.94989 0.1925053
vt 10.97357 0.2295108
vt 10.94989 0.2295108
vt 10.94989 0.2665163
vt 10.97357 0.2665163
vt 10.94989 0.31252
vt 10.97357 0.31252
vt 10.97357 0.3566943
vt 10.94989 0.3566943
vt 10.94989 0.4001039
vt 10.97357 0.4001039
vt 10.97357 0.4446776
vt 10.94989 0.4446776
vt 10.94989 0.4885494
vt 10.97357 0.4885494
vt 10.89183 0.1000503
vt 10.90053 0.1000503
vt 10.91332 0.0558635
vt 10.90453 0.05586365
vt 10.92946 0.01049197
vt 10.92063 0.01049231
vt 10.92946 0.01049197
vt 10.94882 -0.03416531
vt 10.94003 -0.03416531
vt 10.90053 0.1000503
vt 10.88193 0.1450154
vt 10.89062 0.1450154
vt 10.87718 0.1918427
vt 10.88596 0.1918427
vt 10.87718 0.2295108
vt 10.88596 0.2295108
vt 10.88596 0.2671788
vt 10.87718 0.2671788
vt 10.89062 0.3140061
vt 10.88193 0.3140061
vt 10.90053 0.3589712
vt 10.89183 0.3589712
vt 10.91332 0.403158
vt 10.90053 0.3589712
vt 10.90453 0.4031578
vt 10.92946 0.4485297
vt 10.92063 0.4485293
vt 10.94003 0.4931868
vt 10.94882 0.4931868
vt 10.92946 0.4485297
vt 10.90944 0.6506851
vt 10.93046 0.6045139
vt 10.90944 0.6045139
vt 10.93046 0.6506851
vt 10.93046 0.6877319
vt 10.90944 0.6877319
vt 10.90944 0.7247787
vt 10.93046 0.7247787
vt 10.93046 0.77095
vt 10.90944 0.77095
vt 10.95854 0.4696824
vt 10.95951 0.469685
vt 10.94044 0.4261709
vt 10.93914 0.4250197
vt 10.94003 -0.03416531
vt 10.93873 -0.03301431
vt 10.91966 0.0104949
vt 10.92063 0.01049231
vt 10.90363 0.05551729
vt 10.90453 0.05586365
vt 10.90363 0.05551729
vt 10.89081 0.1000155
vt 10.89183 0.1000503
vt 10.88094 0.1448056
vt 10.88193 0.1450154
vt 10.88094 0.1448056
vt 10.8762 0.1918018
vt 10.87718 0.1918427
vt 10.8762 0.2295108
vt 10.87718 0.2295108
vt 10.87718 0.2671788
vt 10.8762 0.2672197
vt 10.88193 0.3140061
vt 10.88094 0.3142159
vt 10.89183 0.3589712
vt 10.88094 0.3142159
vt 10.89081 0.359006
vt 10.90453 0.4031578
vt 10.90363 0.4035043
vt 10.92063 0.4485293
vt 10.90363 0.4035043
vt 10.91966 0.4485267
vt 10.94003 0.4931868
vt 10.93873 0.4920359
vt 10.74631 0.6187096
vt 10.73767 0.5949932
vt 10.73767 0.6187096
vt 10.74631 0.5949932
vt 10.74759 0.6173754
vt 10.74759 0.5963273
vt 10.97465 0.8623921
vt 10.95854 0.9077687
vt 10.95951 0.907766
vt 10.97554 0.8627385
vt 10.98734 0.8182005
vt 10.98836 0.8182353
vt 10.93046 0.9029028
vt 10.93046 0.8586708
vt 10.90944 0.8586708
vt 10.90944 0.9029028
vt 10.93046 0.9456482
vt 10.90944 0.9456482
vt 10.93046 0.8149537
vt 10.93046 0.77095
vt 10.90944 0.77095
vt 10.90944 0.8149537
vt 10.93046 0.8586708
vt 10.90944 0.8586708
vt 10.95854 0.9077687
vt 10.93914 0.9524312
vt 10.94044 0.95128
vt 10.95951 0.907766
vn -1 0 0
vn -1 0 0
vn -1 0 0
vn -1 0 0
vn 0 1 0
vn 0 1 0
vn 0 1 0
vn 0 1 0
vn 0 1 0
vn 0 1 0
vn 0 1 0
vn 0 1 0
vn 0 1 0
vn 0 1 0
vn 1 0 0
vn 1 0 0
vn 1 0 0
vn 1 0 0
vn 0 0 -1
vn 0 0 -1
vn 0 0 -1
vn 0 0 -1
vn 0 0 -1
vn 0 0 -1
vn 0 -1 0
vn 0 -1 0
vn 0 -1 0
vn 0 -1 0
vn 0 -1 0
vn 0 -1 0
vn 0 1 0
vn 0 1 0
vn 0 1 0
vn 0 1 0
vn 0 1 0
vn 0 1 0
vn 0 1 0
vn 0 1 0
vn 0 1 0
vn 0 1 0
vn 0 1 0
vn 0 1 0
vn 0 1 0
vn 1 0 0
vn 1 0 0
vn 1 0 0
vn 1 0 0
vn -1 0 0
vn -1 0 0
vn -1 0 0
vn -1 0 0
vn 1 0 0
vn 1 0 0
vn 1 0 0
vn 1 0 0
vn 0 -1 0
vn 0 -1 0
vn 0 -1 0
vn 0 -1 0
vn 0 -1 0
vn 0 -1 0
vn 0 1 0
vn 0 1 0
vn 0 1 0
vn 0 1 0
vn 0 1 0
vn 0 1 0
vn 0 0 -1
vn 0 0 -1
vn 0 0 -1
vn 0 0 -1
vn 0 0 -1
vn 0 0 -1
vn -1 0 0
vn -1 0 0
vn -1 0 0
vn -1 0 0
vn 0 0 -1
vn 0 0 -1
vn 0 0 -1
vn 0 0 -1
vn 1 0 0
vn 1 0 0
vn 1 0 0
vn 1 0 0
vn 1 0 0
vn 1 0 0
vn -1 0 0
vn -1 0 0
vn -1 0 0
vn -1 0 0
vn 1 0 0
vn 1 0 0
vn 0 -1 0
vn 0 -1 0
vn 0 -1 0
vn 0 -1 0
vn 0 -1 0
vn 0 -1 0
vn 0 -1 0
vn 0 -1 0
vn 0 -1 0
vn 0 -1 0
vn 0 -1 0
vn -0.1567877 0 -0.9876323
vn -0.1567877 0 -0.9876323
vn 0 0 -1
vn 0 0 -1
vn 0.1567877 0 -0.9876323
vn 0.1567877 0 -0.9876323
vn 0.3977498 0 -0.917494
vn 0.3977498 0 -0.917494
vn 0 1 0
vn 0 1 0
vn 0 1 0
vn 0 1 0
vn 0 1 0
vn 0 1 0
vn 0 1 0
vn 0 1 0
vn 0 1 0
vn 0 1 0
vn 0 1 0
vn 0 1 0
vn 0 1 0
vn 0 1 0
vn 0 1 0
vn 0 1 0
vn 0 1 0
vn 0 1 0
vn -1 0 0
vn -1 0 0
vn 1 0 0
vn 1 0 0
vn 1 0 0
vn 1 0 0
vn 1 0 0
vn 1 0 0
vn 1 0 0
vn 1 0 0
vn 1 0 0
vn 1 0 0
vn 1 0 0
vn 1 0 0
vn 0 1 0
vn 0 1 0
vn 0 1 0
vn 0 1 0
vn 0 1 0
vn 0 1 0
vn 0 1 0
vn 0 1 0
vn 0 1 0
vn 0 1 0
vn 0 1 0
vn 0 -1 0
vn 0 -1 0
vn 0 -1 0
vn 0 -1 0
vn 0 -1 0
vn 0 -1 0
vn 0 -1 0
vn 0 -1 0
vn 0 -1 0
vn 0 -1 0
vn 0 -1 0
vn -1 0 0
vn -1 0 0
vn -1 0 0
vn -1 0 0
vn -1 0 0
vn -1 0 0
vn -1 0 0
vn -1 0 0
vn 0 -1 0
vn 0 -1 0
vn 0 -1 0
vn 0 -1 0
vn 0 -1 0
vn 0 -1 0
vn -1 0 0
vn -1 0 0
vn -1 0 0
vn -1 0 0
vn 0 1 0
vn 0 1 0
vn 0 1 0
vn 0 1 0
vn 0 1 0
vn 0 1 0
vn 0 1 0
vn 0 -1 0
vn 0 -1 0
vn -1 0 0
vn -1 0 0
vn -1 0 0
vn -1 0 0
vn -1 0 0
vn -1 0 0
vn -1 0 0
vn -1 0 0
vn -1 0 0
vn -1 0 0
vn 0 1 0
vn 0 1 0
vn 0 1 0
vn 0 1 0
vn 0 1 0
vn 0 1 0
vn 0 -1 0
vn 0 -1 0
vn 0 -1 0
vn 0 -1 0
vn 1 0 0
vn 1 0 0
vn 1 0 0
vn 1 0 0
vn 1 0 0
vn 1 0 0
vn 1 0 0
vn 1 0 0
vn 1 0 0
vn 1 0 0
vn 1 0 0
vn 1 0 0
vn 0 1 0
vn 0 1 0
vn 1 0 0
vn 1 0 0
vn 1 0 0
vn 1 0 0
vn 1 0 0
vn 1 0 0
vn 1 0 0
vn 1 0 0
vn 1 0 0
vn 1 0 0
vn 0 0 -1
vn 0 0 -1
vn 0 -1 0
vn 0 -1 0
vn 0 -1 0
vn 0 -1 0
vn 0 -1 0
vn 0 -1 0
vn 0 0 -1
vn 0 0 -1
vn 0 -1 0
vn 0 -1 0
vn 0 -1 0
vn 0 -1 0
vn 0 -1 0
vn 0 -1 0
vn -1 0 0
vn -1 0 0
vn -1 0 0
vn -1 0 0
vn -1 0 0
vn -1 0 0
vn -1 0 0
vn -1 0 0
vn -1 0 0
vn -1 0 0
vn 0 1 0
vn 0 1 0
vn 0 1 0
vn 0 1 0
vn 0 1 0
vn 0 1 0
vn 0 1 0
vn 0 1 0
vn 0 1 0
vn 0 1 0
vn 0 1 0
vn 0 1 0
vn 0 1 0
vn 0 1 0
vn 0 1 0
vn 0 1 0
vn 0 1 0
vn 0 1 0
vn 0 1 0
vn 0 1 0
vn 0 -1 0
vn 0 1 0
vn 0 0 -1
vn 0 0 -1
vn 0 0 -1
vn 0 0 -1
vn -1 0 0
vn -1 0 0
vn -1 0 0
vn -1 0 0
vn -1 0 0
vn -1 0 0
vn 1 0 0
vn 1 0 0
vn 1 0 0
vn 1 0 0
vn -1 0 0
vn -1 0 0
vn -1 0 0
vn -1 0 0
vn -1 0 0
vn -1 0 0
vn 1 0 0
vn 1 0 0
vn 1 0 0
vn 1 0 0
vn 0 0 -1
vn 0 0 -1
vn 0 0 -1
vn 0 0 -1
vn 0 0 -1
vn -1 0 0
vn 0 1 0
vn 0 1 0
vn 0 1 0
vn 0 1 0
vn 1 0 0
vn 1 0 0
vn 1 0 0
vn 1 0 0
vn 0 -1 0
vn 0 -1 0
vn 0 -1 0
vn 0 -1 0
vn -1 0 0
vn -1 0 0
vn -1 0 0
vn -1 0 0
vn 0 1 0
vn 0 1 0
vn 1 0 0
vn 0 1 0
vn 0 1 0
vn 0 1 0
vn 0 1 0
vn -1 0 0
vn -1 0 0
vn -1 0 0
vn -1 0 0
vn 0 -1 0
vn 0 -1 0
vn 0 -1 0
vn 0 -1 0
vn 1 0 0
vn 1 0 0
vn 1 0 0
vn 1 0 0
vn 1 0 0
vn 1 0 0
vn 1 0 0
vn 1 0 0
vn 1 0 0
vn 1 0 0
vn 1 0 0
vn 1 0 0
vn 1 0 0
vn 1 0 0
vn -1 0 0
vn -1 0 0
vn 1 0 0
vn 1 0 0
vn 1 0 0
vn 1 0 0
vn 1 0 0
vn 1 0 0
vn 0 0 -1
vn 0 0 -1
vn -1 0 0
vn -1 0 0
vn -1 0 0
vn -1 0 0
vn 1 0 0
vn 1 0 0
vn 1 0 0
vn 1 0 0
vn 0 0 -1
vn 0 0 -1
vn 1 0 0
vn 1 0 0
vn 0 -1 0
vn 0 -1 0
vn 0 1 0
vn 0 1 0
vn 0 1 0
vn 0 1 0
vn 0 1 0
vn 0 1 0
vn 0 1 0
vn 0 1 0
vn -1 0 0
vn -1 0 0
vn -1 0 0
vn -1 0 0
vn 0 1 0
vn 0 1 0
vn 0 1 0
vn 0 1 0
vn 0 1 0
vn 0 1 0
vn 0 0 -1
vn 0 0 -1
vn 0 0 -1
vn 0 0 -1
vn 0 0 -1
vn 0 0 -1
vn 1 0 0
vn 1 0 0
vn 1 0 0
vn 1 0 0
vn 0.9804048 0.07796442 0.1809087
vn 1 0 0
vn 1 0 0
vn 0.9804072 -0.07795076 0.1809017
vn 0.4191821 0.0503214 0.9065066
vn 0.4191824 -0.05031354 0.9065069
vn 0 -1 -3.947177E-07
vn 0 -1 4.255917E-07
vn 0 -1 -1.703454E-06
vn 0 -1 -7.704257E-07
vn 0 -1 3.449436E-07
vn 0 -1 -3.310686E-07
vn 0 -1 4.255917E-07
vn 0 -1 2.25698E-06
vn 0 -1 2.131853E-06
vn 0 -1 0
vn 0 -1 0
vn 0 -1 2.624746E-06
vn 0 -1 2.778803E-06
vn 0 -1 5.239858E-07
vn 0 -1 -4.859793E-07
vn 0 -1 3.449436E-07
vn 0 -1 -1.049852E-06
vn 0 -1 -6.487973E-07
vn 0 -1 0
vn 0 -1 0
vn 0 -1 -2.985968E-06
vn 0 -1 5.239858E-07
vn 0 -1 -2.175627E-06
vn 0 -1 0
vn 0 -1 0
vn 0 -1 1.904188E-06
vn 0 -1 0
vn 0 -1 3.121648E-06
vn 0 -1 5.091171E-06
vn 0 -1 5.09117E-06
vn 0.2500118 -0.5757734 0.7784467
vn 0.367956 -0.03864005 0.92904
vn 0.3136269 -0.5382039 0.7822881
vn 0.3064204 -0.04148148 0.950992
vn 0.2013232 -0.5866268 0.7844347
vn 0.2459542 -0.04269772 0.9683405
vn 0.1262371 -0.5896328 0.7977452
vn 0.2459542 -0.04269772 0.9683405
vn 0.2013232 -0.5866268 0.7844347
vn 0.1572006 -0.04258016 0.9866484
vn 0.0453651 -0.5865384 0.80865
vn 0.05578987 -0.04229968 0.997546
vn -3.407067E-06 -0.04298837 0.9990755
vn -2.729724E-06 -0.5855197 0.8106582
vn -0.04536447 -0.5865309 0.8086554
vn -0.05578981 -0.04229955 0.9975461
vn -0.157198 -0.04258002 0.9866487
vn -0.1262341 -0.5896326 0.7977459
vn -0.2459545 -0.04269792 0.9683404
vn -0.2013236 -0.5866282 0.7844337
vn 0.3679563 0.03864269 0.9290398
vn 0.3064204 -0.04148148 0.950992
vn 0.3064204 0.04148167 0.9509921
vn 0.367956 -0.03864005 0.92904
vn 0.4191821 0.0503214 0.9065066
vn 0.4191824 -0.05031354 0.9065069
vn 0.245942 0.04300745 0.96833
vn 0.1572006 -0.04258016 0.9866484
vn 0.1571902 0.04314342 0.9866256
vn 0.2459542 -0.04269772 0.9683405
vn 0.3064204 0.04148167 0.9509921
vn 0.3064204 -0.04148148 0.950992
vn -0.3667834 0 -0.9303064
vn -0.3977498 0 -0.917494
vn -0.3977498 0 -0.917494
vn -0.3667834 0 -0.9303064
vn -0.3073801 0 -0.9515868
vn -0.3073801 0 -0.9515868
vn -0.2467363 0 -0.9690827
vn -0.2467363 0 -0.9690827
vn -0.1567877 0 -0.9876323
vn -0.1567877 0 -0.9876323
vn -0.05515244 0 -0.998478
vn -0.05515244 0 -0.998478
vn 0 0 -1
vn 0 0 -1
vn 0.05515244 0 -0.998478
vn 0.05515244 0 -0.998478
vn 0.1567877 0 -0.9876323
vn 0.1567877 0 -0.9876323
vn 0.2467363 0 -0.9690827
vn 0.2467363 0 -0.9690827
vn 0.3073801 0 -0.9515868
vn 0.3073801 0 -0.9515868
vn 0.3667834 0 -0.9303064
vn 0.3667834 0 -0.9303064
vn 0.3977498 0 -0.917494
vn 0.3977498 0 -0.917494
vn 0 1 0
vn 0 1 0
vn 0 1 1.477915E-06
vn 0 1 9.942505E-07
vn 0 1 -5.768471E-07
vn 0 1 6.001191E-07
vn 0 1 -5.768471E-07
vn 0 1 -2.480868E-06
vn 0 1 -2.480868E-06
vn 0 1 0
vn 0 1 0
vn 0 1 0
vn 0 1 0
vn 0 1 0
vn 0 1 0
vn 0 1 0
vn 0 1 0
vn 0 1 0
vn 0 1 0
vn 0 1 0
vn 0 1 0
vn 0 1 0
vn 0 1 3.032936E-06
vn 0 1 0
vn 0 1 2.040368E-06
vn 0 1 -1.183788E-06
vn 0 1 1.231558E-06
vn 0 1 -5.091164E-06
vn 0 1 -5.091164E-06
vn 0 1 -1.183788E-06
vn 0.05578987 -0.04229968 0.997546
vn 0.1571902 0.04314342 0.9866256
vn 0.1572006 -0.04258016 0.9866484
vn 0.05579839 0.04262871 0.9975317
vn -3.315963E-06 0.04299138 0.9990754
vn -3.407067E-06 -0.04298837 0.9990755
vn -0.05578981 -0.04229955 0.9975461
vn -0.05579841 0.04262352 0.9975318
vn -0.1571877 0.0431411 0.986626
vn -0.157198 -0.04258002 0.9866487
vn 0.3136269 -0.5382039 0.7822881
vn 0.367956 -0.03864005 0.92904
vn 0.4191824 -0.05031354 0.9065069
vn 0.9804072 -0.07795076 0.1809017
vn 0.9804048 0.07796442 0.1809087
vn 0.4191821 0.0503214 0.9065066
vn 0.3679563 0.03864269 0.9290398
vn 0.3136276 0.5382218 0.7822755
vn 0.3064204 0.04148167 0.9509921
vn 0.2500146 0.5757527 0.778461
vn 0.3064204 0.04148167 0.9509921
vn 0.245942 0.04300745 0.96833
vn 0.200788 0.5889916 0.7827981
vn 0.1571902 0.04314342 0.9866256
vn 0.1257256 0.5948287 0.7939596
vn 0.1571902 0.04314342 0.9866256
vn 0.05579839 0.04262871 0.9975317
vn 0.04537755 0.5895216 0.806477
vn -3.315963E-06 0.04299138 0.9990754
vn -1.488891E-06 0.5855338 0.810648
vn -0.04537934 0.5894694 0.806515
vn -0.05579841 0.04262352 0.9975318
vn -0.125726 0.594799 0.7939818
vn -0.1571877 0.0431411 0.986626
vn -0.2007895 0.5889958 0.7827947
vn -0.1571877 0.0431411 0.986626
vn -0.2459423 0.04300786 0.9683299
vn -0.2500162 0.5757595 0.7784554
vn -0.3064206 0.04148175 0.950992
vn -0.3136341 0.5381901 0.7822948
vn -0.3064206 0.04148175 0.950992
vn -0.3679585 0.03864039 0.929039
vn -0.9804052 0.07795485 0.180911
vn -0.4191844 0.05031422 0.9065059
vn -0.9804052 0.07795485 0.180911
vn -1 0 0
vn -1 0 0
vn -0.9804071 -0.07795287 0.1809018
vn -0.4191844 0.05031422 0.9065059
vn -0.419185 -0.05031453 0.9065056
vn -0.2500102 -0.5757726 0.7784476
vn -0.3136312 -0.5382094 0.7822825
vn -0.3679586 -0.03864027 0.929039
vn -0.3064204 -0.04148168 0.9509921
vn -0.2013236 -0.5866282 0.7844337
vn -0.2459545 -0.04269792 0.9683404
vn -0.3679585 0.03864039 0.929039
vn -0.3064206 0.04148175 0.950992
vn -0.3064204 -0.04148168 0.9509921
vn -0.3679586 -0.03864027 0.929039
vn -0.4191844 0.05031422 0.9065059
vn -0.419185 -0.05031453 0.9065056
vn -0.2459423 0.04300786 0.9683299
vn -0.1571877 0.0431411 0.986626
vn -0.157198 -0.04258002 0.9866487
vn -0.2459545 -0.04269792 0.9683404
vn -0.3064206 0.04148175 0.950992
vn -0.3064204 -0.04148168 0.9509921
vn -0.3136312 -0.5382094 0.7822825
vn -0.9804071 -0.07795287 0.1809018
vn -0.419185 -0.05031453 0.9065056
vn -0.3679586 -0.03864027 0.929039
usemtl BrushedIron_AlbedoTransparency
f 3/3/415 2/2/414 1/1/413
f 4/4/416 3/3/415 1/1/413
f 1/1/413 5/5/417 4/4/416
f 5/5/417 6/6/418 4/4/416
f 9/9/421 8/8/420 7/7/419
f 10/10/422 9/9/421 7/7/419
f 9/9/421 10/10/422 11/11/423
f 10/10/422 12/12/424 11/11/423
f 14/14/426 7/7/419 13/13/425
f 15/15/427 14/14/426 13/13/425
f 16/16/428 14/14/426 15/15/427
f 17/17/429 16/16/428 15/15/427
f 16/16/428 17/17/429 18/18/430
f 19/19/431 16/16/428 18/18/430
f 19/19/431 18/18/430 20/20/432
f 21/21/433 19/19/431 20/20/432
f 23/23/435 22/22/434 12/12/424
f 24/24/436 23/23/435 12/12/424
f 23/23/435 24/24/436 25/25/437
f 24/24/436 26/26/438 25/25/437
f 28/28/440 27/27/439 21/21/433
f 27/27/439 29/29/441 21/21/433
f 29/29/441 27/27/439 30/30/442
f 31/31/443 29/29/441 30/30/442
f 33/33/445 32/32/444 31/31/443
f 32/32/444 34/34/446 31/31/443
f 34/34/446 32/32/444 35/35/447
f 36/36/448 34/34/446 35/35/447
f 39/39/451 38/38/450 37/37/449
f 38/38/450 40/40/452 37/37/449
f 37/37/449 40/40/452 41/41/453
f 40/40/452 42/42/454 41/41/453
f 45/45/457 44/44/456 43/43/455
f 44/44/456 46/46/458 43/43/455
f 43/43/455 46/46/458 47/47/459
f 46/46/458 48/48/460 47/47/459
f 47/47/459 48/48/460 49/49/461
f 50/50/462 47/47/459 49/49/461
f 51/51/463 50/50/462 49/49/461
f 52/52/464 51/51/463 49/49/461
f 52/52/464 53/53/465 51/51/463
f 53/53/465 54/54/466 51/51/463
f 53/53/465 55/55/467 54/54/466
f 55/55/467 56/56/468 54/54/466
f 59/59/471 58/58/470 57/57/469
f 58/58/470 60/60/472 57/57/469
f 61/61/473 57/57/469 60/60/472
f 62/62/474 61/61/473 60/60/472
f 65/65/477 64/64/476 63/63/475
f 64/64/476 66/66/478 63/63/475
f 67/67/479 63/63/475 66/66/478
f 68/68/480 67/67/479 66/66/478
f 71/71/483 70/70/482 69/69/481
f 72/72/484 71/71/483 69/69/481
f 72/72/484 69/69/481 73/73/485
f 69/69/481 74/74/486 73/73/485
f 73/73/485 74/74/486 75/75/487
f 76/76/488 73/73/485 75/75/487
f 76/76/488 75/75/487 77/77/489
f 75/75/487 78/78/490 77/77/489
f 77/77/489 78/78/490 79/79/491
f 80/80/492 77/77/489 79/79/491
f 80/80/492 79/79/491 81/81/493
f 82/82/494 80/80/492 81/81/493
f 83/83/495 82/82/494 81/81/493
f 84/84/496 83/83/495 81/81/493
f 85/85/497 83/83/495 84/84/496
f 86/86/498 85/85/497 84/84/496
f 86/86/498 87/87/499 85/85/497
f 87/87/499 88/88/500 85/85/497
f 89/89/501 88/88/500 87/87/499
f 90/90/502 89/89/501 87/87/499
f 90/90/502 91/91/503 89/89/501
f 91/91/503 92/92/504 89/89/501
f 93/93/505 92/92/504 91/91/503
f 94/94/506 93/93/505 91/91/503
f 97/97/509 96/96/508 95/95/507
f 98/98/510 97/97/509 95/95/507
f 97/97/509 98/98/510 99/99/511
f 98/98/510 100/100/512 99/99/511
f 102/102/514 101/101/513 100/100/512
f 103/103/515 102/102/514 100/100/512
f 105/105/517 95/95/507 104/104/516
f 106/106/518 105/105/517 104/104/516
f 105/105/517 106/106/518 107/107/519
f 106/106/518 108/108/520 107/107/519
f 107/107/519 108/108/520 109/109/521
f 108/108/520 110/110/522 109/109/521
f 110/110/522 111/111/523 109/109/521
f 111/111/523 112/112/524 109/109/521
f 111/111/523 113/113/525 112/112/524
f 113/113/525 114/114/526 112/112/524
f 114/114/526 113/113/525 115/115/527
f 116/116/528 114/114/526 115/115/527
f 118/118/530 117/117/529 116/116/528
f 117/117/529 119/119/531 116/116/528
f 119/119/531 117/117/529 120/120/532
f 121/121/533 119/119/531 120/120/532
f 123/123/535 122/122/534 121/121/533
f 124/124/536 123/123/535 121/121/533
f 127/127/539 126/126/538 125/125/537
f 126/126/538 128/128/540 125/125/537
f 125/125/537 128/128/540 129/129/541
f 130/130/542 125/125/537 129/129/541
f 131/131/543 130/130/542 129/129/541
f 132/132/544 131/131/543 129/129/541
f 132/132/544 133/133/545 131/131/543
f 133/133/545 134/134/546 131/131/543
f 137/137/549 136/136/548 135/135/547
f 138/138/550 137/137/549 135/135/547
f 141/141/553 140/140/552 139/139/551
f 142/142/554 141/141/553 139/139/551
f 143/143/555 141/141/553 142/142/554
f 144/144/556 143/143/555 142/142/554
f 146/146/558 145/145/557 144/144/556
f 147/147/559 146/146/558 144/144/556
f 148/148/560 146/146/558 147/147/559
f 149/149/561 148/148/560 147/147/559
f 151/151/563 150/150/562 149/149/561
f 152/152/564 151/151/563 149/149/561
f 153/153/565 151/151/563 152/152/564
f 154/154/566 153/153/565 152/152/564
f 153/153/565 154/154/566 155/155/567
f 156/156/568 153/153/565 155/155/567
f 156/156/568 155/155/567 157/157/569
f 158/158/570 156/156/568 157/157/569
f 160/160/572 157/157/569 159/159/571
f 161/161/573 160/160/572 159/159/571
f 161/161/573 159/159/571 162/162/574
f 163/163/575 161/161/573 162/162/574
f 165/165/577 162/162/574 164/164/576
f 166/166/578 165/165/577 164/164/576
f 166/166/578 164/164/576 167/167/579
f 168/168/580 166/166/578 167/167/579
f 171/171/583 170/170/582 169/169/581
f 170/170/582 172/172/584 169/169/581
f 173/173/585 169/169/581 172/172/584
f 174/174/586 173/173/585 172/172/584
f 177/177/589 176/176/588 175/175/587
f 178/178/590 177/177/589 175/175/587
f 178/178/590 175/175/587 179/179/591
f 180/180/592 178/178/590 179/179/591
f 183/183/595 182/182/594 181/181/593
f 184/184/596 183/183/595 181/181/593
f 181/181/593 185/185/597 184/184/596
f 185/185/597 186/186/598 184/184/596
f 189/189/601 188/188/600 187/187/599
f 190/190/602 189/189/601 187/187/599
f 187/187/599 191/191/603 190/190/602
f 191/191/603 192/192/604 190/190/602
f 195/195/607 194/194/606 193/193/605
f 196/196/608 195/195/607 193/193/605
