mtllib oven_FP1.mtl
v 0.32551 0.01488 -0.00949
v 0.32551 -0.01487 -0.00949
v 0.32551 -0.01487 0.00136
v 0.32551 0.01488 0.00136
v 0.32408 -0.0132 0.00296
v 0.32408 0.01321 0.00296
v 0.10431 -0.01487 0.06234
v 0.10431 -0.01487 0.07311
v 0.15982 -0.01487 0.06085
v 0.15982 -0.01487 0.05012
v 0.21437 -0.01487 0.04518
v 0.21437 -0.01487 0.03432
v 0.10431 -0.01487 0.07311
v 0.04651 -0.01487 0.0681
v 0.04651 -0.01487 0.07894
v 0 -0.01487 0.0681
v 0 -0.01487 0.07894
v -0.0465 -0.01487 0.07894
v -0.0465 -0.01487 0.0681
v -0.1043 -0.01487 0.07311
v -0.1043 -0.01487 0.06234
v 0.21437 -0.01487 0.04518
v 0.27038 -0.01487 0.0253
v 0.27038 -0.01487 0.0144
v 0.32551 -0.01487 0.00136
v 0.32551 -0.01487 -0.00949
v -0.15981 -0.01487 0.06085
v -0.1043 -0.01487 0.07311
v -0.15981 -0.01487 0.05012
v -0.21436 -0.01487 0.04518
v -0.21436 -0.01487 0.03432
v -0.27037 -0.01487 0.0253
v -0.21436 -0.01487 0.04518
v -0.27037 -0.01487 0.0144
v -0.3255 -0.01487 0.00136
v -0.3255 -0.01487 -0.00949
v 0.21437 -0.01487 0.04518
v 0.27037 -0.0132 0.0265
v 0.27038 -0.01487 0.0253
v 0.21479 -0.0132 0.04629
v 0.15982 -0.01487 0.06085
v 0.15986 -0.0132 0.06211
v 0.10431 -0.01487 0.07311
v 0.15986 -0.0132 0.06211
v 0.15982 -0.01487 0.06085
v 0.10457 -0.0132 0.0743
v 0.04651 -0.01487 0.07894
v 0.04656 -0.0132 0.08015
v 0 -0.0132 0.08015
v 0 -0.01487 0.07894
v -0.0465 -0.01487 0.07894
v -0.04655 -0.0132 0.08015
v -0.10456 -0.0132 0.0743
v -0.1043 -0.01487 0.07311
v -0.15985 -0.0132 0.06211
v -0.15981 -0.01487 0.06085
v 0.27037 0.01321 0.0265
v 0.21479 -0.0132 0.04629
v 0.21479 0.01321 0.04629
v 0.27037 -0.0132 0.0265
v 0.32408 0.01321 0.00296
v 0.32408 -0.0132 0.00296
v 0.15986 0.01321 0.06211
v 0.10457 -0.0132 0.0743
v 0.10457 0.01321 0.0743
v 0.15986 -0.0132 0.06211
v 0.21479 0.01321 0.04629
v 0.21479 -0.0132 0.04629
v 0.27038 0.01488 0.0144
v 0.32551 -0.01487 -0.00949
v 0.32551 0.01488 -0.00949
v 0.27038 -0.01487 0.0144
v 0.21437 0.01488 0.03432
v 0.21437 -0.01487 0.03432
v 0.15982 0.01488 0.05012
v 0.15982 -0.01487 0.05012
v 0.10431 0.01488 0.06234
v 0.10431 -0.01487 0.06234
v 0.04651 0.01488 0.0681
v 0.04651 -0.01487 0.0681
v 0 0.01488 0.0681
v 0 -0.01487 0.0681
v -0.0465 0.01488 0.0681
v -0.0465 -0.01487 0.0681
v -0.1043 0.01488 0.06234
v -0.1043 -0.01487 0.06234
v -0.15981 0.01488 0.05012
v -0.15981 -0.01487 0.05012
v -0.21436 0.01488 0.03432
v -0.21436 -0.01487 0.03432
v -0.27037 0.01488 0.0144
v -0.27037 -0.01487 0.0144
v -0.3255 0.01488 -0.00949
v -0.3255 -0.01487 -0.00949
v 0.15982 0.01488 0.06085
v 0.15982 0.01488 0.05012
v 0.21437 0.01488 0.03432
v 0.21437 0.01488 0.04518
v 0.27038 0.01488 0.0144
v 0.27038 0.01488 0.0253
v 0.27038 0.01488 0.0144
v 0.32551 0.01488 -0.00949
v 0.32551 0.01488 0.00136
v 0.15982 0.01488 0.05012
v 0.10431 0.01488 0.07307
v 0.10431 0.01488 0.06234
v 0.04651 0.01488 0.07894
v 0.04651 0.01488 0.0681
v 0 0.01488 0.07894
v 0 0.01488 0.0681
v -0.0465 0.01488 0.0681
v -0.0465 0.01488 0.07894
v -0.1043 0.01488 0.06234
v -0.1043 0.01488 0.07307
v -0.15981 0.01488 0.05012
v -0.15981 0.01488 0.06085
v -0.21436 0.01488 0.03432
v -0.15981 0.01488 0.05012
v -0.21436 0.01488 0.04518
v -0.27037 0.01488 0.0144
v -0.27037 0.01488 0.0253
v -0.3255 0.01488 0.00136
v -0.3255 0.01488 -0.00949
v -0.27037 0.01488 0.0144
v 0.10457 0.01321 0.0743
v 0.10457 -0.0132 0.0743
v 0.04656 -0.0132 0.08015
v 0.04656 0.01321 0.08015
v 0 -0.0132 0.08015
v 0 0.01321 0.08015
v -0.04655 -0.0132 0.08015
v -0.04655 0.01321 0.08015
v -0.10456 0.01321 0.0743
v -0.10456 -0.0132 0.0743
v 0.27038 -0.01487 0.0253
v 0.27037 -0.0132 0.0265
v 0.32408 -0.0132 0.00296
v 0.32551 -0.01487 0.00136
v 0.32551 0.01488 0.00136
v 0.32408 0.01321 0.00296
v 0.27037 0.01321 0.0265
v 0.27038 0.01488 0.0253
v 0.21479 0.01321 0.04629
v 0.21437 0.01488 0.04518
v 0.21479 0.01321 0.04629
v 0.15986 0.01321 0.06211
v 0.15982 0.01488 0.06085
v 0.10457 0.01321 0.0743
v 0.10431 0.01488 0.07307
v 0.10457 0.01321 0.0743
v 0.04656 0.01321 0.08015
v 0.04651 0.01488 0.07894
v 0 0.01321 0.08015
v 0 0.01488 0.07894
v -0.0465 0.01488 0.07894
v -0.04655 0.01321 0.08015
v -0.1043 0.01488 0.07307
v -0.10456 0.01321 0.0743
v -0.15981 0.01488 0.06085
v -0.10456 0.01321 0.0743
v -0.15985 0.01321 0.06211
v -0.21436 0.01488 0.04518
v -0.21478 0.01321 0.04629
v -0.27037 0.01488 0.0253
v -0.21478 0.01321 0.04629
v -0.27036 0.01321 0.0265
v -0.3255 0.01488 0.00136
v -0.32407 0.01321 0.00296
v -0.3255 0.01488 0.00136
v -0.3255 -0.01487 -0.00949
v -0.3255 0.01488 -0.00949
v -0.3255 -0.01487 0.00136
v -0.32407 0.01321 0.00296
v -0.32407 -0.0132 0.00296
v -0.21436 -0.01487 0.04518
v -0.27037 -0.01487 0.0253
v -0.27036 -0.0132 0.0265
v -0.21478 -0.0132 0.04629
v -0.15981 -0.01487 0.06085
v -0.15985 -0.0132 0.06211
v -0.21478 0.01321 0.04629
v -0.21478 -0.0132 0.04629
v -0.27036 -0.0132 0.0265
v -0.27036 0.01321 0.0265
v -0.32407 -0.0132 0.00296
v -0.32407 0.01321 0.00296
v -0.10456 0.01321 0.0743
v -0.10456 -0.0132 0.0743
v -0.15985 -0.0132 0.06211
v -0.15985 0.01321 0.06211
v -0.21478 -0.0132 0.04629
v -0.21478 0.01321 0.04629
v -0.27037 -0.01487 0.0253
v -0.3255 -0.01487 0.00136
v -0.32407 -0.0132 0.00296
v -0.27036 -0.0132 0.0265
vt 10.93053 0.03133728
vt 10.93053 0.007613753
vt 10.92188 0.007613753
vt 10.92188 0.03133728
vt 10.92061 0.008948208
vt 10.92061 0.03000285
vt 10.7798 0.2999372
vt 10.78852 0.2999372
vt 10.7786 0.2549661
vt 10.7699 0.2549661
vt 10.7659 0.2107736
vt 10.7571 0.2107735
vt 10.78852 0.2999372
vt 10.78447 0.3467707
vt 10.79325 0.3467707
vt 10.78447 0.3844437
vt 10.79325 0.3844437
vt 10.79325 0.4221167
vt 10.78447 0.4221167
vt 10.78852 0.4689502
vt 10.7798 0.4689502
vt 10.7659 0.2107736
vt 10.74979 0.1653963
vt 10.74096 0.1653959
vt 10.73039 0.1207328
vt 10.7216 0.1207328
vt 10.7786 0.5139213
vt 10.78852 0.4689502
vt 10.7699 0.5139213
vt 10.7659 0.5581138
vt 10.7571 0.5581139
vt 10.74979 0.6034912
vt 10.7659 0.5581138
vt 10.74096 0.6034915
vt 10.73039 0.6481546
vt 10.7216 0.6481546
vt 10.7659 0.2107736
vt 10.75077 0.1653989
vt 10.74979 0.1653963
vt 10.76679 0.2104272
vt 10.7786 0.2549661
vt 10.77961 0.2549313
vt 10.78852 0.2999372
vt 10.77961 0.2549313
vt 10.7786 0.2549661
vt 10.78949 0.2997274
vt 10.79325 0.3467707
vt 10.79423 0.3467298
vt 10.79423 0.3844437
vt 10.79325 0.3844437
vt 10.79325 0.4221167
vt 10.79423 0.4221576
vt 10.78949 0.46916
vt 10.78852 0.4689502
vt 10.77961 0.5139561
vt 10.7786 0.5139213
vt 10.84241 0.1676079
vt 10.82139 0.211839
vt 10.84241 0.211839
vt 10.82139 0.1676079
vt 10.84241 0.1248635
vt 10.82139 0.1248635
vt 10.84241 0.2555551
vt 10.82139 0.2995579
vt 10.84241 0.2995579
vt 10.82139 0.2555551
vt 10.84241 0.211839
vt 10.82139 0.211839
vt 10.66899 0.169281
vt 10.69268 0.1254099
vt 10.66899 0.1254099
vt 10.69268 0.169281
vt 10.66899 0.2138537
vt 10.69268 0.2138537
vt 10.66899 0.2572625
vt 10.69268 0.2572625
vt 10.66899 0.3014359
vt 10.69268 0.3014359
vt 10.66899 0.3474389
vt 10.69268 0.3474389
vt 10.66899 0.3844437
vt 10.69268 0.3844437
vt 10.66899 0.4214485
vt 10.69268 0.4214485
vt 10.66899 0.4674514
vt 10.69268 0.4674514
vt 10.66899 0.5116249
vt 10.69268 0.5116249
vt 10.66899 0.5550337
vt 10.69268 0.5550337
vt 10.66899 0.5996065
vt 10.69268 0.5996065
vt 10.66899 0.6434774
vt 10.69268 0.6434774
vt 10.58421 0.2549901
vt 10.59291 0.2549901
vt 10.6057 0.2108057
vt 10.59691 0.2108058
vt 10.62184 0.1654366
vt 10.61301 0.1654369
vt 10.62184 0.1654366
vt 10.64119 0.1207817
vt 10.6324 0.1207817
vt 10.59291 0.2549901
vt 10.57431 0.2999528
vt 10.583 0.2999529
vt 10.56956 0.3467777
vt 10.57834 0.3467777
vt 10.56956 0.3844437
vt 10.57834 0.3844437
vt 10.57834 0.4221097
vt 10.56956 0.4221097
vt 10.583 0.4689345
vt 10.57431 0.4689345
vt 10.59291 0.5138972
vt 10.58421 0.5138972
vt 10.6057 0.5580817
vt 10.59291 0.5138972
vt 10.59691 0.5580816
vt 10.62184 0.6034509
vt 10.61301 0.6034505
vt 10.6324 0.6481056
vt 10.64119 0.6481056
vt 10.62184 0.6034509
vt 10.84241 0.2995579
vt 10.82139 0.2995579
vt 10.82139 0.345728
vt 10.84241 0.345728
vt 10.82139 0.3827741
vt 10.84241 0.3827741
vt 10.82139 0.4198202
vt 10.84241 0.4198202
vt 10.84241 0.4659904
vt 10.82139 0.4659904
vt 10.74979 0.1653963
vt 10.75077 0.1653989
vt 10.73169 0.121884
vt 10.73039 0.1207328
vt 10.6324 0.1207817
vt 10.63111 0.1219327
vt 10.61204 0.1654395
vt 10.61301 0.1654369
vt 10.59601 0.2104595
vt 10.59691 0.2108058
vt 10.59601 0.2104595
vt 10.58319 0.2549554
vt 10.58421 0.2549901
vt 10.57332 0.2997431
vt 10.57431 0.2999528
vt 10.57332 0.2997431
vt 10.56858 0.3467368
vt 10.56956 0.3467777
vt 10.56858 0.3844437
vt 10.56956 0.3844437
vt 10.56956 0.4221097
vt 10.56858 0.4221506
vt 10.57431 0.4689345
vt 10.57332 0.4691443
vt 10.58421 0.5138972
vt 10.57332 0.4691443
vt 10.58319 0.513932
vt 10.59691 0.5580816
vt 10.59601 0.5584279
vt 10.61301 0.6034505
vt 10.59601 0.5584279
vt 10.61204 0.6034479
vt 10.6324 0.6481056
vt 10.63111 0.6469547
vt 10.90889 0.2705456
vt 10.90025 0.246834
vt 10.90025 0.2705456
vt 10.90889 0.246834
vt 10.91017 0.2692118
vt 10.91017 0.2481678
vt 10.7659 0.5581138
vt 10.74979 0.6034912
vt 10.75077 0.6034885
vt 10.76679 0.5584601
vt 10.7786 0.5139213
vt 10.77961 0.5139561
vt 10.84241 0.5537093
vt 10.82139 0.5537093
vt 10.82139 0.5979404
vt 10.84241 0.5979404
vt 10.82139 0.6406848
vt 10.84241 0.6406848
vt 10.84241 0.4659904
vt 10.82139 0.4659904
vt 10.82139 0.5099933
vt 10.84241 0.5099933
vt 10.82139 0.5537093
vt 10.84241 0.5537093
vt 10.74979 0.6034912
vt 10.73039 0.6481546
vt 10.73169 0.6470034
vt 10.75077 0.6034885
vn -1 0 0
vn -1 0 0
vn -1 0 0
vn -1 0 0
vn 0 1 0
vn 0 1 0
vn 0 1 0
vn 0 1 0
vn 0 1 0
vn 0 1 0
vn 0 1 0
vn 0 1 0
vn 0 1 0
vn 0 1 0
vn 1 0 0
vn 1 0 0
vn 1 0 0
vn 1 0 0
vn 0 0 -1
vn 0 0 -1
vn 0 0 -1
vn 0 0 -1
vn 0 0 -1
vn 0 0 -1
vn 0 -1 0
vn 0 -1 0
vn 0 -1 0
vn 0 -1 0
vn 0 -1 0
vn 0 -1 0
vn 0 1 0
vn 0 1 0
vn 0 1 0
vn 0 1 0
vn 0 1 0
vn 0 1 0
vn 0 1 0
vn 0 1 0
vn 0 1 0
vn 0 1 0
vn 0 1 0
vn 0 1 0
vn 0 1 0
vn 1 0 0
vn 1 0 0
vn 1 0 0
vn 1 0 0
vn -1 0 0
vn -1 0 0
vn -1 0 0
vn -1 0 0
vn 1 0 0
vn 1 0 0
vn 1 0 0
vn 1 0 0
vn 0 -1 0
vn 0 -1 0
vn 0 -1 0
vn 0 -1 0
vn 0 -1 0
vn 0 -1 0
vn 0 1 0
vn 0 1 0
vn 0 1 0
vn 0 1 0
vn 0 1 0
vn 0 1 0
vn 0 0 -1
vn 0 0 -1
vn 0 0 -1
vn 0 0 -1
vn 0 0 -1
vn 0 0 -1
vn -1 0 0
vn -1 0 0
vn -1 0 0
vn -1 0 0
vn 0 0 -1
vn 0 0 -1
vn 0 0 -1
vn 0 0 -1
vn 1 0 0
vn 1 0 0
vn 1 0 0
vn 1 0 0
vn 1 0 0
vn 1 0 0
vn -1 0 0
vn -1 0 0
vn -1 0 0
vn -1 0 0
vn 1 0 0
vn 1 0 0
vn 0.9804059 -0.07795328 0.1809077
vn 0.9804059 0.07795413 0.1809071
vn 0.4191834 -0.05031384 0.9065064
vn 0.4191836 0.05031441 0.9065063
vn 0 -1 0
vn 0 -1 0
vn 0 -1 1.681806E-07
vn 0 -1 3.786894E-07
vn 0 -1 1.876994E-07
vn 0 -1 -1.80148E-07
vn 0 -1 0
vn 0 -1 2.090116E-07
vn 0 -1 1.974241E-07
vn 0 -1 0
vn 0 -1 0
vn 0 -1 0
vn 0 -1 0
vn 0 -1 -5.57865E-07
vn 0 -1 -6.869609E-07
vn 0 -1 1.876994E-07
vn 0 -1 -5.712724E-07
vn 0 -1 -3.530398E-07
vn 0 -1 0
vn 0 -1 0
vn 0 -1 -7.464974E-07
vn 0 -1 -5.57865E-07
vn 0 -1 -5.439105E-07
vn 0 -1 5.100955E-07
vn 0 -1 7.582386E-07
vn 0 -1 7.839393E-07
vn 0 -1 5.100955E-07
vn 0 -1 4.84465E-07
vn 0 -1 0
vn 0 -1 0
vn 0.2500134 -0.5757642 0.7784529
vn 0.3679582 -0.03864012 0.9290391
vn 0.3136324 -0.5381963 0.7822911
vn 0.3064204 -0.04148166 0.950992
vn 0.201325 -0.5866176 0.7844412
vn 0.2459543 -0.04269773 0.9683405
vn 0.1262354 -0.5896223 0.7977532
vn 0.2459543 -0.04269773 0.9683405
vn 0.201325 -0.5866176 0.7844412
vn 0.1571979 -0.04258001 0.9866487
vn 0.04536549 -0.5865293 0.8086565
vn 0.05578984 -0.04229984 0.997546
vn 0 -0.04298858 0.9990755
vn 0 -0.5855241 0.8106551
vn -0.04536529 -0.586528 0.8086575
vn -0.05578981 -0.04229977 0.997546
vn -0.1571979 -0.0425801 0.9866487
vn -0.1262347 -0.5896218 0.7977537
vn -0.2459544 -0.04269792 0.9683405
vn -0.2013245 -0.5866173 0.7844416
vn 0.3679584 0.03864037 0.9290391
vn 0.3064204 -0.04148166 0.950992
vn 0.3064205 0.04148176 0.950992
vn 0.3679582 -0.03864012 0.9290391
vn 0.4191836 0.05031441 0.9065063
vn 0.4191834 -0.05031384 0.9065064
vn 0.2459424 0.04300643 0.9683299
vn 0.1571979 -0.04258001 0.9866487
vn 0.1571876 0.04313835 0.9866261
vn 0.2459543 -0.04269773 0.9683405
vn 0.3064205 0.04148176 0.950992
vn 0.3064204 -0.04148166 0.950992
vn -0.3667845 0 -0.930306
vn -0.3977495 0 -0.9174941
vn -0.3977495 0 -0.9174941
vn -0.3667845 0 -0.930306
vn -0.3073802 0 -0.9515868
vn -0.3073802 0 -0.9515868
vn -0.2467361 0 -0.9690828
vn -0.2467361 0 -0.9690828
vn -0.1567877 0 -0.9876323
vn -0.1567877 0 -0.9876323
vn -0.055151 0 -0.998478
vn -0.055151 0 -0.998478
vn 0 0 -1
vn 0 0 -1
vn 0.05515102 0 -0.998478
vn 0.05515102 0 -0.998478
vn 0.1567877 0 -0.9876323
vn 0.1567877 0 -0.9876323
vn 0.2467361 0 -0.9690828
vn 0.2467361 0 -0.9690828
vn 0.30738 0 -0.9515868
vn 0.30738 0 -0.9515868
vn 0.3667844 0 -0.930306
vn 0.3667844 0 -0.930306
vn 0.3977498 0 -0.917494
vn 0.3977498 0 -0.917494
vn 0 1 0
vn 0 1 0
vn 0 1 2.866359E-07
vn 0 1 1.92831E-07
vn 0 1 -1.118771E-07
vn 0 1 1.163906E-07
vn 0 1 -1.118771E-07
vn 0 1 -4.811513E-07
vn 0 1 -4.811513E-07
vn 0 1 0
vn 0 1 0
vn 0 1 0
vn 0 1 0
vn 0 1 0
vn 0 1 0
vn 0 1 0
vn 0 1 0
vn 0 1 0
vn 0 1 0
vn 0 1 0
vn 0 1 0
vn 0 1 0
vn 0 1 0
vn 0 1 0
vn 0 1 0
vn 0 1 7.804139E-07
vn 0 1 4.760487E-07
vn 0 1 1.272791E-06
vn 0 1 1.272791E-06
vn 0 1 7.804139E-07
vn 0.1571876 0.04313835 0.9866261
vn 0.1571979 -0.04258001 0.9866487
vn 0.05578984 -0.04229984 0.997546
vn 0.05579835 0.04262197 0.9975319
vn 0 -0.04298858 0.9990755
vn 0 0.04298854 0.9990755
vn -0.05578981 -0.04229977 0.997546
vn -0.05579832 0.04262196 0.9975319
vn -0.1571877 0.0431384 0.9866261
vn -0.1571979 -0.0425801 0.9866487
vn 0.3136324 -0.5381963 0.7822911
vn 0.3679582 -0.03864012 0.9290391
vn 0.4191834 -0.05031384 0.9065064
vn 0.9804059 -0.07795328 0.1809077
vn 0.9804059 0.07795413 0.1809071
vn 0.4191836 0.05031441 0.9065063
vn 0.3679584 0.03864037 0.9290391
vn 0.3136327 0.5382003 0.7822884
vn 0.3064205 0.04148176 0.950992
vn 0.2500145 0.5757669 0.7784506
vn 0.3064205 0.04148176 0.950992
vn 0.2459424 0.04300643 0.9683299
vn 0.2007911 0.5889955 0.7827945
vn 0.1571876 0.04313835 0.9866261
vn 0.1257285 0.594786 0.7939911
vn 0.1571876 0.04313835 0.9866261
vn 0.05579835 0.04262197 0.9975319
vn 0.04537904 0.5894673 0.8065166
vn 0 0.04298854 0.9990755
vn 0 0.5855221 0.8106564
vn -0.04537893 0.5894662 0.8065175
vn -0.05579832 0.04262196 0.9975319
vn -0.1257279 0.5947869 0.7939907
vn -0.1571877 0.0431384 0.9866261
vn -0.2007905 0.5889946 0.7827954
vn -0.1571877 0.0431384 0.9866261
vn -0.2459424 0.04300642 0.9683299
vn -0.2500131 0.575766 0.7784516
vn -0.3064203 0.04148183 0.950992
vn -0.3136332 0.5382011 0.7822875
vn -0.3064203 0.04148183 0.950992
vn -0.3679584 0.03864044 0.9290391
vn -0.980406 0.0779537 0.1809065
vn -0.4191839 0.05031418 0.9065061
vn -0.980406 0.0779537 0.1809065
vn -1 0 0
vn -1 0 0
vn -0.9804062 -0.07795354 0.1809063
vn -0.4191839 0.05031418 0.9065061
vn -0.4191839 -0.05031407 0.9065061
vn -0.250013 -0.575766 0.7784517
vn -0.3136332 -0.538201 0.7822875
vn -0.3679584 -0.03864035 0.9290391
vn -0.3064204 -0.04148181 0.950992
vn -0.2013245 -0.5866173 0.7844416
vn -0.2459544 -0.04269792 0.9683405
vn -0.3064203 0.04148183 0.950992
vn -0.3064204 -0.04148181 0.950992
vn -0.3679584 -0.03864035 0.9290391
vn -0.3679584 0.03864044 0.9290391
vn -0.4191839 -0.05031407 0.9065061
vn -0.4191839 0.05031418 0.9065061
vn -0.1571877 0.0431384 0.9866261
vn -0.1571979 -0.0425801 0.9866487
vn -0.2459544 -0.04269792 0.9683405
vn -0.2459424 0.04300642 0.9683299
vn -0.3064204 -0.04148181 0.950992
vn -0.3064203 0.04148183 0.950992
vn -0.3136332 -0.538201 0.7822875
vn -0.9804062 -0.07795354 0.1809063
vn -0.4191839 -0.05031407 0.9065061
vn -0.3679584 -0.03864035 0.9290391
vn 1 0 0
vn 1 0 0
vn 1 0 0
vn 1 0 0
vn 1 0 0
vn 1 0 0
vn 1 0 0
vn 1 0 0
vn 1 0 0
vn 1 0 0
vn 1 0 0
vn 1 0 0
vn 0 1 0
vn 0 1 0
vn 0 1 0
vn 0 1 0
vn 0 1 0
vn 0 1 0
vn 0 1 0
vn 0 1 0
vn 0 1 0
vn 0 1 0
vn 0 1 0
vn 0 -1 0
vn 0 -1 0
vn 0 -1 0
vn 0 -1 0
vn 0 -1 0
vn 0 -1 0
vn 0 -1 0
vn 0 -1 0
vn 0 -1 0
vn 0 -1 0
vn 0 -1 0
vn -1 0 0
vn -1 0 0
vn -1 0 0
vn -1 0 0
vn -1 0 0
vn -1 0 0
vn -1 0 0
vn -1 0 0
vn 0 -1 0
vn 0 -1 0
vn 0 -1 0
vn 0 -1 0
vn 0 -1 0
vn 0 -1 0
vn -1 0 0
vn -1 0 0
vn -1 0 0
vn -1 0 0
vn 0 1 0
vn 0 1 0
vn 0 1 0
vn 0 1 0
vn 0 1 0
vn 0 1 0
vn 0 1 0
vn 0 -1 0
vn 0 -1 0
vn -1 0 0
vn -1 0 0
vn -1 0 0
vn -1 0 0
vn -1 0 0
vn -1 0 0
vn -1 0 0
vn -1 0 0
vn -1 0 0
vn -1 0 0
vn 0 1 0
vn 0 1 0
vn 0 1 0
vn 0 1 0
vn 0 1 0
vn 0 1 0
vn 0 -1 0
vn 0 -1 0
vn 0 -1 0
vn 0 -1 0
vn 1 0 0
vn 1 0 0
vn 1 0 0
vn 1 0 0
vn 1 0 0
vn 1 0 0
vn 1 0 0
vn 1 0 0
vn 1 0 0
vn 1 0 0
vn 1 0 0
vn 1 0 0
vn 0 1 0
vn 0 1 0
vn 1 0 0
vn 1 0 0
vn 1 0 0
vn 1 0 0
vn 1 0 0
vn 1 0 0
vn 1 0 0
vn 1 0 0
vn 1 0 0
vn 1 0 0
vn 0 0 -1
vn 0 0 -1
vn 0 -1 0
vn 0 -1 0
vn 0 -1 0
vn 0 -1 0
vn 0 -1 0
vn 0 -1 0
vn 0 0 -1
vn 0 0 -1
vn 0 -1 0
vn 0 -1 0
vn 0 -1 0
vn 0 -1 0
vn 0 -1 0
vn 0 -1 0
vn -1 0 0
vn -1 0 0
vn -1 0 0
vn -1 0 0
vn -1 0 0
vn -1 0 0
vn -1 0 0
vn -1 0 0
vn -1 0 0
vn -1 0 0
vn 0 1 0
vn 0 1 0
vn 0 1 0
vn 0 1 0
vn 0 1 0
vn 0 1 0
vn 0 1 0
vn 0 1 0
vn 0 1 0
vn 0 1 0
vn 0 1 0
vn 0 1 0
vn 0 1 0
vn 0 1 0
vn 0 1 0
vn 0 1 0
vn 0 1 0
vn 0 1 0
vn 0 1 0
vn 0 1 0
vn 0 -1 0
vn 0 1 0
vn 0 0 -1
vn 0 0 -1
vn 0 0 -1
vn 0 0 -1
vn -1 0 0
vn -1 0 0
vn -1 0 0
vn -1 0 0
vn -1 0 0
vn -1 0 0
vn 1 0 0
vn 1 0 0
vn 1 0 0
vn 1 0 0
vn -1 0 0
vn -1 0 0
vn -1 0 0
vn -1 0 0
vn -1 0 0
vn -1 0 0
vn 1 0 0
vn 1 0 0
vn 1 0 0
vn 1 0 0
vn 0 0 -1
vn 0 0 -1
vn 0 0 -1
vn 0 0 -1
vn 0 0 -1
vn -1 0 0
vn 0 1 0
vn 0 1 0
vn 0 1 0
vn 0 1 0
vn 1 0 0
vn 1 0 0
vn 1 0 0
vn 1 0 0
vn 0 -1 0
vn 0 -1 0
vn 0 -1 0
vn 0 -1 0
vn -1 0 0
vn -1 0 0
vn -1 0 0
vn -1 0 0
vn 0 1 0
vn 0 1 0
vn 1 0 0
vn 0 1 0
vn 0 1 0
vn 0 1 0
vn 0 1 0
vn -1 0 0
vn -1 0 0
vn -1 0 0
vn -1 0 0
vn 0 -1 0
vn 0 -1 0
vn 0 -1 0
vn 0 -1 0
vn 1 0 0
vn 1 0 0
vn 1 0 0
vn 1 0 0
vn 1 0 0
vn 1 0 0
vn 1 0 0
vn 1 0 0
vn 1 0 0
vn 1 0 0
vn 1 0 0
vn 1 0 0
vn 1 0 0
vn 1 0 0
vn -1 0 0
vn -1 0 0
vn 1 0 0
vn 1 0 0
vn 1 0 0
vn 1 0 0
vn 1 0 0
vn 1 0 0
vn 0 0 -1
vn 0 0 -1
vn -1 0 0
vn -1 0 0
vn -1 0 0
vn -1 0 0
vn 1 0 0
vn 1 0 0
vn 1 0 0
vn 1 0 0
vn 0 0 -1
vn 0 0 -1
vn 1 0 0
vn 1 0 0
vn 0 -1 0
vn 0 -1 0
vn 0 1 0
vn 0 1 0
vn 0 1 0
vn 0 1 0
vn 0 1 0
vn 0 1 0
vn 0 1 0
vn 0 1 0
vn -1 0 0
vn -1 0 0
vn -1 0 0
vn -1 0 0
vn 0 1 0
vn 0 1 0
vn 0 1 0
vn 0 1 0
vn 0 1 0
vn 0 1 0
vn 0 0 -1
vn 0 0 -1
vn 0 0 -1
vn 0 0 -1
vn 0 0 -1
vn 0 0 -1
vn 1 0 0
vn 1 0 0
vn 1 0 0
vn 1 0 0
vn 1 0 0
vn 1 0 0
vn 0 -1 0
vn 0 -1 0
vn 0 -1 0
vn 0 -1 0
vn 0 -1 0
vn 0 -1 0
vn 0 -1 0
vn -0.1567877 0 -0.9876323
vn -0.1567877 0 -0.9876323
vn 0 0 -1
vn 0 0 -1
vn 0.1567877 0 -0.9876323
vn 0.1567877 0 -0.9876323
vn 0.3977498 0 -0.917494
vn 0.3977498 0 -0.917494
vn 0 1 0
vn 0 1 0
vn 0 1 0
vn 0 1 0
vn 0 1 0
vn 0 1 0
vn 0 1 0
vn 0 1 0
vn 0 1 0
vn 0 1 0
vn 0 1 0
vn 0 1 0
vn 0 1 0
vn 0 1 0
vn 0 1 0
vn 0 1 0
vn -1 0 0
vn -1 0 0
usemtl BrushedIron_AlbedoTransparency
f 3/3/94 2/2/93 1/1/92
f 4/4/95 3/3/94 1/1/92
f 5/5/96 3/3/94 4/4/95
f 6/6/97 5/5/96 4/4/95
f 9/9/100 8/8/99 7/7/98
f 10/10/101 9/9/100 7/7/98
f 9/9/100 10/10/101 11/11/102
f 10/10/101 12/12/103 11/11/102
f 14/14/105 7/7/98 13/13/104
f 15/15/106 14/14/105 13/13/104
f 16/16/107 14/14/105 15/15/106
f 17/17/108 16/16/107 15/15/106
f 16/16/107 17/17/108 18/18/109
f 19/19/110 16/16/107 18/18/109
f 19/19/110 18/18/109 20/20/111
f 21/21/112 19/19/110 20/20/111
f 23/23/114 22/22/113 12/12/103
f 24/24/115 23/23/114 12/12/103
f 23/23/114 24/24/115 25/25/116
f 24/24/115 26/26/117 25/25/116
f 28/28/119 27/27/118 21/21/112
f 27/27/118 29/29/120 21/21/112
f 29/29/120 27/27/118 30/30/121
f 31/31/122 29/29/120 30/30/121
f 33/33/124 32/32/123 31/31/122
f 32/32/123 34/34/125 31/31/122
f 34/34/125 32/32/123 35/35/126
f 36/36/127 34/34/125 35/35/126
f 39/39/130 38/38/129 37/37/128
f 38/38/129 40/40/131 37/37/128
f 37/37/128 40/40/131 41/41/132
f 40/40/131 42/42/133 41/41/132
f 45/45/136 44/44/135 43/43/134
f 44/44/135 46/46/137 43/43/134
f 43/43/134 46/46/137 47/47/138
f 46/46/137 48/48/139 47/47/138
f 47/47/138 48/48/139 49/49/140
f 50/50/141 47/47/138 49/49/140
f 51/51/142 50/50/141 49/49/140
f 52/52/143 51/51/142 49/49/140
f 52/52/143 53/53/144 51/51/142
f 53/53/144 54/54/145 51/51/142
f 53/53/144 55/55/146 54/54/145
f 55/55/146 56/56/147 54/54/145
f 59/59/150 58/58/149 57/57/148
f 58/58/149 60/60/151 57/57/148
f 57/57/148 60/60/151 61/61/152
f 60/60/151 62/62/153 61/61/152
f 65/65/156 64/64/155 63/63/154
f 64/64/155 66/66/157 63/63/154
f 63/63/154 66/66/157 67/67/158
f 66/66/157 68/68/159 67/67/158
f 71/71/162 70/70/161 69/69/160
f 70/70/161 72/72/163 69/69/160
f 69/69/160 72/72/163 73/73/164
f 72/72/163 74/74/165 73/73/164
f 73/73/164 74/74/165 75/75/166
f 74/74/165 76/76/167 75/75/166
f 75/75/166 76/76/167 77/77/168
f 76/76/167 78/78/169 77/77/168
f 77/77/168 78/78/169 79/79/170
f 78/78/169 80/80/171 79/79/170
f 79/79/170 80/80/171 81/81/172
f 80/80/171 82/82/173 81/81/172
f 81/81/172 82/82/173 83/83/174
f 82/82/173 84/84/175 83/83/174
f 83/83/174 84/84/175 85/85/176
f 84/84/175 86/86/177 85/85/176
f 85/85/176 86/86/177 87/87/178
f 86/86/177 88/88/179 87/87/178
f 87/87/178 88/88/179 89/89/180
f 88/88/179 90/90/181 89/89/180
f 89/89/180 90/90/181 91/91/182
f 90/90/181 92/92/183 91/91/182
f 91/91/182 92/92/183 93/93/184
f 92/92/183 94/94/185 93/93/184
f 97/97/188 96/96/187 95/95/186
f 98/98/189 97/97/188 95/95/186
f 97/97/188 98/98/189 99/99/190
f 98/98/189 100/100/191 99/99/190
f 102/102/193 101/101/192 100/100/191
f 103/103/194 102/102/193 100/100/191
f 105/105/196 95/95/186 104/104/195
f 106/106/197 105/105/196 104/104/195
f 105/105/196 106/106/197 107/107/198
f 106/106/197 108/108/199 107/107/198
f 107/107/198 108/108/199 109/109/200
f 108/108/199 110/110/201 109/109/200
f 110/110/201 111/111/202 109/109/200
f 111/111/202 112/112/203 109/109/200
f 111/111/202 113/113/204 112/112/203
f 113/113/204 114/114/205 112/112/203
f 114/114/205 113/113/204 115/115/206
f 116/116/207 114/114/205 115/115/206
f 118/118/209 117/117/208 116/116/207
f 117/117/208 119/119/210 116/116/207
f 119/119/210 117/117/208 120/120/211
f 121/121/212 119/119/210 120/120/211
f 123/123/214 122/122/213 121/121/212
f 124/124/215 123/123/214 121/121/212
f 127/127/218 126/126/217 125/125/216
f 128/128/219 127/127/218 125/125/216
f 129/129/220 127/127/218 128/128/219
f 130/130/221 129/129/220 128/128/219
f 131/131/222 129/129/220 130/130/221
f 132/132/223 131/131/222 130/130/221
f 132/132/223 133/133/224 131/131/222
f 133/133/224 134/134/225 131/131/222
f 137/137/228 136/136/227 135/135/226
f 138/138/229 137/137/228 135/135/226
f 141/141/232 140/140/231 139/139/230
f 142/142/233 141/141/232 139/139/230
f 143/143/234 141/141/232 142/142/233
f 144/144/235 143/143/234 142/142/233
f 146/146/237 145/145/236 144/144/235
f 147/147/238 146/146/237 144/144/235
f 148/148/239 146/146/237 147/147/238
f 149/149/240 148/148/239 147/147/238
f 151/151/242 150/150/241 149/149/240
f 152/152/243 151/151/242 149/149/240
f 153/153/244 151/151/242 152/152/243
f 154/154/245 153/153/244 152/152/243
f 153/153/244 154/154/245 155/155/246
f 156/156/247 153/153/244 155/155/246
f 156/156/247 155/155/246 157/157/248
f 158/158/249 156/156/247 157/157/248
f 160/160/251 157/157/248 159/159/250
f 161/161/252 160/160/251 159/159/250
f 161/161/252 159/159/250 162/162/253
f 163/163/254 161/161/252 162/162/253
f 165/165/256 162/162/253 164/164/255
f 166/166/257 165/165/256 164/164/255
f 166/166/257 164/164/255 167/167/258
f 168/168/259 166/166/257 167/167/258
f 171/171/262 170/170/261 169/169/260
f 170/170/261 172/172/263 169/169/260
f 169/169/260 172/172/263 173/173/264
f 172/172/263 174/174/265 173/173/264
f 177/177/268 176/176/267 175/175/266
f 178/178/269 177/177/268 175/175/266
f 178/178/269 175/175/266 179/179/270
f 180/180/271 178/178/269 179/179/270
f 183/183/274 182/182/273 181/181/272
f 184/184/275 183/183/274 181/181/272
f 185/185/276 183/183/274 184/184/275
f 186/186/277 185/185/276 184/184/275
f 189/189/280 188/188/279 187/187/278
f 190/190/281 189/189/280 187/187/278
f 191/191/282 189/189/280 190/190/281
f 192/192/283 191/191/282 190/190/281
f 195/195/286 194/194/285 193/193/284
f 196/196/287 195/195/286 193/193/284
