mtllib oven_FP1.mtl
v 0.33476 -0.07324 -0.02224
v 0.33476 -0.07324 -0.48929
v 0.33476 0.07704 -0.48929
v 0.33476 0.07704 -0.02224
v 0.33476 -0.07324 -0.48929
v 0 0.07704 -0.48929
v 0.33476 0.07704 -0.48929
v 0 -0.07324 -0.48929
v -0.33436 -0.07324 -0.48929
v -0.33436 0.07704 -0.48929
v 0.33476 0.07704 -0.02224
v 0.3501 0.07704 -0.50712
v 0.3501 0.07704 -0.02224
v 0.33476 0.07704 -0.48929
v 0 0.07704 -0.50712
v 0 0.07704 -0.48929
v -0.33436 0.07704 -0.48929
v -0.34971 0.07704 -0.50712
v -0.33436 0.07704 -0.02224
v -0.34971 0.07704 -0.02224
v 0.3501 0.07704 -0.50712
v 0.3501 -0.08517 -0.50712
v 0.3501 -0.08517 -0.02224
v 0.3501 0.07704 -0.02224
v 0 0.07704 -0.50712
v 0.3501 -0.08517 -0.50712
v 0.3501 0.07704 -0.50712
v 0 -0.08517 -0.50712
v -0.34971 0.07704 -0.50712
v -0.34971 -0.08517 -0.50712
v 0.3501 -0.08517 -0.50712
v 0 -0.08517 -0.02224
v 0.3501 -0.08517 -0.02224
v 0 -0.08517 -0.50712
v -0.34971 -0.08517 -0.50712
v -0.34971 -0.08517 -0.02224
v 0.24764 -0.07706 -0.43515
v 0.12382 -0.07706 -0.43515
v 0 -0.07706 -0.43515
v 0.26812 -0.07706 -0.44018
v 0.26167 -0.07706 -0.42154
v 0.31913 -0.07706 -0.04102
v 0.31913 -0.07706 -0.47348
v 0.24255 -0.08264 -0.43122
v 0.12128 -0.08264 -0.43122
v 0.12382 -0.07706 -0.43515
v 0 -0.08264 -0.43122
v 0 -0.07706 -0.43515
v -0.25169 -0.07706 -0.43515
v -0.24661 -0.08264 -0.43122
v -0.27217 -0.07706 -0.44018
v -0.26572 -0.07706 -0.42154
v -0.31874 -0.07706 -0.04102
v 0 -0.07706 -0.47348
v -0.26023 -0.08264 -0.418
v 0 -0.08264 -0.43122
v 0 -0.08264 -0.07031
v 0.12128 -0.08264 -0.43122
v -0.26572 -0.07706 -0.07999
v -0.31874 -0.07706 -0.47348
v 0.25618 -0.08264 -0.418
v 0.26167 -0.07706 -0.07999
v -0.26023 -0.08264 -0.08353
v 0.25618 -0.08264 -0.08353
v -0.24661 -0.08264 -0.07031
v 0.24255 -0.08264 -0.07031
v -0.25169 -0.07706 -0.06638
v 0.24764 -0.07706 -0.06638
v -0.27217 -0.07706 -0.06135
v 0 -0.07706 -0.06638
v 0 -0.08264 -0.07031
v 0 -0.07706 -0.06638
v 0 -0.07706 -0.04102
v 0.26812 -0.07706 -0.06135
v 0 -0.07324 -0.03451
v -0.32506 -0.07324 -0.03451
v 0.32546 -0.07324 -0.03451
v 0 -0.07324 -0.02224
v -0.33436 -0.07324 -0.02224
v 0.33476 -0.07324 -0.02224
v -0.32506 -0.07324 -0.47999
v -0.33436 -0.07324 -0.48929
v 0.32546 -0.07324 -0.47999
v 0.33476 -0.07324 -0.48929
v 0 -0.07324 -0.47999
v 0 -0.07324 -0.48929
v -0.33436 -0.07324 -0.02224
v -0.33436 0.07704 -0.02224
v -0.33436 0.07704 -0.48929
v -0.33436 -0.07324 -0.48929
v -0.34971 0.07704 -0.02224
v -0.34971 -0.08517 -0.02224
v -0.34971 -0.08517 -0.50712
v -0.34971 0.07704 -0.50712
v 0.42296 0.09931 -0.02224
v 0.42296 -0.1011 -0.02224
v 0.42296 -0.1011 0
v 0.42296 0.09931 0
v 0.42296 -0.1011 0
v 0 0.09931 0
v 0.42296 0.09931 0
v 0 -0.1011 0
v -0.42474 -0.1011 0
v -0.42474 0.09931 0
v 0.42296 -0.1011 -0.02224
v 0 -0.1011 0
v 0.42296 -0.1011 0
v 0 -0.1011 -0.02224
v -0.42474 -0.1011 -0.02224
v -0.42474 -0.1011 0
v 0.42296 0.09931 -0.02224
v 0.42296 0.09931 0
v 0 0.09931 0
v 0 0.09931 -0.02224
v -0.42474 0.09931 -0.02224
v -0.42474 0.09931 0
v 0 -0.07324 -0.02224
v 0.33476 -0.07324 -0.02224
v 0.33476 0.07704 -0.02224
v 0 0.09931 -0.02224
v 0.42296 0.09931 -0.02224
v 0.3501 0.07704 -0.02224
v 0.42296 -0.1011 -0.02224
v 0.3501 -0.08517 -0.02224
v 0 -0.1011 -0.02224
v 0 -0.08517 -0.02224
v -0.34971 -0.08517 -0.02224
v -0.42474 -0.1011 -0.02224
v -0.42474 0.09931 -0.02224
v -0.34971 0.07704 -0.02224
v -0.33436 0.07704 -0.02224
v -0.33436 -0.07324 -0.02224
v -0.42474 0.09931 0
v -0.42474 -0.1011 0
v -0.42474 -0.1011 -0.02224
v -0.42474 0.09931 -0.02224
v 0.34972 -0.01402 -0.47533
v 0.36241 -0.01402 -0.47533
v 0.36241 -0.00234 -0.48017
v 0.34972 -0.00234 -0.48017
v 0.36241 0.00934 -0.47533
v 0.34972 0.00934 -0.47533
v 0.34972 0.00934 -0.47533
v 0.36241 0.00934 -0.47533
v 0.36241 0.01418 -0.46365
v 0.34972 0.01418 -0.46365
v 0.34972 0.01418 -0.04642
v 0.36241 0.01418 -0.04642
v 0.36241 0.00934 -0.03474
v 0.34972 0.00934 -0.03474
v 0.34972 0.00934 -0.03474
v 0.36241 0.00934 -0.03474
v 0.36241 -0.00234 -0.0299
v 0.34972 -0.00234 -0.0299
v 0.34972 -0.00234 -0.0299
v 0.36241 -0.00234 -0.0299
v 0.36241 -0.01402 -0.03474
v 0.34972 -0.01402 -0.03474
v 0.34972 -0.01402 -0.03474
v 0.36241 -0.01402 -0.03474
v 0.36241 -0.01886 -0.04642
v 0.34972 -0.01886 -0.04642
v 0.34972 -0.01886 -0.46365
v 0.36241 -0.01886 -0.46365
v 0.36241 -0.01402 -0.47533
v 0.34972 -0.01402 -0.47533
v 0.36241 -0.01117 -0.47249
v 0.35911 -0.01117 -0.47249
v 0.35911 -0.00234 -0.47615
v 0.36241 -0.00234 -0.47615
v 0.36241 -0.00234 -0.47615
v 0.35911 -0.00234 -0.47615
v 0.35911 0.00649 -0.47249
v 0.36241 0.00649 -0.47249
v 0.36241 0.00649 -0.47249
v 0.35911 0.00649 -0.47249
v 0.35911 0.01046 -0.46291
v 0.36241 0.01046 -0.46291
v 0.35911 0.01046 -0.04716
v 0.36241 0.01046 -0.04716
v 0.35911 0.00649 -0.03759
v 0.36241 0.00649 -0.03759
v 0.36241 0.00649 -0.03759
v 0.35911 0.00649 -0.03759
v 0.35911 -0.00234 -0.03393
v 0.36241 -0.00234 -0.03393
v 0.36241 -0.00234 -0.03393
v 0.35911 -0.00234 -0.03393
v 0.35911 -0.01117 -0.03759
v 0.36241 -0.01117 -0.03759
v 0.36241 -0.01117 -0.03759
v 0.35911 -0.01117 -0.03759
v 0.35911 -0.01514 -0.04716
v 0.36241 -0.01514 -0.04716
v 0.35911 -0.01514 -0.46291
v 0.36241 -0.01514 -0.46291
v 0.35911 -0.01117 -0.47249
v 0.36241 -0.01117 -0.47249
v -0.34971 -0.01402 -0.47533
v -0.3624 -0.00234 -0.48017
v -0.3624 -0.01402 -0.47533
v -0.34971 -0.00234 -0.48017
v -0.3624 0.00934 -0.47533
v -0.34971 0.00934 -0.47533
v -0.34971 0.00934 -0.47533
v -0.3624 0.01418 -0.46365
v -0.3624 0.00934 -0.47533
v -0.34971 0.01418 -0.46365
v -0.34971 0.01418 -0.04642
v -0.3624 0.01418 -0.04642
v -0.3624 0.00934 -0.03474
v -0.34971 0.00934 -0.03474
v -0.34971 0.00934 -0.03474
v -0.34971 -0.00234 -0.0299
v -0.3624 -0.00234 -0.0299
v -0.3624 0.00934 -0.03474
v -0.34971 -0.00234 -0.0299
v -0.34971 -0.01402 -0.03474
v -0.3624 -0.01402 -0.03474
v -0.3624 -0.00234 -0.0299
v -0.34971 -0.01402 -0.03474
v -0.3624 -0.01886 -0.04642
v -0.3624 -0.01402 -0.03474
v -0.34971 -0.01886 -0.04642
v -0.34971 -0.01886 -0.46365
v -0.3624 -0.01886 -0.46365
v -0.3624 -0.01402 -0.47533
v -0.34971 -0.01402 -0.47533
v -0.3624 -0.01117 -0.47249
v -0.3624 -0.00234 -0.47615
v -0.3591 -0.00234 -0.47615
v -0.3591 -0.01117 -0.47249
v -0.3624 -0.00234 -0.47615
v -0.3624 0.00649 -0.47249
v -0.3591 0.00649 -0.47249
v -0.3591 -0.00234 -0.47615
v -0.3624 0.00649 -0.47249
v -0.3591 0.01046 -0.46291
v -0.3591 0.00649 -0.47249
v -0.3624 0.01046 -0.46291
v -0.3591 0.01046 -0.04716
v -0.3624 0.01046 -0.04716
v -0.3591 0.00649 -0.03759
v -0.3624 0.00649 -0.03759
v -0.3624 0.00649 -0.03759
v -0.3624 -0.00234 -0.03393
v -0.3591 -0.00234 -0.03393
v -0.3591 0.00649 -0.03759
v -0.3624 -0.00234 -0.03393
v -0.3624 -0.01117 -0.03759
v -0.3591 -0.01117 -0.03759
v -0.3591 -0.00234 -0.03393
v -0.3624 -0.01117 -0.03759
v -0.3591 -0.01514 -0.04716
v -0.3591 -0.01117 -0.03759
v -0.3624 -0.01514 -0.04716
v -0.3591 -0.01514 -0.46291
v -0.3624 -0.01514 -0.46291
v -0.3591 -0.01117 -0.47249
v -0.3624 -0.01117 -0.47249
v 0.35911 -0.01117 -0.47249
v 0.35911 -0.00234 -0.46365
v 0.35911 -0.00234 -0.47615
v 0.35911 0.00649 -0.47249
v 0.35911 0.01046 -0.46291
v 0.35911 -0.01514 -0.46291
v 0.35911 0.01046 -0.04716
v 0.35911 -0.00234 -0.04642
v 0.35911 -0.01514 -0.04716
v 0.35911 0.00649 -0.03759
v 0.35911 -0.01117 -0.03759
v 0.35911 -0.00234 -0.03393
v -0.3591 -0.01117 -0.47249
v -0.3591 -0.00234 -0.47615
v -0.3591 -0.00234 -0.46365
v -0.3591 0.00649 -0.47249
v -0.3591 0.01046 -0.46291
v -0.3591 -0.01514 -0.46291
v -0.3591 0.01046 -0.04716
v -0.3591 -0.00234 -0.04642
v -0.3591 -0.01514 -0.04716
v -0.3591 0.00649 -0.03759
v -0.3591 -0.01117 -0.03759
v -0.3591 -0.00234 -0.03393
v 0.36241 -0.01402 -0.47533
v 0.36241 -0.01117 -0.47249
v 0.36241 -0.00234 -0.47615
v 0.36241 -0.00234 -0.48017
v 0.36241 -0.01886 -0.46365
v 0.36241 0.00649 -0.47249
v 0.36241 -0.01514 -0.46291
v 0.36241 0.00934 -0.47533
v 0.36241 -0.01886 -0.04642
v 0.36241 0.01046 -0.46291
v 0.36241 -0.01514 -0.04716
v 0.36241 0.01418 -0.46365
v 0.36241 -0.01402 -0.03474
v 0.36241 0.01046 -0.04716
v 0.36241 -0.01117 -0.03759
v 0.36241 0.01418 -0.04642
v 0.36241 -0.00234 -0.0299
v 0.36241 0.00649 -0.03759
v 0.36241 -0.00234 -0.03393
v 0.36241 0.00934 -0.03474
v -0.3624 -0.01402 -0.47533
v -0.3624 -0.00234 -0.47615
v -0.3624 -0.01117 -0.47249
v -0.3624 -0.00234 -0.48017
v -0.3624 -0.01886 -0.46365
v -0.3624 0.00649 -0.47249
v -0.3624 -0.01514 -0.46291
v -0.3624 0.00934 -0.47533
v -0.3624 -0.01886 -0.04642
v -0.3624 0.01046 -0.46291
v -0.3624 -0.01514 -0.04716
v -0.3624 0.01418 -0.46365
v -0.3624 -0.01402 -0.03474
v -0.3624 0.01046 -0.04716
v -0.3624 -0.01117 -0.03759
v -0.3624 0.01418 -0.04642
v -0.3624 -0.00234 -0.0299
v -0.3624 0.00649 -0.03759
v -0.3624 -0.00234 -0.03393
v -0.3624 0.00934 -0.03474
vt 20.31262 0.4785936
vt 20.31262 0.8434741
vt 20.43003 0.8434741
vt 20.43003 0.4785936
vt 20.81089 -0.02461353
vt 20.92829 0.2369093
vt 20.92829 -0.02461353
vt 20.81089 0.2369093
vt 20.81089 0.4981318
vt 20.92829 0.4981318
vt 19.98276 -0.01384161
vt 20.36156 -0.02582984
vt 19.98276 -0.02582984
vt 20.34764 -0.01384161
vt 20.36156 0.2476801
vt 20.34764 0.2476801
vt 20.34764 0.5089015
vt 20.36156 0.5208898
vt 19.98276 0.5089015
vt 19.98276 0.5208898
vt 20.67048 0.4778868
vt 20.54376 0.4778868
vt 20.54376 0.8566914
vt 20.67048 0.8566914
vt 20.34266 0.2476801
vt 20.46939 -0.02583231
vt 20.34266 -0.02583231
vt 20.46939 0.2476801
vt 20.34266 0.5208923
vt 20.46939 0.5208923
vt 20.4507 -0.02583364
vt 20.82951 0.2476801
vt 20.82951 -0.02583364
vt 20.4507 0.2476801
vt 20.4507 0.5208936
vt 20.82951 0.5208936
vt 20.97577 0.5365204
vt 20.97577 0.6343117
vt 20.97577 0.7321028
vt 20.97974 0.5203444
vt 20.96502 0.5254383
vt 20.66449 0.4800591
vt 21.00605 0.4800591
vt 20.97266 0.5405388
vt 20.97266 0.6363208
vt 20.97577 0.6343117
vt 20.97266 0.7321028
vt 20.97577 0.7321028
vt 20.97577 0.9308936
vt 20.97266 0.9268752
vt 20.97974 0.9470697
vt 20.96502 0.9419757
vt 20.66449 0.9838431
vt 21.00605 0.7321028
vt 20.96222 0.9376372
vt 20.97266 0.7321028
vt 20.68762 0.7321028
vt 20.97266 0.6363208
vt 20.69527 0.9419757
vt 21.00605 0.9838431
vt 20.96222 0.5297769
vt 20.69527 0.5254383
vt 20.69806 0.9376372
vt 20.69806 0.5297768
vt 20.68762 0.9268752
vt 20.68762 0.5405388
vt 20.68451 0.9308936
vt 20.68451 0.5365204
vt 20.68055 0.9470697
vt 20.68451 0.7321028
vt 20.68762 0.7321028
vt 20.68451 0.7321028
vt 20.66449 0.7321028
vt 20.68055 0.5203444
vt 20.65935 0.7321028
vt 20.65935 0.9888403
vt 20.65935 0.4750619
vt 20.64966 0.7321028
vt 20.64966 0.9961854
vt 20.64966 0.4677168
vt 21.01119 0.9888403
vt 21.01853 0.9961854
vt 21.01119 0.4750619
vt 21.01853 0.4677168
vt 21.01119 0.7321028
vt 21.01853 0.7321028
vt 20.201 0.8434757
vt 20.31841 0.8434757
vt 20.31841 0.478592
vt 20.201 0.478592
vt 20.55049 0.4778869
vt 20.42376 0.4778869
vt 20.42376 0.8566913
vt 20.55049 0.8566913
vt 10.8764 0.1980226
vt 10.8764 0.0414447
vt 10.85902 0.0414447
vt 10.85902 0.1980226
vt 10.04132 0.1688691
vt 10.19789 0.4993016
vt 10.19789 0.1688691
vt 10.04132 0.4993016
vt 10.04132 0.8311309
vt 10.19789 0.8311309
vt 10.24872 0.1688688
vt 10.2661 0.4993016
vt 10.2661 0.1688688
vt 10.24872 0.4993016
vt 10.24872 0.8311313
vt 10.2661 0.8311313
vt 10.29889 0.1688598
vt 10.28151 0.1688598
vt 10.28151 0.4993016
vt 10.29889 0.4993016
vt 10.29889 0.8311403
vt 10.28151 0.8311403
vt 10.48419 0.4993016
vt 10.48419 0.2377761
vt 10.36678 0.2377761
vt 10.34938 0.4993016
vt 10.34938 0.1688672
vt 10.36678 0.2257877
vt 10.50595 0.1688672
vt 10.49351 0.2257877
vt 10.50595 0.4993016
vt 10.49351 0.4993016
vt 10.49351 0.7725153
vt 10.50595 0.8311329
vt 10.34938 0.8311329
vt 10.36678 0.7725153
vt 10.36678 0.7605268
vt 10.48419 0.7605268
vt 10.90919 0.1980241
vt 10.90919 0.04144318
vt 10.89181 0.04144318
vt 10.89181 0.1980241
vt 30.49342 0.03732281
vt 30.50373 0.03732281
vt 30.50373 0.0278289
vt 30.49342 0.0278289
vt 30.50373 0.01833501
vt 30.49342 0.01833501
vt 30.29451 0.6617705
vt 30.30444 0.6617705
vt 30.30444 0.6526259
vt 30.29451 0.6526259
vt 30.29451 0.3259702
vt 30.30444 0.3259702
vt 30.30444 0.3168259
vt 30.29451 0.3168259
vt 30.52845 0.03731999
vt 30.53876 0.03731999
vt 30.53876 0.02782892
vt 30.52845 0.02782892
vt 30.52845 0.02782892
vt 30.53876 0.02782892
vt 30.53876 0.01833782
vt 30.52845 0.01833782
vt 30.32953 0.6617737
vt 30.33947 0.6617737
vt 30.33947 0.6526291
vt 30.32953 0.6526291
vt 30.32953 0.3259674
vt 30.33947 0.3259674
vt 30.33947 0.3168226
vt 30.32953 0.3168226
vt 30.62963 0.01435047
vt 30.62695 0.01435047
vt 30.62695 0.02153093
vt 30.62963 0.02153093
vt 30.62963 0.02153093
vt 30.62695 0.02153093
vt 30.62695 0.02871136
vt 30.62963 0.02871136
vt 30.43048 0.3128061
vt 30.4279 0.3128061
vt 30.4279 0.3202985
vt 30.43048 0.3202985
vt 30.4279 0.6457015
vt 30.43048 0.6457015
vt 30.4279 0.6531941
vt 30.43048 0.6531941
vt 30.64438 0.01435416
vt 30.6417 0.01435416
vt 30.6417 0.0215309
vt 30.64438 0.0215309
vt 30.64438 0.0215309
vt 30.6417 0.0215309
vt 30.6417 0.02870767
vt 30.64438 0.02870767
vt 30.44523 0.312968
vt 30.44265 0.312968
vt 30.44265 0.3204534
vt 30.44523 0.3204534
vt 30.44265 0.6455469
vt 30.44523 0.6455469
vt 30.44265 0.6530322
vt 30.44523 0.6530322
vt 30.57379 0.0373232
vt 30.56347 0.0278289
vt 30.56347 0.0373232
vt 30.57379 0.0278289
vt 30.56347 0.01833462
vt 30.57379 0.01833462
vt 30.37449 0.6617773
vt 30.36456 0.6526324
vt 30.36456 0.6617773
vt 30.37449 0.6526324
vt 30.37449 0.3259637
vt 30.36456 0.3259637
vt 30.36456 0.316819
vt 30.37449 0.316819
vt 30.60881 0.03731999
vt 30.60881 0.02782892
vt 30.5985 0.02782892
vt 30.5985 0.03731999
vt 30.60881 0.02782892
vt 30.60881 0.01833782
vt 30.5985 0.01833782
vt 30.5985 0.02782892
vt 30.40952 0.6617698
vt 30.39959 0.6526255
vt 30.39959 0.6617698
vt 30.40952 0.6526255
vt 30.40952 0.3259711
vt 30.39959 0.3259711
vt 30.39959 0.3168265
vt 30.40952 0.3168265
vt 30.65645 0.01435194
vt 30.65645 0.02153093
vt 30.65913 0.02153093
vt 30.65913 0.01435194
vt 30.65645 0.02153093
vt 30.65645 0.02870989
vt 30.65913 0.02870989
vt 30.65913 0.02153093
vt 30.4574 0.312799
vt 30.45998 0.3202918
vt 30.45998 0.312799
vt 30.4574 0.3202918
vt 30.45998 0.6457083
vt 30.4574 0.6457083
vt 30.45998 0.6532011
vt 30.4574 0.6532011
vt 30.6712 0.01435194
vt 30.6712 0.0215309
vt 30.67388 0.0215309
vt 30.67388 0.01435194
vt 30.6712 0.0215309
vt 30.6712 0.02870989
vt 30.67388 0.02870989
vt 30.67388 0.0215309
vt 30.47215 0.3129146
vt 30.47473 0.3204023
vt 30.47473 0.3129146
vt 30.47215 0.3204023
vt 30.47473 0.6455979
vt 30.47215 0.6455979
vt 30.47473 0.6530856
vt 30.47215 0.6530856
vt 30.18149 0.3212152
vt 30.18839 0.3281157
vt 30.18839 0.3183568
vt 30.19529 0.3212152
vt 30.19839 0.3286937
vt 30.17839 0.3286937
vt 30.19839 0.6534929
vt 30.18839 0.6540711
vt 30.17839 0.6534929
vt 30.19529 0.6609715
vt 30.18149 0.6609715
vt 30.18839 0.6638299
vt 30.24417 0.6609969
vt 30.25107 0.6638556
vt 30.25107 0.6540953
vt 30.25797 0.6609969
vt 30.26107 0.6535172
vt 30.24107 0.6535172
vt 30.26107 0.3286695
vt 30.25107 0.3280913
vt 30.24107 0.3286695
vt 30.25797 0.3211898
vt 30.24417 0.3211898
vt 30.25107 0.3183311
vt 30.02876 0.3278671
vt 30.03099 0.3300918
vt 30.03789 0.327233
vt 30.03789 0.3240868
vt 30.02498 0.3369936
vt 30.04479 0.3300918
vt 30.02789 0.3375716
vt 30.04701 0.3278671
vt 30.02498 0.6630065
vt 30.04789 0.3375716
vt 30.02789 0.6624283
vt 30.05079 0.3369936
vt 30.02876 0.6721328
vt 30.04789 0.6624283
vt 30.03099 0.6699082
vt 30.05079 0.6630065
vt 30.03789 0.6759132
vt 30.04479 0.6699082
vt 30.03789 0.672767
vt 30.04701 0.6721328
vt 30.10822 0.6720699
vt 30.11734 0.6727037
vt 30.11045 0.6698458
vt 30.11734 0.6758486
vt 30.10444 0.6629466
vt 30.12424 0.6698458
vt 30.10735 0.6623688
vt 30.12647 0.6720699
vt 30.10444 0.3370533
vt 30.12734 0.6623688
vt 30.10735 0.3376313
vt 30.13025 0.6629466
vt 30.10822 0.3279303
vt 30.12734 0.3376313
vt 30.11045 0.3301542
vt 30.13025 0.3370533
vt 30.11734 0.3241514
vt 30.12424 0.3301542
vt 30.11734 0.3272964
vt 30.12647 0.3279303
vn -1 0 0
vn -1 0 0
vn -1 0 0
vn -1 0 0
vn 0 0 1
vn 0 0 1
vn 0 0 1
vn 0 0 1
vn 0 0 1
vn 0 0 1
vn 0 1 0
vn 0 1 0
vn 0 1 0
vn 0 1 0
vn 0 1 0
vn 0 1 0
vn 0 1 0
vn 0 1 0
vn 0 1 0
vn 0 1 0
vn 1 0 0
vn 1 0 0
vn 1 0 0
vn 1 0 0
vn 0 0 -1
vn 0 0 -1
vn 0 0 -1
vn 0 0 -1
vn 0 0 -1
vn 0 0 -1
vn 0 -1 0
vn 0 -1 0
vn 0 -1 0
vn 0 -1 0
vn 0 -1 0
vn 0 -1 0
vn -0.003810713 0.999723 0.02322449
vn 0 1 2.06668E-07
vn 0 1 1.029544E-07
vn 0 1 0
vn -0.03374797 0.999429 0.001605813
vn -0.09254076 0.9934381 -0.06720889
vn -0.09464931 0.9931345 0.06874045
vn -0.000497633 0.9999727 0.007383996
vn 0 0.5759884 0.8174579
vn 0 0.5759884 0.8174579
vn 0 0.5759881 0.8174581
vn 0 0.5759881 0.817458
vn 0.003729146 0.9991007 0.04223564
vn 0.0004874572 0.9998993 0.01418659
vn 0 1 0
vn 0.03649881 0.9993321 0.001736706
vn 0.09862521 0.9925497 -0.07154236
vn 0 0.9956864 0.09278212
vn 0.01742977 0.9998479 0.0006023538
vn 0 1 0
vn 0 1 0
vn 0 1 0
vn 0.0364988 0.9993321 -0.001736704
vn 0.09996035 0.9923458 0.07251105
vn -0.01770167 0.9998431 0.00061175
vn -0.03374798 0.999429 -0.001605813
vn 0.01742982 0.9998479 -0.000602356
vn -0.01770172 0.9998431 -0.0006117528
vn 0.0004874537 0.9998993 -0.01418651
vn -0.0004951961 0.9998993 -0.01418512
vn 0.005562459 0.9979979 -0.0630004
vn -0.005608026 0.9980245 -0.06257584
vn 0 1 1.275986E-07
vn 0 0.5760035 -0.8174473
vn 0 0.5760034 -0.8174473
vn 0 1 0
vn 0 0.9915168 -0.1299787
vn 0 1 0
vn 0 0.9805062 -0.196488
vn 0.05980939 0.9971887 -0.04513846
vn -0.05977758 0.9971893 -0.04516811
vn 0 1 0
vn 0 1 0
vn 0 1 0
vn 0.06627954 0.9965464 0.05002121
vn 0 1 0
vn -0.06624673 0.9965469 0.05005598
vn 0 1 0
vn 0 0.9727494 0.2318592
vn 0 1 0
vn 1 0 0
vn 1 0 0
vn 1 0 0
vn 1 0 0
vn -1 0 0
vn -1 0 0
vn -1 0 0
vn -1 0 0
vn 1 0 0
vn 1 0 0
vn 1 0 0
vn 1 0 0
vn 0 0 1
vn 0 0 1
vn 0 0 1
vn 0 0 1
vn 0 0 1
vn 0 0 1
vn 0 -1 0
vn 0 -1 0
vn 0 -1 0
vn 0 -1 0
vn 0 -1 0
vn 0 -1 0
vn 0 1 0
vn 0 1 0
vn 0 1 0
vn 0 1 0
vn 0 1 0
vn 0 1 0
vn 0 0 -1
vn -1.129556E-07 0 -1
vn 0 0 -1
vn 0 0 -1
vn 4.254118E-07 0 -1
vn 2.956081E-07 0 -1
vn 4.301973E-07 0 -1
vn 2.619795E-07 0 -1
vn 0 0 -1
vn 0 0 -1
vn -2.568261E-07 0 -1
vn -4.194394E-07 0 -1
vn -4.149917E-07 0 -1
vn -2.889168E-07 0 -1
vn 0 0 -1
vn 1.130855E-07 0 -1
vn -1 0 0
vn -1 0 0
vn -1 0 0
vn -1 0 0
vn 0 -0.3826748 -0.9238832
vn 0 -0.3826748 -0.9238832
vn 0 0 -1
vn 0 0 -1
vn 0 0.3826756 -0.9238828
vn 0 0.3826756 -0.9238828
vn 0 0.9238819 -0.3826775
vn 0 0.9238819 -0.3826775
vn 0 0.9999365 -0.01127901
vn 0 0.9999365 -0.01127901
vn 0 0.9999365 0.01127905
vn 0 0.9999365 0.01127904
vn 0 0.9238788 0.3826852
vn 0 0.9238788 0.3826852
vn 0 0.3826855 0.9238787
vn 0 0.3826855 0.9238787
vn 0 0.3826855 0.9238787
vn 0 0.3826855 0.9238787
vn 0 -0.382685 0.9238788
vn 0 -0.382685 0.9238788
vn 0 -0.382685 0.9238788
vn 0 -0.382685 0.9238788
vn 0 -0.9238784 0.3826863
vn 0 -0.9238784 0.3826863
vn 0 -0.9999365 0.01127908
vn 0 -0.9999365 0.01127908
vn 0 -0.9999365 -0.01127904
vn 0 -0.9999365 -0.01127904
vn 0 -0.9238815 -0.3826784
vn 0 -0.9238815 -0.3826784
vn 0 0.3826834 0.9238795
vn 0 0.3826834 0.9238795
vn 0 0.3826834 0.9238795
vn 0 0.3826834 0.9238795
vn 0 -0.382684 0.9238793
vn 0 -0.382684 0.9238793
vn 0 -0.382684 0.9238793
vn 0 -0.382684 0.9238793
vn 0 -0.9238775 0.3826883
vn 0 -0.9238775 0.3826883
vn 0 -0.9999566 0.009322384
vn 0 -0.9999566 0.009322384
vn 0 -0.9999566 -0.00932238
vn 0 -0.9999566 -0.00932238
vn 0 -0.9238791 -0.3826843
vn 0 -0.9238791 -0.3826843
vn 0 -0.382684 -0.9238793
vn 0 -0.382684 -0.9238793
vn 0 -0.382684 -0.9238793
vn 0 -0.382684 -0.9238793
vn 0 0.3826834 -0.9238795
vn 0 0.3826834 -0.9238795
vn 0 0.3826834 -0.9238795
vn 0 0.3826834 -0.9238795
vn 0 0.9238791 -0.3826843
vn 0 0.9238791 -0.3826843
vn 0 0.9999566 -0.00932238
vn 0 0.9999566 -0.00932238
vn 0 0.9999566 0.009322384
vn 0 0.9999566 0.009322384
vn 0 0.9238775 0.3826883
vn 0 0.9238775 0.3826883
vn 0 -0.3826748 -0.9238832
vn 0 0 -1
vn 0 -0.3826748 -0.9238832
vn 0 0 -1
vn 0 0.3826756 -0.9238828
vn 0 0.3826756 -0.9238828
vn 0 0.9238819 -0.3826775
vn 0 0.9999365 -0.01127901
vn 0 0.9238819 -0.3826775
vn 0 0.9999365 -0.01127902
vn 0 0.9999365 0.01127899
vn 0 0.9999365 0.01127899
vn 0 0.9238788 0.3826852
vn 0 0.9238788 0.3826852
vn 0 0.3826855 0.9238787
vn 0 0.3826855 0.9238787
vn 0 0.3826855 0.9238787
vn 0 0.3826855 0.9238787
vn 0 -0.382685 0.9238788
vn 0 -0.382685 0.9238788
vn 0 -0.382685 0.9238788
vn 0 -0.382685 0.9238788
vn 0 -0.9238784 0.3826863
vn 0 -0.9999365 0.01127906
vn 0 -0.9238784 0.3826863
vn 0 -0.9999365 0.01127906
vn 0 -0.9999365 -0.01127901
vn 0 -0.9999365 -0.01127901
vn 0 -0.9238815 -0.3826784
vn 0 -0.9238815 -0.3826784
vn 0 0.3826834 0.9238795
vn 0 0.3826834 0.9238795
vn 0 0.3826834 0.9238795
vn 0 0.3826834 0.9238795
vn 0 -0.382684 0.9238793
vn 0 -0.382684 0.9238793
vn 0 -0.382684 0.9238793
vn 0 -0.382684 0.9238793
vn 0 -0.9238775 0.3826883
vn 0 -0.9999566 0.009322374
vn 0 -0.9238775 0.3826883
vn 0 -0.9999566 0.009322371
vn 0 -0.9999566 -0.00932239
vn 0 -0.9999566 -0.009322393
vn 0 -0.9238808 -0.3826804
vn 0 -0.9238808 -0.3826804
vn 0 -0.382684 -0.9238793
vn 0 -0.382684 -0.9238793
vn 0 -0.382684 -0.9238793
vn 0 -0.382684 -0.9238793
vn 0 0.3826834 -0.9238795
vn 0 0.3826834 -0.9238795
vn 0 0.3826834 -0.9238795
vn 0 0.3826834 -0.9238795
vn 0 0.9238808 -0.3826804
vn 0 0.9999566 -0.009322365
vn 0 0.9238808 -0.3826804
vn 0 0.9999566 -0.009322366
vn 0 0.9999566 0.0093224
vn 0 0.9999566 0.009322397
vn 0 0.9238775 0.3826883
vn 0 0.9238775 0.3826883
vn 1 1.036961E-06 2.123397E-06
vn 1 0 0
vn 1 0 3.053773E-06
vn 1 -1.65914E-06 2.123403E-06
vn 1 -4.569513E-06 0
vn 1 4.560346E-06 0
vn 1 -4.569512E-06 0
vn 1 0 0
vn 1 4.569506E-06 0
vn 1 0 -2.123398E-06
vn 1 -1.659109E-06 -2.123391E-06
vn 1 -1.728637E-06 -3.05381E-06
vn -1 -8.295654E-07 2.123397E-06
vn -1 0 3.053773E-06
vn -1 0 -1.570427E-07
vn -1 8.295685E-07 2.123403E-06
vn -1 -4.340911E-06 -1.720917E-07
vn -1 4.340904E-06 -1.720917E-07
vn -1 -4.340911E-06 -1.914641E-07
vn -1 0 -2.051101E-07
vn -1 4.340905E-06 -1.914641E-07
vn -1 1.659129E-06 -2.123399E-06
vn -1 -1.659124E-06 -2.123392E-06
vn -1 0 -3.05381E-06
vn 1 -8.506482E-07 0
vn 1 -8.506108E-07 0
vn 1 0 0
vn 1 0 0
vn 1 -4.282755E-06 0
vn 1 1.134155E-06 0
vn 1 -4.282737E-06 0
vn 1 1.134187E-06 0
vn 1 -4.357616E-06 0
vn 1 3.848494E-06 0
vn 1 -4.35762E-06 0
vn 1 3.848508E-06 0
vn 1 0 0
vn 1 3.863478E-06 0
vn 1 0 0
vn 1 3.863472E-06 0
vn 1 1.154633E-06 0
vn 1 2.835434E-07 0
vn 1 1.154633E-06 0
vn 1 2.835446E-07 0
vn -1 0 0
vn -1 -2.309218E-06 0
vn -1 0 0
vn -1 -2.309217E-06 0
vn -1 -7.667028E-06 -1.782582E-07
vn -1 -2.26831E-06 0
vn -1 -7.666999E-06 -1.782576E-07
vn -1 -2.268374E-06 0
vn -1 -7.667004E-06 -1.782577E-07
vn -1 7.667039E-06 -1.782576E-07
vn -1 -7.667018E-06 -1.78258E-07
vn -1 7.667067E-06 -1.782583E-07
vn -1 0 0
vn -1 7.427468E-06 -1.78258E-07
vn -1 0 0
vn -1 7.42744E-06 -1.782577E-07
vn -1 -2.309252E-06 0
vn -1 -6.805038E-06 0
vn -1 -2.309253E-06 0
vn -1 -6.805047E-06 0
vn 1 0 0
vn 1 0 0
vn 0 -1 0
vn 0 -1 0
vn 0 -1 0
vn 0 -1 0
vn 0 -1 0
vn 0 -1 0
vn 0 -1 0
vn 0 -1 0
vn 0 -1 0
vn 0 -1 0
vn 0 -1 0
vn 0 0 -1
vn 0 0 -1
vn 0 1 0
vn 0 1 0
vn 0 1 0
vn 0 1 0
vn 0 1 0
vn 0 1 0
vn 0 1 0
vn 0 1 0
vn 0 1 0
vn 0 1 0
vn 0 1 0
vn 0 1 0
vn 0 1 0
vn 0 1 0
vn 0 1 0
vn 0 1 0
vn 0 1 0
vn 0 1 0
vn -1 0 0
vn -1 0 0
vn 1 0 0
vn 1 0 0
vn 1 0 0
vn 1 0 0
vn 1 0 0
vn 1 0 0
vn 1 0 0
vn 1 0 0
vn 1 0 0
vn 1 0 0
vn 1 0 0
vn 1 0 0
vn 0 0 1
vn 0 0 1
vn 0 0 1
vn 0 0 1
vn 0 1 0
vn 0 1 0
vn 0 1 0
vn 0 1 0
vn 0 0 1
vn 0 0 1
vn 0 0 1
vn 0 0 1
vn 0 0 1
vn 0 0 1
vn 0 0 1
vn 0 0 1
vn 0 0 1
vn 0 0 1
vn 0 0 1
vn 0 0 1
vn 0 0 1
vn 0 0 1
vn 0 0 1
vn 0 0 1
vn 0 0 1
vn 0 0 1
vn 0 0 1
vn 0 0 1
vn 0 1 0
vn 0 1 0
vn 0 1 0
vn 0 1 0
vn 0 1 0
vn 0 1 0
vn 0 1 0
vn 0 -1 0
vn 0 -1 0
vn 0 -1 0
vn 0 -1 0
vn 0 -1 0
vn 0 -1 0
vn 0 -1 0
vn 0 0 1
vn 0 0 1
vn 0 0 1
vn 0 0 1
vn 0 0 1
vn 0 0 1
vn 0 -1 0
vn 0 -1 0
vn 0 -1 0
vn 0 -1 0
vn 0 0 1
vn 0 0 1
vn 0 0 1
vn 0 0 1
vn 0 0 1
vn 0 0 1
vn 0 0 1
vn 0 0 1
vn 0 0 1
vn 0 0 1
vn 0 0 1
vn 0 0 1
vn 0 0 1
vn 0 0 1
vn 0 0 1
vn 0 0 1
vn -1 0 0
vn -1 0 0
vn -1 0 0
vn -1 0 0
vn -1 0 0
vn -1 0 0
vn -1 0 0
vn -1 0 0
vn 0 0 1
vn 0 0 1
vn 0 0 1
vn 0 0 1
vn 0 0 1
vn 0 0 1
vn 0 0 1
vn 0 0 1
vn 0 0 1
vn 0 -1 0
vn 0 -1 0
vn 0 -1 0
vn 0 -1 0
vn 0 -1 0
vn 0 -1 0
vn -1 0 0
vn -1 0 0
vn -1 0 0
vn -1 0 0
vn 0 1 0
vn 0 1 0
vn 0 1 0
vn 0 1 0
vn 0 1 0
vn 0 1 0
vn 0 1 0
vn 0 0 1
vn 0 0 1
vn 0 0 1
vn 0 0 1
vn 0 0 1
vn 0 -1 0
vn 0 -1 0
vn -1 0 0
vn -1 0 0
vn -1 0 0
vn -1 0 0
vn -1 0 0
vn -1 0 0
vn -1 0 0
vn -1 0 0
vn -1 0 0
vn -1 0 0
vn 0 1 0
vn 0 1 0
vn 0 0 1
vn 0 0 1
vn 0 0 1
vn 0 0 1
vn 0 1 0
vn 0 1 0
vn 0 1 0
vn 0 1 0
vn 0 0 1
vn 0 0 1
vn 0 0 1
vn 0 0 1
vn 0 0 1
vn 0 0 1
vn 0 0 1
vn 0 0 1
vn 0 0 1
vn 0 0 1
vn 0 0 1
vn 0 0 1
vn 0 0 1
vn 0 0 1
vn 0 0 1
vn 0 -1 0
vn 0 -1 0
vn 0 -1 0
vn 0 -1 0
vn 0 0 1
vn 0 0 1
vn 0 0 1
vn 0 0 1
vn 0 0 1
vn 0 0 1
vn 0 0 1
vn 0 0 1
vn 0 0 1
vn 0 0 1
vn 0 0 1
vn 0 0 1
vn 0 0 1
vn 1 0 0
vn 1 0 0
vn 1 0 0
vn 1 0 0
vn 1 0 0
vn 1 0 0
vn 1 0 0
vn 1 0 0
vn 0 0 1
vn 0 0 1
vn 0 0 1
vn 0 0 1
vn 0 0 1
vn 0 0 1
vn 0 0 1
vn 0 0 1
vn 1 0 0
vn 1 0 0
vn 1 0 0
vn 1 0 0
vn 0 0 1
vn 0 0 1
vn 0 0 1
vn 0 0 1
vn 0 1 0
vn 0 1 0
vn 0 0 1
vn 0 0 1
vn 0 0 1
vn 0 0 1
vn 0 0 1
vn 0 0 1
vn 0 0 1
vn 0 0 1
vn 0 0 1
vn 0 0 1
vn 0 0 1
vn 0 0 1
vn 1 0 0
vn 1 0 0
vn 1 0 0
vn 1 0 0
vn 1 0 0
vn 1 0 0
vn 1 0 0
vn 1 0 0
vn 1 0 0
vn 1 0 0
vn 0 0 -1
vn 0 0 -1
vn 0 -1 0
vn 0 -1 0
vn 0 -1 0
vn 0 -1 0
vn 0 -1 0
vn 0 -1 0
vn 0 0 -1
vn 0 0 -1
vn 0 -1 0
vn 0 -1 0
vn 0 -1 0
vn 0 -1 0
vn 0 -1 0
vn 0 -1 0
vn -1 0 0
vn -1 0 0
vn -1 0 0
vn -1 0 0
vn -1 0 0
vn -1 0 0
vn -1 0 0
vn -1 0 0
vn -1 0 0
vn -1 0 0
vn 0 1 0
vn 0 1 0
vn 0 1 0
vn 0 1 0
vn 0 1 0
vn 0 1 0
vn 0 1 0
vn 0 1 0
vn 0 1 0
vn 0 1 0
vn 0 1 0
vn 0 1 0
vn 0 1 0
vn 0 1 0
vn 0 1 0
vn 0 1 0
vn 0 1 0
vn 0 1 0
vn 0 1 0
vn 0 1 0
vn 0 -1 0
vn 0 1 0
vn 0 0 -1
vn 0 0 -1
vn 0 0 -1
vn 0 0 -1
vn -1 0 0
vn -1 0 0
vn -1 0 0
vn -1 0 0
vn -1 0 0
vn -1 0 0
vn 1 0 0
vn 1 0 0
vn 1 0 0
vn 1 0 0
vn -1 0 0
vn -1 0 0
vn -1 0 0
vn -1 0 0
vn -1 0 0
vn -1 0 0
vn 1 0 0
vn 1 0 0
vn 1 0 0
vn 1 0 0
vn 0 0 -1
vn 0 0 -1
vn 0 0 -1
vn 0 0 -1
vn 0 0 -1
vn -1 0 0
vn 0 0 1
vn 0 0 1
vn 0 0 1
vn 0 0 1
vn 0 0 1
vn 0 0 1
vn 0 0 1
vn 0 0 1
vn 0 0 1
vn 0 0 1
vn 0 0 1
vn 0 0 1
vn 0 0 1
vn 0 0 1
vn 0 0 1
vn 0 0 1
vn 0 1 0
vn 0 1 0
vn 0 1 0
vn 0 1 0
vn 1 0 0
vn 1 0 0
vn 1 0 0
vn 1 0 0
vn 0 -1 0
vn 0 -1 0
vn 0 -1 0
vn 0 -1 0
vn -1 0 0
vn -1 0 0
vn -1 0 0
vn -1 0 0
vn 0 0 1
vn 0 0 1
vn 0 0 1
vn 0 1 0
vn 0 1 0
vn 1 0 0
vn 0 0 1
vn 0 0 1
vn 0 0 1
vn 0 0 1
vn 0 1 0
vn 0 1 0
vn 0 1 0
vn 0 1 0
vn -1 0 0
vn -1 0 0
vn -1 0 0
vn -1 0 0
vn 0 -1 0
vn 0 -1 0
vn 0 -1 0
vn 0 -1 0
vn 1 0 0
vn 1 0 0
vn 1 0 0
vn 1 0 0
vn 0 0 1
vn 0 0 1
vn 0 0 1
vn 0 0 1
vn 0 0 1
vn 0 0 1
vn 0 0 1
vn 0 0 1
vn 0 0 1
vn 1 0 0
vn 1 0 0
vn 1 0 0
vn 1 0 0
vn 1 0 0
vn 1 0 0
vn 1 0 0
vn 1 0 0
vn 1 0 0
vn 1 0 0
vn 0 0 1
vn 0 0 1
vn -1 0 0
vn -1 0 0
vn 1 0 0
vn 1 0 0
vn 1 0 0
vn 1 0 0
vn 1 0 0
vn 1 0 0
vn 0 0 -1
vn 0 0 -1
vn -1 0 0
vn -1 0 0
vn -1 0 0
vn -1 0 0
vn 0 0 1
vn 0 0 1
vn 1 0 0
vn 1 0 0
vn 1 0 0
vn 1 0 0
vn 0 0 -1
vn 0 0 -1
vn 1 0 0
vn 1 0 0
vn 0 -1 0
vn 0 -1 0
vn 0 1 0
vn 0 1 0
vn 0 1 0
vn 0 1 0
vn 0 1 0
vn 0 1 0
vn 0 1 0
vn 0 1 0
vn -1 0 0
vn -1 0 0
vn -1 0 0
vn -1 0 0
vn 0 1 0
vn 0 1 0
vn 0 1 0
vn 0 1 0
vn 0 1 0
vn 0 1 0
vn 0 0 -1
vn 0 0 -1
vn 0 0 -1
vn 0 0 -1
vn 0 0 -1
vn 0 0 -1
vn 0 0 1
vn 0 0 1
vn 0 0 1
vn 0 0 1
vn 0 0 1
vn 0 0 1
vn 1 0 0
vn 1 0 0
vn 1 0 0
vn 1 0 0
vn 1 0 0
vn 1 0 0
vn 0 -1 0
vn 0 -1 0
vn 0 -1 0
vn 0 -1 0
vn 0 -1 0
vn 0 -1 0
vn 0 -1 0
vn 0 0 -1
vn 0 0 -1
vn 0 1 0
vn 0 1 0
vn 0 1 0
vn 0 1 0
vn 0 1 0
vn 0 1 0
vn 0 1 0
vn 0 1 0
vn 0 1 0
vn 0 1 0
vn 0 1 0
vn 0 1 0
vn 0 1 0
vn 0 1 0
vn 0 1 0
vn 0 1 0
vn -1 0 0
vn -1 0 0
usemtl BrushedIron_AlbedoTransparency
f 3/3/3 2/2/2 1/1/1
f 4/4/4 3/3/3 1/1/1
f 7/7/7 6/6/6 5/5/5
f 6/6/6 8/8/8 5/5/5
f 8/8/8 6/6/6 9/9/9
f 6/6/6 10/10/10 9/9/9
f 13/13/13 12/12/12 11/11/11
f 12/12/12 14/14/14 11/11/11
f 12/12/12 15/15/15 14/14/14
f 15/15/15 16/16/16 14/14/14
f 16/16/16 15/15/15 17/17/17
f 15/15/15 18/18/18 17/17/17
f 17/17/17 18/18/18 19/19/19
f 18/18/18 20/20/20 19/19/19
f 23/23/23 22/22/22 21/21/21
f 24/24/24 23/23/23 21/21/21
f 27/27/27 26/26/26 25/25/25
f 26/26/26 28/28/28 25/25/25
f 25/25/25 28/28/28 29/29/29
f 28/28/28 30/30/30 29/29/29
f 33/33/33 32/32/32 31/31/31
f 32/32/32 34/34/34 31/31/31
f 34/34/34 32/32/32 35/35/35
f 32/32/32 36/36/36 35/35/35
f 39/39/39 38/38/38 37/37/37
f 39/39/39 37/37/37 40/40/40
f 40/40/40 37/37/37 41/41/41
f 40/40/40 41/41/41 42/42/42
f 39/39/39 40/40/40 43/43/43
f 42/42/42 43/43/43 40/40/40
f 37/37/37 44/44/44 41/41/41
f 45/45/45 44/44/44 37/37/37
f 46/46/46 45/45/45 37/37/37
f 47/47/47 45/45/45 46/46/46
f 48/48/48 47/47/47 46/46/46
f 47/47/47 48/48/48 49/49/49
f 50/50/50 47/47/47 49/49/49
f 51/51/51 49/49/49 39/39/39
f 50/50/50 49/49/49 52/52/52
f 49/49/49 51/51/51 52/52/52
f 53/53/53 52/52/52 51/51/51
f 51/51/51 39/39/39 54/54/54
f 43/43/43 54/54/54 39/39/39
f 55/55/55 50/50/50 52/52/52
f 56/56/56 50/50/50 55/55/55
f 55/55/55 57/57/57 56/56/56
f 58/58/58 56/56/56 57/57/57
f 57/57/57 44/44/44 58/58/58
f 55/55/55 52/52/52 59/59/59
f 53/53/53 59/59/59 52/52/52
f 51/51/51 60/60/60 53/53/53
f 54/54/54 60/60/60 51/51/51
f 57/57/57 61/61/61 44/44/44
f 44/44/44 61/61/61 41/41/41
f 41/41/41 61/61/61 62/62/62
f 41/41/41 62/62/62 42/42/42
f 55/55/55 63/63/63 57/57/57
f 63/63/63 55/55/55 59/59/59
f 57/57/57 64/64/64 61/61/61
f 61/61/61 64/64/64 62/62/62
f 63/63/63 65/65/65 57/57/57
f 57/57/57 66/66/66 64/64/64
f 63/63/63 59/59/59 67/67/67
f 65/65/65 63/63/63 67/67/67
f 62/62/62 64/64/64 68/68/68
f 64/64/64 66/66/66 68/68/68
f 59/59/59 69/69/69 67/67/67
f 53/53/53 69/69/69 59/59/59
f 65/65/65 67/67/67 70/70/70
f 68/68/68 66/66/66 70/70/70
f 71/71/71 65/65/65 70/70/70
f 66/66/66 71/71/71 70/70/70
f 72/72/72 67/67/67 69/69/69
f 69/69/69 73/73/73 72/72/72
f 68/68/68 72/72/72 73/73/73
f 69/69/69 53/53/53 73/73/73
f 74/74/74 62/62/62 68/68/68
f 73/73/73 74/74/74 68/68/68
f 62/62/62 74/74/74 42/42/42
f 73/73/73 42/42/42 74/74/74
f 73/73/73 53/53/53 75/75/75
f 42/42/42 73/73/73 75/75/75
f 53/53/53 76/76/76 75/75/75
f 53/53/53 60/60/60 76/76/76
f 77/77/77 42/42/42 75/75/75
f 43/43/43 42/42/42 77/77/77
f 75/75/75 76/76/76 78/78/78
f 77/77/77 75/75/75 78/78/78
f 76/76/76 79/79/79 78/78/78
f 80/80/80 77/77/77 78/78/78
f 60/60/60 81/81/81 76/76/76
f 76/76/76 81/81/81 79/79/79
f 81/81/81 82/82/82 79/79/79
f 60/60/60 54/54/54 81/81/81
f 83/83/83 43/43/43 77/77/77
f 83/83/83 77/77/77 80/80/80
f 54/54/54 43/43/43 83/83/83
f 84/84/84 83/83/83 80/80/80
f 81/81/81 85/85/85 82/82/82
f 54/54/54 85/85/85 81/81/81
f 85/85/85 54/54/54 83/83/83
f 85/85/85 83/83/83 84/84/84
f 85/85/85 86/86/86 82/82/82
f 86/86/86 85/85/85 84/84/84
f 89/89/89 88/88/88 87/87/87
f 90/90/90 89/89/89 87/87/87
f 93/93/93 92/92/92 91/91/91
f 94/94/94 93/93/93 91/91/91
f 97/97/97 96/96/96 95/95/95
f 98/98/98 97/97/97 95/95/95
f 101/101/101 100/100/100 99/99/99
f 100/100/100 102/102/102 99/99/99
f 103/103/103 102/102/102 100/100/100
f 104/104/104 103/103/103 100/100/100
f 107/107/107 106/106/106 105/105/105
f 106/106/106 108/108/108 105/105/105
f 108/108/108 106/106/106 109/109/109
f 106/106/106 110/110/110 109/109/109
f 113/113/113 112/112/112 111/111/111
f 114/114/114 113/113/113 111/111/111
f 113/113/113 114/114/114 115/115/115
f 116/116/116 113/113/113 115/115/115
f 119/119/119 118/118/118 117/117/117
f 120/120/120 119/119/119 117/117/117
f 120/120/120 121/121/121 119/119/119
f 121/121/121 122/122/122 119/119/119
f 121/121/121 123/123/123 122/122/122
f 123/123/123 124/124/124 122/122/122
f 123/123/123 125/125/125 124/124/124
f 125/125/125 126/126/126 124/124/124
f 126/126/126 125/125/125 127/127/127
f 125/125/125 128/128/128 127/127/127
f 127/127/127 128/128/128 129/129/129
f 130/130/130 127/127/127 129/129/129
f 130/130/130 129/129/129 131/131/131
f 129/129/129 120/120/120 131/131/131
f 131/131/131 120/120/120 117/117/117
f 132/132/132 131/131/131 117/117/117
f 135/135/135 134/134/134 133/133/133
f 136/136/136 135/135/135 133/133/133
f 139/139/139 138/138/138 137/137/137
f 140/140/140 139/139/139 137/137/137
f 141/141/141 139/139/139 140/140/140
f 142/142/142 141/141/141 140/140/140
f 145/145/145 144/144/144 143/143/143
f 146/146/146 145/145/145 143/143/143
f 146/146/146 147/147/147 145/145/145
f 147/147/147 148/148/148 145/145/145
f 149/149/149 148/148/148 147/147/147
f 150/150/150 149/149/149 147/147/147
f 153/153/153 152/152/152 151/151/151
f 154/154/154 153/153/153 151/151/151
f 157/157/157 156/156/156 155/155/155
f 158/158/158 157/157/157 155/155/155
f 161/161/161 160/160/160 159/159/159
f 162/162/162 161/161/161 159/159/159
f 161/161/161 162/162/162 163/163/163
f 164/164/164 161/161/161 163/163/163
f 165/165/165 164/164/164 163/163/163
f 166/166/166 165/165/165 163/163/163
f 169/169/169 168/168/168 167/167/167
f 170/170/170 169/169/169 167/167/167
f 173/173/173 172/172/172 171/171/171
f 174/174/174 173/173/173 171/171/171
f 177/177/177 176/176/176 175/175/175
f 178/178/178 177/177/177 175/175/175
f 179/179/179 177/177/177 178/178/178
f 180/180/180 179/179/179 178/178/178
f 181/181/181 179/179/179 180/180/180
f 182/182/182 181/181/181 180/180/180
f 185/185/185 184/184/184 183/183/183
f 186/186/186 185/185/185 183/183/183
f 189/189/189 188/188/188 187/187/187
f 190/190/190 189/189/189 187/187/187
f 193/193/193 192/192/192 191/191/191
f 194/194/194 193/193/193 191/191/191
f 195/195/195 193/193/193 194/194/194
f 196/196/196 195/195/195 194/194/194
f 197/197/197 195/195/195 196/196/196
f 198/198/198 197/197/197 196/196/196
f 201/201/201 200/200/200 199/199/199
f 200/200/200 202/202/202 199/199/199
f 200/200/200 203/203/203 202/202/202
f 203/203/203 204/204/204 202/202/202
f 207/207/207 206/206/206 205/205/205
f 206/206/206 208/208/208 205/205/205
f 209/209/209 208/208/208 206/206/206
f 210/210/210 209/209/209 206/206/206
f 210/210/210 211/211/211 209/209/209
f 211/211/211 212/212/212 209/209/209
f 215/215/215 214/214/214 213/213/213
f 216/216/216 215/215/215 213/213/213
f 219/219/219 218/218/218 217/217/217
f 220/220/220 219/219/219 217/217/217
f 223/223/223 222/222/222 221/221/221
f 222/222/222 224/224/224 221/221/221
f 224/224/224 222/222/222 225/225/225
f 222/222/222 226/226/226 225/225/225
f 226/226/226 227/227/227 225/225/225
f 227/227/227 228/228/228 225/225/225
f 231/231/231 230/230/230 229/229/229
f 232/232/232 231/231/231 229/229/229
f 235/235/235 234/234/234 233/233/233
f 236/236/236 235/235/235 233/233/233
f 239/239/239 238/238/238 237/237/237
f 238/238/238 240/240/240 237/237/237
f 238/238/238 241/241/241 240/240/240
f 241/241/241 242/242/242 240/240/240
f 241/241/241 243/243/243 242/242/242
f 243/243/243 244/244/244 242/242/242
f 247/247/247 246/246/246 245/245/245
f 248/248/248 247/247/247 245/245/245
f 251/251/251 250/250/250 249/249/249
f 252/252/252 251/251/251 249/249/249
f 255/255/255 254/254/254 253/253/253
f 254/254/254 256/256/256 253/253/253
f 254/254/254 257/257/257 256/256/256
f 257/257/257 258/258/258 256/256/256
f 257/257/257 259/259/259 258/258/258
f 259/259/259 260/260/260 258/258/258
f 263/263/263 262/262/262 261/261/261
f 264/264/264 262/262/262 263/263/263
f 265/265/265 262/262/262 264/264/264
f 261/261/261 262/262/262 266/266/266
f 265/265/265 267/267/267 262/262/262
f 262/262/262 268/268/268 266/266/266
f 267/267/267 268/268/268 262/262/262
f 268/268/268 269/269/269 266/266/266
f 270/270/270 268/268/268 267/267/267
f 269/269/269 268/268/268 271/271/271
f 272/272/272 268/268/268 270/270/270
f 271/271/271 268/268/268 272/272/272
f 275/275/275 274/274/274 273/273/273
f 275/275/275 276/276/276 274/274/274
f 275/275/275 277/277/277 276/276/276
f 275/275/275 273/273/273 278/278/278
f 279/279/279 277/277/277 275/275/275
f 280/280/280 275/275/275 278/278/278
f 280/280/280 279/279/279 275/275/275
f 281/281/281 280/280/280 278/278/278
f 280/280/280 282/282/282 279/279/279
f 280/280/280 281/281/281 283/283/283
f 280/280/280 284/284/284 282/282/282
f 280/280/280 283/283/283 284/284/284
f 287/287/287 286/286/286 285/285/285
f 288/288/288 287/287/287 285/285/285
f 285/285/285 286/286/286 289/289/289
f 290/290/290 287/287/287 288/288/288
f 286/286/286 291/291/291 289/289/289
f 292/292/292 290/290/290 288/288/288
f 289/289/289 291/291/291 293/293/293
f 294/294/294 290/290/290 292/292/292
f 291/291/291 295/295/295 293/293/293
f 296/296/296 294/294/294 292/292/292
f 293/293/293 295/295/295 297/297/297
f 298/298/298 294/294/294 296/296/296
f 295/295/295 299/299/299 297/297/297
f 300/300/300 298/298/298 296/296/296
f 297/297/297 299/299/299 301/301/301
f 302/302/302 298/298/298 300/300/300
f 299/299/299 303/303/303 301/301/301
f 304/304/304 302/302/302 300/300/300
f 301/301/301 303/303/303 304/304/304
f 303/303/303 302/302/302 304/304/304
f 307/307/307 306/306/306 305/305/305
f 306/306/306 308/308/308 305/305/305
f 307/307/307 305/305/305 309/309/309
f 306/306/306 310/310/310 308/308/308
f 311/311/311 307/307/307 309/309/309
f 310/310/310 312/312/312 308/308/308
f 311/311/311 309/309/309 313/313/313
f 310/310/310 314/314/314 312/312/312
f 315/315/315 311/311/311 313/313/313
f 314/314/314 316/316/316 312/312/312
f 315/315/315 313/313/313 317/317/317
f 314/314/314 318/318/318 316/316/316
f 319/319/319 315/315/315 317/317/317
f 318/318/318 320/320/320 316/316/316
f 319/319/319 317/317/317 321/321/321
f 318/318/318 322/322/322 320/320/320
f 323/323/323 319/319/319 321/321/321
f 322/322/322 324/324/324 320/320/320
f 323/323/323 321/321/321 324/324/324
f 322/322/322 323/323/323 324/324/324
