mtllib QuadDecalSpawnPlane_78b9e693.mtl
g QuadDecalSpawnPlane_78b9e693
v 2.205 0.9385 -1.25524
v 2.205 0.9385 -1.94274
v 2.205 2.0135 -1.25524
v 2.205 2.0135 -1.94274
vn 2.821828 1.476 -1.599
vn 2.821828 1.476 -1.599
vn 2.821828 1.476 -1.599
vn 2.821828 1.476 -1.599
vt 0 0
vt 1 0
vt 0 1
vt 1 1
usemtl GlassDecalStencil (Instance)
f 2/2/2 4/4/4 1/1/1
f 3/3/3 1/1/1 4/4/4
g QuadDecalSpawnPlane_78b9e693
v 2.205 0.9385 -1.25524
v 2.205 0.9385 -1.94274
v 2.205 2.0135 -1.25524
v 2.205 2.0135 -1.94274
vn 2.821828 1.476 -1.599
vn 2.821828 1.476 -1.599
vn 2.821828 1.476 -1.599
vn 2.821828 1.476 -1.599
vt 0 0
vt 1 0
vt 0 1
vt 1 1
usemtl GlassDecalStencil (Instance)
f 6/6/6 8/8/8 5/5/5
f 7/7/7 5/5/5 8/8/8
