mtllib material.mtl
usemtl material_0
v -0.35364000 -0.37363000 0.02700000
v -0.26500000 -0.37500000 0.02541000
v -0.35500000 -0.37500000 0.02541000
v -0.26500000 -0.37368000 0.02700000
v -0.08499000 -0.37500000 0.02551000
v -0.08499000 -0.37368000 0.02711000
v 0.00501000 -0.37500000 0.02551000
v 0.00363000 -0.37363000 0.02711000
v -0.08499000 -0.37500000 0.00011000
v 0.00501000 -0.37500000 0.02551000
v 0.00501000 -0.37500000 0.00011000
v -0.08499000 -0.37500000 0.02551000
v -0.26500000 -0.37500000 0.02541000
v -0.26500000 -0.37500000 0.00001000
v -0.35500000 -0.37500000 0.00001000
v -0.35500000 -0.37500000 0.02541000
v 0.00363000 -0.37363000 0.02711000
v 0.00501000 -0.28500000 0.02551000
v 0.00501000 -0.37500000 0.02551000
v 0.00369000 -0.28500000 0.02711000
v 0.00501000 0.17501000 0.02551000
v 0.00369000 0.17501000 0.02711000
v 0.00501000 0.26501000 0.02551000
v 0.00363000 0.26368000 0.02711000
v 0.00501000 0.17501000 0.00011000
v 0.00501000 0.26501000 0.02551000
v 0.00501000 0.26501000 0.00011000
v 0.00501000 0.17501000 0.02551000
v 0.00501000 -0.28500000 0.02551000
v 0.00501000 -0.28500000 0.00011000
v 0.00501000 -0.37500000 0.00011000
v 0.00501000 -0.37500000 0.02551000
v -0.08499000 0.26501000 0.02551000
v 0.00501000 0.26501000 0.02551000
v 0.00363000 0.26368000 0.02711000
v -0.08499000 0.26365000 0.02711000
v -0.26500000 0.26501000 0.02540000
v -0.26500000 0.26365000 0.02700000
v -0.35500000 0.26501000 0.02540000
v -0.35364000 0.26368000 0.02700000
v -0.26500000 0.26501000 0.00001000
v -0.35500000 0.26501000 0.02540000
v -0.35500000 0.26501000 0.00001000
v -0.26500000 0.26501000 0.02540000
v -0.08499000 0.26501000 0.02551000
v -0.08499000 0.26501000 0.00011000
v 0.00501000 0.26501000 0.00011000
v 0.00501000 0.26501000 0.02551000
v -0.35500000 0.17501000 0.02540000
v -0.35500000 0.26501000 0.02540000
v -0.35364000 0.26368000 0.02700000
v -0.35366000 0.17501000 0.02700000
v -0.35500000 -0.28500000 0.02541000
v -0.35366000 -0.28500000 0.02700000
v -0.35500000 -0.37500000 0.02541000
v -0.35364000 -0.37363000 0.02700000
v -0.35500000 0.26501000 0.00001000
v -0.35500000 0.26501000 0.02540000
v -0.35500000 0.17501000 0.02540000
v -0.35500000 0.17501000 0.00001000
v -0.35500000 -0.28500000 0.00001000
v -0.35500000 -0.28500000 0.02541000
v -0.35500000 -0.37500000 0.02541000
v -0.35500000 -0.37500000 0.00001000
v -0.29919000 0.20920000 0.02528000
v -0.30084000 0.17500000 0.02700000
v -0.30082000 0.21083000 0.02700000
v -0.29918000 0.17501000 0.02527000
v -0.30084000 -0.28499000 0.02700000
v -0.29918000 -0.28500000 0.02527000
v -0.30082000 -0.32081000 0.02700000
v -0.29919000 -0.31919000 0.02528000
v -0.29770000 0.17501000 0.01301000
v -0.29919000 0.20920000 0.02528000
v -0.29770000 0.20771000 0.01301000
v -0.29918000 0.17501000 0.02527000
v -0.29918000 -0.28500000 0.02527000
v -0.29770000 -0.28500000 0.01301000
v -0.29770000 -0.31770000 0.01301000
v -0.29919000 -0.31919000 0.02528000
v -0.26500000 0.20919000 0.02527000
v -0.29919000 0.20920000 0.02528000
v -0.30082000 0.21083000 0.02700000
v -0.26499000 0.21086000 0.02700000
v -0.08499000 0.20919000 0.02537000
v -0.08500000 0.21085000 0.02711000
v -0.05080000 0.20920000 0.02538000
v -0.04911000 0.21083000 0.02711000
v -0.29770000 0.20771000 0.01301000
v -0.29919000 0.20920000 0.02528000
v -0.26500000 0.20919000 0.02527000
v -0.26500000 0.20771000 0.01301000
v -0.08499000 0.20771000 0.01311000
v -0.08499000 0.20919000 0.02537000
v -0.05080000 0.20920000 0.02538000
v -0.05229000 0.20771000 0.01311000
v -0.05081000 0.17501000 0.02537000
v -0.05080000 0.20920000 0.02538000
v -0.04911000 0.21083000 0.02711000
v -0.04920000 0.17500000 0.02711000
v -0.05081000 -0.28500000 0.02537000
v -0.04920000 -0.28499000 0.02711000
v -0.05080000 -0.31919000 0.02538000
v -0.04911000 -0.32081000 0.02711000
v -0.05229000 0.20771000 0.01311000
v -0.05080000 0.20920000 0.02538000
v -0.05081000 0.17501000 0.02537000
v -0.05229000 0.17501000 0.01311000
v -0.05229000 -0.28500000 0.01311000
v -0.05081000 -0.28500000 0.02537000
v -0.05080000 -0.31919000 0.02538000
v -0.05229000 -0.31770000 0.01311000
v -0.08499000 -0.31918000 0.02537000
v -0.05080000 -0.31919000 0.02538000
v -0.04911000 -0.32081000 0.02711000
v -0.08500000 -0.32085000 0.02711000
v -0.26500000 -0.31918000 0.02527000
v -0.26499000 -0.32085000 0.02700000
v -0.29919000 -0.31919000 0.02528000
v -0.30082000 -0.32081000 0.02700000
v -0.05229000 -0.31770000 0.01311000
v -0.05080000 -0.31919000 0.02538000
v -0.08499000 -0.31918000 0.02537000
v -0.08499000 -0.31770000 0.01311000
v -0.26500000 -0.31770000 0.01301000
v -0.26500000 -0.31918000 0.02527000
v -0.29919000 -0.31919000 0.02528000
v -0.29770000 -0.31770000 0.01301000
v -0.05229000 0.17501000 0.01311000
v -0.08499000 0.20771000 0.01311000
v -0.05229000 0.20771000 0.01311000
v -0.08499000 0.17501000 0.01311000
v -0.26500000 0.20771000 0.01301000
v -0.08499000 -0.28500000 0.01311000
v -0.05229000 -0.28500000 0.01311000
v -0.05229000 -0.31770000 0.01311000
v -0.08499000 -0.31770000 0.01311000
v -0.26500000 0.17501000 0.01301000
v -0.29770000 0.20771000 0.01301000
v -0.29770000 0.17501000 0.01301000
v -0.29770000 -0.28500000 0.01301000
v -0.26500000 -0.28500000 0.01301000
v -0.26500000 -0.31770000 0.01301000
v -0.29770000 -0.31770000 0.01301000
v -0.08499000 0.26501000 0.00011000
v 0.00501000 0.17501000 0.00011000
v 0.00501000 0.26501000 0.00011000
v -0.08499000 0.17501000 0.00011000
v 0.00501000 -0.28500000 0.00011000
v -0.26500000 0.17501000 0.00001000
v -0.26500000 0.26501000 0.00001000
v -0.35500000 0.26501000 0.00001000
v -0.35500000 0.17501000 0.00001000
v -0.08499000 -0.28500000 0.00011000
v 0.00501000 -0.37500000 0.00011000
v -0.08499000 -0.37500000 0.00011000
v -0.26500000 -0.37500000 0.00001000
v -0.26500000 -0.28500000 0.00001000
v -0.35500000 -0.28500000 0.00001000
v -0.35500000 -0.37500000 0.00001000
v -0.30082000 0.21083000 0.02700000
v -0.30084000 0.17500000 0.02700000
v -0.35366000 0.17501000 0.02700000
v -0.35364000 0.26368000 0.02700000
v -0.35366000 -0.28500000 0.02700000
v -0.26499000 0.21086000 0.02700000
v -0.30084000 -0.28499000 0.02700000
v -0.26500000 0.26365000 0.02700000
v -0.35364000 -0.37363000 0.02700000
v -0.08500000 0.21085000 0.02711000
v -0.30082000 -0.32081000 0.02700000
v -0.08499000 0.26365000 0.02711000
v -0.26500000 -0.37368000 0.02700000
v -0.04911000 0.21083000 0.02711000
v -0.26499000 -0.32085000 0.02700000
v 0.00363000 0.26368000 0.02711000
v -0.08499000 -0.37368000 0.02711000
v -0.04920000 0.17500000 0.02711000
v -0.08500000 -0.32085000 0.02711000
v 0.00369000 0.17501000 0.02711000
v 0.00363000 -0.37363000 0.02711000
v -0.04920000 -0.28499000 0.02711000
v -0.04911000 -0.32081000 0.02711000
v 0.00369000 -0.28500000 0.02711000
vn -0.00045823 -0.77234730 0.63520030
vn -0.00038750 -0.77234270 0.63520600
vn 0.00000000 -0.75994310 0.64998960
vn -0.00038801 -0.77234270 0.63520590
vn -0.00035318 -0.77234040 0.63520870
vn -0.00035501 -0.77242350 0.63510770
vn 0.00000000 -0.77242380 0.63510760
vn 0.00045128 -0.75984090 0.65010890
vn 0.00000000 -1.00000000 0.00000000
vn 0.00000000 -1.00000000 0.00000000
vn 0.00000000 -1.00000000 0.00000000
vn 0.00000000 -1.00000000 0.00000000
vn -0.00000049 -1.00000000 0.00000000
vn -0.00000049 -1.00000000 0.00000000
vn 0.00000000 -1.00000000 0.00000000
vn 0.00000000 -1.00000000 0.00000000
vn 0.77344610 -0.00053258 0.63386200
vn 0.77343980 -0.00008495 0.63386970
vn 0.75902180 0.00000000 0.65106520
vn 0.77343980 -0.00008626 0.63386970
vn 0.77343860 0.00000000 0.63387120
vn 0.77343890 0.00000000 0.63387100
vn 0.77346410 0.00000000 0.63384010
vn 0.75886880 0.00052228 0.65124330
vn 1.00000000 0.00000000 0.00000000
vn 1.00000000 0.00000000 0.00000000
vn 1.00000000 0.00000000 0.00000000
vn 1.00000000 0.00000000 0.00000000
vn 1.00000000 0.00000000 0.00000000
vn 1.00000000 0.00000000 0.00000000
vn 1.00000000 0.00000000 0.00000000
vn 1.00000000 0.00000000 0.00000000
vn 0.00000000 0.76920320 0.63900420
vn 0.00000000 0.76920330 0.63900420
vn 0.00000000 0.76920340 0.63900410
vn -0.00031172 0.76322060 0.64613790
vn -0.00035839 0.76319190 0.64617170
vn -0.00035792 0.76328810 0.64605810
vn 0.00000000 0.76319060 0.64617340
vn 0.00021724 0.76923330 0.63896800
vn 0.00000000 1.00000000 0.00000000
vn 0.00000000 1.00000000 0.00000000
vn 0.00000000 1.00000000 0.00000000
vn 0.00000000 1.00000000 0.00000000
vn 0.00000085 1.00000000 0.00000000
vn 0.00000085 1.00000000 0.00000000
vn 0.00000000 1.00000000 0.00000000
vn 0.00000000 1.00000000 0.00000000
vn -0.76397410 0.00000000 0.64524690
vn -0.76397410 0.00000000 0.64524690
vn -0.76397410 0.00000000 0.64524690
vn -0.76840790 0.00016477 0.63996030
vn -0.76844230 0.00000057 0.63991910
vn -0.76840690 0.00000019 0.63996150
vn -0.76840690 0.00000019 0.63996150
vn -0.76383010 -0.00016385 0.64541730
vn -1.00000000 0.00000000 0.00000000
vn -1.00000000 0.00000000 0.00000000
vn -1.00000000 0.00000000 0.00000000
vn -1.00000000 0.00000000 0.00000000
vn -1.00000000 0.00000046 0.00000000
vn -1.00000000 0.00000046 0.00000000
vn -1.00000000 0.00000029 0.00000000
vn -1.00000000 0.00000029 0.00000000
vn 0.72529690 -0.00043612 0.68843610
vn 0.72256340 -0.00017466 0.69130470
vn 0.72538870 -0.00044493 0.68833940
vn 0.72242740 -0.00016168 0.69144670
vn 0.72247340 0.00044374 0.69139860
vn 0.72543320 0.00016471 0.68829250
vn 0.72543320 0.00016471 0.68829250
vn 0.72543320 0.00016471 0.68829260
vn 0.99270960 0.00000604 0.12053010
vn 0.99270810 0.00000190 0.12054250
vn 0.99270740 0.00000000 0.12054820
vn 0.99271020 0.00000768 0.12052510
vn 0.99271010 0.00000000 0.12052680
vn 0.99270800 0.00000040 0.12054350
vn 0.99270810 0.00000000 0.12054320
vn 0.99270760 -0.00000090 0.12054760
vn 0.00016205 -0.72561540 0.68810050
vn 0.00016205 -0.72561540 0.68810050
vn 0.00016205 -0.72561540 0.68810050
vn 0.00048785 -0.72233810 0.69153990
vn -0.00038368 -0.72238150 0.69149460
vn -0.00018226 -0.72243830 0.69143540
vn -0.00018226 -0.72243830 0.69143540
vn -0.00048745 -0.72546800 0.68825570
vn 0.00000180 -0.99270930 0.12053330
vn 0.00000180 -0.99270930 0.12053330
vn 0.00000180 -0.99270930 0.12053330
vn 0.00000000 -0.99270730 0.12054980
vn -0.00006741 -0.99270550 0.12056390
vn -0.00006816 -0.99270920 0.12053440
vn -0.00000022 -0.99270870 0.12053760
vn 0.00000000 -0.99270860 0.12053850
vn -0.71423570 -0.00018301 0.69990520
vn -0.71423570 -0.00018301 0.69990530
vn -0.71423570 -0.00018301 0.69990520
vn -0.73392980 0.00175957 0.67922300
vn -0.73400160 0.00000000 0.67914780
vn -0.73402820 0.00017634 0.67911890
vn -0.73402830 0.00017634 0.67911890
vn -0.71509520 -0.00171431 0.69902500
vn -0.99270740 -0.00000722 0.12054900
vn -0.99270740 -0.00000722 0.12054900
vn -0.99270740 -0.00000722 0.12054900
vn -0.99270530 0.00000000 0.12056590
vn -0.99270540 0.00000000 0.12056460
vn -0.99270520 0.00000000 0.12056670
vn -0.99270670 0.00000179 0.12055440
vn -0.99270710 0.00000000 0.12055100
vn -0.00017801 0.72711530 0.68651550
vn -0.00017801 0.72711530 0.68651550
vn -0.00017801 0.72711530 0.68651550
vn -0.00076446 0.72097180 0.69296400
vn -0.00038381 0.72097810 0.69295780
vn 0.00015889 0.72089410 0.69304520
vn 0.00015889 0.72089410 0.69304510
vn 0.00077180 0.72685780 0.68678750
vn 0.00000000 0.99270860 0.12053920
vn 0.00000000 0.99270860 0.12053920
vn 0.00000000 0.99270860 0.12053920
vn 0.00000094 0.99270870 0.12053800
vn -0.00006569 0.99270880 0.12053730
vn -0.00006608 0.99270810 0.12054240
vn -0.00000067 0.99270740 0.12054810
vn 0.00000000 0.99270730 0.12054940
vn 0.00000000 0.00000000 1.00000000
vn 0.00000000 0.00000000 1.00000000
vn 0.00000000 0.00000000 1.00000000
vn 0.00000000 0.00000000 1.00000000
vn 0.00000000 0.00000000 1.00000000
vn 0.00000000 0.00000000 1.00000000
vn 0.00000000 0.00000000 1.00000000
vn 0.00000000 0.00000000 1.00000000
vn 0.00000225 0.00000000 1.00000000
vn 0.00000000 0.00000000 1.00000000
vn 0.00000000 0.00000000 1.00000000
vn 0.00000000 0.00000000 1.00000000
vn 0.00000000 0.00000000 1.00000000
vn -0.00055656 0.00000000 0.99999990
vn -0.00055684 0.00000000 0.99999990
vn 0.00000000 0.00000000 1.00000000
vn 0.00000000 0.00000000 -1.00000000
vn 0.00000000 0.00000000 -1.00000000
vn 0.00000000 0.00000000 -1.00000000
vn 0.00000000 0.00000000 -1.00000000
vn 0.00000000 0.00000000 -1.00000000
vn 0.00000000 0.00000000 -1.00000000
vn 0.00000000 0.00000000 -1.00000000
vn 0.00000000 0.00000000 -1.00000000
vn 0.00000000 0.00000000 -1.00000000
vn 0.00000000 0.00000000 -1.00000000
vn 0.00000000 0.00000000 -1.00000000
vn 0.00000000 0.00000000 -1.00000000
vn 0.00055610 0.00000000 -0.99999990
vn 0.00055600 0.00000000 -0.99999990
vn 0.00000000 0.00000000 -1.00000000
vn 0.00000000 0.00000000 -1.00000000
vn -0.00000166 0.00000000 1.00000000
vn -0.00000319 0.00000000 1.00000000
vn -0.00000377 0.00000000 1.00000000
vn -0.00000151 0.00000000 1.00000000
vn 0.00000288 0.00000000 1.00000000
vn -0.00039963 0.00000000 1.00000000
vn 0.00000348 0.00000000 1.00000000
vn -0.00037287 0.00000000 1.00000000
vn 0.00000000 0.00000000 1.00000000
vn -0.00046506 0.00000000 0.99999990
vn 0.00000044 0.00000000 1.00000000
vn -0.00040372 0.00000000 1.00000000
vn -0.00040230 0.00000000 1.00000000
vn -0.00000039 0.00000000 1.00000000
vn -0.00046331 0.00000000 0.99999990
vn 0.00000000 0.00000000 1.00000000
vn -0.00037353 0.00000000 1.00000000
vn 0.00000000 0.00000000 1.00000000
vn -0.00040064 0.00000000 1.00000000
vn 0.00000000 0.00000000 1.00000000
vn 0.00000131 0.00000000 1.00000000
vn 0.00000000 0.00000000 1.00000000
vn 0.00000066 0.00000000 1.00000000
vn 0.00000027 0.00000000 1.00000000
vt 0.70280810 3.21317900
vt 0.76757690 3.21095100
vt 0.70182070 3.21095100
vt 0.76757710 3.21317900
vt 0.89908980 3.21109000
vt 0.89908980 3.21331900
vt 0.96484600 3.21109000
vt 0.96384330 3.21331900
vt 0.89908980 3.17571000
vt 0.96484600 3.21109000
vt 0.96484600 3.17571000
vt 0.89908980 3.21109000
vt 0.76757690 3.21095100
vt 0.76757690 3.17557000
vt 0.70182070 3.17557000
vt 0.70182070 3.21095100
vt 2.06491900 1.29008000
vt 2.06710200 1.35619800
vt 2.06710200 1.28905900
vt 2.06491900 1.35619900
vt 2.06710200 1.69935700
vt 2.06491900 1.69935700
vt 2.06710200 1.76649700
vt 2.06491900 1.76550500
vt 2.10174700 1.69935700
vt 2.06710200 1.76649700
vt 2.10174700 1.76649700
vt 2.06710200 1.69935700
vt 2.06710200 1.35619800
vt 2.10174700 1.35619800
vt 2.10174700 1.28905900
vt 2.06710200 1.28905900
vt 2.43422900 3.21109400
vt 2.36845700 3.21109400
vt 2.36946000 3.21332300
vt 2.43422900 3.21332300
vt 2.56577200 3.21095500
vt 2.56577200 3.21318400
vt 2.63154300 3.21095500
vt 2.63055500 3.21318400
vt 2.56577200 3.17556600
vt 2.63154300 3.21095500
vt 2.63154300 3.17556600
vt 2.56577200 3.21095500
vt 2.43422900 3.21109400
vt 2.43422900 3.17570500
vt 2.36845700 3.17570500
vt 2.36845700 3.21109400
vt 1.82179000 1.69938900
vt 1.82179000 1.76654100
vt 1.82397200 1.76554900
vt 1.82397200 1.69938900
vt 1.82179000 1.35616700
vt 1.82397200 1.35616700
vt 1.82179000 1.28901500
vt 1.82397200 1.29003600
vt 1.78713900 1.76654100
vt 1.82179000 1.76654100
vt 1.82179000 1.69938900
vt 1.78713900 1.69938900
vt 1.78713900 1.35616700
vt 1.82179000 1.35616700
vt 1.82179000 1.28901500
vt 1.78713900 1.28901500
vt 4.01750900 1.39307800
vt 4.01415200 1.37456000
vt 4.01415200 1.39396300
vt 4.01752800 1.37456100
vt 4.01415200 1.12543600
vt 4.01752800 1.12543500
vt 4.01415200 1.10603700
vt 4.01750900 1.10691800
vt 4.04140300 1.37456100
vt 4.01750900 1.39307800
vt 4.04140300 1.39227100
vt 4.01752800 1.37456100
vt 4.01752800 1.12543500
vt 4.04140300 1.12543500
vt 4.04140300 1.10772600
vt 4.01750900 1.10691800
vt 0.50877460 3.48280600
vt 0.49100820 3.48282600
vt 0.49015810 3.48632500
vt 0.50877520 3.48632500
vt 0.60230840 3.48300900
vt 0.60230820 3.48652800
vt 0.62007490 3.48302800
vt 0.62095300 3.48652800
vt 0.49178280 3.45791700
vt 0.49100820 3.48282600
vt 0.50877460 3.48280600
vt 0.50877460 3.45791700
vt 0.60230840 3.45812000
vt 0.60230840 3.48300900
vt 0.62007490 3.48302800
vt 0.61930020 3.45812000
vt 4.31579400 1.37441800
vt 4.31581400 1.39291400
vt 4.31916700 1.39379800
vt 4.31916700 1.37441800
vt 4.31579400 1.12557800
vt 4.31916700 1.12557800
vt 4.31581400 1.10708200
vt 4.31916700 1.10620200
vt 4.29194500 1.39210700
vt 4.31581400 1.39291400
vt 4.31579400 1.37441800
vt 4.29194500 1.37441800
vt 4.29194500 1.12557800
vt 4.31579400 1.12557800
vt 4.31581400 1.10708200
vt 4.29194500 1.10788900
vt 1.61990800 3.48301000
vt 1.60213900 3.48303000
vt 1.60126100 3.48653000
vt 1.61990800 3.48653000
vt 1.71345300 3.48280700
vt 1.71345200 3.48632700
vt 1.73122200 3.48282600
vt 1.73207200 3.48632700
vt 1.60291400 3.45811800
vt 1.60213900 3.48303000
vt 1.61990800 3.48301000
vt 1.61990800 3.45811800
vt 1.71345300 3.45791500
vt 1.71345300 3.48280700
vt 1.73122200 3.48282600
vt 1.73044700 3.45791500
vt 4.56254300 3.98896500
vt 4.53106900 4.02294100
vt 4.56254300 4.02294100
vt 4.53106900 3.98896500
vt 4.35782100 4.02294100
vt 4.53106900 3.51103500
vt 4.56254300 3.51103500
vt 4.56254300 3.47706000
vt 4.53106900 3.47706000
vt 4.35782100 3.98896500
vt 4.32634600 4.02294100
vt 4.32634600 3.98896500
vt 4.32634600 3.51103500
vt 4.35782100 3.51103500
vt 4.35782100 3.47706100
vt 4.32634600 3.47706100
vt 0.74535950 1.85514900
vt 0.65738560 1.76307600
vt 0.65738560 1.85514900
vt 0.74535950 1.76307600
vt 0.65738560 1.29248000
vt 0.92130760 1.76307600
vt 0.92130760 1.85514900
vt 1.00928100 1.85514900
vt 1.00928100 1.76307600
vt 0.74535950 1.29248000
vt 0.65738560 1.20040700
vt 0.74535950 1.20040700
vt 0.92130740 1.20040700
vt 0.92130740 1.29248000
vt 1.00928100 1.29248000
vt 1.00928100 1.20040700
vt 2.93235200 1.79929500
vt 2.93233000 1.76270300
vt 2.88061800 1.76270300
vt 2.88063600 1.85327000
vt 2.88061800 1.29286700
vt 2.96743000 1.79931900
vt 2.93233000 1.29286700
vt 2.96742900 1.85324400
vt 2.88063600 1.20234000
vt 3.14366100 1.79931900
vt 2.93235200 1.25628200
vt 3.14366100 1.85324400
vt 2.96742900 1.20228600
vt 3.17879100 1.79929500
vt 2.96743000 1.25624300
vt 3.23043400 1.85327000
vt 3.14366100 1.20228600
vt 3.17870600 1.76270200
vt 3.14366100 1.25624300
vt 3.23049300 1.76270300
vt 3.23043400 1.20234000
vt 3.17870600 1.29286700
vt 3.17879100 1.25628200
vt 3.23049300 1.29286700
f 3/3/3 2/2/2 1/1/1
f 2/2/2 4/4/4 1/1/1
f 4/4/4 2/2/2 5/5/5
f 6/6/6 4/4/4 5/5/5
f 5/5/5 7/7/7 6/6/6
f 7/7/7 8/8/8 6/6/6
f 11/11/11 10/10/10 9/9/9
f 10/10/10 12/12/12 9/9/9
f 9/9/9 12/12/12 13/13/13
f 14/14/14 9/9/9 13/13/13
f 14/14/14 13/13/13 15/15/15
f 13/13/13 16/16/16 15/15/15
f 19/19/19 18/18/18 17/17/17
f 18/18/18 20/20/20 17/17/17
f 20/20/20 18/18/18 21/21/21
f 22/22/22 20/20/20 21/21/21
f 21/21/21 23/23/23 22/22/22
f 23/23/23 24/24/24 22/22/22
f 27/27/27 26/26/26 25/25/25
f 26/26/26 28/28/28 25/25/25
f 25/25/25 28/28/28 29/29/29
f 30/30/30 25/25/25 29/29/29
f 30/30/30 29/29/29 31/31/31
f 29/29/29 32/32/32 31/31/31
f 35/35/35 34/34/34 33/33/33
f 36/36/36 35/35/35 33/33/33
f 36/36/36 33/33/33 37/37/37
f 38/38/38 36/36/36 37/37/37
f 38/38/38 37/37/37 39/39/39
f 40/40/40 38/38/38 39/39/39
f 43/43/43 42/42/42 41/41/41
f 42/42/42 44/44/44 41/41/41
f 41/41/41 44/44/44 45/45/45
f 46/46/46 41/41/41 45/45/45
f 46/46/46 45/45/45 47/47/47
f 45/45/45 48/48/48 47/47/47
f 51/51/51 50/50/50 49/49/49
f 52/52/52 51/51/51 49/49/49
f 52/52/52 49/49/49 53/53/53
f 54/54/54 52/52/52 53/53/53
f 53/53/53 55/55/55 54/54/54
f 55/55/55 56/56/56 54/54/54
f 59/59/59 58/58/58 57/57/57
f 60/60/60 59/59/59 57/57/57
f 60/60/60 61/61/61 59/59/59
f 61/61/61 62/62/62 59/59/59
f 63/63/63 62/62/62 61/61/61
f 64/64/64 63/63/63 61/61/61
f 67/67/67 66/66/66 65/65/65
f 66/66/66 68/68/68 65/65/65
f 68/68/68 66/66/66 69/69/69
f 70/70/70 68/68/68 69/69/69
f 69/69/69 71/71/71 70/70/70
f 71/71/71 72/72/72 70/70/70
f 75/75/75 74/74/74 73/73/73
f 74/74/74 76/76/76 73/73/73
f 73/73/73 76/76/76 77/77/77
f 78/78/78 73/73/73 77/77/77
f 78/78/78 77/77/77 79/79/79
f 77/77/77 80/80/80 79/79/79
f 83/83/83 82/82/82 81/81/81
f 84/84/84 83/83/83 81/81/81
f 84/84/84 81/81/81 85/85/85
f 86/86/86 84/84/84 85/85/85
f 86/86/86 85/85/85 87/87/87
f 88/88/88 86/86/86 87/87/87
f 91/91/91 90/90/90 89/89/89
f 92/92/92 91/91/91 89/89/89
f 92/92/92 93/93/93 91/91/91
f 93/93/93 94/94/94 91/91/91
f 95/95/95 94/94/94 93/93/93
f 96/96/96 95/95/95 93/93/93
f 99/99/99 98/98/98 97/97/97
f 100/100/100 99/99/99 97/97/97
f 100/100/100 97/97/97 101/101/101
f 102/102/102 100/100/100 101/101/101
f 102/102/102 101/101/101 103/103/103
f 104/104/104 102/102/102 103/103/103
f 107/107/107 106/106/106 105/105/105
f 108/108/108 107/107/107 105/105/105
f 107/107/107 108/108/108 109/109/109
f 110/110/110 107/107/107 109/109/109
f 111/111/111 110/110/110 109/109/109
f 112/112/112 111/111/111 109/109/109
f 115/115/115 114/114/114 113/113/113
f 116/116/116 115/115/115 113/113/113
f 116/116/116 113/113/113 117/117/117
f 118/118/118 116/116/116 117/117/117
f 118/118/118 117/117/117 119/119/119
f 120/120/120 118/118/118 119/119/119
f 123/123/123 122/122/122 121/121/121
f 124/124/124 123/123/123 121/121/121
f 124/124/124 125/125/125 123/123/123
f 125/125/125 126/126/126 123/123/123
f 127/127/127 126/126/126 125/125/125
f 128/128/128 127/127/127 125/125/125
f 131/131/131 130/130/130 129/129/129
f 130/130/130 132/132/132 129/129/129
f 132/132/132 130/130/130 133/133/133
f 129/129/129 132/132/132 134/134/134
f 135/135/135 129/129/129 134/134/134
f 135/135/135 134/134/134 136/136/136
f 134/134/134 137/137/137 136/136/136
f 138/138/138 132/132/132 133/133/133
f 132/132/132 138/138/138 134/134/134
f 133/133/133 139/139/139 138/138/138
f 139/139/139 140/140/140 138/138/138
f 138/138/138 140/140/140 141/141/141
f 137/137/137 134/134/134 142/142/142
f 138/138/138 142/142/142 134/134/134
f 142/142/142 138/138/138 141/141/141
f 143/143/143 137/137/137 142/142/142
f 142/142/142 141/141/141 143/143/143
f 141/141/141 144/144/144 143/143/143
f 147/147/147 146/146/146 145/145/145
f 146/146/146 148/148/148 145/145/145
f 148/148/148 146/146/146 149/149/149
f 145/145/145 148/148/148 150/150/150
f 151/151/151 145/145/145 150/150/150
f 151/151/151 150/150/150 152/152/152
f 150/150/150 153/153/153 152/152/152
f 154/154/154 148/148/148 149/149/149
f 148/148/148 154/154/154 150/150/150
f 149/149/149 155/155/155 154/154/154
f 155/155/155 156/156/156 154/154/154
f 156/156/156 157/157/157 154/154/154
f 150/150/150 158/158/158 153/153/153
f 154/154/154 158/158/158 150/150/150
f 157/157/157 158/158/158 154/154/154
f 158/158/158 159/159/159 153/153/153
f 158/158/158 157/157/157 159/159/159
f 157/157/157 160/160/160 159/159/159
f 163/163/163 162/162/162 161/161/161
f 164/164/164 163/163/163 161/161/161
f 162/162/162 163/163/163 165/165/165
f 164/164/164 161/161/161 166/166/166
f 167/167/167 162/162/162 165/165/165
f 168/168/168 164/164/164 166/166/166
f 165/165/165 169/169/169 167/167/167
f 168/168/168 166/166/166 170/170/170
f 169/169/169 171/171/171 167/167/167
f 172/172/172 168/168/168 170/170/170
f 169/169/169 173/173/173 171/171/171
f 172/172/172 170/170/170 174/174/174
f 173/173/173 175/175/175 171/171/171
f 176/176/176 172/172/172 174/174/174
f 173/173/173 177/177/177 175/175/175
f 176/176/176 174/174/174 178/178/178
f 177/177/177 179/179/179 175/175/175
f 180/180/180 176/176/176 178/178/178
f 177/177/177 181/181/181 179/179/179
f 180/180/180 178/178/178 182/182/182
f 181/181/181 183/183/183 179/179/179
f 184/184/184 180/180/180 182/182/182
f 181/181/181 184/184/184 183/183/183
f 184/184/184 182/182/182 183/183/183

