mtllib Drawer_8f754799.mtl
v -0.15999 0.055 0.02
v -0.158 0.053 0.022
v -0.158 -0.033 0.022
v -0.15999 0.055 0.02
v -0.158 -0.033 0.022
v -0.15999 -0.035 0.02
v -0.15999 -0.035 0
v 0.20001 -0.035 0
v 0.20001 0.055 0
v -0.15999 0.055 0
v -0.15999 -0.035 0.02
v -0.15999 -0.035 0
v -0.15999 0.055 0
v -0.15999 0.055 0.02
v -0.15999 0.055 0.02
v -0.15999 0.055 0
v 0.20001 0.055 0
v 0.2 0.055 0.02
v 0.2 0.055 0.02
v 0.20001 0.055 0
v 0.20001 -0.035 0
v 0.2 -0.035 0.02
v 0.2 -0.035 0.02
v 0.20001 -0.035 0
v -0.15999 -0.035 0
v -0.15999 -0.035 0.02
v -0.158 -0.033 0.022
v -0.158 0.053 0.022
v 0.19801 0.05301 0.022
v 0.19801 -0.03299 0.022
v -0.15999 -0.035 0.02
v -0.158 -0.033 0.022
v 0.19801 -0.03299 0.022
v 0.2 -0.035 0.02
v 0.2 -0.035 0.02
v 0.19801 -0.03299 0.022
v 0.19801 0.05301 0.022
v 0.2 0.055 0.02
v 0.2 0.055 0.02
v 0.19801 0.05301 0.022
v -0.158 0.053 0.022
v -0.15999 0.055 0.02
v -0.15004 -0.0318 -0.392
v 0.19006 -0.03179 -0.39199
v 0.19006 0.05181 -0.39199
v -0.15004 0.05181 -0.392
v -0.1358 -0.0147 -0.00199
v -0.13579 -0.0147 -0.377
v 0.17581 -0.0147 -0.37699
v 0.17581 -0.0147 -0.00199
v 0.19005 -0.03179 0.01301
v 0.19005 0.05181 0.01301
v 0.19006 0.05181 -0.39199
v 0.19006 -0.03179 -0.39199
v -0.15004 -0.0318 -0.392
v -0.15004 -0.0318 0.01301
v 0.19005 -0.03179 0.01301
v 0.19006 -0.03179 -0.39199
v -0.15004 -0.0318 0.01301
v -0.15004 -0.0318 -0.392
v -0.15004 0.05181 -0.392
v -0.15004 0.05181 0.01301
v -0.1358 0.05181 -0.00199
v -0.1358 -0.0147 -0.00199
v 0.17581 -0.0147 -0.00199
v 0.17581 0.05181 -0.00199
v 0.17581 0.05181 -0.00199
v 0.17581 -0.0147 -0.00199
v 0.17581 -0.0147 -0.37699
v 0.17581 0.05181 -0.37699
v 0.17581 0.05181 -0.37699
v 0.17581 -0.0147 -0.37699
v -0.13579 -0.0147 -0.377
v -0.13579 0.05181 -0.377
v -0.13579 0.05181 -0.377
v -0.13579 -0.0147 -0.377
v -0.1358 -0.0147 -0.00199
v -0.1358 0.05181 -0.00199
v 0.19006 0.05181 -0.39199
v 0.17581 0.05181 -0.37699
v -0.13579 0.05181 -0.377
v -0.15004 0.05181 -0.392
v 0.19005 0.05181 0.01301
v -0.1358 0.05181 -0.00199
v 0.17581 0.05181 -0.00199
v -0.15004 0.05181 0.01301
vt 0.1414347 0.01884157
vt 0.1434712 0.02087802
vt 0.2310434 0.02087802
vt 0.1414347 0.01884157
vt 0.2310434 0.02087802
vt 0.2330799 0.01884157
vt 0.1965657 0.4485346
vt 0.5565658 0.4485345
vt 0.5565658 0.3585346
vt 0.1965657 0.3585346
vt 0.2330799 0.01884157
vt 0.2330799 -0.001524096
vt 0.1414347 -0.001524096
vt 0.1414347 0.01884157
vt 0.1932246 0.488488
vt 0.1932246 0.5088593
vt 0.5599067 0.5088593
vt 0.5599065 0.4884881
vt 0.1414347 0.02994144
vt 0.1414347 0.0503071
vt 0.2330799 0.05030716
vt 0.2330799 0.0299415
vt 0.5599067 0.4776012
vt 0.5599068 0.4572299
vt 0.1932247 0.4572299
vt 0.1932247 0.4776012
vt 0.2006646 0.2620555
vt 0.2006646 0.3480555
vt 0.5566645 0.3480555
vt 0.5566645 0.2620555
vt 0.1932247 0.4776012
vt 0.1952619 0.4796382
vt 0.5578697 0.4796382
vt 0.5599067 0.4776012
vt 0.2330799 0.0299415
vt 0.2310434 0.02790504
vt 0.1434712 0.02790504
vt 0.1414347 0.02994144
vt 0.5599065 0.4884881
vt 0.5578695 0.4864511
vt 0.1952618 0.486451
vt 0.1932246 0.488488
vt 0.2169569 0.2517344
vt 0.5570569 0.2517343
vt 0.557057 0.1681343
vt 0.2169569 0.1681344
vt 0.5561955 0.6748596
vt 0.1811954 0.6748596
vt 0.1811954 0.9864596
vt 0.5561955 0.9864594
vt 0.5794377 0.824799
vt 0.5794379 0.9083989
vt 0.9844377 0.9083989
vt 0.9844377 0.8247989
vt 0.9844378 0.00652793
vt 0.5794376 0.006527796
vt 0.5794376 0.3466278
vt 0.9844374 0.346628
vt 0.9844376 0.3648463
vt 0.5794376 0.3648463
vt 0.5794376 0.4484463
vt 0.9844377 0.4484463
vt 0.2461602 0.09179436
vt 0.2461602 0.1582944
vt 0.5577602 0.1582943
vt 0.5577602 0.09179427
vt 0.5561956 0.5834746
vt 0.5561956 0.5169746
vt 0.1811954 0.5169746
vt 0.1811954 0.5834745
vt 0.5577603 0.08237648
vt 0.5577604 0.01587641
vt 0.2461603 0.01587623
vt 0.2461603 0.08237636
vt 0.5561954 0.6593925
vt 0.5561953 0.5928925
vt 0.1811955 0.5928925
vt 0.1811956 0.6593925
vt 0.5794373 0.8067759
vt 0.5944374 0.7925259
vt 0.5944372 0.4809252
vt 0.5794371 0.4666751
vt 0.9844381 0.8067758
vt 0.9694383 0.4809251
vt 0.9694383 0.7925258
vt 0.9844381 0.466675
vn -0.7070618 0 0.7071517
vn -0.7070597 0 0.7071539
vn -0.7071194 0 0.7070941
vn -0.7070618 0 0.7071517
vn -0.7071194 0 0.7070941
vn -0.7071202 0 0.7070932
vn 0 0 -1
vn 1.883801E-07 0 -1
vn 1.590007E-07 0 -1
vn 0 0 -1
vn -1 0 0
vn -1 0 0
vn -1 0 0
vn -1 0 0
vn -2.119276E-07 1 0
vn -2.119276E-07 1 0
vn -2.119277E-07 1 0
vn -2.119277E-07 1 0
vn 1 0 1.907349E-06
vn 1 0 1.907349E-06
vn 1 0 1.907349E-06
vn 1 0 1.907349E-06
vn 2.119276E-07 -1 1.43108E-06
vn 2.119277E-07 -1 1.483494E-06
vn 2.119276E-07 -1 0
vn 2.119276E-07 -1 0
vn -5.567659E-07 0 1
vn -7.974278E-07 0 1
vn 5.567659E-07 0 1
vn 7.974278E-07 0 1
vn 3.756817E-07 -0.7071012 0.7071123
vn 3.788509E-07 -0.7071012 0.7071123
vn 0 -0.7070918 0.7071217
vn 0 -0.7070917 0.7071217
vn 0.7070816 0 0.707132
vn 0.7070801 0 0.7071334
vn 0.7071212 0 0.7070923
vn 0.7071218 0 0.7070917
vn 0 0.7071292 0.7070844
vn 0 0.7071295 0.7070841
vn -3.732959E-07 0.7070919 0.7071216
vn -3.746364E-07 0.7070918 0.7071217
vn 1.054072E-07 0 -1
vn 6.869375E-07 0 -1
vn 5.815301E-07 0 -1
vn 0 0 -1
vn -2.448458E-07 1 0
vn -2.448459E-07 1 0
vn -2.448458E-07 1 0
vn -2.448457E-07 1 0
vn 1 0 2.825705E-07
vn 1 0 2.825705E-07
vn 1 0 2.825703E-07
vn 1 0 2.825703E-07
vn 2.24328E-07 -1 1.241655E-07
vn 2.243281E-07 -1 2.79219E-07
vn 2.24328E-07 -1 1.550536E-07
vn 2.24328E-07 -1 0
vn -1 0 -2.472489E-07
vn -1 0 -2.472489E-07
vn -1 0 -2.472489E-07
vn -1 0 -2.472489E-07
vn 0 0 -1
vn 0 0 -1
vn 0 0 -1
vn 0 0 -1
vn -1 0 -3.051758E-07
vn -1 0 -3.051757E-07
vn -1 0 -3.051763E-07
vn -1 0 -3.051763E-07
vn 0 0 1
vn 0 0 1
vn 0 0 1
vn 0 0 1
vn 1 0 2.415975E-07
vn 1 0 2.415975E-07
vn 1 0 2.415977E-07
vn 1 0 2.415977E-07
vn -1.132557E-07 1 -1.139544E-06
vn -1.083153E-07 1 -1.155364E-06
vn -1.0843E-07 1 0
vn -1.130095E-07 1 0
vn -1.130098E-07 1 0
vn -1.083155E-07 1 -2.02189E-06
vn -1.084303E-07 1 0
vn -1.132557E-07 1 -1.994196E-06
usemtl WhiteWoodClean
f 3/3/3 2/2/2 1/1/1
f 6/6/6 5/5/5 4/4/4
f 9/9/9 8/8/8 7/7/7
f 10/10/10 9/9/9 7/7/7
f 13/13/13 12/12/12 11/11/11
f 14/14/14 13/13/13 11/11/11
f 17/17/17 16/16/16 15/15/15
f 18/18/18 17/17/17 15/15/15
f 21/21/21 20/20/20 19/19/19
f 22/22/22 21/21/21 19/19/19
f 25/25/25 24/24/24 23/23/23
f 26/26/26 25/25/25 23/23/23
f 29/29/29 28/28/28 27/27/27
f 30/30/30 29/29/29 27/27/27
f 33/33/33 32/32/32 31/31/31
f 34/34/34 33/33/33 31/31/31
f 37/37/37 36/36/36 35/35/35
f 38/38/38 37/37/37 35/35/35
f 41/41/41 40/40/40 39/39/39
f 42/42/42 41/41/41 39/39/39
f 45/45/45 44/44/44 43/43/43
f 46/46/46 45/45/45 43/43/43
f 49/49/49 48/48/48 47/47/47
f 50/50/50 49/49/49 47/47/47
f 53/53/53 52/52/52 51/51/51
f 54/54/54 53/53/53 51/51/51
f 57/57/57 56/56/56 55/55/55
f 58/58/58 57/57/57 55/55/55
f 61/61/61 60/60/60 59/59/59
f 62/62/62 61/61/61 59/59/59
f 65/65/65 64/64/64 63/63/63
f 66/66/66 65/65/65 63/63/63
f 69/69/69 68/68/68 67/67/67
f 70/70/70 69/69/69 67/67/67
f 73/73/73 72/72/72 71/71/71
f 74/74/74 73/73/73 71/71/71
f 77/77/77 76/76/76 75/75/75
f 78/78/78 77/77/77 75/75/75
f 81/81/81 80/80/80 79/79/79
f 82/82/82 81/81/81 79/79/79
f 79/79/79 80/80/80 83/83/83
f 84/84/84 81/81/81 82/82/82
f 80/80/80 85/85/85 83/83/83
f 86/86/86 84/84/84 82/82/82
f 83/83/83 85/85/85 86/86/86
f 85/85/85 84/84/84 86/86/86
