mtllib material.mtl
usemtl material_0
v -0.29999000 0.21000000 0.02000000
v -0.29799000 0.20800000 0.02200000
v -0.29799000 -0.09799000 0.02200000
v -0.29999000 -0.09999000 0.02000000
v -0.29999000 -0.09999000 0.00000000
v 0.10000000 -0.09999000 0.00000000
v 0.10000000 0.21000000 0.00000000
v -0.29999000 0.21000000 0.00000000
v -0.29999000 -0.09999000 0.02000000
v -0.29999000 -0.09999000 0.00000000
v -0.29999000 0.21000000 0.00000000
v -0.29999000 0.21000000 0.02000000
v -0.29999000 0.21000000 0.02000000
v -0.29999000 0.21000000 0.00000000
v 0.10000000 0.21000000 0.00000000
v 0.10000000 0.21000000 0.02000000
v 0.10000000 0.21000000 0.02000000
v 0.10000000 0.21000000 0.00000000
v 0.10000000 -0.09999000 0.00000000
v 0.10000000 -0.09999000 0.02000000
v 0.10000000 -0.09999000 0.02000000
v 0.10000000 -0.09999000 0.00000000
v -0.29999000 -0.09999000 0.00000000
v -0.29999000 -0.09999000 0.02000000
v -0.29799000 -0.09799000 0.02200000
v -0.29799000 0.20800000 0.02200000
v 0.09800000 0.20800000 0.02200000
v 0.09800000 -0.09799000 0.02200000
v -0.29999000 -0.09999000 0.02000000
v -0.29799000 -0.09799000 0.02200000
v 0.09800000 -0.09799000 0.02200000
v 0.10000000 -0.09999000 0.02000000
v 0.10000000 -0.09999000 0.02000000
v 0.09800000 -0.09799000 0.02200000
v 0.09800000 0.20800000 0.02200000
v 0.10000000 0.21000000 0.02000000
v 0.10000000 0.21000000 0.02000000
v 0.09800000 0.20800000 0.02200000
v -0.29799000 0.20800000 0.02200000
v -0.29999000 0.21000000 0.02000000
v -0.28904000 -0.09130000 -0.39199000
v 0.08905000 -0.09130000 -0.39199000
v 0.08905000 0.20131000 -0.39199000
v -0.28904000 0.20131000 -0.39199000
v 0.08906000 0.20131000 0.01301000
v 0.08905000 0.20131000 -0.39199000
v 0.08905000 -0.09130000 -0.39199000
v 0.08906000 -0.09130000 0.01301000
v -0.27479000 -0.06089000 -0.00199000
v -0.27479000 -0.06089000 -0.37699000
v 0.07480000 -0.06089000 -0.37699000
v 0.07480000 -0.06089000 -0.00199000
v -0.28904000 -0.09130000 0.01301000
v -0.28904000 -0.09130000 -0.39199000
v -0.28904000 0.20131000 -0.39199000
v -0.28904000 0.20131000 0.01301000
v 0.08906000 -0.09130000 0.01301000
v 0.08905000 -0.09130000 -0.39199000
v -0.28904000 -0.09130000 -0.39199000
v -0.28904000 -0.09130000 0.01301000
v 0.07480000 0.20131000 -0.37699000
v 0.07480000 -0.06089000 -0.37699000
v -0.27479000 -0.06089000 -0.37699000
v -0.27479000 0.20131000 -0.37699000
v -0.27479000 0.20131000 -0.37699000
v -0.27479000 -0.06089000 -0.37699000
v -0.27479000 -0.06089000 -0.00199000
v -0.27479000 0.20131000 -0.00199000
v -0.27479000 0.20131000 -0.00199000
v -0.27479000 -0.06089000 -0.00199000
v 0.07480000 -0.06089000 -0.00199000
v 0.07480000 0.20131000 -0.00199000
v 0.07480000 0.20131000 -0.00199000
v 0.07480000 -0.06089000 -0.00199000
v 0.07480000 -0.06089000 -0.37699000
v 0.07480000 0.20131000 -0.37699000
v 0.08905000 0.20131000 -0.39199000
v 0.07480000 0.20131000 -0.37699000
v -0.27479000 0.20131000 -0.37699000
v -0.28904000 0.20131000 -0.39199000
v 0.08906000 0.20131000 0.01301000
v -0.27479000 0.20131000 -0.00199000
v 0.07480000 0.20131000 -0.00199000
v -0.28904000 0.20131000 0.01301000
vn -0.70708100 0.00000000 0.70713250
vn -0.70708050 0.00000000 0.70713300
vn -0.70712310 0.00000000 0.70709040
vn -0.70712330 0.00000000 0.70709030
vn 0.00000000 0.00000000 -1.00000000
vn 0.00000000 0.00000000 -1.00000000
vn 0.00000000 0.00000000 -1.00000000
vn 0.00000000 0.00000000 -1.00000000
vn -1.00000000 0.00000000 0.00000000
vn -1.00000000 0.00000000 0.00000000
vn -1.00000000 0.00000000 0.00000000
vn -1.00000000 0.00000000 0.00000000
vn 0.00000000 1.00000000 0.00000000
vn 0.00000000 1.00000000 0.00000000
vn 0.00000000 1.00000000 0.00000000
vn 0.00000000 1.00000000 0.00000000
vn 1.00000000 0.00000000 0.00000037
vn 1.00000000 0.00000000 0.00000037
vn 1.00000000 0.00000000 0.00000037
vn 1.00000000 0.00000000 0.00000037
vn 0.00000000 -1.00000000 0.00000098
vn 0.00000000 -1.00000000 0.00000098
vn 0.00000000 -1.00000000 0.00000077
vn 0.00000000 -1.00000000 0.00000076
vn 0.00000034 0.00000000 1.00000000
vn 0.00000000 0.00000000 1.00000000
vn 0.00000047 0.00000000 1.00000000
vn 0.00000081 0.00000000 1.00000000
vn 0.00000000 -0.70710910 0.70710440
vn 0.00000000 -0.70710920 0.70710430
vn 0.00000000 -0.70709570 0.70711780
vn 0.00000000 -0.70709570 0.70711780
vn 0.70709650 0.00000000 0.70711710
vn 0.70709670 0.00000000 0.70711680
vn 0.70706680 0.00000000 0.70714660
vn 0.70706670 0.00000000 0.70714680
vn 0.00000000 0.70709880 0.70711470
vn 0.00000000 0.70709880 0.70711470
vn 0.00000000 0.70710120 0.70711230
vn 0.00000000 0.70710120 0.70711240
vn 0.00000000 0.00000000 -1.00000000
vn 0.00000000 0.00000000 -1.00000000
vn 0.00000000 0.00000000 -1.00000000
vn 0.00000000 0.00000000 -1.00000000
vn 1.00000000 0.00000000 0.00000000
vn 1.00000000 0.00000000 0.00000000
vn 1.00000000 0.00000000 0.00000000
vn 1.00000000 0.00000000 0.00000000
vn 0.00000000 0.81953980 -0.57302220
vn 0.00000000 1.00000000 0.00000000
vn 0.00000000 1.00000000 0.00000000
vn 0.00000000 0.81953980 -0.57302230
vn -1.00000000 0.00000000 0.00000000
vn -1.00000000 0.00000000 0.00000000
vn -1.00000000 0.00000000 0.00000000
vn -1.00000000 0.00000000 0.00000000
vn 0.00000000 -1.00000000 0.00000000
vn 0.00000000 -1.00000000 0.00000000
vn 0.00000000 -1.00000000 0.00000000
vn 0.00000000 -1.00000000 0.00000000
vn 0.00000000 0.00000000 1.00000000
vn 0.00000000 0.00000000 1.00000000
vn 0.00000000 0.00000000 1.00000000
vn 0.00000000 0.00000000 1.00000000
vn 1.00000000 0.00000000 0.00000000
vn 1.00000000 0.00000000 0.00000000
vn 1.00000000 0.00000000 0.00000000
vn 1.00000000 0.00000000 0.00000000
vn 0.00000000 0.00000000 -1.00000000
vn 0.00000000 0.81953980 -0.57302220
vn 0.00000000 0.81953980 -0.57302230
vn 0.00000000 0.00000000 -1.00000000
vn -1.00000000 0.00000000 0.00000000
vn -1.00000000 0.00000000 0.00000000
vn -1.00000000 0.00000000 0.00000000
vn -1.00000000 0.00000000 0.00000000
vn 0.00000000 1.00000000 -0.00000075
vn 0.00000000 1.00000000 -0.00000075
vn 0.00000000 1.00000000 0.00000000
vn 0.00000000 1.00000000 0.00000000
vn 0.00000000 1.00000000 0.00000228
vn 0.00000000 1.00000000 -0.00000034
vn 0.00000000 1.00000000 -0.00000073
vn 0.00000000 1.00000000 -0.00000035
vt -0.02883914 0.75093530
vt -0.02680209 0.75297240
vt 0.28487220 0.75297250
vt 0.28690930 0.75093530
vt 0.40484400 0.86459670
vt 0.80484380 0.86459680
vt 0.80484380 0.55459670
vt 0.40484400 0.55459670
vt 0.28690930 0.75093530
vt 0.28690930 0.73056440
vt -0.02883914 0.73056440
vt -0.02883914 0.75093530
vt 0.40113020 0.83194530
vt 0.40113020 0.85231660
vt 0.80855770 0.85231670
vt 0.80855770 0.83194540
vt -0.02883960 0.71308070
vt -0.02883960 0.73345160
vt 0.28690970 0.73345160
vt 0.28690970 0.71308070
vt 0.80855800 0.83075880
vt 0.80855800 0.81038740
vt 0.40112990 0.81038730
vt 0.40112990 0.83075870
vt 0.40812850 0.35341210
vt 0.40812850 0.65941210
vt 0.80412820 0.65941220
vt 0.80412820 0.35341220
vt 0.40112990 0.83075870
vt 0.40316700 0.83279590
vt 0.80652080 0.83279590
vt 0.80855800 0.83075880
vt 0.28690970 0.71308070
vt 0.28487260 0.71104370
vt -0.02680239 0.71104370
vt -0.02883960 0.71308070
vt 0.80855770 0.83194540
vt 0.80652060 0.82990820
vt 0.40316730 0.82990810
vt 0.40113020 0.83194530
vt 0.61390880 0.70119920
vt 0.61390880 0.32309940
vt 0.32130880 0.32309940
vt 0.32130880 0.70119920
vt 0.27286990 0.37713990
vt 0.27286990 -0.02786005
vt -0.01973017 -0.02786005
vt -0.01973017 0.37713990
vt 0.01338696 0.32332790
vt 0.01338696 0.69832780
vt 0.36298670 0.69832780
vt 0.36298670 0.32332790
vt 0.23566900 -0.02786005
vt 0.23566900 0.37713990
vt 0.52826910 0.37713990
vt 0.52826910 -0.02786005
vt 0.86268590 0.37713990
vt 0.86268590 -0.02786005
vt 0.48458610 -0.02786005
vt 0.48458610 0.37713990
vt 0.70500400 0.67417680
vt 0.44280400 0.67417680
vt 0.44280400 1.02377700
vt 0.70500400 1.02377700
vt 0.24471050 0.64672700
vt -0.01748949 0.64672700
vt -0.01748949 1.02172700
vt 0.24471050 1.02172700
vt 0.67286090 1.02377700
vt 0.93506090 1.02377700
vt 0.93506090 0.67417680
vt 0.67286090 0.67417680
vt 0.47494720 0.64937000
vt 0.21274720 0.64937000
vt 0.21274720 1.02437000
vt 0.47494720 1.02437000
vt 0.94823030 0.72611700
vt 0.93398020 0.71111690
vt 0.58438010 0.71111690
vt 0.57013010 0.72611700
vt 0.94823030 0.32111640
vt 0.58438010 0.33611640
vt 0.93398020 0.33611640
vt 0.57013010 0.32111640
f 3/3/3 2/2/2 1/1/1
f 4/4/4 3/3/3 1/1/1
f 7/7/7 6/6/6 5/5/5
f 8/8/8 7/7/7 5/5/5
f 11/11/11 10/10/10 9/9/9
f 12/12/12 11/11/11 9/9/9
f 15/15/15 14/14/14 13/13/13
f 16/16/16 15/15/15 13/13/13
f 19/19/19 18/18/18 17/17/17
f 20/20/20 19/19/19 17/17/17
f 23/23/23 22/22/22 21/21/21
f 24/24/24 23/23/23 21/21/21
f 27/27/27 26/26/26 25/25/25
f 28/28/28 27/27/27 25/25/25
f 31/31/31 30/30/30 29/29/29
f 32/32/32 31/31/31 29/29/29
f 35/35/35 34/34/34 33/33/33
f 36/36/36 35/35/35 33/33/33
f 39/39/39 38/38/38 37/37/37
f 40/40/40 39/39/39 37/37/37
f 43/43/43 42/42/42 41/41/41
f 44/44/44 43/43/43 41/41/41
f 47/47/47 46/46/46 45/45/45
f 48/48/48 47/47/47 45/45/45
f 51/51/51 50/50/50 49/49/49
f 49/49/49 52/52/52 51/51/51
f 55/55/55 54/54/54 53/53/53
f 56/56/56 55/55/55 53/53/53
f 59/59/59 58/58/58 57/57/57
f 57/57/57 60/60/60 59/59/59
f 63/63/63 62/62/62 61/61/61
f 64/64/64 63/63/63 61/61/61
f 67/67/67 66/66/66 65/65/65
f 68/68/68 67/67/67 65/65/65
f 71/71/71 70/70/70 69/69/69
f 72/72/72 71/71/71 69/69/69
f 75/75/75 74/74/74 73/73/73
f 76/76/76 75/75/75 73/73/73
f 79/79/79 78/78/78 77/77/77
f 80/80/80 79/79/79 77/77/77
f 77/77/77 78/78/78 81/81/81
f 82/82/82 79/79/79 80/80/80
f 78/78/78 83/83/83 81/81/81
f 84/84/84 82/82/82 80/80/80
f 81/81/81 83/83/83 84/84/84
f 83/83/83 82/82/82 84/84/84

