# Blender 3.6.0
# www.blender.org
o StandardKnob1_382240c9_StandardKnob1_382240c9
v 0.588410 0.894800 2.538850
v 0.596350 0.891740 2.543570
v 0.595950 0.895620 2.539370
v 0.588410 0.890460 2.553900
v 0.595950 0.895620 2.557840
v 0.596350 0.891740 2.553640
v 0.596750 0.890460 2.548600
v 0.596350 0.891740 2.553640
v 0.602970 0.895620 2.553390
v 0.603800 0.894800 2.548600
v 0.596350 0.902110 2.536870
v 0.595950 0.895620 2.539370
v 0.600880 0.897660 2.540700
v 0.602970 0.902500 2.539370
v 0.600880 0.897660 2.540700
v 0.602970 0.895620 2.543820
v 0.606920 0.902110 2.543570
v 0.602970 0.917310 2.557840
v 0.596750 0.909900 2.561170
v 0.596350 0.917700 2.560340
v 0.569890 0.902110 2.553640
v 0.573840 0.895620 2.553390
v 0.573010 0.894800 2.548600
v 0.568590 0.901710 2.548600
v 0.569890 0.917700 2.543570
v 0.568590 0.909910 2.543310
v 0.573010 0.909900 2.538850
v 0.573840 0.917310 2.539370
v 0.573840 0.902500 2.539370
v 0.569890 0.902110 2.543570
v 0.575930 0.897660 2.540700
v 0.573840 0.895620 2.543820
v 0.568590 0.901710 2.548600
v 0.573010 0.894800 2.548600
v 0.573840 0.895620 2.543820
v 0.569890 0.902110 2.543570
v 0.602970 0.924190 2.553390
v 0.606920 0.917700 2.553640
v 0.602970 0.917310 2.557840
v 0.600880 0.922150 2.556510
v 0.595950 0.924190 2.557840
v 0.596350 0.917700 2.560340
v 0.588410 0.918100 2.561170
v 0.588410 0.925010 2.558360
v 0.596750 0.929350 2.548600
v 0.603800 0.925010 2.548600
v 0.602970 0.924190 2.553390
v 0.596350 0.928070 2.553640
v 0.588410 0.892200 2.440850
v 0.596350 0.889140 2.445570
v 0.595950 0.893020 2.441370
v 0.588410 0.887860 2.455900
v 0.595950 0.893020 2.459840
v 0.596350 0.889140 2.455640
v 0.596750 0.887860 2.450600
v 0.596350 0.889140 2.455640
v 0.602970 0.893020 2.455390
v 0.603800 0.892200 2.450600
v 0.596350 0.899510 2.438870
v 0.595950 0.893020 2.441370
v 0.600880 0.895060 2.442700
v 0.602970 0.899900 2.441370
v 0.600880 0.895060 2.442700
v 0.602970 0.893020 2.445820
v 0.606920 0.899510 2.445570
v 0.602970 0.914710 2.459840
v 0.596750 0.907300 2.463170
v 0.596350 0.915100 2.462340
v 0.569890 0.899510 2.455640
v 0.573840 0.893020 2.455390
v 0.573010 0.892200 2.450600
v 0.568590 0.899110 2.450600
v 0.569890 0.915100 2.445570
v 0.568590 0.907300 2.445310
v 0.573010 0.907300 2.440850
v 0.573840 0.914710 2.441370
v 0.573840 0.899900 2.441370
v 0.569890 0.899510 2.445570
v 0.575930 0.895060 2.442700
v 0.573840 0.893020 2.445820
v 0.568590 0.899110 2.450600
v 0.573010 0.892200 2.450600
v 0.573840 0.893020 2.445820
v 0.569890 0.899510 2.445570
v 0.602970 0.921590 2.455390
v 0.606920 0.915100 2.455640
v 0.602970 0.914710 2.459840
v 0.600880 0.919550 2.458510
v 0.595950 0.921590 2.459840
v 0.596350 0.915100 2.462340
v 0.588410 0.915500 2.463170
v 0.588410 0.922410 2.460360
v 0.596750 0.926750 2.450600
v 0.603800 0.922410 2.450600
v 0.602970 0.921590 2.455390
v 0.596350 0.925470 2.455640
v 0.599750 0.902920 2.459000
v 0.600700 0.907710 2.459000
v 0.599750 0.912490 2.459000
v 0.597040 0.898870 2.459000
v 0.597040 0.916540 2.459000
v 0.592990 0.896160 2.459000
v 0.592990 0.919250 2.459000
v 0.588200 0.895210 2.459000
v 0.588200 0.920210 2.459000
v 0.583420 0.896160 2.459000
v 0.583420 0.919250 2.459000
v 0.579370 0.898870 2.459000
v 0.579370 0.916540 2.459000
v 0.576660 0.902920 2.459000
v 0.576660 0.912490 2.459000
v 0.575700 0.907710 2.459000
v 0.575700 0.907710 2.542010
v 0.576660 0.902920 2.542010
v 0.576660 0.902920 2.459000
v 0.575700 0.907710 2.459000
v 0.576660 0.902920 2.542010
v 0.579370 0.898870 2.542010
v 0.579370 0.898870 2.459000
v 0.576660 0.902920 2.459000
v 0.579370 0.898870 2.542010
v 0.583420 0.896160 2.542010
v 0.583420 0.896160 2.459000
v 0.579370 0.898870 2.459000
v 0.583420 0.896160 2.542010
v 0.588200 0.895210 2.542010
v 0.588200 0.895210 2.459000
v 0.583420 0.896160 2.459000
v 0.588200 0.895210 2.542010
v 0.592990 0.896160 2.542010
v 0.592990 0.896160 2.459000
v 0.588200 0.895210 2.459000
v 0.592990 0.896160 2.542010
v 0.597040 0.898870 2.542010
v 0.597040 0.898870 2.459000
v 0.592990 0.896160 2.459000
v 0.597040 0.898870 2.542010
v 0.599750 0.902920 2.542010
v 0.599750 0.902920 2.459000
v 0.597040 0.898870 2.459000
v 0.599750 0.902920 2.542010
v 0.600700 0.907710 2.542010
v 0.600700 0.907710 2.459000
v 0.599750 0.902920 2.459000
v 0.600700 0.907710 2.542010
v 0.599750 0.912490 2.542010
v 0.599750 0.912490 2.459000
v 0.600700 0.907710 2.459000
v 0.599750 0.912490 2.542010
v 0.597040 0.916540 2.542010
v 0.597040 0.916540 2.459000
v 0.599750 0.912490 2.459000
v 0.597040 0.916540 2.542010
v 0.592990 0.919250 2.542010
v 0.592990 0.919250 2.459000
v 0.597040 0.916540 2.459000
v 0.592990 0.919250 2.542010
v 0.588200 0.920210 2.542010
v 0.588200 0.920210 2.459000
v 0.592990 0.919250 2.459000
v 0.588200 0.920210 2.542010
v 0.583420 0.919250 2.542010
v 0.583420 0.919250 2.459000
v 0.588200 0.920210 2.459000
v 0.583420 0.919250 2.542010
v 0.579370 0.916540 2.542010
v 0.579370 0.916540 2.459000
v 0.583420 0.919250 2.459000
v 0.579370 0.916540 2.542010
v 0.576660 0.912490 2.542010
v 0.576660 0.912490 2.459000
v 0.579370 0.916540 2.459000
v 0.576660 0.912490 2.542010
v 0.575700 0.907710 2.542010
v 0.575700 0.907710 2.459000
v 0.576660 0.912490 2.459000
v 0.599750 0.912490 2.542010
v 0.600700 0.907710 2.542010
v 0.599750 0.902920 2.542010
v 0.597040 0.916540 2.542010
v 0.597040 0.898870 2.542010
v 0.592990 0.919250 2.542010
v 0.592990 0.896160 2.542010
v 0.588200 0.920210 2.542010
v 0.588200 0.895210 2.542010
v 0.583420 0.919250 2.542010
v 0.583420 0.896160 2.542010
v 0.579370 0.916540 2.542010
v 0.579370 0.898870 2.542010
v 0.576660 0.912490 2.542010
v 0.576660 0.902920 2.542010
v 0.575700 0.907710 2.542010
v 0.610460 0.811040 2.474000
v 0.611970 0.812540 2.474000
v 0.611970 0.963960 2.474000
v 0.610460 0.965470 2.474000
v 0.565550 0.811040 2.474000
v 0.565550 0.965470 2.474000
v 0.564040 0.812540 2.474000
v 0.564040 0.963960 2.474000
v 0.560510 0.806000 2.524610
v 0.615500 0.806000 2.524610
v 0.615500 0.806000 2.475810
v 0.560510 0.806000 2.475810
v 0.617000 0.807510 2.524610
v 0.617000 0.969010 2.524610
v 0.617000 0.969010 2.475810
v 0.617000 0.807510 2.475810
v 0.615500 0.970500 2.524610
v 0.560510 0.970500 2.524610
v 0.560510 0.970500 2.475810
v 0.615500 0.970500 2.475810
v 0.559010 0.969010 2.524610
v 0.559010 0.807510 2.524610
v 0.559010 0.807510 2.475810
v 0.559010 0.969010 2.475810
v 0.610460 0.965470 2.526400
v 0.611970 0.963960 2.526400
v 0.611970 0.812540 2.526400
v 0.610460 0.811040 2.526400
v 0.565550 0.965470 2.526400
v 0.565550 0.811040 2.526400
v 0.564040 0.963960 2.526400
v 0.564040 0.812540 2.526400
v 0.575930 0.897660 2.540700
v 0.573840 0.895620 2.543820
v 0.580460 0.891740 2.543570
v 0.580860 0.895620 2.539370
v 0.580860 0.895620 2.539370
v 0.580460 0.891740 2.543570
v 0.588410 0.890460 2.543310
v 0.580460 0.891740 2.543570
v 0.580060 0.890460 2.548600
v 0.588410 0.888930 2.548600
v 0.588410 0.890460 2.543310
v 0.573840 0.895620 2.543820
v 0.573010 0.894800 2.548600
v 0.580060 0.890460 2.548600
v 0.580460 0.891740 2.543570
v 0.595950 0.895620 2.539370
v 0.596350 0.891740 2.543570
v 0.602970 0.895620 2.543820
v 0.600880 0.897660 2.540700
v 0.596350 0.891740 2.543570
v 0.596750 0.890460 2.548600
v 0.603800 0.894800 2.548600
v 0.602970 0.895620 2.543820
v 0.588410 0.890460 2.543310
v 0.588410 0.888930 2.548600
v 0.596750 0.890460 2.548600
v 0.596350 0.891740 2.543570
v 0.573010 0.894800 2.548600
v 0.573840 0.895620 2.553390
v 0.580460 0.891740 2.553640
v 0.580060 0.890460 2.548600
v 0.580060 0.890460 2.548600
v 0.580460 0.891740 2.553640
v 0.588410 0.890460 2.553900
v 0.588410 0.888930 2.548600
v 0.573840 0.895620 2.553390
v 0.575930 0.897660 2.556510
v 0.580860 0.895620 2.557840
v 0.580460 0.891740 2.553640
v 0.588410 0.894800 2.558360
v 0.600880 0.897660 2.556510
v 0.602970 0.895620 2.553390
v 0.588410 0.888930 2.548600
v 0.588410 0.890460 2.553900
v 0.596350 0.891740 2.553640
v 0.596750 0.890460 2.548600
v 0.573840 0.902500 2.539370
v 0.575930 0.897660 2.540700
v 0.580860 0.895620 2.539370
v 0.580460 0.902110 2.536870
v 0.573010 0.909900 2.538850
v 0.580060 0.909900 2.536040
v 0.573840 0.917310 2.539370
v 0.580460 0.917700 2.536870
v 0.580060 0.909900 2.536040
v 0.580460 0.902110 2.536870
v 0.588410 0.901710 2.536040
v 0.588410 0.909900 2.535050
v 0.580460 0.902110 2.536870
v 0.580860 0.895620 2.539370
v 0.588410 0.894800 2.538850
v 0.588410 0.901710 2.536040
v 0.588410 0.909900 2.535050
v 0.588410 0.901710 2.536040
v 0.596350 0.902110 2.536870
v 0.596750 0.909900 2.536040
v 0.602970 0.902500 2.539370
v 0.596750 0.909900 2.536040
v 0.603800 0.909900 2.538850
v 0.596350 0.917700 2.536870
v 0.602970 0.917310 2.539370
v 0.588410 0.901710 2.536040
v 0.588410 0.894800 2.538850
v 0.595950 0.895620 2.539370
v 0.596350 0.902110 2.536870
v 0.603800 0.909900 2.538850
v 0.602970 0.902500 2.539370
v 0.606920 0.902110 2.543570
v 0.608220 0.909910 2.543310
v 0.602970 0.917310 2.539370
v 0.606920 0.917700 2.543570
v 0.608220 0.909910 2.543310
v 0.606920 0.902110 2.543570
v 0.608220 0.901710 2.548600
v 0.609780 0.909900 2.548600
v 0.606920 0.902110 2.543570
v 0.602970 0.895620 2.543820
v 0.603800 0.894800 2.548600
v 0.608220 0.901710 2.548600
v 0.609780 0.909900 2.548600
v 0.608220 0.901710 2.548600
v 0.606920 0.902110 2.553640
v 0.608220 0.909910 2.553900
v 0.606920 0.902110 2.553640
v 0.602970 0.895620 2.553390
v 0.600880 0.897660 2.556510
v 0.602970 0.902500 2.557840
v 0.608220 0.909910 2.553900
v 0.603800 0.909900 2.558360
v 0.606920 0.917700 2.553640
v 0.602970 0.917310 2.557840
v 0.608220 0.901710 2.548600
v 0.603800 0.894800 2.548600
v 0.602970 0.895620 2.553390
v 0.606920 0.902110 2.553640
v 0.602970 0.902500 2.557840
v 0.600880 0.897660 2.556510
v 0.595950 0.895620 2.557840
v 0.596350 0.902110 2.560340
v 0.603800 0.909900 2.558360
v 0.596750 0.909900 2.561170
v 0.596350 0.902110 2.560340
v 0.588410 0.901710 2.561170
v 0.588410 0.909900 2.562160
v 0.596350 0.902110 2.560340
v 0.595950 0.895620 2.557840
v 0.588410 0.894800 2.558360
v 0.588410 0.901710 2.561170
v 0.588410 0.909900 2.562160
v 0.588410 0.901710 2.561170
v 0.580460 0.902110 2.560340
v 0.580060 0.909900 2.561170
v 0.580460 0.902110 2.560340
v 0.580860 0.895620 2.557840
v 0.575930 0.897660 2.556510
v 0.573840 0.902500 2.557840
v 0.580060 0.909900 2.561170
v 0.573010 0.909900 2.558360
v 0.580460 0.917700 2.560340
v 0.573840 0.917310 2.557840
v 0.588410 0.901710 2.561170
v 0.588410 0.894800 2.558360
v 0.580860 0.895620 2.557840
v 0.580460 0.902110 2.560340
v 0.573010 0.909900 2.558360
v 0.573840 0.902500 2.557840
v 0.569890 0.902110 2.553640
v 0.568590 0.909910 2.553900
v 0.573840 0.917310 2.557840
v 0.569890 0.917700 2.553640
v 0.568590 0.909910 2.553900
v 0.569890 0.902110 2.553640
v 0.568590 0.901710 2.548600
v 0.567030 0.909900 2.548600
v 0.573840 0.902500 2.557840
v 0.575930 0.897660 2.556510
v 0.573840 0.895620 2.553390
v 0.569890 0.902110 2.553640
v 0.567030 0.909900 2.548600
v 0.568590 0.901710 2.548600
v 0.569890 0.902110 2.543570
v 0.568590 0.909910 2.543310
v 0.575930 0.922150 2.540700
v 0.573840 0.917310 2.539370
v 0.580460 0.917700 2.536870
v 0.580860 0.924190 2.539370
v 0.580860 0.924190 2.539370
v 0.580460 0.917700 2.536870
v 0.588410 0.918100 2.536040
v 0.588410 0.925010 2.538850
v 0.580460 0.917700 2.536870
v 0.580060 0.909900 2.536040
v 0.588410 0.909900 2.535050
v 0.588410 0.918100 2.536040
v 0.588410 0.925010 2.538850
v 0.588410 0.918100 2.536040
v 0.596350 0.917700 2.536870
v 0.595950 0.924190 2.539370
v 0.595950 0.924190 2.539370
v 0.596350 0.917700 2.536870
v 0.602970 0.917310 2.539370
v 0.600880 0.922150 2.540700
v 0.588410 0.918100 2.536040
v 0.588410 0.909900 2.535050
v 0.596750 0.909900 2.536040
v 0.596350 0.917700 2.536870
v 0.600880 0.922150 2.540700
v 0.602970 0.917310 2.539370
v 0.606920 0.917700 2.543570
v 0.602970 0.924190 2.543820
v 0.602970 0.924190 2.543820
v 0.606920 0.917700 2.543570
v 0.608220 0.918100 2.548600
v 0.603800 0.925010 2.548600
v 0.606920 0.917700 2.543570
v 0.608220 0.909910 2.543310
v 0.609780 0.909900 2.548600
v 0.608220 0.918100 2.548600
v 0.603800 0.925010 2.548600
v 0.608220 0.918100 2.548600
v 0.606920 0.917700 2.553640
v 0.602970 0.924190 2.553390
v 0.608220 0.918100 2.548600
v 0.609780 0.909900 2.548600
v 0.608220 0.909910 2.553900
v 0.606920 0.917700 2.553640
v 0.600880 0.922150 2.556510
v 0.602970 0.917310 2.557840
v 0.596350 0.917700 2.560340
v 0.595950 0.924190 2.557840
v 0.596350 0.917700 2.560340
v 0.596750 0.909900 2.561170
v 0.588410 0.909900 2.562160
v 0.588410 0.918100 2.561170
v 0.588410 0.925010 2.558360
v 0.588410 0.918100 2.561170
v 0.580460 0.917700 2.560340
v 0.580860 0.924190 2.557840
v 0.580860 0.924190 2.557840
v 0.580460 0.917700 2.560340
v 0.573840 0.917310 2.557840
v 0.575930 0.922150 2.556510
v 0.588410 0.918100 2.561170
v 0.588410 0.909900 2.562160
v 0.580060 0.909900 2.561170
v 0.580460 0.917700 2.560340
v 0.575930 0.922150 2.556510
v 0.573840 0.917310 2.557840
v 0.569890 0.917700 2.553640
v 0.573840 0.924190 2.553390
v 0.573840 0.924190 2.553390
v 0.569890 0.917700 2.553640
v 0.568590 0.918100 2.548600
v 0.573010 0.925010 2.548600
v 0.569890 0.917700 2.553640
v 0.568590 0.909910 2.553900
v 0.567030 0.909900 2.548600
v 0.568590 0.918100 2.548600
v 0.573010 0.925010 2.548600
v 0.568590 0.918100 2.548600
v 0.569890 0.917700 2.543570
v 0.573840 0.924190 2.543820
v 0.573840 0.924190 2.543820
v 0.569890 0.917700 2.543570
v 0.573840 0.917310 2.539370
v 0.575930 0.922150 2.540700
v 0.568590 0.918100 2.548600
v 0.567030 0.909900 2.548600
v 0.568590 0.909910 2.543310
v 0.569890 0.917700 2.543570
v 0.575930 0.922150 2.540700
v 0.580860 0.924190 2.539370
v 0.580460 0.928070 2.543570
v 0.573840 0.924190 2.543820
v 0.573840 0.924190 2.543820
v 0.580460 0.928070 2.543570
v 0.580060 0.929350 2.548600
v 0.573010 0.925010 2.548600
v 0.580460 0.928070 2.543570
v 0.588410 0.929350 2.543310
v 0.588410 0.930880 2.548600
v 0.580060 0.929350 2.548600
v 0.580860 0.924190 2.539370
v 0.588410 0.929350 2.543310
v 0.580460 0.928070 2.543570
v 0.588410 0.925010 2.538850
v 0.596350 0.928070 2.543570
v 0.595950 0.924190 2.539370
v 0.588410 0.929350 2.543310
v 0.596350 0.928070 2.543570
v 0.596750 0.929350 2.548600
v 0.588410 0.930880 2.548600
v 0.596350 0.928070 2.543570
v 0.602970 0.924190 2.543820
v 0.603800 0.925010 2.548600
v 0.596750 0.929350 2.548600
v 0.595950 0.924190 2.539370
v 0.600880 0.922150 2.540700
v 0.602970 0.924190 2.543820
v 0.596350 0.928070 2.543570
v 0.573010 0.925010 2.548600
v 0.580060 0.929350 2.548600
v 0.580460 0.928070 2.553640
v 0.573840 0.924190 2.553390
v 0.573840 0.924190 2.553390
v 0.580860 0.924190 2.557840
v 0.575930 0.922150 2.556510
v 0.580460 0.928070 2.553640
v 0.588410 0.925010 2.558360
v 0.588410 0.929350 2.553900
v 0.595950 0.924190 2.557840
v 0.596350 0.928070 2.553640
v 0.600880 0.922150 2.556510
v 0.602970 0.924190 2.553390
v 0.580060 0.929350 2.548600
v 0.588410 0.930880 2.548600
v 0.588410 0.929350 2.553900
v 0.580460 0.928070 2.553640
v 0.588410 0.930880 2.548600
v 0.596750 0.929350 2.548600
v 0.596350 0.928070 2.553640
v 0.588410 0.929350 2.553900
v 0.575930 0.895060 2.442700
v 0.573840 0.893020 2.445820
v 0.580460 0.889140 2.445570
v 0.580860 0.893020 2.441370
v 0.580860 0.893020 2.441370
v 0.580460 0.889140 2.445570
v 0.588410 0.887860 2.445310
v 0.580460 0.889140 2.445570
v 0.580060 0.887860 2.450600
v 0.588410 0.886330 2.450600
v 0.588410 0.887860 2.445310
v 0.573840 0.893020 2.445820
v 0.573010 0.892200 2.450600
v 0.580060 0.887860 2.450600
v 0.580460 0.889140 2.445570
v 0.595950 0.893020 2.441370
v 0.596350 0.889140 2.445570
v 0.602970 0.893020 2.445820
v 0.600880 0.895060 2.442700
v 0.596350 0.889140 2.445570
v 0.596750 0.887860 2.450600
v 0.603800 0.892200 2.450600
v 0.602970 0.893020 2.445820
v 0.588410 0.887860 2.445310
v 0.588410 0.886330 2.450600
v 0.596750 0.887860 2.450600
v 0.596350 0.889140 2.445570
v 0.573010 0.892200 2.450600
v 0.573840 0.893020 2.455390
v 0.580460 0.889140 2.455640
v 0.580060 0.887860 2.450600
v 0.580060 0.887860 2.450600
v 0.580460 0.889140 2.455640
v 0.588410 0.887860 2.455900
v 0.588410 0.886330 2.450600
v 0.573840 0.893020 2.455390
v 0.575930 0.895060 2.458510
v 0.580860 0.893020 2.459840
v 0.580460 0.889140 2.455640
v 0.588410 0.892200 2.460360
v 0.600880 0.895060 2.458510
v 0.602970 0.893020 2.455390
v 0.588410 0.886330 2.450600
v 0.588410 0.887860 2.455900
v 0.596350 0.889140 2.455640
v 0.596750 0.887860 2.450600
v 0.573840 0.899900 2.441370
v 0.575930 0.895060 2.442700
v 0.580860 0.893020 2.441370
v 0.580460 0.899510 2.438870
v 0.573010 0.907300 2.440850
v 0.580060 0.907300 2.438040
v 0.573840 0.914710 2.441370
v 0.580460 0.915100 2.438870
v 0.580060 0.907300 2.438040
v 0.580460 0.899510 2.438870
v 0.588410 0.899110 2.438040
v 0.588410 0.907300 2.437050
v 0.580460 0.899510 2.438870
v 0.580860 0.893020 2.441370
v 0.588410 0.892200 2.440850
v 0.588410 0.899110 2.438040
v 0.588410 0.907300 2.437050
v 0.588410 0.899110 2.438040
v 0.596350 0.899510 2.438870
v 0.596750 0.907300 2.438040
v 0.602970 0.899900 2.441370
v 0.596750 0.907300 2.438040
v 0.603800 0.907300 2.440850
v 0.596350 0.915100 2.438870
v 0.602970 0.914710 2.441370
v 0.588410 0.899110 2.438040
v 0.588410 0.892200 2.440850
v 0.595950 0.893020 2.441370
v 0.596350 0.899510 2.438870
v 0.603800 0.907300 2.440850
v 0.602970 0.899900 2.441370
v 0.606920 0.899510 2.445570
v 0.608220 0.907300 2.445310
v 0.602970 0.914710 2.441370
v 0.606920 0.915100 2.445570
v 0.608220 0.907300 2.445310
v 0.606920 0.899510 2.445570
v 0.608220 0.899110 2.450600
v 0.609780 0.907300 2.450600
v 0.606920 0.899510 2.445570
v 0.602970 0.893020 2.445820
v 0.603800 0.892200 2.450600
v 0.608220 0.899110 2.450600
v 0.609780 0.907300 2.450600
v 0.608220 0.899110 2.450600
v 0.606920 0.899510 2.455640
v 0.608220 0.907300 2.455900
v 0.606920 0.899510 2.455640
v 0.602970 0.893020 2.455390
v 0.600880 0.895060 2.458510
v 0.602970 0.899900 2.459840
v 0.608220 0.907300 2.455900
v 0.603800 0.907300 2.460360
v 0.606920 0.915100 2.455640
v 0.602970 0.914710 2.459840
v 0.608220 0.899110 2.450600
v 0.603800 0.892200 2.450600
v 0.602970 0.893020 2.455390
v 0.606920 0.899510 2.455640
v 0.602970 0.899900 2.459840
v 0.600880 0.895060 2.458510
v 0.595950 0.893020 2.459840
v 0.596350 0.899510 2.462340
v 0.603800 0.907300 2.460360
v 0.596750 0.907300 2.463170
v 0.596350 0.899510 2.462340
v 0.588410 0.899110 2.463170
v 0.588410 0.907300 2.464160
v 0.596350 0.899510 2.462340
v 0.595950 0.893020 2.459840
v 0.588410 0.892200 2.460360
v 0.588410 0.899110 2.463170
v 0.588410 0.907300 2.464160
v 0.588410 0.899110 2.463170
v 0.580460 0.899510 2.462340
v 0.580060 0.907300 2.463170
v 0.580460 0.899510 2.462340
v 0.580860 0.893020 2.459840
v 0.575930 0.895060 2.458510
v 0.573840 0.899900 2.459840
v 0.580060 0.907300 2.463170
v 0.573010 0.907300 2.460360
v 0.580460 0.915100 2.462340
v 0.573840 0.914710 2.459840
v 0.588410 0.899110 2.463170
v 0.588410 0.892200 2.460360
v 0.580860 0.893020 2.459840
v 0.580460 0.899510 2.462340
v 0.573010 0.907300 2.460360
v 0.573840 0.899900 2.459840
v 0.569890 0.899510 2.455640
v 0.568590 0.907300 2.455900
v 0.573840 0.914710 2.459840
v 0.569890 0.915100 2.455640
v 0.568590 0.907300 2.455900
v 0.569890 0.899510 2.455640
v 0.568590 0.899110 2.450600
v 0.567030 0.907300 2.450600
v 0.573840 0.899900 2.459840
v 0.575930 0.895060 2.458510
v 0.573840 0.893020 2.455390
v 0.569890 0.899510 2.455640
v 0.567030 0.907300 2.450600
v 0.568590 0.899110 2.450600
v 0.569890 0.899510 2.445570
v 0.568590 0.907300 2.445310
v 0.575930 0.919550 2.442700
v 0.573840 0.914710 2.441370
v 0.580460 0.915100 2.438870
v 0.580860 0.921590 2.441370
v 0.580860 0.921590 2.441370
v 0.580460 0.915100 2.438870
v 0.588410 0.915500 2.438040
v 0.588410 0.922410 2.440850
v 0.580460 0.915100 2.438870
v 0.580060 0.907300 2.438040
v 0.588410 0.907300 2.437050
v 0.588410 0.915500 2.438040
v 0.588410 0.922410 2.440850
v 0.588410 0.915500 2.438040
v 0.596350 0.915100 2.438870
v 0.595950 0.921590 2.441370
v 0.595950 0.921590 2.441370
v 0.596350 0.915100 2.438870
v 0.602970 0.914710 2.441370
v 0.600880 0.919550 2.442700
v 0.588410 0.915500 2.438040
v 0.588410 0.907300 2.437050
v 0.596750 0.907300 2.438040
v 0.596350 0.915100 2.438870
v 0.600880 0.919550 2.442700
v 0.602970 0.914710 2.441370
v 0.606920 0.915100 2.445570
v 0.602970 0.921590 2.445820
v 0.602970 0.921590 2.445820
v 0.606920 0.915100 2.445570
v 0.608220 0.915500 2.450600
v 0.603800 0.922410 2.450600
v 0.606920 0.915100 2.445570
v 0.608220 0.907300 2.445310
v 0.609780 0.907300 2.450600
v 0.608220 0.915500 2.450600
v 0.603800 0.922410 2.450600
v 0.608220 0.915500 2.450600
v 0.606920 0.915100 2.455640
v 0.602970 0.921590 2.455390
v 0.608220 0.915500 2.450600
v 0.609780 0.907300 2.450600
v 0.608220 0.907300 2.455900
v 0.606920 0.915100 2.455640
v 0.600880 0.919550 2.458510
v 0.602970 0.914710 2.459840
v 0.596350 0.915100 2.462340
v 0.595950 0.921590 2.459840
v 0.596350 0.915100 2.462340
v 0.596750 0.907300 2.463170
v 0.588410 0.907300 2.464160
v 0.588410 0.915500 2.463170
v 0.588410 0.922410 2.460360
v 0.588410 0.915500 2.463170
v 0.580460 0.915100 2.462340
v 0.580860 0.921590 2.459840
v 0.580860 0.921590 2.459840
v 0.580460 0.915100 2.462340
v 0.573840 0.914710 2.459840
v 0.575930 0.919550 2.458510
v 0.588410 0.915500 2.463170
v 0.588410 0.907300 2.464160
v 0.580060 0.907300 2.463170
v 0.580460 0.915100 2.462340
v 0.575930 0.919550 2.458510
v 0.573840 0.914710 2.459840
v 0.569890 0.915100 2.455640
v 0.573840 0.921590 2.455390
v 0.573840 0.921590 2.455390
v 0.569890 0.915100 2.455640
v 0.568590 0.915500 2.450600
v 0.573010 0.922410 2.450600
v 0.569890 0.915100 2.455640
v 0.568590 0.907300 2.455900
v 0.567030 0.907300 2.450600
v 0.568590 0.915500 2.450600
v 0.573010 0.922410 2.450600
v 0.568590 0.915500 2.450600
v 0.569890 0.915100 2.445570
v 0.573840 0.921590 2.445820
v 0.573840 0.921590 2.445820
v 0.569890 0.915100 2.445570
v 0.573840 0.914710 2.441370
v 0.575930 0.919550 2.442700
v 0.568590 0.915500 2.450600
v 0.567030 0.907300 2.450600
v 0.568590 0.907300 2.445310
v 0.569890 0.915100 2.445570
v 0.575930 0.919550 2.442700
v 0.580860 0.921590 2.441370
v 0.580460 0.925470 2.445570
v 0.573840 0.921590 2.445820
v 0.573840 0.921590 2.445820
v 0.580460 0.925470 2.445570
v 0.580060 0.926750 2.450600
v 0.573010 0.922410 2.450600
v 0.580460 0.925470 2.445570
v 0.588410 0.926750 2.445310
v 0.588410 0.928280 2.450600
v 0.580060 0.926750 2.450600
v 0.580860 0.921590 2.441370
v 0.588410 0.926750 2.445310
v 0.580460 0.925470 2.445570
v 0.588410 0.922410 2.440850
v 0.596350 0.925470 2.445570
v 0.595950 0.921590 2.441370
v 0.588410 0.926750 2.445310
v 0.596350 0.925470 2.445570
v 0.596750 0.926750 2.450600
v 0.588410 0.928280 2.450600
v 0.596350 0.925470 2.445570
v 0.602970 0.921590 2.445820
v 0.603800 0.922410 2.450600
v 0.596750 0.926750 2.450600
v 0.595950 0.921590 2.441370
v 0.600880 0.919550 2.442700
v 0.602970 0.921590 2.445820
v 0.596350 0.925470 2.445570
v 0.573010 0.922410 2.450600
v 0.580060 0.926750 2.450600
v 0.580460 0.925470 2.455640
v 0.573840 0.921590 2.455390
v 0.573840 0.921590 2.455390
v 0.580860 0.921590 2.459840
v 0.575930 0.919550 2.458510
v 0.580460 0.925470 2.455640
v 0.588410 0.922410 2.460360
v 0.588410 0.926750 2.455900
v 0.595950 0.921590 2.459840
v 0.596350 0.925470 2.455640
v 0.600880 0.919550 2.458510
v 0.602970 0.921590 2.455390
v 0.580060 0.926750 2.450600
v 0.588410 0.928280 2.450600
v 0.588410 0.926750 2.455900
v 0.580460 0.925470 2.455640
v 0.588410 0.928280 2.450600
v 0.596750 0.926750 2.450600
v 0.596350 0.925470 2.455640
v 0.588410 0.926750 2.455900
v 0.560510 0.970500 2.524610
v 0.559010 0.969010 2.524610
v 0.559010 0.969010 2.475810
v 0.560510 0.970500 2.475810
v 0.559010 0.807510 2.524610
v 0.560510 0.806000 2.524610
v 0.560510 0.806000 2.475810
v 0.559010 0.807510 2.475810
v 0.617000 0.969010 2.524610
v 0.615500 0.970500 2.524610
v 0.615500 0.970500 2.475810
v 0.617000 0.969010 2.475810
v 0.617000 0.807510 2.475810
v 0.615500 0.806000 2.475810
v 0.615500 0.806000 2.524610
v 0.617000 0.807510 2.524610
v 0.560510 0.970500 2.524610
v 0.615500 0.970500 2.524610
v 0.610460 0.965470 2.526400
v 0.565550 0.965470 2.526400
v 0.611970 0.963960 2.526400
v 0.559010 0.969010 2.524610
v 0.617000 0.969010 2.524610
v 0.564040 0.963960 2.526400
v 0.611970 0.812540 2.526400
v 0.559010 0.807510 2.524610
v 0.617000 0.807510 2.524610
v 0.564040 0.812540 2.526400
v 0.610460 0.811040 2.526400
v 0.560510 0.806000 2.524610
v 0.615500 0.806000 2.524610
v 0.565550 0.811040 2.526400
v 0.560510 0.806000 2.475810
v 0.615500 0.806000 2.475810
v 0.610460 0.811040 2.474000
v 0.565550 0.811040 2.474000
v 0.611970 0.812540 2.474000
v 0.559010 0.807510 2.475810
v 0.617000 0.807510 2.475810
v 0.564040 0.812540 2.474000
v 0.611970 0.963960 2.474000
v 0.559010 0.969010 2.475810
v 0.617000 0.969010 2.475810
v 0.564040 0.963960 2.474000
v 0.610460 0.965470 2.474000
v 0.560510 0.970500 2.475810
v 0.615500 0.970500 2.475810
v 0.565550 0.965470 2.474000
vn 0.1255 -0.7227 -0.6796
vn 0.1305 -0.7172 -0.6845
vn 0.0038 -0.7190 -0.6950
vn 0.2677 -0.6893 0.6732
vn 0.2862 -0.6876 0.6673
vn -0.0032 -0.7190 0.6950
vn 0.5054 -0.8296 0.2374
vn 0.4966 -0.8311 0.2505
vn 0.5016 -0.8303 0.2431
vn 0.5102 -0.8287 0.2303
vn 0.3614 -0.3691 -0.8563
vn 0.3771 -0.3531 -0.8562
vn 0.3624 -0.2468 -0.8987
vn 0.6169 -0.4274 -0.6609
vn 0.5861 -0.4400 -0.6803
vn 0.6256 -0.4237 -0.6551
vn 0.6428 -0.4160 -0.6432
vn 0.3569 0.1169 0.9268
vn 0.3676 -0.0030 0.9300
vn 0.3624 0.1116 0.9253
vn -0.8226 -0.5159 0.2390
vn -0.8272 -0.5123 0.2310
vn -0.8194 -0.5184 0.2446
vn -0.8153 -0.5215 0.2517
vn -0.7127 0.0037 -0.7014
vn -0.7126 0.0035 -0.7015
vn -0.7105 0.1338 -0.6908
vn -0.7165 0.1284 -0.6857
vn -0.6798 -0.2945 -0.6717
vn -0.6822 -0.2731 -0.6782
vn -0.6230 -0.4200 -0.6599
vn -0.6174 -0.4018 -0.6763
vn -0.8204 -0.5192 -0.2396
vn -0.8194 -0.5241 -0.2322
vn -0.8211 -0.5153 -0.2454
vn -0.8220 -0.5101 -0.2531
vn 0.6256 0.4237 0.6550
vn 0.6428 0.4160 0.6432
vn 0.6169 0.4275 0.6609
vn 0.5862 0.4400 0.6803
vn 0.1093 0.3693 0.9229
vn 0.1149 0.3632 0.9246
vn 0.1099 0.3687 0.9230
vn 0.1043 0.3746 0.9213
vn 0.5054 0.8296 0.2374
vn 0.5101 0.8287 0.2303
vn 0.5016 0.8303 0.2431
vn 0.4966 0.8311 0.2505
vn 0.1255 -0.7228 -0.6796
vn 0.2862 -0.6876 0.6674
vn 0.3625 -0.2468 -0.8987
vn 0.6168 -0.4275 -0.6609
vn 0.5861 -0.4401 -0.6803
vn 0.3677 -0.0029 0.9300
vn -0.8271 -0.5123 0.2310
vn -0.7127 0.0038 -0.7014
vn -0.7127 0.0033 -0.7014
vn -0.7106 0.1337 -0.6907
vn -0.6797 -0.2945 -0.6718
vn -0.6822 -0.2732 -0.6782
vn -0.6173 -0.4019 -0.6763
vn -0.8221 -0.5101 -0.2530
vn 0.1149 0.3633 0.9246
vn 0.1043 0.3747 0.9213
vn -0.0001 -0.0000 -1.0000
vn 0.0002 -0.0000 -1.0000
vn -0.0000 -0.0000 -1.0000
vn 0.0001 -0.0000 -1.0000
vn -0.0002 -0.0000 -1.0000
vn -0.9805 -0.1965 -0.0000
vn -0.8311 -0.5561 -0.0000
vn -0.5561 -0.8311 -0.0000
vn -0.1949 -0.9808 -0.0000
vn 0.1945 -0.9809 -0.0000
vn 0.5561 -0.8311 -0.0000
vn 0.8311 -0.5561 -0.0000
vn 0.9809 -0.1945 -0.0000
vn 0.9809 -0.1946 -0.0000
vn 0.9808 0.1949 -0.0000
vn 0.8311 0.5561 -0.0000
vn 0.5561 0.8311 -0.0000
vn 0.1965 0.9805 -0.0000
vn -0.1969 0.9804 -0.0000
vn -0.5561 0.8311 -0.0000
vn -0.8311 0.5561 -0.0000
vn -0.9804 0.1969 -0.0000
vn -0.0000 -0.0000 1.0000
vn -0.0001 -0.0000 1.0000
vn 0.0003 -0.0000 -1.0000
vn -0.0000 -1.0000 -0.0000
vn 1.0000 -0.0000 -0.0000
vn -0.0000 1.0000 -0.0000
vn -1.0000 -0.0000 -0.0000
vn -0.0002 -0.0000 1.0000
vn 0.0001 -0.0000 1.0000
vn 0.0003 -0.0000 1.0000
vn -0.4178 -0.6348 -0.6500
vn -0.3928 -0.6268 -0.6730
vn -0.4099 -0.6323 -0.6574
vn -0.4356 -0.6401 -0.6328
vn 0.0033 -0.7190 -0.6950
vn -0.1383 -0.7209 -0.6791
vn -0.1327 -0.7168 -0.6845
vn -0.1663 -0.9491 -0.2675
vn -0.1742 -0.9509 -0.2558
vn -0.1697 -0.9499 -0.2625
vn -0.1616 -0.9480 -0.2742
vn -0.5015 -0.8302 -0.2436
vn -0.5101 -0.8286 -0.2307
vn -0.5053 -0.8295 -0.2379
vn -0.4965 -0.8310 -0.2509
vn 0.4174 -0.6263 -0.6584
vn 0.4061 -0.6516 -0.6407
vn 0.4135 -0.6352 -0.6523
vn 0.4297 -0.5965 -0.6779
vn 0.5020 -0.8316 -0.2377
vn 0.5076 -0.8245 -0.2502
vn 0.5045 -0.8284 -0.2433
vn 0.4985 -0.8358 -0.2299
vn 0.1665 -0.9505 -0.2624
vn 0.1736 -0.9461 -0.2736
vn 0.1695 -0.9486 -0.2673
vn 0.1620 -0.9531 -0.2555
vn -0.5046 -0.8285 0.2429
vn -0.4986 -0.8359 0.2295
vn -0.5021 -0.8316 0.2372
vn -0.5076 -0.8246 0.2497
vn -0.1694 -0.9488 0.2668
vn -0.1618 -0.9533 0.2550
vn -0.1663 -0.9506 0.2620
vn -0.1734 -0.9462 0.2731
vn -0.2709 -0.6874 0.6739
vn -0.4297 -0.5965 0.6779
vn -0.4174 -0.6263 0.6584
vn -0.2577 -0.6947 0.6716
vn -0.0037 -0.7190 0.6950
vn 0.4099 -0.6323 0.6574
vn 0.3927 -0.6268 0.6730
vn 0.1699 -0.9500 0.2621
vn 0.1618 -0.9481 0.2737
vn 0.1665 -0.9492 0.2670
vn 0.1744 -0.9510 0.2554
vn -0.3630 -0.3704 -0.8550
vn -0.3883 -0.3963 -0.8320
vn -0.3629 -0.2192 -0.9057
vn -0.3582 -0.2370 -0.9031
vn -0.3676 -0.0028 -0.9300
vn -0.3676 -0.0030 -0.9300
vn -0.3624 0.1116 -0.9253
vn -0.3568 0.1169 -0.9268
vn -0.1130 -0.1152 -0.9869
vn -0.1087 -0.1108 -0.9879
vn -0.1129 -0.1151 -0.9869
vn -0.1169 -0.1192 -0.9860
vn -0.1096 -0.3692 -0.9229
vn -0.1032 -0.3631 -0.9260
vn -0.1090 -0.3686 -0.9232
vn -0.1149 -0.3742 -0.9202
vn 0.1132 -0.1152 -0.9869
vn 0.1092 -0.1193 -0.9868
vn 0.1131 -0.1153 -0.9869
vn 0.1172 -0.1112 -0.9869
vn 0.3589 -0.2290 -0.9048
vn 0.3676 0.0028 -0.9300
vn 0.3676 0.0027 -0.9300
vn 0.3623 0.1112 -0.9254
vn 0.3567 0.1051 -0.9283
vn 0.1099 -0.3687 -0.9230
vn 0.1043 -0.3747 -0.9213
vn 0.1093 -0.3693 -0.9229
vn 0.1150 -0.3632 -0.9246
vn 0.7107 -0.1338 -0.6907
vn 0.7164 -0.1285 -0.6857
vn 0.7127 -0.0041 -0.7015
vn 0.7127 -0.0032 -0.7015
vn 0.7102 0.1361 -0.6908
vn 0.7145 0.1421 -0.6851
vn 0.9483 -0.1720 -0.2667
vn 0.9513 -0.1672 -0.2591
vn 0.9463 -0.1753 -0.2717
vn 0.9435 -0.1797 -0.2786
vn 0.8225 -0.5159 -0.2394
vn 0.8270 -0.5123 -0.2315
vn 0.8193 -0.5183 -0.2451
vn 0.8152 -0.5214 -0.2521
vn 0.9477 -0.1756 0.2664
vn 0.9488 -0.1808 0.2591
vn 0.9470 -0.1721 0.2714
vn 0.9458 -0.1669 0.2787
vn 0.6230 -0.4200 0.6599
vn 0.6174 -0.4018 0.6763
vn 0.6822 -0.2731 0.6782
vn 0.6798 -0.2945 0.6717
vn 0.7127 0.0035 0.7015
vn 0.7128 0.0037 0.7014
vn 0.7106 0.1338 0.6908
vn 0.7165 0.1284 0.6857
vn 0.8205 -0.5192 0.2392
vn 0.8195 -0.5242 0.2317
vn 0.8213 -0.5153 0.2449
vn 0.8222 -0.5101 0.2525
vn 0.3630 -0.3704 0.8550
vn 0.3884 -0.3964 0.8319
vn 0.3629 -0.2192 0.9057
vn 0.3581 -0.2370 0.9031
vn 0.3675 -0.0028 0.9300
vn 0.1132 -0.1152 0.9869
vn 0.1089 -0.1109 0.9879
vn 0.1131 -0.1151 0.9869
vn 0.1171 -0.1192 0.9859
vn 0.1097 -0.3692 0.9229
vn 0.1033 -0.3631 0.9260
vn 0.1091 -0.3686 0.9232
vn 0.1150 -0.3742 0.9202
vn -0.1131 -0.1152 0.9869
vn -0.1091 -0.1193 0.9869
vn -0.1130 -0.1153 0.9869
vn -0.1170 -0.1112 0.9869
vn -0.3614 -0.3691 0.8563
vn -0.3772 -0.3530 0.8562
vn -0.3625 -0.2468 0.8987
vn -0.3589 -0.2290 0.9048
vn -0.3676 0.0028 0.9300
vn -0.3675 0.0027 0.9300
vn -0.3623 0.1112 0.9254
vn -0.3567 0.1051 0.9283
vn -0.1097 -0.3687 0.9231
vn -0.1041 -0.3747 0.9213
vn -0.1091 -0.3693 0.9229
vn -0.1147 -0.3632 0.9246
vn -0.7107 -0.1338 0.6906
vn -0.7165 -0.1285 0.6857
vn -0.7127 -0.0041 0.7014
vn -0.7128 -0.0032 0.7014
vn -0.7102 0.1361 0.6908
vn -0.7144 0.1421 0.6851
vn -0.9484 -0.1721 0.2663
vn -0.9514 -0.1672 0.2587
vn -0.9464 -0.1753 0.2712
vn -0.9436 -0.1798 0.2781
vn -0.6169 -0.4275 0.6609
vn -0.5862 -0.4400 0.6803
vn -0.6256 -0.4237 0.6551
vn -0.6428 -0.4160 0.6432
vn -0.9476 -0.1756 -0.2668
vn -0.9487 -0.1807 -0.2596
vn -0.9468 -0.1721 -0.2719
vn -0.9456 -0.1669 -0.2791
vn -0.3617 0.3687 -0.8563
vn -0.3459 0.3845 -0.8559
vn -0.3614 0.3691 -0.8563
vn -0.3770 0.3531 -0.8563
vn -0.1092 0.3693 -0.9229
vn -0.1148 0.3632 -0.9246
vn -0.1097 0.3687 -0.9231
vn -0.1041 0.3747 -0.9213
vn -0.1130 0.1151 -0.9869
vn -0.1171 0.1110 -0.9869
vn -0.1131 0.1150 -0.9869
vn -0.1091 0.1192 -0.9869
vn 0.1092 0.3686 -0.9231
vn 0.1150 0.3742 -0.9202
vn 0.1097 0.3692 -0.9229
vn 0.1034 0.3631 -0.9260
vn 0.3633 0.3707 -0.8547
vn 0.3485 0.3556 -0.8672
vn 0.3630 0.3704 -0.8550
vn 0.3884 0.3963 -0.8319
vn 0.1131 0.1150 -0.9869
vn 0.1171 0.1191 -0.9860
vn 0.1132 0.1151 -0.9869
vn 0.1089 0.1107 -0.9879
vn 0.6253 0.4278 -0.6527
vn 0.6307 0.4467 -0.6346
vn 0.6230 0.4200 -0.6599
vn 0.6174 0.4018 -0.6763
vn 0.8211 0.5153 -0.2454
vn 0.8220 0.5101 -0.2530
vn 0.8204 0.5191 -0.2396
vn 0.8194 0.5241 -0.2322
vn 0.9469 0.1721 -0.2715
vn 0.9458 0.1671 -0.2786
vn 0.9477 0.1756 -0.2666
vn 0.9487 0.1805 -0.2595
vn 0.8194 0.5184 0.2446
vn 0.8153 0.5215 0.2517
vn 0.8226 0.5159 0.2390
vn 0.8272 0.5123 0.2310
vn 0.9466 0.1752 0.2708
vn 0.9438 0.1795 0.2775
vn 0.9485 0.1721 0.2660
vn 0.9514 0.1674 0.2586
vn 0.3617 0.3687 0.8563
vn 0.3458 0.3846 0.8559
vn 0.3614 0.3691 0.8563
vn 0.3771 0.3531 0.8562
vn 0.1131 0.1151 0.9869
vn 0.1171 0.1110 0.9869
vn 0.1132 0.1150 0.9869
vn 0.1092 0.1191 0.9869
vn -0.1090 0.3686 0.9232
vn -0.1149 0.3742 0.9202
vn -0.1096 0.3692 0.9229
vn -0.1032 0.3630 0.9260
vn -0.3633 0.3707 0.8547
vn -0.3485 0.3555 0.8673
vn -0.3630 0.3704 0.8550
vn -0.3884 0.3964 0.8319
vn -0.1129 0.1150 0.9869
vn -0.1169 0.1190 0.9860
vn -0.1130 0.1151 0.9869
vn -0.1087 0.1107 0.9879
vn -0.6253 0.4278 0.6527
vn -0.6307 0.4467 0.6346
vn -0.6230 0.4200 0.6599
vn -0.6174 0.4018 0.6763
vn -0.8212 0.5154 0.2449
vn -0.8222 0.5101 0.2525
vn -0.8205 0.5192 0.2392
vn -0.8195 0.5242 0.2318
vn -0.9471 0.1721 0.2710
vn -0.9459 0.1671 0.2780
vn -0.9478 0.1756 0.2661
vn -0.9488 0.1805 0.2591
vn -0.8193 0.5183 -0.2451
vn -0.8152 0.5214 -0.2522
vn -0.8225 0.5158 -0.2395
vn -0.8270 0.5123 -0.2315
vn -0.6257 0.4237 -0.6550
vn -0.6428 0.4160 -0.6432
vn -0.6169 0.4274 -0.6609
vn -0.5862 0.4400 -0.6803
vn -0.9464 0.1752 -0.2713
vn -0.9437 0.1795 -0.2779
vn -0.9483 0.1721 -0.2665
vn -0.9512 0.1674 -0.2592
vn -0.4178 0.6348 -0.6500
vn -0.4356 0.6401 -0.6328
vn -0.4099 0.6323 -0.6574
vn -0.3928 0.6268 -0.6729
vn -0.5015 0.8302 -0.2436
vn -0.4965 0.8310 -0.2510
vn -0.5053 0.8295 -0.2379
vn -0.5101 0.8286 -0.2307
vn -0.1663 0.9491 -0.2675
vn -0.1616 0.9480 -0.2742
vn -0.1697 0.9499 -0.2625
vn -0.1743 0.9509 -0.2558
vn -0.1383 0.7209 -0.6791
vn 0.0034 0.7190 -0.6950
vn -0.1327 0.7168 -0.6845
vn 0.0039 0.7190 -0.6950
vn 0.1305 0.7172 -0.6845
vn 0.1254 0.7227 -0.6796
vn 0.1665 0.9505 -0.2624
vn 0.1620 0.9531 -0.2555
vn 0.1695 0.9486 -0.2673
vn 0.1736 0.9461 -0.2736
vn 0.5020 0.8316 -0.2377
vn 0.4985 0.8358 -0.2300
vn 0.5045 0.8284 -0.2433
vn 0.5076 0.8245 -0.2502
vn 0.4174 0.6263 -0.6584
vn 0.4297 0.5965 -0.6779
vn 0.4135 0.6352 -0.6523
vn 0.4061 0.6516 -0.6407
vn -0.5046 0.8285 0.2429
vn -0.5076 0.8246 0.2497
vn -0.5021 0.8316 0.2373
vn -0.4986 0.8359 0.2295
vn -0.4297 0.5965 0.6779
vn -0.2710 0.6874 0.6739
vn -0.4174 0.6263 0.6584
vn -0.2577 0.6947 0.6716
vn -0.0037 0.7190 0.6950
vn -0.0032 0.7190 0.6950
vn 0.2862 0.6876 0.6673
vn 0.2677 0.6893 0.6732
vn 0.4099 0.6323 0.6574
vn 0.3928 0.6268 0.6729
vn -0.1694 0.9488 0.2668
vn -0.1734 0.9462 0.2731
vn -0.1663 0.9506 0.2620
vn -0.1618 0.9533 0.2550
vn 0.1699 0.9500 0.2621
vn 0.1745 0.9510 0.2554
vn 0.1665 0.9492 0.2670
vn 0.1618 0.9481 0.2737
vn -0.3928 -0.6268 -0.6729
vn -0.4099 -0.6324 -0.6574
vn -0.4355 -0.6402 -0.6329
vn -0.1662 -0.9491 -0.2675
vn -0.1743 -0.9509 -0.2559
vn 0.4297 -0.5965 -0.6778
vn 0.5020 -0.8315 -0.2377
vn 0.4985 -0.8358 -0.2300
vn 0.1664 -0.9505 -0.2624
vn 0.1735 -0.9460 -0.2736
vn 0.1620 -0.9532 -0.2554
vn -0.5046 -0.8285 0.2428
vn -0.1693 -0.9488 0.2668
vn -0.1618 -0.9533 0.2549
vn -0.1663 -0.9507 0.2619
vn -0.1734 -0.9462 0.2732
vn -0.2710 -0.6874 0.6739
vn 0.3928 -0.6268 0.6729
vn 0.1745 -0.9510 0.2554
vn -0.3884 -0.3963 -0.8319
vn -0.3581 -0.2370 -0.9031
vn -0.3569 0.1169 -0.9268
vn -0.1033 -0.3631 -0.9260
vn -0.1148 -0.3742 -0.9202
vn 0.1171 -0.1112 -0.9869
vn 0.3569 0.1051 -0.9282
vn 0.1042 -0.3746 -0.9213
vn 0.7106 -0.1339 -0.6907
vn 0.7165 -0.1285 -0.6857
vn 0.7127 -0.0040 -0.7014
vn 0.7127 -0.0034 -0.7014
vn 0.7102 0.1359 -0.6907
vn 0.7145 0.1419 -0.6851
vn 0.9483 -0.1722 -0.2666
vn 0.9512 -0.1674 -0.2591
vn 0.9463 -0.1754 -0.2715
vn 0.9435 -0.1797 -0.2783
vn 0.8225 -0.5158 -0.2395
vn 0.8152 -0.5214 -0.2522
vn 0.9478 -0.1757 0.2662
vn 0.9488 -0.1807 0.2591
vn 0.9470 -0.1722 0.2712
vn 0.9458 -0.1671 0.2784
vn 0.6822 -0.2732 0.6782
vn 0.6797 -0.2945 0.6717
vn 0.7127 0.0032 0.7014
vn 0.7128 0.0038 0.7014
vn 0.7107 0.1337 0.6907
vn 0.8212 -0.5154 0.2449
vn 0.8222 -0.5101 0.2526
vn 0.3676 -0.0028 0.9300
vn 0.1131 -0.1152 0.9869
vn 0.1087 -0.1108 0.9879
vn 0.1130 -0.1151 0.9869
vn 0.1170 -0.1192 0.9860
vn 0.1092 -0.3686 0.9231
vn 0.1151 -0.3742 0.9202
vn -0.1130 -0.1152 0.9869
vn -0.1089 -0.1193 0.9869
vn -0.1129 -0.1153 0.9869
vn -0.1170 -0.1111 0.9869
vn -0.3613 -0.3691 0.8563
vn -0.3771 -0.3531 0.8562
vn -0.3676 0.0027 0.9300
vn -0.1092 -0.3693 0.9229
vn -0.1148 -0.3632 0.9246
vn -0.7106 -0.1339 0.6907
vn -0.7164 -0.1286 0.6857
vn -0.7128 -0.0040 0.7014
vn -0.7127 -0.0034 0.7014
vn -0.7103 0.1359 0.6907
vn -0.7145 0.1419 0.6851
vn -0.9484 -0.1722 0.2661
vn -0.9513 -0.1674 0.2587
vn -0.9465 -0.1754 0.2710
vn -0.9437 -0.1798 0.2778
vn -0.9476 -0.1757 -0.2667
vn -0.9487 -0.1807 -0.2595
vn -0.9469 -0.1722 -0.2717
vn -0.9457 -0.1671 -0.2789
vn -0.3771 0.3531 -0.8562
vn -0.1170 0.1110 -0.9869
vn -0.1091 0.1191 -0.9869
vn 0.3485 0.3556 -0.8673
vn 0.1170 0.1190 -0.9860
vn 0.6173 0.4019 -0.6763
vn 0.8212 0.5153 -0.2454
vn 0.8221 0.5100 -0.2530
vn 0.9469 0.1720 -0.2717
vn 0.9457 0.1669 -0.2789
vn 0.9477 0.1755 -0.2667
vn 0.8271 0.5123 0.2310
vn 0.9465 0.1752 0.2710
vn 0.9437 0.1795 0.2778
vn 0.9485 0.1720 0.2661
vn 0.9514 0.1672 0.2587
vn 0.3617 0.3688 0.8563
vn 0.3772 0.3531 0.8562
vn 0.1172 0.1110 0.9869
vn 0.1091 0.1191 0.9869
vn -0.1031 0.3631 0.9260
vn -0.3485 0.3556 0.8673
vn -0.3885 0.3963 0.8319
vn -0.1130 0.1150 0.9869
vn -0.6306 0.4467 0.6346
vn -0.8195 0.5242 0.2317
vn -0.9470 0.1720 0.2712
vn -0.9459 0.1669 0.2784
vn -0.9478 0.1755 0.2662
vn -0.8152 0.5214 -0.2521
vn -0.8226 0.5158 -0.2394
vn -0.8271 0.5122 -0.2315
vn -0.6256 0.4237 -0.6551
vn -0.6168 0.4275 -0.6609
vn -0.5861 0.4401 -0.6803
vn -0.9464 0.1752 -0.2715
vn -0.9436 0.1795 -0.2783
vn -0.9483 0.1720 -0.2666
vn -0.9513 0.1672 -0.2592
vn -0.4177 0.6348 -0.6500
vn -0.4356 0.6401 -0.6329
vn -0.4099 0.6324 -0.6574
vn -0.4965 0.8310 -0.2509
vn -0.1662 0.9491 -0.2675
vn -0.1743 0.9509 -0.2559
vn 0.0038 0.7190 -0.6950
vn 0.1255 0.7228 -0.6796
vn 0.1664 0.9505 -0.2624
vn 0.1620 0.9532 -0.2554
vn 0.1735 0.9460 -0.2736
vn 0.5020 0.8315 -0.2377
vn 0.4986 0.8358 -0.2299
vn 0.4297 0.5966 -0.6778
vn -0.5021 0.8316 0.2372
vn 0.2862 0.6875 0.6674
vn -0.1693 0.9488 0.2668
vn -0.1734 0.9462 0.2732
vn -0.1663 0.9507 0.2619
vn -0.1618 0.9533 0.2549
vn 0.1699 0.9500 0.2620
vn -0.7047 0.7095 -0.0000
vn -0.7048 0.7094 -0.0000
vn -0.7095 -0.7047 -0.0000
vn -0.7094 -0.7048 -0.0000
vn -0.7095 -0.7048 -0.0000
vn 0.7047 0.7095 -0.0000
vn 0.7095 -0.7047 -0.0000
vn 0.7094 -0.7048 -0.0000
vn 0.0699 0.2715 0.9599
vn 0.1140 0.2296 0.9666
vn -0.1140 0.2297 0.9666
vn -0.0698 0.2715 0.9599
vn 0.2715 0.0699 0.9599
vn -0.2291 0.1146 0.9666
vn 0.2290 0.1146 0.9667
vn -0.2715 0.0698 0.9599
vn 0.2713 -0.0704 0.9599
vn -0.2300 -0.1140 0.9665
vn 0.2296 -0.1140 0.9666
vn -0.2712 -0.0702 0.9600
vn 0.0698 -0.2714 0.9599
vn -0.1145 -0.2292 0.9666
vn 0.1144 -0.2289 0.9667
vn -0.0695 -0.2714 0.9600
vn 0.0703 -0.2741 -0.9591
vn 0.1157 -0.2316 -0.9659
vn -0.1156 -0.2313 -0.9660
vn -0.0705 -0.2742 -0.9591
vn 0.2740 -0.0709 -0.9591
vn -0.2320 -0.1152 -0.9659
vn 0.2324 -0.1152 -0.9658
vn -0.2740 -0.0711 -0.9591
vn 0.2743 0.0706 -0.9591
vn -0.2314 0.1158 -0.9660
vn 0.2315 0.1158 -0.9659
vn -0.2742 0.0707 -0.9591
vn 0.0706 0.2743 -0.9591
vn -0.1152 0.2320 -0.9659
vn 0.1151 0.2321 -0.9658
vn -0.0706 0.2743 -0.9590
vt 0.380920 0.037720
vt 0.380920 0.045614
vt 0.375000 0.037720
vt 0.380427 0.288049
vt 0.380427 0.295285
vt 0.375000 0.288049
vt 0.471500 0.212000
vt 0.466000 0.212000
vt 0.466000 0.204667
vt 0.471500 0.204667
vt 0.778205 0.446154
vt 0.784295 0.446154
vt 0.784295 0.454273
vt 0.716314 0.371752
vt 0.721186 0.371752
vt 0.721186 0.378248
vt 0.716314 0.378248
vt 0.465705 0.470514
vt 0.465705 0.462393
vt 0.471795 0.470514
vt 0.153511 0.371348
vt 0.158989 0.371348
vt 0.158989 0.378652
vt 0.153511 0.378652
vt 0.028463 0.462049
vt 0.034037 0.462049
vt 0.034037 0.469481
vt 0.028463 0.469481
vt 0.028463 0.454617
vt 0.034037 0.454617
vt 0.028463 0.447185
vt 0.034037 0.447185
vt 0.091011 0.371348
vt 0.096489 0.371348
vt 0.096489 0.378652
vt 0.091011 0.378652
vt 0.528813 0.621750
vt 0.533687 0.621750
vt 0.533687 0.628250
vt 0.528813 0.628250
vt 0.403007 0.620676
vt 0.409493 0.620676
vt 0.409493 0.629324
vt 0.403007 0.629324
vt 0.471501 0.787999
vt 0.471501 0.795335
vt 0.465999 0.795335
vt 0.465999 0.787999
vt 0.784295 0.454274
vt 0.716313 0.371751
vt 0.721187 0.371751
vt 0.721187 0.378249
vt 0.716313 0.378249
vt 0.465705 0.462394
vt 0.028463 0.447186
vt 0.034037 0.447186
vt 0.471499 0.788001
vt 0.471499 0.795332
vt 0.466001 0.795332
vt 0.466001 0.788001
vt 0.739607 0.756944
vt 0.737741 0.752439
vt 0.737741 0.747561
vt 0.739607 0.743056
vt 0.743056 0.760393
vt 0.743056 0.739607
vt 0.747561 0.762259
vt 0.747561 0.737741
vt 0.752439 0.762259
vt 0.752439 0.737741
vt 0.756944 0.760393
vt 0.756944 0.739607
vt 0.760393 0.756944
vt 0.760393 0.743056
vt 0.762259 0.752439
vt 0.762259 0.747561
vt 0.034807 0.221546
vt 0.034807 0.278454
vt 0.027693 0.278454
vt 0.027693 0.221546
vt 0.097307 0.221546
vt 0.097307 0.278454
vt 0.090193 0.278454
vt 0.090193 0.221546
vt 0.159807 0.221546
vt 0.159807 0.278454
vt 0.152693 0.278454
vt 0.152693 0.221546
vt 0.222307 0.221546
vt 0.222307 0.278454
vt 0.215193 0.278454
vt 0.215193 0.221546
vt 0.284807 0.221546
vt 0.284807 0.278454
vt 0.277693 0.278454
vt 0.277693 0.221546
vt 0.347307 0.221546
vt 0.347307 0.278454
vt 0.340193 0.278454
vt 0.340193 0.221546
vt 0.409807 0.221546
vt 0.409807 0.278454
vt 0.402693 0.278454
vt 0.402693 0.221546
vt 0.472307 0.221546
vt 0.472307 0.278454
vt 0.465193 0.278454
vt 0.465193 0.221546
vt 0.534807 0.221546
vt 0.534807 0.278454
vt 0.527693 0.278454
vt 0.527693 0.221546
vt 0.597307 0.221546
vt 0.597307 0.278454
vt 0.590193 0.278454
vt 0.590193 0.221546
vt 0.659807 0.221547
vt 0.659807 0.278453
vt 0.652693 0.278453
vt 0.652693 0.221547
vt 0.722307 0.221545
vt 0.722307 0.278455
vt 0.715193 0.278455
vt 0.715193 0.221545
vt 0.784807 0.221546
vt 0.784807 0.278454
vt 0.777693 0.278454
vt 0.777693 0.221546
vt 0.847307 0.221547
vt 0.847307 0.278453
vt 0.840193 0.278453
vt 0.840193 0.221547
vt 0.909807 0.221546
vt 0.909807 0.278454
vt 0.902693 0.278454
vt 0.902693 0.221546
vt 0.972307 0.221546
vt 0.972307 0.278454
vt 0.965193 0.278454
vt 0.965193 0.221546
vt 0.237740 0.752439
vt 0.237740 0.747561
vt 0.239607 0.743056
vt 0.243055 0.739607
vt 0.239607 0.756944
vt 0.247561 0.737740
vt 0.243055 0.760393
vt 0.252439 0.737740
vt 0.247561 0.762260
vt 0.256945 0.739607
vt 0.252439 0.762260
vt 0.260393 0.743056
vt 0.256945 0.760393
vt 0.262260 0.747561
vt 0.260393 0.756944
vt 0.262260 0.752439
vt 0.409899 0.218439
vt 0.340101 0.218439
vt 0.339263 0.215198
vt 0.410737 0.215198
vt 0.339263 0.118135
vt 0.410737 0.118135
vt 0.340101 0.114894
vt 0.409899 0.114894
vt 0.146845 0.469284
vt 0.146845 0.530716
vt 0.103155 0.530716
vt 0.103155 0.469284
vt 0.413021 0.448179
vt 0.413021 0.551821
vt 0.336979 0.551821
vt 0.336979 0.448179
vt 0.646845 0.469284
vt 0.646845 0.530716
vt 0.603155 0.530716
vt 0.603155 0.469284
vt 0.913021 0.448179
vt 0.913021 0.551821
vt 0.836979 0.551821
vt 0.836979 0.448179
vt 0.340101 0.781561
vt 0.409899 0.781561
vt 0.410737 0.784802
vt 0.339263 0.784802
vt 0.410737 0.881865
vt 0.339263 0.881865
vt 0.409899 0.885106
vt 0.340101 0.885106
vt 0.283692 0.044923
vt 0.278808 0.044923
vt 0.278808 0.038411
vt 0.283692 0.038411
vt 0.375000 0.045614
vt 0.369080 0.045614
vt 0.369080 0.037720
vt 0.346633 0.128843
vt 0.340867 0.128843
vt 0.340867 0.121157
vt 0.346633 0.121157
vt 0.284000 0.128667
vt 0.278500 0.128667
vt 0.278500 0.121334
vt 0.284000 0.121334
vt 0.471192 0.044923
vt 0.466308 0.044923
vt 0.466308 0.038411
vt 0.471192 0.038411
vt 0.471500 0.128666
vt 0.466000 0.128666
vt 0.466000 0.121334
vt 0.471500 0.121334
vt 0.409133 0.128843
vt 0.403367 0.128843
vt 0.403367 0.121157
vt 0.409133 0.121157
vt 0.284000 0.212000
vt 0.278500 0.212000
vt 0.278500 0.204667
vt 0.284000 0.204667
vt 0.346632 0.212176
vt 0.340868 0.212176
vt 0.340868 0.204490
vt 0.346632 0.204490
vt 0.369573 0.295285
vt 0.364146 0.295285
vt 0.364146 0.288049
vt 0.369573 0.288049
vt 0.375000 0.295285
vt 0.385854 0.295285
vt 0.385854 0.288049
vt 0.409133 0.212177
vt 0.403367 0.212177
vt 0.403367 0.204490
vt 0.409133 0.204490
vt 0.965705 0.446154
vt 0.971795 0.446154
vt 0.971795 0.454273
vt 0.965705 0.454273
vt 0.971795 0.462393
vt 0.965705 0.462393
vt 0.971795 0.470513
vt 0.965705 0.470513
vt 0.902733 0.453644
vt 0.909767 0.453644
vt 0.909767 0.463023
vt 0.902733 0.463023
vt 0.903007 0.370676
vt 0.909493 0.370676
vt 0.909493 0.379324
vt 0.903007 0.379324
vt 0.840234 0.453645
vt 0.847266 0.453645
vt 0.847266 0.463021
vt 0.840234 0.463021
vt 0.778205 0.454273
vt 0.784295 0.462393
vt 0.778205 0.462393
vt 0.784295 0.470513
vt 0.778205 0.470513
vt 0.840507 0.370676
vt 0.846993 0.370676
vt 0.846993 0.379324
vt 0.840507 0.379324
vt 0.715804 0.492144
vt 0.721696 0.492144
vt 0.721696 0.500000
vt 0.715804 0.500000
vt 0.721696 0.507856
vt 0.715804 0.507856
vt 0.653392 0.454523
vt 0.659108 0.454523
vt 0.659108 0.462144
vt 0.653392 0.462144
vt 0.653511 0.371349
vt 0.658989 0.371349
vt 0.658989 0.378651
vt 0.653511 0.378651
vt 0.590892 0.454523
vt 0.596608 0.454523
vt 0.596608 0.462144
vt 0.590892 0.462144
vt 0.528463 0.447186
vt 0.534037 0.447186
vt 0.534037 0.454618
vt 0.528463 0.454618
vt 0.534037 0.462049
vt 0.528463 0.462049
vt 0.534037 0.469481
vt 0.528463 0.469481
vt 0.591011 0.371348
vt 0.596489 0.371348
vt 0.596489 0.378652
vt 0.591011 0.378652
vt 0.465705 0.446153
vt 0.471795 0.446153
vt 0.471795 0.454273
vt 0.465705 0.454273
vt 0.471795 0.462393
vt 0.402733 0.453644
vt 0.409767 0.453644
vt 0.409767 0.463023
vt 0.402733 0.463023
vt 0.403007 0.370676
vt 0.409493 0.370676
vt 0.409493 0.379324
vt 0.403007 0.379324
vt 0.340233 0.453644
vt 0.347267 0.453644
vt 0.347267 0.463023
vt 0.340233 0.463023
vt 0.278205 0.446153
vt 0.284295 0.446153
vt 0.284295 0.454273
vt 0.278205 0.454273
vt 0.284295 0.462393
vt 0.278205 0.462393
vt 0.284295 0.470514
vt 0.278205 0.470514
vt 0.340506 0.370675
vt 0.346994 0.370675
vt 0.346994 0.379325
vt 0.340506 0.379325
vt 0.215804 0.492143
vt 0.221696 0.492143
vt 0.221696 0.500000
vt 0.215804 0.500000
vt 0.221696 0.507857
vt 0.215804 0.507857
vt 0.153391 0.454522
vt 0.159109 0.454522
vt 0.159109 0.462145
vt 0.153391 0.462145
vt 0.216313 0.371751
vt 0.221187 0.371751
vt 0.221187 0.378249
vt 0.216313 0.378249
vt 0.090892 0.454522
vt 0.096608 0.454522
vt 0.096608 0.462145
vt 0.090892 0.462145
vt 0.966140 0.621520
vt 0.971360 0.621520
vt 0.971360 0.628480
vt 0.966140 0.628480
vt 0.903007 0.620676
vt 0.909493 0.620676
vt 0.909493 0.629324
vt 0.903007 0.629324
vt 0.902733 0.536978
vt 0.909767 0.536978
vt 0.909767 0.546356
vt 0.902733 0.546356
vt 0.840509 0.620678
vt 0.846991 0.620678
vt 0.846991 0.629322
vt 0.840509 0.629322
vt 0.778636 0.621515
vt 0.783864 0.621515
vt 0.783864 0.628485
vt 0.778636 0.628485
vt 0.840233 0.536978
vt 0.847267 0.536978
vt 0.847267 0.546356
vt 0.840233 0.546356
vt 0.716314 0.621752
vt 0.721186 0.621752
vt 0.721186 0.628248
vt 0.716314 0.628248
vt 0.653512 0.621350
vt 0.658988 0.621350
vt 0.658988 0.628650
vt 0.653512 0.628650
vt 0.653391 0.537855
vt 0.659109 0.537855
vt 0.659109 0.545479
vt 0.653391 0.545479
vt 0.591011 0.621349
vt 0.596489 0.621349
vt 0.596489 0.628651
vt 0.591011 0.628651
vt 0.590890 0.537854
vt 0.596610 0.537854
vt 0.596610 0.545480
vt 0.590890 0.545480
vt 0.466138 0.621518
vt 0.471362 0.621518
vt 0.471362 0.628482
vt 0.466138 0.628482
vt 0.402733 0.536978
vt 0.409767 0.536978
vt 0.409767 0.546356
vt 0.402733 0.546356
vt 0.340506 0.620675
vt 0.346994 0.620675
vt 0.346994 0.629325
vt 0.340506 0.629325
vt 0.278636 0.621515
vt 0.283864 0.621515
vt 0.283864 0.628485
vt 0.278636 0.628485
vt 0.340233 0.536978
vt 0.347267 0.536978
vt 0.347267 0.546355
vt 0.340233 0.546355
vt 0.216313 0.621750
vt 0.221187 0.621750
vt 0.221187 0.628250
vt 0.216313 0.628250
vt 0.153511 0.621348
vt 0.158989 0.621348
vt 0.158989 0.628652
vt 0.153511 0.628652
vt 0.153392 0.537856
vt 0.159108 0.537856
vt 0.159108 0.545478
vt 0.153392 0.545478
vt 0.091011 0.621349
vt 0.096489 0.621349
vt 0.096489 0.628651
vt 0.091011 0.628651
vt 0.028813 0.621751
vt 0.033687 0.621751
vt 0.033687 0.628249
vt 0.028813 0.628249
vt 0.090891 0.537855
vt 0.096609 0.537855
vt 0.096609 0.545478
vt 0.090891 0.545478
vt 0.283693 0.955076
vt 0.283693 0.961590
vt 0.278807 0.961590
vt 0.278807 0.955076
vt 0.284000 0.871334
vt 0.284000 0.878666
vt 0.278500 0.878666
vt 0.278500 0.871334
vt 0.346632 0.871158
vt 0.346632 0.878842
vt 0.340868 0.878842
vt 0.340868 0.871158
vt 0.369079 0.954386
vt 0.375000 0.954386
vt 0.369079 0.962281
vt 0.375000 0.962281
vt 0.380921 0.954386
vt 0.380921 0.962281
vt 0.409132 0.871158
vt 0.409132 0.878842
vt 0.403368 0.878842
vt 0.403368 0.871158
vt 0.471499 0.871335
vt 0.471499 0.878665
vt 0.466001 0.878665
vt 0.466001 0.871335
vt 0.471193 0.955076
vt 0.471193 0.961591
vt 0.466307 0.961591
vt 0.466307 0.955076
vt 0.284000 0.788001
vt 0.284000 0.795333
vt 0.278500 0.795333
vt 0.278500 0.788001
vt 0.364147 0.704716
vt 0.369573 0.704716
vt 0.364147 0.711951
vt 0.369573 0.711951
vt 0.375000 0.704716
vt 0.375000 0.711951
vt 0.380427 0.704716
vt 0.380427 0.711951
vt 0.385853 0.704716
vt 0.385853 0.711951
vt 0.346633 0.787823
vt 0.346633 0.795511
vt 0.340867 0.795511
vt 0.340867 0.787823
vt 0.409132 0.787824
vt 0.409132 0.795509
vt 0.403368 0.795509
vt 0.403368 0.787824
vt 0.284000 0.128666
vt 0.278500 0.128666
vt 0.471500 0.128667
vt 0.466000 0.128667
vt 0.346632 0.212177
vt 0.340868 0.212177
vt 0.909767 0.463022
vt 0.902733 0.463022
vt 0.778205 0.454274
vt 0.653511 0.371348
vt 0.658989 0.371348
vt 0.658989 0.378652
vt 0.653511 0.378652
vt 0.590891 0.454522
vt 0.596609 0.454522
vt 0.596609 0.462145
vt 0.590891 0.462145
vt 0.534037 0.469480
vt 0.528463 0.469480
vt 0.471795 0.462394
vt 0.409767 0.463022
vt 0.402733 0.463022
vt 0.403006 0.370675
vt 0.409494 0.370675
vt 0.409494 0.379325
vt 0.403006 0.379325
vt 0.347267 0.463022
vt 0.340233 0.463022
vt 0.284295 0.462394
vt 0.278205 0.462394
vt 0.340507 0.370676
vt 0.346993 0.370676
vt 0.346993 0.379324
vt 0.340507 0.379324
vt 0.090891 0.454522
vt 0.096609 0.454522
vt 0.096609 0.462145
vt 0.090891 0.462145
vt 0.966140 0.621521
vt 0.971360 0.621521
vt 0.971360 0.628479
vt 0.966140 0.628479
vt 0.903003 0.620671
vt 0.909497 0.620671
vt 0.909497 0.629329
vt 0.903003 0.629329
vt 0.778637 0.621516
vt 0.783863 0.621516
vt 0.783863 0.628484
vt 0.778637 0.628484
vt 0.840233 0.536977
vt 0.847267 0.536977
vt 0.716313 0.621751
vt 0.721187 0.621751
vt 0.721187 0.628249
vt 0.716313 0.628249
vt 0.653510 0.621347
vt 0.658990 0.621347
vt 0.658990 0.628653
vt 0.653510 0.628653
vt 0.653391 0.537854
vt 0.659109 0.537854
vt 0.591011 0.621348
vt 0.596489 0.621348
vt 0.596489 0.628652
vt 0.591011 0.628652
vt 0.590891 0.537855
vt 0.596609 0.537855
vt 0.596609 0.545478
vt 0.590891 0.545478
vt 0.402734 0.536978
vt 0.409766 0.536978
vt 0.409766 0.546355
vt 0.402734 0.546355
vt 0.340507 0.620676
vt 0.346993 0.620676
vt 0.346993 0.629324
vt 0.340507 0.629324
vt 0.278637 0.621516
vt 0.283863 0.621516
vt 0.283863 0.628484
vt 0.278637 0.628484
vt 0.216313 0.621751
vt 0.221187 0.621751
vt 0.221187 0.628249
vt 0.216313 0.628249
vt 0.153512 0.621349
vt 0.158988 0.621349
vt 0.158988 0.628651
vt 0.153512 0.628651
vt 0.153391 0.537855
vt 0.159109 0.537855
vt 0.159109 0.545478
vt 0.153391 0.545478
vt 0.283692 0.955077
vt 0.283692 0.961590
vt 0.278808 0.961590
vt 0.278808 0.955077
vt 0.346633 0.871156
vt 0.346633 0.878844
vt 0.340867 0.878844
vt 0.340867 0.871156
vt 0.369078 0.954385
vt 0.375000 0.954385
vt 0.369078 0.962281
vt 0.380922 0.954385
vt 0.380922 0.962281
vt 0.409133 0.871156
vt 0.409133 0.878844
vt 0.403367 0.878844
vt 0.403367 0.871156
vt 0.471499 0.871334
vt 0.471499 0.878666
vt 0.466001 0.878666
vt 0.466001 0.871334
vt 0.471192 0.955078
vt 0.471192 0.961589
vt 0.466308 0.961589
vt 0.466308 0.955078
vt 0.364145 0.704715
vt 0.369573 0.704715
vt 0.364145 0.711952
vt 0.369573 0.711952
vt 0.375000 0.704715
vt 0.375000 0.711952
vt 0.380427 0.704715
vt 0.380427 0.711952
vt 0.385855 0.704715
vt 0.385855 0.711952
vt 0.346632 0.787824
vt 0.346632 0.795509
vt 0.340868 0.795509
vt 0.340868 0.787824
vt 0.748970 0.469356
vt 0.748970 0.530644
vt 0.747282 0.530644
vt 0.747282 0.469356
vt 0.000183 0.358527
vt 0.000183 0.641473
vt -0.000183 0.641473
vt -0.000183 0.358527
vt 0.502719 0.469349
vt 0.502719 0.530651
vt 0.501030 0.530651
vt 0.501030 0.469349
vt 0.247282 0.530649
vt 0.247282 0.469351
vt 0.248970 0.469351
vt 0.248970 0.530649
vt 0.399233 0.800425
vt 0.407621 0.792089
vt 0.407621 0.874578
vt 0.399233 0.866242
vt 0.398664 0.798227
vt 0.406912 0.876828
vt 0.406912 0.789839
vt 0.398664 0.868439
vt 0.351336 0.798227
vt 0.343088 0.876828
vt 0.343088 0.789839
vt 0.351336 0.868439
vt 0.350767 0.800425
vt 0.342379 0.874578
vt 0.342379 0.792089
vt 0.350767 0.866242
vt 0.350767 0.199576
vt 0.342379 0.207912
vt 0.342379 0.125421
vt 0.350767 0.133758
vt 0.351335 0.201773
vt 0.343088 0.123171
vt 0.343088 0.210162
vt 0.351335 0.131560
vt 0.398665 0.201773
vt 0.406912 0.123171
vt 0.406912 0.210162
vt 0.398665 0.131560
vt 0.399233 0.199576
vt 0.407621 0.125421
vt 0.407621 0.207912
vt 0.399233 0.133758
s 1
f 3/1/1 2/2/2 1/3/3
f 6/4/4 5/5/5 4/6/6
f 9/7/7 8/8/8 7/9/9
f 10/10/10 9/7/7 7/9/9
f 13/11/11 12/12/12 11/13/13
f 16/14/14 15/15/15 14/16/16
f 17/17/17 16/14/14 14/16/16
f 20/18/18 19/19/19 18/20/20
f 23/21/21 22/22/22 21/23/23
f 24/24/24 23/21/21 21/23/23
f 27/25/25 26/26/26 25/27/27
f 28/28/28 27/25/25 25/27/27
f 27/25/25 29/29/29 26/26/26
f 29/29/29 30/30/30 26/26/26
f 29/29/29 31/31/31 30/30/30
f 31/31/31 32/32/32 30/30/30
f 35/33/33 34/34/34 33/35/35
f 36/36/36 35/33/33 33/35/35
f 39/37/37 38/38/38 37/39/39
f 40/40/40 39/37/37 37/39/39
f 43/41/41 42/42/42 41/43/43
f 44/44/44 43/41/41 41/43/43
f 47/45/45 46/46/46 45/47/47
f 48/48/48 47/45/45 45/47/47
f 51/1/49 50/2/2 49/3/3
f 54/4/4 53/5/50 52/6/6
f 57/7/7 56/8/8 55/9/9
f 58/10/10 57/7/7 55/9/9
f 61/11/11 60/12/12 59/49/51
f 64/50/52 63/51/53 62/52/16
f 65/53/17 64/50/52 62/52/16
f 68/18/18 67/54/54 66/20/20
f 71/21/21 70/22/55 69/23/23
f 72/24/24 71/21/21 69/23/23
f 75/25/56 74/26/57 73/27/58
f 76/28/28 75/25/56 73/27/58
f 75/25/56 77/29/59 74/26/57
f 77/29/59 78/30/60 74/26/57
f 77/29/59 79/55/31 78/30/60
f 79/55/31 80/56/61 78/30/60
f 83/33/33 82/34/34 81/35/35
f 84/36/62 83/33/33 81/35/35
f 87/37/37 86/38/38 85/39/39
f 88/40/40 87/37/37 85/39/39
f 91/41/41 90/42/63 89/43/43
f 92/44/64 91/41/41 89/43/43
f 95/57/45 94/58/46 93/59/47
f 96/60/48 95/57/45 93/59/47
f 99/61/65 98/62/66 97/63/67
f 97/63/67 100/64/67 99/61/65
f 100/64/67 101/65/67 99/61/65
f 100/64/67 102/66/67 101/65/67
f 102/66/67 103/67/67 101/65/67
f 102/66/67 104/68/67 103/67/67
f 104/68/67 105/69/67 103/67/67
f 104/68/67 106/70/67 105/69/67
f 106/70/67 107/71/67 105/69/67
f 106/70/67 108/72/67 107/71/67
f 108/72/67 109/73/67 107/71/67
f 108/72/67 110/74/68 109/73/67
f 110/74/68 111/75/65 109/73/67
f 110/74/68 112/76/69 111/75/65
f 115/77/70 114/78/70 113/79/70
f 116/80/70 115/77/70 113/79/70
f 119/81/71 118/82/71 117/83/71
f 120/84/71 119/81/71 117/83/71
f 123/85/72 122/86/72 121/87/72
f 124/88/72 123/85/72 121/87/72
f 127/89/73 126/90/73 125/91/73
f 128/92/73 127/89/73 125/91/73
f 131/93/74 130/94/74 129/95/74
f 132/96/74 131/93/74 129/95/74
f 135/97/75 134/98/75 133/99/75
f 136/100/75 135/97/75 133/99/75
f 139/101/76 138/102/76 137/103/76
f 140/104/76 139/101/76 137/103/76
f 143/105/77 142/106/78 141/107/78
f 144/108/77 143/105/77 141/107/78
f 147/109/79 146/110/79 145/111/79
f 148/112/79 147/109/79 145/111/79
f 151/113/80 150/114/80 149/115/80
f 152/116/80 151/113/80 149/115/80
f 155/117/81 154/118/81 153/119/81
f 156/120/81 155/117/81 153/119/81
f 159/121/82 158/122/82 157/123/82
f 160/124/82 159/121/82 157/123/82
f 163/125/83 162/126/83 161/127/83
f 164/128/83 163/125/83 161/127/83
f 167/129/84 166/130/84 165/131/84
f 168/132/84 167/129/84 165/131/84
f 171/133/85 170/134/85 169/135/85
f 172/136/85 171/133/85 169/135/85
f 175/137/86 174/138/86 173/139/86
f 176/140/86 175/137/86 173/139/86
f 179/141/87 178/142/87 177/143/87
f 177/143/87 180/144/88 179/141/87
f 180/144/88 181/145/87 179/141/87
f 180/144/88 182/146/87 181/145/87
f 182/146/87 183/147/87 181/145/87
f 182/146/87 184/148/87 183/147/87
f 184/148/87 185/149/87 183/147/87
f 184/148/87 186/150/87 185/149/87
f 186/150/87 187/151/87 185/149/87
f 186/150/87 188/152/88 187/151/87
f 188/152/88 189/153/87 187/151/87
f 188/152/88 190/154/87 189/153/87
f 190/154/87 191/155/87 189/153/87
f 190/154/87 192/156/87 191/155/87
f 195/157/65 194/158/68 193/159/67
f 193/159/67 196/160/67 195/157/65
f 193/159/67 197/161/68 196/160/67
f 197/161/68 198/162/65 196/160/67
f 197/161/68 199/163/89 198/162/65
f 199/163/89 200/164/69 198/162/65
f 203/165/90 202/166/90 201/167/90
f 204/168/90 203/165/90 201/167/90
f 207/169/91 206/170/91 205/171/91
f 208/172/91 207/169/91 205/171/91
f 211/173/92 210/174/92 209/175/92
f 212/176/92 211/173/92 209/175/92
f 215/177/93 214/178/93 213/179/93
f 216/180/93 215/177/93 213/179/93
f 219/181/94 218/182/95 217/183/87
f 217/183/87 220/184/88 219/181/94
f 217/183/87 221/185/95 220/184/88
f 221/185/95 222/186/87 220/184/88
f 221/185/95 223/187/96 222/186/87
f 223/187/96 224/188/88 222/186/87
f 227/189/97 226/190/98 225/191/99
f 228/192/100 227/189/97 225/191/99
f 231/193/101 230/194/102 229/195/103
f 1/3/3 231/193/101 229/195/103
f 2/2/2 231/193/101 1/3/3
f 234/196/104 233/197/105 232/198/106
f 235/199/107 234/196/104 232/198/106
f 238/200/108 237/201/109 236/202/110
f 239/203/111 238/200/108 236/202/110
f 242/204/112 241/205/113 240/206/114
f 243/207/115 242/204/112 240/206/114
f 246/208/116 245/209/117 244/210/118
f 247/211/119 246/208/116 244/210/118
f 250/212/120 249/213/121 248/214/122
f 251/215/123 250/212/120 248/214/122
f 254/216/124 253/217/125 252/218/126
f 255/219/127 254/216/124 252/218/126
f 258/220/128 257/221/129 256/222/130
f 259/223/131 258/220/128 256/222/130
f 262/224/132 261/225/133 260/226/134
f 263/227/135 262/224/132 260/226/134
f 264/228/136 262/224/132 263/227/135
f 4/6/6 264/228/136 263/227/135
f 5/5/5 264/228/136 4/6/6
f 265/229/137 5/5/5 6/4/4
f 266/230/138 265/229/137 6/4/4
f 269/231/139 268/232/140 267/233/141
f 270/234/142 269/231/139 267/233/141
f 273/235/143 272/236/144 271/237/145
f 274/238/146 273/235/143 271/237/145
f 274/238/146 271/237/145 275/239/147
f 276/240/148 274/238/146 275/239/147
f 276/240/148 275/239/147 277/241/149
f 278/242/150 276/240/148 277/241/149
f 281/243/151 280/244/152 279/245/153
f 282/246/154 281/243/151 279/245/153
f 285/247/155 284/248/156 283/249/157
f 286/250/158 285/247/155 283/249/157
f 289/251/159 288/252/160 287/253/161
f 290/254/162 289/251/159 287/253/161
f 291/255/163 13/11/11 11/13/13
f 291/255/163 11/13/13 292/256/164
f 293/257/165 291/255/163 292/256/164
f 293/257/165 292/256/164 294/258/166
f 295/259/167 293/257/165 294/258/166
f 298/260/168 297/261/169 296/262/170
f 299/263/171 298/260/168 296/262/170
f 302/264/172 301/265/173 300/266/174
f 303/267/175 302/264/172 300/266/174
f 303/267/175 300/266/174 304/268/176
f 305/269/177 303/267/175 304/268/176
f 308/270/178 307/271/179 306/272/180
f 309/273/181 308/270/178 306/272/180
f 312/274/182 311/275/183 310/276/184
f 313/277/185 312/274/182 310/276/184
f 316/278/186 315/279/187 314/280/188
f 317/281/189 316/278/186 314/280/188
f 320/282/190 319/283/191 318/284/192
f 321/285/193 320/282/190 318/284/192
f 321/285/193 318/284/192 322/286/194
f 323/287/195 321/285/193 322/286/194
f 323/287/195 322/286/194 324/288/196
f 325/289/197 323/287/195 324/288/196
f 328/290/198 327/291/199 326/292/200
f 329/293/201 328/290/198 326/292/200
f 332/294/202 331/295/203 330/296/204
f 333/297/205 332/294/202 330/296/204
f 333/297/205 330/296/204 334/298/206
f 19/19/19 333/297/205 334/298/206
f 19/19/19 334/298/206 18/20/20
f 337/299/207 336/300/208 335/301/209
f 338/302/210 337/299/207 335/301/209
f 341/303/211 340/304/212 339/305/213
f 342/306/214 341/303/211 339/305/213
f 345/307/215 344/308/216 343/309/217
f 346/310/218 345/307/215 343/309/217
f 349/311/219 348/312/220 347/313/221
f 350/314/222 349/311/219 347/313/221
f 350/314/222 347/313/221 351/315/223
f 352/316/224 350/314/222 351/315/223
f 352/316/224 351/315/223 353/317/225
f 354/318/226 352/316/224 353/317/225
f 357/319/227 356/320/228 355/321/229
f 358/322/230 357/319/227 355/321/229
f 361/323/231 360/324/232 359/325/233
f 362/326/234 361/323/231 359/325/233
f 362/326/234 359/325/233 363/327/235
f 364/328/236 362/326/234 363/327/235
f 367/329/237 366/330/238 365/331/239
f 368/332/240 367/329/237 365/331/239
f 371/333/241 370/334/242 369/335/243
f 372/336/244 371/333/241 369/335/243
f 375/337/245 374/338/246 373/339/247
f 376/340/248 375/337/245 373/339/247
f 379/341/249 378/342/250 377/343/251
f 380/344/252 379/341/249 377/343/251
f 383/345/253 382/346/254 381/347/255
f 384/348/256 383/345/253 381/347/255
f 387/349/257 386/350/258 385/351/259
f 388/352/260 387/349/257 385/351/259
f 391/353/261 390/354/262 389/355/263
f 392/356/264 391/353/261 389/355/263
f 395/357/265 394/358/266 393/359/267
f 396/360/268 395/357/265 393/359/267
f 399/361/269 398/362/270 397/363/271
f 400/364/272 399/361/269 397/363/271
f 403/365/273 402/366/274 401/367/275
f 404/368/276 403/365/273 401/367/275
f 407/369/277 406/370/278 405/371/279
f 408/372/280 407/369/277 405/371/279
f 411/373/281 410/374/282 409/375/283
f 412/376/284 411/373/281 409/375/283
f 415/377/285 414/378/286 413/379/287
f 416/380/288 415/377/285 413/379/287
f 419/381/289 418/382/290 417/383/291
f 420/384/292 419/381/289 417/383/291
f 423/385/293 422/386/294 421/387/295
f 424/388/296 423/385/293 421/387/295
f 427/389/297 426/390/298 425/391/299
f 428/392/300 427/389/297 425/391/299
f 431/393/301 430/394/302 429/395/303
f 432/396/304 431/393/301 429/395/303
f 435/397/305 434/398/306 433/399/307
f 436/400/308 435/397/305 433/399/307
f 439/401/309 438/402/310 437/403/311
f 440/404/312 439/401/309 437/403/311
f 443/405/313 442/406/314 441/407/315
f 444/408/316 443/405/313 441/407/315
f 447/409/317 446/410/318 445/411/319
f 448/412/320 447/409/317 445/411/319
f 451/413/321 450/414/322 449/415/323
f 452/416/324 451/413/321 449/415/323
f 455/417/325 454/418/326 453/419/327
f 456/420/328 455/417/325 453/419/327
f 459/421/329 458/422/330 457/423/331
f 460/424/332 459/421/329 457/423/331
f 463/425/333 462/426/334 461/427/335
f 464/428/336 463/425/333 461/427/335
f 467/429/337 466/430/338 465/431/339
f 468/432/340 467/429/337 465/431/339
f 471/433/341 470/434/342 469/435/343
f 472/436/344 471/433/341 469/435/343
f 475/437/345 474/438/346 473/439/347
f 476/440/348 475/437/345 473/439/347
f 479/441/349 478/442/350 477/443/351
f 478/442/350 480/444/352 477/443/351
f 478/442/350 481/445/353 480/444/352
f 481/445/353 482/446/354 480/444/352
f 485/447/355 484/448/356 483/449/357
f 486/450/358 485/447/355 483/449/357
f 489/451/359 488/452/360 487/453/361
f 490/454/362 489/451/359 487/453/361
f 493/455/363 492/456/364 491/457/365
f 494/458/366 493/455/363 491/457/365
f 497/459/367 496/460/368 495/461/369
f 498/462/370 497/459/367 495/461/369
f 501/463/371 500/464/372 499/465/373
f 500/464/372 502/466/374 499/465/373
f 500/464/372 503/467/375 502/466/374
f 503/467/375 504/468/376 502/466/374
f 503/467/375 505/469/377 504/468/376
f 505/469/377 506/470/378 504/468/376
f 505/469/377 507/471/379 506/470/378
f 507/471/379 508/472/380 506/470/378
f 511/473/381 510/474/382 509/475/383
f 512/476/384 511/473/381 509/475/383
f 515/477/385 514/478/386 513/479/387
f 516/480/388 515/477/385 513/479/387
f 519/189/97 518/190/389 517/191/390
f 520/192/391 519/189/97 517/191/390
f 523/193/101 522/194/102 521/195/103
f 49/3/3 523/193/101 521/195/103
f 50/2/2 523/193/101 49/3/3
f 526/196/392 525/197/393 524/198/106
f 527/199/107 526/196/392 524/198/106
f 530/481/108 529/482/109 528/202/110
f 531/203/111 530/481/108 528/202/110
f 534/204/112 533/205/113 532/206/114
f 535/207/394 534/204/112 532/206/114
f 538/483/395 537/484/117 536/210/118
f 539/211/396 538/483/395 536/210/118
f 542/212/397 541/213/398 540/214/122
f 543/215/399 542/212/397 540/214/122
f 546/216/400 545/217/125 544/218/126
f 547/219/127 546/216/400 544/218/126
f 550/485/401 549/486/402 548/222/403
f 551/223/404 550/485/401 548/222/403
f 554/224/405 553/225/133 552/226/134
f 555/227/135 554/224/405 552/226/134
f 556/228/136 554/224/405 555/227/135
f 52/6/6 556/228/136 555/227/135
f 53/5/50 556/228/136 52/6/6
f 557/229/137 53/5/50 54/4/4
f 558/230/406 557/229/137 54/4/4
f 561/231/139 560/232/140 559/233/141
f 562/234/407 561/231/139 559/233/141
f 565/235/143 564/236/408 563/237/145
f 566/238/409 565/235/143 563/237/145
f 566/238/409 563/237/145 567/239/147
f 568/240/148 566/238/409 567/239/147
f 568/240/148 567/239/147 569/241/149
f 570/242/410 568/240/148 569/241/149
f 573/243/151 572/244/152 571/487/153
f 574/488/154 573/243/151 571/487/153
f 577/247/155 576/248/411 575/249/157
f 578/250/412 577/247/155 575/249/157
f 581/251/159 580/252/160 579/253/161
f 582/254/413 581/251/159 579/253/161
f 583/489/163 61/11/11 59/49/51
f 583/489/163 59/49/51 584/256/164
f 585/257/165 583/489/163 584/256/164
f 585/257/165 584/256/164 586/258/166
f 587/259/414 585/257/165 586/258/166
f 590/260/168 589/261/415 588/262/170
f 591/263/171 590/260/168 588/262/170
f 594/264/416 593/265/417 592/266/418
f 595/267/419 594/264/416 592/266/418
f 595/267/419 592/266/418 596/268/420
f 597/269/421 595/267/419 596/268/420
f 600/270/422 599/271/423 598/272/424
f 601/273/425 600/270/422 598/272/424
f 604/490/426 603/491/183 602/492/184
f 605/493/427 604/490/426 602/492/184
f 608/494/428 607/495/429 606/496/430
f 609/497/431 608/494/428 606/496/430
f 612/282/190 611/283/191 610/284/432
f 613/285/433 612/282/190 610/284/432
f 613/285/433 610/284/432 614/286/434
f 615/287/435 613/285/433 614/286/434
f 615/287/435 614/286/434 616/498/436
f 617/499/197 615/287/435 616/498/436
f 620/290/198 619/291/199 618/292/437
f 621/293/438 620/290/198 618/292/437
f 624/294/202 623/295/203 622/296/204
f 625/297/205 624/294/202 622/296/204
f 625/297/205 622/296/204 626/500/439
f 67/54/54 625/297/205 626/500/439
f 67/54/54 626/500/439 66/20/20
f 629/299/440 628/300/441 627/501/442
f 630/502/443 629/299/440 627/501/442
f 633/503/211 632/504/212 631/505/444
f 634/506/445 633/503/211 631/505/444
f 637/307/446 636/308/447 635/507/448
f 638/508/449 637/307/446 635/507/448
f 641/311/450 640/312/451 639/313/221
f 642/314/222 641/311/450 639/313/221
f 642/314/222 639/313/221 643/509/223
f 644/510/452 642/314/222 643/509/223
f 644/510/452 643/509/223 645/317/225
f 646/318/226 644/510/452 645/317/225
f 649/511/227 648/512/228 647/513/453
f 650/514/454 649/511/227 647/513/453
f 653/323/455 652/324/456 651/325/457
f 654/326/458 653/323/455 651/325/457
f 654/326/458 651/325/457 655/327/459
f 656/328/460 654/326/458 655/327/459
f 659/329/461 658/330/462 657/331/463
f 660/332/464 659/329/461 657/331/463
f 663/333/241 662/334/242 661/335/243
f 664/336/244 663/333/241 661/335/243
f 667/515/465 666/516/466 665/517/467
f 668/518/468 667/515/465 665/517/467
f 671/519/249 670/520/250 669/521/251
f 672/522/469 671/519/249 669/521/251
f 675/523/253 674/524/254 673/525/255
f 676/526/256 675/523/253 673/525/255
f 679/349/257 678/350/470 677/351/259
f 680/352/471 679/349/257 677/351/259
f 683/353/261 682/354/262 681/355/263
f 684/356/264 683/353/261 681/355/263
f 687/527/265 686/528/472 685/529/267
f 688/530/268 687/527/265 685/529/267
f 691/531/269 690/532/473 689/363/269
f 692/364/272 691/531/269 689/363/269
f 695/533/273 694/534/274 693/535/275
f 696/536/474 695/533/273 693/535/275
f 699/537/475 698/538/476 697/539/279
f 700/540/280 699/537/475 697/539/279
f 703/541/477 702/542/478 701/375/479
f 704/376/284 703/541/477 701/375/479
f 707/543/285 706/544/286 705/545/287
f 708/546/480 707/543/285 705/545/287
f 711/547/481 710/548/482 709/549/483
f 712/550/484 711/547/481 709/549/483
f 715/385/485 714/386/294 713/387/295
f 716/388/486 715/385/485 713/387/295
f 719/551/297 718/552/487 717/553/299
f 720/554/488 719/551/297 717/553/299
f 723/555/301 722/556/302 721/557/303
f 724/558/489 723/555/301 721/557/303
f 727/559/305 726/560/490 725/561/307
f 728/562/491 727/559/305 725/561/307
f 731/401/309 730/402/310 729/403/492
f 732/404/312 731/401/309 729/403/492
f 735/563/313 734/564/493 733/565/315
f 736/566/316 735/563/313 733/565/315
f 739/567/317 738/568/318 737/569/319
f 740/570/494 739/567/317 737/569/319
f 743/571/495 742/572/496 741/573/497
f 744/574/324 743/571/495 741/573/497
f 747/417/325 746/418/498 745/419/499
f 748/420/500 747/417/325 745/419/499
f 751/421/501 750/422/330 749/423/502
f 752/424/503 751/421/501 749/423/502
f 755/425/504 754/426/505 753/427/506
f 756/428/507 755/425/504 753/427/506
f 759/575/508 758/576/509 757/577/510
f 760/578/340 759/575/508 757/577/510
f 763/433/341 762/434/511 761/435/343
f 764/436/344 763/433/341 761/435/343
f 767/579/512 766/580/346 765/581/347
f 768/582/513 767/579/512 765/581/347
f 771/583/349 770/584/350 769/585/351
f 770/584/350 772/444/514 769/585/351
f 770/584/350 773/586/353 772/444/514
f 773/586/353 774/587/515 772/444/514
f 777/588/516 776/589/517 775/590/357
f 778/591/518 777/588/516 775/590/357
f 781/592/519 780/593/520 779/594/361
f 782/595/362 781/592/519 779/594/361
f 785/596/363 784/597/521 783/598/365
f 786/599/366 785/596/363 783/598/365
f 789/459/367 788/460/368 787/461/522
f 790/462/370 789/459/367 787/461/522
f 793/600/371 792/601/372 791/602/373
f 792/601/372 794/603/374 791/602/373
f 792/601/372 795/604/375 794/603/374
f 795/604/375 796/605/376 794/603/374
f 795/604/375 797/606/523 796/605/376
f 797/606/523 798/607/378 796/605/376
f 797/606/523 799/608/379 798/607/378
f 799/608/379 800/609/380 798/607/378
f 803/610/524 802/611/525 801/612/526
f 804/613/527 803/610/524 801/612/526
f 807/477/528 806/478/386 805/479/387
f 808/480/388 807/477/528 805/479/387
f 811/614/529 810/615/530 809/616/530
f 812/617/529 811/614/529 809/616/530
f 815/618/531 814/619/532 813/620/533
f 816/621/531 815/618/531 813/620/533
f 819/622/534 818/623/534 817/624/534
f 820/625/534 819/622/534 817/624/534
f 823/626/535 822/627/536 821/628/536
f 824/629/535 823/626/535 821/628/536
f 827/630/537 826/631/538 825/632/539
f 828/633/540 827/630/537 825/632/539
f 826/631/538 827/630/537 829/634/541
f 828/633/540 825/632/539 830/635/542
f 831/636/543 826/631/538 829/634/541
f 832/637/544 828/633/540 830/635/542
f 829/634/541 833/638/545 831/636/543
f 832/637/544 830/635/542 834/639/546
f 833/638/545 835/640/547 831/636/543
f 836/641/548 832/637/544 834/639/546
f 835/640/547 833/638/545 837/642/549
f 834/639/546 838/643/550 836/641/548
f 839/644/551 835/640/547 837/642/549
f 838/643/550 840/645/552 836/641/548
f 837/642/549 840/645/552 839/644/551
f 840/645/552 838/643/550 839/644/551
f 843/646/553 842/647/554 841/648/555
f 844/649/556 843/646/553 841/648/555
f 842/647/554 843/646/553 845/650/557
f 844/649/556 841/648/555 846/651/558
f 847/652/559 842/647/554 845/650/557
f 848/653/560 844/649/556 846/651/558
f 845/650/557 849/654/561 847/652/559
f 848/653/560 846/651/558 850/655/562
f 849/654/561 851/656/563 847/652/559
f 852/657/564 848/653/560 850/655/562
f 851/656/563 849/654/561 853/658/565
f 850/655/562 854/659/566 852/657/564
f 855/660/567 851/656/563 853/658/565
f 854/659/566 856/661/568 852/657/564
f 853/658/565 856/661/568 855/660/567
f 856/661/568 854/659/566 855/660/567
f 3/1/1 2/2/2 1/3/3
f 6/4/4 5/5/5 4/6/6
f 9/7/7 8/8/8 7/9/9
f 10/10/10 9/7/7 7/9/9
f 13/11/11 12/12/12 11/13/13
f 16/14/14 15/15/15 14/16/16
f 17/17/17 16/14/14 14/16/16
f 20/18/18 19/19/19 18/20/20
f 23/21/21 22/22/22 21/23/23
f 24/24/24 23/21/21 21/23/23
f 27/25/25 26/26/26 25/27/27
f 28/28/28 27/25/25 25/27/27
f 27/25/25 29/29/29 26/26/26
f 29/29/29 30/30/30 26/26/26
f 29/29/29 31/31/31 30/30/30
f 31/31/31 32/32/32 30/30/30
f 35/33/33 34/34/34 33/35/35
f 36/36/36 35/33/33 33/35/35
f 39/37/37 38/38/38 37/39/39
f 40/40/40 39/37/37 37/39/39
f 43/41/41 42/42/42 41/43/43
f 44/44/44 43/41/41 41/43/43
f 47/45/45 46/46/46 45/47/47
f 48/48/48 47/45/45 45/47/47
f 51/1/49 50/2/2 49/3/3
f 54/4/4 53/5/50 52/6/6
f 57/7/7 56/8/8 55/9/9
f 58/10/10 57/7/7 55/9/9
f 61/11/11 60/12/12 59/49/51
f 64/50/52 63/51/53 62/52/16
f 65/53/17 64/50/52 62/52/16
f 68/18/18 67/54/54 66/20/20
f 71/21/21 70/22/55 69/23/23
f 72/24/24 71/21/21 69/23/23
f 75/25/56 74/26/57 73/27/58
f 76/28/28 75/25/56 73/27/58
f 75/25/56 77/29/59 74/26/57
f 77/29/59 78/30/60 74/26/57
f 77/29/59 79/55/31 78/30/60
f 79/55/31 80/56/61 78/30/60
f 83/33/33 82/34/34 81/35/35
f 84/36/62 83/33/33 81/35/35
f 87/37/37 86/38/38 85/39/39
f 88/40/40 87/37/37 85/39/39
f 91/41/41 90/42/63 89/43/43
f 92/44/64 91/41/41 89/43/43
f 95/57/45 94/58/46 93/59/47
f 96/60/48 95/57/45 93/59/47
f 99/61/65 98/62/66 97/63/67
f 97/63/67 100/64/67 99/61/65
f 100/64/67 101/65/67 99/61/65
f 100/64/67 102/66/67 101/65/67
f 102/66/67 103/67/67 101/65/67
f 102/66/67 104/68/67 103/67/67
f 104/68/67 105/69/67 103/67/67
f 104/68/67 106/70/67 105/69/67
f 106/70/67 107/71/67 105/69/67
f 106/70/67 108/72/67 107/71/67
f 108/72/67 109/73/67 107/71/67
f 108/72/67 110/74/68 109/73/67
f 110/74/68 111/75/65 109/73/67
f 110/74/68 112/76/69 111/75/65
f 115/77/70 114/78/70 113/79/70
f 116/80/70 115/77/70 113/79/70
f 119/81/71 118/82/71 117/83/71
f 120/84/71 119/81/71 117/83/71
f 123/85/72 122/86/72 121/87/72
f 124/88/72 123/85/72 121/87/72
f 127/89/73 126/90/73 125/91/73
f 128/92/73 127/89/73 125/91/73
f 131/93/74 130/94/74 129/95/74
f 132/96/74 131/93/74 129/95/74
f 135/97/75 134/98/75 133/99/75
f 136/100/75 135/97/75 133/99/75
f 139/101/76 138/102/76 137/103/76
f 140/104/76 139/101/76 137/103/76
f 143/105/77 142/106/78 141/107/78
f 144/108/77 143/105/77 141/107/78
f 147/109/79 146/110/79 145/111/79
f 148/112/79 147/109/79 145/111/79
f 151/113/80 150/114/80 149/115/80
f 152/116/80 151/113/80 149/115/80
f 155/117/81 154/118/81 153/119/81
f 156/120/81 155/117/81 153/119/81
f 159/121/82 158/122/82 157/123/82
f 160/124/82 159/121/82 157/123/82
f 163/125/83 162/126/83 161/127/83
f 164/128/83 163/125/83 161/127/83
f 167/129/84 166/130/84 165/131/84
f 168/132/84 167/129/84 165/131/84
f 171/133/85 170/134/85 169/135/85
f 172/136/85 171/133/85 169/135/85
f 175/137/86 174/138/86 173/139/86
f 176/140/86 175/137/86 173/139/86
f 179/141/87 178/142/87 177/143/87
f 177/143/87 180/144/88 179/141/87
f 180/144/88 181/145/87 179/141/87
f 180/144/88 182/146/87 181/145/87
f 182/146/87 183/147/87 181/145/87
f 182/146/87 184/148/87 183/147/87
f 184/148/87 185/149/87 183/147/87
f 184/148/87 186/150/87 185/149/87
f 186/150/87 187/151/87 185/149/87
f 186/150/87 188/152/88 187/151/87
f 188/152/88 189/153/87 187/151/87
f 188/152/88 190/154/87 189/153/87
f 190/154/87 191/155/87 189/153/87
f 190/154/87 192/156/87 191/155/87
f 195/157/65 194/158/68 193/159/67
f 193/159/67 196/160/67 195/157/65
f 193/159/67 197/161/68 196/160/67
f 197/161/68 198/162/65 196/160/67
f 197/161/68 199/163/89 198/162/65
f 199/163/89 200/164/69 198/162/65
f 203/165/90 202/166/90 201/167/90
f 204/168/90 203/165/90 201/167/90
f 207/169/91 206/170/91 205/171/91
f 208/172/91 207/169/91 205/171/91
f 211/173/92 210/174/92 209/175/92
f 212/176/92 211/173/92 209/175/92
f 215/177/93 214/178/93 213/179/93
f 216/180/93 215/177/93 213/179/93
f 219/181/94 218/182/95 217/183/87
f 217/183/87 220/184/88 219/181/94
f 217/183/87 221/185/95 220/184/88
f 221/185/95 222/186/87 220/184/88
f 221/185/95 223/187/96 222/186/87
f 223/187/96 224/188/88 222/186/87
f 227/189/97 226/190/98 225/191/99
f 228/192/100 227/189/97 225/191/99
f 231/193/101 230/194/102 229/195/103
f 1/3/3 231/193/101 229/195/103
f 2/2/2 231/193/101 1/3/3
f 234/196/104 233/197/105 232/198/106
f 235/199/107 234/196/104 232/198/106
f 238/200/108 237/201/109 236/202/110
f 239/203/111 238/200/108 236/202/110
f 242/204/112 241/205/113 240/206/114
f 243/207/115 242/204/112 240/206/114
f 246/208/116 245/209/117 244/210/118
f 247/211/119 246/208/116 244/210/118
f 250/212/120 249/213/121 248/214/122
f 251/215/123 250/212/120 248/214/122
f 254/216/124 253/217/125 252/218/126
f 255/219/127 254/216/124 252/218/126
f 258/220/128 257/221/129 256/222/130
f 259/223/131 258/220/128 256/222/130
f 262/224/132 261/225/133 260/226/134
f 263/227/135 262/224/132 260/226/134
f 264/228/136 262/224/132 263/227/135
f 4/6/6 264/228/136 263/227/135
f 5/5/5 264/228/136 4/6/6
f 265/229/137 5/5/5 6/4/4
f 266/230/138 265/229/137 6/4/4
f 269/231/139 268/232/140 267/233/141
f 270/234/142 269/231/139 267/233/141
f 273/235/143 272/236/144 271/237/145
f 274/238/146 273/235/143 271/237/145
f 274/238/146 271/237/145 275/239/147
f 276/240/148 274/238/146 275/239/147
f 276/240/148 275/239/147 277/241/149
f 278/242/150 276/240/148 277/241/149
f 281/243/151 280/244/152 279/245/153
f 282/246/154 281/243/151 279/245/153
f 285/247/155 284/248/156 283/249/157
f 286/250/158 285/247/155 283/249/157
f 289/251/159 288/252/160 287/253/161
f 290/254/162 289/251/159 287/253/161
f 291/255/163 13/11/11 11/13/13
f 291/255/163 11/13/13 292/256/164
f 293/257/165 291/255/163 292/256/164
f 293/257/165 292/256/164 294/258/166
f 295/259/167 293/257/165 294/258/166
f 298/260/168 297/261/169 296/262/170
f 299/263/171 298/260/168 296/262/170
f 302/264/172 301/265/173 300/266/174
f 303/267/175 302/264/172 300/266/174
f 303/267/175 300/266/174 304/268/176
f 305/269/177 303/267/175 304/268/176
f 308/270/178 307/271/179 306/272/180
f 309/273/181 308/270/178 306/272/180
f 312/274/182 311/275/183 310/276/184
f 313/277/185 312/274/182 310/276/184
f 316/278/186 315/279/187 314/280/188
f 317/281/189 316/278/186 314/280/188
f 320/282/190 319/283/191 318/284/192
f 321/285/193 320/282/190 318/284/192
f 321/285/193 318/284/192 322/286/194
f 323/287/195 321/285/193 322/286/194
f 323/287/195 322/286/194 324/288/196
f 325/289/197 323/287/195 324/288/196
f 328/290/198 327/291/199 326/292/200
f 329/293/201 328/290/198 326/292/200
f 332/294/202 331/295/203 330/296/204
f 333/297/205 332/294/202 330/296/204
f 333/297/205 330/296/204 334/298/206
f 19/19/19 333/297/205 334/298/206
f 19/19/19 334/298/206 18/20/20
f 337/299/207 336/300/208 335/301/209
f 338/302/210 337/299/207 335/301/209
f 341/303/211 340/304/212 339/305/213
f 342/306/214 341/303/211 339/305/213
f 345/307/215 344/308/216 343/309/217
f 346/310/218 345/307/215 343/309/217
f 349/311/219 348/312/220 347/313/221
f 350/314/222 349/311/219 347/313/221
f 350/314/222 347/313/221 351/315/223
f 352/316/224 350/314/222 351/315/223
f 352/316/224 351/315/223 353/317/225
f 354/318/226 352/316/224 353/317/225
f 357/319/227 356/320/228 355/321/229
f 358/322/230 357/319/227 355/321/229
f 361/323/231 360/324/232 359/325/233
f 362/326/234 361/323/231 359/325/233
f 362/326/234 359/325/233 363/327/235
f 364/328/236 362/326/234 363/327/235
f 367/329/237 366/330/238 365/331/239
f 368/332/240 367/329/237 365/331/239
f 371/333/241 370/334/242 369/335/243
f 372/336/244 371/333/241 369/335/243
f 375/337/245 374/338/246 373/339/247
f 376/340/248 375/337/245 373/339/247
f 379/341/249 378/342/250 377/343/251
f 380/344/252 379/341/249 377/343/251
f 383/345/253 382/346/254 381/347/255
f 384/348/256 383/345/253 381/347/255
f 387/349/257 386/350/258 385/351/259
f 388/352/260 387/349/257 385/351/259
f 391/353/261 390/354/262 389/355/263
f 392/356/264 391/353/261 389/355/263
f 395/357/265 394/358/266 393/359/267
f 396/360/268 395/357/265 393/359/267
f 399/361/269 398/362/270 397/363/271
f 400/364/272 399/361/269 397/363/271
f 403/365/273 402/366/274 401/367/275
f 404/368/276 403/365/273 401/367/275
f 407/369/277 406/370/278 405/371/279
f 408/372/280 407/369/277 405/371/279
f 411/373/281 410/374/282 409/375/283
f 412/376/284 411/373/281 409/375/283
f 415/377/285 414/378/286 413/379/287
f 416/380/288 415/377/285 413/379/287
f 419/381/289 418/382/290 417/383/291
f 420/384/292 419/381/289 417/383/291
f 423/385/293 422/386/294 421/387/295
f 424/388/296 423/385/293 421/387/295
f 427/389/297 426/390/298 425/391/299
f 428/392/300 427/389/297 425/391/299
f 431/393/301 430/394/302 429/395/303
f 432/396/304 431/393/301 429/395/303
f 435/397/305 434/398/306 433/399/307
f 436/400/308 435/397/305 433/399/307
f 439/401/309 438/402/310 437/403/311
f 440/404/312 439/401/309 437/403/311
f 443/405/313 442/406/314 441/407/315
f 444/408/316 443/405/313 441/407/315
f 447/409/317 446/410/318 445/411/319
f 448/412/320 447/409/317 445/411/319
f 451/413/321 450/414/322 449/415/323
f 452/416/324 451/413/321 449/415/323
f 455/417/325 454/418/326 453/419/327
f 456/420/328 455/417/325 453/419/327
f 459/421/329 458/422/330 457/423/331
f 460/424/332 459/421/329 457/423/331
f 463/425/333 462/426/334 461/427/335
f 464/428/336 463/425/333 461/427/335
f 467/429/337 466/430/338 465/431/339
f 468/432/340 467/429/337 465/431/339
f 471/433/341 470/434/342 469/435/343
f 472/436/344 471/433/341 469/435/343
f 475/437/345 474/438/346 473/439/347
f 476/440/348 475/437/345 473/439/347
f 479/441/349 478/442/350 477/443/351
f 478/442/350 480/444/352 477/443/351
f 478/442/350 481/445/353 480/444/352
f 481/445/353 482/446/354 480/444/352
f 485/447/355 484/448/356 483/449/357
f 486/450/358 485/447/355 483/449/357
f 489/451/359 488/452/360 487/453/361
f 490/454/362 489/451/359 487/453/361
f 493/455/363 492/456/364 491/457/365
f 494/458/366 493/455/363 491/457/365
f 497/459/367 496/460/368 495/461/369
f 498/462/370 497/459/367 495/461/369
f 501/463/371 500/464/372 499/465/373
f 500/464/372 502/466/374 499/465/373
f 500/464/372 503/467/375 502/466/374
f 503/467/375 504/468/376 502/466/374
f 503/467/375 505/469/377 504/468/376
f 505/469/377 506/470/378 504/468/376
f 505/469/377 507/471/379 506/470/378
f 507/471/379 508/472/380 506/470/378
f 511/473/381 510/474/382 509/475/383
f 512/476/384 511/473/381 509/475/383
f 515/477/385 514/478/386 513/479/387
f 516/480/388 515/477/385 513/479/387
f 519/189/97 518/190/389 517/191/390
f 520/192/391 519/189/97 517/191/390
f 523/193/101 522/194/102 521/195/103
f 49/3/3 523/193/101 521/195/103
f 50/2/2 523/193/101 49/3/3
f 526/196/392 525/197/393 524/198/106
f 527/199/107 526/196/392 524/198/106
f 530/481/108 529/482/109 528/202/110
f 531/203/111 530/481/108 528/202/110
f 534/204/112 533/205/113 532/206/114
f 535/207/394 534/204/112 532/206/114
f 538/483/395 537/484/117 536/210/118
f 539/211/396 538/483/395 536/210/118
f 542/212/397 541/213/398 540/214/122
f 543/215/399 542/212/397 540/214/122
f 546/216/400 545/217/125 544/218/126
f 547/219/127 546/216/400 544/218/126
f 550/485/401 549/486/402 548/222/403
f 551/223/404 550/485/401 548/222/403
f 554/224/405 553/225/133 552/226/134
f 555/227/135 554/224/405 552/226/134
f 556/228/136 554/224/405 555/227/135
f 52/6/6 556/228/136 555/227/135
f 53/5/50 556/228/136 52/6/6
f 557/229/137 53/5/50 54/4/4
f 558/230/406 557/229/137 54/4/4
f 561/231/139 560/232/140 559/233/141
f 562/234/407 561/231/139 559/233/141
f 565/235/143 564/236/408 563/237/145
f 566/238/409 565/235/143 563/237/145
f 566/238/409 563/237/145 567/239/147
f 568/240/148 566/238/409 567/239/147
f 568/240/148 567/239/147 569/241/149
f 570/242/410 568/240/148 569/241/149
f 573/243/151 572/244/152 571/487/153
f 574/488/154 573/243/151 571/487/153
f 577/247/155 576/248/411 575/249/157
f 578/250/412 577/247/155 575/249/157
f 581/251/159 580/252/160 579/253/161
f 582/254/413 581/251/159 579/253/161
f 583/489/163 61/11/11 59/49/51
f 583/489/163 59/49/51 584/256/164
f 585/257/165 583/489/163 584/256/164
f 585/257/165 584/256/164 586/258/166
f 587/259/414 585/257/165 586/258/166
f 590/260/168 589/261/415 588/262/170
f 591/263/171 590/260/168 588/262/170
f 594/264/416 593/265/417 592/266/418
f 595/267/419 594/264/416 592/266/418
f 595/267/419 592/266/418 596/268/420
f 597/269/421 595/267/419 596/268/420
f 600/270/422 599/271/423 598/272/424
f 601/273/425 600/270/422 598/272/424
f 604/490/426 603/491/183 602/492/184
f 605/493/427 604/490/426 602/492/184
f 608/494/428 607/495/429 606/496/430
f 609/497/431 608/494/428 606/496/430
f 612/282/190 611/283/191 610/284/432
f 613/285/433 612/282/190 610/284/432
f 613/285/433 610/284/432 614/286/434
f 615/287/435 613/285/433 614/286/434
f 615/287/435 614/286/434 616/498/436
f 617/499/197 615/287/435 616/498/436
f 620/290/198 619/291/199 618/292/437
f 621/293/438 620/290/198 618/292/437
f 624/294/202 623/295/203 622/296/204
f 625/297/205 624/294/202 622/296/204
f 625/297/205 622/296/204 626/500/439
f 67/54/54 625/297/205 626/500/439
f 67/54/54 626/500/439 66/20/20
f 629/299/440 628/300/441 627/501/442
f 630/502/443 629/299/440 627/501/442
f 633/503/211 632/504/212 631/505/444
f 634/506/445 633/503/211 631/505/444
f 637/307/446 636/308/447 635/507/448
f 638/508/449 637/307/446 635/507/448
f 641/311/450 640/312/451 639/313/221
f 642/314/222 641/311/450 639/313/221
f 642/314/222 639/313/221 643/509/223
f 644/510/452 642/314/222 643/509/223
f 644/510/452 643/509/223 645/317/225
f 646/318/226 644/510/452 645/317/225
f 649/511/227 648/512/228 647/513/453
f 650/514/454 649/511/227 647/513/453
f 653/323/455 652/324/456 651/325/457
f 654/326/458 653/323/455 651/325/457
f 654/326/458 651/325/457 655/327/459
f 656/328/460 654/326/458 655/327/459
f 659/329/461 658/330/462 657/331/463
f 660/332/464 659/329/461 657/331/463
f 663/333/241 662/334/242 661/335/243
f 664/336/244 663/333/241 661/335/243
f 667/515/465 666/516/466 665/517/467
f 668/518/468 667/515/465 665/517/467
f 671/519/249 670/520/250 669/521/251
f 672/522/469 671/519/249 669/521/251
f 675/523/253 674/524/254 673/525/255
f 676/526/256 675/523/253 673/525/255
f 679/349/257 678/350/470 677/351/259
f 680/352/471 679/349/257 677/351/259
f 683/353/261 682/354/262 681/355/263
f 684/356/264 683/353/261 681/355/263
f 687/527/265 686/528/472 685/529/267
f 688/530/268 687/527/265 685/529/267
f 691/531/269 690/532/473 689/363/269
f 692/364/272 691/531/269 689/363/269
f 695/533/273 694/534/274 693/535/275
f 696/536/474 695/533/273 693/535/275
f 699/537/475 698/538/476 697/539/279
f 700/540/280 699/537/475 697/539/279
f 703/541/477 702/542/478 701/375/479
f 704/376/284 703/541/477 701/375/479
f 707/543/285 706/544/286 705/545/287
f 708/546/480 707/543/285 705/545/287
f 711/547/481 710/548/482 709/549/483
f 712/550/484 711/547/481 709/549/483
f 715/385/485 714/386/294 713/387/295
f 716/388/486 715/385/485 713/387/295
f 719/551/297 718/552/487 717/553/299
f 720/554/488 719/551/297 717/553/299
f 723/555/301 722/556/302 721/557/303
f 724/558/489 723/555/301 721/557/303
f 727/559/305 726/560/490 725/561/307
f 728/562/491 727/559/305 725/561/307
f 731/401/309 730/402/310 729/403/492
f 732/404/312 731/401/309 729/403/492
f 735/563/313 734/564/493 733/565/315
f 736/566/316 735/563/313 733/565/315
f 739/567/317 738/568/318 737/569/319
f 740/570/494 739/567/317 737/569/319
f 743/571/495 742/572/496 741/573/497
f 744/574/324 743/571/495 741/573/497
f 747/417/325 746/418/498 745/419/499
f 748/420/500 747/417/325 745/419/499
f 751/421/501 750/422/330 749/423/502
f 752/424/503 751/421/501 749/423/502
f 755/425/504 754/426/505 753/427/506
f 756/428/507 755/425/504 753/427/506
f 759/575/508 758/576/509 757/577/510
f 760/578/340 759/575/508 757/577/510
f 763/433/341 762/434/511 761/435/343
f 764/436/344 763/433/341 761/435/343
f 767/579/512 766/580/346 765/581/347
f 768/582/513 767/579/512 765/581/347
f 771/583/349 770/584/350 769/585/351
f 770/584/350 772/444/514 769/585/351
f 770/584/350 773/586/353 772/444/514
f 773/586/353 774/587/515 772/444/514
f 777/588/516 776/589/517 775/590/357
f 778/591/518 777/588/516 775/590/357
f 781/592/519 780/593/520 779/594/361
f 782/595/362 781/592/519 779/594/361
f 785/596/363 784/597/521 783/598/365
f 786/599/366 785/596/363 783/598/365
f 789/459/367 788/460/368 787/461/522
f 790/462/370 789/459/367 787/461/522
f 793/600/371 792/601/372 791/602/373
f 792/601/372 794/603/374 791/602/373
f 792/601/372 795/604/375 794/603/374
f 795/604/375 796/605/376 794/603/374
f 795/604/375 797/606/523 796/605/376
f 797/606/523 798/607/378 796/605/376
f 797/606/523 799/608/379 798/607/378
f 799/608/379 800/609/380 798/607/378
f 803/610/524 802/611/525 801/612/526
f 804/613/527 803/610/524 801/612/526
f 807/477/528 806/478/386 805/479/387
f 808/480/388 807/477/528 805/479/387
f 811/614/529 810/615/530 809/616/530
f 812/617/529 811/614/529 809/616/530
f 815/618/531 814/619/532 813/620/533
f 816/621/531 815/618/531 813/620/533
f 819/622/534 818/623/534 817/624/534
f 820/625/534 819/622/534 817/624/534
f 823/626/535 822/627/536 821/628/536
f 824/629/535 823/626/535 821/628/536
f 827/630/537 826/631/538 825/632/539
f 828/633/540 827/630/537 825/632/539
f 826/631/538 827/630/537 829/634/541
f 828/633/540 825/632/539 830/635/542
f 831/636/543 826/631/538 829/634/541
f 832/637/544 828/633/540 830/635/542
f 829/634/541 833/638/545 831/636/543
f 832/637/544 830/635/542 834/639/546
f 833/638/545 835/640/547 831/636/543
f 836/641/548 832/637/544 834/639/546
f 835/640/547 833/638/545 837/642/549
f 834/639/546 838/643/550 836/641/548
f 839/644/551 835/640/547 837/642/549
f 838/643/550 840/645/552 836/641/548
f 837/642/549 840/645/552 839/644/551
f 840/645/552 838/643/550 839/644/551
f 843/646/553 842/647/554 841/648/555
f 844/649/556 843/646/553 841/648/555
f 842/647/554 843/646/553 845/650/557
f 844/649/556 841/648/555 846/651/558
f 847/652/559 842/647/554 845/650/557
f 848/653/560 844/649/556 846/651/558
f 845/650/557 849/654/561 847/652/559
f 848/653/560 846/651/558 850/655/562
f 849/654/561 851/656/563 847/652/559
f 852/657/564 848/653/560 850/655/562
f 851/656/563 849/654/561 853/658/565
f 850/655/562 854/659/566 852/657/564
f 855/660/567 851/656/563 853/658/565
f 854/659/566 856/661/568 852/657/564
f 853/658/565 856/661/568 855/660/567
f 856/661/568 854/659/566 855/660/567
