mtllib Cabinet_07bf9f23.mtl
v -0.00364 -0.37363 0.027
v 0.085 -0.375 0.02541
v -0.005 -0.375 0.02541
v 0.085 -0.37368 0.027
v 0.37501 -0.375 0.02551
v 0.37501 -0.37368 0.0271
v 0.46501 -0.375 0.02551
v 0.46363 -0.37363 0.0271
v 0.37501 -0.375 0.00011
v 0.46501 -0.375 0.02551
v 0.46501 -0.375 0.00011
v 0.37501 -0.375 0.02551
v 0.085 -0.375 0.02541
v 0.085 -0.375 1E-05
v -0.005 -0.375 1E-05
v -0.005 -0.375 0.02541
v 0.46363 -0.37363 0.0271
v 0.46501 -0.285 0.02551
v 0.46501 -0.375 0.02551
v 0.46369 -0.285 0.0271
v 0.46501 0.285 0.02551
v 0.46369 0.285 0.0271
v 0.46501 0.37501 0.02551
v 0.46363 0.37368 0.0271
v 0.46501 0.285 0.00011
v 0.46501 0.37501 0.02551
v 0.46501 0.37501 0.00011
v 0.46501 0.285 0.02551
v 0.46501 -0.285 0.02551
v 0.46501 -0.285 0.00011
v 0.46501 -0.375 0.00011
v 0.46501 -0.375 0.02551
v 0.37501 0.37501 0.02551
v 0.46501 0.37501 0.02551
v 0.46363 0.37368 0.0271
v 0.37501 0.37365 0.0271
v 0.085 0.37501 0.02541
v 0.085 0.37365 0.027
v -0.005 0.37501 0.02541
v -0.00364 0.37368 0.027
v 0.085 0.37501 1E-05
v -0.005 0.37501 0.02541
v -0.005 0.37501 1E-05
v 0.085 0.37501 0.02541
v 0.37501 0.37501 0.02551
v 0.37501 0.37501 0.00011
v 0.46501 0.37501 0.00011
v 0.46501 0.37501 0.02551
v -0.005 0.28501 0.02541
v -0.005 0.37501 0.02541
v -0.00364 0.37368 0.027
v -0.00366 0.28501 0.027
v -0.005 -0.285 0.02541
v -0.00366 -0.285 0.027
v -0.005 -0.375 0.02541
v -0.00364 -0.37363 0.027
v -0.005 0.37501 1E-05
v -0.005 0.37501 0.02541
v -0.005 0.28501 0.02541
v -0.005 0.28501 1E-05
v -0.005 -0.285 1E-05
v -0.005 -0.285 0.02541
v -0.005 -0.375 0.02541
v -0.005 -0.375 1E-05
v 0.05081 0.3192 0.02528
v 0.04916 0.285 0.027
v 0.04918 0.32083 0.027
v 0.05082 0.28501 0.02527
v 0.04916 -0.28499 0.027
v 0.05082 -0.285 0.02527
v 0.04918 -0.32081 0.027
v 0.05081 -0.31919 0.02528
v 0.0523 0.28501 0.01301
v 0.05081 0.3192 0.02528
v 0.0523 0.31771 0.01301
v 0.05082 0.28501 0.02527
v 0.05082 -0.285 0.02527
v 0.0523 -0.285 0.01301
v 0.0523 -0.3177 0.01301
v 0.05081 -0.31919 0.02528
v 0.085 0.31919 0.02527
v 0.05081 0.3192 0.02528
v 0.04918 0.32083 0.027
v 0.08501 0.32085 0.027
v 0.37501 0.31919 0.02537
v 0.375 0.32085 0.0271
v 0.4092 0.3192 0.02538
v 0.41089 0.32083 0.0271
v 0.0523 0.31771 0.01301
v 0.05081 0.3192 0.02528
v 0.085 0.31919 0.02527
v 0.085 0.31771 0.01301
v 0.37501 0.31771 0.0131
v 0.37501 0.31919 0.02537
v 0.4092 0.3192 0.02538
v 0.40771 0.31771 0.0131
v 0.40919 0.285 0.02537
v 0.4092 0.3192 0.02538
v 0.41089 0.32083 0.0271
v 0.4108 0.285 0.0271
v 0.40919 -0.285 0.02537
v 0.4108 -0.28499 0.0271
v 0.4092 -0.31919 0.02538
v 0.41089 -0.32081 0.0271
v 0.40771 0.31771 0.0131
v 0.4092 0.3192 0.02538
v 0.40919 0.285 0.02537
v 0.40771 0.285 0.0131
v 0.40771 -0.285 0.0131
v 0.40919 -0.285 0.02537
v 0.4092 -0.31919 0.02538
v 0.40771 -0.3177 0.0131
v 0.37501 -0.31918 0.02537
v 0.4092 -0.31919 0.02538
v 0.41089 -0.32081 0.0271
v 0.375 -0.32085 0.0271
v 0.085 -0.31918 0.02527
v 0.08501 -0.32085 0.027
v 0.05081 -0.31919 0.02528
v 0.04918 -0.32081 0.027
v 0.40771 -0.3177 0.0131
v 0.4092 -0.31919 0.02538
v 0.37501 -0.31918 0.02537
v 0.37501 -0.3177 0.0131
v 0.085 -0.3177 0.01301
v 0.085 -0.31918 0.02527
v 0.05081 -0.31919 0.02528
v 0.0523 -0.3177 0.01301
v 0.40771 0.285 0.0131
v 0.37501 0.31771 0.0131
v 0.40771 0.31771 0.0131
v 0.37501 0.285 0.0131
v 0.085 0.31771 0.01301
v 0.37501 -0.285 0.0131
v 0.40771 -0.285 0.0131
v 0.40771 -0.3177 0.0131
v 0.37501 -0.3177 0.0131
v 0.085 0.28501 0.01301
v 0.0523 0.31771 0.01301
v 0.0523 0.28501 0.01301
v 0.0523 -0.285 0.01301
v 0.085 -0.285 0.01301
v 0.085 -0.3177 0.01301
v 0.0523 -0.3177 0.01301
v 0.37501 0.37501 0.00011
v 0.46501 0.285 0.00011
v 0.46501 0.37501 0.00011
v 0.37501 0.285 0.00011
v 0.46501 -0.285 0.00011
v 0.085 0.28501 1E-05
v 0.085 0.37501 1E-05
v -0.005 0.37501 1E-05
v -0.005 0.28501 1E-05
v 0.37501 -0.285 0.00011
v 0.46501 -0.375 0.00011
v 0.37501 -0.375 0.00011
v 0.085 -0.375 1E-05
v 0.085 -0.285 1E-05
v -0.005 -0.285 1E-05
v -0.005 -0.375 1E-05
v 0.04918 0.32083 0.027
v 0.04916 0.285 0.027
v -0.00366 0.28501 0.027
v -0.00364 0.37368 0.027
v -0.00366 -0.285 0.027
v 0.08501 0.32085 0.027
v 0.04916 -0.28499 0.027
v 0.085 0.37365 0.027
v -0.00364 -0.37363 0.027
v 0.375 0.32085 0.0271
v 0.04918 -0.32081 0.027
v 0.37501 0.37365 0.0271
v 0.085 -0.37368 0.027
v 0.41089 0.32083 0.0271
v 0.08501 -0.32085 0.027
v 0.46363 0.37368 0.0271
v 0.37501 -0.37368 0.0271
v 0.4108 0.285 0.0271
v 0.375 -0.32085 0.0271
v 0.46369 0.285 0.0271
v 0.46363 -0.37363 0.0271
v 0.4108 -0.28499 0.0271
v 0.41089 -0.32081 0.0271
v 0.46369 -0.285 0.0271
vt 1.90942 2.815525
vt 1.966105 2.812979
vt 1.908556 2.812979
vt 1.966106 2.815525
vt 2.151542 2.813138
vt 2.151542 2.815684
vt 2.209092 2.813138
vt 2.208214 2.815684
vt 2.151542 2.772711
vt 2.209092 2.813138
vt 2.209092 2.772711
vt 2.151542 2.813138
vt 1.966105 2.812979
vt 1.966105 2.772552
vt 1.908556 2.772552
vt 1.908556 2.812979
vt 2.183802 1.091096
vt 2.186419 1.146233
vt 2.186419 1.090245
vt 2.183802 1.146233
vt 2.186419 1.500825
vt 2.183802 1.500825
vt 2.186419 1.556813
vt 2.183802 1.555987
vt 2.227962 1.500825
vt 2.186419 1.556813
vt 2.227962 1.556813
vt 2.186419 1.500825
vt 2.186419 1.146233
vt 2.227962 1.146233
vt 2.227962 1.090245
vt 2.186419 1.090245
vt 3.730793 2.813141
vt 3.673233 2.813141
vt 3.67411 2.815689
vt 3.730793 2.815689
vt 3.916266 2.812982
vt 3.916266 2.815529
vt 3.973827 2.812982
vt 3.972963 2.815529
vt 3.916266 2.772547
vt 3.973827 2.812982
vt 3.973827 2.772547
vt 3.916266 2.812982
vt 3.730793 2.813141
vt 3.730793 2.772707
vt 3.673233 2.772707
vt 3.673233 2.813141
vt 1.931232 1.500859
vt 1.931232 1.556858
vt 1.93385 1.556031
vt 1.93385 1.500859
vt 1.931233 1.146199
vt 1.93385 1.146199
vt 1.931233 1.090201
vt 1.93385 1.091052
vt 1.88968 1.556858
vt 1.931232 1.556858
vt 1.931232 1.500859
vt 1.88968 1.500859
vt 1.88968 1.146199
vt 1.931233 1.146199
vt 1.931233 1.090201
vt 1.88968 1.090201
vt 4.252725 1.324613
vt 4.248807 1.308744
vt 4.248807 1.325372
vt 4.252747 1.308745
vt 4.248807 1.044194
vt 4.252747 1.044194
vt 4.248807 1.027569
vt 4.252725 1.028325
vt 4.280605 1.308745
vt 4.252725 1.324613
vt 4.280605 1.323922
vt 4.252747 1.308745
vt 4.252747 1.044194
vt 4.280605 1.044194
vt 4.280605 1.029017
vt 4.252725 1.028325
vt 1.701844 3.100921
vt 1.687024 3.100944
vt 1.686315 3.105139
vt 1.701844 3.105139
vt 1.827545 3.101164
vt 1.827545 3.105382
vt 1.842364 3.101188
vt 1.843097 3.105382
vt 1.68767 3.071087
vt 1.687024 3.100944
vt 1.701844 3.100921
vt 1.701844 3.071087
vt 1.827545 3.071331
vt 1.827545 3.101164
vt 1.842364 3.101188
vt 1.841718 3.071331
vt 4.57077 1.308593
vt 4.570792 1.324443
vt 4.574705 1.325201
vt 4.574705 1.308593
vt 4.57077 1.044345
vt 4.574705 1.044345
vt 4.570792 1.028495
vt 4.574705 1.02774
vt 4.542943 1.323752
vt 4.570792 1.324443
vt 4.57077 1.308593
vt 4.542943 1.308593
vt 4.542943 1.044345
vt 4.57077 1.044345
vt 4.570792 1.028495
vt 4.542943 1.029186
vt 2.878326 3.101166
vt 2.863504 3.10119
vt 2.862771 3.105386
vt 2.878327 3.105386
vt 3.00405 3.100924
vt 3.00405 3.105143
vt 3.018872 3.100947
vt 3.019582 3.105143
vt 2.864151 3.071327
vt 2.863504 3.10119
vt 2.878326 3.101166
vt 2.878326 3.071327
vt 3.00405 3.071084
vt 3.00405 3.100924
vt 3.018872 3.100947
vt 3.018226 3.071084
vt 0.754234 4.12862
vt 0.7236873 4.163625
vt 0.754234 4.163625
vt 0.7236873 4.12862
vt 0.452783 4.163625
vt 0.7236873 3.518439
vt 0.754234 3.518439
vt 0.754234 3.483434
vt 0.7236873 3.483434
vt 0.452783 4.12862
vt 0.4222362 4.163625
vt 0.4222362 4.12862
vt 0.4222364 3.518439
vt 0.4527831 3.518439
vt 0.4527831 3.483434
vt 0.4222364 3.483434
vt 0.7336031 1.689076
vt 0.6412754 1.601345
vt 0.6412754 1.689076
vt 0.7336031 1.601345
vt 0.6412754 1.045713
vt 1.031103 1.601345
vt 1.031103 1.689076
vt 1.12343 1.689076
vt 1.12343 1.601345
vt 0.7336031 1.045713
vt 0.6412754 0.9579822
vt 0.7336031 0.9579822
vt 1.031103 0.9579823
vt 1.031103 1.045714
vt 1.12343 1.045714
vt 1.12343 0.9579823
vt 3.049584 1.635945
vt 3.049562 1.601058
vt 2.995319 1.601058
vt 2.995339 1.687403
vt 2.995319 1.046013
vt 3.086377 1.635968
vt 3.049562 1.046014
vt 3.086377 1.687378
vt 2.995339 0.959707
vt 3.384189 1.635968
vt 3.049584 1.011134
vt 3.38419 1.687378
vt 3.086377 0.9596558
vt 3.421037 1.635945
vt 3.086377 1.011097
vt 3.475206 1.687403
vt 3.38419 0.9596555
vt 3.420949 1.601058
vt 3.384189 1.011097
vt 3.475268 1.601058
vt 3.475206 0.9597068
vt 3.420949 1.046014
vt 3.421037 1.011134
vt 3.475268 1.046013
vn -0.0004581767 -0.7722542 0.6353134
vn -0.000274556 -0.7722536 0.6353143
vn 0 -0.759851 0.6500973
vn -0.0002753827 -0.7722536 0.6353142
vn -0.0002192554 -0.7722535 0.6353146
vn -0.0002203905 -0.7723376 0.6352123
vn 0 -0.7723345 0.6352159
vn 0.0004511589 -0.7597452 0.6502207
vn 0 -1 0
vn 0 -1 0
vn 0 -1 0
vn 0 -1 0
vn -3.513719E-07 -1 0
vn -3.513345E-07 -1 0
vn 0 -1 0
vn 0 -1 0
vn 0.7733526 -0.0005321834 0.6339759
vn 0.7733431 -7.068533E-05 0.6339877
vn 0.758994 0 0.6510975
vn 0.7733431 -7.176831E-05 0.6339877
vn 0.7733417 0 0.6339895
vn 0.7733417 0 0.6339894
vn 0.7733722 0 0.6339521
vn 0.7587289 0.0005219405 0.6514062
vn 1 0 0
vn 1 0 0
vn 1 0 0
vn 1 0 0
vn 1 0 0
vn 1 0 0
vn 1 0 0
vn 1 0 0
vn 0 0.7691132 0.6391125
vn 0 0.7691132 0.6391125
vn 0 0.7691133 0.6391125
vn -0.0002217544 0.7631249 0.6462511
vn -0.0002223831 0.7631354 0.6462387
vn -0.0002221458 0.7630951 0.6462862
vn 0 0.7630981 0.6462827
vn 0.0002193555 0.7692384 0.6389619
vn 0 1 0
vn 0 1 0
vn 0 1 0
vn 0 1 0
vn 4.015253E-07 1 0
vn 4.015671E-07 1 0
vn 0 1 0
vn 0 1 0
vn -0.7639142 0 0.6453177
vn -0.7639143 0 0.6453177
vn -0.7639142 0 0.6453177
vn -0.7683624 0.0001653388 0.640015
vn -0.7683811 6.431494E-07 0.6399925
vn -0.7682693 0 0.6401268
vn -0.7682694 0 0.6401268
vn -0.7637897 -0.0001644114 0.6454651
vn -1 0 0
vn -1 0 0
vn -1 0 0
vn -1 0 0
vn -1 2.107841E-07 0
vn -1 2.107712E-07 0
vn -1 0 0
vn -1 0 0
vn 0.7251736 -0.0004345675 0.688566
vn 0.7226149 -0.0001740075 0.6912508
vn 0.7252596 -0.0004433455 0.6884753
vn 0.7224876 -0.0001610722 0.6913838
vn 0.7224734 0.0004437362 0.6913985
vn 0.7253655 0.0001626697 0.688364
vn 0.7253654 0.0001626697 0.688364
vn 0.7253655 0.0001626697 0.688364
vn 0.9927096 8.522689E-06 0.12053
vn 0.9927079 2.677525E-06 0.1205445
vn 0.9927071 0 0.1205511
vn 0.9927104 1.083587E-05 0.1205242
vn 0.9927101 0 0.120526
vn 0.9927087 2.166593E-07 0.1205381
vn 0.9927087 0 0.1205378
vn 0.992708 -3.609309E-06 0.1205437
vn 0.0001677931 -0.7256803 0.688032
vn 0.0001677932 -0.7256804 0.688032
vn 0.0001677931 -0.7256804 0.688032
vn 0.0004879086 -0.7223598 0.6915172
vn -0.0002387678 -0.7223223 0.6915565
vn -0.0001912388 -0.7225235 0.6913464
vn -0.0004649285 -0.7253151 0.6884168
vn -0.0004740734 -0.7254083 0.6883187
vn -3.60931E-06 -0.9927083 0.1205415
vn -3.60931E-06 -0.9927083 0.1205415
vn -3.60931E-06 -0.9927083 0.1205415
vn 0 -0.992709 0.1205348
vn -4.215885E-05 -0.9927095 0.1205317
vn -4.218514E-05 -0.992708 0.1205437
vn 0 -0.9927092 0.1205339
vn 0 -0.9927099 0.1205281
vn -0.7140606 -0.0001800634 0.7000839
vn -0.7140606 -0.0001800634 0.7000839
vn -0.7140606 -0.0001800634 0.7000839
vn -0.7339343 0.001760713 0.6792182
vn -0.7338407 0 0.6793215
vn -0.7338928 0.0001745157 0.6792653
vn -0.7338928 0.0001745157 0.6792653
vn -0.7149996 -0.001716626 0.6991227
vn -0.9927084 -7.218398E-06 0.1205405
vn -0.9927084 -7.218398E-06 0.1205405
vn -0.9927084 -7.218398E-06 0.1205405
vn -0.9927065 0 0.1205563
vn -0.9927065 0 0.1205561
vn -0.9927061 0 0.1205594
vn -0.9927081 1.784993E-06 0.1205427
vn -0.9927087 0 0.1205377
vn -0.0001686165 0.7270561 0.686578
vn -0.0001686165 0.7270561 0.686578
vn -0.0001686165 0.7270561 0.6865782
vn -0.0007689886 0.7208859 0.6930532
vn -0.0002382565 0.7208825 0.6930573
vn 0.0001681734 0.720863 0.6930777
vn 0.0001681734 0.720863 0.6930777
vn 0.0007718374 0.7268285 0.6868186
vn 1.804593E-06 0.9927087 0.1205376
vn 1.804593E-06 0.9927087 0.1205376
vn 1.804593E-06 0.9927087 0.1205376
vn 0 0.9927093 0.120533
vn -4.088082E-05 0.9927092 0.1205337
vn -4.112391E-05 0.9927083 0.1205419
vn -4.4626E-07 0.9927076 0.1205479
vn 0 0.9927073 0.1205491
vn 0 0 1
vn 0 0 1
vn 0 0 1
vn 0 0 1
vn 0 0 1
vn 0 0 1
vn 0 0 1
vn 0 0 1
vn 1.89433E-06 0 1
vn 0 0 1
vn 0 0 1
vn 0 0 1
vn 0 0 1
vn -0.0003436825 0 1
vn -0.0003449834 0 1
vn 0 0 1
vn 0 0 -1
vn 0 0 -1
vn 0 0 -1
vn 0 0 -1
vn 0 0 -1
vn 0 0 -1
vn 0 0 -1
vn 0 0 -1
vn 0 0 -1
vn 0 0 -1
vn 0 0 -1
vn 0 0 -1
vn 0.0003460994 0 -1
vn 0.0003458661 0 -1
vn 0 0 -1
vn 0 0 -1
vn 4.240904E-07 0 1
vn 0 0 1
vn 0 0 1
vn 0 0 1
vn 7.017186E-07 0 1
vn -0.0002766112 0 1
vn 3.51217E-07 0 1
vn -0.0002636394 0 1
vn 4.39118E-06 0 1
vn -0.0003073293 0 1
vn -6.541548E-07 0 1
vn -0.0002796644 0 1
vn -0.0002778397 0 1
vn -1.766299E-06 0 1
vn -0.000307243 0 1
vn 1.517156E-06 0 1
vn -0.0002643467 0 1
vn 3.514107E-07 0 1
vn -0.0002775045 0 1
vn 7.004956E-07 0 1
vn -1.216976E-06 0 1
vn 0 0 1
vn -2.262724E-07 0 1
vn -2.241669E-07 0 1
usemtl WhiteWoodClean
f 3/3/3 2/2/2 1/1/1
f 2/2/2 4/4/4 1/1/1
f 4/4/4 2/2/2 5/5/5
f 6/6/6 4/4/4 5/5/5
f 5/5/5 7/7/7 6/6/6
f 7/7/7 8/8/8 6/6/6
f 11/11/11 10/10/10 9/9/9
f 10/10/10 12/12/12 9/9/9
f 9/9/9 12/12/12 13/13/13
f 14/14/14 9/9/9 13/13/13
f 14/14/14 13/13/13 15/15/15
f 13/13/13 16/16/16 15/15/15
f 19/19/19 18/18/18 17/17/17
f 18/18/18 20/20/20 17/17/17
f 20/20/20 18/18/18 21/21/21
f 22/22/22 20/20/20 21/21/21
f 21/21/21 23/23/23 22/22/22
f 23/23/23 24/24/24 22/22/22
f 27/27/27 26/26/26 25/25/25
f 26/26/26 28/28/28 25/25/25
f 25/25/25 28/28/28 29/29/29
f 30/30/30 25/25/25 29/29/29
f 30/30/30 29/29/29 31/31/31
f 29/29/29 32/32/32 31/31/31
f 35/35/35 34/34/34 33/33/33
f 36/36/36 35/35/35 33/33/33
f 36/36/36 33/33/33 37/37/37
f 38/38/38 36/36/36 37/37/37
f 38/38/38 37/37/37 39/39/39
f 40/40/40 38/38/38 39/39/39
f 43/43/43 42/42/42 41/41/41
f 42/42/42 44/44/44 41/41/41
f 41/41/41 44/44/44 45/45/45
f 46/46/46 41/41/41 45/45/45
f 46/46/46 45/45/45 47/47/47
f 45/45/45 48/48/48 47/47/47
f 51/51/51 50/50/50 49/49/49
f 52/52/52 51/51/51 49/49/49
f 52/52/52 49/49/49 53/53/53
f 54/54/54 52/52/52 53/53/53
f 53/53/53 55/55/55 54/54/54
f 55/55/55 56/56/56 54/54/54
f 59/59/59 58/58/58 57/57/57
f 60/60/60 59/59/59 57/57/57
f 60/60/60 61/61/61 59/59/59
f 61/61/61 62/62/62 59/59/59
f 63/63/63 62/62/62 61/61/61
f 64/64/64 63/63/63 61/61/61
f 67/67/67 66/66/66 65/65/65
f 66/66/66 68/68/68 65/65/65
f 68/68/68 66/66/66 69/69/69
f 70/70/70 68/68/68 69/69/69
f 69/69/69 71/71/71 70/70/70
f 71/71/71 72/72/72 70/70/70
f 75/75/75 74/74/74 73/73/73
f 74/74/74 76/76/76 73/73/73
f 73/73/73 76/76/76 77/77/77
f 78/78/78 73/73/73 77/77/77
f 78/78/78 77/77/77 79/79/79
f 77/77/77 80/80/80 79/79/79
f 83/83/83 82/82/82 81/81/81
f 84/84/84 83/83/83 81/81/81
f 84/84/84 81/81/81 85/85/85
f 86/86/86 84/84/84 85/85/85
f 86/86/86 85/85/85 87/87/87
f 88/88/88 86/86/86 87/87/87
f 91/91/91 90/90/90 89/89/89
f 92/92/92 91/91/91 89/89/89
f 92/92/92 93/93/93 91/91/91
f 93/93/93 94/94/94 91/91/91
f 95/95/95 94/94/94 93/93/93
f 96/96/96 95/95/95 93/93/93
f 99/99/99 98/98/98 97/97/97
f 100/100/100 99/99/99 97/97/97
f 100/100/100 97/97/97 101/101/101
f 102/102/102 100/100/100 101/101/101
f 102/102/102 101/101/101 103/103/103
f 104/104/104 102/102/102 103/103/103
f 107/107/107 106/106/106 105/105/105
f 108/108/108 107/107/107 105/105/105
f 107/107/107 108/108/108 109/109/109
f 110/110/110 107/107/107 109/109/109
f 111/111/111 110/110/110 109/109/109
f 112/112/112 111/111/111 109/109/109
f 115/115/115 114/114/114 113/113/113
f 116/116/116 115/115/115 113/113/113
f 116/116/116 113/113/113 117/117/117
f 118/118/118 116/116/116 117/117/117
f 118/118/118 117/117/117 119/119/119
f 120/120/120 118/118/118 119/119/119
f 123/123/123 122/122/122 121/121/121
f 124/124/124 123/123/123 121/121/121
f 124/124/124 125/125/125 123/123/123
f 125/125/125 126/126/126 123/123/123
f 127/127/127 126/126/126 125/125/125
f 128/128/128 127/127/127 125/125/125
f 131/131/131 130/130/130 129/129/129
f 130/130/130 132/132/132 129/129/129
f 132/132/132 130/130/130 133/133/133
f 129/129/129 132/132/132 134/134/134
f 135/135/135 129/129/129 134/134/134
f 135/135/135 134/134/134 136/136/136
f 134/134/134 137/137/137 136/136/136
f 138/138/138 132/132/132 133/133/133
f 132/132/132 138/138/138 134/134/134
f 133/133/133 139/139/139 138/138/138
f 139/139/139 140/140/140 138/138/138
f 138/138/138 140/140/140 141/141/141
f 137/137/137 134/134/134 142/142/142
f 138/138/138 142/142/142 134/134/134
f 142/142/142 138/138/138 141/141/141
f 143/143/143 137/137/137 142/142/142
f 142/142/142 141/141/141 143/143/143
f 141/141/141 144/144/144 143/143/143
f 147/147/147 146/146/146 145/145/145
f 146/146/146 148/148/148 145/145/145
f 148/148/148 146/146/146 149/149/149
f 145/145/145 148/148/148 150/150/150
f 151/151/151 145/145/145 150/150/150
f 151/151/151 150/150/150 152/152/152
f 150/150/150 153/153/153 152/152/152
f 154/154/154 148/148/148 149/149/149
f 148/148/148 154/154/154 150/150/150
f 149/149/149 155/155/155 154/154/154
f 155/155/155 156/156/156 154/154/154
f 156/156/156 157/157/157 154/154/154
f 150/150/150 158/158/158 153/153/153
f 154/154/154 158/158/158 150/150/150
f 157/157/157 158/158/158 154/154/154
f 158/158/158 159/159/159 153/153/153
f 158/158/158 157/157/157 159/159/159
f 157/157/157 160/160/160 159/159/159
f 163/163/163 162/162/162 161/161/161
f 164/164/164 163/163/163 161/161/161
f 162/162/162 163/163/163 165/165/165
f 164/164/164 161/161/161 166/166/166
f 167/167/167 162/162/162 165/165/165
f 168/168/168 164/164/164 166/166/166
f 165/165/165 169/169/169 167/167/167
f 168/168/168 166/166/166 170/170/170
f 169/169/169 171/171/171 167/167/167
f 172/172/172 168/168/168 170/170/170
f 169/169/169 173/173/173 171/171/171
f 172/172/172 170/170/170 174/174/174
f 173/173/173 175/175/175 171/171/171
f 176/176/176 172/172/172 174/174/174
f 173/173/173 177/177/177 175/175/175
f 176/176/176 174/174/174 178/178/178
f 177/177/177 179/179/179 175/175/175
f 180/180/180 176/176/176 178/178/178
f 177/177/177 181/181/181 179/179/179
f 180/180/180 178/178/178 182/182/182
f 181/181/181 183/183/183 179/179/179
f 184/184/184 180/180/180 182/182/182
f 181/181/181 184/184/184 183/183/183
f 184/184/184 182/182/182 183/183/183
