#usda 1.0
(
    customLayerData = {
        string creator = "Ai2-THOR MJCF-USD converter"
    }
    defaultPrim = "Coffee_Table_230_1"
    doc = """Generated from Composed Stage of root layer /home/gregor/workspace/ai2/isaac-thor-worktree/dev-wilbert/assets/usd/objects/thor/Coffee_Table_230_1_prim/Coffee_Table_230_1_prim.usda
"""
    kilogramsPerUnit = 1
    metersPerUnit = 1
    upAxis = "Z"
)

def Xform "Coffee_Table_230_1" (
    apiSchemas = ["GeomModelAPI"]
    assetInfo = {
        string name = "Coffee_Table_230_1"
    }
    kind = "component"
)
{
    float3[] extentsHint = [(-0.82897997, -0.21292, -0.41009998), (0.82631004, 0.2315, 0.39099002), (3.4028235e38, 3.4028235e38, 3.4028235e38), (-3.4028235e38, -3.4028235e38, -3.4028235e38), (3.4028235e38, 3.4028235e38, 3.4028235e38), (-3.4028235e38, -3.4028235e38, -3.4028235e38), (-0.8353471, -0.222054, -0.40572932), (0.8299889, 0.2220564, 0.4057307)]

    def Scope "Geometry"
    {
        def Xform "Coffee_Table_230_1" (
            apiSchemas = ["PhysicsRigidBodyAPI"]
            kind = "subcomponent"
        )
        {
            def Mesh "Coffee_Table_230_1_Mesh_0" (
                apiSchemas = ["MaterialBindingAPI"]
            )
            {
                float3[] extent = [(-0.82419, 0.00563, -0.39856), (0.82404, 0.42266, 0.39803)]
                int[] faceVertexCounts = [3, 3, 3, 3, 3, 3, 3, 3, 3, 3, 3, 3, 3, 3, 3, 3, 3, 3, 3, 3, 3, 3, 3, 3, 3, 3, 3, 3, 3, 3, 3, 3, 3, 3, 3, 3, 3, 3, 3, 3, 3, 3, 3, 3, 3, 3, 3, 3, 3, 3, 3, 3, 3, 3, 3, 3, 3, 3, 3, 3, 3, 3, 3, 3, 3, 3, 3, 3, 3, 3, 3, 3, 3, 3, 3, 3, 3, 3, 3, 3, 3, 3, 3, 3, 3, 3, 3, 3, 3, 3, 3, 3, 3, 3, 3, 3, 3, 3, 3, 3, 3, 3, 3, 3, 3, 3, 3, 3, 3, 3, 3, 3, 3, 3, 3, 3, 3, 3, 3, 3, 3, 3, 3, 3, 3, 3, 3, 3, 3, 3, 3, 3, 3, 3, 3, 3, 3, 3, 3, 3, 3, 3, 3, 3, 3, 3, 3, 3, 3, 3, 3, 3, 3, 3, 3, 3, 3, 3, 3, 3, 3, 3, 3, 3, 3, 3, 3, 3, 3, 3, 3, 3, 3, 3, 3, 3, 3, 3, 3, 3, 3, 3, 3, 3, 3, 3, 3, 3, 3, 3, 3, 3, 3, 3, 3, 3, 3, 3, 3, 3, 3, 3, 3, 3, 3, 3, 3, 3, 3, 3, 3, 3, 3, 3, 3, 3, 3, 3, 3, 3, 3, 3, 3, 3]
                int[] faceVertexIndices = [2, 1, 0, 5, 4, 3, 8, 7, 6, 11, 10, 9, 14, 13, 12, 17, 16, 15, 20, 19, 18, 23, 22, 21, 26, 25, 24, 29, 28, 27, 32, 31, 30, 35, 34, 33, 38, 37, 36, 41, 40, 39, 44, 43, 42, 47, 46, 45, 50, 49, 48, 53, 52, 51, 56, 55, 54, 59, 58, 57, 62, 61, 60, 65, 64, 63, 68, 67, 66, 71, 70, 69, 74, 73, 72, 77, 76, 75, 80, 79, 78, 83, 82, 81, 86, 85, 84, 89, 88, 87, 92, 91, 90, 95, 94, 93, 98, 97, 96, 99, 98, 96, 102, 101, 100, 103, 102, 100, 106, 105, 104, 107, 106, 104, 110, 109, 108, 111, 110, 108, 114, 113, 112, 115, 114, 112, 118, 117, 116, 119, 118, 116, 122, 121, 120, 123, 122, 120, 126, 125, 124, 127, 126, 124, 130, 129, 128, 131, 130, 128, 134, 133, 132, 135, 134, 132, 138, 137, 136, 139, 138, 136, 142, 141, 140, 143, 142, 140, 146, 145, 144, 147, 146, 144, 150, 149, 148, 151, 150, 148, 154, 153, 152, 155, 154, 152, 158, 157, 156, 159, 158, 156, 162, 161, 160, 163, 162, 160, 166, 165, 164, 167, 166, 164, 170, 169, 168, 171, 170, 168, 174, 173, 172, 175, 174, 172, 178, 177, 176, 179, 178, 176, 182, 181, 180, 183, 182, 180, 186, 185, 184, 187, 186, 184, 190, 189, 188, 191, 190, 188, 194, 193, 192, 195, 194, 192, 198, 197, 196, 199, 198, 196, 202, 201, 200, 203, 202, 200, 206, 205, 204, 207, 206, 204, 210, 209, 208, 211, 210, 208, 214, 213, 212, 215, 214, 212, 218, 217, 216, 219, 218, 216, 222, 221, 220, 223, 222, 220, 226, 225, 224, 227, 226, 224, 230, 229, 228, 231, 230, 228, 234, 233, 232, 235, 234, 232, 238, 237, 236, 239, 238, 236, 242, 241, 240, 243, 242, 240, 246, 245, 244, 247, 246, 244, 250, 249, 248, 251, 250, 248, 254, 253, 252, 255, 254, 252, 258, 257, 256, 259, 258, 256, 262, 261, 260, 263, 262, 260, 266, 265, 264, 267, 266, 264, 270, 269, 268, 271, 270, 268, 274, 273, 272, 275, 274, 272, 278, 277, 276, 279, 278, 276, 282, 281, 280, 283, 282, 280, 286, 285, 284, 287, 286, 284, 290, 289, 288, 291, 290, 288, 294, 293, 292, 295, 294, 292, 298, 297, 296, 299, 298, 296, 302, 301, 300, 303, 302, 300, 306, 305, 304, 307, 306, 304, 310, 309, 308, 311, 310, 308, 314, 313, 312, 315, 314, 312, 318, 317, 316, 319, 318, 316, 322, 321, 320, 323, 322, 320, 326, 325, 324, 327, 326, 324, 330, 329, 328, 331, 330, 328, 334, 333, 332, 335, 334, 332, 338, 337, 336, 339, 338, 336, 342, 341, 340, 343, 342, 340, 346, 345, 344, 347, 346, 344, 350, 349, 348, 351, 350, 348, 354, 353, 352, 355, 354, 352, 358, 357, 356, 359, 358, 356, 362, 361, 360, 363, 362, 360, 366, 365, 364, 367, 366, 364, 370, 369, 368, 371, 370, 368, 374, 373, 372, 375, 374, 372, 378, 377, 376, 379, 378, 376, 382, 381, 380, 383, 382, 380, 386, 385, 384, 387, 386, 384, 390, 389, 388, 391, 390, 388, 394, 393, 392, 395, 394, 392, 398, 397, 396, 399, 398, 396, 402, 401, 400, 403, 402, 400, 406, 405, 404, 407, 406, 404, 410, 409, 408, 411, 410, 408, 414, 413, 412, 415, 414, 412, 418, 417, 416, 419, 418, 416, 422, 421, 420, 423, 422, 420, 426, 425, 424, 427, 426, 424, 430, 429, 428, 431, 430, 428, 434, 433, 432, 435, 434, 432, 438, 437, 436, 439, 438, 436, 442, 441, 440, 443, 442, 440, 446, 445, 444, 447, 446, 444, 450, 449, 448, 451, 450, 448, 454, 453, 452, 455, 454, 452, 458, 457, 456, 459, 458, 456, 462, 461, 460, 463, 462, 460, 466, 465, 464, 467, 466, 464, 470, 469, 468, 471, 470, 468, 474, 473, 472, 475, 474, 472, 478, 477, 476, 479, 478, 476]
                rel material:binding = </Coffee_Table_230_1/Materials/material_DarkWoodSmooth>
                uniform token orientation = "rightHanded"
                point3f[] points = [(0.78566, 0.00563, -0.36318), (0.78287, 0.00841, -0.36318), (0.78566, 0.00841, -0.3604), (0.78566, 0.41987, -0.3604), (0.78288, 0.41987, -0.36318), (0.78566, 0.42266, -0.36318), (0.78566, 0.00563, -0.39477), (0.78566, 0.00841, -0.39755), (0.78287, 0.00841, -0.39477), (0.78566, 0.42266, -0.39477), (0.78288, 0.41987, -0.39477), (0.78566, 0.41987, -0.39755), (0.82126, 0.00563, -0.36318), (0.82126, 0.00841, -0.3604), (0.82404, 0.00841, -0.36318), (0.82126, 0.42266, -0.36318), (0.82404, 0.41987, -0.36318), (0.82126, 0.41987, -0.3604), (0.82126, 0.00563, -0.39477), (0.82404, 0.00841, -0.39477), (0.82126, 0.00841, -0.39755), (0.82126, 0.42266, -0.39477), (0.82126, 0.41987, -0.39755), (0.82404, 0.41987, -0.39477), (0.78566, 0.00563, 0.39525), (0.78287, 0.00841, 0.39525), (0.78566, 0.00841, 0.39803), (0.78566, 0.41987, 0.39803), (0.78288, 0.41987, 0.39525), (0.78566, 0.42266, 0.39525), (0.78566, 0.00563, 0.36366), (0.78566, 0.00841, 0.36088), (0.78287, 0.00841, 0.36366), (0.78566, 0.42266, 0.36366), (0.78288, 0.41987, 0.36366), (0.78566, 0.41987, 0.36087), (0.82126, 0.00563, 0.39525), (0.82126, 0.00841, 0.39803), (0.82404, 0.00841, 0.39525), (0.82126, 0.42266, 0.39525), (0.82404, 0.41987, 0.39525), (0.82126, 0.41987, 0.39803), (0.82126, 0.00563, 0.36366), (0.82404, 0.00841, 0.36366), (0.82126, 0.00841, 0.36087), (0.82126, 0.42266, 0.36366), (0.82126, 0.41987, 0.36087), (0.82404, 0.41987, 0.36366), (-0.78581, 0.00563, -0.36318), (-0.78581, 0.00841, -0.3604), (-0.78302, 0.00841, -0.36318), (-0.78581, 0.41987, -0.3604), (-0.78581, 0.42266, -0.36318), (-0.78302, 0.41987, -0.36318), (-0.78581, 0.00563, -0.39477), (-0.78302, 0.00841, -0.39477), (-0.78581, 0.00841, -0.39755), (-0.78581, 0.42266, -0.39477), (-0.78581, 0.41987, -0.39755), (-0.78302, 0.41987, -0.39477), (-0.82141, 0.00563, -0.36318), (-0.82419, 0.00841, -0.36318), (-0.82141, 0.00841, -0.3604), (-0.82141, 0.42266, -0.36318), (-0.82141, 0.41987, -0.3604), (-0.82419, 0.41987, -0.36318), (-0.82141, 0.00563, -0.39477), (-0.82141, 0.00841, -0.39755), (-0.82419, 0.00841, -0.39477), (-0.82141, 0.42266, -0.39477), (-0.82419, 0.41987, -0.39477), (-0.82141, 0.41987, -0.39755), (-0.78581, 0.00563, 0.39525), (-0.78581, 0.00841, 0.39803), (-0.78302, 0.00841, 0.39525), (-0.78581, 0.41987, 0.39803), (-0.78581, 0.42266, 0.39525), (-0.78302, 0.41987, 0.39525), (-0.78581, 0.00563, 0.36366), (-0.78302, 0.00841, 0.36366), (-0.78581, 0.00841, 0.36087), (-0.78581, 0.42266, 0.36366), (-0.78581, 0.41987, 0.36087), (-0.78302, 0.41987, 0.36366), (-0.82141, 0.00563, 0.39524), (-0.82419, 0.00841, 0.39524), (-0.82141, 0.00841, 0.39803), (-0.82141, 0.42266, 0.39524), (-0.82141, 0.41987, 0.39803), (-0.82419, 0.41987, 0.39524), (-0.82141, 0.00563, 0.36366), (-0.82141, 0.00841, 0.36087), (-0.82419, 0.00841, 0.36366), (-0.82141, 0.42266, 0.36366), (-0.82419, 0.41987, 0.36366), (-0.82141, 0.41987, 0.36087), (0.82126, 0.00841, -0.3604), (0.78566, 0.00841, -0.3604), (0.78566, 0.41987, -0.3604), (0.82126, 0.41987, -0.3604), (0.82404, 0.00841, -0.39477), (0.82404, 0.00841, -0.36318), (0.82404, 0.41987, -0.36318), (0.82404, 0.41987, -0.39477), (0.78566, 0.00563, 0.36366), (0.78566, 0.00563, 0.39525), (0.82126, 0.00563, 0.39525), (0.82126, 0.00563, 0.36366), (0.82126, 0.42266, -0.39477), (0.82126, 0.42266, -0.36318), (0.78566, 0.42266, -0.36318), (0.78566, 0.42266, -0.39477), (0.78287, 0.00841, -0.36318), (0.78287, 0.00841, -0.39477), (0.78288, 0.41987, -0.39477), (0.78288, 0.41987, -0.36318), (0.78566, 0.00841, -0.39755), (0.82126, 0.00841, -0.39755), (0.82126, 0.41987, -0.39755), (0.78566, 0.41987, -0.39755), (0.80338, 0.35353, 0.36067), (0.80338, 0.35353, -0.36114), (0.80338, 0.42198, -0.36114), (0.80338, 0.42198, 0.36067), (0.80338, 0.35353, -0.36114), (0.82397, 0.35353, -0.36114), (0.82397, 0.42198, -0.36114), (0.80338, 0.42198, -0.36114), (0.82397, 0.35353, -0.36114), (0.82397, 0.35353, 0.36067), (0.82397, 0.42198, 0.36067), (0.82397, 0.42198, -0.36114), (0.82397, 0.35353, 0.36067), (0.80338, 0.35353, 0.36067), (0.80338, 0.42198, 0.36067), (0.82397, 0.42198, 0.36067), (0.80338, 0.35353, -0.36114), (0.80338, 0.35353, 0.36067), (0.82397, 0.35353, 0.36067), (0.82397, 0.35353, -0.36114), (0.82397, 0.42198, -0.36114), (0.82397, 0.42198, 0.36067), (0.80338, 0.42198, 0.36067), (0.80338, 0.42198, -0.36114), (0.82126, 0.00841, 0.39803), (0.78566, 0.00841, 0.39803), (0.78566, 0.41987, 0.39803), (0.82126, 0.41987, 0.39803), (0.82404, 0.00841, 0.36366), (0.82404, 0.00841, 0.39525), (0.82404, 0.41987, 0.39525), (0.82404, 0.41987, 0.36366), (-0.78302, 0.00841, -0.36318), (-0.78302, 0.41987, -0.36318), (-0.78302, 0.41987, -0.39477), (-0.78302, 0.00841, -0.39477), (0.82126, 0.42266, 0.36366), (0.82126, 0.42266, 0.39525), (0.78566, 0.42266, 0.39525), (0.78566, 0.42266, 0.36366), (0.78287, 0.00841, 0.39525), (0.78287, 0.00841, 0.36366), (0.78288, 0.41987, 0.36366), (0.78288, 0.41987, 0.39525), (0.78566, 0.00841, 0.36088), (0.82126, 0.00841, 0.36087), (0.82126, 0.41987, 0.36087), (0.78566, 0.41987, 0.36087), (-0.82141, 0.00841, -0.3604), (-0.82141, 0.41987, -0.3604), (-0.78581, 0.41987, -0.3604), (-0.78581, 0.00841, -0.3604), (-0.82419, 0.00841, -0.39477), (-0.82419, 0.41987, -0.39477), (-0.82419, 0.41987, -0.36318), (-0.82419, 0.00841, -0.36318), (-0.78302, 0.00841, 0.39525), (-0.78302, 0.41987, 0.39525), (-0.78302, 0.41987, 0.36366), (-0.78302, 0.00841, 0.36366), (-0.78581, 0.00563, -0.39477), (-0.82141, 0.00563, -0.39477), (-0.82141, 0.00563, -0.36318), (-0.78581, 0.00563, -0.36318), (-0.82141, 0.42266, -0.39477), (-0.78581, 0.42266, -0.39477), (-0.78581, 0.42266, -0.36318), (-0.82141, 0.42266, -0.36318), (-0.78581, 0.00841, -0.39755), (-0.78581, 0.41987, -0.39755), (-0.82141, 0.41987, -0.39755), (-0.82141, 0.00841, -0.39755), (-0.80264, 0.35353, 0.36067), (-0.80264, 0.42198, 0.36067), (-0.80264, 0.42198, -0.36114), (-0.80264, 0.35353, -0.36114), (-0.80264, 0.35353, -0.36114), (-0.80264, 0.42198, -0.36114), (-0.82322, 0.42198, -0.36114), (-0.82322, 0.35353, -0.36114), (-0.82322, 0.35353, -0.36114), (-0.82322, 0.42198, -0.36114), (-0.82322, 0.42198, 0.36067), (-0.82322, 0.35353, 0.36067), (-0.82322, 0.35353, 0.36067), (-0.82322, 0.42198, 0.36067), (-0.80264, 0.42198, 0.36067), (-0.80264, 0.35353, 0.36067), (-0.80264, 0.35353, -0.36114), (-0.82322, 0.35353, -0.36114), (-0.82322, 0.35353, 0.36067), (-0.80264, 0.35353, 0.36067), (-0.82322, 0.42198, -0.36114), (-0.80264, 0.42198, -0.36114), (-0.80264, 0.42198, 0.36067), (-0.82322, 0.42198, 0.36067), (-0.82141, 0.00841, 0.39803), (-0.82141, 0.41987, 0.39803), (-0.78581, 0.41987, 0.39803), (-0.78581, 0.00841, 0.39803), (-0.82419, 0.00841, 0.36366), (-0.82419, 0.41987, 0.36366), (-0.82419, 0.41987, 0.39524), (-0.82419, 0.00841, 0.39524), (-0.78581, 0.00563, 0.36366), (-0.82141, 0.00563, 0.36366), (-0.82141, 0.00563, 0.39524), (-0.78581, 0.00563, 0.39525), (-0.82141, 0.42266, 0.36366), (-0.78581, 0.42266, 0.36366), (-0.78581, 0.42266, 0.39525), (-0.82141, 0.42266, 0.39524), (-0.78581, 0.00841, 0.36087), (-0.78581, 0.41987, 0.36087), (-0.82141, 0.41987, 0.36087), (-0.82141, 0.00841, 0.36087), (-0.78706, 0.35353, 0.3761), (0.78692, 0.35353, 0.3761), (0.78692, 0.42198, 0.3761), (-0.78706, 0.42198, 0.3761), (0.78692, 0.35353, 0.3761), (0.78692, 0.35353, 0.39668), (0.78692, 0.42198, 0.39668), (0.78692, 0.42198, 0.3761), (0.78692, 0.35353, 0.39668), (-0.78706, 0.35353, 0.39668), (-0.78706, 0.42198, 0.39668), (0.78692, 0.42198, 0.39668), (-0.78706, 0.35353, 0.39668), (-0.78706, 0.35353, 0.3761), (-0.78706, 0.42198, 0.3761), (-0.78706, 0.42198, 0.39668), (0.78692, 0.35353, 0.3761), (-0.78706, 0.35353, 0.3761), (-0.78706, 0.35353, 0.39668), (0.78692, 0.35353, 0.39668), (0.78692, 0.42198, 0.39668), (-0.78706, 0.42198, 0.39668), (-0.78706, 0.42198, 0.3761), (0.78692, 0.42198, 0.3761), (-0.78706, 0.35353, -0.37797), (-0.78706, 0.42198, -0.37797), (0.78692, 0.42198, -0.37797), (0.78692, 0.35353, -0.37797), (0.78692, 0.35353, -0.37797), (0.78692, 0.42198, -0.37797), (0.78692, 0.42198, -0.39856), (0.78692, 0.35353, -0.39856), (0.78692, 0.35353, -0.39856), (0.78692, 0.42198, -0.39856), (-0.78706, 0.42198, -0.39856), (-0.78706, 0.35353, -0.39856), (-0.78706, 0.35353, -0.39856), (-0.78706, 0.42198, -0.39856), (-0.78706, 0.42198, -0.37797), (-0.78706, 0.35353, -0.37797), (0.78692, 0.35353, -0.37797), (0.78692, 0.35353, -0.39856), (-0.78706, 0.35353, -0.39856), (-0.78706, 0.35353, -0.37797), (0.78692, 0.42198, -0.39856), (0.78692, 0.42198, -0.37797), (-0.78706, 0.42198, -0.37797), (-0.78706, 0.42198, -0.39856), (0.78566, 0.00563, -0.39477), (0.78287, 0.00841, -0.39477), (0.78287, 0.00841, -0.36318), (0.78566, 0.00563, -0.36318), (0.78566, 0.00841, -0.3604), (0.78287, 0.00841, -0.36318), (0.78288, 0.41987, -0.36318), (0.78566, 0.41987, -0.3604), (0.78566, 0.42266, -0.36318), (0.78288, 0.41987, -0.36318), (0.78288, 0.41987, -0.39477), (0.78566, 0.42266, -0.39477), (0.78566, 0.41987, -0.39755), (0.78288, 0.41987, -0.39477), (0.78287, 0.00841, -0.39477), (0.78566, 0.00841, -0.39755), (0.82126, 0.00563, -0.39477), (0.82126, 0.00841, -0.39755), (0.78566, 0.00841, -0.39755), (0.78566, 0.00563, -0.39477), (0.78566, 0.42266, -0.39477), (0.78566, 0.41987, -0.39755), (0.82126, 0.41987, -0.39755), (0.82126, 0.42266, -0.39477), (0.82404, 0.41987, -0.39477), (0.82126, 0.41987, -0.39755), (0.82126, 0.00841, -0.39755), (0.82404, 0.00841, -0.39477), (0.82126, 0.00563, -0.36318), (0.82404, 0.00841, -0.36318), (0.82404, 0.00841, -0.39477), (0.82126, 0.00563, -0.39477), (0.82126, 0.42266, -0.39477), (0.82404, 0.41987, -0.39477), (0.82404, 0.41987, -0.36318), (0.82126, 0.42266, -0.36318), (0.82126, 0.41987, -0.3604), (0.82404, 0.41987, -0.36318), (0.82404, 0.00841, -0.36318), (0.82126, 0.00841, -0.3604), (0.78566, 0.00563, -0.36318), (0.78566, 0.00841, -0.3604), (0.82126, 0.00841, -0.3604), (0.82126, 0.00563, -0.36318), (0.82126, 0.42266, -0.36318), (0.82126, 0.41987, -0.3604), (0.78566, 0.41987, -0.3604), (0.78566, 0.42266, -0.36318), (0.78566, 0.00563, 0.36366), (0.78287, 0.00841, 0.36366), (0.78287, 0.00841, 0.39525), (0.78566, 0.00563, 0.39525), (0.78566, 0.00841, 0.39803), (0.78287, 0.00841, 0.39525), (0.78288, 0.41987, 0.39525), (0.78566, 0.41987, 0.39803), (0.78566, 0.42266, 0.39525), (0.78288, 0.41987, 0.39525), (0.78288, 0.41987, 0.36366), (0.78566, 0.42266, 0.36366), (0.78566, 0.41987, 0.36087), (0.78288, 0.41987, 0.36366), (0.78287, 0.00841, 0.36366), (0.78566, 0.00841, 0.36088), (0.82126, 0.00563, 0.36366), (0.82126, 0.00841, 0.36087), (0.78566, 0.00841, 0.36088), (0.78566, 0.00563, 0.36366), (0.78566, 0.42266, 0.36366), (0.78566, 0.41987, 0.36087), (0.82126, 0.41987, 0.36087), (0.82126, 0.42266, 0.36366), (0.82404, 0.41987, 0.36366), (0.82126, 0.41987, 0.36087), (0.82126, 0.00841, 0.36087), (0.82404, 0.00841, 0.36366), (0.82126, 0.00563, 0.39525), (0.82404, 0.00841, 0.39525), (0.82404, 0.00841, 0.36366), (0.82126, 0.00563, 0.36366), (0.82126, 0.42266, 0.36366), (0.82404, 0.41987, 0.36366), (0.82404, 0.41987, 0.39525), (0.82126, 0.42266, 0.39525), (0.82126, 0.41987, 0.39803), (0.82404, 0.41987, 0.39525), (0.82404, 0.00841, 0.39525), (0.82126, 0.00841, 0.39803), (0.78566, 0.00563, 0.39525), (0.78566, 0.00841, 0.39803), (0.82126, 0.00841, 0.39803), (0.82126, 0.00563, 0.39525), (0.82126, 0.42266, 0.39525), (0.82126, 0.41987, 0.39803), (0.78566, 0.41987, 0.39803), (0.78566, 0.42266, 0.39525), (-0.78302, 0.00841, -0.39477), (-0.78581, 0.00563, -0.39477), (-0.78581, 0.00563, -0.36318), (-0.78302, 0.00841, -0.36318), (-0.78302, 0.00841, -0.36318), (-0.78581, 0.00841, -0.3604), (-0.78581, 0.41987, -0.3604), (-0.78302, 0.41987, -0.36318), (-0.78302, 0.41987, -0.36318), (-0.78581, 0.42266, -0.36318), (-0.78581, 0.42266, -0.39477), (-0.78302, 0.41987, -0.39477), (-0.78302, 0.41987, -0.39477), (-0.78581, 0.41987, -0.39755), (-0.78581, 0.00841, -0.39755), (-0.78302, 0.00841, -0.39477), (-0.82141, 0.00841, -0.39755), (-0.82141, 0.00563, -0.39477), (-0.78581, 0.00563, -0.39477), (-0.78581, 0.00841, -0.39755), (-0.78581, 0.41987, -0.39755), (-0.78581, 0.42266, -0.39477), (-0.82141, 0.42266, -0.39477), (-0.82141, 0.41987, -0.39755), (-0.82141, 0.41987, -0.39755), (-0.82419, 0.41987, -0.39477), (-0.82419, 0.00841, -0.39477), (-0.82141, 0.00841, -0.39755), (-0.82419, 0.00841, -0.36318), (-0.82141, 0.00563, -0.36318), (-0.82141, 0.00563, -0.39477), (-0.82419, 0.00841, -0.39477), (-0.82419, 0.41987, -0.39477), (-0.82141, 0.42266, -0.39477), (-0.82141, 0.42266, -0.36318), (-0.82419, 0.41987, -0.36318), (-0.82419, 0.41987, -0.36318), (-0.82141, 0.41987, -0.3604), (-0.82141, 0.00841, -0.3604), (-0.82419, 0.00841, -0.36318), (-0.78581, 0.00841, -0.3604), (-0.78581, 0.00563, -0.36318), (-0.82141, 0.00563, -0.36318), (-0.82141, 0.00841, -0.3604), (-0.82141, 0.41987, -0.3604), (-0.82141, 0.42266, -0.36318), (-0.78581, 0.42266, -0.36318), (-0.78581, 0.41987, -0.3604), (-0.78302, 0.00841, 0.36366), (-0.78581, 0.00563, 0.36366), (-0.78581, 0.00563, 0.39525), (-0.78302, 0.00841, 0.39525), (-0.78302, 0.00841, 0.39525), (-0.78581, 0.00841, 0.39803), (-0.78581, 0.41987, 0.39803), (-0.78302, 0.41987, 0.39525), (-0.78302, 0.41987, 0.39525), (-0.78581, 0.42266, 0.39525), (-0.78581, 0.42266, 0.36366), (-0.78302, 0.41987, 0.36366), (-0.78302, 0.41987, 0.36366), (-0.78581, 0.41987, 0.36087), (-0.78581, 0.00841, 0.36087), (-0.78302, 0.00841, 0.36366), (-0.82141, 0.00841, 0.36087), (-0.82141, 0.00563, 0.36366), (-0.78581, 0.00563, 0.36366), (-0.78581, 0.00841, 0.36087), (-0.78581, 0.41987, 0.36087), (-0.78581, 0.42266, 0.36366), (-0.82141, 0.42266, 0.36366), (-0.82141, 0.41987, 0.36087), (-0.82141, 0.41987, 0.36087), (-0.82419, 0.41987, 0.36366), (-0.82419, 0.00841, 0.36366), (-0.82141, 0.00841, 0.36087), (-0.82419, 0.00841, 0.39524), (-0.82141, 0.00563, 0.39524), (-0.82141, 0.00563, 0.36366), (-0.82419, 0.00841, 0.36366), (-0.82419, 0.41987, 0.36366), (-0.82141, 0.42266, 0.36366), (-0.82141, 0.42266, 0.39524), (-0.82419, 0.41987, 0.39524), (-0.82419, 0.41987, 0.39524), (-0.82141, 0.41987, 0.39803), (-0.82141, 0.00841, 0.39803), (-0.82419, 0.00841, 0.39524), (-0.78581, 0.00841, 0.39803), (-0.78581, 0.00563, 0.39525), (-0.82141, 0.00563, 0.39524), (-0.82141, 0.00841, 0.39803), (-0.82141, 0.41987, 0.39803), (-0.82141, 0.42266, 0.39524), (-0.78581, 0.42266, 0.39525), (-0.78581, 0.41987, 0.39803), (0.78566, 0.00563, -0.39477), (0.78566, 0.00563, -0.36318), (0.82126, 0.00563, -0.36318), (0.82126, 0.00563, -0.39477)]
                normal3f[] primvars:normals = [(-0.5773647, -0.5773387, 0.5773474), (-0.5773625, 0.5773398, 0.5773485), (-0.5773503, -0.5773329, -0.5773677), (-0.5773546, 0.5773308, -0.5773655), (0.5773214, -0.577356, 0.5773734), (0.5773191, 0.5773571, 0.5773745), (0.5773097, -0.5773445, -0.5773965), (0.5773141, 0.5773423, -0.5773944), (-0.577356, -0.5773388, 0.577356), (-0.5773489, 0.5773423, 0.5773597), (-0.5773618, -0.5773271, -0.5773618), (0.5773214, -0.5773386, 0.5773907), (0.5773141, 0.5773423, 0.5773944), (0.5773214, -0.5773386, -0.5773907), (0.5773445, -0.5773445, 0.5773618), (0.5773423, 0.5773456, 0.5773629), (0.57733, -0.5773387, -0.5773821), (0.5773344, 0.5773365, -0.5773799), (-0.5773618, -0.5773445, 0.5773445), (-0.5773597, 0.5773456, 0.5773456), (-0.5773474, -0.5773387, -0.5773647), (-0.5773517, 0.5773365, -0.5773625), (0.5773387, -0.5773387, 0.5773734), (0.5773314, 0.5773423, 0.5773771), (0.5773387, -0.5773387, -0.5773734), (0.5773314, 0.5773423, -0.5773771), (-0.5773618, -0.5773271, 0.5773618), (-0.5773546, 0.5773308, 0.5773655), (-0.577356, -0.5773388, -0.577356), (-0.5773489, 0.5773423, -0.5773597), (0, 0, 1), (1, 0, 0), (0, -1, 0), (0, 1, 0), (-1, 0, 0), (0, 0, -1), (-0.7071163, -0.7070972, 0), (-0.7071232, 0, 0.7070904), (-0.707118, 0.7070954, 0), (-0.707108, 0, -0.7071056), (0, -0.7070968, -0.7071167), (0, 0.7070968, -0.7071167), (0.7070804, 0, -0.7071331), (0.7070861, -0.7071273, 0), (0.7070878, 0.7071257, 0), (0.7070954, 0, 0.7071181), (0, -0.7071134, 0.7071001), (0, 0.7071134, 0.7071001), (-0.7071167, -0.7070969, 0), (-0.707108, 0, 0.7071056), (-0.7071182, 0.7070953, 0), (0.7070803, 0, -0.7071332), (0.7070803, 0, 0.7071332), (0, -0.7071001, 0.7071134), (0, 0.7071001, 0.7071134), (0.7071011, -0.7071124, 0), (0.7071047, 0, 0.7071089), (0.7071028, 0.7071107, 0), (0.7070895, 0, -0.7071239), (0.7070895, 0, 0.707124), (0.7070895, 0, -0.707124), (0, -0.7070934, 0.7071201), (0, 0.7070934, 0.7071201)] (
                    interpolation = "faceVarying"
                )
                int[] primvars:normals:indices = [0, 0, 0, 1, 1, 1, 2, 2, 2, 3, 3, 3, 4, 4, 4, 5, 5, 5, 6, 6, 6, 7, 7, 7, 8, 8, 8, 9, 9, 9, 10, 10, 10, 3, 3, 3, 11, 11, 11, 12, 12, 12, 13, 13, 13, 7, 7, 7, 14, 14, 14, 15, 15, 15, 16, 16, 16, 17, 17, 17, 18, 18, 18, 19, 19, 19, 20, 20, 20, 21, 21, 21, 22, 22, 22, 23, 23, 23, 24, 24, 24, 25, 25, 25, 26, 26, 26, 27, 27, 27, 28, 28, 28, 29, 29, 29, 30, 30, 30, 30, 30, 30, 31, 31, 31, 31, 31, 31, 32, 32, 32, 32, 32, 32, 33, 33, 33, 33, 33, 33, 34, 34, 34, 34, 34, 34, 35, 35, 35, 35, 35, 35, 34, 34, 34, 34, 34, 34, 35, 35, 35, 35, 35, 35, 31, 31, 31, 31, 31, 31, 30, 30, 30, 30, 30, 30, 32, 32, 32, 32, 32, 32, 33, 33, 33, 33, 33, 33, 30, 30, 30, 30, 30, 30, 31, 31, 31, 31, 31, 31, 31, 31, 31, 31, 31, 31, 33, 33, 33, 33, 33, 33, 34, 34, 34, 34, 34, 34, 35, 35, 35, 35, 35, 35, 30, 30, 30, 30, 30, 30, 34, 34, 34, 34, 34, 34, 31, 31, 31, 31, 31, 31, 32, 32, 32, 32, 32, 32, 33, 33, 33, 33, 33, 33, 35, 35, 35, 35, 35, 35, 31, 31, 31, 31, 31, 31, 35, 35, 35, 35, 35, 35, 34, 34, 34, 34, 34, 34, 30, 30, 30, 30, 30, 30, 32, 32, 32, 32, 32, 32, 33, 33, 33, 33, 33, 33, 30, 30, 30, 30, 30, 30, 34, 34, 34, 34, 34, 34, 32, 32, 32, 32, 32, 32, 33, 33, 33, 33, 33, 33, 35, 35, 35, 35, 35, 35, 35, 35, 35, 35, 35, 35, 31, 31, 31, 31, 31, 31, 30, 30, 30, 30, 30, 30, 34, 34, 34, 34, 34, 34, 32, 32, 32, 32, 32, 32, 33, 33, 33, 33, 33, 33, 30, 30, 30, 30, 30, 30, 31, 31, 31, 31, 31, 31, 35, 35, 35, 35, 35, 35, 34, 34, 34, 34, 34, 34, 32, 32, 32, 32, 32, 32, 33, 33, 33, 33, 33, 33, 36, 36, 36, 36, 36, 36, 37, 37, 37, 37, 37, 37, 38, 38, 38, 38, 38, 38, 39, 39, 39, 39, 39, 39, 40, 40, 40, 40, 40, 40, 41, 41, 41, 41, 41, 41, 42, 42, 42, 42, 42, 42, 43, 43, 43, 43, 43, 43, 44, 44, 44, 44, 44, 44, 45, 45, 45, 45, 45, 45, 46, 46, 46, 46, 46, 46, 47, 47, 47, 47, 47, 47, 48, 48, 48, 48, 48, 48, 49, 49, 49, 49, 49, 49, 50, 50, 50, 50, 50, 50, 39, 39, 39, 39, 39, 39, 40, 40, 40, 40, 40, 40, 41, 41, 41, 41, 41, 41, 51, 51, 51, 51, 51, 51, 43, 43, 43, 43, 43, 43, 44, 44, 44, 44, 44, 44, 52, 52, 52, 52, 52, 52, 53, 53, 53, 53, 53, 53, 54, 54, 54, 54, 54, 54, 55, 55, 55, 55, 55, 55, 56, 56, 56, 56, 56, 56, 57, 57, 57, 57, 57, 57, 58, 58, 58, 58, 58, 58, 40, 40, 40, 40, 40, 40, 41, 41, 41, 41, 41, 41, 39, 39, 39, 39, 39, 39, 48, 48, 48, 48, 48, 48, 50, 50, 50, 50, 50, 50, 37, 37, 37, 37, 37, 37, 46, 46, 46, 46, 46, 46, 47, 47, 47, 47, 47, 47, 55, 55, 55, 55, 55, 55, 59, 59, 59, 59, 59, 59, 57, 57, 57, 57, 57, 57, 60, 60, 60, 60, 60, 60, 40, 40, 40, 40, 40, 40, 41, 41, 41, 41, 41, 41, 39, 39, 39, 39, 39, 39, 48, 48, 48, 48, 48, 48, 50, 50, 50, 50, 50, 50, 49, 49, 49, 49, 49, 49, 61, 61, 61, 61, 61, 61, 62, 62, 62, 62, 62, 62, 32, 32, 32, 32, 32, 32]
                texCoord2f[] primvars:st = [(0.4446895, 0.05554584), (0.4403958, 0.05554584), (0.4446895, 0.05125234), (0.4446895, 0.6945907), (0.4403958, 0.6902972), (0.4446895, 0.6902972), (0.04318276, 0.05554584), (0.03888929, 0.05554584), (0.04318276, 0.05125234), (0.03888929, 0.6902972), (0.04318276, 0.6902972), (0.04318276, 0.6945907), (0.09620723, 0.05554584), (0.09191376, 0.05554584), (0.09191376, 0.05125234), (0.09191376, 0.6902972), (0.09620723, 0.6902972), (0.09191376, 0.6945907), (0.101912, 0.05554584), (0.09761858, 0.05554584), (0.101912, 0.05125234), (0.09761858, 0.6902972), (0.101912, 0.6902972), (0.101912, 0.6945907), (0.1549364, 0.05554584), (0.150643, 0.05554584), (0.150643, 0.05125234), (0.150643, 0.6902972), (0.1549364, 0.6902972), (0.150643, 0.6945907), (0.01189029, 0.05554584), (0.00759685, 0.05554584), (0.00759685, 0.05125234), (0.01189029, 0.6902972), (0.00759685, 0.6945907), (0.00759685, 0.6902972), (0.952679, 0.05554584), (0.9483856, 0.05554584), (0.952679, 0.05125234), (0.9483856, 0.6902972), (0.952679, 0.6902972), (0.952679, 0.6945907), (0.4996071, 0.05554584), (0.4996071, 0.6902972), (0.4996071, 0.101912), (0.4446895, 0.101912), (0.4446895, 0.150643), (0.4996071, 0.150643), (0.4446895, 0.04318276), (0.4996071, 0.04318276), (0.4996071, 0.09191376), (0.4446895, 0.09191376), (1.040033, 0.6935409), (1.040033, 0.5879571), (0.1552476, 0.5879571), (0.1552476, 0.6935409), (0.5037937, 0.6935409), (0.5037937, 0.5879571), (0.4720349, 0.5879571), (0.4720349, 0.6935409), (-0.8447524, 0.6935409), (-0.8447524, 0.5879571), (0.04003343, 0.5879571), (0.04003343, 0.6935409), (0.5037937, -0.8447524), (0.4720349, -0.8447524), (0.4720349, 0.04003343), (0.5037937, 0.04003343), (1.007597, 0.6902972), (1.007597, 0.05554584), (-0.04732096, 0.04318276), (-0.04732096, 0.09191376), (0.00759685, 0.09191376), (0.00759685, 0.04318276), (1.007597, 0.04318276), (1.007597, 0.09191376), (0.952679, 0.09191376), (0.952679, 0.04318276), (-0.04732096, 0.6902972), (-0.04732096, 0.05554584), (1.040033, 0.693541), (0.1552476, 0.693541), (0.949874, 0.693541), (0.9816328, 0.693541), (0.9816328, 0.5879571), (0.949874, 0.5879571), (-0.8447524, 0.693541), (0.04003343, 0.693541), (0.949874, -0.8447524), (0.949874, 0.04003343), (0.9816328, 0.04003343), (0.9816328, -0.8447524), (-0.04732096, 0.101912), (-0.04732096, 0.150643), (0.00759685, 0.150643), (0.00759685, 0.101912), (1.007597, 0.101912), (1.007597, 0.150643), (0.952679, 0.150643), (0.952679, 0.101912), (1.44663, 0.6935409), (1.44663, 0.5879571), (0.00565577, 0.5879571), (0.00565577, 0.6935409), (0.09969425, 0.6935409), (0.09969425, 0.5879571), (0.131453, 0.5879571), (0.131453, 0.6935409), (-0.9943442, 0.6935409), (-0.9943442, 0.5879571), (0.4466305, 0.5879571), (0.4466305, 0.6935409), (-0.9943442, 0.09969425), (-0.9943442, 0.131453), (0.4466305, 0.131453), (0.4466305, 0.09969425), (1.44663, 0.693541), (0.00565577, 0.693541), (0.09776276, 0.693541), (0.06600392, 0.693541), (0.06600392, 0.5879571), (0.09776276, 0.5879571), (-0.9943442, 0.693541), (0.4466305, 0.693541), (0.06600398, 0.693541), (0.06600398, 0.5879571), (-0.9943442, 0.09776276), (0.4466305, 0.09776276), (0.4466305, 0.06600392), (-0.9943442, 0.06600398), (0.4403958, 0.04318276), (0.4403958, 0.09191376), (0.4996071, 0.05125234), (0.4996071, 0.6945907), (0.4403958, 0.101912), (0.4403958, 0.150643), (1.007597, 0.05125234), (-0.04732096, 0.6945907), (-0.04732096, 0.05125234), (1.007597, 0.6945907)] (
                    interpolation = "faceVarying"
                )
                int[] primvars:st:indices = [0, 1, 2, 3, 4, 5, 1, 0, 2, 5, 4, 3, 6, 7, 8, 9, 10, 11, 12, 13, 14, 15, 16, 17, 0, 1, 2, 3, 4, 5, 1, 0, 2, 5, 4, 3, 18, 19, 20, 21, 22, 23, 24, 25, 26, 27, 28, 29, 30, 31, 32, 33, 34, 35, 31, 30, 32, 33, 35, 34, 36, 37, 38, 39, 40, 41, 37, 36, 38, 40, 39, 41, 30, 31, 32, 33, 34, 35, 31, 30, 32, 33, 35, 34, 36, 37, 38, 39, 40, 41, 37, 36, 38, 40, 39, 41, 5, 0, 42, 43, 5, 42, 10, 6, 13, 15, 10, 13, 44, 45, 46, 47, 44, 46, 48, 49, 50, 51, 48, 50, 15, 13, 6, 10, 15, 6, 43, 42, 0, 5, 43, 0, 52, 53, 54, 55, 52, 54, 56, 57, 58, 59, 56, 58, 60, 61, 62, 63, 60, 62, 59, 58, 57, 56, 59, 57, 64, 65, 66, 67, 64, 66, 65, 64, 67, 66, 65, 67, 5, 0, 42, 43, 5, 42, 22, 18, 25, 27, 22, 25, 15, 10, 6, 13, 15, 6, 45, 44, 47, 46, 45, 47, 27, 25, 18, 22, 27, 18, 43, 42, 0, 5, 43, 0, 68, 40, 36, 69, 68, 36, 10, 15, 13, 6, 10, 13, 27, 22, 18, 25, 27, 18, 70, 71, 72, 73, 70, 72, 74, 75, 76, 77, 74, 76, 78, 35, 31, 79, 78, 31, 80, 81, 54, 53, 80, 54, 82, 83, 84, 85, 82, 84, 86, 87, 62, 61, 86, 62, 83, 82, 85, 84, 83, 85, 88, 89, 90, 91, 88, 90, 91, 90, 89, 88, 91, 89, 68, 40, 36, 69, 68, 36, 22, 27, 25, 18, 22, 25, 92, 93, 94, 95, 92, 94, 96, 97, 98, 99, 96, 98, 78, 35, 31, 79, 78, 31, 100, 101, 102, 103, 100, 102, 104, 105, 106, 107, 104, 106, 108, 109, 110, 111, 108, 110, 107, 106, 105, 104, 107, 105, 112, 113, 114, 115, 112, 114, 113, 112, 115, 114, 113, 115, 116, 117, 102, 101, 116, 102, 118, 119, 120, 121, 118, 120, 122, 123, 110, 109, 122, 110, 124, 118, 121, 125, 124, 121, 126, 127, 128, 129, 126, 128, 129, 128, 127, 126, 129, 127, 130, 131, 51, 48, 130, 51, 4, 1, 0, 5, 4, 0, 131, 130, 48, 51, 131, 48, 1, 4, 5, 0, 1, 5, 0, 42, 132, 2, 0, 132, 43, 5, 3, 133, 43, 3, 12, 16, 15, 13, 12, 15, 13, 6, 8, 14, 13, 8, 10, 15, 17, 11, 10, 17, 6, 10, 9, 7, 6, 9, 42, 0, 2, 132, 42, 2, 5, 43, 133, 3, 5, 133, 134, 135, 46, 45, 134, 46, 4, 1, 0, 5, 4, 0, 135, 134, 45, 46, 135, 45, 1, 4, 5, 0, 1, 5, 0, 42, 132, 2, 0, 132, 43, 5, 3, 133, 43, 3, 24, 28, 27, 25, 24, 27, 25, 18, 20, 26, 25, 20, 22, 27, 29, 23, 22, 29, 18, 22, 21, 19, 18, 21, 42, 0, 2, 132, 42, 2, 5, 43, 133, 3, 5, 133, 8, 14, 13, 6, 8, 13, 35, 31, 30, 33, 35, 30, 17, 11, 10, 15, 17, 10, 31, 35, 33, 30, 31, 33, 136, 38, 36, 69, 136, 36, 137, 34, 35, 78, 137, 35, 37, 39, 40, 36, 37, 40, 14, 8, 6, 13, 14, 6, 11, 17, 15, 10, 11, 15, 36, 40, 39, 37, 36, 39, 138, 32, 31, 79, 138, 31, 139, 41, 40, 68, 139, 40, 20, 26, 25, 18, 20, 25, 35, 31, 30, 33, 35, 30, 29, 23, 22, 27, 29, 22, 31, 35, 33, 30, 31, 33, 136, 38, 36, 69, 136, 36, 137, 34, 35, 78, 137, 35, 37, 39, 40, 36, 37, 40, 26, 20, 18, 25, 26, 18, 23, 29, 27, 22, 23, 27, 36, 40, 39, 37, 36, 39, 138, 32, 31, 79, 138, 31, 139, 41, 40, 68, 139, 40, 49, 48, 51, 50, 49, 51]
                uniform token subdivisionScheme = "none"
                quatf xformOp:orient = (1, 0, 0, 0)
                float3 xformOp:scale = (1, 1, 1)
                double3 xformOp:translate = (-0.00134, -0.21855, -0.00956)
                uniform token[] xformOpOrder = ["xformOp:translate", "xformOp:orient", "xformOp:scale"]
            }

            def Mesh "Coffee_Table_230_1_Mesh_1" (
                apiSchemas = ["MaterialBindingAPI"]
            )
            {
                float3[] extent = [(-0.82764, 0.42108, -0.40054), (0.82765, 0.45005, 0.40055)]
                int[] faceVertexCounts = [3, 3, 3, 3, 3, 3, 3, 3, 3, 3, 3, 3, 3, 3, 3, 3, 3, 3, 3, 3, 3, 3, 3, 3, 3, 3, 3, 3, 3, 3, 3, 3, 3, 3, 3, 3, 3, 3, 3, 3, 3, 3, 3, 3]
                int[] faceVertexIndices = [2, 1, 0, 5, 4, 3, 8, 7, 6, 11, 10, 9, 14, 13, 12, 17, 16, 15, 20, 19, 18, 23, 22, 21, 26, 25, 24, 27, 26, 24, 30, 29, 28, 31, 30, 28, 34, 33, 32, 35, 34, 32, 38, 37, 36, 39, 38, 36, 42, 41, 40, 43, 42, 40, 46, 45, 44, 47, 46, 44, 50, 49, 48, 51, 50, 48, 54, 53, 52, 55, 54, 52, 58, 57, 56, 59, 58, 56, 62, 61, 60, 63, 62, 60, 66, 65, 64, 67, 66, 64, 70, 69, 68, 71, 70, 68, 74, 73, 72, 75, 74, 72, 78, 77, 76, 79, 78, 76, 82, 81, 80, 83, 82, 80, 86, 85, 84, 87, 86, 84, 90, 89, 88, 91, 90, 88, 94, 93, 92, 95, 94, 92]
                rel material:binding = </Coffee_Table_230_1/Materials/material_LightWoodCounters2>
                uniform token orientation = "rightHanded"
                point3f[] points = [(-0.82414, 0.42108, 0.39705), (-0.82764, 0.42458, 0.39705), (-0.82414, 0.42458, 0.40055), (-0.82414, 0.44656, 0.40055), (-0.82764, 0.44656, 0.39705), (-0.82414, 0.45005, 0.39705), (-0.82414, 0.42108, -0.39704), (-0.82414, 0.42458, -0.40054), (-0.82764, 0.42458, -0.39705), (-0.82414, 0.45005, -0.39704), (-0.82764, 0.44656, -0.39705), (-0.82414, 0.44656, -0.40054), (0.82415, 0.42108, 0.39705), (0.82415, 0.42458, 0.40055), (0.82765, 0.42458, 0.39705), (0.82415, 0.45005, 0.39705), (0.82765, 0.44656, 0.39705), (0.82415, 0.44656, 0.40055), (0.82415, 0.42108, -0.39705), (0.82765, 0.42458, -0.39704), (0.82415, 0.42458, -0.40054), (0.82415, 0.45005, -0.39705), (0.82415, 0.44656, -0.40054), (0.82765, 0.44656, -0.39704), (0.82415, 0.42458, 0.40055), (-0.82414, 0.42458, 0.40055), (-0.82414, 0.44656, 0.40055), (0.82415, 0.44656, 0.40055), (0.82765, 0.42458, -0.39704), (0.82765, 0.42458, 0.39705), (0.82765, 0.44656, 0.39705), (0.82765, 0.44656, -0.39704), (0.82415, 0.45005, -0.39705), (0.82415, 0.45005, 0.39705), (-0.82414, 0.45005, 0.39705), (-0.82414, 0.45005, -0.39704), (-0.82764, 0.42458, 0.39705), (-0.82764, 0.42458, -0.39705), (-0.82764, 0.44656, -0.39705), (-0.82764, 0.44656, 0.39705), (-0.82414, 0.42458, -0.40054), (0.82415, 0.42458, -0.40054), (0.82415, 0.44656, -0.40054), (-0.82414, 0.44656, -0.40054), (-0.82414, 0.42108, -0.39704), (-0.82764, 0.42458, -0.39705), (-0.82764, 0.42458, 0.39705), (-0.82414, 0.42108, 0.39705), (-0.82414, 0.42458, 0.40055), (-0.82764, 0.42458, 0.39705), (-0.82764, 0.44656, 0.39705), (-0.82414, 0.44656, 0.40055), (-0.82414, 0.45005, 0.39705), (-0.82764, 0.44656, 0.39705), (-0.82764, 0.44656, -0.39705), (-0.82414, 0.45005, -0.39704), (-0.82414, 0.44656, -0.40054), (-0.82764, 0.44656, -0.39705), (-0.82764, 0.42458, -0.39705), (-0.82414, 0.42458, -0.40054), (0.82415, 0.42108, -0.39705), (0.82415, 0.42458, -0.40054), (-0.82414, 0.42458, -0.40054), (-0.82414, 0.42108, -0.39704), (-0.82414, 0.45005, -0.39704), (-0.82414, 0.44656, -0.40054), (0.82415, 0.44656, -0.40054), (0.82415, 0.45005, -0.39705), (0.82765, 0.44656, -0.39704), (0.82415, 0.44656, -0.40054), (0.82415, 0.42458, -0.40054), (0.82765, 0.42458, -0.39704), (0.82415, 0.42108, 0.39705), (0.82765, 0.42458, 0.39705), (0.82765, 0.42458, -0.39704), (0.82415, 0.42108, -0.39705), (0.82415, 0.45005, -0.39705), (0.82765, 0.44656, -0.39704), (0.82765, 0.44656, 0.39705), (0.82415, 0.45005, 0.39705), (0.82415, 0.44656, 0.40055), (0.82765, 0.44656, 0.39705), (0.82765, 0.42458, 0.39705), (0.82415, 0.42458, 0.40055), (-0.82414, 0.42108, 0.39705), (-0.82414, 0.42458, 0.40055), (0.82415, 0.42458, 0.40055), (0.82415, 0.42108, 0.39705), (0.82415, 0.45005, 0.39705), (0.82415, 0.44656, 0.40055), (-0.82414, 0.44656, 0.40055), (-0.82414, 0.45005, 0.39705), (-0.82414, 0.42108, -0.39704), (-0.82414, 0.42108, 0.39705), (0.82415, 0.42108, 0.39705), (0.82415, 0.42108, -0.39705)]
                normal3f[] primvars:normals = [(-0.5773407, -0.5773495, 0.5773605), (-0.5773411, 0.5773494, 0.5773604), (-0.5773374, -0.5773567, -0.5773567), (-0.5773365, 0.5773572, -0.5773572), (0.5773517, -0.5773495, 0.5773495), (0.577352, 0.5773493, 0.5773493), (0.5773557, -0.577342, -0.5773531), (0.5773548, 0.5773425, -0.5773535), (0, 0, 1), (1, 0, 0), (0, 1, 0), (-1, 0, 0), (0, 0, -1), (-0.7071007, -0.7071127, 0), (-0.707092, 0, 0.7071216), (-0.7071006, 0.7071129, 0), (-0.707092, 0, -0.7071216), (0, -0.7070981, -0.7071154), (0, 0.7070981, -0.7071154), (0.7071092, 0, -0.7071043), (0.7071129, -0.7071006, 0), (0.7071127, 0.7071007, 0), (0.7071092, 0, 0.7071043), (0, -0.7071018, 0.7071117), (0, 0.7071018, 0.7071117), (0, -1, 0)] (
                    interpolation = "faceVarying"
                )
                int[] primvars:normals:indices = [0, 0, 0, 1, 1, 1, 2, 2, 2, 3, 3, 3, 4, 4, 4, 5, 5, 5, 6, 6, 6, 7, 7, 7, 8, 8, 8, 8, 8, 8, 9, 9, 9, 9, 9, 9, 10, 10, 10, 10, 10, 10, 11, 11, 11, 11, 11, 11, 12, 12, 12, 12, 12, 12, 13, 13, 13, 13, 13, 13, 14, 14, 14, 14, 14, 14, 15, 15, 15, 15, 15, 15, 16, 16, 16, 16, 16, 16, 17, 17, 17, 17, 17, 17, 18, 18, 18, 18, 18, 18, 19, 19, 19, 19, 19, 19, 20, 20, 20, 20, 20, 20, 21, 21, 21, 21, 21, 21, 22, 22, 22, 22, 22, 22, 23, 23, 23, 23, 23, 23, 24, 24, 24, 24, 24, 24, 25, 25, 25, 25, 25, 25]
                texCoord2f[] primvars:st = [(0.9484584, 0.6975573), (0.9430671, 0.6975573), (0.9484584, 0.692166), (0.9484584, 0.7368506), (0.9430671, 0.7314593), (0.9484584, 0.7314593), (0.5094638, 0.6975573), (0.5040722, 0.6975573), (0.5040722, 0.692166), (0.5040722, 0.7314593), (0.5094638, 0.7314593), (0.5040722, 0.7368506), (-1.051542, 0.7314593), (-1.051542, 0.6975573), (-0.9008734, 0.7314593), (-0.9008734, 0.6975573), (0.09542078, 0.6975573), (0.09542078, 0.7314593), (-1.051542, -0.9008734), (0.5040722, -0.9008734), (0.5040722, 0.09542078), (-1.051542, 0.09542078), (1.095421, 0.7314593), (1.095421, 0.6975573), (0.09912658, 0.6975573), (0.09912658, 0.7314593), (2.504072, 0.7314593), (2.504072, 0.6975573), (0.09542078, 0.692166), (-0.9008734, 0.692166), (0.09912658, 0.7368506), (1.095421, 0.7368506), (-1.051542, 0.692166), (2.504072, 0.7368506), (0.5094638, 1.095421), (0.5094638, 0.09912658), (0.5040722, 0.09912658), (0.5040722, 1.095421), (0.5094638, -0.9008734), (0.5094638, 0.09542078), (2.504072, 0.692166), (-1.051542, 0.7368506), (2.504072, -0.9008734), (0.9484584, -0.9008734), (0.9484584, 0.09542078), (2.504072, 0.09542078)] (
                    interpolation = "faceVarying"
                )
                int[] primvars:st:indices = [0, 1, 2, 3, 4, 5, 1, 0, 2, 5, 4, 3, 6, 7, 8, 9, 10, 11, 7, 6, 8, 10, 9, 11, 12, 13, 7, 9, 12, 7, 14, 15, 16, 17, 14, 16, 18, 19, 20, 21, 18, 20, 22, 23, 24, 25, 22, 24, 26, 27, 0, 5, 26, 0, 15, 16, 28, 29, 15, 28, 4, 1, 0, 5, 4, 0, 22, 25, 30, 31, 22, 30, 1, 4, 5, 0, 1, 5, 13, 7, 8, 32, 13, 8, 26, 5, 3, 33, 26, 3, 7, 9, 10, 6, 7, 10, 34, 35, 36, 37, 34, 36, 38, 39, 20, 19, 38, 20, 6, 10, 9, 7, 6, 9, 27, 0, 2, 40, 27, 2, 12, 9, 11, 41, 12, 11, 42, 43, 44, 45, 42, 44]
                uniform token subdivisionScheme = "none"
                quatf xformOp:orient = (1, 0, 0, 0)
                float3 xformOp:scale = (1, 1, 1)
                double3 xformOp:translate = (-0.00134, -0.21855, -0.00956)
                uniform token[] xformOpOrder = ["xformOp:translate", "xformOp:orient", "xformOp:scale"]
            }

            def Cube "Coffee_Table_230_1_Mesh_PrimitiveCollider_0" (
                apiSchemas = ["PhysicsCollisionAPI", "PhysicsMassAPI"]
            )
            {
                float3[] extent = [(-0.5, -0.5, -0.5), (0.5, 0.5, 0.5)]
                float physics:density = 326.976
                uniform token purpose = "guide"
                double size = 1
                quatf xformOp:orient = (-1.6081226e-16, -0.70710677, -2.2993472e-17, 0.70710677)
                float3 xformOp:scale = (0.81146, 0.0296868, 1.665336)
                double3 xformOp:translate = (-0.0026790900000000003, 0.207213, 6.999999999993123e-7)
                uniform token[] xformOpOrder = ["xformOp:translate", "xformOp:orient", "xformOp:scale"]
            }

            def Cube "Coffee_Table_230_1_Mesh_PrimitiveCollider_1" (
                apiSchemas = ["PhysicsCollisionAPI", "PhysicsMassAPI"]
            )
            {
                float3[] extent = [(-0.5, -0.5, -0.5), (0.5, 0.5, 0.5)]
                float physics:density = 326.976
                uniform token purpose = "guide"
                double size = 1
                quatf xformOp:orient = (-1.6081226e-16, -0.70710677, -2.2993472e-17, 0.70710677)
                float3 xformOp:scale = (0.037848, 0.427482, 0.0417086)
                double3 xformOp:translate = (-0.805341, -0.008312999999999987, -0.379624)
                uniform token[] xformOpOrder = ["xformOp:translate", "xformOp:orient", "xformOp:scale"]
            }

            def Cube "Coffee_Table_230_1_Mesh_PrimitiveCollider_2" (
                apiSchemas = ["PhysicsCollisionAPI", "PhysicsMassAPI"]
            )
            {
                float3[] extent = [(-0.5, -0.5, -0.5), (0.5, 0.5, 0.5)]
                float physics:density = 326.976
                uniform token purpose = "guide"
                double size = 1
                quatf xformOp:orient = (-1.6081226e-16, -0.70710677, -2.2993472e-17, 0.70710677)
                float3 xformOp:scale = (0.037848, 0.427482, 0.0417086)
                double3 xformOp:translate = (-0.805341, -0.008312999999999987, 0.380376)
                uniform token[] xformOpOrder = ["xformOp:translate", "xformOp:orient", "xformOp:scale"]
            }

            def Cube "Coffee_Table_230_1_Mesh_PrimitiveCollider_3" (
                apiSchemas = ["PhysicsCollisionAPI", "PhysicsMassAPI"]
            )
            {
                float3[] extent = [(-0.5, -0.5, -0.5), (0.5, 0.5, 0.5)]
                float physics:density = 326.976
                uniform token purpose = "guide"
                double size = 1
                quatf xformOp:orient = (-1.6081226e-16, -0.70710677, -2.2993472e-17, 0.70710677)
                float3 xformOp:scale = (0.037848, 0.427482, 0.0417086)
                double3 xformOp:translate = (0.802659, -0.008312999999999987, 0.380376)
                uniform token[] xformOpOrder = ["xformOp:translate", "xformOp:orient", "xformOp:scale"]
            }

            def Cube "Coffee_Table_230_1_Mesh_PrimitiveCollider_4" (
                apiSchemas = ["PhysicsCollisionAPI", "PhysicsMassAPI"]
            )
            {
                float3[] extent = [(-0.5, -0.5, -0.5), (0.5, 0.5, 0.5)]
                float physics:density = 326.976
                uniform token purpose = "guide"
                double size = 1
                quatf xformOp:orient = (-1.6081226e-16, -0.70710677, -2.2993472e-17, 0.70710677)
                float3 xformOp:scale = (0.037848, 0.427482, 0.0417086)
                double3 xformOp:translate = (0.80266, -0.008312999999999987, -0.380624)
                uniform token[] xformOpOrder = ["xformOp:translate", "xformOp:orient", "xformOp:scale"]
            }
        }
    }

    def Scope "Materials"
    {
        def Material "material_DarkWoodSmooth"
        {
            token outputs:displacement.connect = </Coffee_Table_230_1/Materials/material_DarkWoodSmooth/PreviewSurface.outputs:displacement>
            token outputs:surface.connect = </Coffee_Table_230_1/Materials/material_DarkWoodSmooth/PreviewSurface.outputs:surface>

            def Shader "PreviewSurface"
            {
                uniform token info:id = "UsdPreviewSurface"
                color3f inputs:diffuseColor.connect = </Coffee_Table_230_1/Materials/material_DarkWoodSmooth/DiffuseTexture.outputs:rgb>
                float inputs:metallic = 0
                float inputs:opacity = 1
                float inputs:roughness = 0.5
                token outputs:displacement
                token outputs:surface
            }

            def Shader "DiffuseTexture"
            {
                uniform token info:id = "UsdUVTexture"
                float4 inputs:fallback = (0.245283, 0.168921, 0.113725, 1)
                asset inputs:file = @./Textures/WoodGrains1.png@
                float4 inputs:scale = (0.245283, 0.168921, 0.113725, 1)
                token inputs:sourceColorSpace = "auto"
                float2 inputs:st.connect = </Coffee_Table_230_1/Materials/material_DarkWoodSmooth/Primvar_st_float2.outputs:result>
                token inputs:wrapS = "repeat"
                token inputs:wrapT = "repeat"
                float3 outputs:rgb
            }

            def Shader "Primvar_st_float2"
            {
                uniform token info:id = "UsdPrimvarReader_float2"
                string inputs:varname = "st"
                float2 outputs:result
            }
        }

        def Material "material_LightWoodCounters2"
        {
            token outputs:displacement.connect = </Coffee_Table_230_1/Materials/material_LightWoodCounters2/PreviewSurface.outputs:displacement>
            token outputs:surface.connect = </Coffee_Table_230_1/Materials/material_LightWoodCounters2/PreviewSurface.outputs:surface>

            def Shader "PreviewSurface"
            {
                uniform token info:id = "UsdPreviewSurface"
                color3f inputs:diffuseColor.connect = </Coffee_Table_230_1/Materials/material_LightWoodCounters2/DiffuseTexture.outputs:rgb>
                float inputs:metallic = 0
                float inputs:opacity = 1
                float inputs:roughness = 0.5
                token outputs:displacement
                token outputs:surface
            }

            def Shader "DiffuseTexture"
            {
                uniform token info:id = "UsdUVTexture"
                float4 inputs:fallback = (0.764151, 0.517355, 0.299172, 1)
                asset inputs:file = @./Textures/LightWoodCounters.png@
                float4 inputs:scale = (0.764151, 0.517355, 0.299172, 1)
                token inputs:sourceColorSpace = "auto"
                float2 inputs:st.connect = </Coffee_Table_230_1/Materials/material_LightWoodCounters2/Primvar_st_float2.outputs:result>
                token inputs:wrapS = "repeat"
                token inputs:wrapT = "repeat"
                float3 outputs:rgb
            }

            def Shader "Primvar_st_float2"
            {
                uniform token info:id = "UsdPrimvarReader_float2"
                string inputs:varname = "st"
                float2 outputs:result
            }
        }
    }

    def Scope "Physics"
    {
    }
}

def PhysicsScene "PhysicsScene"
{
    vector3f physics:gravityDirection = (0, 0, -1)
    float physics:gravityMagnitude = 9.81
}

