mtllib Drawer_45b02cbc.mtl
v -0.24 0.055 0.02
v -0.238 0.053 0.022
v -0.238 -0.053 0.022
v -0.24 0.055 0.02
v -0.238 -0.053 0.022
v -0.24 -0.05499 0.02
v -0.24 -0.05499 0
v 0.24 -0.05499 0
v 0.24 0.055 0
v -0.24 0.055 0
v -0.24 -0.05499 0.02
v -0.24 -0.05499 0
v -0.24 0.055 0
v -0.24 0.055 0.02
v -0.24 0.055 0.02
v -0.24 0.055 0
v 0.24 0.055 0
v 0.24 0.055 0.02
v 0.24 0.055 0.02
v 0.24 0.055 0
v 0.24 -0.05499 0
v 0.24 -0.05499 0.02
v 0.24 -0.05499 0.02
v 0.24 -0.05499 0
v -0.24 -0.05499 0
v -0.24 -0.05499 0.02
v -0.238 -0.053 0.022
v -0.238 0.053 0.022
v 0.23801 0.05301 0.022
v 0.23801 -0.05299 0.022
v -0.24 -0.05499 0.02
v -0.238 -0.053 0.022
v 0.23801 -0.05299 0.022
v 0.24 -0.05499 0.02
v 0.24 -0.05499 0.02
v 0.23801 -0.05299 0.022
v 0.23801 0.05301 0.022
v 0.24 0.055 0.02
v 0.24 0.055 0.02
v 0.23801 0.05301 0.022
v -0.238 0.053 0.022
v -0.24 0.055 0.02
v -0.23899 -0.054 -0.36712
v 0.23901 -0.05399 -0.36712
v 0.23901 0.04861 -0.36712
v -0.23899 0.0486 -0.36712
v 0.23901 -0.05399 0.00813
v 0.23901 0.04861 0.00813
v 0.23901 0.04861 -0.36712
v 0.23901 -0.05399 -0.36712
v -0.23899 0.0486 0.00813
v -0.23899 -0.054 0.00813
v -0.23899 -0.054 -0.36712
v -0.23899 0.0486 -0.36712
v -0.224 -0.0445 -0.00612
v -0.224 -0.0445 -0.35287
v 0.22401 -0.0445 -0.35287
v 0.22401 -0.0445 -0.00612
v -0.23899 -0.054 0.00813
v 0.23901 -0.05399 0.00813
v 0.23901 -0.05399 -0.36712
v -0.23899 -0.054 -0.36712
v -0.224 0.0486 -0.00612
v -0.224 -0.0445 -0.00612
v 0.22401 -0.0445 -0.00612
v 0.22401 0.04861 -0.00612
v 0.22401 0.04861 -0.00612
v 0.22401 -0.0445 -0.00612
v 0.22401 -0.0445 -0.35287
v 0.22401 0.04861 -0.35287
v 0.22401 0.04861 -0.35287
v 0.22401 -0.0445 -0.35287
v -0.224 -0.0445 -0.35287
v -0.224 0.0486 -0.35287
v -0.224 0.0486 -0.35287
v -0.224 -0.0445 -0.35287
v -0.224 -0.0445 -0.00612
v -0.224 0.0486 -0.00612
v 0.23901 0.04861 -0.36712
v 0.22401 0.04861 -0.35287
v -0.224 0.0486 -0.35287
v -0.23899 0.0486 -0.36712
v 0.23901 0.04861 0.00813
v -0.224 0.0486 -0.00612
v 0.22401 0.04861 -0.00612
v -0.23899 0.0486 0.00813
vt 0.3511884 -0.2795938
vt 0.3532251 -0.2775571
vt 0.46117 -0.2775571
vt 0.3511884 -0.2795938
vt 0.46117 -0.2775571
vt 0.4632066 -0.2795937
vt 0.5395747 -0.1941704
vt 1.019575 -0.1941704
vt 1.019575 -0.3041704
vt 0.5395747 -0.3041703
vt 0.4632066 -0.2795937
vt 0.4632066 -0.2999608
vt 0.3511884 -0.2999608
vt 0.3511884 -0.2795938
vt 0.5351155 -0.1924879
vt 0.5351155 -0.1721162
vt 1.024034 -0.1721161
vt 1.024034 -0.1924878
vt 0.4541511 -0.2978309
vt 0.4541511 -0.2774638
vt 0.5661696 -0.2774638
vt 0.5661696 -0.2978309
vt 1.024035 -0.1468679
vt 1.024035 -0.1672396
vt 0.5351154 -0.1672396
vt 0.5351154 -0.1468679
vt 0.1093073 0.5966737
vt 0.1093073 0.7026736
vt 0.5853077 0.7026737
vt 0.5853077 0.5966737
vt 0.5351154 -0.1468679
vt 0.5371524 -0.1448308
vt 1.021997 -0.1448308
vt 1.024035 -0.1468679
vt 0.5661696 -0.2978309
vt 0.5641329 -0.2998675
vt 0.4561877 -0.2998675
vt 0.4541511 -0.2978309
vt 1.024034 -0.1924878
vt 1.021997 -0.1945249
vt 0.5371525 -0.194525
vt 0.5351155 -0.1924879
vt 0.5414743 0.6487387
vt 1.019475 0.6487386
vt 1.019475 0.5461386
vt 0.5414743 0.5461388
vt 0.2050067 0.0004737452
vt 0.2050067 0.1030737
vt 0.5802567 0.1030737
vt 0.5802567 0.0004738048
vt 0.5802566 0.004625309
vt 0.5802566 -0.09797461
vt 0.2050067 -0.0979747
vt 0.2050067 0.004625309
vt 0.1359038 0.2664853
vt 0.1359039 0.6132349
vt 0.583904 0.6132348
vt 0.583904 0.2664853
vt 0.5414746 0.5627562
vt 1.019475 0.5627564
vt 1.019475 0.1875062
vt 0.5414746 0.1875061
vt 0.1359035 0.1892997
vt 0.1359035 0.2823997
vt 0.5839038 0.2823998
vt 0.5839038 0.1892997
vt 0.5770288 -0.09429932
vt 0.5770288 -0.1873993
vt 0.2302792 -0.1873994
vt 0.2302791 -0.09429935
vt 0.5839038 0.1924987
vt 0.5839038 0.09939854
vt 0.1359034 0.09939848
vt 0.1359034 0.1924985
vt 0.5770285 -0.1842003
vt 0.5770285 -0.2773003
vt 0.2302791 -0.2773003
vt 0.2302791 -0.1842003
vt 1.019474 0.2177912
vt 1.004474 0.2035407
vt 0.5564752 0.2035407
vt 0.5414749 0.2177912
vt 1.019474 -0.157458
vt 0.556475 -0.143208
vt 1.004474 -0.143208
vt 0.5414749 -0.157458
vn -0.7071512 0 0.7070624
vn -0.707149 0 0.7070644
vn -0.7072218 0 0.7069918
vn -0.7071512 0 0.7070624
vn -0.7072218 0 0.7069918
vn -0.7072226 0 0.7069909
vn 0 0 -1
vn 0 0 -1
vn 0 0 -1
vn 0 0 -1
vn -1 0 0
vn -1 0 0
vn -1 0 0
vn -1 0 0
vn -1.589468E-07 1 0
vn -1.589469E-07 1 0
vn -1.589446E-07 1 0
vn -1.589445E-07 1 0
vn 1 0 0
vn 1 0 0
vn 1 0 0
vn 1 0 0
vn 0 -1 0
vn 0 -1 0
vn 0 -1 0
vn 0 -1 0
vn 0 0 1
vn 0 0 1
vn 0 0 1
vn 0 0 1
vn 0 -0.7071505 0.707063
vn 0 -0.7071508 0.7070627
vn 0 -0.7071249 0.7070886
vn 0 -0.7071249 0.7070886
vn 0.7071955 0 0.7070181
vn 0.7071993 0 0.7070143
vn 0.7070667 0 0.7071469
vn 0.707065 0 0.7071484
vn 5.596259E-07 0.707163 0.7070505
vn 5.666906E-07 0.7071633 0.7070501
vn -5.588983E-07 0.7071069 0.7071066
vn -5.619237E-07 0.7071068 0.7071068
vn 0 0 -1
vn 0 0 -1
vn 0 0 -1
vn 0 0 -1
vn 1 0 0
vn 1 0 0
vn 1 0 0
vn 1 0 0
vn -1 0 0
vn -1 0 0
vn -1 0 0
vn -1 0 0
vn 0 1 0
vn 0 1 0
vn 0 1 0
vn 0 1 0
vn 0 -1 0
vn 0 -1 0
vn 0 -1 0
vn 0 -1 0
vn 0 0 -1
vn 0 0 -1
vn 0 0 -1
vn 0 0 -1
vn -1 0 0
vn -1 0 0
vn -1 0 0
vn -1 0 0
vn 0 0 1
vn 0 0 1
vn 0 0 1
vn 0 0 1
vn 1 0 0
vn 1 0 0
vn 1 0 0
vn 1 0 0
vn 0 1 -3.185401E-06
vn 0 1 -3.466585E-06
vn 0 1 0
vn 0 1 0
vn 0 1 0
vn 0 1 2.567933E-06
vn 0 1 0
vn 0 1 2.359598E-06
usemtl WhiteWoodClean
f 3/3/3 2/2/2 1/1/1
f 6/6/6 5/5/5 4/4/4
f 9/9/9 8/8/8 7/7/7
f 10/10/10 9/9/9 7/7/7
f 13/13/13 12/12/12 11/11/11
f 14/14/14 13/13/13 11/11/11
f 17/17/17 16/16/16 15/15/15
f 18/18/18 17/17/17 15/15/15
f 21/21/21 20/20/20 19/19/19
f 22/22/22 21/21/21 19/19/19
f 25/25/25 24/24/24 23/23/23
f 26/26/26 25/25/25 23/23/23
f 29/29/29 28/28/28 27/27/27
f 30/30/30 29/29/29 27/27/27
f 33/33/33 32/32/32 31/31/31
f 34/34/34 33/33/33 31/31/31
f 37/37/37 36/36/36 35/35/35
f 38/38/38 37/37/37 35/35/35
f 41/41/41 40/40/40 39/39/39
f 42/42/42 41/41/41 39/39/39
f 45/45/45 44/44/44 43/43/43
f 46/46/46 45/45/45 43/43/43
f 49/49/49 48/48/48 47/47/47
f 50/50/50 49/49/49 47/47/47
f 53/53/53 52/52/52 51/51/51
f 54/54/54 53/53/53 51/51/51
f 57/57/57 56/56/56 55/55/55
f 58/58/58 57/57/57 55/55/55
f 61/61/61 60/60/60 59/59/59
f 62/62/62 61/61/61 59/59/59
f 65/65/65 64/64/64 63/63/63
f 66/66/66 65/65/65 63/63/63
f 69/69/69 68/68/68 67/67/67
f 70/70/70 69/69/69 67/67/67
f 73/73/73 72/72/72 71/71/71
f 74/74/74 73/73/73 71/71/71
f 77/77/77 76/76/76 75/75/75
f 78/78/78 77/77/77 75/75/75
f 81/81/81 80/80/80 79/79/79
f 82/82/82 81/81/81 79/79/79
f 79/79/79 80/80/80 83/83/83
f 84/84/84 81/81/81 82/82/82
f 80/80/80 85/85/85 83/83/83
f 86/86/86 84/84/84 82/82/82
f 83/83/83 85/85/85 86/86/86
f 85/85/85 84/84/84 86/86/86
