mtllib material.mtl
usemtl material_0
v -0.24000000 0.05000000 0.02000000
v -0.23800000 0.04801000 0.02200000
v -0.23800000 -0.09799000 0.02200000
v -0.24000000 -0.09999000 0.02000000
v -0.24000000 -0.09999000 0.00000000
v 0.24000000 -0.09999000 0.00000000
v 0.24000000 0.05000000 0.00000000
v -0.24000000 0.05000000 0.00000000
v -0.24000000 -0.09999000 0.02000000
v -0.24000000 -0.09999000 0.00000000
v -0.24000000 0.05000000 0.00000000
v -0.24000000 0.05000000 0.02000000
v -0.24000000 0.05000000 0.02000000
v -0.24000000 0.05000000 0.00000000
v 0.24000000 0.05000000 0.00000000
v 0.24000000 0.05000000 0.02000000
v 0.24000000 0.05000000 0.02000000
v 0.24000000 0.05000000 0.00000000
v 0.24000000 -0.09999000 0.00000000
v 0.24000000 -0.09999000 0.02000000
v 0.24000000 -0.09999000 0.02000000
v 0.24000000 -0.09999000 0.00000000
v -0.24000000 -0.09999000 0.00000000
v -0.24000000 -0.09999000 0.02000000
v -0.23800000 -0.09799000 0.02200000
v -0.23800000 0.04801000 0.02200000
v 0.23801000 0.04801000 0.02200000
v 0.23801000 -0.09799000 0.02200000
v -0.24000000 -0.09999000 0.02000000
v -0.23800000 -0.09799000 0.02200000
v 0.23801000 -0.09799000 0.02200000
v 0.24000000 -0.09999000 0.02000000
v 0.24000000 -0.09999000 0.02000000
v 0.23801000 -0.09799000 0.02200000
v 0.23801000 0.04801000 0.02200000
v 0.24000000 0.05000000 0.02000000
v 0.24000000 0.05000000 0.02000000
v 0.23801000 0.04801000 0.02200000
v -0.23800000 0.04801000 0.02200000
v -0.24000000 0.05000000 0.02000000
v -0.23899000 -0.09900000 -0.36712000
v 0.23901000 -0.09900000 -0.36712000
v 0.23901000 0.04161000 -0.36712000
v -0.23899000 0.04161000 -0.36712000
v -0.22400000 -0.08949000 -0.00612000
v -0.22400000 -0.08949000 -0.35287000
v 0.22401000 -0.08949000 -0.35287000
v 0.22401000 -0.08949000 -0.00612000
v 0.23901000 -0.09900000 -0.36712000
v 0.23901000 -0.09899000 0.00813000
v 0.23901000 0.04161000 0.00813000
v 0.23901000 0.04161000 -0.36712000
v -0.23899000 -0.09899000 0.00813000
v 0.23901000 -0.09899000 0.00813000
v 0.23901000 -0.09900000 -0.36712000
v -0.23899000 -0.09900000 -0.36712000
v -0.23899000 0.04161000 -0.36712000
v -0.23899000 0.04161000 0.00813000
v -0.23899000 -0.09899000 0.00813000
v -0.23899000 -0.09900000 -0.36712000
v -0.22400000 0.04161000 -0.00612000
v -0.22400000 -0.08949000 -0.00612000
v 0.22401000 -0.08949000 -0.00612000
v 0.22401000 0.04161000 -0.00612000
v 0.22401000 0.04161000 -0.00612000
v 0.22401000 -0.08949000 -0.00612000
v 0.22401000 -0.08949000 -0.35287000
v 0.22401000 0.04161000 -0.35287000
v 0.22401000 0.04161000 -0.35287000
v 0.22401000 -0.08949000 -0.35287000
v -0.22400000 -0.08949000 -0.35287000
v -0.22400000 0.04161000 -0.35287000
v -0.22400000 0.04161000 -0.35287000
v -0.22400000 -0.08949000 -0.35287000
v -0.22400000 -0.08949000 -0.00612000
v -0.22400000 0.04161000 -0.00612000
v 0.23901000 0.04161000 -0.36712000
v 0.22401000 0.04161000 -0.35287000
v -0.22400000 0.04161000 -0.35287000
v -0.23899000 0.04161000 -0.36712000
v 0.23901000 0.04161000 0.00813000
v -0.22400000 0.04161000 -0.00612000
v 0.22401000 0.04161000 -0.00612000
v -0.23899000 0.04161000 0.00813000
vn -0.70711670 0.00000000 0.70709690
vn -0.70711550 0.00000000 0.70709800
vn -0.70716950 0.00000000 0.70704400
vn -0.70717000 0.00000000 0.70704360
vn 0.00000000 0.00000000 -1.00000000
vn 0.00000000 0.00000000 -1.00000000
vn 0.00000000 0.00000000 -1.00000000
vn 0.00000000 0.00000000 -1.00000000
vn -1.00000000 0.00000000 0.00000000
vn -1.00000000 0.00000000 0.00000000
vn -1.00000000 0.00000000 0.00000000
vn -1.00000000 0.00000000 0.00000000
vn 0.00000000 1.00000000 0.00000000
vn 0.00000000 1.00000000 0.00000000
vn 0.00000000 1.00000000 0.00000000
vn 0.00000000 1.00000000 0.00000000
vn 1.00000000 0.00000000 0.00000000
vn 1.00000000 0.00000000 0.00000000
vn 1.00000000 0.00000000 0.00000000
vn 1.00000000 0.00000000 0.00000000
vn 0.00000000 -1.00000000 0.00000000
vn 0.00000000 -1.00000000 0.00000000
vn 0.00000000 -1.00000000 0.00000000
vn 0.00000000 -1.00000000 0.00000000
vn 0.00000000 0.00000000 1.00000000
vn 0.00000000 0.00000000 1.00000000
vn 0.00000000 0.00000000 1.00000000
vn 0.00000000 0.00000000 1.00000000
vn 0.00000000 -0.70713590 0.70707760
vn 0.00000000 -0.70713590 0.70707760
vn 0.00000000 -0.70712490 0.70708860
vn 0.00000000 -0.70712490 0.70708860
vn 0.70711690 0.00000000 0.70709670
vn 0.70711570 0.00000000 0.70709780
vn 0.70716920 0.00000000 0.70704420
vn 0.70716980 0.00000000 0.70704390
vn 0.00000000 0.70713730 0.70707620
vn 0.00000000 0.70713730 0.70707630
vn 0.00000000 0.70714270 0.70707080
vn 0.00000000 0.70714270 0.70707080
vn 0.00000000 0.00000000 -1.00000000
vn 0.00000000 0.00000000 -1.00000000
vn 0.00000000 0.00000000 -1.00000000
vn 0.00000000 0.00000000 -1.00000000
vn 0.00000000 1.00000000 0.00000000
vn 0.00000000 1.00000000 0.00000000
vn 0.00000000 1.00000000 0.00000000
vn 0.00000000 1.00000000 0.00000000
vn 1.00000000 0.00000000 0.00000000
vn 1.00000000 0.00000000 0.00000000
vn 1.00000000 0.00000000 0.00000000
vn 1.00000000 0.00000000 0.00000000
vn 0.00000000 -1.00000000 0.00000000
vn 0.00000000 -1.00000000 0.00000000
vn 0.00000000 -1.00000000 0.00000000
vn 0.00000000 -1.00000000 0.00000000
vn -1.00000000 0.00000000 0.00000000
vn -1.00000000 0.00000000 0.00000000
vn -1.00000000 0.00000000 0.00000000
vn -1.00000000 0.00000000 0.00000000
vn 0.00000000 0.00000000 -1.00000000
vn 0.00000000 0.00000000 -1.00000000
vn 0.00000000 0.00000000 -1.00000000
vn 0.00000000 0.00000000 -1.00000000
vn -1.00000000 0.00000000 0.00000000
vn -1.00000000 0.00000000 0.00000000
vn -1.00000000 0.00000000 0.00000000
vn -1.00000000 0.00000000 0.00000000
vn 0.00000000 0.00000000 1.00000000
vn 0.00000000 0.00000000 1.00000000
vn 0.00000000 0.00000000 1.00000000
vn 0.00000000 0.00000000 1.00000000
vn 1.00000000 0.00000000 0.00000000
vn 1.00000000 0.00000000 0.00000000
vn 1.00000000 0.00000000 0.00000000
vn 1.00000000 0.00000000 0.00000000
vn 0.00000000 1.00000000 -0.00000024
vn 0.00000000 1.00000000 -0.00000026
vn 0.00000000 1.00000000 0.00000000
vn 0.00000000 1.00000000 0.00000000
vn 0.00000000 1.00000000 0.00000000
vn 0.00000000 1.00000000 -0.00000193
vn 0.00000000 1.00000000 0.00000000
vn 0.00000000 1.00000000 -0.00000177
vt 0.04103648 3.26209000
vt 0.04325577 3.25987100
vt 0.04325577 3.07346300
vt 0.04103648 3.07124400
vt 2.38560600 1.41778600
vt 1.94772700 1.41778600
vt 1.94772700 1.58221400
vt 2.38560600 1.58221400
vt 4.51140200 0.76755580
vt 4.48859800 0.76755580
vt 4.48859800 0.89911040
vt 4.51140200 0.89911040
vt 2.35868800 0.51249850
vt 2.35868800 0.48750160
vt 1.97464500 0.48750160
vt 1.97464500 0.51249850
vt 4.82193100 0.89911070
vt 4.84473600 0.89911070
vt 4.84473600 0.76755560
vt 4.82193100 0.76755560
vt 2.35868900 0.17916520
vt 2.35868900 0.15416820
vt 1.97464500 0.15416820
vt 1.97464500 0.17916520
vt 1.94997500 3.08648800
vt 1.94997500 3.24684500
vt 2.38335800 3.24684500
vt 2.38335800 3.08648800
vt 1.88780900 2.37348500
vt 1.89024400 2.37592000
vt 2.44308900 2.37592000
vt 2.44552400 2.37348500
vt 4.29229800 3.07124900
vt 4.29007700 3.07346800
vt 4.29007700 3.25986600
vt 4.29229800 3.26208500
vt 2.44544700 3.95984800
vt 2.44301200 3.95741400
vt 1.89032100 3.95741400
vt 1.88788700 3.95984800
vt 0.21792940 0.73900010
vt 0.21792940 0.26100020
vt 0.07732936 0.26100020
vt 0.07732936 0.73900010
vt 0.65673240 0.90962870
vt 1.00348200 0.90962870
vt 1.00348200 0.46162890
vt 0.65673240 0.46162890
vt 0.37539450 0.46277730
vt 0.37539450 0.83802710
vt 0.51599450 0.83802710
vt 0.51599450 0.46277730
vt 0.37131840 0.47225570
vt 0.37131840 -0.00574429
vt -0.00393155 -0.00574429
vt -0.00393185 0.47225570
vt 0.65829070 0.83802730
vt 0.65829070 0.46277740
vt 0.51769070 0.46277740
vt 0.51769070 0.83802730
vt 0.74071920 0.44272940
vt 0.87181920 0.44272940
vt 0.87181920 -0.00527090
vt 0.74071920 -0.00527090
vt 0.37354830 0.46322720
vt 0.24244840 0.46322720
vt 0.24244840 0.80997680
vt 0.37354830 0.80997680
vt 0.50214800 0.24474440
vt 0.37104800 0.24474440
vt 0.37104800 0.69274460
vt 0.50214800 0.69274460
vt 0.24045230 0.46322730
vt 0.10935230 0.46322730
vt 0.10935230 0.80997680
vt 0.24045230 0.80997680
vt 0.74181400 -0.00574458
vt 0.72756390 0.00925538
vt 0.72756390 0.45725570
vt 0.74181440 0.47225560
vt 0.36656390 -0.00574458
vt 0.38081400 0.45725570
vt 0.38081400 0.00925538
vt 0.36656390 0.47225560
f 3/3/3 2/2/2 1/1/1
f 4/4/4 3/3/3 1/1/1
f 7/7/7 6/6/6 5/5/5
f 8/8/8 7/7/7 5/5/5
f 11/11/11 10/10/10 9/9/9
f 12/12/12 11/11/11 9/9/9
f 15/15/15 14/14/14 13/13/13
f 16/16/16 15/15/15 13/13/13
f 19/19/19 18/18/18 17/17/17
f 20/20/20 19/19/19 17/17/17
f 23/23/23 22/22/22 21/21/21
f 24/24/24 23/23/23 21/21/21
f 27/27/27 26/26/26 25/25/25
f 28/28/28 27/27/27 25/25/25
f 31/31/31 30/30/30 29/29/29
f 32/32/32 31/31/31 29/29/29
f 35/35/35 34/34/34 33/33/33
f 36/36/36 35/35/35 33/33/33
f 39/39/39 38/38/38 37/37/37
f 40/40/40 39/39/39 37/37/37
f 43/43/43 42/42/42 41/41/41
f 44/44/44 43/43/43 41/41/41
f 47/47/47 46/46/46 45/45/45
f 48/48/48 47/47/47 45/45/45
f 51/51/51 50/50/50 49/49/49
f 52/52/52 51/51/51 49/49/49
f 55/55/55 54/54/54 53/53/53
f 56/56/56 55/55/55 53/53/53
f 59/59/59 58/58/58 57/57/57
f 60/60/60 59/59/59 57/57/57
f 63/63/63 62/62/62 61/61/61
f 64/64/64 63/63/63 61/61/61
f 67/67/67 66/66/66 65/65/65
f 68/68/68 67/67/67 65/65/65
f 71/71/71 70/70/70 69/69/69
f 72/72/72 71/71/71 69/69/69
f 75/75/75 74/74/74 73/73/73
f 76/76/76 75/75/75 73/73/73
f 79/79/79 78/78/78 77/77/77
f 80/80/80 79/79/79 77/77/77
f 77/77/77 78/78/78 81/81/81
f 82/82/82 79/79/79 80/80/80
f 78/78/78 83/83/83 81/81/81
f 84/84/84 82/82/82 80/80/80
f 81/81/81 83/83/83 84/84/84
f 83/83/83 82/82/82 84/84/84

