# Blender 3.6.0
# www.blender.org
o UpperCabinets_22fd18a8_UpperCabinets_22fd18a8
v 2.200010 2.500000 -2.000000
v 2.185000 2.415000 -2.212500
v 2.200010 2.400010 -2.187500
v 2.200010 2.500000 -2.000000
v 2.185000 2.500000 -2.212500
v 2.185000 2.415000 -2.212500
v 0.613990 2.226220 -2.447000
v 0.612190 2.228020 -2.449000
v 0.612100 2.312020 -2.449100
v 0.613900 2.313820 -2.447100
v -0.113700 2.313820 -2.447100
v -0.111900 2.312020 -2.449100
v -0.111810 2.228020 -2.449000
v -0.113610 2.226220 -2.447000
v 2.200010 2.500000 1.676500
v 2.185000 2.500000 1.701510
v 1.835010 2.500000 1.701510
v 1.860010 2.500000 1.676500
v 1.835010 2.500000 1.040010
v 1.860010 2.500000 1.040010
v 2.200010 2.500000 1.040010
v 1.835010 2.500000 0.400000
v 1.860010 2.500000 0.400000
v 2.200010 2.500000 0.400000
v 1.835010 2.500000 -0.200140
v 1.860010 2.500000 -0.200140
v 2.200010 2.500000 -0.200140
v 1.835010 2.500000 -1.200000
v 1.860010 2.500000 -1.200000
v 2.200010 2.500000 -1.200000
v 1.835010 2.500000 -2.212500
v 1.860010 2.500000 -2.000000
v 2.200010 2.500000 -2.000000
v 2.185000 2.500000 -2.212500
v 2.200010 2.140010 1.040010
v 1.860010 2.140010 1.676510
v 2.200010 2.140010 1.676510
v 1.860010 2.140010 1.040010
v 2.200280 2.140010 0.400290
v 1.860280 2.140010 0.400290
v 1.858540 2.198000 0.458230
v 1.858330 2.342000 0.458070
v 1.858350 2.342000 0.982010
v 1.858280 2.198000 0.982010
v 1.836600 2.431000 1.040010
v 1.836600 2.469010 1.699910
v 1.836600 2.431000 1.699910
v 1.836600 2.469010 1.040010
v 1.836600 2.431000 0.400000
v 1.836600 2.469010 0.400000
v 1.836600 2.431000 -0.200140
v 1.836600 2.469010 -0.200140
v 1.836600 2.431000 -1.200000
v 1.836600 2.469010 -1.200000
v 1.836600 2.431000 -2.210900
v 1.836600 2.469010 -2.210900
v 1.835010 2.415000 1.040010
v 1.836600 2.431000 1.699910
v 1.835010 2.415000 1.701510
v 1.836600 2.431000 1.040010
v 1.835010 2.415000 0.400000
v 1.836600 2.431000 0.400000
v 1.835010 2.415000 -0.200140
v 1.836600 2.431000 -0.200140
v 1.835010 2.415000 -1.200000
v 1.836600 2.431000 -1.200000
v 1.835010 2.415000 -2.212500
v 1.836600 2.431000 -2.210900
v 1.835010 2.500000 1.701510
v 1.836600 2.469010 1.699910
v 1.836600 2.469010 1.040010
v 1.835010 2.500000 1.040010
v 1.836600 2.469010 0.400000
v 1.835010 2.500000 0.400000
v 1.836600 2.469010 -0.200140
v 1.835010 2.500000 -0.200140
v 1.836600 2.469010 -1.200000
v 1.835010 2.500000 -1.200000
v 1.836600 2.469010 -2.210900
v 1.835010 2.500000 -2.212500
v 1.860010 2.400010 1.676500
v 2.200010 2.400010 1.676510
v 2.200010 2.140010 1.676510
v 1.860010 2.140010 1.676510
v 1.836600 2.431000 1.699910
v 1.836600 2.469010 1.699910
v 2.169000 2.469010 1.699910
v 2.169000 2.431000 1.699910
v 1.835010 2.415000 1.701510
v 1.836600 2.431000 1.699910
v 2.169000 2.431000 1.699910
v 2.185000 2.415000 1.701510
v 2.185000 2.415000 1.701510
v 2.169000 2.431000 1.699910
v 2.169000 2.469010 1.699910
v 2.185000 2.500000 1.701510
v 2.185000 2.500000 1.701510
v 2.169000 2.469010 1.699910
v 1.836600 2.469010 1.699910
v 1.835010 2.500000 1.701510
v 2.200280 2.140010 0.400290
v 2.200010 1.620010 -0.200140
v 2.200010 1.620010 0.400000
v 2.200280 2.140010 -0.199850
v 2.200010 2.400010 -0.200140
v 2.200010 2.400010 0.400000
v 2.200010 2.140010 1.040010
v 2.200010 2.400010 1.040010
v 2.200010 2.140010 1.676510
v 2.200010 2.400010 1.676510
v 2.200010 2.500000 1.676500
v 2.200010 2.500000 1.040010
v 2.200010 2.500000 0.400000
v 2.200010 2.500000 -0.200140
v 2.200010 2.400010 -1.200000
v 2.200010 2.500000 -1.200000
v 2.200010 2.500000 -2.000000
v 2.200010 2.140010 -1.200000
v 2.200010 2.400010 -2.187500
v 2.200010 2.140010 -2.187500
v 2.200010 1.620010 -0.200140
v 1.860010 1.620010 -0.200140
v 1.860010 1.620010 0.400000
v 2.200010 1.620010 0.400000
v 1.862840 2.345510 -1.145500
v 1.862830 2.345510 -0.254580
v 1.863040 2.194510 -0.254410
v 1.862780 2.194510 -1.145500
v 2.200010 2.140010 -2.187500
v 1.860010 2.140010 -2.187500
v 1.860010 2.140010 -1.200000
v 2.200010 2.140010 -1.200000
v 1.860280 2.140010 -0.199850
v 2.200280 2.140010 -0.199850
v 1.836600 2.431000 -2.210900
v 2.169000 2.431000 -2.210900
v 2.169000 2.469010 -2.210900
v 1.836600 2.469010 -2.210900
v 1.835010 2.500000 -2.212500
v 1.836600 2.469010 -2.210900
v 2.169000 2.469010 -2.210900
v 2.185000 2.500000 -2.212500
v 2.185000 2.500000 -2.212500
v 2.169000 2.469010 -2.210900
v 2.169000 2.431000 -2.210900
v 2.185000 2.415000 -2.212500
v 2.185000 2.415000 -2.212500
v 2.169000 2.431000 -2.210900
v 1.836600 2.431000 -2.210900
v 1.835010 2.415000 -2.212500
v 1.860010 2.400010 -2.187500
v 1.860010 2.140010 -2.187500
v 2.200010 2.140010 -2.187500
v 2.200010 2.400010 -2.187500
v 2.163400 2.431000 -2.436590
v 2.163400 2.469010 -2.436590
v 2.163400 2.469010 -2.769000
v 2.163400 2.431000 -2.769000
v 2.165000 2.415000 -2.434990
v 2.163400 2.431000 -2.436590
v 2.163400 2.431000 -2.769000
v 2.165000 2.415000 -2.785000
v 2.165000 2.415000 -2.785000
v 2.163400 2.431000 -2.769000
v 2.163400 2.469010 -2.769000
v 2.165000 2.500000 -2.785000
v 2.165000 2.500000 -2.785000
v 2.163400 2.469010 -2.769000
v 2.163400 2.469010 -2.436590
v 2.165000 2.500000 -2.434990
v 0.700000 1.620010 -2.799990
v 0.700000 1.620010 -2.460000
v 1.209730 1.620010 -2.460000
v 1.209730 1.620010 -2.799990
v 1.701540 1.620010 -2.460000
v 1.701540 1.620010 -2.799990
v 2.140010 1.620010 -2.799990
v 2.140010 1.620010 -2.460000
v 2.140560 2.140010 -2.799420
v 2.140010 2.400010 -2.460000
v 2.140010 2.400010 -2.799990
v 2.140560 2.140010 -2.459420
v 2.140010 1.620010 -2.460000
v 2.140010 1.620010 -2.799990
v -0.699990 1.620010 -2.799990
v -0.200000 1.620010 -2.460000
v -0.200000 1.620010 -2.799990
v -0.699990 1.620010 -2.460000
v -1.200000 1.620010 -2.799990
v -1.200000 1.620010 -2.460000
v -1.223390 2.431000 -2.436590
v -1.223390 2.469010 -2.436590
v -0.699990 2.469010 -2.436590
v -0.699990 2.431000 -2.436590
v -0.200000 2.469010 -2.436590
v -0.200000 2.431000 -2.436590
v 0.700000 2.431000 -2.436590
v 0.700000 2.469010 -2.436590
v 1.209730 2.469010 -2.436590
v 1.209730 2.431000 -2.436590
v 1.701540 2.469010 -2.436590
v 1.701540 2.431000 -2.436590
v 2.163400 2.431000 -2.436590
v 2.163400 2.469010 -2.436590
v -0.699990 2.500000 -2.434990
v -1.223390 2.469010 -2.436590
v -1.225000 2.500000 -2.434990
v -0.699990 2.469010 -2.436590
v -0.200000 2.500000 -2.434990
v -0.200000 2.469010 -2.436590
v 0.700000 2.500000 -2.434990
v 0.700000 2.469010 -2.436590
v 1.209730 2.500000 -2.434990
v 1.209730 2.469010 -2.436590
v 1.701540 2.469010 -2.436590
v 1.701540 2.500000 -2.434990
v 2.165000 2.500000 -2.434990
v 2.163400 2.469010 -2.436590
v -1.225000 2.415000 -2.434990
v -1.223390 2.431000 -2.436590
v -0.699990 2.431000 -2.436590
v -0.699990 2.415000 -2.434990
v -0.200000 2.431000 -2.436590
v -0.200000 2.415000 -2.434990
v 0.700000 2.431000 -2.436590
v 0.700000 2.415000 -2.434990
v 1.209730 2.431000 -2.436590
v 1.209730 2.415000 -2.434990
v 1.701540 2.431000 -2.436590
v 1.701540 2.415000 -2.434990
v 2.163400 2.431000 -2.436590
v 2.165000 2.415000 -2.434990
v 2.140010 2.500000 -2.799990
v 2.165000 2.500000 -2.785000
v 2.165000 2.500000 -2.434990
v 2.140010 2.500000 -2.460000
v 1.701540 2.500000 -2.434990
v 1.701540 2.500000 -2.460000
v 1.701540 2.500000 -2.799990
v 1.209730 2.500000 -2.799990
v 1.209730 2.500000 -2.460000
v 1.209730 2.500000 -2.434990
v 0.700000 2.500000 -2.434990
v 0.700000 2.500000 -2.460000
v 0.700000 2.500000 -2.799990
v -0.200000 2.500000 -2.434990
v -0.200000 2.500000 -2.799990
v -0.200000 2.500000 -2.460000
v -0.699990 2.500000 -2.434990
v -0.699990 2.500000 -2.460000
v -0.699990 2.500000 -2.799990
v -1.225000 2.500000 -2.434990
v -1.200000 2.500000 -2.460000
v -1.200000 2.500000 -2.799990
v -1.225000 2.500000 -2.785000
v -0.199720 2.140010 -2.799710
v -0.699990 1.620010 -2.799990
v -0.200000 1.620010 -2.799990
v -0.699440 2.140010 -2.799420
v -1.200000 1.620010 -2.799990
v -1.199440 2.140010 -2.799420
v -1.200000 2.400010 -2.799990
v -0.699990 2.400010 -2.799990
v -1.200000 2.500000 -2.799990
v -0.699990 2.500000 -2.799990
v -0.200000 2.500000 -2.799990
v -0.200000 2.400010 -2.799990
v 0.700000 2.500000 -2.799990
v 0.700000 2.400010 -2.799990
v 0.700280 2.140010 -2.799710
v 1.210280 2.140010 -2.799420
v 0.700000 1.620010 -2.799990
v 1.209730 1.620010 -2.799990
v 1.701540 1.620010 -2.799990
v 1.209730 2.400010 -2.799990
v 1.209730 2.500000 -2.799990
v 1.701540 2.500000 -2.799990
v 1.701540 2.140010 -2.799420
v 2.140010 1.620010 -2.799990
v 2.140560 2.140010 -2.799420
v 1.701540 2.400010 -2.799990
v 2.140010 2.400010 -2.799990
v 2.140010 2.500000 -2.799990
v 2.140010 2.400010 -2.799990
v 2.165000 2.500000 -2.785000
v 2.140010 2.500000 -2.799990
v 2.165000 2.415000 -2.785000
v -1.223390 2.431000 -2.436590
v -1.223390 2.431000 -2.769000
v -1.223390 2.469010 -2.769000
v -1.223390 2.469010 -2.436590
v -1.225000 2.500000 -2.434990
v -1.223390 2.469010 -2.436590
v -1.223390 2.469010 -2.769000
v -1.225000 2.500000 -2.785000
v -1.225000 2.500000 -2.785000
v -1.223390 2.469010 -2.769000
v -1.223390 2.431000 -2.769000
v -1.225000 2.415000 -2.785000
v -1.225000 2.415000 -2.785000
v -1.223390 2.431000 -2.769000
v -1.223390 2.431000 -2.436590
v -1.225000 2.415000 -2.434990
v -1.199440 2.140010 -2.799420
v -1.200000 1.620010 -2.460000
v -1.200000 1.620010 -2.799990
v -1.199440 2.140010 -2.459420
v -1.200000 2.400010 -2.460000
v -1.200000 2.400010 -2.799990
v 1.858300 2.342000 1.098010
v 1.858300 2.342000 1.618500
v 1.858300 2.198000 1.618500
v 1.858300 2.198000 1.098010
v 2.200280 2.140010 0.400290
v 2.200010 1.620010 0.400000
v 1.860010 1.620010 0.400000
v 1.860280 2.140010 0.400290
v 2.200280 2.140010 -0.199850
v 1.860280 2.140010 -0.199850
v 1.860010 1.620010 -0.200140
v 2.200010 1.620010 -0.200140
v 1.862810 2.194500 -2.133000
v 1.862810 2.345510 -2.133000
v 1.862810 2.345510 -1.254500
v 1.862810 2.194500 -1.254500
v 0.700280 2.140010 -2.799710
v 0.700280 2.140010 -2.459710
v 0.700000 1.620010 -2.460000
v 0.700000 1.620010 -2.799990
v -0.199720 2.140010 -2.799710
v -0.200000 1.620010 -2.799990
v -0.200000 1.620010 -2.460000
v -0.199720 2.140010 -2.459710
v -0.111810 2.227990 -2.468400
v -0.111900 2.312000 -2.468500
v 0.612100 2.312000 -2.468500
v 0.612190 2.227990 -2.468400
v -0.199720 2.140010 -2.459710
v 0.700280 2.140010 -2.459710
v 0.700280 2.140010 -2.799710
v -0.199720 2.140010 -2.799710
v 2.200010 2.400010 -2.187500
v 2.185000 2.415000 -2.212500
v 1.835010 2.415000 -2.212500
v 1.860010 2.400010 -2.187500
v 1.860010 2.400010 -2.187500
v 1.835010 2.415000 -2.212500
v 1.835010 2.415000 -1.200000
v 1.860010 2.400010 -1.200000
v 1.835010 2.415000 -0.200140
v 1.860010 2.400010 -0.200140
v 1.835010 2.415000 0.400000
v 1.860010 2.400010 0.400000
v 1.835010 2.415000 1.040010
v 1.860010 2.400010 1.040010
v 1.835010 2.415000 1.701510
v 1.860010 2.400010 1.676500
v 1.860010 2.400010 1.676500
v 1.835010 2.415000 1.701510
v 2.185000 2.415000 1.701510
v 2.200010 2.400010 1.676510
v 2.200010 2.400010 1.676510
v 2.185000 2.415000 1.701510
v 2.185000 2.500000 1.701510
v 2.200010 2.500000 1.676500
v -1.200000 2.500000 -2.799990
v -1.225000 2.500000 -2.785000
v -1.225000 2.415000 -2.785000
v -1.200000 2.400010 -2.799990
v -1.200000 2.400010 -2.799990
v -1.225000 2.415000 -2.785000
v -1.225000 2.415000 -2.434990
v -1.200000 2.400010 -2.460000
v -1.200000 2.400010 -2.460000
v -1.225000 2.415000 -2.434990
v -0.699990 2.415000 -2.434990
v -0.699990 2.400010 -2.460000
v -0.200000 2.415000 -2.434990
v -0.200000 2.400010 -2.460000
v 0.700000 2.415000 -2.434990
v 0.700000 2.400010 -2.460000
v 1.209730 2.415000 -2.434990
v 1.209730 2.400010 -2.460000
v 1.701540 2.415000 -2.434990
v 1.701540 2.400010 -2.460000
v 2.140010 2.400010 -2.460000
v 2.165000 2.415000 -2.434990
v 2.140010 2.400010 -2.460000
v 2.165000 2.415000 -2.434990
v 2.165000 2.415000 -2.785000
v 2.140010 2.400010 -2.799990
v -0.174970 2.375000 -2.459970
v -0.170960 2.371020 -2.446960
v -0.170750 2.169020 -2.446740
v -0.174750 2.165000 -2.459730
v -0.174750 2.165000 -2.459730
v -0.170750 2.169020 -2.446740
v 0.671250 2.169020 -2.446740
v 0.675250 2.165000 -2.459730
v 0.675250 2.165000 -2.459730
v 0.671250 2.169020 -2.446740
v 0.671040 2.371020 -2.446960
v 0.675030 2.375000 -2.459970
v 0.675030 2.375000 -2.459970
v 0.671040 2.371020 -2.446960
v -0.170960 2.371020 -2.446960
v -0.174970 2.375000 -2.459970
v -0.113610 2.226220 -2.447000
v -0.111810 2.228020 -2.449000
v 0.612190 2.228020 -2.449000
v 0.613990 2.226220 -2.447000
v 0.613900 2.313820 -2.447100
v 0.612100 2.312020 -2.449100
v -0.111900 2.312020 -2.449100
v -0.113700 2.313820 -2.447100
v -0.111810 2.228020 -2.449000
v -0.111810 2.227990 -2.468400
v 0.612190 2.227990 -2.468400
v 0.612190 2.228020 -2.449000
v 0.612190 2.228020 -2.449000
v 0.612190 2.227990 -2.468400
v 0.612100 2.312000 -2.468500
v 0.612100 2.312020 -2.449100
v 0.612100 2.312020 -2.449100
v 0.612100 2.312000 -2.468500
v -0.111900 2.312000 -2.468500
v -0.111900 2.312020 -2.449100
v -0.111900 2.312020 -2.449100
v -0.111900 2.312000 -2.468500
v -0.111810 2.227990 -2.468400
v -0.111810 2.228020 -2.449000
v 1.860010 2.380510 -0.219620
v 1.841010 2.380100 -0.220010
v 1.841020 2.380100 -1.180090
v 1.860020 2.380510 -1.180500
v 1.860020 2.380510 -1.180500
v 1.841020 2.380100 -1.180090
v 1.841000 2.159900 -1.180090
v 1.860000 2.159500 -1.180500
v 1.860000 2.159500 -1.180500
v 1.841000 2.159900 -1.180090
v 1.841270 2.159900 -0.219770
v 1.860270 2.159500 -0.219370
v 1.860270 2.159500 -0.219370
v 1.841270 2.159900 -0.219770
v 1.841010 2.380100 -0.220010
v 1.860010 2.380510 -0.219620
v 1.860010 2.380510 -2.167990
v 1.841000 2.380100 -2.167600
v 1.841000 2.159900 -2.167600
v 1.860010 2.159500 -2.167990
v 1.860010 2.159500 -2.167990
v 1.841000 2.159900 -2.167600
v 1.841000 2.159900 -1.219900
v 1.860010 2.159500 -1.219490
v 1.860010 2.159500 -1.219490
v 1.841000 2.159900 -1.219900
v 1.841000 2.380100 -1.219900
v 1.860010 2.380510 -1.219490
v 1.860010 2.380510 -1.219490
v 1.841000 2.380100 -1.219900
v 1.841000 2.380100 -2.167600
v 1.860010 2.380510 -2.167990
v 1.841000 2.347900 -2.135400
v 1.842400 2.194500 -2.133000
v 1.841000 2.192100 -2.135400
v 1.842400 2.345510 -2.133000
v 1.841000 2.192100 -2.135400
v 1.842400 2.194500 -1.254500
v 1.841000 2.192100 -1.252090
v 1.842400 2.194500 -2.133000
v 1.841000 2.192100 -1.252090
v 1.842400 2.345510 -1.254500
v 1.841000 2.347900 -1.252090
v 1.842400 2.194500 -1.254500
v 1.841000 2.347900 -1.252090
v 1.842400 2.345510 -2.133000
v 1.841000 2.347900 -2.135400
v 1.842400 2.345510 -1.254500
v 1.841020 2.347890 -0.252180
v 1.842440 2.345500 -1.145490
v 1.841040 2.347890 -1.147890
v 1.842430 2.345500 -0.254580
v 1.841040 2.347890 -1.147890
v 1.842380 2.194500 -1.145490
v 1.840980 2.192100 -1.147890
v 1.842440 2.345500 -1.145490
v 1.840980 2.192100 -1.147890
v 1.842650 2.194490 -0.254410
v 1.841250 2.192100 -0.252010
v 1.842380 2.194500 -1.145490
v 1.841250 2.192100 -0.252010
v 1.842430 2.345500 -0.254580
v 1.841020 2.347890 -0.252180
v 1.842650 2.194490 -0.254410
v 1.842400 2.345510 -2.133000
v 1.862810 2.345510 -2.133000
v 1.862810 2.194500 -2.133000
v 1.842400 2.194500 -2.133000
v 1.842400 2.194500 -2.133000
v 1.862810 2.194500 -2.133000
v 1.862810 2.194500 -1.254500
v 1.842400 2.194500 -1.254500
v 1.842400 2.194500 -1.254500
v 1.862810 2.194500 -1.254500
v 1.862810 2.345510 -1.254500
v 1.842400 2.345510 -1.254500
v 1.842400 2.345510 -1.254500
v 1.862810 2.345510 -1.254500
v 1.862810 2.345510 -2.133000
v 1.842400 2.345510 -2.133000
v 1.842430 2.345500 -0.254580
v 1.862830 2.345510 -0.254580
v 1.862840 2.345510 -1.145500
v 1.842440 2.345500 -1.145490
v 1.842440 2.345500 -1.145490
v 1.862840 2.345510 -1.145500
v 1.862780 2.194510 -1.145500
v 1.842380 2.194500 -1.145490
v 1.842380 2.194500 -1.145490
v 1.862780 2.194510 -1.145500
v 1.863040 2.194510 -0.254410
v 1.842650 2.194490 -0.254410
v 1.842650 2.194490 -0.254410
v 1.863040 2.194510 -0.254410
v 1.862830 2.345510 -0.254580
v 1.842430 2.345500 -0.254580
v 1.860020 2.373200 0.426830
v 1.838520 2.373190 0.426830
v 1.838760 2.166790 0.427060
v 1.860260 2.166810 0.427060
v 1.860260 2.166810 0.427060
v 1.838760 2.166790 0.427060
v 1.838490 2.166790 1.013200
v 1.859990 2.166810 1.013210
v 1.859990 2.166810 1.013210
v 1.838490 2.166790 1.013200
v 1.838520 2.373190 1.013200
v 1.860020 2.373200 1.013210
v 1.860020 2.373200 1.013210
v 1.838520 2.373190 1.013200
v 1.838520 2.373190 0.426830
v 1.860020 2.373200 0.426830
v 1.860010 2.373200 1.649700
v 1.838510 2.373200 1.649700
v 1.838510 2.373200 1.066810
v 1.860010 2.373200 1.066810
v 1.860010 2.373200 1.066810
v 1.838510 2.373200 1.066810
v 1.838510 2.166810 1.066810
v 1.860010 2.166810 1.066810
v 1.860010 2.166810 1.066810
v 1.838510 2.166810 1.066810
v 1.838510 2.166810 1.649700
v 1.860010 2.166810 1.649700
v 1.860010 2.166810 1.649700
v 1.838510 2.166810 1.649700
v 1.838510 2.373200 1.649700
v 1.860010 2.373200 1.649700
v 1.838900 2.343610 1.620110
v 1.840110 2.342000 1.098010
v 1.838900 2.343610 1.096410
v 1.840110 2.342000 1.618500
v 1.838900 2.343610 1.096410
v 1.840110 2.198000 1.098010
v 1.838900 2.196400 1.096410
v 1.840110 2.342000 1.098010
v 1.838900 2.196400 1.096410
v 1.840110 2.198000 1.618500
v 1.838900 2.196400 1.620110
v 1.840110 2.198000 1.098010
v 1.838900 2.196400 1.620110
v 1.840110 2.342000 1.618500
v 1.838900 2.343610 1.620110
v 1.840110 2.198000 1.618500
v 1.838920 2.343590 0.456460
v 1.840340 2.197990 0.458230
v 1.839140 2.196390 0.456630
v 1.840130 2.341990 0.458070
v 1.839140 2.196390 0.456630
v 1.840080 2.197990 0.982000
v 1.838880 2.196390 0.983600
v 1.840340 2.197990 0.458230
v 1.838880 2.196390 0.983600
v 1.840150 2.341990 0.982000
v 1.838950 2.343590 0.983600
v 1.840080 2.197990 0.982000
v 1.838950 2.343590 0.983600
v 1.840130 2.341990 0.458070
v 1.838920 2.343590 0.456460
v 1.840150 2.341990 0.982000
v 1.840110 2.342000 1.618500
v 1.858300 2.342000 1.618500
v 1.858300 2.342000 1.098010
v 1.840110 2.342000 1.098010
v 1.840110 2.342000 1.098010
v 1.858300 2.342000 1.098010
v 1.858300 2.198000 1.098010
v 1.840110 2.198000 1.098010
v 1.840110 2.198000 1.098010
v 1.858300 2.198000 1.098010
v 1.858300 2.198000 1.618500
v 1.840110 2.198000 1.618500
v 1.840110 2.198000 1.618500
v 1.858300 2.198000 1.618500
v 1.858300 2.342000 1.618500
v 1.840110 2.342000 1.618500
v 1.840130 2.341990 0.458070
v 1.858330 2.342000 0.458070
v 1.858540 2.198000 0.458230
v 1.840340 2.197990 0.458230
v 1.840340 2.197990 0.458230
v 1.858540 2.198000 0.458230
v 1.858280 2.198000 0.982010
v 1.840080 2.197990 0.982000
v 1.840080 2.197990 0.982000
v 1.858280 2.198000 0.982010
v 1.858350 2.342000 0.982010
v 1.840150 2.341990 0.982000
v 1.840150 2.341990 0.982000
v 1.858350 2.342000 0.982010
v 1.858330 2.342000 0.458070
v 1.840130 2.341990 0.458070
v 1.860010 0.000000 1.600010
v 1.860010 0.000000 1.675000
v 2.200010 0.000000 1.675000
v 2.200010 0.000000 1.600010
v 1.860010 2.140010 1.600010
v 1.860010 0.000000 1.600010
v 2.200010 0.000000 1.600010
v 2.200010 2.140010 1.600010
v 2.200010 2.140010 1.600010
v 2.200010 0.000000 1.600010
v 2.200010 0.000000 1.675000
v 2.200010 2.140010 1.675000
v 2.200010 2.140010 1.675000
v 2.200010 0.000000 1.675000
v 1.860010 0.000000 1.675000
v 1.860010 2.140010 1.675000
v 1.860010 2.140010 1.675000
v 1.860010 0.000000 1.675000
v 1.860010 0.000000 1.600010
v 1.860010 2.140010 1.600010
v 1.860010 2.140010 1.600010
v 2.200010 2.140010 1.600010
v 2.200010 2.140010 1.675000
v 1.860010 2.140010 1.675000
v 1.860010 0.000000 0.395010
v 1.860010 0.000000 0.475000
v 2.200010 0.000000 0.475000
v 2.200010 0.000000 0.395010
v 1.860010 2.140010 0.395010
v 1.860010 0.000000 0.395010
v 2.200010 0.000000 0.395010
v 2.200010 2.140010 0.395010
v 2.200010 2.140010 0.395010
v 2.200010 0.000000 0.395010
v 2.200010 0.000000 0.475000
v 2.200010 2.140010 0.475000
v 2.200010 2.140010 0.475000
v 2.200010 0.000000 0.475000
v 1.860010 0.000000 0.475000
v 1.860010 2.140010 0.475000
v 1.860010 2.140010 0.475000
v 1.860010 0.000000 0.475000
v 1.860010 0.000000 0.395010
v 1.860010 2.140010 0.395010
v 1.860010 2.140010 0.395010
v 2.200010 2.140010 0.395010
v 2.200010 2.140010 0.475000
v 1.860010 2.140010 0.475000
v -0.197470 1.689010 -2.355560
v -0.197470 1.689010 -2.798860
v 0.698030 1.689010 -2.798860
v 0.698030 1.689010 -2.355560
v -0.197470 1.689010 -2.798860
v -0.197470 1.689010 -2.355560
v -0.199720 1.667010 -2.354710
v -0.199720 1.667010 -2.799710
v 0.698030 1.689010 -2.798860
v -0.197470 1.689010 -2.798860
v -0.199720 1.667010 -2.799710
v 0.700280 1.667010 -2.799710
v 0.698030 1.689010 -2.355560
v 0.698030 1.689010 -2.798860
v 0.700280 1.667010 -2.799710
v 0.700280 1.667010 -2.354710
v -0.197470 1.689010 -2.355560
v 0.698030 1.689010 -2.355560
v 0.700280 1.667010 -2.354710
v -0.199720 1.667010 -2.354710
v -0.199720 1.667010 -2.354710
v 0.700280 1.667010 -2.354710
v 0.700280 1.667010 -2.799710
v -0.199720 1.667010 -2.799710
v 2.140560 2.140010 -2.459420
v 2.140010 1.620010 -2.460000
v 1.701540 1.620010 -2.460000
v 1.701540 2.140010 -2.459420
v 2.140010 2.400010 -2.460000
v 1.701540 2.400010 -2.460000
v 1.676540 2.140010 -2.459420
v 1.676540 1.645000 -2.459970
v 1.676540 2.375000 -2.459940
v 1.234780 2.375000 -2.459940
v 1.209730 1.620010 -2.460000
v 1.209730 2.400010 -2.460000
v 1.234760 1.645000 -2.459970
v 1.235280 2.140020 -2.459420
v 1.210280 2.140010 -2.459420
v 1.185280 2.139990 -2.459430
v 1.184750 1.645000 -2.459970
v 1.184780 2.375000 -2.459940
v 0.700000 1.620010 -2.460000
v 0.725030 2.375000 -2.459970
v 0.725020 1.645000 -2.459980
v 0.700000 2.400010 -2.460000
v 0.700280 2.140010 -2.459710
v 0.725280 2.140010 -2.459690
v 0.675030 2.375000 -2.459970
v 0.675250 2.165000 -2.459730
v -0.174970 2.375000 -2.459970
v -0.199720 2.140010 -2.459710
v -0.200000 2.400010 -2.460000
v -0.174750 2.165000 -2.459730
v -0.224970 2.375000 -2.460370
v -0.224720 2.140000 -2.460090
v -0.674940 2.375000 -2.460340
v -0.200000 1.620010 -2.460000
v -0.224980 1.645000 -2.460380
v -0.699990 2.400010 -2.460000
v -0.699990 1.620010 -2.460000
v -0.674440 2.140020 -2.459830
v -0.674970 1.645000 -2.460370
v -0.699440 2.140010 -2.459420
v -0.724940 2.375000 -2.459940
v -0.724440 2.139990 -2.459420
v -1.174940 2.375000 -2.459940
v -0.724970 1.645000 -2.459970
v -1.200000 2.400010 -2.460000
v -1.200000 1.620010 -2.460000
v -1.174440 2.140020 -2.459420
v -1.174970 1.645000 -2.459970
v -1.199440 2.140010 -2.459420
v -0.724970 1.645000 -2.750060
v -0.724440 2.139990 -2.459420
v -0.724970 1.645000 -2.459970
v -0.724440 2.139990 -2.749510
v -0.724940 2.375000 -2.459940
v -0.724940 2.375000 -2.750040
v -1.174440 2.140020 -2.749510
v -1.174970 1.645000 -2.750060
v -1.174970 1.645000 -2.459970
v -1.174440 2.140020 -2.459420
v -1.174940 2.375000 -2.750040
v -1.174940 2.375000 -2.459940
v -1.174970 1.645000 -2.750060
v -0.724970 1.645000 -2.750060
v -0.724970 1.645000 -2.459970
v -1.174970 1.645000 -2.459970
v -0.724940 2.375000 -2.750040
v -1.174940 2.375000 -2.750040
v -1.174940 2.375000 -2.459940
v -0.724940 2.375000 -2.459940
v 1.184750 1.645000 -2.750060
v 1.185280 2.139990 -2.459430
v 1.184750 1.645000 -2.459970
v 1.185280 2.139990 -2.749530
v 1.184780 2.375000 -2.459940
v 1.184780 2.375000 -2.750040
v 0.725280 2.140010 -2.749790
v 0.725020 1.645000 -2.750080
v 0.725020 1.645000 -2.459980
v 0.725280 2.140010 -2.459690
v 0.725030 2.375000 -2.750060
v 0.725030 2.375000 -2.459970
v 0.725020 1.645000 -2.750080
v 1.184750 1.645000 -2.750060
v 1.184750 1.645000 -2.459970
v 0.725020 1.645000 -2.459980
v 1.184780 2.375000 -2.750040
v 0.725030 2.375000 -2.750060
v 0.725030 2.375000 -2.459970
v 1.184780 2.375000 -2.459940
v -0.674440 2.140020 -2.749930
v -0.674970 1.645000 -2.750460
v -0.674970 1.645000 -2.460370
v -0.674440 2.140020 -2.459830
v -0.674940 2.375000 -2.750440
v -0.674940 2.375000 -2.460340
v -0.674970 1.645000 -2.750460
v -0.224980 1.645000 -2.750480
v -0.224980 1.645000 -2.460380
v -0.674970 1.645000 -2.460370
v -0.224980 1.645000 -2.750480
v -0.224720 2.140000 -2.460090
v -0.224980 1.645000 -2.460380
v -0.224720 2.140000 -2.750190
v -0.224970 2.375000 -2.460370
v -0.224970 2.375000 -2.750460
v -0.224970 2.375000 -2.750460
v -0.674940 2.375000 -2.750440
v -0.674940 2.375000 -2.460340
v -0.224970 2.375000 -2.460370
v 1.234760 1.645000 -2.750060
v 1.676540 1.645000 -2.750060
v 1.676540 1.645000 -2.459970
v 1.234760 1.645000 -2.459970
v 1.676540 1.645000 -2.750060
v 1.676540 2.140010 -2.459420
v 1.676540 1.645000 -2.459970
v 1.676540 2.140010 -2.749510
v 1.676540 2.375000 -2.459940
v 1.676540 2.375000 -2.750040
v 1.235280 2.140020 -2.749510
v 1.234760 1.645000 -2.750060
v 1.234760 1.645000 -2.459970
v 1.235280 2.140020 -2.459420
v 1.234780 2.375000 -2.750040
v 1.234780 2.375000 -2.459940
v 1.676540 2.375000 -2.750040
v 1.234780 2.375000 -2.750040
v 1.234780 2.375000 -2.459940
v 1.676540 2.375000 -2.459940
v -0.724440 2.139990 -2.749510
v -0.724970 1.645000 -2.750060
v -1.174970 1.645000 -2.750060
v -1.174440 2.140020 -2.749510
v -1.174940 2.375000 -2.750040
v -0.724940 2.375000 -2.750040
v 1.185280 2.139990 -2.749530
v 1.184750 1.645000 -2.750060
v 0.725020 1.645000 -2.750080
v 0.725280 2.140010 -2.749790
v 0.725030 2.375000 -2.750060
v 1.184780 2.375000 -2.750040
v -0.674970 1.645000 -2.750460
v -0.224720 2.140000 -2.750190
v -0.224980 1.645000 -2.750480
v -0.674440 2.140020 -2.749930
v -0.224970 2.375000 -2.750460
v -0.674940 2.375000 -2.750440
v 1.676540 1.645000 -2.750060
v 1.234760 1.645000 -2.750060
v 1.235280 2.140020 -2.749510
v 1.676540 2.140010 -2.749510
v 1.676540 2.375000 -2.750040
v 1.234780 2.375000 -2.750040
v 2.149870 1.645000 0.375020
v 1.860280 2.140000 0.375290
v 1.860020 1.645000 0.375020
v 2.150140 2.140000 0.375290
v 1.860030 2.375000 0.375030
v 2.149890 2.375000 0.375030
v 2.150140 2.140010 -0.174850
v 2.149870 1.645000 -0.175130
v 1.860020 1.645000 -0.175130
v 1.860280 2.140010 -0.174850
v 2.149890 2.375000 -0.175110
v 1.860030 2.375000 -0.175110
v 2.149870 1.645000 -0.175130
v 2.149870 1.645000 0.375020
v 1.860020 1.645000 0.375020
v 1.860020 1.645000 -0.175130
v 2.149890 2.375000 0.375030
v 2.149890 2.375000 -0.175110
v 1.860030 2.375000 -0.175110
v 1.860030 2.375000 0.375030
v 2.150140 2.140000 0.375290
v 2.149870 1.645000 0.375020
v 2.149870 1.645000 -0.175130
v 2.150140 2.140010 -0.174850
v 2.149890 2.375000 -0.175110
v 2.149890 2.375000 0.375030
v -0.170960 2.371020 -2.446960
v -0.113700 2.313820 -2.447100
v -0.113610 2.226220 -2.447000
v -0.170750 2.169020 -2.446740
v 0.671040 2.371020 -2.446960
v 0.613990 2.226220 -2.447000
v 0.613900 2.313820 -2.447100
v 0.671250 2.169020 -2.446740
v 1.860010 2.400010 -2.187500
v 1.860010 2.380510 -2.167990
v 1.860010 2.159500 -2.167990
v 1.860010 2.140010 -2.187500
v 1.860010 2.159500 -1.219490
v 1.860010 2.400010 -1.200000
v 1.860010 2.140010 -1.200000
v 1.860010 2.380510 -1.219490
v 1.860000 2.159500 -1.180500
v 1.860020 2.380510 -1.180500
v 1.860270 2.159500 -0.219370
v 1.860010 2.400010 -0.200140
v 1.860280 2.140010 -0.199850
v 1.860010 2.380510 -0.219620
v 1.860280 2.140010 -0.174850
v 1.860030 2.375000 -0.175110
v 1.860020 1.645000 -0.175130
v 1.860010 1.620010 -0.200140
v 1.860020 1.645000 0.375020
v 1.860010 1.620010 0.400000
v 1.860280 2.140000 0.375290
v 1.860010 2.400010 0.400000
v 1.860280 2.140010 0.400290
v 1.860030 2.375000 0.375030
v 1.860260 2.166810 0.427060
v 1.860020 2.373200 0.426830
v 1.859990 2.166810 1.013210
v 1.860010 2.400010 1.040010
v 1.860010 2.140010 1.040010
v 1.860020 2.373200 1.013210
v 1.860010 2.166810 1.066810
v 1.860010 2.373200 1.066810
v 1.860010 2.166810 1.649700
v 1.860010 2.400010 1.676500
v 1.860010 2.140010 1.676510
v 1.860010 2.373200 1.649700
v 1.841000 2.380100 -2.167600
v 1.841000 2.347900 -2.135400
v 1.841000 2.192100 -2.135400
v 1.841000 2.159900 -2.167600
v 1.841000 2.380100 -1.219900
v 1.841000 2.192100 -1.252090
v 1.841000 2.347900 -1.252090
v 1.841000 2.159900 -1.219900
v 1.841010 2.380100 -0.220010
v 1.841020 2.347890 -0.252180
v 1.841040 2.347890 -1.147890
v 1.841020 2.380100 -1.180090
v 1.841270 2.159900 -0.219770
v 1.840980 2.192100 -1.147890
v 1.841250 2.192100 -0.252010
v 1.841000 2.159900 -1.180090
v 1.838510 2.373200 1.649700
v 1.838900 2.343610 1.620110
v 1.838900 2.343610 1.096410
v 1.838510 2.373200 1.066810
v 1.838510 2.166810 1.649700
v 1.838900 2.196400 1.096410
v 1.838900 2.196400 1.620110
v 1.838510 2.166810 1.066810
v 1.838520 2.373190 0.426830
v 1.838920 2.343590 0.456460
v 1.839140 2.196390 0.456630
v 1.838760 2.166790 0.427060
v 1.838520 2.373190 1.013200
v 1.838880 2.196390 0.983600
v 1.838950 2.343590 0.983600
v 1.838490 2.166790 1.013200
vn 0.8573 0.4543 -0.2423
vn 0.9975 -0.0000 -0.0705
vn -0.7433 -0.0000 0.6690
vn 0.7426 0.0015 0.6697
vn 0.7440 0.0016 0.6682
vn 0.7426 0.0015 0.6698
vn -0.0000 1.0000 -0.0000
vn -0.0000 -1.0000 -0.0000
vn -1.0000 0.0002 -0.0004
vn -1.0000 -0.0015 -0.0000
vn -1.0000 -0.0011 -0.0001
vn -1.0000 0.0005 -0.0005
vn -1.0000 -0.0000 -0.0000
vn -0.9951 0.0989 -0.0000
vn -0.9987 -0.0512 -0.0000
vn -0.0000 -0.0000 1.0000
vn -0.0000 0.0995 0.9950
vn -0.0995 -0.0000 0.9950
vn -0.0000 -0.0516 0.9987
vn 1.0000 -0.0005 -0.0000
vn 1.0000 0.0005 0.0001
vn 1.0000 0.0005 -0.0000
vn 1.0000 0.0001 0.0001
vn 1.0000 -0.0000 -0.0000
vn 1.0000 -0.0000 -0.0001
vn -1.0000 -0.0012 -0.0000
vn -1.0000 -0.0014 -0.0000
vn -1.0000 0.0002 0.0003
vn -1.0000 0.0004 0.0003
vn -0.0000 -0.0000 -1.0000
vn -0.0000 -0.0516 -0.9987
vn -0.0995 -0.0000 -0.9950
vn -0.0000 0.0995 -0.9950
vn 0.9950 0.0995 -0.0000
vn 0.9950 -0.0000 0.0995
vn 0.9987 -0.0516 -0.0000
vn 1.0000 0.0021 -0.0000
vn 1.0000 -0.0011 -0.0000
vn -0.0000 0.0005 -1.0000
vn -0.0001 0.0010 -1.0000
vn -0.0002 -0.0006 -1.0000
vn -0.0003 -0.0005 -1.0000
vn -0.0000 0.0011 -1.0000
vn -0.0000 -0.0005 -1.0000
vn -0.0000 -0.0011 -1.0000
vn -0.0001 -0.0010 -1.0000
vn 0.0001 -0.0006 -1.0000
vn 0.0004 -0.0005 -1.0000
vn 0.0001 -0.0005 -1.0000
vn 0.0003 0.0008 -1.0000
vn 0.5144 -0.0000 -0.8576
vn -0.9987 -0.0519 -0.0000
vn -0.9950 -0.0000 0.1001
vn -0.9950 0.1001 -0.0000
vn -1.0000 0.0011 -0.0000
vn -1.0000 -0.0005 -0.0000
vn -1.0000 -0.0022 -0.0000
vn -0.0000 -0.0006 1.0000
vn -0.0000 0.0006 -1.0000
vn -1.0000 0.0005 -0.0000
vn -0.0000 0.0012 1.0000
vn -0.0000 -0.8576 -0.5142
vn -0.5142 -0.8576 -0.0000
vn -0.0000 -0.8577 0.5142
vn -0.0000 -0.8577 0.5141
vn -0.0000 -0.8576 0.5142
vn 0.8574 -0.0000 0.5146
vn 0.8573 -0.0000 0.5148
vn 0.8574 -0.0000 0.5147
vn 0.8574 0.0001 0.5146
vn -0.5142 -0.0000 -0.8576
vn 0.5144 -0.8576 -0.0000
vn -0.9557 -0.0007 0.2945
vn -0.9557 -0.0007 0.2944
vn -0.0000 -0.9553 0.2956
vn -0.0000 -0.9553 0.2957
vn 0.9559 0.0013 0.2936
vn 0.9558 0.0013 0.2939
vn -0.0000 0.9563 0.2925
vn -0.0000 0.7432 0.6690
vn -0.0000 0.7434 0.6689
vn -0.0000 -0.7434 0.6688
vn -0.0000 -0.7432 0.6690
vn -0.0000 1.0000 -0.0015
vn -1.0000 -0.0011 -0.0000
vn -0.0000 -1.0000 0.0010
vn 1.0000 0.0011 -0.0000
vn -0.0216 0.9998 -0.0000
vn -0.0216 -0.0000 -0.9998
vn -0.0211 -0.9998 -0.0000
vn -0.0206 0.0011 0.9998
vn -0.0210 0.0011 0.9998
vn -0.0205 0.0011 0.9998
vn -0.0205 -0.0000 -0.9998
vn -0.0210 -0.9998 -0.0000
vn -0.0216 -0.0000 0.9998
vn -0.8638 -0.0000 0.5039
vn -0.8638 -0.0000 0.5038
vn -0.8638 0.5039 -0.0000
vn -0.8647 -0.0000 -0.5023
vn -0.8628 -0.5055 -0.0000
vn -0.8629 -0.5054 -0.0000
vn -0.8613 -0.5081 -0.0000
vn -0.8639 0.0003 0.5036
vn -0.8636 0.0003 0.5041
vn -0.8636 0.0003 0.5042
vn -0.8628 0.5056 0.0003
vn -0.8639 0.5037 0.0003
vn -0.8630 -0.0018 -0.5052
vn -0.8630 -0.0018 -0.5053
vn 0.0005 -1.0000 -0.0000
vn 0.0005 -0.0000 1.0000
vn -0.0010 1.0000 -0.0000
vn -0.0005 1.0000 -0.0000
vn 0.0009 -1.0000 -0.0000
vn -0.0005 -0.0000 1.0000
vn -0.7994 -0.6008 -0.0000
vn -0.7976 -0.0000 0.6032
vn -0.7976 0.6032 -0.0000
vn -0.7994 -0.0000 -0.6008
vn -0.7998 -0.0005 0.6003
vn -0.7997 -0.0005 0.6005
vn -0.8001 0.5998 -0.0004
vn -0.7999 0.6001 -0.0004
vn -0.7998 0.0004 -0.6002
vn -0.8002 0.0004 -0.5998
vn -0.7977 -0.6030 -0.0000
vn -0.8000 -0.6001 -0.0000
vn -0.0000 0.0011 1.0000
vn -0.0006 1.0000 -0.0000
vn 0.0005 -0.0000 -1.0000
vn 0.0006 -1.0000 -0.0000
vn -0.9948 0.1017 -0.0000
vn -0.0000 0.0386 -0.9993
vn 0.9948 0.1017 -0.0000
vn -0.0000 0.0386 0.9993
vn -0.0000 -0.0011 1.0000
vn -0.0000 0.0006 1.0000
vn -0.0000 0.0022 1.0000
vn -0.0000 0.0023 1.0000
vn -0.0000 0.0005 1.0000
vn 0.0001 -0.0012 1.0000
vn 0.0001 0.0023 1.0000
vn -0.0001 0.0023 1.0000
vn -0.0000 -0.0012 1.0000
vn -0.0001 -0.0012 1.0000
vn -0.0002 0.0005 1.0000
vn -0.0004 0.0005 1.0000
vn -0.0001 -0.0007 1.0000
vn -0.0005 0.0005 1.0000
vn -0.0008 0.0003 1.0000
vn 0.0001 0.0012 1.0000
vn 0.0002 0.0010 1.0000
vn -0.0102 0.0005 0.9999
vn -0.0040 -0.0028 1.0000
vn -0.0002 0.0010 1.0000
vn -0.0079 -0.0069 0.9999
vn -0.0152 0.0003 0.9999
vn 0.0079 -0.0057 1.0000
vn -0.0079 0.0073 0.9999
vn 0.0040 -0.0017 1.0000
vn 0.0040 0.0028 1.0000
vn 0.0164 0.0006 0.9999
vn 0.0080 0.0068 0.9999
vn 0.0082 0.0006 1.0000
vn -1.0000 -0.0021 -0.0000
vn 1.0000 0.0003 -0.0000
vn -1.0000 -0.0003 -0.0000
vn -0.0003 -0.0008 1.0000
vn -0.0003 0.0005 1.0000
vn -0.0006 0.0003 1.0000
vn -0.0004 0.0015 1.0000
vn 0.0005 0.0002 1.0000
vn 0.0003 -0.0008 1.0000
vn 0.0004 0.0004 1.0000
vn 0.0004 0.0015 1.0000
vn -0.0000 -0.0003 -1.0000
vn -0.0000 0.0003 1.0000
vn 0.0017 0.0028 1.0000
vn 0.0018 -0.0007 1.0000
vn -0.0018 -0.0007 1.0000
vn -0.0017 0.0028 1.0000
vn -1.0000 -0.0001 0.0001
vn -1.0000 -0.0002 -0.0001
vn -1.0000 -0.0004 -0.0001
vn -1.0000 -0.0002 0.0003
vn -1.0000 -0.0007 -0.0002
vn -1.0000 -0.0007 0.0002
vn -1.0000 -0.0004 -0.0000
vn -1.0000 -0.0005 0.0005
vn -1.0000 -0.0009 -0.0001
vn -1.0000 0.0005 -0.0001
vn -1.0000 0.0005 0.0001
vn -1.0000 -0.0008 -0.0001
vn -1.0000 -0.0009 0.0001
vn -1.0000 -0.0007 -0.0001
vn -1.0000 -0.0008 -0.0004
vn -1.0000 -0.0005 0.0002
vn -1.0000 -0.0001 -0.0001
vn -1.0000 -0.0003 0.0001
vn -1.0000 -0.0002 -0.0002
vn -1.0000 -0.0001 0.0005
vn -1.0000 -0.0007 0.0004
vn -1.0000 -0.0009 -0.0003
vn -1.0000 -0.0004 -0.0002
vn -1.0000 -0.0066 0.0066
vn -1.0000 -0.0066 -0.0066
vn -1.0000 0.0066 -0.0066
vn -1.0000 0.0066 0.0066
vn -1.0000 0.0061 0.0067
vn -1.0000 -0.0075 0.0060
vn -1.0000 -0.0075 0.0062
vn -1.0000 0.0061 0.0068
vn -0.9999 -0.0072 -0.0073
vn -0.9999 -0.0072 -0.0072
vn -1.0000 0.0066 -0.0068
vt 2.301488 0.490427
vt 2.326494 0.505431
vt 2.113941 0.590451
vt 2.326494 0.590452
vt -0.322253 0.324893
vt -0.236882 0.324989
vt -0.235055 0.327022
vt -0.324085 0.326924
vt -0.236882 0.316807
vt -0.322253 0.316903
vt -0.324085 0.314872
vt -0.235055 0.314774
vt 2.326007 0.071911
vt 2.326007 0.421911
vt 2.301007 0.436911
vt 2.301007 0.096911
vt 1.664509 0.071911
vt 1.664509 0.096911
vt 1.664509 0.436911
vt 1.024507 0.071911
vt 1.024507 0.096911
vt 1.024507 0.436911
vt 0.424362 0.071911
vt 0.424362 0.096911
vt 0.424362 0.436911
vt -0.575493 0.071911
vt -0.575493 0.096911
vt -0.575493 0.436911
vt -1.587993 0.071911
vt -1.375493 0.096911
vt -1.375493 0.436911
vt -1.587993 0.421911
vt -0.400204 0.867867
vt -0.400204 0.527866
vt 0.236294 0.867867
vt 0.236294 0.527866
vt 0.876007 0.868142
vt 0.876007 0.528143
vt 0.096375 0.764874
vt -0.427562 0.764874
vt -0.427402 0.620873
vt 0.096376 0.620873
vt 2.407129 0.392894
vt 2.407129 0.432502
vt 1.719314 0.392894
vt 1.719314 0.432502
vt 1.052237 0.392894
vt 1.052237 0.432502
vt 0.426704 0.392894
vt 0.426704 0.432502
vt -0.615449 0.392894
vt -0.615449 0.432502
vt -1.669115 0.392894
vt -1.669115 0.432502
vt 2.408797 0.376217
vt 1.719314 0.376217
vt 1.052237 0.376217
vt 0.426704 0.376217
vt -0.615449 0.376217
vt -1.670783 0.376217
vt 2.408797 0.464813
vt 1.719314 0.464813
vt 1.052237 0.464813
vt 0.426704 0.464813
vt -0.615449 0.464813
vt -1.670783 0.464813
vt -0.105106 -0.217635
vt -0.105106 0.047515
vt -0.451840 0.047515
vt -0.451840 -0.217635
vt -0.136720 0.117881
vt -0.475704 0.117881
vt -0.475704 0.079129
vt -0.136720 0.079129
vt -0.477336 0.062811
vt -0.120403 0.062811
vt -0.120403 0.149495
vt -0.477336 0.149495
vt -0.286655 -0.289767
vt 0.313638 -0.289767
vt -0.286945 0.230363
vt 0.313349 0.230363
vt 0.313638 0.490427
vt -0.286655 0.490427
vt -0.926817 0.230363
vt -0.926817 0.490427
vt -1.563473 0.230362
vt -1.563473 0.490427
vt -1.563473 0.590451
vt -0.926817 0.590451
vt -0.286655 0.590451
vt 0.313638 0.590451
vt 1.313742 0.490427
vt 1.313742 0.590451
vt 1.313742 0.230363
vt 2.301488 0.230363
vt -0.345194 0.698585
vt 0.254950 0.698585
vt 0.254950 1.038586
vt -0.345194 1.038586
vt 0.438508 0.166930
vt 0.438340 0.317930
vt -0.452577 0.317930
vt -0.452576 0.166930
vt 0.189130 0.645314
vt 1.176630 0.645314
vt 1.176630 0.985314
vt 0.189130 0.985314
vt -0.811015 0.645589
vt -0.811015 0.985589
vt -0.141138 -0.122491
vt -0.141138 -0.083738
vt -0.480122 -0.083738
vt -0.480122 -0.122491
vt -0.481754 -0.154105
vt -0.124821 -0.154105
vt -0.124821 -0.067421
vt -0.481754 -0.067421
vt -0.109524 0.213025
vt -0.456258 0.213025
vt -0.456258 -0.052125
vt -0.109524 -0.052125
vt 0.601099 0.773470
vt 0.265276 0.773470
vt 0.265276 0.735079
vt 0.601099 0.735079
vt 0.263659 0.718914
vt 0.617263 0.718914
vt 0.617263 0.804789
vt 0.263659 0.804789
vt 0.014942 0.926728
vt -0.494782 0.926728
vt -0.494782 0.586728
vt 0.014942 0.586728
vt 0.506752 0.926728
vt 0.506752 0.586728
vt 0.945218 0.586728
vt 0.945218 0.926728
vt 0.632417 0.703760
vt 0.288917 0.703760
vt 0.631832 0.441083
vt 0.288332 0.441083
vt 0.288917 -0.084272
vt 0.632417 -0.084272
vt 0.573348 0.469281
vt 0.573348 0.809281
vt 0.073348 0.469281
vt 0.073348 0.809281
vt -0.426652 0.469281
vt -0.426652 0.809281
vt -0.788691 0.776517
vt -1.324741 0.776517
vt -1.324741 0.737599
vt -0.788691 0.737599
vt -0.276607 0.776517
vt -0.276607 0.737599
vt 0.645145 0.737599
vt 0.645145 0.776517
vt 1.167189 0.776517
vt 1.167189 0.737599
vt 1.670886 0.776517
vt 1.670886 0.737599
vt 2.143914 0.737599
vt 2.143914 0.776517
vt -1.326380 0.808266
vt -0.788691 0.808266
vt -0.276607 0.808266
vt 0.645145 0.808266
vt 1.167189 0.808266
vt 1.670886 0.808266
vt 2.145553 0.808266
vt -1.326380 0.721211
vt -0.788691 0.721211
vt -0.276607 0.721211
vt 0.645145 0.721211
vt 1.167189 0.721211
vt 1.670886 0.721212
vt 2.145553 0.721212
vt 2.104587 0.279201
vt 2.104587 0.629201
vt 2.079587 0.644201
vt 2.079587 0.304201
vt 1.641121 0.279201
vt 1.641121 0.304201
vt 1.641121 0.644201
vt 1.149310 0.644201
vt 1.149310 0.304201
vt 1.149310 0.279201
vt 0.639586 0.279201
vt 0.639586 0.304201
vt 0.639586 0.644200
vt -0.260414 0.279200
vt -0.260414 0.644200
vt -0.260414 0.304201
vt -0.760414 0.279200
vt -0.760414 0.304201
vt -0.760414 0.644200
vt -1.285414 0.279200
vt -1.260414 0.304201
vt -1.260414 0.644200
vt -1.285414 0.629201
vt 1.083692 0.124921
vt 1.583691 0.124921
vt 1.083416 0.644921
vt 1.583139 0.644921
vt 2.083692 0.124921
vt 2.083140 0.644921
vt 2.083692 0.904921
vt 1.583691 0.904921
vt 2.083692 1.004921
vt 1.583691 1.004921
vt 1.083692 1.004921
vt 1.083692 0.904921
vt 0.183691 1.004921
vt 0.183691 0.904921
vt 0.183415 0.644921
vt -0.326585 0.644921
vt 0.183691 0.124921
vt -0.326033 0.124921
vt -0.817843 0.124921
vt -0.326033 0.904921
vt -0.326033 1.004921
vt -0.817843 1.004921
vt -0.817843 0.644921
vt -1.256309 0.124921
vt -1.256861 0.644921
vt -0.817843 0.904921
vt -1.256309 0.904921
vt -1.256309 1.004921
vt 0.632417 0.804789
vt 0.316607 0.797413
vt 0.316607 0.759022
vt 0.652430 0.759022
vt 0.652430 0.797413
vt 0.654047 0.828732
vt 0.300442 0.828732
vt 0.300442 0.742857
vt 0.654047 0.742857
vt 0.285288 -0.060329
vt 0.628789 -0.060329
vt 0.285873 0.465025
vt 0.629374 0.465025
vt 0.628789 0.727703
vt 0.285288 0.727703
vt 0.094922 0.565906
vt 0.094922 0.709906
vt -0.425576 0.709906
vt -0.425576 0.565906
vt 0.094712 0.424223
vt 0.094712 0.764223
vt -0.425288 0.764499
vt -0.425288 0.424499
vt -0.419267 0.365478
vt 0.100733 0.365754
vt 0.100733 0.705754
vt -0.419267 0.705479
vt 0.433190 0.154149
vt -0.445310 0.154149
vt -0.445310 0.003149
vt 0.433190 0.003149
vt 0.102541 0.646725
vt -0.417459 0.647015
vt -0.417459 0.307015
vt 0.102541 0.306726
vt 0.022080 0.248268
vt 0.022080 0.588268
vt -0.497920 0.587978
vt -0.497920 0.247979
vt 0.330833 0.871567
vt -0.393168 0.871567
vt -0.393078 0.787567
vt 0.330922 0.787567
vt 0.523433 0.284854
vt 0.523433 0.624853
vt -0.376567 0.624853
vt -0.376567 0.284854
vt -1.644725 0.360583
vt -0.615449 0.360583
vt 0.426704 0.360583
vt 1.052237 0.360583
vt 1.719314 0.360583
vt 2.382739 0.360583
vt -1.588480 0.590451
vt -1.588480 0.505430
vt 0.285288 0.828732
vt -1.300776 0.705850
vt -0.788691 0.705850
vt -0.276607 0.705850
vt 0.645145 0.705850
vt 1.167189 0.705850
vt 1.670886 0.705850
vt 2.119949 0.705850
vt -0.181842 0.187871
vt -0.388463 0.187641
vt -0.392541 0.174340
vt -0.177735 0.174578
vt 0.426843 0.048151
vt -0.434558 0.048151
vt -0.438646 0.034856
vt 0.430939 0.034856
vt -0.390182 0.184167
vt -0.183560 0.183936
vt -0.179455 0.197229
vt -0.394259 0.197468
vt -0.434409 0.026798
vt 0.426712 0.026798
vt 0.430798 0.040097
vt -0.438504 0.040097
vt 0.336398 0.796687
vt -0.399192 0.796687
vt -0.401019 0.794654
vt 0.338229 0.794654
vt -0.399217 0.823963
vt 0.336431 0.823963
vt 0.338258 0.825993
vt -0.401048 0.825993
vt 0.336398 0.816398
vt -0.399191 0.816398
vt -0.322232 0.305177
vt -0.236860 0.305272
vt -0.399217 0.804251
vt 0.336431 0.804251
vt -0.236860 0.336524
vt -0.322232 0.336619
vt -0.403716 0.586912
vt 0.556477 0.586907
vt 0.556874 0.605909
vt -0.404119 0.605914
vt -0.396113 0.133655
vt -0.175887 0.133676
vt -0.175477 0.152679
vt -0.396503 0.152657
vt -0.403860 0.596051
vt 0.556571 0.595780
vt 0.556974 0.614782
vt -0.404257 0.615053
vt -0.396093 0.143153
vt -0.175868 0.143409
vt -0.175477 0.162410
vt -0.396503 0.162155
vt -0.396103 0.152858
vt -0.175878 0.152858
vt -0.175477 0.171860
vt -0.396503 0.171860
vt -0.396570 0.537777
vt 0.551242 0.537777
vt 0.551642 0.556779
vt -0.396970 0.556779
vt -0.396103 0.162454
vt -0.175878 0.162454
vt -0.175477 0.181456
vt -0.396503 0.181456
vt -0.396570 0.528792
vt 0.551241 0.528792
vt 0.551642 0.547795
vt -0.396970 0.547795
vt -0.366521 0.435427
vt -0.364109 0.437839
vt -0.366521 0.592027
vt -0.364109 0.589615
vt 0.521317 0.435427
vt 0.518904 0.437840
vt 0.521317 0.592027
vt 0.518904 0.589615
vt -0.373842 0.650144
vt -0.371430 0.647733
vt 0.526472 0.650144
vt 0.524062 0.647733
vt -0.373842 0.493544
vt -0.371430 0.495957
vt 0.526646 0.493544
vt 0.524230 0.495956
vt -0.207472 0.268634
vt -0.358472 0.268634
vt -0.358472 0.248234
vt -0.207472 0.248234
vt 0.433191 0.069533
vt -0.445311 0.069533
vt -0.445311 0.049133
vt 0.433191 0.049133
vt -0.207472 0.278231
vt -0.358472 0.278231
vt -0.358472 0.257831
vt -0.207472 0.257831
vt 0.433189 0.060332
vt -0.445309 0.060332
vt -0.445309 0.039931
vt 0.433189 0.039931
vt 0.438432 0.233321
vt -0.452473 0.233305
vt -0.452476 0.212906
vt 0.438429 0.212920
vt -0.207478 0.259014
vt -0.358478 0.259072
vt -0.358468 0.238671
vt -0.207468 0.238613
vt 0.438504 0.272097
vt -0.452576 0.271836
vt -0.452574 0.251435
vt 0.438506 0.251697
vt -0.207467 0.249349
vt -0.358467 0.249567
vt -0.358478 0.229168
vt -0.207478 0.228949
vt -0.389785 0.190332
vt -0.183384 0.190085
vt -0.183373 0.211585
vt -0.389773 0.211832
vt -0.433990 0.868358
vt 0.152153 0.868625
vt 0.152150 0.890125
vt -0.433993 0.889858
vt -0.389773 0.199803
vt -0.183374 0.199774
vt -0.183384 0.221274
vt -0.389784 0.221303
vt -0.337245 0.892666
vt 0.249131 0.892675
vt 0.249135 0.914175
vt -0.337242 0.914166
vt -0.427713 0.821089
vt 0.155177 0.821089
vt 0.155177 0.842589
vt -0.427713 0.842589
vt -0.389778 0.209383
vt -0.183378 0.209383
vt -0.183378 0.230883
vt -0.389778 0.230883
vt -0.428260 0.811718
vt 0.154636 0.811718
vt 0.154636 0.833217
vt -0.428260 0.833217
vt -0.389778 0.218979
vt -0.183378 0.218979
vt -0.183378 0.240479
vt -0.389778 0.240479
vt -0.404065 0.929565
vt -0.402456 0.927955
vt 0.122728 0.929565
vt 0.121119 0.927955
vt -0.404065 0.781495
vt -0.402456 0.783104
vt 0.122728 0.781495
vt 0.121119 0.783104
vt -0.405886 0.828917
vt -0.404278 0.830527
vt -0.406051 0.976990
vt -0.404439 0.975380
vt 0.124209 0.828918
vt 0.122600 0.830527
vt 0.124209 0.976990
vt 0.122600 0.975381
vt 0.094920 0.674470
vt -0.425573 0.674470
vt -0.425573 0.656269
vt 0.094920 0.656269
vt -0.211938 0.305751
vt -0.355938 0.305751
vt -0.355938 0.287551
vt -0.211938 0.287551
vt 0.094925 0.665609
vt -0.425579 0.665609
vt -0.425579 0.647409
vt 0.094925 0.647409
vt -0.211938 0.315348
vt -0.355938 0.315348
vt -0.355938 0.297148
vt -0.211938 0.297148
vt -0.211944 0.296278
vt -0.355944 0.296064
vt -0.355933 0.277864
vt -0.211934 0.278078
vt 0.096308 0.683222
vt -0.427467 0.683478
vt -0.427470 0.665278
vt 0.096304 0.665022
vt -0.210425 0.286593
vt -0.354426 0.286531
vt -0.354436 0.268331
vt -0.210435 0.268393
vt 0.096371 0.720568
vt -0.427562 0.720588
vt -0.427559 0.702388
vt 0.096374 0.702368
vt 0.140128 1.105076
vt 0.140128 1.445077
vt 0.065128 1.445077
vt 0.065128 1.105076
vt 0.868954 1.544488
vt 0.528953 1.544488
vt 0.528954 -0.595513
vt 0.868954 -0.595513
vt 0.700432 -0.595515
vt 0.775432 -0.595515
vt 0.775432 1.544490
vt 0.700432 1.544490
vt 0.607647 -0.595512
vt 0.947647 -0.595512
vt 0.947647 1.544488
vt 0.607647 1.544488
vt 0.779125 -0.595514
vt 0.854125 -0.595514
vt 0.854125 1.544489
vt 0.779125 1.544489
vt 0.084321 1.106079
vt 0.159321 1.106079
vt 0.159321 1.446079
vt 0.084321 1.446079
vt 0.755252 0.102152
vt 0.755252 -0.237849
vt 0.835252 -0.237849
vt 0.835252 0.102152
vt -0.089687 -0.336258
vt 0.250314 -0.336258
vt 0.250314 1.803743
vt -0.089686 1.803743
vt 0.080949 1.803745
vt 0.000949 1.803745
vt 0.000949 -0.336260
vt 0.080948 -0.336260
vt 0.182147 1.468365
vt -0.157853 1.468365
vt -0.157853 -0.671637
vt 0.182147 -0.671637
vt 0.090714 1.468361
vt 0.010714 1.468361
vt 0.010714 -0.671633
vt 0.090715 -0.671633
vt 0.816058 0.102150
vt 0.736059 0.102150
vt 0.736059 -0.237851
vt 0.816059 -0.237851
vt 0.440373 0.525387
vt -0.455127 0.525387
vt -0.455127 0.082088
vt 0.440373 0.082088
vt -0.006400 0.067147
vt -0.007253 0.089204
vt -0.451705 0.089204
vt -0.452557 0.067147
vt -0.376736 0.499933
vt -0.374485 0.477925
vt 0.521351 0.477925
vt 0.523602 0.499933
vt -0.006400 0.057697
vt -0.007252 0.079755
vt -0.451705 0.079755
vt -0.452558 0.057697
vt 0.523601 0.409774
vt 0.521350 0.431782
vt -0.374484 0.431782
vt -0.376735 0.409774
vt 0.523433 0.156071
vt 0.523433 0.601070
vt -0.376567 0.601070
vt -0.376567 0.156071
vt 1.670886 -0.093002
vt 2.119949 -0.093002
vt 2.120514 0.439566
vt 1.670886 0.439566
vt 1.645281 0.439566
vt 1.645281 -0.067398
vt 1.645281 0.680245
vt 1.192847 0.680245
vt 1.167189 -0.093002
vt 1.192821 -0.067398
vt 1.193358 0.439579
vt 1.167754 0.439566
vt 1.142150 0.439552
vt 1.141611 -0.067398
vt 1.141639 0.680245
vt 0.645145 -0.093002
vt 0.670777 0.680245
vt 0.670763 -0.067398
vt 0.645428 0.439566
vt 0.671032 0.439573
vt 0.619568 0.680245
vt 0.619797 0.465170
vt -0.250976 0.680245
vt -0.276324 0.439566
vt -0.250747 0.465170
vt -0.302184 0.680245
vt -0.301929 0.439558
vt -0.763033 0.680245
vt -0.276607 -0.093002
vt -0.302197 -0.067398
vt -0.788691 -0.093002
vt -0.762522 0.439579
vt -0.763059 -0.067399
vt -0.788125 0.439566
vt -0.814241 0.680245
vt -0.813730 0.439552
vt -1.275118 0.680245
vt -0.814268 -0.067398
vt -1.300776 -0.093002
vt -1.274606 0.439579
vt -1.275144 -0.067398
vt -1.300210 0.439566
vt 0.370440 0.111336
vt -0.124548 0.111886
vt 0.370440 -0.178762
vt -0.124548 -0.178210
vt -0.359560 0.111363
vt -0.359560 -0.178734
vt 0.253445 -0.184214
vt 0.253445 0.105883
vt -0.241568 0.105331
vt -0.241568 -0.184765
vt -0.476556 0.105855
vt -0.476556 -0.184242
vt -0.006816 0.065290
vt -0.006816 0.355387
vt -0.456815 0.355387
vt -0.456815 0.065290
vt -0.457499 0.406360
vt -0.457499 0.116264
vt -0.007499 0.116263
vt -0.007499 0.406360
vt 0.234859 0.157353
vt -0.260128 0.157889
vt 0.234859 -0.132744
vt -0.260128 -0.132208
vt -0.495141 0.157380
vt -0.495141 -0.132716
vt 0.230446 -0.080527
vt 0.230446 0.209568
vt -0.264562 0.209279
vt -0.264562 -0.080817
vt -0.499555 0.209555
vt -0.499555 -0.080542
vt -0.003385 0.167231
vt -0.003385 0.457328
vt -0.463121 0.457341
vt -0.463121 0.167245
vt -0.463129 0.508297
vt -0.463129 0.218200
vt -0.003379 0.218227
vt -0.003379 0.508324
vt 0.333419 0.629773
vt 0.333419 0.919869
vt -0.161595 0.919333
vt -0.161595 0.629237
vt -0.396581 0.919842
vt -0.396581 0.629745
vt -0.005104 0.014324
vt -0.005104 0.304420
vt -0.455091 0.304406
vt -0.455091 0.014310
vt 0.230213 0.261101
vt -0.264780 0.261391
vt 0.230213 -0.028995
vt -0.264780 -0.028705
vt -0.499787 0.261115
vt -0.499787 -0.028982
vt -0.455083 0.253451
vt -0.455083 -0.036646
vt -0.005110 -0.036673
vt -0.005110 0.253423
vt -0.008339 -0.106534
vt -0.008339 0.183563
vt -0.450121 0.183563
vt -0.450121 -0.106534
vt 0.230213 0.312814
vt -0.264787 0.313365
vt 0.230213 0.022717
vt -0.264787 0.023269
vt -0.499787 0.312841
vt -0.499787 0.022745
vt 0.228497 0.075090
vt 0.228497 0.365187
vt -0.266517 0.364635
vt -0.266517 0.074539
vt -0.501504 0.365159
vt -0.501504 0.075062
vt -0.445692 0.132590
vt -0.445692 -0.157506
vt -0.003935 -0.157506
vt -0.003935 0.132590
vt 0.092812 0.043525
vt 0.542812 0.043525
vt 0.543337 0.538513
vt 0.093337 0.538538
vt 0.092838 0.773526
vt 0.542839 0.773526
vt 0.165471 0.043525
vt 0.625208 0.043525
vt 0.625734 0.538513
vt 0.165734 0.538532
vt 0.165485 0.773525
vt 0.625235 0.773525
vt 0.698383 -0.036936
vt 0.698645 0.458057
vt 0.248396 -0.036936
vt 0.248922 0.458077
vt 0.698396 0.693064
vt 0.248423 0.693063
vt 0.329272 0.458077
vt 0.328747 -0.036936
vt 0.770530 -0.036936
vt 0.770530 0.458064
vt 0.770530 0.693064
vt 0.328773 0.693064
vt -0.423535 0.433681
vt 0.071458 0.433944
vt -0.423535 0.723536
vt 0.071458 0.723799
vt 0.306465 0.433694
vt 0.306465 0.723550
vt 0.300444 0.485503
vt 0.300444 0.775359
vt -0.194564 0.775621
vt -0.194563 0.485766
vt -0.429556 0.775373
vt -0.429556 0.485516
vt 0.107449 0.596450
vt 0.107449 0.886306
vt -0.442695 0.886305
vt -0.442695 0.596450
vt 0.140425 0.647385
vt 0.140425 0.937241
vt -0.409719 0.937241
vt -0.409719 0.647385
vt -0.339766 0.337543
vt 0.210378 0.337543
vt 0.210654 0.832536
vt -0.339491 0.832550
vt -0.339753 1.067543
vt 0.210392 1.067543
vt -0.367005 -0.033045
vt -0.367099 0.054556
vt -0.424360 0.111756
vt -0.424145 -0.090245
vt 0.417644 0.111756
vt 0.360597 -0.033045
vt 0.360505 0.054556
vt 0.417859 -0.090245
vt -1.624400 0.109909
vt -1.624400 0.340258
vt -1.644725 0.089584
vt -0.635774 0.109909
vt -0.615449 0.089584
vt -0.635774 0.340258
vt -0.595125 0.109909
vt -0.595125 0.340258
vt 0.406658 0.109909
vt 0.427006 0.089584
vt 0.406402 0.340258
vt 0.453063 0.089591
vt 0.452791 0.334525
vt 0.452776 -0.426357
vt 0.426704 -0.452414
vt 1.026194 -0.426357
vt 1.052237 -0.452414
vt 1.026482 0.089577
vt 1.052539 0.089584
vt 1.026209 0.334525
vt 1.080442 0.117518
vt 1.080202 0.332649
vt 1.691381 0.117518
vt 1.719314 0.089584
vt 1.691381 0.332649
vt 1.747249 0.117518
vt 1.747249 0.332649
vt 2.354805 0.117518
vt 2.382739 0.089584
vt 2.354805 0.332649
vt -0.398886 0.624393
vt -0.398886 0.403062
vt 0.553682 0.624393
vt 0.553682 0.403062
vt 0.558801 0.682510
vt -0.406207 0.682510
vt 0.559048 0.461178
vt -0.406207 0.461178
vt 0.152503 0.959340
vt -0.433840 0.959340
vt 0.152503 0.751720
vt -0.433840 0.751720
vt -0.435860 1.006764
vt -0.435628 0.799142
vt 0.153985 1.006765
vt 0.153985 0.799143
s 1
f 3/1/1 2/2/1 1/3/1
f 6/2/2 5/4/2 4/3/2
f 9/5/3 8/6/3 7/7/3
f 10/8/3 9/5/3 7/7/3
f 13/9/4 12/10/5 11/11/5
f 14/12/6 13/9/4 11/11/5
f 17/13/7 16/14/7 15/15/7
f 18/16/7 17/13/7 15/15/7
f 19/17/7 17/13/7 18/16/7
f 20/18/7 18/16/7 15/15/7
f 20/18/7 19/17/7 18/16/7
f 21/19/7 20/18/7 15/15/7
f 22/20/7 19/17/7 20/18/7
f 20/18/7 21/19/7 23/21/7
f 23/21/7 22/20/7 20/18/7
f 21/19/7 24/22/7 23/21/7
f 25/23/7 22/20/7 23/21/7
f 26/24/7 23/21/7 24/22/7
f 26/24/7 25/23/7 23/21/7
f 27/25/7 26/24/7 24/22/7
f 28/26/7 25/23/7 26/24/7
f 29/27/7 26/24/7 27/25/7
f 29/27/7 28/26/7 26/24/7
f 30/28/7 29/27/7 27/25/7
f 31/29/7 28/26/7 29/27/7
f 29/27/7 30/28/7 32/30/7
f 32/30/7 31/29/7 29/27/7
f 30/28/7 33/31/7 32/30/7
f 34/32/7 31/29/7 32/30/7
f 33/31/7 34/32/7 32/30/7
f 37/33/8 36/34/8 35/35/8
f 36/34/8 38/36/8 35/35/8
f 35/35/8 38/36/8 39/37/8
f 38/36/8 40/38/8 39/37/8
f 43/39/9 42/40/10 41/41/11
f 44/42/12 43/39/9 41/41/11
f 47/43/13 46/44/13 45/45/13
f 46/44/13 48/46/13 45/45/13
f 45/45/13 48/46/13 49/47/13
f 48/46/13 50/48/13 49/47/13
f 49/47/13 50/48/13 51/49/13
f 50/48/13 52/50/13 51/49/13
f 51/49/13 52/50/13 53/51/13
f 52/50/13 54/52/13 53/51/13
f 53/51/13 54/52/13 55/53/13
f 54/52/13 56/54/13 55/53/13
f 59/55/14 58/43/14 57/56/14
f 58/43/14 60/45/14 57/56/14
f 57/56/14 60/45/14 61/57/14
f 60/45/14 62/47/14 61/57/14
f 61/57/14 62/47/14 63/58/14
f 62/47/14 64/49/14 63/58/14
f 63/58/14 64/49/14 65/59/14
f 64/49/14 66/51/14 65/59/14
f 65/59/14 66/51/14 67/60/14
f 66/51/14 68/53/14 67/60/14
f 71/46/15 70/44/15 69/61/15
f 72/62/15 71/46/15 69/61/15
f 73/48/15 71/46/15 72/62/15
f 74/63/15 73/48/15 72/62/15
f 75/50/15 73/48/15 74/63/15
f 76/64/15 75/50/15 74/63/15
f 77/52/15 75/50/15 76/64/15
f 78/65/15 77/52/15 76/64/15
f 79/54/15 77/52/15 78/65/15
f 80/66/15 79/54/15 78/65/15
f 83/67/16 82/68/16 81/69/16
f 84/70/16 83/67/16 81/69/16
f 87/71/16 86/72/16 85/73/16
f 88/74/16 87/71/16 85/73/16
f 91/74/17 90/73/17 89/75/17
f 92/76/17 91/74/17 89/75/17
f 95/71/18 94/74/18 93/76/18
f 96/77/18 95/71/18 93/76/18
f 99/72/19 98/71/19 97/77/19
f 100/78/19 99/72/19 97/77/19
f 103/79/20 102/80/20 101/81/21
f 102/80/20 104/82/22 101/81/21
f 104/82/22 105/83/22 101/81/21
f 105/83/22 106/84/21 101/81/21
f 107/85/23 101/81/21 106/84/21
f 108/86/24 107/85/23 106/84/21
f 109/87/24 107/85/23 108/86/24
f 110/88/24 109/87/24 108/86/24
f 111/89/24 110/88/24 108/86/24
f 112/90/24 111/89/24 108/86/24
f 112/90/24 108/86/24 113/91/24
f 108/86/24 106/84/21 113/91/24
f 113/91/24 106/84/21 105/83/22
f 114/92/24 113/91/24 105/83/22
f 105/83/22 104/82/22 115/93/25
f 114/92/24 105/83/22 115/93/25
f 116/94/24 114/92/24 115/93/25
f 116/94/24 115/93/25 117/3/24
f 104/82/22 118/95/25 115/93/25
f 115/93/25 119/1/24 117/3/24
f 115/93/25 118/95/25 119/1/24
f 118/95/25 120/96/24 119/1/24
f 123/97/8 122/98/8 121/99/8
f 124/100/8 123/97/8 121/99/8
f 127/101/26 126/102/27 125/103/28
f 128/104/29 127/101/26 125/103/28
f 131/105/8 130/106/8 129/107/8
f 132/108/8 131/105/8 129/107/8
f 133/109/8 131/105/8 132/108/8
f 134/110/8 133/109/8 132/108/8
f 137/111/30 136/112/30 135/113/30
f 138/114/30 137/111/30 135/113/30
f 141/111/31 140/114/31 139/115/31
f 142/116/31 141/111/31 139/115/31
f 145/112/32 144/111/32 143/116/32
f 146/117/32 145/112/32 143/116/32
f 149/113/33 148/112/33 147/117/33
f 150/118/33 149/113/33 147/117/33
f 153/119/30 152/120/30 151/121/30
f 154/122/30 153/119/30 151/121/30
f 157/123/24 156/124/24 155/125/24
f 158/126/24 157/123/24 155/125/24
f 161/126/34 160/125/34 159/127/34
f 162/128/34 161/126/34 159/127/34
f 165/123/35 164/126/35 163/128/35
f 166/129/35 165/123/35 163/128/35
f 169/124/36 168/123/36 167/129/36
f 170/130/36 169/124/36 167/129/36
f 173/131/8 172/132/8 171/133/8
f 174/134/8 173/131/8 171/133/8
f 173/131/8 174/134/8 175/135/8
f 174/134/8 176/136/8 175/135/8
f 176/136/8 177/137/8 175/135/8
f 177/137/8 178/138/8 175/135/8
f 181/139/37 180/140/37 179/141/22
f 180/140/37 182/142/22 179/141/22
f 182/142/22 183/143/38 179/141/22
f 183/143/38 184/144/38 179/141/22
f 187/145/8 186/146/8 185/147/8
f 186/146/8 188/148/8 185/147/8
f 185/147/8 188/148/8 189/149/8
f 188/148/8 190/150/8 189/149/8
f 193/151/16 192/152/16 191/153/16
f 194/154/16 193/151/16 191/153/16
f 195/155/16 193/151/16 194/154/16
f 196/156/16 195/155/16 194/154/16
f 196/156/16 197/157/16 195/155/16
f 197/157/16 198/158/16 195/155/16
f 199/159/16 198/158/16 197/157/16
f 200/160/16 199/159/16 197/157/16
f 199/159/16 200/160/16 201/161/16
f 200/160/16 202/162/16 201/161/16
f 202/162/16 203/163/16 201/161/16
f 203/163/16 204/164/16 201/161/16
f 207/165/19 206/152/19 205/166/19
f 206/152/19 208/151/19 205/166/19
f 205/166/19 208/151/19 209/167/19
f 208/151/19 210/155/19 209/167/19
f 209/167/19 210/155/19 211/168/19
f 210/155/19 212/158/19 211/168/19
f 211/168/19 212/158/19 213/169/19
f 212/158/19 214/159/19 213/169/19
f 213/169/19 214/159/19 215/161/19
f 216/170/19 213/169/19 215/161/19
f 216/170/19 215/161/19 217/171/19
f 215/161/19 218/164/19 217/171/19
f 221/154/17 220/153/17 219/172/17
f 222/173/17 221/154/17 219/172/17
f 223/156/17 221/154/17 222/173/17
f 224/174/17 223/156/17 222/173/17
f 225/157/17 223/156/17 224/174/17
f 226/175/17 225/157/17 224/174/17
f 227/160/17 225/157/17 226/175/17
f 228/176/17 227/160/17 226/175/17
f 227/160/17 228/176/17 229/162/17
f 228/176/17 230/177/17 229/162/17
f 231/163/17 229/162/17 230/177/17
f 232/178/17 231/163/17 230/177/17
f 235/179/7 234/180/7 233/181/7
f 236/182/7 235/179/7 233/181/7
f 235/179/7 236/182/7 237/183/7
f 236/182/7 233/181/7 238/184/7
f 236/182/7 238/184/7 237/183/7
f 233/181/7 239/185/7 238/184/7
f 239/185/7 240/186/7 238/184/7
f 238/184/7 241/187/7 237/183/7
f 240/186/7 241/187/7 238/184/7
f 241/187/7 242/188/7 237/183/7
f 243/189/7 242/188/7 241/187/7
f 241/187/7 240/186/7 244/190/7
f 244/190/7 243/189/7 241/187/7
f 240/186/7 245/191/7 244/190/7
f 246/192/7 243/189/7 244/190/7
f 244/190/7 245/191/7 247/193/7
f 248/194/7 246/192/7 244/190/7
f 248/194/7 244/190/7 247/193/7
f 249/195/7 246/192/7 248/194/7
f 250/196/7 248/194/7 247/193/7
f 250/196/7 249/195/7 248/194/7
f 251/197/7 250/196/7 247/193/7
f 252/198/7 249/195/7 250/196/7
f 250/196/7 251/197/7 253/199/7
f 253/199/7 252/198/7 250/196/7
f 251/197/7 254/200/7 253/199/7
f 255/201/7 252/198/7 253/199/7
f 254/200/7 255/201/7 253/199/7
f 258/202/39 257/203/40 256/204/41
f 257/203/40 259/205/42 256/204/41
f 257/203/40 260/206/43 259/205/42
f 260/206/43 261/207/44 259/205/42
f 261/207/44 262/208/45 259/205/42
f 262/208/45 263/209/46 259/205/42
f 259/205/42 263/209/46 256/204/41
f 263/209/46 262/208/45 264/210/30
f 265/211/30 263/209/46 264/210/30
f 265/211/30 266/212/30 263/209/46
f 266/212/30 267/213/44 263/209/46
f 263/209/46 267/213/44 256/204/41
f 266/212/30 268/214/30 267/213/44
f 267/213/44 269/215/47 256/204/41
f 268/214/30 269/215/47 267/213/44
f 269/215/47 270/216/48 256/204/41
f 270/216/48 269/215/47 271/217/49
f 272/218/50 270/216/48 271/217/49
f 273/219/43 272/218/50 271/217/49
f 273/219/43 271/217/49 274/220/43
f 275/221/45 269/215/47 268/214/30
f 269/215/47 275/221/45 271/217/49
f 276/222/30 275/221/45 268/214/30
f 275/221/45 276/222/30 277/223/30
f 271/217/49 278/224/44 274/220/43
f 279/225/43 274/220/43 278/224/44
f 280/226/44 279/225/43 278/224/44
f 271/217/49 275/221/45 281/227/45
f 278/224/44 271/217/49 281/227/45
f 278/224/44 281/227/45 280/226/44
f 281/227/45 275/221/45 277/223/30
f 281/227/45 282/228/45 280/226/44
f 282/228/45 281/227/45 277/223/30
f 283/229/30 282/228/45 277/223/30
f 286/230/51 285/129/51 284/139/51
f 285/129/51 287/128/51 284/139/51
f 290/231/13 289/232/13 288/233/13
f 291/234/13 290/231/13 288/233/13
f 294/231/52 293/234/52 292/235/52
f 295/236/52 294/231/52 292/235/52
f 298/232/53 297/231/53 296/236/53
f 299/237/53 298/232/53 296/236/53
f 302/233/54 301/232/54 300/237/54
f 303/238/54 302/233/54 300/237/54
f 306/239/55 305/240/55 304/241/56
f 305/240/55 307/242/56 304/241/56
f 307/242/56 308/243/57 304/241/56
f 308/243/57 309/244/57 304/241/56
f 312/245/13 311/246/13 310/247/13
f 313/248/13 312/245/13 310/247/13
f 316/249/58 315/250/58 314/251/58
f 317/252/58 316/249/58 314/251/58
f 320/253/59 319/254/59 318/255/59
f 321/256/59 320/253/59 318/255/59
f 324/257/13 323/258/13 322/259/13
f 325/260/13 324/257/13 322/259/13
f 328/261/60 327/262/60 326/263/60
f 329/264/60 328/261/60 326/263/60
f 332/265/20 331/266/20 330/267/20
f 333/268/20 332/265/20 330/267/20
f 336/269/61 335/270/61 334/271/61
f 337/272/61 336/269/61 334/271/61
f 340/273/8 339/274/8 338/275/8
f 341/276/8 340/273/8 338/275/8
f 344/118/62 343/117/62 342/122/62
f 345/121/62 344/118/62 342/122/62
f 348/59/63 347/60/63 346/277/63
f 349/278/63 348/59/63 346/277/63
f 350/58/63 348/59/63 349/278/63
f 351/279/63 350/58/63 349/278/63
f 352/57/63 350/58/63 351/279/63
f 353/280/63 352/57/63 351/279/63
f 354/56/63 352/57/63 353/280/63
f 355/281/63 354/56/63 353/280/63
f 356/55/63 354/56/63 355/281/63
f 357/282/63 356/55/63 355/281/63
f 360/76/64 359/75/65 358/69/65
f 361/68/66 360/76/64 358/69/65
f 364/283/67 363/284/68 362/88/69
f 365/89/70 364/283/67 362/88/69
f 368/237/71 367/236/71 366/285/71
f 369/244/71 368/237/71 366/285/71
f 372/238/63 371/237/63 370/244/63
f 373/243/63 372/238/63 370/244/63
f 376/173/65 375/172/65 374/286/65
f 377/287/65 376/173/65 374/286/65
f 378/174/65 376/173/65 377/287/65
f 379/288/65 378/174/65 377/287/65
f 380/175/65 378/174/65 379/288/65
f 381/289/65 380/175/65 379/288/65
f 382/176/65 380/175/65 381/289/65
f 383/290/65 382/176/65 381/289/65
f 382/176/65 383/290/65 384/177/65
f 383/290/65 385/291/65 384/177/65
f 385/291/65 386/292/65 384/177/65
f 386/292/65 387/178/65 384/177/65
f 390/128/72 389/127/72 388/140/72
f 391/139/72 390/128/72 388/140/72
f 394/293/73 393/294/74 392/295/74
f 395/296/73 394/293/73 392/295/74
f 398/297/75 397/298/76 396/299/76
f 399/300/75 398/297/75 396/299/76
f 402/301/77 401/302/78 400/303/78
f 403/304/77 402/301/77 400/303/78
f 406/305/79 405/306/79 404/307/79
f 407/308/79 406/305/79 404/307/79
f 410/309/80 409/310/81 408/311/81
f 411/312/80 410/309/80 408/311/81
f 414/313/82 413/314/83 412/315/83
f 415/316/82 414/313/82 412/315/83
f 418/317/84 417/318/84 416/310/84
f 419/309/84 418/317/84 416/310/84
f 422/319/85 421/320/85 420/6/85
f 423/5/85 422/319/85 420/6/85
f 426/321/86 425/322/86 424/314/86
f 427/313/86 426/321/86 424/314/86
f 430/323/87 429/324/87 428/10/87
f 431/9/87 430/323/87 428/10/87
f 434/325/88 433/326/88 432/327/88
f 435/328/88 434/325/88 432/327/88
f 438/329/89 437/330/89 436/331/89
f 439/332/89 438/329/89 436/331/89
f 442/333/90 441/334/90 440/335/90
f 443/336/90 442/333/90 440/335/90
f 446/337/91 445/338/92 444/339/92
f 447/340/93 446/337/91 444/339/92
f 450/341/94 449/342/94 448/343/94
f 451/344/94 450/341/94 448/343/94
f 454/345/95 453/346/95 452/347/95
f 455/348/95 454/345/95 452/347/95
f 458/349/96 457/350/96 456/351/96
f 459/352/96 458/349/96 456/351/96
f 462/353/88 461/354/88 460/355/88
f 463/356/88 462/353/88 460/355/88
f 466/357/97 465/358/97 464/359/98
f 465/358/97 467/360/98 464/359/98
f 470/361/99 469/362/99 468/357/99
f 469/362/99 471/358/99 468/357/99
f 474/363/100 473/364/100 472/361/100
f 473/364/100 475/362/100 472/361/100
f 478/359/101 477/360/101 476/363/101
f 477/360/101 479/364/101 476/363/101
f 482/365/102 481/366/102 480/367/103
f 481/366/102 483/368/103 480/367/103
f 486/369/104 485/370/104 484/365/105
f 485/370/104 487/366/106 484/365/105
f 490/371/107 489/372/107 488/369/108
f 489/372/107 491/370/108 488/369/108
f 494/367/109 493/368/109 492/371/110
f 493/368/109 495/372/110 492/371/110
f 498/373/16 497/374/16 496/375/16
f 499/376/16 498/373/16 496/375/16
f 502/377/7 501/378/7 500/379/7
f 503/380/7 502/377/7 500/379/7
f 506/381/30 505/382/30 504/383/30
f 507/384/30 506/381/30 504/383/30
f 510/385/8 509/386/8 508/387/8
f 511/388/8 510/385/8 508/387/8
f 514/389/111 513/390/111 512/391/111
f 515/392/111 514/389/111 512/391/111
f 518/393/112 517/394/112 516/395/112
f 519/396/112 518/393/112 516/395/112
f 522/397/113 521/398/114 520/399/114
f 523/400/113 522/397/113 520/399/114
f 526/401/45 525/402/45 524/403/45
f 527/404/45 526/401/45 524/403/45
f 530/405/45 529/406/45 528/407/45
f 531/408/45 530/405/45 528/407/45
f 534/409/115 533/410/115 532/411/115
f 535/412/115 534/409/115 532/411/115
f 538/413/116 537/414/116 536/415/116
f 539/416/116 538/413/116 536/415/116
f 542/417/114 541/418/114 540/419/114
f 543/420/114 542/417/114 540/419/114
f 546/421/7 545/422/7 544/423/7
f 547/424/7 546/421/7 544/423/7
f 550/425/30 549/426/30 548/427/30
f 551/428/30 550/425/30 548/427/30
f 554/429/8 553/430/8 552/431/8
f 555/432/8 554/429/8 552/431/8
f 558/433/16 557/434/16 556/435/16
f 559/436/16 558/433/16 556/435/16
f 562/437/117 561/438/117 560/439/117
f 561/438/117 563/440/117 560/439/117
f 566/441/118 565/442/118 564/437/118
f 565/442/118 567/438/118 564/437/118
f 570/443/119 569/444/119 568/441/119
f 569/444/119 571/442/119 568/441/119
f 574/439/120 573/440/120 572/443/120
f 573/440/120 575/444/120 572/443/120
f 578/445/121 577/446/121 576/447/122
f 577/446/121 579/448/122 576/447/122
f 582/449/123 581/450/123 580/445/124
f 581/450/123 583/446/124 580/445/124
f 586/451/125 585/452/125 584/449/126
f 585/452/125 587/450/126 584/449/126
f 590/447/127 589/448/127 588/451/128
f 589/448/127 591/452/128 588/451/128
f 594/453/8 593/454/8 592/455/8
f 595/456/8 594/453/8 592/455/8
f 598/457/16 597/458/16 596/459/16
f 599/460/16 598/457/16 596/459/16
f 602/461/7 601/462/7 600/463/7
f 603/464/7 602/461/7 600/463/7
f 606/465/30 605/466/30 604/467/30
f 607/468/30 606/465/30 604/467/30
f 610/469/129 609/470/129 608/471/129
f 611/472/129 610/469/129 608/471/129
f 614/473/130 613/474/130 612/475/130
f 615/476/130 614/473/130 612/475/130
f 618/477/131 617/478/131 616/479/131
f 619/480/131 618/477/131 616/479/131
f 622/481/132 621/482/132 620/483/132
f 623/484/132 622/481/132 620/483/132
f 626/485/8 625/486/8 624/487/8
f 627/488/8 626/485/8 624/487/8
f 630/489/30 629/490/30 628/491/30
f 631/492/30 630/489/30 628/491/30
f 634/493/24 633/494/24 632/495/24
f 635/496/24 634/493/24 632/495/24
f 638/497/16 637/498/16 636/499/16
f 639/500/16 638/497/16 636/499/16
f 642/501/13 641/502/13 640/503/13
f 643/504/13 642/501/13 640/503/13
f 646/505/7 645/506/7 644/507/7
f 647/508/7 646/505/7 644/507/7
f 650/509/8 649/510/8 648/511/8
f 651/512/8 650/509/8 648/511/8
f 654/513/30 653/514/30 652/515/30
f 655/516/30 654/513/30 652/515/30
f 658/517/24 657/518/24 656/519/24
f 659/520/24 658/517/24 656/519/24
f 662/521/16 661/522/16 660/523/16
f 663/524/16 662/521/16 660/523/16
f 666/525/13 665/526/13 664/527/13
f 667/528/13 666/525/13 664/527/13
f 670/529/7 669/530/7 668/531/7
f 671/532/7 670/529/7 668/531/7
f 674/533/7 673/534/7 672/535/7
f 675/536/7 674/533/7 672/535/7
f 678/537/133 677/538/133 676/539/133
f 679/540/133 678/537/133 676/539/133
f 682/541/134 681/542/134 680/543/134
f 683/544/134 682/541/134 680/543/134
f 686/545/135 685/546/135 684/547/135
f 687/548/135 686/545/135 684/547/135
f 690/549/136 689/550/136 688/551/136
f 691/552/136 690/549/136 688/551/136
f 694/553/8 693/554/8 692/555/8
f 695/556/8 694/553/8 692/555/8
f 698/557/137 697/558/137 696/559/138
f 699/560/138 698/557/137 696/559/138
f 696/559/138 700/292/139 699/560/138
f 700/292/139 701/291/140 699/560/138
f 699/560/138 702/561/141 698/557/137
f 702/561/141 703/562/142 698/557/137
f 704/563/143 702/561/141 699/560/138
f 701/291/140 704/563/143 699/560/138
f 705/564/144 704/563/143 701/291/140
f 698/557/137 703/562/142 706/565/145
f 707/290/140 705/564/144 701/291/140
f 703/562/142 708/566/146 706/565/145
f 709/567/138 705/564/144 707/290/140
f 708/566/146 709/567/138 710/568/147
f 706/565/145 708/566/146 710/568/147
f 710/568/147 709/567/138 707/290/140
f 710/568/147 711/569/148 706/565/145
f 711/569/148 712/570/137 706/565/145
f 713/571/140 711/569/148 710/568/147
f 707/290/140 713/571/140 710/568/147
f 706/565/145 712/570/137 714/572/149
f 715/573/61 713/571/140 707/290/140
f 712/570/137 716/574/149 714/572/149
f 717/289/61 715/573/61 707/290/140
f 714/572/149 716/574/149 718/575/150
f 719/576/151 715/573/61 717/289/61
f 716/574/149 719/576/151 718/575/150
f 718/575/150 719/576/151 717/289/61
f 717/289/61 720/577/152 718/575/150
f 720/577/152 721/578/153 718/575/150
f 722/579/61 720/577/152 717/289/61
f 718/575/150 721/578/153 723/580/154
f 724/288/155 722/579/61 717/289/61
f 721/578/153 725/581/156 723/580/154
f 725/581/156 722/579/61 724/288/155
f 723/580/154 725/581/156 724/288/155
f 724/288/155 726/582/157 723/580/154
f 726/582/157 727/583/158 723/580/154
f 728/584/159 726/582/157 724/288/155
f 723/580/154 727/583/158 729/585/160
f 727/583/158 730/586/160 729/585/160
f 731/287/161 728/584/159 724/288/155
f 729/585/160 730/586/160 732/587/162
f 733/588/163 728/584/159 731/287/161
f 730/586/160 734/589/164 732/587/162
f 734/589/164 733/588/163 735/590/165
f 735/590/165 733/588/163 731/287/161
f 732/587/162 734/589/164 735/590/165
f 731/287/161 736/591/143 735/590/165
f 736/591/143 737/592/141 735/590/165
f 735/590/165 737/592/141 732/587/162
f 738/593/144 736/591/143 731/287/161
f 737/592/141 739/594/142 732/587/162
f 740/286/144 738/593/144 731/287/161
f 732/587/162 739/594/142 741/595/146
f 742/596/138 738/593/144 740/286/144
f 739/594/142 743/597/146 741/595/146
f 744/598/138 742/596/138 740/286/144
f 741/595/146 743/597/146 744/598/138
f 743/597/146 742/596/138 744/598/138
f 747/599/55 746/600/56 745/601/55
f 746/600/56 748/602/56 745/601/55
f 746/600/56 749/603/166 748/602/56
f 749/603/166 750/604/166 748/602/56
f 753/605/38 752/606/38 751/607/22
f 754/608/22 753/605/38 751/607/22
f 754/608/22 751/607/22 755/609/37
f 756/610/37 754/608/22 755/609/37
f 759/611/7 758/612/7 757/613/7
f 760/614/7 759/611/7 757/613/7
f 763/615/8 762/616/8 761/617/8
f 764/618/8 763/615/8 761/617/8
f 767/619/55 766/620/56 765/621/55
f 766/620/56 768/622/56 765/621/55
f 766/620/56 769/623/166 768/622/56
f 769/623/166 770/624/166 768/622/56
f 773/625/20 772/626/20 771/627/167
f 774/628/167 773/625/20 771/627/167
f 774/628/167 771/627/167 775/629/87
f 776/630/87 774/628/167 775/629/87
f 779/631/7 778/632/7 777/633/7
f 780/634/7 779/631/7 777/633/7
f 783/635/8 782/636/8 781/637/8
f 784/638/8 783/635/8 781/637/8
f 787/639/38 786/640/38 785/641/22
f 788/642/22 787/639/38 785/641/22
f 788/642/22 785/641/22 789/643/37
f 790/644/37 788/642/22 789/643/37
f 793/645/7 792/646/7 791/647/7
f 794/648/7 793/645/7 791/647/7
f 797/649/60 796/650/168 795/651/60
f 796/650/168 798/652/168 795/651/60
f 796/650/168 799/653/85 798/652/168
f 799/653/85 800/654/85 798/652/168
f 803/655/8 802/656/8 801/657/8
f 804/658/8 803/655/8 801/657/8
f 807/659/7 806/660/7 805/661/7
f 808/662/7 807/659/7 805/661/7
f 811/663/13 810/664/13 809/665/13
f 810/664/13 812/666/13 809/665/13
f 810/664/13 813/667/13 812/666/13
f 813/667/13 814/668/13 812/666/13
f 817/669/38 816/670/38 815/671/22
f 818/672/22 817/669/38 815/671/22
f 818/672/22 815/671/22 819/673/37
f 820/674/37 818/672/22 819/673/37
f 823/675/8 822/676/8 821/677/8
f 824/678/8 823/675/8 821/677/8
f 827/679/137 826/680/137 825/681/138
f 828/682/138 827/679/137 825/681/138
f 829/683/140 828/682/138 825/681/138
f 830/684/140 829/683/140 825/681/138
f 833/685/169 832/686/137 831/687/170
f 834/688/171 833/685/169 831/687/170
f 835/689/172 834/688/171 831/687/170
f 836/690/139 835/689/172 831/687/170
f 839/691/58 838/692/173 837/693/174
f 838/692/173 840/694/175 837/693/174
f 840/694/175 838/692/173 841/695/176
f 842/696/139 840/694/175 841/695/176
f 845/697/138 844/698/137 843/699/137
f 846/700/138 845/697/138 843/699/137
f 845/697/138 846/700/138 847/701/140
f 848/702/140 845/697/138 847/701/140
f 851/703/39 850/704/177 849/705/39
f 850/704/177 852/706/177 849/705/39
f 850/704/177 853/707/45 852/706/177
f 853/707/45 854/708/45 852/706/177
f 857/709/58 856/710/58 855/711/178
f 858/712/178 857/709/58 855/711/178
f 858/712/178 855/711/178 859/713/129
f 860/714/129 858/712/178 859/713/129
f 863/715/7 862/716/7 861/717/7
f 864/718/7 863/715/7 861/717/7
f 867/719/8 866/720/8 865/721/8
f 868/722/8 867/719/8 865/721/8
f 871/723/60 870/724/60 869/725/168
f 872/726/168 871/723/60 869/725/168
f 873/727/85 872/726/168 869/725/168
f 874/728/85 873/727/85 869/725/168
f 877/729/179 876/730/180 875/731/180
f 878/732/179 877/729/179 875/731/180
f 875/731/180 876/730/180 879/733/181
f 880/734/182 877/729/179 878/732/179
f 876/730/180 881/735/181 879/733/181
f 882/736/182 880/734/182 878/732/179
f 879/733/181 881/735/181 882/736/182
f 881/735/181 880/734/182 882/736/182
f 885/737/13 884/738/13 883/277/13
f 886/739/13 885/737/13 883/277/13
f 887/740/13 885/737/13 886/739/13
f 883/277/13 884/738/13 888/278/183
f 889/741/184 887/740/13 886/739/13
f 884/738/13 890/742/13 888/278/183
f 890/742/13 887/740/13 889/741/184
f 888/278/183 890/742/13 889/741/184
f 889/741/184 891/743/185 888/278/183
f 891/743/185 892/744/186 888/278/183
f 893/745/187 891/743/185 889/741/184
f 888/278/183 892/744/186 894/279/188
f 895/746/189 893/745/187 889/741/184
f 892/744/186 896/747/190 894/279/188
f 896/747/190 893/745/187 895/746/189
f 894/279/188 896/747/190 895/746/189
f 895/746/189 897/748/168 894/279/188
f 897/748/168 898/749/191 894/279/188
f 899/750/192 897/748/168 895/746/189
f 900/751/192 899/750/192 895/746/189
f 901/752/193 899/750/192 900/751/192
f 902/753/193 901/752/193 900/751/192
f 903/754/168 901/752/193 902/753/193
f 894/279/188 898/749/191 904/280/194
f 905/755/189 903/754/168 902/753/193
f 898/749/191 906/756/195 904/280/194
f 906/756/195 903/754/168 905/755/189
f 904/280/194 906/756/195 905/755/189
f 905/755/189 907/757/196 904/280/194
f 907/757/196 908/758/197 904/280/194
f 909/759/198 907/757/196 905/755/189
f 904/280/194 908/758/197 910/281/199
f 911/760/200 909/759/198 905/755/189
f 908/758/197 912/761/201 910/281/199
f 912/761/201 909/759/198 911/760/200
f 910/281/199 912/761/201 911/760/200
f 911/760/200 913/762/13 910/281/199
f 913/762/13 914/763/13 910/281/199
f 915/764/13 913/762/13 911/760/200
f 910/281/199 914/763/13 916/282/13
f 917/765/13 915/764/13 911/760/200
f 914/763/13 918/766/13 916/282/13
f 918/766/13 915/764/13 917/765/13
f 916/282/13 918/766/13 917/765/13
f 921/357/13 920/359/13 919/767/13
f 922/768/13 921/357/13 919/767/13
f 919/767/13 920/359/13 923/769/13
f 924/361/13 921/357/13 922/768/13
f 920/359/13 925/363/13 923/769/13
f 926/770/13 924/361/13 922/768/13
f 923/769/13 925/363/13 926/770/13
f 925/363/13 924/361/13 926/770/13
f 929/365/202 928/367/203 927/771/203
f 930/772/186 929/365/202 927/771/203
f 927/771/203 928/367/203 931/773/191
f 932/369/185 929/365/202 930/772/186
f 928/367/203 933/371/204 931/773/191
f 934/774/205 932/369/185 930/772/186
f 931/773/191 933/371/204 934/774/205
f 933/371/204 932/369/185 934/774/205
f 937/437/206 936/439/207 935/775/207
f 938/776/206 937/437/206 935/775/207
f 935/775/207 936/439/207 939/777/208
f 940/441/209 937/437/206 938/776/206
f 936/439/207 941/443/208 939/777/208
f 942/778/209 940/441/209 938/776/206
f 939/777/208 941/443/208 942/778/209
f 941/443/208 940/441/209 942/778/209
f 945/445/210 944/447/211 943/779/212
f 946/780/213 945/445/210 943/779/212
f 943/779/212 944/447/211 947/781/214
f 948/449/208 945/445/210 946/780/213
f 944/447/211 949/451/215 947/781/214
f 950/782/216 948/449/208 946/780/213
f 947/781/214 949/451/215 950/782/216
f 949/451/215 948/449/208 950/782/216
f 3/1/1 2/2/1 1/3/1
f 6/2/2 5/4/2 4/3/2
f 9/5/3 8/6/3 7/7/3
f 10/8/3 9/5/3 7/7/3
f 13/9/4 12/10/5 11/11/5
f 14/12/6 13/9/4 11/11/5
f 17/13/7 16/14/7 15/15/7
f 18/16/7 17/13/7 15/15/7
f 19/17/7 17/13/7 18/16/7
f 20/18/7 18/16/7 15/15/7
f 20/18/7 19/17/7 18/16/7
f 21/19/7 20/18/7 15/15/7
f 22/20/7 19/17/7 20/18/7
f 20/18/7 21/19/7 23/21/7
f 23/21/7 22/20/7 20/18/7
f 21/19/7 24/22/7 23/21/7
f 25/23/7 22/20/7 23/21/7
f 26/24/7 23/21/7 24/22/7
f 26/24/7 25/23/7 23/21/7
f 27/25/7 26/24/7 24/22/7
f 28/26/7 25/23/7 26/24/7
f 29/27/7 26/24/7 27/25/7
f 29/27/7 28/26/7 26/24/7
f 30/28/7 29/27/7 27/25/7
f 31/29/7 28/26/7 29/27/7
f 29/27/7 30/28/7 32/30/7
f 32/30/7 31/29/7 29/27/7
f 30/28/7 33/31/7 32/30/7
f 34/32/7 31/29/7 32/30/7
f 33/31/7 34/32/7 32/30/7
f 37/33/8 36/34/8 35/35/8
f 36/34/8 38/36/8 35/35/8
f 35/35/8 38/36/8 39/37/8
f 38/36/8 40/38/8 39/37/8
f 43/39/9 42/40/10 41/41/11
f 44/42/12 43/39/9 41/41/11
f 47/43/13 46/44/13 45/45/13
f 46/44/13 48/46/13 45/45/13
f 45/45/13 48/46/13 49/47/13
f 48/46/13 50/48/13 49/47/13
f 49/47/13 50/48/13 51/49/13
f 50/48/13 52/50/13 51/49/13
f 51/49/13 52/50/13 53/51/13
f 52/50/13 54/52/13 53/51/13
f 53/51/13 54/52/13 55/53/13
f 54/52/13 56/54/13 55/53/13
f 59/55/14 58/43/14 57/56/14
f 58/43/14 60/45/14 57/56/14
f 57/56/14 60/45/14 61/57/14
f 60/45/14 62/47/14 61/57/14
f 61/57/14 62/47/14 63/58/14
f 62/47/14 64/49/14 63/58/14
f 63/58/14 64/49/14 65/59/14
f 64/49/14 66/51/14 65/59/14
f 65/59/14 66/51/14 67/60/14
f 66/51/14 68/53/14 67/60/14
f 71/46/15 70/44/15 69/61/15
f 72/62/15 71/46/15 69/61/15
f 73/48/15 71/46/15 72/62/15
f 74/63/15 73/48/15 72/62/15
f 75/50/15 73/48/15 74/63/15
f 76/64/15 75/50/15 74/63/15
f 77/52/15 75/50/15 76/64/15
f 78/65/15 77/52/15 76/64/15
f 79/54/15 77/52/15 78/65/15
f 80/66/15 79/54/15 78/65/15
f 83/67/16 82/68/16 81/69/16
f 84/70/16 83/67/16 81/69/16
f 87/71/16 86/72/16 85/73/16
f 88/74/16 87/71/16 85/73/16
f 91/74/17 90/73/17 89/75/17
f 92/76/17 91/74/17 89/75/17
f 95/71/18 94/74/18 93/76/18
f 96/77/18 95/71/18 93/76/18
f 99/72/19 98/71/19 97/77/19
f 100/78/19 99/72/19 97/77/19
f 103/79/20 102/80/20 101/81/21
f 102/80/20 104/82/22 101/81/21
f 104/82/22 105/83/22 101/81/21
f 105/83/22 106/84/21 101/81/21
f 107/85/23 101/81/21 106/84/21
f 108/86/24 107/85/23 106/84/21
f 109/87/24 107/85/23 108/86/24
f 110/88/24 109/87/24 108/86/24
f 111/89/24 110/88/24 108/86/24
f 112/90/24 111/89/24 108/86/24
f 112/90/24 108/86/24 113/91/24
f 108/86/24 106/84/21 113/91/24
f 113/91/24 106/84/21 105/83/22
f 114/92/24 113/91/24 105/83/22
f 105/83/22 104/82/22 115/93/25
f 114/92/24 105/83/22 115/93/25
f 116/94/24 114/92/24 115/93/25
f 116/94/24 115/93/25 117/3/24
f 104/82/22 118/95/25 115/93/25
f 115/93/25 119/1/24 117/3/24
f 115/93/25 118/95/25 119/1/24
f 118/95/25 120/96/24 119/1/24
f 123/97/8 122/98/8 121/99/8
f 124/100/8 123/97/8 121/99/8
f 127/101/26 126/102/27 125/103/28
f 128/104/29 127/101/26 125/103/28
f 131/105/8 130/106/8 129/107/8
f 132/108/8 131/105/8 129/107/8
f 133/109/8 131/105/8 132/108/8
f 134/110/8 133/109/8 132/108/8
f 137/111/30 136/112/30 135/113/30
f 138/114/30 137/111/30 135/113/30
f 141/111/31 140/114/31 139/115/31
f 142/116/31 141/111/31 139/115/31
f 145/112/32 144/111/32 143/116/32
f 146/117/32 145/112/32 143/116/32
f 149/113/33 148/112/33 147/117/33
f 150/118/33 149/113/33 147/117/33
f 153/119/30 152/120/30 151/121/30
f 154/122/30 153/119/30 151/121/30
f 157/123/24 156/124/24 155/125/24
f 158/126/24 157/123/24 155/125/24
f 161/126/34 160/125/34 159/127/34
f 162/128/34 161/126/34 159/127/34
f 165/123/35 164/126/35 163/128/35
f 166/129/35 165/123/35 163/128/35
f 169/124/36 168/123/36 167/129/36
f 170/130/36 169/124/36 167/129/36
f 173/131/8 172/132/8 171/133/8
f 174/134/8 173/131/8 171/133/8
f 173/131/8 174/134/8 175/135/8
f 174/134/8 176/136/8 175/135/8
f 176/136/8 177/137/8 175/135/8
f 177/137/8 178/138/8 175/135/8
f 181/139/37 180/140/37 179/141/22
f 180/140/37 182/142/22 179/141/22
f 182/142/22 183/143/38 179/141/22
f 183/143/38 184/144/38 179/141/22
f 187/145/8 186/146/8 185/147/8
f 186/146/8 188/148/8 185/147/8
f 185/147/8 188/148/8 189/149/8
f 188/148/8 190/150/8 189/149/8
f 193/151/16 192/152/16 191/153/16
f 194/154/16 193/151/16 191/153/16
f 195/155/16 193/151/16 194/154/16
f 196/156/16 195/155/16 194/154/16
f 196/156/16 197/157/16 195/155/16
f 197/157/16 198/158/16 195/155/16
f 199/159/16 198/158/16 197/157/16
f 200/160/16 199/159/16 197/157/16
f 199/159/16 200/160/16 201/161/16
f 200/160/16 202/162/16 201/161/16
f 202/162/16 203/163/16 201/161/16
f 203/163/16 204/164/16 201/161/16
f 207/165/19 206/152/19 205/166/19
f 206/152/19 208/151/19 205/166/19
f 205/166/19 208/151/19 209/167/19
f 208/151/19 210/155/19 209/167/19
f 209/167/19 210/155/19 211/168/19
f 210/155/19 212/158/19 211/168/19
f 211/168/19 212/158/19 213/169/19
f 212/158/19 214/159/19 213/169/19
f 213/169/19 214/159/19 215/161/19
f 216/170/19 213/169/19 215/161/19
f 216/170/19 215/161/19 217/171/19
f 215/161/19 218/164/19 217/171/19
f 221/154/17 220/153/17 219/172/17
f 222/173/17 221/154/17 219/172/17
f 223/156/17 221/154/17 222/173/17
f 224/174/17 223/156/17 222/173/17
f 225/157/17 223/156/17 224/174/17
f 226/175/17 225/157/17 224/174/17
f 227/160/17 225/157/17 226/175/17
f 228/176/17 227/160/17 226/175/17
f 227/160/17 228/176/17 229/162/17
f 228/176/17 230/177/17 229/162/17
f 231/163/17 229/162/17 230/177/17
f 232/178/17 231/163/17 230/177/17
f 235/179/7 234/180/7 233/181/7
f 236/182/7 235/179/7 233/181/7
f 235/179/7 236/182/7 237/183/7
f 236/182/7 233/181/7 238/184/7
f 236/182/7 238/184/7 237/183/7
f 233/181/7 239/185/7 238/184/7
f 239/185/7 240/186/7 238/184/7
f 238/184/7 241/187/7 237/183/7
f 240/186/7 241/187/7 238/184/7
f 241/187/7 242/188/7 237/183/7
f 243/189/7 242/188/7 241/187/7
f 241/187/7 240/186/7 244/190/7
f 244/190/7 243/189/7 241/187/7
f 240/186/7 245/191/7 244/190/7
f 246/192/7 243/189/7 244/190/7
f 244/190/7 245/191/7 247/193/7
f 248/194/7 246/192/7 244/190/7
f 248/194/7 244/190/7 247/193/7
f 249/195/7 246/192/7 248/194/7
f 250/196/7 248/194/7 247/193/7
f 250/196/7 249/195/7 248/194/7
f 251/197/7 250/196/7 247/193/7
f 252/198/7 249/195/7 250/196/7
f 250/196/7 251/197/7 253/199/7
f 253/199/7 252/198/7 250/196/7
f 251/197/7 254/200/7 253/199/7
f 255/201/7 252/198/7 253/199/7
f 254/200/7 255/201/7 253/199/7
f 258/202/39 257/203/40 256/204/41
f 257/203/40 259/205/42 256/204/41
f 257/203/40 260/206/43 259/205/42
f 260/206/43 261/207/44 259/205/42
f 261/207/44 262/208/45 259/205/42
f 262/208/45 263/209/46 259/205/42
f 259/205/42 263/209/46 256/204/41
f 263/209/46 262/208/45 264/210/30
f 265/211/30 263/209/46 264/210/30
f 265/211/30 266/212/30 263/209/46
f 266/212/30 267/213/44 263/209/46
f 263/209/46 267/213/44 256/204/41
f 266/212/30 268/214/30 267/213/44
f 267/213/44 269/215/47 256/204/41
f 268/214/30 269/215/47 267/213/44
f 269/215/47 270/216/48 256/204/41
f 270/216/48 269/215/47 271/217/49
f 272/218/50 270/216/48 271/217/49
f 273/219/43 272/218/50 271/217/49
f 273/219/43 271/217/49 274/220/43
f 275/221/45 269/215/47 268/214/30
f 269/215/47 275/221/45 271/217/49
f 276/222/30 275/221/45 268/214/30
f 275/221/45 276/222/30 277/223/30
f 271/217/49 278/224/44 274/220/43
f 279/225/43 274/220/43 278/224/44
f 280/226/44 279/225/43 278/224/44
f 271/217/49 275/221/45 281/227/45
f 278/224/44 271/217/49 281/227/45
f 278/224/44 281/227/45 280/226/44
f 281/227/45 275/221/45 277/223/30
f 281/227/45 282/228/45 280/226/44
f 282/228/45 281/227/45 277/223/30
f 283/229/30 282/228/45 277/223/30
f 286/230/51 285/129/51 284/139/51
f 285/129/51 287/128/51 284/139/51
f 290/231/13 289/232/13 288/233/13
f 291/234/13 290/231/13 288/233/13
f 294/231/52 293/234/52 292/235/52
f 295/236/52 294/231/52 292/235/52
f 298/232/53 297/231/53 296/236/53
f 299/237/53 298/232/53 296/236/53
f 302/233/54 301/232/54 300/237/54
f 303/238/54 302/233/54 300/237/54
f 306/239/55 305/240/55 304/241/56
f 305/240/55 307/242/56 304/241/56
f 307/242/56 308/243/57 304/241/56
f 308/243/57 309/244/57 304/241/56
f 312/245/13 311/246/13 310/247/13
f 313/248/13 312/245/13 310/247/13
f 316/249/58 315/250/58 314/251/58
f 317/252/58 316/249/58 314/251/58
f 320/253/59 319/254/59 318/255/59
f 321/256/59 320/253/59 318/255/59
f 324/257/13 323/258/13 322/259/13
f 325/260/13 324/257/13 322/259/13
f 328/261/60 327/262/60 326/263/60
f 329/264/60 328/261/60 326/263/60
f 332/265/20 331/266/20 330/267/20
f 333/268/20 332/265/20 330/267/20
f 336/269/61 335/270/61 334/271/61
f 337/272/61 336/269/61 334/271/61
f 340/273/8 339/274/8 338/275/8
f 341/276/8 340/273/8 338/275/8
f 344/118/62 343/117/62 342/122/62
f 345/121/62 344/118/62 342/122/62
f 348/59/63 347/60/63 346/277/63
f 349/278/63 348/59/63 346/277/63
f 350/58/63 348/59/63 349/278/63
f 351/279/63 350/58/63 349/278/63
f 352/57/63 350/58/63 351/279/63
f 353/280/63 352/57/63 351/279/63
f 354/56/63 352/57/63 353/280/63
f 355/281/63 354/56/63 353/280/63
f 356/55/63 354/56/63 355/281/63
f 357/282/63 356/55/63 355/281/63
f 360/76/64 359/75/65 358/69/65
f 361/68/66 360/76/64 358/69/65
f 364/283/67 363/284/68 362/88/69
f 365/89/70 364/283/67 362/88/69
f 368/237/71 367/236/71 366/285/71
f 369/244/71 368/237/71 366/285/71
f 372/238/63 371/237/63 370/244/63
f 373/243/63 372/238/63 370/244/63
f 376/173/65 375/172/65 374/286/65
f 377/287/65 376/173/65 374/286/65
f 378/174/65 376/173/65 377/287/65
f 379/288/65 378/174/65 377/287/65
f 380/175/65 378/174/65 379/288/65
f 381/289/65 380/175/65 379/288/65
f 382/176/65 380/175/65 381/289/65
f 383/290/65 382/176/65 381/289/65
f 382/176/65 383/290/65 384/177/65
f 383/290/65 385/291/65 384/177/65
f 385/291/65 386/292/65 384/177/65
f 386/292/65 387/178/65 384/177/65
f 390/128/72 389/127/72 388/140/72
f 391/139/72 390/128/72 388/140/72
f 394/293/73 393/294/74 392/295/74
f 395/296/73 394/293/73 392/295/74
f 398/297/75 397/298/76 396/299/76
f 399/300/75 398/297/75 396/299/76
f 402/301/77 401/302/78 400/303/78
f 403/304/77 402/301/77 400/303/78
f 406/305/79 405/306/79 404/307/79
f 407/308/79 406/305/79 404/307/79
f 410/309/80 409/310/81 408/311/81
f 411/312/80 410/309/80 408/311/81
f 414/313/82 413/314/83 412/315/83
f 415/316/82 414/313/82 412/315/83
f 418/317/84 417/318/84 416/310/84
f 419/309/84 418/317/84 416/310/84
f 422/319/85 421/320/85 420/6/85
f 423/5/85 422/319/85 420/6/85
f 426/321/86 425/322/86 424/314/86
f 427/313/86 426/321/86 424/314/86
f 430/323/87 429/324/87 428/10/87
f 431/9/87 430/323/87 428/10/87
f 434/325/88 433/326/88 432/327/88
f 435/328/88 434/325/88 432/327/88
f 438/329/89 437/330/89 436/331/89
f 439/332/89 438/329/89 436/331/89
f 442/333/90 441/334/90 440/335/90
f 443/336/90 442/333/90 440/335/90
f 446/337/91 445/338/92 444/339/92
f 447/340/93 446/337/91 444/339/92
f 450/341/94 449/342/94 448/343/94
f 451/344/94 450/341/94 448/343/94
f 454/345/95 453/346/95 452/347/95
f 455/348/95 454/345/95 452/347/95
f 458/349/96 457/350/96 456/351/96
f 459/352/96 458/349/96 456/351/96
f 462/353/88 461/354/88 460/355/88
f 463/356/88 462/353/88 460/355/88
f 466/357/97 465/358/97 464/359/98
f 465/358/97 467/360/98 464/359/98
f 470/361/99 469/362/99 468/357/99
f 469/362/99 471/358/99 468/357/99
f 474/363/100 473/364/100 472/361/100
f 473/364/100 475/362/100 472/361/100
f 478/359/101 477/360/101 476/363/101
f 477/360/101 479/364/101 476/363/101
f 482/365/102 481/366/102 480/367/103
f 481/366/102 483/368/103 480/367/103
f 486/369/104 485/370/104 484/365/105
f 485/370/104 487/366/106 484/365/105
f 490/371/107 489/372/107 488/369/108
f 489/372/107 491/370/108 488/369/108
f 494/367/109 493/368/109 492/371/110
f 493/368/109 495/372/110 492/371/110
f 498/373/16 497/374/16 496/375/16
f 499/376/16 498/373/16 496/375/16
f 502/377/7 501/378/7 500/379/7
f 503/380/7 502/377/7 500/379/7
f 506/381/30 505/382/30 504/383/30
f 507/384/30 506/381/30 504/383/30
f 510/385/8 509/386/8 508/387/8
f 511/388/8 510/385/8 508/387/8
f 514/389/111 513/390/111 512/391/111
f 515/392/111 514/389/111 512/391/111
f 518/393/112 517/394/112 516/395/112
f 519/396/112 518/393/112 516/395/112
f 522/397/113 521/398/114 520/399/114
f 523/400/113 522/397/113 520/399/114
f 526/401/45 525/402/45 524/403/45
f 527/404/45 526/401/45 524/403/45
f 530/405/45 529/406/45 528/407/45
f 531/408/45 530/405/45 528/407/45
f 534/409/115 533/410/115 532/411/115
f 535/412/115 534/409/115 532/411/115
f 538/413/116 537/414/116 536/415/116
f 539/416/116 538/413/116 536/415/116
f 542/417/114 541/418/114 540/419/114
f 543/420/114 542/417/114 540/419/114
f 546/421/7 545/422/7 544/423/7
f 547/424/7 546/421/7 544/423/7
f 550/425/30 549/426/30 548/427/30
f 551/428/30 550/425/30 548/427/30
f 554/429/8 553/430/8 552/431/8
f 555/432/8 554/429/8 552/431/8
f 558/433/16 557/434/16 556/435/16
f 559/436/16 558/433/16 556/435/16
f 562/437/117 561/438/117 560/439/117
f 561/438/117 563/440/117 560/439/117
f 566/441/118 565/442/118 564/437/118
f 565/442/118 567/438/118 564/437/118
f 570/443/119 569/444/119 568/441/119
f 569/444/119 571/442/119 568/441/119
f 574/439/120 573/440/120 572/443/120
f 573/440/120 575/444/120 572/443/120
f 578/445/121 577/446/121 576/447/122
f 577/446/121 579/448/122 576/447/122
f 582/449/123 581/450/123 580/445/124
f 581/450/123 583/446/124 580/445/124
f 586/451/125 585/452/125 584/449/126
f 585/452/125 587/450/126 584/449/126
f 590/447/127 589/448/127 588/451/128
f 589/448/127 591/452/128 588/451/128
f 594/453/8 593/454/8 592/455/8
f 595/456/8 594/453/8 592/455/8
f 598/457/16 597/458/16 596/459/16
f 599/460/16 598/457/16 596/459/16
f 602/461/7 601/462/7 600/463/7
f 603/464/7 602/461/7 600/463/7
f 606/465/30 605/466/30 604/467/30
f 607/468/30 606/465/30 604/467/30
f 610/469/129 609/470/129 608/471/129
f 611/472/129 610/469/129 608/471/129
f 614/473/130 613/474/130 612/475/130
f 615/476/130 614/473/130 612/475/130
f 618/477/131 617/478/131 616/479/131
f 619/480/131 618/477/131 616/479/131
f 622/481/132 621/482/132 620/483/132
f 623/484/132 622/481/132 620/483/132
f 626/485/8 625/486/8 624/487/8
f 627/488/8 626/485/8 624/487/8
f 630/489/30 629/490/30 628/491/30
f 631/492/30 630/489/30 628/491/30
f 634/493/24 633/494/24 632/495/24
f 635/496/24 634/493/24 632/495/24
f 638/497/16 637/498/16 636/499/16
f 639/500/16 638/497/16 636/499/16
f 642/501/13 641/502/13 640/503/13
f 643/504/13 642/501/13 640/503/13
f 646/505/7 645/506/7 644/507/7
f 647/508/7 646/505/7 644/507/7
f 650/509/8 649/510/8 648/511/8
f 651/512/8 650/509/8 648/511/8
f 654/513/30 653/514/30 652/515/30
f 655/516/30 654/513/30 652/515/30
f 658/517/24 657/518/24 656/519/24
f 659/520/24 658/517/24 656/519/24
f 662/521/16 661/522/16 660/523/16
f 663/524/16 662/521/16 660/523/16
f 666/525/13 665/526/13 664/527/13
f 667/528/13 666/525/13 664/527/13
f 670/529/7 669/530/7 668/531/7
f 671/532/7 670/529/7 668/531/7
f 674/533/7 673/534/7 672/535/7
f 675/536/7 674/533/7 672/535/7
f 678/537/133 677/538/133 676/539/133
f 679/540/133 678/537/133 676/539/133
f 682/541/134 681/542/134 680/543/134
f 683/544/134 682/541/134 680/543/134
f 686/545/135 685/546/135 684/547/135
f 687/548/135 686/545/135 684/547/135
f 690/549/136 689/550/136 688/551/136
f 691/552/136 690/549/136 688/551/136
f 694/553/8 693/554/8 692/555/8
f 695/556/8 694/553/8 692/555/8
f 698/557/137 697/558/137 696/559/138
f 699/560/138 698/557/137 696/559/138
f 696/559/138 700/292/139 699/560/138
f 700/292/139 701/291/140 699/560/138
f 699/560/138 702/561/141 698/557/137
f 702/561/141 703/562/142 698/557/137
f 704/563/143 702/561/141 699/560/138
f 701/291/140 704/563/143 699/560/138
f 705/564/144 704/563/143 701/291/140
f 698/557/137 703/562/142 706/565/145
f 707/290/140 705/564/144 701/291/140
f 703/562/142 708/566/146 706/565/145
f 709/567/138 705/564/144 707/290/140
f 708/566/146 709/567/138 710/568/147
f 706/565/145 708/566/146 710/568/147
f 710/568/147 709/567/138 707/290/140
f 710/568/147 711/569/148 706/565/145
f 711/569/148 712/570/137 706/565/145
f 713/571/140 711/569/148 710/568/147
f 707/290/140 713/571/140 710/568/147
f 706/565/145 712/570/137 714/572/149
f 715/573/61 713/571/140 707/290/140
f 712/570/137 716/574/149 714/572/149
f 717/289/61 715/573/61 707/290/140
f 714/572/149 716/574/149 718/575/150
f 719/576/151 715/573/61 717/289/61
f 716/574/149 719/576/151 718/575/150
f 718/575/150 719/576/151 717/289/61
f 717/289/61 720/577/152 718/575/150
f 720/577/152 721/578/153 718/575/150
f 722/579/61 720/577/152 717/289/61
f 718/575/150 721/578/153 723/580/154
f 724/288/155 722/579/61 717/289/61
f 721/578/153 725/581/156 723/580/154
f 725/581/156 722/579/61 724/288/155
f 723/580/154 725/581/156 724/288/155
f 724/288/155 726/582/157 723/580/154
f 726/582/157 727/583/158 723/580/154
f 728/584/159 726/582/157 724/288/155
f 723/580/154 727/583/158 729/585/160
f 727/583/158 730/586/160 729/585/160
f 731/287/161 728/584/159 724/288/155
f 729/585/160 730/586/160 732/587/162
f 733/588/163 728/584/159 731/287/161
f 730/586/160 734/589/164 732/587/162
f 734/589/164 733/588/163 735/590/165
f 735/590/165 733/588/163 731/287/161
f 732/587/162 734/589/164 735/590/165
f 731/287/161 736/591/143 735/590/165
f 736/591/143 737/592/141 735/590/165
f 735/590/165 737/592/141 732/587/162
f 738/593/144 736/591/143 731/287/161
f 737/592/141 739/594/142 732/587/162
f 740/286/144 738/593/144 731/287/161
f 732/587/162 739/594/142 741/595/146
f 742/596/138 738/593/144 740/286/144
f 739/594/142 743/597/146 741/595/146
f 744/598/138 742/596/138 740/286/144
f 741/595/146 743/597/146 744/598/138
f 743/597/146 742/596/138 744/598/138
f 747/599/55 746/600/56 745/601/55
f 746/600/56 748/602/56 745/601/55
f 746/600/56 749/603/166 748/602/56
f 749/603/166 750/604/166 748/602/56
f 753/605/38 752/606/38 751/607/22
f 754/608/22 753/605/38 751/607/22
f 754/608/22 751/607/22 755/609/37
f 756/610/37 754/608/22 755/609/37
f 759/611/7 758/612/7 757/613/7
f 760/614/7 759/611/7 757/613/7
f 763/615/8 762/616/8 761/617/8
f 764/618/8 763/615/8 761/617/8
f 767/619/55 766/620/56 765/621/55
f 766/620/56 768/622/56 765/621/55
f 766/620/56 769/623/166 768/622/56
f 769/623/166 770/624/166 768/622/56
f 773/625/20 772/626/20 771/627/167
f 774/628/167 773/625/20 771/627/167
f 774/628/167 771/627/167 775/629/87
f 776/630/87 774/628/167 775/629/87
f 779/631/7 778/632/7 777/633/7
f 780/634/7 779/631/7 777/633/7
f 783/635/8 782/636/8 781/637/8
f 784/638/8 783/635/8 781/637/8
f 787/639/38 786/640/38 785/641/22
f 788/642/22 787/639/38 785/641/22
f 788/642/22 785/641/22 789/643/37
f 790/644/37 788/642/22 789/643/37
f 793/645/7 792/646/7 791/647/7
f 794/648/7 793/645/7 791/647/7
f 797/649/60 796/650/168 795/651/60
f 796/650/168 798/652/168 795/651/60
f 796/650/168 799/653/85 798/652/168
f 799/653/85 800/654/85 798/652/168
f 803/655/8 802/656/8 801/657/8
f 804/658/8 803/655/8 801/657/8
f 807/659/7 806/660/7 805/661/7
f 808/662/7 807/659/7 805/661/7
f 811/663/13 810/664/13 809/665/13
f 810/664/13 812/666/13 809/665/13
f 810/664/13 813/667/13 812/666/13
f 813/667/13 814/668/13 812/666/13
f 817/669/38 816/670/38 815/671/22
f 818/672/22 817/669/38 815/671/22
f 818/672/22 815/671/22 819/673/37
f 820/674/37 818/672/22 819/673/37
f 823/675/8 822/676/8 821/677/8
f 824/678/8 823/675/8 821/677/8
f 827/679/137 826/680/137 825/681/138
f 828/682/138 827/679/137 825/681/138
f 829/683/140 828/682/138 825/681/138
f 830/684/140 829/683/140 825/681/138
f 833/685/169 832/686/137 831/687/170
f 834/688/171 833/685/169 831/687/170
f 835/689/172 834/688/171 831/687/170
f 836/690/139 835/689/172 831/687/170
f 839/691/58 838/692/173 837/693/174
f 838/692/173 840/694/175 837/693/174
f 840/694/175 838/692/173 841/695/176
f 842/696/139 840/694/175 841/695/176
f 845/697/138 844/698/137 843/699/137
f 846/700/138 845/697/138 843/699/137
f 845/697/138 846/700/138 847/701/140
f 848/702/140 845/697/138 847/701/140
f 851/703/39 850/704/177 849/705/39
f 850/704/177 852/706/177 849/705/39
f 850/704/177 853/707/45 852/706/177
f 853/707/45 854/708/45 852/706/177
f 857/709/58 856/710/58 855/711/178
f 858/712/178 857/709/58 855/711/178
f 858/712/178 855/711/178 859/713/129
f 860/714/129 858/712/178 859/713/129
f 863/715/7 862/716/7 861/717/7
f 864/718/7 863/715/7 861/717/7
f 867/719/8 866/720/8 865/721/8
f 868/722/8 867/719/8 865/721/8
f 871/723/60 870/724/60 869/725/168
f 872/726/168 871/723/60 869/725/168
f 873/727/85 872/726/168 869/725/168
f 874/728/85 873/727/85 869/725/168
f 877/729/179 876/730/180 875/731/180
f 878/732/179 877/729/179 875/731/180
f 875/731/180 876/730/180 879/733/181
f 880/734/182 877/729/179 878/732/179
f 876/730/180 881/735/181 879/733/181
f 882/736/182 880/734/182 878/732/179
f 879/733/181 881/735/181 882/736/182
f 881/735/181 880/734/182 882/736/182
f 885/737/13 884/738/13 883/277/13
f 886/739/13 885/737/13 883/277/13
f 887/740/13 885/737/13 886/739/13
f 883/277/13 884/738/13 888/278/183
f 889/741/184 887/740/13 886/739/13
f 884/738/13 890/742/13 888/278/183
f 890/742/13 887/740/13 889/741/184
f 888/278/183 890/742/13 889/741/184
f 889/741/184 891/743/185 888/278/183
f 891/743/185 892/744/186 888/278/183
f 893/745/187 891/743/185 889/741/184
f 888/278/183 892/744/186 894/279/188
f 895/746/189 893/745/187 889/741/184
f 892/744/186 896/747/190 894/279/188
f 896/747/190 893/745/187 895/746/189
f 894/279/188 896/747/190 895/746/189
f 895/746/189 897/748/168 894/279/188
f 897/748/168 898/749/191 894/279/188
f 899/750/192 897/748/168 895/746/189
f 900/751/192 899/750/192 895/746/189
f 901/752/193 899/750/192 900/751/192
f 902/753/193 901/752/193 900/751/192
f 903/754/168 901/752/193 902/753/193
f 894/279/188 898/749/191 904/280/194
f 905/755/189 903/754/168 902/753/193
f 898/749/191 906/756/195 904/280/194
f 906/756/195 903/754/168 905/755/189
f 904/280/194 906/756/195 905/755/189
f 905/755/189 907/757/196 904/280/194
f 907/757/196 908/758/197 904/280/194
f 909/759/198 907/757/196 905/755/189
f 904/280/194 908/758/197 910/281/199
f 911/760/200 909/759/198 905/755/189
f 908/758/197 912/761/201 910/281/199
f 912/761/201 909/759/198 911/760/200
f 910/281/199 912/761/201 911/760/200
f 911/760/200 913/762/13 910/281/199
f 913/762/13 914/763/13 910/281/199
f 915/764/13 913/762/13 911/760/200
f 910/281/199 914/763/13 916/282/13
f 917/765/13 915/764/13 911/760/200
f 914/763/13 918/766/13 916/282/13
f 918/766/13 915/764/13 917/765/13
f 916/282/13 918/766/13 917/765/13
f 921/357/13 920/359/13 919/767/13
f 922/768/13 921/357/13 919/767/13
f 919/767/13 920/359/13 923/769/13
f 924/361/13 921/357/13 922/768/13
f 920/359/13 925/363/13 923/769/13
f 926/770/13 924/361/13 922/768/13
f 923/769/13 925/363/13 926/770/13
f 925/363/13 924/361/13 926/770/13
f 929/365/202 928/367/203 927/771/203
f 930/772/186 929/365/202 927/771/203
f 927/771/203 928/367/203 931/773/191
f 932/369/185 929/365/202 930/772/186
f 928/367/203 933/371/204 931/773/191
f 934/774/205 932/369/185 930/772/186
f 931/773/191 933/371/204 934/774/205
f 933/371/204 932/369/185 934/774/205
f 937/437/206 936/439/207 935/775/207
f 938/776/206 937/437/206 935/775/207
f 935/775/207 936/439/207 939/777/208
f 940/441/209 937/437/206 938/776/206
f 936/439/207 941/443/208 939/777/208
f 942/778/209 940/441/209 938/776/206
f 939/777/208 941/443/208 942/778/209
f 941/443/208 940/441/209 942/778/209
f 945/445/210 944/447/211 943/779/212
f 946/780/213 945/445/210 943/779/212
f 943/779/212 944/447/211 947/781/214
f 948/449/208 945/445/210 946/780/213
f 944/447/211 949/451/215 947/781/214
f 950/782/216 948/449/208 946/780/213
f 947/781/214 949/451/215 950/782/216
f 949/451/215 948/449/208 950/782/216
