mtllib material.mtl
usemtl material_0
v -0.00364000 -0.37363000 0.02700000
v 0.08500000 -0.37500000 0.02541000
v -0.00500000 -0.37500000 0.02541000
v 0.08500000 -0.37368000 0.02700000
v 0.37500000 -0.37500000 0.02551000
v 0.37500000 -0.37368000 0.02710000
v 0.46501000 -0.37500000 0.02551000
v 0.46363000 -0.37363000 0.02710000
v 0.37500000 -0.37500000 0.00011000
v 0.46501000 -0.37500000 0.02551000
v 0.46501000 -0.37500000 0.00011000
v 0.37500000 -0.37500000 0.02551000
v 0.08500000 -0.37500000 0.02541000
v 0.08500000 -0.37500000 0.00000000
v -0.00500000 -0.37500000 0.00000000
v -0.00500000 -0.37500000 0.02541000
v 0.46363000 -0.37363000 0.02710000
v 0.46501000 -0.28500000 0.02551000
v 0.46501000 -0.37500000 0.02551000
v 0.46369000 -0.28500000 0.02710000
v 0.46501000 0.28500000 0.02551000
v 0.46369000 0.28500000 0.02710000
v 0.46501000 0.37501000 0.02551000
v 0.46363000 0.37368000 0.02710000
v 0.46501000 0.28500000 0.00011000
v 0.46501000 0.37501000 0.02551000
v 0.46501000 0.37501000 0.00011000
v 0.46501000 0.28500000 0.02551000
v 0.46501000 -0.28500000 0.02551000
v 0.46501000 -0.28500000 0.00011000
v 0.46501000 -0.37500000 0.00011000
v 0.46501000 -0.37500000 0.02551000
v 0.37500000 0.37501000 0.02551000
v 0.46501000 0.37501000 0.02551000
v 0.46363000 0.37368000 0.02710000
v 0.37500000 0.37365000 0.02710000
v 0.08500000 0.37501000 0.02541000
v 0.08500000 0.37365000 0.02700000
v -0.00500000 0.37501000 0.02541000
v -0.00364000 0.37368000 0.02700000
v 0.08500000 0.37501000 0.00000000
v -0.00500000 0.37501000 0.02541000
v -0.00500000 0.37501000 0.00000000
v 0.08500000 0.37501000 0.02541000
v 0.37500000 0.37501000 0.02551000
v 0.37500000 0.37501000 0.00011000
v 0.46501000 0.37501000 0.00011000
v 0.46501000 0.37501000 0.02551000
v -0.00500000 0.28501000 0.02541000
v -0.00500000 0.37501000 0.02541000
v -0.00364000 0.37368000 0.02700000
v -0.00366000 0.28501000 0.02700000
v -0.00500000 -0.28500000 0.02541000
v -0.00366000 -0.28499000 0.02700000
v -0.00500000 -0.37500000 0.02541000
v -0.00364000 -0.37363000 0.02700000
v -0.00500000 0.37501000 0.00000000
v -0.00500000 0.37501000 0.02541000
v -0.00500000 0.28501000 0.02541000
v -0.00500000 0.28501000 0.00000000
v -0.00500000 -0.28500000 0.00000000
v -0.00500000 -0.28500000 0.02541000
v -0.00500000 -0.37500000 0.02541000
v -0.00500000 -0.37500000 0.00000000
v 0.05081000 0.31920000 0.02528000
v 0.04916000 0.28500000 0.02700000
v 0.04918000 0.32083000 0.02700000
v 0.05082000 0.28501000 0.02527000
v 0.04916000 -0.28499000 0.02700000
v 0.05082000 -0.28500000 0.02527000
v 0.04918000 -0.32081000 0.02700000
v 0.05081000 -0.31919000 0.02528000
v 0.05230000 0.28501000 0.01301000
v 0.05081000 0.31920000 0.02528000
v 0.05230000 0.31771000 0.01301000
v 0.05082000 0.28501000 0.02527000
v 0.05082000 -0.28500000 0.02527000
v 0.05230000 -0.28500000 0.01301000
v 0.05230000 -0.31770000 0.01301000
v 0.05081000 -0.31919000 0.02528000
v 0.08500000 0.31919000 0.02527000
v 0.05081000 0.31920000 0.02528000
v 0.04918000 0.32083000 0.02700000
v 0.08501000 0.32085000 0.02700000
v 0.37500000 0.31919000 0.02537000
v 0.37500000 0.32085000 0.02710000
v 0.40920000 0.31920000 0.02538000
v 0.41089000 0.32083000 0.02710000
v 0.05230000 0.31771000 0.01301000
v 0.05081000 0.31920000 0.02528000
v 0.08500000 0.31919000 0.02527000
v 0.08500000 0.31771000 0.01301000
v 0.37500000 0.31771000 0.01311000
v 0.37500000 0.31919000 0.02537000
v 0.40920000 0.31920000 0.02538000
v 0.40771000 0.31771000 0.01311000
v 0.40919000 0.28500000 0.02537000
v 0.40920000 0.31920000 0.02538000
v 0.41089000 0.32083000 0.02710000
v 0.41080000 0.28500000 0.02710000
v 0.40919000 -0.28500000 0.02537000
v 0.41080000 -0.28499000 0.02710000
v 0.40920000 -0.31919000 0.02538000
v 0.41089000 -0.32081000 0.02710000
v 0.40771000 0.31771000 0.01311000
v 0.40920000 0.31920000 0.02538000
v 0.40919000 0.28500000 0.02537000
v 0.40771000 0.28500000 0.01311000
v 0.40771000 -0.28500000 0.01311000
v 0.40919000 -0.28500000 0.02537000
v 0.40920000 -0.31919000 0.02538000
v 0.40771000 -0.31770000 0.01311000
v 0.37500000 -0.31918000 0.02537000
v 0.40920000 -0.31919000 0.02538000
v 0.41089000 -0.32081000 0.02710000
v 0.37500000 -0.32085000 0.02710000
v 0.08500000 -0.31918000 0.02527000
v 0.08501000 -0.32085000 0.02700000
v 0.05081000 -0.31919000 0.02528000
v 0.04918000 -0.32081000 0.02700000
v 0.40771000 -0.31770000 0.01311000
v 0.40920000 -0.31919000 0.02538000
v 0.37500000 -0.31918000 0.02537000
v 0.37500000 -0.31770000 0.01311000
v 0.08500000 -0.31770000 0.01301000
v 0.08500000 -0.31918000 0.02527000
v 0.05081000 -0.31919000 0.02528000
v 0.05230000 -0.31770000 0.01301000
v 0.40771000 0.28500000 0.01311000
v 0.37500000 0.31771000 0.01311000
v 0.40771000 0.31771000 0.01311000
v 0.37500000 0.28500000 0.01311000
v 0.08500000 0.31771000 0.01301000
v 0.37500000 -0.28500000 0.01311000
v 0.40771000 -0.28500000 0.01311000
v 0.40771000 -0.31770000 0.01311000
v 0.37500000 -0.31770000 0.01311000
v 0.08500000 0.28501000 0.01301000
v 0.05230000 0.31771000 0.01301000
v 0.05230000 0.28501000 0.01301000
v 0.05230000 -0.28500000 0.01301000
v 0.08500000 -0.28500000 0.01301000
v 0.08500000 -0.31770000 0.01301000
v 0.05230000 -0.31770000 0.01301000
v 0.37500000 0.37501000 0.00011000
v 0.46501000 0.28500000 0.00011000
v 0.46501000 0.37501000 0.00011000
v 0.37500000 0.28500000 0.00011000
v 0.46501000 -0.28500000 0.00011000
v 0.08500000 0.28501000 0.00000000
v 0.08500000 0.37501000 0.00000000
v -0.00500000 0.37501000 0.00000000
v -0.00500000 0.28501000 0.00000000
v 0.37500000 -0.28500000 0.00011000
v 0.46501000 -0.37500000 0.00011000
v 0.37500000 -0.37500000 0.00011000
v 0.08500000 -0.37500000 0.00000000
v 0.08500000 -0.28500000 0.00000000
v -0.00500000 -0.28500000 0.00000000
v -0.00500000 -0.37500000 0.00000000
v 0.04918000 0.32083000 0.02700000
v 0.04916000 0.28500000 0.02700000
v -0.00366000 0.28501000 0.02700000
v -0.00364000 0.37368000 0.02700000
v -0.00366000 -0.28499000 0.02700000
v 0.08501000 0.32085000 0.02700000
v 0.04916000 -0.28499000 0.02700000
v 0.08500000 0.37365000 0.02700000
v -0.00364000 -0.37363000 0.02700000
v 0.37500000 0.32085000 0.02710000
v 0.04918000 -0.32081000 0.02700000
v 0.37500000 0.37365000 0.02710000
v 0.08500000 -0.37368000 0.02700000
v 0.41089000 0.32083000 0.02710000
v 0.08501000 -0.32085000 0.02700000
v 0.46363000 0.37368000 0.02710000
v 0.37500000 -0.37368000 0.02710000
v 0.41080000 0.28500000 0.02710000
v 0.37500000 -0.32085000 0.02710000
v 0.46369000 0.28500000 0.02710000
v 0.46363000 -0.37363000 0.02710000
v 0.41080000 -0.28499000 0.02710000
v 0.41089000 -0.32081000 0.02710000
v 0.46369000 -0.28500000 0.02710000
vn -0.00046112 -0.77233370 0.63521680
vn -0.00027562 -0.77232160 0.63523170
vn 0.00000000 -0.75991230 0.65002560
vn -0.00027645 -0.77232160 0.63523160
vn -0.00021975 -0.77231790 0.63523620
vn -0.00021979 -0.77236750 0.63517590
vn 0.00000000 -0.77229300 0.63526650
vn 0.00045304 -0.75982350 0.65012930
vn 0.00000000 -1.00000000 0.00000000
vn 0.00000000 -1.00000000 0.00000000
vn 0.00000000 -1.00000000 0.00000000
vn 0.00000000 -1.00000000 0.00000000
vn 0.00000000 -1.00000000 0.00000956
vn 0.00000000 -1.00000000 0.00001012
vn 0.00000000 -1.00000000 0.00000000
vn 0.00000000 -1.00000000 0.00000000
vn 0.77326910 -0.00053274 0.63407790
vn 0.77324660 -0.00007076 0.63410530
vn 0.75891230 0.00000000 0.65119280
vn 0.77324670 -0.00007185 0.63410520
vn 0.77324330 0.00000000 0.63410950
vn 0.77331020 0.00000000 0.63402800
vn 0.77328690 0.00000000 0.63405630
vn 0.75875870 0.00052238 0.65137160
vn 1.00000000 0.00000000 0.00000000
vn 1.00000000 0.00000000 0.00000000
vn 1.00000000 0.00000000 0.00000000
vn 1.00000000 0.00000000 0.00000000
vn 1.00000000 0.00000000 0.00000000
vn 1.00000000 0.00000000 0.00000000
vn 1.00000000 0.00000000 0.00000000
vn 1.00000000 0.00000000 0.00000000
vn 0.00000000 0.76908340 0.63914840
vn 0.00000000 0.76908340 0.63914840
vn 0.00000000 0.76908340 0.63914840
vn -0.00022109 0.76300350 0.64639440
vn -0.00022213 0.76298610 0.64641500
vn -0.00022342 0.76317410 0.64619300
vn 0.00000000 0.76309850 0.64628230
vn 0.00022350 0.76927080 0.63892280
vn 0.00000000 1.00000000 0.00000000
vn 0.00000000 1.00000000 0.00000000
vn 0.00000000 1.00000000 0.00000000
vn 0.00000000 1.00000000 0.00000000
vn 0.00000000 1.00000000 0.00000000
vn 0.00000000 1.00000000 0.00000000
vn 0.00000000 1.00000000 0.00000000
vn 0.00000000 1.00000000 0.00000000
vn -0.76396720 0.00000000 0.64525510
vn -0.76396710 0.00000000 0.64525510
vn -0.76396710 0.00000000 0.64525510
vn -0.76830970 0.00016536 0.64007830
vn -0.76838100 0.00000016 0.63999270
vn -0.76832280 0.00000000 0.64006260
vn -0.76832280 0.00000000 0.64006260
vn -0.76384420 -0.00016439 0.64540060
vn -1.00000000 0.00000000 0.00000000
vn -1.00000000 0.00000000 0.00000000
vn -1.00000000 0.00000000 0.00000000
vn -1.00000000 0.00000000 0.00000000
vn -1.00000000 0.00000021 0.00000000
vn -1.00000000 0.00000021 0.00000000
vn -1.00000000 0.00000000 0.00000000
vn -1.00000000 0.00000000 0.00000000
vn 0.72516040 -0.00043673 0.68857990
vn 0.72260750 -0.00017410 0.69125850
vn 0.72524610 -0.00044558 0.68848960
vn 0.72248050 -0.00016106 0.69139130
vn 0.72240560 0.00044378 0.69146950
vn 0.72537010 0.00016266 0.68835910
vn 0.72537020 0.00016266 0.68835900
vn 0.72537020 0.00016266 0.68835900
vn 0.99271020 0.00000568 0.12052570
vn 0.99270900 0.00000179 0.12053510
vn 0.99270850 0.00000000 0.12053950
vn 0.99271070 0.00000722 0.12052190
vn 0.99271090 -0.00000022 0.12052000
vn 0.99270790 0.00000043 0.12054430
vn 0.99270800 0.00000000 0.12054410
vn 0.99270740 0.00000000 0.12054820
vn 0.00016675 -0.72556560 0.68815300
vn 0.00016675 -0.72556560 0.68815300
vn 0.00016675 -0.72556560 0.68815300
vn 0.00048786 -0.72228990 0.69159020
vn -0.00023877 -0.72232230 0.69155650
vn -0.00018343 -0.72249150 0.69137980
vn -0.00047340 -0.72541990 0.68830650
vn -0.00048309 -0.72551760 0.68820350
vn 0.00000180 -0.99270900 0.12053520
vn 0.00000180 -0.99270900 0.12053530
vn 0.00000180 -0.99270900 0.12053520
vn 0.00000000 -0.99270730 0.12054970
vn -0.00004216 -0.99270790 0.12054520
vn -0.00004197 -0.99271090 0.12051980
vn 0.00000000 -0.99270560 0.12056260
vn 0.00000000 -0.99270430 0.12057480
vn -0.71405380 -0.00017776 0.70009070
vn -0.71405380 -0.00017776 0.70009070
vn -0.71405380 -0.00017776 0.70009070
vn -0.73398510 0.00176162 0.67916330
vn -0.73389580 0.00000000 0.67926210
vn -0.73381150 0.00017218 0.67935310
vn -0.73381150 0.00017218 0.67935310
vn -0.71506760 -0.00171755 0.69905320
vn -0.99271000 -0.00000722 0.12052750
vn -0.99271000 -0.00000722 0.12052750
vn -0.99271000 -0.00000722 0.12052750
vn -0.99270860 0.00000000 0.12053860
vn -0.99270830 0.00000000 0.12054140
vn -0.99270870 0.00000000 0.12053810
vn -0.99271010 0.00000178 0.12052690
vn -0.99271060 0.00000000 0.12052270
vn -0.00017913 0.72695740 0.68668260
vn -0.00017913 0.72695730 0.68668250
vn -0.00017913 0.72695740 0.68668260
vn -0.00076903 0.72092630 0.69301140
vn -0.00023745 0.72088230 0.69305740
vn 0.00016572 0.72083160 0.69311020
vn 0.00016572 0.72083160 0.69311020
vn 0.00077183 0.72682400 0.68682330
vn -0.00000361 0.99271000 0.12052730
vn -0.00000361 0.99271000 0.12052730
vn -0.00000361 0.99271000 0.12052730
vn 0.00000000 0.99271090 0.12051990
vn -0.00004109 0.99271090 0.12051990
vn -0.00004085 0.99270780 0.12054520
vn -0.00000089 0.99270830 0.12054170
vn 0.00000000 0.99270760 0.12054730
vn 0.00000000 0.00000000 1.00000000
vn 0.00000000 0.00000000 1.00000000
vn 0.00000000 0.00000000 1.00000000
vn 0.00000000 0.00000000 1.00000000
vn 0.00000000 0.00000000 1.00000000
vn 0.00000000 0.00000000 1.00000000
vn 0.00000000 0.00000000 1.00000000
vn 0.00000000 0.00000000 1.00000000
vn 0.00000000 0.00000000 1.00000000
vn 0.00000000 0.00000000 1.00000000
vn 0.00000000 0.00000000 1.00000000
vn 0.00000000 0.00000000 1.00000000
vn 0.00000000 0.00000000 1.00000000
vn -0.00034476 0.00000000 1.00000000
vn -0.00034498 0.00000000 1.00000000
vn 0.00000000 0.00000000 1.00000000
vn 0.00000000 0.00000000 -1.00000000
vn 0.00000000 0.00000000 -1.00000000
vn 0.00000000 0.00000000 -1.00000000
vn 0.00000000 0.00000000 -1.00000000
vn 0.00000000 0.00000000 -1.00000000
vn 0.00000000 0.00000000 -1.00000000
vn 0.00000000 0.00000000 -1.00000000
vn 0.00000000 0.00000000 -1.00000000
vn 0.00000000 0.00000000 -1.00000000
vn 0.00000000 0.00000000 -1.00000000
vn 0.00000000 0.00000000 -1.00000000
vn 0.00000000 0.00000000 -1.00000000
vn 0.00034610 0.00000000 -1.00000000
vn 0.00034540 0.00000000 -1.00000000
vn 0.00000000 0.00000000 -1.00000000
vn 0.00000000 0.00000000 -1.00000000
vn -0.00000199 0.00000000 1.00000000
vn 0.00000000 0.00000000 1.00000000
vn 0.00000014 0.00000000 1.00000000
vn -0.00000059 0.00000000 1.00000000
vn -0.00000528 0.00000000 1.00000000
vn -0.00027832 0.00000000 1.00000000
vn -0.00000602 0.00000000 1.00000000
vn -0.00026481 0.00000000 1.00000000
vn 0.00000197 0.00000000 1.00000000
vn -0.00030810 0.00000000 1.00000000
vn -0.00000349 0.00000000 1.00000000
vn -0.00027987 0.00000000 1.00000000
vn -0.00027799 0.00000000 1.00000000
vn 0.00000423 0.00000000 1.00000000
vn -0.00030768 0.00000000 1.00000000
vn 0.00000090 0.00000000 1.00000000
vn -0.00026430 0.00000000 1.00000000
vn 0.00000601 0.00000000 1.00000000
vn -0.00027748 0.00000000 1.00000000
vn 0.00000528 0.00000000 1.00000000
vn 0.00000017 0.00000000 1.00000000
vn 0.00000036 0.00000000 1.00000000
vn 0.00000084 0.00000000 1.00000000
vn 0.00000000 0.00000000 1.00000000
vt 1.90942700 2.81552400
vt 1.96611000 2.81297700
vt 1.90856300 2.81297700
vt 1.96611000 2.81552400
vt 2.15153800 2.81313600
vt 2.15153800 2.81568300
vt 2.20908500 2.81313600
vt 2.20820800 2.81568300
vt 2.15153800 2.77271200
vt 2.20908500 2.81313600
vt 2.20908500 2.77271200
vt 2.15153800 2.81313600
vt 1.96611000 2.81297700
vt 1.96611000 2.77255200
vt 1.90856300 2.77255200
vt 1.90856300 2.81297700
vt 2.18380200 1.09109600
vt 2.18641800 1.14623300
vt 2.18641800 1.09024400
vt 2.18380200 1.14623300
vt 2.18641800 1.50082500
vt 2.18380200 1.50082500
vt 2.18641800 1.55681400
vt 2.18380200 1.55598700
vt 2.22796200 1.50082500
vt 2.18641800 1.55681400
vt 2.22796200 1.55681400
vt 2.18641800 1.50082500
vt 2.18641800 1.14623300
vt 2.22796200 1.14623300
vt 2.22796200 1.09024400
vt 2.18641800 1.09024400
vt 3.73079100 2.81314200
vt 3.67323000 2.81314200
vt 3.67410800 2.81568900
vt 3.73079100 2.81568900
vt 3.91626900 2.81298200
vt 3.91626800 2.81552900
vt 3.97383000 2.81298200
vt 3.97296500 2.81552900
vt 3.91626900 2.77254700
vt 3.97383000 2.81298200
vt 3.97383000 2.77254700
vt 3.91626900 2.81298200
vt 3.73079100 2.81314200
vt 3.73079100 2.77270600
vt 3.67323000 2.77270600
vt 3.67323000 2.81314200
vt 1.93123200 1.50085700
vt 1.93123200 1.55685500
vt 1.93385000 1.55602800
vt 1.93385000 1.50085600
vt 1.93123200 1.14620200
vt 1.93385000 1.14620200
vt 1.93123200 1.09020400
vt 1.93385000 1.09105500
vt 1.88968000 1.55685500
vt 1.93123200 1.55685500
vt 1.93123200 1.50085700
vt 1.88968000 1.50085700
vt 1.88968000 1.14620200
vt 1.93123200 1.14620200
vt 1.93123200 1.09020400
vt 1.88968000 1.09020400
vt 4.25272500 1.32461300
vt 4.24880700 1.30874400
vt 4.24880700 1.32537200
vt 4.25274700 1.30874500
vt 4.24880700 1.04419400
vt 4.25274700 1.04419300
vt 4.24880700 1.02756900
vt 4.25272500 1.02832500
vt 4.28060500 1.30874500
vt 4.25272500 1.32461300
vt 4.28060500 1.32392100
vt 4.25274700 1.30874500
vt 4.25274700 1.04419300
vt 4.28060500 1.04419300
vt 4.28060500 1.02901700
vt 4.25272500 1.02832500
vt 1.70184500 3.10092100
vt 1.68702500 3.10094400
vt 1.68631500 3.10513900
vt 1.70184500 3.10513900
vt 1.82754400 3.10116400
vt 1.82754400 3.10538200
vt 1.84236400 3.10118800
vt 1.84309700 3.10538200
vt 1.68767100 3.07108700
vt 1.68702500 3.10094400
vt 1.70184500 3.10092100
vt 1.70184500 3.07108700
vt 1.82754400 3.07133100
vt 1.82754400 3.10116400
vt 1.84236400 3.10118800
vt 1.84171800 3.07133100
vt 4.57077100 1.30860300
vt 4.57079300 1.32445400
vt 4.57470400 1.32521200
vt 4.57470400 1.30860300
vt 4.57077100 1.04433500
vt 4.57470400 1.04433500
vt 4.57079300 1.02848400
vt 4.57470400 1.02772900
vt 4.54294400 1.32376300
vt 4.57079300 1.32445400
vt 4.57077100 1.30860300
vt 4.54294400 1.30860300
vt 4.54294400 1.04433500
vt 4.57077100 1.04433500
vt 4.57079300 1.02848400
vt 4.54294400 1.02917400
vt 2.87832600 3.10116700
vt 2.86350300 3.10119100
vt 2.86277000 3.10538600
vt 2.87832600 3.10538600
vt 3.00405000 3.10092400
vt 3.00405000 3.10514300
vt 3.01887300 3.10094700
vt 3.01958300 3.10514300
vt 2.86415000 3.07132800
vt 2.86350300 3.10119100
vt 2.87832600 3.10116700
vt 2.87832600 3.07132800
vt 3.00405000 3.07108400
vt 3.00405000 3.10092400
vt 3.01887300 3.10094700
vt 3.01822600 3.07108400
vt 0.75423400 4.12862000
vt 0.72368730 4.16362500
vt 0.75423400 4.16362500
vt 0.72368730 4.12862000
vt 0.45278300 4.16362500
vt 0.72368730 3.51843900
vt 0.75423400 3.51843900
vt 0.75423400 3.48343400
vt 0.72368730 3.48343400
vt 0.45278300 4.12862000
vt 0.42223610 4.16362500
vt 0.42223610 4.12862000
vt 0.42223630 3.51843900
vt 0.45278320 3.51843900
vt 0.45278320 3.48343400
vt 0.42223630 3.48343400
vt 0.73360310 1.68907600
vt 0.64127540 1.60134500
vt 0.64127540 1.68907600
vt 0.73360310 1.60134500
vt 0.64127540 1.04571300
vt 1.03110300 1.60134500
vt 1.03110300 1.68907600
vt 1.12343000 1.68907600
vt 1.12343000 1.60134500
vt 0.73360310 1.04571300
vt 0.64127540 0.95798220
vt 0.73360310 0.95798220
vt 1.03110300 0.95798230
vt 1.03110300 1.04571400
vt 1.12343100 1.04571400
vt 1.12343100 0.95798230
vt 3.04958400 1.63594600
vt 3.04956100 1.60105900
vt 2.99531900 1.60106000
vt 2.99533800 1.68740400
vt 2.99531900 1.04601200
vt 3.08637700 1.63596900
vt 3.04956100 1.04601300
vt 3.08637600 1.68738000
vt 2.99533800 0.95970550
vt 3.38418900 1.63596900
vt 3.04958400 1.01113300
vt 3.38419000 1.68738000
vt 3.08637600 0.95965420
vt 3.42103800 1.63594600
vt 3.08637700 1.01109600
vt 3.47520700 1.68740400
vt 3.38419000 0.95965410
vt 3.42095000 1.60105900
vt 3.38418900 1.01109600
vt 3.47526900 1.60105900
vt 3.47520700 0.95970540
vt 3.42095000 1.04601300
vt 3.42103800 1.01113300
vt 3.47526900 1.04601200
f 3/3/3 2/2/2 1/1/1
f 2/2/2 4/4/4 1/1/1
f 4/4/4 2/2/2 5/5/5
f 6/6/6 4/4/4 5/5/5
f 5/5/5 7/7/7 6/6/6
f 7/7/7 8/8/8 6/6/6
f 11/11/11 10/10/10 9/9/9
f 10/10/10 12/12/12 9/9/9
f 9/9/9 12/12/12 13/13/13
f 14/14/14 9/9/9 13/13/13
f 14/14/14 13/13/13 15/15/15
f 13/13/13 16/16/16 15/15/15
f 19/19/19 18/18/18 17/17/17
f 18/18/18 20/20/20 17/17/17
f 20/20/20 18/18/18 21/21/21
f 22/22/22 20/20/20 21/21/21
f 21/21/21 23/23/23 22/22/22
f 23/23/23 24/24/24 22/22/22
f 27/27/27 26/26/26 25/25/25
f 26/26/26 28/28/28 25/25/25
f 25/25/25 28/28/28 29/29/29
f 30/30/30 25/25/25 29/29/29
f 30/30/30 29/29/29 31/31/31
f 29/29/29 32/32/32 31/31/31
f 35/35/35 34/34/34 33/33/33
f 36/36/36 35/35/35 33/33/33
f 36/36/36 33/33/33 37/37/37
f 38/38/38 36/36/36 37/37/37
f 38/38/38 37/37/37 39/39/39
f 40/40/40 38/38/38 39/39/39
f 43/43/43 42/42/42 41/41/41
f 42/42/42 44/44/44 41/41/41
f 41/41/41 44/44/44 45/45/45
f 46/46/46 41/41/41 45/45/45
f 46/46/46 45/45/45 47/47/47
f 45/45/45 48/48/48 47/47/47
f 51/51/51 50/50/50 49/49/49
f 52/52/52 51/51/51 49/49/49
f 52/52/52 49/49/49 53/53/53
f 54/54/54 52/52/52 53/53/53
f 53/53/53 55/55/55 54/54/54
f 55/55/55 56/56/56 54/54/54
f 59/59/59 58/58/58 57/57/57
f 60/60/60 59/59/59 57/57/57
f 60/60/60 61/61/61 59/59/59
f 61/61/61 62/62/62 59/59/59
f 63/63/63 62/62/62 61/61/61
f 64/64/64 63/63/63 61/61/61
f 67/67/67 66/66/66 65/65/65
f 66/66/66 68/68/68 65/65/65
f 68/68/68 66/66/66 69/69/69
f 70/70/70 68/68/68 69/69/69
f 69/69/69 71/71/71 70/70/70
f 71/71/71 72/72/72 70/70/70
f 75/75/75 74/74/74 73/73/73
f 74/74/74 76/76/76 73/73/73
f 73/73/73 76/76/76 77/77/77
f 78/78/78 73/73/73 77/77/77
f 78/78/78 77/77/77 79/79/79
f 77/77/77 80/80/80 79/79/79
f 83/83/83 82/82/82 81/81/81
f 84/84/84 83/83/83 81/81/81
f 84/84/84 81/81/81 85/85/85
f 86/86/86 84/84/84 85/85/85
f 86/86/86 85/85/85 87/87/87
f 88/88/88 86/86/86 87/87/87
f 91/91/91 90/90/90 89/89/89
f 92/92/92 91/91/91 89/89/89
f 92/92/92 93/93/93 91/91/91
f 93/93/93 94/94/94 91/91/91
f 95/95/95 94/94/94 93/93/93
f 96/96/96 95/95/95 93/93/93
f 99/99/99 98/98/98 97/97/97
f 100/100/100 99/99/99 97/97/97
f 100/100/100 97/97/97 101/101/101
f 102/102/102 100/100/100 101/101/101
f 102/102/102 101/101/101 103/103/103
f 104/104/104 102/102/102 103/103/103
f 107/107/107 106/106/106 105/105/105
f 108/108/108 107/107/107 105/105/105
f 107/107/107 108/108/108 109/109/109
f 110/110/110 107/107/107 109/109/109
f 111/111/111 110/110/110 109/109/109
f 112/112/112 111/111/111 109/109/109
f 115/115/115 114/114/114 113/113/113
f 116/116/116 115/115/115 113/113/113
f 116/116/116 113/113/113 117/117/117
f 118/118/118 116/116/116 117/117/117
f 118/118/118 117/117/117 119/119/119
f 120/120/120 118/118/118 119/119/119
f 123/123/123 122/122/122 121/121/121
f 124/124/124 123/123/123 121/121/121
f 124/124/124 125/125/125 123/123/123
f 125/125/125 126/126/126 123/123/123
f 127/127/127 126/126/126 125/125/125
f 128/128/128 127/127/127 125/125/125
f 131/131/131 130/130/130 129/129/129
f 130/130/130 132/132/132 129/129/129
f 132/132/132 130/130/130 133/133/133
f 129/129/129 132/132/132 134/134/134
f 135/135/135 129/129/129 134/134/134
f 135/135/135 134/134/134 136/136/136
f 134/134/134 137/137/137 136/136/136
f 138/138/138 132/132/132 133/133/133
f 132/132/132 138/138/138 134/134/134
f 133/133/133 139/139/139 138/138/138
f 139/139/139 140/140/140 138/138/138
f 138/138/138 140/140/140 141/141/141
f 137/137/137 134/134/134 142/142/142
f 138/138/138 142/142/142 134/134/134
f 142/142/142 138/138/138 141/141/141
f 143/143/143 137/137/137 142/142/142
f 142/142/142 141/141/141 143/143/143
f 141/141/141 144/144/144 143/143/143
f 147/147/147 146/146/146 145/145/145
f 146/146/146 148/148/148 145/145/145
f 148/148/148 146/146/146 149/149/149
f 145/145/145 148/148/148 150/150/150
f 151/151/151 145/145/145 150/150/150
f 151/151/151 150/150/150 152/152/152
f 150/150/150 153/153/153 152/152/152
f 154/154/154 148/148/148 149/149/149
f 148/148/148 154/154/154 150/150/150
f 149/149/149 155/155/155 154/154/154
f 155/155/155 156/156/156 154/154/154
f 156/156/156 157/157/157 154/154/154
f 150/150/150 158/158/158 153/153/153
f 154/154/154 158/158/158 150/150/150
f 157/157/157 158/158/158 154/154/154
f 158/158/158 159/159/159 153/153/153
f 158/158/158 157/157/157 159/159/159
f 157/157/157 160/160/160 159/159/159
f 163/163/163 162/162/162 161/161/161
f 164/164/164 163/163/163 161/161/161
f 162/162/162 163/163/163 165/165/165
f 164/164/164 161/161/161 166/166/166
f 167/167/167 162/162/162 165/165/165
f 168/168/168 164/164/164 166/166/166
f 165/165/165 169/169/169 167/167/167
f 168/168/168 166/166/166 170/170/170
f 169/169/169 171/171/171 167/167/167
f 172/172/172 168/168/168 170/170/170
f 169/169/169 173/173/173 171/171/171
f 172/172/172 170/170/170 174/174/174
f 173/173/173 175/175/175 171/171/171
f 176/176/176 172/172/172 174/174/174
f 173/173/173 177/177/177 175/175/175
f 176/176/176 174/174/174 178/178/178
f 177/177/177 179/179/179 175/175/175
f 180/180/180 176/176/176 178/178/178
f 177/177/177 181/181/181 179/179/179
f 180/180/180 178/178/178 182/182/182
f 181/181/181 183/183/183 179/179/179
f 184/184/184 180/180/180 182/182/182
f 181/181/181 184/184/184 183/183/183
f 184/184/184 182/182/182 183/183/183

