mtllib Cabinet_7d7a3425.mtl
v -0.46364 -0.37363 0.027
v -0.375 -0.375 0.02541
v -0.465 -0.375 0.02541
v -0.375 -0.37368 0.027
v -0.08499 -0.375 0.02551
v -0.08499 -0.37368 0.0271
v 0.00501 -0.375 0.02551
v 0.00363 -0.37363 0.0271
v -0.08499 -0.375 0.00011
v 0.00501 -0.375 0.02551
v 0.00501 -0.375 0.00011
v -0.08499 -0.375 0.02551
v -0.375 -0.375 0.02541
v -0.375 -0.375 1E-05
v -0.465 -0.375 1E-05
v -0.465 -0.375 0.02541
v 0.00363 -0.37363 0.0271
v 0.00501 -0.285 0.02551
v 0.00501 -0.375 0.02551
v 0.00369 -0.285 0.0271
v 0.00501 0.285 0.02551
v 0.00369 0.285 0.0271
v 0.00501 0.37501 0.02551
v 0.00363 0.37368 0.0271
v 0.00501 0.285 0.00011
v 0.00501 0.37501 0.02551
v 0.00501 0.37501 0.00011
v 0.00501 0.285 0.02551
v 0.00501 -0.285 0.02551
v 0.00501 -0.285 0.00011
v 0.00501 -0.375 0.00011
v 0.00501 -0.375 0.02551
v -0.08499 0.37501 0.02551
v 0.00501 0.37501 0.02551
v 0.00363 0.37368 0.0271
v -0.08499 0.37365 0.0271
v -0.375 0.37501 0.02541
v -0.375 0.37365 0.027
v -0.465 0.37501 0.02541
v -0.46364 0.37368 0.027
v -0.375 0.37501 1E-05
v -0.465 0.37501 0.02541
v -0.465 0.37501 1E-05
v -0.375 0.37501 0.02541
v -0.08499 0.37501 0.02551
v -0.08499 0.37501 0.00011
v 0.00501 0.37501 0.00011
v 0.00501 0.37501 0.02551
v -0.465 0.28501 0.02541
v -0.465 0.37501 0.02541
v -0.46364 0.37368 0.027
v -0.46366 0.28501 0.027
v -0.465 -0.285 0.02541
v -0.46366 -0.285 0.027
v -0.465 -0.375 0.02541
v -0.46364 -0.37363 0.027
v -0.465 0.37501 1E-05
v -0.465 0.37501 0.02541
v -0.465 0.28501 0.02541
v -0.465 0.28501 1E-05
v -0.465 -0.285 1E-05
v -0.465 -0.285 0.02541
v -0.465 -0.375 0.02541
v -0.465 -0.375 1E-05
v -0.40919 0.3192 0.02528
v -0.41084 0.285 0.027
v -0.41082 0.32083 0.027
v -0.40918 0.28501 0.02527
v -0.41084 -0.28499 0.027
v -0.40918 -0.285 0.02527
v -0.41082 -0.32081 0.027
v -0.40919 -0.31919 0.02528
v -0.4077 0.28501 0.01301
v -0.40919 0.3192 0.02528
v -0.4077 0.31771 0.01301
v -0.40918 0.28501 0.02527
v -0.40918 -0.285 0.02527
v -0.4077 -0.285 0.01301
v -0.4077 -0.3177 0.01301
v -0.40919 -0.31919 0.02528
v -0.375 0.31919 0.02527
v -0.40919 0.3192 0.02528
v -0.41082 0.32083 0.027
v -0.37499 0.32085 0.027
v -0.08499 0.31919 0.02537
v -0.085 0.32085 0.0271
v -0.0508 0.3192 0.02538
v -0.04911 0.32083 0.0271
v -0.4077 0.31771 0.01301
v -0.40919 0.3192 0.02528
v -0.375 0.31919 0.02527
v -0.375 0.31771 0.01301
v -0.08499 0.31771 0.0131
v -0.08499 0.31919 0.02537
v -0.0508 0.3192 0.02538
v -0.05229 0.31771 0.0131
v -0.05081 0.285 0.02537
v -0.0508 0.3192 0.02538
v -0.04911 0.32083 0.0271
v -0.0492 0.285 0.0271
v -0.05081 -0.285 0.02537
v -0.0492 -0.28499 0.0271
v -0.0508 -0.31919 0.02538
v -0.04911 -0.32081 0.0271
v -0.05229 0.31771 0.0131
v -0.0508 0.3192 0.02538
v -0.05081 0.285 0.02537
v -0.05229 0.285 0.0131
v -0.05229 -0.285 0.0131
v -0.05081 -0.285 0.02537
v -0.0508 -0.31919 0.02538
v -0.05229 -0.3177 0.0131
v -0.08499 -0.31918 0.02537
v -0.0508 -0.31919 0.02538
v -0.04911 -0.32081 0.0271
v -0.085 -0.32085 0.0271
v -0.375 -0.31918 0.02527
v -0.37499 -0.32085 0.027
v -0.40919 -0.31919 0.02528
v -0.41082 -0.32081 0.027
v -0.05229 -0.3177 0.0131
v -0.0508 -0.31919 0.02538
v -0.08499 -0.31918 0.02537
v -0.08499 -0.3177 0.0131
v -0.375 -0.3177 0.01301
v -0.375 -0.31918 0.02527
v -0.40919 -0.31919 0.02528
v -0.4077 -0.3177 0.01301
v -0.05229 0.285 0.0131
v -0.08499 0.31771 0.0131
v -0.05229 0.31771 0.0131
v -0.08499 0.285 0.0131
v -0.375 0.31771 0.01301
v -0.08499 -0.285 0.0131
v -0.05229 -0.285 0.0131
v -0.05229 -0.3177 0.0131
v -0.08499 -0.3177 0.0131
v -0.375 0.28501 0.01301
v -0.4077 0.31771 0.01301
v -0.4077 0.28501 0.01301
v -0.4077 -0.285 0.01301
v -0.375 -0.285 0.01301
v -0.375 -0.3177 0.01301
v -0.4077 -0.3177 0.01301
v -0.08499 0.37501 0.00011
v 0.00501 0.285 0.00011
v 0.00501 0.37501 0.00011
v -0.08499 0.285 0.00011
v 0.00501 -0.285 0.00011
v -0.375 0.28501 1E-05
v -0.375 0.37501 1E-05
v -0.465 0.37501 1E-05
v -0.465 0.28501 1E-05
v -0.08499 -0.285 0.00011
v 0.00501 -0.375 0.00011
v -0.08499 -0.375 0.00011
v -0.375 -0.375 1E-05
v -0.375 -0.285 1E-05
v -0.465 -0.285 1E-05
v -0.465 -0.375 1E-05
v -0.41082 0.32083 0.027
v -0.41084 0.285 0.027
v -0.46366 0.28501 0.027
v -0.46364 0.37368 0.027
v -0.46366 -0.285 0.027
v -0.37499 0.32085 0.027
v -0.41084 -0.28499 0.027
v -0.375 0.37365 0.027
v -0.46364 -0.37363 0.027
v -0.085 0.32085 0.0271
v -0.41082 -0.32081 0.027
v -0.08499 0.37365 0.0271
v -0.375 -0.37368 0.027
v -0.04911 0.32083 0.0271
v -0.37499 -0.32085 0.027
v 0.00363 0.37368 0.0271
v -0.08499 -0.37368 0.0271
v -0.0492 0.285 0.0271
v -0.085 -0.32085 0.0271
v 0.00369 0.285 0.0271
v 0.00363 -0.37363 0.0271
v -0.0492 -0.28499 0.0271
v -0.04911 -0.32081 0.0271
v 0.00369 -0.285 0.0271
vt 1.909429 2.815524
vt 1.966111 2.812977
vt 1.908564 2.812977
vt 1.966111 2.815524
vt 2.151537 2.813136
vt 2.151537 2.815683
vt 2.209083 2.813136
vt 2.208206 2.815683
vt 2.151537 2.772712
vt 2.209083 2.813136
vt 2.209083 2.772712
vt 2.151537 2.813136
vt 1.966111 2.812977
vt 1.966111 2.772553
vt 1.908564 2.772553
vt 1.908564 2.812977
vt 2.183802 1.091097
vt 2.186419 1.146234
vt 2.186419 1.090246
vt 2.183802 1.146234
vt 2.186419 1.500824
vt 2.183802 1.500824
vt 2.186419 1.556812
vt 2.183802 1.555985
vt 2.227962 1.500824
vt 2.186419 1.556812
vt 2.227962 1.556812
vt 2.186419 1.500824
vt 2.186419 1.146234
vt 2.227962 1.146234
vt 2.227962 1.090246
vt 2.186419 1.090246
vt 3.730786 2.813143
vt 3.673221 2.813143
vt 3.674098 2.81569
vt 3.730786 2.81569
vt 3.916274 2.812983
vt 3.916274 2.815531
vt 3.973838 2.812983
vt 3.972974 2.815531
vt 3.916274 2.772546
vt 3.973838 2.812983
vt 3.973838 2.772546
vt 3.916274 2.812983
vt 3.730786 2.813143
vt 3.730786 2.772705
vt 3.673221 2.772705
vt 3.673221 2.813143
vt 1.931232 1.500859
vt 1.931232 1.556858
vt 1.93385 1.556031
vt 1.93385 1.500859
vt 1.931232 1.146199
vt 1.93385 1.146199
vt 1.931232 1.0902
vt 1.93385 1.091052
vt 1.88968 1.556858
vt 1.931232 1.556858
vt 1.931232 1.500859
vt 1.88968 1.500859
vt 1.88968 1.146199
vt 1.931232 1.146199
vt 1.931232 1.0902
vt 1.88968 1.0902
vt 4.252724 1.324609
vt 4.248807 1.308741
vt 4.248807 1.325368
vt 4.252746 1.308741
vt 4.248807 1.044197
vt 4.252746 1.044197
vt 4.248807 1.027573
vt 4.252724 1.028329
vt 4.280605 1.308741
vt 4.252724 1.324609
vt 4.280605 1.323917
vt 4.252746 1.308741
vt 4.252746 1.044197
vt 4.280605 1.044197
vt 4.280605 1.029021
vt 4.252724 1.028329
vt 1.701844 3.100921
vt 1.687024 3.100945
vt 1.686315 3.105139
vt 1.701844 3.105139
vt 1.827544 3.101164
vt 1.827544 3.105383
vt 1.842364 3.101188
vt 1.843097 3.105383
vt 1.68767 3.071087
vt 1.687024 3.100945
vt 1.701844 3.100921
vt 1.701844 3.071087
vt 1.827544 3.071331
vt 1.827544 3.101164
vt 1.842364 3.101188
vt 1.841718 3.071331
vt 4.570771 1.308601
vt 4.570793 1.324452
vt 4.574705 1.32521
vt 4.574705 1.3086
vt 4.570771 1.044337
vt 4.574705 1.044338
vt 4.570793 1.028486
vt 4.574705 1.027731
vt 4.542943 1.323761
vt 4.570793 1.324452
vt 4.570771 1.308601
vt 4.542943 1.308601
vt 4.542943 1.044337
vt 4.570771 1.044337
vt 4.570793 1.028486
vt 4.542943 1.029177
vt 2.878329 3.101166
vt 2.863508 3.10119
vt 2.862775 3.105385
vt 2.878329 3.105385
vt 3.004047 3.100923
vt 3.004047 3.105142
vt 3.018868 3.100946
vt 3.019578 3.105142
vt 2.864154 3.071328
vt 2.863508 3.10119
vt 2.878329 3.101166
vt 2.878329 3.071328
vt 3.004047 3.071085
vt 3.004047 3.100923
vt 3.018868 3.100946
vt 3.018222 3.071085
vt 0.754234 4.12862
vt 0.7236873 4.163625
vt 0.754234 4.163625
vt 0.7236873 4.12862
vt 0.452783 4.163625
vt 0.7236873 3.518439
vt 0.754234 3.518439
vt 0.754234 3.483434
vt 0.7236873 3.483434
vt 0.452783 4.12862
vt 0.4222362 4.163625
vt 0.4222362 4.12862
vt 0.4222364 3.518439
vt 0.4527832 3.518439
vt 0.4527832 3.483434
vt 0.4222364 3.483434
vt 0.7336031 1.689076
vt 0.6412754 1.601345
vt 0.6412754 1.689076
vt 0.7336031 1.601345
vt 0.6412754 1.045713
vt 1.031103 1.601345
vt 1.031103 1.689076
vt 1.12343 1.689076
vt 1.12343 1.601345
vt 0.7336031 1.045713
vt 0.6412754 0.9579822
vt 0.7336031 0.9579822
vt 1.031103 0.9579823
vt 1.031103 1.045714
vt 1.123431 1.045714
vt 1.123431 0.9579823
vt 3.049584 1.635945
vt 3.049561 1.601059
vt 2.99532 1.601059
vt 2.995339 1.687403
vt 2.99532 1.046013
vt 3.086377 1.635968
vt 3.049561 1.046013
vt 3.086376 1.687379
vt 2.995339 0.9597063
vt 3.384189 1.635968
vt 3.049584 1.011134
vt 3.38419 1.687379
vt 3.086376 0.959655
vt 3.421037 1.635945
vt 3.086377 1.011097
vt 3.475205 1.687403
vt 3.38419 0.9596549
vt 3.420949 1.601059
vt 3.384189 1.011097
vt 3.475268 1.601059
vt 3.475205 0.9597062
vt 3.420949 1.046013
vt 3.421037 1.011134
vt 3.475268 1.046012
vn 0 -0.7723348 0.6352158
vn 0 -1 0
vn 0 -1 0
vn 0 -1 0
vn 0 -1 0
vn 0 -1 0
vn 0 -1 0
vn 0.7589673 0 0.6511288
vn 1 0 0
vn 1 0 0
vn 1 0 0
vn 1 0 0
vn 1 0 0
vn 1 0 0
vn 1 0 0
vn 1 0 0
vn 0 0.7690814 0.6391509
vn 0 0.7690814 0.6391509
vn 0 1 0
vn 0 1 0
vn 0 1 0
vn 0 1 0
vn 0 1 0
vn 0 1 0
vn -0.7682513 0 0.6401483
vn -0.7682513 0 0.6401483
vn -1 0 0
vn -1 0 0
vn -1 0 0
vn -1 0 0
vn -1 0 0
vn -1 0 0
vn 0.9927101 0 0.120526
vn 0 -0.992709 0.1205348
vn -0.992708 0 0.1205437
vn 1.804584E-06 0.9927089 0.1205357
vn 1.804584E-06 0.9927089 0.1205357
vn 1.804584E-06 0.9927089 0.1205357
vn 0 0 1
vn 0 0 1
vn 0 0 1
vn 0 0 1
vn 0 0 1
vn 0 0 1
vn 0 0 1
vn 0 0 1
vn 1.894333E-06 0 1
vn 0 0 1
vn 0 0 1
vn 0 0 1
vn 0 0 1
vn 0 0 1
vn 0 0 -1
vn 0 0 -1
vn 0 0 -1
vn 0 0 -1
vn 0 0 -1
vn 0 0 -1
vn 0 0 -1
vn 0 0 -1
vn 0 0 -1
vn 0 0 -1
vn 0 0 -1
vn 0 0 -1
vn 0 0 -1
vn 0 0 -1
vn 0 0 1
vn 0 0 1
vn 0 0 1
vn 1.51715E-06 0 1
vn 0 0 1
vn -0.0004581767 -0.7722542 0.6353135
vn -0.0002745568 -0.7722536 0.6353142
vn 0 -0.759851 0.6500972
vn -0.0002753815 -0.7722536 0.6353143
vn -0.0002192554 -0.7722535 0.6353146
vn -0.0002203904 -0.7723377 0.6352122
vn 0 -0.7723348 0.6352158
vn 0.0004511618 -0.7597487 0.6502167
vn 0 -1 0
vn 0 -1 0
vn 0 -1 0
vn 0 -1 0
vn -3.513714E-07 -1 0
vn -3.51335E-07 -1 0
vn 0 -1 0
vn 0 -1 0
vn 0.7733751 -0.0005327192 0.6339484
vn 0.7733657 -7.075645E-05 0.6339602
vn 0.7589673 0 0.6511288
vn 0.7733658 -7.184062E-05 0.6339602
vn 0.7733642 0 0.6339619
vn 0.7733644 0 0.6339619
vn 0.7733949 0 0.6339245
vn 0.7587016 0.0005224319 0.6514381
vn 1 0 0
vn 1 0 0
vn 1 0 0
vn 1 0 0
vn 1 0 0
vn 1 0 0
vn 1 0 0
vn 1 0 0
vn 0 0.7690814 0.6391509
vn 0 0.7690814 0.6391509
vn 0 0.7690814 0.6391509
vn -0.0002217456 0.7630943 0.6462871
vn -0.0002223715 0.7630957 0.6462855
vn -0.0002221574 0.7631347 0.6462394
vn 0 0.7630985 0.6462821
vn 0.0002193555 0.7692384 0.6389619
vn 0 1 0
vn 0 1 0
vn 0 1 0
vn 0 1 0
vn 4.015253E-07 1 0
vn 4.01567E-07 1 0
vn 0 1 0
vn 0 1 0
vn -0.7638783 0 0.6453602
vn -0.7638783 0 0.6453603
vn -0.7638783 0 0.6453602
vn -0.7683262 0.000165331 0.6400584
vn -0.7683451 3.216381E-07 0.6400357
vn -0.7682513 0 0.6401483
vn -0.7682513 0 0.6401483
vn -0.7637717 -0.0001623524 0.6454864
vn -1 0 0
vn -1 0 0
vn -1 0 0
vn -1 0 0
vn -1 0 0
vn -1 2.107712E-07 0
vn -1 0 0
vn -1 0 0
vn 0.7251581 -0.0004367272 0.6885822
vn 0.7226063 -0.0001740999 0.6912598
vn 0.7252439 -0.0004455751 0.6884918
vn 0.7224793 -0.0001610612 0.6913925
vn 0.7224573 0.0004437263 0.6914154
vn 0.7253496 0.0001626754 0.6883807
vn 0.7253496 0.0001626754 0.6883806
vn 0.7253496 0.0001626754 0.6883807
vn 0.9927099 8.522693E-06 0.120528
vn 0.9927088 2.677528E-06 0.1205375
vn 0.9927083 0 0.1205418
vn 0.9927104 1.083587E-05 0.1205243
vn 0.9927101 0 0.120526
vn 0.992708 4.333183E-07 0.1205442
vn 0.992708 0 0.120544
vn 0.9927073 -3.609307E-06 0.1205497
vn 0.000167785 -0.7256406 0.6880739
vn 0.000167785 -0.7256406 0.6880739
vn 0.000167785 -0.7256405 0.6880739
vn 0.0004878838 -0.7223254 0.6915531
vn -0.0002387678 -0.7223226 0.6915563
vn -0.000191239 -0.7225255 0.6913443
vn -0.0004649521 -0.7253478 0.6883825
vn -0.0004740983 -0.7254418 0.6882833
vn -3.609326E-06 -0.992709 0.1205348
vn -3.609326E-06 -0.992709 0.1205348
vn -3.609326E-06 -0.992709 0.1205348
vn 0 -0.992709 0.1205348
vn -4.215884E-05 -0.9927095 0.1205317
vn -4.218511E-05 -0.992708 0.1205436
vn 0 -0.9927092 0.120534
vn 0 -0.9927099 0.1205283
vn -0.7140896 -0.0001777326 0.7000543
vn -0.7140896 -0.0001777326 0.7000543
vn -0.7140896 -0.0001777326 0.7000542
vn -0.7339051 0.001752757 0.6792497
vn -0.7338126 0 0.679352
vn -0.7338648 0.0001721205 0.6792956
vn -0.7338647 0.0001721205 0.6792956
vn -0.715025 -0.001708959 0.6990968
vn -0.9927078 -7.218393E-06 0.1205458
vn -0.9927078 -7.218393E-06 0.1205458
vn -0.9927078 -7.218394E-06 0.1205458
vn -0.9927061 0 0.1205596
vn -0.9927061 0 0.1205592
vn -0.9927058 0 0.1205625
vn -0.9927076 1.784992E-06 0.120548
vn -0.992708 0 0.1205437
vn -0.0001686171 0.7270538 0.6865805
vn -0.000168617 0.7270539 0.6865804
vn -0.000168617 0.7270538 0.6865804
vn -0.0007689833 0.7208821 0.6930574
vn -0.0002382565 0.7208824 0.6930574
vn 0.0001681731 0.7208641 0.6930765
vn 0.0001681731 0.720864 0.6930766
vn 0.0007718374 0.7268285 0.6868186
vn 1.804584E-06 0.9927089 0.1205357
vn 1.804584E-06 0.9927089 0.1205357
vn 1.804584E-06 0.9927089 0.1205357
vn 0 0.9927092 0.1205339
vn -4.08808E-05 0.9927093 0.1205336
vn -4.112391E-05 0.9927083 0.1205419
vn -4.462624E-07 0.9927076 0.120548
vn 0 0.9927073 0.1205491
vn 0 0 1
vn 0 0 1
vn 0 0 1
vn 0 0 1
vn 0 0 1
vn 0 0 1
vn 0 0 1
vn 0 0 1
vn 1.894333E-06 0 1
vn 0 0 1
vn 0 0 1
vn 0 0 1
vn 0 0 1
vn -0.0003436825 0 1
vn -0.0003449834 0 1
vn 0 0 1
vn 0 0 -1
vn 0 0 -1
vn 0 0 -1
vn 0 0 -1
vn 0 0 -1
vn 0 0 -1
vn 0 0 -1
vn 0 0 -1
vn 0 0 -1
vn 0 0 -1
vn 0 0 -1
vn 0 0 -1
vn 0.0003460994 0 -1
vn 0.0003458661 0 -1
vn 0 0 -1
vn 0 0 -1
vn 4.240906E-07 0 1
vn 0 0 1
vn 0 0 1
vn 0 0 1
vn 7.017196E-07 0 1
vn -0.0002766123 0 1
vn 3.512179E-07 0 1
vn -0.0002636401 0 1
vn 4.391184E-06 0 1
vn -0.0003073287 0 1
vn -6.541561E-07 0 1
vn -0.0002796637 0 1
vn -0.0002778395 0 1
vn -1.766291E-06 0 1
vn -0.0003072429 0 1
vn 1.51715E-06 0 1
vn -0.0002643467 0 1
vn 3.514109E-07 0 1
vn -0.0002775046 0 1
vn 7.004954E-07 0 1
vn -1.216978E-06 0 1
vn 0 0 1
vn -2.262726E-07 0 1
vn -2.241669E-07 0 1
usemtl WhiteWoodClean
f 3/3/74 2/2/73 1/1/72
f 2/2/73 4/4/75 1/1/72
f 4/4/75 2/2/73 5/5/76
f 6/6/77 4/4/75 5/5/76
f 5/5/76 7/7/78 6/6/77
f 7/7/78 8/8/79 6/6/77
f 11/11/82 10/10/81 9/9/80
f 10/10/81 12/12/83 9/9/80
f 9/9/80 12/12/83 13/13/84
f 14/14/85 9/9/80 13/13/84
f 14/14/85 13/13/84 15/15/86
f 13/13/84 16/16/87 15/15/86
f 19/19/90 18/18/89 17/17/88
f 18/18/89 20/20/91 17/17/88
f 20/20/91 18/18/89 21/21/92
f 22/22/93 20/20/91 21/21/92
f 21/21/92 23/23/94 22/22/93
f 23/23/94 24/24/95 22/22/93
f 27/27/98 26/26/97 25/25/96
f 26/26/97 28/28/99 25/25/96
f 25/25/96 28/28/99 29/29/100
f 30/30/101 25/25/96 29/29/100
f 30/30/101 29/29/100 31/31/102
f 29/29/100 32/32/103 31/31/102
f 35/35/106 34/34/105 33/33/104
f 36/36/107 35/35/106 33/33/104
f 36/36/107 33/33/104 37/37/108
f 38/38/109 36/36/107 37/37/108
f 38/38/109 37/37/108 39/39/110
f 40/40/111 38/38/109 39/39/110
f 43/43/114 42/42/113 41/41/112
f 42/42/113 44/44/115 41/41/112
f 41/41/112 44/44/115 45/45/116
f 46/46/117 41/41/112 45/45/116
f 46/46/117 45/45/116 47/47/118
f 45/45/116 48/48/119 47/47/118
f 51/51/122 50/50/121 49/49/120
f 52/52/123 51/51/122 49/49/120
f 52/52/123 49/49/120 53/53/124
f 54/54/125 52/52/123 53/53/124
f 53/53/124 55/55/126 54/54/125
f 55/55/126 56/56/127 54/54/125
f 59/59/130 58/58/129 57/57/128
f 60/60/131 59/59/130 57/57/128
f 60/60/131 61/61/132 59/59/130
f 61/61/132 62/62/133 59/59/130
f 63/63/134 62/62/133 61/61/132
f 64/64/135 63/63/134 61/61/132
f 67/67/138 66/66/137 65/65/136
f 66/66/137 68/68/139 65/65/136
f 68/68/139 66/66/137 69/69/140
f 70/70/141 68/68/139 69/69/140
f 69/69/140 71/71/142 70/70/141
f 71/71/142 72/72/143 70/70/141
f 75/75/146 74/74/145 73/73/144
f 74/74/145 76/76/147 73/73/144
f 73/73/144 76/76/147 77/77/148
f 78/78/149 73/73/144 77/77/148
f 78/78/149 77/77/148 79/79/150
f 77/77/148 80/80/151 79/79/150
f 83/83/154 82/82/153 81/81/152
f 84/84/155 83/83/154 81/81/152
f 84/84/155 81/81/152 85/85/156
f 86/86/157 84/84/155 85/85/156
f 86/86/157 85/85/156 87/87/158
f 88/88/159 86/86/157 87/87/158
f 91/91/162 90/90/161 89/89/160
f 92/92/163 91/91/162 89/89/160
f 92/92/163 93/93/164 91/91/162
f 93/93/164 94/94/165 91/91/162
f 95/95/166 94/94/165 93/93/164
f 96/96/167 95/95/166 93/93/164
f 99/99/170 98/98/169 97/97/168
f 100/100/171 99/99/170 97/97/168
f 100/100/171 97/97/168 101/101/172
f 102/102/173 100/100/171 101/101/172
f 102/102/173 101/101/172 103/103/174
f 104/104/175 102/102/173 103/103/174
f 107/107/178 106/106/177 105/105/176
f 108/108/179 107/107/178 105/105/176
f 107/107/178 108/108/179 109/109/180
f 110/110/181 107/107/178 109/109/180
f 111/111/182 110/110/181 109/109/180
f 112/112/183 111/111/182 109/109/180
f 115/115/186 114/114/185 113/113/184
f 116/116/187 115/115/186 113/113/184
f 116/116/187 113/113/184 117/117/188
f 118/118/189 116/116/187 117/117/188
f 118/118/189 117/117/188 119/119/190
f 120/120/191 118/118/189 119/119/190
f 123/123/194 122/122/193 121/121/192
f 124/124/195 123/123/194 121/121/192
f 124/124/195 125/125/196 123/123/194
f 125/125/196 126/126/197 123/123/194
f 127/127/198 126/126/197 125/125/196
f 128/128/199 127/127/198 125/125/196
f 131/131/202 130/130/201 129/129/200
f 130/130/201 132/132/203 129/129/200
f 132/132/203 130/130/201 133/133/204
f 129/129/200 132/132/203 134/134/205
f 135/135/206 129/129/200 134/134/205
f 135/135/206 134/134/205 136/136/207
f 134/134/205 137/137/208 136/136/207
f 138/138/209 132/132/203 133/133/204
f 132/132/203 138/138/209 134/134/205
f 133/133/204 139/139/210 138/138/209
f 139/139/210 140/140/211 138/138/209
f 138/138/209 140/140/211 141/141/212
f 137/137/208 134/134/205 142/142/213
f 138/138/209 142/142/213 134/134/205
f 142/142/213 138/138/209 141/141/212
f 143/143/214 137/137/208 142/142/213
f 142/142/213 141/141/212 143/143/214
f 141/141/212 144/144/215 143/143/214
f 147/147/218 146/146/217 145/145/216
f 146/146/217 148/148/219 145/145/216
f 148/148/219 146/146/217 149/149/220
f 145/145/216 148/148/219 150/150/221
f 151/151/222 145/145/216 150/150/221
f 151/151/222 150/150/221 152/152/223
f 150/150/221 153/153/224 152/152/223
f 154/154/225 148/148/219 149/149/220
f 148/148/219 154/154/225 150/150/221
f 149/149/220 155/155/226 154/154/225
f 155/155/226 156/156/227 154/154/225
f 156/156/227 157/157/228 154/154/225
f 150/150/221 158/158/229 153/153/224
f 154/154/225 158/158/229 150/150/221
f 157/157/228 158/158/229 154/154/225
f 158/158/229 159/159/230 153/153/224
f 158/158/229 157/157/228 159/159/230
f 157/157/228 160/160/231 159/159/230
f 163/163/234 162/162/233 161/161/232
f 164/164/235 163/163/234 161/161/232
f 162/162/233 163/163/234 165/165/236
f 164/164/235 161/161/232 166/166/237
f 167/167/238 162/162/233 165/165/236
f 168/168/239 164/164/235 166/166/237
f 165/165/236 169/169/240 167/167/238
f 168/168/239 166/166/237 170/170/241
f 169/169/240 171/171/242 167/167/238
f 172/172/243 168/168/239 170/170/241
f 169/169/240 173/173/244 171/171/242
f 172/172/243 170/170/241 174/174/245
f 173/173/244 175/175/246 171/171/242
f 176/176/247 172/172/243 174/174/245
f 173/173/244 177/177/248 175/175/246
f 176/176/247 174/174/245 178/178/249
f 177/177/248 179/179/250 175/175/246
f 180/180/251 176/176/247 178/178/249
f 177/177/248 181/181/252 179/179/250
f 180/180/251 178/178/249 182/182/253
f 181/181/252 183/183/254 179/179/250
f 184/184/255 180/180/251 182/182/253
f 181/181/252 184/184/255 183/183/254
f 184/184/255 182/182/253 183/183/254
