mtllib Cabinet_7d7a3425.mtl
v -0.00364 -0.37363 0.027
v 0.085 -0.375 0.02541
v -0.005 -0.375 0.02541
v 0.085 -0.37368 0.027
v 0.205 -0.375 0.02551
v 0.205 -0.37368 0.0271
v 0.29501 -0.375 0.02551
v 0.29363 -0.37363 0.0271
v 0.205 -0.375 0.00011
v 0.29501 -0.375 0.02551
v 0.29501 -0.375 0.00011
v 0.205 -0.375 0.02551
v 0.085 -0.375 0.02541
v 0.085 -0.375 1E-05
v -0.005 -0.375 1E-05
v -0.005 -0.375 0.02541
v 0.29363 -0.37363 0.0271
v 0.29501 -0.285 0.02551
v 0.29501 -0.375 0.02551
v 0.29369 -0.285 0.0271
v 0.29501 0.285 0.02551
v 0.29369 0.285 0.0271
v 0.29501 0.37501 0.02551
v 0.29363 0.37368 0.0271
v 0.29501 0.285 0.00011
v 0.29501 0.37501 0.02551
v 0.29501 0.37501 0.00011
v 0.29501 0.285 0.02551
v 0.29501 -0.285 0.02551
v 0.29501 -0.285 0.00011
v 0.29501 -0.375 0.00011
v 0.29501 -0.375 0.02551
v 0.205 0.37501 0.02551
v 0.29501 0.37501 0.02551
v 0.29363 0.37368 0.0271
v 0.205 0.37365 0.0271
v 0.085 0.37501 0.02541
v 0.085 0.37365 0.027
v -0.005 0.37501 0.02541
v -0.00364 0.37368 0.027
v 0.085 0.37501 1E-05
v -0.005 0.37501 0.02541
v -0.005 0.37501 1E-05
v 0.085 0.37501 0.02541
v 0.205 0.37501 0.02551
v 0.205 0.37501 0.00011
v 0.29501 0.37501 0.00011
v 0.29501 0.37501 0.02551
v -0.005 0.28501 0.02541
v -0.005 0.37501 0.02541
v -0.00364 0.37368 0.027
v -0.00366 0.28501 0.027
v -0.005 -0.285 0.02541
v -0.00366 -0.285 0.027
v -0.005 -0.375 0.02541
v -0.00364 -0.37363 0.027
v -0.005 0.37501 1E-05
v -0.005 0.37501 0.02541
v -0.005 0.28501 0.02541
v -0.005 0.28501 1E-05
v -0.005 -0.285 1E-05
v -0.005 -0.285 0.02541
v -0.005 -0.375 0.02541
v -0.005 -0.375 1E-05
v 0.05081 0.3192 0.02528
v 0.04916 0.285 0.027
v 0.04918 0.32083 0.027
v 0.05082 0.28501 0.02527
v 0.04916 -0.28499 0.027
v 0.05082 -0.285 0.02527
v 0.04918 -0.32081 0.027
v 0.05081 -0.31919 0.02528
v 0.0523 0.28501 0.01301
v 0.05081 0.3192 0.02528
v 0.0523 0.31771 0.01301
v 0.05082 0.28501 0.02527
v 0.05082 -0.285 0.02527
v 0.0523 -0.285 0.01301
v 0.0523 -0.3177 0.01301
v 0.05081 -0.31919 0.02528
v 0.085 0.31919 0.02527
v 0.05081 0.3192 0.02528
v 0.04918 0.32083 0.027
v 0.08501 0.32085 0.027
v 0.205 0.31919 0.02537
v 0.205 0.32085 0.0271
v 0.2392 0.3192 0.02538
v 0.24089 0.32083 0.0271
v 0.0523 0.31771 0.01301
v 0.05081 0.3192 0.02528
v 0.085 0.31919 0.02527
v 0.085 0.31771 0.01301
v 0.205 0.31771 0.0131
v 0.205 0.31919 0.02537
v 0.2392 0.3192 0.02538
v 0.23771 0.31771 0.0131
v 0.23919 0.285 0.02537
v 0.2392 0.3192 0.02538
v 0.24089 0.32083 0.0271
v 0.2408 0.285 0.0271
v 0.23919 -0.285 0.02537
v 0.2408 -0.28499 0.0271
v 0.2392 -0.31919 0.02538
v 0.24089 -0.32081 0.0271
v 0.23771 0.31771 0.0131
v 0.2392 0.3192 0.02538
v 0.23919 0.285 0.02537
v 0.23771 0.285 0.0131
v 0.23771 -0.285 0.0131
v 0.23919 -0.285 0.02537
v 0.2392 -0.31919 0.02538
v 0.23771 -0.3177 0.0131
v 0.205 -0.31918 0.02537
v 0.2392 -0.31919 0.02538
v 0.24089 -0.32081 0.0271
v 0.205 -0.32085 0.0271
v 0.085 -0.31918 0.02527
v 0.08501 -0.32085 0.027
v 0.05081 -0.31919 0.02528
v 0.04918 -0.32081 0.027
v 0.23771 -0.3177 0.0131
v 0.2392 -0.31919 0.02538
v 0.205 -0.31918 0.02537
v 0.205 -0.3177 0.0131
v 0.085 -0.3177 0.01301
v 0.085 -0.31918 0.02527
v 0.05081 -0.31919 0.02528
v 0.0523 -0.3177 0.01301
v 0.23771 0.285 0.0131
v 0.205 0.31771 0.0131
v 0.23771 0.31771 0.0131
v 0.205 0.285 0.0131
v 0.085 0.31771 0.01301
v 0.205 -0.285 0.0131
v 0.23771 -0.285 0.0131
v 0.23771 -0.3177 0.0131
v 0.205 -0.3177 0.0131
v 0.085 0.28501 0.01301
v 0.0523 0.31771 0.01301
v 0.0523 0.28501 0.01301
v 0.0523 -0.285 0.01301
v 0.085 -0.285 0.01301
v 0.085 -0.3177 0.01301
v 0.0523 -0.3177 0.01301
v 0.205 0.37501 0.00011
v 0.29501 0.285 0.00011
v 0.29501 0.37501 0.00011
v 0.205 0.285 0.00011
v 0.29501 -0.285 0.00011
v 0.085 0.28501 1E-05
v 0.085 0.37501 1E-05
v -0.005 0.37501 1E-05
v -0.005 0.28501 1E-05
v 0.205 -0.285 0.00011
v 0.29501 -0.375 0.00011
v 0.205 -0.375 0.00011
v 0.085 -0.375 1E-05
v 0.085 -0.285 1E-05
v -0.005 -0.285 1E-05
v -0.005 -0.375 1E-05
v 0.04918 0.32083 0.027
v 0.04916 0.285 0.027
v -0.00366 0.28501 0.027
v -0.00364 0.37368 0.027
v -0.00366 -0.285 0.027
v 0.08501 0.32085 0.027
v 0.04916 -0.28499 0.027
v 0.085 0.37365 0.027
v -0.00364 -0.37363 0.027
v 0.205 0.32085 0.0271
v 0.04918 -0.32081 0.027
v 0.205 0.37365 0.0271
v 0.085 -0.37368 0.027
v 0.24089 0.32083 0.0271
v 0.08501 -0.32085 0.027
v 0.29363 0.37368 0.0271
v 0.205 -0.37368 0.0271
v 0.2408 0.285 0.0271
v 0.205 -0.32085 0.0271
v 0.29369 0.285 0.0271
v 0.29363 -0.37363 0.0271
v 0.2408 -0.28499 0.0271
v 0.24089 -0.32081 0.0271
v 0.29369 -0.285 0.0271
vt 4.131037 3.142102
vt 4.20198 3.140068
vt 4.129954 3.140068
vt 4.20198 3.142102
vt 4.29802 3.140195
vt 4.29802 3.142229
vt 4.370046 3.140195
vt 4.368947 3.142229
vt 4.29802 3.107898
vt 4.370046 3.140195
vt 4.370046 3.107898
vt 4.29802 3.140195
vt 4.20198 3.140068
vt 4.20198 3.107771
vt 4.129954 3.107771
vt 4.129954 3.140068
vt 1.857365 1.458973
vt 1.859455 1.52801
vt 1.859455 1.457907
vt 1.857365 1.52801
vt 1.859455 1.971991
vt 1.857365 1.97199
vt 1.859455 2.042093
vt 1.857365 2.041057
vt 1.892635 1.971991
vt 1.859455 2.042093
vt 1.892635 2.042093
vt 1.859455 1.971991
vt 1.859455 1.52801
vt 1.892635 1.52801
vt 1.892635 1.457907
vt 1.859455 1.457907
vt 4.201969 3.390198
vt 4.12992 3.390198
vt 4.131019 3.392234
vt 4.201969 3.392234
vt 4.298031 3.390071
vt 4.298031 3.392106
vt 4.37008 3.390071
vt 4.368998 3.392106
vt 4.298031 3.357766
vt 4.37008 3.390071
vt 4.37008 3.357766
vt 4.298031 3.390071
vt 4.201969 3.390198
vt 4.201969 3.357894
vt 4.12992 3.357894
vt 4.12992 3.390198
vt 1.640548 1.972034
vt 1.640548 2.042149
vt 1.642638 2.041113
vt 1.642638 1.972034
vt 1.640548 1.527966
vt 1.642638 1.527966
vt 1.640548 1.457851
vt 1.642638 1.458917
vt 1.607362 2.042149
vt 1.640548 2.042149
vt 1.640548 1.972034
vt 1.607362 1.972034
vt 1.607362 1.527966
vt 1.640548 1.527966
vt 1.640548 1.457851
vt 1.607362 1.457851
vt 3.615258 1.682179
vt 3.612072 1.662665
vt 3.612072 1.683113
vt 3.615276 1.662665
vt 3.612072 1.337332
vt 3.615276 1.337331
vt 3.612072 1.316888
vt 3.615258 1.317817
vt 3.637928 1.662665
vt 3.615258 1.682179
vt 3.637928 1.681329
vt 3.615276 1.662665
vt 3.615276 1.337331
vt 3.637928 1.337331
vt 3.637928 1.318667
vt 3.615258 1.317817
vt 0.464257 3.634237
vt 0.4438983 3.634254
vt 0.4429242 3.637308
vt 0.4642576 3.637308
vt 0.5357109 3.634414
vt 0.5357106 3.637485
vt 0.5560696 3.634431
vt 0.5570759 3.637485
vt 0.4447859 3.612515
vt 0.4438983 3.634254
vt 0.464257 3.634237
vt 0.464257 3.612515
vt 0.5357109 3.612692
vt 0.5357109 3.634414
vt 0.5560696 3.634431
vt 0.5551823 3.612692
vt 3.884714 1.662484
vt 3.884732 1.681977
vt 3.887913 1.682909
vt 3.887913 1.662484
vt 3.884714 1.337512
vt 3.887913 1.337512
vt 3.884732 1.318019
vt 3.887913 1.317091
vt 3.862087 1.681127
vt 3.884732 1.681977
vt 3.884714 1.662484
vt 3.862087 1.662484
vt 3.862087 1.337512
vt 3.884714 1.337512
vt 3.884732 1.318019
vt 3.862087 1.318869
vt 1.464282 3.634415
vt 1.443919 3.634433
vt 1.442913 3.637488
vt 1.464282 3.637488
vt 1.535751 3.634239
vt 1.53575 3.63731
vt 1.556114 3.634255
vt 1.557088 3.63731
vt 1.444807 3.61269
vt 1.443919 3.634433
vt 1.464282 3.634415
vt 1.464282 3.61269
vt 1.535751 3.612512
vt 1.535751 3.634239
vt 1.556114 3.634255
vt 1.555225 3.612512
vt 4.597496 1.770983
vt 4.563103 1.802076
vt 4.597496 1.802076
vt 4.563103 1.770983
vt 4.436897 1.802076
vt 4.563103 1.229017
vt 4.597496 1.229017
vt 4.597496 1.197925
vt 4.563103 1.197925
vt 4.436897 1.770984
vt 4.402504 1.802076
vt 4.402504 1.770984
vt 4.402505 1.229017
vt 4.436897 1.229017
vt 4.436897 1.197925
vt 4.402505 1.197925
vt 0.6884689 2.115671
vt 0.5961725 2.02791
vt 0.5961725 2.115671
vt 0.6884689 2.02791
vt 0.5961725 1.47209
vt 0.8115311 2.02791
vt 0.8115311 2.115671
vt 0.9038271 2.115671
vt 0.9038271 2.02791
vt 0.6884689 1.47209
vt 0.5961725 1.384329
vt 0.6884689 1.384329
vt 0.8115311 1.384329
vt 0.8115311 1.47209
vt 0.9038271 1.47209
vt 0.9038271 1.384329
vt 2.651455 2.06202
vt 2.651433 2.027178
vt 2.597122 2.027178
vt 2.597142 2.113413
vt 2.597122 1.472835
vt 2.688295 2.062043
vt 2.651433 1.472836
vt 2.688294 2.113388
vt 2.597142 1.386638
vt 2.811683 2.062043
vt 2.651455 1.438
vt 2.811684 2.113388
vt 2.688294 1.386587
vt 2.848578 2.062019
vt 2.688295 1.437963
vt 2.902815 2.113413
vt 2.811684 1.386586
vt 2.84849 2.027178
vt 2.811683 1.437963
vt 2.902878 2.027178
vt 2.902815 1.386638
vt 2.84849 1.472836
vt 2.848578 1.438
vt 2.902878 1.472835
vn -0.0004581802 -0.7722571 0.63531
vn -0.0004996684 -0.7722588 0.6353079
vn 0 -0.7598479 0.6501008
vn -0.0004992219 -0.7722588 0.635308
vn -0.0005298694 -0.7722601 0.6353063
vn -0.0005326095 -0.7723358 0.6352143
vn 0 -0.7723348 0.6352158
vn 0.0004511586 -0.7597455 0.6502204
vn 0 -1 0
vn 0 -1 0
vn 0 -1 0
vn 0 -1 0
vn -6.359274E-07 -1 0
vn -6.356351E-07 -1 0
vn 0 -1 0
vn 0 -1 0
vn 0.773339 -0.0005326943 0.6339926
vn 0.7733296 -7.075314E-05 0.6340042
vn 0.7589673 0 0.6511288
vn 0.7733296 -7.183722E-05 0.6340042
vn 0.7733281 0 0.6340061
vn 0.7733282 0 0.6340058
vn 0.7733588 0 0.6339686
vn 0.7587021 0.0005224322 0.6514376
vn 1 0 0
vn 1 0 0
vn 1 0 0
vn 1 0 0
vn 1 0 0
vn 1 0 0
vn 1 0 0
vn 1 0 0
vn 0 0.7690813 0.639151
vn 0 0.7690814 0.6391509
vn 0 0.7690814 0.6391509
vn -0.0004015427 0.7630876 0.646295
vn -0.0005373886 0.7630851 0.6462978
vn -0.0005368781 0.7631311 0.6462435
vn 0 0.7631296 0.6462455
vn 0.0002193459 0.7692067 0.6390001
vn 0 1 0
vn 0 1 0
vn 0 1 0
vn 0 1 0
vn 7.264416E-07 1 0
vn 7.267727E-07 1 0
vn 0 1 0
vn 0 1 0
vn -0.7639502 0 0.6452753
vn -0.7639502 0 0.6452753
vn -0.7639502 0 0.6452753
vn -0.7683807 0.0001653427 0.639993
vn -0.7683991 6.431645E-07 0.639971
vn -0.7682513 0 0.6401483
vn -0.7682513 0 0.6401483
vn -0.76379 -0.0001644115 0.6454648
vn -1 0 0
vn -1 0 0
vn -1 0 0
vn -1 0 0
vn -1 4.215681E-07 0
vn -1 6.323393E-07 0
vn -1 0 0
vn -1 0 0
vn 0.7251283 -0.0004347568 0.6886137
vn 0.7226197 -0.000180654 0.6912459
vn 0.7252126 -0.0004433168 0.6885248
vn 0.7224948 -0.0001680375 0.6913763
vn 0.7224732 0.000443736 0.6913989
vn 0.725316 0.0001650147 0.6884161
vn 0.725316 0.0001650147 0.688416
vn 0.725316 0.0001650147 0.6884161
vn 0.99271 0 0.120527
vn 0.9927093 0 0.120533
vn 0.9927089 0 0.1205357
vn 0.9927104 0 0.1205247
vn 0.9927101 0 0.120526
vn 0.9927094 4.333189E-07 0.120532
vn 0.9927094 0 0.1205318
vn 0.9927102 0 0.1205259
vn 0.0001677937 -0.7256781 0.6880344
vn 0.0001677937 -0.725678 0.6880345
vn 0.0001677937 -0.725678 0.6880344
vn 0.0004878823 -0.7223275 0.691551
vn -0.0005770212 -0.7223232 0.6915554
vn -0.0001912479 -0.7225589 0.6913093
vn -0.0004649511 -0.7253509 0.6883791
vn -0.0004740967 -0.725444 0.6882811
vn -3.609324E-06 -0.9927085 0.1205397
vn -3.609324E-06 -0.9927085 0.1205397
vn -3.609324E-06 -0.9927085 0.1205397
vn 0 -0.992709 0.1205348
vn -0.0001018835 -0.9927095 0.1205313
vn -0.0001019473 -0.9927077 0.1205464
vn 0 -0.9927093 0.1205332
vn 0 -0.99271 0.1205275
vn -0.7140881 -0.0001731463 0.7000558
vn -0.7140881 -0.0001731463 0.7000558
vn -0.714088 -0.0001731463 0.7000558
vn -0.733922 0.001748292 0.6792315
vn -0.7338287 0 0.6793346
vn -0.7338808 0.0001816048 0.6792783
vn -0.7338808 0.0001816048 0.6792783
vn -0.715025 -0.001717791 0.6990967
vn -0.9927077 0 0.1205463
vn -0.9927077 0 0.1205463
vn -0.9927077 0 0.1205463
vn -0.9927053 0 0.1205656
vn -0.9927054 0 0.1205653
vn -0.992705 0 0.1205686
vn -0.9927073 0 0.1205496
vn -0.992708 0 0.1205437
vn -0.0001686164 0.7270561 0.686578
vn -0.0001686165 0.7270561 0.686578
vn -0.0001686165 0.7270561 0.6865781
vn -0.0007689905 0.7208844 0.6930549
vn -0.0005757861 0.7208833 0.6930562
vn 0.0001681737 0.7208618 0.6930788
vn 0.0001681737 0.7208618 0.6930789
vn 0.0007718301 0.7268261 0.6868211
vn 1.804584E-06 0.9927089 0.1205357
vn 1.804584E-06 0.9927089 0.1205357
vn 1.804584E-06 0.9927089 0.1205357
vn 0 0.9927094 0.1205321
vn -9.879527E-05 0.9927094 0.1205323
vn -9.938286E-05 0.9927083 0.120542
vn -4.462524E-07 0.9927074 0.1205488
vn 0 0.9927072 0.1205506
vn 0 0 1
vn 0 0 1
vn 0 0 1
vn 0 0 1
vn 0 0 1
vn 0 0 1
vn 0 0 1
vn 0 0 1
vn 1.894333E-06 0 1
vn 0 0 1
vn 0 0 1
vn 0 0 1
vn 0 0 1
vn -0.0008305656 0 0.9999996
vn -0.0008337076 0 0.9999996
vn 0 0 1
vn 0 0 -1
vn 0 0 -1
vn 0 0 -1
vn 0 0 -1
vn 0 0 -1
vn 0 0 -1
vn 0 0 -1
vn 0 0 -1
vn 0 0 -1
vn 0 0 -1
vn 0 0 -1
vn 0 0 -1
vn 0.0008364053 0 -0.9999996
vn 0.0008358408 0 -0.9999996
vn 0 0 -1
vn 0 0 -1
vn 4.240899E-07 0 1
vn 0 0 1
vn 0 0 1
vn 0 0 1
vn 7.01719E-07 0 1
vn -0.0005233121 0 0.9999999
vn 3.512172E-07 0 1
vn -0.0004788418 0 0.9999999
vn 4.391183E-06 0 1
vn -0.0006419066 0 0.9999999
vn -6.541567E-07 0 1
vn -0.0005316904 0 0.9999999
vn -0.0005282706 0 0.9999999
vn -1.766288E-06 0 1
vn -0.0006426565 0 0.9999999
vn 1.51715E-06 0 1
vn -0.0004795756 0 0.9999999
vn 3.514099E-07 0 1
vn -0.0005249834 0 0.9999999
vn 7.004958E-07 0 1
vn -1.216979E-06 0 1
vn 0 0 1
vn -2.262715E-07 0 1
vn -2.241673E-07 0 1
vn 0 -0.7723348 0.6352158
vn 0 -1 0
vn 0 -1 0
vn 0 -1 0
vn 0 -1 0
vn 0 -1 0
vn 0 -1 0
vn 0.7589673 0 0.6511288
vn 1 0 0
vn 1 0 0
vn 1 0 0
vn 1 0 0
vn 1 0 0
vn 1 0 0
vn 1 0 0
vn 1 0 0
vn 0 0.7690814 0.6391509
vn 0 0.7690814 0.6391509
vn 0 0.7690814 0.6391509
vn 0 1 0
vn 0 1 0
vn 0 1 0
vn 0 1 0
vn 0 1 0
vn 0 1 0
vn -0.7682513 0 0.6401483
vn -0.7682513 0 0.6401483
vn -1 0 0
vn -1 0 0
vn -1 0 0
vn -1 0 0
vn -1 0 0
vn -1 0 0
vn -1 0 0
vn 0.9927101 0 0.120526
vn 0 -0.992709 0.1205348
vn -0.992708 0 0.1205437
vn 1.804584E-06 0.9927089 0.1205357
vn 1.804584E-06 0.9927089 0.1205357
vn 1.804584E-06 0.9927089 0.1205357
vn 0 0 1
vn 0 0 1
vn 0 0 1
vn 0 0 1
vn 0 0 1
vn 0 0 1
vn 0 0 1
vn 0 0 1
vn 1.894333E-06 0 1
vn 0 0 1
vn 0 0 1
vn 0 0 1
vn 0 0 1
vn 0 0 1
vn 0 0 -1
vn 0 0 -1
vn 0 0 -1
vn 0 0 -1
vn 0 0 -1
vn 0 0 -1
vn 0 0 -1
vn 0 0 -1
vn 0 0 -1
vn 0 0 -1
vn 0 0 -1
vn 0 0 -1
vn 0 0 -1
vn 0 0 -1
vn 0 0 1
vn 0 0 1
vn 0 0 1
vn 1.51715E-06 0 1
vn 0 0 1
usemtl WhiteWoodClean
f 3/3/3 2/2/2 1/1/1
f 2/2/2 4/4/4 1/1/1
f 4/4/4 2/2/2 5/5/5
f 6/6/6 4/4/4 5/5/5
f 5/5/5 7/7/7 6/6/6
f 7/7/7 8/8/8 6/6/6
f 11/11/11 10/10/10 9/9/9
f 10/10/10 12/12/12 9/9/9
f 9/9/9 12/12/12 13/13/13
f 14/14/14 9/9/9 13/13/13
f 14/14/14 13/13/13 15/15/15
f 13/13/13 16/16/16 15/15/15
f 19/19/19 18/18/18 17/17/17
f 18/18/18 20/20/20 17/17/17
f 20/20/20 18/18/18 21/21/21
f 22/22/22 20/20/20 21/21/21
f 21/21/21 23/23/23 22/22/22
f 23/23/23 24/24/24 22/22/22
f 27/27/27 26/26/26 25/25/25
f 26/26/26 28/28/28 25/25/25
f 25/25/25 28/28/28 29/29/29
f 30/30/30 25/25/25 29/29/29
f 30/30/30 29/29/29 31/31/31
f 29/29/29 32/32/32 31/31/31
f 35/35/35 34/34/34 33/33/33
f 36/36/36 35/35/35 33/33/33
f 36/36/36 33/33/33 37/37/37
f 38/38/38 36/36/36 37/37/37
f 38/38/38 37/37/37 39/39/39
f 40/40/40 38/38/38 39/39/39
f 43/43/43 42/42/42 41/41/41
f 42/42/42 44/44/44 41/41/41
f 41/41/41 44/44/44 45/45/45
f 46/46/46 41/41/41 45/45/45
f 46/46/46 45/45/45 47/47/47
f 45/45/45 48/48/48 47/47/47
f 51/51/51 50/50/50 49/49/49
f 52/52/52 51/51/51 49/49/49
f 52/52/52 49/49/49 53/53/53
f 54/54/54 52/52/52 53/53/53
f 53/53/53 55/55/55 54/54/54
f 55/55/55 56/56/56 54/54/54
f 59/59/59 58/58/58 57/57/57
f 60/60/60 59/59/59 57/57/57
f 60/60/60 61/61/61 59/59/59
f 61/61/61 62/62/62 59/59/59
f 63/63/63 62/62/62 61/61/61
f 64/64/64 63/63/63 61/61/61
f 67/67/67 66/66/66 65/65/65
f 66/66/66 68/68/68 65/65/65
f 68/68/68 66/66/66 69/69/69
f 70/70/70 68/68/68 69/69/69
f 69/69/69 71/71/71 70/70/70
f 71/71/71 72/72/72 70/70/70
f 75/75/75 74/74/74 73/73/73
f 74/74/74 76/76/76 73/73/73
f 73/73/73 76/76/76 77/77/77
f 78/78/78 73/73/73 77/77/77
f 78/78/78 77/77/77 79/79/79
f 77/77/77 80/80/80 79/79/79
f 83/83/83 82/82/82 81/81/81
f 84/84/84 83/83/83 81/81/81
f 84/84/84 81/81/81 85/85/85
f 86/86/86 84/84/84 85/85/85
f 86/86/86 85/85/85 87/87/87
f 88/88/88 86/86/86 87/87/87
f 91/91/91 90/90/90 89/89/89
f 92/92/92 91/91/91 89/89/89
f 92/92/92 93/93/93 91/91/91
f 93/93/93 94/94/94 91/91/91
f 95/95/95 94/94/94 93/93/93
f 96/96/96 95/95/95 93/93/93
f 99/99/99 98/98/98 97/97/97
f 100/100/100 99/99/99 97/97/97
f 100/100/100 97/97/97 101/101/101
f 102/102/102 100/100/100 101/101/101
f 102/102/102 101/101/101 103/103/103
f 104/104/104 102/102/102 103/103/103
f 107/107/107 106/106/106 105/105/105
f 108/108/108 107/107/107 105/105/105
f 107/107/107 108/108/108 109/109/109
f 110/110/110 107/107/107 109/109/109
f 111/111/111 110/110/110 109/109/109
f 112/112/112 111/111/111 109/109/109
f 115/115/115 114/114/114 113/113/113
f 116/116/116 115/115/115 113/113/113
f 116/116/116 113/113/113 117/117/117
f 118/118/118 116/116/116 117/117/117
f 118/118/118 117/117/117 119/119/119
f 120/120/120 118/118/118 119/119/119
f 123/123/123 122/122/122 121/121/121
f 124/124/124 123/123/123 121/121/121
f 124/124/124 125/125/125 123/123/123
f 125/125/125 126/126/126 123/123/123
f 127/127/127 126/126/126 125/125/125
f 128/128/128 127/127/127 125/125/125
f 131/131/131 130/130/130 129/129/129
f 130/130/130 132/132/132 129/129/129
f 132/132/132 130/130/130 133/133/133
f 129/129/129 132/132/132 134/134/134
f 135/135/135 129/129/129 134/134/134
f 135/135/135 134/134/134 136/136/136
f 134/134/134 137/137/137 136/136/136
f 138/138/138 132/132/132 133/133/133
f 132/132/132 138/138/138 134/134/134
f 133/133/133 139/139/139 138/138/138
f 139/139/139 140/140/140 138/138/138
f 138/138/138 140/140/140 141/141/141
f 137/137/137 134/134/134 142/142/142
f 138/138/138 142/142/142 134/134/134
f 142/142/142 138/138/138 141/141/141
f 143/143/143 137/137/137 142/142/142
f 142/142/142 141/141/141 143/143/143
f 141/141/141 144/144/144 143/143/143
f 147/147/147 146/146/146 145/145/145
f 146/146/146 148/148/148 145/145/145
f 148/148/148 146/146/146 149/149/149
f 145/145/145 148/148/148 150/150/150
f 151/151/151 145/145/145 150/150/150
f 151/151/151 150/150/150 152/152/152
f 150/150/150 153/153/153 152/152/152
f 154/154/154 148/148/148 149/149/149
f 148/148/148 154/154/154 150/150/150
f 149/149/149 155/155/155 154/154/154
f 155/155/155 156/156/156 154/154/154
f 156/156/156 157/157/157 154/154/154
f 150/150/150 158/158/158 153/153/153
f 154/154/154 158/158/158 150/150/150
f 157/157/157 158/158/158 154/154/154
f 158/158/158 159/159/159 153/153/153
f 158/158/158 157/157/157 159/159/159
f 157/157/157 160/160/160 159/159/159
f 163/163/163 162/162/162 161/161/161
f 164/164/164 163/163/163 161/161/161
f 162/162/162 163/163/163 165/165/165
f 164/164/164 161/161/161 166/166/166
f 167/167/167 162/162/162 165/165/165
f 168/168/168 164/164/164 166/166/166
f 165/165/165 169/169/169 167/167/167
f 168/168/168 166/166/166 170/170/170
f 169/169/169 171/171/171 167/167/167
f 172/172/172 168/168/168 170/170/170
f 169/169/169 173/173/173 171/171/171
f 172/172/172 170/170/170 174/174/174
f 173/173/173 175/175/175 171/171/171
f 176/176/176 172/172/172 174/174/174
f 173/173/173 177/177/177 175/175/175
f 176/176/176 174/174/174 178/178/178
f 177/177/177 179/179/179 175/175/175
f 180/180/180 176/176/176 178/178/178
f 177/177/177 181/181/181 179/179/179
f 180/180/180 178/178/178 182/182/182
f 181/181/181 183/183/183 179/179/179
f 184/184/184 180/180/180 182/182/182
f 181/181/181 184/184/184 183/183/183
f 184/184/184 182/182/182 183/183/183
