mtllib material.mtl
usemtl material_0
v 0.32551000 0.01488000 -0.00949000
v 0.32551000 -0.01487000 -0.00949000
v 0.32551000 -0.01487000 0.00136000
v 0.32551000 0.01488000 0.00136000
v 0.32408000 -0.01320000 0.00296000
v 0.32408000 0.01321000 0.00296000
v 0.10431000 -0.01487000 0.06234000
v 0.10431000 -0.01487000 0.07311000
v 0.15982000 -0.01487000 0.06085000
v 0.15982000 -0.01487000 0.05012000
v 0.21437000 -0.01487000 0.04518000
v 0.21437000 -0.01487000 0.03432000
v 0.04651000 -0.01487000 0.06810000
v 0.04651000 -0.01487000 0.07894000
v 0.00000000 -0.01487000 0.06810000
v 0.00000000 -0.01487000 0.07894000
v -0.04650000 -0.01487000 0.07894000
v -0.04650000 -0.01487000 0.06810000
v -0.10430000 -0.01487000 0.07311000
v -0.10430000 -0.01487000 0.06234000
v 0.27038000 -0.01487000 0.02530000
v 0.27038000 -0.01487000 0.01440000
v 0.32551000 -0.01487000 0.00136000
v 0.32551000 -0.01487000 -0.00949000
v -0.15981000 -0.01487000 0.06085000
v -0.15981000 -0.01487000 0.05012000
v -0.21436000 -0.01487000 0.04518000
v -0.21436000 -0.01487000 0.03432000
v -0.27037000 -0.01487000 0.02530000
v -0.27037000 -0.01487000 0.01440000
v -0.32550000 -0.01487000 0.00136000
v -0.32550000 -0.01487000 -0.00949000
v 0.21437000 -0.01487000 0.04518000
v 0.27037000 -0.01320000 0.02650000
v 0.27038000 -0.01487000 0.02530000
v 0.21479000 -0.01320000 0.04629000
v 0.15982000 -0.01487000 0.06085000
v 0.15986000 -0.01320000 0.06211000
v 0.10431000 -0.01487000 0.07311000
v 0.10457000 -0.01320000 0.07430000
v 0.04651000 -0.01487000 0.07894000
v 0.04656000 -0.01320000 0.08015000
v 0.00000000 -0.01320000 0.08015000
v 0.00000000 -0.01487000 0.07894000
v -0.04650000 -0.01487000 0.07894000
v -0.04655000 -0.01320000 0.08015000
v -0.10456000 -0.01320000 0.07430000
v -0.10430000 -0.01487000 0.07311000
v -0.15985000 -0.01320000 0.06211000
v -0.15981000 -0.01487000 0.06085000
v 0.27037000 0.01321000 0.02650000
v 0.21479000 -0.01320000 0.04629000
v 0.21479000 0.01321000 0.04629000
v 0.27037000 -0.01320000 0.02650000
v 0.32408000 0.01321000 0.00296000
v 0.32408000 -0.01320000 0.00296000
v 0.15986000 0.01321000 0.06211000
v 0.10457000 -0.01320000 0.07430000
v 0.10457000 0.01321000 0.07430000
v 0.15986000 -0.01320000 0.06211000
v 0.27038000 0.01488000 0.01440000
v 0.32551000 -0.01487000 -0.00949000
v 0.32551000 0.01488000 -0.00949000
v 0.27038000 -0.01487000 0.01440000
v 0.21437000 0.01488000 0.03432000
v 0.21437000 -0.01487000 0.03432000
v 0.15982000 0.01488000 0.05012000
v 0.15982000 -0.01487000 0.05012000
v 0.10431000 0.01488000 0.06234000
v 0.10431000 -0.01487000 0.06234000
v 0.04651000 0.01488000 0.06810000
v 0.04651000 -0.01487000 0.06810000
v 0.00000000 0.01488000 0.06810000
v 0.00000000 -0.01487000 0.06810000
v -0.04650000 0.01488000 0.06810000
v -0.04650000 -0.01487000 0.06810000
v -0.10430000 0.01488000 0.06234000
v -0.10430000 -0.01487000 0.06234000
v -0.15981000 0.01488000 0.05012000
v -0.15981000 -0.01487000 0.05012000
v -0.21436000 0.01488000 0.03432000
v -0.21436000 -0.01487000 0.03432000
v -0.27037000 0.01488000 0.01440000
v -0.27037000 -0.01487000 0.01440000
v -0.32550000 0.01488000 -0.00949000
v -0.32550000 -0.01487000 -0.00949000
v 0.15982000 0.01488000 0.06085000
v 0.15982000 0.01488000 0.05012000
v 0.21437000 0.01488000 0.03432000
v 0.21437000 0.01488000 0.04518000
v 0.27038000 0.01488000 0.01440000
v 0.27038000 0.01488000 0.02530000
v 0.32551000 0.01488000 -0.00949000
v 0.32551000 0.01488000 0.00136000
v 0.10431000 0.01488000 0.07307000
v 0.10431000 0.01488000 0.06234000
v 0.04651000 0.01488000 0.07894000
v 0.04651000 0.01488000 0.06810000
v 0.00000000 0.01488000 0.07894000
v 0.00000000 0.01488000 0.06810000
v -0.04650000 0.01488000 0.06810000
v -0.04650000 0.01488000 0.07894000
v -0.10430000 0.01488000 0.06234000
v -0.10430000 0.01488000 0.07307000
v -0.15981000 0.01488000 0.05012000
v -0.15981000 0.01488000 0.06085000
v -0.21436000 0.01488000 0.03432000
v -0.21436000 0.01488000 0.04518000
v -0.27037000 0.01488000 0.01440000
v -0.27037000 0.01488000 0.02530000
v -0.32550000 0.01488000 0.00136000
v -0.32550000 0.01488000 -0.00949000
v 0.04656000 -0.01320000 0.08015000
v 0.04656000 0.01321000 0.08015000
v 0.00000000 -0.01320000 0.08015000
v 0.00000000 0.01321000 0.08015000
v -0.04655000 -0.01320000 0.08015000
v -0.04655000 0.01321000 0.08015000
v -0.10456000 0.01321000 0.07430000
v -0.10456000 -0.01320000 0.07430000
v 0.32408000 -0.01320000 0.00296000
v 0.32551000 -0.01487000 0.00136000
v 0.32551000 0.01488000 0.00136000
v 0.32408000 0.01321000 0.00296000
v 0.27037000 0.01321000 0.02650000
v 0.27038000 0.01488000 0.02530000
v 0.21479000 0.01321000 0.04629000
v 0.21437000 0.01488000 0.04518000
v 0.15986000 0.01321000 0.06211000
v 0.15982000 0.01488000 0.06085000
v 0.10457000 0.01321000 0.07430000
v 0.10431000 0.01488000 0.07307000
v 0.04656000 0.01321000 0.08015000
v 0.04651000 0.01488000 0.07894000
v 0.00000000 0.01321000 0.08015000
v 0.00000000 0.01488000 0.07894000
v -0.04650000 0.01488000 0.07894000
v -0.04655000 0.01321000 0.08015000
v -0.10430000 0.01488000 0.07307000
v -0.10456000 0.01321000 0.07430000
v -0.15981000 0.01488000 0.06085000
v -0.15985000 0.01321000 0.06211000
v -0.21436000 0.01488000 0.04518000
v -0.21478000 0.01321000 0.04629000
v -0.27037000 0.01488000 0.02530000
v -0.27036000 0.01321000 0.02650000
v -0.32550000 0.01488000 0.00136000
v -0.32407000 0.01321000 0.00296000
v -0.32550000 0.01488000 0.00136000
v -0.32550000 -0.01487000 -0.00949000
v -0.32550000 0.01488000 -0.00949000
v -0.32550000 -0.01487000 0.00136000
v -0.32407000 0.01321000 0.00296000
v -0.32407000 -0.01320000 0.00296000
v -0.21436000 -0.01487000 0.04518000
v -0.27037000 -0.01487000 0.02530000
v -0.27036000 -0.01320000 0.02650000
v -0.21478000 -0.01320000 0.04629000
v -0.21478000 0.01321000 0.04629000
v -0.21478000 -0.01320000 0.04629000
v -0.27036000 -0.01320000 0.02650000
v -0.27036000 0.01321000 0.02650000
v -0.32407000 -0.01320000 0.00296000
v -0.32407000 0.01321000 0.00296000
v -0.15985000 -0.01320000 0.06211000
v -0.15985000 0.01321000 0.06211000
v -0.32550000 -0.01487000 0.00136000
v -0.32407000 -0.01320000 0.00296000
vn 1.00000000 0.00000000 0.00000000
vn 1.00000000 0.00000000 0.00000000
vn 0.98040590 -0.07795328 0.18090770
vn 0.98040590 0.07795413 0.18090710
vn 0.41918340 -0.05031384 0.90650640
vn 0.41918360 0.05031441 0.90650630
vn 0.00000000 -1.00000000 0.00000000
vn 0.00000000 -1.00000000 0.00000000
vn 0.00000000 -1.00000000 0.00000017
vn 0.00000000 -1.00000000 0.00000038
vn 0.00000000 -1.00000000 0.00000019
vn 0.00000000 -1.00000000 -0.00000018
vn 0.00000000 -1.00000000 0.00000021
vn 0.00000000 -1.00000000 0.00000020
vn 0.00000000 -1.00000000 0.00000000
vn 0.00000000 -1.00000000 0.00000000
vn 0.00000000 -1.00000000 0.00000000
vn 0.00000000 -1.00000000 0.00000000
vn 0.00000000 -1.00000000 -0.00000056
vn 0.00000000 -1.00000000 -0.00000069
vn 0.00000000 -1.00000000 -0.00000057
vn 0.00000000 -1.00000000 -0.00000035
vn 0.00000000 -1.00000000 0.00000000
vn 0.00000000 -1.00000000 0.00000000
vn 0.00000000 -1.00000000 -0.00000075
vn 0.00000000 -1.00000000 -0.00000054
vn 0.00000000 -1.00000000 0.00000051
vn 0.00000000 -1.00000000 0.00000076
vn 0.00000000 -1.00000000 0.00000078
vn 0.00000000 -1.00000000 0.00000048
vn 0.00000000 -1.00000000 0.00000000
vn 0.00000000 -1.00000000 0.00000000
vn 0.25001340 -0.57576420 0.77845290
vn 0.36795820 -0.03864012 0.92903910
vn 0.31363240 -0.53819630 0.78229110
vn 0.30642040 -0.04148166 0.95099200
vn 0.20132500 -0.58661760 0.78444120
vn 0.24595430 -0.04269773 0.96834050
vn 0.12623540 -0.58962230 0.79775320
vn 0.15719790 -0.04258001 0.98664870
vn 0.04536549 -0.58652930 0.80865650
vn 0.05578984 -0.04229984 0.99754600
vn 0.00000000 -0.04298858 0.99907550
vn 0.00000000 -0.58552410 0.81065510
vn -0.04536529 -0.58652800 0.80865750
vn -0.05578981 -0.04229977 0.99754600
vn -0.15719790 -0.04258010 0.98664870
vn -0.12623470 -0.58962180 0.79775370
vn -0.24595440 -0.04269792 0.96834050
vn -0.20132450 -0.58661730 0.78444160
vn 0.36795840 0.03864037 0.92903910
vn 0.30642040 -0.04148166 0.95099200
vn 0.30642050 0.04148176 0.95099200
vn 0.36795820 -0.03864012 0.92903910
vn 0.41918360 0.05031441 0.90650630
vn 0.41918340 -0.05031384 0.90650640
vn 0.24594240 0.04300643 0.96832990
vn 0.15719790 -0.04258001 0.98664870
vn 0.15718760 0.04313835 0.98662610
vn 0.24595430 -0.04269773 0.96834050
vn -0.36678450 0.00000000 -0.93030600
vn -0.39774950 0.00000000 -0.91749410
vn -0.39774950 0.00000000 -0.91749410
vn -0.36678450 0.00000000 -0.93030600
vn -0.30738020 0.00000000 -0.95158680
vn -0.30738020 0.00000000 -0.95158680
vn -0.24673610 0.00000000 -0.96908280
vn -0.24673610 0.00000000 -0.96908280
vn -0.15678770 0.00000000 -0.98763230
vn -0.15678770 0.00000000 -0.98763230
vn -0.05515100 0.00000000 -0.99847800
vn -0.05515100 0.00000000 -0.99847800
vn 0.00000000 0.00000000 -1.00000000
vn 0.00000000 0.00000000 -1.00000000
vn 0.05515102 0.00000000 -0.99847800
vn 0.05515102 0.00000000 -0.99847800
vn 0.15678770 0.00000000 -0.98763230
vn 0.15678770 0.00000000 -0.98763230
vn 0.24673610 0.00000000 -0.96908280
vn 0.24673610 0.00000000 -0.96908280
vn 0.30738000 0.00000000 -0.95158680
vn 0.30738000 0.00000000 -0.95158680
vn 0.36678440 0.00000000 -0.93030600
vn 0.36678440 0.00000000 -0.93030600
vn 0.39774980 0.00000000 -0.91749400
vn 0.39774980 0.00000000 -0.91749400
vn 0.00000000 1.00000000 0.00000000
vn 0.00000000 1.00000000 0.00000000
vn 0.00000000 1.00000000 0.00000029
vn 0.00000000 1.00000000 0.00000019
vn 0.00000000 1.00000000 -0.00000011
vn 0.00000000 1.00000000 0.00000012
vn 0.00000000 1.00000000 -0.00000048
vn 0.00000000 1.00000000 -0.00000048
vn 0.00000000 1.00000000 0.00000000
vn 0.00000000 1.00000000 0.00000000
vn 0.00000000 1.00000000 0.00000000
vn 0.00000000 1.00000000 0.00000000
vn 0.00000000 1.00000000 0.00000000
vn 0.00000000 1.00000000 0.00000000
vn 0.00000000 1.00000000 0.00000000
vn 0.00000000 1.00000000 0.00000000
vn 0.00000000 1.00000000 0.00000000
vn 0.00000000 1.00000000 0.00000000
vn 0.00000000 1.00000000 0.00000000
vn 0.00000000 1.00000000 0.00000000
vn 0.00000000 1.00000000 0.00000000
vn 0.00000000 1.00000000 0.00000000
vn 0.00000000 1.00000000 0.00000078
vn 0.00000000 1.00000000 0.00000048
vn 0.00000000 1.00000000 0.00000127
vn 0.00000000 1.00000000 0.00000127
vn 0.05578984 -0.04229984 0.99754600
vn 0.05579835 0.04262197 0.99753190
vn 0.00000000 -0.04298858 0.99907550
vn 0.00000000 0.04298854 0.99907550
vn -0.05578981 -0.04229977 0.99754600
vn -0.05579832 0.04262196 0.99753190
vn -0.15718770 0.04313840 0.98662610
vn -0.15719790 -0.04258010 0.98664870
vn 0.41918340 -0.05031384 0.90650640
vn 0.98040590 -0.07795328 0.18090770
vn 0.98040590 0.07795413 0.18090710
vn 0.41918360 0.05031441 0.90650630
vn 0.36795840 0.03864037 0.92903910
vn 0.31363270 0.53820030 0.78228840
vn 0.30642050 0.04148176 0.95099200
vn 0.25001450 0.57576690 0.77845060
vn 0.24594240 0.04300643 0.96832990
vn 0.20079110 0.58899550 0.78279450
vn 0.15718760 0.04313835 0.98662610
vn 0.12572850 0.59478600 0.79399110
vn 0.05579835 0.04262197 0.99753190
vn 0.04537904 0.58946730 0.80651660
vn 0.00000000 0.04298854 0.99907550
vn 0.00000000 0.58552210 0.81065640
vn -0.04537893 0.58946620 0.80651750
vn -0.05579832 0.04262196 0.99753190
vn -0.12572790 0.59478690 0.79399070
vn -0.15718770 0.04313840 0.98662610
vn -0.20079050 0.58899460 0.78279540
vn -0.24594240 0.04300642 0.96832990
vn -0.25001310 0.57576600 0.77845160
vn -0.30642030 0.04148183 0.95099200
vn -0.31363320 0.53820110 0.78228750
vn -0.36795840 0.03864044 0.92903910
vn -0.98040600 0.07795370 0.18090650
vn -0.41918390 0.05031418 0.90650610
vn -0.98040600 0.07795370 0.18090650
vn -1.00000000 0.00000000 0.00000000
vn -1.00000000 0.00000000 0.00000000
vn -0.98040620 -0.07795354 0.18090630
vn -0.41918390 0.05031418 0.90650610
vn -0.41918390 -0.05031407 0.90650610
vn -0.25001300 -0.57576600 0.77845170
vn -0.31363320 -0.53820100 0.78228750
vn -0.36795840 -0.03864035 0.92903910
vn -0.30642040 -0.04148181 0.95099200
vn -0.30642030 0.04148183 0.95099200
vn -0.30642040 -0.04148181 0.95099200
vn -0.36795840 -0.03864035 0.92903910
vn -0.36795840 0.03864044 0.92903910
vn -0.41918390 -0.05031407 0.90650610
vn -0.41918390 0.05031418 0.90650610
vn -0.24595440 -0.04269792 0.96834050
vn -0.24594240 0.04300642 0.96832990
vn -0.98040620 -0.07795354 0.18090630
vn -0.41918390 -0.05031407 0.90650610
vt 10.93053000 0.03133728
vt 10.93053000 0.00761375
vt 10.92188000 0.00761375
vt 10.92188000 0.03133728
vt 10.92061000 0.00894821
vt 10.92061000 0.03000285
vt 10.77980000 0.29993720
vt 10.78852000 0.29993720
vt 10.77860000 0.25496610
vt 10.76990000 0.25496610
vt 10.76590000 0.21077360
vt 10.75710000 0.21077350
vt 10.78447000 0.34677070
vt 10.79325000 0.34677070
vt 10.78447000 0.38444370
vt 10.79325000 0.38444370
vt 10.79325000 0.42211670
vt 10.78447000 0.42211670
vt 10.78852000 0.46895020
vt 10.77980000 0.46895020
vt 10.74979000 0.16539630
vt 10.74096000 0.16539590
vt 10.73039000 0.12073280
vt 10.72160000 0.12073280
vt 10.77860000 0.51392130
vt 10.76990000 0.51392130
vt 10.76590000 0.55811380
vt 10.75710000 0.55811390
vt 10.74979000 0.60349120
vt 10.74096000 0.60349150
vt 10.73039000 0.64815460
vt 10.72160000 0.64815460
vt 10.76590000 0.21077360
vt 10.75077000 0.16539890
vt 10.74979000 0.16539630
vt 10.76679000 0.21042720
vt 10.77860000 0.25496610
vt 10.77961000 0.25493130
vt 10.78852000 0.29993720
vt 10.78949000 0.29972740
vt 10.79325000 0.34677070
vt 10.79423000 0.34672980
vt 10.79423000 0.38444370
vt 10.79325000 0.38444370
vt 10.79325000 0.42211670
vt 10.79423000 0.42215760
vt 10.78949000 0.46916000
vt 10.78852000 0.46895020
vt 10.77961000 0.51395610
vt 10.77860000 0.51392130
vt 10.84241000 0.16760790
vt 10.82139000 0.21183900
vt 10.84241000 0.21183900
vt 10.82139000 0.16760790
vt 10.84241000 0.12486350
vt 10.82139000 0.12486350
vt 10.84241000 0.25555510
vt 10.82139000 0.29955790
vt 10.84241000 0.29955790
vt 10.82139000 0.25555510
vt 10.66899000 0.16928100
vt 10.69268000 0.12540990
vt 10.66899000 0.12540990
vt 10.69268000 0.16928100
vt 10.66899000 0.21385370
vt 10.69268000 0.21385370
vt 10.66899000 0.25726250
vt 10.69268000 0.25726250
vt 10.66899000 0.30143590
vt 10.69268000 0.30143590
vt 10.66899000 0.34743890
vt 10.69268000 0.34743890
vt 10.66899000 0.38444370
vt 10.69268000 0.38444370
vt 10.66899000 0.42144850
vt 10.69268000 0.42144850
vt 10.66899000 0.46745140
vt 10.69268000 0.46745140
vt 10.66899000 0.51162490
vt 10.69268000 0.51162490
vt 10.66899000 0.55503370
vt 10.69268000 0.55503370
vt 10.66899000 0.59960650
vt 10.69268000 0.59960650
vt 10.66899000 0.64347740
vt 10.69268000 0.64347740
vt 10.58421000 0.25499010
vt 10.59291000 0.25499010
vt 10.60570000 0.21080570
vt 10.59691000 0.21080580
vt 10.62184000 0.16543660
vt 10.61301000 0.16543690
vt 10.64119000 0.12078170
vt 10.63240000 0.12078170
vt 10.57431000 0.29995280
vt 10.58300000 0.29995290
vt 10.56956000 0.34677770
vt 10.57834000 0.34677770
vt 10.56956000 0.38444370
vt 10.57834000 0.38444370
vt 10.57834000 0.42210970
vt 10.56956000 0.42210970
vt 10.58300000 0.46893450
vt 10.57431000 0.46893450
vt 10.59291000 0.51389720
vt 10.58421000 0.51389720
vt 10.60570000 0.55808170
vt 10.59691000 0.55808160
vt 10.62184000 0.60345090
vt 10.61301000 0.60345050
vt 10.63240000 0.64810560
vt 10.64119000 0.64810560
vt 10.82139000 0.34572800
vt 10.84241000 0.34572800
vt 10.82139000 0.38277410
vt 10.84241000 0.38277410
vt 10.82139000 0.41982020
vt 10.84241000 0.41982020
vt 10.84241000 0.46599040
vt 10.82139000 0.46599040
vt 10.73169000 0.12188400
vt 10.73039000 0.12073280
vt 10.63240000 0.12078170
vt 10.63111000 0.12193270
vt 10.61204000 0.16543950
vt 10.61301000 0.16543690
vt 10.59601000 0.21045950
vt 10.59691000 0.21080580
vt 10.58319000 0.25495540
vt 10.58421000 0.25499010
vt 10.57332000 0.29974310
vt 10.57431000 0.29995280
vt 10.56858000 0.34673680
vt 10.56956000 0.34677770
vt 10.56858000 0.38444370
vt 10.56956000 0.38444370
vt 10.56956000 0.42210970
vt 10.56858000 0.42215060
vt 10.57431000 0.46893450
vt 10.57332000 0.46914430
vt 10.58421000 0.51389720
vt 10.58319000 0.51393200
vt 10.59691000 0.55808160
vt 10.59601000 0.55842790
vt 10.61301000 0.60345050
vt 10.61204000 0.60344790
vt 10.63240000 0.64810560
vt 10.63111000 0.64695470
vt 10.90889000 0.27054560
vt 10.90025000 0.24683400
vt 10.90025000 0.27054560
vt 10.90889000 0.24683400
vt 10.91017000 0.26921180
vt 10.91017000 0.24816780
vt 10.76590000 0.55811380
vt 10.74979000 0.60349120
vt 10.75077000 0.60348850
vt 10.76679000 0.55846010
vt 10.84241000 0.55370930
vt 10.82139000 0.55370930
vt 10.82139000 0.59794040
vt 10.84241000 0.59794040
vt 10.82139000 0.64068480
vt 10.84241000 0.64068480
vt 10.82139000 0.50999330
vt 10.84241000 0.50999330
vt 10.73039000 0.64815460
vt 10.73169000 0.64700340
f 3/3/3 2/2/2 1/1/1
f 4/4/4 3/3/3 1/1/1
f 5/5/5 3/3/3 4/4/4
f 6/6/6 5/5/5 4/4/4
f 9/9/9 8/8/8 7/7/7
f 10/10/10 9/9/9 7/7/7
f 9/9/9 10/10/10 11/11/11
f 10/10/10 12/12/12 11/11/11
f 13/13/13 7/7/7 8/8/8
f 14/14/14 13/13/13 8/8/8
f 15/15/15 13/13/13 14/14/14
f 16/16/16 15/15/15 14/14/14
f 15/15/15 16/16/16 17/17/17
f 18/18/18 15/15/15 17/17/17
f 18/18/18 17/17/17 19/19/19
f 20/20/20 18/18/18 19/19/19
f 21/21/21 11/11/11 12/12/12
f 22/22/22 21/21/21 12/12/12
f 21/21/21 22/22/22 23/23/23
f 22/22/22 24/24/24 23/23/23
f 19/19/19 25/25/25 20/20/20
f 25/25/25 26/26/26 20/20/20
f 26/26/26 25/25/25 27/27/27
f 28/28/28 26/26/26 27/27/27
f 27/27/27 29/29/29 28/28/28
f 29/29/29 30/30/30 28/28/28
f 30/30/30 29/29/29 31/31/31
f 32/32/32 30/30/30 31/31/31
f 35/35/35 34/34/34 33/33/33
f 34/34/34 36/36/36 33/33/33
f 33/33/33 36/36/36 37/37/37
f 36/36/36 38/38/38 37/37/37
f 37/37/37 38/38/38 39/39/39
f 38/38/38 40/40/40 39/39/39
f 39/39/39 40/40/40 41/41/41
f 40/40/40 42/42/42 41/41/41
f 41/41/41 42/42/42 43/43/43
f 44/44/44 41/41/41 43/43/43
f 45/45/45 44/44/44 43/43/43
f 46/46/46 45/45/45 43/43/43
f 46/46/46 47/47/47 45/45/45
f 47/47/47 48/48/48 45/45/45
f 47/47/47 49/49/49 48/48/48
f 49/49/49 50/50/50 48/48/48
f 53/53/53 52/52/52 51/51/51
f 52/52/52 54/54/54 51/51/51
f 51/51/51 54/54/54 55/55/55
f 54/54/54 56/56/56 55/55/55
f 59/59/59 58/58/58 57/57/57
f 58/58/58 60/60/60 57/57/57
f 57/57/57 60/60/60 53/53/53
f 60/60/60 52/52/52 53/53/53
f 63/63/63 62/62/62 61/61/61
f 62/62/62 64/64/64 61/61/61
f 61/61/61 64/64/64 65/65/65
f 64/64/64 66/66/66 65/65/65
f 65/65/65 66/66/66 67/67/67
f 66/66/66 68/68/68 67/67/67
f 67/67/67 68/68/68 69/69/69
f 68/68/68 70/70/70 69/69/69
f 69/69/69 70/70/70 71/71/71
f 70/70/70 72/72/72 71/71/71
f 71/71/71 72/72/72 73/73/73
f 72/72/72 74/74/74 73/73/73
f 73/73/73 74/74/74 75/75/75
f 74/74/74 76/76/76 75/75/75
f 75/75/75 76/76/76 77/77/77
f 76/76/76 78/78/78 77/77/77
f 77/77/77 78/78/78 79/79/79
f 78/78/78 80/80/80 79/79/79
f 79/79/79 80/80/80 81/81/81
f 80/80/80 82/82/82 81/81/81
f 81/81/81 82/82/82 83/83/83
f 82/82/82 84/84/84 83/83/83
f 83/83/83 84/84/84 85/85/85
f 84/84/84 86/86/86 85/85/85
f 89/89/89 88/88/88 87/87/87
f 90/90/90 89/89/89 87/87/87
f 89/89/89 90/90/90 91/91/91
f 90/90/90 92/92/92 91/91/91
f 93/93/93 91/91/91 92/92/92
f 94/94/94 93/93/93 92/92/92
f 95/95/95 87/87/87 88/88/88
f 96/96/96 95/95/95 88/88/88
f 95/95/95 96/96/96 97/97/97
f 96/96/96 98/98/98 97/97/97
f 97/97/97 98/98/98 99/99/99
f 98/98/98 100/100/100 99/99/99
f 100/100/100 101/101/101 99/99/99
f 101/101/101 102/102/102 99/99/99
f 101/101/101 103/103/103 102/102/102
f 103/103/103 104/104/104 102/102/102
f 104/104/104 103/103/103 105/105/105
f 106/106/106 104/104/104 105/105/105
f 105/105/105 107/107/107 106/106/106
f 107/107/107 108/108/108 106/106/106
f 108/108/108 107/107/107 109/109/109
f 110/110/110 108/108/108 109/109/109
f 112/112/112 111/111/111 110/110/110
f 109/109/109 112/112/112 110/110/110
f 113/113/113 58/58/58 59/59/59
f 114/114/114 113/113/113 59/59/59
f 115/115/115 113/113/113 114/114/114
f 116/116/116 115/115/115 114/114/114
f 117/117/117 115/115/115 116/116/116
f 118/118/118 117/117/117 116/116/116
f 118/118/118 119/119/119 117/117/117
f 119/119/119 120/120/120 117/117/117
f 121/121/121 34/34/34 35/35/35
f 122/122/122 121/121/121 35/35/35
f 125/125/125 124/124/124 123/123/123
f 126/126/126 125/125/125 123/123/123
f 127/127/127 125/125/125 126/126/126
f 128/128/128 127/127/127 126/126/126
f 129/129/129 127/127/127 128/128/128
f 130/130/130 129/129/129 128/128/128
f 131/131/131 129/129/129 130/130/130
f 132/132/132 131/131/131 130/130/130
f 133/133/133 131/131/131 132/132/132
f 134/134/134 133/133/133 132/132/132
f 135/135/135 133/133/133 134/134/134
f 136/136/136 135/135/135 134/134/134
f 135/135/135 136/136/136 137/137/137
f 138/138/138 135/135/135 137/137/137
f 138/138/138 137/137/137 139/139/139
f 140/140/140 138/138/138 139/139/139
f 140/140/140 139/139/139 141/141/141
f 142/142/142 140/140/140 141/141/141
f 142/142/142 141/141/141 143/143/143
f 144/144/144 142/142/142 143/143/143
f 144/144/144 143/143/143 145/145/145
f 146/146/146 144/144/144 145/145/145
f 146/146/146 145/145/145 147/147/147
f 148/148/148 146/146/146 147/147/147
f 151/151/151 150/150/150 149/149/149
f 150/150/150 152/152/152 149/149/149
f 149/149/149 152/152/152 153/153/153
f 152/152/152 154/154/154 153/153/153
f 157/157/157 156/156/156 155/155/155
f 158/158/158 157/157/157 155/155/155
f 158/158/158 155/155/155 50/50/50
f 49/49/49 158/158/158 50/50/50
f 161/161/161 160/160/160 159/159/159
f 162/162/162 161/161/161 159/159/159
f 163/163/163 161/161/161 162/162/162
f 164/164/164 163/163/163 162/162/162
f 165/165/165 120/120/120 119/119/119
f 166/166/166 165/165/165 119/119/119
f 160/160/160 165/165/165 166/166/166
f 159/159/159 160/160/160 166/166/166
f 168/168/168 167/167/167 156/156/156
f 157/157/157 168/168/168 156/156/156

