mtllib material.mtl
usemtl material_0
v -0.46864000 -0.37363000 0.02700000
v -0.38000000 -0.37500000 0.02541000
v -0.47000000 -0.37500000 0.02541000
v -0.37999000 -0.37368000 0.02700000
v -0.08999000 -0.37500000 0.02551000
v -0.08999000 -0.37368000 0.02711000
v 0.00001000 -0.37500000 0.02551000
v -0.00137000 -0.37363000 0.02711000
v -0.08999000 -0.37500000 0.00011000
v 0.00001000 -0.37500000 0.02551000
v 0.00001000 -0.37500000 0.00011000
v -0.08999000 -0.37500000 0.02551000
v -0.38000000 -0.37500000 0.02541000
v -0.38000000 -0.37500000 0.00001000
v -0.47000000 -0.37500000 0.00001000
v -0.47000000 -0.37500000 0.02541000
v -0.00137000 -0.37363000 0.02711000
v 0.00001000 -0.28500000 0.02551000
v 0.00001000 -0.37500000 0.02551000
v -0.00131000 -0.28500000 0.02711000
v 0.00001000 0.28500000 0.02551000
v -0.00131000 0.28500000 0.02711000
v 0.00001000 0.37501000 0.02551000
v -0.00137000 0.37368000 0.02711000
v 0.00001000 0.28500000 0.00011000
v 0.00001000 0.37501000 0.02551000
v 0.00001000 0.37501000 0.00011000
v 0.00001000 0.28500000 0.02551000
v 0.00001000 -0.28500000 0.02551000
v 0.00001000 -0.28500000 0.00011000
v 0.00001000 -0.37500000 0.00011000
v 0.00001000 -0.37500000 0.02551000
v -0.08999000 0.37501000 0.02551000
v 0.00001000 0.37501000 0.02551000
v -0.00137000 0.37368000 0.02711000
v -0.08999000 0.37365000 0.02711000
v -0.38000000 0.37501000 0.02540000
v -0.37999000 0.37365000 0.02700000
v -0.47000000 0.37501000 0.02540000
v -0.46864000 0.37368000 0.02700000
v -0.38000000 0.37501000 0.00001000
v -0.47000000 0.37501000 0.02540000
v -0.47000000 0.37501000 0.00001000
v -0.38000000 0.37501000 0.02540000
v -0.08999000 0.37501000 0.02551000
v -0.08999000 0.37501000 0.00011000
v 0.00001000 0.37501000 0.00011000
v 0.00001000 0.37501000 0.02551000
v -0.47000000 0.28501000 0.02540000
v -0.47000000 0.37501000 0.02540000
v -0.46864000 0.37368000 0.02700000
v -0.46866000 0.28501000 0.02700000
v -0.47000000 -0.28500000 0.02541000
v -0.46866000 -0.28500000 0.02700000
v -0.47000000 -0.37500000 0.02541000
v -0.46864000 -0.37363000 0.02700000
v -0.47000000 0.37501000 0.00001000
v -0.47000000 0.37501000 0.02540000
v -0.47000000 0.28501000 0.02540000
v -0.47000000 0.28501000 0.00001000
v -0.47000000 -0.28500000 0.00001000
v -0.47000000 -0.28500000 0.02541000
v -0.47000000 -0.37500000 0.02541000
v -0.47000000 -0.37500000 0.00001000
v -0.41419000 0.31920000 0.02528000
v -0.41584000 0.28500000 0.02700000
v -0.41582000 0.32083000 0.02700000
v -0.41418000 0.28501000 0.02527000
v -0.41584000 -0.28499000 0.02700000
v -0.41418000 -0.28500000 0.02527000
v -0.41582000 -0.32081000 0.02700000
v -0.41419000 -0.31919000 0.02528000
v -0.41270000 0.28501000 0.01301000
v -0.41419000 0.31920000 0.02528000
v -0.41270000 0.31771000 0.01301000
v -0.41418000 0.28501000 0.02527000
v -0.41418000 -0.28500000 0.02527000
v -0.41270000 -0.28500000 0.01301000
v -0.41270000 -0.31770000 0.01301000
v -0.41419000 -0.31919000 0.02528000
v -0.38000000 0.31919000 0.02527000
v -0.41419000 0.31920000 0.02528000
v -0.41582000 0.32083000 0.02700000
v -0.37999000 0.32085000 0.02700000
v -0.08999000 0.31919000 0.02537000
v -0.09000000 0.32085000 0.02711000
v -0.05580000 0.31920000 0.02538000
v -0.05411000 0.32083000 0.02711000
v -0.41270000 0.31771000 0.01301000
v -0.41419000 0.31920000 0.02528000
v -0.38000000 0.31919000 0.02527000
v -0.38000000 0.31771000 0.01301000
v -0.08999000 0.31771000 0.01311000
v -0.08999000 0.31919000 0.02537000
v -0.05580000 0.31920000 0.02538000
v -0.05729000 0.31771000 0.01311000
v -0.05581000 0.28500000 0.02537000
v -0.05580000 0.31920000 0.02538000
v -0.05411000 0.32083000 0.02711000
v -0.05420000 0.28500000 0.02711000
v -0.05581000 -0.28500000 0.02537000
v -0.05420000 -0.28499000 0.02711000
v -0.05580000 -0.31919000 0.02538000
v -0.05411000 -0.32081000 0.02711000
v -0.05729000 0.31771000 0.01311000
v -0.05580000 0.31920000 0.02538000
v -0.05581000 0.28500000 0.02537000
v -0.05729000 0.28500000 0.01311000
v -0.05729000 -0.28500000 0.01311000
v -0.05581000 -0.28500000 0.02537000
v -0.05580000 -0.31919000 0.02538000
v -0.05729000 -0.31770000 0.01311000
v -0.08999000 -0.31918000 0.02537000
v -0.05580000 -0.31919000 0.02538000
v -0.05411000 -0.32081000 0.02711000
v -0.09000000 -0.32085000 0.02711000
v -0.38000000 -0.31918000 0.02527000
v -0.37999000 -0.32085000 0.02700000
v -0.41419000 -0.31919000 0.02528000
v -0.41582000 -0.32081000 0.02700000
v -0.05729000 -0.31770000 0.01311000
v -0.05580000 -0.31919000 0.02538000
v -0.08999000 -0.31918000 0.02537000
v -0.08999000 -0.31770000 0.01311000
v -0.38000000 -0.31770000 0.01301000
v -0.38000000 -0.31918000 0.02527000
v -0.41419000 -0.31919000 0.02528000
v -0.41270000 -0.31770000 0.01301000
v -0.05729000 0.28500000 0.01311000
v -0.08999000 0.31771000 0.01311000
v -0.05729000 0.31771000 0.01311000
v -0.08999000 0.28500000 0.01311000
v -0.38000000 0.31771000 0.01301000
v -0.08999000 -0.28500000 0.01311000
v -0.05729000 -0.28500000 0.01311000
v -0.05729000 -0.31770000 0.01311000
v -0.08999000 -0.31770000 0.01311000
v -0.38000000 0.28501000 0.01301000
v -0.41270000 0.31771000 0.01301000
v -0.41270000 0.28501000 0.01301000
v -0.41270000 -0.28500000 0.01301000
v -0.38000000 -0.28500000 0.01301000
v -0.38000000 -0.31770000 0.01301000
v -0.41270000 -0.31770000 0.01301000
v -0.08999000 0.37501000 0.00011000
v 0.00001000 0.28500000 0.00011000
v 0.00001000 0.37501000 0.00011000
v -0.08999000 0.28500000 0.00011000
v 0.00001000 -0.28500000 0.00011000
v -0.38000000 0.28501000 0.00001000
v -0.38000000 0.37501000 0.00001000
v -0.47000000 0.37501000 0.00001000
v -0.47000000 0.28501000 0.00001000
v -0.08999000 -0.28500000 0.00011000
v 0.00001000 -0.37500000 0.00011000
v -0.08999000 -0.37500000 0.00011000
v -0.38000000 -0.37500000 0.00001000
v -0.38000000 -0.28500000 0.00001000
v -0.47000000 -0.28500000 0.00001000
v -0.47000000 -0.37500000 0.00001000
v -0.41582000 0.32083000 0.02700000
v -0.41584000 0.28500000 0.02700000
v -0.46866000 0.28501000 0.02700000
v -0.46864000 0.37368000 0.02700000
v -0.46866000 -0.28500000 0.02700000
v -0.37999000 0.32085000 0.02700000
v -0.41584000 -0.28499000 0.02700000
v -0.37999000 0.37365000 0.02700000
v -0.46864000 -0.37363000 0.02700000
v -0.09000000 0.32085000 0.02711000
v -0.41582000 -0.32081000 0.02700000
v -0.08999000 0.37365000 0.02711000
v -0.37999000 -0.37368000 0.02700000
v -0.05411000 0.32083000 0.02711000
v -0.37999000 -0.32085000 0.02700000
v -0.00137000 0.37368000 0.02711000
v -0.08999000 -0.37368000 0.02711000
v -0.05420000 0.28500000 0.02711000
v -0.09000000 -0.32085000 0.02711000
v -0.00131000 0.28500000 0.02711000
v -0.00137000 -0.37363000 0.02711000
v -0.05420000 -0.28499000 0.02711000
v -0.05411000 -0.32081000 0.02711000
v -0.00131000 -0.28500000 0.02711000
vn -0.00045825 -0.77231340 0.63524160
vn -0.00027456 -0.77231310 0.63524210
vn 0.00000000 -0.75991230 0.65002560
vn -0.00027538 -0.77231310 0.63524210
vn -0.00021923 -0.77231300 0.63524220
vn -0.00022035 -0.77242650 0.63510410
vn 0.00000000 -0.77242480 0.63510630
vn 0.00045128 -0.75983720 0.65011330
vn 0.00000000 -1.00000000 0.00000000
vn 0.00000000 -1.00000000 0.00000000
vn 0.00000000 -1.00000000 0.00000000
vn 0.00000000 -1.00000000 0.00000000
vn -0.00000035 -1.00000000 0.00000000
vn -0.00000035 -1.00000000 0.00000000
vn 0.00000000 -1.00000000 0.00000000
vn 0.00000000 -1.00000000 0.00000000
vn 0.77346400 -0.00053260 0.63383990
vn 0.77341960 -0.00007074 0.63389430
vn 0.75903970 0.00000000 0.65104430
vn 0.77341970 -0.00007182 0.63389430
vn 0.77341280 0.00000000 0.63390270
vn 0.77341290 0.00000000 0.63390250
vn 0.77342960 0.00000000 0.63388230
vn 0.75888590 0.00052229 0.65122340
vn 1.00000000 0.00000000 0.00000000
vn 1.00000000 0.00000000 0.00000000
vn 1.00000000 0.00000000 0.00000000
vn 1.00000000 0.00000000 0.00000000
vn 1.00000000 0.00000000 0.00000000
vn 1.00000000 0.00000000 0.00000000
vn 1.00000000 0.00000000 0.00000000
vn 1.00000000 0.00000000 0.00000000
vn 0.00000000 0.76917210 0.63904170
vn 0.00000000 0.76917210 0.63904170
vn 0.00000000 0.76917210 0.63904170
vn -0.00022171 0.76318570 0.64617920
vn -0.00022233 0.76318690 0.64617780
vn -0.00022213 0.76319560 0.64616750
vn 0.00000000 0.76315840 0.64621130
vn 0.00021932 0.76926580 0.63892890
vn 0.00000000 1.00000000 0.00000000
vn 0.00000000 1.00000000 0.00000000
vn 0.00000000 1.00000000 0.00000000
vn 0.00000000 1.00000000 0.00000000
vn 0.00000040 1.00000000 0.00000000
vn 0.00000040 1.00000000 0.00000000
vn 0.00000000 1.00000000 0.00000000
vn 0.00000000 1.00000000 0.00000000
vn -0.76389630 0.00000000 0.64533900
vn -0.76389630 0.00000000 0.64533900
vn -0.76389630 0.00000000 0.64533900
vn -0.76838040 0.00016531 0.63999330
vn -0.76841250 0.00000064 0.63995490
vn -0.76837610 0.00000000 0.63999860
vn -0.76837610 0.00000000 0.63999860
vn -0.76380800 -0.00016644 0.64544360
vn -1.00000000 0.00000000 0.00000000
vn -1.00000000 0.00000000 0.00000000
vn -1.00000000 0.00000000 0.00000000
vn -1.00000000 0.00000000 0.00000000
vn -1.00000000 0.00000000 0.00000000
vn -1.00000000 -0.00000021 0.00000000
vn -1.00000000 0.00000000 0.00000000
vn -1.00000000 0.00000000 0.00000000
vn 0.72525870 -0.00043467 0.68847620
vn 0.72255840 -0.00018071 0.69130980
vn 0.72534960 -0.00044323 0.68838050
vn 0.72242400 -0.00016809 0.69145030
vn 0.72247340 0.00044374 0.69139860
vn 0.72540460 0.00016500 0.68832270
vn 0.72540460 0.00016500 0.68832270
vn 0.72540470 0.00016500 0.68832260
vn 0.99271060 0.00001136 0.12052210
vn 0.99270950 0.00000357 0.12053150
vn 0.99270890 0.00000000 0.12053570
vn 0.99271110 0.00001445 0.12051850
vn 0.99271090 0.00000000 0.12051990
vn 0.99270940 0.00000000 0.12053200
vn 0.99270940 0.00000000 0.12053180
vn 0.99270870 -0.00000722 0.12053850
vn 0.00015839 -0.72570700 0.68800390
vn 0.00015839 -0.72570700 0.68800390
vn 0.00015839 -0.72570700 0.68800390
vn 0.00048343 -0.72235720 0.69152000
vn -0.00023765 -0.72231760 0.69156140
vn -0.00019606 -0.72261260 0.69125330
vn -0.00047372 -0.72541200 0.68831480
vn -0.00048300 -0.72550540 0.68821630
vn -0.00000180 -0.99270840 0.12054060
vn -0.00000180 -0.99270840 0.12054060
vn -0.00000180 -0.99270840 0.12054060
vn 0.00000000 -0.99270920 0.12053390
vn -0.00004237 -0.99270950 0.12053170
vn -0.00004197 -0.99270760 0.12054810
vn -0.00000045 -0.99270930 0.12053360
vn 0.00000000 -0.99270950 0.12053110
vn -0.71423300 -0.00018533 0.69990800
vn -0.71423300 -0.00018533 0.69990800
vn -0.71423300 -0.00018533 0.69990800
vn -0.73393770 0.00175734 0.67921450
vn -0.73397860 0.00000000 0.67917270
vn -0.73403600 0.00017989 0.67911050
vn -0.73403600 0.00017989 0.67911050
vn -0.71509490 -0.00171320 0.69902520
vn -0.99270890 -0.00000722 0.12053650
vn -0.99270890 -0.00000722 0.12053650
vn -0.99270890 -0.00000722 0.12053650
vn -0.99270600 0.00000000 0.12056030
vn -0.99270600 0.00000000 0.12055970
vn -0.99270600 0.00000000 0.12055970
vn -0.99270800 0.00000179 0.12054370
vn -0.99270860 0.00000000 0.12053880
vn -0.00017801 0.72711530 0.68651550
vn -0.00017801 0.72711530 0.68651550
vn -0.00017801 0.72711530 0.68651550
vn -0.00076446 0.72097120 0.69296460
vn -0.00023823 0.72097820 0.69295780
vn 0.00015889 0.72089520 0.69304400
vn 0.00015889 0.72089520 0.69304410
vn 0.00077180 0.72685810 0.68678720
vn 0.00000000 0.99270860 0.12053890
vn 0.00000000 0.99270860 0.12053890
vn 0.00000000 0.99270860 0.12053900
vn 0.00000094 0.99270860 0.12053850
vn -0.00004078 0.99270870 0.12053810
vn -0.00004102 0.99270850 0.12054030
vn -0.00000067 0.99270740 0.12054880
vn 0.00000000 0.99270720 0.12055060
vn 0.00000000 0.00000000 1.00000000
vn 0.00000000 0.00000000 1.00000000
vn 0.00000000 0.00000000 1.00000000
vn 0.00000000 0.00000000 1.00000000
vn 0.00000000 0.00000000 1.00000000
vn 0.00000000 0.00000000 1.00000000
vn 0.00000000 0.00000000 1.00000000
vn 0.00000000 0.00000000 1.00000000
vn 0.00000225 0.00000000 1.00000000
vn 0.00000000 0.00000000 1.00000000
vn 0.00000000 0.00000000 1.00000000
vn 0.00000000 0.00000000 1.00000000
vn 0.00000000 0.00000000 1.00000000
vn -0.00034545 0.00000000 1.00000000
vn -0.00034563 0.00000000 1.00000000
vn 0.00000000 0.00000000 1.00000000
vn 0.00000000 0.00000000 -1.00000000
vn 0.00000000 0.00000000 -1.00000000
vn 0.00000000 0.00000000 -1.00000000
vn 0.00000000 0.00000000 -1.00000000
vn 0.00000000 0.00000000 -1.00000000
vn 0.00000000 0.00000000 -1.00000000
vn 0.00000000 0.00000000 -1.00000000
vn 0.00000000 0.00000000 -1.00000000
vn 0.00000000 0.00000000 -1.00000000
vn 0.00000000 0.00000000 -1.00000000
vn 0.00000000 0.00000000 -1.00000000
vn 0.00000000 0.00000000 -1.00000000
vn 0.00034516 0.00000000 -1.00000000
vn 0.00034511 0.00000000 -1.00000000
vn 0.00000000 0.00000000 -1.00000000
vn 0.00000000 0.00000000 -1.00000000
vn -0.00000174 0.00000000 1.00000000
vn -0.00000574 0.00000000 1.00000000
vn -0.00000601 0.00000000 1.00000000
vn -0.00000152 0.00000000 1.00000000
vn -0.00000033 0.00000000 1.00000000
vn -0.00027774 0.00000000 1.00000000
vn 0.00000000 0.00000000 1.00000000
vn -0.00026452 0.00000000 1.00000000
vn 0.00000000 0.00000000 1.00000000
vn -0.00030808 0.00000000 1.00000000
vn 0.00000044 0.00000000 1.00000000
vn -0.00027988 0.00000000 1.00000000
vn -0.00027889 0.00000000 1.00000000
vn -0.00000258 0.00000000 1.00000000
vn -0.00030684 0.00000000 1.00000000
vn -0.00000045 0.00000000 1.00000000
vn -0.00026506 0.00000000 1.00000000
vn -0.00000589 0.00000000 1.00000000
vn -0.00027844 0.00000000 1.00000000
vn -0.00000495 0.00000000 1.00000000
vn 0.00000131 0.00000000 1.00000000
vn 0.00000538 0.00000000 1.00000000
vn 0.00000066 0.00000000 1.00000000
vn 0.00000601 0.00000000 1.00000000
vt 1.90943000 2.81552400
vt 1.96611200 2.81297700
vt 1.90856600 2.81297700
vt 1.96611200 2.81552400
vt 2.15153600 2.81313600
vt 2.15153600 2.81568300
vt 2.20908200 2.81313600
vt 2.20820500 2.81568300
vt 2.15153600 2.77271200
vt 2.20908200 2.81313600
vt 2.20908200 2.77271200
vt 2.15153600 2.81313600
vt 1.96611200 2.81297700
vt 1.96611200 2.77255300
vt 1.90856600 2.77255300
vt 1.90856600 2.81297700
vt 2.18380200 1.09109500
vt 2.18641900 1.14623200
vt 2.18641900 1.09024400
vt 2.18380200 1.14623200
vt 2.18641900 1.50082600
vt 2.18380200 1.50082600
vt 2.18641900 1.55681400
vt 2.18380200 1.55598700
vt 2.22796200 1.50082600
vt 2.18641900 1.55681400
vt 2.22796200 1.55681400
vt 2.18641900 1.50082600
vt 2.18641900 1.14623200
vt 2.22796200 1.14623200
vt 2.22796200 1.09024400
vt 2.18641900 1.09024400
vt 3.73079000 2.81314200
vt 3.67322700 2.81314200
vt 3.67410500 2.81568900
vt 3.73079000 2.81568900
vt 3.91627000 2.81298300
vt 3.91627000 2.81553000
vt 3.97383200 2.81298300
vt 3.97296800 2.81553000
vt 3.91627000 2.77254700
vt 3.97383200 2.81298300
vt 3.97383200 2.77254700
vt 3.91627000 2.81298300
vt 3.73079000 2.81314200
vt 3.73079000 2.77270600
vt 3.67322700 2.77270600
vt 3.67322700 2.81314200
vt 1.93123200 1.50085900
vt 1.93123200 1.55685800
vt 1.93385000 1.55603100
vt 1.93385000 1.50085900
vt 1.93123200 1.14620000
vt 1.93385000 1.14620000
vt 1.93123200 1.09020000
vt 1.93385000 1.09105200
vt 1.88968000 1.55685800
vt 1.93123200 1.55685800
vt 1.93123200 1.50085900
vt 1.88968000 1.50085900
vt 1.88968000 1.14620000
vt 1.93123200 1.14620000
vt 1.93123200 1.09020000
vt 1.88968000 1.09020000
vt 4.25272500 1.32461100
vt 4.24880700 1.30874200
vt 4.24880700 1.32537000
vt 4.25274700 1.30874300
vt 4.24880700 1.04419600
vt 4.25274700 1.04419500
vt 4.24880700 1.02757100
vt 4.25272500 1.02832700
vt 4.28060500 1.30874300
vt 4.25272500 1.32461100
vt 4.28060500 1.32392000
vt 4.25274700 1.30874300
vt 4.25274700 1.04419500
vt 4.28060500 1.04419500
vt 4.28060500 1.02901900
vt 4.25272500 1.02832700
vt 1.70184400 3.10092100
vt 1.68702500 3.10094400
vt 1.68631600 3.10513900
vt 1.70184500 3.10513900
vt 1.82754400 3.10116400
vt 1.82754400 3.10538200
vt 1.84236400 3.10118800
vt 1.84309600 3.10538200
vt 1.68767100 3.07108700
vt 1.68702500 3.10094400
vt 1.70184400 3.10092100
vt 1.70184400 3.07108700
vt 1.82754400 3.07133100
vt 1.82754400 3.10116400
vt 1.84236400 3.10118800
vt 1.84171700 3.07133100
vt 4.57077000 1.30859700
vt 4.57079200 1.32444800
vt 4.57470500 1.32520600
vt 4.57470500 1.30859600
vt 4.57077000 1.04434100
vt 4.57470500 1.04434200
vt 4.57079200 1.02849000
vt 4.57470500 1.02773500
vt 4.54294300 1.32375700
vt 4.57079200 1.32444800
vt 4.57077000 1.30859700
vt 4.54294300 1.30859700
vt 4.54294300 1.04434100
vt 4.57077000 1.04434100
vt 4.57079200 1.02849000
vt 4.54294300 1.02918100
vt 2.87833100 3.10116600
vt 2.86350900 3.10119000
vt 2.86277700 3.10538600
vt 2.87833100 3.10538600
vt 3.00404500 3.10092300
vt 3.00404500 3.10514200
vt 3.01886700 3.10094600
vt 3.01957600 3.10514200
vt 2.86415600 3.07132800
vt 2.86350900 3.10119000
vt 2.87833100 3.10116600
vt 2.87833100 3.07132800
vt 3.00404500 3.07108400
vt 3.00404500 3.10092300
vt 3.01886700 3.10094600
vt 3.01822000 3.07108400
vt 0.75423400 4.12862000
vt 0.72368730 4.16362500
vt 0.75423400 4.16362500
vt 0.72368730 4.12862000
vt 0.45278300 4.16362500
vt 0.72368730 3.51843900
vt 0.75423400 3.51843900
vt 0.75423400 3.48343400
vt 0.72368730 3.48343400
vt 0.45278300 4.12862000
vt 0.42223610 4.16362500
vt 0.42223610 4.12862000
vt 0.42223630 3.51843900
vt 0.45278320 3.51843900
vt 0.45278320 3.48343400
vt 0.42223630 3.48343400
vt 0.73360310 1.68907600
vt 0.64127540 1.60134500
vt 0.64127540 1.68907600
vt 0.73360310 1.60134500
vt 0.64127540 1.04571300
vt 1.03110300 1.60134500
vt 1.03110300 1.68907600
vt 1.12343000 1.68907600
vt 1.12343000 1.60134500
vt 0.73360310 1.04571300
vt 0.64127540 0.95798220
vt 0.73360310 0.95798220
vt 1.03110300 0.95798230
vt 1.03110300 1.04571400
vt 1.12343100 1.04571400
vt 1.12343100 0.95798230
vt 3.04958300 1.63594600
vt 3.04956100 1.60105900
vt 2.99531900 1.60106000
vt 2.99533900 1.68740400
vt 2.99531900 1.04601200
vt 3.08637600 1.63596900
vt 3.04956100 1.04601200
vt 3.08637500 1.68738000
vt 2.99533900 0.95970510
vt 3.38419000 1.63596900
vt 3.04958300 1.01113300
vt 3.38419100 1.68738000
vt 3.08637500 0.95965390
vt 3.42103800 1.63594600
vt 3.08637600 1.01109600
vt 3.47520600 1.68740400
vt 3.38419100 0.95965370
vt 3.42094900 1.60105900
vt 3.38419000 1.01109600
vt 3.47526900 1.60106000
vt 3.47520600 0.95970500
vt 3.42094900 1.04601200
vt 3.42103800 1.01113300
vt 3.47526900 1.04601200
f 3/3/3 2/2/2 1/1/1
f 2/2/2 4/4/4 1/1/1
f 4/4/4 2/2/2 5/5/5
f 6/6/6 4/4/4 5/5/5
f 5/5/5 7/7/7 6/6/6
f 7/7/7 8/8/8 6/6/6
f 11/11/11 10/10/10 9/9/9
f 10/10/10 12/12/12 9/9/9
f 9/9/9 12/12/12 13/13/13
f 14/14/14 9/9/9 13/13/13
f 14/14/14 13/13/13 15/15/15
f 13/13/13 16/16/16 15/15/15
f 19/19/19 18/18/18 17/17/17
f 18/18/18 20/20/20 17/17/17
f 20/20/20 18/18/18 21/21/21
f 22/22/22 20/20/20 21/21/21
f 21/21/21 23/23/23 22/22/22
f 23/23/23 24/24/24 22/22/22
f 27/27/27 26/26/26 25/25/25
f 26/26/26 28/28/28 25/25/25
f 25/25/25 28/28/28 29/29/29
f 30/30/30 25/25/25 29/29/29
f 30/30/30 29/29/29 31/31/31
f 29/29/29 32/32/32 31/31/31
f 35/35/35 34/34/34 33/33/33
f 36/36/36 35/35/35 33/33/33
f 36/36/36 33/33/33 37/37/37
f 38/38/38 36/36/36 37/37/37
f 38/38/38 37/37/37 39/39/39
f 40/40/40 38/38/38 39/39/39
f 43/43/43 42/42/42 41/41/41
f 42/42/42 44/44/44 41/41/41
f 41/41/41 44/44/44 45/45/45
f 46/46/46 41/41/41 45/45/45
f 46/46/46 45/45/45 47/47/47
f 45/45/45 48/48/48 47/47/47
f 51/51/51 50/50/50 49/49/49
f 52/52/52 51/51/51 49/49/49
f 52/52/52 49/49/49 53/53/53
f 54/54/54 52/52/52 53/53/53
f 53/53/53 55/55/55 54/54/54
f 55/55/55 56/56/56 54/54/54
f 59/59/59 58/58/58 57/57/57
f 60/60/60 59/59/59 57/57/57
f 60/60/60 61/61/61 59/59/59
f 61/61/61 62/62/62 59/59/59
f 63/63/63 62/62/62 61/61/61
f 64/64/64 63/63/63 61/61/61
f 67/67/67 66/66/66 65/65/65
f 66/66/66 68/68/68 65/65/65
f 68/68/68 66/66/66 69/69/69
f 70/70/70 68/68/68 69/69/69
f 69/69/69 71/71/71 70/70/70
f 71/71/71 72/72/72 70/70/70
f 75/75/75 74/74/74 73/73/73
f 74/74/74 76/76/76 73/73/73
f 73/73/73 76/76/76 77/77/77
f 78/78/78 73/73/73 77/77/77
f 78/78/78 77/77/77 79/79/79
f 77/77/77 80/80/80 79/79/79
f 83/83/83 82/82/82 81/81/81
f 84/84/84 83/83/83 81/81/81
f 84/84/84 81/81/81 85/85/85
f 86/86/86 84/84/84 85/85/85
f 86/86/86 85/85/85 87/87/87
f 88/88/88 86/86/86 87/87/87
f 91/91/91 90/90/90 89/89/89
f 92/92/92 91/91/91 89/89/89
f 92/92/92 93/93/93 91/91/91
f 93/93/93 94/94/94 91/91/91
f 95/95/95 94/94/94 93/93/93
f 96/96/96 95/95/95 93/93/93
f 99/99/99 98/98/98 97/97/97
f 100/100/100 99/99/99 97/97/97
f 100/100/100 97/97/97 101/101/101
f 102/102/102 100/100/100 101/101/101
f 102/102/102 101/101/101 103/103/103
f 104/104/104 102/102/102 103/103/103
f 107/107/107 106/106/106 105/105/105
f 108/108/108 107/107/107 105/105/105
f 107/107/107 108/108/108 109/109/109
f 110/110/110 107/107/107 109/109/109
f 111/111/111 110/110/110 109/109/109
f 112/112/112 111/111/111 109/109/109
f 115/115/115 114/114/114 113/113/113
f 116/116/116 115/115/115 113/113/113
f 116/116/116 113/113/113 117/117/117
f 118/118/118 116/116/116 117/117/117
f 118/118/118 117/117/117 119/119/119
f 120/120/120 118/118/118 119/119/119
f 123/123/123 122/122/122 121/121/121
f 124/124/124 123/123/123 121/121/121
f 124/124/124 125/125/125 123/123/123
f 125/125/125 126/126/126 123/123/123
f 127/127/127 126/126/126 125/125/125
f 128/128/128 127/127/127 125/125/125
f 131/131/131 130/130/130 129/129/129
f 130/130/130 132/132/132 129/129/129
f 132/132/132 130/130/130 133/133/133
f 129/129/129 132/132/132 134/134/134
f 135/135/135 129/129/129 134/134/134
f 135/135/135 134/134/134 136/136/136
f 134/134/134 137/137/137 136/136/136
f 138/138/138 132/132/132 133/133/133
f 132/132/132 138/138/138 134/134/134
f 133/133/133 139/139/139 138/138/138
f 139/139/139 140/140/140 138/138/138
f 138/138/138 140/140/140 141/141/141
f 137/137/137 134/134/134 142/142/142
f 138/138/138 142/142/142 134/134/134
f 142/142/142 138/138/138 141/141/141
f 143/143/143 137/137/137 142/142/142
f 142/142/142 141/141/141 143/143/143
f 141/141/141 144/144/144 143/143/143
f 147/147/147 146/146/146 145/145/145
f 146/146/146 148/148/148 145/145/145
f 148/148/148 146/146/146 149/149/149
f 145/145/145 148/148/148 150/150/150
f 151/151/151 145/145/145 150/150/150
f 151/151/151 150/150/150 152/152/152
f 150/150/150 153/153/153 152/152/152
f 154/154/154 148/148/148 149/149/149
f 148/148/148 154/154/154 150/150/150
f 149/149/149 155/155/155 154/154/154
f 155/155/155 156/156/156 154/154/154
f 156/156/156 157/157/157 154/154/154
f 150/150/150 158/158/158 153/153/153
f 154/154/154 158/158/158 150/150/150
f 157/157/157 158/158/158 154/154/154
f 158/158/158 159/159/159 153/153/153
f 158/158/158 157/157/157 159/159/159
f 157/157/157 160/160/160 159/159/159
f 163/163/163 162/162/162 161/161/161
f 164/164/164 163/163/163 161/161/161
f 162/162/162 163/163/163 165/165/165
f 164/164/164 161/161/161 166/166/166
f 167/167/167 162/162/162 165/165/165
f 168/168/168 164/164/164 166/166/166
f 165/165/165 169/169/169 167/167/167
f 168/168/168 166/166/166 170/170/170
f 169/169/169 171/171/171 167/167/167
f 172/172/172 168/168/168 170/170/170
f 169/169/169 173/173/173 171/171/171
f 172/172/172 170/170/170 174/174/174
f 173/173/173 175/175/175 171/171/171
f 176/176/176 172/172/172 174/174/174
f 173/173/173 177/177/177 175/175/175
f 176/176/176 174/174/174 178/178/178
f 177/177/177 179/179/179 175/175/175
f 180/180/180 176/176/176 178/178/178
f 177/177/177 181/181/181 179/179/179
f 180/180/180 178/178/178 182/182/182
f 181/181/181 183/183/183 179/179/179
f 184/184/184 180/180/180 182/182/182
f 181/181/181 184/184/184 183/183/183
f 184/184/184 182/182/182 183/183/183

