mtllib Cabinet_83d77a74.mtl
v -0.08856 -0.00341 0.03216
v -0.08886 -0.00328 0.00045
v -0.08887 -0.00327 0.03212
v -0.08855 -0.00341 0.00045
v -0.08855 -0.00328 0.00013
v -0.08881 -0.00322 0.00019
v 0.08856 -0.00328 0.00013
v 0.08858 -0.00341 0.03216
v -0.08856 -0.00328 0.03246
v 0.08857 -0.00328 0.03247
v 0.08856 -0.00341 0.00045
v 0.08888 -0.00327 0.03212
v 0.08887 -0.00328 0.00045
v 0.08882 -0.00322 0.00019
v -0.08856 -0.00297 0.03259
v 0.08857 -0.00328 0.03247
v -0.08856 -0.00328 0.03246
v 0.08857 -0.00297 0.03259
v 0.08856 0.01845 0.03259
v -0.08855 0.01845 0.03259
v -0.08887 -0.00264 0.03247
v -0.08886 0.01845 0.03246
v -0.08855 0.01876 0.03246
v -0.08881 0.01871 0.0324
v 0.08856 0.01876 0.03246
v 0.08887 0.01845 0.03246
v 0.08888 -0.00264 0.03247
v 0.08882 0.01871 0.0324
v -0.08855 0.00386 0.02898
v -0.08886 0.01845 0.02911
v -0.08887 0.00369 0.02912
v -0.08855 0.01845 0.02898
v -0.08855 0.01876 0.02911
v -0.08881 0.01871 0.02917
v 0.08856 0.01876 0.02911
v 0.08856 0.00386 0.02898
v -0.08856 0.00355 0.02885
v 0.08856 0.00355 0.02885
v 0.08856 0.01845 0.02898
v 0.08888 0.00369 0.02912
v 0.08887 0.01845 0.02911
v 0.08882 0.01871 0.02917
v -0.08856 -0.00328 0.03246
v -0.08887 -0.00264 0.03247
v -0.08856 -0.00297 0.03259
v -0.08887 -0.00309 0.03236
v -0.08887 -0.00327 0.03212
v -0.08856 -0.00341 0.03216
v -0.08899 -0.00263 0.03209
v -0.08899 -0.00187 0.03214
v -0.08886 0.01845 0.03246
v -0.08899 -0.00295 0.03198
v -0.08899 -0.00296 0.00045
v -0.08886 -0.00328 0.00045
v -0.08886 -0.00296 0.00013
v -0.08881 -0.00322 0.00019
v -0.08899 0.00297 0.00045
v -0.08886 0.00297 0.00013
v -0.08899 0.00295 0.02885
v -0.08886 0.00329 0.00045
v -0.08881 0.00323 0.00019
v -0.08887 0.00328 0.02865
v -0.08899 0.00304 0.02924
v -0.08887 0.00341 0.02898
v -0.08899 0.00326 0.0294
v -0.08887 0.00369 0.02912
v -0.08856 0.00355 0.02885
v -0.08855 0.00386 0.02898
v -0.08899 0.01845 0.02942
v -0.08886 0.01845 0.02911
v -0.08899 0.01845 0.03215
v -0.08886 0.01876 0.02942
v -0.08881 0.01871 0.02917
v -0.08886 0.01876 0.03215
v -0.08881 0.01871 0.0324
v 0.08888 -0.00264 0.03247
v 0.08857 -0.00328 0.03247
v 0.08857 -0.00297 0.03259
v 0.08888 -0.00309 0.03236
v 0.08888 -0.00327 0.03212
v 0.08858 -0.00341 0.03216
v 0.089 -0.00264 0.0321
v 0.089 -0.00296 0.03199
v 0.08887 -0.00328 0.00045
v 0.089 -0.00187 0.03214
v 0.089 0.01845 0.03215
v 0.08887 0.01845 0.03246
v 0.08887 0.01876 0.03215
v 0.08882 0.01871 0.0324
v 0.089 0.01845 0.02942
v 0.08887 0.01876 0.02942
v 0.089 0.00326 0.0294
v 0.08887 0.01845 0.02911
v 0.08882 0.01871 0.02917
v 0.08888 0.00369 0.02912
v 0.089 0.00304 0.02924
v 0.089 0.00295 0.02885
v 0.08888 0.00341 0.02898
v 0.08856 0.00355 0.02885
v 0.08856 0.00386 0.02898
v 0.08888 0.00328 0.02864
v 0.089 0.00297 0.00045
v 0.08887 0.00329 0.00045
v 0.089 -0.00296 0.00045
v 0.08887 0.00297 0.00013
v 0.08882 0.00323 0.00019
v 0.08887 -0.00296 0.00013
v 0.08882 -0.00322 0.00019
v -0.08856 0.00355 0.02885
v -0.08887 0.00341 0.02898
v -0.08887 0.00328 0.02865
v -0.08857 0.00342 0.02855
v 0.08856 0.00355 0.02885
v -0.08855 0.00342 0.00045
v -0.08886 0.00329 0.00045
v -0.08855 0.00329 0.00013
v -0.08881 0.00323 0.00019
v 0.08856 0.00342 0.00045
v 0.08856 0.00329 0.00013
v 0.08857 0.00342 0.02854
v 0.08887 0.00329 0.00045
v 0.08882 0.00323 0.00019
v 0.08888 0.00328 0.02864
v 0.08888 0.00341 0.02898
v -0.08855 0.00329 0.00013
v -0.08881 0.00323 0.00019
v -0.08886 0.00297 0.00013
v -0.08855 0.00297 0
v 0.08856 0.00329 0.00013
v -0.08886 -0.00296 0.00013
v 0.08856 0.00297 0
v 0.08887 0.00297 0.00013
v 0.08882 0.00323 0.00019
v 0.08887 -0.00296 0.00013
v 0.08856 -0.00296 0
v -0.08855 -0.00296 0
v -0.08855 -0.00328 0.00013
v -0.08881 -0.00322 0.00019
v 0.08856 -0.00328 0.00013
v 0.08882 -0.00322 0.00019
v -0.08886 0.01876 0.02942
v -0.08881 0.01871 0.02917
v -0.08855 0.01876 0.02911
v -0.08855 0.01889 0.02942
v -0.08886 0.01876 0.03215
v 0.08856 0.01889 0.02942
v 0.08856 0.01876 0.02911
v -0.08855 0.01889 0.03215
v 0.08887 0.01876 0.02942
v 0.08882 0.01871 0.02917
v 0.08856 0.01889 0.03215
v 0.08887 0.01876 0.03215
v 0.08856 0.01876 0.03246
v 0.08882 0.01871 0.0324
v -0.08855 0.01876 0.03246
v -0.08881 0.01871 0.0324
v -0.08856 -0.00341 0.03216
v -0.08886 -0.00328 0.00045
v -0.08887 -0.00327 0.03212
v -0.08855 -0.00341 0.00045
v -0.08855 -0.00328 0.00013
v -0.08881 -0.00322 0.00019
v 0.08856 -0.00328 0.00013
v 0.08858 -0.00341 0.03216
v -0.08856 -0.00328 0.03246
v 0.08857 -0.00328 0.03247
v 0.08856 -0.00341 0.00045
v 0.08888 -0.00327 0.03212
v 0.08887 -0.00328 0.00045
v 0.08882 -0.00322 0.00019
v -0.08856 -0.00297 0.03259
v 0.08857 -0.00328 0.03247
v -0.08856 -0.00328 0.03246
v 0.08857 -0.00297 0.03259
v 0.08856 0.01845 0.03259
v -0.08855 0.01845 0.03259
v -0.08887 -0.00264 0.03247
v -0.08886 0.01845 0.03246
v -0.08855 0.01876 0.03246
v -0.08881 0.01871 0.0324
v 0.08856 0.01876 0.03246
v 0.08887 0.01845 0.03246
v 0.08888 -0.00264 0.03247
v 0.08882 0.01871 0.0324
v -0.08855 0.00386 0.02898
v -0.08886 0.01845 0.02911
v -0.08887 0.00369 0.02912
v -0.08855 0.01845 0.02898
v -0.08855 0.01876 0.02911
v -0.08881 0.01871 0.02917
v 0.08856 0.01876 0.02911
v 0.08856 0.00386 0.02898
v -0.08856 0.00355 0.02885
v 0.08856 0.00355 0.02885
v 0.08856 0.01845 0.02898
v 0.08888 0.00369 0.02912
v 0.08887 0.01845 0.02911
v 0.08882 0.01871 0.02917
v -0.08856 -0.00328 0.03246
v -0.08887 -0.00264 0.03247
v -0.08856 -0.00297 0.03259
v -0.08887 -0.00309 0.03236
v -0.08887 -0.00327 0.03212
v -0.08856 -0.00341 0.03216
v -0.08899 -0.00263 0.03209
v -0.08899 -0.00187 0.03214
v -0.08886 0.01845 0.03246
v -0.08899 -0.00295 0.03198
v -0.08899 -0.00296 0.00045
v -0.08886 -0.00328 0.00045
v -0.08886 -0.00296 0.00013
v -0.08881 -0.00322 0.00019
v -0.08899 0.00297 0.00045
v -0.08886 0.00297 0.00013
v -0.08899 0.00295 0.02885
v -0.08886 0.00329 0.00045
v -0.08881 0.00323 0.00019
v -0.08887 0.00328 0.02865
v -0.08899 0.00304 0.02924
v -0.08887 0.00341 0.02898
v -0.08899 0.00326 0.0294
v -0.08887 0.00369 0.02912
v -0.08856 0.00355 0.02885
v -0.08855 0.00386 0.02898
v -0.08899 0.01845 0.02942
v -0.08886 0.01845 0.02911
v -0.08899 0.01845 0.03215
v -0.08886 0.01876 0.02942
v -0.08881 0.01871 0.02917
v -0.08886 0.01876 0.03215
v -0.08881 0.01871 0.0324
v 0.08888 -0.00264 0.03247
v 0.08857 -0.00328 0.03247
v 0.08857 -0.00297 0.03259
v 0.08888 -0.00309 0.03236
v 0.08888 -0.00327 0.03212
v 0.08858 -0.00341 0.03216
v 0.089 -0.00264 0.0321
v 0.089 -0.00296 0.03199
v 0.08887 -0.00328 0.00045
v 0.089 -0.00187 0.03214
v 0.089 0.01845 0.03215
v 0.08887 0.01845 0.03246
v 0.08887 0.01876 0.03215
v 0.08882 0.01871 0.0324
v 0.089 0.01845 0.02942
v 0.08887 0.01876 0.02942
v 0.089 0.00326 0.0294
v 0.08887 0.01845 0.02911
v 0.08882 0.01871 0.02917
v 0.08888 0.00369 0.02912
v 0.089 0.00304 0.02924
v 0.089 0.00295 0.02885
v 0.08888 0.00341 0.02898
v 0.08856 0.00355 0.02885
v 0.08856 0.00386 0.02898
v 0.08888 0.00328 0.02864
v 0.089 0.00297 0.00045
v 0.08887 0.00329 0.00045
v 0.089 -0.00296 0.00045
v 0.08887 0.00297 0.00013
v 0.08882 0.00323 0.00019
v 0.08887 -0.00296 0.00013
v 0.08882 -0.00322 0.00019
v -0.08856 0.00355 0.02885
v -0.08887 0.00341 0.02898
v -0.08887 0.00328 0.02865
v -0.08857 0.00342 0.02855
v 0.08856 0.00355 0.02885
v -0.08855 0.00342 0.00045
v -0.08886 0.00329 0.00045
v -0.08855 0.00329 0.00013
v -0.08881 0.00323 0.00019
v 0.08856 0.00342 0.00045
v 0.08856 0.00329 0.00013
v 0.08857 0.00342 0.02854
v 0.08887 0.00329 0.00045
v 0.08882 0.00323 0.00019
v 0.08888 0.00328 0.02864
v 0.08888 0.00341 0.02898
v -0.08855 0.00329 0.00013
v -0.08881 0.00323 0.00019
v -0.08886 0.00297 0.00013
v -0.08855 0.00297 0
v 0.08856 0.00329 0.00013
v -0.08886 -0.00296 0.00013
v 0.08856 0.00297 0
v 0.08887 0.00297 0.00013
v 0.08882 0.00323 0.00019
v 0.08887 -0.00296 0.00013
v 0.08856 -0.00296 0
v -0.08855 -0.00296 0
v -0.08855 -0.00328 0.00013
v -0.08881 -0.00322 0.00019
v 0.08856 -0.00328 0.00013
v 0.08882 -0.00322 0.00019
v -0.08886 0.01876 0.02942
v -0.08881 0.01871 0.02917
v -0.08855 0.01876 0.02911
v -0.08855 0.01889 0.02942
v -0.08886 0.01876 0.03215
v 0.08856 0.01889 0.02942
v 0.08856 0.01876 0.02911
v -0.08855 0.01889 0.03215
v 0.08887 0.01876 0.02942
v 0.08882 0.01871 0.02917
v 0.08856 0.01889 0.03215
v 0.08887 0.01876 0.03215
v 0.08856 0.01876 0.03246
v 0.08882 0.01871 0.0324
v -0.08855 0.01876 0.03246
v -0.08881 0.01871 0.0324
vt -9.831882 -0.01871353
vt -9.832475 -0.0807029
vt -9.83248 -0.01879346
vt -9.831864 -0.0807029
vt -9.831862 -0.0813145
vt -9.832364 -0.08120203
vt -9.485614 -0.08131449
vt -9.485579 -0.01869657
vt -9.83188 -0.01811397
vt -9.485586 -0.01810888
vt -9.485612 -0.08070283
vt -9.484991 -0.01877561
vt -9.485002 -0.08070282
vt -9.485112 -0.08120205
vt -9.831939 -0.2291762
vt -9.485529 -0.2297756
vt -9.831938 -0.2297755
vt -9.485539 -0.2291761
vt -9.485556 -0.1872829
vt -9.831921 -0.187283
vt -9.832542 -0.2285337
vt -9.832533 -0.187283
vt -9.831923 -0.1866711
vt -9.83242 -0.1867836
vt -9.485556 -0.186671
vt -9.484943 -0.187283
vt -9.484934 -0.2285335
vt -9.485056 -0.1867836
vt -9.831984 0.273658
vt -9.832599 0.2451113
vt -9.832603 0.2739904
vt -9.831988 0.2451113
vt -9.831986 0.2444991
vt -9.832488 0.2446118
vt -9.485442 0.244499
vt -9.485447 0.2736581
vt -9.831999 0.2742732
vt -9.485437 0.2742732
vt -9.485442 0.2451113
vt -9.484829 0.2739904
vt -9.484832 0.2451113
vt -9.484942 0.2446117
vt -9.220046 0.4201437
vt -9.220033 0.4213908
vt -9.219795 0.4207456
vt -9.220254 0.4205178
vt -9.220729 0.4201677
vt -9.220649 0.4198944
vt -9.220774 0.4214132
vt -9.220682 0.4229079
vt -9.22005 0.4628108
vt -9.220994 0.4207947
vt -9.282912 0.4207633
vt -9.282912 0.4201489
vt -9.283526 0.4207632
vt -9.283415 0.4202618
vt -9.282913 0.4324199
vt -9.283527 0.43242
vt -9.227134 0.4323735
vt -9.282913 0.4330342
vt -9.283414 0.4329214
vt -9.227539 0.4330293
vt -9.226373 0.4325491
vt -9.226883 0.4332685
vt -9.226054 0.4329749
vt -9.22662 0.4338281
vt -9.227135 0.4335442
vt -9.226887 0.4341615
vt -9.226016 0.4628108
vt -9.22663 0.4628108
vt -9.220664 0.4628108
vt -9.226018 0.4634252
vt -9.22652 0.4633122
vt -9.220666 0.4634252
vt -9.220164 0.4633123
vt -9.283292 0.5527388
vt -9.283283 0.5514919
vt -9.283526 0.5520937
vt -9.283076 0.5518625
vt -9.282614 0.5515107
vt -9.282692 0.5512425
vt -9.282555 0.5527498
vt -9.282351 0.5521264
vt -9.22041 0.5514969
vt -9.282641 0.5542561
vt -9.282659 0.5941591
vt -9.283273 0.5941591
vt -9.282659 0.5947735
vt -9.283159 0.5946606
vt -9.277305 0.5941591
vt -9.277307 0.5947735
vt -9.277267 0.5643231
vt -9.27669 0.5941591
vt -9.276804 0.5946606
vt -9.276704 0.5651762
vt -9.276954 0.5639005
vt -9.276191 0.5637259
vt -9.27644 0.5646187
vt -9.276186 0.5648926
vt -9.276436 0.5655097
vt -9.275777 0.5643803
vt -9.22041 0.563768
vt -9.22041 0.5643822
vt -9.220411 0.5521113
vt -9.219795 0.5637682
vt -9.219908 0.5642695
vt -9.219797 0.5521113
vt -9.219909 0.5516098
vt -9.831885 0.1012738
vt -9.832492 0.1010244
vt -9.832493 0.1016787
vt -9.8319 0.1018671
vt -9.485577 0.1012779
vt -9.831875 0.1568132
vt -9.832485 0.1568132
vt -9.831874 0.157425
vt -9.832374 0.1573126
vt -9.485582 0.1568132
vt -9.485581 0.157425
vt -9.485569 0.1018804
vt -9.48497 0.1568132
vt -9.485084 0.1573125
vt -9.484966 0.1016854
vt -9.484965 0.1010261
vt -9.832376 0.3212014
vt -9.832874 0.3213138
vt -9.832987 0.321815
vt -9.832373 0.321815
vt -9.485045 0.3212013
vt -9.832989 0.333456
vt -9.485044 0.321815
vt -9.48443 0.321815
vt -9.484543 0.3213138
vt -9.484432 0.3334559
vt -9.485044 0.3334559
vt -9.832375 0.333456
vt -9.832375 0.3340696
vt -9.832874 0.333957
vt -9.485044 0.3340695
vt -9.484543 0.333957
vt -9.833638 0.3657221
vt -9.833522 0.366225
vt -9.83302 0.3663383
vt -9.833021 0.3657223
vt -9.833636 0.3603572
vt -9.484398 0.3657222
vt -9.484399 0.3663382
vt -9.83302 0.3603572
vt -9.483783 0.365722
vt -9.483895 0.366225
vt -9.484397 0.3603571
vt -9.483783 0.3603571
vt -9.484399 0.3597415
vt -9.483895 0.3598547
vt -9.83302 0.3597416
vt -9.833522 0.3598547
vt -9.831882 -0.01871353
vt -9.832475 -0.0807029
vt -9.83248 -0.01879346
vt -9.831864 -0.0807029
vt -9.831862 -0.0813145
vt -9.832364 -0.08120203
vt -9.485614 -0.08131449
vt -9.485579 -0.01869657
vt -9.83188 -0.01811397
vt -9.485586 -0.01810888
vt -9.485612 -0.08070283
vt -9.484991 -0.01877561
vt -9.485002 -0.08070282
vt -9.485112 -0.08120205
vt -9.831939 -0.2291762
vt -9.485529 -0.2297756
vt -9.831938 -0.2297755
vt -9.485539 -0.2291761
vt -9.485556 -0.1872829
vt -9.831921 -0.187283
vt -9.832542 -0.2285337
vt -9.832533 -0.187283
vt -9.831923 -0.1866711
vt -9.83242 -0.1867836
vt -9.485556 -0.186671
vt -9.484943 -0.187283
vt -9.484934 -0.2285335
vt -9.485056 -0.1867836
vt -9.831984 0.273658
vt -9.832599 0.2451113
vt -9.832603 0.2739904
vt -9.831988 0.2451113
vt -9.831986 0.2444991
vt -9.832488 0.2446118
vt -9.485442 0.244499
vt -9.485447 0.2736581
vt -9.831999 0.2742732
vt -9.485437 0.2742732
vt -9.485442 0.2451113
vt -9.484829 0.2739904
vt -9.484832 0.2451113
vt -9.484942 0.2446117
vt -9.220046 0.4201437
vt -9.220033 0.4213908
vt -9.219795 0.4207456
vt -9.220254 0.4205178
vt -9.220729 0.4201677
vt -9.220649 0.4198944
vt -9.220774 0.4214132
vt -9.220682 0.4229079
vt -9.22005 0.4628108
vt -9.220994 0.4207947
vt -9.282912 0.4207633
vt -9.282912 0.4201489
vt -9.283526 0.4207632
vt -9.283415 0.4202618
vt -9.282913 0.4324199
vt -9.283527 0.43242
vt -9.227134 0.4323735
vt -9.282913 0.4330342
vt -9.283414 0.4329214
vt -9.227539 0.4330293
vt -9.226373 0.4325491
vt -9.226883 0.4332685
vt -9.226054 0.4329749
vt -9.22662 0.4338281
vt -9.227135 0.4335442
vt -9.226887 0.4341615
vt -9.226016 0.4628108
vt -9.22663 0.4628108
vt -9.220664 0.4628108
vt -9.226018 0.4634252
vt -9.22652 0.4633122
vt -9.220666 0.4634252
vt -9.220164 0.4633123
vt -9.283292 0.5527388
vt -9.283283 0.5514919
vt -9.283526 0.5520937
vt -9.283076 0.5518625
vt -9.282614 0.5515107
vt -9.282692 0.5512425
vt -9.282555 0.5527498
vt -9.282351 0.5521264
vt -9.22041 0.5514969
vt -9.282641 0.5542561
vt -9.282659 0.5941591
vt -9.283273 0.5941591
vt -9.282659 0.5947735
vt -9.283159 0.5946606
vt -9.277305 0.5941591
vt -9.277307 0.5947735
vt -9.277267 0.5643231
vt -9.27669 0.5941591
vt -9.276804 0.5946606
vt -9.276704 0.5651762
vt -9.276954 0.5639005
vt -9.276191 0.5637259
vt -9.27644 0.5646187
vt -9.276186 0.5648926
vt -9.276436 0.5655097
vt -9.275777 0.5643803
vt -9.22041 0.563768
vt -9.22041 0.5643822
vt -9.220411 0.5521113
vt -9.219795 0.5637682
vt -9.219908 0.5642695
vt -9.219797 0.5521113
vt -9.219909 0.5516098
vt -9.831885 0.1012738
vt -9.832492 0.1010244
vt -9.832493 0.1016787
vt -9.8319 0.1018671
vt -9.485577 0.1012779
vt -9.831875 0.1568132
vt -9.832485 0.1568132
vt -9.831874 0.157425
vt -9.832374 0.1573126
vt -9.485582 0.1568132
vt -9.485581 0.157425
vt -9.485569 0.1018804
vt -9.48497 0.1568132
vt -9.485084 0.1573125
vt -9.484966 0.1016854
vt -9.484965 0.1010261
vt -9.832376 0.3212014
vt -9.832874 0.3213138
vt -9.832987 0.321815
vt -9.832373 0.321815
vt -9.485045 0.3212013
vt -9.832989 0.333456
vt -9.485044 0.321815
vt -9.48443 0.321815
vt -9.484543 0.3213138
vt -9.484432 0.3334559
vt -9.485044 0.3334559
vt -9.832375 0.333456
vt -9.832375 0.3340696
vt -9.832874 0.333957
vt -9.485044 0.3340695
vt -9.484543 0.333957
vt -9.833638 0.3657221
vt -9.833522 0.366225
vt -9.83302 0.3663383
vt -9.833021 0.3657223
vt -9.833636 0.3603572
vt -9.484398 0.3657222
vt -9.484399 0.3663382
vt -9.83302 0.3603572
vt -9.483783 0.365722
vt -9.483895 0.366225
vt -9.484397 0.3603571
vt -9.483783 0.3603571
vt -9.484399 0.3597415
vt -9.483895 0.3598547
vt -9.83302 0.3597416
vt -9.833522 0.3598547
vn -0.0007021021 -0.9999919 0.003969043
vn -0.7163775 -0.697708 -0.002616967
vn -0.6678517 -0.7442818 0.004299561
vn -0.0007538043 -0.9999915 -0.004042915
vn -0.0004883156 -0.7071066 -0.7071066
vn -0.5773041 -0.5774034 -0.5773431
vn 0.0004882949 -0.7071068 -0.7071066
vn 0.0006950022 -0.999992 0.00393699
vn -0.001029227 -0.7035523 0.7106427
vn 0.0009903782 -0.7060102 0.708201
vn 0.000746607 -0.9999915 -0.004042271
vn 0.6677933 -0.7443349 0.004207141
vn 0.71661 -0.6974687 -0.002755297
vn 0.577293 -0.577394 -0.5773639
vn -0.0003728289 -0.005795987 0.9999832
vn 0.0009903782 -0.7060102 0.708201
vn -0.001029227 -0.7035523 0.7106427
vn 0.0003722613 -0.005843923 0.9999828
vn 0.0006944452 0.005957412 0.999982
vn -0.0006944454 0.005957306 0.999982
vn -0.4975892 -0.002688965 0.8674086
vn -0.7100878 0.004328158 0.7040998
vn -0.0004883347 0.7071071 0.7071062
vn -0.5772987 0.577367 0.5773851
vn 0.0004883549 0.7071071 0.7071063
vn 0.7100878 0.004327828 0.7040998
vn 0.4974751 -0.002550245 0.8674746
vn 0.5773152 0.5773496 0.5773861
vn -0.0009689392 0.008607945 -0.9999626
vn -0.7014703 0.005802612 -0.712675
vn -0.802505 0.005665516 -0.5966185
vn -0.0007467563 0.008691107 -0.999962
vn -0.0004885463 0.7071071 -0.7071063
vn -0.5773876 0.5773783 -0.5772848
vn 0.0004885647 0.7071071 -0.7071062
vn 0.0009690663 0.008554357 -0.9999629
vn -0.00120957 0.7016538 -0.712517
vn 0.001198724 0.6997476 -0.7143893
vn 0.0007467566 0.008691262 -0.999962
vn 0.8024935 0.005696645 -0.5966337
vn 0.7014666 0.005802543 -0.7126787
vn 0.5774003 0.5773703 -0.5772802
vn -0.001029227 -0.7035523 0.7106427
vn -0.4975892 -0.002688965 0.8674086
vn -0.0003728289 -0.005795987 0.9999832
vn -0.7858914 -0.315754 0.531671
vn -0.6678517 -0.7442818 0.004299561
vn -0.0007021021 -0.9999919 0.003969043
vn -0.9994192 -0.007015332 0.03334612
vn -0.988553 -5.383187E-05 0.1508738
vn -0.7100878 0.004328158 0.7040998
vn -0.9993138 -0.03703666 0.0003501129
vn -0.9997597 -0.02151494 -0.00420047
vn -0.7163775 -0.697708 -0.002616967
vn -0.7070345 -0.01405316 -0.7070394
vn -0.5773041 -0.5774034 -0.5773431
vn -0.999805 0.01928828 -0.004221229
vn -0.7070345 0.01405586 -0.7070395
vn -0.9999479 0.01020453 -6.275815E-05
vn -0.7223241 0.6915481 -0.003018697
vn -0.577276 0.5774357 -0.5773391
vn -0.787554 0.61624 -0.002664056
vn -0.9999272 0.009862563 -0.006957809
vn -0.8614656 0.3864137 -0.329487
vn -0.9999547 0.0002771304 -0.009520489
vn -0.802505 0.005665516 -0.5966185
vn -0.00120957 0.7016538 -0.712517
vn -0.0009689392 0.008607945 -0.9999626
vn -0.9993175 0.007045622 -0.036259
vn -0.7014703 0.005802612 -0.712675
vn -0.9988563 0.006775465 0.04732935
vn -0.706805 0.7068016 -0.02929608
vn -0.5773876 0.5773783 -0.5772848
vn -0.7068036 0.7068021 0.02931751
vn -0.5772987 0.577367 0.5773851
vn 0.4974751 -0.002550245 0.8674746
vn 0.0009903782 -0.7060102 0.708201
vn 0.0003722613 -0.005843923 0.9999828
vn 0.7836391 -0.3064834 0.5403496
vn 0.6677933 -0.7443349 0.004207141
vn 0.0006950022 -0.999992 0.00393699
vn 0.9994175 -0.006521958 0.03349595
vn 0.999325 -0.03673469 0.0003426946
vn 0.71661 -0.6974687 -0.002755297
vn 0.9885543 -4.770245E-05 0.1508655
vn 0.9988563 0.006775814 0.04732933
vn 0.7100878 0.004327828 0.7040998
vn 0.706798 0.7068077 0.02931624
vn 0.5773152 0.5773496 0.5773861
vn 0.9993176 0.007046048 -0.03625763
vn 0.7067989 0.7068079 -0.02929474
vn 0.9999547 0.0002764242 -0.009521069
vn 0.7014666 0.005802543 -0.7126787
vn 0.5774003 0.5773703 -0.5772802
vn 0.8024935 0.005696645 -0.5966337
vn 0.9999253 0.009979266 -0.007065326
vn 0.9999481 0.01018739 -6.405021E-05
vn 0.8591703 0.3897705 -0.3315197
vn 0.001198724 0.6997476 -0.7143893
vn 0.0009690663 0.008554357 -0.9999629
vn 0.78561 0.6187161 -0.002695468
vn 0.9998028 0.01940597 -0.004216617
vn 0.7188439 0.6951652 -0.002987816
vn 0.9997645 -0.02129278 -0.004203298
vn 0.7070348 0.01405419 -0.7070391
vn 0.5773052 0.577408 -0.5773376
vn 0.7070343 -0.01405261 -0.7070395
vn 0.577293 -0.577394 -0.5773639
vn -0.00120957 0.7016538 -0.712517
vn -0.8614656 0.3864137 -0.329487
vn -0.787554 0.61624 -0.002664056
vn -0.0008736281 0.9999895 -0.004514546
vn 0.001198724 0.6997476 -0.7143893
vn -0.0007353268 0.9999894 -0.004556738
vn -0.7223241 0.6915481 -0.003018697
vn -0.0004882652 0.7071066 -0.7071066
vn -0.577276 0.5774357 -0.5773391
vn 0.0007314643 0.9999894 -0.004557539
vn 0.0004883259 0.7071066 -0.7071068
vn 0.000870871 0.9999894 -0.004542826
vn 0.7188439 0.6951652 -0.002987816
vn 0.5773052 0.577408 -0.5773376
vn 0.78561 0.6187161 -0.002695468
vn 0.8591703 0.3897705 -0.3315197
vn -0.0004882652 0.7071066 -0.7071066
vn -0.577276 0.5774357 -0.5773391
vn -0.7070345 0.01405586 -0.7070395
vn -0.0007177525 0.02072039 -0.9997851
vn 0.0004883259 0.7071066 -0.7071068
vn -0.7070345 -0.01405316 -0.7070394
vn 0.0007177389 0.02072144 -0.999785
vn 0.7070348 0.01405419 -0.7070391
vn 0.5773052 0.577408 -0.5773376
vn 0.7070343 -0.01405261 -0.7070395
vn 0.0007176878 -0.02072003 -0.9997851
vn -0.0007177153 -0.02072108 -0.999785
vn -0.0004883156 -0.7071066 -0.7071066
vn -0.5773041 -0.5774034 -0.5773431
vn 0.0004882949 -0.7071068 -0.7071066
vn 0.577293 -0.577394 -0.5773639
vn -0.706805 0.7068016 -0.02929608
vn -0.5773876 0.5773783 -0.5772848
vn -0.0004885463 0.7071071 -0.7071063
vn -0.0007036836 0.9990925 -0.04258818
vn -0.7068036 0.7068021 0.02931751
vn 0.0007036814 0.9990925 -0.04258886
vn 0.0004885647 0.7071071 -0.7071062
vn -0.0007038724 0.9990926 0.04258478
vn 0.7067989 0.7068079 -0.02929474
vn 0.5774003 0.5773703 -0.5772802
vn 0.0007038706 0.9990926 0.04258546
vn 0.706798 0.7068077 0.02931624
vn 0.0004883549 0.7071071 0.7071063
vn 0.5773152 0.5773496 0.5773861
vn -0.0004883347 0.7071071 0.7071062
vn -0.5772987 0.577367 0.5773851
vn -0.0007021021 -0.9999919 0.003969043
vn -0.7163775 -0.697708 -0.002616967
vn -0.6678517 -0.7442818 0.004299561
vn -0.0007538043 -0.9999915 -0.004042915
vn -0.0004883156 -0.7071066 -0.7071066
vn -0.5773041 -0.5774034 -0.5773431
vn 0.0004882949 -0.7071068 -0.7071066
vn 0.0006950022 -0.999992 0.00393699
vn -0.001029227 -0.7035523 0.7106427
vn 0.0009903782 -0.7060102 0.708201
vn 0.000746607 -0.9999915 -0.004042271
vn 0.6677933 -0.7443349 0.004207141
vn 0.71661 -0.6974687 -0.002755297
vn 0.577293 -0.577394 -0.5773639
vn -0.0003728289 -0.005795987 0.9999832
vn 0.0009903782 -0.7060102 0.708201
vn -0.001029227 -0.7035523 0.7106427
vn 0.0003722613 -0.005843923 0.9999828
vn 0.0006944452 0.005957412 0.999982
vn -0.0006944454 0.005957306 0.999982
vn -0.4975892 -0.002688965 0.8674086
vn -0.7100878 0.004328158 0.7040998
vn -0.0004883347 0.7071071 0.7071062
vn -0.5772987 0.577367 0.5773851
vn 0.0004883549 0.7071071 0.7071063
vn 0.7100878 0.004327828 0.7040998
vn 0.4974751 -0.002550245 0.8674746
vn 0.5773152 0.5773496 0.5773861
vn -0.0009689392 0.008607945 -0.9999626
vn -0.7014703 0.005802612 -0.712675
vn -0.802505 0.005665516 -0.5966185
vn -0.0007467563 0.008691107 -0.999962
vn -0.0004885463 0.7071071 -0.7071063
vn -0.5773876 0.5773783 -0.5772848
vn 0.0004885647 0.7071071 -0.7071062
vn 0.0009690663 0.008554357 -0.9999629
vn -0.00120957 0.7016538 -0.712517
vn 0.001198724 0.6997476 -0.7143893
vn 0.0007467566 0.008691262 -0.999962
vn 0.8024935 0.005696645 -0.5966337
vn 0.7014666 0.005802543 -0.7126787
vn 0.5774003 0.5773703 -0.5772802
vn -0.001029227 -0.7035523 0.7106427
vn -0.4975892 -0.002688965 0.8674086
vn -0.0003728289 -0.005795987 0.9999832
vn -0.7858914 -0.315754 0.531671
vn -0.6678517 -0.7442818 0.004299561
vn -0.0007021021 -0.9999919 0.003969043
vn -0.9994192 -0.007015332 0.03334612
vn -0.988553 -5.383187E-05 0.1508738
vn -0.7100878 0.004328158 0.7040998
vn -0.9993138 -0.03703666 0.0003501129
vn -0.9997597 -0.02151494 -0.00420047
vn -0.7163775 -0.697708 -0.002616967
vn -0.7070345 -0.01405316 -0.7070394
vn -0.5773041 -0.5774034 -0.5773431
vn -0.999805 0.01928828 -0.004221229
vn -0.7070345 0.01405586 -0.7070395
vn -0.9999479 0.01020453 -6.275815E-05
vn -0.7223241 0.6915481 -0.003018697
vn -0.577276 0.5774357 -0.5773391
vn -0.787554 0.61624 -0.002664056
vn -0.9999272 0.009862563 -0.006957809
vn -0.8614656 0.3864137 -0.329487
vn -0.9999547 0.0002771304 -0.009520489
vn -0.802505 0.005665516 -0.5966185
vn -0.00120957 0.7016538 -0.712517
vn -0.0009689392 0.008607945 -0.9999626
vn -0.9993175 0.007045622 -0.036259
vn -0.7014703 0.005802612 -0.712675
vn -0.9988563 0.006775465 0.04732935
vn -0.706805 0.7068016 -0.02929608
vn -0.5773876 0.5773783 -0.5772848
vn -0.7068036 0.7068021 0.02931751
vn -0.5772987 0.577367 0.5773851
vn 0.4974751 -0.002550245 0.8674746
vn 0.0009903782 -0.7060102 0.708201
vn 0.0003722613 -0.005843923 0.9999828
vn 0.7836391 -0.3064834 0.5403496
vn 0.6677933 -0.7443349 0.004207141
vn 0.0006950022 -0.999992 0.00393699
vn 0.9994175 -0.006521958 0.03349595
vn 0.999325 -0.03673469 0.0003426946
vn 0.71661 -0.6974687 -0.002755297
vn 0.9885543 -4.770245E-05 0.1508655
vn 0.9988563 0.006775814 0.04732933
vn 0.7100878 0.004327828 0.7040998
vn 0.706798 0.7068077 0.02931624
vn 0.5773152 0.5773496 0.5773861
vn 0.9993176 0.007046048 -0.03625763
vn 0.7067989 0.7068079 -0.02929474
vn 0.9999547 0.0002764242 -0.009521069
vn 0.7014666 0.005802543 -0.7126787
vn 0.5774003 0.5773703 -0.5772802
vn 0.8024935 0.005696645 -0.5966337
vn 0.9999253 0.009979266 -0.007065326
vn 0.9999481 0.01018739 -6.405021E-05
vn 0.8591703 0.3897705 -0.3315197
vn 0.001198724 0.6997476 -0.7143893
vn 0.0009690663 0.008554357 -0.9999629
vn 0.78561 0.6187161 -0.002695468
vn 0.9998028 0.01940597 -0.004216617
vn 0.7188439 0.6951652 -0.002987816
vn 0.9997645 -0.02129278 -0.004203298
vn 0.7070348 0.01405419 -0.7070391
vn 0.5773052 0.577408 -0.5773376
vn 0.7070343 -0.01405261 -0.7070395
vn 0.577293 -0.577394 -0.5773639
vn -0.00120957 0.7016538 -0.712517
vn -0.8614656 0.3864137 -0.329487
vn -0.787554 0.61624 -0.002664056
vn -0.0008736281 0.9999895 -0.004514546
vn 0.001198724 0.6997476 -0.7143893
vn -0.0007353268 0.9999894 -0.004556738
vn -0.7223241 0.6915481 -0.003018697
vn -0.0004882652 0.7071066 -0.7071066
vn -0.577276 0.5774357 -0.5773391
vn 0.0007314643 0.9999894 -0.004557539
vn 0.0004883259 0.7071066 -0.7071068
vn 0.000870871 0.9999894 -0.004542826
vn 0.7188439 0.6951652 -0.002987816
vn 0.5773052 0.577408 -0.5773376
vn 0.78561 0.6187161 -0.002695468
vn 0.8591703 0.3897705 -0.3315197
vn -0.0004882652 0.7071066 -0.7071066
vn -0.577276 0.5774357 -0.5773391
vn -0.7070345 0.01405586 -0.7070395
vn -0.0007177525 0.02072039 -0.9997851
vn 0.0004883259 0.7071066 -0.7071068
vn -0.7070345 -0.01405316 -0.7070394
vn 0.0007177389 0.02072144 -0.999785
vn 0.7070348 0.01405419 -0.7070391
vn 0.5773052 0.577408 -0.5773376
vn 0.7070343 -0.01405261 -0.7070395
vn 0.0007176878 -0.02072003 -0.9997851
vn -0.0007177153 -0.02072108 -0.999785
vn -0.0004883156 -0.7071066 -0.7071066
vn -0.5773041 -0.5774034 -0.5773431
vn 0.0004882949 -0.7071068 -0.7071066
vn 0.577293 -0.577394 -0.5773639
vn -0.706805 0.7068016 -0.02929608
vn -0.5773876 0.5773783 -0.5772848
vn -0.0004885463 0.7071071 -0.7071063
vn -0.0007036836 0.9990925 -0.04258818
vn -0.7068036 0.7068021 0.02931751
vn 0.0007036814 0.9990925 -0.04258886
vn 0.0004885647 0.7071071 -0.7071062
vn -0.0007038724 0.9990926 0.04258478
vn 0.7067989 0.7068079 -0.02929474
vn 0.5774003 0.5773703 -0.5772802
vn 0.0007038706 0.9990926 0.04258546
vn 0.706798 0.7068077 0.02931624
vn 0.0004883549 0.7071071 0.7071063
vn 0.5773152 0.5773496 0.5773861
vn -0.0004883347 0.7071071 0.7071062
vn -0.5772987 0.577367 0.5773851
usemtl HammeredMetal_AlbedoTransparency_2
f 159/159/159 158/158/158 157/157/157
f 158/158/158 160/160/160 157/157/157
f 160/160/160 158/158/158 161/161/161
f 158/158/158 162/162/162 161/161/161
f 161/161/161 163/163/163 160/160/160
f 164/164/164 157/157/157 160/160/160
f 157/157/157 164/164/164 165/165/165
f 164/164/164 166/166/166 165/165/165
f 167/167/167 164/164/164 160/160/160
f 163/163/163 167/167/167 160/160/160
f 164/164/164 167/167/167 168/168/168
f 167/167/167 169/169/169 168/168/168
f 167/167/167 163/163/163 169/169/169
f 163/163/163 170/170/170 169/169/169
f 173/173/173 172/172/172 171/171/171
f 172/172/172 174/174/174 171/171/171
f 174/174/174 175/175/175 171/171/171
f 175/175/175 176/176/176 171/171/171
f 171/171/171 176/176/176 177/177/177
f 176/176/176 178/178/178 177/177/177
f 176/176/176 179/179/179 178/178/178
f 176/176/176 175/175/175 179/179/179
f 179/179/179 180/180/180 178/178/178
f 175/175/175 181/181/181 179/179/179
f 182/182/182 175/175/175 174/174/174
f 175/175/175 182/182/182 181/181/181
f 183/183/183 182/182/182 174/174/174
f 182/182/182 184/184/184 181/181/181
f 187/187/187 186/186/186 185/185/185
f 186/186/186 188/188/188 185/185/185
f 188/188/188 186/186/186 189/189/189
f 186/186/186 190/190/190 189/189/189
f 189/189/189 191/191/191 188/188/188
f 185/185/185 188/188/188 192/192/192
f 185/185/185 192/192/192 193/193/193
f 192/192/192 194/194/194 193/193/193
f 188/188/188 195/195/195 192/192/192
f 191/191/191 195/195/195 188/188/188
f 192/192/192 195/195/195 196/196/196
f 195/195/195 197/197/197 196/196/196
f 195/195/195 191/191/191 197/197/197
f 191/191/191 198/198/198 197/197/197
f 201/201/201 200/200/200 199/199/199
f 200/200/200 202/202/202 199/199/199
f 199/199/199 202/202/202 203/203/203
f 204/204/204 199/199/199 203/203/203
f 205/205/205 202/202/202 200/200/200
f 203/203/203 202/202/202 205/205/205
f 206/206/206 205/205/205 200/200/200
f 200/200/200 207/207/207 206/206/206
f 208/208/208 203/203/203 205/205/205
f 208/208/208 209/209/209 203/203/203
f 209/209/209 210/210/210 203/203/203
f 209/209/209 211/211/211 210/210/210
f 211/211/211 212/212/212 210/210/210
f 211/211/211 209/209/209 213/213/213
f 214/214/214 211/211/211 213/213/213
f 209/209/209 208/208/208 215/215/215
f 213/213/213 209/209/209 215/215/215
f 213/213/213 216/216/216 214/214/214
f 216/216/216 213/213/213 215/215/215
f 216/216/216 217/217/217 214/214/214
f 218/218/218 216/216/216 215/215/215
f 215/215/215 208/208/208 219/219/219
f 215/215/215 219/219/219 218/218/218
f 208/208/208 205/205/205 219/219/219
f 219/219/219 220/220/220 218/218/218
f 219/219/219 205/205/205 221/221/221
f 205/205/205 206/206/206 221/221/221
f 222/222/222 220/220/220 219/219/219
f 221/221/221 222/222/222 219/219/219
f 223/223/223 220/220/220 222/222/222
f 224/224/224 223/223/223 222/222/222
f 221/221/221 225/225/225 222/222/222
f 221/221/221 206/206/206 225/225/225
f 225/225/225 226/226/226 222/222/222
f 206/206/206 227/227/227 225/225/225
f 207/207/207 227/227/227 206/206/206
f 225/225/225 228/228/228 226/226/226
f 225/225/225 227/227/227 228/228/228
f 228/228/228 229/229/229 226/226/226
f 227/227/227 230/230/230 228/228/228
f 227/227/227 207/207/207 230/230/230
f 207/207/207 231/231/231 230/230/230
f 234/234/234 233/233/233 232/232/232
f 233/233/233 235/235/235 232/232/232
f 236/236/236 235/235/235 233/233/233
f 237/237/237 236/236/236 233/233/233
f 238/238/238 235/235/235 236/236/236
f 232/232/232 235/235/235 238/238/238
f 239/239/239 238/238/238 236/236/236
f 236/236/236 240/240/240 239/239/239
f 241/241/241 232/232/232 238/238/238
f 241/241/241 242/242/242 232/232/232
f 242/242/242 243/243/243 232/232/232
f 242/242/242 244/244/244 243/243/243
f 244/244/244 245/245/245 243/243/243
f 244/244/244 242/242/242 246/246/246
f 247/247/247 244/244/244 246/246/246
f 242/242/242 241/241/241 248/248/248
f 246/246/246 242/242/242 248/248/248
f 246/246/246 249/249/249 247/247/247
f 249/249/249 246/246/246 248/248/248
f 249/249/249 250/250/250 247/247/247
f 251/251/251 249/249/249 248/248/248
f 248/248/248 241/241/241 252/252/252
f 241/241/241 238/238/238 252/252/252
f 248/248/248 252/252/252 251/251/251
f 252/252/252 238/238/238 253/253/253
f 238/238/238 239/239/239 253/253/253
f 252/252/252 254/254/254 251/251/251
f 251/251/251 254/254/254 255/255/255
f 256/256/256 251/251/251 255/255/255
f 257/257/257 254/254/254 252/252/252
f 253/253/253 257/257/257 252/252/252
f 253/253/253 258/258/258 257/257/257
f 253/253/253 239/239/239 258/258/258
f 258/258/258 259/259/259 257/257/257
f 239/239/239 260/260/260 258/258/258
f 240/240/240 260/260/260 239/239/239
f 258/258/258 261/261/261 259/259/259
f 258/258/258 260/260/260 261/261/261
f 261/261/261 262/262/262 259/259/259
f 260/260/260 263/263/263 261/261/261
f 260/260/260 240/240/240 263/263/263
f 240/240/240 264/264/264 263/263/263
f 267/267/267 266/266/266 265/265/265
f 268/268/268 267/267/267 265/265/265
f 265/265/265 269/269/269 268/268/268
f 268/268/268 270/270/270 267/267/267
f 270/270/270 271/271/271 267/267/267
f 270/270/270 272/272/272 271/271/271
f 272/272/272 273/273/273 271/271/271
f 270/270/270 274/274/274 272/272/272
f 274/274/274 270/270/270 268/268/268
f 274/274/274 275/275/275 272/272/272
f 269/269/269 276/276/276 268/268/268
f 276/276/276 274/274/274 268/268/268
f 274/274/274 277/277/277 275/275/275
f 277/277/277 274/274/274 276/276/276
f 277/277/277 278/278/278 275/275/275
f 279/279/279 277/277/277 276/276/276
f 276/276/276 269/269/269 279/279/279
f 269/269/269 280/280/280 279/279/279
f 283/283/283 282/282/282 281/281/281
f 284/284/284 283/283/283 281/281/281
f 281/281/281 285/285/285 284/284/284
f 283/283/283 284/284/284 286/286/286
f 285/285/285 287/287/287 284/284/284
f 287/287/287 285/285/285 288/288/288
f 285/285/285 289/289/289 288/288/288
f 288/288/288 290/290/290 287/287/287
f 287/287/287 291/291/291 284/284/284
f 290/290/290 291/291/291 287/287/287
f 284/284/284 292/292/292 286/286/286
f 291/291/291 292/292/292 284/284/284
f 292/292/292 293/293/293 286/286/286
f 292/292/292 291/291/291 293/293/293
f 293/293/293 294/294/294 286/286/286
f 291/291/291 295/295/295 293/293/293
f 291/291/291 290/290/290 295/295/295
f 290/290/290 296/296/296 295/295/295
f 299/299/299 298/298/298 297/297/297
f 300/300/300 299/299/299 297/297/297
f 297/297/297 301/301/301 300/300/300
f 300/300/300 302/302/302 299/299/299
f 302/302/302 303/303/303 299/299/299
f 301/301/301 304/304/304 300/300/300
f 300/300/300 304/304/304 302/302/302
f 302/302/302 305/305/305 303/303/303
f 305/305/305 306/306/306 303/303/303
f 302/302/302 307/307/307 305/305/305
f 304/304/304 307/307/307 302/302/302
f 307/307/307 308/308/308 305/305/305
f 307/307/307 309/309/309 308/308/308
f 309/309/309 307/307/307 304/304/304
f 309/309/309 310/310/310 308/308/308
f 311/311/311 309/309/309 304/304/304
f 304/304/304 301/301/301 311/311/311
f 301/301/301 312/312/312 311/311/311
