mtllib Cabinet_83d77a74.mtl
v 0.09 0.31919 0.02527
v 0.05581 0.3192 0.02528
v 0.05418 0.32083 0.027
v 0.20001 0.31919 0.02537
v 0.09001 0.32085 0.027
v 0.2 0.32085 0.02711
v 0.2342 0.3192 0.02538
v 0.23589 0.32083 0.02711
v 0.09 0.31919 0.02527
v 0.05418 0.32083 0.027
v 0.09001 0.32085 0.027
v 0.00136 -0.37363 0.027
v 0.09 -0.375 0.02541
v 0 -0.375 0.02541
v 0.09 -0.37368 0.027
v 0.20001 -0.375 0.02551
v 0.20001 -0.37368 0.02711
v 0.29001 -0.375 0.02551
v 0.28863 -0.37363 0.02711
v 0.20001 -0.375 0.00011
v 0.29001 -0.375 0.02551
v 0.29001 -0.375 0.00011
v 0.20001 -0.375 0.02551
v 0.09 -0.375 0.02541
v 0.09 -0.375 1E-05
v 0 -0.375 1E-05
v 0 -0.375 0.02541
v 0.28863 -0.37363 0.02711
v 0.29001 -0.285 0.02551
v 0.29001 -0.375 0.02551
v 0.28869 -0.285 0.02711
v 0.29001 0.285 0.02551
v 0.28869 0.285 0.02711
v 0.29001 0.37501 0.02551
v 0.28863 0.37368 0.02711
v 0.29001 0.285 0.00011
v 0.29001 0.37501 0.02551
v 0.29001 0.37501 0.00011
v 0.29001 0.285 0.02551
v 0.29001 -0.285 0.02551
v 0.29001 -0.285 0.00011
v 0.29001 -0.375 0.00011
v 0.29001 -0.375 0.02551
v 0.20001 0.37501 0.02551
v 0.29001 0.37501 0.02551
v 0.28863 0.37368 0.02711
v 0.20001 0.37365 0.02711
v 0.09 0.37501 0.0254
v 0.09 0.37365 0.027
v 0 0.37501 0.0254
v 0.00136 0.37368 0.027
v 0.09 0.37501 1E-05
v 0 0.37501 0.0254
v 0 0.37501 1E-05
v 0.09 0.37501 0.0254
v 0.20001 0.37501 0.02551
v 0.20001 0.37501 0.00011
v 0.29001 0.37501 0.00011
v 0.29001 0.37501 0.02551
v 0 0.28501 0.0254
v 0 0.37501 0.0254
v 0.00136 0.37368 0.027
v 0.00134 0.28501 0.027
v 0 -0.285 0.02541
v 0.00134 -0.28499 0.027
v 0 -0.375 0.02541
v 0.00136 -0.37363 0.027
v 0 0.37501 1E-05
v 0 0.37501 0.0254
v 0 0.28501 0.0254
v 0 0.28501 1E-05
v 0 -0.285 1E-05
v 0 -0.285 0.02541
v 0 -0.375 0.02541
v 0 -0.375 1E-05
v 0.05581 0.3192 0.02528
v 0.05416 0.285 0.027
v 0.05418 0.32083 0.027
v 0.05582 0.28501 0.02527
v 0.05416 -0.28499 0.027
v 0.05582 -0.285 0.02527
v 0.05418 -0.32081 0.027
v 0.05581 -0.31919 0.02528
v 0.0573 0.28501 0.01301
v 0.05581 0.3192 0.02528
v 0.0573 0.31771 0.01301
v 0.05582 0.28501 0.02527
v 0.05582 -0.285 0.02527
v 0.0573 -0.285 0.01301
v 0.0573 -0.3177 0.01301
v 0.05581 -0.31919 0.02528
v 0.0573 0.31771 0.01301
v 0.05581 0.3192 0.02528
v 0.09 0.31919 0.02527
v 0.09 0.31771 0.01301
v 0.20001 0.31771 0.01311
v 0.20001 0.31919 0.02537
v 0.2342 0.3192 0.02538
v 0.23271 0.31771 0.01311
v 0.23419 0.285 0.02537
v 0.2342 0.3192 0.02538
v 0.23589 0.32083 0.02711
v 0.2358 0.285 0.02711
v 0.23419 -0.285 0.02537
v 0.2358 -0.28499 0.02711
v 0.2342 -0.31919 0.02538
v 0.23589 -0.32081 0.02711
v 0.23271 0.31771 0.01311
v 0.2342 0.3192 0.02538
v 0.23419 0.285 0.02537
v 0.23271 0.285 0.01311
v 0.23271 -0.285 0.01311
v 0.23419 -0.285 0.02537
v 0.2342 -0.31919 0.02538
v 0.23271 -0.3177 0.01311
v 0.20001 -0.31918 0.02537
v 0.2342 -0.31919 0.02538
v 0.23589 -0.32081 0.02711
v 0.2 -0.32085 0.02711
v 0.09 -0.31918 0.02527
v 0.09001 -0.32085 0.027
v 0.05581 -0.31919 0.02528
v 0.05418 -0.32081 0.027
v 0.23271 -0.3177 0.01311
v 0.2342 -0.31919 0.02538
v 0.20001 -0.31918 0.02537
v 0.20001 -0.3177 0.01311
v 0.09 -0.3177 0.01301
v 0.09 -0.31918 0.02527
v 0.05581 -0.31919 0.02528
v 0.0573 -0.3177 0.01301
v 0.23271 0.285 0.01311
v 0.20001 0.31771 0.01311
v 0.23271 0.31771 0.01311
v 0.20001 0.285 0.01311
v 0.09 0.31771 0.01301
v 0.20001 -0.285 0.01311
v 0.23271 -0.285 0.01311
v 0.23271 -0.3177 0.01311
v 0.20001 -0.3177 0.01311
v 0.09 0.28501 0.01301
v 0.0573 0.31771 0.01301
v 0.0573 0.28501 0.01301
v 0.0573 -0.285 0.01301
v 0.09 -0.285 0.01301
v 0.09 -0.3177 0.01301
v 0.0573 -0.3177 0.01301
v 0.20001 0.37501 0.00011
v 0.29001 0.285 0.00011
v 0.29001 0.37501 0.00011
v 0.20001 0.285 0.00011
v 0.29001 -0.285 0.00011
v 0.09 0.28501 1E-05
v 0.09 0.37501 1E-05
v 0 0.37501 1E-05
v 0 0.28501 1E-05
v 0.20001 -0.285 0.00011
v 0.29001 -0.375 0.00011
v 0.20001 -0.375 0.00011
v 0.09 -0.375 1E-05
v 0.09 -0.285 1E-05
v 0 -0.285 1E-05
v 0 -0.375 1E-05
v 0.05418 0.32083 0.027
v 0.05416 0.285 0.027
v 0.00134 0.28501 0.027
v 0.00136 0.37368 0.027
v 0.00134 -0.28499 0.027
v 0.09001 0.32085 0.027
v 0.05416 -0.28499 0.027
v 0.09 0.37365 0.027
v 0.00136 -0.37363 0.027
v 0.2 0.32085 0.02711
v 0.05418 -0.32081 0.027
v 0.20001 0.37365 0.02711
v 0.09 -0.37368 0.027
v 0.23589 0.32083 0.02711
v 0.09001 -0.32085 0.027
v 0.28863 0.37368 0.02711
v 0.20001 -0.37368 0.02711
v 0.2358 0.285 0.02711
v 0.2 -0.32085 0.02711
v 0.28869 0.285 0.02711
v 0.28863 -0.37363 0.02711
v 0.2358 -0.28499 0.02711
v 0.23589 -0.32081 0.02711
v 0.28869 -0.285 0.02711
vt 4.133064 3.391816
vt 4.205227 3.391816
vt 4.294773 3.38994
vt 4.294773 3.391941
vt 4.366919 3.391941
vt 4.294773 3.358184
vt 4.294773 3.38994
vt 4.205227 3.358059
vt 1.857971 1.573614
vt 1.859989 2.104892
vt 1.857971 2.104892
vt 1.859989 2.17749
vt 1.857971 2.176417
vt 1.892029 2.104892
vt 1.859989 2.17749
vt 1.892029 2.17749
vt 1.859989 2.104892
vt 3.612587 1.794415
vt 3.612587 1.455581
vt 3.637413 1.794415
vt 3.637413 1.813854
vt 3.637413 1.455581
vt 3.884326 1.794219
vt 3.884326 1.794219
vt 0.6946034 2.247318
vt 0.6039549 2.157962
vt 0.6039549 2.247318
vt 0.6946034 2.157962
vt 0.6039549 1.592038
vt 0.8053966 2.157962
vt 0.8053966 2.247318
vt 0.8960446 2.247318
vt 0.8960446 2.157962
vt 0.6946034 1.592038
vt 0.6039549 1.502682
vt 0.6946034 1.502682
vt 0.8053964 1.502682
vt 0.8053964 1.592038
vt 0.8960446 1.592038
vt 0.8960446 1.502682
vt 2.604898 2.244964
vt 2.89506 2.244964
vt 4.466353 3.133991
vt 4.445446 3.134007
vt 4.444447 3.13698
vt 4.533613 3.134163
vt 4.466354 3.13698
vt 4.533613 3.137153
vt 4.55452 3.134179
vt 4.555553 3.137153
vt 4.466353 3.133991
vt 4.444447 3.13698
vt 4.466354 3.13698
vt 4.133064 3.391816
vt 4.205227 3.389815
vt 4.131965 3.389815
vt 4.205227 3.391816
vt 4.294773 3.38994
vt 4.294773 3.391941
vt 4.368035 3.38994
vt 4.366919 3.391941
vt 4.294773 3.358184
vt 4.368035 3.38994
vt 4.368035 3.358184
vt 4.294773 3.38994
vt 4.205227 3.389815
vt 4.205227 3.358059
vt 4.131965 3.358059
vt 4.131965 3.389815
vt 1.857971 1.573614
vt 1.859989 1.645108
vt 1.859989 1.57251
vt 1.857971 1.645108
vt 1.859989 2.104892
vt 1.857971 2.104892
vt 1.859989 2.17749
vt 1.857971 2.176417
vt 1.892029 2.104892
vt 1.859989 2.17749
vt 1.892029 2.17749
vt 1.859989 2.104892
vt 1.859989 1.645108
vt 1.892029 1.645108
vt 1.892029 1.57251
vt 1.859989 1.57251
vt 4.205217 3.639942
vt 4.131939 3.639942
vt 4.133057 3.641943
vt 4.205217 3.641943
vt 4.294783 3.639817
vt 4.294783 3.641818
vt 4.368061 3.639817
vt 4.36696 3.641818
vt 4.294783 3.608057
vt 4.368061 3.639817
vt 4.368061 3.608057
vt 4.294783 3.639817
vt 4.205217 3.639942
vt 4.205217 3.608182
vt 4.131939 3.608182
vt 4.131939 3.639942
vt 1.640013 2.104935
vt 1.640013 2.177546
vt 1.642032 2.176473
vt 1.642032 2.104935
vt 1.640014 1.645065
vt 1.642032 1.645065
vt 1.640014 1.572455
vt 1.642032 1.573559
vt 1.607968 2.177546
vt 1.640013 2.177546
vt 1.640013 2.104935
vt 1.607968 2.104935
vt 1.607968 1.645065
vt 1.640014 1.645065
vt 1.640014 1.572455
vt 1.607968 1.572455
vt 3.615646 1.814739
vt 3.612587 1.794415
vt 3.612587 1.815711
vt 3.615663 1.794415
vt 3.612587 1.455581
vt 3.615663 1.455581
vt 3.612587 1.434289
vt 3.615646 1.435256
vt 3.637413 1.794415
vt 3.615646 1.814739
vt 3.637413 1.813854
vt 3.615663 1.794415
vt 3.615663 1.455581
vt 3.637413 1.455581
vt 3.637413 1.436143
vt 3.615646 1.435256
vt 4.446359 3.112847
vt 4.445446 3.134007
vt 4.466353 3.133991
vt 4.466353 3.112847
vt 4.533613 3.11302
vt 4.533613 3.134163
vt 4.55452 3.134179
vt 4.553608 3.11302
vt 3.884326 1.794219
vt 3.884343 1.814519
vt 3.8874 1.81549
vt 3.8874 1.794219
vt 3.884326 1.455777
vt 3.8874 1.455777
vt 3.884343 1.435477
vt 3.8874 1.43451
vt 3.8626 1.813634
vt 3.884343 1.814519
vt 3.884326 1.794219
vt 3.8626 1.794219
vt 3.8626 1.455777
vt 3.884326 1.455777
vt 3.884343 1.435477
vt 3.8626 1.436362
vt 0.4663752 3.884166
vt 0.4454623 3.884182
vt 0.4444288 3.887156
vt 0.4663755 3.887156
vt 0.5336577 3.883994
vt 0.5336572 3.886983
vt 0.5545703 3.88401
vt 0.5555712 3.886983
vt 0.4463742 3.863017
vt 0.4454623 3.884182
vt 0.4663752 3.884166
vt 0.4663752 3.863017
vt 0.5336577 3.862844
vt 0.5336577 3.883994
vt 0.5545703 3.88401
vt 0.5536588 3.862844
vt 4.59483 1.763573
vt 4.559471 1.793815
vt 4.59483 1.793815
vt 4.559471 1.763573
vt 4.440529 1.793815
vt 4.559471 1.236427
vt 4.59483 1.236427
vt 4.59483 1.206185
vt 4.559471 1.206185
vt 4.440529 1.763574
vt 4.40517 1.793815
vt 4.40517 1.763574
vt 4.40517 1.236427
vt 4.440529 1.236427
vt 4.440529 1.206185
vt 4.40517 1.206185
vt 0.6946034 2.247318
vt 0.6039549 2.157962
vt 0.6039549 2.247318
vt 0.6946034 2.157962
vt 0.6039549 1.592038
vt 0.8053966 2.157962
vt 0.8053966 2.247318
vt 0.8960446 2.247318
vt 0.8960446 2.157962
vt 0.6946034 1.592038
vt 0.6039549 1.502682
vt 0.6946034 1.502682
vt 0.8053964 1.502682
vt 0.8053964 1.592038
vt 0.8960446 1.592038
vt 0.8960446 1.502682
vt 2.65825 2.192644
vt 2.658227 2.157174
vt 2.604879 2.157175
vt 2.604898 2.244964
vt 2.604879 1.592839
vt 2.694437 2.192668
vt 2.658227 1.592839
vt 2.694437 2.24494
vt 2.604898 1.505088
vt 2.805542 2.192668
vt 2.65825 1.557376
vt 2.805542 2.244939
vt 2.694437 1.505036
vt 2.841783 2.192644
vt 2.694437 1.557339
vt 2.89506 2.244964
vt 2.805542 1.505036
vt 2.841696 2.157174
vt 2.805542 1.557338
vt 2.895121 2.157175
vt 2.89506 1.505088
vt 2.841696 1.592839
vt 2.841783 1.557376
vt 2.895121 1.592839
vn 0 -1 0
vn 0 -1 0
vn 0 -1 0
vn 0 -1 0
vn 0 -1 0
vn 0 -1 0
vn 0 -1 0
vn 0 -1 0
vn 1 0 0
vn 1 0 0
vn 1 0 0
vn 1 0 0
vn 1 0 0
vn 1 0 0
vn 1 0 0
vn 1 0 0
vn 0.0002193029 0.7692007 0.6390072
vn 0 1 0
vn 0 1 0
vn 0 1 0
vn 0 1 0
vn 0 1 0
vn 0 1 0
vn 0 1 0
vn 0 1 0
vn -1 0 0
vn -1 0 0
vn -1 0 0
vn -1 0 0
vn -1 0 0
vn -1 0 0
vn 0.9927077 0 0.1205468
vn -0.0001106578 -0.9927092 0.1205341
vn 0 0 1
vn 0 0 1
vn 0 0 1
vn 0 0 1
vn 0 0 1
vn 0 0 1
vn 0 0 1
vn 0 0 1
vn 0 0 1
vn 0 0 1
vn 0 0 1
vn 0 0 1
vn 0 0 1
vn -0.0009095039 0 0.9999996
vn 0 0 1
vn 0 0 -1
vn 0 0 -1
vn 0 0 -1
vn 0 0 -1
vn 0 0 -1
vn 0 0 -1
vn 0 0 -1
vn 0 0 -1
vn 0 0 -1
vn 0 0 -1
vn 0 0 -1
vn 0 0 -1
vn 0.0009099761 0 -0.9999996
vn 0.0009096671 0 -0.9999996
vn 0 0 -1
vn 0 0 -1
vn 0 0 1
vn 4.438051E-07 0 1
vn 7.017185E-07 0 1
vn 0 0 1
vn 0 0 1
vn 0 0 1
vn 0.0001573352 -0.7255219 0.688199
vn 0.0001573352 -0.7255219 0.688199
vn 0.0001573352 -0.7255219 0.688199
vn -0.0006265593 -0.7223542 0.6915231
vn -0.0006265593 -0.7223541 0.691523
vn -0.0001783192 -0.7225119 0.6913585
vn -0.0001783192 -0.7225118 0.6913586
vn -0.0004740067 -0.7254322 0.6882934
vn 0.0004746261 -0.7224621 0.6914104
vn 0.000474626 -0.7224621 0.6914104
vn 0.0004746261 -0.7224621 0.6914104
vn -0.0004603445 -0.7723337 0.6352168
vn -0.0005257497 -0.7723507 0.635196
vn 0 -0.7597851 0.6501744
vn -0.0005249887 -0.7723506 0.6351963
vn -0.0005776978 -0.7723643 0.6351795
vn -0.0005791954 -0.7723476 0.6351999
vn 0 -0.7724113 0.6351226
vn 0.0004495781 -0.7598812 0.6500618
vn 0 -1 0
vn 0 -1 0
vn 0 -1 0
vn 0 -1 0
vn 0 -1 0
vn 0 -1 0
vn 0 -1 0
vn 0 -1 0
vn 0.7734594 -0.0005319437 0.6338456
vn 0.7734129 -7.06533E-05 0.6339025
vn 0.7591068 0 0.6509661
vn 0.7734131 -7.174182E-05 0.6339024
vn 0.7734058 0 0.6339113
vn 0.7734727 0 0.6338297
vn 0.7734215 0 0.6338921
vn 0.7588452 0.0005217132 0.6512707
vn 1 0 0
vn 1 0 0
vn 1 0 0
vn 1 0 0
vn 1 0 0
vn 1 0 0
vn 1 0 0
vn 1 0 0
vn 0 0.7689463 0.6393133
vn 0 0.7689463 0.6393133
vn 0 0.7689463 0.6393133
vn -0.000421107 0.7631238 0.6462522
vn -0.0005887793 0.7630767 0.6463076
vn -0.0005857461 0.7633581 0.6459753
vn 0 0.7630314 0.6463615
vn 0.0002193029 0.7692007 0.6390072
vn 0 1 0
vn 0 1 0
vn 0 1 0
vn 0 1 0
vn 0 1 0
vn 0 1 0
vn 0 1 0
vn 0 1 0
vn -0.7640141 0 0.6451995
vn -0.7640141 0 0.6451995
vn -0.7640141 0 0.6451995
vn -0.7684098 0.0001653205 0.639958
vn -0.7683719 5.627786E-07 0.6400035
vn -0.7683137 0 0.6400734
vn -0.7683137 0 0.6400735
vn -0.7638361 -0.0001643931 0.6454103
vn -1 0 0
vn -1 0 0
vn -1 0 0
vn -1 0 0
vn -1 2.634836E-07 0
vn -1 2.634629E-07 0
vn -1 0 0
vn -1 0 0
vn 0.7252904 -0.0004355582 0.6884429
vn 0.722563 -0.0001740783 0.691305
vn 0.725382 -0.0004443645 0.6883463
vn 0.7224272 -0.0001610918 0.6914468
vn 0.7224867 0.0004426349 0.6913847
vn 0.7253625 0.0001656006 0.6883669
vn 0.7253625 0.0001656006 0.688367
vn 0.7253625 0.0001656006 0.6883671
vn 0.99271 5.681819E-06 0.1205273
vn 0.9927084 1.785078E-06 0.1205407
vn 0.9927077 0 0.1205468
vn 0.9927107 7.223917E-06 0.120522
vn 0.9927105 -1.083299E-07 0.1205238
vn 0.992708 3.249887E-07 0.1205435
vn 0.9927083 0 0.1205423
vn 0.9927077 0 0.1205464
vn 1.804658E-06 -0.9927088 0.1205367
vn 1.804658E-06 -0.9927088 0.1205367
vn 1.804658E-06 -0.9927088 0.1205367
vn 0 -0.9927109 0.1205199
vn -0.0001111455 -0.9927095 0.1205311
vn -0.0001106578 -0.9927092 0.1205341
vn 2.231262E-07 -0.9927074 0.1205486
vn 0 -0.9927078 0.1205461
vn -0.7142373 -0.0001841547 0.6999036
vn -0.7142373 -0.0001841547 0.6999036
vn -0.7142374 -0.0001841547 0.6999035
vn -0.7340075 0.001757867 0.679139
vn -0.7339808 0 0.6791703
vn -0.7339678 0.0001776756 0.6791842
vn -0.7339678 0.0001776756 0.6791842
vn -0.7150339 -0.00171312 0.6990878
vn -0.9927076 -8.797479E-06 0.120548
vn -0.9927076 -8.797479E-06 0.120548
vn -0.9927076 -8.797479E-06 0.120548
vn -0.9927044 2.360453E-07 0.1205738
vn -0.9927045 0 0.120573
vn -0.9927045 0 0.1205731
vn -0.9927067 1.876084E-06 0.120554
vn -0.9927073 -4.717186E-07 0.1205496
vn -0.0001791174 0.7270161 0.6866204
vn -0.0001791174 0.7270161 0.6866204
vn -0.0001791174 0.7270161 0.6866204
vn -0.0007689273 0.7210156 0.6929184
vn -0.0006262448 0.7209228 0.6930152
vn 0.0001564365 0.720862 0.6930787
vn 0.0001564365 0.720862 0.6930786
vn 0.0007762082 0.7267817 0.686868
vn -2.706969E-06 0.9927129 0.1205034
vn -2.70697E-06 0.9927129 0.1205035
vn -2.70697E-06 0.9927129 0.1205035
vn 0 0.992707 0.1205528
vn -0.0001069382 0.9927092 0.1205343
vn -0.0001067939 0.9927095 0.1205313
vn -4.462605E-07 0.9927083 0.1205418
vn 0 0.9927076 0.1205475
vn 0 0 1
vn 0 0 1
vn 0 0 1
vn 0 0 1
vn 0 0 1
vn 0 0 1
vn 0 0 1
vn 0 0 1
vn 0 0 1
vn 0 0 1
vn 0 0 1
vn 0 0 1
vn 0 0 1
vn -0.0009097566 0 0.9999996
vn -0.0009095039 0 0.9999996
vn 0 0 1
vn 0 0 -1
vn 0 0 -1
vn 0 0 -1
vn 0 0 -1
vn 0 0 -1
vn 0 0 -1
vn 0 0 -1
vn 0 0 -1
vn 0 0 -1
vn 0 0 -1
vn 0 0 -1
vn 0 0 -1
vn 0.0009099761 0 -0.9999996
vn 0.0009096671 0 -0.9999996
vn 0 0 -1
vn 0 0 -1
vn 3.339276E-07 0 1
vn -3.816147E-07 0 1
vn 0 0 1
vn 4.438051E-07 0 1
vn 7.017185E-07 0 1
vn -0.0005538774 0 0.9999999
vn 4.747563E-07 0 1
vn -0.0005045953 0 0.9999999
vn 1.96799E-06 0 1
vn -0.0006871473 0 0.9999998
vn -2.318335E-07 0 1
vn -0.0005617926 0 0.9999999
vn -0.0005616167 0 0.9999999
vn -1.532499E-07 0 1
vn -0.0006881754 0 0.9999998
vn 0 0 1
vn -0.0005053294 0 0.9999999
vn 0 0 1
vn -0.0005558126 0 0.9999999
vn -3.302577E-07 0 1
vn 0 0 1
vn -5.736565E-06 0 1
vn -2.810414E-07 0 1
vn -5.783657E-06 0 1
usemtl WhiteWoodClean
f 3/45/73 2/44/72 1/43/71
f 5/47/75 1/43/71 4/46/74
f 6/48/76 5/47/75 4/46/74
f 6/48/76 4/46/74 7/49/77
f 8/50/78 6/48/76 7/49/77
f 11/53/81 10/52/80 9/51/79
f 14/56/84 13/55/83 12/54/82
f 13/55/83 15/57/85 12/54/82
f 15/57/85 13/55/83 16/58/86
f 17/59/87 15/57/85 16/58/86
f 16/58/86 18/60/88 17/59/87
f 18/60/88 19/61/89 17/59/87
f 22/64/92 21/63/91 20/62/90
f 21/63/91 23/65/93 20/62/90
f 20/62/90 23/65/93 24/66/94
f 25/67/95 20/62/90 24/66/94
f 25/67/95 24/66/94 26/68/96
f 24/66/94 27/69/97 26/68/96
f 30/72/100 29/71/99 28/70/98
f 29/71/99 31/73/101 28/70/98
f 31/73/101 29/71/99 32/74/102
f 33/75/103 31/73/101 32/74/102
f 32/74/102 34/76/104 33/75/103
f 34/76/104 35/77/105 33/75/103
f 38/80/108 37/79/107 36/78/106
f 37/79/107 39/81/109 36/78/106
f 36/78/106 39/81/109 40/82/110
f 41/83/111 36/78/106 40/82/110
f 41/83/111 40/82/110 42/84/112
f 40/82/110 43/85/113 42/84/112
f 46/88/116 45/87/115 44/86/114
f 47/89/117 46/88/116 44/86/114
f 47/89/117 44/86/114 48/90/118
f 49/91/119 47/89/117 48/90/118
f 49/91/119 48/90/118 50/92/120
f 51/93/121 49/91/119 50/92/120
f 54/96/124 53/95/123 52/94/122
f 53/95/123 55/97/125 52/94/122
f 52/94/122 55/97/125 56/98/126
f 57/99/127 52/94/122 56/98/126
f 57/99/127 56/98/126 58/100/128
f 56/98/126 59/101/129 58/100/128
f 62/104/132 61/103/131 60/102/130
f 63/105/133 62/104/132 60/102/130
f 63/105/133 60/102/130 64/106/134
f 65/107/135 63/105/133 64/106/134
f 64/106/134 66/108/136 65/107/135
f 66/108/136 67/109/137 65/107/135
f 70/112/140 69/111/139 68/110/138
f 71/113/141 70/112/140 68/110/138
f 71/113/141 72/114/142 70/112/140
f 72/114/142 73/115/143 70/112/140
f 74/116/144 73/115/143 72/114/142
f 75/117/145 74/116/144 72/114/142
f 78/120/148 77/119/147 76/118/146
f 77/119/147 79/121/149 76/118/146
f 79/121/149 77/119/147 80/122/150
f 81/123/151 79/121/149 80/122/150
f 80/122/150 82/124/152 81/123/151
f 82/124/152 83/125/153 81/123/151
f 86/128/156 85/127/155 84/126/154
f 85/127/155 87/129/157 84/126/154
f 84/126/154 87/129/157 88/130/158
f 89/131/159 84/126/154 88/130/158
f 89/131/159 88/130/158 90/132/160
f 88/130/158 91/133/161 90/132/160
f 94/136/164 93/135/163 92/134/162
f 95/137/165 94/136/164 92/134/162
f 95/137/165 96/138/166 94/136/164
f 96/138/166 97/139/167 94/136/164
f 98/140/168 97/139/167 96/138/166
f 99/141/169 98/140/168 96/138/166
f 102/144/172 101/143/171 100/142/170
f 103/145/173 102/144/172 100/142/170
f 103/145/173 100/142/170 104/146/174
f 105/147/175 103/145/173 104/146/174
f 105/147/175 104/146/174 106/148/176
f 107/149/177 105/147/175 106/148/176
f 110/152/180 109/151/179 108/150/178
f 111/153/181 110/152/180 108/150/178
f 110/152/180 111/153/181 112/154/182
f 113/155/183 110/152/180 112/154/182
f 114/156/184 113/155/183 112/154/182
f 115/157/185 114/156/184 112/154/182
f 118/160/188 117/159/187 116/158/186
f 119/161/189 118/160/188 116/158/186
f 119/161/189 116/158/186 120/162/190
f 121/163/191 119/161/189 120/162/190
f 121/163/191 120/162/190 122/164/192
f 123/165/193 121/163/191 122/164/192
f 126/168/196 125/167/195 124/166/194
f 127/169/197 126/168/196 124/166/194
f 127/169/197 128/170/198 126/168/196
f 128/170/198 129/171/199 126/168/196
f 130/172/200 129/171/199 128/170/198
f 131/173/201 130/172/200 128/170/198
f 134/176/204 133/175/203 132/174/202
f 133/175/203 135/177/205 132/174/202
f 135/177/205 133/175/203 136/178/206
f 132/174/202 135/177/205 137/179/207
f 138/180/208 132/174/202 137/179/207
f 138/180/208 137/179/207 139/181/209
f 137/179/207 140/182/210 139/181/209
f 141/183/211 135/177/205 136/178/206
f 135/177/205 141/183/211 137/179/207
f 136/178/206 142/184/212 141/183/211
f 142/184/212 143/185/213 141/183/211
f 141/183/211 143/185/213 144/186/214
f 140/182/210 137/179/207 145/187/215
f 141/183/211 145/187/215 137/179/207
f 145/187/215 141/183/211 144/186/214
f 146/188/216 140/182/210 145/187/215
f 145/187/215 144/186/214 146/188/216
f 144/186/214 147/189/217 146/188/216
f 150/192/220 149/191/219 148/190/218
f 149/191/219 151/193/221 148/190/218
f 151/193/221 149/191/219 152/194/222
f 148/190/218 151/193/221 153/195/223
f 154/196/224 148/190/218 153/195/223
f 154/196/224 153/195/223 155/197/225
f 153/195/223 156/198/226 155/197/225
f 157/199/227 151/193/221 152/194/222
f 151/193/221 157/199/227 153/195/223
f 152/194/222 158/200/228 157/199/227
f 158/200/228 159/201/229 157/199/227
f 159/201/229 160/202/230 157/199/227
f 153/195/223 161/203/231 156/198/226
f 157/199/227 161/203/231 153/195/223
f 160/202/230 161/203/231 157/199/227
f 161/203/231 162/204/232 156/198/226
f 161/203/231 160/202/230 162/204/232
f 160/202/230 163/205/233 162/204/232
f 166/208/236 165/207/235 164/206/234
f 167/209/237 166/208/236 164/206/234
f 165/207/235 166/208/236 168/210/238
f 167/209/237 164/206/234 169/211/239
f 170/212/240 165/207/235 168/210/238
f 171/213/241 167/209/237 169/211/239
f 168/210/238 172/214/242 170/212/240
f 171/213/241 169/211/239 173/215/243
f 172/214/242 174/216/244 170/212/240
f 175/217/245 171/213/241 173/215/243
f 172/214/242 176/218/246 174/216/244
f 175/217/245 173/215/243 177/219/247
f 176/218/246 178/220/248 174/216/244
f 179/221/249 175/217/245 177/219/247
f 176/218/246 180/222/250 178/220/248
f 179/221/249 177/219/247 181/223/251
f 180/222/250 182/224/252 178/220/248
f 183/225/253 179/221/249 181/223/251
f 180/222/250 184/226/254 182/224/252
f 183/225/253 181/223/251 185/227/255
f 184/226/254 186/228/256 182/224/252
f 187/229/257 183/225/253 185/227/255
f 184/226/254 187/229/257 186/228/256
f 187/229/257 185/227/255 186/228/256
