mtllib Cabinet_83d77a74.mtl
v -0.19 0.31919 0.02527
v -0.22419 0.3192 0.02528
v -0.22582 0.32083 0.027
v -0.07999 0.31919 0.02537
v -0.18999 0.32085 0.027
v -0.08 0.32085 0.02711
v -0.0458 0.3192 0.02538
v -0.04411 0.32083 0.02711
v -0.19 0.31919 0.02527
v -0.22582 0.32083 0.027
v -0.18999 0.32085 0.027
v -0.27864 -0.37363 0.027
v -0.19 -0.375 0.02541
v -0.28 -0.375 0.02541
v -0.19 -0.37368 0.027
v -0.07999 -0.375 0.02551
v -0.07999 -0.37368 0.02711
v 0.01001 -0.375 0.02551
v 0.00863 -0.37363 0.02711
v -0.07999 -0.375 0.00011
v 0.01001 -0.375 0.02551
v 0.01001 -0.375 0.00011
v -0.07999 -0.375 0.02551
v -0.19 -0.375 0.02541
v -0.19 -0.375 1E-05
v -0.28 -0.375 1E-05
v -0.28 -0.375 0.02541
v 0.00863 -0.37363 0.02711
v 0.01001 -0.285 0.02551
v 0.01001 -0.375 0.02551
v 0.00869 -0.285 0.02711
v 0.01001 0.285 0.02551
v 0.00869 0.285 0.02711
v 0.01001 0.37501 0.02551
v 0.00863 0.37368 0.02711
v 0.01001 0.285 0.00011
v 0.01001 0.37501 0.02551
v 0.01001 0.37501 0.00011
v 0.01001 0.285 0.02551
v 0.01001 -0.285 0.02551
v 0.01001 -0.285 0.00011
v 0.01001 -0.375 0.00011
v 0.01001 -0.375 0.02551
v -0.07999 0.37501 0.02551
v 0.01001 0.37501 0.02551
v 0.00863 0.37368 0.02711
v -0.07999 0.37365 0.02711
v -0.19 0.37501 0.0254
v -0.19 0.37365 0.027
v -0.28 0.37501 0.0254
v -0.27864 0.37368 0.027
v -0.19 0.37501 1E-05
v -0.28 0.37501 0.0254
v -0.28 0.37501 1E-05
v -0.19 0.37501 0.0254
v -0.07999 0.37501 0.02551
v -0.07999 0.37501 0.00011
v 0.01001 0.37501 0.00011
v 0.01001 0.37501 0.02551
v -0.28 0.28501 0.0254
v -0.28 0.37501 0.0254
v -0.27864 0.37368 0.027
v -0.27866 0.28501 0.027
v -0.28 -0.285 0.02541
v -0.27866 -0.28499 0.027
v -0.28 -0.375 0.02541
v -0.27864 -0.37363 0.027
v -0.28 0.37501 1E-05
v -0.28 0.37501 0.0254
v -0.28 0.28501 0.0254
v -0.28 0.28501 1E-05
v -0.28 -0.285 1E-05
v -0.28 -0.285 0.02541
v -0.28 -0.375 0.02541
v -0.28 -0.375 1E-05
v -0.22419 0.3192 0.02528
v -0.22584 0.285 0.027
v -0.22582 0.32083 0.027
v -0.22418 0.28501 0.02527
v -0.22584 -0.28499 0.027
v -0.22418 -0.285 0.02527
v -0.22582 -0.32081 0.027
v -0.22419 -0.31919 0.02528
v -0.2227 0.28501 0.01301
v -0.22419 0.3192 0.02528
v -0.2227 0.31771 0.01301
v -0.22418 0.28501 0.02527
v -0.22418 -0.285 0.02527
v -0.2227 -0.285 0.01301
v -0.2227 -0.3177 0.01301
v -0.22419 -0.31919 0.02528
v -0.2227 0.31771 0.01301
v -0.22419 0.3192 0.02528
v -0.19 0.31919 0.02527
v -0.19 0.31771 0.01301
v -0.07999 0.31771 0.01311
v -0.07999 0.31919 0.02537
v -0.0458 0.3192 0.02538
v -0.04729 0.31771 0.01311
v -0.04581 0.285 0.02537
v -0.0458 0.3192 0.02538
v -0.04411 0.32083 0.02711
v -0.0442 0.285 0.02711
v -0.04581 -0.285 0.02537
v -0.0442 -0.28499 0.02711
v -0.0458 -0.31919 0.02538
v -0.04411 -0.32081 0.02711
v -0.04729 0.31771 0.01311
v -0.0458 0.3192 0.02538
v -0.04581 0.285 0.02537
v -0.04729 0.285 0.01311
v -0.04729 -0.285 0.01311
v -0.04581 -0.285 0.02537
v -0.0458 -0.31919 0.02538
v -0.04729 -0.3177 0.01311
v -0.07999 -0.31918 0.02537
v -0.0458 -0.31919 0.02538
v -0.04411 -0.32081 0.02711
v -0.08 -0.32085 0.02711
v -0.19 -0.31918 0.02527
v -0.18999 -0.32085 0.027
v -0.22419 -0.31919 0.02528
v -0.22582 -0.32081 0.027
v -0.04729 -0.3177 0.01311
v -0.0458 -0.31919 0.02538
v -0.07999 -0.31918 0.02537
v -0.07999 -0.3177 0.01311
v -0.19 -0.3177 0.01301
v -0.19 -0.31918 0.02527
v -0.22419 -0.31919 0.02528
v -0.2227 -0.3177 0.01301
v -0.04729 0.285 0.01311
v -0.07999 0.31771 0.01311
v -0.04729 0.31771 0.01311
v -0.07999 0.285 0.01311
v -0.19 0.31771 0.01301
v -0.07999 -0.285 0.01311
v -0.04729 -0.285 0.01311
v -0.04729 -0.3177 0.01311
v -0.07999 -0.3177 0.01311
v -0.19 0.28501 0.01301
v -0.2227 0.31771 0.01301
v -0.2227 0.28501 0.01301
v -0.2227 -0.285 0.01301
v -0.19 -0.285 0.01301
v -0.19 -0.3177 0.01301
v -0.2227 -0.3177 0.01301
v -0.07999 0.37501 0.00011
v 0.01001 0.285 0.00011
v 0.01001 0.37501 0.00011
v -0.07999 0.285 0.00011
v 0.01001 -0.285 0.00011
v -0.19 0.28501 1E-05
v -0.19 0.37501 1E-05
v -0.28 0.37501 1E-05
v -0.28 0.28501 1E-05
v -0.07999 -0.285 0.00011
v 0.01001 -0.375 0.00011
v -0.07999 -0.375 0.00011
v -0.19 -0.375 1E-05
v -0.19 -0.285 1E-05
v -0.28 -0.285 1E-05
v -0.28 -0.375 1E-05
v -0.22582 0.32083 0.027
v -0.22584 0.285 0.027
v -0.27866 0.28501 0.027
v -0.27864 0.37368 0.027
v -0.27866 -0.28499 0.027
v -0.18999 0.32085 0.027
v -0.22584 -0.28499 0.027
v -0.19 0.37365 0.027
v -0.27864 -0.37363 0.027
v -0.08 0.32085 0.02711
v -0.22582 -0.32081 0.027
v -0.07999 0.37365 0.02711
v -0.19 -0.37368 0.027
v -0.04411 0.32083 0.02711
v -0.18999 -0.32085 0.027
v 0.00863 0.37368 0.02711
v -0.07999 -0.37368 0.02711
v -0.0442 0.285 0.02711
v -0.08 -0.32085 0.02711
v 0.00869 0.285 0.02711
v 0.00863 -0.37363 0.02711
v -0.0442 -0.28499 0.02711
v -0.04411 -0.32081 0.02711
v 0.00869 -0.285 0.02711
vt 4.466342 3.133993
vt 4.445429 3.13401
vt 4.444428 3.136984
vt 4.533625 3.134166
vt 4.466342 3.136984
vt 4.533625 3.137156
vt 4.554538 3.134182
vt 4.555572 3.137156
vt 4.466342 3.133993
vt 4.444428 3.136984
vt 4.466342 3.136984
vt 4.133064 3.391816
vt 4.205227 3.389816
vt 4.131963 3.389816
vt 4.205227 3.391816
vt 4.294773 3.38994
vt 4.294773 3.391941
vt 4.368037 3.38994
vt 4.366919 3.391941
vt 4.294773 3.358184
vt 4.368037 3.38994
vt 4.368037 3.358184
vt 4.294773 3.38994
vt 4.205227 3.389816
vt 4.205227 3.358059
vt 4.131963 3.358059
vt 4.131963 3.389816
vt 1.857971 1.573614
vt 1.859989 1.645109
vt 1.859989 1.572511
vt 1.857971 1.645109
vt 1.859989 2.104892
vt 1.857971 2.104892
vt 1.859989 2.17749
vt 1.857971 2.176417
vt 1.892029 2.104892
vt 1.859989 2.17749
vt 1.892029 2.17749
vt 1.859989 2.104892
vt 1.859989 1.645109
vt 1.892029 1.645109
vt 1.892029 1.572511
vt 1.859989 1.572511
vt 4.205216 3.639943
vt 4.131937 3.639943
vt 4.133055 3.641944
vt 4.205216 3.641944
vt 4.294784 3.639817
vt 4.294784 3.641818
vt 4.368063 3.639817
vt 4.366962 3.641818
vt 4.294784 3.608056
vt 4.368063 3.639817
vt 4.368063 3.608056
vt 4.294784 3.639817
vt 4.205216 3.639943
vt 4.205216 3.608182
vt 4.131937 3.608182
vt 4.131937 3.639943
vt 1.640013 2.104933
vt 1.640013 2.177543
vt 1.642032 2.17647
vt 1.642032 2.104933
vt 1.640013 1.645067
vt 1.642032 1.645067
vt 1.640013 1.572456
vt 1.642032 1.573561
vt 1.607968 2.177543
vt 1.640013 2.177543
vt 1.640013 2.104933
vt 1.607968 2.104933
vt 1.607968 1.645067
vt 1.640013 1.645067
vt 1.640013 1.572456
vt 1.607968 1.572456
vt 3.615645 1.81474
vt 3.612587 1.794415
vt 3.612587 1.815713
vt 3.615662 1.794415
vt 3.612587 1.455581
vt 3.615662 1.455581
vt 3.612587 1.434288
vt 3.615645 1.435256
vt 3.637413 1.794415
vt 3.615645 1.81474
vt 3.637413 1.813854
vt 3.615662 1.794415
vt 3.615662 1.455581
vt 3.637413 1.455581
vt 3.637413 1.436142
vt 3.615645 1.435256
vt 4.446342 3.112844
vt 4.445429 3.13401
vt 4.466342 3.133993
vt 4.466342 3.112844
vt 4.533625 3.113016
vt 4.533625 3.134166
vt 4.554538 3.134182
vt 4.553625 3.113016
vt 3.884326 1.794219
vt 3.884343 1.81452
vt 3.887399 1.815491
vt 3.887399 1.794219
vt 3.884326 1.455776
vt 3.887399 1.455777
vt 3.884343 1.435475
vt 3.887399 1.434509
vt 3.862601 1.813636
vt 3.884343 1.81452
vt 3.884326 1.794219
vt 3.862601 1.794219
vt 3.862601 1.455776
vt 3.884326 1.455776
vt 3.884343 1.435475
vt 3.862601 1.43636
vt 0.466372 3.884166
vt 0.4454573 3.884183
vt 0.4444237 3.887157
vt 0.4663723 3.887157
vt 0.5336607 3.883994
vt 0.5336602 3.886984
vt 0.5545754 3.88401
vt 0.5555763 3.886984
vt 0.4463692 3.863015
vt 0.4454573 3.884183
vt 0.466372 3.884166
vt 0.466372 3.863015
vt 0.5336607 3.862843
vt 0.5336607 3.883994
vt 0.5545754 3.88401
vt 0.5536638 3.862843
vt 4.59483 1.763574
vt 4.559471 1.793816
vt 4.59483 1.793816
vt 4.559471 1.763574
vt 4.440529 1.793816
vt 4.559471 1.236426
vt 4.59483 1.236426
vt 4.59483 1.206184
vt 4.559471 1.206184
vt 4.440529 1.763575
vt 4.40517 1.793816
vt 4.40517 1.763575
vt 4.40517 1.236426
vt 4.440529 1.236426
vt 4.440529 1.206184
vt 4.40517 1.206184
vt 0.6946034 2.247318
vt 0.6039549 2.157962
vt 0.6039549 2.247318
vt 0.6946034 2.157962
vt 0.6039549 1.592038
vt 0.8053966 2.157962
vt 0.8053966 2.247318
vt 0.8960446 2.247318
vt 0.8960446 2.157962
vt 0.6946034 1.592038
vt 0.6039549 1.502682
vt 0.6946034 1.502682
vt 0.8053964 1.502682
vt 0.8053964 1.592038
vt 0.8960446 1.592038
vt 0.8960446 1.502682
vt 2.658251 2.192643
vt 2.658228 2.157173
vt 2.604879 2.157174
vt 2.604898 2.244964
vt 2.604879 1.59284
vt 2.694438 2.192667
vt 2.658228 1.592841
vt 2.694437 2.244939
vt 2.604898 1.50509
vt 2.805541 2.192667
vt 2.658251 1.557378
vt 2.805542 2.244938
vt 2.694437 1.505038
vt 2.841782 2.192643
vt 2.694438 1.55734
vt 2.89506 2.244964
vt 2.805542 1.505038
vt 2.841696 2.157173
vt 2.805541 1.55734
vt 2.895121 2.157173
vt 2.89506 1.50509
vt 2.841696 1.592841
vt 2.841782 1.557378
vt 2.895121 1.59284
vt 4.133064 3.391816
vt 4.205227 3.391816
vt 4.294773 3.38994
vt 4.294773 3.391941
vt 4.366919 3.391941
vt 4.294773 3.358184
vt 4.294773 3.38994
vt 4.205227 3.358059
vt 1.857971 1.573614
vt 1.859989 2.104892
vt 1.857971 2.104892
vt 1.859989 2.17749
vt 1.857971 2.176417
vt 1.892029 2.104892
vt 1.859989 2.17749
vt 1.892029 2.17749
vt 1.859989 2.104892
vt 3.612587 1.794415
vt 3.612587 1.455581
vt 3.637413 1.794415
vt 3.637413 1.813854
vt 3.637413 1.455581
vt 3.884326 1.794219
vt 3.884326 1.794219
vt 0.6946034 2.247318
vt 0.6039549 2.157962
vt 0.6039549 2.247318
vt 0.6946034 2.157962
vt 0.6039549 1.592038
vt 0.8053966 2.157962
vt 0.8053966 2.247318
vt 0.8960446 2.247318
vt 0.8960446 2.157962
vt 0.6946034 1.592038
vt 0.6039549 1.502682
vt 0.6946034 1.502682
vt 0.8053964 1.502682
vt 0.8053964 1.592038
vt 0.8960446 1.592038
vt 0.8960446 1.502682
vt 2.604898 2.244964
vt 2.89506 2.244964
vn 0.0001573352 -0.7255217 0.6881993
vn 0.0001573352 -0.7255216 0.6881993
vn 0.0001573352 -0.7255216 0.6881993
vn -0.0006265595 -0.7223539 0.6915233
vn -0.0006265595 -0.7223539 0.6915233
vn -0.000191845 -0.722504 0.6913667
vn -0.0004648808 -0.7253384 0.6883923
vn -0.0004740062 -0.7254329 0.6882927
vn 0.0004746262 -0.722462 0.6914105
vn 0.0004746262 -0.722462 0.6914105
vn 0.0004746262 -0.722462 0.6914105
vn -0.0004603444 -0.7723338 0.6352167
vn -0.0005257521 -0.7723507 0.6351961
vn 0 -0.7598487 0.6501001
vn -0.0005249902 -0.7723505 0.6351963
vn -0.0005776979 -0.7723642 0.6351797
vn -0.0005791956 -0.7723475 0.6352001
vn 0 -0.7724116 0.6351222
vn 0.0004495397 -0.7598164 0.6501375
vn 0 -1 0
vn 0 -1 0
vn 0 -1 0
vn 0 -1 0
vn 0 -1 0
vn 0 -1 0
vn 0 -1 0
vn 0 -1 0
vn 0.7734476 -0.0005325857 0.6338599
vn 0.7734016 -7.073862E-05 0.6339164
vn 0.759076 0 0.651002
vn 0.7734016 -7.182851E-05 0.6339163
vn 0.7733946 0 0.633925
vn 0.7734614 0 0.6338434
vn 0.7734105 0 0.6339056
vn 0.7588139 0.0005223294 0.6513073
vn 1 0 0
vn 1 0 0
vn 1 0 0
vn 1 0 0
vn 1 0 0
vn 1 0 0
vn 1 0 0
vn 1 0 0
vn 0 0.7690749 0.6391587
vn 0 0.7690749 0.6391587
vn 0 0.7690749 0.6391587
vn -0.000421171 0.7632394 0.6461157
vn -0.00058886 0.763181 0.6461846
vn -0.0005856662 0.7632535 0.6460989
vn 0 0.7631588 0.646211
vn 0.0002193029 0.7692007 0.6390072
vn 0 1 0
vn 0 1 0
vn 0 1 0
vn 0 1 0
vn 0 1 0
vn 0 1 0
vn 0 1 0
vn 0 1 0
vn -0.7640331 0 0.6451771
vn -0.7640331 0 0.6451771
vn -0.7640331 0 0.6451771
vn -0.7684302 0.0001653249 0.6399335
vn -0.7683923 6.230551E-07 0.6399792
vn -0.7683228 0 0.6400626
vn -0.7683228 0 0.6400626
vn -0.7638453 -0.0001642666 0.6453995
vn -1 0 0
vn -1 0 0
vn -1 0 0
vn -1 0 0
vn -1 3.425287E-07 0
vn -1 3.688551E-07 0
vn -1 0 0
vn -1 0 0
vn 0.7252946 -0.0004366815 0.6884385
vn 0.7225613 -0.0001752398 0.6913069
vn 0.7253865 -0.0004454865 0.6883417
vn 0.7224252 -0.000162256 0.691449
vn 0.7224734 0.0004437361 0.6913985
vn 0.725391 0.0001638444 0.6883371
vn 0.725391 0.0001638445 0.6883371
vn 0.725391 0.0001638444 0.6883371
vn 0.9927096 4.97159E-06 0.1205301
vn 0.9927083 1.561943E-06 0.1205416
vn 0.9927077 0 0.1205468
vn 0.9927102 6.320925E-06 0.1205256
vn 0.9927098 0 0.1205291
vn 0.9927088 2.166593E-07 0.1205367
vn 0.9927088 -9.441564E-07 0.1205367
vn 0.992708 -4.511706E-06 0.1205438
vn 1.804657E-06 -0.9927076 0.1205475
vn 1.804657E-06 -0.9927076 0.1205475
vn 1.804657E-06 -0.9927076 0.1205475
vn 0 -0.9927109 0.1205201
vn -0.0001111456 -0.9927095 0.1205312
vn -0.0001106578 -0.9927092 0.1205341
vn 2.231247E-07 -0.9927083 0.1205414
vn 0 -0.9927078 0.1205459
vn -0.7142284 -0.0001841648 0.6999128
vn -0.7142285 -0.0001841648 0.6999127
vn -0.7142285 -0.0001841648 0.6999127
vn -0.7339986 0.001759394 0.6791487
vn -0.7339705 0 0.6791813
vn -0.7339599 0.0001763585 0.6791928
vn -0.7339599 0.0001763585 0.6791927
vn -0.7150272 -0.00171338 0.6990945
vn -0.9927081 -9.023061E-06 0.1205427
vn -0.9927081 -9.023062E-06 0.1205427
vn -0.9927081 -9.02306E-06 0.1205427
vn -0.9927052 0 0.1205664
vn -0.9927053 0 0.1205658
vn -0.9927053 0 0.1205658
vn -0.9927074 2.231243E-06 0.1205482
vn -0.992708 0 0.120544
vn -0.0001790989 0.7269409 0.6867
vn -0.0001790989 0.7269409 0.6867
vn -0.0001790989 0.7269409 0.6867
vn -0.0007689269 0.7210159 0.6929181
vn -0.0006262448 0.7209225 0.6930153
vn 0.0001564364 0.7208625 0.693078
vn 0.0001564363 0.7208625 0.693078
vn 0.0007762086 0.7267814 0.6868684
vn -2.706971E-06 0.9927147 0.1204882
vn -2.706971E-06 0.9927147 0.1204882
vn -2.70697E-06 0.9927147 0.1204882
vn 0 0.992707 0.1205526
vn -0.0001069383 0.9927092 0.1205344
vn -0.000106794 0.9927095 0.1205314
vn -4.46258E-07 0.9927074 0.1205485
vn 0 0.9927077 0.1205471
vn 0 0 1
vn 0 0 1
vn 0 0 1
vn 0 0 1
vn 0 0 1
vn 0 0 1
vn 0 0 1
vn 0 0 1
vn 0 0 1
vn 0 0 1
vn 0 0 1
vn 0 0 1
vn 0 0 1
vn -0.0009097568 0 0.9999996
vn -0.0009095039 0 0.9999996
vn 0 0 1
vn 0 0 -1
vn 0 0 -1
vn 0 0 -1
vn 0 0 -1
vn 0 0 -1
vn 0 0 -1
vn 0 0 -1
vn 0 0 -1
vn 0 0 -1
vn 0 0 -1
vn 0 0 -1
vn 0 0 -1
vn 0.0009099761 0 -0.9999996
vn 0.0009096671 0 -0.9999996
vn 0 0 -1
vn 0 0 -1
vn 3.339219E-07 0 1
vn -3.816173E-07 0 1
vn 0 0 1
vn 4.438051E-07 0 1
vn 7.017185E-07 0 1
vn -0.0005538769 0 0.9999999
vn 4.747561E-07 0 1
vn -0.0005045932 0 0.9999999
vn 1.967984E-06 0 1
vn -0.000687149 0 0.9999998
vn -2.318334E-07 0 1
vn -0.0005617914 0 0.9999999
vn -0.0005616154 0 0.9999999
vn -1.53248E-07 0 1
vn -0.0006881763 0 0.9999998
vn 0 0 1
vn -0.0005053324 0 0.9999999
vn 0 0 1
vn -0.0005558167 0 0.9999999
vn -3.302578E-07 0 1
vn 0 0 1
vn -5.736561E-06 0 1
vn -2.810422E-07 0 1
vn -5.783655E-06 0 1
vn 0 -1 0
vn 0 -1 0
vn 0 -1 0
vn 0 -1 0
vn 0 -1 0
vn 0 -1 0
vn 0 -1 0
vn 0 -1 0
vn 1 0 0
vn 1 0 0
vn 1 0 0
vn 1 0 0
vn 1 0 0
vn 1 0 0
vn 1 0 0
vn 1 0 0
vn 0.0002193029 0.7692007 0.6390072
vn 0 1 0
vn 0 1 0
vn 0 1 0
vn 0 1 0
vn 0 1 0
vn 0 1 0
vn 0 1 0
vn 0 1 0
vn -1 0 0
vn -1 0 0
vn -1 0 0
vn -1 0 0
vn -1 0 0
vn -1 0 0
vn 0.9927077 0 0.1205468
vn -0.0001106578 -0.9927092 0.1205341
vn 0 0 1
vn 0 0 1
vn 0 0 1
vn 0 0 1
vn 0 0 1
vn 0 0 1
vn 0 0 1
vn 0 0 1
vn 0 0 1
vn 0 0 1
vn 0 0 1
vn 0 0 1
vn 0 0 1
vn -0.0009095039 0 0.9999996
vn 0 0 1
vn 0 0 -1
vn 0 0 -1
vn 0 0 -1
vn 0 0 -1
vn 0 0 -1
vn 0 0 -1
vn 0 0 -1
vn 0 0 -1
vn 0 0 -1
vn 0 0 -1
vn 0 0 -1
vn 0 0 -1
vn 0.0009099761 0 -0.9999996
vn 0.0009096671 0 -0.9999996
vn 0 0 -1
vn 0 0 -1
vn 0 0 1
vn 4.438051E-07 0 1
vn 7.017185E-07 0 1
vn 0 0 1
vn 0 0 1
vn 0 0 1
usemtl WhiteWoodClean
f 3/3/3 2/2/2 1/1/1
f 5/5/5 1/1/1 4/4/4
f 6/6/6 5/5/5 4/4/4
f 6/6/6 4/4/4 7/7/7
f 8/8/8 6/6/6 7/7/7
f 11/11/11 10/10/10 9/9/9
f 14/14/14 13/13/13 12/12/12
f 13/13/13 15/15/15 12/12/12
f 15/15/15 13/13/13 16/16/16
f 17/17/17 15/15/15 16/16/16
f 16/16/16 18/18/18 17/17/17
f 18/18/18 19/19/19 17/17/17
f 22/22/22 21/21/21 20/20/20
f 21/21/21 23/23/23 20/20/20
f 20/20/20 23/23/23 24/24/24
f 25/25/25 20/20/20 24/24/24
f 25/25/25 24/24/24 26/26/26
f 24/24/24 27/27/27 26/26/26
f 30/30/30 29/29/29 28/28/28
f 29/29/29 31/31/31 28/28/28
f 31/31/31 29/29/29 32/32/32
f 33/33/33 31/31/31 32/32/32
f 32/32/32 34/34/34 33/33/33
f 34/34/34 35/35/35 33/33/33
f 38/38/38 37/37/37 36/36/36
f 37/37/37 39/39/39 36/36/36
f 36/36/36 39/39/39 40/40/40
f 41/41/41 36/36/36 40/40/40
f 41/41/41 40/40/40 42/42/42
f 40/40/40 43/43/43 42/42/42
f 46/46/46 45/45/45 44/44/44
f 47/47/47 46/46/46 44/44/44
f 47/47/47 44/44/44 48/48/48
f 49/49/49 47/47/47 48/48/48
f 49/49/49 48/48/48 50/50/50
f 51/51/51 49/49/49 50/50/50
f 54/54/54 53/53/53 52/52/52
f 53/53/53 55/55/55 52/52/52
f 52/52/52 55/55/55 56/56/56
f 57/57/57 52/52/52 56/56/56
f 57/57/57 56/56/56 58/58/58
f 56/56/56 59/59/59 58/58/58
f 62/62/62 61/61/61 60/60/60
f 63/63/63 62/62/62 60/60/60
f 63/63/63 60/60/60 64/64/64
f 65/65/65 63/63/63 64/64/64
f 64/64/64 66/66/66 65/65/65
f 66/66/66 67/67/67 65/65/65
f 70/70/70 69/69/69 68/68/68
f 71/71/71 70/70/70 68/68/68
f 71/71/71 72/72/72 70/70/70
f 72/72/72 73/73/73 70/70/70
f 74/74/74 73/73/73 72/72/72
f 75/75/75 74/74/74 72/72/72
f 78/78/78 77/77/77 76/76/76
f 77/77/77 79/79/79 76/76/76
f 79/79/79 77/77/77 80/80/80
f 81/81/81 79/79/79 80/80/80
f 80/80/80 82/82/82 81/81/81
f 82/82/82 83/83/83 81/81/81
f 86/86/86 85/85/85 84/84/84
f 85/85/85 87/87/87 84/84/84
f 84/84/84 87/87/87 88/88/88
f 89/89/89 84/84/84 88/88/88
f 89/89/89 88/88/88 90/90/90
f 88/88/88 91/91/91 90/90/90
f 94/94/94 93/93/93 92/92/92
f 95/95/95 94/94/94 92/92/92
f 95/95/95 96/96/96 94/94/94
f 96/96/96 97/97/97 94/94/94
f 98/98/98 97/97/97 96/96/96
f 99/99/99 98/98/98 96/96/96
f 102/102/102 101/101/101 100/100/100
f 103/103/103 102/102/102 100/100/100
f 103/103/103 100/100/100 104/104/104
f 105/105/105 103/103/103 104/104/104
f 105/105/105 104/104/104 106/106/106
f 107/107/107 105/105/105 106/106/106
f 110/110/110 109/109/109 108/108/108
f 111/111/111 110/110/110 108/108/108
f 110/110/110 111/111/111 112/112/112
f 113/113/113 110/110/110 112/112/112
f 114/114/114 113/113/113 112/112/112
f 115/115/115 114/114/114 112/112/112
f 118/118/118 117/117/117 116/116/116
f 119/119/119 118/118/118 116/116/116
f 119/119/119 116/116/116 120/120/120
f 121/121/121 119/119/119 120/120/120
f 121/121/121 120/120/120 122/122/122
f 123/123/123 121/121/121 122/122/122
f 126/126/126 125/125/125 124/124/124
f 127/127/127 126/126/126 124/124/124
f 127/127/127 128/128/128 126/126/126
f 128/128/128 129/129/129 126/126/126
f 130/130/130 129/129/129 128/128/128
f 131/131/131 130/130/130 128/128/128
f 134/134/134 133/133/133 132/132/132
f 133/133/133 135/135/135 132/132/132
f 135/135/135 133/133/133 136/136/136
f 132/132/132 135/135/135 137/137/137
f 138/138/138 132/132/132 137/137/137
f 138/138/138 137/137/137 139/139/139
f 137/137/137 140/140/140 139/139/139
f 141/141/141 135/135/135 136/136/136
f 135/135/135 141/141/141 137/137/137
f 136/136/136 142/142/142 141/141/141
f 142/142/142 143/143/143 141/141/141
f 141/141/141 143/143/143 144/144/144
f 140/140/140 137/137/137 145/145/145
f 141/141/141 145/145/145 137/137/137
f 145/145/145 141/141/141 144/144/144
f 146/146/146 140/140/140 145/145/145
f 145/145/145 144/144/144 146/146/146
f 144/144/144 147/147/147 146/146/146
f 150/150/150 149/149/149 148/148/148
f 149/149/149 151/151/151 148/148/148
f 151/151/151 149/149/149 152/152/152
f 148/148/148 151/151/151 153/153/153
f 154/154/154 148/148/148 153/153/153
f 154/154/154 153/153/153 155/155/155
f 153/153/153 156/156/156 155/155/155
f 157/157/157 151/151/151 152/152/152
f 151/151/151 157/157/157 153/153/153
f 152/152/152 158/158/158 157/157/157
f 158/158/158 159/159/159 157/157/157
f 159/159/159 160/160/160 157/157/157
f 153/153/153 161/161/161 156/156/156
f 157/157/157 161/161/161 153/153/153
f 160/160/160 161/161/161 157/157/157
f 161/161/161 162/162/162 156/156/156
f 161/161/161 160/160/160 162/162/162
f 160/160/160 163/163/163 162/162/162
f 166/166/166 165/165/165 164/164/164
f 167/167/167 166/166/166 164/164/164
f 165/165/165 166/166/166 168/168/168
f 167/167/167 164/164/164 169/169/169
f 170/170/170 165/165/165 168/168/168
f 171/171/171 167/167/167 169/169/169
f 168/168/168 172/172/172 170/170/170
f 171/171/171 169/169/169 173/173/173
f 172/172/172 174/174/174 170/170/170
f 175/175/175 171/171/171 173/173/173
f 172/172/172 176/176/176 174/174/174
f 175/175/175 173/173/173 177/177/177
f 176/176/176 178/178/178 174/174/174
f 179/179/179 175/175/175 177/177/177
f 176/176/176 180/180/180 178/178/178
f 179/179/179 177/177/177 181/181/181
f 180/180/180 182/182/182 178/178/178
f 183/183/183 179/179/179 181/181/181
f 180/180/180 184/184/184 182/182/182
f 183/183/183 181/181/181 185/185/185
f 184/184/184 186/186/186 182/182/182
f 187/187/187 183/183/183 185/185/185
f 184/184/184 187/187/187 186/186/186
f 187/187/187 185/185/185 186/186/186
