mtllib material.mtl
usemtl material_0
v -0.29999000 0.21000000 0.02000000
v -0.29799000 0.20801000 0.02200000
v -0.29799000 -0.09799000 0.02200000
v -0.29999000 -0.09999000 0.02000000
v 0.08401000 -0.09399000 -0.00199000
v -0.27999000 -0.09400000 -0.00199000
v -0.28399000 -0.09400000 -0.00199000
v -0.29999000 -0.09999000 0.00000000
v 0.10000000 -0.09999000 0.00000000
v 0.10000000 0.21000000 0.00000000
v -0.29999000 0.21000000 0.00000000
v -0.29999000 -0.09999000 0.02000000
v -0.29999000 -0.09999000 0.00000000
v -0.29999000 0.21000000 0.00000000
v -0.29999000 0.21000000 0.02000000
v -0.29999000 0.21000000 0.02000000
v -0.29999000 0.21000000 0.00000000
v 0.10000000 0.21000000 0.00000000
v 0.10000000 0.21000000 0.02000000
v 0.10000000 0.21000000 0.02000000
v 0.10000000 0.21000000 0.00000000
v 0.10000000 -0.09999000 0.00000000
v 0.10000000 -0.09999000 0.02000000
v 0.10000000 -0.09999000 0.02000000
v 0.10000000 -0.09999000 0.00000000
v -0.29999000 -0.09999000 0.00000000
v -0.29999000 -0.09999000 0.02000000
v -0.29799000 -0.09799000 0.02200000
v -0.29799000 0.20801000 0.02200000
v 0.09800000 0.20801000 0.02200000
v 0.09800000 -0.09799000 0.02200000
v -0.29999000 -0.09999000 0.02000000
v -0.29799000 -0.09799000 0.02200000
v 0.09800000 -0.09799000 0.02200000
v 0.10000000 -0.09999000 0.02000000
v 0.10000000 -0.09999000 0.02000000
v 0.09800000 -0.09799000 0.02200000
v 0.09800000 0.20801000 0.02200000
v 0.10000000 0.21000000 0.02000000
v 0.10000000 0.21000000 0.02000000
v 0.09800000 0.20801000 0.02200000
v -0.29799000 0.20801000 0.02200000
v -0.29999000 0.21000000 0.02000000
v 0.09900000 0.20901000 -0.39199000
v -0.29899000 0.20901000 -0.39199000
v -0.29899000 -0.09900000 -0.39199000
v 0.09900000 -0.09899000 -0.39199000
v -0.29899000 -0.09899000 0.01301000
v -0.29899000 -0.09900000 -0.39199000
v -0.29899000 0.20901000 -0.39199000
v -0.29899000 0.20000000 0.01301000
v -0.29899000 0.20901000 0.01301000
v -0.28399000 -0.09400000 -0.00199000
v -0.28399000 -0.09400000 -0.37699000
v 0.08400000 -0.09399000 -0.37699000
v 0.08401000 -0.09399000 -0.00199000
v 0.09900000 0.20901000 -0.39199000
v 0.09900000 -0.09899000 -0.39199000
v 0.09901000 -0.09899000 0.01301000
v 0.09901000 0.20000000 0.01301000
v 0.09901000 0.20901000 0.01301000
v 0.09901000 -0.09899000 0.01301000
v 0.09900000 -0.09899000 -0.39199000
v -0.29899000 -0.09900000 -0.39199000
v -0.27999000 -0.09900000 0.01301000
v -0.29899000 -0.09899000 0.01301000
v 0.08400000 0.20901000 -0.37699000
v 0.08400000 -0.09399000 -0.37699000
v -0.28399000 -0.09400000 -0.37699000
v -0.28399000 0.20901000 -0.37699000
v -0.28399000 0.20901000 -0.37699000
v -0.28399000 -0.09400000 -0.37699000
v -0.28399000 -0.09400000 -0.00199000
v -0.28399000 0.20901000 -0.00199000
v -0.28399000 0.20901000 -0.00199000
v -0.28399000 -0.09400000 -0.00199000
v -0.27999000 0.20901000 -0.00199000
v 0.08401000 -0.09399000 -0.00199000
v 0.08401000 0.20901000 -0.00199000
v 0.08401000 0.20901000 -0.00199000
v 0.08401000 -0.09399000 -0.00199000
v 0.08400000 -0.09399000 -0.37699000
v 0.08400000 0.20901000 -0.37699000
v 0.09900000 0.20901000 -0.39199000
v 0.08400000 0.20901000 -0.37699000
v -0.28399000 0.20901000 -0.37699000
v -0.29899000 0.20901000 -0.39199000
v 0.09901000 0.20901000 0.01301000
v -0.28399000 0.20901000 -0.00199000
v 0.08401000 0.20901000 -0.00199000
v -0.29899000 0.20901000 0.01301000
v -0.27999000 0.20901000 0.01301000
v -0.27999000 0.20901000 -0.00199000
vn -0.70709290 0.00000000 0.70712070
vn -0.70709200 0.00000000 0.70712160
vn -0.70717880 0.00000000 0.70703480
vn -0.70717910 0.00000000 0.70703450
vn 0.00000000 1.00000000 0.00000000
vn 0.00000000 0.00000000 -1.00000000
vn 0.00000000 1.00000000 0.00000000
vn 0.00000000 0.00000000 -1.00000000
vn 0.00000000 0.00000000 -1.00000000
vn 0.00000000 0.00000000 -1.00000000
vn 0.00000000 0.00000000 -1.00000000
vn -1.00000000 0.00000000 0.00000000
vn -1.00000000 0.00000000 0.00000000
vn -1.00000000 0.00000000 0.00000000
vn -1.00000000 0.00000000 0.00000000
vn 0.00000000 1.00000000 0.00000000
vn 0.00000000 1.00000000 0.00000000
vn 0.00000000 1.00000000 0.00000000
vn 0.00000000 1.00000000 0.00000000
vn 1.00000000 0.00000000 0.00000037
vn 1.00000000 0.00000000 0.00000037
vn 1.00000000 0.00000000 0.00000037
vn 1.00000000 0.00000000 0.00000037
vn 0.00000000 -1.00000000 0.00000080
vn 0.00000000 -1.00000000 0.00000083
vn 0.00000000 -1.00000000 0.00000000
vn 0.00000000 -1.00000000 0.00000000
vn 0.00000000 0.00000000 1.00000000
vn 0.00000000 0.00000000 1.00000000
vn 0.00000000 0.00000000 1.00000000
vn 0.00000000 0.00000000 1.00000000
vn 0.00000000 -0.70710770 0.70710590
vn 0.00000000 -0.70710770 0.70710580
vn 0.00000000 -0.70709040 0.70712320
vn 0.00000000 -0.70709030 0.70712320
vn 0.70708080 0.00000000 0.70713270
vn 0.70707990 0.00000000 0.70713360
vn 0.70717780 0.00000000 0.70703580
vn 0.70717810 0.00000000 0.70703540
vn 0.00000000 0.70711510 0.70709840
vn 0.00000000 0.70711520 0.70709840
vn 0.00000000 0.70710120 0.70711230
vn 0.00000000 0.70710120 0.70711240
vn 0.00000000 0.00000000 -1.00000000
vn 0.00000000 0.00000000 -1.00000000
vn 0.00000000 0.00000000 -1.00000000
vn 0.00000000 0.00000000 -1.00000000
vn -1.00000000 0.00000000 0.00000028
vn -1.00000000 0.00000000 0.00000028
vn -1.00000000 0.00000000 0.00000028
vn -1.00000000 0.00000000 0.00000028
vn -1.00000000 0.00000000 0.00000028
vn -0.00000010 1.00000000 0.00000000
vn -0.00000010 1.00000000 0.00000000
vn -0.00000010 1.00000000 0.00000000
vn -0.00000010 1.00000000 0.00000000
vn 1.00000000 0.00000000 0.00000000
vn 1.00000000 0.00000000 0.00000000
vn 1.00000000 0.00000000 0.00000000
vn 1.00000000 0.00000000 0.00000000
vn 1.00000000 0.00000000 0.00000000
vn 0.00000000 -1.00000000 0.00000000
vn 0.00000000 -1.00000000 0.00000000
vn 0.00000000 -1.00000000 0.00000000
vn 0.00000010 -1.00000000 0.00000000
vn -0.00000201 -1.00000000 0.00000000
vn 0.00000049 0.00000000 1.00000000
vn 0.00000088 0.00000000 1.00000000
vn 0.00000038 0.00000000 1.00000000
vn 0.00000000 0.00000000 1.00000000
vn 1.00000000 0.00000000 0.00000000
vn 1.00000000 0.00000000 0.00000000
vn 1.00000000 0.00000000 0.00000000
vn 1.00000000 0.00000000 0.00000000
vn 0.00000000 0.00000000 -1.00000000
vn 0.00000000 0.00000000 -1.00000000
vn 0.00000000 0.00000000 -1.00000000
vn 0.00000000 0.00000000 -1.00000000
vn 0.00000000 0.00000000 -1.00000000
vn -1.00000000 0.00000000 0.00000010
vn -1.00000000 0.00000000 0.00000010
vn -1.00000000 0.00000000 0.00000010
vn -1.00000000 0.00000000 0.00000010
vn 0.00000000 1.00000000 -0.00000287
vn 0.00000000 1.00000000 -0.00000303
vn 0.00000000 1.00000000 0.00000000
vn 0.00000000 1.00000000 0.00000000
vn -0.00000010 1.00000000 0.00000000
vn 0.00000000 1.00000000 0.00000000
vn -0.00000021 1.00000000 0.00000000
vn 0.00000000 1.00000000 0.00000000
vn 0.00000000 1.00000000 0.00000000
vn 0.00000000 1.00000000 0.00000000
vt 2.37050400 1.52254300
vt 2.37282000 1.52022700
vt 2.37282000 1.14643900
vt 2.37050400 1.14412400
vt 0.76864420 0.61268760
vt 0.76864430 0.97668760
vt 0.76864430 0.98068740
vt 1.35728200 1.17070200
vt 0.97605170 1.17070200
vt 0.97605170 1.49596500
vt 1.35728200 1.49596500
vt 4.84824800 0.89607230
vt 4.81841900 0.89607230
vt 4.81841900 1.10392700
vt 4.84824800 1.10392700
vt 3.62780200 0.18231590
vt 3.62780200 0.15101750
vt 3.37219800 0.15101750
vt 3.37219800 0.18231590
vt 4.81694400 2.92790400
vt 4.84972300 2.92790400
vt 4.84972300 2.73876200
vt 4.81694400 2.73876200
vt 1.29446900 0.18231590
vt 1.29446900 0.15101750
vt 1.03886500 0.15101750
vt 1.03886500 0.18231590
vt 3.31139700 1.17271000
vt 3.31139700 1.49395600
vt 3.68860300 1.49395600
vt 3.68860300 1.17271000
vt 3.26719400 0.37029730
vt 3.26962500 0.37272780
vt 3.73037500 0.37272780
vt 3.73280600 0.37029740
vt 4.62949600 1.14408700
vt 4.62718000 1.14640300
vt 4.62718000 1.52026400
vt 4.62949600 1.52257900
vt 3.73276000 2.29637000
vt 3.73033000 2.29393800
vt 3.26967000 2.29393800
vt 3.26724000 2.29637000
vt 0.40092450 0.28498250
vt 0.40092460 0.68298230
vt 0.70892460 0.68298230
vt 0.70892460 0.28498250
vt -0.03010559 -0.04032552
vt -0.03010571 0.36467440
vt 0.27789440 0.36467440
vt 0.26889440 -0.04032552
vt 0.27789440 -0.04032552
vt 0.09723772 0.28737950
vt 0.09723772 0.66237940
vt 0.46523750 0.66237940
vt 0.46523750 0.28737950
vt 0.52950420 -0.04032552
vt 0.22150400 -0.04032552
vt 0.22150400 0.36467440
vt 0.52050400 0.36467440
vt 0.52950420 0.36467440
vt 0.86153940 0.36467440
vt 0.86153940 -0.04032552
vt 0.46353970 -0.04032552
vt 0.48253950 0.36467440
vt 0.46353980 0.36467440
vt 1.01616100 0.61268760
vt 0.71316120 0.61268760
vt 0.71316110 0.98068730
vt 1.01616100 0.98068730
vt 0.27341540 0.58821090
vt -0.02958465 0.58821090
vt -0.02958465 0.96321080
vt 0.27341540 0.96321080
vt 0.46564420 0.98068740
vt 0.76864430 0.98068740
vt 0.46564420 0.97668760
vt 0.76864420 0.61268760
vt 0.46564420 0.61268760
vt 0.52112730 0.60641690
vt 0.21812710 0.60641690
vt 0.21812710 0.98141670
vt 0.52112730 0.98141670
vt 1.03948500 0.68925340
vt 1.02448600 0.67425360
vt 0.65648470 0.67425360
vt 0.64148470 0.68925340
vt 1.03948500 0.28425250
vt 0.65648470 0.29925260
vt 1.02448600 0.29925260
vt 0.64148490 0.28425250
vt 0.66048450 0.28425250
vt 0.66048450 0.29925260
f 3/3/3 2/2/2 1/1/1
f 4/4/4 3/3/3 1/1/1
f 7/7/7 6/6/6 5/5/5
f 10/10/10 9/9/9 8/8/8
f 11/11/11 10/10/10 8/8/8
f 14/14/14 13/13/13 12/12/12
f 15/15/15 14/14/14 12/12/12
f 18/18/18 17/17/17 16/16/16
f 19/19/19 18/18/18 16/16/16
f 22/22/22 21/21/21 20/20/20
f 23/23/23 22/22/22 20/20/20
f 26/26/26 25/25/25 24/24/24
f 27/27/27 26/26/26 24/24/24
f 30/30/30 29/29/29 28/28/28
f 31/31/31 30/30/30 28/28/28
f 34/34/34 33/33/33 32/32/32
f 35/35/35 34/34/34 32/32/32
f 38/38/38 37/37/37 36/36/36
f 39/39/39 38/38/38 36/36/36
f 42/42/42 41/41/41 40/40/40
f 43/43/43 42/42/42 40/40/40
f 46/46/46 45/45/45 44/44/44
f 47/47/47 46/46/46 44/44/44
f 50/50/50 49/49/49 48/48/48
f 48/48/48 51/51/51 50/50/50
f 51/51/51 52/52/52 50/50/50
f 55/55/55 54/54/54 53/53/53
f 53/53/53 56/56/56 55/55/55
f 59/59/59 58/58/58 57/57/57
f 57/57/57 60/60/60 59/59/59
f 57/57/57 61/61/61 60/60/60
f 64/64/64 63/63/63 62/62/62
f 62/62/62 65/65/65 64/64/64
f 65/65/65 66/66/66 64/64/64
f 69/69/69 68/68/68 67/67/67
f 70/70/70 69/69/69 67/67/67
f 73/73/73 72/72/72 71/71/71
f 74/74/74 73/73/73 71/71/71
f 6/6/6 76/76/76 75/75/75
f 77/77/77 6/6/6 75/75/75
f 78/78/78 6/6/6 77/77/77
f 79/79/79 78/78/78 77/77/77
f 82/82/82 81/81/81 80/80/80
f 83/83/83 82/82/82 80/80/80
f 86/86/86 85/85/85 84/84/84
f 87/87/87 86/86/86 84/84/84
f 84/84/84 85/85/85 88/88/88
f 89/89/89 86/86/86 87/87/87
f 85/85/85 90/90/90 88/88/88
f 91/91/91 89/89/89 87/87/87
f 88/88/88 90/90/90 92/92/92
f 93/93/93 89/89/89 91/91/91
f 92/92/92 93/93/93 91/91/91
f 90/90/90 93/93/93 92/92/92

