# Blender 3.6.0
# www.blender.org
o LightFixture1_eeafebb0_LightFixture1_eeafebb0_2
v 0.061740 2.500000 0.407620
v 0.029290 2.500000 0.429290
v 0.029290 2.495000 0.429290
v 0.061740 2.495000 0.407620
v 0.100000 2.500000 0.400000
v 0.100000 2.495000 0.400000
v 0.138270 2.500000 0.407620
v 0.138270 2.495000 0.407620
v 0.170720 2.500000 0.429290
v 0.170720 2.495000 0.429290
v 0.029290 2.500000 0.429290
v 0.007620 2.495000 0.461740
v 0.029290 2.495000 0.429290
v 0.007620 2.500000 0.461740
v 0.000000 2.495000 0.500000
v 0.000000 2.500000 0.500000
v 0.007620 2.495000 0.538270
v 0.007620 2.500000 0.538270
v 0.029290 2.495000 0.570720
v 0.029290 2.500000 0.570720
v 0.029290 2.500000 0.570720
v 0.061740 2.495000 0.592390
v 0.029290 2.495000 0.570720
v 0.061740 2.500000 0.592390
v 0.100000 2.495000 0.600010
v 0.100000 2.500000 0.600010
v 0.138270 2.495000 0.592390
v 0.138270 2.500000 0.592390
v 0.170720 2.495000 0.570720
v 0.170720 2.500000 0.570720
v 0.170720 2.500000 0.570720
v 0.192390 2.495000 0.538270
v 0.170720 2.495000 0.570720
v 0.192390 2.500000 0.538270
v 0.200000 2.495000 0.500000
v 0.200000 2.500000 0.500000
v 0.192390 2.495000 0.461740
v 0.192390 2.500000 0.461740
v 0.170720 2.495000 0.429290
v 0.170720 2.500000 0.429290
v 0.102360 2.482340 0.494320
v 0.104360 1.910750 0.495650
v 0.104360 2.482340 0.495650
v 0.102360 1.910750 0.494320
v 0.100000 2.482340 0.493850
v 0.100000 1.910750 0.493850
v 0.097650 2.482340 0.494320
v 0.097650 1.910750 0.494320
v 0.095650 2.482340 0.495650
v 0.095650 1.910750 0.495650
v 0.104360 2.482340 0.495650
v 0.104360 1.910750 0.495650
v 0.105690 1.910750 0.497650
v 0.105690 2.482340 0.497650
v 0.106160 1.910750 0.500000
v 0.106160 2.482340 0.500000
v 0.105690 1.910750 0.502360
v 0.105690 2.482340 0.502360
v 0.104360 1.910750 0.504360
v 0.104360 2.482340 0.504360
v 0.104360 2.482340 0.504360
v 0.104360 1.910750 0.504360
v 0.102360 1.910750 0.505690
v 0.102360 2.482340 0.505690
v 0.100000 1.910750 0.506160
v 0.100000 2.482340 0.506160
v 0.097650 1.910750 0.505690
v 0.097650 2.482340 0.505690
v 0.095650 1.910750 0.504360
v 0.095650 2.482340 0.504360
v 0.095650 2.482340 0.504360
v 0.095650 1.910750 0.504360
v 0.094320 1.910750 0.502360
v 0.094320 2.482340 0.502360
v 0.093850 1.910750 0.500000
v 0.093850 2.482340 0.500000
v 0.094320 1.910750 0.497650
v 0.094320 2.482340 0.497650
v 0.095650 1.910750 0.495650
v 0.095650 2.482340 0.495650
v 0.083070 2.482340 0.459120
v 0.097650 2.482340 0.494320
v 0.100000 2.482340 0.493850
v 0.068720 2.482340 0.468720
v 0.095650 2.482340 0.495650
v 0.100000 2.482340 0.455760
v 0.102360 2.482340 0.494320
v 0.059120 2.482340 0.483070
v 0.094320 2.482340 0.497650
v 0.116940 2.482340 0.459120
v 0.104360 2.482340 0.495650
v 0.055760 2.482340 0.500000
v 0.093850 2.482340 0.500000
v 0.131290 2.482340 0.468720
v 0.105690 2.482340 0.497650
v 0.059120 2.482340 0.516940
v 0.094320 2.482340 0.502360
v 0.140890 2.482340 0.483070
v 0.106160 2.482340 0.500000
v 0.068720 2.482340 0.531290
v 0.095650 2.482340 0.504360
v 0.144250 2.482340 0.500000
v 0.105690 2.482340 0.502360
v 0.083070 2.482340 0.540890
v 0.097650 2.482340 0.505690
v 0.140890 2.482340 0.516940
v 0.104360 2.482340 0.504360
v 0.100000 2.482340 0.544250
v 0.100000 2.482340 0.506160
v 0.131290 2.482340 0.531290
v 0.102360 2.482340 0.505690
v 0.116940 2.482340 0.540890
v 0.192390 2.495000 0.461740
v 0.170720 2.495000 0.429290
v 0.200000 2.495000 0.500000
v 0.192390 2.495000 0.538270
v 0.138270 2.495000 0.407620
v 0.170720 2.495000 0.570720
v 0.138270 2.495000 0.592390
v 0.100000 2.495000 0.400000
v 0.100000 2.495000 0.600010
v 0.061740 2.495000 0.407620
v 0.061740 2.495000 0.592390
v 0.029290 2.495000 0.429290
v 0.029290 2.495000 0.570720
v 0.007620 2.495000 0.461740
v 0.007620 2.495000 0.538270
v 0.000000 2.495000 0.500000
vn -0.5554 -0.0000 -0.8316
vn -0.3827 -0.0000 -0.9239
vn -0.0000 -0.0000 -1.0000
vn 0.3826 -0.0000 -0.9239
vn 0.5554 -0.0000 -0.8316
vn -0.8316 -0.0000 -0.5553
vn -0.9239 -0.0000 -0.3827
vn -1.0000 -0.0000 -0.0000
vn -0.9239 -0.0000 0.3826
vn -0.8316 -0.0000 0.5554
vn -0.5553 -0.0000 0.8316
vn -0.3827 -0.0000 0.9239
vn -0.0000 -0.0000 1.0000
vn 0.3827 -0.0000 0.9239
vn 0.5553 -0.0000 0.8316
vn 0.8316 -0.0000 0.5554
vn 0.9239 -0.0000 0.3825
vn 1.0000 -0.0000 -0.0000
vn 0.9239 -0.0000 -0.3826
vn 0.8316 -0.0000 -0.5554
vn 0.5538 -0.0000 -0.8327
vn 0.5537 -0.0000 -0.8327
vn 0.3818 -0.0000 -0.9243
vn -0.0004 -0.0000 -1.0000
vn -0.3821 -0.0000 -0.9241
vn -0.3822 -0.0000 -0.9241
vn -0.5537 -0.0000 -0.8327
vn -0.5538 -0.0000 -0.8327
vn 0.9241 -0.0000 -0.3822
vn 0.8327 -0.0000 -0.5537
vn 1.0000 -0.0000 -0.0004
vn 0.9243 -0.0000 0.3818
vn 0.8327 -0.0000 0.5537
vn 0.3818 -0.0000 0.9242
vn 0.5538 -0.0000 0.8327
vn 0.5537 -0.0000 0.8327
vn 0.3817 -0.0000 0.9243
vn -0.0004 -0.0000 1.0000
vn -0.3821 -0.0000 0.9241
vn -0.3822 -0.0000 0.9241
vn -0.5537 -0.0000 0.8327
vn -0.5538 -0.0000 0.8327
vn -0.9243 -0.0000 0.3818
vn -0.8327 -0.0000 0.5537
vn -1.0000 -0.0000 -0.0004
vn -0.9241 -0.0000 -0.3822
vn -0.8327 -0.0000 -0.5537
vn -0.0000 -1.0000 -0.0000
vn -0.0479 -0.9921 -0.1156
vn -0.0885 -0.9921 -0.0884
vn -0.0000 -0.9921 -0.1251
vn -0.1156 -0.9921 -0.0479
vn 0.0479 -0.9921 -0.1156
vn -0.1251 -0.9921 -0.0000
vn 0.0884 -0.9921 -0.0885
vn -0.1156 -0.9921 0.0479
vn 0.1156 -0.9921 -0.0479
vn -0.0884 -0.9921 0.0885
vn 0.1251 -0.9921 -0.0000
vn -0.0479 -0.9921 0.1156
vn 0.1156 -0.9921 0.0479
vn -0.0000 -0.9921 0.1251
vn 0.0885 -0.9921 0.0884
vn 0.0479 -0.9921 0.1156
vn 0.2046 -0.9752 -0.0847
vn 0.1566 -0.9752 -0.1566
vn 0.2215 -0.9752 -0.0000
vn 0.2046 -0.9752 0.0847
vn 0.0848 -0.9752 -0.2046
vn 0.1566 -0.9752 0.1566
vn 0.0847 -0.9752 0.2046
vn -0.0000 -0.9752 -0.2214
vn -0.0000 -0.9752 0.2214
vn -0.0847 -0.9752 -0.2046
vn -0.0848 -0.9752 0.2046
vn -0.1566 -0.9752 -0.1566
vn -0.1566 -0.9752 0.1566
vn -0.2046 -0.9752 -0.0848
vn -0.2046 -0.9752 0.0847
vn -0.2214 -0.9752 -0.0000
vt 4.139405 -9.579106
vt 4.139405 -9.495165
vt 3.866661 -9.495165
vt 3.866661 -9.579106
vt 3.544938 -9.495165
vt 3.544938 -9.579106
vt 3.223214 -9.495165
vt 3.223214 -9.579106
vt 2.950470 -9.495165
vt 2.950470 -9.579106
vt 2.950470 -9.478376
vt 3.223214 -9.478376
vt 2.950470 -9.394436
vt 3.223214 -9.394436
vt 3.544938 -9.478376
vt 3.544938 -9.394436
vt 3.866661 -9.478376
vt 3.866661 -9.394436
vt 4.139405 -9.478376
vt 4.139405 -9.394436
vt 1.741720 -9.579106
vt 2.014464 -9.579106
vt 1.741720 -9.495165
vt 2.014464 -9.495165
vt 2.336188 -9.579106
vt 2.336188 -9.495165
vt 2.657911 -9.579106
vt 2.657911 -9.495165
vt 2.930655 -9.579106
vt 2.930655 -9.495165
vt 1.741720 -9.478376
vt 2.014464 -9.478376
vt 1.741720 -9.394436
vt 2.014464 -9.394436
vt 2.336188 -9.478376
vt 2.336188 -9.394436
vt 2.657911 -9.478376
vt 2.657911 -9.394436
vt 2.930655 -9.478376
vt 2.930655 -9.394436
vt -0.072918 -4.762531
vt -0.072918 -9.577469
vt -0.053662 -4.762531
vt -0.053662 -9.577469
vt -0.030948 -4.762531
vt -0.030948 -9.577469
vt -0.008234 -4.762531
vt -0.008234 -9.577469
vt 0.011023 -4.762531
vt 0.011023 -9.577469
vt -0.310421 -9.577469
vt -0.291165 -9.577469
vt -0.291165 -4.762531
vt -0.310421 -4.762531
vt -0.333135 -9.577469
vt -0.333135 -4.762531
vt -0.355849 -9.577469
vt -0.355849 -4.762531
vt -0.375106 -9.577469
vt -0.375106 -4.762531
vt -0.108963 -9.577469
vt -0.089707 -9.577469
vt -0.089707 -4.762531
vt -0.108963 -4.762531
vt -0.131677 -9.577469
vt -0.131677 -4.762531
vt -0.154391 -9.577469
vt -0.154391 -4.762531
vt -0.173648 -9.577469
vt -0.173648 -4.762531
vt -0.209692 -9.577469
vt -0.190436 -9.577469
vt -0.190436 -4.762531
vt -0.209692 -4.762531
vt -0.232406 -9.577469
vt -0.232406 -4.762531
vt -0.255120 -9.577469
vt -0.255120 -4.762531
vt -0.274377 -9.577469
vt -0.274377 -4.762531
vt 0.875615 -8.783404
vt 0.855676 -8.779438
vt 0.732318 -9.077250
vt 0.610837 -8.996079
vt 0.838773 -8.768144
vt 0.875615 -9.105754
vt 0.895553 -8.779438
vt 0.529666 -8.874599
vt 0.827479 -8.751241
vt 1.018911 -9.077250
vt 0.912456 -8.768144
vt 0.501163 -8.731302
vt 0.823513 -8.731302
vt 1.140392 -8.996079
vt 0.923750 -8.751241
vt 0.529666 -8.588006
vt 0.827479 -8.711364
vt 1.221563 -8.874599
vt 0.927716 -8.731302
vt 0.610837 -8.466525
vt 0.838773 -8.694460
vt 1.250066 -8.731302
vt 0.923750 -8.711364
vt 0.732318 -8.385354
vt 0.855676 -8.683167
vt 1.221563 -8.588006
vt 0.912456 -8.694460
vt 0.875615 -8.356851
vt 0.875615 -8.679200
vt 1.140392 -8.466525
vt 0.895553 -8.683167
vt 1.018911 -8.385354
vt 1.657440 -9.055144
vt 1.473998 -9.329685
vt 1.721857 -8.731302
vt 1.657440 -8.407459
vt 1.199458 -9.513128
vt 1.473998 -8.132919
vt 1.199458 -7.949476
vt 0.875615 -9.577544
vt 0.875615 -7.885060
vt 0.551772 -9.513128
vt 0.551772 -7.949476
vt 0.277231 -9.329685
vt 0.277231 -8.132919
vt 0.093789 -9.055144
vt 0.093789 -8.407459
vt 0.029372 -8.731302
s 1
f 3/1/1 2/2/1 1/3/2
f 4/4/2 3/1/1 1/3/2
f 4/4/2 1/3/2 5/5/3
f 6/6/3 4/4/2 5/5/3
f 6/6/3 5/5/3 7/7/4
f 8/8/4 6/6/3 7/7/4
f 8/8/4 7/7/4 9/9/5
f 10/10/5 8/8/4 9/9/5
f 13/11/6 12/12/7 11/13/6
f 12/12/7 14/14/7 11/13/6
f 12/12/7 15/15/8 14/14/7
f 15/15/8 16/16/8 14/14/7
f 15/15/8 17/17/9 16/16/8
f 17/17/9 18/18/9 16/16/8
f 17/17/9 19/19/10 18/18/9
f 19/19/10 20/20/10 18/18/9
f 23/21/11 22/22/12 21/23/11
f 22/22/12 24/24/12 21/23/11
f 22/22/12 25/25/13 24/24/12
f 25/25/13 26/26/13 24/24/12
f 25/25/13 27/27/14 26/26/13
f 27/27/14 28/28/14 26/26/13
f 27/27/14 29/29/15 28/28/14
f 29/29/15 30/30/15 28/28/14
f 33/31/16 32/32/17 31/33/16
f 32/32/17 34/34/17 31/33/16
f 32/32/17 35/35/18 34/34/17
f 35/35/18 36/36/18 34/34/17
f 35/35/18 37/37/19 36/36/18
f 37/37/19 38/38/19 36/36/18
f 37/37/19 39/39/20 38/38/19
f 39/39/20 40/40/20 38/38/19
f 43/41/21 42/42/22 41/43/23
f 42/42/22 44/44/23 41/43/23
f 41/43/23 44/44/23 45/45/24
f 44/44/23 46/46/24 45/45/24
f 45/45/24 46/46/24 47/47/25
f 46/46/24 48/48/26 47/47/25
f 47/47/25 48/48/26 49/49/27
f 48/48/26 50/50/28 49/49/27
f 53/51/29 52/52/30 51/53/30
f 54/54/29 53/51/29 51/53/30
f 55/55/31 53/51/29 54/54/29
f 56/56/31 55/55/31 54/54/29
f 57/57/32 55/55/31 56/56/31
f 58/58/32 57/57/32 56/56/31
f 59/59/33 57/57/32 58/58/32
f 60/60/33 59/59/33 58/58/32
f 63/61/34 62/62/35 61/63/36
f 64/64/37 63/61/34 61/63/36
f 65/65/38 63/61/34 64/64/37
f 66/66/38 65/65/38 64/64/37
f 67/67/39 65/65/38 66/66/38
f 68/68/40 67/67/39 66/66/38
f 69/69/41 67/67/39 68/68/40
f 70/70/42 69/69/41 68/68/40
f 73/71/43 72/72/44 71/73/44
f 74/74/43 73/71/43 71/73/44
f 75/75/45 73/71/43 74/74/43
f 76/76/45 75/75/45 74/74/43
f 77/77/46 75/75/45 76/76/45
f 78/78/46 77/77/46 76/76/45
f 79/79/47 77/77/46 78/78/46
f 80/80/47 79/79/47 78/78/46
f 83/81/48 82/82/48 81/83/49
f 81/83/49 82/82/48 84/84/50
f 82/82/48 85/85/48 84/84/50
f 86/86/51 83/81/48 81/83/49
f 87/87/48 83/81/48 86/86/51
f 84/84/50 85/85/48 88/88/52
f 85/85/48 89/89/48 88/88/52
f 90/90/53 87/87/48 86/86/51
f 91/91/48 87/87/48 90/90/53
f 88/88/52 89/89/48 92/92/54
f 89/89/48 93/93/48 92/92/54
f 94/94/55 91/91/48 90/90/53
f 95/95/48 91/91/48 94/94/55
f 92/92/54 93/93/48 96/96/56
f 93/93/48 97/97/48 96/96/56
f 98/98/57 95/95/48 94/94/55
f 99/99/48 95/95/48 98/98/57
f 96/96/56 97/97/48 100/100/58
f 97/97/48 101/101/48 100/100/58
f 102/102/59 99/99/48 98/98/57
f 103/103/48 99/99/48 102/102/59
f 100/100/58 101/101/48 104/104/60
f 101/101/48 105/105/48 104/104/60
f 106/106/61 103/103/48 102/102/59
f 107/107/48 103/103/48 106/106/61
f 104/104/60 105/105/48 108/108/62
f 105/105/48 109/109/48 108/108/62
f 110/110/63 107/107/48 106/106/61
f 111/111/48 107/107/48 110/110/63
f 109/109/48 111/111/48 112/112/64
f 108/108/62 109/109/48 112/112/64
f 112/112/64 111/111/48 110/110/63
f 102/102/59 98/98/57 113/113/65
f 113/113/65 98/98/57 114/114/66
f 115/115/67 102/102/59 113/113/65
f 106/106/61 102/102/59 115/115/67
f 98/98/57 94/94/55 114/114/66
f 116/116/68 106/106/61 115/115/67
f 110/110/63 106/106/61 116/116/68
f 114/114/66 94/94/55 117/117/69
f 118/118/70 110/110/63 116/116/68
f 112/112/64 110/110/63 118/118/70
f 94/94/55 90/90/53 117/117/69
f 119/119/71 112/112/64 118/118/70
f 108/108/62 112/112/64 119/119/71
f 117/117/69 90/90/53 120/120/72
f 121/121/73 108/108/62 119/119/71
f 90/90/53 86/86/51 120/120/72
f 104/104/60 108/108/62 121/121/73
f 120/120/72 86/86/51 122/122/74
f 123/123/75 104/104/60 121/121/73
f 86/86/51 81/83/49 122/122/74
f 100/100/58 104/104/60 123/123/75
f 122/122/74 81/83/49 124/124/76
f 125/125/77 100/100/58 123/123/75
f 81/83/49 84/84/50 124/124/76
f 96/96/56 100/100/58 125/125/77
f 124/124/76 84/84/50 126/126/78
f 127/127/79 96/96/56 125/125/77
f 84/84/50 88/88/52 126/126/78
f 92/92/54 96/96/56 127/127/79
f 126/126/78 88/88/52 128/128/80
f 128/128/80 92/92/54 127/127/79
f 88/88/52 92/92/54 128/128/80
f 3/1/1 2/2/1 1/3/2
f 4/4/2 3/1/1 1/3/2
f 4/4/2 1/3/2 5/5/3
f 6/6/3 4/4/2 5/5/3
f 6/6/3 5/5/3 7/7/4
f 8/8/4 6/6/3 7/7/4
f 8/8/4 7/7/4 9/9/5
f 10/10/5 8/8/4 9/9/5
f 13/11/6 12/12/7 11/13/6
f 12/12/7 14/14/7 11/13/6
f 12/12/7 15/15/8 14/14/7
f 15/15/8 16/16/8 14/14/7
f 15/15/8 17/17/9 16/16/8
f 17/17/9 18/18/9 16/16/8
f 17/17/9 19/19/10 18/18/9
f 19/19/10 20/20/10 18/18/9
f 23/21/11 22/22/12 21/23/11
f 22/22/12 24/24/12 21/23/11
f 22/22/12 25/25/13 24/24/12
f 25/25/13 26/26/13 24/24/12
f 25/25/13 27/27/14 26/26/13
f 27/27/14 28/28/14 26/26/13
f 27/27/14 29/29/15 28/28/14
f 29/29/15 30/30/15 28/28/14
f 33/31/16 32/32/17 31/33/16
f 32/32/17 34/34/17 31/33/16
f 32/32/17 35/35/18 34/34/17
f 35/35/18 36/36/18 34/34/17
f 35/35/18 37/37/19 36/36/18
f 37/37/19 38/38/19 36/36/18
f 37/37/19 39/39/20 38/38/19
f 39/39/20 40/40/20 38/38/19
f 43/41/21 42/42/22 41/43/23
f 42/42/22 44/44/23 41/43/23
f 41/43/23 44/44/23 45/45/24
f 44/44/23 46/46/24 45/45/24
f 45/45/24 46/46/24 47/47/25
f 46/46/24 48/48/26 47/47/25
f 47/47/25 48/48/26 49/49/27
f 48/48/26 50/50/28 49/49/27
f 53/51/29 52/52/30 51/53/30
f 54/54/29 53/51/29 51/53/30
f 55/55/31 53/51/29 54/54/29
f 56/56/31 55/55/31 54/54/29
f 57/57/32 55/55/31 56/56/31
f 58/58/32 57/57/32 56/56/31
f 59/59/33 57/57/32 58/58/32
f 60/60/33 59/59/33 58/58/32
f 63/61/34 62/62/35 61/63/36
f 64/64/37 63/61/34 61/63/36
f 65/65/38 63/61/34 64/64/37
f 66/66/38 65/65/38 64/64/37
f 67/67/39 65/65/38 66/66/38
f 68/68/40 67/67/39 66/66/38
f 69/69/41 67/67/39 68/68/40
f 70/70/42 69/69/41 68/68/40
f 73/71/43 72/72/44 71/73/44
f 74/74/43 73/71/43 71/73/44
f 75/75/45 73/71/43 74/74/43
f 76/76/45 75/75/45 74/74/43
f 77/77/46 75/75/45 76/76/45
f 78/78/46 77/77/46 76/76/45
f 79/79/47 77/77/46 78/78/46
f 80/80/47 79/79/47 78/78/46
f 83/81/48 82/82/48 81/83/49
f 81/83/49 82/82/48 84/84/50
f 82/82/48 85/85/48 84/84/50
f 86/86/51 83/81/48 81/83/49
f 87/87/48 83/81/48 86/86/51
f 84/84/50 85/85/48 88/88/52
f 85/85/48 89/89/48 88/88/52
f 90/90/53 87/87/48 86/86/51
f 91/91/48 87/87/48 90/90/53
f 88/88/52 89/89/48 92/92/54
f 89/89/48 93/93/48 92/92/54
f 94/94/55 91/91/48 90/90/53
f 95/95/48 91/91/48 94/94/55
f 92/92/54 93/93/48 96/96/56
f 93/93/48 97/97/48 96/96/56
f 98/98/57 95/95/48 94/94/55
f 99/99/48 95/95/48 98/98/57
f 96/96/56 97/97/48 100/100/58
f 97/97/48 101/101/48 100/100/58
f 102/102/59 99/99/48 98/98/57
f 103/103/48 99/99/48 102/102/59
f 100/100/58 101/101/48 104/104/60
f 101/101/48 105/105/48 104/104/60
f 106/106/61 103/103/48 102/102/59
f 107/107/48 103/103/48 106/106/61
f 104/104/60 105/105/48 108/108/62
f 105/105/48 109/109/48 108/108/62
f 110/110/63 107/107/48 106/106/61
f 111/111/48 107/107/48 110/110/63
f 109/109/48 111/111/48 112/112/64
f 108/108/62 109/109/48 112/112/64
f 112/112/64 111/111/48 110/110/63
f 102/102/59 98/98/57 113/113/65
f 113/113/65 98/98/57 114/114/66
f 115/115/67 102/102/59 113/113/65
f 106/106/61 102/102/59 115/115/67
f 98/98/57 94/94/55 114/114/66
f 116/116/68 106/106/61 115/115/67
f 110/110/63 106/106/61 116/116/68
f 114/114/66 94/94/55 117/117/69
f 118/118/70 110/110/63 116/116/68
f 112/112/64 110/110/63 118/118/70
f 94/94/55 90/90/53 117/117/69
f 119/119/71 112/112/64 118/118/70
f 108/108/62 112/112/64 119/119/71
f 117/117/69 90/90/53 120/120/72
f 121/121/73 108/108/62 119/119/71
f 90/90/53 86/86/51 120/120/72
f 104/104/60 108/108/62 121/121/73
f 120/120/72 86/86/51 122/122/74
f 123/123/75 104/104/60 121/121/73
f 86/86/51 81/83/49 122/122/74
f 100/100/58 104/104/60 123/123/75
f 122/122/74 81/83/49 124/124/76
f 125/125/77 100/100/58 123/123/75
f 81/83/49 84/84/50 124/124/76
f 96/96/56 100/100/58 125/125/77
f 124/124/76 84/84/50 126/126/78
f 127/127/79 96/96/56 125/125/77
f 84/84/50 88/88/52 126/126/78
f 92/92/54 96/96/56 127/127/79
f 126/126/78 88/88/52 128/128/80
f 128/128/80 92/92/54 127/127/79
f 88/88/52 92/92/54 128/128/80
