mtllib Drawer_51f98f55.mtl
v -0.17999 0.055 0.02
v -0.178 0.053 0.022
v -0.178 -0.033 0.022
v -0.17999 0.055 0.02
v -0.178 -0.033 0.022
v -0.17999 -0.035 0.02
v -0.17999 -0.035 0
v 0.22 -0.035 0
v 0.22 0.055 0
v -0.17999 0.055 0
v -0.17999 -0.035 0.02
v -0.17999 -0.035 0
v -0.17999 0.055 0
v -0.17999 0.055 0.02
v -0.17999 0.055 0.02
v -0.17999 0.055 0
v 0.22 0.055 0
v 0.22 0.055 0.02
v 0.22 0.055 0.02
v 0.22 0.055 0
v 0.22 -0.035 0
v 0.22 -0.035 0.02
v 0.22 -0.035 0.02
v 0.22 -0.035 0
v -0.17999 -0.035 0
v -0.17999 -0.035 0.02
v -0.178 -0.033 0.022
v -0.178 0.053 0.022
v 0.218 0.05301 0.022
v 0.218 -0.03299 0.022
v -0.17999 -0.035 0.02
v -0.178 -0.033 0.022
v 0.218 -0.03299 0.022
v 0.22 -0.035 0.02
v 0.22 -0.035 0.02
v 0.218 -0.03299 0.022
v 0.218 0.05301 0.022
v 0.22 0.055 0.02
v 0.22 0.055 0.02
v 0.218 0.05301 0.022
v -0.178 0.053 0.022
v -0.17999 0.055 0.02
v -0.16904 -0.0318 -0.392
v 0.20906 -0.03179 -0.39199
v 0.20906 0.05181 -0.39199
v -0.16904 0.05181 -0.392
v -0.15479 -0.0147 -0.00199
v -0.15479 -0.0147 -0.377
v 0.19481 -0.0147 -0.37699
v 0.1948 -0.0147 -0.00199
v 0.20905 -0.03179 0.01301
v 0.20905 0.05181 0.01301
v 0.20906 0.05181 -0.39199
v 0.20906 -0.03179 -0.39199
v 0.20906 -0.03179 -0.39199
v -0.16904 -0.0318 -0.392
v -0.16904 -0.0318 0.01301
v -0.15099 -0.0318 0.01301
v 0.20905 -0.03179 0.01301
v -0.16904 -0.0318 0.01301
v -0.16904 -0.0318 -0.392
v -0.16904 0.05181 -0.392
v -0.16904 0.05181 0.01301
v -0.15479 0.05181 -0.377
v -0.15479 -0.0147 -0.377
v -0.15479 -0.0147 -0.00199
v -0.15479 0.05181 -0.00199
v -0.15479 0.05181 -0.00199
v -0.15479 -0.0147 -0.00199
v 0.1948 -0.0147 -0.00199
v 0.1948 0.05181 -0.00199
v 0.1948 0.05181 -0.00199
v 0.1948 -0.0147 -0.00199
v 0.19481 -0.0147 -0.37699
v 0.19481 0.05181 -0.37699
v 0.19481 0.05181 -0.37699
v 0.19481 -0.0147 -0.37699
v -0.15479 -0.0147 -0.377
v -0.15479 0.05181 -0.377
v -0.16904 0.05181 -0.392
v -0.15479 0.05181 -0.00199
v -0.16904 0.05181 0.01301
v -0.15099 0.05181 0.01301
v -0.15479 0.05181 -0.377
v 0.1948 0.05181 -0.00199
v 0.20906 0.05181 -0.39199
v 0.20905 0.05181 0.01301
v 0.19481 0.05181 -0.37699
vt 0.5987066 0.6881013
vt 0.6007431 0.6901379
vt 0.6883152 0.6901379
vt 0.5987066 0.6881013
vt 0.6883152 0.6901379
vt 0.6903517 0.6881013
vt 0.05857289 0.1717975
vt 0.458573 0.1717975
vt 0.458573 0.08179747
vt 0.05857289 0.0817976
vt 0.6903517 0.6881013
vt 0.6903517 0.6677357
vt 0.5987066 0.6677357
vt 0.5987066 0.6881013
vt 0.05485913 0.2641525
vt 0.05485913 0.2845238
vt 0.4622864 0.2845239
vt 0.4622864 0.2641525
vt 0.5987064 0.6079293
vt 0.5987064 0.6282949
vt 0.6903517 0.6282949
vt 0.6903517 0.6079293
vt 0.462287 0.3443297
vt 0.462287 0.3239583
vt 0.05485862 0.3239583
vt 0.05485862 0.3443297
vt 0.06555299 0.4336869
vt 0.06555296 0.5196868
vt 0.4615531 0.5196869
vt 0.4615531 0.433687
vt 0.05485862 0.3443297
vt 0.05689573 0.3463669
vt 0.4602498 0.3463669
vt 0.462287 0.3443297
vt 0.6903517 0.6079293
vt 0.6883151 0.6058927
vt 0.600743 0.6058927
vt 0.5987064 0.6079293
vt 0.4622864 0.2641525
vt 0.4602493 0.2621154
vt 0.0568963 0.2621154
vt 0.05485913 0.2641525
vt 0.8911688 0.8699659
vt 0.8911688 0.4918659
vt 0.8075688 0.4918659
vt 0.8075688 0.8699659
vt 0.4222902 0.4916545
vt 0.4222902 0.8666546
vt 0.7718903 0.8666544
vt 0.7718903 0.4916545
vt 0.9087068 0.8987005
vt 0.9923068 0.8987005
vt 0.9923068 0.4937001
vt 0.9087068 0.4937001
vt 0.4058776 0.0294691
vt 0.02777754 0.02946886
vt 0.02777745 0.4344691
vt 0.04582745 0.4344691
vt 0.4058775 0.4344691
vt 0.4444536 0.02946897
vt 0.4444536 0.434469
vt 0.5280536 0.434469
vt 0.5280536 0.02946897
vt 0.3877779 0.4916548
vt 0.3212778 0.4916548
vt 0.3212778 0.8666544
vt 0.3877779 0.8666544
vt 0.07616067 0.8395222
vt 0.1426608 0.8395222
vt 0.1426607 0.4899222
vt 0.07616061 0.4899222
vt 0.3060721 0.4916546
vt 0.239572 0.4916546
vt 0.239572 0.8666543
vt 0.3060721 0.8666543
vt 0.2243665 0.4899223
vt 0.1578664 0.4899223
vt 0.1578664 0.8395224
vt 0.2243664 0.8395224
vt 0.5658833 0.4344692
vt 0.5801331 0.04446883
vt 0.5658832 0.02946882
vt 0.5839332 0.02946882
vt 0.5801331 0.4194691
vt 0.9297333 0.04446883
vt 0.9439834 0.4344689
vt 0.9439833 0.02946882
vt 0.9297334 0.4194689
vn -0.7070626 0 0.7071509
vn -0.7070605 0 0.707153
vn -0.7071205 0 0.707093
vn -0.7070626 0 0.7071509
vn -0.7071205 0 0.707093
vn -0.7071213 0 0.7070922
vn 0 0 -1
vn 1.695421E-07 0 -1
vn 1.456548E-07 0 -1
vn 0 0 -1
vn -1 0 0
vn -1 0 0
vn -1 0 0
vn -1 0 0
vn -1.907349E-07 1 0
vn -1.907349E-07 1 0
vn -1.907349E-07 1 0
vn -1.907349E-07 1 0
vn 1 0 0
vn 1 0 0
vn 1 0 0
vn 1 0 0
vn 1.907349E-07 -1 0
vn 1.907349E-07 -1 0
vn 1.907349E-07 -1 0
vn 1.907349E-07 -1 0
vn -5.216854E-07 0 1
vn -7.168798E-07 0 1
vn 5.216848E-07 0 1
vn 7.168788E-07 0 1
vn 3.380327E-07 -0.7071149 0.7070987
vn 3.405897E-07 -0.7071149 0.7070985
vn 0 -0.7071015 0.7071121
vn 0 -0.7071014 0.7071121
vn 0.7070733 0 0.7071402
vn 0.7070719 0 0.7071416
vn 0.7071121 0 0.7071014
vn 0.7071127 0 0.7071007
vn 0 0.7071295 0.707084
vn 0 0.7071298 0.7070837
vn -3.360803E-07 0.7070799 0.7071336
vn -3.37167E-07 0.7070798 0.7071337
vn 0 0 -1
vn 6.178994E-07 0 -1
vn 5.323006E-07 0 -1
vn 0 0 -1
vn -2.182321E-07 1 0
vn -2.182321E-07 1 0
vn -2.182321E-07 1 0
vn -2.182321E-07 1 1.799143E-07
vn 1 0 2.560794E-07
vn 1 0 2.560795E-07
vn 1 0 2.560789E-07
vn 1 0 2.560789E-07
vn 2.014968E-07 -1 0
vn 2.017825E-07 -1 0
vn 1.917896E-07 -1 0
vn 0 -1 -1.252388E-06
vn 2.118982E-07 -1 -3.348515E-07
vn -1 0 -2.825703E-07
vn -1 0 -2.825703E-07
vn -1 0 -2.825703E-07
vn -1 0 -2.825703E-07
vn 1 0 0
vn 1 0 0
vn 1 0 0
vn 1 0 0
vn 0 0 -1
vn 0 0 -1
vn 0 0 -1
vn 0 0 -1
vn -1 0 -2.861024E-07
vn -1 0 -2.861025E-07
vn -1 0 -2.861023E-07
vn -1 0 -2.861022E-07
vn 0 0 1
vn 0 0 1
vn 0 0 1
vn 0 0 1
vn -1.069884E-07 1 0
vn 0 1 0
vn 0 1 0
vn 0 1 0
vn -1.028663E-07 1 0
vn -2.182321E-07 1 -5.819523E-07
vn -1.072336E-07 1 1.492859E-06
vn -1.097655E-07 1 4.683327E-06
vn -1.027711E-07 1 1.507309E-06
usemtl Default-Material
f 3/3/3 2/2/2 1/1/1
f 6/6/6 5/5/5 4/4/4
f 9/9/9 8/8/8 7/7/7
f 10/10/10 9/9/9 7/7/7
f 13/13/13 12/12/12 11/11/11
f 14/14/14 13/13/13 11/11/11
f 17/17/17 16/16/16 15/15/15
f 18/18/18 17/17/17 15/15/15
f 21/21/21 20/20/20 19/19/19
f 22/22/22 21/21/21 19/19/19
f 25/25/25 24/24/24 23/23/23
f 26/26/26 25/25/25 23/23/23
f 29/29/29 28/28/28 27/27/27
f 30/30/30 29/29/29 27/27/27
f 33/33/33 32/32/32 31/31/31
f 34/34/34 33/33/33 31/31/31
f 37/37/37 36/36/36 35/35/35
f 38/38/38 37/37/37 35/35/35
f 41/41/41 40/40/40 39/39/39
f 42/42/42 41/41/41 39/39/39
f 45/45/45 44/44/44 43/43/43
f 46/46/46 45/45/45 43/43/43
f 49/49/49 48/48/48 47/47/47
f 47/47/47 50/50/50 49/49/49
f 53/53/53 52/52/52 51/51/51
f 54/54/54 53/53/53 51/51/51
f 57/57/57 56/56/56 55/55/55
f 55/55/55 58/58/58 57/57/57
f 55/55/55 59/59/59 58/58/58
f 62/62/62 61/61/61 60/60/60
f 63/63/63 62/62/62 60/60/60
f 66/66/66 65/65/65 64/64/64
f 67/67/67 66/66/66 64/64/64
f 70/70/70 69/69/69 68/68/68
f 71/71/71 70/70/70 68/68/68
f 74/74/74 73/73/73 72/72/72
f 75/75/75 74/74/74 72/72/72
f 78/78/78 77/77/77 76/76/76
f 79/79/79 78/78/78 76/76/76
f 82/82/82 81/81/81 80/80/80
f 83/83/83 81/81/81 82/82/82
f 81/81/81 84/84/84 80/80/80
f 85/85/85 81/81/81 83/83/83
f 80/80/80 84/84/84 86/86/86
f 87/87/87 85/85/85 83/83/83
f 84/84/84 88/88/88 86/86/86
f 88/88/88 85/85/85 87/87/87
f 86/86/86 88/88/88 87/87/87
