mtllib material.mtl
usemtl material_0
v -0.00364000 -0.37363000 0.02700000
v 0.08500000 -0.37500000 0.02541000
v -0.00500000 -0.37500000 0.02541000
v 0.08500000 -0.37368000 0.02700000
v 0.37501000 -0.37500000 0.02551000
v 0.37501000 -0.37368000 0.02710000
v 0.46501000 -0.37500000 0.02551000
v 0.46363000 -0.37363000 0.02710000
v 0.37501000 -0.37500000 0.00011000
v 0.46501000 -0.37500000 0.02551000
v 0.46501000 -0.37500000 0.00011000
v 0.37501000 -0.37500000 0.02551000
v 0.08500000 -0.37500000 0.02541000
v 0.08500000 -0.37500000 0.00000000
v -0.00500000 -0.37500000 0.00000000
v -0.00500000 -0.37500000 0.02541000
v 0.46363000 -0.37363000 0.02710000
v 0.46501000 -0.28500000 0.02551000
v 0.46501000 -0.37500000 0.02551000
v 0.46369000 -0.28500000 0.02710000
v 0.46501000 0.28500000 0.02551000
v 0.46369000 0.28500000 0.02710000
v 0.46501000 0.37501000 0.02551000
v 0.46363000 0.37368000 0.02710000
v 0.46501000 0.28500000 0.00011000
v 0.46501000 0.37501000 0.02551000
v 0.46501000 0.37501000 0.00011000
v 0.46501000 0.28500000 0.02551000
v 0.46501000 -0.28500000 0.02551000
v 0.46501000 -0.28500000 0.00011000
v 0.46501000 -0.37500000 0.00011000
v 0.46501000 -0.37500000 0.02551000
v 0.37501000 0.37501000 0.02551000
v 0.46501000 0.37501000 0.02551000
v 0.46363000 0.37368000 0.02710000
v 0.37501000 0.37365000 0.02710000
v 0.08500000 0.37501000 0.02541000
v 0.08500000 0.37365000 0.02700000
v -0.00500000 0.37501000 0.02541000
v -0.00364000 0.37368000 0.02700000
v 0.08500000 0.37501000 0.00000000
v -0.00500000 0.37501000 0.02541000
v -0.00500000 0.37501000 0.00000000
v 0.08500000 0.37501000 0.02541000
v 0.37501000 0.37501000 0.02551000
v 0.37501000 0.37501000 0.00011000
v 0.46501000 0.37501000 0.00011000
v 0.46501000 0.37501000 0.02551000
v -0.00500000 0.28501000 0.02541000
v -0.00500000 0.37501000 0.02541000
v -0.00364000 0.37368000 0.02700000
v -0.00366000 0.28501000 0.02700000
v -0.00500000 -0.28500000 0.02541000
v -0.00366000 -0.28499000 0.02700000
v -0.00500000 -0.37500000 0.02541000
v -0.00364000 -0.37363000 0.02700000
v -0.00500000 0.37501000 0.00000000
v -0.00500000 0.37501000 0.02541000
v -0.00500000 0.28501000 0.02541000
v -0.00500000 0.28501000 0.00000000
v -0.00500000 -0.28500000 0.00000000
v -0.00500000 -0.28500000 0.02541000
v -0.00500000 -0.37500000 0.02541000
v -0.00500000 -0.37500000 0.00000000
v 0.05081000 0.31920000 0.02528000
v 0.04916000 0.28500000 0.02700000
v 0.04918000 0.32083000 0.02700000
v 0.05082000 0.28501000 0.02527000
v 0.04916000 -0.28499000 0.02700000
v 0.05082000 -0.28500000 0.02527000
v 0.04918000 -0.32081000 0.02700000
v 0.05081000 -0.31919000 0.02528000
v 0.05230000 0.28501000 0.01301000
v 0.05081000 0.31920000 0.02528000
v 0.05230000 0.31771000 0.01301000
v 0.05082000 0.28501000 0.02527000
v 0.05082000 -0.28500000 0.02527000
v 0.05230000 -0.28500000 0.01301000
v 0.05230000 -0.31770000 0.01301000
v 0.05081000 -0.31919000 0.02528000
v 0.08500000 0.31919000 0.02527000
v 0.05081000 0.31920000 0.02528000
v 0.04918000 0.32083000 0.02700000
v 0.08501000 0.32085000 0.02700000
v 0.37501000 0.31919000 0.02537000
v 0.37500000 0.32085000 0.02710000
v 0.40920000 0.31920000 0.02538000
v 0.41089000 0.32083000 0.02710000
v 0.05230000 0.31771000 0.01301000
v 0.05081000 0.31920000 0.02528000
v 0.08500000 0.31919000 0.02527000
v 0.08500000 0.31771000 0.01301000
v 0.37501000 0.31771000 0.01311000
v 0.37501000 0.31919000 0.02537000
v 0.40920000 0.31920000 0.02538000
v 0.40771000 0.31771000 0.01311000
v 0.40919000 0.28500000 0.02537000
v 0.40920000 0.31920000 0.02538000
v 0.41089000 0.32083000 0.02710000
v 0.41080000 0.28500000 0.02710000
v 0.40919000 -0.28500000 0.02537000
v 0.41080000 -0.28499000 0.02710000
v 0.40920000 -0.31919000 0.02538000
v 0.41089000 -0.32081000 0.02710000
v 0.40771000 0.31771000 0.01311000
v 0.40920000 0.31920000 0.02538000
v 0.40919000 0.28500000 0.02537000
v 0.40771000 0.28500000 0.01311000
v 0.40771000 -0.28500000 0.01311000
v 0.40919000 -0.28500000 0.02537000
v 0.40920000 -0.31919000 0.02538000
v 0.40771000 -0.31770000 0.01311000
v 0.37501000 -0.31918000 0.02537000
v 0.40920000 -0.31919000 0.02538000
v 0.41089000 -0.32081000 0.02710000
v 0.37500000 -0.32085000 0.02710000
v 0.08500000 -0.31918000 0.02527000
v 0.08501000 -0.32085000 0.02700000
v 0.05081000 -0.31919000 0.02528000
v 0.04918000 -0.32081000 0.02700000
v 0.40771000 -0.31770000 0.01311000
v 0.40920000 -0.31919000 0.02538000
v 0.37501000 -0.31918000 0.02537000
v 0.37501000 -0.31770000 0.01311000
v 0.08500000 -0.31770000 0.01301000
v 0.08500000 -0.31918000 0.02527000
v 0.05081000 -0.31919000 0.02528000
v 0.05230000 -0.31770000 0.01301000
v 0.40771000 0.28500000 0.01311000
v 0.37501000 0.31771000 0.01311000
v 0.40771000 0.31771000 0.01311000
v 0.37501000 0.28500000 0.01311000
v 0.08500000 0.31771000 0.01301000
v 0.37501000 -0.28500000 0.01311000
v 0.40771000 -0.28500000 0.01311000
v 0.40771000 -0.31770000 0.01311000
v 0.37501000 -0.31770000 0.01311000
v 0.08500000 0.28501000 0.01301000
v 0.05230000 0.31771000 0.01301000
v 0.05230000 0.28501000 0.01301000
v 0.05230000 -0.28500000 0.01301000
v 0.08500000 -0.28500000 0.01301000
v 0.08500000 -0.31770000 0.01301000
v 0.05230000 -0.31770000 0.01301000
v 0.37501000 0.37501000 0.00011000
v 0.46501000 0.28500000 0.00011000
v 0.46501000 0.37501000 0.00011000
v 0.37501000 0.28500000 0.00011000
v 0.46501000 -0.28500000 0.00011000
v 0.08500000 0.28501000 0.00000000
v 0.08500000 0.37501000 0.00000000
v -0.00500000 0.37501000 0.00000000
v -0.00500000 0.28501000 0.00000000
v 0.37501000 -0.28500000 0.00011000
v 0.46501000 -0.37500000 0.00011000
v 0.37501000 -0.37500000 0.00011000
v 0.08500000 -0.37500000 0.00000000
v 0.08500000 -0.28500000 0.00000000
v -0.00500000 -0.28500000 0.00000000
v -0.00500000 -0.37500000 0.00000000
v 0.04918000 0.32083000 0.02700000
v 0.04916000 0.28500000 0.02700000
v -0.00366000 0.28501000 0.02700000
v -0.00364000 0.37368000 0.02700000
v -0.00366000 -0.28499000 0.02700000
v 0.08501000 0.32085000 0.02700000
v 0.04916000 -0.28499000 0.02700000
v 0.08500000 0.37365000 0.02700000
v -0.00364000 -0.37363000 0.02700000
v 0.37500000 0.32085000 0.02710000
v 0.04918000 -0.32081000 0.02700000
v 0.37501000 0.37365000 0.02710000
v 0.08500000 -0.37368000 0.02700000
v 0.41089000 0.32083000 0.02710000
v 0.08501000 -0.32085000 0.02700000
v 0.46363000 0.37368000 0.02710000
v 0.37501000 -0.37368000 0.02710000
v 0.41080000 0.28500000 0.02710000
v 0.37500000 -0.32085000 0.02710000
v 0.46369000 0.28500000 0.02710000
v 0.46363000 -0.37363000 0.02710000
v 0.41080000 -0.28499000 0.02710000
v 0.41089000 -0.32081000 0.02710000
v 0.46369000 -0.28500000 0.02710000
vn -0.00046112 -0.77233380 0.63521680
vn -0.00027562 -0.77232160 0.63523170
vn 0.00000000 -0.75991230 0.65002560
vn -0.00027645 -0.77232160 0.63523160
vn -0.00021975 -0.77231790 0.63523610
vn -0.00021976 -0.77228790 0.63527270
vn 0.00000000 -0.77229270 0.63526690
vn 0.00045304 -0.75982360 0.65012920
vn 0.00000000 -1.00000000 0.00000000
vn 0.00000000 -1.00000000 0.00000000
vn 0.00000000 -1.00000000 0.00000000
vn 0.00000000 -1.00000000 0.00000000
vn 0.00000000 -1.00000000 0.00000000
vn 0.00000000 -1.00000000 0.00000000
vn 0.00000000 -1.00000000 0.00000000
vn 0.00000000 -1.00000000 0.00000000
vn 0.77330010 -0.00053224 0.63404000
vn 0.77327820 -0.00007069 0.63406690
vn 0.75893920 0.00000000 0.65116160
vn 0.77327830 -0.00007178 0.63406680
vn 0.77327490 0.00000000 0.63407100
vn 0.77334200 0.00000000 0.63398920
vn 0.77331820 0.00000000 0.63401820
vn 0.75878440 0.00052189 0.65134170
vn 1.00000000 0.00000000 0.00000000
vn 1.00000000 0.00000000 0.00000000
vn 1.00000000 0.00000000 0.00000000
vn 1.00000000 0.00000000 0.00000000
vn 1.00000000 0.00000000 0.00000000
vn 1.00000000 0.00000000 0.00000000
vn 1.00000000 0.00000000 0.00000000
vn 1.00000000 0.00000000 0.00000000
vn 0.00000000 0.76895510 0.63930280
vn 0.00000000 0.76895510 0.63930280
vn 0.00000000 0.76895520 0.63930280
vn -0.00022110 0.76306410 0.64632270
vn -0.00022216 0.76306530 0.64632140
vn -0.00022342 0.76317430 0.64619270
vn 0.00000000 0.76309810 0.64628270
vn 0.00022350 0.76927080 0.63892280
vn 0.00000000 1.00000000 0.00000000
vn 0.00000000 1.00000000 0.00000000
vn 0.00000000 1.00000000 0.00000000
vn 0.00000000 1.00000000 0.00000000
vn 0.00000000 1.00000000 0.00000000
vn 0.00000000 1.00000000 0.00000000
vn 0.00000000 1.00000000 0.00000000
vn 0.00000000 1.00000000 0.00000000
vn -0.76396720 0.00000000 0.64525510
vn -0.76396710 0.00000000 0.64525510
vn -0.76396710 0.00000000 0.64525510
vn -0.76830970 0.00016536 0.64007830
vn -0.76838100 0.00000016 0.63999270
vn -0.76832280 0.00000000 0.64006260
vn -0.76832280 0.00000000 0.64006260
vn -0.76384420 -0.00016439 0.64540060
vn -1.00000000 0.00000000 0.00000000
vn -1.00000000 0.00000000 0.00000000
vn -1.00000000 0.00000000 0.00000000
vn -1.00000000 0.00000000 0.00000000
vn -1.00000000 0.00000021 0.00000000
vn -1.00000000 0.00000021 0.00000000
vn -1.00000000 0.00000000 0.00000000
vn -1.00000000 0.00000000 0.00000000
vn 0.72517370 -0.00043457 0.68856580
vn 0.72261830 -0.00017401 0.69124730
vn 0.72525960 -0.00044335 0.68847530
vn 0.72249110 -0.00016107 0.69138020
vn 0.72240560 0.00044378 0.69146950
vn 0.72537010 0.00016267 0.68835910
vn 0.72537020 0.00016267 0.68835900
vn 0.72537020 0.00016267 0.68835900
vn 0.99270940 0.00000852 0.12053180
vn 0.99270800 0.00000268 0.12054350
vn 0.99270740 0.00000000 0.12054880
vn 0.99271000 0.00001084 0.12052730
vn 0.99271010 0.00000000 0.12052610
vn 0.99270870 0.00000022 0.12053820
vn 0.99270870 0.00000000 0.12053760
vn 0.99270830 -0.00000361 0.12054200
vn 0.00016675 -0.72556780 0.68815070
vn 0.00016675 -0.72556780 0.68815080
vn 0.00016675 -0.72556780 0.68815080
vn 0.00048786 -0.72228880 0.69159130
vn -0.00023877 -0.72232230 0.69155650
vn -0.00018343 -0.72249290 0.69137840
vn -0.00047340 -0.72541800 0.68830850
vn -0.00048309 -0.72551540 0.68820580
vn 0.00000180 -0.99270830 0.12054190
vn 0.00000180 -0.99270830 0.12054190
vn 0.00000180 -0.99270830 0.12054190
vn 0.00000000 -0.99271090 0.12051990
vn -0.00004216 -0.99271120 0.12051830
vn -0.00004197 -0.99270770 0.12054660
vn 0.00000000 -0.99270760 0.12054790
vn 0.00000000 -0.99270780 0.12054570
vn -0.71405710 -0.00018006 0.70008740
vn -0.71405710 -0.00018006 0.70008740
vn -0.71405710 -0.00018006 0.70008740
vn -0.73400300 0.00176053 0.67914380
vn -0.73390760 0.00000000 0.67924930
vn -0.73382420 0.00017454 0.67933940
vn -0.73382420 0.00017454 0.67933940
vn -0.71506980 -0.00171645 0.69905100
vn -0.99270780 -0.00000541 0.12054530
vn -0.99270780 -0.00000541 0.12054530
vn -0.99270780 -0.00000541 0.12054530
vn -0.99270610 0.00000000 0.12055900
vn -0.99270560 0.00000000 0.12056270
vn -0.99270610 0.00000000 0.12055940
vn -0.99270780 0.00000134 0.12054570
vn -0.99270850 0.00000000 0.12054040
vn -0.00017913 0.72695730 0.68668260
vn -0.00017913 0.72695730 0.68668260
vn -0.00017913 0.72695740 0.68668260
vn -0.00076896 0.72085510 0.69308550
vn -0.00023743 0.72081260 0.69313010
vn 0.00016572 0.72083050 0.69311140
vn 0.00016572 0.72083060 0.69311140
vn 0.00077183 0.72682400 0.68682340
vn -0.00000361 0.99271130 0.12051660
vn -0.00000361 0.99271130 0.12051660
vn -0.00000361 0.99271130 0.12051660
vn 0.00000000 0.99271080 0.12052110
vn -0.00004109 0.99270770 0.12054670
vn -0.00004085 0.99271110 0.12051840
vn -0.00000089 0.99270830 0.12054170
vn 0.00000000 0.99270760 0.12054730
vn 0.00000000 0.00000000 1.00000000
vn 0.00000000 0.00000000 1.00000000
vn 0.00000000 0.00000000 1.00000000
vn 0.00000000 0.00000000 1.00000000
vn 0.00000000 0.00000000 1.00000000
vn 0.00000000 0.00000000 1.00000000
vn 0.00000000 0.00000000 1.00000000
vn 0.00000000 0.00000000 1.00000000
vn 0.00000000 0.00000000 1.00000000
vn 0.00000000 0.00000000 1.00000000
vn 0.00000000 0.00000000 1.00000000
vn 0.00000000 0.00000000 1.00000000
vn 0.00000000 0.00000000 1.00000000
vn -0.00034476 0.00000000 1.00000000
vn -0.00034499 0.00000000 1.00000000
vn 0.00000000 0.00000000 1.00000000
vn 0.00000000 0.00000000 -1.00000000
vn 0.00000000 0.00000000 -1.00000000
vn 0.00000000 0.00000000 -1.00000000
vn 0.00000000 0.00000000 -1.00000000
vn 0.00000000 0.00000000 -1.00000000
vn 0.00000000 0.00000000 -1.00000000
vn 0.00000000 0.00000000 -1.00000000
vn 0.00000000 0.00000000 -1.00000000
vn 0.00000000 0.00000000 -1.00000000
vn 0.00000000 0.00000000 -1.00000000
vn 0.00000000 0.00000000 -1.00000000
vn 0.00000000 0.00000000 -1.00000000
vn 0.00034610 0.00000000 -1.00000000
vn 0.00034540 0.00000000 -1.00000000
vn 0.00000000 0.00000000 -1.00000000
vn 0.00000000 0.00000000 -1.00000000
vn -0.00000199 0.00000000 1.00000000
vn 0.00000000 0.00000000 1.00000000
vn 0.00000014 0.00000000 1.00000000
vn -0.00000059 0.00000000 1.00000000
vn -0.00000528 0.00000000 1.00000000
vn -0.00027832 0.00000000 1.00000000
vn -0.00000602 0.00000000 1.00000000
vn -0.00026481 0.00000000 1.00000000
vn 0.00000197 0.00000000 1.00000000
vn -0.00030810 0.00000000 1.00000000
vn -0.00000349 0.00000000 1.00000000
vn -0.00027987 0.00000000 1.00000000
vn -0.00027799 0.00000000 1.00000000
vn 0.00000423 0.00000000 1.00000000
vn -0.00030768 0.00000000 1.00000000
vn 0.00000090 0.00000000 1.00000000
vn -0.00026430 0.00000000 1.00000000
vn 0.00000601 0.00000000 1.00000000
vn -0.00027748 0.00000000 1.00000000
vn 0.00000528 0.00000000 1.00000000
vn 0.00000017 0.00000000 1.00000000
vn 0.00000036 0.00000000 1.00000000
vn 0.00000084 0.00000000 1.00000000
vn 0.00000000 0.00000000 1.00000000
vt 1.90942500 2.81552400
vt 1.96610900 2.81297800
vt 1.90856100 2.81297800
vt 1.96610900 2.81552400
vt 2.15153900 2.81313700
vt 2.15153900 2.81568300
vt 2.20908700 2.81313700
vt 2.20821000 2.81568300
vt 2.15153900 2.77271200
vt 2.20908700 2.81313700
vt 2.20908700 2.77271200
vt 2.15153900 2.81313700
vt 1.96610900 2.81297800
vt 1.96610900 2.77255300
vt 1.90856100 2.77255300
vt 1.90856100 2.81297800
vt 2.18380100 1.09109600
vt 2.18641900 1.14623300
vt 2.18641900 1.09024500
vt 2.18380100 1.14623300
vt 2.18641900 1.50082500
vt 2.18380100 1.50082500
vt 2.18641900 1.55681300
vt 2.18380100 1.55598700
vt 2.22796200 1.50082500
vt 2.18641900 1.55681300
vt 2.22796200 1.55681300
vt 2.18641900 1.50082500
vt 2.18641900 1.14623300
vt 2.22796200 1.14623300
vt 2.22796200 1.09024500
vt 2.18641900 1.09024500
vt 3.73078700 2.81314300
vt 3.67322300 2.81314300
vt 3.67410100 2.81569000
vt 3.73078700 2.81569000
vt 3.91627200 2.81298300
vt 3.91627200 2.81553100
vt 3.97383600 2.81298300
vt 3.97297200 2.81553100
vt 3.91627200 2.77254600
vt 3.97383600 2.81298300
vt 3.97383600 2.77254600
vt 3.91627200 2.81298300
vt 3.73078700 2.81314300
vt 3.73078700 2.77270500
vt 3.67322300 2.77270500
vt 3.67322300 2.81314300
vt 1.93123200 1.50085800
vt 1.93123200 1.55685600
vt 1.93385000 1.55602900
vt 1.93385000 1.50085700
vt 1.93123200 1.14620100
vt 1.93385000 1.14620100
vt 1.93123200 1.09020200
vt 1.93385000 1.09105400
vt 1.88968000 1.55685600
vt 1.93123200 1.55685600
vt 1.93123200 1.50085800
vt 1.88968000 1.50085800
vt 1.88968000 1.14620100
vt 1.93123200 1.14620100
vt 1.93123200 1.09020200
vt 1.88968000 1.09020200
vt 4.25272500 1.32461500
vt 4.24880700 1.30874600
vt 4.24880700 1.32537400
vt 4.25274700 1.30874600
vt 4.24880700 1.04419200
vt 4.25274700 1.04419200
vt 4.24880700 1.02756700
vt 4.25272500 1.02832300
vt 4.28060500 1.30874600
vt 4.25272500 1.32461500
vt 4.28060500 1.32392300
vt 4.25274700 1.30874600
vt 4.25274700 1.04419200
vt 4.28060500 1.04419200
vt 4.28060500 1.02901500
vt 4.25272500 1.02832300
vt 1.70184300 3.10092100
vt 1.68702200 3.10094500
vt 1.68631400 3.10513900
vt 1.70184400 3.10513900
vt 1.82754500 3.10116500
vt 1.82754500 3.10538300
vt 1.84236600 3.10118800
vt 1.84309800 3.10538300
vt 1.68766900 3.07108700
vt 1.68702200 3.10094500
vt 1.70184300 3.10092100
vt 1.70184300 3.07108700
vt 1.82754500 3.07133100
vt 1.82754500 3.10116500
vt 1.84236600 3.10118800
vt 1.84172000 3.07133100
vt 4.57077000 1.30859300
vt 4.57079300 1.32444200
vt 4.57470600 1.32520000
vt 4.57470600 1.30859200
vt 4.57077000 1.04434600
vt 4.57470600 1.04434600
vt 4.57079300 1.02849600
vt 4.57470600 1.02774100
vt 4.54294300 1.32375200
vt 4.57079300 1.32444200
vt 4.57077000 1.30859300
vt 4.54294300 1.30859300
vt 4.54294300 1.04434600
vt 4.57077000 1.04434600
vt 4.57079300 1.02849600
vt 4.54294300 1.02918600
vt 2.87833300 3.10116500
vt 2.86351200 3.10118900
vt 2.86278000 3.10538400
vt 2.87833400 3.10538400
vt 3.00404300 3.10092200
vt 3.00404200 3.10514100
vt 3.01886400 3.10094500
vt 3.01957300 3.10514100
vt 2.86415900 3.07132900
vt 2.86351200 3.10118900
vt 2.87833300 3.10116500
vt 2.87833300 3.07132900
vt 3.00404300 3.07108600
vt 3.00404300 3.10092200
vt 3.01886400 3.10094500
vt 3.01821800 3.07108600
vt 0.75423390 4.12862000
vt 0.72368720 4.16362500
vt 0.75423390 4.16362500
vt 0.72368720 4.12862000
vt 0.45278310 4.16362500
vt 0.72368720 3.51843900
vt 0.75423390 3.51843900
vt 0.75423390 3.48343400
vt 0.72368720 3.48343400
vt 0.45278310 4.12862000
vt 0.42223630 4.16362500
vt 0.42223630 4.12862000
vt 0.42223640 3.51843900
vt 0.45278330 3.51843900
vt 0.45278330 3.48343400
vt 0.42223640 3.48343400
vt 0.73360310 1.68907600
vt 0.64127540 1.60134500
vt 0.64127540 1.68907600
vt 0.73360310 1.60134500
vt 0.64127540 1.04571300
vt 1.03110300 1.60134500
vt 1.03110300 1.68907600
vt 1.12343000 1.68907600
vt 1.12343000 1.60134500
vt 0.73360310 1.04571300
vt 0.64127540 0.95798220
vt 0.73360310 0.95798220
vt 1.03110300 0.95798230
vt 1.03110300 1.04571400
vt 1.12343100 1.04571400
vt 1.12343100 0.95798230
vt 3.04958400 1.63594500
vt 3.04956100 1.60105900
vt 2.99531900 1.60105900
vt 2.99533900 1.68740300
vt 2.99531900 1.04601300
vt 3.08637600 1.63596800
vt 3.04956100 1.04601300
vt 3.08637600 1.68737900
vt 2.99533900 0.95970630
vt 3.38418900 1.63596800
vt 3.04958400 1.01113400
vt 3.38419000 1.68737900
vt 3.08637600 0.95965500
vt 3.42103700 1.63594500
vt 3.08637600 1.01109700
vt 3.47520600 1.68740300
vt 3.38419000 0.95965490
vt 3.42094900 1.60105900
vt 3.38418900 1.01109600
vt 3.47526800 1.60105900
vt 3.47520600 0.95970620
vt 3.42094900 1.04601300
vt 3.42103700 1.01113400
vt 3.47526800 1.04601200
f 3/3/3 2/2/2 1/1/1
f 2/2/2 4/4/4 1/1/1
f 4/4/4 2/2/2 5/5/5
f 6/6/6 4/4/4 5/5/5
f 5/5/5 7/7/7 6/6/6
f 7/7/7 8/8/8 6/6/6
f 11/11/11 10/10/10 9/9/9
f 10/10/10 12/12/12 9/9/9
f 9/9/9 12/12/12 13/13/13
f 14/14/14 9/9/9 13/13/13
f 14/14/14 13/13/13 15/15/15
f 13/13/13 16/16/16 15/15/15
f 19/19/19 18/18/18 17/17/17
f 18/18/18 20/20/20 17/17/17
f 20/20/20 18/18/18 21/21/21
f 22/22/22 20/20/20 21/21/21
f 21/21/21 23/23/23 22/22/22
f 23/23/23 24/24/24 22/22/22
f 27/27/27 26/26/26 25/25/25
f 26/26/26 28/28/28 25/25/25
f 25/25/25 28/28/28 29/29/29
f 30/30/30 25/25/25 29/29/29
f 30/30/30 29/29/29 31/31/31
f 29/29/29 32/32/32 31/31/31
f 35/35/35 34/34/34 33/33/33
f 36/36/36 35/35/35 33/33/33
f 36/36/36 33/33/33 37/37/37
f 38/38/38 36/36/36 37/37/37
f 38/38/38 37/37/37 39/39/39
f 40/40/40 38/38/38 39/39/39
f 43/43/43 42/42/42 41/41/41
f 42/42/42 44/44/44 41/41/41
f 41/41/41 44/44/44 45/45/45
f 46/46/46 41/41/41 45/45/45
f 46/46/46 45/45/45 47/47/47
f 45/45/45 48/48/48 47/47/47
f 51/51/51 50/50/50 49/49/49
f 52/52/52 51/51/51 49/49/49
f 52/52/52 49/49/49 53/53/53
f 54/54/54 52/52/52 53/53/53
f 53/53/53 55/55/55 54/54/54
f 55/55/55 56/56/56 54/54/54
f 59/59/59 58/58/58 57/57/57
f 60/60/60 59/59/59 57/57/57
f 60/60/60 61/61/61 59/59/59
f 61/61/61 62/62/62 59/59/59
f 63/63/63 62/62/62 61/61/61
f 64/64/64 63/63/63 61/61/61
f 67/67/67 66/66/66 65/65/65
f 66/66/66 68/68/68 65/65/65
f 68/68/68 66/66/66 69/69/69
f 70/70/70 68/68/68 69/69/69
f 69/69/69 71/71/71 70/70/70
f 71/71/71 72/72/72 70/70/70
f 75/75/75 74/74/74 73/73/73
f 74/74/74 76/76/76 73/73/73
f 73/73/73 76/76/76 77/77/77
f 78/78/78 73/73/73 77/77/77
f 78/78/78 77/77/77 79/79/79
f 77/77/77 80/80/80 79/79/79
f 83/83/83 82/82/82 81/81/81
f 84/84/84 83/83/83 81/81/81
f 84/84/84 81/81/81 85/85/85
f 86/86/86 84/84/84 85/85/85
f 86/86/86 85/85/85 87/87/87
f 88/88/88 86/86/86 87/87/87
f 91/91/91 90/90/90 89/89/89
f 92/92/92 91/91/91 89/89/89
f 92/92/92 93/93/93 91/91/91
f 93/93/93 94/94/94 91/91/91
f 95/95/95 94/94/94 93/93/93
f 96/96/96 95/95/95 93/93/93
f 99/99/99 98/98/98 97/97/97
f 100/100/100 99/99/99 97/97/97
f 100/100/100 97/97/97 101/101/101
f 102/102/102 100/100/100 101/101/101
f 102/102/102 101/101/101 103/103/103
f 104/104/104 102/102/102 103/103/103
f 107/107/107 106/106/106 105/105/105
f 108/108/108 107/107/107 105/105/105
f 107/107/107 108/108/108 109/109/109
f 110/110/110 107/107/107 109/109/109
f 111/111/111 110/110/110 109/109/109
f 112/112/112 111/111/111 109/109/109
f 115/115/115 114/114/114 113/113/113
f 116/116/116 115/115/115 113/113/113
f 116/116/116 113/113/113 117/117/117
f 118/118/118 116/116/116 117/117/117
f 118/118/118 117/117/117 119/119/119
f 120/120/120 118/118/118 119/119/119
f 123/123/123 122/122/122 121/121/121
f 124/124/124 123/123/123 121/121/121
f 124/124/124 125/125/125 123/123/123
f 125/125/125 126/126/126 123/123/123
f 127/127/127 126/126/126 125/125/125
f 128/128/128 127/127/127 125/125/125
f 131/131/131 130/130/130 129/129/129
f 130/130/130 132/132/132 129/129/129
f 132/132/132 130/130/130 133/133/133
f 129/129/129 132/132/132 134/134/134
f 135/135/135 129/129/129 134/134/134
f 135/135/135 134/134/134 136/136/136
f 134/134/134 137/137/137 136/136/136
f 138/138/138 132/132/132 133/133/133
f 132/132/132 138/138/138 134/134/134
f 133/133/133 139/139/139 138/138/138
f 139/139/139 140/140/140 138/138/138
f 138/138/138 140/140/140 141/141/141
f 137/137/137 134/134/134 142/142/142
f 138/138/138 142/142/142 134/134/134
f 142/142/142 138/138/138 141/141/141
f 143/143/143 137/137/137 142/142/142
f 142/142/142 141/141/141 143/143/143
f 141/141/141 144/144/144 143/143/143
f 147/147/147 146/146/146 145/145/145
f 146/146/146 148/148/148 145/145/145
f 148/148/148 146/146/146 149/149/149
f 145/145/145 148/148/148 150/150/150
f 151/151/151 145/145/145 150/150/150
f 151/151/151 150/150/150 152/152/152
f 150/150/150 153/153/153 152/152/152
f 154/154/154 148/148/148 149/149/149
f 148/148/148 154/154/154 150/150/150
f 149/149/149 155/155/155 154/154/154
f 155/155/155 156/156/156 154/154/154
f 156/156/156 157/157/157 154/154/154
f 150/150/150 158/158/158 153/153/153
f 154/154/154 158/158/158 150/150/150
f 157/157/157 158/158/158 154/154/154
f 158/158/158 159/159/159 153/153/153
f 158/158/158 157/157/157 159/159/159
f 157/157/157 160/160/160 159/159/159
f 163/163/163 162/162/162 161/161/161
f 164/164/164 163/163/163 161/161/161
f 162/162/162 163/163/163 165/165/165
f 164/164/164 161/161/161 166/166/166
f 167/167/167 162/162/162 165/165/165
f 168/168/168 164/164/164 166/166/166
f 165/165/165 169/169/169 167/167/167
f 168/168/168 166/166/166 170/170/170
f 169/169/169 171/171/171 167/167/167
f 172/172/172 168/168/168 170/170/170
f 169/169/169 173/173/173 171/171/171
f 172/172/172 170/170/170 174/174/174
f 173/173/173 175/175/175 171/171/171
f 176/176/176 172/172/172 174/174/174
f 173/173/173 177/177/177 175/175/175
f 176/176/176 174/174/174 178/178/178
f 177/177/177 179/179/179 175/175/175
f 180/180/180 176/176/176 178/178/178
f 177/177/177 181/181/181 179/179/179
f 180/180/180 178/178/178 182/182/182
f 181/181/181 183/183/183 179/179/179
f 184/184/184 180/180/180 182/182/182
f 181/181/181 184/184/184 183/183/183
f 184/184/184 182/182/182 183/183/183

