mtllib material.mtl
usemtl material_0
v -0.13500000 0.31919000 0.02527000
v -0.16919000 0.31920000 0.02528000
v -0.17082000 0.32083000 0.02700000
v -0.07999000 0.31919000 0.02537000
v -0.13499000 0.32085000 0.02700000
v -0.08000000 0.32085000 0.02710000
v -0.04580000 0.31920000 0.02538000
v -0.04411000 0.32083000 0.02710000
v -0.13500000 0.31919000 0.02527000
v -0.17082000 0.32083000 0.02700000
v -0.07999000 -0.31918000 0.02537000
v -0.04580000 -0.31919000 0.02538000
v -0.04411000 -0.32081000 0.02710000
v -0.13500000 -0.31918000 0.02527000
v -0.08000000 -0.32085000 0.02710000
v -0.13499000 -0.32085000 0.02700000
v -0.16919000 -0.31919000 0.02528000
v -0.17082000 -0.32081000 0.02700000
v -0.07999000 -0.31918000 0.02537000
v -0.04411000 -0.32081000 0.02710000
v -0.22364000 -0.37363000 0.02700000
v -0.13500000 -0.37500000 0.02541000
v -0.22500000 -0.37500000 0.02541000
v -0.13500000 -0.37368000 0.02700000
v -0.07999000 -0.37500000 0.02550000
v -0.07999000 -0.37368000 0.02710000
v 0.01001000 -0.37500000 0.02550000
v 0.00863000 -0.37363000 0.02710000
v -0.07999000 -0.37500000 0.00011000
v 0.01001000 -0.37500000 0.02550000
v 0.01001000 -0.37500000 0.00011000
v -0.07999000 -0.37500000 0.02550000
v -0.13500000 -0.37500000 0.02541000
v -0.13500000 -0.37500000 0.00000000
v -0.22500000 -0.37500000 0.00000000
v -0.22500000 -0.37500000 0.02541000
v 0.00863000 -0.37363000 0.02710000
v 0.01001000 -0.28500000 0.02550000
v 0.01001000 -0.37500000 0.02550000
v 0.00869000 -0.28500000 0.02710000
v 0.01001000 0.28500000 0.02550000
v 0.00869000 0.28500000 0.02710000
v 0.01001000 0.37501000 0.02550000
v 0.00863000 0.37368000 0.02710000
v 0.01001000 0.28500000 0.00011000
v 0.01001000 0.37501000 0.02550000
v 0.01001000 0.37501000 0.00011000
v 0.01001000 0.28500000 0.02550000
v 0.01001000 -0.28500000 0.02550000
v 0.01001000 -0.28500000 0.00011000
v 0.01001000 -0.37500000 0.00011000
v 0.01001000 -0.37500000 0.02550000
v -0.07999000 0.37501000 0.02550000
v 0.01001000 0.37501000 0.02550000
v 0.00863000 0.37368000 0.02710000
v -0.07999000 0.37365000 0.02710000
v -0.13500000 0.37501000 0.02541000
v -0.13500000 0.37365000 0.02700000
v -0.22500000 0.37501000 0.02541000
v -0.22364000 0.37368000 0.02700000
v -0.13500000 0.37501000 0.00000000
v -0.22500000 0.37501000 0.02541000
v -0.22500000 0.37501000 0.00000000
v -0.13500000 0.37501000 0.02541000
v -0.07999000 0.37501000 0.02550000
v -0.07999000 0.37501000 0.00011000
v 0.01001000 0.37501000 0.00011000
v 0.01001000 0.37501000 0.02550000
v -0.22500000 0.28501000 0.02541000
v -0.22500000 0.37501000 0.02541000
v -0.22364000 0.37368000 0.02700000
v -0.22366000 0.28500000 0.02700000
v -0.22500000 -0.28500000 0.02541000
v -0.22366000 -0.28500000 0.02700000
v -0.22500000 -0.37500000 0.02541000
v -0.22364000 -0.37363000 0.02700000
v -0.22500000 0.37501000 0.00000000
v -0.22500000 0.37501000 0.02541000
v -0.22500000 0.28501000 0.02541000
v -0.22500000 0.28501000 0.00000000
v -0.22500000 -0.28500000 0.00000000
v -0.22500000 -0.28500000 0.02541000
v -0.22500000 -0.37500000 0.02541000
v -0.22500000 -0.37500000 0.00000000
v -0.16919000 0.31920000 0.02528000
v -0.17084000 0.28500000 0.02700000
v -0.17082000 0.32083000 0.02700000
v -0.16918000 0.28501000 0.02527000
v -0.17084000 -0.28499000 0.02700000
v -0.16918000 -0.28500000 0.02527000
v -0.17082000 -0.32081000 0.02700000
v -0.16919000 -0.31919000 0.02528000
v -0.16770000 0.28501000 0.01300000
v -0.16919000 0.31920000 0.02528000
v -0.16770000 0.31771000 0.01300000
v -0.16918000 0.28501000 0.02527000
v -0.16918000 -0.28500000 0.02527000
v -0.16770000 -0.28500000 0.01300000
v -0.16770000 -0.31770000 0.01300000
v -0.16919000 -0.31919000 0.02528000
v -0.16770000 0.31771000 0.01300000
v -0.16919000 0.31920000 0.02528000
v -0.13500000 0.31919000 0.02527000
v -0.13500000 0.31771000 0.01300000
v -0.07999000 0.31770000 0.01311000
v -0.07999000 0.31919000 0.02537000
v -0.04580000 0.31920000 0.02538000
v -0.04729000 0.31770000 0.01311000
v -0.04581000 0.28500000 0.02537000
v -0.04580000 0.31920000 0.02538000
v -0.04411000 0.32083000 0.02710000
v -0.04420000 0.28500000 0.02710000
v -0.04581000 -0.28500000 0.02537000
v -0.04420000 -0.28499000 0.02710000
v -0.04580000 -0.31919000 0.02538000
v -0.04411000 -0.32081000 0.02710000
v -0.04729000 0.31770000 0.01311000
v -0.04580000 0.31920000 0.02538000
v -0.04581000 0.28500000 0.02537000
v -0.04729000 0.28500000 0.01311000
v -0.04729000 -0.28500000 0.01311000
v -0.04581000 -0.28500000 0.02537000
v -0.04580000 -0.31919000 0.02538000
v -0.04729000 -0.31770000 0.01311000
v -0.04729000 -0.31770000 0.01311000
v -0.04580000 -0.31919000 0.02538000
v -0.07999000 -0.31918000 0.02537000
v -0.07999000 -0.31770000 0.01311000
v -0.13500000 -0.31770000 0.01300000
v -0.13500000 -0.31918000 0.02527000
v -0.16919000 -0.31919000 0.02528000
v -0.16770000 -0.31770000 0.01300000
v -0.04729000 0.28500000 0.01311000
v -0.07999000 0.31770000 0.01311000
v -0.04729000 0.31770000 0.01311000
v -0.07999000 0.28500000 0.01311000
v -0.13500000 0.31771000 0.01300000
v -0.07999000 -0.28500000 0.01311000
v -0.04729000 -0.28500000 0.01311000
v -0.04729000 -0.31770000 0.01311000
v -0.07999000 -0.31770000 0.01311000
v -0.13500000 0.28501000 0.01300000
v -0.16770000 0.31771000 0.01300000
v -0.16770000 0.28501000 0.01300000
v -0.16770000 -0.28500000 0.01300000
v -0.13500000 -0.28500000 0.01300000
v -0.13500000 -0.31770000 0.01300000
v -0.16770000 -0.31770000 0.01300000
v -0.07999000 0.37501000 0.00011000
v 0.01001000 0.28500000 0.00011000
v 0.01001000 0.37501000 0.00011000
v -0.07999000 0.28500000 0.00011000
v 0.01001000 -0.28500000 0.00011000
v -0.13500000 0.28501000 0.00000000
v -0.13500000 0.37501000 0.00000000
v -0.22500000 0.37501000 0.00000000
v -0.22500000 0.28501000 0.00000000
v -0.07999000 -0.28500000 0.00011000
v 0.01001000 -0.37500000 0.00011000
v -0.07999000 -0.37500000 0.00011000
v -0.13500000 -0.37500000 0.00000000
v -0.13500000 -0.28500000 0.00000000
v -0.22500000 -0.28500000 0.00000000
v -0.22500000 -0.37500000 0.00000000
v -0.17082000 0.32083000 0.02700000
v -0.17084000 0.28500000 0.02700000
v -0.22366000 0.28500000 0.02700000
v -0.22364000 0.37368000 0.02700000
v -0.22366000 -0.28500000 0.02700000
v -0.13499000 0.32085000 0.02700000
v -0.17084000 -0.28499000 0.02700000
v -0.13500000 0.37365000 0.02700000
v -0.22364000 -0.37363000 0.02700000
v -0.08000000 0.32085000 0.02710000
v -0.17082000 -0.32081000 0.02700000
v -0.07999000 0.37365000 0.02710000
v -0.13500000 -0.37368000 0.02700000
v -0.04411000 0.32083000 0.02710000
v -0.13499000 -0.32085000 0.02700000
v 0.00863000 0.37368000 0.02710000
v -0.07999000 -0.37368000 0.02710000
v -0.04420000 0.28500000 0.02710000
v -0.08000000 -0.32085000 0.02710000
v 0.00869000 0.28500000 0.02710000
v 0.00863000 -0.37363000 0.02710000
v -0.04420000 -0.28499000 0.02710000
v -0.04411000 -0.32081000 0.02710000
v 0.00869000 -0.28500000 0.02710000
vn 0.00017296 -0.72567340 0.68803930
vn 0.00017296 -0.72567340 0.68803920
vn 0.00017296 -0.72567340 0.68803930
vn -0.00125390 -0.72232710 0.69155050
vn -0.00125390 -0.72232710 0.69155050
vn -0.00018869 -0.72247820 0.69139370
vn -0.00048222 -0.72541940 0.68830690
vn -0.00049203 -0.72551760 0.68820350
vn 0.00047894 -0.72221900 0.69166420
vn 0.00047894 -0.72221910 0.69166420
vn -0.00017930 0.72702860 0.68660720
vn -0.00017930 0.72702860 0.68660720
vn -0.00017930 0.72702870 0.68660710
vn -0.00124918 0.72098400 0.69295070
vn -0.00124918 0.72098390 0.69295070
vn 0.00017084 0.72083330 0.69310840
vn 0.00017084 0.72083340 0.69310840
vn 0.00076282 0.72685580 0.68678980
vn -0.00076012 0.72098790 0.69294720
vn -0.00076012 0.72098790 0.69294730
vn -0.00045659 -0.77242920 0.63510070
vn -0.00072683 -0.77243580 0.63509230
vn 0.00000000 -0.75988100 0.65006210
vn -0.00072060 -0.77243570 0.63509260
vn -0.00115625 -0.77244650 0.63507880
vn -0.00115832 -0.77237730 0.63516280
vn 0.00000000 -0.77244070 0.63508690
vn 0.00045232 -0.75984790 0.65010060
vn 0.00000000 -1.00000000 0.00000000
vn 0.00000000 -1.00000000 0.00000000
vn 0.00000000 -1.00000000 0.00000000
vn 0.00000000 -1.00000000 0.00000000
vn -0.00000105 -1.00000000 0.00000000
vn -0.00000105 -1.00000000 0.00000000
vn 0.00000000 -1.00000000 0.00000000
vn 0.00000000 -1.00000000 0.00000000
vn 0.77353440 -0.00053255 0.63375410
vn 0.77356010 -0.00007073 0.63372300
vn 0.75916620 0.00000000 0.65089670
vn 0.77356010 -0.00007182 0.63372300
vn 0.77356410 0.00000000 0.63371810
vn 0.77343110 0.00000000 0.63388050
vn 0.77355300 0.00000000 0.63373160
vn 0.75879320 0.00052240 0.65133140
vn 1.00000000 0.00000000 0.00000000
vn 1.00000000 0.00000000 0.00000000
vn 1.00000000 0.00000000 0.00000000
vn 1.00000000 0.00000000 0.00000000
vn 1.00000000 0.00000000 0.00000000
vn 1.00000000 0.00000000 0.00000000
vn 1.00000000 0.00000000 0.00000000
vn 1.00000000 0.00000000 0.00000000
vn 0.00000000 0.76923240 0.63896910
vn 0.00000000 0.76923240 0.63896910
vn 0.00000000 0.76923240 0.63896910
vn -0.00057702 0.76321260 0.64614720
vn -0.00117103 0.76321220 0.64614690
vn -0.00117785 0.76312040 0.64625530
vn 0.00000000 0.76312810 0.64624730
vn 0.00021932 0.76917110 0.63904280
vn 0.00000000 1.00000000 0.00000000
vn 0.00000000 1.00000000 0.00000000
vn 0.00000000 1.00000000 0.00000000
vn 0.00000000 1.00000000 0.00000000
vn 0.00000000 1.00000000 0.00000000
vn 0.00000000 1.00000000 0.00000000
vn 0.00000000 1.00000000 0.00000000
vn 0.00000000 1.00000000 0.00000000
vn -0.76396820 0.00000000 0.64525390
vn -0.76396820 0.00000000 0.64525390
vn -0.76396820 0.00000000 0.64525390
vn -0.76841600 0.00016739 0.63995060
vn -0.76838120 0.00000000 0.63999230
vn -0.76842950 0.00000000 0.63993440
vn -0.76842950 0.00000000 0.63993440
vn -0.76373580 -0.00016237 0.64552900
vn -1.00000000 0.00000000 0.00000000
vn -1.00000000 0.00000000 0.00000000
vn -1.00000000 0.00000000 0.00000000
vn -1.00000000 0.00000000 0.00000000
vn -1.00000000 0.00000042 0.00000000
vn -1.00000000 0.00000000 0.00000000
vn -1.00000000 0.00000000 0.00000000
vn -1.00000000 0.00000000 0.00000000
vn 0.72516090 -0.00043881 0.68857940
vn 0.72262290 -0.00017157 0.69124250
vn 0.72524620 -0.00044782 0.68848950
vn 0.72249660 -0.00015830 0.69137440
vn 0.72254130 0.00043925 0.69132760
vn 0.72533180 0.00016924 0.68839930
vn 0.72533180 0.00016924 0.68839930
vn 0.72533180 0.00016924 0.68839930
vn 0.99270930 0.00000000 0.12053280
vn 0.99270770 0.00000000 0.12054620
vn 0.99270700 0.00000000 0.12055240
vn 0.99271000 0.00000000 0.12052750
vn 0.99270990 0.00000000 0.12052870
vn 0.99270840 0.00000000 0.12054090
vn 0.99270830 0.00000000 0.12054140
vn 0.99270920 0.00000722 0.12053450
vn -0.00000361 -0.99271590 0.12047930
vn -0.00000361 -0.99271590 0.12047930
vn -0.00000361 -0.99271590 0.12047930
vn 0.00000000 -0.99271130 0.12051730
vn -0.00023014 -0.99271000 0.12052720
vn -0.00021893 -0.99270900 0.12053480
vn 0.00000045 -0.99270550 0.12056350
vn 0.00000000 -0.99270430 0.12057480
vn -0.71415930 -0.00018436 0.69998330
vn -0.71415920 -0.00018436 0.69998340
vn -0.71415930 -0.00018436 0.69998330
vn -0.73395450 0.00175738 0.67919630
vn -0.73399480 0.00000000 0.67915520
vn -0.73398250 0.00018362 0.67916830
vn -0.73398250 0.00018362 0.67916830
vn -0.71509840 -0.00171763 0.69902170
vn -0.99270710 0.00000722 0.12055190
vn -0.99270710 0.00000722 0.12055190
vn -0.99270710 0.00000722 0.12055190
vn -0.99270440 0.00000000 0.12057380
vn -0.99270460 0.00000000 0.12057180
vn -0.99270460 0.00000000 0.12057190
vn -0.99270670 -0.00000178 0.12055440
vn -0.99270760 0.00000000 0.12054780
vn -0.00000722 0.99271190 0.12051220
vn -0.00000722 0.99271190 0.12051220
vn -0.00000722 0.99271190 0.12051220
vn 0.00000567 0.99270320 0.12058400
vn -0.00021781 0.99270900 0.12053470
vn -0.00021259 0.99270990 0.12052840
vn -0.00000045 0.99271050 0.12052380
vn 0.00000000 0.99271150 0.12051530
vn 0.00000000 0.00000000 1.00000000
vn 0.00000000 0.00000000 1.00000000
vn 0.00000000 0.00000000 1.00000000
vn 0.00000000 0.00000000 1.00000000
vn 0.00000000 0.00000000 1.00000000
vn 0.00000000 0.00000000 1.00000000
vn 0.00000000 0.00000000 1.00000000
vn 0.00000000 0.00000000 1.00000000
vn 0.00000316 0.00000000 1.00000000
vn 0.00000000 0.00000000 1.00000000
vn 0.00000000 0.00000000 1.00000000
vn 0.00000000 0.00000000 1.00000000
vn 0.00000000 0.00000000 1.00000000
vn -0.00182764 0.00000000 0.99999830
vn -0.00182576 0.00000000 0.99999830
vn 0.00000000 0.00000000 1.00000000
vn 0.00000000 0.00000000 -1.00000000
vn 0.00000000 0.00000000 -1.00000000
vn 0.00000000 0.00000000 -1.00000000
vn 0.00000000 0.00000000 -1.00000000
vn 0.00000000 0.00000000 -1.00000000
vn 0.00000000 0.00000000 -1.00000000
vn 0.00000000 0.00000000 -1.00000000
vn 0.00000000 0.00000000 -1.00000000
vn 0.00000000 0.00000000 -1.00000000
vn 0.00000000 0.00000000 -1.00000000
vn 0.00000000 0.00000000 -1.00000000
vn 0.00000000 0.00000000 -1.00000000
vn 0.00182486 0.00000000 -0.99999830
vn 0.00182968 0.00000000 -0.99999830
vn 0.00000000 0.00000000 -1.00000000
vn 0.00000000 0.00000000 -1.00000000
vn -0.00000053 0.00000000 1.00000000
vn 0.00000038 0.00000000 1.00000000
vn 0.00000000 0.00000000 1.00000000
vn -0.00000147 0.00000000 1.00000000
vn 0.00000000 0.00000000 1.00000000
vn -0.00079522 0.00000000 0.99999980
vn -0.00000012 0.00000000 1.00000000
vn -0.00069682 0.00000000 0.99999980
vn -0.00000045 0.00000000 1.00000000
vn -0.00110063 0.00000000 0.99999940
vn -0.00000239 0.00000000 1.00000000
vn -0.00081133 0.00000000 0.99999960
vn -0.00080770 0.00000000 0.99999980
vn 0.00000032 0.00000000 1.00000000
vn -0.00109992 0.00000000 0.99999940
vn 0.00000000 0.00000000 1.00000000
vn -0.00069891 0.00000000 0.99999980
vn -0.00000577 0.00000000 1.00000000
vn -0.00079809 0.00000000 0.99999980
vn -0.00000528 0.00000000 1.00000000
vn -0.00000334 0.00000000 1.00000000
vn -0.00000036 0.00000000 1.00000000
vn -0.00000098 0.00000000 1.00000000
vn -0.00000022 0.00000000 1.00000000
vt 0.42384990 4.56756500
vt 0.40232920 4.56758100
vt 0.40129950 4.57047100
vt 0.45846910 4.56773300
vt 0.42385050 4.57047100
vt 0.45846880 4.57063900
vt 0.47998980 4.56774900
vt 0.48105340 4.57063900
vt 0.42384990 4.56756500
vt 0.40129950 4.57047100
vt 1.30623600 4.56773300
vt 1.28471300 4.56775000
vt 1.28365000 4.57064000
vt 1.34085700 4.56756500
vt 1.30623600 4.57064000
vt 1.34085600 4.57047200
vt 1.36237900 4.56758200
vt 1.36340900 4.57047200
vt 1.30623600 4.56773300
vt 1.28365000 4.57064000
vt 4.16913500 3.98722200
vt 4.24207600 3.98524400
vt 4.16802400 3.98524400
vt 4.24207600 3.98722200
vt 4.28733500 3.98536700
vt 4.28733500 3.98734600
vt 4.36138700 3.98536700
vt 4.36025900 3.98734600
vt 4.28733500 3.95395300
vt 4.36138700 3.98536700
vt 4.36138700 3.95395300
vt 4.28733500 3.98536700
vt 4.24207600 3.98524400
vt 4.24207600 3.95382900
vt 4.16802400 3.95382900
vt 4.16802400 3.98524400
vt 1.60061800 1.90449400
vt 1.60263600 1.97598800
vt 1.60263600 1.90339000
vt 1.60061800 1.97598800
vt 1.60263600 2.43577600
vt 1.60061800 2.43577600
vt 1.60263600 2.50837400
vt 1.60061800 2.50730200
vt 1.63467600 2.43577600
vt 1.60263600 2.50837400
vt 1.63467600 2.50837400
vt 1.60263600 2.43577600
vt 1.60263600 1.97598800
vt 1.63467600 1.97598800
vt 1.63467600 1.90339000
vt 1.60263600 1.90339000
vt 4.24206800 4.27949200
vt 4.16797400 4.27949200
vt 4.16910400 4.28147300
vt 4.24206800 4.28147300
vt 4.28734400 4.27936800
vt 4.28734400 4.28134900
vt 4.36143700 4.27936800
vt 4.36032500 4.28134900
vt 4.28734400 4.24794000
vt 4.36143700 4.27936800
vt 4.36143700 4.24794000
vt 4.28734400 4.27936800
vt 4.24206800 4.27949200
vt 4.24206800 4.24806400
vt 4.16797400 4.24806400
vt 4.16797400 4.27949200
vt 1.92677800 2.43581800
vt 1.92677800 2.50843000
vt 1.92879700 2.50735700
vt 1.92879700 2.43581800
vt 1.92677900 1.97594700
vt 1.92879700 1.97594700
vt 1.92677900 1.90333500
vt 1.92879700 1.90443900
vt 1.89473300 2.50843000
vt 1.92677800 2.50843000
vt 1.92677800 2.43581800
vt 1.89473300 2.43581800
vt 1.89473300 1.97594700
vt 1.92677900 1.97594700
vt 1.92677900 1.90333500
vt 1.89473300 1.90333500
vt 3.96123300 2.10149900
vt 3.95817500 2.08117400
vt 3.95817500 2.10247000
vt 3.96125000 2.08117500
vt 3.95817500 1.74235000
vt 3.96125000 1.74234900
vt 3.95817500 1.72105800
vt 3.96123300 1.72202600
vt 3.98300100 2.08117500
vt 3.96123300 2.10149900
vt 3.98300100 2.10061300
vt 3.96125000 2.08117500
vt 3.96125000 1.74234900
vt 3.98300100 1.74234900
vt 3.98300100 1.72291100
vt 3.96123300 1.72202600
vt 0.40326740 4.54700900
vt 0.40232920 4.56758100
vt 0.42384990 4.56756500
vt 0.42384990 4.54700900
vt 0.45846910 4.54717700
vt 0.45846910 4.56773300
vt 0.47998980 4.56774900
vt 0.47905170 4.54717700
vt 3.68579700 2.08098200
vt 3.68581500 2.10128400
vt 3.68887000 2.10225400
vt 3.68887000 2.08098200
vt 3.68579700 1.74254200
vt 3.68887000 1.74254300
vt 3.68581500 1.72224200
vt 3.68887000 1.72127500
vt 3.66407200 2.10039800
vt 3.68581500 2.10128400
vt 3.68579700 2.08098200
vt 3.66407200 2.08098200
vt 3.66407200 1.74254200
vt 3.68579700 1.74254200
vt 3.68581500 1.72224200
vt 3.66407200 1.72312700
vt 1.28565200 4.54717600
vt 1.28471300 4.56775000
vt 1.30623600 4.56773300
vt 1.30623600 4.54717600
vt 1.34085700 4.54700800
vt 1.34085700 4.56756500
vt 1.36237900 4.56758200
vt 1.36144100 4.54700800
vt 4.62364200 2.17646100
vt 4.58843400 2.20683100
vt 4.62364200 2.20683100
vt 4.58843400 2.17646100
vt 4.52921300 2.20683100
vt 4.58843400 1.64706900
vt 4.62364200 1.64706900
vt 4.62364200 1.61669800
vt 4.58843400 1.61669800
vt 4.52921300 2.17646100
vt 4.49400500 2.20683100
vt 4.49400500 2.17646100
vt 4.49400500 1.64706900
vt 4.52921400 1.64706900
vt 4.52921400 1.61669800
vt 4.49400500 1.61669800
vt 0.70729600 2.57421200
vt 0.61566590 2.48581200
vt 0.61566590 2.57421200
vt 0.70729600 2.48581200
vt 0.61566590 1.92595200
vt 0.76329280 2.48581300
vt 0.76329280 2.57421200
vt 0.85492240 2.57421200
vt 0.85492240 2.48581300
vt 0.70729600 1.92595200
vt 0.61566590 1.83755300
vt 0.70729600 1.83755300
vt 0.76329260 1.83755300
vt 0.76329260 1.92595200
vt 0.85492260 1.92595200
vt 0.85492260 1.83755300
vt 2.72938200 2.51978200
vt 2.72936000 2.48473000
vt 2.67537500 2.48473100
vt 2.67539400 2.57148600
vt 2.67537500 1.92704700
vt 2.76600000 2.51980600
vt 2.72936000 1.92704800
vt 2.76600000 2.57146100
vt 2.67539400 1.84033000
vt 2.82221300 2.51980600
vt 2.72938200 1.89200300
vt 2.82221400 2.57146100
vt 2.76600000 1.84027900
vt 2.85888600 2.51978200
vt 2.76600000 1.89196600
vt 2.91279800 2.57148600
vt 2.82221400 1.84027900
vt 2.85879900 2.48473000
vt 2.82221300 1.89196500
vt 2.91286000 2.48473100
vt 2.91279800 1.84033000
vt 2.85879900 1.92704800
vt 2.85888600 1.89200300
vt 2.91286000 1.92704700
f 3/3/3 2/2/2 1/1/1
f 5/5/5 1/1/1 4/4/4
f 6/6/6 5/5/5 4/4/4
f 6/6/6 4/4/4 7/7/7
f 8/8/8 6/6/6 7/7/7
f 5/5/5 10/10/10 9/9/9
f 13/13/13 12/12/12 11/11/11
f 15/15/15 11/11/11 14/14/14
f 16/16/16 15/15/15 14/14/14
f 16/16/16 14/14/14 17/17/17
f 18/18/18 16/16/16 17/17/17
f 15/15/15 20/20/20 19/19/19
f 23/23/23 22/22/22 21/21/21
f 22/22/22 24/24/24 21/21/21
f 24/24/24 22/22/22 25/25/25
f 26/26/26 24/24/24 25/25/25
f 25/25/25 27/27/27 26/26/26
f 27/27/27 28/28/28 26/26/26
f 31/31/31 30/30/30 29/29/29
f 30/30/30 32/32/32 29/29/29
f 29/29/29 32/32/32 33/33/33
f 34/34/34 29/29/29 33/33/33
f 34/34/34 33/33/33 35/35/35
f 33/33/33 36/36/36 35/35/35
f 39/39/39 38/38/38 37/37/37
f 38/38/38 40/40/40 37/37/37
f 40/40/40 38/38/38 41/41/41
f 42/42/42 40/40/40 41/41/41
f 41/41/41 43/43/43 42/42/42
f 43/43/43 44/44/44 42/42/42
f 47/47/47 46/46/46 45/45/45
f 46/46/46 48/48/48 45/45/45
f 45/45/45 48/48/48 49/49/49
f 50/50/50 45/45/45 49/49/49
f 50/50/50 49/49/49 51/51/51
f 49/49/49 52/52/52 51/51/51
f 55/55/55 54/54/54 53/53/53
f 56/56/56 55/55/55 53/53/53
f 56/56/56 53/53/53 57/57/57
f 58/58/58 56/56/56 57/57/57
f 58/58/58 57/57/57 59/59/59
f 60/60/60 58/58/58 59/59/59
f 63/63/63 62/62/62 61/61/61
f 62/62/62 64/64/64 61/61/61
f 61/61/61 64/64/64 65/65/65
f 66/66/66 61/61/61 65/65/65
f 66/66/66 65/65/65 67/67/67
f 65/65/65 68/68/68 67/67/67
f 71/71/71 70/70/70 69/69/69
f 72/72/72 71/71/71 69/69/69
f 72/72/72 69/69/69 73/73/73
f 74/74/74 72/72/72 73/73/73
f 73/73/73 75/75/75 74/74/74
f 75/75/75 76/76/76 74/74/74
f 79/79/79 78/78/78 77/77/77
f 80/80/80 79/79/79 77/77/77
f 80/80/80 81/81/81 79/79/79
f 81/81/81 82/82/82 79/79/79
f 83/83/83 82/82/82 81/81/81
f 84/84/84 83/83/83 81/81/81
f 87/87/87 86/86/86 85/85/85
f 86/86/86 88/88/88 85/85/85
f 88/88/88 86/86/86 89/89/89
f 90/90/90 88/88/88 89/89/89
f 89/89/89 91/91/91 90/90/90
f 91/91/91 92/92/92 90/90/90
f 95/95/95 94/94/94 93/93/93
f 94/94/94 96/96/96 93/93/93
f 93/93/93 96/96/96 97/97/97
f 98/98/98 93/93/93 97/97/97
f 98/98/98 97/97/97 99/99/99
f 97/97/97 100/100/100 99/99/99
f 103/103/103 102/102/102 101/101/101
f 104/104/104 103/103/103 101/101/101
f 104/104/104 105/105/105 103/103/103
f 105/105/105 106/106/106 103/103/103
f 107/107/107 106/106/106 105/105/105
f 108/108/108 107/107/107 105/105/105
f 111/111/111 110/110/110 109/109/109
f 112/112/112 111/111/111 109/109/109
f 112/112/112 109/109/109 113/113/113
f 114/114/114 112/112/112 113/113/113
f 114/114/114 113/113/113 115/115/115
f 116/116/116 114/114/114 115/115/115
f 119/119/119 118/118/118 117/117/117
f 120/120/120 119/119/119 117/117/117
f 119/119/119 120/120/120 121/121/121
f 122/122/122 119/119/119 121/121/121
f 123/123/123 122/122/122 121/121/121
f 124/124/124 123/123/123 121/121/121
f 127/127/127 126/126/126 125/125/125
f 128/128/128 127/127/127 125/125/125
f 128/128/128 129/129/129 127/127/127
f 129/129/129 130/130/130 127/127/127
f 131/131/131 130/130/130 129/129/129
f 132/132/132 131/131/131 129/129/129
f 135/135/135 134/134/134 133/133/133
f 134/134/134 136/136/136 133/133/133
f 136/136/136 134/134/134 137/137/137
f 133/133/133 136/136/136 138/138/138
f 139/139/139 133/133/133 138/138/138
f 139/139/139 138/138/138 140/140/140
f 138/138/138 141/141/141 140/140/140
f 142/142/142 136/136/136 137/137/137
f 136/136/136 142/142/142 138/138/138
f 137/137/137 143/143/143 142/142/142
f 143/143/143 144/144/144 142/142/142
f 142/142/142 144/144/144 145/145/145
f 141/141/141 138/138/138 146/146/146
f 142/142/142 146/146/146 138/138/138
f 146/146/146 142/142/142 145/145/145
f 147/147/147 141/141/141 146/146/146
f 146/146/146 145/145/145 147/147/147
f 145/145/145 148/148/148 147/147/147
f 151/151/151 150/150/150 149/149/149
f 150/150/150 152/152/152 149/149/149
f 152/152/152 150/150/150 153/153/153
f 149/149/149 152/152/152 154/154/154
f 155/155/155 149/149/149 154/154/154
f 155/155/155 154/154/154 156/156/156
f 154/154/154 157/157/157 156/156/156
f 158/158/158 152/152/152 153/153/153
f 152/152/152 158/158/158 154/154/154
f 153/153/153 159/159/159 158/158/158
f 159/159/159 160/160/160 158/158/158
f 160/160/160 161/161/161 158/158/158
f 154/154/154 162/162/162 157/157/157
f 158/158/158 162/162/162 154/154/154
f 161/161/161 162/162/162 158/158/158
f 162/162/162 163/163/163 157/157/157
f 162/162/162 161/161/161 163/163/163
f 161/161/161 164/164/164 163/163/163
f 167/167/167 166/166/166 165/165/165
f 168/168/168 167/167/167 165/165/165
f 166/166/166 167/167/167 169/169/169
f 168/168/168 165/165/165 170/170/170
f 171/171/171 166/166/166 169/169/169
f 172/172/172 168/168/168 170/170/170
f 169/169/169 173/173/173 171/171/171
f 172/172/172 170/170/170 174/174/174
f 173/173/173 175/175/175 171/171/171
f 176/176/176 172/172/172 174/174/174
f 173/173/173 177/177/177 175/175/175
f 176/176/176 174/174/174 178/178/178
f 177/177/177 179/179/179 175/175/175
f 180/180/180 176/176/176 178/178/178
f 177/177/177 181/181/181 179/179/179
f 180/180/180 178/178/178 182/182/182
f 181/181/181 183/183/183 179/179/179
f 184/184/184 180/180/180 182/182/182
f 181/181/181 185/185/185 183/183/183
f 184/184/184 182/182/182 186/186/186
f 185/185/185 187/187/187 183/183/183
f 188/188/188 184/184/184 186/186/186
f 185/185/185 188/188/188 187/187/187
f 188/188/188 186/186/186 187/187/187

