mtllib material.mtl
usemtl material_0
v -0.17999000 0.05500000 0.02000000
v -0.17800000 0.05300000 0.02200000
v -0.17800000 -0.03300000 0.02200000
v -0.17999000 -0.03500000 0.02000000
v -0.17999000 -0.03500000 0.00000000
v 0.22000000 -0.03500000 0.00000000
v 0.22000000 0.05500000 0.00000000
v -0.17999000 0.05500000 0.00000000
v -0.17999000 -0.03500000 0.02000000
v -0.17999000 -0.03500000 0.00000000
v -0.17999000 0.05500000 0.00000000
v -0.17999000 0.05500000 0.02000000
v -0.17999000 0.05500000 0.02000000
v -0.17999000 0.05500000 0.00000000
v 0.22000000 0.05500000 0.00000000
v 0.22000000 0.05500000 0.02000000
v 0.22000000 0.05500000 0.02000000
v 0.22000000 0.05500000 0.00000000
v 0.22000000 -0.03500000 0.00000000
v 0.22000000 -0.03500000 0.02000000
v 0.22000000 -0.03500000 0.02000000
v 0.22000000 -0.03500000 0.00000000
v -0.17999000 -0.03500000 0.00000000
v -0.17999000 -0.03500000 0.02000000
v -0.17800000 -0.03300000 0.02200000
v -0.17800000 0.05300000 0.02200000
v 0.21800000 0.05301000 0.02200000
v 0.21800000 -0.03299000 0.02200000
v -0.17999000 -0.03500000 0.02000000
v -0.17800000 -0.03300000 0.02200000
v 0.21800000 -0.03299000 0.02200000
v 0.22000000 -0.03500000 0.02000000
v 0.22000000 -0.03500000 0.02000000
v 0.21800000 -0.03299000 0.02200000
v 0.21800000 0.05301000 0.02200000
v 0.22000000 0.05500000 0.02000000
v 0.22000000 0.05500000 0.02000000
v 0.21800000 0.05301000 0.02200000
v -0.17800000 0.05300000 0.02200000
v -0.17999000 0.05500000 0.02000000
v -0.16904000 -0.03180000 -0.39200000
v 0.20906000 -0.03179000 -0.39199000
v 0.20906000 0.05181000 -0.39199000
v -0.16904000 0.05181000 -0.39200000
v -0.15479000 -0.01470000 -0.00199000
v -0.15479000 -0.01470000 -0.37700000
v 0.19481000 -0.01470000 -0.37699000
v 0.19480000 -0.01470000 -0.00199000
v 0.20905000 -0.03179000 0.01301000
v 0.20905000 0.05181000 0.01301000
v 0.20906000 0.05181000 -0.39199000
v 0.20906000 -0.03179000 -0.39199000
v 0.20906000 -0.03179000 -0.39199000
v -0.16904000 -0.03180000 -0.39200000
v -0.16904000 -0.03180000 0.01301000
v -0.15099000 -0.03180000 0.01301000
v 0.20905000 -0.03179000 0.01301000
v -0.16904000 -0.03180000 0.01301000
v -0.16904000 -0.03180000 -0.39200000
v -0.16904000 0.05181000 -0.39200000
v -0.16904000 0.05181000 0.01301000
v -0.15479000 0.05181000 -0.37700000
v -0.15479000 -0.01470000 -0.37700000
v -0.15479000 -0.01470000 -0.00199000
v -0.15479000 0.05181000 -0.00199000
v -0.15479000 0.05181000 -0.00199000
v -0.15479000 -0.01470000 -0.00199000
v 0.19480000 -0.01470000 -0.00199000
v 0.19480000 0.05181000 -0.00199000
v 0.19480000 0.05181000 -0.00199000
v 0.19480000 -0.01470000 -0.00199000
v 0.19481000 -0.01470000 -0.37699000
v 0.19481000 0.05181000 -0.37699000
v 0.19481000 0.05181000 -0.37699000
v 0.19481000 -0.01470000 -0.37699000
v -0.15479000 -0.01470000 -0.37700000
v -0.15479000 0.05181000 -0.37700000
v -0.16904000 0.05181000 -0.39200000
v -0.15479000 0.05181000 -0.00199000
v -0.16904000 0.05181000 0.01301000
v -0.15099000 0.05181000 0.01301000
v -0.15479000 0.05181000 -0.37700000
v 0.19480000 0.05181000 -0.00199000
v 0.20906000 0.05181000 -0.39199000
v 0.20905000 0.05181000 0.01301000
v 0.19481000 0.05181000 -0.37699000
vn -0.70706260 0.00000000 0.70715090
vn -0.70706050 0.00000000 0.70715300
vn -0.70712050 0.00000000 0.70709300
vn -0.70712130 0.00000000 0.70709220
vn 0.00000000 0.00000000 -1.00000000
vn 0.00000017 0.00000000 -1.00000000
vn 0.00000015 0.00000000 -1.00000000
vn 0.00000000 0.00000000 -1.00000000
vn -1.00000000 0.00000000 0.00000000
vn -1.00000000 0.00000000 0.00000000
vn -1.00000000 0.00000000 0.00000000
vn -1.00000000 0.00000000 0.00000000
vn -0.00000019 1.00000000 0.00000000
vn -0.00000019 1.00000000 0.00000000
vn -0.00000019 1.00000000 0.00000000
vn -0.00000019 1.00000000 0.00000000
vn 1.00000000 0.00000000 0.00000000
vn 1.00000000 0.00000000 0.00000000
vn 1.00000000 0.00000000 0.00000000
vn 1.00000000 0.00000000 0.00000000
vn 0.00000019 -1.00000000 0.00000000
vn 0.00000019 -1.00000000 0.00000000
vn 0.00000019 -1.00000000 0.00000000
vn 0.00000019 -1.00000000 0.00000000
vn -0.00000052 0.00000000 1.00000000
vn -0.00000072 0.00000000 1.00000000
vn 0.00000052 0.00000000 1.00000000
vn 0.00000072 0.00000000 1.00000000
vn 0.00000034 -0.70711490 0.70709870
vn 0.00000034 -0.70711490 0.70709850
vn 0.00000000 -0.70710150 0.70711210
vn 0.00000000 -0.70710140 0.70711210
vn 0.70707330 0.00000000 0.70714020
vn 0.70707190 0.00000000 0.70714160
vn 0.70711210 0.00000000 0.70710140
vn 0.70711270 0.00000000 0.70710070
vn 0.00000000 0.70712950 0.70708400
vn 0.00000000 0.70712980 0.70708370
vn -0.00000034 0.70707990 0.70713360
vn -0.00000034 0.70707980 0.70713370
vn 0.00000000 0.00000000 -1.00000000
vn 0.00000062 0.00000000 -1.00000000
vn 0.00000053 0.00000000 -1.00000000
vn 0.00000000 0.00000000 -1.00000000
vn -0.00000022 1.00000000 0.00000000
vn -0.00000022 1.00000000 0.00000000
vn -0.00000022 1.00000000 0.00000000
vn -0.00000022 1.00000000 0.00000018
vn 1.00000000 0.00000000 0.00000026
vn 1.00000000 0.00000000 0.00000026
vn 1.00000000 0.00000000 0.00000026
vn 1.00000000 0.00000000 0.00000026
vn 0.00000020 -1.00000000 0.00000000
vn 0.00000020 -1.00000000 0.00000000
vn 0.00000019 -1.00000000 0.00000000
vn 0.00000000 -1.00000000 -0.00000125
vn 0.00000021 -1.00000000 -0.00000033
vn -1.00000000 0.00000000 -0.00000028
vn -1.00000000 0.00000000 -0.00000028
vn -1.00000000 0.00000000 -0.00000028
vn -1.00000000 0.00000000 -0.00000028
vn 1.00000000 0.00000000 0.00000000
vn 1.00000000 0.00000000 0.00000000
vn 1.00000000 0.00000000 0.00000000
vn 1.00000000 0.00000000 0.00000000
vn 0.00000000 0.00000000 -1.00000000
vn 0.00000000 0.00000000 -1.00000000
vn 0.00000000 0.00000000 -1.00000000
vn 0.00000000 0.00000000 -1.00000000
vn -1.00000000 0.00000000 -0.00000029
vn -1.00000000 0.00000000 -0.00000029
vn -1.00000000 0.00000000 -0.00000029
vn -1.00000000 0.00000000 -0.00000029
vn 0.00000000 0.00000000 1.00000000
vn 0.00000000 0.00000000 1.00000000
vn 0.00000000 0.00000000 1.00000000
vn 0.00000000 0.00000000 1.00000000
vn -0.00000011 1.00000000 0.00000000
vn 0.00000000 1.00000000 0.00000000
vn 0.00000000 1.00000000 0.00000000
vn 0.00000000 1.00000000 0.00000000
vn -0.00000010 1.00000000 0.00000000
vn -0.00000022 1.00000000 -0.00000058
vn -0.00000011 1.00000000 0.00000149
vn -0.00000011 1.00000000 0.00000468
vn -0.00000010 1.00000000 0.00000151
vt 0.59870660 0.68810130
vt 0.60074310 0.69013790
vt 0.68831520 0.69013790
vt 0.69035170 0.68810130
vt 0.05857289 0.17179750
vt 0.45857300 0.17179750
vt 0.45857300 0.08179747
vt 0.05857289 0.08179760
vt 0.69035170 0.68810130
vt 0.69035170 0.66773570
vt 0.59870660 0.66773570
vt 0.59870660 0.68810130
vt 0.05485913 0.26415250
vt 0.05485913 0.28452380
vt 0.46228640 0.28452390
vt 0.46228640 0.26415250
vt 0.59870640 0.60792930
vt 0.59870640 0.62829490
vt 0.69035170 0.62829490
vt 0.69035170 0.60792930
vt 0.46228700 0.34432970
vt 0.46228700 0.32395830
vt 0.05485862 0.32395830
vt 0.05485862 0.34432970
vt 0.06555299 0.43368690
vt 0.06555296 0.51968680
vt 0.46155310 0.51968690
vt 0.46155310 0.43368700
vt 0.05485862 0.34432970
vt 0.05689573 0.34636690
vt 0.46024980 0.34636690
vt 0.46228700 0.34432970
vt 0.69035170 0.60792930
vt 0.68831510 0.60589270
vt 0.60074300 0.60589270
vt 0.59870640 0.60792930
vt 0.46228640 0.26415250
vt 0.46024930 0.26211540
vt 0.05689630 0.26211540
vt 0.05485913 0.26415250
vt 0.89116880 0.86996590
vt 0.89116880 0.49186590
vt 0.80756880 0.49186590
vt 0.80756880 0.86996590
vt 0.42229020 0.49165450
vt 0.42229020 0.86665460
vt 0.77189030 0.86665440
vt 0.77189030 0.49165450
vt 0.90870680 0.89870050
vt 0.99230680 0.89870050
vt 0.99230680 0.49370010
vt 0.90870680 0.49370010
vt 0.40587760 0.02946910
vt 0.02777754 0.02946886
vt 0.02777745 0.43446910
vt 0.04582745 0.43446910
vt 0.40587750 0.43446910
vt 0.44445360 0.02946897
vt 0.44445360 0.43446900
vt 0.52805360 0.43446900
vt 0.52805360 0.02946897
vt 0.38777790 0.49165480
vt 0.32127780 0.49165480
vt 0.32127780 0.86665440
vt 0.38777790 0.86665440
vt 0.07616067 0.83952220
vt 0.14266080 0.83952220
vt 0.14266070 0.48992220
vt 0.07616061 0.48992220
vt 0.30607210 0.49165460
vt 0.23957200 0.49165460
vt 0.23957200 0.86665430
vt 0.30607210 0.86665430
vt 0.22436650 0.48992230
vt 0.15786640 0.48992230
vt 0.15786640 0.83952240
vt 0.22436640 0.83952240
vt 0.56588330 0.43446920
vt 0.58013310 0.04446883
vt 0.56588320 0.02946882
vt 0.58393320 0.02946882
vt 0.58013310 0.41946910
vt 0.92973330 0.04446883
vt 0.94398340 0.43446890
vt 0.94398330 0.02946882
vt 0.92973340 0.41946890
f 3/3/3 2/2/2 1/1/1
f 4/4/4 3/3/3 1/1/1
f 7/7/7 6/6/6 5/5/5
f 8/8/8 7/7/7 5/5/5
f 11/11/11 10/10/10 9/9/9
f 12/12/12 11/11/11 9/9/9
f 15/15/15 14/14/14 13/13/13
f 16/16/16 15/15/15 13/13/13
f 19/19/19 18/18/18 17/17/17
f 20/20/20 19/19/19 17/17/17
f 23/23/23 22/22/22 21/21/21
f 24/24/24 23/23/23 21/21/21
f 27/27/27 26/26/26 25/25/25
f 28/28/28 27/27/27 25/25/25
f 31/31/31 30/30/30 29/29/29
f 32/32/32 31/31/31 29/29/29
f 35/35/35 34/34/34 33/33/33
f 36/36/36 35/35/35 33/33/33
f 39/39/39 38/38/38 37/37/37
f 40/40/40 39/39/39 37/37/37
f 43/43/43 42/42/42 41/41/41
f 44/44/44 43/43/43 41/41/41
f 47/47/47 46/46/46 45/45/45
f 45/45/45 48/48/48 47/47/47
f 51/51/51 50/50/50 49/49/49
f 52/52/52 51/51/51 49/49/49
f 55/55/55 54/54/54 53/53/53
f 53/53/53 56/56/56 55/55/55
f 53/53/53 57/57/57 56/56/56
f 60/60/60 59/59/59 58/58/58
f 61/61/61 60/60/60 58/58/58
f 64/64/64 63/63/63 62/62/62
f 65/65/65 64/64/64 62/62/62
f 68/68/68 67/67/67 66/66/66
f 69/69/69 68/68/68 66/66/66
f 72/72/72 71/71/71 70/70/70
f 73/73/73 72/72/72 70/70/70
f 76/76/76 75/75/75 74/74/74
f 77/77/77 76/76/76 74/74/74
f 80/80/80 79/79/79 78/78/78
f 81/81/81 79/79/79 80/80/80
f 79/79/79 82/82/82 78/78/78
f 83/83/83 79/79/79 81/81/81
f 78/78/78 82/82/82 84/84/84
f 85/85/85 83/83/83 81/81/81
f 82/82/82 86/86/86 84/84/84
f 86/86/86 83/83/83 85/85/85
f 84/84/84 86/86/86 85/85/85

