# Blender 3.6.0
# www.blender.org
o StandardKnob1(2)_9b9d9112_StandardKnob1_(2)_9b9d9112
v -2.438840 0.892560 0.788410
v -2.443560 0.889500 0.796350
v -2.439360 0.893370 0.795950
v -2.453890 0.888210 0.788410
v -2.457830 0.893370 0.795950
v -2.453630 0.889500 0.796350
v -2.448600 0.888210 0.796750
v -2.453630 0.889500 0.796350
v -2.453380 0.893370 0.802970
v -2.448600 0.892560 0.803800
v -2.436860 0.899860 0.796350
v -2.439360 0.893370 0.795950
v -2.440690 0.895420 0.800880
v -2.439360 0.900260 0.802970
v -2.440690 0.895420 0.800880
v -2.443810 0.893370 0.802970
v -2.443560 0.899860 0.806920
v -2.457830 0.915060 0.802970
v -2.461160 0.907660 0.796750
v -2.460330 0.915460 0.796350
v -2.453630 0.899860 0.769890
v -2.453380 0.893370 0.773840
v -2.448600 0.892560 0.773010
v -2.448600 0.899470 0.768590
v -2.443560 0.915460 0.769890
v -2.443300 0.907660 0.768590
v -2.438840 0.907660 0.773010
v -2.439360 0.915060 0.773840
v -2.439360 0.900260 0.773840
v -2.443560 0.899860 0.769890
v -2.440690 0.895420 0.775930
v -2.443810 0.893370 0.773840
v -2.448600 0.899470 0.768590
v -2.448600 0.892560 0.773010
v -2.443810 0.893370 0.773840
v -2.443560 0.899860 0.769890
v -2.453380 0.921950 0.802970
v -2.453630 0.915460 0.806920
v -2.457830 0.915060 0.802970
v -2.456500 0.919900 0.800880
v -2.457830 0.921950 0.795950
v -2.460330 0.915460 0.796350
v -2.461160 0.915850 0.788410
v -2.458350 0.922760 0.788410
v -2.448600 0.927100 0.796750
v -2.448600 0.922760 0.803800
v -2.453380 0.921950 0.802970
v -2.453630 0.925820 0.796350
v -2.340840 0.892570 0.788410
v -2.345560 0.889510 0.796350
v -2.341360 0.893380 0.795950
v -2.355890 0.888220 0.788410
v -2.359830 0.893380 0.795950
v -2.355630 0.889510 0.796350
v -2.350600 0.888220 0.796750
v -2.355630 0.889510 0.796350
v -2.355380 0.893380 0.802970
v -2.350600 0.892570 0.803800
v -2.338860 0.899870 0.796350
v -2.341360 0.893380 0.795950
v -2.342690 0.895430 0.800880
v -2.341360 0.900260 0.802970
v -2.342690 0.895430 0.800880
v -2.345810 0.893380 0.802970
v -2.345560 0.899870 0.806920
v -2.359830 0.915070 0.802970
v -2.363160 0.907670 0.796750
v -2.362330 0.915470 0.796350
v -2.355630 0.899870 0.769890
v -2.355380 0.893380 0.773840
v -2.350600 0.892570 0.773010
v -2.350600 0.899480 0.768590
v -2.345560 0.915470 0.769890
v -2.345300 0.907670 0.768590
v -2.340840 0.907670 0.773010
v -2.341360 0.915070 0.773840
v -2.341360 0.900260 0.773840
v -2.345560 0.899870 0.769890
v -2.342690 0.895430 0.775930
v -2.345810 0.893380 0.773840
v -2.350600 0.899480 0.768590
v -2.350600 0.892570 0.773010
v -2.345810 0.893380 0.773840
v -2.345560 0.899870 0.769890
v -2.355380 0.921960 0.802970
v -2.355630 0.915470 0.806920
v -2.359830 0.915070 0.802970
v -2.358500 0.919910 0.800880
v -2.359830 0.921960 0.795950
v -2.362330 0.915470 0.796350
v -2.363160 0.915860 0.788410
v -2.360350 0.922770 0.788410
v -2.350600 0.927110 0.796750
v -2.350600 0.922770 0.803800
v -2.355380 0.921960 0.802970
v -2.355630 0.925830 0.796350
v -2.359000 0.902920 0.799750
v -2.359000 0.907710 0.800710
v -2.359000 0.912490 0.799750
v -2.359000 0.898870 0.797040
v -2.359000 0.916540 0.797040
v -2.359000 0.896160 0.792990
v -2.359000 0.919250 0.792990
v -2.359000 0.895210 0.788210
v -2.359000 0.920210 0.788210
v -2.359000 0.896160 0.783420
v -2.359000 0.919250 0.783420
v -2.359000 0.898870 0.779370
v -2.359000 0.916540 0.779370
v -2.359000 0.902920 0.776660
v -2.359000 0.912490 0.776660
v -2.359000 0.907710 0.775710
v -2.442000 0.907710 0.775710
v -2.442000 0.902920 0.776660
v -2.359000 0.902920 0.776660
v -2.359000 0.907710 0.775710
v -2.442000 0.902920 0.776660
v -2.442000 0.898870 0.779370
v -2.359000 0.898870 0.779370
v -2.359000 0.902920 0.776660
v -2.442000 0.898870 0.779370
v -2.442000 0.896160 0.783420
v -2.359000 0.896160 0.783420
v -2.359000 0.898870 0.779370
v -2.442000 0.896160 0.783420
v -2.442000 0.895210 0.788210
v -2.359000 0.895210 0.788210
v -2.359000 0.896160 0.783420
v -2.442000 0.895210 0.788210
v -2.442000 0.896160 0.792990
v -2.359000 0.896160 0.792990
v -2.359000 0.895210 0.788210
v -2.442000 0.896160 0.792990
v -2.442000 0.898870 0.797040
v -2.359000 0.898870 0.797040
v -2.359000 0.896160 0.792990
v -2.442000 0.898870 0.797040
v -2.442000 0.902920 0.799750
v -2.359000 0.902920 0.799750
v -2.359000 0.898870 0.797040
v -2.442000 0.902920 0.799750
v -2.442000 0.907710 0.800710
v -2.359000 0.907710 0.800710
v -2.359000 0.902920 0.799750
v -2.442000 0.907710 0.800710
v -2.442000 0.912490 0.799750
v -2.359000 0.912490 0.799750
v -2.359000 0.907710 0.800710
v -2.442000 0.912490 0.799750
v -2.442000 0.916540 0.797040
v -2.359000 0.916540 0.797040
v -2.359000 0.912490 0.799750
v -2.442000 0.916540 0.797040
v -2.442000 0.919250 0.792990
v -2.359000 0.919250 0.792990
v -2.359000 0.916540 0.797040
v -2.442000 0.919250 0.792990
v -2.442000 0.920210 0.788210
v -2.359000 0.920210 0.788210
v -2.359000 0.919250 0.792990
v -2.442000 0.920210 0.788210
v -2.442000 0.919250 0.783420
v -2.359000 0.919250 0.783420
v -2.359000 0.920210 0.788210
v -2.442000 0.919250 0.783420
v -2.442000 0.916540 0.779370
v -2.359000 0.916540 0.779370
v -2.359000 0.919250 0.783420
v -2.442000 0.916540 0.779370
v -2.442000 0.912490 0.776660
v -2.359000 0.912490 0.776660
v -2.359000 0.916540 0.779370
v -2.442000 0.912490 0.776660
v -2.442000 0.907710 0.775710
v -2.359000 0.907710 0.775710
v -2.359000 0.912490 0.776660
v -2.442000 0.912490 0.799750
v -2.442000 0.907710 0.800710
v -2.442000 0.902920 0.799750
v -2.442000 0.916540 0.797040
v -2.442000 0.898870 0.797040
v -2.442000 0.919250 0.792990
v -2.442000 0.896160 0.792990
v -2.442000 0.920210 0.788210
v -2.442000 0.895210 0.788210
v -2.442000 0.919250 0.783420
v -2.442000 0.896160 0.783420
v -2.442000 0.916540 0.779370
v -2.442000 0.898870 0.779370
v -2.442000 0.912490 0.776660
v -2.442000 0.902920 0.776660
v -2.442000 0.907710 0.775710
v -2.373990 0.811040 0.810470
v -2.373990 0.812540 0.811970
v -2.373990 0.963960 0.811970
v -2.373990 0.965470 0.810470
v -2.373990 0.811040 0.765550
v -2.373990 0.965470 0.765550
v -2.373990 0.812540 0.764040
v -2.373990 0.963960 0.764040
v -2.424590 0.806000 0.760510
v -2.424590 0.806000 0.815510
v -2.375800 0.806000 0.815510
v -2.375800 0.806000 0.760510
v -2.424590 0.807510 0.817010
v -2.424590 0.969010 0.817010
v -2.375800 0.969010 0.817010
v -2.375800 0.807510 0.817010
v -2.424590 0.970500 0.815510
v -2.424590 0.970500 0.760510
v -2.375800 0.970500 0.760510
v -2.375800 0.970500 0.815510
v -2.424590 0.969010 0.759010
v -2.424590 0.807510 0.759010
v -2.375800 0.807510 0.759010
v -2.375800 0.969010 0.759010
v -2.426400 0.965470 0.810470
v -2.426400 0.963960 0.811970
v -2.426400 0.812540 0.811970
v -2.426400 0.811040 0.810470
v -2.426400 0.965470 0.765550
v -2.426400 0.811040 0.765550
v -2.426400 0.963960 0.764040
v -2.426400 0.812540 0.764040
v -2.440690 0.895420 0.775930
v -2.443810 0.893370 0.773840
v -2.443560 0.889500 0.780460
v -2.439360 0.893370 0.780860
v -2.439360 0.893370 0.780860
v -2.443560 0.889500 0.780460
v -2.443300 0.888210 0.788410
v -2.443560 0.889500 0.780460
v -2.448600 0.888210 0.780060
v -2.448600 0.886680 0.788410
v -2.443300 0.888210 0.788410
v -2.443810 0.893370 0.773840
v -2.448600 0.892560 0.773010
v -2.448600 0.888210 0.780060
v -2.443560 0.889500 0.780460
v -2.439360 0.893370 0.795950
v -2.443560 0.889500 0.796350
v -2.443810 0.893370 0.802970
v -2.440690 0.895420 0.800880
v -2.443560 0.889500 0.796350
v -2.448600 0.888210 0.796750
v -2.448600 0.892560 0.803800
v -2.443810 0.893370 0.802970
v -2.443300 0.888210 0.788410
v -2.448600 0.886680 0.788410
v -2.448600 0.888210 0.796750
v -2.443560 0.889500 0.796350
v -2.448600 0.892560 0.773010
v -2.453380 0.893370 0.773840
v -2.453630 0.889500 0.780460
v -2.448600 0.888210 0.780060
v -2.448600 0.888210 0.780060
v -2.453630 0.889500 0.780460
v -2.453890 0.888210 0.788410
v -2.448600 0.886680 0.788410
v -2.453380 0.893370 0.773840
v -2.456500 0.895420 0.775930
v -2.457830 0.893370 0.780860
v -2.453630 0.889500 0.780460
v -2.458350 0.892560 0.788410
v -2.456500 0.895420 0.800880
v -2.453380 0.893370 0.802970
v -2.448600 0.886680 0.788410
v -2.453890 0.888210 0.788410
v -2.453630 0.889500 0.796350
v -2.448600 0.888210 0.796750
v -2.439360 0.900260 0.773840
v -2.440690 0.895420 0.775930
v -2.439360 0.893370 0.780860
v -2.436860 0.899860 0.780460
v -2.438840 0.907660 0.773010
v -2.436030 0.907660 0.780060
v -2.439360 0.915060 0.773840
v -2.436860 0.915460 0.780460
v -2.436030 0.907660 0.780060
v -2.436860 0.899860 0.780460
v -2.436030 0.899470 0.788410
v -2.435040 0.907660 0.788410
v -2.436860 0.899860 0.780460
v -2.439360 0.893370 0.780860
v -2.438840 0.892560 0.788410
v -2.436030 0.899470 0.788410
v -2.435040 0.907660 0.788410
v -2.436030 0.899470 0.788410
v -2.436860 0.899860 0.796350
v -2.436030 0.907660 0.796750
v -2.439360 0.900260 0.802970
v -2.436030 0.907660 0.796750
v -2.438840 0.907660 0.803800
v -2.436860 0.915460 0.796350
v -2.439360 0.915060 0.802970
v -2.436030 0.899470 0.788410
v -2.438840 0.892560 0.788410
v -2.439360 0.893370 0.795950
v -2.436860 0.899860 0.796350
v -2.438840 0.907660 0.803800
v -2.439360 0.900260 0.802970
v -2.443560 0.899860 0.806920
v -2.443300 0.907660 0.808220
v -2.439360 0.915060 0.802970
v -2.443560 0.915460 0.806920
v -2.443300 0.907660 0.808220
v -2.443560 0.899860 0.806920
v -2.448600 0.899470 0.808220
v -2.448600 0.907660 0.809780
v -2.443560 0.899860 0.806920
v -2.443810 0.893370 0.802970
v -2.448600 0.892560 0.803800
v -2.448600 0.899470 0.808220
v -2.448600 0.907660 0.809780
v -2.448600 0.899470 0.808220
v -2.453630 0.899860 0.806920
v -2.453890 0.907660 0.808220
v -2.453630 0.899860 0.806920
v -2.453380 0.893370 0.802970
v -2.456500 0.895420 0.800880
v -2.457830 0.900260 0.802970
v -2.453890 0.907660 0.808220
v -2.458350 0.907660 0.803800
v -2.453630 0.915460 0.806920
v -2.457830 0.915060 0.802970
v -2.448600 0.899470 0.808220
v -2.448600 0.892560 0.803800
v -2.453380 0.893370 0.802970
v -2.453630 0.899860 0.806920
v -2.457830 0.900260 0.802970
v -2.456500 0.895420 0.800880
v -2.457830 0.893370 0.795950
v -2.460330 0.899860 0.796350
v -2.458350 0.907660 0.803800
v -2.461160 0.907660 0.796750
v -2.460330 0.899860 0.796350
v -2.461160 0.899470 0.788410
v -2.462150 0.907660 0.788410
v -2.460330 0.899860 0.796350
v -2.457830 0.893370 0.795950
v -2.458350 0.892560 0.788410
v -2.461160 0.899470 0.788410
v -2.462150 0.907660 0.788410
v -2.461160 0.899470 0.788410
v -2.460330 0.899860 0.780460
v -2.461160 0.907660 0.780060
v -2.460330 0.899860 0.780460
v -2.457830 0.893370 0.780860
v -2.456500 0.895420 0.775930
v -2.457830 0.900260 0.773840
v -2.461160 0.907660 0.780060
v -2.458350 0.907660 0.773010
v -2.460330 0.915460 0.780460
v -2.457830 0.915060 0.773840
v -2.461160 0.899470 0.788410
v -2.458350 0.892560 0.788410
v -2.457830 0.893370 0.780860
v -2.460330 0.899860 0.780460
v -2.458350 0.907660 0.773010
v -2.457830 0.900260 0.773840
v -2.453630 0.899860 0.769890
v -2.453890 0.907660 0.768590
v -2.457830 0.915060 0.773840
v -2.453630 0.915460 0.769890
v -2.453890 0.907660 0.768590
v -2.453630 0.899860 0.769890
v -2.448600 0.899470 0.768590
v -2.448600 0.907660 0.767030
v -2.457830 0.900260 0.773840
v -2.456500 0.895420 0.775930
v -2.453380 0.893370 0.773840
v -2.453630 0.899860 0.769890
v -2.448600 0.907660 0.767030
v -2.448600 0.899470 0.768590
v -2.443560 0.899860 0.769890
v -2.443300 0.907660 0.768590
v -2.440690 0.919900 0.775930
v -2.439360 0.915060 0.773840
v -2.436860 0.915460 0.780460
v -2.439360 0.921950 0.780860
v -2.439360 0.921950 0.780860
v -2.436860 0.915460 0.780460
v -2.436030 0.915850 0.788410
v -2.438840 0.922760 0.788410
v -2.436860 0.915460 0.780460
v -2.436030 0.907660 0.780060
v -2.435040 0.907660 0.788410
v -2.436030 0.915850 0.788410
v -2.438840 0.922760 0.788410
v -2.436030 0.915850 0.788410
v -2.436860 0.915460 0.796350
v -2.439360 0.921950 0.795950
v -2.439360 0.921950 0.795950
v -2.436860 0.915460 0.796350
v -2.439360 0.915060 0.802970
v -2.440690 0.919900 0.800880
v -2.436030 0.915850 0.788410
v -2.435040 0.907660 0.788410
v -2.436030 0.907660 0.796750
v -2.436860 0.915460 0.796350
v -2.440690 0.919900 0.800880
v -2.439360 0.915060 0.802970
v -2.443560 0.915460 0.806920
v -2.443810 0.921950 0.802970
v -2.443810 0.921950 0.802970
v -2.443560 0.915460 0.806920
v -2.448600 0.915850 0.808220
v -2.448600 0.922760 0.803800
v -2.443560 0.915460 0.806920
v -2.443300 0.907660 0.808220
v -2.448600 0.907660 0.809780
v -2.448600 0.915850 0.808220
v -2.448600 0.922760 0.803800
v -2.448600 0.915850 0.808220
v -2.453630 0.915460 0.806920
v -2.453380 0.921950 0.802970
v -2.448600 0.915850 0.808220
v -2.448600 0.907660 0.809780
v -2.453890 0.907660 0.808220
v -2.453630 0.915460 0.806920
v -2.456500 0.919900 0.800880
v -2.457830 0.915060 0.802970
v -2.460330 0.915460 0.796350
v -2.457830 0.921950 0.795950
v -2.460330 0.915460 0.796350
v -2.461160 0.907660 0.796750
v -2.462150 0.907660 0.788410
v -2.461160 0.915850 0.788410
v -2.458350 0.922760 0.788410
v -2.461160 0.915850 0.788410
v -2.460330 0.915460 0.780460
v -2.457830 0.921950 0.780860
v -2.457830 0.921950 0.780860
v -2.460330 0.915460 0.780460
v -2.457830 0.915060 0.773840
v -2.456500 0.919900 0.775930
v -2.461160 0.915850 0.788410
v -2.462150 0.907660 0.788410
v -2.461160 0.907660 0.780060
v -2.460330 0.915460 0.780460
v -2.456500 0.919900 0.775930
v -2.457830 0.915060 0.773840
v -2.453630 0.915460 0.769890
v -2.453380 0.921950 0.773840
v -2.453380 0.921950 0.773840
v -2.453630 0.915460 0.769890
v -2.448600 0.915850 0.768590
v -2.448600 0.922760 0.773010
v -2.453630 0.915460 0.769890
v -2.453890 0.907660 0.768590
v -2.448600 0.907660 0.767030
v -2.448600 0.915850 0.768590
v -2.448600 0.922760 0.773010
v -2.448600 0.915850 0.768590
v -2.443560 0.915460 0.769890
v -2.443810 0.921950 0.773840
v -2.443810 0.921950 0.773840
v -2.443560 0.915460 0.769890
v -2.439360 0.915060 0.773840
v -2.440690 0.919900 0.775930
v -2.448600 0.915850 0.768590
v -2.448600 0.907660 0.767030
v -2.443300 0.907660 0.768590
v -2.443560 0.915460 0.769890
v -2.440690 0.919900 0.775930
v -2.439360 0.921950 0.780860
v -2.443560 0.925820 0.780460
v -2.443810 0.921950 0.773840
v -2.443810 0.921950 0.773840
v -2.443560 0.925820 0.780460
v -2.448600 0.927100 0.780060
v -2.448600 0.922760 0.773010
v -2.443560 0.925820 0.780460
v -2.443300 0.927100 0.788410
v -2.448600 0.928630 0.788410
v -2.448600 0.927100 0.780060
v -2.439360 0.921950 0.780860
v -2.443300 0.927100 0.788410
v -2.443560 0.925820 0.780460
v -2.438840 0.922760 0.788410
v -2.443560 0.925820 0.796350
v -2.439360 0.921950 0.795950
v -2.443300 0.927100 0.788410
v -2.443560 0.925820 0.796350
v -2.448600 0.927100 0.796750
v -2.448600 0.928630 0.788410
v -2.443560 0.925820 0.796350
v -2.443810 0.921950 0.802970
v -2.448600 0.922760 0.803800
v -2.448600 0.927100 0.796750
v -2.439360 0.921950 0.795950
v -2.440690 0.919900 0.800880
v -2.443810 0.921950 0.802970
v -2.443560 0.925820 0.796350
v -2.448600 0.922760 0.773010
v -2.448600 0.927100 0.780060
v -2.453630 0.925820 0.780460
v -2.453380 0.921950 0.773840
v -2.453380 0.921950 0.773840
v -2.457830 0.921950 0.780860
v -2.456500 0.919900 0.775930
v -2.453630 0.925820 0.780460
v -2.458350 0.922760 0.788410
v -2.453890 0.927100 0.788410
v -2.457830 0.921950 0.795950
v -2.453630 0.925820 0.796350
v -2.456500 0.919900 0.800880
v -2.453380 0.921950 0.802970
v -2.448600 0.927100 0.780060
v -2.448600 0.928630 0.788410
v -2.453890 0.927100 0.788410
v -2.453630 0.925820 0.780460
v -2.448600 0.928630 0.788410
v -2.448600 0.927100 0.796750
v -2.453630 0.925820 0.796350
v -2.453890 0.927100 0.788410
v -2.342690 0.895430 0.775930
v -2.345810 0.893380 0.773840
v -2.345560 0.889510 0.780460
v -2.341360 0.893380 0.780860
v -2.341360 0.893380 0.780860
v -2.345560 0.889510 0.780460
v -2.345300 0.888220 0.788410
v -2.345560 0.889510 0.780460
v -2.350600 0.888220 0.780060
v -2.350600 0.886690 0.788410
v -2.345300 0.888220 0.788410
v -2.345810 0.893380 0.773840
v -2.350600 0.892570 0.773010
v -2.350600 0.888220 0.780060
v -2.345560 0.889510 0.780460
v -2.341360 0.893380 0.795950
v -2.345560 0.889510 0.796350
v -2.345810 0.893380 0.802970
v -2.342690 0.895430 0.800880
v -2.345560 0.889510 0.796350
v -2.350600 0.888220 0.796750
v -2.350600 0.892570 0.803800
v -2.345810 0.893380 0.802970
v -2.345300 0.888220 0.788410
v -2.350600 0.886690 0.788410
v -2.350600 0.888220 0.796750
v -2.345560 0.889510 0.796350
v -2.350600 0.892570 0.773010
v -2.355380 0.893380 0.773840
v -2.355630 0.889510 0.780460
v -2.350600 0.888220 0.780060
v -2.350600 0.888220 0.780060
v -2.355630 0.889510 0.780460
v -2.355890 0.888220 0.788410
v -2.350600 0.886690 0.788410
v -2.355380 0.893380 0.773840
v -2.358500 0.895430 0.775930
v -2.359830 0.893380 0.780860
v -2.355630 0.889510 0.780460
v -2.360350 0.892570 0.788410
v -2.358500 0.895430 0.800880
v -2.355380 0.893380 0.802970
v -2.350600 0.886690 0.788410
v -2.355890 0.888220 0.788410
v -2.355630 0.889510 0.796350
v -2.350600 0.888220 0.796750
v -2.341360 0.900260 0.773840
v -2.342690 0.895430 0.775930
v -2.341360 0.893380 0.780860
v -2.338860 0.899870 0.780460
v -2.340840 0.907670 0.773010
v -2.338030 0.907670 0.780060
v -2.341360 0.915070 0.773840
v -2.338860 0.915470 0.780460
v -2.338030 0.907670 0.780060
v -2.338860 0.899870 0.780460
v -2.338030 0.899480 0.788410
v -2.337040 0.907670 0.788410
v -2.338860 0.899870 0.780460
v -2.341360 0.893380 0.780860
v -2.340840 0.892570 0.788410
v -2.338030 0.899480 0.788410
v -2.337040 0.907670 0.788410
v -2.338030 0.899480 0.788410
v -2.338860 0.899870 0.796350
v -2.338030 0.907670 0.796750
v -2.341360 0.900260 0.802970
v -2.338030 0.907670 0.796750
v -2.340840 0.907670 0.803800
v -2.338860 0.915470 0.796350
v -2.341360 0.915070 0.802970
v -2.338030 0.899480 0.788410
v -2.340840 0.892570 0.788410
v -2.341360 0.893380 0.795950
v -2.338860 0.899870 0.796350
v -2.340840 0.907670 0.803800
v -2.341360 0.900260 0.802970
v -2.345560 0.899870 0.806920
v -2.345300 0.907670 0.808220
v -2.341360 0.915070 0.802970
v -2.345560 0.915470 0.806920
v -2.345300 0.907670 0.808220
v -2.345560 0.899870 0.806920
v -2.350600 0.899480 0.808220
v -2.350600 0.907670 0.809780
v -2.345560 0.899870 0.806920
v -2.345810 0.893380 0.802970
v -2.350600 0.892570 0.803800
v -2.350600 0.899480 0.808220
v -2.350600 0.907670 0.809780
v -2.350600 0.899480 0.808220
v -2.355630 0.899870 0.806920
v -2.355890 0.907670 0.808220
v -2.355630 0.899870 0.806920
v -2.355380 0.893380 0.802970
v -2.358500 0.895430 0.800880
v -2.359830 0.900260 0.802970
v -2.355890 0.907670 0.808220
v -2.360350 0.907670 0.803800
v -2.355630 0.915470 0.806920
v -2.359830 0.915070 0.802970
v -2.350600 0.899480 0.808220
v -2.350600 0.892570 0.803800
v -2.355380 0.893380 0.802970
v -2.355630 0.899870 0.806920
v -2.359830 0.900260 0.802970
v -2.358500 0.895430 0.800880
v -2.359830 0.893380 0.795950
v -2.362330 0.899870 0.796350
v -2.360350 0.907670 0.803800
v -2.363160 0.907670 0.796750
v -2.362330 0.899870 0.796350
v -2.363160 0.899480 0.788410
v -2.364150 0.907670 0.788410
v -2.362330 0.899870 0.796350
v -2.359830 0.893380 0.795950
v -2.360350 0.892570 0.788410
v -2.363160 0.899480 0.788410
v -2.364150 0.907670 0.788410
v -2.363160 0.899480 0.788410
v -2.362330 0.899870 0.780460
v -2.363160 0.907670 0.780060
v -2.362330 0.899870 0.780460
v -2.359830 0.893380 0.780860
v -2.358500 0.895430 0.775930
v -2.359830 0.900260 0.773840
v -2.363160 0.907670 0.780060
v -2.360350 0.907670 0.773010
v -2.362330 0.915470 0.780460
v -2.359830 0.915070 0.773840
v -2.363160 0.899480 0.788410
v -2.360350 0.892570 0.788410
v -2.359830 0.893380 0.780860
v -2.362330 0.899870 0.780460
v -2.360350 0.907670 0.773010
v -2.359830 0.900260 0.773840
v -2.355630 0.899870 0.769890
v -2.355890 0.907670 0.768590
v -2.359830 0.915070 0.773840
v -2.355630 0.915470 0.769890
v -2.355890 0.907670 0.768590
v -2.355630 0.899870 0.769890
v -2.350600 0.899480 0.768590
v -2.350600 0.907670 0.767030
v -2.359830 0.900260 0.773840
v -2.358500 0.895430 0.775930
v -2.355380 0.893380 0.773840
v -2.355630 0.899870 0.769890
v -2.350600 0.907670 0.767030
v -2.350600 0.899480 0.768590
v -2.345560 0.899870 0.769890
v -2.345300 0.907670 0.768590
v -2.342690 0.919910 0.775930
v -2.341360 0.915070 0.773840
v -2.338860 0.915470 0.780460
v -2.341360 0.921960 0.780860
v -2.341360 0.921960 0.780860
v -2.338860 0.915470 0.780460
v -2.338030 0.915860 0.788410
v -2.340840 0.922770 0.788410
v -2.338860 0.915470 0.780460
v -2.338030 0.907670 0.780060
v -2.337040 0.907670 0.788410
v -2.338030 0.915860 0.788410
v -2.340840 0.922770 0.788410
v -2.338030 0.915860 0.788410
v -2.338860 0.915470 0.796350
v -2.341360 0.921960 0.795950
v -2.341360 0.921960 0.795950
v -2.338860 0.915470 0.796350
v -2.341360 0.915070 0.802970
v -2.342690 0.919910 0.800880
v -2.338030 0.915860 0.788410
v -2.337040 0.907670 0.788410
v -2.338030 0.907670 0.796750
v -2.338860 0.915470 0.796350
v -2.342690 0.919910 0.800880
v -2.341360 0.915070 0.802970
v -2.345560 0.915470 0.806920
v -2.345810 0.921960 0.802970
v -2.345810 0.921960 0.802970
v -2.345560 0.915470 0.806920
v -2.350600 0.915860 0.808220
v -2.350600 0.922770 0.803800
v -2.345560 0.915470 0.806920
v -2.345300 0.907670 0.808220
v -2.350600 0.907670 0.809780
v -2.350600 0.915860 0.808220
v -2.350600 0.922770 0.803800
v -2.350600 0.915860 0.808220
v -2.355630 0.915470 0.806920
v -2.355380 0.921960 0.802970
v -2.350600 0.915860 0.808220
v -2.350600 0.907670 0.809780
v -2.355890 0.907670 0.808220
v -2.355630 0.915470 0.806920
v -2.358500 0.919910 0.800880
v -2.359830 0.915070 0.802970
v -2.362330 0.915470 0.796350
v -2.359830 0.921960 0.795950
v -2.362330 0.915470 0.796350
v -2.363160 0.907670 0.796750
v -2.364150 0.907670 0.788410
v -2.363160 0.915860 0.788410
v -2.360350 0.922770 0.788410
v -2.363160 0.915860 0.788410
v -2.362330 0.915470 0.780460
v -2.359830 0.921960 0.780860
v -2.359830 0.921960 0.780860
v -2.362330 0.915470 0.780460
v -2.359830 0.915070 0.773840
v -2.358500 0.919910 0.775930
v -2.363160 0.915860 0.788410
v -2.364150 0.907670 0.788410
v -2.363160 0.907670 0.780060
v -2.362330 0.915470 0.780460
v -2.358500 0.919910 0.775930
v -2.359830 0.915070 0.773840
v -2.355630 0.915470 0.769890
v -2.355380 0.921960 0.773840
v -2.355380 0.921960 0.773840
v -2.355630 0.915470 0.769890
v -2.350600 0.915860 0.768590
v -2.350600 0.922770 0.773010
v -2.355630 0.915470 0.769890
v -2.355890 0.907670 0.768590
v -2.350600 0.907670 0.767030
v -2.350600 0.915860 0.768590
v -2.350600 0.922770 0.773010
v -2.350600 0.915860 0.768590
v -2.345560 0.915470 0.769890
v -2.345810 0.921960 0.773840
v -2.345810 0.921960 0.773840
v -2.345560 0.915470 0.769890
v -2.341360 0.915070 0.773840
v -2.342690 0.919910 0.775930
v -2.350600 0.915860 0.768590
v -2.350600 0.907670 0.767030
v -2.345300 0.907670 0.768590
v -2.345560 0.915470 0.769890
v -2.342690 0.919910 0.775930
v -2.341360 0.921960 0.780860
v -2.345560 0.925830 0.780460
v -2.345810 0.921960 0.773840
v -2.345810 0.921960 0.773840
v -2.345560 0.925830 0.780460
v -2.350600 0.927110 0.780060
v -2.350600 0.922770 0.773010
v -2.345560 0.925830 0.780460
v -2.345300 0.927110 0.788410
v -2.350600 0.928640 0.788410
v -2.350600 0.927110 0.780060
v -2.341360 0.921960 0.780860
v -2.345300 0.927110 0.788410
v -2.345560 0.925830 0.780460
v -2.340840 0.922770 0.788410
v -2.345560 0.925830 0.796350
v -2.341360 0.921960 0.795950
v -2.345300 0.927110 0.788410
v -2.345560 0.925830 0.796350
v -2.350600 0.927110 0.796750
v -2.350600 0.928640 0.788410
v -2.345560 0.925830 0.796350
v -2.345810 0.921960 0.802970
v -2.350600 0.922770 0.803800
v -2.350600 0.927110 0.796750
v -2.341360 0.921960 0.795950
v -2.342690 0.919910 0.800880
v -2.345810 0.921960 0.802970
v -2.345560 0.925830 0.796350
v -2.350600 0.922770 0.773010
v -2.350600 0.927110 0.780060
v -2.355630 0.925830 0.780460
v -2.355380 0.921960 0.773840
v -2.355380 0.921960 0.773840
v -2.359830 0.921960 0.780860
v -2.358500 0.919910 0.775930
v -2.355630 0.925830 0.780460
v -2.360350 0.922770 0.788410
v -2.355890 0.927110 0.788410
v -2.359830 0.921960 0.795950
v -2.355630 0.925830 0.796350
v -2.358500 0.919910 0.800880
v -2.355380 0.921960 0.802970
v -2.350600 0.927110 0.780060
v -2.350600 0.928640 0.788410
v -2.355890 0.927110 0.788410
v -2.355630 0.925830 0.780460
v -2.350600 0.928640 0.788410
v -2.350600 0.927110 0.796750
v -2.355630 0.925830 0.796350
v -2.355890 0.927110 0.788410
v -2.424590 0.970500 0.760510
v -2.424590 0.969010 0.759010
v -2.375800 0.969010 0.759010
v -2.375800 0.970500 0.760510
v -2.424590 0.807510 0.759010
v -2.424590 0.806000 0.760510
v -2.375800 0.806000 0.760510
v -2.375800 0.807510 0.759010
v -2.424590 0.969010 0.817010
v -2.424590 0.970500 0.815510
v -2.375800 0.970500 0.815510
v -2.375800 0.969010 0.817010
v -2.375800 0.807510 0.817010
v -2.375800 0.806000 0.815510
v -2.424590 0.806000 0.815510
v -2.424590 0.807510 0.817010
v -2.424590 0.970500 0.760510
v -2.424590 0.970500 0.815510
v -2.426400 0.965470 0.810470
v -2.426400 0.965470 0.765550
v -2.426400 0.963960 0.811970
v -2.424590 0.969010 0.759010
v -2.424590 0.969010 0.817010
v -2.426400 0.963960 0.764040
v -2.426400 0.812540 0.811970
v -2.424590 0.807510 0.759010
v -2.424590 0.807510 0.817010
v -2.426400 0.812540 0.764040
v -2.426400 0.811040 0.810470
v -2.424590 0.806000 0.760510
v -2.424590 0.806000 0.815510
v -2.426400 0.811040 0.765550
v -2.375800 0.806000 0.760510
v -2.375800 0.806000 0.815510
v -2.373990 0.811040 0.810470
v -2.373990 0.811040 0.765550
v -2.373990 0.812540 0.811970
v -2.375800 0.807510 0.759010
v -2.375800 0.807510 0.817010
v -2.373990 0.812540 0.764040
v -2.373990 0.963960 0.811970
v -2.375800 0.969010 0.759010
v -2.375800 0.969010 0.817010
v -2.373990 0.963960 0.764040
v -2.373990 0.965470 0.810470
v -2.375800 0.970500 0.760510
v -2.375800 0.970500 0.815510
v -2.373990 0.965470 0.765550
vn 0.6787 -0.7237 0.1246
vn 0.6844 -0.7174 0.1304
vn 0.6954 -0.7186 0.0044
vn -0.6725 -0.6897 0.2683
vn -0.6668 -0.6878 0.2868
vn -0.6955 -0.7185 -0.0037
vn -0.2374 -0.8294 0.5056
vn -0.2526 -0.8311 0.4954
vn -0.2440 -0.8302 0.5012
vn -0.2291 -0.8284 0.5111
vn 0.8560 -0.3691 0.3619
vn 0.8560 -0.3529 0.3777
vn 0.8986 -0.2468 0.3628
vn 0.6615 -0.4273 0.6163
vn 0.6811 -0.4399 0.5853
vn 0.6557 -0.4235 0.6251
vn 0.6438 -0.4158 0.6424
vn -0.9267 0.1169 0.3570
vn -0.9300 -0.0028 0.3677
vn -0.9253 0.1117 0.3625
vn -0.2385 -0.5160 -0.8228
vn -0.2305 -0.5124 -0.8273
vn -0.2441 -0.5185 -0.8195
vn -0.2512 -0.5216 -0.8154
vn 0.7014 0.0038 -0.7127
vn 0.7015 0.0033 -0.7127
vn 0.6908 0.1338 -0.7105
vn 0.6859 0.1285 -0.7163
vn 0.6721 -0.2943 -0.6795
vn 0.6786 -0.2732 -0.6818
vn 0.6605 -0.4199 -0.6224
vn 0.6770 -0.4016 -0.6168
vn 0.2382 -0.5193 -0.8207
vn 0.2307 -0.5243 -0.8197
vn 0.2439 -0.5155 -0.8215
vn 0.2516 -0.5102 -0.8224
vn -0.6557 0.4235 0.6251
vn -0.6438 0.4158 0.6424
vn -0.6615 0.4273 0.6163
vn -0.6811 0.4399 0.5853
vn -0.9229 0.3693 0.1088
vn -0.9247 0.3632 0.1145
vn -0.9231 0.3687 0.1094
vn -0.9213 0.3747 0.1038
vn -0.2368 0.8299 0.5052
vn -0.2291 0.8289 0.5103
vn -0.2430 0.8306 0.5010
vn -0.2510 0.8315 0.4956
vn 0.6788 -0.7237 0.1246
vn 0.6844 -0.7173 0.1304
vn 0.6955 -0.7185 0.0044
vn -0.6955 -0.7185 -0.0036
vn 0.8560 -0.3694 0.3616
vn 0.8560 -0.3530 0.3777
vn 0.8986 -0.2469 0.3626
vn 0.6613 -0.4277 0.6163
vn 0.6812 -0.4406 0.5847
vn 0.6553 -0.4239 0.6252
vn 0.6432 -0.4160 0.6428
vn -0.2384 -0.5159 -0.8228
vn -0.2304 -0.5123 -0.8273
vn 0.7015 0.0039 -0.7127
vn 0.7015 0.0034 -0.7127
vn 0.6717 -0.2948 -0.6796
vn 0.6783 -0.2733 -0.6820
vn 0.6602 -0.4201 -0.6226
vn 0.6770 -0.4015 -0.6168
vn 0.2439 -0.5154 -0.8215
vn -0.9213 0.3748 0.1038
vn 1.0000 -0.0000 -0.0000
vn -0.0000 -0.1946 -0.9809
vn -0.0000 -0.1945 -0.9809
vn -0.0000 -0.5561 -0.8311
vn -0.0000 -0.8311 -0.5561
vn -0.0000 -0.9809 -0.1946
vn -0.0000 -0.9809 -0.1945
vn -0.0000 -0.9808 0.1949
vn -0.0000 -0.8311 0.5561
vn -0.0000 -0.5561 0.8311
vn -0.0000 -0.1965 0.9805
vn -0.0000 0.1969 0.9804
vn -0.0000 0.5561 0.8311
vn -0.0000 0.8311 0.5561
vn -0.0000 0.9804 0.1969
vn -0.0000 0.9805 -0.1965
vn -0.0000 0.8311 -0.5561
vn -0.0000 0.5561 -0.8311
vn -0.0000 0.1949 -0.9808
vn -1.0000 -0.0000 -0.0000
vn -0.0000 -1.0000 -0.0000
vn -0.0000 -0.0000 1.0000
vn -0.0000 1.0000 -0.0000
vn -0.0000 -0.0000 -1.0000
vn 0.6498 -0.6349 -0.4180
vn 0.6739 -0.6264 -0.3916
vn 0.6576 -0.6323 -0.4097
vn 0.6317 -0.6405 -0.4367
vn 0.6954 -0.7186 0.0038
vn 0.6781 -0.7216 -0.1393
vn 0.6843 -0.7170 -0.1329
vn 0.2676 -0.9490 -0.1670
vn 0.2571 -0.9506 -0.1742
vn 0.2632 -0.9497 -0.1700
vn 0.2737 -0.9480 -0.1628
vn 0.2435 -0.8303 -0.5013
vn 0.2287 -0.8285 -0.5112
vn 0.2370 -0.8295 -0.5057
vn 0.2521 -0.8313 -0.4954
vn 0.6586 -0.6260 0.4175
vn 0.6400 -0.6526 0.4057
vn 0.6522 -0.6354 0.4134
vn 0.6790 -0.5948 0.4304
vn 0.2368 -0.8319 0.5019
vn 0.2512 -0.8238 0.5083
vn 0.2432 -0.8283 0.5048
vn 0.2278 -0.8368 0.4978
vn 0.2631 -0.9502 0.1672
vn 0.2731 -0.9462 0.1736
vn 0.2674 -0.9485 0.1699
vn 0.2568 -0.9526 0.1632
vn -0.2437 -0.8282 -0.5047
vn -0.2282 -0.8367 -0.4978
vn -0.2372 -0.8318 -0.5018
vn -0.2516 -0.8236 -0.5082
vn -0.2679 -0.9484 -0.1697
vn -0.2572 -0.9525 -0.1630
vn -0.2635 -0.9501 -0.1670
vn -0.2736 -0.9461 -0.1734
vn -0.6734 -0.6880 -0.2705
vn -0.6791 -0.5946 -0.4305
vn -0.6587 -0.6260 -0.4175
vn -0.6711 -0.6952 -0.2575
vn -0.6955 -0.7185 -0.0042
vn -0.6576 -0.6323 0.4096
vn -0.6739 -0.6264 0.3916
vn -0.2636 -0.9495 0.1702
vn -0.2741 -0.9478 0.1630
vn -0.2681 -0.9488 0.1672
vn -0.2576 -0.9504 0.1743
vn 0.8548 -0.3704 -0.3636
vn 0.8315 -0.3964 -0.3892
vn 0.9056 -0.2191 -0.3632
vn 0.9030 -0.2371 -0.3584
vn 0.9300 -0.0027 -0.3676
vn 0.9300 -0.0029 -0.3677
vn 0.9253 0.1117 -0.3625
vn 0.9268 0.1169 -0.3570
vn 0.9869 -0.1151 -0.1129
vn 0.9879 -0.1107 -0.1086
vn 0.9869 -0.1150 -0.1128
vn 0.9860 -0.1192 -0.1169
vn 0.9229 -0.3692 -0.1091
vn 0.9261 -0.3630 -0.1027
vn 0.9232 -0.3686 -0.1086
vn 0.9202 -0.3742 -0.1145
vn 0.9869 -0.1151 0.1131
vn 0.9869 -0.1193 0.1090
vn 0.9869 -0.1152 0.1130
vn 0.9869 -0.1111 0.1171
vn 0.9048 -0.2289 0.3592
vn 0.9300 0.0028 0.3677
vn 0.9300 0.0027 0.3676
vn 0.9254 0.1112 0.3624
vn 0.9282 0.1053 0.3569
vn 0.9231 -0.3687 0.1094
vn 0.9213 -0.3746 0.1038
vn 0.9229 -0.3693 0.1089
vn 0.9246 -0.3632 0.1145
vn 0.6908 -0.1338 0.7105
vn 0.6859 -0.1286 0.7163
vn 0.7014 -0.0038 0.7127
vn 0.7015 -0.0033 0.7127
vn 0.6908 0.1360 0.7101
vn 0.6853 0.1419 0.7143
vn 0.2659 -0.1721 0.9485
vn 0.2584 -0.1672 0.9515
vn 0.2709 -0.1753 0.9465
vn 0.2778 -0.1798 0.9437
vn 0.2380 -0.5160 0.8229
vn 0.2300 -0.5124 0.8274
vn 0.2436 -0.5185 0.8196
vn 0.2507 -0.5216 0.8155
vn -0.2665 -0.1756 0.9477
vn -0.2592 -0.1807 0.9488
vn -0.2716 -0.1721 0.9469
vn -0.2789 -0.1669 0.9457
vn -0.6605 -0.4198 0.6225
vn -0.6770 -0.4015 0.6168
vn -0.6786 -0.2732 0.6818
vn -0.6721 -0.2943 0.6795
vn -0.7015 0.0033 0.7127
vn -0.7015 0.0038 0.7127
vn -0.6908 0.1338 0.7105
vn -0.6859 0.1285 0.7163
vn -0.2386 -0.5193 0.8206
vn -0.2312 -0.5243 0.8196
vn -0.2444 -0.5154 0.8214
vn -0.2521 -0.5102 0.8223
vn -0.8548 -0.3704 0.3636
vn -0.8315 -0.3965 0.3892
vn -0.9056 -0.2191 0.3632
vn -0.9030 -0.2371 0.3584
vn -0.9300 -0.0027 0.3676
vn -0.9869 -0.1152 0.1131
vn -0.9879 -0.1107 0.1087
vn -0.9869 -0.1151 0.1130
vn -0.9859 -0.1193 0.1171
vn -0.9229 -0.3692 0.1093
vn -0.9260 -0.3631 0.1029
vn -0.9232 -0.3686 0.1087
vn -0.9203 -0.3742 0.1146
vn -0.9869 -0.1151 -0.1130
vn -0.9869 -0.1194 -0.1089
vn -0.9869 -0.1153 -0.1129
vn -0.9869 -0.1110 -0.1170
vn -0.8560 -0.3691 -0.3619
vn -0.8560 -0.3530 -0.3777
vn -0.8986 -0.2469 -0.3628
vn -0.9048 -0.2289 -0.3592
vn -0.9300 0.0028 -0.3677
vn -0.9300 0.0027 -0.3676
vn -0.9254 0.1112 -0.3624
vn -0.9282 0.1052 -0.3569
vn -0.9231 -0.3687 -0.1093
vn -0.9213 -0.3747 -0.1036
vn -0.9229 -0.3693 -0.1087
vn -0.9247 -0.3632 -0.1144
vn -0.6908 -0.1338 -0.7105
vn -0.6859 -0.1285 -0.7163
vn -0.7015 -0.0038 -0.7127
vn -0.7015 -0.0033 -0.7127
vn -0.6908 0.1360 -0.7101
vn -0.6853 0.1419 -0.7143
vn -0.2664 -0.1721 -0.9484
vn -0.2589 -0.1672 -0.9513
vn -0.2714 -0.1753 -0.9464
vn -0.2783 -0.1797 -0.9435
vn -0.6616 -0.4273 -0.6163
vn -0.6811 -0.4399 -0.5853
vn -0.6557 -0.4235 -0.6251
vn -0.6438 -0.4157 -0.6424
vn 0.2660 -0.1756 -0.9478
vn 0.2588 -0.1807 -0.9489
vn 0.2711 -0.1721 -0.9470
vn 0.2784 -0.1669 -0.9459
vn 0.8560 0.3687 -0.3623
vn 0.8556 0.3847 -0.3463
vn 0.8560 0.3691 -0.3619
vn 0.8560 0.3529 -0.3777
vn 0.9229 0.3693 -0.1087
vn 0.9246 0.3633 -0.1144
vn 0.9231 0.3687 -0.1093
vn 0.9214 0.3746 -0.1037
vn 0.9869 0.1152 -0.1129
vn 0.9869 0.1111 -0.1170
vn 0.9869 0.1151 -0.1130
vn 0.9869 0.1193 -0.1089
vn 0.9232 0.3686 0.1087
vn 0.9202 0.3742 0.1146
vn 0.9229 0.3691 0.1093
vn 0.9261 0.3630 0.1029
vn 0.8545 0.3707 0.3639
vn 0.8671 0.3555 0.3489
vn 0.8548 0.3704 0.3636
vn 0.8314 0.3965 0.3892
vn 0.9869 0.1150 0.1130
vn 0.9859 0.1192 0.1170
vn 0.9869 0.1151 0.1131
vn 0.9879 0.1107 0.1087
vn 0.6533 0.4276 0.6248
vn 0.6352 0.4466 0.6301
vn 0.6605 0.4198 0.6225
vn 0.6770 0.4016 0.6168
vn 0.2439 0.5155 0.8215
vn 0.2516 0.5102 0.8224
vn 0.2382 0.5193 0.8207
vn 0.2307 0.5243 0.8197
vn 0.2711 0.1721 0.9471
vn 0.2784 0.1669 0.9459
vn 0.2660 0.1756 0.9478
vn 0.2587 0.1807 0.9489
vn -0.2441 0.5185 0.8195
vn -0.2512 0.5216 0.8154
vn -0.2385 0.5160 0.8228
vn -0.2305 0.5123 0.8273
vn -0.2714 0.1753 0.9464
vn -0.2782 0.1797 0.9435
vn -0.2664 0.1721 0.9484
vn -0.2589 0.1672 0.9513
vn -0.8560 0.3688 0.3623
vn -0.8556 0.3847 0.3464
vn -0.8560 0.3691 0.3619
vn -0.8560 0.3530 0.3777
vn -0.9869 0.1152 0.1130
vn -0.9869 0.1111 0.1172
vn -0.9869 0.1152 0.1131
vn -0.9869 0.1193 0.1090
vn -0.9232 0.3686 -0.1085
vn -0.9203 0.3742 -0.1144
vn -0.9229 0.3692 -0.1091
vn -0.9260 0.3632 -0.1027
vn -0.8545 0.3708 -0.3639
vn -0.8671 0.3555 -0.3489
vn -0.8548 0.3704 -0.3636
vn -0.8315 0.3965 -0.3892
vn -0.9869 0.1151 -0.1128
vn -0.9860 0.1192 -0.1169
vn -0.9869 0.1152 -0.1129
vn -0.9879 0.1107 -0.1086
vn -0.6533 0.4276 -0.6248
vn -0.6352 0.4466 -0.6302
vn -0.6605 0.4198 -0.6225
vn -0.6770 0.4015 -0.6168
vn -0.2444 0.5154 -0.8214
vn -0.2521 0.5102 -0.8223
vn -0.2386 0.5193 -0.8206
vn -0.2311 0.5243 -0.8196
vn -0.2716 0.1721 -0.9469
vn -0.2789 0.1669 -0.9457
vn -0.2665 0.1756 -0.9477
vn -0.2593 0.1807 -0.9487
vn 0.2436 0.5185 -0.8196
vn 0.2507 0.5217 -0.8155
vn 0.2380 0.5160 -0.8229
vn 0.2300 0.5124 -0.8274
vn 0.6557 0.4235 -0.6251
vn 0.6438 0.4158 -0.6424
vn 0.6615 0.4273 -0.6163
vn 0.6811 0.4399 -0.5853
vn 0.2709 0.1753 -0.9465
vn 0.2778 0.1798 -0.9437
vn 0.2659 0.1721 -0.9485
vn 0.2584 0.1672 -0.9515
vn 0.6498 0.6349 -0.4180
vn 0.6317 0.6405 -0.4367
vn 0.6576 0.6323 -0.4097
vn 0.6740 0.6264 -0.3916
vn 0.2425 0.8307 -0.5011
vn 0.2505 0.8316 -0.4956
vn 0.2364 0.8300 -0.5052
vn 0.2286 0.8290 -0.5104
vn 0.2670 0.9492 -0.1663
vn 0.2737 0.9481 -0.1616
vn 0.2621 0.9500 -0.1697
vn 0.2554 0.9510 -0.1743
vn 0.6782 0.7218 -0.1384
vn 0.6948 0.7192 0.0036
vn 0.6840 0.7174 -0.1324
vn 0.6948 0.7192 0.0041
vn 0.6840 0.7178 0.1300
vn 0.6787 0.7237 0.1246
vn 0.2620 0.9506 0.1665
vn 0.2550 0.9533 0.1620
vn 0.2668 0.9487 0.1695
vn 0.2731 0.9462 0.1736
vn 0.2362 0.8322 0.5016
vn 0.2278 0.8368 0.4978
vn 0.2423 0.8288 0.5043
vn 0.2497 0.8246 0.5076
vn 0.6587 0.6260 0.4175
vn 0.6790 0.5947 0.4304
vn 0.6522 0.6353 0.4135
vn 0.6400 0.6526 0.4057
vn -0.2428 0.8287 -0.5043
vn -0.2502 0.8245 -0.5076
vn -0.2367 0.8321 -0.5016
vn -0.2282 0.8367 -0.4978
vn -0.6790 0.5947 -0.4304
vn -0.6734 0.6880 -0.2705
vn -0.6587 0.6260 -0.4175
vn -0.6710 0.6954 -0.2573
vn -0.6948 0.7192 -0.0040
vn -0.6948 0.7192 -0.0034
vn -0.6667 0.6881 0.2866
vn -0.6726 0.6898 0.2679
vn -0.6576 0.6323 0.4096
vn -0.6740 0.6264 0.3916
vn -0.2673 0.9486 -0.1693
vn -0.2736 0.9461 -0.1734
vn -0.2624 0.9505 -0.1662
vn -0.2554 0.9532 -0.1618
vn -0.2625 0.9499 0.1698
vn -0.2558 0.9509 0.1744
vn -0.2675 0.9491 0.1665
vn -0.2742 0.9480 0.1618
vn 0.6498 -0.6348 -0.4180
vn 0.6740 -0.6264 -0.3916
vn 0.6318 -0.6404 -0.4367
vn 0.6955 -0.7185 0.0038
vn 0.6782 -0.7216 -0.1393
vn 0.6844 -0.7169 -0.1329
vn 0.2631 -0.9497 -0.1700
vn 0.2736 -0.9480 -0.1628
vn 0.2435 -0.8303 -0.5012
vn 0.6587 -0.6259 0.4175
vn 0.6523 -0.6353 0.4135
vn 0.6791 -0.5945 0.4305
vn 0.2367 -0.8319 0.5019
vn 0.2278 -0.8369 0.4978
vn -0.2516 -0.8237 -0.5082
vn -0.6791 -0.5946 -0.4304
vn 0.8547 -0.3707 -0.3633
vn 0.8310 -0.3973 -0.3894
vn 0.9056 -0.2193 -0.3631
vn 0.9031 -0.2370 -0.3581
vn 0.9300 -0.0028 -0.3677
vn 0.9267 0.1169 -0.3570
vn 0.9869 -0.1152 -0.1129
vn 0.9869 -0.1151 -0.1128
vn 0.9261 -0.3631 -0.1027
vn 0.9232 -0.3686 -0.1085
vn 0.9203 -0.3742 -0.1144
vn 0.9869 -0.1152 0.1131
vn 0.9869 -0.1110 0.1172
vn 0.9048 -0.2292 0.3589
vn 0.9300 0.0029 0.3676
vn 0.9300 0.0028 0.3676
vn 0.9254 0.1113 0.3624
vn 0.9213 -0.3748 0.1038
vn 0.9229 -0.3693 0.1088
vn 0.9247 -0.3631 0.1145
vn 0.6907 -0.1337 0.7106
vn 0.6857 -0.1283 0.7165
vn 0.2778 -0.1797 0.9437
vn 0.2300 -0.5124 0.8273
vn -0.6602 -0.4202 0.6226
vn -0.6783 -0.2733 0.6820
vn -0.6717 -0.2949 0.6796
vn -0.7015 0.0034 0.7127
vn -0.7015 0.0039 0.7127
vn -0.8547 -0.3707 0.3633
vn -0.8310 -0.3972 0.3894
vn -0.9056 -0.2193 0.3631
vn -0.9031 -0.2370 0.3581
vn -0.9859 -0.1192 0.1171
vn -0.9260 -0.3632 0.1029
vn -0.9869 -0.1152 -0.1129
vn -0.8560 -0.3694 -0.3616
vn -0.8986 -0.2469 -0.3626
vn -0.9048 -0.2292 -0.3589
vn -0.9300 0.0028 -0.3676
vn -0.9282 0.1053 -0.3569
vn -0.9213 -0.3747 -0.1037
vn -0.9247 -0.3632 -0.1143
vn -0.6907 -0.1337 -0.7106
vn -0.6857 -0.1283 -0.7165
vn -0.7014 -0.0038 -0.7127
vn -0.6613 -0.4277 -0.6163
vn -0.6812 -0.4406 -0.5847
vn -0.6553 -0.4239 -0.6252
vn -0.6432 -0.4160 -0.6428
vn 0.2784 -0.1669 -0.9458
vn 0.8560 0.3688 -0.3623
vn 0.8556 0.3846 -0.3464
vn 0.8560 0.3530 -0.3777
vn 0.9247 0.3632 -0.1144
vn 0.9213 0.3747 -0.1036
vn 0.9203 0.3742 0.1146
vn 0.9229 0.3692 0.1092
vn 0.9260 0.3631 0.1029
vn 0.8545 0.3708 0.3639
vn 0.8315 0.3965 0.3892
vn 0.9869 0.1151 0.1130
vn 0.9859 0.1192 0.1171
vn 0.9869 0.1152 0.1131
vn 0.6770 0.4015 0.6168
vn 0.2711 0.1721 0.9470
vn 0.2784 0.1670 0.9458
vn 0.2588 0.1807 0.9489
vn -0.2385 0.5159 0.8228
vn -0.8556 0.3846 0.3464
vn -0.9869 0.1110 0.1172
vn -0.9869 0.1151 0.1131
vn -0.9868 0.1193 0.1090
vn -0.9203 0.3741 -0.1144
vn 0.2507 0.5216 -0.8155
vn 0.2778 0.1797 -0.9437
vn 0.6576 0.6323 -0.4096
vn 0.2425 0.8307 -0.5010
vn 0.2670 0.9493 -0.1663
vn 0.6782 0.7217 -0.1384
vn 0.6840 0.7173 -0.1324
vn 0.6841 0.7177 0.1300
vn 0.6788 0.7237 0.1246
vn 0.2278 0.8369 0.4978
vn 0.6587 0.6259 0.4175
vn 0.6791 0.5946 0.4304
vn 0.6522 0.6353 0.4134
vn -0.6791 0.5947 -0.4304
vn -0.6734 0.6880 -0.2704
vn -0.6949 0.7191 -0.0040
vn -0.6949 0.7191 -0.0034
vn -0.6740 0.6264 0.3917
vn -0.0000 0.7094 -0.7048
vn -0.0000 0.7095 -0.7047
vn -0.0000 -0.7048 -0.7094
vn -0.0000 -0.7047 -0.7095
vn -0.0000 0.7095 0.7047
vn -0.0000 0.7094 0.7048
vn -0.0000 -0.7048 0.7094
vn -0.0000 -0.7047 0.7095
vn -0.9591 0.2740 0.0710
vn -0.9659 0.2319 0.1151
vn -0.9659 0.2321 -0.1152
vn -0.9591 0.2743 -0.0706
vn -0.9591 0.0704 0.2741
vn -0.9659 0.1157 -0.2315
vn -0.9660 0.1156 0.2311
vn -0.9591 0.0706 -0.2742
vn -0.9592 -0.0708 0.2738
vn -0.9658 -0.1152 -0.2323
vn -0.9659 -0.1150 0.2319
vn -0.9591 -0.0709 -0.2740
vn -0.9592 -0.2738 0.0707
vn -0.9659 -0.2316 -0.1156
vn -0.9660 -0.2313 0.1156
vn -0.9591 -0.2741 -0.0703
vn 0.9592 -0.2738 0.0707
vn 0.9660 -0.2314 0.1156
vn 0.9660 -0.2313 -0.1156
vn 0.9591 -0.2742 -0.0705
vn 0.9592 -0.0707 0.2738
vn 0.9659 -0.1151 -0.2320
vn 0.9659 -0.1150 0.2320
vn 0.9591 -0.0711 -0.2740
vn 0.9591 0.0702 0.2741
vn 0.9660 0.1157 -0.2313
vn 0.9660 0.1156 0.2314
vn 0.9591 0.0707 -0.2743
vn 0.9591 0.2740 0.0708
vn 0.9659 0.2319 -0.1151
vn 0.9658 0.2321 0.1152
vn 0.9591 0.2742 -0.0707
vt 0.380920 0.037720
vt 0.380920 0.045614
vt 0.375000 0.037720
vt 0.380427 0.288049
vt 0.380427 0.295285
vt 0.375000 0.288049
vt 0.471500 0.212000
vt 0.466000 0.212000
vt 0.466000 0.204667
vt 0.471500 0.204667
vt 0.778205 0.446153
vt 0.784295 0.446153
vt 0.784295 0.454273
vt 0.716314 0.371751
vt 0.721186 0.371751
vt 0.721186 0.378249
vt 0.716314 0.378249
vt 0.465705 0.470514
vt 0.465705 0.462394
vt 0.471795 0.470514
vt 0.153511 0.371348
vt 0.158989 0.371348
vt 0.158989 0.378652
vt 0.153511 0.378652
vt 0.028463 0.462049
vt 0.034037 0.462049
vt 0.034037 0.469481
vt 0.028463 0.469481
vt 0.028463 0.454617
vt 0.034037 0.454617
vt 0.028463 0.447186
vt 0.034037 0.447186
vt 0.091011 0.371348
vt 0.096489 0.371348
vt 0.096489 0.378652
vt 0.091011 0.378652
vt 0.528815 0.621753
vt 0.533685 0.621753
vt 0.533685 0.628247
vt 0.528815 0.628247
vt 0.403007 0.620676
vt 0.409493 0.620676
vt 0.409493 0.629324
vt 0.403007 0.629324
vt 0.471499 0.788001
vt 0.471499 0.795332
vt 0.466001 0.795332
vt 0.466001 0.788001
vt 0.471500 0.211999
vt 0.466000 0.211999
vt 0.716312 0.371750
vt 0.721188 0.371750
vt 0.721188 0.378250
vt 0.716312 0.378250
vt 0.153511 0.371349
vt 0.158989 0.371349
vt 0.158989 0.378651
vt 0.153511 0.378651
vt 0.028463 0.447185
vt 0.034037 0.447185
vt 0.471500 0.788001
vt 0.471500 0.795333
vt 0.466000 0.795333
vt 0.466000 0.788001
vt 0.739606 0.756945
vt 0.737739 0.752439
vt 0.737739 0.747561
vt 0.739606 0.743055
vt 0.743055 0.760394
vt 0.743055 0.739606
vt 0.747561 0.762261
vt 0.747561 0.737739
vt 0.752439 0.762261
vt 0.752439 0.737739
vt 0.756945 0.760394
vt 0.756945 0.739606
vt 0.760394 0.756945
vt 0.760394 0.743055
vt 0.762261 0.752439
vt 0.762261 0.747561
vt 0.034807 0.221546
vt 0.034807 0.278454
vt 0.027693 0.278454
vt 0.027693 0.221546
vt 0.097307 0.221546
vt 0.097307 0.278454
vt 0.090193 0.278454
vt 0.090193 0.221546
vt 0.159807 0.221546
vt 0.159807 0.278454
vt 0.152693 0.278454
vt 0.152693 0.221546
vt 0.222307 0.221546
vt 0.222307 0.278454
vt 0.215193 0.278454
vt 0.215193 0.221546
vt 0.284807 0.221546
vt 0.284807 0.278454
vt 0.277693 0.278454
vt 0.277693 0.221546
vt 0.347307 0.221546
vt 0.347307 0.278454
vt 0.340193 0.278454
vt 0.340193 0.221546
vt 0.409807 0.221546
vt 0.409807 0.278454
vt 0.402693 0.278454
vt 0.402693 0.221546
vt 0.472307 0.221546
vt 0.472307 0.278454
vt 0.465193 0.278454
vt 0.465193 0.221546
vt 0.534807 0.221546
vt 0.534807 0.278454
vt 0.527693 0.278454
vt 0.527693 0.221546
vt 0.597307 0.221546
vt 0.597307 0.278454
vt 0.590193 0.278454
vt 0.590193 0.221546
vt 0.659807 0.221546
vt 0.659807 0.278454
vt 0.652693 0.278454
vt 0.652693 0.221546
vt 0.722307 0.221546
vt 0.722307 0.278454
vt 0.715193 0.278454
vt 0.715193 0.221546
vt 0.784807 0.221547
vt 0.784807 0.278453
vt 0.777693 0.278453
vt 0.777693 0.221547
vt 0.847306 0.221547
vt 0.847306 0.278453
vt 0.840194 0.278453
vt 0.840194 0.221547
vt 0.909807 0.221546
vt 0.909807 0.278454
vt 0.902693 0.278454
vt 0.902693 0.221546
vt 0.972307 0.221547
vt 0.972307 0.278453
vt 0.965193 0.278453
vt 0.965193 0.221547
vt 0.237740 0.752439
vt 0.237740 0.747561
vt 0.239606 0.743055
vt 0.243055 0.739606
vt 0.239606 0.756945
vt 0.247561 0.737740
vt 0.243055 0.760394
vt 0.252439 0.737740
vt 0.247561 0.762260
vt 0.256945 0.739606
vt 0.252439 0.762260
vt 0.260394 0.743055
vt 0.256945 0.760394
vt 0.262260 0.747561
vt 0.260394 0.756945
vt 0.262260 0.752439
vt 0.409899 0.218439
vt 0.340101 0.218439
vt 0.339263 0.215198
vt 0.410737 0.215198
vt 0.339263 0.118135
vt 0.410737 0.118135
vt 0.340101 0.114894
vt 0.409899 0.114894
vt 0.146845 0.469284
vt 0.146845 0.530716
vt 0.103155 0.530716
vt 0.103155 0.469284
vt 0.413021 0.448179
vt 0.413021 0.551821
vt 0.336979 0.551821
vt 0.336979 0.448179
vt 0.646845 0.469284
vt 0.646845 0.530716
vt 0.603155 0.530716
vt 0.603155 0.469284
vt 0.913021 0.448179
vt 0.913021 0.551821
vt 0.836979 0.551821
vt 0.836979 0.448179
vt 0.340101 0.781561
vt 0.409899 0.781561
vt 0.410737 0.784802
vt 0.339263 0.784802
vt 0.410737 0.881865
vt 0.339263 0.881865
vt 0.409899 0.885106
vt 0.340101 0.885106
vt 0.283692 0.044923
vt 0.278808 0.044923
vt 0.278808 0.038411
vt 0.283692 0.038411
vt 0.375000 0.045614
vt 0.369080 0.045614
vt 0.369080 0.037720
vt 0.346633 0.128843
vt 0.340867 0.128843
vt 0.340867 0.121157
vt 0.346633 0.121157
vt 0.284000 0.128666
vt 0.278500 0.128666
vt 0.278500 0.121334
vt 0.284000 0.121334
vt 0.471192 0.044923
vt 0.466308 0.044923
vt 0.466308 0.038411
vt 0.471192 0.038411
vt 0.471500 0.128666
vt 0.466000 0.128666
vt 0.466000 0.121334
vt 0.471500 0.121334
vt 0.409132 0.128843
vt 0.403368 0.128843
vt 0.403368 0.121157
vt 0.409132 0.121157
vt 0.284000 0.212000
vt 0.278500 0.212000
vt 0.278500 0.204667
vt 0.284000 0.204667
vt 0.346632 0.212176
vt 0.340868 0.212176
vt 0.340868 0.204490
vt 0.346632 0.204490
vt 0.369573 0.295285
vt 0.364146 0.295285
vt 0.364146 0.288049
vt 0.369573 0.288049
vt 0.375000 0.295285
vt 0.385854 0.295285
vt 0.385854 0.288049
vt 0.409133 0.212177
vt 0.403367 0.212177
vt 0.403367 0.204490
vt 0.409133 0.204490
vt 0.965705 0.446153
vt 0.971795 0.446153
vt 0.971795 0.454273
vt 0.965705 0.454273
vt 0.971795 0.462394
vt 0.965705 0.462394
vt 0.971795 0.470514
vt 0.965705 0.470514
vt 0.902733 0.453644
vt 0.909767 0.453644
vt 0.909767 0.463023
vt 0.902733 0.463023
vt 0.903006 0.370675
vt 0.909494 0.370675
vt 0.909494 0.379325
vt 0.903006 0.379325
vt 0.840233 0.453644
vt 0.847267 0.453644
vt 0.847267 0.463023
vt 0.840233 0.463023
vt 0.778205 0.454273
vt 0.784295 0.462393
vt 0.778205 0.462393
vt 0.784295 0.470514
vt 0.778205 0.470514
vt 0.840507 0.370676
vt 0.846993 0.370676
vt 0.846993 0.379324
vt 0.840507 0.379324
vt 0.715803 0.492142
vt 0.721697 0.492142
vt 0.721697 0.500000
vt 0.715803 0.500000
vt 0.721697 0.507858
vt 0.715803 0.507858
vt 0.653390 0.454520
vt 0.659110 0.454520
vt 0.659110 0.462146
vt 0.653390 0.462146
vt 0.653511 0.371349
vt 0.658989 0.371349
vt 0.658989 0.378651
vt 0.653511 0.378651
vt 0.590892 0.454523
vt 0.596608 0.454523
vt 0.596608 0.462144
vt 0.590892 0.462144
vt 0.528463 0.447186
vt 0.534037 0.447186
vt 0.534037 0.454618
vt 0.528463 0.454618
vt 0.534037 0.462049
vt 0.528463 0.462049
vt 0.534037 0.469481
vt 0.528463 0.469481
vt 0.591012 0.371350
vt 0.596488 0.371350
vt 0.596488 0.378650
vt 0.591012 0.378650
vt 0.465705 0.446153
vt 0.471795 0.446153
vt 0.471795 0.454273
vt 0.465705 0.454273
vt 0.471795 0.462394
vt 0.402733 0.453644
vt 0.409767 0.453644
vt 0.409767 0.463023
vt 0.402733 0.463023
vt 0.403006 0.370675
vt 0.409494 0.370675
vt 0.409494 0.379325
vt 0.403006 0.379325
vt 0.340233 0.453644
vt 0.347267 0.453644
vt 0.347267 0.463023
vt 0.340233 0.463023
vt 0.278205 0.446153
vt 0.284295 0.446153
vt 0.284295 0.454273
vt 0.278205 0.454273
vt 0.284295 0.462393
vt 0.278205 0.462393
vt 0.284295 0.470513
vt 0.278205 0.470513
vt 0.340507 0.370676
vt 0.346993 0.370676
vt 0.346993 0.379324
vt 0.340507 0.379324
vt 0.215804 0.492143
vt 0.221696 0.492143
vt 0.221696 0.500000
vt 0.215804 0.500000
vt 0.221696 0.507857
vt 0.215804 0.507857
vt 0.153391 0.454522
vt 0.159109 0.454522
vt 0.159109 0.462145
vt 0.153391 0.462145
vt 0.216313 0.371751
vt 0.221187 0.371751
vt 0.221187 0.378249
vt 0.216313 0.378249
vt 0.090891 0.454522
vt 0.096609 0.454522
vt 0.096609 0.462145
vt 0.090891 0.462145
vt 0.966138 0.621517
vt 0.971362 0.621517
vt 0.971362 0.628483
vt 0.966138 0.628483
vt 0.903007 0.620676
vt 0.909493 0.620676
vt 0.909493 0.629324
vt 0.903007 0.629324
vt 0.902733 0.536978
vt 0.909767 0.536978
vt 0.909767 0.546356
vt 0.902733 0.546356
vt 0.840507 0.620676
vt 0.846993 0.620676
vt 0.846993 0.629324
vt 0.840507 0.629324
vt 0.778636 0.621515
vt 0.783864 0.621515
vt 0.783864 0.628485
vt 0.778636 0.628485
vt 0.840233 0.536978
vt 0.847267 0.536978
vt 0.847267 0.546356
vt 0.840233 0.546356
vt 0.716313 0.621750
vt 0.721187 0.621750
vt 0.721187 0.628250
vt 0.716313 0.628250
vt 0.653511 0.621349
vt 0.658989 0.621349
vt 0.658989 0.628651
vt 0.653511 0.628651
vt 0.653392 0.537856
vt 0.659108 0.537856
vt 0.659108 0.545477
vt 0.653392 0.545477
vt 0.591010 0.621347
vt 0.596490 0.621347
vt 0.596490 0.628653
vt 0.591010 0.628653
vt 0.590891 0.537855
vt 0.596609 0.537855
vt 0.596609 0.545479
vt 0.590891 0.545479
vt 0.466136 0.621515
vt 0.471364 0.621515
vt 0.471364 0.628485
vt 0.466136 0.628485
vt 0.402733 0.536978
vt 0.409767 0.536978
vt 0.409767 0.546356
vt 0.402733 0.546356
vt 0.340507 0.620676
vt 0.346993 0.620676
vt 0.346993 0.629324
vt 0.340507 0.629324
vt 0.278636 0.621515
vt 0.283864 0.621515
vt 0.283864 0.628485
vt 0.278636 0.628485
vt 0.340233 0.536978
vt 0.347267 0.536978
vt 0.347267 0.546356
vt 0.340233 0.546356
vt 0.216313 0.621750
vt 0.221187 0.621750
vt 0.221187 0.628250
vt 0.216313 0.628250
vt 0.153511 0.621348
vt 0.158989 0.621348
vt 0.158989 0.628652
vt 0.153511 0.628652
vt 0.153391 0.537855
vt 0.159109 0.537855
vt 0.159109 0.545478
vt 0.153391 0.545478
vt 0.091011 0.621348
vt 0.096489 0.621348
vt 0.096489 0.628652
vt 0.091011 0.628652
vt 0.028813 0.621750
vt 0.033687 0.621750
vt 0.033687 0.628250
vt 0.028813 0.628250
vt 0.090891 0.537855
vt 0.096609 0.537855
vt 0.096609 0.545478
vt 0.090891 0.545478
vt 0.283693 0.955076
vt 0.283693 0.961590
vt 0.278807 0.961590
vt 0.278807 0.955076
vt 0.284001 0.871333
vt 0.284001 0.878667
vt 0.278499 0.878667
vt 0.278499 0.871333
vt 0.346632 0.871158
vt 0.346632 0.878842
vt 0.340868 0.878842
vt 0.340868 0.871158
vt 0.369080 0.954387
vt 0.375000 0.954387
vt 0.369080 0.962280
vt 0.375000 0.962280
vt 0.380920 0.954387
vt 0.380920 0.962280
vt 0.409132 0.871158
vt 0.409132 0.878842
vt 0.403368 0.878842
vt 0.403368 0.871158
vt 0.471501 0.871332
vt 0.471501 0.878668
vt 0.465999 0.878668
vt 0.465999 0.871332
vt 0.471193 0.955076
vt 0.471193 0.961591
vt 0.466307 0.961591
vt 0.466307 0.955076
vt 0.283999 0.788001
vt 0.283999 0.795332
vt 0.278501 0.795332
vt 0.278501 0.788001
vt 0.364146 0.704715
vt 0.369573 0.704715
vt 0.364146 0.711951
vt 0.369573 0.711951
vt 0.375000 0.704715
vt 0.375000 0.711951
vt 0.380427 0.704715
vt 0.380427 0.711951
vt 0.385854 0.704715
vt 0.385854 0.711951
vt 0.346633 0.787823
vt 0.346633 0.795511
vt 0.340867 0.795511
vt 0.340867 0.787823
vt 0.409133 0.787822
vt 0.409133 0.795511
vt 0.403367 0.795511
vt 0.403367 0.787822
vt 0.346633 0.128844
vt 0.340867 0.128844
vt 0.466308 0.038410
vt 0.471192 0.038410
vt 0.409133 0.128843
vt 0.403367 0.128843
vt 0.403367 0.121157
vt 0.409133 0.121157
vt 0.909767 0.463022
vt 0.902733 0.463022
vt 0.715804 0.492143
vt 0.721696 0.492143
vt 0.721696 0.500000
vt 0.715804 0.500000
vt 0.721696 0.507857
vt 0.715804 0.507857
vt 0.653391 0.454521
vt 0.659109 0.454521
vt 0.659109 0.462145
vt 0.653391 0.462145
vt 0.653511 0.371348
vt 0.658989 0.371348
vt 0.658989 0.378652
vt 0.653511 0.378652
vt 0.590891 0.454521
vt 0.596609 0.454521
vt 0.596609 0.462146
vt 0.590891 0.462146
vt 0.591012 0.371349
vt 0.596488 0.371349
vt 0.596488 0.378651
vt 0.591012 0.378651
vt 0.465705 0.446152
vt 0.471795 0.446152
vt 0.403007 0.370676
vt 0.409493 0.370676
vt 0.409493 0.379324
vt 0.403007 0.379324
vt 0.347267 0.463022
vt 0.340233 0.463022
vt 0.284295 0.470514
vt 0.278205 0.470514
vt 0.340506 0.370675
vt 0.346994 0.370675
vt 0.346994 0.379325
vt 0.340506 0.379325
vt 0.966136 0.621515
vt 0.971364 0.621515
vt 0.971364 0.628485
vt 0.966136 0.628485
vt 0.778637 0.621516
vt 0.783863 0.621516
vt 0.783863 0.628484
vt 0.778637 0.628484
vt 0.840233 0.536977
vt 0.847267 0.536977
vt 0.716314 0.621752
vt 0.721186 0.621752
vt 0.721186 0.628248
vt 0.716314 0.628248
vt 0.653512 0.621350
vt 0.658988 0.621350
vt 0.658988 0.628650
vt 0.653512 0.628650
vt 0.653391 0.537855
vt 0.659109 0.537855
vt 0.659109 0.545479
vt 0.653391 0.545479
vt 0.591011 0.621348
vt 0.596489 0.621348
vt 0.596489 0.628653
vt 0.591011 0.628653
vt 0.590892 0.537856
vt 0.596608 0.537856
vt 0.596608 0.545478
vt 0.590892 0.545478
vt 0.466137 0.621516
vt 0.471363 0.621516
vt 0.471363 0.628484
vt 0.466137 0.628484
vt 0.409767 0.546355
vt 0.402733 0.546355
vt 0.278637 0.621516
vt 0.283863 0.621516
vt 0.283863 0.628484
vt 0.278637 0.628484
vt 0.340233 0.536977
vt 0.347267 0.536977
vt 0.216313 0.621751
vt 0.221187 0.621751
vt 0.221187 0.628249
vt 0.216313 0.628249
vt 0.153511 0.621349
vt 0.158989 0.621349
vt 0.158989 0.628651
vt 0.153511 0.628651
vt 0.153392 0.537856
vt 0.159108 0.537856
vt 0.159108 0.545478
vt 0.153392 0.545478
vt 0.091011 0.621349
vt 0.096489 0.621349
vt 0.096489 0.628651
vt 0.091011 0.628651
vt 0.028813 0.621751
vt 0.033687 0.621751
vt 0.033687 0.628249
vt 0.028813 0.628249
vt 0.090892 0.537855
vt 0.096608 0.537855
vt 0.096608 0.545478
vt 0.090892 0.545478
vt 0.283692 0.955078
vt 0.283692 0.961589
vt 0.278808 0.961589
vt 0.278808 0.955078
vt 0.284000 0.871334
vt 0.284000 0.878666
vt 0.278500 0.878666
vt 0.278500 0.871334
vt 0.346632 0.871157
vt 0.346632 0.878843
vt 0.340868 0.878843
vt 0.340868 0.871157
vt 0.409133 0.871156
vt 0.409133 0.878844
vt 0.403367 0.878844
vt 0.403367 0.871156
vt 0.471500 0.871333
vt 0.471500 0.878667
vt 0.466000 0.878667
vt 0.466000 0.871333
vt 0.284000 0.788001
vt 0.284000 0.795333
vt 0.278500 0.795333
vt 0.278500 0.788001
vt 0.346632 0.787824
vt 0.346632 0.795510
vt 0.340868 0.795510
vt 0.340868 0.787824
vt 0.409132 0.787823
vt 0.409132 0.795510
vt 0.403368 0.795510
vt 0.403368 0.787823
vt 0.748970 0.469352
vt 0.748970 0.530648
vt 0.747282 0.530648
vt 0.747282 0.469352
vt 0.000183 0.358526
vt 0.000183 0.641473
vt -0.000183 0.641473
vt -0.000183 0.358526
vt 0.502719 0.469350
vt 0.502719 0.530650
vt 0.501030 0.530650
vt 0.501030 0.469350
vt 0.247282 0.530650
vt 0.247282 0.469350
vt 0.248970 0.469350
vt 0.248970 0.530650
vt 0.399233 0.800424
vt 0.407622 0.792088
vt 0.407622 0.874579
vt 0.399233 0.866243
vt 0.398665 0.798226
vt 0.406912 0.876829
vt 0.406912 0.789838
vt 0.398665 0.868440
vt 0.351335 0.798226
vt 0.343088 0.876829
vt 0.343088 0.789838
vt 0.351335 0.868440
vt 0.350767 0.800424
vt 0.342378 0.874579
vt 0.342378 0.792088
vt 0.350767 0.866243
vt 0.350767 0.199576
vt 0.342378 0.207912
vt 0.342378 0.125421
vt 0.350767 0.133758
vt 0.351335 0.201774
vt 0.343088 0.123171
vt 0.343088 0.210162
vt 0.351335 0.131560
vt 0.398665 0.201774
vt 0.406912 0.123171
vt 0.406912 0.210162
vt 0.398665 0.131560
vt 0.399233 0.199576
vt 0.407622 0.125421
vt 0.407622 0.207912
vt 0.399233 0.133758
s 1
f 3/1/1 2/2/2 1/3/3
f 6/4/4 5/5/5 4/6/6
f 9/7/7 8/8/8 7/9/9
f 10/10/10 9/7/7 7/9/9
f 13/11/11 12/12/12 11/13/13
f 16/14/14 15/15/15 14/16/16
f 17/17/17 16/14/14 14/16/16
f 20/18/18 19/19/19 18/20/20
f 23/21/21 22/22/22 21/23/23
f 24/24/24 23/21/21 21/23/23
f 27/25/25 26/26/26 25/27/27
f 28/28/28 27/25/25 25/27/27
f 27/25/25 29/29/29 26/26/26
f 29/29/29 30/30/30 26/26/26
f 29/29/29 31/31/31 30/30/30
f 31/31/31 32/32/32 30/30/30
f 35/33/33 34/34/34 33/35/35
f 36/36/36 35/33/33 33/35/35
f 39/37/37 38/38/38 37/39/39
f 40/40/40 39/37/37 37/39/39
f 43/41/41 42/42/42 41/43/43
f 44/44/44 43/41/41 41/43/43
f 47/45/45 46/46/46 45/47/47
f 48/48/48 47/45/45 45/47/47
f 51/1/49 50/2/50 49/3/51
f 54/4/4 53/5/5 52/6/52
f 57/49/7 56/50/8 55/9/9
f 58/10/10 57/49/7 55/9/9
f 61/11/53 60/12/54 59/13/55
f 64/51/56 63/52/57 62/53/58
f 65/54/59 64/51/56 62/53/58
f 68/18/18 67/19/19 66/20/20
f 71/55/60 70/56/61 69/57/23
f 72/58/24 71/55/60 69/57/23
f 75/25/62 74/26/63 73/27/27
f 76/28/28 75/25/62 73/27/27
f 75/25/62 77/29/64 74/26/63
f 77/29/64 78/30/65 74/26/63
f 77/29/64 79/59/66 78/30/65
f 79/59/66 80/60/67 78/30/65
f 83/33/33 82/34/34 81/35/68
f 84/36/36 83/33/33 81/35/68
f 87/37/37 86/38/38 85/39/39
f 88/40/40 87/37/37 85/39/39
f 91/41/41 90/42/42 89/43/43
f 92/44/69 91/41/41 89/43/43
f 95/61/45 94/62/46 93/63/47
f 96/64/48 95/61/45 93/63/47
f 99/65/70 98/66/70 97/67/70
f 97/67/70 100/68/70 99/65/70
f 100/68/70 101/69/70 99/65/70
f 100/68/70 102/70/70 101/69/70
f 102/70/70 103/71/70 101/69/70
f 102/70/70 104/72/70 103/71/70
f 104/72/70 105/73/70 103/71/70
f 104/72/70 106/74/70 105/73/70
f 106/74/70 107/75/70 105/73/70
f 106/74/70 108/76/70 107/75/70
f 108/76/70 109/77/70 107/75/70
f 108/76/70 110/78/70 109/77/70
f 110/78/70 111/79/70 109/77/70
f 110/78/70 112/80/70 111/79/70
f 115/81/71 114/82/72 113/83/72
f 116/84/71 115/81/71 113/83/72
f 119/85/73 118/86/73 117/87/73
f 120/88/73 119/85/73 117/87/73
f 123/89/74 122/90/74 121/91/74
f 124/92/74 123/89/74 121/91/74
f 127/93/75 126/94/76 125/95/76
f 128/96/75 127/93/75 125/95/76
f 131/97/77 130/98/77 129/99/77
f 132/100/77 131/97/77 129/99/77
f 135/101/78 134/102/78 133/103/78
f 136/104/78 135/101/78 133/103/78
f 139/105/79 138/106/79 137/107/79
f 140/108/79 139/105/79 137/107/79
f 143/109/80 142/110/80 141/111/80
f 144/112/80 143/109/80 141/111/80
f 147/113/81 146/114/81 145/115/81
f 148/116/81 147/113/81 145/115/81
f 151/117/82 150/118/82 149/119/82
f 152/120/82 151/117/82 149/119/82
f 155/121/83 154/122/83 153/123/83
f 156/124/83 155/121/83 153/123/83
f 159/125/84 158/126/84 157/127/84
f 160/128/84 159/125/84 157/127/84
f 163/129/85 162/130/85 161/131/85
f 164/132/85 163/129/85 161/131/85
f 167/133/86 166/134/86 165/135/86
f 168/136/86 167/133/86 165/135/86
f 171/137/87 170/138/87 169/139/87
f 172/140/87 171/137/87 169/139/87
f 175/141/88 174/142/88 173/143/88
f 176/144/88 175/141/88 173/143/88
f 179/145/89 178/146/89 177/147/89
f 177/147/89 180/148/89 179/145/89
f 180/148/89 181/149/89 179/145/89
f 180/148/89 182/150/89 181/149/89
f 182/150/89 183/151/89 181/149/89
f 182/150/89 184/152/89 183/151/89
f 184/152/89 185/153/89 183/151/89
f 184/152/89 186/154/89 185/153/89
f 186/154/89 187/155/89 185/153/89
f 186/154/89 188/156/89 187/155/89
f 188/156/89 189/157/89 187/155/89
f 188/156/89 190/158/89 189/157/89
f 190/158/89 191/159/89 189/157/89
f 190/158/89 192/160/89 191/159/89
f 195/161/70 194/162/70 193/163/70
f 193/163/70 196/164/70 195/161/70
f 193/163/70 197/165/70 196/164/70
f 197/165/70 198/166/70 196/164/70
f 197/165/70 199/167/70 198/166/70
f 199/167/70 200/168/70 198/166/70
f 203/169/90 202/170/90 201/171/90
f 204/172/90 203/169/90 201/171/90
f 207/173/91 206/174/91 205/175/91
f 208/176/91 207/173/91 205/175/91
f 211/177/92 210/178/92 209/179/92
f 212/180/92 211/177/92 209/179/92
f 215/181/93 214/182/93 213/183/93
f 216/184/93 215/181/93 213/183/93
f 219/185/89 218/186/89 217/187/89
f 217/187/89 220/188/89 219/185/89
f 217/187/89 221/189/89 220/188/89
f 221/189/89 222/190/89 220/188/89
f 221/189/89 223/191/89 222/190/89
f 223/191/89 224/192/89 222/190/89
f 227/193/94 226/194/95 225/195/96
f 228/196/97 227/193/94 225/195/96
f 231/197/98 230/198/99 229/199/100
f 1/3/3 231/197/98 229/199/100
f 2/2/2 231/197/98 1/3/3
f 234/200/101 233/201/102 232/202/103
f 235/203/104 234/200/101 232/202/103
f 238/204/105 237/205/106 236/206/107
f 239/207/108 238/204/105 236/206/107
f 242/208/109 241/209/110 240/210/111
f 243/211/112 242/208/109 240/210/111
f 246/212/113 245/213/114 244/214/115
f 247/215/116 246/212/113 244/214/115
f 250/216/117 249/217/118 248/218/119
f 251/219/120 250/216/117 248/218/119
f 254/220/121 253/221/122 252/222/123
f 255/223/124 254/220/121 252/222/123
f 258/224/125 257/225/126 256/226/127
f 259/227/128 258/224/125 256/226/127
f 262/228/129 261/229/130 260/230/131
f 263/231/132 262/228/129 260/230/131
f 264/232/133 262/228/129 263/231/132
f 4/6/6 264/232/133 263/231/132
f 5/5/5 264/232/133 4/6/6
f 265/233/134 5/5/5 6/4/4
f 266/234/135 265/233/134 6/4/4
f 269/235/136 268/236/137 267/237/138
f 270/238/139 269/235/136 267/237/138
f 273/239/140 272/240/141 271/241/142
f 274/242/143 273/239/140 271/241/142
f 274/242/143 271/241/142 275/243/144
f 276/244/145 274/242/143 275/243/144
f 276/244/145 275/243/144 277/245/146
f 278/246/147 276/244/145 277/245/146
f 281/247/148 280/248/149 279/249/150
f 282/250/151 281/247/148 279/249/150
f 285/251/152 284/252/153 283/253/154
f 286/254/155 285/251/152 283/253/154
f 289/255/156 288/256/157 287/257/158
f 290/258/159 289/255/156 287/257/158
f 291/259/160 13/11/11 11/13/13
f 291/259/160 11/13/13 292/260/161
f 293/261/162 291/259/160 292/260/161
f 293/261/162 292/260/161 294/262/163
f 295/263/164 293/261/162 294/262/163
f 298/264/165 297/265/166 296/266/167
f 299/267/168 298/264/165 296/266/167
f 302/268/169 301/269/170 300/270/171
f 303/271/172 302/268/169 300/270/171
f 303/271/172 300/270/171 304/272/173
f 305/273/174 303/271/172 304/272/173
f 308/274/175 307/275/176 306/276/177
f 309/277/178 308/274/175 306/276/177
f 312/278/179 311/279/180 310/280/181
f 313/281/182 312/278/179 310/280/181
f 316/282/183 315/283/184 314/284/185
f 317/285/186 316/282/183 314/284/185
f 320/286/187 319/287/188 318/288/189
f 321/289/190 320/286/187 318/288/189
f 321/289/190 318/288/189 322/290/191
f 323/291/192 321/289/190 322/290/191
f 323/291/192 322/290/191 324/292/193
f 325/293/194 323/291/192 324/292/193
f 328/294/195 327/295/196 326/296/197
f 329/297/198 328/294/195 326/296/197
f 332/298/199 331/299/200 330/300/201
f 333/301/202 332/298/199 330/300/201
f 333/301/202 330/300/201 334/302/203
f 19/19/19 333/301/202 334/302/203
f 19/19/19 334/302/203 18/20/20
f 337/303/204 336/304/205 335/305/206
f 338/306/207 337/303/204 335/305/206
f 341/307/208 340/308/209 339/309/210
f 342/310/211 341/307/208 339/309/210
f 345/311/212 344/312/213 343/313/214
f 346/314/215 345/311/212 343/313/214
f 349/315/216 348/316/217 347/317/218
f 350/318/219 349/315/216 347/317/218
f 350/318/219 347/317/218 351/319/220
f 352/320/221 350/318/219 351/319/220
f 352/320/221 351/319/220 353/321/222
f 354/322/223 352/320/221 353/321/222
f 357/323/224 356/324/225 355/325/226
f 358/326/227 357/323/224 355/325/226
f 361/327/228 360/328/229 359/329/230
f 362/330/231 361/327/228 359/329/230
f 362/330/231 359/329/230 363/331/232
f 364/332/233 362/330/231 363/331/232
f 367/333/234 366/334/235 365/335/236
f 368/336/237 367/333/234 365/335/236
f 371/337/238 370/338/239 369/339/240
f 372/340/241 371/337/238 369/339/240
f 375/341/242 374/342/243 373/343/244
f 376/344/245 375/341/242 373/343/244
f 379/345/246 378/346/247 377/347/248
f 380/348/249 379/345/246 377/347/248
f 383/349/250 382/350/251 381/351/252
f 384/352/253 383/349/250 381/351/252
f 387/353/254 386/354/255 385/355/256
f 388/356/257 387/353/254 385/355/256
f 391/357/258 390/358/259 389/359/260
f 392/360/261 391/357/258 389/359/260
f 395/361/262 394/362/263 393/363/264
f 396/364/265 395/361/262 393/363/264
f 399/365/266 398/366/267 397/367/268
f 400/368/269 399/365/266 397/367/268
f 403/369/270 402/370/271 401/371/272
f 404/372/273 403/369/270 401/371/272
f 407/373/274 406/374/275 405/375/276
f 408/376/277 407/373/274 405/375/276
f 411/377/278 410/378/279 409/379/280
f 412/380/281 411/377/278 409/379/280
f 415/381/282 414/382/283 413/383/284
f 416/384/285 415/381/282 413/383/284
f 419/385/286 418/386/287 417/387/288
f 420/388/289 419/385/286 417/387/288
f 423/389/290 422/390/291 421/391/292
f 424/392/293 423/389/290 421/391/292
f 427/393/294 426/394/295 425/395/296
f 428/396/297 427/393/294 425/395/296
f 431/397/298 430/398/299 429/399/300
f 432/400/301 431/397/298 429/399/300
f 435/401/302 434/402/303 433/403/304
f 436/404/305 435/401/302 433/403/304
f 439/405/306 438/406/307 437/407/308
f 440/408/309 439/405/306 437/407/308
f 443/409/310 442/410/311 441/411/312
f 444/412/313 443/409/310 441/411/312
f 447/413/314 446/414/315 445/415/316
f 448/416/317 447/413/314 445/415/316
f 451/417/318 450/418/319 449/419/320
f 452/420/321 451/417/318 449/419/320
f 455/421/322 454/422/323 453/423/324
f 456/424/325 455/421/322 453/423/324
f 459/425/326 458/426/327 457/427/328
f 460/428/329 459/425/326 457/427/328
f 463/429/330 462/430/331 461/431/332
f 464/432/333 463/429/330 461/431/332
f 467/433/334 466/434/335 465/435/336
f 468/436/337 467/433/334 465/435/336
f 471/437/338 470/438/339 469/439/340
f 472/440/341 471/437/338 469/439/340
f 475/441/342 474/442/343 473/443/344
f 476/444/345 475/441/342 473/443/344
f 479/445/346 478/446/347 477/447/348
f 478/446/347 480/448/349 477/447/348
f 478/446/347 481/449/350 480/448/349
f 481/449/350 482/450/351 480/448/349
f 485/451/352 484/452/353 483/453/354
f 486/454/355 485/451/352 483/453/354
f 489/455/356 488/456/357 487/457/358
f 490/458/359 489/455/356 487/457/358
f 493/459/360 492/460/361 491/461/362
f 494/462/363 493/459/360 491/461/362
f 497/463/364 496/464/365 495/465/366
f 498/466/367 497/463/364 495/465/366
f 501/467/368 500/468/369 499/469/370
f 500/468/369 502/470/371 499/469/370
f 500/468/369 503/471/372 502/470/371
f 503/471/372 504/472/373 502/470/371
f 503/471/372 505/473/374 504/472/373
f 505/473/374 506/474/375 504/472/373
f 505/473/374 507/475/376 506/474/375
f 507/475/376 508/476/377 506/474/375
f 511/477/378 510/478/379 509/479/380
f 512/480/381 511/477/378 509/479/380
f 515/481/382 514/482/383 513/483/384
f 516/484/385 515/481/382 513/483/384
f 519/193/386 518/194/387 517/195/96
f 520/196/388 519/193/386 517/195/96
f 523/197/389 522/198/390 521/199/391
f 49/3/51 523/197/389 521/199/391
f 50/2/50 523/197/389 49/3/51
f 526/485/101 525/486/102 524/202/392
f 527/203/393 526/485/101 524/202/392
f 530/204/394 529/205/106 528/206/107
f 531/207/108 530/204/394 528/206/107
f 534/208/395 533/209/110 532/487/396
f 535/488/397 534/208/395 532/487/396
f 538/212/398 537/213/114 536/214/115
f 539/215/399 538/212/398 536/214/115
f 542/489/117 541/490/118 540/491/119
f 543/492/120 542/489/117 540/491/119
f 546/220/121 545/221/122 544/222/123
f 547/223/400 546/220/121 544/222/123
f 550/224/125 549/225/126 548/226/127
f 551/227/128 550/224/125 548/226/127
f 554/228/129 553/229/401 552/230/131
f 555/231/132 554/228/129 552/230/131
f 556/232/133 554/228/129 555/231/132
f 52/6/52 556/232/133 555/231/132
f 53/5/5 556/232/133 52/6/52
f 557/233/134 53/5/5 54/4/4
f 558/234/135 557/233/134 54/4/4
f 561/235/136 560/236/137 559/237/138
f 562/238/139 561/235/136 559/237/138
f 565/239/402 564/240/403 563/241/404
f 566/242/405 565/239/402 563/241/404
f 566/242/405 563/241/404 567/243/144
f 568/244/406 566/242/405 567/243/144
f 568/244/406 567/243/144 569/245/146
f 570/246/407 568/244/406 569/245/146
f 573/247/408 572/248/149 571/493/409
f 574/494/151 573/247/408 571/493/409
f 577/251/152 576/252/410 575/253/411
f 578/254/412 577/251/152 575/253/411
f 581/255/413 580/256/157 579/257/158
f 582/258/414 581/255/413 579/257/158
f 583/259/415 61/11/53 59/13/55
f 583/259/415 59/13/55 584/260/416
f 585/261/417 583/259/415 584/260/416
f 585/261/417 584/260/416 586/262/418
f 587/263/164 585/261/417 586/262/418
f 590/264/165 589/265/419 588/266/420
f 591/267/421 590/264/165 588/266/420
f 594/495/422 593/496/423 592/497/171
f 595/498/172 594/495/422 592/497/171
f 595/498/172 592/497/171 596/499/173
f 597/500/174 595/498/172 596/499/173
f 600/501/175 599/502/176 598/503/177
f 601/504/424 600/501/175 598/503/177
f 604/505/179 603/506/425 602/507/181
f 605/508/182 604/505/179 602/507/181
f 608/509/183 607/510/184 606/511/185
f 609/512/186 608/509/183 606/511/185
f 612/286/426 611/287/188 610/288/427
f 613/289/428 612/286/426 610/288/427
f 613/289/428 610/288/427 614/290/429
f 615/291/430 613/289/428 614/290/429
f 615/291/430 614/290/429 616/292/193
f 617/293/194 615/291/430 616/292/193
f 620/513/195 619/514/196 618/515/197
f 621/516/198 620/513/195 618/515/197
f 624/517/431 623/518/432 622/300/433
f 625/301/434 624/517/431 622/300/433
f 625/301/434 622/300/433 626/302/203
f 67/19/19 625/301/434 626/302/203
f 67/19/19 626/302/203 66/20/20
f 629/303/204 628/304/205 627/305/206
f 630/306/435 629/303/204 627/305/206
f 633/519/208 632/520/436 631/521/210
f 634/522/211 633/519/208 631/521/210
f 637/311/212 636/312/213 635/523/437
f 638/524/215 637/311/212 635/523/437
f 641/315/438 640/316/217 639/317/439
f 642/318/440 641/315/438 639/317/439
f 642/318/440 639/317/439 643/319/441
f 644/320/441 642/318/440 643/319/441
f 644/320/441 643/319/441 645/525/222
f 646/526/442 644/320/441 645/525/222
f 649/527/224 648/528/443 647/529/226
f 650/530/444 649/527/224 647/529/226
f 653/327/445 652/328/446 651/329/447
f 654/330/231 653/327/445 651/329/447
f 654/330/231 651/329/447 655/331/232
f 656/332/233 654/330/231 655/331/232
f 659/333/234 658/334/235 657/335/236
f 660/336/237 659/333/234 657/335/236
f 663/337/448 662/338/449 661/339/450
f 664/340/451 663/337/448 661/339/450
f 667/341/242 666/342/243 665/343/244
f 668/344/452 667/341/242 665/343/244
f 671/531/453 670/532/454 669/533/248
f 672/534/455 671/531/453 669/533/248
f 675/349/250 674/350/456 673/351/252
f 676/352/457 675/349/250 673/351/252
f 679/353/254 678/354/255 677/355/256
f 680/356/257 679/353/254 677/355/256
f 683/357/258 682/358/458 681/359/459
f 684/360/460 683/357/258 681/359/459
f 687/535/461 686/536/263 685/537/264
f 688/538/462 687/535/461 685/537/264
f 691/539/463 690/540/464 689/367/465
f 692/368/269 691/539/463 689/367/465
f 695/541/270 694/542/271 693/543/272
f 696/544/466 695/541/270 693/543/272
f 699/545/274 698/546/275 697/547/276
f 700/548/277 699/545/274 697/547/276
f 703/549/467 702/550/468 701/551/280
f 704/552/469 703/549/467 701/551/280
f 707/553/282 706/554/283 705/555/470
f 708/556/285 707/553/282 705/555/470
f 711/557/286 710/558/287 709/559/288
f 712/560/289 711/557/286 709/559/288
f 715/561/290 714/562/471 713/563/292
f 716/564/293 715/561/290 713/563/292
f 719/393/294 718/394/472 717/565/473
f 720/566/474 719/393/294 717/565/473
f 723/397/298 722/398/475 721/399/300
f 724/400/301 723/397/298 721/399/300
f 727/567/302 726/568/303 725/569/304
f 728/570/305 727/567/302 725/569/304
f 731/571/306 730/572/307 729/407/308
f 732/408/309 731/571/306 729/407/308
f 735/573/310 734/574/311 733/575/312
f 736/576/313 735/573/310 733/575/312
f 739/577/314 738/578/315 737/579/316
f 740/580/317 739/577/314 737/579/316
f 743/581/318 742/582/319 741/583/320
f 744/584/321 743/581/318 741/583/320
f 747/585/322 746/586/476 745/587/324
f 748/588/325 747/585/322 745/587/324
f 751/589/326 750/590/327 749/591/328
f 752/592/329 751/589/326 749/591/328
f 755/593/330 754/594/477 753/595/332
f 756/596/333 755/593/330 753/595/332
f 759/597/334 758/598/335 757/599/478
f 760/600/337 759/597/334 757/599/478
f 763/601/479 762/602/339 761/603/340
f 764/604/341 763/601/479 761/603/340
f 767/605/480 766/606/343 765/607/344
f 768/608/345 767/605/480 765/607/344
f 771/445/481 770/446/347 769/447/482
f 770/446/347 772/448/349 769/447/482
f 770/446/347 773/449/483 772/448/349
f 773/449/483 774/450/484 772/448/349
f 777/609/352 776/610/353 775/611/354
f 778/612/355 777/609/352 775/611/354
f 781/613/356 780/614/485 779/615/358
f 782/616/359 781/613/356 779/615/358
f 785/459/486 784/460/487 783/461/488
f 786/462/363 785/459/486 783/461/488
f 789/617/364 788/618/365 787/619/366
f 790/620/367 789/617/364 787/619/366
f 793/467/489 792/468/490 791/469/370
f 792/468/490 794/470/371 791/469/370
f 792/468/490 795/471/491 794/470/371
f 795/471/491 796/472/492 794/470/371
f 795/471/491 797/473/374 796/472/492
f 797/473/374 798/474/375 796/472/492
f 797/473/374 799/475/376 798/474/375
f 799/475/376 800/476/493 798/474/375
f 803/621/378 802/622/379 801/623/380
f 804/624/381 803/621/378 801/623/380
f 807/625/382 806/626/383 805/627/384
f 808/628/385 807/625/382 805/627/384
f 811/629/494 810/630/495 809/631/495
f 812/632/494 811/629/494 809/631/495
f 815/633/496 814/634/497 813/635/497
f 816/636/496 815/633/496 813/635/497
f 819/637/498 818/638/499 817/639/499
f 820/640/498 819/637/498 817/639/499
f 823/641/500 822/642/501 821/643/501
f 824/644/500 823/641/500 821/643/501
f 827/645/502 826/646/503 825/647/504
f 828/648/505 827/645/502 825/647/504
f 826/646/503 827/645/502 829/649/506
f 828/648/505 825/647/504 830/650/507
f 831/651/508 826/646/503 829/649/506
f 832/652/509 828/648/505 830/650/507
f 829/649/506 833/653/510 831/651/508
f 832/652/509 830/650/507 834/654/511
f 833/653/510 835/655/512 831/651/508
f 836/656/513 832/652/509 834/654/511
f 835/655/512 833/653/510 837/657/514
f 834/654/511 838/658/515 836/656/513
f 839/659/516 835/655/512 837/657/514
f 838/658/515 840/660/517 836/656/513
f 837/657/514 840/660/517 839/659/516
f 840/660/517 838/658/515 839/659/516
f 843/661/518 842/662/519 841/663/520
f 844/664/521 843/661/518 841/663/520
f 842/662/519 843/661/518 845/665/522
f 844/664/521 841/663/520 846/666/523
f 847/667/524 842/662/519 845/665/522
f 848/668/525 844/664/521 846/666/523
f 845/665/522 849/669/526 847/667/524
f 848/668/525 846/666/523 850/670/527
f 849/669/526 851/671/528 847/667/524
f 852/672/529 848/668/525 850/670/527
f 851/671/528 849/669/526 853/673/530
f 850/670/527 854/674/531 852/672/529
f 855/675/532 851/671/528 853/673/530
f 854/674/531 856/676/533 852/672/529
f 853/673/530 856/676/533 855/675/532
f 856/676/533 854/674/531 855/675/532
f 3/1/1 2/2/2 1/3/3
f 6/4/4 5/5/5 4/6/6
f 9/7/7 8/8/8 7/9/9
f 10/10/10 9/7/7 7/9/9
f 13/11/11 12/12/12 11/13/13
f 16/14/14 15/15/15 14/16/16
f 17/17/17 16/14/14 14/16/16
f 20/18/18 19/19/19 18/20/20
f 23/21/21 22/22/22 21/23/23
f 24/24/24 23/21/21 21/23/23
f 27/25/25 26/26/26 25/27/27
f 28/28/28 27/25/25 25/27/27
f 27/25/25 29/29/29 26/26/26
f 29/29/29 30/30/30 26/26/26
f 29/29/29 31/31/31 30/30/30
f 31/31/31 32/32/32 30/30/30
f 35/33/33 34/34/34 33/35/35
f 36/36/36 35/33/33 33/35/35
f 39/37/37 38/38/38 37/39/39
f 40/40/40 39/37/37 37/39/39
f 43/41/41 42/42/42 41/43/43
f 44/44/44 43/41/41 41/43/43
f 47/45/45 46/46/46 45/47/47
f 48/48/48 47/45/45 45/47/47
f 51/1/49 50/2/50 49/3/51
f 54/4/4 53/5/5 52/6/52
f 57/49/7 56/50/8 55/9/9
f 58/10/10 57/49/7 55/9/9
f 61/11/53 60/12/54 59/13/55
f 64/51/56 63/52/57 62/53/58
f 65/54/59 64/51/56 62/53/58
f 68/18/18 67/19/19 66/20/20
f 71/55/60 70/56/61 69/57/23
f 72/58/24 71/55/60 69/57/23
f 75/25/62 74/26/63 73/27/27
f 76/28/28 75/25/62 73/27/27
f 75/25/62 77/29/64 74/26/63
f 77/29/64 78/30/65 74/26/63
f 77/29/64 79/59/66 78/30/65
f 79/59/66 80/60/67 78/30/65
f 83/33/33 82/34/34 81/35/68
f 84/36/36 83/33/33 81/35/68
f 87/37/37 86/38/38 85/39/39
f 88/40/40 87/37/37 85/39/39
f 91/41/41 90/42/42 89/43/43
f 92/44/69 91/41/41 89/43/43
f 95/61/45 94/62/46 93/63/47
f 96/64/48 95/61/45 93/63/47
f 99/65/70 98/66/70 97/67/70
f 97/67/70 100/68/70 99/65/70
f 100/68/70 101/69/70 99/65/70
f 100/68/70 102/70/70 101/69/70
f 102/70/70 103/71/70 101/69/70
f 102/70/70 104/72/70 103/71/70
f 104/72/70 105/73/70 103/71/70
f 104/72/70 106/74/70 105/73/70
f 106/74/70 107/75/70 105/73/70
f 106/74/70 108/76/70 107/75/70
f 108/76/70 109/77/70 107/75/70
f 108/76/70 110/78/70 109/77/70
f 110/78/70 111/79/70 109/77/70
f 110/78/70 112/80/70 111/79/70
f 115/81/71 114/82/72 113/83/72
f 116/84/71 115/81/71 113/83/72
f 119/85/73 118/86/73 117/87/73
f 120/88/73 119/85/73 117/87/73
f 123/89/74 122/90/74 121/91/74
f 124/92/74 123/89/74 121/91/74
f 127/93/75 126/94/76 125/95/76
f 128/96/75 127/93/75 125/95/76
f 131/97/77 130/98/77 129/99/77
f 132/100/77 131/97/77 129/99/77
f 135/101/78 134/102/78 133/103/78
f 136/104/78 135/101/78 133/103/78
f 139/105/79 138/106/79 137/107/79
f 140/108/79 139/105/79 137/107/79
f 143/109/80 142/110/80 141/111/80
f 144/112/80 143/109/80 141/111/80
f 147/113/81 146/114/81 145/115/81
f 148/116/81 147/113/81 145/115/81
f 151/117/82 150/118/82 149/119/82
f 152/120/82 151/117/82 149/119/82
f 155/121/83 154/122/83 153/123/83
f 156/124/83 155/121/83 153/123/83
f 159/125/84 158/126/84 157/127/84
f 160/128/84 159/125/84 157/127/84
f 163/129/85 162/130/85 161/131/85
f 164/132/85 163/129/85 161/131/85
f 167/133/86 166/134/86 165/135/86
f 168/136/86 167/133/86 165/135/86
f 171/137/87 170/138/87 169/139/87
f 172/140/87 171/137/87 169/139/87
f 175/141/88 174/142/88 173/143/88
f 176/144/88 175/141/88 173/143/88
f 179/145/89 178/146/89 177/147/89
f 177/147/89 180/148/89 179/145/89
f 180/148/89 181/149/89 179/145/89
f 180/148/89 182/150/89 181/149/89
f 182/150/89 183/151/89 181/149/89
f 182/150/89 184/152/89 183/151/89
f 184/152/89 185/153/89 183/151/89
f 184/152/89 186/154/89 185/153/89
f 186/154/89 187/155/89 185/153/89
f 186/154/89 188/156/89 187/155/89
f 188/156/89 189/157/89 187/155/89
f 188/156/89 190/158/89 189/157/89
f 190/158/89 191/159/89 189/157/89
f 190/158/89 192/160/89 191/159/89
f 195/161/70 194/162/70 193/163/70
f 193/163/70 196/164/70 195/161/70
f 193/163/70 197/165/70 196/164/70
f 197/165/70 198/166/70 196/164/70
f 197/165/70 199/167/70 198/166/70
f 199/167/70 200/168/70 198/166/70
f 203/169/90 202/170/90 201/171/90
f 204/172/90 203/169/90 201/171/90
f 207/173/91 206/174/91 205/175/91
f 208/176/91 207/173/91 205/175/91
f 211/177/92 210/178/92 209/179/92
f 212/180/92 211/177/92 209/179/92
f 215/181/93 214/182/93 213/183/93
f 216/184/93 215/181/93 213/183/93
f 219/185/89 218/186/89 217/187/89
f 217/187/89 220/188/89 219/185/89
f 217/187/89 221/189/89 220/188/89
f 221/189/89 222/190/89 220/188/89
f 221/189/89 223/191/89 222/190/89
f 223/191/89 224/192/89 222/190/89
f 227/193/94 226/194/95 225/195/96
f 228/196/97 227/193/94 225/195/96
f 231/197/98 230/198/99 229/199/100
f 1/3/3 231/197/98 229/199/100
f 2/2/2 231/197/98 1/3/3
f 234/200/101 233/201/102 232/202/103
f 235/203/104 234/200/101 232/202/103
f 238/204/105 237/205/106 236/206/107
f 239/207/108 238/204/105 236/206/107
f 242/208/109 241/209/110 240/210/111
f 243/211/112 242/208/109 240/210/111
f 246/212/113 245/213/114 244/214/115
f 247/215/116 246/212/113 244/214/115
f 250/216/117 249/217/118 248/218/119
f 251/219/120 250/216/117 248/218/119
f 254/220/121 253/221/122 252/222/123
f 255/223/124 254/220/121 252/222/123
f 258/224/125 257/225/126 256/226/127
f 259/227/128 258/224/125 256/226/127
f 262/228/129 261/229/130 260/230/131
f 263/231/132 262/228/129 260/230/131
f 264/232/133 262/228/129 263/231/132
f 4/6/6 264/232/133 263/231/132
f 5/5/5 264/232/133 4/6/6
f 265/233/134 5/5/5 6/4/4
f 266/234/135 265/233/134 6/4/4
f 269/235/136 268/236/137 267/237/138
f 270/238/139 269/235/136 267/237/138
f 273/239/140 272/240/141 271/241/142
f 274/242/143 273/239/140 271/241/142
f 274/242/143 271/241/142 275/243/144
f 276/244/145 274/242/143 275/243/144
f 276/244/145 275/243/144 277/245/146
f 278/246/147 276/244/145 277/245/146
f 281/247/148 280/248/149 279/249/150
f 282/250/151 281/247/148 279/249/150
f 285/251/152 284/252/153 283/253/154
f 286/254/155 285/251/152 283/253/154
f 289/255/156 288/256/157 287/257/158
f 290/258/159 289/255/156 287/257/158
f 291/259/160 13/11/11 11/13/13
f 291/259/160 11/13/13 292/260/161
f 293/261/162 291/259/160 292/260/161
f 293/261/162 292/260/161 294/262/163
f 295/263/164 293/261/162 294/262/163
f 298/264/165 297/265/166 296/266/167
f 299/267/168 298/264/165 296/266/167
f 302/268/169 301/269/170 300/270/171
f 303/271/172 302/268/169 300/270/171
f 303/271/172 300/270/171 304/272/173
f 305/273/174 303/271/172 304/272/173
f 308/274/175 307/275/176 306/276/177
f 309/277/178 308/274/175 306/276/177
f 312/278/179 311/279/180 310/280/181
f 313/281/182 312/278/179 310/280/181
f 316/282/183 315/283/184 314/284/185
f 317/285/186 316/282/183 314/284/185
f 320/286/187 319/287/188 318/288/189
f 321/289/190 320/286/187 318/288/189
f 321/289/190 318/288/189 322/290/191
f 323/291/192 321/289/190 322/290/191
f 323/291/192 322/290/191 324/292/193
f 325/293/194 323/291/192 324/292/193
f 328/294/195 327/295/196 326/296/197
f 329/297/198 328/294/195 326/296/197
f 332/298/199 331/299/200 330/300/201
f 333/301/202 332/298/199 330/300/201
f 333/301/202 330/300/201 334/302/203
f 19/19/19 333/301/202 334/302/203
f 19/19/19 334/302/203 18/20/20
f 337/303/204 336/304/205 335/305/206
f 338/306/207 337/303/204 335/305/206
f 341/307/208 340/308/209 339/309/210
f 342/310/211 341/307/208 339/309/210
f 345/311/212 344/312/213 343/313/214
f 346/314/215 345/311/212 343/313/214
f 349/315/216 348/316/217 347/317/218
f 350/318/219 349/315/216 347/317/218
f 350/318/219 347/317/218 351/319/220
f 352/320/221 350/318/219 351/319/220
f 352/320/221 351/319/220 353/321/222
f 354/322/223 352/320/221 353/321/222
f 357/323/224 356/324/225 355/325/226
f 358/326/227 357/323/224 355/325/226
f 361/327/228 360/328/229 359/329/230
f 362/330/231 361/327/228 359/329/230
f 362/330/231 359/329/230 363/331/232
f 364/332/233 362/330/231 363/331/232
f 367/333/234 366/334/235 365/335/236
f 368/336/237 367/333/234 365/335/236
f 371/337/238 370/338/239 369/339/240
f 372/340/241 371/337/238 369/339/240
f 375/341/242 374/342/243 373/343/244
f 376/344/245 375/341/242 373/343/244
f 379/345/246 378/346/247 377/347/248
f 380/348/249 379/345/246 377/347/248
f 383/349/250 382/350/251 381/351/252
f 384/352/253 383/349/250 381/351/252
f 387/353/254 386/354/255 385/355/256
f 388/356/257 387/353/254 385/355/256
f 391/357/258 390/358/259 389/359/260
f 392/360/261 391/357/258 389/359/260
f 395/361/262 394/362/263 393/363/264
f 396/364/265 395/361/262 393/363/264
f 399/365/266 398/366/267 397/367/268
f 400/368/269 399/365/266 397/367/268
f 403/369/270 402/370/271 401/371/272
f 404/372/273 403/369/270 401/371/272
f 407/373/274 406/374/275 405/375/276
f 408/376/277 407/373/274 405/375/276
f 411/377/278 410/378/279 409/379/280
f 412/380/281 411/377/278 409/379/280
f 415/381/282 414/382/283 413/383/284
f 416/384/285 415/381/282 413/383/284
f 419/385/286 418/386/287 417/387/288
f 420/388/289 419/385/286 417/387/288
f 423/389/290 422/390/291 421/391/292
f 424/392/293 423/389/290 421/391/292
f 427/393/294 426/394/295 425/395/296
f 428/396/297 427/393/294 425/395/296
f 431/397/298 430/398/299 429/399/300
f 432/400/301 431/397/298 429/399/300
f 435/401/302 434/402/303 433/403/304
f 436/404/305 435/401/302 433/403/304
f 439/405/306 438/406/307 437/407/308
f 440/408/309 439/405/306 437/407/308
f 443/409/310 442/410/311 441/411/312
f 444/412/313 443/409/310 441/411/312
f 447/413/314 446/414/315 445/415/316
f 448/416/317 447/413/314 445/415/316
f 451/417/318 450/418/319 449/419/320
f 452/420/321 451/417/318 449/419/320
f 455/421/322 454/422/323 453/423/324
f 456/424/325 455/421/322 453/423/324
f 459/425/326 458/426/327 457/427/328
f 460/428/329 459/425/326 457/427/328
f 463/429/330 462/430/331 461/431/332
f 464/432/333 463/429/330 461/431/332
f 467/433/334 466/434/335 465/435/336
f 468/436/337 467/433/334 465/435/336
f 471/437/338 470/438/339 469/439/340
f 472/440/341 471/437/338 469/439/340
f 475/441/342 474/442/343 473/443/344
f 476/444/345 475/441/342 473/443/344
f 479/445/346 478/446/347 477/447/348
f 478/446/347 480/448/349 477/447/348
f 478/446/347 481/449/350 480/448/349
f 481/449/350 482/450/351 480/448/349
f 485/451/352 484/452/353 483/453/354
f 486/454/355 485/451/352 483/453/354
f 489/455/356 488/456/357 487/457/358
f 490/458/359 489/455/356 487/457/358
f 493/459/360 492/460/361 491/461/362
f 494/462/363 493/459/360 491/461/362
f 497/463/364 496/464/365 495/465/366
f 498/466/367 497/463/364 495/465/366
f 501/467/368 500/468/369 499/469/370
f 500/468/369 502/470/371 499/469/370
f 500/468/369 503/471/372 502/470/371
f 503/471/372 504/472/373 502/470/371
f 503/471/372 505/473/374 504/472/373
f 505/473/374 506/474/375 504/472/373
f 505/473/374 507/475/376 506/474/375
f 507/475/376 508/476/377 506/474/375
f 511/477/378 510/478/379 509/479/380
f 512/480/381 511/477/378 509/479/380
f 515/481/382 514/482/383 513/483/384
f 516/484/385 515/481/382 513/483/384
f 519/193/386 518/194/387 517/195/96
f 520/196/388 519/193/386 517/195/96
f 523/197/389 522/198/390 521/199/391
f 49/3/51 523/197/389 521/199/391
f 50/2/50 523/197/389 49/3/51
f 526/485/101 525/486/102 524/202/392
f 527/203/393 526/485/101 524/202/392
f 530/204/394 529/205/106 528/206/107
f 531/207/108 530/204/394 528/206/107
f 534/208/395 533/209/110 532/487/396
f 535/488/397 534/208/395 532/487/396
f 538/212/398 537/213/114 536/214/115
f 539/215/399 538/212/398 536/214/115
f 542/489/117 541/490/118 540/491/119
f 543/492/120 542/489/117 540/491/119
f 546/220/121 545/221/122 544/222/123
f 547/223/400 546/220/121 544/222/123
f 550/224/125 549/225/126 548/226/127
f 551/227/128 550/224/125 548/226/127
f 554/228/129 553/229/401 552/230/131
f 555/231/132 554/228/129 552/230/131
f 556/232/133 554/228/129 555/231/132
f 52/6/52 556/232/133 555/231/132
f 53/5/5 556/232/133 52/6/52
f 557/233/134 53/5/5 54/4/4
f 558/234/135 557/233/134 54/4/4
f 561/235/136 560/236/137 559/237/138
f 562/238/139 561/235/136 559/237/138
f 565/239/402 564/240/403 563/241/404
f 566/242/405 565/239/402 563/241/404
f 566/242/405 563/241/404 567/243/144
f 568/244/406 566/242/405 567/243/144
f 568/244/406 567/243/144 569/245/146
f 570/246/407 568/244/406 569/245/146
f 573/247/408 572/248/149 571/493/409
f 574/494/151 573/247/408 571/493/409
f 577/251/152 576/252/410 575/253/411
f 578/254/412 577/251/152 575/253/411
f 581/255/413 580/256/157 579/257/158
f 582/258/414 581/255/413 579/257/158
f 583/259/415 61/11/53 59/13/55
f 583/259/415 59/13/55 584/260/416
f 585/261/417 583/259/415 584/260/416
f 585/261/417 584/260/416 586/262/418
f 587/263/164 585/261/417 586/262/418
f 590/264/165 589/265/419 588/266/420
f 591/267/421 590/264/165 588/266/420
f 594/495/422 593/496/423 592/497/171
f 595/498/172 594/495/422 592/497/171
f 595/498/172 592/497/171 596/499/173
f 597/500/174 595/498/172 596/499/173
f 600/501/175 599/502/176 598/503/177
f 601/504/424 600/501/175 598/503/177
f 604/505/179 603/506/425 602/507/181
f 605/508/182 604/505/179 602/507/181
f 608/509/183 607/510/184 606/511/185
f 609/512/186 608/509/183 606/511/185
f 612/286/426 611/287/188 610/288/427
f 613/289/428 612/286/426 610/288/427
f 613/289/428 610/288/427 614/290/429
f 615/291/430 613/289/428 614/290/429
f 615/291/430 614/290/429 616/292/193
f 617/293/194 615/291/430 616/292/193
f 620/513/195 619/514/196 618/515/197
f 621/516/198 620/513/195 618/515/197
f 624/517/431 623/518/432 622/300/433
f 625/301/434 624/517/431 622/300/433
f 625/301/434 622/300/433 626/302/203
f 67/19/19 625/301/434 626/302/203
f 67/19/19 626/302/203 66/20/20
f 629/303/204 628/304/205 627/305/206
f 630/306/435 629/303/204 627/305/206
f 633/519/208 632/520/436 631/521/210
f 634/522/211 633/519/208 631/521/210
f 637/311/212 636/312/213 635/523/437
f 638/524/215 637/311/212 635/523/437
f 641/315/438 640/316/217 639/317/439
f 642/318/440 641/315/438 639/317/439
f 642/318/440 639/317/439 643/319/441
f 644/320/441 642/318/440 643/319/441
f 644/320/441 643/319/441 645/525/222
f 646/526/442 644/320/441 645/525/222
f 649/527/224 648/528/443 647/529/226
f 650/530/444 649/527/224 647/529/226
f 653/327/445 652/328/446 651/329/447
f 654/330/231 653/327/445 651/329/447
f 654/330/231 651/329/447 655/331/232
f 656/332/233 654/330/231 655/331/232
f 659/333/234 658/334/235 657/335/236
f 660/336/237 659/333/234 657/335/236
f 663/337/448 662/338/449 661/339/450
f 664/340/451 663/337/448 661/339/450
f 667/341/242 666/342/243 665/343/244
f 668/344/452 667/341/242 665/343/244
f 671/531/453 670/532/454 669/533/248
f 672/534/455 671/531/453 669/533/248
f 675/349/250 674/350/456 673/351/252
f 676/352/457 675/349/250 673/351/252
f 679/353/254 678/354/255 677/355/256
f 680/356/257 679/353/254 677/355/256
f 683/357/258 682/358/458 681/359/459
f 684/360/460 683/357/258 681/359/459
f 687/535/461 686/536/263 685/537/264
f 688/538/462 687/535/461 685/537/264
f 691/539/463 690/540/464 689/367/465
f 692/368/269 691/539/463 689/367/465
f 695/541/270 694/542/271 693/543/272
f 696/544/466 695/541/270 693/543/272
f 699/545/274 698/546/275 697/547/276
f 700/548/277 699/545/274 697/547/276
f 703/549/467 702/550/468 701/551/280
f 704/552/469 703/549/467 701/551/280
f 707/553/282 706/554/283 705/555/470
f 708/556/285 707/553/282 705/555/470
f 711/557/286 710/558/287 709/559/288
f 712/560/289 711/557/286 709/559/288
f 715/561/290 714/562/471 713/563/292
f 716/564/293 715/561/290 713/563/292
f 719/393/294 718/394/472 717/565/473
f 720/566/474 719/393/294 717/565/473
f 723/397/298 722/398/475 721/399/300
f 724/400/301 723/397/298 721/399/300
f 727/567/302 726/568/303 725/569/304
f 728/570/305 727/567/302 725/569/304
f 731/571/306 730/572/307 729/407/308
f 732/408/309 731/571/306 729/407/308
f 735/573/310 734/574/311 733/575/312
f 736/576/313 735/573/310 733/575/312
f 739/577/314 738/578/315 737/579/316
f 740/580/317 739/577/314 737/579/316
f 743/581/318 742/582/319 741/583/320
f 744/584/321 743/581/318 741/583/320
f 747/585/322 746/586/476 745/587/324
f 748/588/325 747/585/322 745/587/324
f 751/589/326 750/590/327 749/591/328
f 752/592/329 751/589/326 749/591/328
f 755/593/330 754/594/477 753/595/332
f 756/596/333 755/593/330 753/595/332
f 759/597/334 758/598/335 757/599/478
f 760/600/337 759/597/334 757/599/478
f 763/601/479 762/602/339 761/603/340
f 764/604/341 763/601/479 761/603/340
f 767/605/480 766/606/343 765/607/344
f 768/608/345 767/605/480 765/607/344
f 771/445/481 770/446/347 769/447/482
f 770/446/347 772/448/349 769/447/482
f 770/446/347 773/449/483 772/448/349
f 773/449/483 774/450/484 772/448/349
f 777/609/352 776/610/353 775/611/354
f 778/612/355 777/609/352 775/611/354
f 781/613/356 780/614/485 779/615/358
f 782/616/359 781/613/356 779/615/358
f 785/459/486 784/460/487 783/461/488
f 786/462/363 785/459/486 783/461/488
f 789/617/364 788/618/365 787/619/366
f 790/620/367 789/617/364 787/619/366
f 793/467/489 792/468/490 791/469/370
f 792/468/490 794/470/371 791/469/370
f 792/468/490 795/471/491 794/470/371
f 795/471/491 796/472/492 794/470/371
f 795/471/491 797/473/374 796/472/492
f 797/473/374 798/474/375 796/472/492
f 797/473/374 799/475/376 798/474/375
f 799/475/376 800/476/493 798/474/375
f 803/621/378 802/622/379 801/623/380
f 804/624/381 803/621/378 801/623/380
f 807/625/382 806/626/383 805/627/384
f 808/628/385 807/625/382 805/627/384
f 811/629/494 810/630/495 809/631/495
f 812/632/494 811/629/494 809/631/495
f 815/633/496 814/634/497 813/635/497
f 816/636/496 815/633/496 813/635/497
f 819/637/498 818/638/499 817/639/499
f 820/640/498 819/637/498 817/639/499
f 823/641/500 822/642/501 821/643/501
f 824/644/500 823/641/500 821/643/501
f 827/645/502 826/646/503 825/647/504
f 828/648/505 827/645/502 825/647/504
f 826/646/503 827/645/502 829/649/506
f 828/648/505 825/647/504 830/650/507
f 831/651/508 826/646/503 829/649/506
f 832/652/509 828/648/505 830/650/507
f 829/649/506 833/653/510 831/651/508
f 832/652/509 830/650/507 834/654/511
f 833/653/510 835/655/512 831/651/508
f 836/656/513 832/652/509 834/654/511
f 835/655/512 833/653/510 837/657/514
f 834/654/511 838/658/515 836/656/513
f 839/659/516 835/655/512 837/657/514
f 838/658/515 840/660/517 836/656/513
f 837/657/514 840/660/517 839/659/516
f 840/660/517 838/658/515 839/659/516
f 843/661/518 842/662/519 841/663/520
f 844/664/521 843/661/518 841/663/520
f 842/662/519 843/661/518 845/665/522
f 844/664/521 841/663/520 846/666/523
f 847/667/524 842/662/519 845/665/522
f 848/668/525 844/664/521 846/666/523
f 845/665/522 849/669/526 847/667/524
f 848/668/525 846/666/523 850/670/527
f 849/669/526 851/671/528 847/667/524
f 852/672/529 848/668/525 850/670/527
f 851/671/528 849/669/526 853/673/530
f 850/670/527 854/674/531 852/672/529
f 855/675/532 851/671/528 853/673/530
f 854/674/531 856/676/533 852/672/529
f 853/673/530 856/676/533 855/675/532
f 856/676/533 854/674/531 855/675/532
