mtllib mesh_72f6a7fa.mtl
v -2.43 -0.09999 -2.9
v -2.43 -0.09999 2.5
v 2.40001 -0.09999 2.5
v 2.40001 -0.09999 -2.9
v -2.43 0 -2.9
v -2.43 -0.09999 -2.9
v 2.40001 -0.09999 -2.9
v 2.40001 0 -2.9
v 2.40001 0 -2.9
v 2.40001 -0.09999 -2.9
v 2.40001 -0.09999 2.5
v 2.40001 0 2.5
v 2.40001 0 2.5
v 2.40001 -0.09999 2.5
v -2.43 -0.09999 2.5
v -2.43 0 2.5
v -2.43 0 2.5
v -2.43 -0.09999 2.5
v -2.43 -0.09999 -2.9
v -2.43 0 -2.9
v -2.43 0 -2.9
v 2.40001 0 -2.9
v 2.40001 0 2.5
v -2.43 0 2.5
v -2.43 -0.09999 -2.9
v -2.43 -0.09999 2.5
v 2.40001 -0.09999 2.5
v 2.40001 -0.09999 -2.9
v -2.43 0 -2.9
v -2.43 -0.09999 -2.9
v 2.40001 -0.09999 -2.9
v 2.40001 0 -2.9
v 2.40001 0 -2.9
v 2.40001 -0.09999 -2.9
v 2.40001 -0.09999 2.5
v 2.40001 0 2.5
v 2.40001 0 2.5
v 2.40001 -0.09999 2.5
v -2.43 -0.09999 2.5
v -2.43 0 2.5
v -2.43 0 2.5
v -2.43 -0.09999 2.5
v -2.43 -0.09999 -2.9
v -2.43 0 -2.9
v -2.43 0 -2.9
v 2.40001 0 -2.9
v 2.40001 0 2.5
v -2.43 0 2.5
vt 1.096898 -1.294894
vt 1.096898 4.317621
vt 5.744012 4.317621
vt 5.744012 -1.294894
vt 3.948282 2.729899
vt 3.948282 2.440555
vt 2.278991 2.440555
vt 2.278991 2.729899
vt 2.702824 1.19033
vt 2.702824 0.9119422
vt 0.7630854 0.9119422
vt 0.7630854 1.19033
vt 3.948283 3.036717
vt 3.948283 2.747374
vt 2.27899 2.747374
vt 2.27899 3.036717
vt 2.702823 0.8835123
vt 2.702823 0.6051241
vt 0.7630861 0.6051241
vt 0.7630861 0.8835123
vt 3.903103 -0.6812565
vt -0.7440121 -0.6812565
vt -0.7440121 4.931257
vt 3.903103 4.931257
vt 1.096898 -1.294894
vt 1.096898 4.317621
vt 5.744012 4.317621
vt 5.744012 -1.294894
vt 3.948282 2.729899
vt 3.948282 2.440555
vt 2.278991 2.440555
vt 2.278991 2.729899
vt 2.702824 1.19033
vt 2.702824 0.9119422
vt 0.7630854 0.9119422
vt 0.7630854 1.19033
vt 3.948283 3.036717
vt 3.948283 2.747374
vt 2.27899 2.747374
vt 2.27899 3.036717
vt 2.702823 0.8835123
vt 2.702823 0.6051241
vt 0.7630861 0.6051241
vt 0.7630861 0.8835123
vt 3.903103 -0.6812565
vt -0.7440121 -0.6812565
vt -0.7440121 4.931257
vt 3.903103 4.931257
vn 0 -0.5773503 0
vn 0 -0.5773503 0
vn 0 -0.5773503 0
vn 0 -0.5773503 0
vn 0 0 -0.5773503
vn 0 0 -0.5773503
vn 0 0 -0.5773503
vn 0 0 -0.5773503
vn 0.5773503 0 0
vn 0.5773503 0 0
vn 0.5773503 0 0
vn 0.5773503 0 0
vn 0 0 0.5773503
vn 0 0 0.5773503
vn 0 0 0.5773503
vn 0 0 0.5773503
vn -0.5773503 0 0
vn -0.5773503 0 0
vn -0.5773503 0 0
vn -0.5773503 0 0
vn 0 0.5773503 0
vn 0 0.5773503 0
vn 0 0.5773503 0
vn 0 0.5773503 0
vn 0 -0.5773503 0
vn 0 -0.5773503 0
vn 0 -0.5773503 0
vn 0 -0.5773503 0
vn 0 0 -0.5773503
vn 0 0 -0.5773503
vn 0 0 -0.5773503
vn 0 0 -0.5773503
vn 0.5773503 0 0
vn 0.5773503 0 0
vn 0.5773503 0 0
vn 0.5773503 0 0
vn 0 0 0.5773503
vn 0 0 0.5773503
vn 0 0 0.5773503
vn 0 0 0.5773503
vn -0.5773503 0 0
vn -0.5773503 0 0
vn -0.5773503 0 0
vn -0.5773503 0 0
vn 0 0.5773503 0
vn 0 0.5773503 0
vn 0 0.5773503 0
vn 0 0.5773503 0
usemtl TexturesCom_WoodFine0038_1_seamless_S
f 3/3/3 2/2/2 1/1/1
f 4/4/4 3/3/3 1/1/1
f 7/7/7 6/6/6 5/5/5
f 8/8/8 7/7/7 5/5/5
f 11/11/11 10/10/10 9/9/9
f 12/12/12 11/11/11 9/9/9
f 15/15/15 14/14/14 13/13/13
f 16/16/16 15/15/15 13/13/13
f 19/19/19 18/18/18 17/17/17
f 20/20/20 19/19/19 17/17/17
f 23/23/23 22/22/22 21/21/21
f 24/24/24 23/23/23 21/21/21
f 27/27/27 26/26/26 25/25/25
f 28/28/28 27/27/27 25/25/25
f 31/31/31 30/30/30 29/29/29
f 32/32/32 31/31/31 29/29/29
f 35/35/35 34/34/34 33/33/33
f 36/36/36 35/35/35 33/33/33
f 39/39/39 38/38/38 37/37/37
f 40/40/40 39/39/39 37/37/37
f 43/43/43 42/42/42 41/41/41
f 44/44/44 43/43/43 41/41/41
f 47/47/47 46/46/46 45/45/45
f 48/48/48 47/47/47 45/45/45
