mtllib Cabinet_4223545f.mtl
v -0.00864 -0.37363 0.027
v 0.08 -0.375 0.02541
v -0.01 -0.375 0.02541
v 0.08 -0.37368 0.027
v 0.37001 -0.375 0.02551
v 0.37001 -0.37368 0.02711
v 0.46001 -0.375 0.02551
v 0.45863 -0.37363 0.02711
v 0.37001 -0.375 0.00011
v 0.46001 -0.375 0.02551
v 0.46001 -0.375 0.00011
v 0.37001 -0.375 0.02551
v 0.08 -0.375 0.02541
v 0.08 -0.375 1E-05
v -0.01 -0.375 1E-05
v -0.01 -0.375 0.02541
v 0.45863 -0.37363 0.02711
v 0.46001 -0.285 0.02551
v 0.46001 -0.375 0.02551
v 0.45869 -0.285 0.02711
v 0.46001 0.285 0.02551
v 0.45869 0.285 0.02711
v 0.46001 0.37501 0.02551
v 0.45863 0.37368 0.02711
v 0.46001 0.285 0.00011
v 0.46001 0.37501 0.02551
v 0.46001 0.37501 0.00011
v 0.46001 0.285 0.02551
v 0.46001 -0.285 0.02551
v 0.46001 -0.285 0.00011
v 0.46001 -0.375 0.00011
v 0.46001 -0.375 0.02551
v 0.37001 0.37501 0.02551
v 0.46001 0.37501 0.02551
v 0.45863 0.37368 0.02711
v 0.37001 0.37365 0.02711
v 0.08 0.37501 0.0254
v 0.08 0.37365 0.027
v -0.01 0.37501 0.0254
v -0.00864 0.37368 0.027
v 0.08 0.37501 1E-05
v -0.01 0.37501 0.0254
v -0.01 0.37501 1E-05
v 0.08 0.37501 0.0254
v 0.37001 0.37501 0.02551
v 0.37001 0.37501 0.00011
v 0.46001 0.37501 0.00011
v 0.46001 0.37501 0.02551
v -0.01 0.28501 0.0254
v -0.01 0.37501 0.0254
v -0.00864 0.37368 0.027
v -0.00866 0.28501 0.027
v -0.01 -0.285 0.02541
v -0.00866 -0.285 0.027
v -0.01 -0.375 0.02541
v -0.00864 -0.37363 0.027
v -0.01 0.37501 1E-05
v -0.01 0.37501 0.0254
v -0.01 0.28501 0.0254
v -0.01 0.28501 1E-05
v -0.01 -0.285 1E-05
v -0.01 -0.285 0.02541
v -0.01 -0.375 0.02541
v -0.01 -0.375 1E-05
v 0.04581 0.3192 0.02528
v 0.04416 0.285 0.027
v 0.04418 0.32083 0.027
v 0.04582 0.28501 0.02527
v 0.04416 -0.28499 0.027
v 0.04582 -0.285 0.02527
v 0.04418 -0.32081 0.027
v 0.04581 -0.31919 0.02528
v 0.0473 0.28501 0.01301
v 0.04581 0.3192 0.02528
v 0.0473 0.31771 0.01301
v 0.04582 0.28501 0.02527
v 0.04582 -0.285 0.02527
v 0.0473 -0.285 0.01301
v 0.0473 -0.3177 0.01301
v 0.04581 -0.31919 0.02528
v 0.08 0.31919 0.02527
v 0.04581 0.3192 0.02528
v 0.04418 0.32083 0.027
v 0.08001 0.32085 0.027
v 0.37001 0.31919 0.02537
v 0.37 0.32085 0.02711
v 0.4042 0.3192 0.02538
v 0.40589 0.32083 0.02711
v 0.0473 0.31771 0.01301
v 0.04581 0.3192 0.02528
v 0.08 0.31919 0.02527
v 0.08 0.31771 0.01301
v 0.37001 0.31771 0.01311
v 0.37001 0.31919 0.02537
v 0.4042 0.3192 0.02538
v 0.40271 0.31771 0.01311
v 0.40419 0.285 0.02537
v 0.4042 0.3192 0.02538
v 0.40589 0.32083 0.02711
v 0.4058 0.285 0.02711
v 0.40419 -0.285 0.02537
v 0.4058 -0.28499 0.02711
v 0.4042 -0.31919 0.02538
v 0.40589 -0.32081 0.02711
v 0.40271 0.31771 0.01311
v 0.4042 0.3192 0.02538
v 0.40419 0.285 0.02537
v 0.40271 0.285 0.01311
v 0.40271 -0.285 0.01311
v 0.40419 -0.285 0.02537
v 0.4042 -0.31919 0.02538
v 0.40271 -0.3177 0.01311
v 0.37001 -0.31918 0.02537
v 0.4042 -0.31919 0.02538
v 0.40589 -0.32081 0.02711
v 0.37 -0.32085 0.02711
v 0.08 -0.31918 0.02527
v 0.08001 -0.32085 0.027
v 0.04581 -0.31919 0.02528
v 0.04418 -0.32081 0.027
v 0.40271 -0.3177 0.01311
v 0.4042 -0.31919 0.02538
v 0.37001 -0.31918 0.02537
v 0.37001 -0.3177 0.01311
v 0.08 -0.3177 0.01301
v 0.08 -0.31918 0.02527
v 0.04581 -0.31919 0.02528
v 0.0473 -0.3177 0.01301
v 0.40271 0.285 0.01311
v 0.37001 0.31771 0.01311
v 0.40271 0.31771 0.01311
v 0.37001 0.285 0.01311
v 0.08 0.31771 0.01301
v 0.37001 -0.285 0.01311
v 0.40271 -0.285 0.01311
v 0.40271 -0.3177 0.01311
v 0.37001 -0.3177 0.01311
v 0.08 0.28501 0.01301
v 0.0473 0.31771 0.01301
v 0.0473 0.28501 0.01301
v 0.0473 -0.285 0.01301
v 0.08 -0.285 0.01301
v 0.08 -0.3177 0.01301
v 0.0473 -0.3177 0.01301
v 0.37001 0.37501 0.00011
v 0.46001 0.285 0.00011
v 0.46001 0.37501 0.00011
v 0.37001 0.285 0.00011
v 0.46001 -0.285 0.00011
v 0.08 0.28501 1E-05
v 0.08 0.37501 1E-05
v -0.01 0.37501 1E-05
v -0.01 0.28501 1E-05
v 0.37001 -0.285 0.00011
v 0.46001 -0.375 0.00011
v 0.37001 -0.375 0.00011
v 0.08 -0.375 1E-05
v 0.08 -0.285 1E-05
v -0.01 -0.285 1E-05
v -0.01 -0.375 1E-05
v 0.04418 0.32083 0.027
v 0.04416 0.285 0.027
v -0.00866 0.28501 0.027
v -0.00864 0.37368 0.027
v -0.00866 -0.285 0.027
v 0.08001 0.32085 0.027
v 0.04416 -0.28499 0.027
v 0.08 0.37365 0.027
v -0.00864 -0.37363 0.027
v 0.37 0.32085 0.02711
v 0.04418 -0.32081 0.027
v 0.37001 0.37365 0.02711
v 0.08 -0.37368 0.027
v 0.40589 0.32083 0.02711
v 0.08001 -0.32085 0.027
v 0.45863 0.37368 0.02711
v 0.37001 -0.37368 0.02711
v 0.4058 0.285 0.02711
v 0.37 -0.32085 0.02711
v 0.45869 0.285 0.02711
v 0.45863 -0.37363 0.02711
v 0.4058 -0.28499 0.02711
v 0.40589 -0.32081 0.02711
v 0.45869 -0.285 0.02711
vt 1.909426 2.815524
vt 1.966109 2.812978
vt 1.908562 2.812978
vt 1.966109 2.815524
vt 2.151539 2.813137
vt 2.151539 2.815684
vt 2.209086 2.813137
vt 2.208209 2.815684
vt 2.151539 2.772711
vt 2.209086 2.813137
vt 2.209086 2.772711
vt 2.151539 2.813137
vt 1.966109 2.812978
vt 1.966109 2.772552
vt 1.908562 2.772552
vt 1.908562 2.812978
vt 2.183802 1.091095
vt 2.186419 1.146232
vt 2.186419 1.090244
vt 2.183802 1.146233
vt 2.186419 1.500826
vt 2.183802 1.500826
vt 2.186419 1.556814
vt 2.183802 1.555987
vt 2.227962 1.500826
vt 2.186419 1.556814
vt 2.227962 1.556814
vt 2.186419 1.500826
vt 2.186419 1.146232
vt 2.227962 1.146232
vt 2.227962 1.090244
vt 2.186419 1.090244
vt 3.730789 2.813142
vt 3.673225 2.813142
vt 3.674103 2.815689
vt 3.730789 2.815689
vt 3.916271 2.812983
vt 3.916271 2.81553
vt 3.973834 2.812983
vt 3.97297 2.81553
vt 3.916271 2.772547
vt 3.973834 2.812983
vt 3.973834 2.772547
vt 3.916271 2.812983
vt 3.730789 2.813142
vt 3.730789 2.772706
vt 3.673225 2.772706
vt 3.673225 2.813142
vt 1.931232 1.50086
vt 1.931232 1.556859
vt 1.93385 1.556032
vt 1.93385 1.500859
vt 1.931232 1.146199
vt 1.93385 1.146199
vt 1.931232 1.090199
vt 1.93385 1.091051
vt 1.88968 1.556859
vt 1.931232 1.556859
vt 1.931232 1.50086
vt 1.88968 1.50086
vt 1.88968 1.146199
vt 1.931232 1.146199
vt 1.931232 1.090199
vt 1.88968 1.090199
vt 4.252725 1.324616
vt 4.248808 1.308746
vt 4.248808 1.325375
vt 4.252747 1.308746
vt 4.248808 1.044192
vt 4.252747 1.044192
vt 4.248808 1.027566
vt 4.252725 1.028322
vt 4.280604 1.308746
vt 4.252725 1.324616
vt 4.280604 1.323924
vt 4.252747 1.308746
vt 4.252747 1.044192
vt 4.280604 1.044192
vt 4.280604 1.029014
vt 4.252725 1.028322
vt 1.701847 3.100921
vt 1.687027 3.100944
vt 1.686318 3.105139
vt 1.701847 3.105139
vt 1.827542 3.101164
vt 1.827541 3.105382
vt 1.842362 3.101188
vt 1.843094 3.105382
vt 1.687673 3.071087
vt 1.687027 3.100944
vt 1.701847 3.100921
vt 1.701847 3.071087
vt 1.827542 3.071331
vt 1.827542 3.101164
vt 1.842362 3.101188
vt 1.841715 3.071331
vt 4.570769 1.308599
vt 4.570791 1.32445
vt 4.574704 1.325208
vt 4.574704 1.308598
vt 4.570769 1.04434
vt 4.574704 1.04434
vt 4.570791 1.028488
vt 4.574704 1.027733
vt 4.542944 1.323759
vt 4.570791 1.32445
vt 4.570769 1.308599
vt 4.542944 1.308599
vt 4.542944 1.04434
vt 4.570769 1.04434
vt 4.570791 1.028488
vt 4.542944 1.029179
vt 2.878331 3.101165
vt 2.86351 3.101189
vt 2.862777 3.105385
vt 2.878331 3.105385
vt 3.004045 3.100922
vt 3.004045 3.105142
vt 3.018866 3.100945
vt 3.019575 3.105142
vt 2.864156 3.071328
vt 2.86351 3.101189
vt 2.878331 3.101165
vt 2.878331 3.071328
vt 3.004045 3.071085
vt 3.004045 3.100922
vt 3.018866 3.100945
vt 3.01822 3.071085
vt 0.754234 4.12862
vt 0.7236873 4.163625
vt 0.754234 4.163625
vt 0.7236873 4.12862
vt 0.452783 4.163625
vt 0.7236873 3.518439
vt 0.754234 3.518439
vt 0.754234 3.483434
vt 0.7236873 3.483434
vt 0.452783 4.12862
vt 0.4222362 4.163625
vt 0.4222362 4.12862
vt 0.4222364 3.518439
vt 0.4527832 3.518439
vt 0.4527832 3.483434
vt 0.4222364 3.483434
vt 0.7336031 1.689076
vt 0.6412754 1.601345
vt 0.6412754 1.689076
vt 0.7336031 1.601345
vt 0.6412754 1.045713
vt 1.031103 1.601345
vt 1.031103 1.689076
vt 1.12343 1.689076
vt 1.12343 1.601345
vt 0.7336031 1.045713
vt 0.6412754 0.9579822
vt 0.7336031 0.9579822
vt 1.031103 0.9579823
vt 1.031103 1.045714
vt 1.123431 1.045714
vt 1.123431 0.9579823
vt 3.049584 1.635945
vt 3.049561 1.601059
vt 2.995319 1.601059
vt 2.995339 1.687404
vt 2.995319 1.046013
vt 3.086377 1.635969
vt 3.049561 1.046013
vt 3.086376 1.687379
vt 2.995339 0.959706
vt 3.38419 1.635968
vt 3.049584 1.011134
vt 3.38419 1.687379
vt 3.086376 0.9596547
vt 3.421037 1.635945
vt 3.086377 1.011096
vt 3.475206 1.687404
vt 3.38419 0.9596545
vt 3.420949 1.601059
vt 3.38419 1.011096
vt 3.475268 1.601059
vt 3.475206 0.9597058
vt 3.420949 1.046013
vt 3.421037 1.011133
vt 3.475268 1.046013
vt 2.183802 1.091095
vt 2.186419 1.146232
vt 2.186419 1.090244
vt 2.186419 1.500826
vt 2.183802 1.500826
vt 2.186419 1.556814
vt 2.183802 1.555987
vt 2.227962 1.500826
vt 2.186419 1.556814
vt 2.227962 1.556814
vt 2.186419 1.500826
vt 2.186419 1.146232
vt 2.227962 1.146232
vt 2.227962 1.090244
vt 2.186419 1.090244
vt 1.93385 1.500859
vt 3.004045 3.105142
vt 2.864156 3.071328
vt 2.878331 3.071328
vt 0.754234 4.12862
vt 0.7236873 4.163625
vt 0.754234 4.163625
vt 0.7236873 4.12862
vt 0.452783 4.163625
vt 0.7236873 3.518439
vt 0.754234 3.518439
vt 0.754234 3.483434
vt 0.7236873 3.483434
vt 0.452783 4.12862
vt 0.4527832 3.518439
vt 0.4527832 3.483434
vt 0.7336031 1.689076
vt 0.6412754 1.601345
vt 0.6412754 1.689076
vt 0.7336031 1.601345
vt 0.6412754 1.045713
vt 1.031103 1.601345
vt 1.031103 1.689076
vt 1.12343 1.689076
vt 1.12343 1.601345
vt 0.7336031 1.045713
vt 0.6412754 0.9579822
vt 0.7336031 0.9579822
vt 1.031103 0.9579823
vt 1.031103 1.045714
vt 1.123431 1.045714
vt 1.123431 0.9579823
vt 3.049561 1.601059
vt 2.995339 1.687404
vt 3.475206 1.687404
vt 3.420949 1.601059
vt 3.38419 1.011096
vn -0.0004582299 -0.7723485 0.6351989
vn -0.0002745402 -0.7723439 0.6352046
vn 0 -0.759939 0.6499945
vn -0.0002753655 -0.7723439 0.6352047
vn -0.0002192181 -0.7723424 0.6352065
vn -0.0002203529 -0.7724265 0.6351041
vn 0 -0.7724239 0.6351073
vn 0.0004512746 -0.7598389 0.6501113
vn 0 -1 0
vn 0 -1 0
vn 0 -1 0
vn 0 -1 0
vn -3.513717E-07 -1 0
vn -3.513337E-07 -1 0
vn 0 -1 0
vn 0 -1 0
vn 0.7734822 -0.0005326096 0.6338178
vn 0.7734376 -7.074124E-05 0.6338723
vn 0.7590576 0 0.6510234
vn 0.7734378 -7.182525E-05 0.6338722
vn 0.7734309 0 0.6338807
vn 0.7734309 0 0.6338805
vn 0.7734476 0 0.6338603
vn 0.758904 0.0005223014 0.6512023
vn 1 0 0
vn 1 0 0
vn 1 0 0
vn 1 0 0
vn 1 0 0
vn 1 0 0
vn 1 0 0
vn 1 0 0
vn 0 0.769141 0.6390793
vn 0 0.7691409 0.6390793
vn 0 0.7691409 0.6390793
vn -0.0002217108 0.7631932 0.6461703
vn -0.0002223345 0.7631869 0.6461779
vn -0.0002221212 0.7631558 0.6462145
vn 0 0.7631576 0.6462124
vn 0.0002193208 0.7692675 0.6389268
vn 0 1 0
vn 0 1 0
vn 0 1 0
vn 0 1 0
vn 4.01523E-07 1 0
vn 4.015644E-07 1 0
vn 0 1 0
vn 0 1 0
vn -0.7640041 0 0.6452113
vn -0.7640041 0 0.6452113
vn -0.7640041 0 0.6452113
vn -0.7684165 0.0001632554 0.63995
vn -0.7684485 3.21534E-07 0.6399115
vn -0.7684295 0 0.6399344
vn -0.7684295 0 0.6399344
vn -0.7638809 -0.0001623477 0.6453572
vn -1 0 0
vn -1 0 0
vn -1 0 0
vn -1 0 0
vn -1 4.215738E-07 0
vn -1 1.053856E-07 0
vn -1 0 0
vn -1 0 0
vn 0.7253163 -0.0004474296 0.6884156
vn 0.722531 -0.0001724068 0.6913386
vn 0.7254099 -0.0004566944 0.688317
vn 0.7223923 -0.0001587506 0.6914834
vn 0.7224731 0.0004437359 0.6913989
vn 0.7254688 0.0001696723 0.688255
vn 0.7254688 0.0001696724 0.688255
vn 0.7254688 0.0001696724 0.688255
vn 0.9927104 1.70454E-05 0.1205245
vn 0.9927084 5.355054E-06 0.1205408
vn 0.9927074 0 0.1205483
vn 0.9927112 2.167176E-05 0.120518
vn 0.9927109 -8.666393E-07 0.1205199
vn 0.9927065 8.666353E-07 0.1205564
vn 0.9927065 0 0.1205561
vn 0.9927056 -7.218653E-06 0.1205628
vn 0.000158394 -0.7257093 0.6880015
vn 0.0001583939 -0.7257093 0.6880015
vn 0.000158394 -0.7257093 0.6880016
vn 0.0004834032 -0.7223196 0.6915592
vn -0.0002376495 -0.7223176 0.6915614
vn -0.0001960581 -0.7226132 0.6912526
vn -0.0004736929 -0.7253796 0.6883489
vn -0.0004829711 -0.7254719 0.6882516
vn -1.804661E-06 -0.992708 0.1205441
vn -1.804661E-06 -0.992708 0.1205442
vn -1.804661E-06 -0.992708 0.1205441
vn 0 -0.9927092 0.1205339
vn -4.237176E-05 -0.9927095 0.1205317
vn -4.197378E-05 -0.9927074 0.1205482
vn -4.462468E-07 -0.9927088 0.1205367
vn 0 -0.9927096 0.1205302
vn -0.7142018 -0.0001853402 0.6999398
vn -0.7142018 -0.0001853403 0.6999398
vn -0.7142018 -0.0001853403 0.6999399
vn -0.733922 0.001757303 0.6792315
vn -0.7339625 0 0.67919
vn -0.7340202 0.0001846257 0.6791276
vn -0.7340202 0.0001846256 0.6791276
vn -0.715064 -0.001717545 0.6990569
vn -0.9927089 -7.218513E-06 0.1205365
vn -0.9927089 -7.218514E-06 0.1205365
vn -0.9927089 -7.218514E-06 0.1205365
vn -0.992706 0 0.1205603
vn -0.992706 0 0.1205597
vn -0.992706 0 0.1205597
vn -0.992708 1.785015E-06 0.1205437
vn -0.9927086 0 0.1205388
vn -0.0001780112 0.7271153 0.6865155
vn -0.0001780112 0.7271153 0.6865155
vn -0.0001780112 0.7271153 0.6865155
vn -0.0007644568 0.7209755 0.6929601
vn -0.0002382254 0.7209775 0.6929584
vn 0.0001588887 0.7208883 0.6930513
vn 0.0001588887 0.7208884 0.6930512
vn 0.0007718022 0.7268581 0.6867872
vn 0 0.9927085 0.1205399
vn 0 0.9927085 0.1205398
vn 0 0.9927085 0.1205399
vn 9.44178E-07 0.9927087 0.1205375
vn -4.077589E-05 0.9927087 0.1205382
vn -4.101749E-05 0.9927083 0.120542
vn -6.693913E-07 0.9927076 0.1205474
vn 0 0.9927074 0.1205487
vn 0 0 1
vn 0 0 1
vn 0 0 1
vn 0 0 1
vn 0 0 1
vn 0 0 1
vn 0 0 1
vn 0 0 1
vn 2.251084E-06 0 1
vn 0 0 1
vn 0 0 1
vn 0 0 1
vn 0 0 1
vn -0.0003454529 0 1
vn -0.000345627 0 1
vn 0 0 1
vn 0 0 -1
vn 0 0 -1
vn 0 0 -1
vn 0 0 -1
vn 0 0 -1
vn 0 0 -1
vn 0 0 -1
vn 0 0 -1
vn 0 0 -1
vn 0 0 -1
vn 0 0 -1
vn 0 0 -1
vn 0.0003451641 0 -1
vn 0.0003451061 0 -1
vn 0 0 -1
vn 0 0 -1
vn -1.740517E-06 0 1
vn -5.744555E-06 0 1
vn -6.014772E-06 0 1
vn -1.523857E-06 0 1
vn -3.302655E-07 0 1
vn -0.0002777365 0 1
vn 0 0 1
vn -0.0002645185 0 1
vn 0 0 1
vn -0.0003080815 0 1
vn 4.400277E-07 0 1
vn -0.0002798781 0 1
vn -0.0002788944 0 1
vn -2.579817E-06 0 1
vn -0.0003068373 0 1
vn -4.522851E-07 0 1
vn -0.0002650584 0 1
vn -5.88799E-06 0 1
vn -0.0002784365 0 1
vn -4.945806E-06 0 1
vn 1.305146E-06 0 1
vn 5.377466E-06 0 1
vn 6.610073E-07 0 1
vn 6.007803E-06 0 1
vn -0.0002203529 -0.7724265 0.6351041
vn 0 -1 0
vn 0 -1 0
vn 0 -1 0
vn 0 -1 0
vn 0 -1 0
vn 0 -1 0
vn 1 0 0
vn 1 0 0
vn 1 0 0
vn 1 0 0
vn 1 0 0
vn 1 0 0
vn 1 0 0
vn 1 0 0
vn 0 1 0
vn 0 1 0
vn 0 1 0
vn 0 1 0
vn 4.01523E-07 1 0
vn 4.015644E-07 1 0
vn 0 1 0
vn 0 1 0
vn -1 0 0
vn -1 0 0
vn -1 0 0
vn -1 0 0
vn -1 0 0
vn -1 0 0
vn -1 0 0
vn -0.0002376495 -0.7223176 0.6915614
vn 0 -0.9927092 0.1205339
vn -4.237176E-05 -0.9927095 0.1205317
vn -0.9927089 -7.218513E-06 0.1205365
vn -0.9927089 -7.218514E-06 0.1205365
vn -0.9927089 -7.218514E-06 0.1205365
vn -0.992706 0 0.1205603
vn -0.992706 0 0.1205597
vn -0.992706 0 0.1205597
vn -0.992708 1.785015E-06 0.1205437
vn -0.9927086 0 0.1205388
vn -0.0001780112 0.7271153 0.6865155
vn -0.0001780112 0.7271153 0.6865155
vn -0.0001780112 0.7271153 0.6865155
vn 0.0007718022 0.7268581 0.6867872
vn 0 0 1
vn 0 0 1
vn 0 0 1
vn 0 0 1
vn 0 0 1
vn 0 0 1
vn 0 0 1
vn 0 0 1
vn 0 0 1
vn 0 0 1
vn 0 0 1
vn 0 0 1
vn 0 0 1
vn 0 0 -1
vn 0 0 -1
vn 0 0 -1
vn 0 0 -1
vn 0 0 -1
vn 0 0 -1
vn 0 0 -1
vn 0 0 -1
vn 0 0 -1
vn 0 0 -1
vn 0 0 -1
vn 0 0 -1
vn 0 0 -1
vn 0 0 -1
vn -0.0002777365 0 1
vn 0 0 1
vn 0 0 1
vn -5.88799E-06 0 1
vn -4.945806E-06 0 1
vn 5.377466E-06 0 1
usemtl WhiteWoodClean
f 3/3/3 2/2/2 1/1/1
f 2/2/2 4/4/4 1/1/1
f 4/4/4 2/2/2 5/5/5
f 6/6/6 4/4/4 5/5/5
f 5/5/5 7/7/7 6/6/6
f 7/7/7 8/8/8 6/6/6
f 11/11/11 10/10/10 9/9/9
f 10/10/10 12/12/12 9/9/9
f 9/9/9 12/12/12 13/13/13
f 14/14/14 9/9/9 13/13/13
f 14/14/14 13/13/13 15/15/15
f 13/13/13 16/16/16 15/15/15
f 19/19/19 18/18/18 17/17/17
f 18/18/18 20/20/20 17/17/17
f 20/20/20 18/18/18 21/21/21
f 22/22/22 20/20/20 21/21/21
f 21/21/21 23/23/23 22/22/22
f 23/23/23 24/24/24 22/22/22
f 27/27/27 26/26/26 25/25/25
f 26/26/26 28/28/28 25/25/25
f 25/25/25 28/28/28 29/29/29
f 30/30/30 25/25/25 29/29/29
f 30/30/30 29/29/29 31/31/31
f 29/29/29 32/32/32 31/31/31
f 35/35/35 34/34/34 33/33/33
f 36/36/36 35/35/35 33/33/33
f 36/36/36 33/33/33 37/37/37
f 38/38/38 36/36/36 37/37/37
f 38/38/38 37/37/37 39/39/39
f 40/40/40 38/38/38 39/39/39
f 43/43/43 42/42/42 41/41/41
f 42/42/42 44/44/44 41/41/41
f 41/41/41 44/44/44 45/45/45
f 46/46/46 41/41/41 45/45/45
f 46/46/46 45/45/45 47/47/47
f 45/45/45 48/48/48 47/47/47
f 51/51/51 50/50/50 49/49/49
f 52/52/52 51/51/51 49/49/49
f 52/52/52 49/49/49 53/53/53
f 54/54/54 52/52/52 53/53/53
f 53/53/53 55/55/55 54/54/54
f 55/55/55 56/56/56 54/54/54
f 59/59/59 58/58/58 57/57/57
f 60/60/60 59/59/59 57/57/57
f 60/60/60 61/61/61 59/59/59
f 61/61/61 62/62/62 59/59/59
f 63/63/63 62/62/62 61/61/61
f 64/64/64 63/63/63 61/61/61
f 67/67/67 66/66/66 65/65/65
f 66/66/66 68/68/68 65/65/65
f 68/68/68 66/66/66 69/69/69
f 70/70/70 68/68/68 69/69/69
f 69/69/69 71/71/71 70/70/70
f 71/71/71 72/72/72 70/70/70
f 75/75/75 74/74/74 73/73/73
f 74/74/74 76/76/76 73/73/73
f 73/73/73 76/76/76 77/77/77
f 78/78/78 73/73/73 77/77/77
f 78/78/78 77/77/77 79/79/79
f 77/77/77 80/80/80 79/79/79
f 83/83/83 82/82/82 81/81/81
f 84/84/84 83/83/83 81/81/81
f 84/84/84 81/81/81 85/85/85
f 86/86/86 84/84/84 85/85/85
f 86/86/86 85/85/85 87/87/87
f 88/88/88 86/86/86 87/87/87
f 91/91/91 90/90/90 89/89/89
f 92/92/92 91/91/91 89/89/89
f 92/92/92 93/93/93 91/91/91
f 93/93/93 94/94/94 91/91/91
f 95/95/95 94/94/94 93/93/93
f 96/96/96 95/95/95 93/93/93
f 99/99/99 98/98/98 97/97/97
f 100/100/100 99/99/99 97/97/97
f 100/100/100 97/97/97 101/101/101
f 102/102/102 100/100/100 101/101/101
f 102/102/102 101/101/101 103/103/103
f 104/104/104 102/102/102 103/103/103
f 107/107/107 106/106/106 105/105/105
f 108/108/108 107/107/107 105/105/105
f 107/107/107 108/108/108 109/109/109
f 110/110/110 107/107/107 109/109/109
f 111/111/111 110/110/110 109/109/109
f 112/112/112 111/111/111 109/109/109
f 115/115/115 114/114/114 113/113/113
f 116/116/116 115/115/115 113/113/113
f 116/116/116 113/113/113 117/117/117
f 118/118/118 116/116/116 117/117/117
f 118/118/118 117/117/117 119/119/119
f 120/120/120 118/118/118 119/119/119
f 123/123/123 122/122/122 121/121/121
f 124/124/124 123/123/123 121/121/121
f 124/124/124 125/125/125 123/123/123
f 125/125/125 126/126/126 123/123/123
f 127/127/127 126/126/126 125/125/125
f 128/128/128 127/127/127 125/125/125
f 131/131/131 130/130/130 129/129/129
f 130/130/130 132/132/132 129/129/129
f 132/132/132 130/130/130 133/133/133
f 129/129/129 132/132/132 134/134/134
f 135/135/135 129/129/129 134/134/134
f 135/135/135 134/134/134 136/136/136
f 134/134/134 137/137/137 136/136/136
f 138/138/138 132/132/132 133/133/133
f 132/132/132 138/138/138 134/134/134
f 133/133/133 139/139/139 138/138/138
f 139/139/139 140/140/140 138/138/138
f 138/138/138 140/140/140 141/141/141
f 137/137/137 134/134/134 142/142/142
f 138/138/138 142/142/142 134/134/134
f 142/142/142 138/138/138 141/141/141
f 143/143/143 137/137/137 142/142/142
f 142/142/142 141/141/141 143/143/143
f 141/141/141 144/144/144 143/143/143
f 147/147/147 146/146/146 145/145/145
f 146/146/146 148/148/148 145/145/145
f 148/148/148 146/146/146 149/149/149
f 145/145/145 148/148/148 150/150/150
f 151/151/151 145/145/145 150/150/150
f 151/151/151 150/150/150 152/152/152
f 150/150/150 153/153/153 152/152/152
f 154/154/154 148/148/148 149/149/149
f 148/148/148 154/154/154 150/150/150
f 149/149/149 155/155/155 154/154/154
f 155/155/155 156/156/156 154/154/154
f 156/156/156 157/157/157 154/154/154
f 150/150/150 158/158/158 153/153/153
f 154/154/154 158/158/158 150/150/150
f 157/157/157 158/158/158 154/154/154
f 158/158/158 159/159/159 153/153/153
f 158/158/158 157/157/157 159/159/159
f 157/157/157 160/160/160 159/159/159
f 163/163/163 162/162/162 161/161/161
f 164/164/164 163/163/163 161/161/161
f 162/162/162 163/163/163 165/165/165
f 164/164/164 161/161/161 166/166/166
f 167/167/167 162/162/162 165/165/165
f 168/168/168 164/164/164 166/166/166
f 165/165/165 169/169/169 167/167/167
f 168/168/168 166/166/166 170/170/170
f 169/169/169 171/171/171 167/167/167
f 172/172/172 168/168/168 170/170/170
f 169/169/169 173/173/173 171/171/171
f 172/172/172 170/170/170 174/174/174
f 173/173/173 175/175/175 171/171/171
f 176/176/176 172/172/172 174/174/174
f 173/173/173 177/177/177 175/175/175
f 176/176/176 174/174/174 178/178/178
f 177/177/177 179/179/179 175/175/175
f 180/180/180 176/176/176 178/178/178
f 177/177/177 181/181/181 179/179/179
f 180/180/180 178/178/178 182/182/182
f 181/181/181 183/183/183 179/179/179
f 184/184/184 180/180/180 182/182/182
f 181/181/181 184/184/184 183/183/183
f 184/184/184 182/182/182 183/183/183
