mtllib Cabinet_4223545f.mtl
v -0.46864 -0.37363 0.027
v -0.38 -0.375 0.02541
v -0.47 -0.375 0.02541
v -0.37999 -0.37368 0.027
v -0.08999 -0.375 0.02551
v -0.08999 -0.37368 0.02711
v 1E-05 -0.375 0.02551
v -0.00137 -0.37363 0.02711
v -0.08999 -0.375 0.00011
v 1E-05 -0.375 0.02551
v 1E-05 -0.375 0.00011
v -0.08999 -0.375 0.02551
v -0.38 -0.375 0.02541
v -0.38 -0.375 1E-05
v -0.47 -0.375 1E-05
v -0.47 -0.375 0.02541
v -0.00137 -0.37363 0.02711
v 1E-05 -0.285 0.02551
v 1E-05 -0.375 0.02551
v -0.00131 -0.285 0.02711
v 1E-05 0.285 0.02551
v -0.00131 0.285 0.02711
v 1E-05 0.37501 0.02551
v -0.00137 0.37368 0.02711
v 1E-05 0.285 0.00011
v 1E-05 0.37501 0.02551
v 1E-05 0.37501 0.00011
v 1E-05 0.285 0.02551
v 1E-05 -0.285 0.02551
v 1E-05 -0.285 0.00011
v 1E-05 -0.375 0.00011
v 1E-05 -0.375 0.02551
v -0.08999 0.37501 0.02551
v 1E-05 0.37501 0.02551
v -0.00137 0.37368 0.02711
v -0.08999 0.37365 0.02711
v -0.38 0.37501 0.0254
v -0.37999 0.37365 0.027
v -0.47 0.37501 0.0254
v -0.46864 0.37368 0.027
v -0.38 0.37501 1E-05
v -0.47 0.37501 0.0254
v -0.47 0.37501 1E-05
v -0.38 0.37501 0.0254
v -0.08999 0.37501 0.02551
v -0.08999 0.37501 0.00011
v 1E-05 0.37501 0.00011
v 1E-05 0.37501 0.02551
v -0.47 0.28501 0.0254
v -0.47 0.37501 0.0254
v -0.46864 0.37368 0.027
v -0.46866 0.28501 0.027
v -0.47 -0.285 0.02541
v -0.46866 -0.285 0.027
v -0.47 -0.375 0.02541
v -0.46864 -0.37363 0.027
v -0.47 0.37501 1E-05
v -0.47 0.37501 0.0254
v -0.47 0.28501 0.0254
v -0.47 0.28501 1E-05
v -0.47 -0.285 1E-05
v -0.47 -0.285 0.02541
v -0.47 -0.375 0.02541
v -0.47 -0.375 1E-05
v -0.41419 0.3192 0.02528
v -0.41584 0.285 0.027
v -0.41582 0.32083 0.027
v -0.41418 0.28501 0.02527
v -0.41584 -0.28499 0.027
v -0.41418 -0.285 0.02527
v -0.41582 -0.32081 0.027
v -0.41419 -0.31919 0.02528
v -0.4127 0.28501 0.01301
v -0.41419 0.3192 0.02528
v -0.4127 0.31771 0.01301
v -0.41418 0.28501 0.02527
v -0.41418 -0.285 0.02527
v -0.4127 -0.285 0.01301
v -0.4127 -0.3177 0.01301
v -0.41419 -0.31919 0.02528
v -0.38 0.31919 0.02527
v -0.41419 0.3192 0.02528
v -0.41582 0.32083 0.027
v -0.37999 0.32085 0.027
v -0.08999 0.31919 0.02537
v -0.09 0.32085 0.02711
v -0.0558 0.3192 0.02538
v -0.05411 0.32083 0.02711
v -0.4127 0.31771 0.01301
v -0.41419 0.3192 0.02528
v -0.38 0.31919 0.02527
v -0.38 0.31771 0.01301
v -0.08999 0.31771 0.01311
v -0.08999 0.31919 0.02537
v -0.0558 0.3192 0.02538
v -0.05729 0.31771 0.01311
v -0.05581 0.285 0.02537
v -0.0558 0.3192 0.02538
v -0.05411 0.32083 0.02711
v -0.0542 0.285 0.02711
v -0.05581 -0.285 0.02537
v -0.0542 -0.28499 0.02711
v -0.0558 -0.31919 0.02538
v -0.05411 -0.32081 0.02711
v -0.05729 0.31771 0.01311
v -0.0558 0.3192 0.02538
v -0.05581 0.285 0.02537
v -0.05729 0.285 0.01311
v -0.05729 -0.285 0.01311
v -0.05581 -0.285 0.02537
v -0.0558 -0.31919 0.02538
v -0.05729 -0.3177 0.01311
v -0.08999 -0.31918 0.02537
v -0.0558 -0.31919 0.02538
v -0.05411 -0.32081 0.02711
v -0.09 -0.32085 0.02711
v -0.38 -0.31918 0.02527
v -0.37999 -0.32085 0.027
v -0.41419 -0.31919 0.02528
v -0.41582 -0.32081 0.027
v -0.05729 -0.3177 0.01311
v -0.0558 -0.31919 0.02538
v -0.08999 -0.31918 0.02537
v -0.08999 -0.3177 0.01311
v -0.38 -0.3177 0.01301
v -0.38 -0.31918 0.02527
v -0.41419 -0.31919 0.02528
v -0.4127 -0.3177 0.01301
v -0.05729 0.285 0.01311
v -0.08999 0.31771 0.01311
v -0.05729 0.31771 0.01311
v -0.08999 0.285 0.01311
v -0.38 0.31771 0.01301
v -0.08999 -0.285 0.01311
v -0.05729 -0.285 0.01311
v -0.05729 -0.3177 0.01311
v -0.08999 -0.3177 0.01311
v -0.38 0.28501 0.01301
v -0.4127 0.31771 0.01301
v -0.4127 0.28501 0.01301
v -0.4127 -0.285 0.01301
v -0.38 -0.285 0.01301
v -0.38 -0.3177 0.01301
v -0.4127 -0.3177 0.01301
v -0.08999 0.37501 0.00011
v 1E-05 0.285 0.00011
v 1E-05 0.37501 0.00011
v -0.08999 0.285 0.00011
v 1E-05 -0.285 0.00011
v -0.38 0.28501 1E-05
v -0.38 0.37501 1E-05
v -0.47 0.37501 1E-05
v -0.47 0.28501 1E-05
v -0.08999 -0.285 0.00011
v 1E-05 -0.375 0.00011
v -0.08999 -0.375 0.00011
v -0.38 -0.375 1E-05
v -0.38 -0.285 1E-05
v -0.47 -0.285 1E-05
v -0.47 -0.375 1E-05
v -0.41582 0.32083 0.027
v -0.41584 0.285 0.027
v -0.46866 0.28501 0.027
v -0.46864 0.37368 0.027
v -0.46866 -0.285 0.027
v -0.37999 0.32085 0.027
v -0.41584 -0.28499 0.027
v -0.37999 0.37365 0.027
v -0.46864 -0.37363 0.027
v -0.09 0.32085 0.02711
v -0.41582 -0.32081 0.027
v -0.08999 0.37365 0.02711
v -0.37999 -0.37368 0.027
v -0.05411 0.32083 0.02711
v -0.37999 -0.32085 0.027
v -0.00137 0.37368 0.02711
v -0.08999 -0.37368 0.02711
v -0.0542 0.285 0.02711
v -0.09 -0.32085 0.02711
v -0.00131 0.285 0.02711
v -0.00137 -0.37363 0.02711
v -0.0542 -0.28499 0.02711
v -0.05411 -0.32081 0.02711
v -0.00131 -0.285 0.02711
vt 2.183802 1.091095
vt 2.186419 1.146232
vt 2.186419 1.090244
vt 2.186419 1.500826
vt 2.183802 1.500826
vt 2.186419 1.556814
vt 2.183802 1.555987
vt 2.227962 1.500826
vt 2.186419 1.556814
vt 2.227962 1.556814
vt 2.186419 1.500826
vt 2.186419 1.146232
vt 2.227962 1.146232
vt 2.227962 1.090244
vt 2.186419 1.090244
vt 1.93385 1.500859
vt 3.004045 3.105142
vt 2.864156 3.071328
vt 2.878331 3.071328
vt 0.754234 4.12862
vt 0.7236873 4.163625
vt 0.754234 4.163625
vt 0.7236873 4.12862
vt 0.452783 4.163625
vt 0.7236873 3.518439
vt 0.754234 3.518439
vt 0.754234 3.483434
vt 0.7236873 3.483434
vt 0.452783 4.12862
vt 0.4527832 3.518439
vt 0.4527832 3.483434
vt 0.7336031 1.689076
vt 0.6412754 1.601345
vt 0.6412754 1.689076
vt 0.7336031 1.601345
vt 0.6412754 1.045713
vt 1.031103 1.601345
vt 1.031103 1.689076
vt 1.12343 1.689076
vt 1.12343 1.601345
vt 0.7336031 1.045713
vt 0.6412754 0.9579822
vt 0.7336031 0.9579822
vt 1.031103 0.9579823
vt 1.031103 1.045714
vt 1.123431 1.045714
vt 1.123431 0.9579823
vt 3.049561 1.601059
vt 2.995339 1.687404
vt 3.475206 1.687404
vt 3.420949 1.601059
vt 3.38419 1.011096
vt 1.90943 2.815524
vt 1.966112 2.812977
vt 1.908566 2.812977
vt 1.966112 2.815524
vt 2.151536 2.813136
vt 2.151536 2.815683
vt 2.209082 2.813136
vt 2.208205 2.815683
vt 2.151536 2.772712
vt 2.209082 2.813136
vt 2.209082 2.772712
vt 2.151536 2.813136
vt 1.966112 2.812977
vt 1.966112 2.772553
vt 1.908566 2.772553
vt 1.908566 2.812977
vt 2.183802 1.091095
vt 2.186419 1.146232
vt 2.186419 1.090244
vt 2.183802 1.146232
vt 2.186419 1.500826
vt 2.183802 1.500826
vt 2.186419 1.556814
vt 2.183802 1.555987
vt 2.227962 1.500826
vt 2.186419 1.556814
vt 2.227962 1.556814
vt 2.186419 1.500826
vt 2.186419 1.146232
vt 2.227962 1.146232
vt 2.227962 1.090244
vt 2.186419 1.090244
vt 3.73079 2.813142
vt 3.673227 2.813142
vt 3.674105 2.815689
vt 3.73079 2.815689
vt 3.91627 2.812983
vt 3.91627 2.81553
vt 3.973832 2.812983
vt 3.972968 2.81553
vt 3.91627 2.772547
vt 3.973832 2.812983
vt 3.973832 2.772547
vt 3.91627 2.812983
vt 3.73079 2.813142
vt 3.73079 2.772706
vt 3.673227 2.772706
vt 3.673227 2.813142
vt 1.931232 1.500859
vt 1.931232 1.556858
vt 1.93385 1.556031
vt 1.93385 1.500859
vt 1.931232 1.1462
vt 1.93385 1.1462
vt 1.931232 1.0902
vt 1.93385 1.091052
vt 1.88968 1.556858
vt 1.931232 1.556858
vt 1.931232 1.500859
vt 1.88968 1.500859
vt 1.88968 1.1462
vt 1.931232 1.1462
vt 1.931232 1.0902
vt 1.88968 1.0902
vt 4.252725 1.324611
vt 4.248807 1.308742
vt 4.248807 1.32537
vt 4.252747 1.308743
vt 4.248807 1.044196
vt 4.252747 1.044195
vt 4.248807 1.027571
vt 4.252725 1.028327
vt 4.280605 1.308743
vt 4.252725 1.324611
vt 4.280605 1.32392
vt 4.252747 1.308743
vt 4.252747 1.044195
vt 4.280605 1.044195
vt 4.280605 1.029019
vt 4.252725 1.028327
vt 1.701844 3.100921
vt 1.687025 3.100944
vt 1.686316 3.105139
vt 1.701845 3.105139
vt 1.827544 3.101164
vt 1.827544 3.105382
vt 1.842364 3.101188
vt 1.843096 3.105382
vt 1.687671 3.071087
vt 1.687025 3.100944
vt 1.701844 3.100921
vt 1.701844 3.071087
vt 1.827544 3.071331
vt 1.827544 3.101164
vt 1.842364 3.101188
vt 1.841717 3.071331
vt 4.57077 1.308597
vt 4.570792 1.324448
vt 4.574705 1.325206
vt 4.574705 1.308596
vt 4.57077 1.044341
vt 4.574705 1.044342
vt 4.570792 1.02849
vt 4.574705 1.027735
vt 4.542943 1.323757
vt 4.570792 1.324448
vt 4.57077 1.308597
vt 4.542943 1.308597
vt 4.542943 1.044341
vt 4.57077 1.044341
vt 4.570792 1.02849
vt 4.542943 1.029181
vt 2.878331 3.101166
vt 2.863509 3.10119
vt 2.862777 3.105386
vt 2.878331 3.105386
vt 3.004045 3.100923
vt 3.004045 3.105142
vt 3.018867 3.100946
vt 3.019576 3.105142
vt 2.864156 3.071328
vt 2.863509 3.10119
vt 2.878331 3.101166
vt 2.878331 3.071328
vt 3.004045 3.071084
vt 3.004045 3.100923
vt 3.018867 3.100946
vt 3.01822 3.071084
vt 0.754234 4.12862
vt 0.7236873 4.163625
vt 0.754234 4.163625
vt 0.7236873 4.12862
vt 0.452783 4.163625
vt 0.7236873 3.518439
vt 0.754234 3.518439
vt 0.754234 3.483434
vt 0.7236873 3.483434
vt 0.452783 4.12862
vt 0.4222361 4.163625
vt 0.4222361 4.12862
vt 0.4222363 3.518439
vt 0.4527832 3.518439
vt 0.4527832 3.483434
vt 0.4222363 3.483434
vt 0.7336031 1.689076
vt 0.6412754 1.601345
vt 0.6412754 1.689076
vt 0.7336031 1.601345
vt 0.6412754 1.045713
vt 1.031103 1.601345
vt 1.031103 1.689076
vt 1.12343 1.689076
vt 1.12343 1.601345
vt 0.7336031 1.045713
vt 0.6412754 0.9579822
vt 0.7336031 0.9579822
vt 1.031103 0.9579823
vt 1.031103 1.045714
vt 1.123431 1.045714
vt 1.123431 0.9579823
vt 3.049583 1.635946
vt 3.049561 1.601059
vt 2.995319 1.60106
vt 2.995339 1.687404
vt 2.995319 1.046012
vt 3.086376 1.635969
vt 3.049561 1.046012
vt 3.086375 1.68738
vt 2.995339 0.9597051
vt 3.38419 1.635969
vt 3.049583 1.011133
vt 3.384191 1.68738
vt 3.086375 0.9596539
vt 3.421038 1.635946
vt 3.086376 1.011096
vt 3.475206 1.687404
vt 3.384191 0.9596537
vt 3.420949 1.601059
vt 3.38419 1.011096
vt 3.475269 1.60106
vt 3.475206 0.959705
vt 3.420949 1.046012
vt 3.421038 1.011133
vt 3.475269 1.046012
vn -0.0002203529 -0.7724265 0.6351041
vn 0 -1 0
vn 0 -1 0
vn 0 -1 0
vn 0 -1 0
vn 0 -1 0
vn 0 -1 0
vn 1 0 0
vn 1 0 0
vn 1 0 0
vn 1 0 0
vn 1 0 0
vn 1 0 0
vn 1 0 0
vn 1 0 0
vn 0 1 0
vn 0 1 0
vn 0 1 0
vn 0 1 0
vn 4.01523E-07 1 0
vn 4.015644E-07 1 0
vn 0 1 0
vn 0 1 0
vn -1 0 0
vn -1 0 0
vn -1 0 0
vn -1 0 0
vn -1 0 0
vn -1 0 0
vn -0.0002376495 -0.7223176 0.6915614
vn 0 -0.9927092 0.1205339
vn -4.237176E-05 -0.9927095 0.1205317
vn -0.9927089 -7.218513E-06 0.1205365
vn -0.9927089 -7.218514E-06 0.1205365
vn -0.9927089 -7.218514E-06 0.1205365
vn -0.992706 0 0.1205603
vn -0.992706 0 0.1205597
vn -0.992706 0 0.1205597
vn -0.992708 1.785015E-06 0.1205437
vn -0.9927086 0 0.1205388
vn -0.0001780112 0.7271153 0.6865155
vn -0.0001780112 0.7271153 0.6865155
vn -0.0001780112 0.7271153 0.6865155
vn 0.0007718022 0.7268581 0.6867872
vn 0 0 1
vn 0 0 1
vn 0 0 1
vn 0 0 1
vn 0 0 1
vn 0 0 1
vn 0 0 1
vn 0 0 1
vn 0 0 1
vn 0 0 1
vn 0 0 1
vn 0 0 1
vn 0 0 1
vn 0 0 -1
vn 0 0 -1
vn 0 0 -1
vn 0 0 -1
vn 0 0 -1
vn 0 0 -1
vn 0 0 -1
vn 0 0 -1
vn 0 0 -1
vn 0 0 -1
vn 0 0 -1
vn 0 0 -1
vn 0 0 -1
vn 0 0 -1
vn -0.0002777365 0 1
vn 0 0 1
vn 0 0 1
vn -5.88799E-06 0 1
vn -4.945806E-06 0 1
vn 5.377466E-06 0 1
vn -0.0004582547 -0.7723134 0.6352416
vn -0.0002745556 -0.7723131 0.6352421
vn 0 -0.7599123 0.6500256
vn -0.0002753808 -0.7723131 0.6352421
vn -0.0002192305 -0.772313 0.6352422
vn -0.0002203529 -0.7724265 0.6351041
vn 0 -0.7724248 0.6351063
vn 0.000451276 -0.7598372 0.6501133
vn 0 -1 0
vn 0 -1 0
vn 0 -1 0
vn 0 -1 0
vn -3.513738E-07 -1 0
vn -3.513364E-07 -1 0
vn 0 -1 0
vn 0 -1 0
vn 0.773464 -0.0005325971 0.6338399
vn 0.7734196 -7.073957E-05 0.6338943
vn 0.7590397 0 0.6510443
vn 0.7734197 -7.182358E-05 0.6338943
vn 0.7734128 0 0.6339027
vn 0.7734129 0 0.6339025
vn 0.7734296 0 0.6338823
vn 0.7588859 0.000522289 0.6512234
vn 1 0 0
vn 1 0 0
vn 1 0 0
vn 1 0 0
vn 1 0 0
vn 1 0 0
vn 1 0 0
vn 1 0 0
vn 0 0.7691721 0.6390417
vn 0 0.7691721 0.6390417
vn 0 0.7691721 0.6390417
vn -0.0002217086 0.7631857 0.6461792
vn -0.0002223344 0.7631869 0.6461778
vn -0.0002221326 0.7631956 0.6461675
vn 0 0.7631584 0.6462113
vn 0.0002193214 0.7692658 0.6389289
vn 0 1 0
vn 0 1 0
vn 0 1 0
vn 0 1 0
vn 4.01523E-07 1 0
vn 4.015644E-07 1 0
vn 0 1 0
vn 0 1 0
vn -0.7638963 0 0.645339
vn -0.7638963 0 0.645339
vn -0.7638963 0 0.645339
vn -0.7683804 0.0001653142 0.6399933
vn -0.7684125 6.430378E-07 0.6399549
vn -0.7683761 0 0.6399986
vn -0.7683761 0 0.6399986
vn -0.763808 -0.0001664419 0.6454436
vn -1 0 0
vn -1 0 0
vn -1 0 0
vn -1 0 0
vn -1 0 0
vn -1 -2.107969E-07 0
vn -1 0 0
vn -1 0 0
vn 0.7252587 -0.0004346712 0.6884762
vn 0.7225584 -0.0001807052 0.6913098
vn 0.7253496 -0.0004432254 0.6883805
vn 0.722424 -0.000168092 0.6914503
vn 0.7224734 0.0004437361 0.6913986
vn 0.7254046 0.0001650007 0.6883227
vn 0.7254046 0.0001650007 0.6883227
vn 0.7254047 0.0001650007 0.6883226
vn 0.9927106 1.136361E-05 0.1205221
vn 0.9927095 3.570039E-06 0.1205315
vn 0.9927089 0 0.1205357
vn 0.9927111 1.444784E-05 0.1205185
vn 0.9927109 0 0.1205199
vn 0.9927094 0 0.120532
vn 0.9927094 0 0.1205318
vn 0.9927087 -7.218675E-06 0.1205385
vn 0.0001583945 -0.725707 0.6880039
vn 0.0001583945 -0.725707 0.6880039
vn 0.0001583945 -0.725707 0.6880039
vn 0.0004834253 -0.7223572 0.69152
vn -0.0002376495 -0.7223176 0.6915614
vn -0.0001960591 -0.7226126 0.6912533
vn -0.0004737166 -0.725412 0.6883148
vn -0.0004829965 -0.7255054 0.6882163
vn -1.804675E-06 -0.9927084 0.1205406
vn -1.804675E-06 -0.9927084 0.1205406
vn -1.804675E-06 -0.9927084 0.1205406
vn 0 -0.9927092 0.1205339
vn -4.237176E-05 -0.9927095 0.1205317
vn -4.197376E-05 -0.9927076 0.1205481
vn -4.462497E-07 -0.9927093 0.1205336
vn 0 -0.9927095 0.1205311
vn -0.714233 -0.0001853303 0.699908
vn -0.714233 -0.0001853303 0.699908
vn -0.714233 -0.0001853303 0.699908
vn -0.7339377 0.001757341 0.6792145
vn -0.7339786 0 0.6791727
vn -0.734036 0.0001798903 0.6791105
vn -0.734036 0.0001798903 0.6791105
vn -0.7150949 -0.001713204 0.6990252
vn -0.9927089 -7.218513E-06 0.1205365
vn -0.9927089 -7.218514E-06 0.1205365
vn -0.9927089 -7.218514E-06 0.1205365
vn -0.992706 0 0.1205603
vn -0.992706 0 0.1205597
vn -0.992706 0 0.1205597
vn -0.992708 1.785015E-06 0.1205437
vn -0.9927086 0 0.1205388
vn -0.0001780112 0.7271153 0.6865155
vn -0.0001780112 0.7271153 0.6865155
vn -0.0001780112 0.7271153 0.6865155
vn -0.0007644615 0.7209712 0.6929646
vn -0.0002382253 0.7209782 0.6929578
vn 0.0001588892 0.7208952 0.693044
vn 0.0001588892 0.7208952 0.6930441
vn 0.0007718022 0.7268581 0.6867872
vn 0 0.9927086 0.1205389
vn 0 0.9927086 0.1205389
vn 0 0.9927086 0.120539
vn 9.441708E-07 0.9927086 0.1205385
vn -4.077586E-05 0.9927087 0.1205381
vn -4.10175E-05 0.9927085 0.1205403
vn -6.693828E-07 0.9927074 0.1205488
vn 0 0.9927072 0.1205506
vn 0 0 1
vn 0 0 1
vn 0 0 1
vn 0 0 1
vn 0 0 1
vn 0 0 1
vn 0 0 1
vn 0 0 1
vn 2.25109E-06 0 1
vn 0 0 1
vn 0 0 1
vn 0 0 1
vn 0 0 1
vn -0.0003454525 0 1
vn -0.0003456266 0 1
vn 0 0 1
vn 0 0 -1
vn 0 0 -1
vn 0 0 -1
vn 0 0 -1
vn 0 0 -1
vn 0 0 -1
vn 0 0 -1
vn 0 0 -1
vn 0 0 -1
vn 0 0 -1
vn 0 0 -1
vn 0 0 -1
vn 0.0003451639 0 -1
vn 0.0003451059 0 -1
vn 0 0 -1
vn 0 0 -1
vn -1.740521E-06 0 1
vn -5.744537E-06 0 1
vn -6.01476E-06 0 1
vn -1.52386E-06 0 1
vn -3.302691E-07 0 1
vn -0.0002777365 0 1
vn 0 0 1
vn -0.0002645188 0 1
vn 0 0 1
vn -0.0003080808 0 1
vn 4.4003E-07 0 1
vn -0.0002798775 0 1
vn -0.0002788946 0 1
vn -2.579822E-06 0 1
vn -0.000306837 0 1
vn -4.522873E-07 0 1
vn -0.0002650582 0 1
vn -5.88799E-06 0 1
vn -0.0002784366 0 1
vn -4.945806E-06 0 1
vn 1.305148E-06 0 1
vn 5.377466E-06 0 1
vn 6.610065E-07 0 1
vn 6.007802E-06 0 1
usemtl WhiteWoodClean
f 3/55/80 2/54/79 1/53/78
f 2/54/79 4/56/81 1/53/78
f 4/56/81 2/54/79 5/57/82
f 6/58/83 4/56/81 5/57/82
f 5/57/82 7/59/84 6/58/83
f 7/59/84 8/60/85 6/58/83
f 11/63/88 10/62/87 9/61/86
f 10/62/87 12/64/89 9/61/86
f 9/61/86 12/64/89 13/65/90
f 14/66/91 9/61/86 13/65/90
f 14/66/91 13/65/90 15/67/92
f 13/65/90 16/68/93 15/67/92
f 19/71/96 18/70/95 17/69/94
f 18/70/95 20/72/97 17/69/94
f 20/72/97 18/70/95 21/73/98
f 22/74/99 20/72/97 21/73/98
f 21/73/98 23/75/100 22/74/99
f 23/75/100 24/76/101 22/74/99
f 27/79/104 26/78/103 25/77/102
f 26/78/103 28/80/105 25/77/102
f 25/77/102 28/80/105 29/81/106
f 30/82/107 25/77/102 29/81/106
f 30/82/107 29/81/106 31/83/108
f 29/81/106 32/84/109 31/83/108
f 35/87/112 34/86/111 33/85/110
f 36/88/113 35/87/112 33/85/110
f 36/88/113 33/85/110 37/89/114
f 38/90/115 36/88/113 37/89/114
f 38/90/115 37/89/114 39/91/116
f 40/92/117 38/90/115 39/91/116
f 43/95/120 42/94/119 41/93/118
f 42/94/119 44/96/121 41/93/118
f 41/93/118 44/96/121 45/97/122
f 46/98/123 41/93/118 45/97/122
f 46/98/123 45/97/122 47/99/124
f 45/97/122 48/100/125 47/99/124
f 51/103/128 50/102/127 49/101/126
f 52/104/129 51/103/128 49/101/126
f 52/104/129 49/101/126 53/105/130
f 54/106/131 52/104/129 53/105/130
f 53/105/130 55/107/132 54/106/131
f 55/107/132 56/108/133 54/106/131
f 59/111/136 58/110/135 57/109/134
f 60/112/137 59/111/136 57/109/134
f 60/112/137 61/113/138 59/111/136
f 61/113/138 62/114/139 59/111/136
f 63/115/140 62/114/139 61/113/138
f 64/116/141 63/115/140 61/113/138
f 67/119/144 66/118/143 65/117/142
f 66/118/143 68/120/145 65/117/142
f 68/120/145 66/118/143 69/121/146
f 70/122/147 68/120/145 69/121/146
f 69/121/146 71/123/148 70/122/147
f 71/123/148 72/124/149 70/122/147
f 75/127/152 74/126/151 73/125/150
f 74/126/151 76/128/153 73/125/150
f 73/125/150 76/128/153 77/129/154
f 78/130/155 73/125/150 77/129/154
f 78/130/155 77/129/154 79/131/156
f 77/129/154 80/132/157 79/131/156
f 83/135/160 82/134/159 81/133/158
f 84/136/161 83/135/160 81/133/158
f 84/136/161 81/133/158 85/137/162
f 86/138/163 84/136/161 85/137/162
f 86/138/163 85/137/162 87/139/164
f 88/140/165 86/138/163 87/139/164
f 91/143/168 90/142/167 89/141/166
f 92/144/169 91/143/168 89/141/166
f 92/144/169 93/145/170 91/143/168
f 93/145/170 94/146/171 91/143/168
f 95/147/172 94/146/171 93/145/170
f 96/148/173 95/147/172 93/145/170
f 99/151/176 98/150/175 97/149/174
f 100/152/177 99/151/176 97/149/174
f 100/152/177 97/149/174 101/153/178
f 102/154/179 100/152/177 101/153/178
f 102/154/179 101/153/178 103/155/180
f 104/156/181 102/154/179 103/155/180
f 107/159/184 106/158/183 105/157/182
f 108/160/185 107/159/184 105/157/182
f 107/159/184 108/160/185 109/161/186
f 110/162/187 107/159/184 109/161/186
f 111/163/188 110/162/187 109/161/186
f 112/164/189 111/163/188 109/161/186
f 115/167/192 114/166/191 113/165/190
f 116/168/193 115/167/192 113/165/190
f 116/168/193 113/165/190 117/169/194
f 118/170/195 116/168/193 117/169/194
f 118/170/195 117/169/194 119/171/196
f 120/172/197 118/170/195 119/171/196
f 123/175/200 122/174/199 121/173/198
f 124/176/201 123/175/200 121/173/198
f 124/176/201 125/177/202 123/175/200
f 125/177/202 126/178/203 123/175/200
f 127/179/204 126/178/203 125/177/202
f 128/180/205 127/179/204 125/177/202
f 131/183/208 130/182/207 129/181/206
f 130/182/207 132/184/209 129/181/206
f 132/184/209 130/182/207 133/185/210
f 129/181/206 132/184/209 134/186/211
f 135/187/212 129/181/206 134/186/211
f 135/187/212 134/186/211 136/188/213
f 134/186/211 137/189/214 136/188/213
f 138/190/215 132/184/209 133/185/210
f 132/184/209 138/190/215 134/186/211
f 133/185/210 139/191/216 138/190/215
f 139/191/216 140/192/217 138/190/215
f 138/190/215 140/192/217 141/193/218
f 137/189/214 134/186/211 142/194/219
f 138/190/215 142/194/219 134/186/211
f 142/194/219 138/190/215 141/193/218
f 143/195/220 137/189/214 142/194/219
f 142/194/219 141/193/218 143/195/220
f 141/193/218 144/196/221 143/195/220
f 147/199/224 146/198/223 145/197/222
f 146/198/223 148/200/225 145/197/222
f 148/200/225 146/198/223 149/201/226
f 145/197/222 148/200/225 150/202/227
f 151/203/228 145/197/222 150/202/227
f 151/203/228 150/202/227 152/204/229
f 150/202/227 153/205/230 152/204/229
f 154/206/231 148/200/225 149/201/226
f 148/200/225 154/206/231 150/202/227
f 149/201/226 155/207/232 154/206/231
f 155/207/232 156/208/233 154/206/231
f 156/208/233 157/209/234 154/206/231
f 150/202/227 158/210/235 153/205/230
f 154/206/231 158/210/235 150/202/227
f 157/209/234 158/210/235 154/206/231
f 158/210/235 159/211/236 153/205/230
f 158/210/235 157/209/234 159/211/236
f 157/209/234 160/212/237 159/211/236
f 163/215/240 162/214/239 161/213/238
f 164/216/241 163/215/240 161/213/238
f 162/214/239 163/215/240 165/217/242
f 164/216/241 161/213/238 166/218/243
f 167/219/244 162/214/239 165/217/242
f 168/220/245 164/216/241 166/218/243
f 165/217/242 169/221/246 167/219/244
f 168/220/245 166/218/243 170/222/247
f 169/221/246 171/223/248 167/219/244
f 172/224/249 168/220/245 170/222/247
f 169/221/246 173/225/250 171/223/248
f 172/224/249 170/222/247 174/226/251
f 173/225/250 175/227/252 171/223/248
f 176/228/253 172/224/249 174/226/251
f 173/225/250 177/229/254 175/227/252
f 176/228/253 174/226/251 178/230/255
f 177/229/254 179/231/256 175/227/252
f 180/232/257 176/228/253 178/230/255
f 177/229/254 181/233/258 179/231/256
f 180/232/257 178/230/255 182/234/259
f 181/233/258 183/235/260 179/231/256
f 184/236/261 180/232/257 182/234/259
f 181/233/258 184/236/261 183/235/260
f 184/236/261 182/234/259 183/235/260
